<svg xmlns="http://www.w3.org/2000/svg" width="79.65" height="200" viewBox="0 0 79.65 200"><title>_</title><path d="M21.54 148.61a2.57 2.57 0 0 0-.09.88 15.78 15.78 0 0 0 3.68-.3c1.64-.3 3.62-.6 5-.76.56-.06 1-.11 1.38-.12h.72a25.85 25.85 0 0 1 3.62.26 27.6 27.6 0 0 1 4.29 1.13 18.74 18.74 0 0 0 3.65.86 17.51 17.51 0 0 0 3.64-.09 5.39 5.39 0 0 0 2-.77 54.61 54.61 0 0 0 .86-10.1v-.24c.11-5.46 0-12.14-.27-14.88a47.94 47.94 0 0 1-.25-7.06 21.6 21.6 0 0 1 .88-3.67 11.87 11.87 0 0 0 .55-2.91 11.59 11.59 0 0 0-.39-2.9 19.58 19.58 0 0 1-.66-3.69 19.07 19.07 0 0 1 .2-3.71 20.29 20.29 0 0 0 .24-3.09 20.75 20.75 0 0 0-.34-3.09 16.86 16.86 0 0 1 .18-7.36c.21-.89.5-2.34.63-3.23s.28-2.35.33-3.23a17.66 17.66 0 0 0-.09-2.57v-.46a14.64 14.64 0 0 0-.79-2.51 5.13 5.13 0 0 0-1.28-1.65 7.36 7.36 0 0 0-2.34-1c-.89-.1-2.49-.35-3.46-.35s-5.72 0-11.63.13a71.34 71.34 0 0 0-9.84.78 29.53 29.53 0 0 0-.62 6.21c-.06 3.82 0 7.31.12 8 .16 1.13.21 5.27.18 8.63 0 3.66.08 8.11.26 9.92a35.76 35.76 0 0 1 .18 5.33 21.57 21.57 0 0 1-.74 3.67 32 32 0 0 0-.77 3.18 55.94 55.94 0 0 0-.21 6.45 111.72 111.72 0 0 0 1 11.58 78 78 0 0 1 .87 8.78 21.16 21.16 0 0 1-.69 3.95z"/><path d="M51.31 117.59a47.18 47.18 0 0 0 .25 6.73c.26 2.77.38 9.54.27 15v.24c-.11 5.5-.63 10.45-1.15 11a6.06 6.06 0 0 1-3 1.32 18.85 18.85 0 0 1-4 .1 20.15 20.15 0 0 1-4-.95 25.88 25.88 0 0 0-4-1.06 23.74 23.74 0 0 0-4-.22c-.31 0-.76.06-1.28.12 0 .39.05.72.06 1s0 .46 0 .6a19.8 19.8 0 0 1-.61 3.63 2.82 2.82 0 0 0 .28 2.54c.44.38 2.7.34 5-.08s5.12-.81 6.23-.87a23.74 23.74 0 0 1 4 .22 25.88 25.88 0 0 1 4 1.06 20.15 20.15 0 0 0 4 .95 18.85 18.85 0 0 0 4-.1 6.06 6.06 0 0 0 3-1.32c.52-.56 1-5.51 1.15-11v-.2c.11-5.5 0-12.27-.27-15a47.18 47.18 0 0 1-.25-6.73 20.09 20.09 0 0 1 .8-3.36 13.35 13.35 0 0 0 .63-3.36 13 13 0 0 0-.45-3.36 18.31 18.31 0 0 1-.6-3.36 17.55 17.55 0 0 1 .18-3.36 18.12 18.12 0 0 0-.11-6.72 18.66 18.66 0 0 1-.31-3.36 18.88 18.88 0 0 1 .44-3.36c.22-.92.52-2.44.65-3.36s.29-2.44.34-3.36a18.08 18.08 0 0 0-.15-3.22 15.31 15.31 0 0 0-.84-2.93 6.48 6.48 0 0 0-1.77-2.27 8.75 8.75 0 0 0-2.9-1.29c-.83-.17-2.14-.35-3.15-.46h-1.02a18.08 18.08 0 0 1 .15 3.22c-.05.92-.21 2.44-.34 3.36s-.43 2.44-.65 3.36a18.88 18.88 0 0 0-.44 3.36 18.66 18.66 0 0 0 .31 3.36 18.12 18.12 0 0 1 .11 6.72 17.55 17.55 0 0 0-.18 3.36 18.31 18.31 0 0 0 .6 3.36 13 13 0 0 1 .45 3.36 13.35 13.35 0 0 1-.63 3.36 20.09 20.09 0 0 0-.8 3.33z"/></svg>