<svg xmlns="http://www.w3.org/2000/svg" width="66.45" height="200" viewBox="0 0 66.45 200"><title>_</title><path d="M16 60.57a25 25 0 0 1 .17 5.32c-.08 1.72-.17 3.77-.17 4.49a12.16 12.16 0 0 0 .25 2.31 12.93 12.93 0 0 0 .75 2.25 9.83 9.83 0 0 1 .87 3.18 10.84 10.84 0 0 1-.4 3.35A16.22 16.22 0 0 0 17 84a86.08 86.08 0 0 0 1.24 9 90.9 90.9 0 0 0 2.23 10.25c.48 1.28 1.14 2.85 1.41 3.37a5.57 5.57 0 0 0 .92 1.24 2.34 2.34 0 0 0 .78.39 8.78 8.78 0 0 0 1.46.07 14.41 14.41 0 0 0 1.81-.25 9 9 0 0 1 1.46-.17h.49a7 7 0 0 1 .73 0 10.5 10.5 0 0 1 2.61.7 5.45 5.45 0 0 0 1.41.34 2.11 2.11 0 0 0 .76-.23 6.06 6.06 0 0 0 1-.92 9.55 9.55 0 0 0 .9-1.44 10.47 10.47 0 0 0 .62-1.84 15.3 15.3 0 0 0 .26-2.28 11.28 11.28 0 0 1 .61-3.16 13.21 13.21 0 0 1 1.63-2.9 4.94 4.94 0 0 0 .8-1.83 5.62 5.62 0 0 0-.33-2.11 10.66 10.66 0 0 1-.69-3.44 8.88 8.88 0 0 1 .77-3.29c.35-.74 1.35-2.48 2.22-3.89a12.12 12.12 0 0 0 1.46-3.21 6.25 6.25 0 0 0-.3-2.18 11.57 11.57 0 0 1-.6-3.37 9.76 9.76 0 0 1 .67-3.23 23.28 23.28 0 0 0 .87-2.57c.2-.76.48-2.15.61-3a23 23 0 0 0 .19-3.12 23.34 23.34 0 0 0-.35-3.17 22.28 22.28 0 0 1-.39-3.76 22.39 22.39 0 0 1 .4-3.72A22 22 0 0 0 45 47.2V47a19.8 19.8 0 0 0-.2-2.84 3.42 3.42 0 0 0-.8-1.64 5.84 5.84 0 0 0-2.32-.86 26.35 26.35 0 0 0-3.73-.15 28.27 28.27 0 0 0-3.81.5 20.77 20.77 0 0 1-4.49.38 21.37 21.37 0 0 1-4.47-.79 27.76 27.76 0 0 0-3.94-.83 30 30 0 0 0-4.24-.12 3.9 3.9 0 0 0-1.88.56 3.73 3.73 0 0 0 .22 1.53 12.27 12.27 0 0 1 .76 4.41 11.15 11.15 0 0 1-1.24 4.2 7.62 7.62 0 0 0-.83 2.74 7.18 7.18 0 0 0 .63 2.71A18.81 18.81 0 0 1 16 60.57zM16.39 148.54a3.44 3.44 0 0 0 1.49.41 35.71 35.71 0 0 1 3.86.4c.81.14 2 .4 3.1.67l.92.25a12.67 12.67 0 0 0 3.46.41 13.93 13.93 0 0 0 3.49-.78 20.72 20.72 0 0 1 4.29-1.1 18.34 18.34 0 0 1 4.3.09 3.7 3.7 0 0 0 1.91-.19 2.94 2.94 0 0 0 .66-1.51 27.78 27.78 0 0 0 .15-3.43 29.66 29.66 0 0 0-.37-3.49 22.12 22.12 0 0 1 0-8 26.34 26.34 0 0 0 .37-3.45v-.7a24.44 24.44 0 0 0-.21-2.65 4.16 4.16 0 0 0-.89-1.93 5 5 0 0 0-2.16-.87 24.2 24.2 0 0 0-3.58-.14 27 27 0 0 0-3.68.5 19.72 19.72 0 0 1-4.36.38 20.4 20.4 0 0 1-4.35-.78 25.85 25.85 0 0 0-3.8-.81 27.67 27.67 0 0 0-2.91-.14h-1.11a3.45 3.45 0 0 0-1.75.57 4 4 0 0 0 .22 1.84 14.13 14.13 0 0 1 .76 4.65 12.91 12.91 0 0 1-1.19 4.45 9.32 9.32 0 0 0-.84 3.1 8.87 8.87 0 0 0 .64 3.08 19.86 19.86 0 0 1 1.24 4 14.85 14.85 0 0 1 .08 3.86 2.52 2.52 0 0 0 .26 1.31z"/><path d="M45.63 67.5a24.86 24.86 0 0 1-.93 2.77 8.28 8.28 0 0 0-.55 2.65 10.19 10.19 0 0 0 .51 2.86 7.74 7.74 0 0 1 .34 2.85 12.8 12.8 0 0 1-1.68 3.84c-.84 1.37-1.81 3.05-2.14 3.75a7.42 7.42 0 0 0-.62 2.65 9.26 9.26 0 0 0 .58 2.88 6.93 6.93 0 0 1 .42 2.85 6.31 6.31 0 0 1-1.1 2.56 11.66 11.66 0 0 0-1.41 2.51 9.89 9.89 0 0 0-.52 2.67 16.53 16.53 0 0 1-.29 2.56 11.69 11.69 0 0 1-.74 2.17 10.83 10.83 0 0 1-1.08 1.73 7.38 7.38 0 0 1-1.28 1.2 3.43 3.43 0 0 1-1.61.49 6 6 0 0 1-2-.46 9.11 9.11 0 0 0-2.18-.59 7 7 0 0 0-1 0c.1.39.2.73.28 1l.11.33c.51 1.37 1.18 3 1.5 3.56a6.93 6.93 0 0 0 1.31 1.67 3.69 3.69 0 0 0 1.52.73 10.19 10.19 0 0 0 1.78.08 15.77 15.77 0 0 0 2-.28 8.24 8.24 0 0 1 2.18-.12 9.11 9.11 0 0 1 2.18.59 6 6 0 0 0 2 .46 3.43 3.43 0 0 0 1.61-.49 7.38 7.38 0 0 0 1.31-1.22 10.83 10.83 0 0 0 1.11-1.75 11.69 11.69 0 0 0 .74-2.17 16.53 16.53 0 0 0 .29-2.56 9.89 9.89 0 0 1 .52-2.67 11.66 11.66 0 0 1 1.41-2.51 6.31 6.31 0 0 0 1.1-2.56 6.93 6.93 0 0 0-.42-2.85 9.26 9.26 0 0 1-.58-2.88 7.42 7.42 0 0 1 .62-2.65c.34-.7 1.3-2.39 2.14-3.75a12.8 12.8 0 0 0 1.68-3.84 7.74 7.74 0 0 0-.38-2.84 10.19 10.19 0 0 1-.51-2.86 8.28 8.28 0 0 1 .55-2.65 24.86 24.86 0 0 0 .93-2.77c.22-.82.51-2.26.64-3.2a24.39 24.39 0 0 0 .2-3.42 24.84 24.84 0 0 0-.38-3.42 20.87 20.87 0 0 1-.32-3.4 20.94 20.94 0 0 1 .36-3.43 23.25 23.25 0 0 0 .4-3.38 21.17 21.17 0 0 0-.23-3.31 4.89 4.89 0 0 0-1.39-2.56 7.12 7.12 0 0 0-3.1-1.2 27.5 27.5 0 0 0-4-.16l-1 .08v.2a23.25 23.25 0 0 1-.4 3.38 20.94 20.94 0 0 0-.35 3.38 20.87 20.87 0 0 0 .33 3.43 24.84 24.84 0 0 1 .38 3.42 24.39 24.39 0 0 1-.2 3.42c-.14.97-.43 2.41-.64 3.23zM27.54 157.39a34 34 0 0 1 3.66.38c1 .17 2.77.57 3.85.88a14.45 14.45 0 0 0 4 .46 15.31 15.31 0 0 0 4-.88 19.31 19.31 0 0 1 3.94-1 16.91 16.91 0 0 1 3.89.08 4.85 4.85 0 0 0 3-.44 4.13 4.13 0 0 0 1.3-2.56 29.27 29.27 0 0 0 .16-3.65 31 31 0 0 0-.39-3.71 20.62 20.62 0 0 1 0-7.47 27.72 27.72 0 0 0 .39-3.69 25.59 25.59 0 0 0-.22-3.61 5.57 5.57 0 0 0-1.35-2.8 6.31 6.31 0 0 0-3-1.27 26.12 26.12 0 0 0-3.85-.16h-.31l-1 .09v.77a27.72 27.72 0 0 1-.39 3.69 20.62 20.62 0 0 0 0 7.47 31 31 0 0 1 .39 3.71 29.27 29.27 0 0 1-.16 3.65 4.13 4.13 0 0 1-1.3 2.56 4.85 4.85 0 0 1-3 .44 16.91 16.91 0 0 0-3.89-.08 19.31 19.31 0 0 0-3.94 1 15.31 15.31 0 0 1-4 .88 14.45 14.45 0 0 1-4-.46l-.87-.23v1a10.66 10.66 0 0 1-.07 1.46 3.53 3.53 0 0 0 .55 2.5 4.2 4.2 0 0 0 2.61.99z"/></svg>