<svg xmlns="http://www.w3.org/2000/svg" width="200" height="200" viewBox="0 0 200 200"><title>_</title><path d="M122 56.36v-.19a20.47 20.47 0 0 0-.21-2.92 3.91 3.91 0 0 0-1-2 6.25 6.25 0 0 0-2.58-1 26.78 26.78 0 0 0-3.81-.16 28.86 28.86 0 0 0-3.9.52 20.16 20.16 0 0 1-4.36.37 20.78 20.78 0 0 1-4.35-.76 28.4 28.4 0 0 0-4-.85 30.59 30.59 0 0 0-4.23-.14 4 4 0 0 0-2.23.73 3 3 0 0 0 .14 2 11.88 11.88 0 0 1 .73 4.2 10.74 10.74 0 0 1-1.18 4 8.11 8.11 0 0 0-.89 3 7.67 7.67 0 0 0 .68 3A18.2 18.2 0 0 1 92 69.83a24.4 24.4 0 0 1 .14 5.17c-.11 1.72-.22 3.79-.22 4.52a12.53 12.53 0 0 0 .27 2.48 13.32 13.32 0 0 0 .81 2.32 9.41 9.41 0 0 1 .82 3 10.44 10.44 0 0 1-.38 3.17 16.6 16.6 0 0 0-.44 2.65 84.46 84.46 0 0 0 1.24 9.17 91.19 91.19 0 0 0 2.26 10.34c.49 1.32 1.15 2.89 1.44 3.43a6 6 0 0 0 1 1.38 2.77 2.77 0 0 0 1 .5 9.06 9.06 0 0 0 1.57.07 14.75 14.75 0 0 0 1.89-.26 8.53 8.53 0 0 1 1.37-.15h.45a6.49 6.49 0 0 1 .68 0 10.11 10.11 0 0 1 2.46.66 5.84 5.84 0 0 0 1.58.38 2.5 2.5 0 0 0 1.06-.32 6.5 6.5 0 0 0 1.09-1 10 10 0 0 0 1-1.54 10.9 10.9 0 0 0 .66-1.95 15.62 15.62 0 0 0 .27-2.37 10.87 10.87 0 0 1 .58-3 12.63 12.63 0 0 1 1.56-2.77 5.38 5.38 0 0 0 .9-2.08 6 6 0 0 0-.36-2.36A10.25 10.25 0 0 1 116 98a8.44 8.44 0 0 1 .72-3.08c.35-.72 1.33-2.45 2.19-3.84a12.2 12.2 0 0 0 1.54-3.42 6.76 6.76 0 0 0-.32-2.4 11.18 11.18 0 0 1-.57-3.2 9.33 9.33 0 0 1 .63-3 23.88 23.88 0 0 0 .89-2.63c.21-.78.49-2.19.62-3.09a23.58 23.58 0 0 0 .19-3.25 24 24 0 0 0-.36-3.26 21.66 21.66 0 0 1-.35-3.63 21.78 21.78 0 0 1 .39-3.62 22.51 22.51 0 0 0 .43-3.22zM121 138v-.73a25 25 0 0 0-.21-2.71 4.62 4.62 0 0 0-1-2.22 5.4 5.4 0 0 0-2.44-1 25.21 25.21 0 0 0-3.67-.15 27.61 27.61 0 0 0-3.76.51 19.28 19.28 0 0 1-4.23.37 19.79 19.79 0 0 1-4.22-.75 26.42 26.42 0 0 0-3.89-.83 28.25 28.25 0 0 0-3-.15h-1.14a3.54 3.54 0 0 0-2.12.78 3.63 3.63 0 0 0 .15 2.31 13.54 13.54 0 0 1 .73 4.46 12.32 12.32 0 0 1-1.14 4.25 9.78 9.78 0 0 0-.89 3.31 9.35 9.35 0 0 0 .69 3.3 19.28 19.28 0 0 1 1.2 3.86 14.27 14.27 0 0 1 .07 3.71 2.74 2.74 0 0 0 .3 1.69 3.42 3.42 0 0 0 1.85.59 35.22 35.22 0 0 1 3.79.39c.79.13 2 .39 3.06.67l.9.24a13.47 13.47 0 0 0 3.62.43 14.32 14.32 0 0 0 3.65-.81 20.12 20.12 0 0 1 4.19-1.07 17.74 17.74 0 0 1 4.17.09 4 4 0 0 0 2.28-.27 3.26 3.26 0 0 0 .88-1.86 28.48 28.48 0 0 0 .16-3.5 30.35 30.35 0 0 0-.37-3.56 21.63 21.63 0 0 1 0-7.83A27 27 0 0 0 121 138z" fill="#231f20"/><path d="M123 56.39a23.25 23.25 0 0 1-.4 3.38 20.94 20.94 0 0 0-.36 3.43 20.87 20.87 0 0 0 .33 3.43 24.84 24.84 0 0 1 .38 3.42 24.39 24.39 0 0 1-.2 3.42c-.14.94-.42 2.38-.64 3.2a24.86 24.86 0 0 1-.93 2.77 8.28 8.28 0 0 0-.55 2.65 10.19 10.19 0 0 0 .51 2.86 7.74 7.74 0 0 1 .38 2.84 12.8 12.8 0 0 1-1.68 3.84c-.84 1.37-1.84 3.05-2.19 3.75A7.42 7.42 0 0 0 117 98a9.26 9.26 0 0 0 .58 2.88 6.93 6.93 0 0 1 .42 2.85 6.31 6.31 0 0 1-1.1 2.56 11.66 11.66 0 0 0-1.41 2.51 9.89 9.89 0 0 0-.52 2.67 16.53 16.53 0 0 1-.29 2.56 11.69 11.69 0 0 1-.74 2.17 10.83 10.83 0 0 1-1.04 1.8 7.38 7.38 0 0 1-1.31 1.22 3.43 3.43 0 0 1-1.61.49 6 6 0 0 1-2-.46 9.11 9.11 0 0 0-2.18-.59 7 7 0 0 0-1 0c.1.39.2.73.28 1l.11.33c.51 1.37 1.18 3 1.5 3.56a6.93 6.93 0 0 0 1.27 1.67 3.69 3.69 0 0 0 1.52.73 10.19 10.19 0 0 0 1.78.08 15.77 15.77 0 0 0 2-.28 8.24 8.24 0 0 1 2.18-.12 9.11 9.11 0 0 1 2.18.59 6 6 0 0 0 2 .46 3.43 3.43 0 0 0 1.61-.49 7.38 7.38 0 0 0 1.31-1.22 10.83 10.83 0 0 0 1.08-1.73 11.69 11.69 0 0 0 .74-2.17 16.53 16.53 0 0 0 .29-2.56 9.89 9.89 0 0 1 .52-2.67 11.66 11.66 0 0 1 1.41-2.51 6.31 6.31 0 0 0 1.1-2.56 6.93 6.93 0 0 0-.42-2.85 9.26 9.26 0 0 1-.58-2.88 7.42 7.42 0 0 1 .62-2.65c.34-.7 1.3-2.39 2.14-3.75a12.8 12.8 0 0 0 1.68-3.84 7.74 7.74 0 0 0-.38-2.84 10.19 10.19 0 0 1-.44-2.96 8.28 8.28 0 0 1 .55-2.65 24.86 24.86 0 0 0 .93-2.77c.22-.82.51-2.26.64-3.2a24.39 24.39 0 0 0 .2-3.42 24.84 24.84 0 0 0-.38-3.42 20.87 20.87 0 0 1-.33-3.43 20.94 20.94 0 0 1 .36-3.43 23.25 23.25 0 0 0 .4-3.38 21.17 21.17 0 0 0-.22-3.29 4.89 4.89 0 0 0-1.39-2.56 7.12 7.12 0 0 0-3.1-1.2 27.5 27.5 0 0 0-4-.16l-1 .08c.04.08.04.16.04.22zM131.75 144.95a25.59 25.59 0 0 0-.22-3.61 5.57 5.57 0 0 0-1.35-2.8 6.31 6.31 0 0 0-3-1.27 26.12 26.12 0 0 0-3.85-.16h-.31l-1 .09v.77a27.72 27.72 0 0 1-.39 3.69 20.62 20.62 0 0 0 0 7.47 31 31 0 0 1 .39 3.71 29.27 29.27 0 0 1-.16 3.65 4.13 4.13 0 0 1-1.3 2.56 4.85 4.85 0 0 1-3 .44 16.91 16.91 0 0 0-3.89-.08 19.31 19.31 0 0 0-3.94 1 15.31 15.31 0 0 1-4 .88 14.45 14.45 0 0 1-4-.46l-.87-.23v1a10.66 10.66 0 0 1-.07 1.46 3.53 3.53 0 0 0 .55 2.5 4.2 4.2 0 0 0 2.56.92 34 34 0 0 1 3.66.38c1 .17 2.77.57 3.85.88a14.45 14.45 0 0 0 4 .46 15.31 15.31 0 0 0 4-.88 19.31 19.31 0 0 1 3.94-1 16.91 16.91 0 0 1 3.89.08 4.85 4.85 0 0 0 3-.44 4.13 4.13 0 0 0 1.3-2.56 29.27 29.27 0 0 0 .16-3.65 31 31 0 0 0-.39-3.71 20.62 20.62 0 0 1 0-7.47 27.72 27.72 0 0 0 .44-3.62z" fill="#231f20"/></svg>