<svg xmlns="http://www.w3.org/2000/svg" width="87.39" height="200" viewBox="0 0 87.39 200"><title>_</title><path d="M12.72 91.35a18.19 18.19 0 0 0-.09 2.89 2.49 2.49 0 0 0 .43 1.17 25.16 25.16 0 0 0 5.43.08c.88-.06 1.77-.11 2.63-.15.41 0 1.84-.08 3.1-.08a16 16 0 0 1 1.72.07 31.94 31.94 0 0 1 3.73.73 27 27 0 0 0 3.41.62 30.41 30.41 0 0 0 3.66.11 3 3 0 0 0 1.56-.5 3.8 3.8 0 0 0-.07-1.76 18.5 18.5 0 0 1-.6-4.29 15.76 15.76 0 0 1 .67-4.1 27.31 27.31 0 0 0 .82-3.3 64.15 64.15 0 0 0 .21-6.92v-.1a36.06 36.06 0 0 0-.37-5.32h-.21a14.08 14.08 0 0 1-1.84.18 9.72 9.72 0 0 1-2-.21 10.24 10.24 0 0 0-1.3-.19c-.28 0-1.52 0-2.9.07-2.1.1-3.32-.15-3.87-.8a3.13 3.13 0 0 1-.53-2.37 12.41 12.41 0 0 0 .12-1.34 11.22 11.22 0 0 0-.07-1.29 3.89 3.89 0 0 1 1.6-3.76 1.52 1.52 0 0 0 .33-.4 2.19 2.19 0 0 0 0-.67 3.91 3.91 0 0 1 .3-2.26 3.28 3.28 0 0 1 1.82-1.44 8 8 0 0 0 1-.41c.16-.08 1-.65 2-1.39a12 12 0 0 1 2.88-1.65 7.26 7.26 0 0 1 2-.16.81.81 0 0 0 .27 0 1 1 0 0 0 .07-.19 8.53 8.53 0 0 0 .18-1.22v-.71c0-.25 0-.41-.08-.56a15.18 15.18 0 0 1-.22-1.76 14.77 14.77 0 0 1 0-1.77 12.46 12.46 0 0 0 0-1.34c0-.27-.06-.71-.11-1.05a4.65 4.65 0 0 0-.95.15 22.2 22.2 0 0 1-2.83.55 26.93 26.93 0 0 1-3 .13 10.06 10.06 0 0 0-2.33.28A24.86 24.86 0 0 0 25 47.51 58.37 58.37 0 0 0 19.65 52a14.66 14.66 0 0 0-2.39 3 9.57 9.57 0 0 0-.6 2.42 22 22 0 0 1-.6 3.37A23.55 23.55 0 0 1 14.85 64a15.21 15.21 0 0 0-.92 2.7 15.11 15.11 0 0 0-.25 2.84 32.91 32.91 0 0 1-.12 3.41 30.61 30.61 0 0 1-.54 3.3 11.26 11.26 0 0 0-.23 2.61 12 12 0 0 0 .55 2.63A12.75 12.75 0 0 1 14 85a12.45 12.45 0 0 1-.59 3.54 18 18 0 0 0-.69 2.81zM50.77 91.34a18.42 18.42 0 0 0-.09 2.89 2.57 2.57 0 0 0 .43 1.16 25.13 25.13 0 0 0 5.42.09c.88-.06 1.77-.11 2.63-.14.54 0 1.91-.07 3.11-.07a16.41 16.41 0 0 1 1.7.06 33 33 0 0 1 3.73.72 27.24 27.24 0 0 0 3.41.62 30.88 30.88 0 0 0 3.66.1 3 3 0 0 0 1.56-.5 3.78 3.78 0 0 0-.06-1.75 18.65 18.65 0 0 1-.59-4.28 16 16 0 0 1 .65-4.09 27.55 27.55 0 0 0 .81-3.3 64.75 64.75 0 0 0 .21-6.93 37.52 37.52 0 0 0-.35-5.41h-.24a13.56 13.56 0 0 1-1.8.17 8.81 8.81 0 0 1-2-.2 10.46 10.46 0 0 0-1.3-.19c-.32 0-1.59 0-2.91.07-2.09.11-3.32-.15-3.86-.8a3.13 3.13 0 0 1-.54-2.36 12.65 12.65 0 0 0 .12-1.35 11.39 11.39 0 0 0-.06-1.29A3.91 3.91 0 0 1 66 60.84a1.59 1.59 0 0 0 .33-.4 2.2 2.2 0 0 0 0-.67 3.92 3.92 0 0 1 .31-2.25 3.3 3.3 0 0 1 1.81-1.44 8.33 8.33 0 0 0 1-.42c.16-.08 1-.65 2-1.39a12.36 12.36 0 0 1 2.88-1.64 7.2 7.2 0 0 1 2-.16.23.23 0 0 0 .34-.22 8.73 8.73 0 0 0 .17-1.25v-.71c0-.25 0-.41-.08-.57a15.56 15.56 0 0 1-.22-1.76 15.11 15.11 0 0 1 0-1.77 12.81 12.81 0 0 0 0-1.34c0-.28-.06-.72-.11-1.05a4.61 4.61 0 0 0-1 .14 23 23 0 0 1-2.83.54 25.69 25.69 0 0 1-3 .14 9.53 9.53 0 0 0-2.33.29 9.85 9.85 0 0 0-2.11 1c-.62.4-2.11 1.49-3.33 2.43s-3 2.52-4.13 3.66a14.75 14.75 0 0 0-2.39 3 9.65 9.65 0 0 0-.61 2.42 22.37 22.37 0 0 1-.61 3.36A24.12 24.12 0 0 1 52.88 64a15.21 15.21 0 0 0-.88 2.69 15.21 15.21 0 0 0-.26 2.85 33.29 33.29 0 0 1-.12 3.4 31.3 31.3 0 0 1-.62 3.29v.24a11.69 11.69 0 0 0-.18 2.38 12.17 12.17 0 0 0 .54 2.64 10.64 10.64 0 0 1 .05 7.06 18.24 18.24 0 0 0-.64 2.79z"/><path d="M49.33 78.94a13 13 0 0 1 .2-2.73 1.57 1.57 0 0 0-1-.25h-.08a12.18 12.18 0 0 1-1.86.21 8.45 8.45 0 0 1-1.65-.17 11.72 11.72 0 0 0-1.54-.23h-2.58v.09a63.75 63.75 0 0 1-.23 7.19 28.61 28.61 0 0 1-.87 3.52 14.26 14.26 0 0 0-.59 3.64 17 17 0 0 0 .55 3.88 4.3 4.3 0 0 1-.16 3 3.91 3.91 0 0 1-2.72 1.12 32.52 32.52 0 0 1-3.88-.11 28.22 28.22 0 0 1-3.64-.67 30.5 30.5 0 0 0-3.52-.69 40.07 40.07 0 0 0-4.58 0c-.08.36-.14.7-.19 1v.24a19.71 19.71 0 0 0-.1 3.18 3.49 3.49 0 0 0 1.08 2.32c.54.39 3.41.54 6.38.33a59 59 0 0 1 7.17-.16 30.5 30.5 0 0 1 3.52.69 28.22 28.22 0 0 0 3.64.67 32.52 32.52 0 0 0 3.88.11 3.91 3.91 0 0 0 2.72-1.12 4.3 4.3 0 0 0 .16-3 17 17 0 0 1-.55-3.87v-.66a16 16 0 0 1 .32-2.11v-.1a20 20 0 0 1 .1-3.18 19.76 19.76 0 0 1 .69-3.02A9.14 9.14 0 0 0 50 82a13.57 13.57 0 0 1-.67-3.06zM39.53 53.65a2.27 2.27 0 0 1-1.3.29 5.7 5.7 0 0 0-1.53.11 10.44 10.44 0 0 0-2.35 1.4A25.73 25.73 0 0 1 32.12 57a9.52 9.52 0 0 1-1.26.51 1.83 1.83 0 0 0-.95.72 2.49 2.49 0 0 0-.14 1.32 3.37 3.37 0 0 1-.1 1.44 2.83 2.83 0 0 1-.84 1.01 2.39 2.39 0 0 0-1 2.37 12.62 12.62 0 0 1 .08 1.5 13.79 13.79 0 0 1-.14 1.55 1.72 1.72 0 0 0 .2 1.17 5.56 5.56 0 0 0 2.64.27c1.27-.07 2.66-.1 3.08-.07a11.72 11.72 0 0 1 1.54.23 8.45 8.45 0 0 0 1.65.17 12 12 0 0 0 1.55-.15l.11-.1a2.89 2.89 0 0 0 .77-1l.06-.12a3.37 3.37 0 0 0 .1-1.44 2.49 2.49 0 0 1 .14-1.32 1.83 1.83 0 0 1 .95-.72 9.52 9.52 0 0 0 1.26-.51 25.73 25.73 0 0 0 2.23-1.52A10.44 10.44 0 0 1 46.41 61a5.7 5.7 0 0 1 1.53-.11 2.27 2.27 0 0 0 1.3-.29 2.11 2.11 0 0 0 .63-1.14 8.16 8.16 0 0 0 0-3.12 13.66 13.66 0 0 1-.2-1.56 13.35 13.35 0 0 1 0-1.56 13.94 13.94 0 0 0 0-1.54 13.09 13.09 0 0 0-.17-1.5 1.3 1.3 0 0 0-.83-.93 4.64 4.64 0 0 0-1.95.15 20.8 20.8 0 0 1-2.6.5 24.44 24.44 0 0 1-2.79.12h-.08c-.3 0-.64 0-1 .06 0 .31.06.63.06.87a10 10 0 0 1-.15 1.56 2.11 2.11 0 0 1-.63 1.14zM77.57 53.65a2.26 2.26 0 0 1-1.3.3 5.75 5.75 0 0 0-1.53.12 10.5 10.5 0 0 0-2.35 1.39A26.69 26.69 0 0 1 70.16 57a9.65 9.65 0 0 1-1.26.52 1.85 1.85 0 0 0-.95.72 2.5 2.5 0 0 0-.15 1.31 3.4 3.4 0 0 1-.11 1.45 2.87 2.87 0 0 1-.83 1 3.07 3.07 0 0 0-.84 1 3.11 3.11 0 0 0-.16 1.34 12.86 12.86 0 0 1 .08 1.5 14.09 14.09 0 0 1-.14 1.55 1.73 1.73 0 0 0 .2 1.17 5.57 5.57 0 0 0 2.64.27c1.27-.07 2.66-.1 3.08-.07a12 12 0 0 1 1.54.23 8.55 8.55 0 0 0 1.65.17 12.18 12.18 0 0 0 1.55-.15l.11-.1a2.93 2.93 0 0 0 .77-1l.06-.12a3.4 3.4 0 0 0 .11-1.43 2.5 2.5 0 0 1 .15-1.31 1.85 1.85 0 0 1 .95-.72 9.65 9.65 0 0 0 1.26-.52 26.69 26.69 0 0 0 2.23-1.41 10.5 10.5 0 0 1 2.35-1.4 5.75 5.75 0 0 1 1.55-.11 2.26 2.26 0 0 0 1.3-.3 2.11 2.11 0 0 0 .63-1.14 8.29 8.29 0 0 0 0-3.12 13.85 13.85 0 0 1-.19-1.56 13.55 13.55 0 0 1 0-1.56 14.19 14.19 0 0 0 0-1.54 13.3 13.3 0 0 0-.17-1.5 1.3 1.3 0 0 0-.83-.94 4.64 4.64 0 0 0-2 .15 21.5 21.5 0 0 1-2.6.5 25.08 25.08 0 0 1-2.79.13h-.07c-.3 0-.64 0-1 .06 0 .31.06.63.06.87a10.12 10.12 0 0 1-.14 1.56 2.11 2.11 0 0 1-.63 1.15zM88.33 90a64.7 64.7 0 0 0 .23-7.19c0-3-.29-5.8-.57-6.25a1.54 1.54 0 0 0-1.5-.64 12.34 12.34 0 0 1-1.86.2A8.55 8.55 0 0 1 83 76a12 12 0 0 0-1.54-.23h-2.6v.09a64.7 64.7 0 0 1-.23 7.19 29 29 0 0 1-.86 3.52 14.46 14.46 0 0 0-.58 3.64 17.21 17.21 0 0 0 .54 3.87 4.3 4.3 0 0 1-.17 3 3.92 3.92 0 0 1-2.71 1.12 32.86 32.86 0 0 1-3.85-.04 28.64 28.64 0 0 1-3.64-.66 31 31 0 0 0-3.52-.68 40.69 40.69 0 0 0-4.57 0c-.08.36-.14.7-.19 1v.23a20 20 0 0 0-.1 3.18 3.49 3.49 0 0 0 1.02 2.36c.53.39 3.4.54 6.38.34a59.86 59.86 0 0 1 7.17-.16 31 31 0 0 1 3.52.68 28.64 28.64 0 0 0 3.64.66 32.86 32.86 0 0 0 3.87.11 3.92 3.92 0 0 0 2.71-1.12 4.3 4.3 0 0 0 .17-3 17.21 17.21 0 0 1-.54-3.87 14.46 14.46 0 0 1 .58-3.64 29 29 0 0 0 .83-3.59z"/></svg>