<svg xmlns="http://www.w3.org/2000/svg" width="88.3" height="200" viewBox="0 0 88.3 200"><title>_</title><path d="M3.37 116.42a30.87 30.87 0 0 0 4.93-.69c1.68-.35 3.37-.65 4.64-.85a8.76 8.76 0 0 1 2.06-.18 10.73 10.73 0 0 1 2.09.47 3.15 3.15 0 0 1 1.91 2.77 11.91 11.91 0 0 1-.69 3.77 28.13 28.13 0 0 0-.81 3.13c-.05.27-.1.52-.14.75a28.61 28.61 0 0 0-.26 4c0 1.24-.09 4.22-.27 6.64a78.44 78.44 0 0 1-1.29 9 24.56 24.56 0 0 0-.65 4.78L15 150h.34c.69 0 1.53 0 2 .08a15.81 15.81 0 0 1 2.11.37 2.27 2.27 0 0 0 .87 0 4.46 4.46 0 0 0 1.15-.71 5.09 5.09 0 0 1 2.46-1.14h.31a6.39 6.39 0 0 1 3 .77.37.37 0 0 0 .17 0 8.17 8.17 0 0 0 .62-2.18 27.58 27.58 0 0 0 .19-4.25 28.24 28.24 0 0 0-.62-4.25 14.53 14.53 0 0 1-.2-5 15 15 0 0 1 1.87-4.69 22.72 22.72 0 0 0 1.85-3.71 17.57 17.57 0 0 0 .8-3.67 14.85 14.85 0 0 1 .6-3.31 2.37 2.37 0 0 1 1.48-1.42 1.87 1.87 0 0 1 1.48.15 5.37 5.37 0 0 0 .88-.67 5.48 5.48 0 0 1 2.37-1.37 4.23 4.23 0 0 1 2.67.46 4.07 4.07 0 0 0 1.24.38 7.25 7.25 0 0 0 1.74-.13 3.11 3.11 0 0 1 3.36 1.56c.6 1.23.07 6.06-.18 8.09l-.05.41a70.65 70.65 0 0 1-1.65 9 39.07 39.07 0 0 1-1.86 4.32 18.54 18.54 0 0 0-1.35 3.76 16.93 16.93 0 0 0-.26 3.84 12.77 12.77 0 0 0 .27 1.84 4.82 4.82 0 0 1 1.59-.34 6 6 0 0 1 2.38.62 4.34 4.34 0 0 0 1.18.39 3.67 3.67 0 0 0 1.11-.11 9.39 9.39 0 0 1 1.72-.32h.3a6.88 6.88 0 0 1 1.66.18l.11-.11a12 12 0 0 0 1.23-2.49 29.23 29.23 0 0 0 1.06-3.88 30 30 0 0 0 .41-4 34.27 34.27 0 0 1 .45-4.54 34.87 34.87 0 0 1 1.18-4.43 30.15 30.15 0 0 0 1-3.93 28.36 28.36 0 0 0 .35-4 10.45 10.45 0 0 1 .57-3.66 2.56 2.56 0 0 1 3.15-1.36 13.54 13.54 0 0 0 1.55.44 15.33 15.33 0 0 0 1.69.22 3.61 3.61 0 0 0 1.26-.24 7 7 0 0 0 1.54-1.08 5.65 5.65 0 0 1 3-1.43 6.08 6.08 0 0 1 3.22.83l.17.09a6.38 6.38 0 0 0 .08-.78 32.58 32.58 0 0 1 .26-3.27A7.14 7.14 0 0 0 75 110v-.28a8.19 8.19 0 0 0-.25-1.16 10 10 0 0 1-.38-2.36 14.68 14.68 0 0 1 .22-2.58 1.9 1.9 0 0 0 0-.65 1.86 1.86 0 0 0-.52-.12 10.43 10.43 0 0 0-1.75.09h-.19a6.9 6.9 0 0 0-1.39.48 7.56 7.56 0 0 1-2.22.71 10.35 10.35 0 0 1-3-.29c-1-.23-1.81-.37-2-.38a4.9 4.9 0 0 1-1.89-.63 8.43 8.43 0 0 1-1.63-1.37 3.85 3.85 0 0 1-1-2.53 4.37 4.37 0 0 1 1.17-2.45 3.61 3.61 0 0 0 .64-1 2.52 2.52 0 0 0 0-.93 7.76 7.76 0 0 1-.16-2.22 7.26 7.26 0 0 1 .6-2.12 4.79 4.79 0 0 1 1.62-1.82 14.34 14.34 0 0 1 4.26-.89 41.23 41.23 0 0 0 4.7-.7 18.61 18.61 0 0 1 3.24-.52 6.17 6.17 0 0 1 .93.06 4.81 4.81 0 0 1-.1-.78 6.9 6.9 0 0 1 .39-2.28c.11-.29.24-.71.36-1.09.06-.21.12-.41.17-.57.12-.45.28-1.2.35-1.65s.17-1.57.22-2.48v-.3a8.93 8.93 0 0 1-1.6.35 8.5 8.5 0 0 1-1.29 0 7.72 7.72 0 0 1-.84-.09c-.43-.08-1.15-.17-1.57-.2s-1.16 0-1.57 0c-.61 0-2.25 0-3.43-.12-1.7-.1-3.64-.86-4.12-2.31s.39-5.72.49-6.2c.48-2.26 1-5.05 1-6.1a26.25 26.25 0 0 1 .78-4.3 28.17 28.17 0 0 1 1.7-4.22 24 24 0 0 0 1.42-3.65 21.15 21.15 0 0 0 .44-2.1c.1-.63.2-1.25.2-1.71a8.35 8.35 0 0 0-.09-1.92 6.49 6.49 0 0 1-2.62.22 6.18 6.18 0 0 1-2.55-1.18 4.86 4.86 0 0 0-1.23-.7 2.82 2.82 0 0 0-1-.05c-.42.08-1.1.26-1.46.38a12.51 12.51 0 0 0-1.25.5 4.81 4.81 0 0 0-.91.95 23.52 23.52 0 0 0-1.58 2.7 15.29 15.29 0 0 0-1.12 3.39 15.91 15.91 0 0 0-.09 3.62 28.51 28.51 0 0 1 .09 4.39 27.63 27.63 0 0 1-.73 4.29 25.08 25.08 0 0 0-.64 3.79 28.65 28.65 0 0 0 .06 4 9.82 9.82 0 0 1-.36 4 3.3 3.3 0 0 1-3.05 1.94c-.44 0-1-.08-1.61-.17l-.78-.14a11.76 11.76 0 0 1-2.08-.67 7.64 7.64 0 0 0-1.32-.46 6.15 6.15 0 0 0-1.27-.11c-.4 0-1.07.08-1.43.14s-1 .19-1.3.29a2.34 2.34 0 0 1-2.84-1.68 11.23 11.23 0 0 1-.19-3.44c.09-1.14.33-3 .54-4.11s.64-3 1-4.09a21.22 21.22 0 0 0 .64-3.69 22.41 22.41 0 0 0-.16-3.81 19.62 19.62 0 0 1-.05-4.38v-.19a20.8 20.8 0 0 1 1.25-4.51 10.49 10.49 0 0 0 .47-1.34 10.51 10.51 0 0 1-1.73.14 7.79 7.79 0 0 1-2.33-.46 7.39 7.39 0 0 0-1.33-.36 6.62 6.62 0 0 0-1.29 0 10.6 10.6 0 0 0-1.25.23 4.73 4.73 0 0 0-.58.21 2.44 2.44 0 0 0-.22.52 18.8 18.8 0 0 0-.45 2.64 26.83 26.83 0 0 1-.79 4 32.13 32.13 0 0 1-1.55 4 25.17 25.17 0 0 0-1.34 3.63c-.26 1-.76 4.61-1.07 7.86-.22 2.22-.8 6.74-1.47 8a6 6 0 0 1-2.53 2.39 8.4 8.4 0 0 1-2.78.62 8.43 8.43 0 0 1-2.76-.54 12.38 12.38 0 0 0-1.86-.57 10.74 10.74 0 0 0-1.82-.16 16.85 16.85 0 0 1-2.59-.23 24.23 24.23 0 0 1-2.69-.7 9.16 9.16 0 0 1 .39 2.54 6.53 6.53 0 0 1-.72 2.67 9.39 9.39 0 0 0-.64 1.49 7.21 7.21 0 0 0-.24 1.42 10.64 10.64 0 0 0 .09 1.56 13.44 13.44 0 0 0 .4 1.69 2.39 2.39 0 0 0 .49.79 2.42 2.42 0 0 0 .9.29h1.89c.51 0 1.31-.09 1.79-.16a11 11 0 0 0 1.63-.4 14.702 14.702 0 0 0 1.68-.74 4.69 4.69 0 0 1 2.72-.53 4.34 4.34 0 0 1 2.35 1.47 6.31 6.31 0 0 1 1.09 2 3.05 3.05 0 0 1-.32 2.3 5.23 5.23 0 0 0-.38.82 11.45 11.45 0 0 0-.34 1.28 3.19 3.19 0 0 0 .05 1.07A4.63 4.63 0 0 0 22 96a6.07 6.07 0 0 0 .4.71 7.82 7.82 0 0 1 1.07 2.47 6.51 6.51 0 0 1-.09 2.62 4.75 4.75 0 0 1-1.53 2.34c-1.07.82-3.76 1.06-3.88 1.07a36.18 36.18 0 0 1-3.66.15 10 10 0 0 1-2.66-.57 13.17 13.17 0 0 1-2.53-1.39 3.07 3.07 0 0 0-1-.45 10.17 10.17 0 0 0-1.93 1.69 13.43 13.43 0 0 0-1.66 2.15 4.15 4.15 0 0 0 .18.79 5.87 5.87 0 0 1 .29 2.51 6.76 6.76 0 0 1-.92 2.4 5.91 5.91 0 0 0-.7 1.51 8.73 8.73 0 0 0-.13 2 1.69 1.69 0 0 0 .12.42z"/><path d="M79.14 82.65h-1c-.12.41-.27.85-.38 1.17a5.49 5.49 0 0 0-.3 1.71 4.41 4.41 0 0 0 .41 1.56A1.11 1.11 0 0 1 78 88a1.44 1.44 0 0 1-1.09 0 7.19 7.19 0 0 0-1.78-.25 17.8 17.8 0 0 0-2.91.48 42.35 42.35 0 0 1-4.92.73 13.66 13.66 0 0 0-3.61.67 3.33 3.33 0 0 0-1 1.19 5.81 5.81 0 0 0-.46 1.62 6.33 6.33 0 0 0 .12 1.73 3.89 3.89 0 0 1 0 1.72 5 5 0 0 1-1 1.59 2.91 2.91 0 0 0-.76 1.5 2.36 2.36 0 0 0 .61 1.44 7.1 7.1 0 0 0 1.28 1.08 3.46 3.46 0 0 0 1.24.42 22.08 22.08 0 0 1 2.2.42 9.2 9.2 0 0 0 2.45.26 6.15 6.15 0 0 0 1.71-.55 8.09 8.09 0 0 1 1.41-.52l.47-.11h.15a2.26 2.26 0 0 0 0-.23 5.58 5.58 0 0 1-.1-.71 5.72 5.72 0 0 1 0-1 5.81 5.81 0 0 1 .46-1.62 3.33 3.33 0 0 1 1-1.19 13.66 13.66 0 0 1 3.53-.74 42.35 42.35 0 0 0 4.92-.73 17.8 17.8 0 0 1 2.91-.48 7.19 7.19 0 0 1 1.77.28 1.44 1.44 0 0 0 1.09 0 1.11 1.11 0 0 0-.15-1 4.41 4.41 0 0 1-.41-1.56 5.49 5.49 0 0 1 .3-1.71c.18-.49.43-1.3.56-1.79s.3-1.3.38-1.79.19-1.68.24-2.64a3.27 3.27 0 0 0-.32-2 1.66 1.66 0 0 0-1.24.07 7.65 7.65 0 0 1-1.69.42 7.41 7.41 0 0 1-1.72-.07c-.48-.08-1.26-.18-1.73-.22s-1.26 0-1.73 0h-1.04zM76.15 114.67c0 1.21-.36 2.3-.69 2.42a2.84 2.84 0 0 1-1.82-.5 4.58 4.58 0 0 0-2.31-.62 4.2 4.2 0 0 0-2.08 1 8.5 8.5 0 0 1-2 1.36 5 5 0 0 1-2 .37 16.84 16.84 0 0 1-1.9-.25 14.91 14.91 0 0 1-1.77-.5 1.07 1.07 0 0 0-1.28.59 9.4 9.4 0 0 0-.43 3 29.81 29.81 0 0 1-.37 4.22 31.55 31.55 0 0 1-1.1 4.17 33.19 33.19 0 0 0-1.12 4.2 32.61 32.61 0 0 0-.43 4.3 31.32 31.32 0 0 1-.44 4.27 30.61 30.61 0 0 1-1.14 4.1 13.21 13.21 0 0 1-1.46 2.91 1.59 1.59 0 0 1-1.42.68 5.49 5.49 0 0 0-1.48-.19h-.22c0 .32-.08.67-.11 1a17.12 17.12 0 0 0-.05 2.45 10 10 0 0 0 .6 3 .86.86 0 0 0 1.21.37 3.56 3.56 0 0 1 1.56-.48 4.17 4.17 0 0 1 1.66.45 5.81 5.81 0 0 0 1.71.55 5.08 5.08 0 0 0 1.71-.16 7.58 7.58 0 0 1 1.63-.28 5.49 5.49 0 0 1 1.48.19 1.59 1.59 0 0 0 1.42-.68 13.21 13.21 0 0 0 1.46-2.91 30.61 30.61 0 0 0 1.14-4.1 31.32 31.32 0 0 0 .44-4.27 32.61 32.61 0 0 1 .43-4.3 33.19 33.19 0 0 1 1.12-4.2 31.55 31.55 0 0 0 1.1-4.17 29.81 29.81 0 0 0 .37-4.22 9.4 9.4 0 0 1 .43-3 1.07 1.07 0 0 1 1.28-.59 14.91 14.91 0 0 0 1.77.5 16.84 16.84 0 0 0 1.9.25 5 5 0 0 0 2-.37 8.5 8.5 0 0 0 2-1.36 4.2 4.2 0 0 1 2.08-1 4.58 4.58 0 0 1 2.31.62 2.84 2.84 0 0 0 1.82.5c.33-.12.65-1.21.69-2.42s.15-2.59.24-3.06a8.53 8.53 0 0 0 .09-1.75 9.39 9.39 0 0 0-.35-1.78 8.57 8.57 0 0 1-.31-2 13.15 13.15 0 0 1 .2-2.27 2.76 2.76 0 0 0-.26-1.85 2.53 2.53 0 0 0-1.67-.7 11.48 11.48 0 0 0-2.21.13 8.23 8.23 0 0 0-1.88.63 6.15 6.15 0 0 1-1.71.55 3.53 3.53 0 0 1-.55 0c-.3 0-.65 0-1-.1v.38a8.53 8.53 0 0 1-.09 1.75c-.05.58-.16 1.96-.2 3.17zM20.54 92.44a6.64 6.64 0 0 1 .54-1.13 1.58 1.58 0 0 0 .13-1.1 4.93 4.93 0 0 0-.81-1.43 2.87 2.87 0 0 0-1.4-.93 3.25 3.25 0 0 0-1.75.38c-.27.15-.63.32-1 .47l-.08.24a8.07 8.07 0 0 0-.21 1 7.28 7.28 0 0 0-.09.83 11.9 11.9 0 0 0 .13 1.79 14.89 14.89 0 0 0 .46 1.93 3.65 3.65 0 0 0 1 1.52 3.68 3.68 0 0 0 1.72.6H20.67a6 6 0 0 1-.39-1 4.62 4.62 0 0 1-.08-1.74 12.72 12.72 0 0 1 .34-1.43zM16.92 121.23a10.74 10.74 0 0 0 .62-3.19 1.73 1.73 0 0 0-.92-1.46 9.31 9.31 0 0 0-1.75-.39 10.78 10.78 0 0 0-1.7.18 2.91 2.91 0 0 1 0 .44 3.64 3.64 0 0 1-.15.6 5.55 5.55 0 0 1-.54 1.19 7.45 7.45 0 0 0-.82 2 10.13 10.13 0 0 0-.17 2.38 2.66 2.66 0 0 0 .78 1.79 7.07 7.07 0 0 0 2.76-.05l1-.15a29.69 29.69 0 0 1 .89-3.34zM41.07 54.7a23.83 23.83 0 0 1 .18 4.13 22.73 22.73 0 0 1-.7 4c-.31 1.08-.73 2.86-.93 3.95s-.43 2.87-.52 4a10.21 10.21 0 0 0 .12 2.87.88.88 0 0 0 1 .68A14.88 14.88 0 0 1 41.7 74c.42-.07 1.14-.14 1.6-.16a7.77 7.77 0 0 1 1.66.14 9.11 9.11 0 0 1 1.66.58 10.41 10.41 0 0 0 1.81.62l.67.12c0-.35.1-.68.15-1s.06-.39.09-.55c.2-1.09.62-2.86.93-3.95a22.73 22.73 0 0 0 .7-4 23.83 23.83 0 0 0-.18-4.13 18 18 0 0 1 0-4.16 19.42 19.42 0 0 1 1.15-4.12 8 8 0 0 0 .74-2.93.93.93 0 0 0-1.25-.61 9.47 9.47 0 0 1-2.1.25 6.39 6.39 0 0 1-1.82-.36 8.84 8.84 0 0 0-1.67-.45 8 8 0 0 0-1.67 0 11.94 11.94 0 0 0-1.48.27l-.43.14a4.84 4.84 0 0 0-.66.29 1.92 1.92 0 0 0-.54.76 18.14 18.14 0 0 0 .01 3.95zM66.74 58.61a24.43 24.43 0 0 0-.72 4c-.09 1.12-.57 4-1.07 6.3a17.22 17.22 0 0 0-.53 5.41c.21.63 1.47 1.21 2.79 1.29s2.8.13 3.28.12 1.26 0 1.73 0 1.26.13 1.73.22a6.19 6.19 0 0 0 .67.07v-.18l.2-.84c.44-2.16.83-4.5.9-5.49a24.43 24.43 0 0 1 .72-4A26.48 26.48 0 0 1 78 61.67a25.51 25.51 0 0 0 1.53-3.93 25.3 25.3 0 0 0 .7-4.15 7.26 7.26 0 0 0-.33-3 1.32 1.32 0 0 0-1.56-.5 5 5 0 0 1-2.07.22 4.73 4.73 0 0 1-1.85-.87 6.25 6.25 0 0 0-1.73-1 4.26 4.26 0 0 0-1.36-.13h-.37l-.67.16a22.9 22.9 0 0 1-.47 2.26 25.51 25.51 0 0 1-1.53 3.93 26.48 26.48 0 0 0-1.55 3.95zM40.24 136.78a24.11 24.11 0 0 0 2-4 19.11 19.11 0 0 0 .89-4.05 13.88 13.88 0 0 1 .5-2.89c.18-.47.56-.7.83-.52a1.21 1.21 0 0 0 .56.17 1.5 1.5 0 0 0 .6-.07 2.62 2.62 0 0 0 .44-.23c.44-3.49.58-6.71.32-7.24a1.59 1.59 0 0 0-1.69-.76 8.56 8.56 0 0 1-2.2.16 5.55 5.55 0 0 1-1.83-.56 2.77 2.77 0 0 0-1.64-.3 4.06 4.06 0 0 0-1.64 1 5.25 5.25 0 0 1-1.48 1 1.48 1.48 0 0 1-1.16-.1c-.27-.18-.65 0-.83.52a13.88 13.88 0 0 0-.5 2.89 19.11 19.11 0 0 1-.89 4.05 24.11 24.11 0 0 1-2 4 13.45 13.45 0 0 0-1.63 4.15 13 13 0 0 0 .18 4.39 29.67 29.67 0 0 1 .66 4.52 29 29 0 0 1-.21 4.53 7.21 7.21 0 0 1-1.07 3.08 1.67 1.67 0 0 1-1.93.17 5 5 0 0 0-2.19-.59h-.17c-.07.38-.13.74-.2 1.08s-.09.46-.14.67a20 20 0 0 0-.63 5.54 1.62 1.62 0 0 0 1.52 1.08c.66 0 1.66 0 2.22.07a14.34 14.34 0 0 1 1.87.32 3.63 3.63 0 0 0 1.69 0 5.69 5.69 0 0 0 1.69-1A3.6 3.6 0 0 1 34 157a5 5 0 0 1 2.19.59 1.67 1.67 0 0 0 1.93-.17 7.21 7.21 0 0 0 1.07-3.08 29 29 0 0 0 .21-4.53 29.67 29.67 0 0 0-.66-4.52 13 13 0 0 1-.18-4.39 13.45 13.45 0 0 1 1.68-4.12z"/></svg>