<svg xmlns="http://www.w3.org/2000/svg" width="115.32" height="200" viewBox="0 0 115.32 200"><title>_</title><path d="M9.6 81.64c.43.89 1.64 3 2.64 4.62S14.51 90.1 14.9 91a24.5 24.5 0 0 0 1.44 2.65 26 26 0 0 0 1.86 2.46 19.16 19.16 0 0 0 2.23 2.09 61.79 61.79 0 0 0 5.79 3.3l.46.24c2.41 1.24 4.92 2.44 5.71 2.74A61.73 61.73 0 0 0 39 106c.57.11 5.61 1.1 6.87 2.17a6.17 6.17 0 0 1 1.79 3.18 15.11 15.11 0 0 1 .23 2.65v.72a16.19 16.19 0 0 1-.7 3.38 20.34 20.34 0 0 0-.68 2.77 18.53 18.53 0 0 0-.17 2.75 17 17 0 0 0 .38 2.8 23.13 23.13 0 0 0 1 3 4.2 4.2 0 0 1 0 3.69 1.77 1.77 0 0 1-.23.31c-.81.87-2.57 1.1-4 .94a11.26 11.26 0 0 1-4-1.27c-1.72-1.06-3.84-6.3-3.93-6.53-.26-.66-.53-1.31-.79-1.93-1-2.42-1.6-3.68-1.75-3.93a4.11 4.11 0 0 0-1.23-1.16 31 31 0 0 0-5.69-1 61.48 61.48 0 0 0-6.59-.37 25.06 25.06 0 0 0-3.25.51 34.64 34.64 0 0 1-3.61.64 30.38 30.38 0 0 1-3.51.14 2.2 2.2 0 0 0-.8.12 64 64 0 0 0 1.45 8.86c1.22 5.6 2.54 9.5 2.87 9.93a8.9 8.9 0 0 0 2.42 1.72 19.11 19.11 0 0 1 3.62 2.22 19.15 19.15 0 0 1 2.9 3.1 13.25 13.25 0 0 0 2.4 2.44 12.38 12.38 0 0 0 2.87 1.45c.36.11 1 .28 1.84.48 1.19.28 2.53.56 3.7.77a54.36 54.36 0 0 0 5.88.77c1.15 0 3.12 0 4.4-.05h.66a9.55 9.55 0 0 1 3.53.56 3.35 3.35 0 0 1 1.8 3.17c-.07.69-.23 1.76-.35 2.38s-.33 1.62-.54 2.19c0 .11-.06.24-.1.38a7.19 7.19 0 0 0-.16 1.1 6.91 6.91 0 0 0 .15 1.46 17.42 17.42 0 0 1 .34 2 14.52 14.52 0 0 1 0 2 2 2 0 0 0 .09.64 1.65 1.65 0 0 0 .36.31c.32.17.92.43 1.27.56s1 .33 1.38.43a1.85 1.85 0 0 0 .73 0 4.2 4.2 0 0 0 1.06-.72 12.39 12.39 0 0 1 1.67-1.35 4.45 4.45 0 0 1 .59-.3 3.25 3.25 0 0 1 1.26-.31 1.71 1.71 0 0 1 .22-.11 6.09 6.09 0 0 0 .87-.71 2.42 2.42 0 0 0 .46-.74 3 3 0 0 0 0-1c-.12-.55-.27-1.46-.33-2s-.12-1.46-.13-2a12.15 12.15 0 0 0-.2-1.72 19.43 19.43 0 0 0-.56-2 3.05 3.05 0 0 1 1.24-3.64 9.26 9.26 0 0 1 4.09-.75c1.25 0 3.18-.06 4.3-.17a35 35 0 0 0 3.87-.65c1-.25 2.62-.72 3.57-1s2.39-.92 3.23-1.31a30.75 30.75 0 0 0 2.89-1.6 29.58 29.58 0 0 0 2.61-1.94 22.12 22.12 0 0 1 3.08-2.15 24.37 24.37 0 0 1 3.51-1.53 12.11 12.11 0 0 0 2.69-1.36 11.37 11.37 0 0 0 2.06-2.1 11.13 11.13 0 0 0 1.31-2.75 15.42 15.42 0 0 0 .43-3.46 22.17 22.17 0 0 1 .51-4.49 23.2 23.2 0 0 1 1.59-4.29 11.51 11.51 0 0 0 1-3.3 25.91 25.91 0 0 0-1.74-6.62c-1.08-2.89-2.67-6.63-3.53-8.33-.15-.29-.31-.58-.47-.87a14.26 14.26 0 0 0-2-2.9 10.21 10.21 0 0 0-2.5-1.43c-1-.36-2.52-1-3.44-1.45s-2.39-1.24-3.27-1.77-2.18-1.22-3-1.61a32.4 32.4 0 0 0-1.8-.77c-.5-.2-1-.39-1.39-.53a12.24 12.24 0 0 1-1.36-.59 16.2 16.2 0 0 1-2.32-1.39 21.92 21.92 0 0 1-3.26-3.16 8.43 8.43 0 0 0-2.07-1.68 4.82 4.82 0 0 0-.69-.34 10.53 10.53 0 0 0-3.9-.38 9.84 9.84 0 0 1-4.63-.5 4.07 4.07 0 0 1-2.09-3.51 11.74 11.74 0 0 1 .63-3.49 13.84 13.84 0 0 1 1.82-3.19 3.32 3.32 0 0 0 .65-1.65 4.08 4.08 0 0 0-.92-1.76 8.34 8.34 0 0 1-1.88-3.38 6.27 6.27 0 0 1 .49-3.65 5.12 5.12 0 0 1 2.38-2.42c1.46-.55 3.9.69 4.37.94 1.27.67 2.65 1.33 3.11 1.5a6 6 0 0 1 2.29 1.6 6.12 6.12 0 0 1 1.1 2.58 4.25 4.25 0 0 0 .42 1.16l.08.14a3.79 3.79 0 0 0 1 .85 10.09 10.09 0 0 0 1.88.68 19 19 0 0 0 2.6.36h.84c.76 0 1.59 0 2.16-.05a29.42 29.42 0 0 0 3.09-.39 10 10 0 0 1 4 .1 13.47 13.47 0 0 1 3.86 1.9 7.57 7.57 0 0 0 2.63 1.2 5.33 5.33 0 0 0 2.39-.38 3.43 3.43 0 0 0 1.26-1.07 22.08 22.08 0 0 0-1.46-5.2c-1.12-2.86-2.18-5.92-2.42-7s-.53-2.69-.66-3.75a11.25 11.25 0 0 0-.67-2.49c-.05-.13-.11-.26-.16-.37a9.81 9.81 0 0 0-1.71-2.26 16.08 16.08 0 0 0-2.52-1.81 16.92 16.92 0 0 0-3-1.19 36.27 36.27 0 0 1-3.58-1.24A35.16 35.16 0 0 1 76 45.79a11.84 11.84 0 0 0-2.8-1.09 13.6 13.6 0 0 0-3.2-.17h-.64a13.91 13.91 0 0 1-3.44-.33 11.53 11.53 0 0 1-3.52-1.69 16.66 16.66 0 0 0-2.4-1.4 8.44 8.44 0 0 0-1.93-.61 3.18 3.18 0 0 1-2.2-1.11l-.18-.18-.09-.46c-.14-.92.46-1.81 1.68-2.52a4.67 4.67 0 0 0 .87-.68 7.08 7.08 0 0 1-.35-1.64 10.58 10.58 0 0 1 .06-1.81 6.68 6.68 0 0 0-1 0c-1.14.12-2.25.29-2.54.36a16.88 16.88 0 0 1-1.79.3 16.4 16.4 0 0 1-1.79.06c-.33 0-1.3 0-2.21.09a6.71 6.71 0 0 0-1.49.27s-.13.17-.16.23a6.71 6.71 0 0 0-.33.89 6.25 6.25 0 0 0-.15.9 1.49 1.49 0 0 0 .1.41 3.94 3.94 0 0 0 .64.77 5.85 5.85 0 0 1 1.33 1.87 5.64 5.64 0 0 1 .33 2.27A2.91 2.91 0 0 1 46.38 43a12.83 12.83 0 0 1-3.91-.22 10.56 10.56 0 0 0-3.46 0 8.52 8.52 0 0 0-2.81 1.43 14.79 14.79 0 0 1-3.71 2.18 12.85 12.85 0 0 1-4.12.66 7 7 0 0 0-2.62.52 7 7 0 0 0-2 1.77 12.88 12.88 0 0 1-3 2.84 13.69 13.69 0 0 1-3.9 1.53 4 4 0 0 0-1.89 1 4.58 4.58 0 0 0-.5 2.3 26.85 26.85 0 0 1-.16 4.18 21.12 21.12 0 0 1-.98 3.81 33.13 33.13 0 0 1-1.64 3.57c-.54 1-1.57 2.64-2.3 3.67a9.74 9.74 0 0 0-1.35 3 7.64 7.64 0 0 0 .22 3 32.7 32.7 0 0 0 1.35 3.4z"/><path d="M42.24 125.18a22.31 22.31 0 0 0-4.93-1l-1.13-.13c.26.63.53 1.29.8 2 1.1 2.75 2.6 5.36 3.32 5.81a9.88 9.88 0 0 0 3.36 1.06 3.87 3.87 0 0 0 2.7-.47.72.72 0 0 0 .06-.1c-.77-1.89-1.54-3.69-2-4.7-.16-.33-.28-.58-.36-.72a5.56 5.56 0 0 0-1.82-1.75zM101.65 106.07a11.54 11.54 0 0 0-3-1.7c-.79-.29-2-.78-2.86-1.19l-.44-.2-1.09-.55c.18.31.35.63.51.94.88 1.74 2.5 5.56 3.6 8.49s1.91 6.18 1.82 7.22a12.94 12.94 0 0 1-1.17 3.83 21.85 21.85 0 0 0-1.47 4 20.81 20.81 0 0 0-.47 4.13 16.75 16.75 0 0 1-.49 3.88 12.59 12.59 0 0 1-1.53 3.21 12.82 12.82 0 0 1-2.4 2.44 13.52 13.52 0 0 1-3.11 1.58 22.62 22.62 0 0 0-3.25 1.42 20.82 20.82 0 0 0-2.83 2 30.75 30.75 0 0 1-2.77 2.07 32 32 0 0 1-3.06 1.7c-.88.42-2.4 1-3.37 1.37s-2.64.83-3.7 1.09a36.39 36.39 0 0 1-4.07.69c-1.17.12-3.19.2-4.47.18a8.17 8.17 0 0 0-3.31.54 1.53 1.53 0 0 0-.56 1.75 21.13 21.13 0 0 1 .61 2.24 13.59 13.59 0 0 1 .22 2c0 .51.06 1.35.12 1.87s.2 1.35.31 1.87a4.3 4.3 0 0 1 0 1.71 3.78 3.78 0 0 1-.82 1.35 7.41 7.41 0 0 1-1.17.94 2.4 2.4 0 0 1-1 .32 2 2 0 0 0-.67.19v.51a6.46 6.46 0 0 0 0 .65 8.21 8.21 0 0 0 .17 1.22 15.88 15.88 0 0 1 .3 1.82 13 13 0 0 1 0 1.73 3.19 3.19 0 0 0 .26 1.44 2.74 2.74 0 0 0 1 1c.38.2 1 .48 1.43.64s1.1.37 1.54.48a3.25 3.25 0 0 0 1.6-.08 5.5 5.5 0 0 0 1.6-1.05 11 11 0 0 1 1.42-1.16 2.58 2.58 0 0 1 1.06-.39 2.4 2.4 0 0 0 1-.32 7.41 7.41 0 0 0 1.17-.94 3.78 3.78 0 0 0 .85-1.41 4.3 4.3 0 0 0 0-1.71c-.11-.51-.25-1.35-.31-1.87s-.12-1.35-.12-1.87a13.59 13.59 0 0 0-.22-2 21.13 21.13 0 0 0-.61-2.24 1.53 1.53 0 0 1 .56-1.75 8.17 8.17 0 0 1 3.31-.54c1.29 0 3.3-.06 4.47-.18a36.39 36.39 0 0 0 4.07-.69c1.06-.26 2.73-.75 3.7-1.09s2.49-1 3.37-1.37a32 32 0 0 0 3.06-1.7 30.75 30.75 0 0 0 2.77-2.07 20.82 20.82 0 0 1 2.83-2 22.62 22.62 0 0 1 3.25-1.42 13.52 13.52 0 0 0 3.11-1.58 12.82 12.82 0 0 0 2.4-2.44 12.59 12.59 0 0 0 1.53-3.21 16.75 16.75 0 0 0 .49-3.88 20.81 20.81 0 0 1 .47-4.13 21.85 21.85 0 0 1 1.47-4 12.94 12.94 0 0 0 1.17-3.83c.1-1-.72-4.29-1.82-7.22s-2.72-6.75-3.6-8.49a17.63 17.63 0 0 0-2.86-4.24zM57.33 78.2a10.36 10.36 0 0 0-.54 3 2.61 2.61 0 0 0 1.26 2.17 8.62 8.62 0 0 0 3.8.36 11.86 11.86 0 0 1 4.51.46 6.21 6.21 0 0 1 .92.45c.13-.28.3-.58.47-.88a11.4 11.4 0 0 1 .89-1.35 4.66 4.66 0 0 0 1-2.68A5.33 5.33 0 0 0 68.29 77a7.05 7.05 0 0 1-1.52-2.68 4.84 4.84 0 0 1 .37-2.68 4.23 4.23 0 0 1 .54-.82 3.57 3.57 0 0 1 .75-.7 5.72 5.72 0 0 1-.58-1.65 4.67 4.67 0 0 0-.79-1.87 4.53 4.53 0 0 0-1.65-1.14c-.57-.21-2.05-.93-3.28-1.58A5.59 5.59 0 0 0 59 63a3.73 3.73 0 0 0-1.56 1.68 4.84 4.84 0 0 0-.37 2.68 7.05 7.05 0 0 0 1.52 2.68 5.33 5.33 0 0 1 1.32 2.68 4.66 4.66 0 0 1-1 2.68 12.29 12.29 0 0 0-1.58 2.8zM32.78 156a13.77 13.77 0 0 0 3.3 1.67c1 .32 3.58.9 5.73 1.3 1.09.2 2.32.39 3.43.53l1 .12c0-.18.08-.35.13-.49.16-.51.38-1.41.5-2s.26-1.6.33-2.25a1.84 1.84 0 0 0-1-1.72 9.17 9.17 0 0 0-3.47-.4c-1.29.07-3.33.1-4.53.05a55 55 0 0 1-6.1-.79c-1.25-.23-2.63-.52-3.77-.79.41.4.83.86 1.2 1.29.23.27.44.53.61.77a14.6 14.6 0 0 0 2.64 2.71zM46.15 111.65a4.74 4.74 0 0 0-1.29-2.33c-.55-.47-3.33-1.3-6.18-1.84a61.74 61.74 0 0 1-6.83-1.63c-.85-.32-3.41-1.56-5.85-2.85.28.36.55.7.79 1s.66.7 1.06 1.08 1 .9 1.39 1.21a61.53 61.53 0 0 0 6 3.45c2.57 1.33 5.42 2.7 6.32 3.05a37.23 37.23 0 0 0 3.78 1l1 .22a13.6 13.6 0 0 0-.19-2.36zM57.14 38.52a1.66 1.66 0 0 0 1.17.5 9.83 9.83 0 0 1 2.37.73 18 18 0 0 1 2.59 1.6 10.15 10.15 0 0 0 3 1.44 12.66 12.66 0 0 0 3 .28 1.44 1.44 0 0 0 .05-1 5.49 5.49 0 0 1-.29-1.33 9.27 9.27 0 0 1 .07-1.64 1.68 1.68 0 0 0-.32-1.3 4.47 4.47 0 0 0-2.38-.21c-1.06.11-2.29.28-2.73.39a15.38 15.38 0 0 1-1.6.27 14.76 14.76 0 0 1-1.6.06h-.82c-.47 0-1 0-1.53.08a10 10 0 0 0-.98.13zM74.85 90.79a10.72 10.72 0 0 0 1.15.51c.41.14.93.34 1.46.55a5.9 5.9 0 0 0-2.61-1.06zM93.12 60.23c.22 1 1.29 4 2.36 6.76s1.75 5.55 1.5 6.22a4.41 4.41 0 0 1-2.06 2 6.77 6.77 0 0 1-3.25.5 9 9 0 0 1-3.3-1.47A11.92 11.92 0 0 0 85 72.52a8.57 8.57 0 0 0-3.33-.08 30.71 30.71 0 0 1-3.29.48c-.59.08-1.48.08-2.26.08a3.54 3.54 0 0 1 .65.58A2.83 2.83 0 0 1 77 74a5 5 0 0 1 .52 1.45 5.51 5.51 0 0 0 .75 1.93 5.14 5.14 0 0 0 1.53 1.32 11.42 11.42 0 0 0 2.23.81 20.39 20.39 0 0 0 2.85.4 27.56 27.56 0 0 0 3.21 0 30.71 30.71 0 0 0 3.29-.48 8.57 8.57 0 0 1 3.33.08 11.92 11.92 0 0 1 3.33 1.67 9 9 0 0 0 3.3 1.47 6.77 6.77 0 0 0 3.25-.5 4.41 4.41 0 0 0 2.06-2c.25-.67-.42-3.46-1.5-6.22s-2.13-5.79-2.36-6.76-.51-2.58-.63-3.59a12.25 12.25 0 0 0-1-3.35 11.17 11.17 0 0 0-2-2.69 17.41 17.41 0 0 0-2.81-2 18.51 18.51 0 0 0-3.25-1.34l-.18-.05-1.2-.38a12.75 12.75 0 0 1 .76 2.87c.13 1.01.41 2.63.64 3.59z"/></svg>