<svg xmlns="http://www.w3.org/2000/svg" width="200" height="200" viewBox="0 0 200 200"><title>_</title><path d="M109,48.13l-0.06-.32c-0.14-.92.84-1.65,1.44-2a4.4,4.4,0,0,0,1.08-.88,0.58,0.58,0,0,0,.05-0.3,6.36,6.36,0,0,1-.36-1.61,10.18,10.18,0,0,1,.07-1.85,1,1,0,0,0,0-.36,6.19,6.19,0,0,0-1.58,0c-1.1.11-2.26,0.28-2.6,0.37a16.35,16.35,0,0,1-1.72.29,15.92,15.92,0,0,1-1.73.06c-0.36,0-1.36,0-2.26.09a6.61,6.61,0,0,0-1.66.31,1.65,1.65,0,0,0-.4.46,7.22,7.22,0,0,0-.36,1,6.59,6.59,0,0,0-.17,1,1.8,1.8,0,0,0,.16.67,4.34,4.34,0,0,0,.75.91,5.38,5.38,0,0,1,1.2,1.69,5.17,5.17,0,0,1,.3,2,2.4,2.4,0,0,1-2,2,12.55,12.55,0,0,1-3.72-.22,11,11,0,0,0-3.67,0,9,9,0,0,0-3,1.53,14.2,14.2,0,0,1-3.56,2.1,12.23,12.23,0,0,1-3.93.63,7.35,7.35,0,0,0-2.86.57,7.51,7.51,0,0,0-2.2,1.92,12.3,12.3,0,0,1-2.86,2.71,13.12,13.12,0,0,1-3.73,1.47,4.33,4.33,0,0,0-2.19,1.22,5,5,0,0,0-.6,2.62,26.25,26.25,0,0,1-.16,4.09A20.59,20.59,0,0,1,65.67,74a32.55,32.55,0,0,1-1.61,3.5c-0.53,1-1.55,2.6-2.27,3.62a10.19,10.19,0,0,0-1.43,3.24,8.12,8.12,0,0,0,.24,3.21A33.37,33.37,0,0,0,62,91c0.44,0.9,1.66,3,2.67,4.67s2.24,3.8,2.62,4.65A25.12,25.12,0,0,0,68.73,103a26.57,26.57,0,0,0,1.91,2.52,19.77,19.77,0,0,0,2.3,2.16,60.78,60.78,0,0,0,5.86,3.35l0.46,0.24c2.42,1.24,5,2.46,5.76,2.77a60.88,60.88,0,0,0,6.66,1.58c1.88,0.36,5.69,1.26,6.64,2.06a5.7,5.7,0,0,1,1.62,2.89,14.54,14.54,0,0,1,.22,2.55c0,0.24,0,.48,0,0.68a15.62,15.62,0,0,1-.67,3.25,20.93,20.93,0,0,0-.7,2.85,19.16,19.16,0,0,0-.18,2.84,17.69,17.69,0,0,0,.4,2.9,23.77,23.77,0,0,0,1,3.1,3.72,3.72,0,0,1,0,3.22,1.33,1.33,0,0,1-.18.24c-0.69.74-2.32,0.92-3.54,0.78a10.86,10.86,0,0,1-3.77-1.2c-1.27-.78-3-4.45-3.73-6.29-0.26-.66-0.53-1.31-0.79-1.94-1-2.29-1.59-3.68-1.78-4a4.59,4.59,0,0,0-1.42-1.34,29.7,29.7,0,0,0-5.88-1,60,60,0,0,0-6.67-.37,25.61,25.61,0,0,0-3.32.53,34.11,34.11,0,0,1-3.55.63,29.71,29.71,0,0,1-3.44.14,2.78,2.78,0,0,0-1.31.29,55.18,55.18,0,0,0,1.46,9.29c1.19,5.43,2.53,9.56,3,10.13a9.34,9.34,0,0,0,2.62,1.88,18.54,18.54,0,0,1,3.5,2.15,18.56,18.56,0,0,1,2.81,3,13.61,13.61,0,0,0,2.42,2.48,12.76,12.76,0,0,0,3,1.53c0.37,0.12,1,.29,1.88.49,1.19,0.28,2.55.56,3.73,0.78a54.76,54.76,0,0,0,6,.78c1.17,0,3.17,0,4.44-.05l0.64,0a9.11,9.11,0,0,1,3.32.51,2.83,2.83,0,0,1,1.56,2.73c-0.07.68-.23,1.73-0.34,2.34s-0.35,1.55-.52,2.1c0,0.12-.07.26-0.11,0.41a7.57,7.57,0,0,0-.17,1.19,7.39,7.39,0,0,0,.16,1.6,16.79,16.79,0,0,1,.33,2,13.88,13.88,0,0,1,0,1.89,2.33,2.33,0,0,0,.14.9,1.85,1.85,0,0,0,.58.53c0.34,0.18.95,0.45,1.32,0.59s1,0.35,1.44.45a2.27,2.27,0,0,0,1-.06,4.61,4.61,0,0,0,1.24-.83,12,12,0,0,1,1.58-1.28,4,4,0,0,1,.52-0.27,2.78,2.78,0,0,1,1.06-.27,1.74,1.74,0,0,0,.47-0.18,6.51,6.51,0,0,0,1-.79,2.84,2.84,0,0,0,.59-1,3.41,3.41,0,0,0,0-1.24c-0.12-.54-0.26-1.42-0.33-2s-0.12-1.43-.13-2a12.53,12.53,0,0,0-.21-1.81,20.09,20.09,0,0,0-.58-2.11,2.54,2.54,0,0,1,1-2.94,9,9,0,0,1,3.83-.68c1.26,0,3.21-.06,4.36-0.18a35.66,35.66,0,0,0,3.94-.67c1-.25,2.66-0.73,3.61-1.06s2.43-.93,3.27-1.33a31.37,31.37,0,0,0,2.95-1.63,30.13,30.13,0,0,0,2.66-2,21.57,21.57,0,0,1,3-2.09,23.81,23.81,0,0,1,3.43-1.5,12.5,12.5,0,0,0,2.83-1.43,11.79,11.79,0,0,0,2.17-2.21,11.56,11.56,0,0,0,1.38-2.9,15.76,15.76,0,0,0,.45-3.6,21.56,21.56,0,0,1,.5-4.37,22.63,22.63,0,0,1,1.55-4.18,11.9,11.9,0,0,0,1.06-3.48,25.37,25.37,0,0,0-1.76-6.77c-1.09-2.91-2.68-6.67-3.56-8.38-0.15-.3-0.32-0.6-0.49-0.89a14.6,14.6,0,0,0-2.14-3,10.67,10.67,0,0,0-2.65-1.52c-1-.35-2.48-1-3.39-1.43s-2.36-1.22-3.23-1.75-2.21-1.24-3.06-1.64c-0.49-.23-1.17-0.52-1.83-0.78-0.51-.2-1-0.4-1.41-0.53a11.73,11.73,0,0,1-1.3-.56A15.69,15.69,0,0,1,125,99.5a21.36,21.36,0,0,1-3.17-3.08,8.84,8.84,0,0,0-2.21-1.8,5.34,5.34,0,0,0-.77-0.37,11,11,0,0,0-4.06-.4,9.5,9.5,0,0,1-4.35-.46,3.59,3.59,0,0,1-1.81-3.06,11.36,11.36,0,0,1,.6-3.31,13.25,13.25,0,0,1,1.75-3,3.74,3.74,0,0,0,.76-2,4.46,4.46,0,0,0-1.06-2.06,7.92,7.92,0,0,1-1.76-3.14,5.8,5.8,0,0,1,.45-3.33,4.65,4.65,0,0,1,2.11-2.18c1-.39,3,0.39,4,0.91,1.31,0.7,2.69,1.35,3.16,1.53a5.51,5.51,0,0,1,2.08,1.45,5.65,5.65,0,0,1,1,2.34,4.75,4.75,0,0,0,.47,1.32L122.22,79a4.22,4.22,0,0,0,1.18,1,10.5,10.5,0,0,0,2,.72,19.57,19.57,0,0,0,2.68.38l0.87,0c0.79,0,1.63,0,2.2-.06a30,30,0,0,0,3.16-.46,9.57,9.57,0,0,1,3.79.09,12.88,12.88,0,0,1,3.67,1.83,8,8,0,0,0,2.85,1.29,5.79,5.79,0,0,0,2.68-.42,3.56,3.56,0,0,0,1.54-1.4,19.58,19.58,0,0,0-1.49-5.5c-1.11-2.85-2.16-5.87-2.4-6.89s-0.52-2.65-.65-3.7a11.83,11.83,0,0,0-.7-2.62c-0.06-.15-0.12-0.29-0.18-0.41a10.27,10.27,0,0,0-1.82-2.4A16.43,16.43,0,0,0,139,58.62a17.55,17.55,0,0,0-3.06-1.24,35.76,35.76,0,0,1-3.52-1.22,34.65,34.65,0,0,1-3.31-1.65,12.23,12.23,0,0,0-3-1.15,13.94,13.94,0,0,0-3.38-.17l-0.61,0a13.28,13.28,0,0,1-3.3-.31,11.11,11.11,0,0,1-3.34-1.61,17,17,0,0,0-2.41-1.49,8.91,8.91,0,0,0-2.08-.65,2.76,2.76,0,0,1-1.85-.89Z" fill="#231f20"/><path d="M89.78,135.18c1.1,2.75,2.6,5.36,3.32,5.81A9.88,9.88,0,0,0,96.46,142a3.87,3.87,0,0,0,2.7-.47,0.72,0.72,0,0,0,.06-0.1c-0.77-1.89-1.54-3.69-2-4.7-0.16-.33-0.28-0.58-0.36-0.72a5.56,5.56,0,0,0-1.8-1.71,22.31,22.31,0,0,0-4.93-1L89,133.23C89.25,133.86,89.52,134.52,89.78,135.18Z" fill="#231f20"/><path d="M147.11,111.59c0.18,0.31.35,0.63,0.51,0.94,0.88,1.74,2.5,5.56,3.6,8.49s1.91,6.18,1.82,7.22a12.94,12.94,0,0,1-1.17,3.83,21.85,21.85,0,0,0-1.47,4,20.81,20.81,0,0,0-.47,4.13,16.75,16.75,0,0,1-.49,3.88,12.59,12.59,0,0,1-1.53,3.21,12.82,12.82,0,0,1-2.4,2.44,13.52,13.52,0,0,1-3.11,1.58,22.62,22.62,0,0,0-3.25,1.42,20.82,20.82,0,0,0-2.83,2,30.75,30.75,0,0,1-2.77,2.07,32,32,0,0,1-3.06,1.7c-0.88.42-2.4,1-3.37,1.37s-2.64.83-3.7,1.09a36.39,36.39,0,0,1-4.07.69c-1.17.12-3.19,0.2-4.47,0.18a8.17,8.17,0,0,0-3.31.54,1.53,1.53,0,0,0-.56,1.75,21.13,21.13,0,0,1,.61,2.24,13.59,13.59,0,0,1,.22,2c0,0.51.06,1.35,0.12,1.87s0.2,1.35.31,1.87a4.3,4.3,0,0,1,0,1.71,3.78,3.78,0,0,1-.85,1.41,7.41,7.41,0,0,1-1.17.94,2.4,2.4,0,0,1-1,.32,2,2,0,0,0-.67.19c0,0.19,0,.36,0,0.51a6.46,6.46,0,0,0,0,.65,8.21,8.21,0,0,0,.17,1.22,15.88,15.88,0,0,1,.3,1.82,13,13,0,0,1,0,1.73,3.19,3.19,0,0,0,.26,1.44,2.74,2.74,0,0,0,1,1c0.38,0.2,1,.48,1.43.64s1.1,0.37,1.54.48a3.25,3.25,0,0,0,1.6-.08,5.5,5.5,0,0,0,1.6-1.05,11,11,0,0,1,1.42-1.16,2.58,2.58,0,0,1,1.06-.39,2.4,2.4,0,0,0,1-.32,7.41,7.41,0,0,0,1.17-.94,3.78,3.78,0,0,0,.85-1.41,4.3,4.3,0,0,0,0-1.71c-0.11-.51-0.25-1.35-0.31-1.87s-0.12-1.35-.12-1.87a13.59,13.59,0,0,0-.22-2,21.13,21.13,0,0,0-.61-2.24,1.53,1.53,0,0,1,.56-1.75,8.17,8.17,0,0,1,3.31-.54c1.29,0,3.3-.06,4.47-0.18a36.39,36.39,0,0,0,4.07-.69c1.06-.26,2.73-0.75,3.7-1.09s2.49-1,3.37-1.37a32,32,0,0,0,3.06-1.7,30.75,30.75,0,0,0,2.77-2.07,20.82,20.82,0,0,1,2.83-2,22.62,22.62,0,0,1,3.25-1.42,13.52,13.52,0,0,0,3.11-1.58,12.82,12.82,0,0,0,2.4-2.44,12.59,12.59,0,0,0,1.53-3.21,16.75,16.75,0,0,0,.49-3.88,20.81,20.81,0,0,1,.47-4.13,21.85,21.85,0,0,1,1.47-4,12.94,12.94,0,0,0,1.17-3.83c0.1-1-.72-4.29-1.82-7.22s-2.72-6.75-3.6-8.49a17.63,17.63,0,0,0-2.87-4.24,11.54,11.54,0,0,0-3-1.7c-0.79-.29-2-0.78-2.86-1.19l-0.44-.2Z" fill="#231f20"/><path d="M121.24,79.29a5.72,5.72,0,0,1-.58-1.65,4.67,4.67,0,0,0-.79-1.87,4.53,4.53,0,0,0-1.65-1.14c-0.57-.21-2.05-0.93-3.28-1.58a5.59,5.59,0,0,0-3.15-.86,3.73,3.73,0,0,0-1.56,1.68,4.84,4.84,0,0,0-.37,2.68,7.05,7.05,0,0,0,1.52,2.68,5.33,5.33,0,0,1,1.32,2.68,4.66,4.66,0,0,1-1,2.68,12.29,12.29,0,0,0-1.59,2.77,10.36,10.36,0,0,0-.54,3,2.61,2.61,0,0,0,1.26,2.17,8.62,8.62,0,0,0,3.8.36,11.86,11.86,0,0,1,4.51.46,6.21,6.21,0,0,1,.92.45c0.13-.28.3-0.58,0.47-0.88a11.4,11.4,0,0,1,.89-1.35,4.66,4.66,0,0,0,1-2.68,5.33,5.33,0,0,0-1.32-2.68,7.05,7.05,0,0,1-1.52-2.68,4.84,4.84,0,0,1,.37-2.68,4.23,4.23,0,0,1,.54-0.82A3.57,3.57,0,0,1,121.24,79.29Z" fill="#231f20"/><path d="M99.17,168.28c0.16-.51.38-1.41,0.5-2s0.26-1.6.33-2.25a1.84,1.84,0,0,0-1-1.72,9.17,9.17,0,0,0-3.47-.4C94.24,162,92.2,162,91,162a55,55,0,0,1-6.1-.79c-1.25-.23-2.63-0.52-3.77-0.79,0.41,0.4.83,0.86,1.2,1.29,0.23,0.27.44,0.53,0.61,0.77a14.6,14.6,0,0,0,2.64,2.7,13.77,13.77,0,0,0,3.3,1.67c1,0.32,3.58.9,5.73,1.3,1.09,0.2,2.32.39,3.43,0.53l1,0.12C99.08,168.6,99.12,168.43,99.17,168.28Z" fill="#231f20"/><path d="M99,120.8a4.74,4.74,0,0,0-1.29-2.33c-0.55-.47-3.33-1.3-6.18-1.84A61.74,61.74,0,0,1,84.66,115c-0.85-.33-3.42-1.56-5.85-2.81,0.28,0.36.55,0.7,0.79,1s0.66,0.7,1.06,1.08,1,0.9,1.39,1.21a61.53,61.53,0,0,0,6,3.45c2.57,1.33,5.42,2.7,6.32,3.05a37.23,37.23,0,0,0,3.78,1l1,0.22A13.6,13.6,0,0,0,99,120.8Z" fill="#231f20"/><path d="M109.95,47.67a1.66,1.66,0,0,0,1.17.5,9.83,9.83,0,0,1,2.37.73,18,18,0,0,1,2.59,1.6,10.15,10.15,0,0,0,3,1.44,12.66,12.66,0,0,0,3,.28,1.44,1.44,0,0,0,.05-1h0a5.49,5.49,0,0,1-.29-1.33,9.27,9.27,0,0,1,.07-1.64,1.68,1.68,0,0,0-.32-1.3,4.47,4.47,0,0,0-2.38-.21c-1.06.11-2.29,0.28-2.73,0.39a15.38,15.38,0,0,1-1.6.27,14.76,14.76,0,0,1-1.6.06h-0.84c-0.47,0-1,0-1.53.08A10,10,0,0,0,109.95,47.67Z" fill="#231f20"/><path d="M130.3,101a5.9,5.9,0,0,0-2.64-1.07,10.72,10.72,0,0,0,1.19.51C129.26,100.6,129.78,100.8,130.3,101Z" fill="#231f20"/><path d="M145.3,65.8c0.12,1,.4,2.63.63,3.59s1.29,4,2.36,6.76,1.75,5.55,1.5,6.22a4.41,4.41,0,0,1-2.06,2,6.77,6.77,0,0,1-3.25.5,9,9,0,0,1-3.3-1.47,11.92,11.92,0,0,0-3.33-1.67,8.57,8.57,0,0,0-3.33-.08,30.71,30.71,0,0,1-3.29.48c-0.62,0-1.51.07-2.29,0.06a3.54,3.54,0,0,1,.65.58,2.83,2.83,0,0,1,.27.41,5,5,0,0,1,.52,1.45,5.51,5.51,0,0,0,.75,1.93,5.14,5.14,0,0,0,1.53,1.32,11.42,11.42,0,0,0,2.23.81,20.39,20.39,0,0,0,2.85.4,27.56,27.56,0,0,0,3.21,0,30.71,30.71,0,0,0,3.29-.48,8.57,8.57,0,0,1,3.33.08,11.92,11.92,0,0,1,3.33,1.67,9,9,0,0,0,3.3,1.47,6.77,6.77,0,0,0,3.25-.5,4.41,4.41,0,0,0,2.06-2c0.25-.67-0.42-3.46-1.5-6.22s-2.13-5.79-2.36-6.76-0.51-2.58-.63-3.59a12.25,12.25,0,0,0-1-3.35,11.17,11.17,0,0,0-2-2.69,17.41,17.41,0,0,0-2.81-2,18.51,18.51,0,0,0-3.27-1.32l-0.18-.05-1.2-.38A12.75,12.75,0,0,1,145.3,65.8Z" fill="#231f20"/></svg>