<svg xmlns="http://www.w3.org/2000/svg" width="200" height="200" viewBox="0 0 200 200"><title>_</title><path d="M87,122.39a14.66,14.66,0,0,0-.84,3.12,32.7,32.7,0,0,1-.74,3.63,29.67,29.67,0,0,1-1.21,3.39,23.94,23.94,0,0,1-1.74,3.14,25.18,25.18,0,0,1-2.31,2.82A28,28,0,0,0,78,141c-0.47.65-2.6,4.33-5,8.77-2.2,4-4.37,8.15-4.74,9A29,29,0,0,0,67.12,162a6.27,6.27,0,0,0-.19,2.36,2.05,2.05,0,0,0,.81,1,12.56,12.56,0,0,0,1.86.78,23.66,23.66,0,0,0,3.68.39c1,0,2,0,2.88,0a6.85,6.85,0,0,0,.87-0.07,14.87,14.87,0,0,0,2-.59,2.82,2.82,0,0,0,1.19-1.15,8.47,8.47,0,0,0,.51-2.77,21.52,21.52,0,0,1,.48-4,18,18,0,0,1,1.33-3.56,16,16,0,0,1,2.23-3.07,18.89,18.89,0,0,1,3.11-2.48,18.68,18.68,0,0,0,2.75-2.14,14.79,14.79,0,0,0,2-2.52A26.14,26.14,0,0,0,94,141.3a27.9,27.9,0,0,0,1-3.19,18,18,0,0,1,1.24-3.48,17.63,17.63,0,0,1,2-3.05,13.13,13.13,0,0,0,1.68-2.64,14.13,14.13,0,0,0,.88-3.1,9.16,9.16,0,0,1,1.49-3.64,11,11,0,0,1,3.2-2.61,5.24,5.24,0,0,0,2-2,6.57,6.57,0,0,0,.13-3.17,9.31,9.31,0,0,1,0-3.4,4.81,4.81,0,0,1,.28-1,7.08,7.08,0,0,1,2.95-3,11.62,11.62,0,0,0,1.38-.88,10.21,10.21,0,0,0,1.37-1.16,9.19,9.19,0,0,0,1.57-2.57,21.38,21.38,0,0,1,3.5-6.25,29.86,29.86,0,0,0,1.89-2.7c0.41-.69,2.54-5,5-10.44l1.65-3.56c0.93-2,1.83-4,2.6-5.67,1-2.16,1.71-3.84,2-4.62l0.12-.32c0.29-.86.72-2.35,0.93-3.27s0.67-2.53,1-3.46,1.63-3.72,2.95-6.31c0.37-.72.75-1.44,1.14-2.14a35.45,35.45,0,0,1,2.46-4,24.75,24.75,0,0,1,2-2.06h0A6.65,6.65,0,0,1,140,47a4.88,4.88,0,0,0-1.54-.4,4.44,4.44,0,0,0-1.53.29,6.6,6.6,0,0,1-2.41.44,7.69,7.69,0,0,1-2.45-.59,1.64,1.64,0,0,0-1.14,0,5.43,5.43,0,0,0-1.44,1.68c-0.49.88-1.83,2.86-3,4.43A16.66,16.66,0,0,0,124.24,57a11.91,11.91,0,0,0-.15,3.44,11.91,11.91,0,0,1-.3,4.15,9.32,9.32,0,0,1-2,3.33,18.6,18.6,0,0,0-2.06,2.52,17.57,17.57,0,0,0-1.43,2.85,11.52,11.52,0,0,1-2,3.24A14.71,14.71,0,0,1,113.05,79a6.48,6.48,0,0,0-2.19,2.07,6.56,6.56,0,0,0-.53,3,17.93,17.93,0,0,1-.18,4.06,35.6,35.6,0,0,1-2.81,6.57l-0.72,1.33a49.19,49.19,0,0,1-2.83,4.71,22.79,22.79,0,0,1-2.58,2.69c-0.72.63-1.87,1.73-2.5,2.4s-2.73,3.48-5.11,6.75l-1,1.42A97,97,0,0,0,87,122.39Z" fill="#231f20"/><path d="M116.92,143.08a8.2,8.2,0,0,0,2.48,1.82,13.91,13.91,0,0,1,3.31,2.17,10.21,10.21,0,0,1,2.06,3,10.54,10.54,0,0,0,1.43,2.36,10.16,10.16,0,0,0,2.11,1.72,13.79,13.79,0,0,1,2.77,2.24,18.93,18.93,0,0,1,2.24,3.19,4.89,4.89,0,0,0,1.87,1.87,5.16,5.16,0,0,0,2.71,0,27.62,27.62,0,0,1,3.85-.79,19,19,0,0,1,3.54,0,28.35,28.35,0,0,0,3,.15,29,29,0,0,0,3-.24c0.9-.13,2.39-0.25,3.34-0.28s2.52,0,3.51.08a19,19,0,0,0,3.2-.1,17.61,17.61,0,0,0,3-.76,29.43,29.43,0,0,0,2.92-1.31,62.15,62.15,0,0,0,5.43-3.86,25.86,25.86,0,0,0,4.63-4.33,33.54,33.54,0,0,0,1.62-6.34,72.21,72.21,0,0,1,2.1-8.65,33.1,33.1,0,0,0,1.3-4.83,16,16,0,0,0,0-3.21c-0.12-.92-0.39-2.46-0.59-3.36s-1.13-3.55-2.26-6.39a36.26,36.26,0,0,0-2.81-5.89,16.1,16.1,0,0,0-2.24-2.2,27.07,27.07,0,0,1-2.66-2.43,27.88,27.88,0,0,1-2.26-2.84l-0.07-.1a18.31,18.31,0,0,0-2-2.37,17.84,17.84,0,0,0-2.57-1.94c-0.79-.47-2.17-1.19-3-1.58s-2.32-1-3.23-1.27a19.4,19.4,0,0,0-3.27-.73,17.13,17.13,0,0,0-1.76-.08c-0.58,0-1.16,0-1.6.07a18.74,18.74,0,0,0-3.28.7,39.25,39.25,0,0,0-4.62,2.17,49.42,49.42,0,0,1-4.7,2.29c-0.77.29-2.65,1.16-4.11,1.9s-3.48,1.7-4.35,2c-0.57.22-1.45,0.52-2.29,0.78l-1.06.3a7.25,7.25,0,0,0-2.45,1.25,6.83,6.83,0,0,0-1.48,2.24,20,20,0,0,1-1.57,3.2,19.33,19.33,0,0,1-2.2,2.76,9.92,9.92,0,0,0-1.63,2.33,10.19,10.19,0,0,0-.69,2.79,26.44,26.44,0,0,1-.54,3.5,27.24,27.24,0,0,1-1.1,3.4c-0.1.23-.2,0.52-0.29,0.82a15.7,15.7,0,0,0-.56,2.21,40.33,40.33,0,0,0,.37,6.57A19.13,19.13,0,0,0,116.92,143.08Z" fill="#231f20"/><path d="M88.17,55.55a26.11,26.11,0,0,0-4.39-4.64,33.81,33.81,0,0,0-6.38-1.6,69.76,69.76,0,0,1-8.68-2.1,32.42,32.42,0,0,0-4.82-1.31,16,16,0,0,0-3.21,0c-0.92.12-2.46,0.39-3.36,0.6s-3.55,1.14-6.4,2.28A36.26,36.26,0,0,0,45,51.61a16.06,16.06,0,0,0-2.19,2.25,26.51,26.51,0,0,1-2.42,2.68,27.14,27.14,0,0,1-2.85,2.26,18,18,0,0,0-2.48,2.08,17.75,17.75,0,0,0-1.94,2.57c-0.47.79-1.19,2.17-1.58,3s-1,2.32-1.27,3.22a19.07,19.07,0,0,0-.73,3.26,19.17,19.17,0,0,0,0,3.34,18.62,18.62,0,0,0,.71,3.27,39.68,39.68,0,0,0,2.19,4.63,48.8,48.8,0,0,1,2.3,4.71c0.28,0.77,1.15,2.65,1.89,4.1s1.69,3.48,2,4.34,0.81,2.36,1.06,3.34A7.07,7.07,0,0,0,41,103.1a6.64,6.64,0,0,0,2.23,1.45,19.66,19.66,0,0,1,3.2,1.55,19,19,0,0,1,2.76,2.18,7.33,7.33,0,0,0,.66.56,9.27,9.27,0,0,0,1.67,1.05,10.18,10.18,0,0,0,2.8.67,26.1,26.1,0,0,1,3.52.52,26.84,26.84,0,0,1,3.42,1.1,16.11,16.11,0,0,0,3,.85,41.14,41.14,0,0,0,6.6-.33,19.19,19.19,0,0,0,6-1.4,8.22,8.22,0,0,0,1.85-2.48,13.82,13.82,0,0,1,2.2-3.31,10.08,10.08,0,0,1,3-2,10.43,10.43,0,0,0,2.39-1.4A10,10,0,0,0,88.08,100a13.68,13.68,0,0,1,2.27-2.75,18.9,18.9,0,0,1,3.23-2.2,4.83,4.83,0,0,0,1.89-1.85,5.18,5.18,0,0,0,0-2.73,27.87,27.87,0,0,1-.79-3.89,19.18,19.18,0,0,1,0-3.56,28.78,28.78,0,0,0,.15-3,28.45,28.45,0,0,0-.24-3c-0.13-.89-0.26-2.39-0.29-3.33s0-2.52.06-3.51a18.72,18.72,0,0,0-.11-3.21,17.57,17.57,0,0,0-.78-3A29.26,29.26,0,0,0,92.1,61a56.36,56.36,0,0,0-3.33-4.66Z" fill="#231f20"/><path d="M115,127.14a26.14,26.14,0,0,0,1.05-3.25,25.33,25.33,0,0,0,.51-3.34,11.06,11.06,0,0,1,.77-3.13,10.81,10.81,0,0,1,1.83-2.63,18.48,18.48,0,0,0,2.07-2.59,19.22,19.22,0,0,0,1.48-3,7.8,7.8,0,0,1,1.75-2.64,8.21,8.21,0,0,1,2.86-1.48l1-.29c0.28-.41.57-0.8,0.81-1.1l0.22-.29c0.58-.75,1.32-1.81,1.75-2.53s2.78-5.54,5.09-10.53l1.65-3.56c2.32-5,4.46-9.81,4.77-10.71s0.74-2.42,1-3.37,0.65-2.46,1-3.36,1.62-3.68,2.89-6.19A45.2,45.2,0,0,1,151,57.24a24.13,24.13,0,0,1,2.65-2.58A10.18,10.18,0,0,0,155.31,53c0.1-.21-0.32-0.19-0.93.05a6.88,6.88,0,0,1-2.17.43,5.71,5.71,0,0,1-2-.48,5.85,5.85,0,0,0-1.94-.5,5.6,5.6,0,0,0-1.94.37,5.73,5.73,0,0,1-2,.37,6.79,6.79,0,0,1-2.08-.5,2.58,2.58,0,0,0-1.32-.14,2.06,2.06,0,0,0-.7.2,5.09,5.09,0,0,0-1.29,1.27c-0.38.69-.76,1.4-1.12,2.11-1.28,2.51-2.58,5.29-2.89,6.19s-0.75,2.41-1,3.36-0.65,2.46-1,3.37l-0.14.36a8.6,8.6,0,0,1-.29,1.78,8.34,8.34,0,0,1-1.75,2.88c-0.77,1.71-1.67,3.68-2.6,5.68l-1.65,3.56c-2.32,5-4.61,9.73-5.09,10.53a30.67,30.67,0,0,1-2,2.82,20.39,20.39,0,0,0-3.33,6,10.11,10.11,0,0,1-1.78,2.92,11.17,11.17,0,0,1-1.51,1.28l-0.13.18a22.09,22.09,0,0,1-2.44,2.55c-0.47.4-1.08,1-1.64,1.53a8.25,8.25,0,0,0,0,3,7.43,7.43,0,0,1-.19,3.78,6.17,6.17,0,0,1-2.49,2.52,10,10,0,0,0-2.86,2.33,8.14,8.14,0,0,0-1.3,3.18,15.14,15.14,0,0,1-1,3.37A14.16,14.16,0,0,1,99,132.23a16.79,16.79,0,0,0-1.91,2.85A17.18,17.18,0,0,0,96,138.33a28.59,28.59,0,0,1-1,3.33,26.94,26.94,0,0,1-1.47,3.08,15.74,15.74,0,0,1-2.11,2.73,19.63,19.63,0,0,1-2.93,2.29,18,18,0,0,0-2.92,2.32,15.1,15.1,0,0,0-2.07,2.84,17.09,17.09,0,0,0-1.24,3.32,20.73,20.73,0,0,0-.45,3.76,9.24,9.24,0,0,1-.61,3.2,3.75,3.75,0,0,1-1.73,1.65,16,16,0,0,1-2.21.64,8.13,8.13,0,0,1-1,.09c-0.12.36-.23,0.71-0.31,1l0,0.08a7,7,0,0,0-.19,2.86A3,3,0,0,0,77,173.22a13.68,13.68,0,0,0,2,.85,23.82,23.82,0,0,0,3.92.43,25.3,25.3,0,0,0,4-.07,16,16,0,0,0,2.21-.64,3.75,3.75,0,0,0,1.73-1.65,9.24,9.24,0,0,0,.61-3.2,20.73,20.73,0,0,1,.45-3.76,17.09,17.09,0,0,1,1.24-3.32A15.1,15.1,0,0,1,95.24,159a18,18,0,0,1,2.92-2.32,19.63,19.63,0,0,0,2.93-2.29,15.74,15.74,0,0,0,2.11-2.73,26.94,26.94,0,0,0,1.47-3.08,28.59,28.59,0,0,0,1-3.33,17.18,17.18,0,0,1,1.16-3.25,16.79,16.79,0,0,1,1.91-2.85,14.16,14.16,0,0,0,1.84-2.89,15.14,15.14,0,0,0,1-3.37,8.14,8.14,0,0,1,1.3-3.18,5.68,5.68,0,0,1,.52-0.58,11.14,11.14,0,0,1,1.36-1.14C114.83,127.7,114.93,127.39,115,127.14Z" fill="#231f20"/><path d="M192.46,130.33c-0.21-.94-1.25-3.88-2.3-6.54a36.21,36.21,0,0,0-3-6.14,17.08,17.08,0,0,0-2.41-2.37,25.83,25.83,0,0,1-2.54-2.32,26.55,26.55,0,0,1-2.16-2.72,19,19,0,0,0-2.23-2.64,18.77,18.77,0,0,0-2.74-2.07c-0.8-.48-2.13-1.17-3-1.59l-0.09,0c-0.46-.21-1.09-0.47-1.71-0.72l0.08,0.11a26.55,26.55,0,0,0,2.16,2.72,25.83,25.83,0,0,0,2.54,2.32,17.08,17.08,0,0,1,2.41,2.37,36.21,36.21,0,0,1,3,6.14c1.05,2.66,2.09,5.6,2.3,6.54s0.49,2.49.61,3.46a17,17,0,0,1,0,3.46,33.63,33.63,0,0,1-1.35,5,71.3,71.3,0,0,0-2.06,8.51,33.48,33.48,0,0,1-1.72,6.65,25.71,25.71,0,0,1-4.9,4.64,63,63,0,0,1-5.57,4,30.06,30.06,0,0,1-3,1.36,18.55,18.55,0,0,1-3.23.81,19.89,19.89,0,0,1-3.41.1c-1-.07-2.49-0.1-3.41-0.07s-2.36.15-3.22,0.27a24.55,24.55,0,0,1-6.26.09,18.08,18.08,0,0,0-3.31,0,26.32,26.32,0,0,0-3.67.75c0.32,0.23.66,0.5,1,.77a10.64,10.64,0,0,1,.88.84,18.1,18.1,0,0,1,2.1,3,5.82,5.82,0,0,0,2.38,2.32,6.08,6.08,0,0,0,3.37,0,26.31,26.31,0,0,1,3.68-.75,18.08,18.08,0,0,1,3.31,0,24.55,24.55,0,0,0,6.26-.09c0.86-.12,2.31-0.25,3.22-0.27s2.44,0,3.41.07a19.89,19.89,0,0,0,3.41-.1,18.55,18.55,0,0,0,3.23-.81,30.06,30.06,0,0,0,3-1.36,63,63,0,0,0,5.57-4,25.71,25.71,0,0,0,4.9-4.64,33.48,33.48,0,0,0,1.72-6.65,71.3,71.3,0,0,1,2.06-8.51,33.63,33.63,0,0,0,1.35-5,17,17,0,0,0,0-3.46C192.95,132.82,192.68,131.26,192.46,130.33Z" fill="#231f20"/><path d="M89.33,116.18a12.9,12.9,0,0,1,2-3A8.58,8.58,0,0,1,92.79,112c2.4-3.3,4.61-6.23,5.19-6.85s1.82-1.82,2.58-2.48a22.09,22.09,0,0,0,2.44-2.55,47.75,47.75,0,0,0,2.74-4.57c-0.12-.54-0.22-1.09-0.29-1.57,0-.21-0.06-0.41-0.08-0.58a18.32,18.32,0,0,1,0-3.34,24.26,24.26,0,0,0-.1-6.28c-0.13-.86-0.25-2.31-0.28-3.22s0-2.45.06-3.41a19.68,19.68,0,0,0-.12-3.42,18.46,18.46,0,0,0-.84-3.24,30.26,30.26,0,0,0-1.4-3.05,64,64,0,0,0-4-5.58A26,26,0,0,0,94,57a15.94,15.94,0,0,0-2.88-.91l-1.52-.35A56.32,56.32,0,0,1,93,60.51a30.26,30.26,0,0,1,1.4,3.05,18.46,18.46,0,0,1,.84,3.24,19.68,19.68,0,0,1,.12,3.42c-0.06,1-.09,2.5-0.06,3.41s0.16,2.36.28,3.22a24.26,24.26,0,0,1,.1,6.28,18.32,18.32,0,0,0,0,3.34,26.74,26.74,0,0,0,.75,3.72,6.09,6.09,0,0,1,0,3.39A5.77,5.77,0,0,1,94,95.94,18.09,18.09,0,0,0,91,98a12.75,12.75,0,0,0-2.08,2.51,10.9,10.9,0,0,1-2,2.34,11.31,11.31,0,0,1-2.67,1.56,9.08,9.08,0,0,0-2.68,1.79,12.9,12.9,0,0,0-2,3,9.14,9.14,0,0,1-2.13,2.85c-0.71.56-3.64,1.29-6.5,1.61a41.09,41.09,0,0,1-6.86.33,17.12,17.12,0,0,1-3.27-.92,25.69,25.69,0,0,0-3.26-1.05,24.87,24.87,0,0,0-3.36-.5,11,11,0,0,1-3.14-.75,10.28,10.28,0,0,1-1.88-1.18,6,6,0,0,0,.73,1.08,7.48,7.48,0,0,0,2,1.44,5.72,5.72,0,0,0,.65.28,18.82,18.82,0,0,1,3,1.45,18.07,18.07,0,0,1,2.58,2,10.65,10.65,0,0,0,2.63,1.81,11,11,0,0,0,3.14.75,24.87,24.87,0,0,1,3.36.5A25.69,25.69,0,0,1,70.56,120a17.12,17.12,0,0,0,3.27.92,41.09,41.09,0,0,0,6.86-.33,26,26,0,0,0,5.76-1.24A3.2,3.2,0,0,0,87.2,119,9.14,9.14,0,0,0,89.33,116.18Z" fill="#231f20"/></svg>