<svg xmlns="http://www.w3.org/2000/svg" width="200" height="200" viewBox="0 0 200 200"><title>_</title><path d="M91.55 94.67c-.71.62-1.84 1.7-2.46 2.37s-2.75 3.5-5.08 6.7l-1 1.42a98.22 98.22 0 0 0-5.53 8.27 14.31 14.31 0 0 0-.81 3 33.28 33.28 0 0 1-.75 3.7 30.22 30.22 0 0 1-1.23 3.46 24.46 24.46 0 0 1-1.79 3.22 25.77 25.77 0 0 1-2.37 2.89 27.46 27.46 0 0 0-2.1 2.5c-.45.62-2.61 4.36-5 8.72-2.2 4-4.36 8.12-4.72 9a28.49 28.49 0 0 0-1.1 3.08 6 6 0 0 0-.18 2.1 1.62 1.62 0 0 0 .56.72 12.09 12.09 0 0 0 1.77.74 23.54 23.54 0 0 0 3.56.37h2.83a6.72 6.72 0 0 0 .79-.06 14.45 14.45 0 0 0 2-.57 2.37 2.37 0 0 0 .92-.9 8.14 8.14 0 0 0 .46-2.56 22.14 22.14 0 0 1 .49-4.09 18.56 18.56 0 0 1 1.38-3.67 16.59 16.59 0 0 1 2.31-3.19 19.47 19.47 0 0 1 3.21-2.56 18.08 18.08 0 0 0 2.66-2.07 14.4 14.4 0 0 0 1.87-2.42 25.5 25.5 0 0 0 1.33-2.84 27.25 27.25 0 0 0 .95-3.12 18.57 18.57 0 0 1 1.28-3.6 18.21 18.21 0 0 1 2.11-3.15 12.74 12.74 0 0 0 1.6-2.52 13.78 13.78 0 0 0 .84-3 9.59 9.59 0 0 1 1.58-3.88A11.42 11.42 0 0 1 95.3 110a4.81 4.81 0 0 0 1.81-1.78 6.17 6.17 0 0 0 .1-2.87 9.85 9.85 0 0 1 0-3.6 5.3 5.3 0 0 1 .31-1.09 7.52 7.52 0 0 1 3.18-3.27 11 11 0 0 0 1.32-.84 9.72 9.72 0 0 0 1.3-1.09 8.71 8.71 0 0 0 1.47-2.4 21.89 21.89 0 0 1 3.58-6.39 29.14 29.14 0 0 0 1.8-2.67c.4-.66 2.56-5.09 5-10.39l1.65-3.56c.93-2 1.83-4 2.59-5.67 1-2.15 1.7-3.83 2-4.6l.11-.29c.29-.84.71-2.32.91-3.21s.68-2.57 1-3.52 1.65-3.77 3-6.38c.37-.72.76-1.45 1.15-2.16a34.72 34.72 0 0 1 2.52-4.05c.32-.38.79-.87 1.29-1.37a6.87 6.87 0 0 1-1.58-.5 4.42 4.42 0 0 0-1.34-.35 4 4 0 0 0-1.32.25 7.05 7.05 0 0 1-2.62.48 8.13 8.13 0 0 1-2.63-.63 2 2 0 0 0-.7 0 5.15 5.15 0 0 0-1.2 1.49c-.5.89-1.85 2.9-3 4.48a16.32 16.32 0 0 0-2.23 4 11.5 11.5 0 0 0-.14 3.26 12.3 12.3 0 0 1-.32 4.35 9.74 9.74 0 0 1-2.15 3.54 18 18 0 0 0-2 2.44 16.94 16.94 0 0 0-1.38 2.75 11.92 11.92 0 0 1-2.09 3.41 15.28 15.28 0 0 1-3.36 2.57 6 6 0 0 0-2 1.87 6.05 6.05 0 0 0-.47 2.71 18.52 18.52 0 0 1-.19 4.2 35.51 35.51 0 0 1-2.86 6.71l-.72 1.34a49.39 49.39 0 0 1-2.87 4.77 23.36 23.36 0 0 1-2.67 2.73zM142.08 87.2a18.1 18.1 0 0 0-3.17.68 38.69 38.69 0 0 0-4.54 2.12 50 50 0 0 1-4.76 2.32c-.75.28-2.61 1.14-4.06 1.88s-3.51 1.71-4.4 2.06c-.59.23-1.48.53-2.33.79l-1.08.31a6.76 6.76 0 0 0-2.25 1.14 6.34 6.34 0 0 0-1.34 2 20.53 20.53 0 0 1-1.62 3.29 20 20 0 0 1-2.27 2.84 9.46 9.46 0 0 0-1.53 2.19 9.73 9.73 0 0 0-.64 2.62 27 27 0 0 1-.55 3.58 27.78 27.78 0 0 1-1.13 3.47c-.09.22-.19.49-.28.78a15.17 15.17 0 0 0-.54 2.13 40.44 40.44 0 0 0 .37 6.44 19.88 19.88 0 0 0 1.33 5.71 7.72 7.72 0 0 0 2.3 1.68 14.49 14.49 0 0 1 3.45 2.26 10.62 10.62 0 0 1 2.18 3.18 10.09 10.09 0 0 0 1.38 2.33 9.74 9.74 0 0 0 2 1.62 14.37 14.37 0 0 1 2.89 2.34 19.53 19.53 0 0 1 2.31 3.29 4.44 4.44 0 0 0 1.62 1.64 4.73 4.73 0 0 0 2.38 0 28.31 28.31 0 0 1 3.93-.8 19.67 19.67 0 0 1 3.65 0 26.58 26.58 0 0 0 2.94.15 28.34 28.34 0 0 0 2.94-.23c.91-.13 2.43-.26 3.39-.29s2.56 0 3.56.08a18.53 18.53 0 0 0 3.1-.09 17 17 0 0 0 2.92-.73 28.89 28.89 0 0 0 2.86-1.28 63.14 63.14 0 0 0 5.36-3.82 26.46 26.46 0 0 0 4.5-4.17 33.6 33.6 0 0 0 1.56-6.19 72.89 72.89 0 0 1 2.12-8.73 33.25 33.25 0 0 0 1.28-4.73 15.64 15.64 0 0 0 0-3.09c-.11-.91-.38-2.42-.58-3.31s-1.12-3.5-2.24-6.32a36.27 36.27 0 0 0-2.74-5.76 15.74 15.74 0 0 0-2.15-2.11 27.63 27.63 0 0 1-2.72-2.48 28.45 28.45 0 0 1-2.34-2.99l-.06-.08a17.79 17.79 0 0 0-2-2.3 17.23 17.23 0 0 0-2.48-1.87c-.77-.46-2.13-1.17-3-1.55s-2.29-1-3.18-1.25a18.75 18.75 0 0 0-3.17-.71 19.6 19.6 0 0 0-3.17-.04zM40.13 99.29a8.89 8.89 0 0 0 1.57 1 9.71 9.71 0 0 0 2.63.62 26.66 26.66 0 0 1 3.6.53 27.53 27.53 0 0 1 3.5 1.13 15.76 15.76 0 0 0 2.92.82 41.29 41.29 0 0 0 6.47-.34 19.91 19.91 0 0 0 5.74-1.3 7.75 7.75 0 0 0 1.7-2.3 14.39 14.39 0 0 1 2.3-3.45 10.5 10.5 0 0 1 3.21-2.14A10 10 0 0 0 76 92.55a9.56 9.56 0 0 0 1.63-2A14.28 14.28 0 0 1 80 87.73a19.51 19.51 0 0 1 3.33-2.27A4.39 4.39 0 0 0 85 83.85a4.75 4.75 0 0 0 0-2.4 28.48 28.48 0 0 1-.8-4 19.73 19.73 0 0 1 0-3.67 28.31 28.31 0 0 0 .15-3 27.81 27.81 0 0 0-.24-2.94c-.13-.9-.27-2.42-.3-3.39s0-2.56.06-3.56a18.09 18.09 0 0 0-.11-3.1 16.93 16.93 0 0 0-.76-2.85 28.71 28.71 0 0 0-1.31-2.87c-.34-.63-1.78-2.65-3.28-4.6l-.6-.77a26.71 26.71 0 0 0-4.23-4.5 33.85 33.85 0 0 0-6.22-1.55 70.34 70.34 0 0 1-8.75-2.12 32.51 32.51 0 0 0-4.72-1.29 13 13 0 0 0-1.47-.07 14 14 0 0 0-1.62.08c-.91.11-2.43.38-3.31.59S44 39 41.12 40.09a36.28 36.28 0 0 0-5.76 2.75A15.68 15.68 0 0 0 33.25 45a27.14 27.14 0 0 1-2.48 2.74 27.75 27.75 0 0 1-2.91 2.31 17.38 17.38 0 0 0-2.39 2 17.13 17.13 0 0 0-1.87 2.48c-.46.77-1.17 2.13-1.56 3s-1 2.29-1.26 3.17a18.45 18.45 0 0 0-.7 3.15 18.53 18.53 0 0 0 0 3.23 18 18 0 0 0 .68 3.17 39.1 39.1 0 0 0 2.15 4.55 49.43 49.43 0 0 1 2.33 4.78c.28.76 1.13 2.61 1.87 4s1.7 3.51 2 4.38.83 2.41 1.08 3.4a6.58 6.58 0 0 0 1.13 2.22 6.14 6.14 0 0 0 2 1.31 20.28 20.28 0 0 1 3.3 1.59 19.56 19.56 0 0 1 2.84 2.25 6.74 6.74 0 0 0 .67.56z"/><path d="M130.21 43.68a5.09 5.09 0 0 0-1.29 1.27c-.38.69-.76 1.4-1.12 2.11-1.28 2.51-2.58 5.29-2.89 6.19s-.75 2.41-1 3.36-.65 2.46-1 3.37l-.14.36a8.6 8.6 0 0 1-.29 1.78A8.34 8.34 0 0 1 120.8 65c-.77 1.71-1.67 3.68-2.6 5.68l-1.65 3.56c-2.32 5-4.61 9.73-5.09 10.53a30.67 30.67 0 0 1-2 2.82 20.39 20.39 0 0 0-3.33 6 10.11 10.11 0 0 1-1.78 2.92 11.17 11.17 0 0 1-1.51 1.28l-.13.18a22.09 22.09 0 0 1-2.44 2.55c-.47.4-1.08 1-1.64 1.53a8.25 8.25 0 0 0 0 3 7.43 7.43 0 0 1-.19 3.78 6.17 6.17 0 0 1-2.44 2.49 10 10 0 0 0-2.86 2.33 8.14 8.14 0 0 0-1.3 3.18 15.14 15.14 0 0 1-1 3.37 14.16 14.16 0 0 1-1.84 2.87 16.79 16.79 0 0 0-1.91 2.85 17.18 17.18 0 0 0-1.09 3.26 28.59 28.59 0 0 1-1 3.33 26.94 26.94 0 0 1-1.47 3.08 15.74 15.74 0 0 1-2.11 2.73 19.63 19.63 0 0 1-2.93 2.29 18 18 0 0 0-2.92 2.32 15.1 15.1 0 0 0-2.07 2.84 17.09 17.09 0 0 0-1.24 3.32 20.73 20.73 0 0 0-.45 3.76 9.24 9.24 0 0 1-.61 3.2 3.75 3.75 0 0 1-1.73 1.65 16 16 0 0 1-2.21.64 8.13 8.13 0 0 1-1 .09c-.12.36-.23.71-.31 1v.08a7 7 0 0 0-.19 2.86 3 3 0 0 0 1.24 1.69 13.68 13.68 0 0 0 2 .85 23.82 23.82 0 0 0 3.92.43 25.3 25.3 0 0 0 4-.07 16 16 0 0 0 2.21-.64 3.75 3.75 0 0 0 1.74-1.63 9.24 9.24 0 0 0 .61-3.2 20.73 20.73 0 0 1 .45-3.76 17.09 17.09 0 0 1 1.24-3.32 15.1 15.1 0 0 1 2.07-2.84 18 18 0 0 1 2.92-2.32 19.63 19.63 0 0 0 2.93-2.29 15.74 15.74 0 0 0 2.11-2.73 26.94 26.94 0 0 0 1.47-3.08 28.59 28.59 0 0 0 1-3.33 17.18 17.18 0 0 1 1.16-3.25 16.79 16.79 0 0 1 1.93-2.88 14.16 14.16 0 0 0 1.84-2.89 15.14 15.14 0 0 0 1-3.37 8.14 8.14 0 0 1 1.3-3.18 5.68 5.68 0 0 1 .52-.58 11.14 11.14 0 0 1 1.36-1.14c.11-.33.21-.63.32-.89a26.14 26.14 0 0 0 1.05-3.25 25.33 25.33 0 0 0 .51-3.34 11.06 11.06 0 0 1 .77-3.13 10.81 10.81 0 0 1 1.83-2.63 18.48 18.48 0 0 0 2.07-2.59 19.22 19.22 0 0 0 1.48-3 7.8 7.8 0 0 1 1.75-2.64 8.21 8.21 0 0 1 2.86-1.48l1-.29c.28-.41.57-.8.81-1.1l.22-.29c.58-.75 1.32-1.81 1.75-2.53s2.78-5.54 5.09-10.53l1.65-3.56c2.32-5 4.46-9.81 4.77-10.71s.74-2.42 1-3.37.65-2.46 1-3.36 1.62-3.68 2.89-6.19a45.2 45.2 0 0 1 3.4-5.88 24.13 24.13 0 0 1 2.65-2.58 10.18 10.18 0 0 0 1.69-1.61c.1-.21-.32-.19-.93.05a6.88 6.88 0 0 1-2.17.43 5.71 5.71 0 0 1-2-.48 5.85 5.85 0 0 0-1.94-.5 5.6 5.6 0 0 0-1.94.37 5.73 5.73 0 0 1-2 .37 6.79 6.79 0 0 1-2.08-.5 2.58 2.58 0 0 0-1.32-.14 2.06 2.06 0 0 0-.75.19zM182.47 121.17c-.21-.94-1.25-3.88-2.3-6.54a36.21 36.21 0 0 0-3-6.14 17.08 17.08 0 0 0-2.41-2.37 25.83 25.83 0 0 1-2.54-2.32 26.55 26.55 0 0 1-2.16-2.72 19 19 0 0 0-2.23-2.64 18.77 18.77 0 0 0-2.74-2.07c-.8-.48-2.13-1.17-3-1.59H162a45.3 45.3 0 0 0-1.71-.72l.08.11a26.55 26.55 0 0 0 2.16 2.72 25.83 25.83 0 0 0 2.54 2.32 17.08 17.08 0 0 1 2.41 2.37 36.21 36.21 0 0 1 3 6.14c1.05 2.66 2.09 5.6 2.3 6.54s.49 2.49.61 3.46a17 17 0 0 1 0 3.46 33.63 33.63 0 0 1-1.35 5 71.3 71.3 0 0 0-2.06 8.51 33.48 33.48 0 0 1-1.72 6.65 25.71 25.71 0 0 1-4.9 4.64 63 63 0 0 1-5.57 4 30.06 30.06 0 0 1-3 1.36 18.55 18.55 0 0 1-3.23.81 19.89 19.89 0 0 1-3.41.1c-1-.07-2.49-.1-3.41-.07s-2.36.15-3.22.27a24.55 24.55 0 0 1-6.26.09 18.08 18.08 0 0 0-3.31 0 26.32 26.32 0 0 0-3.67.75c.32.23.66.5 1 .77a10.64 10.64 0 0 1 .88.84 18.1 18.1 0 0 1 2.1 3 5.82 5.82 0 0 0 2.38 2.32 6.08 6.08 0 0 0 3.37 0 26.31 26.31 0 0 1 3.68-.75 18.08 18.08 0 0 1 3.31 0 24.55 24.55 0 0 0 6.26-.09c.86-.12 2.31-.25 3.22-.27s2.44 0 3.41.07a19.89 19.89 0 0 0 3.41-.1 18.55 18.55 0 0 0 3.23-.81 30.06 30.06 0 0 0 3-1.36 63 63 0 0 0 5.57-4 25.71 25.71 0 0 0 4.9-4.64 33.48 33.48 0 0 0 1.72-6.65 71.3 71.3 0 0 1 2.06-8.51 33.63 33.63 0 0 0 1.35-5 17 17 0 0 0 0-3.46c-.13-.99-.45-2.54-.66-3.48zM84.38 54.41a18.46 18.46 0 0 1 .84 3.24 19.68 19.68 0 0 1 .12 3.42c-.06 1-.09 2.5-.06 3.41s.16 2.36.28 3.22a24.26 24.26 0 0 1 .1 6.28 18.32 18.32 0 0 0 0 3.34 26.74 26.74 0 0 0 .77 3.68 6.09 6.09 0 0 1 0 3.39 5.77 5.77 0 0 1-2.34 2.36 18.09 18.09 0 0 0-3 2.06 12.75 12.75 0 0 0-2.08 2.51 10.9 10.9 0 0 1-2 2.34 11.31 11.31 0 0 1-2.67 1.56 9.08 9.08 0 0 0-2.68 1.79 12.9 12.9 0 0 0-2 3 9.14 9.14 0 0 1-2.13 2.85c-.71.56-3.64 1.29-6.5 1.61a41.09 41.09 0 0 1-6.86.33 17.12 17.12 0 0 1-3.27-.92 25.69 25.69 0 0 0-3.26-1.05 24.87 24.87 0 0 0-3.36-.5 11 11 0 0 1-3.14-.75 10.28 10.28 0 0 1-1.88-1.18 6 6 0 0 0 .73 1.08 7.48 7.48 0 0 0 2 1.44 5.72 5.72 0 0 0 .65.28 18.82 18.82 0 0 1 3 1.45 18.07 18.07 0 0 1 2.58 2 10.65 10.65 0 0 0 2.63 1.81 11 11 0 0 0 3.14.75 24.87 24.87 0 0 1 3.36.5 25.69 25.69 0 0 1 3.26 1.05 17.12 17.12 0 0 0 3.27.92 41.09 41.09 0 0 0 6.86-.33 26 26 0 0 0 5.76-1.24 3.2 3.2 0 0 0 .74-.37 9.14 9.14 0 0 0 2.1-2.74 12.9 12.9 0 0 1 2-3 8.58 8.58 0 0 1 1.45-1.13c2.4-3.3 4.61-6.23 5.19-6.85s1.82-1.82 2.58-2.48A22.09 22.09 0 0 0 93 91a47.75 47.75 0 0 0 2.74-4.57c-.12-.54-.22-1.09-.29-1.57 0-.21-.06-.41-.08-.58a18.32 18.32 0 0 1 0-3.34 24.26 24.26 0 0 0-.1-6.28c-.12-.88-.27-2.33-.27-3.24s0-2.42.05-3.42a19.68 19.68 0 0 0-.12-3.42 18.46 18.46 0 0 0-.84-3.24 30.26 30.26 0 0 0-1.4-3.05 64 64 0 0 0-4-5.58 26 26 0 0 0-4.7-4.9 15.94 15.94 0 0 0-2.88-.91l-1.52-.35a56.32 56.32 0 0 1 3.41 4.8 30.26 30.26 0 0 1 1.38 3.06z"/></svg>