<svg xmlns="http://www.w3.org/2000/svg" width="139.67" height="199.14" viewBox="0 0 139.67 199.14"><title>_</title><path d="M77.46 73.78a2.75 2.75 0 0 0-1.7-3.37 2.5 2.5 0 0 0-.41-.1 8.39 8.39 0 0 0-3.94.61 1.51 1.51 0 0 1-1.48-1l-.25-.44a4.27 4.27 0 0 0-1.14-1.16 4.17 4.17 0 0 0-.54-.24 3.87 3.87 0 0 0-1.52-.4 3 3 0 0 0-1.06.1 7.76 7.76 0 0 0-3.91 2.93 19.75 19.75 0 0 1-2.12 2.74c-.58.57-1.78 1.78-2.65 2.7a5.55 5.55 0 0 0-1.35 4.68c.25 1.06.66 2.79 1 4l.08.34a6.11 6.11 0 0 0 .42 1.15 9.16 9.16 0 0 0 .92 1.51 7.4 7.4 0 0 0 1.45 1.53 13.54 13.54 0 0 0 4.65 2 4.69 4.69 0 0 0 .92.08A7.85 7.85 0 0 0 69.27 90a27 27 0 0 1 4.36-2.69 8.16 8.16 0 0 0 3.75-3.83 10.13 10.13 0 0 0 .26-5.48 11.14 11.14 0 0 1-.18-4.22zm-1 9.32a7.26 7.26 0 0 1-3.25 3.3 28.3 28.3 0 0 0-4.56 2.81 6.87 6.87 0 0 1-3.86 1.3 3.69 3.69 0 0 1-.72-.06 12.77 12.77 0 0 1-4.25-1.87 6.39 6.39 0 0 1-1.25-1.32 8.32 8.32 0 0 1-.82-1.35 5.13 5.13 0 0 1-.35-1l-.08-.34-.52-2.19.2-.13a27 27 0 0 1 4.36-2.69 8.16 8.16 0 0 0 3.75-3.83 8.57 8.57 0 0 0 .5-2.73l3.7-2.09a2.19 2.19 0 0 0 2.48 1 7.49 7.49 0 0 1 3.4-.53 1.29 1.29 0 0 1 .24.06 1.76 1.76 0 0 1 1 2.18 11.94 11.94 0 0 0 .19 4.68 9.29 9.29 0 0 1-.17 4.81zM72.09 132a17 17 0 0 0-1.38-1.09 10.19 10.19 0 0 1-1.81-1.78 10 10 0 0 1-1.22-1.82 8.53 8.53 0 0 0-1.83-2.31 9.52 9.52 0 0 0-2.58-1.78 4.72 4.72 0 0 1-1.75-1.54 5.07 5.07 0 0 1-.94-2 3.43 3.43 0 0 0-1.75-2.52 3.28 3.28 0 0 0-3 0c-.71.34-1.61.76-2.5 1.16l-.53.24c-.8.36-1.57.7-2.16.94a10.12 10.12 0 0 0-4.25 3.69 8.91 8.91 0 0 0-.93 5.46 28 28 0 0 0 1.35 4.65c.3.71.67 1.73 1 2.66v.14l.19.45.1.37a4.51 4.51 0 0 0 .62 1.31 5.48 5.48 0 0 0 2.18 1.93 10.52 10.52 0 0 0 4.31.7 5.1 5.1 0 0 1 3 1.06 3.85 3.85 0 0 0 2.47.9 3.22 3.22 0 0 0 2-.67 16 16 0 0 0 2.88-3.25 1.79 1.79 0 0 1 2.17-.25c1.43.72 3.53.95 4.59 0a4.65 4.65 0 0 0 1.35-3.31c-.06-1.1-.09-1.61-.41-1.89a5.06 5.06 0 0 0-1.17-1.45zm-.4 5.84c-.67.63-2.33.44-3.45-.12a2.71 2.71 0 0 0-3.47.61 15 15 0 0 1-2.66 3 2.74 2.74 0 0 1-3.21-.21 6.12 6.12 0 0 0-3.53-1.31h-.25a9.62 9.62 0 0 1-3.83-.62 4.44 4.44 0 0 1-1.75-1.57 3.55 3.55 0 0 1-.49-1l-.11-.39c0-.15-.09-.3-.16-.5v-.11l-.2-.61a3.2 3.2 0 0 0 1.91-.66 16 16 0 0 0 2.88-3.25 1.79 1.79 0 0 1 2.17-.25c1.43.72 3.53.95 4.59 0a4.65 4.65 0 0 0 1.35-3.31c-.06-1.1-.09-1.61-.41-1.89a5.06 5.06 0 0 0-1.23-1.37 17 17 0 0 0-1.38-1.09 10.19 10.19 0 0 1-1.81-1.78 10 10 0 0 1-1.22-1.82 6.35 6.35 0 0 0-.53-.86l1.4-.66a2.31 2.31 0 0 1 2.1 0 2.45 2.45 0 0 1 1.23 1.81 6.11 6.11 0 0 0 1.11 2.42 5.74 5.74 0 0 0 2.16 1.86 8.52 8.52 0 0 1 2.3 1.59 7.54 7.54 0 0 1 1.61 2 10.93 10.93 0 0 0 1.35 2 11.12 11.12 0 0 0 2 2 15.85 15.85 0 0 1 1.3 1 3.62 3.62 0 0 1 1 1.12l.07.19.11.06a8.83 8.83 0 0 1 .11 1.2 3.68 3.68 0 0 1-1.06 2.55z" fill="none"/><path d="M72.51 134.08l-.07-.19a3.62 3.62 0 0 0-1-1.12 15.85 15.85 0 0 0-1.3-1 11.12 11.12 0 0 1-2-2 10.93 10.93 0 0 1-1.35-2 7.54 7.54 0 0 0-1.61-2 8.52 8.52 0 0 0-2.3-1.59 5.74 5.74 0 0 1-2.16-1.86 6.11 6.11 0 0 1-1.11-2.42 2.45 2.45 0 0 0-1.24-1.9 2.31 2.31 0 0 0-2.1 0l-1.4.66a6.35 6.35 0 0 1 .53.86 10 10 0 0 0 1.22 1.82 10.19 10.19 0 0 0 1.81 1.78 17 17 0 0 1 1.38 1.09 5.06 5.06 0 0 1 1.19 1.44c.32.28.35.78.41 1.89a4.65 4.65 0 0 1-1.35 3.31c-1.06 1-3.15.76-4.59 0a1.79 1.79 0 0 0-2.17.25 16 16 0 0 1-2.88 3.25 3.2 3.2 0 0 1-1.91.66l.2.61v.11c.06.19.11.35.16.5l.13.42a3.55 3.55 0 0 0 .49 1 4.44 4.44 0 0 0 1.75 1.57 9.62 9.62 0 0 0 3.83.62h.25a6.12 6.12 0 0 1 3.53 1.31 2.74 2.74 0 0 0 3.21.21 15 15 0 0 0 2.66-3 2.71 2.71 0 0 1 3.47-.61c1.13.56 2.78.75 3.45.12a3.68 3.68 0 0 0 1-2.53 8.83 8.83 0 0 0-.11-1.2zM101.65 110.72a18.3 18.3 0 0 0 4.91-1.83 9 9 0 0 1 7.21.06c.27.14.57.27.88.4a13.5 13.5 0 0 0 3-4.7 1.93 1.93 0 0 0 0-1.75 1.2 1.2 0 0 0-1.13 0 31 31 0 0 1-7.68 1.2h-.33a21.09 21.09 0 0 1-7.43-2 8.12 8.12 0 0 0-6.31-.06c-.84.42-1.82.86-2.73 1.21L89.45 105a4.75 4.75 0 0 1-1 4 14.11 14.11 0 0 1-1.67 1.28c.71.81 1.58 1.71 2.14 2.22a3.51 3.51 0 0 0 .63.43 7.63 7.63 0 0 0 2.95.89 2.13 2.13 0 0 1 1 .32 3 3 0 0 1 1.35 2.51 2.71 2.71 0 0 0 .08.64 1.44 1.44 0 0 0 .75 1 1.39 1.39 0 0 0 1.23-.12 18.24 18.24 0 0 0 3.19-2.18 3.84 3.84 0 0 0 .69-3.2 2.24 2.24 0 0 1 .26-1.81.84.84 0 0 1 .6-.26zM6.35 129.3a24.29 24.29 0 0 1 0 7.82 6.08 6.08 0 0 0 .92 4.17 3.54 3.54 0 0 0 .9 1 62.68 62.68 0 0 0 5.72 3.46 16.6 16.6 0 0 1 3.79 3 16 16 0 0 1 1.62 1.89l.12.15a9.92 9.92 0 0 0 4.95 3.21l1.07.21c-1.6-.85-4-2.31-5.53-3.37a4.5 4.5 0 0 1-1.16-1.24 7.12 7.12 0 0 1-1.07-4.9 23.13 23.13 0 0 0 0-7.44 56 56 0 0 0-1.87-6.26 11.61 11.61 0 0 1-.4-5.83 39.3 39.3 0 0 1 3.39-7.59 87 87 0 0 1 6.08-9c1.88-2.38 4.67-4.77 6.23-5.32a11.56 11.56 0 0 0 4.14-2.54 7.39 7.39 0 0 0 1.28-4.23 6 6 0 0 0-2.09-3.9 5.12 5.12 0 0 0-.61-.46 5.69 5.69 0 0 1-1.54-1.5 6 6 0 0 1-1.21-3.14 44.34 44.34 0 0 1 .29-5.89A14.17 14.17 0 0 0 30 75a8.59 8.59 0 0 1-.07-6.9c.94-1.78 2.47-4.56 3.4-6.2a12 12 0 0 1 4.78-4.3A44.56 44.56 0 0 0 44 54.32a15.46 15.46 0 0 1 6.25-2.17c1.81-.14 4.89-.21 6.81-.16a51.29 51.29 0 0 0 6.7-.34c1.82-.24 5-.52 7-.64a70.36 70.36 0 0 1 7.46.06c.5 0 1.09.11 1.71.22a16 16 0 0 0-1.94-2 28.19 28.19 0 0 0-5.54-3.41 21 21 0 0 0-3.58-1.09 21.73 21.73 0 0 0-3-.48 69 69 0 0 0-7.33-.06c-2 .11-5.12.4-6.92.63a53.38 53.38 0 0 1-6.86.35c-1.9-.05-4.93 0-6.71.16a14.48 14.48 0 0 0-5.76 2 45.77 45.77 0 0 1-6.09 3.36 11.18 11.18 0 0 0-4.32 3.88c-.93 1.63-2.45 4.4-3.39 6.17a7.71 7.71 0 0 0 .08 6 14.85 14.85 0 0 1 1.5 7.12 42.76 42.76 0 0 0-.29 5.73 5 5 0 0 0 1 2.58 4.68 4.68 0 0 0 1.26 1.24 6.2 6.2 0 0 1 .73.55 6.92 6.92 0 0 1 2.44 4.65 8.25 8.25 0 0 1-1.52 4.89 12.29 12.29 0 0 1-4.56 2.83c-1.36.49-4.06 2.82-5.78 5a85.9 85.9 0 0 0-6 8.91 38.28 38.28 0 0 0-3.29 7.34 10.8 10.8 0 0 0 .37 5.24 56.84 56.84 0 0 1 1.92 6.42z"/><path d="M76.49 73.55a1.76 1.76 0 0 0-1-2.18 1.29 1.29 0 0 0-.24-.06 7.49 7.49 0 0 0-3.4.53 2.19 2.19 0 0 1-2.48-1L65.61 73a8.57 8.57 0 0 1-.51 2.74 8.16 8.16 0 0 1-3.75 3.83A27 27 0 0 0 57 82.25l-.19.13.53 2.23.08.34a5.13 5.13 0 0 0 .35 1 8.32 8.32 0 0 0 .82 1.35 6.39 6.39 0 0 0 1.25 1.32 12.77 12.77 0 0 0 4.25 1.87 3.69 3.69 0 0 0 .72.06 6.87 6.87 0 0 0 3.86-1.3 28.3 28.3 0 0 1 4.56-2.81 7.26 7.26 0 0 0 3.25-3.3 9.29 9.29 0 0 0 .22-4.87 11.94 11.94 0 0 1-.21-4.72z"/><path d="M128.67 152a21.83 21.83 0 0 0-5-7.16c-1.87-1.63-5-4.16-7.07-5.63a5.73 5.73 0 0 1-2.33-3.78 4.67 4.67 0 0 1 .92-3.55 44.46 44.46 0 0 0 4.16-6.76 19.45 19.45 0 0 1 5.89-6.61 13.71 13.71 0 0 0 4.66-6.13 1.93 1.93 0 0 0 0-1.75 1.2 1.2 0 0 0-1.13 0 31 31 0 0 1-7.68 1.2h-.33a21.09 21.09 0 0 1-7.43-2 8.13 8.13 0 0 0-6.31-.06 19.55 19.55 0 0 1-5.24 1.93 1.49 1.49 0 0 0 0 1 4.78 4.78 0 0 1-1 4.13 19.1 19.1 0 0 1-3.4 2.34 2.37 2.37 0 0 1-2.11.16 2.41 2.41 0 0 1-1.32-1.72 3.71 3.71 0 0 1-.11-.87 2 2 0 0 0-.87-1.66 1.14 1.14 0 0 0-.51-.18 8.73 8.73 0 0 1-3.36-1 4.46 4.46 0 0 1-.81-.56 34.32 34.32 0 0 1-2.74-2.91 2.07 2.07 0 0 1-.43-1.66c.19-1.36 1.44-2.94 3.35-4.24 2.27-1.55 5.68-3.92 7.6-5.3a19.77 19.77 0 0 0 5.19-6.07 30.61 30.61 0 0 0 2.46-8.32c.32-2.6.65-6.21.73-8a14.65 14.65 0 0 0-1.28-5.92A11.79 11.79 0 0 0 99 66.63a13.38 13.38 0 0 1-4.91-4.89A17.94 17.94 0 0 0 90.26 57a28.19 28.19 0 0 0-5.54-3.41 21 21 0 0 0-3.58-1.09 21.73 21.73 0 0 0-3-.48 69 69 0 0 0-7.33-.02c-2 .11-5.12.4-6.92.63A53 53 0 0 1 57 53c-1.89-.05-4.93 0-6.71.16a14.48 14.48 0 0 0-5.76 2 45.77 45.77 0 0 1-6.09 3.36 11.18 11.18 0 0 0-4.32 3.88c-.93 1.63-2.45 4.4-3.39 6.17a7.71 7.71 0 0 0 .08 6 14.85 14.85 0 0 1 1.5 7.12 42.76 42.76 0 0 0-.29 5.73 5 5 0 0 0 1 2.58 4.68 4.68 0 0 0 1.26 1.24 6.2 6.2 0 0 1 .73.55 6.92 6.92 0 0 1 2.44 4.65 8.25 8.25 0 0 1-1.45 4.88 12.29 12.29 0 0 1-4.56 2.83c-1.36.49-4.06 2.82-5.78 5a85.9 85.9 0 0 0-6 8.91 38.28 38.28 0 0 0-3.29 7.34 10.8 10.8 0 0 0 .37 5.24 56.84 56.84 0 0 1 1.88 6.42 24.29 24.29 0 0 1 0 7.82 6.08 6.08 0 0 0 .92 4.17 3.54 3.54 0 0 0 .9 1 62.68 62.68 0 0 0 5.72 3.46 16.6 16.6 0 0 1 3.79 3 16 16 0 0 1 1.62 1.89l.12.15a9.92 9.92 0 0 0 4.93 3.26c1.91.39 5.1.93 7.1 1.19s5.43.9 7.51 1.38a17.06 17.06 0 0 0 6 .26 20.66 20.66 0 0 0 5-1.95 53.85 53.85 0 0 1 7.54-3.2c2.69-.92 7-2.26 9.49-3a36.78 36.78 0 0 0 6.58-2.74c.61-.33 1.1-.61 1.49-.87 1.74-1.13 3.34-1.47 4.38-.93a1.91 1.91 0 0 1 1 1.67 6.56 6.56 0 0 0 .33 1.65 4.37 4.37 0 0 0 .7 1.42 6.22 6.22 0 0 0 2.5 1.51 13.06 13.06 0 0 0 2.94.42 39.08 39.08 0 0 1 6.25 1.14c2.51.63 6.7 1.52 9.33 2a22.22 22.22 0 0 0 9.14-.72 26.43 26.43 0 0 1 9.73-1.08 5.92 5.92 0 0 0 .81.05c-.1-.09-.22-.2-.37-.33a21.46 21.46 0 0 1-5.4-7.68zm-56.3-13.4c-1.06 1-3.15.76-4.59 0a1.79 1.79 0 0 0-2.17.25 16 16 0 0 1-2.88 3.25 3.22 3.22 0 0 1-2 .67 3.85 3.85 0 0 1-2.47-.9 5.1 5.1 0 0 0-3-1.06 10.52 10.52 0 0 1-4.31-.7 5.48 5.48 0 0 1-2.18-1.93 4.51 4.51 0 0 1-.62-1.31l-.1-.37-.14-.44v-.14c-.3-.93-.67-2-1-2.66a28 28 0 0 1-1.35-4.65 8.91 8.91 0 0 1 .93-5.46 10.12 10.12 0 0 1 4.25-3.69c.58-.24 1.35-.58 2.16-.94l.53-.24c.89-.4 1.79-.81 2.5-1.16a3.28 3.28 0 0 1 3 0 3.43 3.43 0 0 1 1.75 2.52 5.07 5.07 0 0 0 .94 2 4.72 4.72 0 0 0 1.75 1.54 9.52 9.52 0 0 1 2.48 1.82 8.53 8.53 0 0 1 1.82 2.34 10 10 0 0 0 1.22 1.82 10.19 10.19 0 0 0 1.81 1.78 17 17 0 0 1 1.39 1.06 5.06 5.06 0 0 1 1.23 1.37c.32.28.35.78.41 1.89a4.65 4.65 0 0 1-1.36 3.34zm5-55.12a8.16 8.16 0 0 1-3.75 3.83A27 27 0 0 0 69.27 90a7.85 7.85 0 0 1-4.47 1.51 4.69 4.69 0 0 1-.92-.08 13.54 13.54 0 0 1-4.65-2 7.4 7.4 0 0 1-1.45-1.53 9.16 9.16 0 0 1-.92-1.51 6.11 6.11 0 0 1-.42-1.15l-.08-.34c-.3-1.23-.71-3-1-4a5.55 5.55 0 0 1 1.35-4.68c.88-.92 2.07-2.13 2.65-2.7a19.75 19.75 0 0 0 2.12-2.74 7.76 7.76 0 0 1 3.91-2.93 3 3 0 0 1 1.06-.1 3.87 3.87 0 0 1 1.52.4 4.17 4.17 0 0 1 .52.31 4.27 4.27 0 0 1 1.14 1.16l.3.38a1.51 1.51 0 0 0 1.48 1 8.39 8.39 0 0 1 3.94-.61 2.5 2.5 0 0 1 .41.1 2.75 2.75 0 0 1 1.7 3.37 11.14 11.14 0 0 0 .18 4.14 10.13 10.13 0 0 1-.26 5.48z"/></svg>