<svg xmlns="http://www.w3.org/2000/svg" width="200" height="200" viewBox="0 0 200 200"><title>_</title><path d="M114 62.32c-.05-2-.14-4.05-.25-5.89a33.32 33.32 0 0 0-.51-5 5.43 5.43 0 0 0-2.93-.88c-1.71-.11-3.66-.18-4.26-.16s-1.59.11-2.18.19a18.64 18.64 0 0 1-2.53.17 24.68 24.68 0 0 1-2.69-.2.82.82 0 0 0-.74.44 10 10 0 0 0-.06 3.45c.2 1.51.47 5.11.59 8s-.06 9.81-.4 15.34L98 78.85c-.37 6-.26 10.23 0 10.87a1.54 1.54 0 0 0 1 .78c.65 0 1.73 0 2.34-.08a21 21 0 0 0 2.22-.36 11.15 11.15 0 0 1 2.24-.24h.33l.53.05a11.42 11.42 0 0 1 2 .44 11.67 11.67 0 0 0 2.12.45 12.62 12.62 0 0 0 2.24 0 1.93 1.93 0 0 0 1.12-1c.22-.61.46-4.88.3-11z" fill="#231f20"/><path d="M114.77 56.37c.11 1.76.2 3.81.25 5.92l.42 16.47c.14 5.5 0 10.63-.39 11.4a2.85 2.85 0 0 1-1.91 1.56 13.69 13.69 0 0 1-2.46 0 12.72 12.72 0 0 1-2.35-.5 10.58 10.58 0 0 0-1.84-.4v1a22 22 0 0 0 .27 5.18 2.51 2.51 0 0 0 1.91 1.38 24.3 24.3 0 0 0 2.46-.08 21.76 21.76 0 0 0 2.35-.38 9.88 9.88 0 0 1 2.29-.21 10.32 10.32 0 0 1 2.29.45 12.72 12.72 0 0 0 2.35.5 13.69 13.69 0 0 0 2.46 0 2.85 2.85 0 0 0 1.91-1.56c.36-.77.54-5.9.39-11.4l-.42-16.47c-.14-5.5-.52-10.58-.84-11.29s-2-1.38-3.79-1.48-3.69-.18-4.33-.16z" fill="#231f20"/></svg>