<svg xmlns="http://www.w3.org/2000/svg" width="56" height="200" viewBox="0 0 56 200"><title>_</title><path d="M15.5 69.72a63.64 63.64 0 0 0-.07 10.68 1.17 1.17 0 0 0 .57.44 21.62 21.62 0 0 0 2.26-.08 20.26 20.26 0 0 0 2.15-.35 11.61 11.61 0 0 1 2.35-.25h.35l.57.06a12 12 0 0 1 2.12.47 11.26 11.26 0 0 0 2 .43 12.14 12.14 0 0 0 2.14 0 1.59 1.59 0 0 0 .73-.7 71.64 71.64 0 0 0 .26-10.73l-.41-16.51c-.05-2-.14-4-.25-5.87a42.86 42.86 0 0 0-.46-4.79 6.17 6.17 0 0 0-2.51-.65c-1.66-.1-3.63-.18-4.21-.16s-1.54.1-2.12.19a18.66 18.66 0 0 1-2.61.17 25.15 25.15 0 0 1-2.75-.21.46.46 0 0 0-.2.13 9.88 9.88 0 0 0 0 3.19c.2 1.52.47 5.15.59 8.08s-.06 9.84-.4 15.39z"/><path d="M30.14 82.57a13.71 13.71 0 0 1-2.46 0 12.74 12.74 0 0 1-2.35-.5 10.58 10.58 0 0 0-1.84-.4v1a22 22 0 0 0 .27 5.18 2.51 2.51 0 0 0 1.91 1.38 24.37 24.37 0 0 0 2.46-.08 21.76 21.76 0 0 0 2.35-.38 9.86 9.86 0 0 1 2.29-.21A10.32 10.32 0 0 1 35 89a12.74 12.74 0 0 0 2.35.5 13.71 13.71 0 0 0 2.46 0 2.86 2.86 0 0 0 1.95-1.5c.36-.77.54-5.9.39-11.4l-.42-16.52c-.14-5.5-.52-10.58-.84-11.29s-2-1.38-3.79-1.48-3.69-.18-4.33-.16l-1 .06C31.88 49 32 51 32 53.14l.42 16.47c.14 5.5 0 10.63-.39 11.4a2.86 2.86 0 0 1-1.89 1.56z"/></svg>