<svg xmlns="http://www.w3.org/2000/svg" width="62.7" height="200" viewBox="0 0 62.7 200"><title>_</title><path d="M13.17 101.51a19 19 0 0 1 .51 3.71c0 1.15-.51 5.59-1 9.18a62.27 62.27 0 0 0-.8 8.7 43.1 43.1 0 0 0 2.1 6.39c1.12 2.82 2.19 5.75 2.42 6.68a25.24 25.24 0 0 1 .58 3.39 22.77 22.77 0 0 0 1.28 5.82 15.15 15.15 0 0 1 .71 3.87 26.69 26.69 0 0 1-.34 4.55 11.22 11.22 0 0 0 .09 3.74 19.48 19.48 0 0 0 2.85 4.87A66.77 66.77 0 0 1 26 169a46.31 46.31 0 0 1 2.28 4.52 3.06 3.06 0 0 0 .94 1.2 4.84 4.84 0 0 0 1.91.37h.74c.9 0 2 0 2.67.11a61.6 61.6 0 0 1 6.9 1.56 27.09 27.09 0 0 0 5.91 1.11 6.79 6.79 0 0 0 2.31-.91 3.73 3.73 0 0 0 1.12-1.24 26.48 26.48 0 0 0-2.07-5.36c-1.29-2.63-2.74-6.32-2.9-8a19.94 19.94 0 0 1 .34-5.17 16 16 0 0 0 .26-4.22 38.93 38.93 0 0 0-3.28-7.89c-1.34-2.6-3.37-7.14-3.44-9a15.29 15.29 0 0 1 .93-5.2 18.53 18.53 0 0 0 1-4.23 15.17 15.17 0 0 0-.32-4 32.61 32.61 0 0 1-.75-4.64c-.09-1.27 0-5.31.27-9a74.46 74.46 0 0 0 .18-8.54 41.06 41.06 0 0 0-.79-4.28 44.11 44.11 0 0 1-.86-4.7 42 42 0 0 1-.23-4.7 17.34 17.34 0 0 1 .88-4.84 19.88 19.88 0 0 1 2.51-4.44 16.93 16.93 0 0 0 2.07-3.65 14.62 14.62 0 0 0 .75-3.86 32.27 32.27 0 0 1 .51-4.66 31.34 31.34 0 0 1 1.32-4.47 27 27 0 0 0 1.15-4 29 29 0 0 0 .41-4.23A22.59 22.59 0 0 1 49.3 48l.05-.19A16.69 16.69 0 0 1 51 44.12a3.39 3.39 0 0 0 .51-1.67 3 3 0 0 0-1.11-1.17 5.77 5.77 0 0 0-2.4-.69 7.16 7.16 0 0 0-2.65.75 15.39 15.39 0 0 1-3.88 1.38 13 13 0 0 1-4 0c-1-.18-3.46-.8-5.52-1.39a8.15 8.15 0 0 0-3.54-.33 6 6 0 0 0-.93 2.28 33.42 33.42 0 0 1-1.25 4.63 25.16 25.16 0 0 1-1.95 4 27 27 0 0 0-1.73 3.3 95.1 95.1 0 0 0-2.35 9.62 81.11 81.11 0 0 1-2.45 9.77 24.29 24.29 0 0 0-1.06 2.64 23.79 23.79 0 0 0-.69 2.68c-.13.78-.29 2.1-.34 2.89s-.09 2.13-.07 2.93a10.2 10.2 0 0 1-.75 3.7 15.26 15.26 0 0 1-2.28 3.45 5.89 5.89 0 0 0-1.25 2.37 5.51 5.51 0 0 0 .46 2.5 24.2 24.2 0 0 1 1.4 3.75z"/><path d="M50.82 48.2l-.06.22a21.24 21.24 0 0 0-.52 4.25 30.45 30.45 0 0 1-.44 4.5 28.45 28.45 0 0 1-1.23 4.24 29.75 29.75 0 0 0-1.25 4.21 30.5 30.5 0 0 0-.48 4.4 16 16 0 0 1-.84 4.36 18.51 18.51 0 0 1-2.29 4 18.43 18.43 0 0 0-2.29 4 15.86 15.86 0 0 0-.82 4.34 40.4 40.4 0 0 0 .22 4.5 42.71 42.71 0 0 0 .83 4.51 42.09 42.09 0 0 1 .82 4.47 75.41 75.41 0 0 1-.17 8.81c-.24 3.63-.36 7.59-.27 8.8a30.89 30.89 0 0 0 .71 4.39 16.49 16.49 0 0 1 .36 4.46 20.06 20.06 0 0 1-1.1 4.65 13.81 13.81 0 0 0-.83 4.6c0 1.22 1.52 5 3.27 8.39s3.3 7.17 3.44 8.41a17.62 17.62 0 0 1-.28 4.7 18.52 18.52 0 0 0-.31 4.71 32 32 0 0 0 2.71 7.52c1.39 2.85 2.38 5.72 2.19 6.37a4.81 4.81 0 0 1-1.74 2.13 8.26 8.26 0 0 1-3 1.16 26.61 26.61 0 0 1-6.45-1.15 62 62 0 0 0-6.59-1.51h-.04l.6 1.1c.71 1.33 1.36 2.64 1.58 3.21a4.46 4.46 0 0 0 1.58 2 6 6 0 0 0 2.73.58 30.43 30.43 0 0 1 3.28.1 62 62 0 0 1 6.59 1.51 26.61 26.61 0 0 0 6.51 1.15 8.26 8.26 0 0 0 3-1.16 4.81 4.81 0 0 0 1.69-2.13c.19-.65-.8-3.51-2.19-6.37a32 32 0 0 1-2.74-7.49 18.52 18.52 0 0 1 .31-4.71 17.62 17.62 0 0 0 .28-4.7c-.14-1.23-1.68-5-3.44-8.41s-3.23-7.16-3.27-8.39a13.81 13.81 0 0 1 .83-4.6 20.06 20.06 0 0 0 1.1-4.65 16.49 16.49 0 0 0-.36-4.46 30.89 30.89 0 0 1-.71-4.39c-.09-1.21 0-5.17.27-8.8a75.41 75.41 0 0 0 .17-8.81 42.09 42.09 0 0 0-.82-4.47 42.71 42.71 0 0 1-.83-4.51 40.4 40.4 0 0 1-.22-4.5 15.86 15.86 0 0 1 .82-4.34 18.43 18.43 0 0 1 2.29-4 18.51 18.51 0 0 0 2.29-4 16 16 0 0 0 .83-4.4 30.5 30.5 0 0 1 .48-4.4 29.75 29.75 0 0 1 1.25-4.21 28.45 28.45 0 0 0 1.23-4.24 30.45 30.45 0 0 0 .44-4.5 21.24 21.24 0 0 1 .52-4.25A14.9 14.9 0 0 1 62 51.86a4.49 4.49 0 0 0 .71-2.8 4.15 4.15 0 0 0-1.82-2.14 7.37 7.37 0 0 0-3.21-.92 8.59 8.59 0 0 0-3.34.93 14.24 14.24 0 0 1-2.38 1 9.49 9.49 0 0 1-1.05.27h-.09z"/></svg>