<svg xmlns="http://www.w3.org/2000/svg" width="200" height="200" viewBox="0 0 200 200"><title>_</title><path d="M124.67,51.5A3.29,3.29,0,0,0,123.32,50a6.12,6.12,0,0,0-2.66-.76,7.64,7.64,0,0,0-2.87.81,14.81,14.81,0,0,1-3.73,1.33,12.51,12.51,0,0,1-3.78,0c-1-.18-3.42-0.8-5.47-1.38a7.77,7.77,0,0,0-3.95-.31,5.49,5.49,0,0,0-1.19,2.63,32.86,32.86,0,0,1-1.23,4.55,24.57,24.57,0,0,1-1.9,3.87,27.63,27.63,0,0,0-1.77,3.38,93.13,93.13,0,0,0-2.38,9.71A79.85,79.85,0,0,1,90,83.48a25,25,0,0,0-1.09,2.7A24.43,24.43,0,0,0,88.22,89c-0.13.79-.29,2.13-0.35,2.94s-0.09,2.16-.07,3a9.78,9.78,0,0,1-.71,3.49,14.66,14.66,0,0,1-2.2,3.31,6.4,6.4,0,0,0-1.37,2.63,5.94,5.94,0,0,0,.51,2.8,23.58,23.58,0,0,1,1.36,3.65,18.33,18.33,0,0,1,.5,3.59c0,1.09-.5,5.48-1,9.1a61.84,61.84,0,0,0-.8,8.83,43.12,43.12,0,0,0,2.14,6.51c1.12,2.8,2.17,5.71,2.4,6.61a24.63,24.63,0,0,1,.56,3.31,23.27,23.27,0,0,0,1.31,5.95,14.58,14.58,0,0,1,.68,3.72,26.13,26.13,0,0,1-.34,4.45,11.63,11.63,0,0,0,.1,3.95,19.77,19.77,0,0,0,2.94,5,66.18,66.18,0,0,1,4.37,6.49,45.93,45.93,0,0,1,2.25,4.45,3.51,3.51,0,0,0,1.15,1.46,5.06,5.06,0,0,0,2.18.44h0.72c0.86,0,1.9,0,2.63.11a61.31,61.31,0,0,1,6.82,1.55,26.53,26.53,0,0,0,6.11,1.12,7.3,7.3,0,0,0,2.52-1,3.9,3.9,0,0,0,1.34-1.58,23.62,23.62,0,0,0-2.13-5.65c-1.28-2.63-2.7-6.26-2.85-7.78a19.38,19.38,0,0,1,.33-5,16.64,16.64,0,0,0,.26-4.38,38.86,38.86,0,0,0-3.33-8.06c-1.59-3.08-3.32-7.22-3.39-8.81a14.71,14.71,0,0,1,.9-5,19.15,19.15,0,0,0,1-4.37,15.52,15.52,0,0,0-.34-4.13,32,32,0,0,1-.73-4.56c-0.09-1.25,0-5.26.27-8.94a74.72,74.72,0,0,0,.18-8.63,41.66,41.66,0,0,0-.8-4.35,43.55,43.55,0,0,1-.85-4.64,41.36,41.36,0,0,1-.22-4.63,16.75,16.75,0,0,1,.88-4.67A19.29,19.29,0,0,1,115.61,87a17.56,17.56,0,0,0,2.15-3.78,15,15,0,0,0,.77-4,31.71,31.71,0,0,1,.5-4.58,30.76,30.76,0,0,1,1.3-4.38,27.59,27.59,0,0,0,1.18-4.06,29.67,29.67,0,0,0,.42-4.32,22,22,0,0,1,.56-4.5l0.05-.18a16.19,16.19,0,0,1,1.56-3.61A3.66,3.66,0,0,0,124.67,51.5Z" fill="#231f20"/><path d="M123.51,57.36l-0.06.22a21.23,21.23,0,0,0-.52,4.25,30.47,30.47,0,0,1-.44,4.5,28.42,28.42,0,0,1-1.23,4.24A29.75,29.75,0,0,0,120,74.79a30.5,30.5,0,0,0-.48,4.4,16,16,0,0,1-.83,4.35,18.51,18.51,0,0,1-2.29,4,18.44,18.44,0,0,0-2.29,4,15.86,15.86,0,0,0-.82,4.34,40.4,40.4,0,0,0,.22,4.5,42.68,42.68,0,0,0,.83,4.51,42.12,42.12,0,0,1,.82,4.47,75.41,75.41,0,0,1-.17,8.81c-0.24,3.63-.36,7.59-0.27,8.8a30.88,30.88,0,0,0,.71,4.39,16.49,16.49,0,0,1,.36,4.46,20.06,20.06,0,0,1-1.1,4.65,13.81,13.81,0,0,0-.83,4.6c0,1.22,1.52,5,3.27,8.39s3.3,7.17,3.44,8.41a17.62,17.62,0,0,1-.28,4.7,18.53,18.53,0,0,0-.31,4.71,32,32,0,0,0,2.75,7.44c1.39,2.85,2.38,5.72,2.19,6.37a4.81,4.81,0,0,1-1.74,2.13,8.26,8.26,0,0,1-3,1.16,26.61,26.61,0,0,1-6.51-1.15,62,62,0,0,0-6.59-1.51h-0.06l0.6,1.1c0.71,1.33,1.36,2.64,1.58,3.21a4.46,4.46,0,0,0,1.58,2,6,6,0,0,0,2.73.58,30.43,30.43,0,0,1,3.28.1,62,62,0,0,1,6.59,1.51,26.61,26.61,0,0,0,6.51,1.15,8.26,8.26,0,0,0,3-1.16,4.81,4.81,0,0,0,1.74-2.13c0.19-.65-0.8-3.51-2.19-6.37a32,32,0,0,1-2.75-7.44,18.53,18.53,0,0,1,.31-4.71,17.62,17.62,0,0,0,.28-4.7c-0.14-1.23-1.68-5-3.44-8.41s-3.23-7.16-3.27-8.39a13.81,13.81,0,0,1,.83-4.6,20.06,20.06,0,0,0,1.1-4.65,16.49,16.49,0,0,0-.36-4.46,30.88,30.88,0,0,1-.71-4.39c-0.09-1.21,0-5.17.27-8.8a75.41,75.41,0,0,0,.17-8.81,42.12,42.12,0,0,0-.82-4.47,42.68,42.68,0,0,1-.83-4.51,40.4,40.4,0,0,1-.22-4.5,15.86,15.86,0,0,1,.82-4.34,18.44,18.44,0,0,1,2.29-4,18.51,18.51,0,0,0,2.29-4,16,16,0,0,0,.83-4.35,30.5,30.5,0,0,1,.48-4.4A29.75,29.75,0,0,1,131,77.52a28.42,28.42,0,0,0,1.23-4.24,30.47,30.47,0,0,0,.44-4.5,21.23,21.23,0,0,1,.52-4.25,14.9,14.9,0,0,1,1.49-3.5,4.49,4.49,0,0,0,.71-2.8,4.15,4.15,0,0,0-1.82-2.14,7.37,7.37,0,0,0-3.17-.89,8.59,8.59,0,0,0-3.34.93,14.24,14.24,0,0,1-2.38,1,9.49,9.49,0,0,1-1.05.27h-0.09Z" fill="#231f20"/></svg>