<svg xmlns="http://www.w3.org/2000/svg" width="74.06" height="200" viewBox="0 0 74.06 200"><title>_</title><path d="M35.54 51.51a3.55 3.55 0 0 0-.48-.67 15 15 0 0 0-2.31-2.18c-1.48-1.12-3.33-2.57-4.13-3.23a5.24 5.24 0 0 0-2.24-1 6 6 0 0 0-2.62.64 17 17 0 0 1-4 1.4 13.37 13.37 0 0 1-4 0c-.87-.15-2.32-.3-3.18-.35a30.51 30.51 0 0 0-3.11.05 2.08 2.08 0 0 0-1.08.47 31.39 31.39 0 0 0 .74 6.51c.67 3.4 1.56 7.19 1.95 8.26s1.16 2.88 1.68 4 1.4 3 1.85 4.22 1.1 3.13 1.45 4.35.79 3.24 1 4.5.4 3.32.46 4.6a29 29 0 0 0 .54 4.16 30.24 30.24 0 0 0 1.28 4.06 19 19 0 0 1 1.17 4.78 19.41 19.41 0 0 1-.35 4.94c-.23 1-.67 5.66-.95 10.85a91.54 91.54 0 0 0-.13 10.72 28 28 0 0 0 1.13 4.23 14.25 14.25 0 0 1 .77 5.09 13.61 13.61 0 0 1-1.51 4.86 12.85 12.85 0 0 0-1.28 3.73 13.62 13.62 0 0 0 .25 4 20 20 0 0 1 .47 5 17.83 17.83 0 0 1-1.1 4.79 40.24 40.24 0 0 0-1.36 4.06 40.64 40.64 0 0 0-.83 4.2c-.17 1.27-.53 3.3-.8 4.54s-.82 3.22-1.21 4.42a32.35 32.35 0 0 1-1.61 4.18 23 23 0 0 1-2.2 3.38 2.92 2.92 0 0 0-.62 1.39 3.07 3.07 0 0 0 1 1.13 5.84 5.84 0 0 0 2.33.82 6.85 6.85 0 0 0 2.59-.59 38.1 38.1 0 0 1 3.6-1.46c.43-.14 1-.31 1.57-.46.78-.21 1.51-.38 2.05-.48a13.34 13.34 0 0 1 4 0 16.43 16.43 0 0 1 4 1.35 3.32 3.32 0 0 0 1.65.33 25.54 25.54 0 0 0 2.51-5.52 81.56 81.56 0 0 1 3.06-7.82c.56-1 1.58-2.74 2.29-3.76a39.17 39.17 0 0 0 2.12-3.55 37.68 37.68 0 0 0 1.61-3.75 16.41 16.41 0 0 0 .76-3.49 11.83 11.83 0 0 0-.27-3.09 16.12 16.12 0 0 1-.46-3.69 13.16 13.16 0 0 1 .63-3.49 26.81 26.81 0 0 1 1.35-3.06 31.18 31.18 0 0 1 1.86-3 10.46 10.46 0 0 0 1.24-2.49 70 70 0 0 0 .09-9.57 98.91 98.91 0 0 0-.7-9.93c-.23-.9-.72-2.45-1.08-3.37a12.85 12.85 0 0 1-.76-4.22 14 14 0 0 1 .92-4.26 12.09 12.09 0 0 0 .75-3.21 10.37 10.37 0 0 0-.43-3.06 35.12 35.12 0 0 1-1-3.67 28.49 28.49 0 0 1-.46-3.54 11.13 11.13 0 0 0-.53-2.69 12.9 12.9 0 0 0-1.39-2.57 10.53 10.53 0 0 1-1.61-3.6 10.82 10.82 0 0 1 .11-4 14.45 14.45 0 0 0 .28-3.22 19 19 0 0 0-.63-3.58 28.29 28.29 0 0 0-1.43-3.7 29.72 29.72 0 0 0-2.08-3.46 17.83 17.83 0 0 1-2.1-4.06 15.56 15.56 0 0 1-.62-4.33 8.8 8.8 0 0 0-.46-2.84z"/><path d="M54.1 80.39a20.56 20.56 0 0 0-.69-3.93 29.8 29.8 0 0 0-1.53-3.94 31.17 31.17 0 0 0-2.2-3.68 16.34 16.34 0 0 1-1.89-3.65 14 14 0 0 1-.58-3.87 10.14 10.14 0 0 0-.58-3.45 12.28 12.28 0 0 0-3.26-3.46c-1.45-1.1-3.29-2.54-4.08-3.19a6.51 6.51 0 0 0-1.58-.91 5.23 5.23 0 0 0-1.49-.42 4.79 4.79 0 0 1 .7 1 10.14 10.14 0 0 1 .58 3.45 14 14 0 0 0 .58 3.87A16.34 16.34 0 0 0 40 61.9a31.17 31.17 0 0 1 2.2 3.68 29.8 29.8 0 0 1 1.53 3.94 20.56 20.56 0 0 1 .69 3.93 15.82 15.82 0 0 1-.32 3.64 9.43 9.43 0 0 0-.1 3.33 9.13 9.13 0 0 0 1.35 3 14.3 14.3 0 0 1 1.59 2.94 12.54 12.54 0 0 1 .61 3.14 26.73 26.73 0 0 0 .39 3.32 33.39 33.39 0 0 0 .92 3.48 11.86 11.86 0 0 1 .5 3.61 13.51 13.51 0 0 1-.86 3.71 12.45 12.45 0 0 0-.81 3.72 11.5 11.5 0 0 0 .66 3.65 36.76 36.76 0 0 1 1.13 3.55 95.82 95.82 0 0 1 .75 10.24 64.46 64.46 0 0 1-.15 10 11.77 11.77 0 0 1-1.46 2.94 29.67 29.67 0 0 0-1.75 2.8 25.07 25.07 0 0 0-1.26 2.86 11.59 11.59 0 0 0-.54 3 14.56 14.56 0 0 0 .41 3.28 13.27 13.27 0 0 1 .31 3.57 18 18 0 0 1-.84 3.88 38.91 38.91 0 0 1-1.69 3.93 40.41 40.41 0 0 1-2.26 3.77c-.68 1-1.67 2.62-2.2 3.62s-1.86 4.42-3 7.61-2.56 6.06-3.23 6.37a4.08 4.08 0 0 1-3-.34 15 15 0 0 0-3.55-1.21 11.88 11.88 0 0 0-3.47 0c-.53.1-1.25.27-1.95.46-.1.22-.2.42-.29.59s-.22.4-.35.62a21.54 21.54 0 0 1-1.68 2.5 2.82 2.82 0 0 0 .72 4.72 7.35 7.35 0 0 0 3.08 1.07 8.24 8.24 0 0 0 3.31-.74 36 36 0 0 1 3.43-1.39 31.6 31.6 0 0 1 3.43-.89 11.88 11.88 0 0 1 3.47 0 15 15 0 0 1 3.6 1.2 4.08 4.08 0 0 0 3 .34c.68-.31 2.13-3.18 3.23-6.37s2.44-6.61 3-7.61 1.52-2.62 2.2-3.62A40.41 40.41 0 0 0 53 168a38.91 38.91 0 0 0 1.69-3.93 18 18 0 0 0 .84-3.88 13.27 13.27 0 0 0-.31-3.57 14.56 14.56 0 0 1-.41-3.28 11.59 11.59 0 0 1 .54-3 25.07 25.07 0 0 1 1.26-2.86 29.67 29.67 0 0 1 1.75-2.8 11.77 11.77 0 0 0 1.46-2.94 64.46 64.46 0 0 0 .15-10 95.82 95.82 0 0 0-.75-10.24 36.76 36.76 0 0 0-1.22-3.58 11.5 11.5 0 0 1-.66-3.65 12.45 12.45 0 0 1 .81-3.72 13.51 13.51 0 0 0 .86-3.71 11.86 11.86 0 0 0-.5-3.61 33.39 33.39 0 0 1-.92-3.48 26.73 26.73 0 0 1-.39-3.32 12.54 12.54 0 0 0-.61-3.14A14.3 14.3 0 0 0 55 90.36a9.13 9.13 0 0 1-1.35-3 9.43 9.43 0 0 1 .1-3.33 15.82 15.82 0 0 0 .35-3.64z"/></svg>