<svg xmlns="http://www.w3.org/2000/svg" width="86.2" height="200" viewBox="0 0 86.2 200"><title>_</title><path d="M12.65 72.28c.66.19 1.77.44 2.48.55s1.92.24 2.63.27a18.79 18.79 0 0 1 3.08.44 20.34 20.34 0 0 1 3 1 3.92 3.92 0 0 1 2.34 2.59 4.14 4.14 0 0 1-1.44 3.19 13.94 13.94 0 0 0-1.19 1.34c-.19.24-.37.48-.5.68a13.73 13.73 0 0 0-1.15 2.34 16 16 0 0 1-1.45 2.94 15.26 15.26 0 0 1-2.09 2.46c-.54.5-1.39 1.36-1.84 1.88A23.86 23.86 0 0 0 15 94a3.74 3.74 0 0 0-.52 1.24 1.37 1.37 0 0 0 .22.57c.3.28 1.2 1.19 2.09 2.02A16.82 16.82 0 0 0 19 99.6a12.54 12.54 0 0 0 1.81.77 15.07 15.07 0 0 1 2.29 1l.53.32a11.28 11.28 0 0 1 1.39 1.05 3.78 3.78 0 0 0 .6-.69c.43-.66 1.59-2.24 2.59-3.51s2.06-2.73 2.46-3.37a25.69 25.69 0 0 0 1.31-2.41A22 22 0 0 1 33.67 90a24.32 24.32 0 0 1 2.12-2.56 5 5 0 0 1 3.13-1.52h.15a4.68 4.68 0 0 1 3 1.93 26.38 26.38 0 0 1 1.75 2.79 25.59 25.59 0 0 1 1.29 3 21.5 21.5 0 0 0 1.09 2.52l.11.18c.56.9 2 2.77 3.26 4.39a21.93 21.93 0 0 0 2.75 2.91 1.12 1.12 0 0 0 .22-.22 9.27 9.27 0 0 1 .82-1 7.81 7.81 0 0 1 3.81-2.29 12.84 12.84 0 0 0 1.89-.71 25.86 25.86 0 0 0 3.17-2.51 10.27 10.27 0 0 0 2-2.31 4.84 4.84 0 0 0-.53-1.35 12.89 12.89 0 0 0-1.59-2 13.91 13.91 0 0 0-2.1-1.6 15.79 15.79 0 0 1-2.65-2.06 30.27 30.27 0 0 1-3.25-4.94c-.68-1.23-2.22-4.22-1.91-5.54a4.71 4.71 0 0 1 1.85-2.48 17.37 17.37 0 0 1 2.47-1.34 21.14 21.14 0 0 1 2.81-.93c.81-.2 2.79-.52 4.41-.72a20.59 20.59 0 0 0 3.7-.76 8.27 8.27 0 0 0 1.82-1.13 9.1 9.1 0 0 0 1.32-1.48 4.61 4.61 0 0 0 .53-1.3 2.85 2.85 0 0 0-.09-1.06 4.51 4.51 0 0 0-.79-1.19 8.92 8.92 0 0 1-1.21-1.66 5.66 5.66 0 0 1-.3-.61 8.11 8.11 0 0 1-.54-2.65 11.68 11.68 0 0 0-.18-1.94 14.45 14.45 0 0 0-.67-2 1.82 1.82 0 0 0-.61-.69 3.61 3.61 0 0 0-1.47.12c-.75.23-2.54.91-3.91 1.48s-2.72 1.21-3.43 1.6l-.16.09c-.6.35-1.61 1-2.19 1.45a13.76 13.76 0 0 1-2.61 1.48 10.14 10.14 0 0 1-2.74.61 4.83 4.83 0 0 1-2.78-.72 4.48 4.48 0 0 1-1.52-2.43 15.09 15.09 0 0 1-.31-2.54 20.84 20.84 0 0 1 .17-2.77c.09-.68.19-1.84.21-2.52s0-1.85 0-2.52c0-.19 0-.4-.05-.62-.06-.63-.14-1.34-.22-1.82-.1-.64-.32-1.65-.47-2.22a6 6 0 0 0-.62-1.44 3.19 3.19 0 0 0-.79-.72 2.46 2.46 0 0 0-.9-.19 4.71 4.71 0 0 0-1.36.4 6.75 6.75 0 0 1-2.78.62 7 7 0 0 1-2.79-.84 5.62 5.62 0 0 0-1.52-.53 4.26 4.26 0 0 0-1.38.13 2.17 2.17 0 0 0-.8.56 23.52 23.52 0 0 0-.78 4.08 29.77 29.77 0 0 0-.27 4.9 11.93 11.93 0 0 0 .68 2.32 13.58 13.58 0 0 1 .85 3.13 13.54 13.54 0 0 1-.07 3.24 4.06 4.06 0 0 1-1.81 2.92 4.11 4.11 0 0 1-3.42-.31 14.59 14.59 0 0 0-2.35-.92 13.81 13.81 0 0 0-2.44-.37 16.36 16.36 0 0 1-3.06-.46 48.14 48.14 0 0 1-5.3-2.23 21.06 21.06 0 0 0-3.14-1.23.7.7 0 0 0 0 .1 15.54 15.54 0 0 1-.55 2.55 41 41 0 0 1-2 4.33c-.85 1.62-2 4-2.46 5.27a6.37 6.37 0 0 0-.42 1.7 13.1 13.1 0 0 0 2.46.59c1.63.23 3.63.61 4.43.84z"/><path d="M48.29 60a3.37 3.37 0 0 0 1.83.44 8.68 8.68 0 0 0 2.26-.44 12.23 12.23 0 0 0 2.27-1.29c.62-.46 1.67-1.16 2.32-1.54l.2-.17v-1.12-.61c-.05-.74-.18-1.89-.29-2.57s-.33-1.75-.5-2.37a7.3 7.3 0 0 0-.84-1.91 4.53 4.53 0 0 0-1.31-1.19 3.81 3.81 0 0 0-1.68-.37 6.11 6.11 0 0 0-1.95.55 5.25 5.25 0 0 1-2.08.47h-.1a4.84 4.84 0 0 1-1-.21c0 .24 0 .47.06.67.05.74.07 1.94 0 2.68s-.13 1.94-.23 2.68a19.07 19.07 0 0 0-.15 2.53 13.57 13.57 0 0 0 .28 2.25 3 3 0 0 0 .91 1.52zM72.47 65.41a4.26 4.26 0 0 1 .16 1.83 6 6 0 0 1-.74 1.85 10.44 10.44 0 0 1-1.59 1.8 9.64 9.64 0 0 1-2.24 1.39 21.42 21.42 0 0 1-4.09.86c-1.57.2-3.48.51-4.24.69a19.73 19.73 0 0 0-2.57.85 15.87 15.87 0 0 0-2.21 1.2 3.27 3.27 0 0 0-1.23 1.59c-.12.53.67 2.53 1.76 4.47a30 30 0 0 0 3 4.61 14.2 14.2 0 0 0 2.35 1.83 15.29 15.29 0 0 1 2.38 1.82A14.26 14.26 0 0 1 65 92.48a5.27 5.27 0 0 1 .76 2.29c0 .57-1.14 2-2.51 3.27a25.33 25.33 0 0 1-3.51 2.74 14.28 14.28 0 0 1-2.16.81 8 8 0 0 0-2.11 1 7.83 7.83 0 0 0-1 .9l.15.3c.08.14.21.36.38.61.65 1 1.9 2.66 3.15 4.2 1.56 1.93 3.24 3.54 3.72 3.59a2.2 2.2 0 0 0 1.63-1 8.85 8.85 0 0 1 1.7-1.7 8 8 0 0 1 2.11-1 14.28 14.28 0 0 0 2.16-.81A25.33 25.33 0 0 0 73 105c1.37-1.23 2.5-2.7 2.51-3.27a5.27 5.27 0 0 0-.76-2.29 14.26 14.26 0 0 0-1.82-2.29 15.29 15.29 0 0 0-2.38-1.82 14.2 14.2 0 0 1-2.35-1.83 30 30 0 0 1-3-4.61c-1.09-2-1.88-4-1.76-4.47a3.27 3.27 0 0 1 1.23-1.59 15.87 15.87 0 0 1 2.21-1.2 19.73 19.73 0 0 1 2.57-.85c.76-.18 2.67-.49 4.24-.69a21.42 21.42 0 0 0 4.09-.86 9.64 9.64 0 0 0 2.22-1.4A10.44 10.44 0 0 0 81.6 76a6 6 0 0 0 .74-1.85 4.26 4.26 0 0 0-.16-1.83 5.94 5.94 0 0 0-1.12-1.72 7.08 7.08 0 0 1-1.21-1.81 6.75 6.75 0 0 1-.42-2.1 13.25 13.25 0 0 0-.27-2.26 15.85 15.85 0 0 0-.75-2.29 3.07 3.07 0 0 0-1.47-1.51 4.62 4.62 0 0 0-2.43.1c-.65.2-2 .69-3.2 1.19l-.84.34h-.09a7.35 7.35 0 0 0 1 1.36 5.94 5.94 0 0 1 1.09 1.79zM42.54 91.31a24.91 24.91 0 0 0-1.63-2.6A3.28 3.28 0 0 0 39 87.39a3.39 3.39 0 0 0-2.11 1.07 22.75 22.75 0 0 0-2 2.37 20.66 20.66 0 0 0-1.49 2.58A27.62 27.62 0 0 1 32 96c-.43.68-1.58 2.25-2.55 3.49s-2.1 2.77-2.51 3.4a3.8 3.8 0 0 1-1.46 1.38 1.66 1.66 0 0 1-1.44-.42 10 10 0 0 0-1.19-.9 2.52 2.52 0 0 0 .43.77c.26.3.88.92 1.53 1.54l.67.63a17.87 17.87 0 0 0 2.54 2 14 14 0 0 0 2.08.89 13.43 13.43 0 0 1 2 .86 10.22 10.22 0 0 1 1.63 1.17 1.66 1.66 0 0 0 1.44.42 3.8 3.8 0 0 0 1.46-1.38c.41-.63 1.54-2.16 2.51-3.4s2.12-2.81 2.55-3.49a27.62 27.62 0 0 0 1.4-2.58A20.79 20.79 0 0 1 44.47 98l.14-.22c.13-.19.3-.41.49-.65l-.17-.29a23 23 0 0 1-1.18-2.73 23.94 23.94 0 0 0-1.21-2.8zM21.31 80.51l.63.16.42.11a15.3 15.3 0 0 1 1.34-1.5 2.83 2.83 0 0 0 1-1.89 2.59 2.59 0 0 0-1.48-1.44 18.88 18.88 0 0 0-2.74-.95 17.41 17.41 0 0 0-2.79-.4c-.77 0-2-.16-2.77-.28l-.4.94-.11.26c-.52 1.33-.69 2.75-.38 3.15s1.93.92 3.59 1.17c1.28.16 2.76.46 3.69.67z"/></svg>