<svg xmlns="http://www.w3.org/2000/svg" width="200" height="200" viewBox="0 0 200 200"><title>_</title><path d="M113.43,65.43a20.14,20.14,0,0,1,.16-2.69c0.1-.7.2-1.88,0.22-2.57s0-1.88,0-2.57c0-.19,0-0.41-0.05-0.64-0.06-.63-0.15-1.36-0.22-1.84-0.1-.65-0.32-1.68-0.48-2.27a6.41,6.41,0,0,0-.69-1.59,3.58,3.58,0,0,0-1-.88,2.82,2.82,0,0,0-1.16-.25,5.17,5.17,0,0,0-1.56.45,6.35,6.35,0,0,1-2.55.57,6.47,6.47,0,0,1-2.53-.74,6.07,6.07,0,0,0-1.7-.59,4.7,4.7,0,0,0-1.59.14,2.62,2.62,0,0,0-1.06.75A20.11,20.11,0,0,0,98.33,55a29.82,29.82,0,0,0-.27,5,12.35,12.35,0,0,0,.71,2.44,10.79,10.79,0,0,1,.75,6.1A3.61,3.61,0,0,1,98,71.12a3.65,3.65,0,0,1-3-.31,14.92,14.92,0,0,0-2.45-1A14.18,14.18,0,0,0,90,69.46a15.78,15.78,0,0,1-3-.45,48.41,48.41,0,0,1-5.22-2.2,17.78,17.78,0,0,0-3.66-1.37,1.75,1.75,0,0,0-.21.63,15,15,0,0,1-.52,2.46,40.86,40.86,0,0,1-2,4.25c-0.86,1.63-2,4-2.48,5.32a5.85,5.85,0,0,0-.46,2.21,11.8,11.8,0,0,0,2.89.76c1.74,0.26,3.71.63,4.49,0.85s1.81,0.45,2.53.57,2,0.24,2.69.28a18.19,18.19,0,0,1,3,.42,19.76,19.76,0,0,1,2.91,1A3.47,3.47,0,0,1,93,86.4a3.69,3.69,0,0,1-1.29,2.76,14.44,14.44,0,0,0-1.24,1.39c-0.2.26-.39,0.51-0.53,0.72a14.09,14.09,0,0,0-1.2,2.44,15.51,15.51,0,0,1-1.39,2.83,14.74,14.74,0,0,1-2,2.36c-0.55.51-1.42,1.39-1.88,1.93a24.7,24.7,0,0,0-1.55,2,4.07,4.07,0,0,0-.6,1.49,1.74,1.74,0,0,0,.34.92c0.29,0.33,1.21,1.25,2.13,2.09a17.17,17.17,0,0,0,2.35,1.84,13,13,0,0,0,1.9.81,14.42,14.42,0,0,1,2.2.94l0.5,0.3a10.77,10.77,0,0,1,1.32,1,0.84,0.84,0,0,0,.49.2,3.73,3.73,0,0,0,.9-1c0.42-.65,1.57-2.21,2.56-3.47s2.08-2.76,2.49-3.41a26.51,26.51,0,0,0,1.34-2.46,21.38,21.38,0,0,1,1.57-2.73,23.76,23.76,0,0,1,2.07-2.49,4.44,4.44,0,0,1,2.77-1.37h0.12a4.21,4.21,0,0,1,2.68,1.73,25.83,25.83,0,0,1,1.71,2.73,25,25,0,0,1,1.26,2.92,22.1,22.1,0,0,0,1.12,2.59l0.14,0.23c0.55,0.88,2,2.78,3.28,4.41a18.9,18.9,0,0,0,3.1,3.2,1.73,1.73,0,0,0,.66-0.52,8.82,8.82,0,0,1,.78-0.9,7.31,7.31,0,0,1,3.58-2.15,13.26,13.26,0,0,0,2-.74,25.42,25.42,0,0,0,3.28-2.58,9.07,9.07,0,0,0,2.19-2.62,4.81,4.81,0,0,0-.62-1.67,13.24,13.24,0,0,0-1.67-2.09,14.23,14.23,0,0,0-2.19-1.67,15.17,15.17,0,0,1-2.55-2A30.41,30.41,0,0,1,122,91.58c-0.36-.65-2.15-4-1.86-5.18a4.23,4.23,0,0,1,1.64-2.19,16.79,16.79,0,0,1,2.38-1.3,20.54,20.54,0,0,1,2.73-.9c0.79-.19,2.74-0.51,4.35-0.71a20.83,20.83,0,0,0,3.83-.79,8.71,8.71,0,0,0,2-1.22,9.56,9.56,0,0,0,1.41-1.59,5.09,5.09,0,0,0,.6-1.48,3.29,3.29,0,0,0-.12-1.32,5,5,0,0,0-.9-1.36A8.33,8.33,0,0,1,136.86,72a5.33,5.33,0,0,1-.28-0.56,7.69,7.69,0,0,1-.5-2.47,12.14,12.14,0,0,0-.25-2.05,14.8,14.8,0,0,0-.7-2.12,2.17,2.17,0,0,0-.89-1,3.79,3.79,0,0,0-1.79.11c-0.76.24-2.57,0.92-4,1.5s-2.75,1.22-3.48,1.63l-0.16.09c-0.63.37-1.65,1.05-2.25,1.49a13.18,13.18,0,0,1-2.5,1.41,9.72,9.72,0,0,1-2.59.58,4.32,4.32,0,0,1-2.46-.62,4,4,0,0,1-1.32-2.13A14.51,14.51,0,0,1,113.43,65.43Z" fill="#231f20"/><path d="M114.76,57.52c0.05,0.74.07,1.94,0,2.68s-0.13,1.94-.23,2.68a19.09,19.09,0,0,0-.15,2.53,13.57,13.57,0,0,0,.28,2.25,3,3,0,0,0,.93,1.55,3.37,3.37,0,0,0,1.83.44,8.68,8.68,0,0,0,2.27-.51A12.23,12.23,0,0,0,122,67.83c0.62-.46,1.67-1.16,2.32-1.54l0.19-.11c0-.37,0-0.76,0-1.12s0-.43,0-0.61c-0.05-.74-0.18-1.89-0.29-2.57s-0.33-1.75-.5-2.37a7.3,7.3,0,0,0-.84-1.91,4.53,4.53,0,0,0-1.31-1.19,3.81,3.81,0,0,0-1.68-.37,6.11,6.11,0,0,0-1.95.55,5.25,5.25,0,0,1-2.08.47h-0.1a4.84,4.84,0,0,1-1-.21C114.73,57.09,114.75,57.32,114.76,57.52Z" fill="#231f20"/><path d="M137.73,71.49a7.36,7.36,0,0,0,1,1.36,5.94,5.94,0,0,1,1.12,1.72,4.26,4.26,0,0,1,.16,1.83,6,6,0,0,1-.74,1.85,10.45,10.45,0,0,1-1.59,1.8,9.64,9.64,0,0,1-2.24,1.39,21.42,21.42,0,0,1-4.09.86c-1.57.2-3.48,0.51-4.24,0.69a19.74,19.74,0,0,0-2.58.85A15.88,15.88,0,0,0,122.3,85a3.27,3.27,0,0,0-1.23,1.59c-0.12.49,0.68,2.51,1.76,4.47a30,30,0,0,0,3,4.61,14.2,14.2,0,0,0,2.35,1.83,15.3,15.3,0,0,1,2.38,1.82,14.27,14.27,0,0,1,1.82,2.29,5.27,5.27,0,0,1,.76,2.29c0,0.57-1.14,2-2.51,3.27a25.33,25.33,0,0,1-3.51,2.74,14.28,14.28,0,0,1-2.16.81,8,8,0,0,0-2.11,1,7.83,7.83,0,0,0-1,.9l0.15,0.3c0.08,0.14.21,0.36,0.38,0.61,0.65,1,1.9,2.66,3.15,4.2,1.56,1.93,3.24,3.54,3.72,3.59a2.2,2.2,0,0,0,1.63-1,8.85,8.85,0,0,1,1.7-1.7,8,8,0,0,1,2.11-1,14.28,14.28,0,0,0,2.16-.81,25.33,25.33,0,0,0,3.51-2.74c1.37-1.23,2.5-2.7,2.51-3.27a5.27,5.27,0,0,0-.76-2.29,14.27,14.27,0,0,0-1.82-2.29,15.3,15.3,0,0,0-2.38-1.82,14.2,14.2,0,0,1-2.35-1.83,30,30,0,0,1-3-4.61c-1.09-2-1.88-4-1.76-4.47A3.27,3.27,0,0,1,132,92a15.88,15.88,0,0,1,2.21-1.2,19.74,19.74,0,0,1,2.58-.85c0.76-.18,2.67-0.49,4.24-0.69a21.42,21.42,0,0,0,4.09-.86A9.64,9.64,0,0,0,147.36,87a10.45,10.45,0,0,0,1.59-1.8,6,6,0,0,0,.74-1.85,4.26,4.26,0,0,0-.16-1.83,5.94,5.94,0,0,0-1.12-1.72A7.08,7.08,0,0,1,147.21,78a6.75,6.75,0,0,1-.42-2.1,13.24,13.24,0,0,0-.27-2.26,15.83,15.83,0,0,0-.75-2.29,3.07,3.07,0,0,0-1.47-1.51,4.62,4.62,0,0,0-2.43.1c-0.65.2-2,.69-3.2,1.19l-0.84.34Z" fill="#231f20"/><path d="M112.45,106.28l-0.17-.29a23,23,0,0,1-1.18-2.73,23.94,23.94,0,0,0-1.2-2.78,24.93,24.93,0,0,0-1.63-2.6,3.28,3.28,0,0,0-1.93-1.32,3.39,3.39,0,0,0-2.11,1.07,22.75,22.75,0,0,0-2,2.37,20.66,20.66,0,0,0-1.49,2.58,27.6,27.6,0,0,1-1.4,2.58c-0.43.68-1.58,2.25-2.55,3.49s-2.1,2.77-2.51,3.4a3.8,3.8,0,0,1-1.46,1.38A1.66,1.66,0,0,1,91.4,113a10,10,0,0,0-1.19-.9,2.51,2.51,0,0,0,.43.77c0.26,0.3.88,0.92,1.53,1.54L92.84,115a17.87,17.87,0,0,0,2.54,2,14,14,0,0,0,2.08.89,13.43,13.43,0,0,1,2,.86,10.22,10.22,0,0,1,1.63,1.17,1.66,1.66,0,0,0,1.44.42A3.8,3.8,0,0,0,104,119c0.41-.63,1.54-2.16,2.51-3.4s2.12-2.81,2.55-3.49a27.6,27.6,0,0,0,1.4-2.58,20.79,20.79,0,0,1,1.34-2.36l0.14-.22C112.1,106.73,112.27,106.51,112.45,106.28Z" fill="#231f20"/><path d="M89.72,89.93a15.3,15.3,0,0,1,1.34-1.5,2.83,2.83,0,0,0,1-1.89,2.59,2.59,0,0,0-1.48-1.44,18.88,18.88,0,0,0-2.74-.95,17.41,17.41,0,0,0-2.79-.4c-0.77,0-2-.16-2.77-0.28h0c-0.15.35-.28,0.66-0.4,0.94l-0.11.26C81.21,86,81,87.43,81.35,87.83s1.93,0.92,3.59,1.17c1.31,0.19,2.79.46,3.72,0.67l0.63,0.16Z" fill="#231f20"/></svg>