<svg xmlns="http://www.w3.org/2000/svg" width="93.08" height="200" viewBox="0 0 93.08 200"><title>_</title><path d="M2.07 119.44c1.17-.27 3-.6 4.14-.73.79-.09 1.79-.18 2.79-.22h1.15c1.15 0 4.47.31 7.58.71 2.95.38 6.16.71 7 .73a6.16 6.16 0 0 1 3.64 1.29c1.09 1 1.68 4.44 1.93 6.42 0 .38.08.62.1.86a54.85 54.85 0 0 1 .36 7.66 33.31 33.31 0 0 1-.73 4 17.47 17.47 0 0 0-.46 3.41 16.12 16.12 0 0 0 .39 3.31 8.72 8.72 0 0 0 .93 2.31 9.39 9.39 0 0 0 2.84.84 22.76 22.76 0 0 0 3.82.3 10.66 10.66 0 0 0 1.88-.51 11.82 11.82 0 0 1 2.59-.67 10.32 10.32 0 0 1 2.45.06 6.94 6.94 0 0 0 0-1.65 23.64 23.64 0 0 1-.16-4.08 25.13 25.13 0 0 1 .7-4.09c.27-1 .63-2.66.78-3.64s.3-4.22.32-7.08c0-1.4.14-6.06 1.25-7.26a5.44 5.44 0 0 1 3.5-1.39c.84 0 2.32-.16 3.22-.29s2.49-.45 3.48-.69a22.55 22.55 0 0 1 4.05-.56 22.53 22.53 0 0 1 4.06.33c1 .19 3.51.47 5.56.63a14.94 14.94 0 0 0 4.2-.14 1.76 1.76 0 0 0 .6-.83 8.91 8.91 0 0 0 .16-2 7.78 7.78 0 0 0-.42-1.85 23.49 23.49 0 0 1-.79-2.42c-.11-.43-.23-1-.33-1.62-.05-.3-.09-.59-.12-.83a22.82 22.82 0 0 1-.12-2.37 21 21 0 0 1 .17-2.22 6.46 6.46 0 0 0-1.67 0 28.54 28.54 0 0 1-3.9.09 30.51 30.51 0 0 1-3.94-.55c-1-.21-2.6-.48-3.57-.59-.64-.07-2.5-.09-4.64 0l-2.63.08c-1.89.08-6.41.13-7.61-1.07a5.28 5.28 0 0 1-1.11-3.92 34.26 34.26 0 0 0 .11-3.52c0-1-.41-4.25-.84-7.19a62.11 62.11 0 0 1-.65-6.87 8.86 8.86 0 0 1 0-.92 25.06 25.06 0 0 1 .87-4.31 6.68 6.68 0 0 0 .25-1.23c-.79.23-1.92.51-2.6.65a23.39 23.39 0 0 1-2.54.33c-.63 0-1.7.06-2.37 0s-2.59-.21-4.39-.42a7.83 7.83 0 0 0-2.69.08 8.46 8.46 0 0 0-.77 1.82 13.87 13.87 0 0 0-.41 3.12A15.61 15.61 0 0 0 30 84a22.33 22.33 0 0 1 .69 4 40.48 40.48 0 0 1-.34 5.74c-.23 1.91-.43 4.27-.42 5.16a6.59 6.59 0 0 1-1.18 3.77 7.08 7.08 0 0 1-3.43 2.06 17.52 17.52 0 0 1-4 .47 19.65 19.65 0 0 1-4-.58 34.25 34.25 0 0 0-3.54-.72 32.53 32.53 0 0 0-3.54-.24c-1 0-2.58.08-3.52.18s-2.49.33-3.39.52a6.62 6.62 0 0 0-1.92.71.59.59 0 0 0-.11.23 17.75 17.75 0 0 1 .18 2c0 .82-.41 4.77-.7 7.23a23.94 23.94 0 0 0-.17 5 6.17 6.17 0 0 0 1.46-.09z"/><path d="M47.14 95.51a36.12 36.12 0 0 1-.14 3.71 3.91 3.91 0 0 0 .68 2.72c.47.47 3.39.76 6.49.63l2.66-.08c0-.22 0-.56-.07-1-.13-1.48-.44-4-.79-6.4a47.4 47.4 0 0 1-.62-7.43 23.58 23.58 0 0 1 .8-3.89 5.26 5.26 0 0 0 .27-2.77 1.48 1.48 0 0 0-1.72-.38c-.74.23-1.91.52-2.59.65a22.32 22.32 0 0 1-2.35.31c-.61 0-1.62.05-2.23 0l-.87-.06-1-.09a60.39 60.39 0 0 0 .63 6.68c.43 3.07.82 6.39.85 7.4zM77.19 114a9.26 9.26 0 0 1 .53 2.31 10.38 10.38 0 0 1-.2 2.45 3.15 3.15 0 0 1-1.39 1.85 13.79 13.79 0 0 1-5 .29c-2.13-.16-4.7-.46-5.73-.66a20.8 20.8 0 0 0-3.73-.3 21.2 21.2 0 0 0-3.73.52c-1 .26-2.66.58-3.62.72s-2.49.28-3.4.3a4 4 0 0 0-2.45.91c-.44.48-.82 3.29-.85 6.25s-.18 6.25-.34 7.29-.53 2.76-.82 3.81a23.27 23.27 0 0 0-.65 3.79 21.76 21.76 0 0 0 .14 3.76 6.21 6.21 0 0 1-.13 2.71 1.39 1.39 0 0 1-1.45.65 8.8 8.8 0 0 0-2.15-.06 10.48 10.48 0 0 0-2.2.57 11.7 11.7 0 0 1-2.14.58c0 .33.07.67.12 1a14.12 14.12 0 0 0 .25 1.39 10.13 10.13 0 0 0 1.19 2.87c.39.55 2.12 1.2 3.84 1.46a22.52 22.52 0 0 0 4.25.3 11.6 11.6 0 0 0 2.23-.6 10.48 10.48 0 0 1 2.2-.57 8.8 8.8 0 0 1 2.15.06 1.39 1.39 0 0 0 1.45-.65 6.21 6.21 0 0 0 .13-2.71 21.76 21.76 0 0 1-.14-3.76 23.27 23.27 0 0 1 .65-3.79c.29-1 .65-2.76.82-3.81s.31-4.33.34-7.29.41-5.78.85-6.25a4 4 0 0 1 2.45-.91c.9 0 2.43-.16 3.4-.3s2.6-.47 3.62-.72a21.2 21.2 0 0 1 3.73-.52 20.8 20.8 0 0 1 3.73.3c1 .2 3.61.49 5.73.66a13.79 13.79 0 0 0 5-.29 3.15 3.15 0 0 0 1.39-1.85 10.38 10.38 0 0 0 .2-2.45 9.26 9.26 0 0 0-.56-2.31 22.08 22.08 0 0 1-.73-2.23 19.89 19.89 0 0 1-.41-2.23 21.55 21.55 0 0 1-.11-2.19 19.19 19.19 0 0 1 .16-2.1 1.47 1.47 0 0 0-.68-1.45 6.12 6.12 0 0 0-2.65-.22 26.8 26.8 0 0 1-3.66.09c-.45 0-1-.09-1.63-.17l-1-.15c.09.52.2 1.09.3 1.49a22.08 22.08 0 0 0 .7 2.16zM24.77 121.39c-.92 0-4.16-.35-7.19-.74s-6.35-.71-7.38-.7H9.11L9 121v.39c-.39 3.3-.3 6.21.21 6.47a5.64 5.64 0 0 0 3 0c1.12-.26 2.91-.58 4-.71s2.79-.24 3.82-.25 4.35.31 7.38.7l.55.07 1 .13c-.34-2.67-1-5.06-1.44-5.49a4.75 4.75 0 0 0-2.75-.92z"/></svg>