<svg xmlns="http://www.w3.org/2000/svg" width="46.37" height="200" viewBox="0 0 46.37 200"><title>_</title><path d="M5.05 169.36a12.25 12.25 0 0 1 .67 1.93 11.06 11.06 0 0 1 .26 2 10.13 10.13 0 0 1-.22 2.11 13.35 13.35 0 0 1-.52 1.6 8 8 0 0 0 1.28 0c1-.1 2.63-.34 3.55-.54.46-.1 1.58-.43 2.91-.86 1-.34 2.19-.73 3.29-1.13a43.54 43.54 0 0 0 5.53-2.33 41.69 41.69 0 0 0 4.09-3.84c1.78-1.86 3.43-3.73 3.79-4.25a21.48 21.48 0 0 0 1.32-2.31c.33-.67 1.09-2.63 1.66-4.28a55.56 55.56 0 0 0 1.69-6.33 114.56 114.56 0 0 0 .79-13.13v-.14c0-3.69 0-7.71-.09-10.49-.05-1.45-.11-2.16-.15-2.49a7.53 7.53 0 0 0-.81-2.76 32.39 32.39 0 0 0-6.17-.27c-3.41.1-7 .07-8.23-.07s-3.06-.45-4.22-.69a31.72 31.72 0 0 0-3.85-.52 30.68 30.68 0 0 0-3.84.07 4.73 4.73 0 0 0-2 .72 48.48 48.48 0 0 0-.39 10.1l.13 3.74c.17 5 .27 10.86.15 12.14a8.85 8.85 0 0 0 .09 2.47.93.93 0 0 0 .28.39 5.52 5.52 0 0 0 1.15.1 5.93 5.93 0 0 0 1.37-.33 12.55 12.55 0 0 1 2.17-.63 21.05 21.05 0 0 1 3.28 0l.83.05c1.22.09 3.39.34 4.15 1a3.38 3.38 0 0 1 1.13 2.15 8 8 0 0 1 0 1.78 7.36 7.36 0 0 1-.5 1.69 12.46 12.46 0 0 1-.75 1.37 12 12 0 0 1-.94 1.23 10.55 10.55 0 0 1-1.13 1.07l-.31.23a10.55 10.55 0 0 1-1 .61 1.94 1.94 0 0 0-.43.39 3.59 3.59 0 0 0-.36.87 4.42 4.42 0 0 1-1.13 2c-.2.18-.81.74-5.38 1.53a24.29 24.29 0 0 0-3.77.91 1.13 1.13 0 0 0-.06.33 9.56 9.56 0 0 0 .19 1.49 9.41 9.41 0 0 0 .5 1.32z"/><path d="M14.06 157.18a2.38 2.38 0 0 0 .54.89 1.6 1.6 0 0 0 .66.46l.34.08.25-.18a9.06 9.06 0 0 0 .94-.89 10.37 10.37 0 0 0 .8-1 11 11 0 0 0 .64-1.17 5.93 5.93 0 0 0 .39-1.29 6.69 6.69 0 0 0 0-1.41 1.94 1.94 0 0 0-.58-1.14 10.33 10.33 0 0 0-3.31-.63l-.73-.1v3.33a9.91 9.91 0 0 0 .06 3.05zM36.64 138a113.9 113.9 0 0 1-.77 13.41 57.28 57.28 0 0 1-1.75 6.59c-.6 1.72-1.38 3.72-1.73 4.45a22.88 22.88 0 0 1-1.48 2.51c-.46.65-2.23 2.65-3.94 4.43a41.6 41.6 0 0 1-4.34 4.06 43.24 43.24 0 0 1-5.85 2.49c-1.11.4-2.28.8-3.34 1.15.12.27.24.61.35.94s.14.43.18.6a9.74 9.74 0 0 1 .22 1.67A8.6 8.6 0 0 1 14 182a12.46 12.46 0 0 1-.63 1.88 1.06 1.06 0 0 0 .32 1.37 6.41 6.41 0 0 0 2.68.21c1.06-.1 2.73-.36 3.72-.56s3.86-1.13 6.4-2a43.24 43.24 0 0 0 5.85-2.49 41.6 41.6 0 0 0 4.34-4.06c1.71-1.78 3.48-3.77 3.94-4.43a22.88 22.88 0 0 0 1.48-2.51c.36-.73 1.14-2.73 1.73-4.45a57.28 57.28 0 0 0 1.74-6.54 113.9 113.9 0 0 0 .78-13.42v-.15c.06-5.5 0-11.42-.25-13.16s-.86-3.47-1.46-3.85-3.78-.61-7.06-.51h-1c.1 2.68.14 6.72.09 10.56v.11z"/></svg>