<svg xmlns="http://www.w3.org/2000/svg" width="55.53" height="200" viewBox="0 0 55.53 200"><title>_</title><path d="M1.5 123.14a44.05 44.05 0 0 0 7.27.58h18.86a69.84 69.84 0 0 0 10.31-.56 42.84 42.84 0 0 0 1-9.58v-.51c.06-2.86.06-5.81.06-8.07 0-2.64 0-3.23-.05-3.36a2.36 2.36 0 0 0-.78-1.35c-.53-.2-4.27-.71-10.58-.84l-16.13-.33a57.63 57.63 0 0 0-10.41.43 2.13 2.13 0 0 0-.28 1.26 89.5 89.5 0 0 1-.1 9.19 101.44 101.44 0 0 0-.08 10.16 6.52 6.52 0 0 0 .91 2.98z"/><path d="M27.63 125.27H8.72v1c0 .31 0 .78.06 1.06.16 1.81.89 3.66 1.63 4.11s5.85.82 11.35.82h15.58c5.5 0 10.59-.36 11.3-.8s1.39-5.31 1.49-10.8v-.5c.11-5.5.12-10.73 0-11.63a3.77 3.77 0 0 0-1.45-2.53c-.54-.35-3.46-.7-7.16-.9l-1-.05c0 2.18 0 5.11-.09 8.12v.5c-.11 5.5-.78 10.36-1.49 10.8s-5.81.8-11.31.8z"/></svg>