<svg xmlns="http://www.w3.org/2000/svg" width="200" height="200" viewBox="0 0 200 200"><title>_</title><path d="M124.63 109c-.6-.28-4.82-.78-10.81-.9l-16.13-.33c-5.88-.12-10.05.22-10.69.5a2.33 2.33 0 0 0-.51 1.75 90.5 90.5 0 0 1-.12 9.13 101.85 101.85 0 0 0-.08 10.23 6.13 6.13 0 0 0 1.14 3.33 38.63 38.63 0 0 0 7.52.64h18.91a61.75 61.75 0 0 0 10.65-.63c.41-.88 1-4.71 1.11-10v-.51c.05-2.91.09-5.86.09-8.1 0-2.58 0-3.24-.05-3.41a2.8 2.8 0 0 0-1.03-1.7z" fill="#231f20"/><path d="M126.63 122.31v.5c-.11 5.5-.78 10.36-1.49 10.8s-5.8.81-11.3.8H94.92v1c0 .31 0 .78.06 1.06.16 1.81.89 3.66 1.63 4.11s5.85.82 11.35.82h15.55c5.5 0 10.59-.36 11.3-.8s1.39-5.31 1.49-10.8v-.5c.11-5.5.12-10.73 0-11.63a3.77 3.77 0 0 0-1.49-2.48c-.54-.35-3.46-.7-7.16-.9l-1-.05c.07 2.13.04 5.06-.02 8.07z" fill="#231f20"/></svg>