<svg xmlns="http://www.w3.org/2000/svg" width="200" height="200" viewBox="0 0 200 200"><title>_</title><path d="M124.63,109c-0.6-.28-4.82-0.78-10.81-0.9l-16.13-.33c-5.88-.12-10.05.22-10.69,0.5a2.33,2.33,0,0,0-.51,1.75,90.5,90.5,0,0,1-.12,9.13,101.85,101.85,0,0,0-.08,10.23,6.13,6.13,0,0,0,1.14,3.33,38.63,38.63,0,0,0,7.52.64c1.07,0,2.18,0,3.32,0h15.59a61.75,61.75,0,0,0,10.65-.63c0.41-.88,1-4.71,1.11-10v-0.51c0.05-2.91.09-5.86,0.09-8.1,0-2.58,0-3.24-.05-3.41A2.8,2.8,0,0,0,124.63,109Z" fill="#231f20"/><path d="M126.63,122.31v0.5c-0.11,5.5-.78,10.36-1.49,10.8s-5.8.81-11.3,0.8H98.27c-1.15,0-2.27,0-3.35,0,0,0.36,0,.69,0,1s0,0.78.06,1.06c0.16,1.81.89,3.66,1.63,4.11s5.85,0.82,11.35.82h15.55c5.5,0,10.59-.36,11.3-0.8s1.39-5.31,1.49-10.8v-0.5c0.11-5.5.12-10.73,0-11.63a3.77,3.77,0,0,0-1.49-2.48c-0.54-.35-3.46-0.7-7.16-0.9l-1-.05C126.72,116.37,126.69,119.3,126.63,122.31Z" fill="#231f20"/></svg>