<svg xmlns="http://www.w3.org/2000/svg" width="52.91" height="200" viewBox="0 0 52.91 200"><title>_</title><path d="M4.33 148.82a44.8 44.8 0 0 0 7.64.62h10.58a52.91 52.91 0 0 0 10.21-.7 4.1 4.1 0 0 0 .73-1.81 32.35 32.35 0 0 0 .17-3.66 35 35 0 0 0-.33-3.74c-.2-1.31-.28-6.2-.24-10.16v-2.8a28.85 28.85 0 0 0-.48-5 54.65 54.65 0 0 0-9.79-.5l-8.29.13a60.55 60.55 0 0 0-9.94.76 35.71 35.71 0 0 0-.59 7.58c0 4.33 0 8.79-.14 9.93s-.17 3.59-.14 5.68a11.1 11.1 0 0 0 .61 3.67z"/><path d="M34.81 139.32a36 36 0 0 1 .35 3.93 33.92 33.92 0 0 1-.18 3.86 5.14 5.14 0 0 1-1.32 2.89c-.6.52-5.6 1-11.1 1H11.93v1.17c0 2.13.53 4.31 1.1 4.84s5.54 1 11 1h8.19c5.5 0 10.49-.45 11.1-1a5.14 5.14 0 0 0 1.32-2.87 33.92 33.92 0 0 0 .18-3.86 36 36 0 0 0-.35-3.93c-.17-1.09-.27-5.55-.22-9.92s-.25-8.43-.82-9.03-3.72-.78-7.87-.85h-1v2.86c-.02 4.35.08 8.82.25 9.91z"/></svg>