<svg xmlns="http://www.w3.org/2000/svg" width="200" height="200" viewBox="0 0 200 200"><title>_</title><path d="M121.39,148.63c-0.2-1.29-.28-6.14-0.23-10.08,0-1,0-1.92,0-2.82a24.41,24.41,0,0,0-.58-5.38c-0.95-.31-4.85-0.67-10.2-0.59l-8.29.13a53.76,53.76,0,0,0-10.33.85,31.57,31.57,0,0,0-.65,7.95c0,4.32,0,8.75-.14,9.88s-0.17,3.63-.14,5.74a10.07,10.07,0,0,0,.75,4.08,38,38,0,0,0,8,.71l2.42,0,8.18,0c5.68,0,9.75-.46,10.49-0.77a4.4,4.4,0,0,0,.94-2.18,33.11,33.11,0,0,0,.17-3.73A35.71,35.71,0,0,0,121.39,148.63Z" fill="#231f20"/><path d="M122.16,138.56c0,4.36.05,8.83,0.22,9.92a36,36,0,0,1,.35,3.93,33.92,33.92,0,0,1-.18,3.86,5.14,5.14,0,0,1-1.32,2.87c-0.6.52-5.6,1-11.1,1l-8.19,0c-0.83,0-1.65,0-2.44,0q0,0.51,0,1c0,0.06,0,.12,0,0.17,0,2.13.53,4.31,1.1,4.84s5.54,1,11,1l8.19,0c5.5,0,10.49-.45,11.1-1a5.14,5.14,0,0,0,1.32-2.87,33.92,33.92,0,0,0,.18-3.86,36,36,0,0,0-.35-3.93c-0.17-1.09-.27-5.55-0.22-9.92s-0.34-8.39-.87-8.95-3.72-.78-7.87-0.85h-1C122.16,136.61,122.17,137.57,122.16,138.56Z" fill="#231f20"/></svg>