<svg xmlns="http://www.w3.org/2000/svg" width="200" height="200" viewBox="0 0 200 200"><title>_</title><path d="M121.39 148.63c-.2-1.29-.28-6.14-.23-10.08v-2.82a24.41 24.41 0 0 0-.58-5.38c-.95-.31-4.85-.67-10.2-.59l-8.29.13a53.76 53.76 0 0 0-10.33.85 31.57 31.57 0 0 0-.65 7.95c0 4.32 0 8.75-.14 9.88s-.17 3.63-.14 5.74a10.07 10.07 0 0 0 .75 4.08 38 38 0 0 0 8 .71h10.6c5.68 0 9.75-.46 10.49-.77a4.4 4.4 0 0 0 .94-2.18 33.11 33.11 0 0 0 .17-3.73 35.71 35.71 0 0 0-.39-3.79z" fill="#231f20"/><path d="M122.16 138.56c0 4.36.05 8.83.22 9.92a36 36 0 0 1 .35 3.93 33.92 33.92 0 0 1-.18 3.86 5.14 5.14 0 0 1-1.32 2.87c-.6.52-5.6 1-11.1 1H99.5v1.17c0 2.13.53 4.31 1.1 4.84s5.54 1 11 1h8.19c5.5 0 10.49-.45 11.1-1a5.14 5.14 0 0 0 1.32-2.87 33.92 33.92 0 0 0 .18-3.86 36 36 0 0 0-.35-3.93c-.17-1.09-.27-5.55-.22-9.92s-.34-8.39-.87-8.95-3.72-.78-7.87-.85h-1c.08.84.09 1.8.08 2.79z" fill="#231f20"/></svg>