<svg xmlns="http://www.w3.org/2000/svg" width="66.45" height="200" viewBox="0 0 66.45 200"><title>_</title><path d="M7.65 164a14.91 14.91 0 0 0 2.4-.67 20.49 20.49 0 0 1 2.66-.84 18.4 18.4 0 0 1 2.69-.38 10.49 10.49 0 0 1 1.53.06 12.55 12.55 0 0 1 1.48.23 20.6 20.6 0 0 1 3.21 1.12 1.62 1.62 0 0 0 .9.12 5.48 5.48 0 0 0 .62-2c.15-1.27.48-3.26.74-4.44s.77-3.05 1.13-4.15a28.89 28.89 0 0 0 .9-3.69 30.47 30.47 0 0 0 .31-3.85 18.41 18.41 0 0 1 .65-4.44 18.92 18.92 0 0 1 1.92-4.1 23 23 0 0 0 1.76-3.4 67 67 0 0 0 1.77-7.57c.63-3.34 1.44-7 1.8-8.08s1-2.86 1.53-3.93a23 23 0 0 0 1.19-3.55 23.53 23.53 0 0 0 .47-3.75c0-1.18.17-3.08.31-4.24s.83-4.78 1.54-8.08a65.93 65.93 0 0 1 2.16-8.07 28.33 28.33 0 0 1 2.12-3.89A31.8 31.8 0 0 0 45.39 79a29.05 29.05 0 0 0 1.33-3.57 20.44 20.44 0 0 0 .6-3.67 23.64 23.64 0 0 0-.21-3.93 14 14 0 0 1 .19-4.73 13.83 13.83 0 0 1 2.07-4.23 19.26 19.26 0 0 0 1.94-3.29 17 17 0 0 0 1-3.5 39.78 39.78 0 0 1 .92-4.28l.1-.34c.37-1.24 1-2.94 1.44-4.05a7.28 7.28 0 0 0 .33-1 13.41 13.41 0 0 1-3.53.83 8.88 8.88 0 0 1-3.34-.53 7 7 0 0 0-1.94-.42 6.39 6.39 0 0 0-1.89.33 19.31 19.31 0 0 1-2.43.71 9.59 9.59 0 0 1-2.15.18s-.25.13-.42.3a9.81 9.81 0 0 0-1.32 2c-.42.82-1.36 3.16-2.05 5.11a47.24 47.24 0 0 0-1.61 5.45c-.19 1-.39 2.8-.45 3.86a29.2 29.2 0 0 1-.62 4.28 69.35 69.35 0 0 1-3 7.82 49.68 49.68 0 0 0-2.7 7.24 19.07 19.07 0 0 0-.14 3.77 13.69 13.69 0 0 1-.59 4.66 14.59 14.59 0 0 1-2.39 4.11 12.94 12.94 0 0 0-1.9 3.14 11.46 11.46 0 0 0-.56 3.44 18.86 18.86 0 0 1-.52 4.47 18.87 18.87 0 0 1-1.77 4.14 37.34 37.34 0 0 0-1.82 3.5 35.15 35.15 0 0 0-1.31 3.62 37 37 0 0 0-.82 3.76 38.67 38.67 0 0 0-.34 3.89c0 1.18-.18 3.08-.32 4.24s-.48 3-.75 4.14a36.9 36.9 0 0 1-1.26 4.06 38.45 38.45 0 0 1-1.83 3.9 16.21 16.21 0 0 0-1.32 3.4 16.66 16.66 0 0 0-.33 3.67c.05 1.2.05 3.14 0 4.31s-.22 3.01-.38 4.21a19.41 19.41 0 0 1-1.3 4.39 27 27 0 0 1-2.59 4.33 8.28 8.28 0 0 0-.92 1.55h.18a24 24 0 0 0 2.98-.27z"/><path d="M55.86 47.73a7.28 7.28 0 0 0-1.08.11l-.1.33a38.24 38.24 0 0 0-.88 4.09 18.59 18.59 0 0 1-1.1 3.88 20.81 20.81 0 0 1-2.13 3.61 12.31 12.31 0 0 0-1.81 3.69 12.51 12.51 0 0 0-.16 4.13 25.17 25.17 0 0 1 .22 4.24 22 22 0 0 1-.66 4 30.32 30.32 0 0 1-1.42 3.8 33 33 0 0 1-2.06 3.63 26.69 26.69 0 0 0-2 3.65 65.06 65.06 0 0 0-2.07 7.8c-.7 3.26-1.38 6.84-1.52 7.95s-.27 3-.3 4.09a25.06 25.06 0 0 1-.5 4A24.49 24.49 0 0 1 37 114.6c-.46 1-1.12 2.73-1.47 3.78s-1.14 4.6-1.75 7.88a66.71 66.71 0 0 1-1.86 7.86 24.44 24.44 0 0 1-1.9 3.67 17.43 17.43 0 0 0-1.74 3.71 16.94 16.94 0 0 0-.59 4 31.83 31.83 0 0 1-.33 4.09 30.35 30.35 0 0 1-1 3.92c-.35 1.06-.84 2.85-1.09 4s-.57 3.08-.71 4.3a5.53 5.53 0 0 1-1.17 3 2.6 2.6 0 0 1-2.46.06 19.13 19.13 0 0 0-2.93-1 11 11 0 0 0-1.29-.2c-.12.35-.25.68-.37 1v.1a25.25 25.25 0 0 1-2.42 4 6.23 6.23 0 0 0-1.41 3c.06.54.9 1 1.87 1a25.4 25.4 0 0 0 3.24-.3 16.27 16.27 0 0 0 2.7-.76 19.12 19.12 0 0 1 2.43-.77 17 17 0 0 1 2.43-.34 11.37 11.37 0 0 1 2.59.26 19.13 19.13 0 0 1 2.93 1 2.6 2.6 0 0 0 2.46-.06 5.53 5.53 0 0 0 1.17-3c.14-1.23.47-3.16.71-4.3s.74-2.94 1.09-4a30.35 30.35 0 0 0 1-3.92 31.83 31.83 0 0 0 .33-4.09 16.94 16.94 0 0 1 .59-4 17.43 17.43 0 0 1 1.74-3.71 24.44 24.44 0 0 0 1.9-3.67 66.71 66.71 0 0 0 1.86-7.86c.62-3.28 1.41-6.83 1.75-7.88s1-2.76 1.47-3.78a24.49 24.49 0 0 0 1.23-3.88 25.06 25.06 0 0 0 .5-4c0-1.14.17-3 .3-4.09s.82-4.69 1.52-7.95a65.06 65.06 0 0 1 2.07-7.8 26.69 26.69 0 0 1 2-3.65 33 33 0 0 0 2.06-3.63 30.32 30.32 0 0 0 1.42-3.8 22 22 0 0 0 .66-4 25.17 25.17 0 0 0-.22-4.24 12.51 12.51 0 0 1 .16-4.13 12.31 12.31 0 0 1 1.81-3.69 20.81 20.81 0 0 0 2.13-3.61 18.59 18.59 0 0 0 1.1-3.88 38.24 38.24 0 0 1 .88-4.09c.32-1.14 1-3 1.48-4.23a5 5 0 0 0 .5-2.89c-.21-.41-1.14-.44-2.05-.08a12.08 12.08 0 0 1-3.12.75 7.47 7.47 0 0 1-2.7-.42 8.42 8.42 0 0 0-2.5-.56h-.14z"/></svg>