<svg xmlns="http://www.w3.org/2000/svg" width="111.36" height="200" viewBox="0 0 111.36 200"><title>_</title><path d="M10 89.27c.27 1.42-.28 5.19-.71 7.39-.54 2.75-1 5.88-1.11 6.84a27 27 0 0 0 .02 3.5 29.87 29.87 0 0 0 .59 3.46 30.39 30.39 0 0 0 1.09 3.36c.41 1 1 2.64 1.24 3.63s.87 4.12 1.33 7a30.92 30.92 0 0 0 1.47 6.06 11.44 11.44 0 0 0 1.83 2.28c.77.7 3.29 3.44 5.75 6.24a49.7 49.7 0 0 0 5.33 5.45 11.78 11.78 0 0 0 2.57 1.06c.43.11 1 .28 1.56.46s1.36.45 1.88.65c.94.37 2.49 1.07 3.46 1.57a17.81 17.81 0 0 0 3.13 1.19 18.15 18.15 0 0 0 3.33.45 21.9 21.9 0 0 1 4.1.55 25 25 0 0 1 4 1.47 14 14 0 0 0 3.29 1 38.1 38.1 0 0 0 7.15-.7c3.12-.53 7.32-1.41 9.35-2a62.46 62.46 0 0 0 6.8-2.32 16.18 16.18 0 0 0 3.88-2.22 10.6 10.6 0 0 0 1.6-2.41 11.26 11.26 0 0 1 5.43-5.6 13.27 13.27 0 0 0 2.52-1.7 12.66 12.66 0 0 0 1.87-2.32 15.43 15.43 0 0 0 1.25-2.78 16.41 16.41 0 0 0 .5-3.12c0-1.05.33-3.45.65-5.35a39.56 39.56 0 0 1 1.2-5.29c.34-1 1-2.57 1.5-3.56a14.9 14.9 0 0 0 1-3.14 14.65 14.65 0 0 0 .11-3.28 21.85 21.85 0 0 1 .64-8 23.45 23.45 0 0 0 .59-3.5 26 26 0 0 0-.05-3.69 29.13 29.13 0 0 0-.68-3.74 30.09 30.09 0 0 0-1.28-3.63A17.64 17.64 0 0 1 97 80.14a19.23 19.23 0 0 1 .16-4.63 20.19 20.19 0 0 0 .26-3.72 13.14 13.14 0 0 0-.6-3.06 12.16 12.16 0 0 0-1.4-2.56A13.76 13.76 0 0 0 93.24 64c-.84-.63-2.11-1.7-2.83-2.38A31.92 31.92 0 0 1 88 59.08a22.6 22.6 0 0 1-1.94-2.93 27.408 27.408 0 0 1-1.44-3.33 5.59 5.59 0 0 0-1.23-1.94 5.41 5.41 0 0 0-2.05-.88c-1-.15-2.5-.48-3.39-.72a31.1 31.1 0 0 1-3.08-1c-.8-.33-2.1-.95-2.9-1.38s-2.1-1.21-2.91-1.75a13.24 13.24 0 0 0-2.58-1.25 12.81 12.81 0 0 0-2.78-.49 30 30 0 0 1-3.52-.41 31.36 31.36 0 0 1-3.47-.89 20.94 20.94 0 0 0-3-.7 18.21 18.21 0 0 0-2.27-.14h-.52a18.63 18.63 0 0 0-2.77.41 19.22 19.22 0 0 0-2.69.93c-.75.33-2 1-2.68 1.35s-1.85 1.12-2.51 1.59a12.46 12.46 0 0 1-3.66 1.57 24.48 24.48 0 0 1-4.71.5 12.56 12.56 0 0 0-3.94.75 30.31 30.31 0 0 0-5.79 4.91 54.11 54.11 0 0 0-4.86 5.54 13.72 13.72 0 0 0-1.12 2.78 19 19 0 0 1-1.37 3.56 19.32 19.32 0 0 1-2.18 3.15A12.19 12.19 0 0 0 11 70.75a10.9 10.9 0 0 0-.72 2.7A24.63 24.63 0 0 1 9.64 77a25.26 25.26 0 0 1-1.29 3.37 6.34 6.34 0 0 0-.52 2.44 8.38 8.38 0 0 0 .79 2.72A16.43 16.43 0 0 1 10 89.27z"/><path d="M98.91 65.08a21.17 21.17 0 0 1-1.79-2.7 24 24 0 0 1-1.33-3.1 6.9 6.9 0 0 0-1.68-2.61 6.74 6.74 0 0 0-2.82-1.23c-.88-.14-2.22-.42-3.08-.64h-.15c-.33-.09-.73-.21-1.14-.35.17.38.34.74.49 1a21.17 21.17 0 0 0 1.79 2.7 30.22 30.22 0 0 0 2.24 2.42c.68.64 1.89 1.66 2.7 2.27a15.13 15.13 0 0 1 2.49 2.44 13.59 13.59 0 0 1 1.61 3 14.54 14.54 0 0 1 .69 3.49 21.71 21.71 0 0 1-.28 4.06A17.8 17.8 0 0 0 98.5 80a16.16 16.16 0 0 0 1.07 3.93 31.47 31.47 0 0 1 1.36 3.86 30.44 30.44 0 0 1 .72 4 27.36 27.36 0 0 1 .05 4 24.92 24.92 0 0 1-.64 3.78 20.38 20.38 0 0 0-.59 7.47 16 16 0 0 1-.12 3.7 16.22 16.22 0 0 1-1.16 3.53c-.46.95-1.11 2.48-1.43 3.4a38.74 38.74 0 0 0-1.14 5c-.3 1.84-.58 4.17-.63 5.17a17.68 17.68 0 0 1-.56 3.48 16.7 16.7 0 0 1-1.38 3.17 14 14 0 0 1-2.15 2.66A14.65 14.65 0 0 1 89 139a9.76 9.76 0 0 0-4.72 4.87 12.05 12.05 0 0 1-1.88 2.83 17.13 17.13 0 0 1-4.38 2.56 64.65 64.65 0 0 1-7 2.39c-2.07.56-6.33 1.45-9.49 2a38.14 38.14 0 0 1-7.61.71 15.35 15.35 0 0 1-3.73-1.17 23.28 23.28 0 0 0-3.72-1.36 20.51 20.51 0 0 0-3.76-.51 19.72 19.72 0 0 1-3.67-.49 19.46 19.46 0 0 1-3.45-1.31c-.92-.47-2.41-1.15-3.31-1.5-.49-.19-1.15-.42-1.79-.62.47.53.95 1 1.41 1.55a32.06 32.06 0 0 0 3.85 3.73 13.25 13.25 0 0 0 3 1.23c.89.23 2.36.7 3.26 1.05s2.39 1 3.31 1.5a19.46 19.46 0 0 0 3.45 1.31 19.72 19.72 0 0 0 3.67.49 20.51 20.51 0 0 1 3.76.51 23.28 23.28 0 0 1 3.72 1.36 15.35 15.35 0 0 0 3.73 1.17 38.14 38.14 0 0 0 7.61-.71c3.15-.54 7.42-1.43 9.49-2a64.65 64.65 0 0 0 7-2.39 17.13 17.13 0 0 0 4.38-2.56 12.05 12.05 0 0 0 1.87-2.81 9.76 9.76 0 0 1 4.75-4.83 14.65 14.65 0 0 0 2.87-1.94 14 14 0 0 0 2.15-2.66 16.7 16.7 0 0 0 1.38-3.17 17.68 17.68 0 0 0 .56-3.48c0-1 .33-3.32.63-5.17a38.74 38.74 0 0 1 1.14-5c.32-.92 1-2.45 1.43-3.4a16.22 16.22 0 0 0 1.16-3.53 16 16 0 0 0 .12-3.7 20.38 20.38 0 0 1 .59-7.47 24.92 24.92 0 0 0 .64-3.78 27.36 27.36 0 0 0-.05-4 30.44 30.44 0 0 0-.72-4 31.47 31.47 0 0 0-1.36-3.86 16.16 16.16 0 0 1-1.07-3.93 17.8 17.8 0 0 1 .15-4.21 21.71 21.71 0 0 0 .28-4.06 14.54 14.54 0 0 0-.69-3.49 13.59 13.59 0 0 0-1.61-3 15.13 15.13 0 0 0-2.49-2.44c-.8-.6-2-1.62-2.7-2.27a30.22 30.22 0 0 1-2.25-2.36z"/></svg>