<svg xmlns="http://www.w3.org/2000/svg" width="200" height="200" viewBox="0 0 200 200"><title>_</title><path d="M138.27,64c-0.36-.8-0.68-1.59-0.88-2.17A6,6,0,0,0,136,59.65a5.84,5.84,0,0,0-2.33-1c-1-.15-2.46-0.47-3.34-0.71a30.45,30.45,0,0,1-3-1c-0.79-.32-2.07-0.93-2.85-1.36s-2.08-1.2-2.87-1.72a13.64,13.64,0,0,0-2.7-1.31A13.21,13.21,0,0,0,116,52a29.51,29.51,0,0,1-3.44-.38,30.86,30.86,0,0,1-3.4-.87,21.57,21.57,0,0,0-3-.72,18.4,18.4,0,0,0-2.94-.13,19.24,19.24,0,0,0-2.86.43,19.91,19.91,0,0,0-2.77,1c-0.76.34-2,1-2.72,1.37s-1.88,1.14-2.55,1.61a12.07,12.07,0,0,1-3.49,1.5,23.88,23.88,0,0,1-4.59.49,13,13,0,0,0-4.13.79,30.39,30.39,0,0,0-6,5,53.65,53.65,0,0,0-4.94,5.63A14.06,14.06,0,0,0,68,70.63a18.48,18.48,0,0,1-1.32,3.45,18.71,18.71,0,0,1-2.11,3,12.6,12.6,0,0,0-1.69,2.58,11.31,11.31,0,0,0-.76,2.85A24.07,24.07,0,0,1,61.42,86a24.68,24.68,0,0,1-1.26,3.29,6.85,6.85,0,0,0-.57,2.68,8.84,8.84,0,0,0,.85,2.93,15.86,15.86,0,0,1,1.29,3.64c0.22,1.19-.2,4.6-0.71,7.2-0.54,2.77-1.05,5.93-1.11,6.91a27.61,27.61,0,0,0,.07,3.57,30.53,30.53,0,0,0,.61,3.53,31,31,0,0,0,1.12,3.43c0.4,1,1,2.6,1.22,3.58s0.86,4.08,1.32,6.91a31,31,0,0,0,1.53,6.22,11.86,11.86,0,0,0,1.93,2.41c0.76,0.69,3.27,3.41,5.71,6.2A49.11,49.11,0,0,0,78.87,154a12.2,12.2,0,0,0,2.7,1.12c0.42,0.11,1,.27,1.53.45s1.34,0.44,1.85.64c0.94,0.36,2.46,1.06,3.41,1.55A18.49,18.49,0,0,0,91.59,159a18.81,18.81,0,0,0,3.45.46,21.31,21.31,0,0,1,4,.54,24.47,24.47,0,0,1,3.91,1.44,14.33,14.33,0,0,0,3.44,1.08,38,38,0,0,0,7.3-.7c3.14-.53,7.35-1.42,9.39-2a63.07,63.07,0,0,0,6.86-2.34,16.48,16.48,0,0,0,4-2.33,11,11,0,0,0,1.69-2.55,10.76,10.76,0,0,1,5.19-5.35,13.64,13.64,0,0,0,2.63-1.78,13.05,13.05,0,0,0,2-2.43,15.77,15.77,0,0,0,1.28-2.94,16.74,16.74,0,0,0,.52-3.24c0-1,.33-3.41.64-5.29a38.94,38.94,0,0,1,1.18-5.2c0.34-1,1-2.53,1.47-3.51a15.26,15.26,0,0,0,1.08-3.27,15,15,0,0,0,.11-3.42,21.36,21.36,0,0,1,.62-7.83,24.06,24.06,0,0,0,.61-3.59,26.54,26.54,0,0,0-.05-3.78,29.75,29.75,0,0,0-.69-3.82,30.72,30.72,0,0,0-1.31-3.71,17.06,17.06,0,0,1-1.15-4.22,18.64,18.64,0,0,1,.16-4.49,20.79,20.79,0,0,0,.26-3.83,13.53,13.53,0,0,0-.63-3.2A12.58,12.58,0,0,0,148.1,75a14.16,14.16,0,0,0-2.29-2.25c-0.83-.62-2.08-1.67-2.79-2.34a31.32,31.32,0,0,1-2.33-2.52,22,22,0,0,1-1.89-2.85C138.64,64.77,138.46,64.39,138.27,64Z" fill="#231f20"/><path d="M139.18,63.58c0.17,0.38.34,0.74,0.49,1a21.17,21.17,0,0,0,1.79,2.7,30.22,30.22,0,0,0,2.24,2.42c0.68,0.64,1.89,1.66,2.7,2.27a15.13,15.13,0,0,1,2.49,2.44,13.59,13.59,0,0,1,1.61,3,14.54,14.54,0,0,1,.69,3.49,21.71,21.71,0,0,1-.28,4.06,17.8,17.8,0,0,0-.15,4.21,16.16,16.16,0,0,0,1.07,3.93,31.47,31.47,0,0,1,1.36,3.86,30.44,30.44,0,0,1,.72,4,27.36,27.36,0,0,1,.05,4,24.92,24.92,0,0,1-.64,3.78,20.38,20.38,0,0,0-.59,7.47,16,16,0,0,1-.12,3.7,16.22,16.22,0,0,1-1.16,3.53c-0.46.95-1.11,2.48-1.43,3.4a38.74,38.74,0,0,0-1.14,5c-0.3,1.84-.58,4.17-0.63,5.17a17.68,17.68,0,0,1-.56,3.48,16.7,16.7,0,0,1-1.38,3.17,14,14,0,0,1-2.15,2.66,14.65,14.65,0,0,1-2.87,1.94,9.76,9.76,0,0,0-4.72,4.87,12.05,12.05,0,0,1-1.88,2.83,17.13,17.13,0,0,1-4.38,2.56,64.65,64.65,0,0,1-7,2.39c-2.07.56-6.33,1.45-9.49,2a38.14,38.14,0,0,1-7.61.71,15.35,15.35,0,0,1-3.73-1.17A23.28,23.28,0,0,0,98.78,161a20.51,20.51,0,0,0-3.76-.51,19.72,19.72,0,0,1-3.67-.49,19.46,19.46,0,0,1-3.45-1.31c-0.92-.47-2.41-1.15-3.31-1.5-0.49-.19-1.15-0.42-1.79-0.62,0.47,0.53.95,1,1.41,1.55a32.06,32.06,0,0,0,3.85,3.73,13.25,13.25,0,0,0,3,1.23c0.89,0.23,2.36.7,3.26,1.05s2.39,1,3.31,1.5a19.46,19.46,0,0,0,3.45,1.31,19.72,19.72,0,0,0,3.67.49,20.51,20.51,0,0,1,3.76.51,23.28,23.28,0,0,1,3.72,1.36,15.35,15.35,0,0,0,3.73,1.17,38.14,38.14,0,0,0,7.61-.71c3.15-.54,7.42-1.43,9.49-2a64.65,64.65,0,0,0,7-2.39,17.13,17.13,0,0,0,4.38-2.56,12.05,12.05,0,0,0,1.88-2.83,9.76,9.76,0,0,1,4.72-4.87,14.65,14.65,0,0,0,2.87-1.94,14,14,0,0,0,2.15-2.66,16.7,16.7,0,0,0,1.38-3.17,17.68,17.68,0,0,0,.56-3.48c0-1,.33-3.32.63-5.17a38.74,38.74,0,0,1,1.14-5c0.32-.92,1-2.45,1.43-3.4a16.22,16.22,0,0,0,1.16-3.53,16,16,0,0,0,.12-3.7,20.38,20.38,0,0,1,.59-7.47,24.92,24.92,0,0,0,.64-3.78,27.36,27.36,0,0,0-.05-4,30.44,30.44,0,0,0-.72-4,31.47,31.47,0,0,0-1.36-3.86,16.16,16.16,0,0,1-1.07-3.93,17.8,17.8,0,0,1,.15-4.21,21.71,21.71,0,0,0,.28-4.06,14.54,14.54,0,0,0-.69-3.49,13.59,13.59,0,0,0-1.61-3,15.13,15.13,0,0,0-2.49-2.44c-0.8-.6-2-1.62-2.7-2.27a30.22,30.22,0,0,1-2.24-2.42,21.17,21.17,0,0,1-1.79-2.7,24,24,0,0,1-1.33-3.1,6.9,6.9,0,0,0-1.68-2.61,6.74,6.74,0,0,0-2.82-1.23c-0.88-.14-2.22-0.42-3.08-0.64l-0.15,0C140,63.84,139.59,63.71,139.18,63.58Z" fill="#231f20"/></svg>