<svg xmlns="http://www.w3.org/2000/svg" width="200" height="200" viewBox="0 0 200 200"><title>_</title><path d="M94.8,116.7a40.53,40.53,0,0,1,.42,4.08,40.06,40.06,0,0,1-.08,4.08,25.65,25.65,0,0,0,0,3.78,27.08,27.08,0,0,0,.72,3.78c0.31,1.12.89,3.82,1.28,6a22.72,22.72,0,0,1,.32,6.29A18.19,18.19,0,0,1,96,149a15.11,15.11,0,0,0-1.27,3.72,14,14,0,0,0,0,3.81,4,4,0,0,0,1.17,2.25,4.29,4.29,0,0,0,2.6.2,37.78,37.78,0,0,1,4.32-.66l0.62,0c1.56,0,4.75,0,7.58.18,3.29,0.17,7.57.23,9.55,0.15a11.31,11.31,0,0,0,3.92-.72,2.55,2.55,0,0,0,.53-1.5,18.53,18.53,0,0,1,.35-3.25,26.09,26.09,0,0,1,1.06-3.45,28,28,0,0,0,1-3.27,25.4,25.4,0,0,0,.48-3.27,11.54,11.54,0,0,0-.32-3.11,15.19,15.19,0,0,0-1.41-3.18A13,13,0,0,1,124.7,133a10.7,10.7,0,0,1,.15-3.86c0.2-.79.62-4.37,0.92-8.43a83.21,83.21,0,0,0,.32-8.42,19.65,19.65,0,0,0-.71-3.24,17.92,17.92,0,0,1-.73-3.68,36.26,36.26,0,0,1,1.14-7.19A44.29,44.29,0,0,0,127,91.56a13.46,13.46,0,0,0-.52-3.15,21.53,21.53,0,0,1-.75-3.64,92.57,92.57,0,0,1,.91-10.55,67.3,67.3,0,0,0,.75-10,12.85,12.85,0,0,0-1.2-3.14,12.14,12.14,0,0,1-1.31-3.85c0-.13,0-0.27,0-0.41a11.44,11.44,0,0,1,.42-3.55,4.11,4.11,0,0,0,.08-2.21,2.87,2.87,0,0,0-1.5-1.07,10.57,10.57,0,0,0-2.83-.37,10.27,10.27,0,0,0-2.75.62,12.47,12.47,0,0,1-3.36.78,11.85,11.85,0,0,1-3.38-.39,10.85,10.85,0,0,0-2.69-.34,10.2,10.2,0,0,0-2.62.56,4.46,4.46,0,0,0-1.69,1.23,4.11,4.11,0,0,0-.48,2,7.71,7.71,0,0,1-.73,3.31A10.07,10.07,0,0,1,101,60.07c-0.73.58-2.78,2.6-4.49,4.41a67.11,67.11,0,0,1-5.28,5.07,46.3,46.3,0,0,1-6.32,3.79,49.42,49.42,0,0,1-5.81,2.57c-0.83.23-2.1,0.51-2.84,0.63a20.32,20.32,0,0,1-2.53.24,2.29,2.29,0,0,0-1.14.38,3.28,3.28,0,0,0-.67,1.31,12.25,12.25,0,0,0-.26,2.28,14.8,14.8,0,0,0,.26,2.45A10.24,10.24,0,0,1,72,86.29a11.77,11.77,0,0,1-1,3A12.86,12.86,0,0,0,70,92a14.27,14.27,0,0,0-.23,2.89,2.51,2.51,0,0,0,.5,1.39,18.78,18.78,0,0,0,5.27-.68c1.37-.32,2.83-0.64,4.11-0.89,0.9-.18,2.09-0.4,2.67-0.44,0.21,0,.52,0,0.9,0,1.47,0,4,.11,6.07.25,0.59,0,5.8.43,6.78,2,0.58,0.93.35,3.7,0.05,5.86-0.11.78-.24,1.59-0.39,2.42a75.15,75.15,0,0,0-1.22,8.17A27.12,27.12,0,0,0,94.8,116.7Z" fill="#231f20"/><path d="M103.45,163.6a4.92,4.92,0,0,0,1.61,2.91,5.17,5.17,0,0,0,3.37.34,36.72,36.72,0,0,1,4.19-.64c1.13-.09,4.77,0,8.07.15s7.65,0.24,9.65.15,4-.53,4.52-1a3.45,3.45,0,0,0,.88-2.26,17.62,17.62,0,0,1,.33-3,24.89,24.89,0,0,1,1-3.29,28.73,28.73,0,0,0,1.07-3.41,26.22,26.22,0,0,0,.5-3.43,12.57,12.57,0,0,0-.36-3.44,16.13,16.13,0,0,0-1.52-3.44,12,12,0,0,1-1.36-3.44,9.72,9.72,0,0,1,.13-3.44,86.21,86.21,0,0,0,.95-8.61,83.53,83.53,0,0,0,.32-8.6,20.58,20.58,0,0,0-.75-3.44,17.09,17.09,0,0,1-.68-3.44,36,36,0,0,1,1.12-6.88,44.12,44.12,0,0,0,1.21-6.89,14.47,14.47,0,0,0-.57-3.44,20.68,20.68,0,0,1-.71-3.44,93.45,93.45,0,0,1,.91-10.32c0.59-4.73.93-9.38,0.74-10.32a13.87,13.87,0,0,0-1.31-3.44A11.17,11.17,0,0,1,135.57,64a10.22,10.22,0,0,1,.35-3.55,4.91,4.91,0,0,0,0-2.93A3.77,3.77,0,0,0,133.82,56a11.5,11.5,0,0,0-3.16-.41,11.17,11.17,0,0,0-3.08.69c-0.22.09-.47,0.17-0.75,0.25s-0.66.18-1,.25c0,0.12,0,.24,0,0.35A11.17,11.17,0,0,0,127,60.57,13.87,13.87,0,0,1,128.35,64c0.19,0.95-.15,5.59-0.74,10.32a93.45,93.45,0,0,0-.91,10.32,20.68,20.68,0,0,0,.71,3.44,14.47,14.47,0,0,1,.57,3.44,44.12,44.12,0,0,1-1.21,6.89,36,36,0,0,0-1.12,6.88,17.09,17.09,0,0,0,.68,3.44,20.58,20.58,0,0,1,.75,3.44,83.53,83.53,0,0,1-.32,8.6,86.21,86.21,0,0,1-.95,8.61,9.72,9.72,0,0,0-.13,3.44,12,12,0,0,0,1.36,3.44,16.13,16.13,0,0,1,1.52,3.44,12.57,12.57,0,0,1,.36,3.44,26.22,26.22,0,0,1-.5,3.43,28.73,28.73,0,0,1-1.07,3.41,24.89,24.89,0,0,0-1,3.29,17.62,17.62,0,0,0-.33,3,3.45,3.45,0,0,1-.88,2.26c-0.48.44-2.52,0.87-4.52,1s-6.35,0-9.65-.15c-2.87-.15-6-0.22-7.5-0.17,0,0.08,0,.16,0,0.23,0,0.23-.07.5-0.09,0.78A15.3,15.3,0,0,0,103.45,163.6Z" fill="#231f20"/><path d="M95.22,97c-0.41-.66-3.11-1.35-6-1.55s-6-.29-6.82-0.23c-0.43,0-1.37.19-2.55,0.43l-0.08.17c-0.13.26-.27,0.6-0.41,0.95a13.44,13.44,0,0,0-.61,1.92,15.27,15.27,0,0,0-.25,3.13,3.08,3.08,0,0,0,1,2.23c0.51,0.33,3.21.07,6-.59s5.76-1.24,6.63-1.31c0.35,0,1.08,0,2,0l1,0C95.48,99.63,95.53,97.5,95.22,97Z" fill="#231f20"/></svg>