<svg xmlns="http://www.w3.org/2000/svg" width="74.46" height="200" viewBox="0 0 74.46 200"><title>_</title><path d="M26.63 140a14.78 14.78 0 0 0-1.22 3.57 13.58 13.58 0 0 0 0 3.64 3.68 3.68 0 0 0 .95 1.91 4 4 0 0 0 2.22.13 38.43 38.43 0 0 1 4.39-.67h.65c1.58 0 4.79 0 7.62.18 3.27.17 7.53.24 9.5.15a11.81 11.81 0 0 0 3.66-.64 2.54 2.54 0 0 0 .31-1.09 19.13 19.13 0 0 1 .36-3.36 26.68 26.68 0 0 1 1.08-3.53 27.34 27.34 0 0 0 1-3.2 24.75 24.75 0 0 0 .47-3.19 11.11 11.11 0 0 0-.31-2.95 14.82 14.82 0 0 0-1.36-3 13.54 13.54 0 0 1-1.56-4 11.1 11.1 0 0 1 .16-4.08c.19-.75.61-4.36.9-8.35s.41-7.58.32-8.33a19.05 19.05 0 0 0-.69-3.14 18.51 18.51 0 0 1-.75-3.8 35.93 35.93 0 0 1 1.15-7.33 44.35 44.35 0 0 0 1.17-6.52 13.06 13.06 0 0 0-.5-3 22.16 22.16 0 0 1-.78-3.74A94.3 94.3 0 0 1 56.34 65a68.26 68.26 0 0 0 .76-9.85 12.44 12.44 0 0 0-1.15-3 12.54 12.54 0 0 1-1.37-4v-.45a12 12 0 0 1 .42-3.75 3.84 3.84 0 0 0 .1-1.85 2.54 2.54 0 0 0-1.19-.8 10 10 0 0 0-2.67-.34 9.82 9.82 0 0 0-2.58.58 13 13 0 0 1-3.52.82 12.43 12.43 0 0 1-3.55-.41 10.07 10.07 0 0 0-2.59-.33 9.76 9.76 0 0 0-2.46.52 4.06 4.06 0 0 0-1.46 1 3.69 3.69 0 0 0-.39 1.65 8.15 8.15 0 0 1-.69 3.6 10.47 10.47 0 0 1-2.47 2.91c-.71.57-2.74 2.56-4.43 4.36a67.64 67.64 0 0 1-5.33 5.12 46.8 46.8 0 0 1-6.41 3.85 49.17 49.17 0 0 1-5.9 2.61c-.85.23-2.15.52-2.89.64a20.93 20.93 0 0 1-2.6.24 2 2 0 0 0-.82.26 3 3 0 0 0-.51 1 11.87 11.87 0 0 0-.25 2.17 14.43 14.43 0 0 0 .25 2.35 10.65 10.65 0 0 1 .09 3.27 12.16 12.16 0 0 1-1.12 3.23 12.46 12.46 0 0 0-.88 2.5 13.87 13.87 0 0 0-.22 2.76 2.25 2.25 0 0 0 .27.94 21.63 21.63 0 0 0 4.88-.69c1.34-.32 2.83-.64 4.12-.91s2.22-.4 2.72-.44h.94c1.39 0 3.84.1 6.1.25 1.41.09 6.11.54 7.17 2.25.2.32.79 1.28.12 6.19-.11.79-.24 1.61-.4 2.44a76.42 76.42 0 0 0-1.21 8.08 26.42 26.42 0 0 0 .28 3.7 41.09 41.09 0 0 1 .42 4.14 40.67 40.67 0 0 1-.09 4.14 25 25 0 0 0 0 3.69 26.46 26.46 0 0 0 .7 3.7c.32 1.13.9 3.86 1.29 6.08a22.93 22.93 0 0 1 .32 6.48 18.77 18.77 0 0 1-1.51 4.3z"/><path d="M35.28 157.36a5.17 5.17 0 0 0 3.37.34 36.72 36.72 0 0 1 4.19-.64c1.13-.09 4.77 0 8.07.15s7.65.24 9.65.15 4-.53 4.52-1a3.45 3.45 0 0 0 .88-2.26 17.62 17.62 0 0 1 .33-3 24.89 24.89 0 0 1 1-3.29 28.73 28.73 0 0 0 1.07-3.41 26.22 26.22 0 0 0 .5-3.43 12.57 12.57 0 0 0-.36-3.44 16.13 16.13 0 0 0-1.5-3.46 12 12 0 0 1-1.36-3.44 9.72 9.72 0 0 1 .13-3.44 86.21 86.21 0 0 0 .95-8.61A83.53 83.53 0 0 0 67 110a20.58 20.58 0 0 0-.75-3.44 17.09 17.09 0 0 1-.68-3.44 36 36 0 0 1 1.12-6.88 44.12 44.12 0 0 0 1.21-6.89 14.47 14.47 0 0 0-.57-3.44 20.68 20.68 0 0 1-.71-3.44 93.45 93.45 0 0 1 .91-10.32c.59-4.73.93-9.38.74-10.32A13.87 13.87 0 0 0 67 58.36a11.17 11.17 0 0 1-1.18-3.48 10.22 10.22 0 0 1 .35-3.55 4.91 4.91 0 0 0 0-2.93A3.77 3.77 0 0 0 64 46.8a11.5 11.5 0 0 0-3.16-.41 11.17 11.17 0 0 0-3.08.69c-.22.09-.47.17-.75.25s-.66.18-1 .25v.35a11.17 11.17 0 0 0 1.18 3.48 13.87 13.87 0 0 1 1.31 3.44c.19.95-.15 5.59-.74 10.32a93.45 93.45 0 0 0-.91 10.32 20.68 20.68 0 0 0 .71 3.44 14.47 14.47 0 0 1 .57 3.44 44.12 44.12 0 0 1-1.13 6.9 36 36 0 0 0-1.12 6.88 17.09 17.09 0 0 0 .68 3.44 20.58 20.58 0 0 1 .75 3.44 83.53 83.53 0 0 1-.32 8.6 86.21 86.21 0 0 1-.95 8.61 9.72 9.72 0 0 0-.13 3.44 12 12 0 0 0 1.36 3.44 16.13 16.13 0 0 1 1.52 3.44 12.57 12.57 0 0 1 .36 3.44 26.22 26.22 0 0 1-.5 3.43 28.73 28.73 0 0 1-1.07 3.41 24.89 24.89 0 0 0-1 3.29 17.62 17.62 0 0 0-.33 3 3.45 3.45 0 0 1-.88 2.26c-.48.44-2.52.87-4.52 1s-6.35 0-9.65-.15c-2.87-.15-6-.22-7.5-.17v.23c0 .23-.07.5-.09.78a15.3 15.3 0 0 0 .11 3.36 4.92 4.92 0 0 0 1.56 2.92zM25.44 87.83c-.41-.66-3.11-1.35-6-1.55s-6-.29-6.82-.23c-.43 0-1.37.19-2.55.43l-.07.18c-.13.26-.27.6-.41.95A13.44 13.44 0 0 0 9 89.53a15.27 15.27 0 0 0-.25 3.13 3.08 3.08 0 0 0 1 2.23c.51.33 3.21.07 6-.59s5.76-1.24 6.63-1.31h3c.32-2.51.38-4.65.06-5.16z"/></svg>