<svg xmlns="http://www.w3.org/2000/svg" width="112.24" height="200" viewBox="0 0 112.24 200"><title>_</title><path d="M85.53 52a16.39 16.39 0 0 0-1.65-2 44.58 44.58 0 0 0-6.2-3.84 40.89 40.89 0 0 0-6.74-3 19 19 0 0 0-3.73-.26 31.51 31.51 0 0 1-4.5-.17 31.41 31.41 0 0 1-4.4-1 10.84 10.84 0 0 0-3.31-.38 7.93 7.93 0 0 0-2.74.92A29.5 29.5 0 0 1 49 44a23.29 23.29 0 0 1-3.34 1.07 14.88 14.88 0 0 1-3.66.23 19.08 19.08 0 0 1-3.79-.77 8.25 8.25 0 0 0-2.93-.27 10.81 10.81 0 0 0-3.11 1.15 37.19 37.19 0 0 0-3.34 2.27c-.74.58-4.32 4.2-8.28 8.46l-.72.77a79.54 79.54 0 0 0-7.31 8.66 58.74 58.74 0 0 0-1.34 9.62 42.2 42.2 0 0 0-.08 8.44 5.37 5.37 0 0 0 1.7 1c.92.29 2.42.69 3.34.89s2.23.42 3.2.55h.22a13.92 13.92 0 0 0 3.19-.07A16.09 16.09 0 0 0 26 85a16.41 16.41 0 0 1 4-1.17 15.11 15.11 0 0 1 4.12.17 2.58 2.58 0 0 0 1.31-.08 3.92 3.92 0 0 0 .26-1.7 18.36 18.36 0 0 1 .31-4.29 15.78 15.78 0 0 1 1.46-3.87c.52-.92 1.9-3 3.07-4.65s3-3.55 4.29-4.08a11.15 11.15 0 0 1 4.27-.63 33.28 33.28 0 0 0 3.5 0 16.32 16.32 0 0 0 2.61-.42 6 6 0 0 1 3.16 0 5.87 5.87 0 0 1 2.52 1.88c.45.6 1.77 2.66 3 4.67.29.48.58 1 .86 1.46a31.28 31.28 0 0 1 1.9 3.71c.26.79.67 2.27.91 3.3a10.39 10.39 0 0 1 .05 4.05 9.8 9.8 0 0 1-1.83 3.56 35.35 35.35 0 0 1-2.66 2.75c-.8.72-2.2 1.85-3.13 2.51a32.29 32.29 0 0 0-2.88 2.38 33.36 33.36 0 0 0-2.54 2.8 13.07 13.07 0 0 1-3.19 2.82 10.52 10.52 0 0 1-3.9 1.16 19.18 19.18 0 0 0-3 .49 15.35 15.35 0 0 0-2.58 1 9.64 9.64 0 0 0-2 1.57 12.28 12.28 0 0 0-1.58 2.37 18.43 18.43 0 0 1-2 3.13c-.86 1-5.21 4.24-7.92 6.15a65.07 65.07 0 0 0-7.45 5.82c-.54.68-3.25 4.78-6.42 9.81l-.61 1a77.72 77.72 0 0 0-5.7 10.14 18.06 18.06 0 0 0-.44 4.11 6.29 6.29 0 0 0 .77 2.84 3.51 3.51 0 0 0 2 .94 29.72 29.72 0 0 0 3.68.1c.47 0 1.07-.08 1.67-.15s1.43-.2 1.92-.3a23.9 23.9 0 0 1 3.99-.35 24.35 24.35 0 0 1 4.13.44 14 14 0 0 0 3.36.2 15.39 15.39 0 0 0 3.39-.82 13.4 13.4 0 0 1 4.23-.81h.16a13.57 13.57 0 0 1 4.37 1 25 25 0 0 0 3.54 1.2 21.49 21.49 0 0 0 3.5.47 18.45 18.45 0 0 0 3.47-.29 21.8 21.8 0 0 0 3.51-1.09 13 13 0 0 1 4.37-.92 13.16 13.16 0 0 1 4.42 1 8.72 8.72 0 0 0 3.13.6 9.53 9.53 0 0 0 3.17-.94 22.55 22.55 0 0 1 4.13-1.65 19.63 19.63 0 0 1 4.2-.53 27.88 27.88 0 0 1 4.08.41 30.39 30.39 0 0 1 4 1.13 17.28 17.28 0 0 0 3.41.81 15.28 15.28 0 0 0 3.3-.1 4.09 4.09 0 0 0 1.78-.76 2.33 2.33 0 0 0 .27-1.32c-.11-.91-.23-3.12-.27-4.95a25.79 25.79 0 0 1 .38-5.26 21.77 21.77 0 0 1 1.29-3.56 8.19 8.19 0 0 0 .69-2.6 4.82 4.82 0 0 0-.1-.92 6.61 6.61 0 0 0-.41-1.47 9.65 9.65 0 0 0-1.46-2.16 8.81 8.81 0 0 0-2.05-1.44 9.7 9.7 0 0 0-2.45-.69 10.15 10.15 0 0 0-2.59.17c-.91.21-2.39.46-3.31.56s-2.34.17-3.31.19c-.93 0-2.41-.09-3.33-.2s-2.4-.37-3.32-.59a11.23 11.23 0 0 0-2.7-.23 12.13 12.13 0 0 0-2.73.6l-.26.08a13.88 13.88 0 0 1-3.35.65 13.3 13.3 0 0 1-3.63-.47 11.81 11.81 0 0 0-2.7-.38 11.24 11.24 0 0 0-2.7.47 12.72 12.72 0 0 1-3.6.57 11.76 11.76 0 0 1-3.52-.71 5.54 5.54 0 0 1-2.58-1.91 2.59 2.59 0 0 1 1-3.13 14.59 14.59 0 0 1 2.35-1.38 26.21 26.21 0 0 1 3-1.08 20 20 0 0 0 2.76-1.08 21.27 21.27 0 0 0 2.58-1.6 16.79 16.79 0 0 1 3.31-1.83 19.83 19.83 0 0 1 3.83-1 11.64 11.64 0 0 0 2.88-.84 8.73 8.73 0 0 0 2.1-1.58 21.85 21.85 0 0 1 2.52-2.33 42.66 42.66 0 0 1 4.13-2.56c1.42-.78 3.13-1.82 3.74-2.27a21.26 21.26 0 0 0 2.09-1.78c.34-.35 2.58-3.79 5.85-9.41l.15-.22c3.23-5.55 5.17-9.3 5.3-9.75a54.81 54.81 0 0 0 .7-6.63A59.72 59.72 0 0 0 96 68a25.06 25.06 0 0 0-.87-3.8 16.23 16.23 0 0 0-1.57-3.2 13.29 13.29 0 0 0-2.26-2.42 27.15 27.15 0 0 1-2.93-2.74A27.11 27.11 0 0 1 86 52.63c-.15-.2-.3-.42-.47-.63z"/><path d="M33.85 85.48a13.62 13.62 0 0 0-3.64-.15 14.92 14.92 0 0 0-3.61 1 17.41 17.41 0 0 1-3.6 1.14 15.2 15.2 0 0 1-3.6.08h-.23v1a7.56 7.56 0 0 0 .37 2.88A6.19 6.19 0 0 0 22.07 93c.94.3 2.51.71 3.48.92s2.57.48 3.56.6a15.2 15.2 0 0 0 3.6-.08 17.41 17.41 0 0 0 3.6-1.11 14.92 14.92 0 0 1 3.61-1 13.62 13.62 0 0 1 3.64.15 3.36 3.36 0 0 0 2.67-.48 4.37 4.37 0 0 0 .7-2.89 17 17 0 0 1 .24-3.88 14.27 14.27 0 0 1 1.3-3.43c.5-.88 1.85-2.92 3-4.52a12.26 12.26 0 0 1 3.64-3.56 9.82 9.82 0 0 1 3.61-.52 35 35 0 0 0 3.64 0h.07c.31 0 .67-.06 1-.11-.27-.47-.55-1-.84-1.42-1.18-1.94-2.5-4-2.92-4.55a4.43 4.43 0 0 0-1.77-1.42 4.62 4.62 0 0 0-2.28 0 17.6 17.6 0 0 1-2.92.48 34.63 34.63 0 0 1-3.7 0 9.82 9.82 0 0 0-3.61.52 12.26 12.26 0 0 0-3.64 3.56c-1.14 1.61-2.49 3.64-3 4.52a14.27 14.27 0 0 0-1.3 3.43 17 17 0 0 0-.24 3.88 4.37 4.37 0 0 1-.7 2.89 3.36 3.36 0 0 1-2.66.5zM106.69 132.95a10.18 10.18 0 0 0-2.49-1.75 11 11 0 0 0-2.93-.82 8 8 0 0 0-1 0c-.33 0-.67 0-1 .07a6.49 6.49 0 0 1 .12 1.22 9.59 9.59 0 0 1-.83 3.2 20.4 20.4 0 0 0-1.19 3.27A24.59 24.59 0 0 0 97 143c0 1.78.15 3.94.26 4.8a3.64 3.64 0 0 1-.63 2.5 5.31 5.31 0 0 1-2.63 1.23 16.47 16.47 0 0 1-3.71.11 18.83 18.83 0 0 1-3.77-.9 28.75 28.75 0 0 0-3.81-1.06 26.07 26.07 0 0 0-3.81-.38 17.38 17.38 0 0 0-3.81.48 21.14 21.14 0 0 0-3.8 1.52 10.86 10.86 0 0 1-3.8 1.12 10.15 10.15 0 0 1-3.81-.73 11.63 11.63 0 0 0-3.81-.83 11.57 11.57 0 0 0-3.81.8 23.36 23.36 0 0 1-3.81 1.18 20.55 20.55 0 0 1-3.8.32 23.08 23.08 0 0 1-3.8-.51 26.48 26.48 0 0 1-3.81-1.29 12.05 12.05 0 0 0-3.81-.89 11.71 11.71 0 0 0-3.81.7 16.71 16.71 0 0 1-3.81.92 15.42 15.42 0 0 1-3.8-.23 22.59 22.59 0 0 0-3.8-.41 22.34 22.34 0 0 0-3.79.38c-.55.11-1.3.23-2 .32 0 .35 0 .69-.06 1s0 .52 0 .74a7.51 7.51 0 0 0 1.04 3.75 5 5 0 0 0 3 1.51 31.47 31.47 0 0 0 3.91.11 30.1 30.1 0 0 0 3.82-.48 22.34 22.34 0 0 1 3.79-.38 22.59 22.59 0 0 1 3.8.41 15.42 15.42 0 0 0 3.8.23 16.71 16.71 0 0 0 3.81-.92 11.71 11.71 0 0 1 3.81-.7 12.05 12.05 0 0 1 3.81.89 26.48 26.48 0 0 0 3.81 1.29 23.08 23.08 0 0 0 3.8.51 20.55 20.55 0 0 0 3.8-.32 23.36 23.36 0 0 0 3.81-1.18 11.57 11.57 0 0 1 3.81-.8 11.63 11.63 0 0 1 3.81.83 10.15 10.15 0 0 0 3.81.73 10.86 10.86 0 0 0 3.8-1.12 21.14 21.14 0 0 1 3.8-1.52 17.38 17.38 0 0 1 3.81-.48 26.07 26.07 0 0 1 3.81.38 28.75 28.75 0 0 1 3.81 1.06 18.83 18.83 0 0 0 3.77.9 16.47 16.47 0 0 0 3.71-.11 5.31 5.31 0 0 0 2.66-1.25 3.64 3.64 0 0 0 .63-2.5c-.11-.86-.22-3-.26-4.8a24.59 24.59 0 0 1 .33-4.87 20.4 20.4 0 0 1 1.19-3.27 9.59 9.59 0 0 0 .83-3.2 8.15 8.15 0 0 0-.64-3.07 11 11 0 0 0-1.76-2.57zM106.26 70.72a17.53 17.53 0 0 0-1.75-3.61 14.64 14.64 0 0 0-2.58-2.76 25.38 25.38 0 0 1-2.74-2.56 25.38 25.38 0 0 1-2.24-3 17.85 17.85 0 0 0-2.33-2.91 41.66 41.66 0 0 0-6-3.8l-.52-.28-1.35-.7c.19.27.36.52.5.75a25.38 25.38 0 0 0 2.24 3 25.38 25.38 0 0 0 2.74 2.56 14.64 14.64 0 0 1 2.58 2.76 17.53 17.53 0 0 1 1.75 3.61 26.57 26.57 0 0 1 .94 4.08 59.93 59.93 0 0 1 0 7.55 53.66 53.66 0 0 1-.72 6.95 110.1 110.1 0 0 1-5.45 10.1l-.13.22a111.3 111.3 0 0 1-6.08 9.7 22.81 22.81 0 0 1-2.25 1.95c-.66.49-2.42 1.56-3.91 2.37a41.21 41.21 0 0 0-3.96 2.43 20.55 20.55 0 0 0-2.32 2.15 10.1 10.1 0 0 1-2.55 1.92 13.07 13.07 0 0 1-3.35 1 18.31 18.31 0 0 0-3.48.88 15.33 15.33 0 0 0-3 1.63 22.85 22.85 0 0 1-2.81 1.73 21.54 21.54 0 0 1-3 1.18 24.46 24.46 0 0 0-2.76 1 13.11 13.11 0 0 0-2.06 1.2 1.18 1.18 0 0 0-.55 1.27 4.05 4.05 0 0 0 1.78 1.19 10.38 10.38 0 0 0 3 .6 11.19 11.19 0 0 0 3.1-.5 12.72 12.72 0 0 1 3.15-.55 12.51 12.51 0 0 1 3.15.44 11.76 11.76 0 0 0 3.15.41 12.21 12.21 0 0 0 2.87-.55l.71-.49a15 15 0 0 1 2-1.21c.33-.16.65-.32.92-.42a18.31 18.31 0 0 1 3.48-.88 13.07 13.07 0 0 0 3.35-1 10.1 10.1 0 0 0 2.55-1.92 20.55 20.55 0 0 1 2.32-2.15 41.21 41.21 0 0 1 3.94-2.43c1.49-.82 3.25-1.89 3.91-2.37a22.81 22.81 0 0 0 2.25-1.95 111.3 111.3 0 0 0 6.08-9.7l.13-.22a110.1 110.1 0 0 0 5.45-10.1 53.66 53.66 0 0 0 .72-6.95 59.93 59.93 0 0 0 0-7.55 26.57 26.57 0 0 0-.87-4.07z"/></svg>