<svg xmlns="http://www.w3.org/2000/svg" width="109.54" height="200" viewBox="0 0 109.54 200"><title>_</title><path d="M.89 125.56a22 22 0 0 0 .83 2.77 12.28 12.28 0 0 0 1.46 2.5 19.94 19.94 0 0 0 2.51 2.51 25.93 25.93 0 0 1 3.13 3.13 24.4 24.4 0 0 1 2.36 3.66 14.38 14.38 0 0 0 2 2.84 14.49 14.49 0 0 0 2.82 2.09c.95.52 2.52 1.28 3.5 1.7l1.12.44c.89.34 1.85.67 2.5.86 1.11.34 3.88 1.47 6.18 2.53a36.64 36.64 0 0 0 5.92 2.19 17.6 17.6 0 0 0 4.05.21c1-.09 6-1.13 11.77-2.54l16.41-4a101.87 101.87 0 0 0 11.2-3.2 23.28 23.28 0 0 0 3.16-2.07 11.6 11.6 0 0 0 2.2-2.54 12.41 12.41 0 0 0 1.18-3.25 29.3 29.3 0 0 1 1.21-4.29 30.7 30.7 0 0 1 2-4.05 11.5 11.5 0 0 0 1.6-7.12c-.1-1.23-.19-4-.18-6.22a29.77 29.77 0 0 0-.39-5.26 12.27 12.27 0 0 0-1.21-2.79 17.79 17.79 0 0 0-2-2.47 63.93 63.93 0 0 0-5.83-4.31c-5.62-3.8-5.43-5.27-5.37-5.75.17-1.32 1.69-2.48 3.12-3a16.13 16.13 0 0 0 3.12-1.7 23 23 0 0 0 3.35-4.89A34.32 34.32 0 0 0 87.17 78a16.42 16.42 0 0 0 .28-3 23.15 23.15 0 0 0-.31-3.15 20.16 20.16 0 0 0-.82-2.85 19.32 19.32 0 0 1-.91-3.44 21.25 21.25 0 0 1-.17-3.64A11.89 11.89 0 0 0 85 59a11 11 0 0 0-1.09-2.54c-.16-.25-.37-.55-.59-.86-.44-.62-.9-1.21-1.23-1.58A23 23 0 0 0 79.9 52a16 16 0 0 0-2.53-1.61 19.58 19.58 0 0 0-3.08-1.11A30 30 0 0 1 70.56 48a29.46 29.46 0 0 1-3.46-1.82 17.54 17.54 0 0 0-3.1-1.49 74.72 74.72 0 0 0-8.14-1.48 74.62 74.62 0 0 0-8.39-.83c-1 0-5.93.73-11.77 1.72h-.24c-5.74 1-10.66 2-11.48 2.23a34.27 34.27 0 0 0-3.43 1.42 12.08 12.08 0 0 0-2.68 1.92A12.48 12.48 0 0 0 16 52.48a19.14 19.14 0 0 1-2.32 3.63A18.77 18.77 0 0 1 10.46 59a10.19 10.19 0 0 0-2.27 2.3 35.75 35.75 0 0 0-2 7.58A30.25 30.25 0 0 0 5.56 75a2.47 2.47 0 0 0 1 0c1.08-.25 3.64-.64 5.7-.86l2-.19c1.92-.16 4-.27 5.39-.3a35.8 35.8 0 0 1 5.77.29 29.22 29.22 0 0 1 4 1.11 3.67 3.67 0 0 0 1.34.24 2.87 2.87 0 0 0 .07-.92 9.56 9.56 0 0 1 .4-3.76 6.41 6.41 0 0 1 2.2-2.76A18.65 18.65 0 0 1 36 66.46a16.08 16.08 0 0 1 2.68-.82c.61-.12 2.23-.56 3.54-1s3.69-1 5.11-1.31a19.41 19.41 0 0 1 4.14-.45 13.49 13.49 0 0 1 2.76.56 14.31 14.31 0 0 1 2.54 1.19 14.92 14.92 0 0 1 2.23 1.8 9.86 9.86 0 0 1 1.75 2.48 10.8 10.8 0 0 1 .68 2.2c.06.29.1.56.13.8a7.88 7.88 0 0 1-.5 3.41c-.51 1.24-3.57 4.58-5.11 6.17-2.14 2.21-4.92 4.92-5.88 5.63a9 9 0 0 1-3.94 1.53 12.16 12.16 0 0 1-4.46-.65 7.18 7.18 0 0 0-1.82-.39.55.55 0 0 0 0 .08c.09.71.42 2.4.73 3.69a16.3 16.3 0 0 1 .5 4.14 10.08 10.08 0 0 1-.8 2.86 4.37 4.37 0 0 0-.35 1.61 4.46 4.46 0 0 0 .54 1.57 3.3 3.3 0 0 0 1.08 1 4.31 4.31 0 0 0 1.73.17 17.91 17.91 0 0 1 3.33 0 21.49 21.49 0 0 1 2.39.41c.39.09.77.18 1.08.27a16.52 16.52 0 0 1 3.35 1.44 14.17 14.17 0 0 1 2.71 2.23 24.59 24.59 0 0 1 2.06 2.73c.14.23.3.5.47.8.46.81.94 1.74 1.24 2.42a12 12 0 0 1 .95 3.48 6.65 6.65 0 0 1-.63 3.17 24.16 24.16 0 0 1-1.28 2.1 20.67 20.67 0 0 1-1.49 1.85c-.31.34-1.25 1.54-2.09 2.72a20.5 20.5 0 0 1-2.92 3.32 18.55 18.55 0 0 1-3 1.91 9 9 0 0 1-3.47.9 5 5 0 0 1-3.08-1.28 9.14 9.14 0 0 0-1.35-1.07 5 5 0 0 0-.76-.23 16 16 0 0 0-1.87-.32c-.88-.1-3-.4-3.79-1.17a4.44 4.44 0 0 1-1.07-2.21 1.93 1.93 0 0 0-.29-.66 2.13 2.13 0 0 0-.68-.31 4.94 4.94 0 0 1-2.16-1.06A4.17 4.17 0 0 1 30 122c-.23-.93-.44-2.1-.61-3.3a12 12 0 0 0-.78-3.08c-.91 0-3.08.14-5.75.47a52.82 52.82 0 0 1-7.87.5 29.57 29.57 0 0 1-4-.75 31.28 31.28 0 0 0-3.56-.71 30.39 30.39 0 0 0-3.2-.18h-.37a5 5 0 0 0-2.13.55 2.85 2.85 0 0 0-.79 1.38c-.15.78-.33 2.1-.38 2.89s-.07 2.14 0 2.94a21.73 21.73 0 0 0 .33 2.85z"/><path d="M31.66 76.59a3.84 3.84 0 0 1-2.74-.14 27.49 27.49 0 0 0-3.73-1 35.16 35.16 0 0 0-5.47-.26c-1.42 0-3.5.15-5.3.3v.07c-.06.32-.11.64-.16 1-.52 3.21-.64 6-.26 6.47a3 3 0 0 0 2.64.47c1-.24 3.52-.61 5.53-.83s5.28-.44 7.27-.48a35.16 35.16 0 0 1 5.47.26 27.49 27.49 0 0 1 3.73 1 3.84 3.84 0 0 0 2.74.14 2.83 2.83 0 0 0 .68-2.36 8.31 8.31 0 0 1 .31-3.09A5 5 0 0 1 44 76a17.3 17.3 0 0 1 2.32-1.25 14.62 14.62 0 0 1 2.38-.73c.66-.13 2.32-.58 3.69-1s3.61-1 5-1.27c.52-.11 1.08-.2 1.61-.27l1-.12a9.34 9.34 0 0 0-.57-1.86 8.43 8.43 0 0 0-1.44-2A13.39 13.39 0 0 0 56 66a12.85 12.85 0 0 0-2.23-1 12.19 12.19 0 0 0-2.4-.49 18 18 0 0 0-3.72.42c-1.38.28-3.62.86-5 1.27s-3 .86-3.69 1a14.62 14.62 0 0 0-2.38.73 17.3 17.3 0 0 0-2.32 1.25 5 5 0 0 0-1.63 2 8.31 8.31 0 0 0-.31 3.09 2.83 2.83 0 0 1-.66 2.32zM86.44 58.67a13.31 13.31 0 0 1 .3 3.29 19.86 19.86 0 0 0 .15 3.34 17.93 17.93 0 0 0 .83 3.12 21.59 21.59 0 0 1 .89 3.15A24.65 24.65 0 0 1 89 75a18 18 0 0 1-.31 3.37A34.34 34.34 0 0 1 86 84.21a23 23 0 0 1-3.76 5.36 17.39 17.39 0 0 1-3.48 1.9c-1.12.44-2.1 1.27-2.18 1.84s2.05 2.51 4.72 4.32a63.5 63.5 0 0 1 6.06 4.5 19.35 19.35 0 0 1 2.16 2.72 13.67 13.67 0 0 1 1.39 3.21 30.53 30.53 0 0 1 .43 5.64c0 2.16.08 4.9.18 6.09a13 13 0 0 1-1.87 8 29 29 0 0 0-1.87 3.81 27.61 27.61 0 0 0-1.13 4 13.8 13.8 0 0 1-1.36 3.73 13.05 13.05 0 0 1-2.55 2.94 24.76 24.76 0 0 1-3.4 2.23 98.71 98.71 0 0 1-11.54 3.33l-16.41 4c-5.34 1.31-10.74 2.47-12 2.58a19.27 19.27 0 0 1-4.47-.23 37.61 37.61 0 0 1-6.26-2.3c-2.24-1-4.94-2.13-6-2.45-.71-.22-1.7-.56-2.59-.9.3.48.65 1 1 1.42a11.28 11.28 0 0 0 .77.91 15.85 15.85 0 0 0 3.16 2.46c1 .54 2.62 1.33 3.64 1.76s2.71 1 3.77 1.36 3.75 1.42 6 2.45a37.61 37.61 0 0 0 6.26 2.3 19.27 19.27 0 0 0 4.47.23c1.26-.11 6.66-1.27 12-2.58l16.41-4A98.71 98.71 0 0 0 89 151.51a24.76 24.76 0 0 0 3.4-2.23 13.05 13.05 0 0 0 2.6-2.95 13.8 13.8 0 0 0 1.36-3.73 27.61 27.61 0 0 1 1.13-4 29 29 0 0 1 1.87-3.81 13 13 0 0 0 1.87-8c-.1-1.19-.18-3.93-.18-6.09a30.53 30.53 0 0 0-.43-5.64 13.67 13.67 0 0 0-1.39-3.21 19.35 19.35 0 0 0-2.16-2.72 63.5 63.5 0 0 0-6.06-4.5l-.91-.64c-2.23-1.61-3.88-3.18-3.81-3.68a.8.8 0 0 1 .08-.24 4.17 4.17 0 0 1 2.1-1.6 17.39 17.39 0 0 0 3.48-1.9 23 23 0 0 0 3.76-5.36 34.34 34.34 0 0 0 2.66-5.87 18 18 0 0 0 .31-3.37 24.65 24.65 0 0 0-.34-3.4 21.59 21.59 0 0 0-.89-3.15 17.93 17.93 0 0 1-.83-3.12 19.86 19.86 0 0 1-.15-3.34 13.31 13.31 0 0 0-.3-3.29 12.48 12.48 0 0 0-1.27-3 20.17 20.17 0 0 0-4.31-4.9 17.21 17.21 0 0 0-2.82-1.8 17.77 17.77 0 0 0-1.69-.69c-.53-.19-1.07-.36-1.53-.49.24.34.47.66.64.94a12.48 12.48 0 0 1 1.25 2.94z"/><path d="M32.46 121.52h-.07l-.93.11A4.22 4.22 0 0 0 32 123a3.5 3.5 0 0 0 1.44.68 3.3 3.3 0 0 1 1.45.74 3.2 3.2 0 0 1 .69 1.46 3 3 0 0 0 .64 1.39 7.42 7.42 0 0 0 2.89.74 17.32 17.32 0 0 1 2.06.35c-.07-.32-.15-.68-.22-1.06-.11-.59-.22-1.24-.31-1.91-.3-2.24-1-4.18-1.55-4.33a37.48 37.48 0 0 0-6.63.46zM50.68 110.89a5.73 5.73 0 0 0 2.52.29 16.61 16.61 0 0 1 2.92 0h.08c.33 0 .75.1 1.19.18-.16-.27-.3-.53-.44-.73a22.64 22.64 0 0 0-1.95-2.57 12.64 12.64 0 0 0-2.37-1.95 15 15 0 0 0-3-1.28c-.29-.08-.63-.17-1-.25v.12a5.12 5.12 0 0 0-.28.83 5.29 5.29 0 0 0-.2 1.5 5.85 5.85 0 0 0 .76 2.27 4.68 4.68 0 0 0 1.77 1.59z"/></svg>