<svg xmlns="http://www.w3.org/2000/svg" width="112.65" height="200" viewBox="0 0 112.65 200"><title>_</title><path d="M8.52 124a5.57 5.57 0 0 0 1.12 1.49 4 4 0 0 0 1.44.64 23.66 23.66 0 0 0 2.41.26h2.81a20.49 20.49 0 0 1 3.42.16 22.84 22.84 0 0 1 3.4.82 8.08 8.08 0 0 0 2.54.35 9.08 9.08 0 0 0 2.59-.71 22.33 22.33 0 0 1 3.4-1.24 19.42 19.42 0 0 1 3.44-.51h3.26c.88 0 2.36.19 3.26.31s2.38.42 3.29.65 2.38.7 3.28 1a14.15 14.15 0 0 0 2.73.67 11.84 11.84 0 0 0 2.62-.07 5.74 5.74 0 0 1 .93-.07 3.51 3.51 0 0 1 2.42.78 3.55 3.55 0 0 1 .58 3.37 5.91 5.91 0 0 0-.11 2.07 5.11 5.11 0 0 0 .2.71 8.54 8.54 0 0 0 .69 1.57 6.63 6.63 0 0 1 0 7.2 7 7 0 0 0-.81 2.18 5.05 5.05 0 0 0 .27 1.93 4.49 4.49 0 0 0 1.2 1.51 8.26 8.26 0 0 0 2.45 1 22.31 22.31 0 0 0 3.41.41h.92a23.83 23.83 0 0 0 2.58-.23c1.13-.18 5.37-.4 9.67-.5a51.06 51.06 0 0 0 7.31-.59 32.5 32.5 0 0 0-.24-6.37c-.34-2.9-.78-7.64-.57-8.8a12.25 12.25 0 0 1 1.11-3.11 7.84 7.84 0 0 1 1.83-2.31 3 3 0 0 1 2.86-.36 3.23 3.23 0 0 0 .88.21 5 5 0 0 0 1.14-.14 7.88 7.88 0 0 1 2.15-.25 8.35 8.35 0 0 1 2.14.42 4 4 0 0 0 1.14.16 5.18 5.18 0 0 0 1.33-.36 3.21 3.21 0 0 0 1-.88 8.19 8.19 0 0 0 .84-2.06 26.23 26.23 0 0 0 .52-2.87 23.71 23.71 0 0 0 .11-2.8c0-.76-.26-2.72-.51-4.29-.18-1.11-.36-2.45-.47-3.51-.05-.48-.09-.9-.11-1.19a32 32 0 0 1 0-3.38 4.92 4.92 0 0 0-.09-1.24 11.83 11.83 0 0 0-2.81-.08h-.35c-1.82.15-3.94.29-4.55.26-.38 0-1.57 0-2.67.07-1.51.07-3.26-.43-3.85-1.76a9 9 0 0 1-.39-3.72c.1-1.16.54-3.91 1-6.11a23.71 23.71 0 0 0 .53-5.38A13.35 13.35 0 0 0 86.1 86a14.63 14.63 0 0 1-1.27-4.41 23.63 23.63 0 0 1 .94-6.34c.56-2 1.15-4.62 1.28-5.62s.26-2.71.27-3.7-.06-2.7-.17-3.7-.59-3.59-1.05-5.64a33 33 0 0 1-.86-6.33c0-.37 0-.81.1-1.28a23.32 23.32 0 0 1 .66-3.42 4 4 0 0 0 0-2.18 3.35 3.35 0 0 0-1.77-.65 21 21 0 0 0-3.83.15 18.74 18.74 0 0 0-3.53 1 15.28 15.28 0 0 1-4.22 1 14.16 14.16 0 0 1-4.25-.51 15.48 15.48 0 0 0-3.28-.53 13.74 13.74 0 0 0-3.13.39 27 27 0 0 0-3.07 1.08 21.17 21.17 0 0 0-2.61 1.42 11.87 11.87 0 0 0-2 1.79 13.53 13.53 0 0 0-1.52 2.41A26.58 26.58 0 0 1 51 54a25.31 25.31 0 0 1-2.23 2.74 28.24 28.24 0 0 0-2 2.35 29.09 29.09 0 0 0-1.68 2.62 19.38 19.38 0 0 1-2.09 3 19.71 19.71 0 0 1-2.71 2.44 21.76 21.76 0 0 0-2.33 2 21 21 0 0 0-1.91 2.33 22.92 22.92 0 0 1-2.26 2.74 24.55 24.55 0 0 1-2.75 2.31c-.72.51-1.89 1.41-2.55 2s-1.65 1.47-2.26 2.11a26.11 26.11 0 0 0-2 2.33c-.5.68-2.06 3.2-3.4 5.5a35.42 35.42 0 0 1-4 5.78 18.6 18.6 0 0 1-3 2.21 9.91 9.91 0 0 0-2.13 1.74 9 9 0 0 0-1.29 2.32 15.82 15.82 0 0 0-.62 2.82 14.19 14.19 0 0 0 .06 2.76 13.24 13.24 0 0 1-.07 3.6 15.56 15.56 0 0 1-1.21 3.55 15.29 15.29 0 0 0-1 2.82 13.06 13.06 0 0 0-.25 2.8 18.09 18.09 0 0 0 .38 2.76 14.65 14.65 0 0 0 .82 2.37z"/><path d="M96.47 57.2a21.26 21.26 0 0 1 .68-4.3 5 5 0 0 0-.14-3.4 4.24 4.24 0 0 0-2.92-1.34 22.49 22.49 0 0 0-4.17.16 18.12 18.12 0 0 0-2 .47c-.36.1-.72.21-1.05.32 0 .42-.08.82-.09 1.15a32 32 0 0 0 .82 6c.48 2.13 1 4.75 1.08 5.82s.19 2.81.18 3.88-.15 2.81-.29 3.88-.74 3.69-1.32 5.82a22.46 22.46 0 0 0-.89 5.82 13.13 13.13 0 0 0 1.12 3.88 14.73 14.73 0 0 1 1.2 3.88A24.45 24.45 0 0 1 88.1 95c-.43 2.16-.87 4.83-1 5.94a7.84 7.84 0 0 0 .26 3 2.66 2.66 0 0 0 2.4.87c1.08-.06 2.35-.09 2.82-.07s2.23-.09 4.13-.24h.6c.06-.32.11-.65.17-1 .09-.51.19-1 .28-1.49a24.45 24.45 0 0 0 .55-5.86 14.73 14.73 0 0 0-1.2-3.88 13.13 13.13 0 0 1-1.11-3.9 22.46 22.46 0 0 1 .89-5.82c.58-2.13 1.18-4.75 1.32-5.82s.27-2.81.29-3.88-.02-2.85-.13-3.85-.6-3.69-1.08-5.82a32 32 0 0 1-.82-5.98zM55.85 129.66a2.87 2.87 0 0 0-2.06-.3 13.36 13.36 0 0 1-3 .08 15.47 15.47 0 0 1-3.1-.75c-.86-.32-2.27-.77-3.13-1s-2.27-.5-3.13-.62-2.27-.26-3.13-.3-2.27-.05-3.13 0a18 18 0 0 0-3.13.46 21 21 0 0 0-3.13 1.14 10.41 10.41 0 0 1-3.13.85 9.63 9.63 0 0 1-3.13-.43 21.15 21.15 0 0 0-3.15-.79 19.48 19.48 0 0 0-3.13-.14h-.64c.06.37.12.72.19 1a16 16 0 0 0 1 2.7 6.94 6.94 0 0 0 1.53 2 5.5 5.5 0 0 0 2.12.95 25.32 25.32 0 0 0 2.6.28h3a19.48 19.48 0 0 1 3.13.14 21.15 21.15 0 0 1 3.13.76 9.63 9.63 0 0 0 3.13.43 10.41 10.41 0 0 0 3.13-.85 21 21 0 0 1 3.13-1.14 18 18 0 0 1 3.13-.46h3.13c.86 0 2.27.18 3.13.3s2.27.4 3.13.62l.66.26 1.15.36a6.68 6.68 0 0 1-.26-.94 7.43 7.43 0 0 1 .15-2.72 2.22 2.22 0 0 0-.19-1.89zM102.93 119.62a25.38 25.38 0 0 1-.12 3 28 28 0 0 1-.56 3.07 9.64 9.64 0 0 1-1.05 2.53 4.62 4.62 0 0 1-1.61 1.41 6.56 6.56 0 0 1-1.84.48 5.2 5.2 0 0 1-1.74-.24 7 7 0 0 0-1.69-.33 6.72 6.72 0 0 0-1.69.2 6.26 6.26 0 0 1-1.6.2 4.67 4.67 0 0 1-1.43-.34 1.51 1.51 0 0 0-1.36.2 6.61 6.61 0 0 0-1.39 1.81 10.86 10.86 0 0 0-1 2.67 57.62 57.62 0 0 0 .58 8.36c.45 3.85.43 7.32-.06 7.73s-4.29.82-8.45.91-8.42.32-9.47.49a25.27 25.27 0 0 1-2.76.25c0 .15-.07.3-.09.43a4.2 4.2 0 0 0 0 .58 6.54 6.54 0 0 0 .39 2.1 5.92 5.92 0 0 0 1.71 2.16 9.65 9.65 0 0 0 3 1.25 23.84 23.84 0 0 0 3.69.44 25 25 0 0 0 3.77-.26c1-.17 5.31-.39 9.47-.49s8-.51 8.45-.91.52-3.88.06-7.73a57.62 57.62 0 0 1-.58-8.36 10.86 10.86 0 0 1 1-2.67 6.61 6.61 0 0 1 1.39-1.81 1.51 1.51 0 0 1 1.36-.2 4.67 4.67 0 0 0 1.43.34 6.26 6.26 0 0 0 1.6-.2 6.72 6.72 0 0 1 1.69-.2 7 7 0 0 1 1.69.33 5.2 5.2 0 0 0 1.74.24 6.56 6.56 0 0 0 1.84-.48 4.62 4.62 0 0 0 1.61-1.41 9.64 9.64 0 0 0 1.05-2.53 28 28 0 0 0 .56-3.07 25.38 25.38 0 0 0 .12-3c0-.82-.26-2.83-.52-4.48s-.52-3.69-.57-4.55a30.28 30.28 0 0 1 0-3.19 5 5 0 0 0-.38-2.43c-.27-.44-2.18-.65-4.25-.48-1.55.13-3.11.23-4 .26h-1c.11 1 .29 2.31.47 3.44.28 1.65.51 3.66.54 4.48z"/></svg>