<svg xmlns="http://www.w3.org/2000/svg" width="200" height="200" viewBox="0 0 200 200"><title>_</title><path d="M148.92,114.65c-1.85.15-4.14,0.3-4.73,0.28-0.39,0-1.57,0-2.72.07s-2.88-.36-3.37-1.46a8.58,8.58,0,0,1-.34-3.48c0.1-1.15.53-3.86,1-6.05a23.94,23.94,0,0,0,.54-5.54,13.76,13.76,0,0,0-1.1-3.56A14,14,0,0,1,137,90.67a23.4,23.4,0,0,1,.92-6.17c0.57-2.07,1.16-4.67,1.29-5.69s0.26-2.75.28-3.76-0.06-2.74-.17-3.76-0.6-3.64-1.06-5.7a32.49,32.49,0,0,1-.84-6.2c0-.35,0-0.78.1-1.23a22.86,22.86,0,0,1,.62-3.31,4.25,4.25,0,0,0,0-2.59,3.48,3.48,0,0,0-2.15-.88,21.6,21.6,0,0,0-3.94.15,19.36,19.36,0,0,0-3.65,1,14.7,14.7,0,0,1-4.06,1,13.83,13.83,0,0,1-4.08-.49,15.78,15.78,0,0,0-3.41-.55,14,14,0,0,0-3.27.41A27.66,27.66,0,0,0,110.36,54a21.8,21.8,0,0,0-2.68,1.47,12.27,12.27,0,0,0-2.11,1.89A14,14,0,0,0,104,59.86a26,26,0,0,1-1.73,3,24.77,24.77,0,0,1-2.18,2.67A28.75,28.75,0,0,0,98,68a29.52,29.52,0,0,0-1.71,2.68,18.78,18.78,0,0,1-2,2.87,19.13,19.13,0,0,1-2.62,2.36,22.36,22.36,0,0,0-2.39,2.05,21.58,21.58,0,0,0-2,2.4A22.34,22.34,0,0,1,85.12,83a23.92,23.92,0,0,1-2.68,2.26c-0.74.52-1.92,1.43-2.59,2s-1.74,1.55-2.36,2.18a26.7,26.7,0,0,0-2,2.38c-0.51.69-2.08,3.23-3.43,5.55a35.7,35.7,0,0,1-3.9,5.67,18,18,0,0,1-2.91,2.14A10.34,10.34,0,0,0,62.94,107a9.49,9.49,0,0,0-1.38,2.48,16.12,16.12,0,0,0-.64,2.93,14.52,14.52,0,0,0,.06,2.88,12.65,12.65,0,0,1-.06,3.44,15,15,0,0,1-1.17,3.41,15.66,15.66,0,0,0-1.07,2.93,13.43,13.43,0,0,0-.26,2.93,18.74,18.74,0,0,0,.39,2.86,15,15,0,0,0,.88,2.5,6,6,0,0,0,1.25,1.66,4.52,4.52,0,0,0,1.67.74,24.45,24.45,0,0,0,2.47.26c0.55,0,1.45,0,2.24,0l0.61,0a20,20,0,0,1,3.32.15,22.27,22.27,0,0,1,3.31.8,8.68,8.68,0,0,0,2.74.37,9.52,9.52,0,0,0,2.77-.75,21.81,21.81,0,0,1,3.31-1.21,18.85,18.85,0,0,1,3.34-.49c0.88,0,2.33,0,3.22,0s2.33,0.18,3.22.31,2.34,0.41,3.24.64,2.34,0.69,3.23,1a14.48,14.48,0,0,0,2.85.7,12.28,12.28,0,0,0,2.76-.08,5.31,5.31,0,0,1,.85-0.07,3,3,0,0,1,2.08.63,3.1,3.1,0,0,1,.45,2.88,6.43,6.43,0,0,0-.12,2.29,5.56,5.56,0,0,0,.22.78,9.11,9.11,0,0,0,.73,1.66,6.14,6.14,0,0,1,0,6.69,7.49,7.49,0,0,0-.88,2.38,5.48,5.48,0,0,0,.31,2.18,5,5,0,0,0,1.37,1.73,8.74,8.74,0,0,0,2.63,1.08,23,23,0,0,0,3.51.42c0.27,0,.6,0,0.95,0a24.29,24.29,0,0,0,2.64-.23c1.11-.18,5.33-0.39,9.6-0.5a44.44,44.44,0,0,0,7.74-.68,28.39,28.39,0,0,0-.19-6.84,56.64,56.64,0,0,1-.57-8.65,11.87,11.87,0,0,1,1.06-3,7.41,7.41,0,0,1,1.68-2.14,2.5,2.5,0,0,1,2.36-.31,3.7,3.7,0,0,0,1.06.25,5.41,5.41,0,0,0,1.3-.16,7.74,7.74,0,0,1,2-.23,7.88,7.88,0,0,1,2,.39,4.39,4.39,0,0,0,1.34.18,5.62,5.62,0,0,0,1.5-.4,3.67,3.67,0,0,0,1.19-1.05,8.67,8.67,0,0,0,.91-2.21,26.9,26.9,0,0,0,.53-2.93,24.5,24.5,0,0,0,.12-2.87c0-.78-0.26-2.77-0.51-4.35-0.18-1.1-.36-2.44-0.47-3.48-0.05-.47-0.09-0.88-0.11-1.16a31.41,31.41,0,0,1,0-3.32,5.1,5.1,0,0,0-.18-1.69,10.32,10.32,0,0,0-3.26-.16l-0.2-1h0Z" fill="#231f20"/><path d="M138.38,59.42a32,32,0,0,0,.82,6c0.48,2.13,1,4.75,1.08,5.82s0.19,2.81.18,3.88-0.14,2.81-.29,3.88-0.74,3.69-1.32,5.82a22.46,22.46,0,0,0-.89,5.82,13.14,13.14,0,0,0,1.12,3.88,14.73,14.73,0,0,1,1.2,3.88,24.46,24.46,0,0,1-.55,5.86c-0.43,2.16-.87,4.83-1,5.94a7.85,7.85,0,0,0,.26,3,2.66,2.66,0,0,0,2.4.87c1.08-.06,2.35-0.09,2.82-0.07s2.54-.1,4.6-0.28H149c0.06-.33.12-0.67,0.18-1,0.09-.51.19-1,0.28-1.49a24.46,24.46,0,0,0,.55-5.86,14.73,14.73,0,0,0-1.2-3.88,13.14,13.14,0,0,1-1.12-3.88,22.46,22.46,0,0,1,.89-5.82c0.58-2.13,1.18-4.75,1.32-5.82s0.27-2.81.29-3.88-0.06-2.81-.18-3.88-0.6-3.69-1.08-5.82a32,32,0,0,1-.82-6,21.25,21.25,0,0,1,.68-4.3,5,5,0,0,0-.14-3.4,4.24,4.24,0,0,0-2.92-1.34,22.49,22.49,0,0,0-4.17.16,18.12,18.12,0,0,0-2,.47c-0.36.1-.72,0.21-1.05,0.32C138.42,58.69,138.38,59.09,138.38,59.42Z" fill="#231f20"/><path d="M107.5,143.43a7.43,7.43,0,0,1,.15-2.72,2.22,2.22,0,0,0-.18-1.89,2.87,2.87,0,0,0-2.06-.3,13.36,13.36,0,0,1-3,.08,15.47,15.47,0,0,1-3.1-.75c-0.86-.32-2.27-0.77-3.13-1s-2.27-.5-3.13-0.62-2.27-.26-3.13-0.3-2.27-.05-3.13,0a18,18,0,0,0-3.13.46,21,21,0,0,0-3.13,1.14,10.41,10.41,0,0,1-3.13.85,9.63,9.63,0,0,1-3.13-.43,21.14,21.14,0,0,0-3.13-.76A19.48,19.48,0,0,0,68,137l-0.64,0c0.06,0.37.12,0.72,0.19,1h0a16,16,0,0,0,1,2.7,6.94,6.94,0,0,0,1.53,2,5.5,5.5,0,0,0,2.12.95,25.32,25.32,0,0,0,2.6.28c0.76,0,2.09,0,3,0a19.48,19.48,0,0,1,3.13.14,21.14,21.14,0,0,1,3.13.76,9.63,9.63,0,0,0,3.13.43,10.41,10.41,0,0,0,3.13-.85,21,21,0,0,1,3.13-1.14,18,18,0,0,1,3.13-.46c0.86,0,2.27,0,3.13,0s2.27,0.18,3.13.3,2.27,0.4,3.13.62L106.6,144l1.15,0.36A6.7,6.7,0,0,1,107.5,143.43Z" fill="#231f20"/><path d="M153.94,120.87h-0.39c0.11,1,.29,2.31.47,3.44,0.26,1.64.5,3.66,0.52,4.48a25.38,25.38,0,0,1-.12,3,28,28,0,0,1-.56,3.07,9.64,9.64,0,0,1-1.05,2.53,4.62,4.62,0,0,1-1.61,1.41,6.56,6.56,0,0,1-1.84.48,5.2,5.2,0,0,1-1.74-.24,7,7,0,0,0-1.69-.33,6.72,6.72,0,0,0-1.69.2,6.26,6.26,0,0,1-1.6.2,4.67,4.67,0,0,1-1.43-.34,1.51,1.51,0,0,0-1.36.2,6.61,6.61,0,0,0-1.39,1.81,10.86,10.86,0,0,0-1,2.67,57.59,57.59,0,0,0,.58,8.36c0.45,3.85.43,7.32-.06,7.73s-4.29.82-8.45,0.91-8.42.32-9.47,0.49a25.27,25.27,0,0,1-2.76.25c0,0.15-.07.3-0.09,0.43a4.22,4.22,0,0,0,0,.58,6.54,6.54,0,0,0,.39,2.1,5.92,5.92,0,0,0,1.71,2.16,9.65,9.65,0,0,0,3,1.25,23.84,23.84,0,0,0,3.69.44,25,25,0,0,0,3.77-.26c1-.17,5.31-0.39,9.47-0.49s8-.51,8.45-0.91,0.52-3.88.06-7.73a57.59,57.59,0,0,1-.58-8.36,10.86,10.86,0,0,1,1-2.67,6.61,6.61,0,0,1,1.39-1.81,1.51,1.51,0,0,1,1.36-.2,4.67,4.67,0,0,0,1.43.34,6.26,6.26,0,0,0,1.6-.2,6.72,6.72,0,0,1,1.69-.2,7,7,0,0,1,1.69.33,5.2,5.2,0,0,0,1.74.24,6.56,6.56,0,0,0,1.84-.48,4.62,4.62,0,0,0,1.61-1.41,9.64,9.64,0,0,0,1.05-2.53,28,28,0,0,0,.56-3.07,25.38,25.38,0,0,0,.12-3c0-.82-0.26-2.83-0.52-4.48s-0.52-3.69-.57-4.55a30.28,30.28,0,0,1,0-3.19,5,5,0,0,0-.38-2.43c-0.27-.44-2.18-0.65-4.25-0.48-1.55.13-3.11,0.23-4,.26h-0.62Z" fill="#231f20"/></svg>