<svg xmlns="http://www.w3.org/2000/svg" width="200" height="200" viewBox="0 0 200 200"><title>_</title><path d="M94.31 135.2c-.32-.36-1.3-1.32-2.25-2.19a19.82 19.82 0 0 0-2.06-1.7 1.56 1.56 0 0 0-.47-.17 1.08 1.08 0 0 1-1.23-.58l-.3-.64.16-.16a1.25 1.25 0 0 1-.07-.79c-1.56.3-4.81 1-9.23 2l-.38.09a119.94 119.94 0 0 1-13.86 2.47 11.84 11.84 0 0 0-4.23.84 2.93 2.93 0 0 0-.44 1.81 17 17 0 0 0 .67 3.2 19.84 19.84 0 0 0 1.47 3.14 21.8 21.8 0 0 0 2.1 2.83 20 20 0 0 0 2.54 2.26c.77.55 2.8 1.76 4.43 2.64.58.31 1.19.66 1.79 1 1.24.71 2.29 1.36 2.81 1.73a28.58 28.58 0 0 1 2.85 2.39 18.59 18.59 0 0 0 2.39 1.87l.25.17c.3.18.73.41 1.2.64a17 17 0 0 0 1.81.76 18.44 18.44 0 0 0 3.38.7 23.56 23.56 0 0 0 3.79 0c.77-.08 1.83-.12 2.8-.12h1.49a56.69 56.69 0 0 1 7.5 1.58 59.49 59.49 0 0 0 6.61 1.48 15.07 15.07 0 0 0 2.82-.15 18.32 18.32 0 0 0 2.79-.75 19.64 19.64 0 0 0 2.67-1.3 14.73 14.73 0 0 1 3.46-1.39 23.46 23.46 0 0 1 4.24-.53 14.87 14.87 0 0 0 3.87-.71 44.11 44.11 0 0 0 6.81-4.44 54.26 54.26 0 0 0 6.21-5.27 17.06 17.06 0 0 0 2-3.26 25.69 25.69 0 0 1 2-3.68 20.71 20.71 0 0 1 2.58-3 5.68 5.68 0 0 0 1.42-2.25 6.17 6.17 0 0 0-.23-2.76 27 27 0 0 1-.94-3.65 106.45 106.45 0 0 1 .1-10.85 65.57 65.57 0 0 0-.09-10.32 35.14 35.14 0 0 0-3.54-5.74l-.68-1a27.43 27.43 0 0 0-3.48-4.15A12 12 0 0 0 139 95.9c-1-.31-2.54-.87-3.46-1.27s-2.35-1.1-3.2-1.58-3-1.44-4.77-2.18a47.19 47.19 0 0 0-5.08-1.79c-1-.23-4.08-.63-6.83-.87a23.9 23.9 0 0 0-6.1 0 9.6 9.6 0 0 0-2.39 1.55 13.65 13.65 0 0 1-1.9 1.43 9.16 9.16 0 0 1-1 .57 10 10 0 0 1-3.18.79 14.83 14.83 0 0 0-2.37.32 7.47 7.47 0 0 0-1.67.66A2.48 2.48 0 0 1 95 94a1.61 1.61 0 0 1-.65-2.08 3.22 3.22 0 0 0 0-1.23 9.65 9.65 0 0 0-.84-1.95 5.94 5.94 0 0 1-.77-2.83 4.7 4.7 0 0 1 1.14-2.57 5 5 0 0 0 .91-1.62 6.7 6.7 0 0 0 .11-2.14 2.81 2.81 0 0 1 1.1-2.81 4.72 4.72 0 0 1 3.23.15 14.23 14.23 0 0 0 3 .68 11 11 0 0 0 2.74-.19c1-.23 5.32-.7 9-1s8-.62 9-.54a19.37 19.37 0 0 1 3.14.57 22.53 22.53 0 0 1 3.11 1.19 9.07 9.07 0 0 0 2.59.74 8.16 8.16 0 0 0 2.56-.31 24.74 24.74 0 0 1 3.11-.74 27.41 27.41 0 0 1 3.15-.23 3.29 3.29 0 0 0 1.78-.57 4.63 4.63 0 0 0 1-2 27.09 27.09 0 0 0 .49-3.17 25.46 25.46 0 0 0 0-3.14 24.32 24.32 0 0 0-.48-3.12 26.79 26.79 0 0 0-1-3.13 22.55 22.55 0 0 1-.84-2.63c-.06-.23-.11-.46-.15-.64a13.63 13.63 0 0 1-.2-3 1.76 1.76 0 0 0-.46-1.2 31.44 31.44 0 0 0-6.5-1.17c-3.29-.34-7.06-.65-8.19-.61s-3.08.13-4.25.26-3.22.26-4.44.29-3.21 0-4.44-.12a41.77 41.77 0 0 0-4.23 0c-1.15.06-3.08.28-4.23.48A32.79 32.79 0 0 1 100 54a31.27 31.27 0 0 1-4.52-.34 28.22 28.22 0 0 0-4.17-.28 28.15 28.15 0 0 0-4.17.49 25.55 25.55 0 0 1-4.59.44 25.38 25.38 0 0 1-4.62-.62 4.43 4.43 0 0 0-2.54.06 2.93 2.93 0 0 0-.71 1.94 27.58 27.58 0 0 1-.45 4.14 27.43 27.43 0 0 1-1.19 4 30.52 30.52 0 0 0-1.15 3.63 29.44 29.44 0 0 0-.56 3.72c-.08 1.12-.3 2.91-.5 4s-1.1 4.55-2 7.71A53.05 53.05 0 0 0 67 90.27a21.55 21.55 0 0 0 .21 3.8 35.5 35.5 0 0 1 .37 4.18 55.21 55.21 0 0 1-1 7.56 20.64 20.64 0 0 0-.48 6 4.74 4.74 0 0 0 1.7 1.55 7.45 7.45 0 0 0 2.8.68 10.38 10.38 0 0 0 3.27-.79c.25-.11.54-.22.84-.33a15.29 15.29 0 0 1 3.29-.79 13.84 13.84 0 0 1 4.12.35c1 .26 3.53.75 5.56 1.06a30.4 30.4 0 0 0 5 .43 6.34 6.34 0 0 0 1.93-.53 4.49 4.49 0 0 0 1.19-1.1 7 7 0 0 0 .78-1.83 3.49 3.49 0 0 1 1.61-2.27 3.45 3.45 0 0 1 2.75.34 14.21 14.21 0 0 0 2 .87 7.06 7.06 0 0 0 1.57.3c.3 0 1.8-.16 3.5-.45a14.7 14.7 0 0 1 4.54-.15 6.92 6.92 0 0 1 2.76 1.52c.58.56 1.46 1.5 2 2.11s1.28 1.65 1.73 2.33a12.78 12.78 0 0 1 .84 1.56 11.4 11.4 0 0 1 .5 1.23 16 16 0 0 1 .6 3.19 23 23 0 0 1 0 3.21c-.09 1-.69 3.79-1.21 6a22.76 22.76 0 0 1-2.1 5.9 9.33 9.33 0 0 1-2.67 2.2 13.56 13.56 0 0 1-3.32 1.16 29.21 29.21 0 0 1-6.1-.2c-2.26-.27-4.52-.6-5.25-.78h-.14c-.4-.11-1-.3-1.53-.5l-.6-.23a12.63 12.63 0 0 1-2-1.11 10.47 10.47 0 0 1-.85-.68 10.9 10.9 0 0 1-.9-.86zM75.15 153.77c-.52-.37-1.58-1-2.73-1.68.25.32.5.62.71.85a20.72 20.72 0 0 0 2.7 2.4c.81.58 2.85 1.8 4.54 2.7a19.5 19.5 0 0 1-2.53-2 27.43 27.43 0 0 0-2.69-2.27z" fill="#231f20"/><path d="M118.17 115.66c-.43-.65-1.17-1.65-1.66-2.24s-1.34-1.5-1.88-2a6 6 0 0 0-2.3-1.27 13.93 13.93 0 0 0-4.14.17 31.51 31.51 0 0 1-3.69.46 7.93 7.93 0 0 1-1.85-.34 15.17 15.17 0 0 1-2.14-.95 2.55 2.55 0 0 0-1.87-.3 2.59 2.59 0 0 0-1 1.59 8 8 0 0 1-.93 2.16 5.44 5.44 0 0 1-1.52 1.4 7.22 7.22 0 0 1-2.32.66 30.39 30.39 0 0 1-5.2-.44c-2.09-.32-4.64-.81-5.67-1.08a12.84 12.84 0 0 0-3.77-.32 14.47 14.47 0 0 0-3 .73c-.06.39-.11.76-.15 1.13a11.83 11.83 0 0 0 0 4.17 5.54 5.54 0 0 0 2.16 2 8.36 8.36 0 0 0 3.31.79 11.25 11.25 0 0 0 3.66-.88 14.66 14.66 0 0 1 3.81-1 12.84 12.84 0 0 1 3.77.32c1 .28 3.58.76 5.67 1.08a30.39 30.39 0 0 0 5.2.44 7.22 7.22 0 0 0 2.32-.66 5.44 5.44 0 0 0 1.52-1.4 8 8 0 0 0 .93-2.16 2.59 2.59 0 0 1 1-1.59 2.55 2.55 0 0 1 1.87.3 15.17 15.17 0 0 0 2.14.95 7.93 7.93 0 0 0 1.85.34 31.51 31.51 0 0 0 3.69-.46c.34-.06.69-.1 1-.14a11.55 11.55 0 0 0-.81-1.46zM100.52 137.6l-.32-.22a2.08 2.08 0 0 0-1-.29.71.71 0 0 1-.23 0c.49.18 1.05.37 1.45.48zM143.33 61.62a28 28 0 0 1 1 3.27 25.1 25.1 0 0 1 .5 3.27 26.35 26.35 0 0 1 0 3.29 28 28 0 0 1-.51 3.31 5.48 5.48 0 0 1-1.32 2.49 4.23 4.23 0 0 1-2.45.81 22.48 22.48 0 0 0-3 .22 23.47 23.47 0 0 0-3 .7 9.1 9.1 0 0 1-2.95.35 10 10 0 0 1-2.95-.84 21.67 21.67 0 0 0-2.95-1.13 18.51 18.51 0 0 0-2.95-.53c-.81-.06-4.79.18-8.84.54s-8 .81-8.84 1a11.8 11.8 0 0 1-3 .22 15.25 15.25 0 0 1-3.24-.73 3.88 3.88 0 0 0-2.42-.21 1.89 1.89 0 0 0-.57 1.79 7.69 7.69 0 0 1-.08 2.56 6 6 0 0 1-1.14 2 3.71 3.71 0 0 0-.88 2 5 5 0 0 0 .64 2.28 10.56 10.56 0 0 1 .94 2.21 4.07 4.07 0 0 1 0 1.74.84.84 0 0 0 .08.88 1.88 1.88 0 0 0 1.12-.37 8.41 8.41 0 0 1 1.94-.78 15.85 15.85 0 0 1 2.57-.35 9 9 0 0 0 2.8-.69 8.48 8.48 0 0 0 .9-.51 5.8 5.8 0 0 0 .7-1.45c0-.09 0-.22.07-.33a8 8 0 0 0 .07-2.21 1.89 1.89 0 0 1 .57-1.79 3.88 3.88 0 0 1 2.42.21 15.25 15.25 0 0 0 3.24.73 11.8 11.8 0 0 0 3-.22c.81-.19 4.79-.64 8.84-1s8-.61 8.84-.54a18.51 18.51 0 0 1 2.95.53 21.67 21.67 0 0 1 2.95 1.13 10 10 0 0 0 2.95.84 9.1 9.1 0 0 0 2.95-.35 23.47 23.47 0 0 1 3-.7 22.48 22.48 0 0 1 3-.22 4.23 4.23 0 0 0 2.45-.81 5.48 5.48 0 0 0 1.32-2.49 28 28 0 0 0 .51-3.31 26.35 26.35 0 0 0 0-3.29 25.1 25.1 0 0 0-.5-3.27 28 28 0 0 0-1-3.27 20.5 20.5 0 0 1-.93-3.1 12.68 12.68 0 0 1-.18-2.75 2.72 2.72 0 0 0-.81-2c-.5-.42-3.67-1-7-1.4h-.48l-1.06-.11a21.68 21.68 0 0 0 .73 2.38z" fill="#231f20"/><path d="M96.58 135.88a11.69 11.69 0 0 0 1.82 1l.6.22v-.06a4.61 4.61 0 0 1 .75-.41l.39-.2a.46.46 0 0 0 .21-.16 1.35 1.35 0 0 0-.55 0h-.18a.86.86 0 0 1-.8-.09.47.47 0 0 1 0-.3 2.31 2.31 0 0 1 .32-.58c.26-.35.13-.65-.29-.67a16 16 0 0 0-1.74.29l-1.27.26a9.52 9.52 0 0 0 .74.7zM146.87 101.83a35.12 35.12 0 0 1 3.54 6.05c.29.94.35 5.73.13 10.66s-.27 9.71-.12 10.64a25.92 25.92 0 0 0 .9 3.48 7.08 7.08 0 0 1 .26 3.32 6.57 6.57 0 0 1-1.71 2.76 20 20 0 0 0-2.44 2.82 24.66 24.66 0 0 0-1.92 3.5 18 18 0 0 1-2.1 3.49A54.86 54.86 0 0 1 137 154a44 44 0 0 1-7.07 4.58 15.87 15.87 0 0 1-4.18.77 22.73 22.73 0 0 0-4 .5 13.79 13.79 0 0 0-3.18 1.28 20.63 20.63 0 0 1-2.83 1.38 19.27 19.27 0 0 1-3 .8 16.19 16.19 0 0 1-3.05.16 58.86 58.86 0 0 1-6.81-1.51 57.17 57.17 0 0 0-7.31-1.55 29.07 29.07 0 0 0-4.12.08 24.54 24.54 0 0 1-4 0 19.37 19.37 0 0 1-3.6-.75 17.86 17.86 0 0 1-1.93-.81c1.21.69 2.35 1.39 2.89 1.77l.64.48c.71.56 1.55 1.28 2.09 1.81a19.26 19.26 0 0 0 2.81 2.2 18.88 18.88 0 0 0 3.21 1.5 19.37 19.37 0 0 0 3.6.75 24.54 24.54 0 0 0 4 0 29.07 29.07 0 0 1 4.12-.08 57.17 57.17 0 0 1 7.31 1.55 58.86 58.86 0 0 0 6.81 1.51 16.19 16.19 0 0 0 3.05-.16 19.27 19.27 0 0 0 3-.8 20.63 20.63 0 0 0 2.83-1.38 13.79 13.79 0 0 1 3.18-1.28 22.73 22.73 0 0 1 4-.5 15.87 15.87 0 0 0 4.18-.77 44 44 0 0 0 7.07-4.58 54.86 54.86 0 0 0 6.38-5.44 18 18 0 0 0 2.1-3.49 24.66 24.66 0 0 1 1.92-3.5 20 20 0 0 1 2.44-2.82 6.57 6.57 0 0 0 1.71-2.76 7.08 7.08 0 0 0-.26-3.32 25.92 25.92 0 0 1-.9-3.48c-.15-.93-.1-5.71.12-10.64s.16-9.72-.13-10.66a35.12 35.12 0 0 0-3.54-6.05 32.08 32.08 0 0 0-4.39-5.35 12.93 12.93 0 0 0-3.13-1.54l-1.22-.41c-.57-.2-1.16-.42-1.67-.62z" fill="#231f20"/></svg>