<svg xmlns="http://www.w3.org/2000/svg" width="97.51" height="200" viewBox="0 0 97.51 200"><title>_</title><path d="M-5.57 130a19.2 19.2 0 0 0 1.42 3 21.28 21.28 0 0 0 2 2.75A19.44 19.44 0 0 0 .36 138c.76.54 2.76 1.73 4.38 2.6.58.31 1.2.66 1.8 1 1.25.72 2.31 1.38 2.85 1.76a29.1 29.1 0 0 1 2.91 2.44 18 18 0 0 0 2.31 1.83l.25.17c.27.16.68.38 1.13.6a16.36 16.36 0 0 0 1.75.74 17.83 17.83 0 0 0 3.26.68 23 23 0 0 0 3.69 0c.76-.08 1.83-.13 2.85-.13h1.53a57.13 57.13 0 0 1 7.6 1.6 59.83 59.83 0 0 0 6.52 1.46 14.62 14.62 0 0 0 2.71-.14 17.71 17.71 0 0 0 2.69-.72 19 19 0 0 0 2.58-1.26 15.31 15.31 0 0 1 3.6-1.45 24.05 24.05 0 0 1 4.34-.54 14.5 14.5 0 0 0 3.71-.68 44.22 44.22 0 0 0 6.68-4.37 55.15 55.15 0 0 0 6.12-5.18 16.44 16.44 0 0 0 1.89-3.14 26.26 26.26 0 0 1 2.06-3.76 21.29 21.29 0 0 1 2.66-3.07 5.25 5.25 0 0 0 1.27-2 5.76 5.76 0 0 0-.22-2.48 27.66 27.66 0 0 1-1-3.73 104.78 104.78 0 0 1 .1-10.95 68.26 68.26 0 0 0-.07-10.15 35.23 35.23 0 0 0-3.31-5.6l-.67-.95a27.22 27.22 0 0 0-3.37-4 11.56 11.56 0 0 0-2.69-1.32c-1-.31-2.58-.89-3.51-1.29s-2.39-1.12-3.25-1.61-2.92-1.42-4.71-2.15a46.65 46.65 0 0 0-5-1.76c-.93-.22-4-.62-6.76-.86a24.61 24.61 0 0 0-5.88 0A9.13 9.13 0 0 0 40.91 81a14.2 14.2 0 0 1-2 1.48 9.65 9.65 0 0 1-1.07.6 10.44 10.44 0 0 1-3.36.83 14.46 14.46 0 0 0-2.27.3 7 7 0 0 0-1.53.61 2.86 2.86 0 0 1-2.49.47 2.07 2.07 0 0 1-.93-2.67 2.85 2.85 0 0 0 0-1 9.17 9.17 0 0 0-.79-1.82 6.4 6.4 0 0 1-.84-3.11 5.17 5.17 0 0 1 1.27-2.88 4.53 4.53 0 0 0 .8-1.42 6.22 6.22 0 0 0 .1-1.95 3.28 3.28 0 0 1 1.35-3.31c1.3-.68 3.39 0 3.63.12a13.85 13.85 0 0 0 2.86.65 10.52 10.52 0 0 0 2.58-.18c1-.24 5.42-.71 9-1s8.06-.62 9.09-.54a20 20 0 0 1 3.23.59A23.09 23.09 0 0 1 62.75 68a8.59 8.59 0 0 0 2.41.69 7.56 7.56 0 0 0 2.36-.28 25.34 25.34 0 0 1 3.19-.76 28 28 0 0 1 3.22-.24A2.71 2.71 0 0 0 75.4 67a4.25 4.25 0 0 0 .85-1.7 26.75 26.75 0 0 0 .48-3.1 24.83 24.83 0 0 0 0-3.06 23.65 23.65 0 0 0-.47-3 26.18 26.18 0 0 0-1-3.06 23.06 23.06 0 0 1-.86-2.7c-.06-.24-.12-.48-.15-.67a14.07 14.07 0 0 1-.2-3.15 1.33 1.33 0 0 0-.28-.78 38.3 38.3 0 0 0-6.23-1.06C64 44.28 60.46 44 59.45 44s-3 .13-4.21.25-3.25.27-4.49.29-3.27 0-4.49-.12-3-.1-4.17 0-3 .28-4.17.48a33.29 33.29 0 0 1-4.6.43 32.4 32.4 0 0 1-4.6-.35 26.72 26.72 0 0 0-4.08-.28 27.49 27.49 0 0 0-4.08.48 26 26 0 0 1-4.7.45 26 26 0 0 1-4.72-.63A4.35 4.35 0 0 0 9 45a2.86 2.86 0 0 0-.47 1.52 28.22 28.22 0 0 1-.46 4.23 28.14 28.14 0 0 1-1.22 4.06 29.78 29.78 0 0 0-1.12 3.55A28.62 28.62 0 0 0 5.16 62c-.08 1.13-.31 2.95-.5 4s-1.11 4.58-2 7.76A53.67 53.67 0 0 0 .9 81.14a21 21 0 0 0 .2 3.69 36 36 0 0 1 .38 4.25 55.68 55.68 0 0 1-1 7.66 21.4 21.4 0 0 0-.48 5.75 4.65 4.65 0 0 0 1.46 1.26 7 7 0 0 0 2.58.62 9.93 9.93 0 0 0 3.11-.75c.26-.12.56-.23.88-.34a15.83 15.83 0 0 1 3.41-.81 14.27 14.27 0 0 1 4.29.37c1 .26 3.5.74 5.51 1a30.3 30.3 0 0 0 4.82.43 5.94 5.94 0 0 0 1.73-.47 4 4 0 0 0 1-.95 6.65 6.65 0 0 0 .7-1.67 4 4 0 0 1 1.89-2.6 3.91 3.91 0 0 1 3.19.36 13.8 13.8 0 0 0 1.88.84 6.66 6.66 0 0 0 1.42.27c.25 0 1.73-.15 3.4-.44a15 15 0 0 1 4.73-.1 7.37 7.37 0 0 1 3 1.65c.59.57 1.49 1.53 2 2.15s1.3 1.68 1.76 2.37a13.18 13.18 0 0 1 .88 1.63 11.57 11.57 0 0 1 .52 1.29 16.57 16.57 0 0 1 .63 3.31 23.7 23.7 0 0 1 0 3.3c-.09 1-.7 3.85-1.23 6-.45 1.88-1.41 5-2.19 6.08a9.76 9.76 0 0 1-2.81 2.35 14.14 14.14 0 0 1-3.46 1.21 29.22 29.22 0 0 1-6.25-.19c-2.28-.27-4.56-.61-5.31-.79h-.14c-.43-.12-1-.32-1.59-.52l-.62-.24a13 13 0 0 1-2.11-1.11 11.07 11.07 0 0 1-.89-.71 11.25 11.25 0 0 1-.89-.86c-.3-.43-1.3-1.34-2.21-2.2a20.22 20.22 0 0 0-2-1.63 1.28 1.28 0 0 0-.24-.1 1.57 1.57 0 0 1-1.66-.86l-.47-1 .19-.19v-.05c-1.69.34-4.67 1-8.62 1.87l-.38.09A120.4 120.4 0 0 1-2 124.84a12.37 12.37 0 0 0-4 .75 3.23 3.23 0 0 0-.24 1.36 16.37 16.37 0 0 0 .67 3.05zM9.19 146.19c.81.58 2.85 1.8 4.54 2.7a19.5 19.5 0 0 1-2.53-2 27.42 27.42 0 0 0-2.73-2.29c-.52-.37-1.58-1-2.73-1.68.25.32.5.62.71.85a20.72 20.72 0 0 0 2.74 2.42z"/><path d="M35.91 112.75a7.22 7.22 0 0 0 2.32-.66 5.44 5.44 0 0 0 1.52-1.4 7.94 7.94 0 0 0 .93-2.16 2.59 2.59 0 0 1 1-1.59 2.55 2.55 0 0 1 1.87.3 15.17 15.17 0 0 0 2.14.95 7.93 7.93 0 0 0 1.85.34 31.51 31.51 0 0 0 3.69-.46c.34-.06.69-.1 1-.14a11.56 11.56 0 0 0-.77-1.43c-.43-.65-1.17-1.65-1.66-2.24s-1.34-1.5-1.88-2a6 6 0 0 0-2.3-1.27 13.93 13.93 0 0 0-4.14.17 31.51 31.51 0 0 1-3.69.46 7.93 7.93 0 0 1-1.85-.34 15.17 15.17 0 0 1-2.14-.95A2.55 2.55 0 0 0 32 100a2.59 2.59 0 0 0-1 1.59 7.94 7.94 0 0 1-.93 2.16 5.44 5.44 0 0 1-1.52 1.4 7.22 7.22 0 0 1-2.32.66 30.39 30.39 0 0 1-5.2-.44c-2.09-.32-4.64-.81-5.67-1.08a12.84 12.84 0 0 0-3.77-.32 14.47 14.47 0 0 0-3 .73c-.06.39-.11.76-.15 1.13a11.83 11.83 0 0 0 0 4.17 5.54 5.54 0 0 0 2.16 2 8.36 8.36 0 0 0 3.31.79 11.25 11.25 0 0 0 3.66-.88 14.66 14.66 0 0 1 3.81-1 12.84 12.84 0 0 1 3.77.32c1 .28 3.58.76 5.67 1.08a30.39 30.39 0 0 0 5.09.44zM33.88 128.45l-.32-.22a2.08 2.08 0 0 0-1-.29.71.71 0 0 1-.23 0c.49.18 1.05.37 1.45.48zM39.54 75.44a3.88 3.88 0 0 1 2.42.21 15.25 15.25 0 0 0 3.24.73 11.81 11.81 0 0 0 3-.22c.81-.19 4.79-.64 8.84-1s8-.61 8.84-.54a18.51 18.51 0 0 1 2.95.53 21.67 21.67 0 0 1 2.95 1.13 10 10 0 0 0 2.95.84 9.1 9.1 0 0 0 2.95-.35 23.47 23.47 0 0 1 3-.7 22.48 22.48 0 0 1 3-.22A4.23 4.23 0 0 0 86.1 75a5.48 5.48 0 0 0 1.32-2.49 28 28 0 0 0 .51-3.31 26.32 26.32 0 0 0 0-3.29 25.14 25.14 0 0 0-.5-3.27 28 28 0 0 0-1-3.27 20.52 20.52 0 0 1-.93-3.1 12.69 12.69 0 0 1-.18-2.75 2.72 2.72 0 0 0-.81-2c-.5-.42-3.67-1-7-1.4h-.48L75.9 50a21.7 21.7 0 0 0 .8 2.51 28 28 0 0 1 1 3.27 25.14 25.14 0 0 1 .5 3.27 26.32 26.32 0 0 1 0 3.29 28 28 0 0 1-.51 3.31 5.48 5.48 0 0 1-1.32 2.49 4.23 4.23 0 0 1-2.45.81 22.48 22.48 0 0 0-3 .22 23.47 23.47 0 0 0-3 .7 9.1 9.1 0 0 1-2.95.35 10 10 0 0 1-2.95-.84 21.67 21.67 0 0 0-2.95-1.13 18.51 18.51 0 0 0-2.95-.53c-.81-.06-4.79.18-8.84.54s-8 .81-8.84 1a11.81 11.81 0 0 1-3 .22 15.25 15.25 0 0 1-3.24-.73 3.88 3.88 0 0 0-2.42-.21 1.89 1.89 0 0 0-.57 1.79 7.68 7.68 0 0 1-.14 2.54 5.94 5.94 0 0 1-1.14 2 3.71 3.71 0 0 0-.88 1.95 5 5 0 0 0 .64 2.28 10.55 10.55 0 0 1 .94 2.21 4.07 4.07 0 0 1 0 1.74.84.84 0 0 0 .08.88 1.88 1.88 0 0 0 1.12-.37 8.41 8.41 0 0 1 1.94-.78 15.84 15.84 0 0 1 2.57-.35 9 9 0 0 0 2.8-.69 8.47 8.47 0 0 0 .9-.51 5.79 5.79 0 0 0 .7-1.45c0-.09 0-.22.07-.33a8 8 0 0 0 .19-2.22 1.89 1.89 0 0 1 .54-1.79zM33 127.47l.39-.2a.46.46 0 0 0 .21-.16 1.35 1.35 0 0 0-.55 0h-.18a.86.86 0 0 1-.8-.09.47.47 0 0 1 0-.3 2.31 2.31 0 0 1 .32-.58c.26-.35.13-.65-.29-.67a16 16 0 0 0-1.74.29l-1.27.26a9.47 9.47 0 0 0 .76.61 11.69 11.69 0 0 0 1.82 1l.55.21v-.06a4.61 4.61 0 0 1 .78-.31zM85.55 94.27a12.93 12.93 0 0 0-3.13-1.54l-1.22-.41c-.57-.2-1.16-.42-1.67-.62l.69 1a35.12 35.12 0 0 1 3.54 6.05c.29.94.35 5.73.13 10.66s-.27 9.71-.12 10.64a25.92 25.92 0 0 0 .9 3.48 7.08 7.08 0 0 1 .26 3.32 6.57 6.57 0 0 1-1.71 2.76 20 20 0 0 0-2.44 2.82 24.67 24.67 0 0 0-1.92 3.5 18 18 0 0 1-2.1 3.49 54.84 54.84 0 0 1-6.38 5.44 44 44 0 0 1-7.07 4.58 15.87 15.87 0 0 1-4.18.77 22.73 22.73 0 0 0-4 .5 13.79 13.79 0 0 0-3.18 1.29 20.62 20.62 0 0 1-2.83 1.38 19.27 19.27 0 0 1-3 .8 16.19 16.19 0 0 1-3.05.16 58.87 58.87 0 0 1-6.81-1.51 57.17 57.17 0 0 0-7.26-1.6 29.07 29.07 0 0 0-4.12.08 24.54 24.54 0 0 1-4 0 19.37 19.37 0 0 1-3.6-.75 17.86 17.86 0 0 1-1.93-.81c1.21.69 2.35 1.39 2.89 1.77l.63.48c.71.56 1.55 1.28 2.09 1.81a19.26 19.26 0 0 0 2.81 2.2 18.89 18.89 0 0 0 3.21 1.5 19.37 19.37 0 0 0 3.6.75 24.54 24.54 0 0 0 4 0 29.07 29.07 0 0 1 4.12-.08 57.17 57.17 0 0 1 7.3 1.54 58.87 58.87 0 0 0 6.81 1.51 16.19 16.19 0 0 0 3.05-.16 19.27 19.27 0 0 0 3-.8 20.62 20.62 0 0 0 2.83-1.38 13.79 13.79 0 0 1 3.18-1.28 22.73 22.73 0 0 1 4-.5 15.87 15.87 0 0 0 4.18-.77 44 44 0 0 0 7.07-4.58 54.84 54.84 0 0 0 6.38-5.44 18 18 0 0 0 2.1-3.49 24.67 24.67 0 0 1 1.92-3.5 20 20 0 0 1 2.44-2.82 6.57 6.57 0 0 0 1.71-2.76 7.08 7.08 0 0 0-.26-3.32 25.92 25.92 0 0 1-.9-3.48c-.15-.93-.1-5.71.12-10.64s.16-9.72-.13-10.66a35.12 35.12 0 0 0-3.54-6.05 32.07 32.07 0 0 0-4.41-5.33z"/></svg>