<svg xmlns="http://www.w3.org/2000/svg" width="109.07" height="200" viewBox="0 0 109.07 200"><title>_</title><path d="M.34 109.78a29 29 0 0 0 .21 3c.11.81.55 2.88 1 4.51s.92 4 1.05 5a33.71 33.71 0 0 1 .19 3.71 9.57 9.57 0 0 0 .51 2.87 9 9 0 0 0 1.58 2.37c.65.66 1.81 1.7 2.53 2.27a32.9 32.9 0 0 0 2.75 1.91c.87.53 2.19 1.41 2.94 2s1.9 1.52 2.54 2.13c.42.4 4.06 3 9 6.42l.36.23a77.65 77.65 0 0 0 9.06 5.58 12.06 12.06 0 0 0 3.12.36h1c1 0 2.17 0 2.94.12a34.83 34.83 0 0 1 3.84.63 11.49 11.49 0 0 0 3.25.16 16.65 16.65 0 0 0 3.67-1 26.29 26.29 0 0 1 4.6-1.39 25.42 25.42 0 0 1 4.73-.32 21.23 21.23 0 0 0 3.89-.23 40.9 40.9 0 0 0 6.86-2.88 43.4 43.4 0 0 0 6.31-3.72 60.21 60.21 0 0 0 4.54-5.74c1.79-2.49 3.74-5.37 4.25-6.3a35.34 35.34 0 0 0 1.7-3.68c.41-1.08 1-2.95 1.27-4.07s.62-3 .76-4.21a17.32 17.32 0 0 0 0-3.68 10.41 10.41 0 0 0-.9-2.8c-.56-1-2.51-6.27-4.07-10.68-1.35-3.84-2.85-7.71-3.65-9.42a5.76 5.76 0 0 0-.31-.61A15.94 15.94 0 0 0 79.74 90 17.76 17.76 0 0 0 77 88.11a17.72 17.72 0 0 0-3-1.19c-1-.28-2.7-.83-3.74-1.23s-2.77-1.16-3.84-1.69A14.06 14.06 0 0 0 63 82.92a14.33 14.33 0 0 0-3.61.06 26.19 26.19 0 0 1-4.32.32 21.54 21.54 0 0 1-4-.56 12.42 12.42 0 0 0-3-.33 50.79 50.79 0 0 0-6.91 2.32l-1.86.73c-8.67 3.51-9.55 2.4-10 1.81-.69-.87-.74-3.9-.14-9 .35-3 1.2-7.92 2.08-9.3a10.09 10.09 0 0 1 3.37-3 23.49 23.49 0 0 1 3.9-1.54 20.16 20.16 0 0 1 4-.59 12.82 12.82 0 0 0 2.94-.48 9.8 9.8 0 0 0 2.33-1.23 6.69 6.69 0 0 1 3.12-1.34 4.42 4.42 0 0 1 3.05 1.16c.51.48 1.57 1.6 2.36 2.5a18.68 18.68 0 0 1 2.15 2.91 21.06 21.06 0 0 1 1 2.45v.06a1.06 1.06 0 0 0 .43.51 5.74 5.74 0 0 0 2-.59c.27-.13.58-.26.92-.39a13.87 13.87 0 0 1 3.36-.82 14 14 0 0 1 4.41.5 28.23 28.23 0 0 0 3.62.8 70.62 70.62 0 0 0 7.47 0 18.84 18.84 0 0 0 5.41-.82 5.06 5.06 0 0 0 0-2.11 16.77 16.77 0 0 0-1.32-3.63 12.87 12.87 0 0 0-2.13-2.71 23.85 23.85 0 0 1-2.75-3 18.57 18.57 0 0 1-1-1.65 18.06 18.06 0 0 1-.88-1.81A7 7 0 0 0 77.49 52a7.14 7.14 0 0 0-2.38-1.13c-1-.24-3.33-.95-5.15-1.59a47.82 47.82 0 0 1-5-2c-.88-.47-2.32-1.32-3.19-1.9a23.85 23.85 0 0 0-3-1.62 25.48 25.48 0 0 0-3.28-1.11 28.12 28.12 0 0 0-3.48-.59c-.8-.06-5.31-.06-10.67.05a86 86 0 0 0-10.3.66 38.32 38.32 0 0 0-5.62 3.05c-2.53 1.59-4.78 3.16-5.31 3.61s-1.58 1.49-2.11 2.09a18.12 18.12 0 0 1-2.64 2.31 20.58 20.58 0 0 1-3.19 1.74A5.58 5.58 0 0 0 10.28 57a6.7 6.7 0 0 0-.9 2.44 15.63 15.63 0 0 1-1.1 3.84 13.7 13.7 0 0 1-2.2 3.18 11.22 11.22 0 0 0-1.63 2.3 85.79 85.79 0 0 0-2.1 10.05C1.51 83.75.71 89.42.56 91.45S.38 97.3.5 100a61.35 61.35 0 0 1 0 6.79 29.85 29.85 0 0 0-.16 2.99z"/><path d="M84.71 59.51a14.26 14.26 0 0 1 2.44 3.1 18.27 18.27 0 0 1 1.47 4 5.35 5.35 0 0 1-.25 3.39c-.41.63-3.37 1.24-6.56 1.35a70.62 70.62 0 0 1-7.72-.05 29.65 29.65 0 0 1-3.86-.85 12.38 12.38 0 0 0-3.85-.45 12.39 12.39 0 0 0-3 .73l.75.8.71.78A17.46 17.46 0 0 1 66.82 75a19.83 19.83 0 0 1 1 2.32 2.34 2.34 0 0 0 1.58 1.48 6.32 6.32 0 0 0 3-.71A12.51 12.51 0 0 1 76.09 77a12.38 12.38 0 0 1 3.85.44 29.65 29.65 0 0 0 3.86.85 70.62 70.62 0 0 0 7.72.05c3.19-.11 6.15-.72 6.56-1.35a5.35 5.35 0 0 0 .26-3.39 18.27 18.27 0 0 0-1.47-4 14.26 14.26 0 0 0-2.44-3.1 22.16 22.16 0 0 1-2.54-2.81 19.27 19.27 0 0 1-1.79-3.19 8.45 8.45 0 0 0-1.94-2.69 8.56 8.56 0 0 0-3-1.44c-.54-.12-1.47-.39-2.49-.71l-1.46-.47a17.15 17.15 0 0 0 1 1.51 22.16 22.16 0 0 0 2.5 2.81zM55.17 65.4c-.77-.87-1.79-2-2.27-2.4a3 3 0 0 0-1.9-.75 5.26 5.26 0 0 0-2.3 1 11.12 11.12 0 0 1-2.78 1.47 14.2 14.2 0 0 1-3.37.55 18.69 18.69 0 0 0-3.64.54 21.75 21.75 0 0 0-3.6 1.42 8.69 8.69 0 0 0-2.81 2.52c-.56.87-1.39 4.77-1.85 8.66s-.54 7.44-.18 7.9 4.09-.57 8.29-2.27l1.88-.74c.06-.39.12-.77.18-1.14a21.86 21.86 0 0 1 1.39-5.47A8.69 8.69 0 0 1 45 74.21a21.75 21.75 0 0 1 3.6-1.42 18.69 18.69 0 0 1 3.64-.54 14.2 14.2 0 0 0 3.37-.55 10.24 10.24 0 0 0 1.65-.76c.31-.17.61-.35.86-.52v-.07a19.83 19.83 0 0 0-1-2.32 17.46 17.46 0 0 0-1.95-2.63zM92.76 98.35a17.49 17.49 0 0 0-2.37-2.59 19.25 19.25 0 0 0-3-2 19.54 19.54 0 0 0-2.67-1.11l-.67-.2-.59-.17c.81 1.72 2.3 5.55 3.71 9.56 1.74 4.95 3.52 9.65 4 10.46a11.73 11.73 0 0 1 1.07 3.31 18.86 18.86 0 0 1 0 4.08 44.28 44.28 0 0 1-.8 4.39 43.91 43.91 0 0 1-1.33 4.25 36.45 36.45 0 0 1-1.78 3.87c-.54 1-2.5 3.89-4.34 6.45a60.38 60.38 0 0 1-4.74 6 43.06 43.06 0 0 1-6.65 4 40.82 40.82 0 0 1-7.27 3 23.08 23.08 0 0 1-4.22.25 23.25 23.25 0 0 0-4.39.29 24.52 24.52 0 0 0-4.28 1.3 18.27 18.27 0 0 1-4.08 1.14 13 13 0 0 1-3.77-.18 32.94 32.94 0 0 0-3.64-.6 33.11 33.11 0 0 0-3.7-.1 13.68 13.68 0 0 1-3.59-.42c-.93-.26-5.15-2.84-9.49-5.78l.16.15c.61.57 4.75 3.52 9.21 6.56l.18.12c4.4 3 8.72 5.63 9.65 5.9a13.68 13.68 0 0 0 3.59.42 33.11 33.11 0 0 1 3.7.1 32.94 32.94 0 0 1 3.64.6 13 13 0 0 0 3.77.18 18.27 18.27 0 0 0 4.08-1.14 24.52 24.52 0 0 1 4.28-1.3 23.25 23.25 0 0 1 4.39-.29 23.08 23.08 0 0 0 4.22-.25 40.82 40.82 0 0 0 7.27-3 43.06 43.06 0 0 0 6.65-4 60.38 60.38 0 0 0 4.74-6c1.84-2.57 3.8-5.47 4.34-6.45a36.45 36.45 0 0 0 1.78-3.87 43.91 43.91 0 0 0 1.33-4.25 44.28 44.28 0 0 0 .8-4.39 18.86 18.86 0 0 0 0-4.08 11.73 11.73 0 0 0-1.07-3.31c-.44-.8-2.23-5.51-4-10.46a87.2 87.2 0 0 0-4.12-10.44z"/></svg>