<svg xmlns="http://www.w3.org/2000/svg" width="200" height="200" viewBox="0 0 200 200"><title>_</title><path d="M141.17 63.11a7.5 7.5 0 0 0-1.66-2.31 7.61 7.61 0 0 0-2.58-1.24c-1-.23-3.29-.94-5.1-1.57a47.22 47.22 0 0 1-4.91-2c-.87-.46-2.29-1.3-3.15-1.87a24.49 24.49 0 0 0-3-1.66 26.15 26.15 0 0 0-3.36-1.14 28.79 28.79 0 0 0-3.56-.6c-.88-.08-5.42-.08-10.78.05a84.94 84.94 0 0 0-10.44.68 38.31 38.31 0 0 0-5.74 3.11c-2.54 1.6-4.83 3.19-5.37 3.66s-1.61 1.51-2.16 2.13a17.52 17.52 0 0 1-2.55 2.24 20 20 0 0 1-3.1 1.69 6 6 0 0 0-2.09 1.6 7.19 7.19 0 0 0-1 2.67 15 15 0 0 1-1.06 3.7 13.1 13.1 0 0 1-2.1 3 11.62 11.62 0 0 0-1.72 2.42 84.43 84.43 0 0 0-2.15 10.19c-.84 4.95-1.64 10.64-1.8 12.69s-.18 5.89-.06 8.57a61.87 61.87 0 0 1 0 6.7 30.27 30.27 0 0 0-.18 3.09 29.79 29.79 0 0 0 .21 3.06c.11.83.56 2.92 1 4.57s.91 3.94 1 4.91a32.94 32.94 0 0 1 .22 3.7 10 10 0 0 0 .55 3.06 9.5 9.5 0 0 0 1.68 2.54c.67.67 1.84 1.73 2.57 2.31A33.63 33.63 0 0 0 71.6 145c.86.52 2.16 1.4 2.9 1.95s1.87 1.5 2.49 2.09 4.34 3.23 9.08 6.46l.34.23a75.79 75.79 0 0 0 9.2 5.65 12.61 12.61 0 0 0 3.27.38h.93c1 0 2.12 0 2.9.12a34.22 34.22 0 0 1 3.78.62 12 12 0 0 0 3.42.17 17.28 17.28 0 0 0 3.81-1.07 25.68 25.68 0 0 1 4.49-1.36 24.54 24.54 0 0 1 4.61-.31 22 22 0 0 0 4-.24 40.83 40.83 0 0 0 7-2.93 43.28 43.28 0 0 0 6.42-3.8 59.42 59.42 0 0 0 4.61-5.81c1.8-2.5 3.76-5.41 4.28-6.35a35.9 35.9 0 0 0 1.72-3.75c.42-1.1 1-3 1.29-4.13s.63-3.09.77-4.27a17.9 17.9 0 0 0 0-3.81 10.83 10.83 0 0 0-1-3c-.53-1-2.46-6.15-4-10.61-1.35-3.85-2.86-7.74-3.67-9.46a5.53 5.53 0 0 0-.36-.69 16.57 16.57 0 0 0-2.21-2.42 14.79 14.79 0 0 0-5.91-3.13c-1-.27-2.67-.82-3.69-1.21s-2.72-1.14-3.78-1.67a14.42 14.42 0 0 0-3.55-1.12 14.86 14.86 0 0 0-3.77.06 25.82 25.82 0 0 1-4.23.31 20.94 20.94 0 0 1-3.94-.54 13 13 0 0 0-3.11-.35 48.16 48.16 0 0 0-7.07 2.36l-1.86.74c-8.33 3.37-9.14 2.35-9.45 2-.83-1-.3-6.38 0-8.64.42-3.54 1.26-7.93 2-9.09a9.67 9.67 0 0 1 3.19-2.87 22.9 22.9 0 0 1 3.8-1.5 19.56 19.56 0 0 1 3.87-.57 13.2 13.2 0 0 0 3.08-.5 10.25 10.25 0 0 0 2.48-1.31 6.24 6.24 0 0 1 2.84-1.24 3.9 3.9 0 0 1 2.68 1c.5.47 1.54 1.58 2.33 2.47a18.37 18.37 0 0 1 2.08 2.81 20.58 20.58 0 0 1 1 2.38v.1a1.4 1.4 0 0 0 .78.79 5.68 5.68 0 0 0 2.38-.62c.26-.13.55-.25.87-.37a10.79 10.79 0 0 1 7.45-.31 28.91 28.91 0 0 0 3.7.82 69.57 69.57 0 0 0 7.55 0 16.69 16.69 0 0 0 5.79-1 4.93 4.93 0 0 0 .08-2.57 17.37 17.37 0 0 0-1.26-3.64 13.26 13.26 0 0 0-2.23-2.84 23.23 23.23 0 0 1-2.68-3 18.08 18.08 0 0 1-1-1.6 17.54 17.54 0 0 1-.92-1.7z" fill="#231f20"/><path d="M143.87 65.86a22.15 22.15 0 0 0 2.54 2.81 14.26 14.26 0 0 1 2.44 3.1 18.27 18.27 0 0 1 1.47 4 5.35 5.35 0 0 1-.26 3.39c-.41.63-3.37 1.24-6.56 1.35a70.62 70.62 0 0 1-7.72-.05 29.65 29.65 0 0 1-3.86-.85 9.79 9.79 0 0 0-6.8.29l.75.8.71.78a17.46 17.46 0 0 1 1.94 2.61 19.83 19.83 0 0 1 1 2.32 2.34 2.34 0 0 0 1.58 1.48 6.32 6.32 0 0 0 3-.71 10 10 0 0 1 7.59-.62 29.65 29.65 0 0 0 3.86.85 70.62 70.62 0 0 0 7.72.05c3.19-.11 6.15-.72 6.56-1.35a5.35 5.35 0 0 0 .26-3.39 18.27 18.27 0 0 0-1.47-4 14.26 14.26 0 0 0-2.44-3.1 22.15 22.15 0 0 1-2.54-2.81 19.27 19.27 0 0 1-1.78-3.14 8.45 8.45 0 0 0-2-2.67 8.56 8.56 0 0 0-3-1.44c-.54-.12-1.47-.39-2.49-.71l-1.46-.47a17.15 17.15 0 0 0 .96 1.48zM119.78 79.49a19.83 19.83 0 0 0-1-2.32 17.46 17.46 0 0 0-1.94-2.61c-.77-.87-1.79-2-2.27-2.4a3 3 0 0 0-1.92-.75 5.26 5.26 0 0 0-2.3 1 11.12 11.12 0 0 1-2.78 1.47 14.2 14.2 0 0 1-3.37.55 18.69 18.69 0 0 0-3.64.54A21.75 21.75 0 0 0 97 76.42a8.69 8.69 0 0 0-2.81 2.52c-.56.87-1.39 4.77-1.85 8.66s-.54 7.44-.18 7.9 4.09-.57 8.29-2.27l1.88-.74c.06-.39.12-.77.18-1.14a21.87 21.87 0 0 1 1.39-5.47 8.69 8.69 0 0 1 2.81-2.52 21.75 21.75 0 0 1 3.6-1.42 18.69 18.69 0 0 1 3.64-.54 14.2 14.2 0 0 0 3.37-.55 10.25 10.25 0 0 0 1.65-.76c.31-.17.61-.35.86-.52zM145.19 101.4c.81 1.72 2.3 5.55 3.71 9.56 1.74 4.95 3.52 9.65 4 10.46a11.72 11.72 0 0 1 1.07 3.31 18.85 18.85 0 0 1 0 4.08 36.3 36.3 0 0 1-2.12 8.64 36.45 36.45 0 0 1-1.78 3.87c-.54 1-2.5 3.89-4.34 6.45a60.38 60.38 0 0 1-4.74 6 43.06 43.06 0 0 1-6.65 4 40.82 40.82 0 0 1-7.27 3 23.08 23.08 0 0 1-4.22.25 23.25 23.25 0 0 0-4.39.29 24.52 24.52 0 0 0-4.28 1.3 18.27 18.27 0 0 1-4.08 1.14 13 13 0 0 1-3.77-.18 27.16 27.16 0 0 0-7.34-.69 13.68 13.68 0 0 1-3.59-.42c-.93-.26-5.15-2.84-9.49-5.78l.09.07c.61.57 4.75 3.52 9.21 6.56l.18.12c4.4 3 8.72 5.63 9.65 5.9a13.68 13.68 0 0 0 3.59.42 27.16 27.16 0 0 1 7.34.69 13 13 0 0 0 3.77.18 18.27 18.27 0 0 0 4.08-1.14 24.52 24.52 0 0 1 4.28-1.3 23.25 23.25 0 0 1 4.39-.29 23.08 23.08 0 0 0 4.22-.25 40.82 40.82 0 0 0 7.27-3 43.06 43.06 0 0 0 6.65-4 60.38 60.38 0 0 0 4.74-6c1.84-2.57 3.8-5.47 4.34-6.45a36.45 36.45 0 0 0 1.78-3.87 36.3 36.3 0 0 0 2.12-8.64 18.85 18.85 0 0 0 0-4.08 11.72 11.72 0 0 0-1.07-3.31c-.44-.8-2.23-5.51-4-10.46a87.22 87.22 0 0 0-4.15-10.4 17.48 17.48 0 0 0-2.37-2.59 19.25 19.25 0 0 0-3-2 19.53 19.53 0 0 0-2.67-1.11l-.67-.2z" fill="#231f20"/></svg>