<svg xmlns="http://www.w3.org/2000/svg" width="96.31" height="200" viewBox="0 0 96.31 200"><title>_</title><path d="M1.47 58.31A13.48 13.48 0 0 1 2.7 62a10.62 10.62 0 0 1-.24 3.7 2 2 0 0 0-.07.53 2.88 2.88 0 0 0 .77-.06A14.1 14.1 0 0 1 7 66a16.17 16.17 0 0 1 3.84 1l.52.21a25.42 25.42 0 0 0 2.7.86 22.45 22.45 0 0 0 3.21.47h3.3c.88 0 2.41-.24 3.31-.41a29 29 0 0 1 3.72-.39 29.16 29.16 0 0 1 3.72.19c.78.1 4.45.15 8.49.06s7.74-.31 8.54-.46 2.57-.56 3.54-.85c1.38-.41 3.27-.44 4 .82s-.34 3.7-.58 4.15a43.46 43.46 0 0 1-2.25 3.73c-.39.57-1 1.3-1.55 2-.33.39-.65.76-.91 1a35.7 35.7 0 0 1-2.71 2.49c-.8.65-2.18 1.65-3.09 2.22a15.44 15.44 0 0 0-2.48 2.07 15.51 15.51 0 0 0-1.86 2.65c-.46.87-1.13 2.32-1.5 3.24s-.89 2.44-1.17 3.41a31.31 31.31 0 0 1-1.38 3.7 71.51 71.51 0 0 1-4.17 6.64 64.12 64.12 0 0 0-4 6.31 22.88 22.88 0 0 0-1.17 3.46c-.24 1-.54 2.73-.67 3.78s-.26 2.8-.29 3.87a22.55 22.55 0 0 1-.53 4.1 16.87 16.87 0 0 1-1.4 3.57 17 17 0 0 0-1.16 2.69 16 16 0 0 0-.54 2.83 21.73 21.73 0 0 1-.61 3.48 23.1 23.1 0 0 1-1.28 3.35 15.24 15.24 0 0 0-1 2.8 15.46 15.46 0 0 0-.27 3 2.35 2.35 0 0 0 .52 1.35 4.66 4.66 0 0 0 2.19.39h.42c1.35 0 4 .21 5.53.33s3.1.28 4.71.45c4.72.44 9.31.84 10.31.8a30.55 30.55 0 0 0 4-.4 7.62 7.62 0 0 0 2.75-1.13 5.34 5.34 0 0 0 1.34-2.07 11.35 11.35 0 0 0 .39-3 11.84 11.84 0 0 0-.63-3 10.54 10.54 0 0 1-.61-4 10.17 10.17 0 0 1 1.3-3.84 11.34 11.34 0 0 0 1.13-2.73 10.59 10.59 0 0 0 .14-2.87 27.7 27.7 0 0 1-.12-3.87 36 36 0 0 1 .51-4.15c.23-1.17.69-3.05 1-4.18s1-3 1.44-4.06 2.93-5.89 5.62-10.87l3.46-6.4c2.82-5.21 5-9.59 5.32-10.41a32 32 0 0 1 1.6-3.6c.51-.93 2.28-3.51 4-5.86a51.55 51.55 0 0 1 4.54-5.44 19.82 19.82 0 0 1 3.08-2.14 8.48 8.48 0 0 0 2-1.64 6.79 6.79 0 0 0 1-2.11 14.5 14.5 0 0 0 .35-2.69 36.32 36.32 0 0 0-1.16-5.68 28.12 28.12 0 0 1-1.13-6.77 16.84 16.84 0 0 1 1-4 3.16 3.16 0 0 0 .21-1 4.07 4.07 0 0 0-1.34 0 25.5 25.5 0 0 1-4.4.28 20.88 20.88 0 0 1-4.05-.73 9.84 9.84 0 0 0-3-.27 11.19 11.19 0 0 0-3.12 1 24.84 24.84 0 0 1-3.92 1.57 20.76 20.76 0 0 1-4 .65 21 21 0 0 1-4-.28 24 24 0 0 1-3.94-1.16 26.34 26.34 0 0 0-3.4-1.08c-.93-.21-4.16-.56-7.05-.77a40.72 40.72 0 0 0-6.86 0 15.65 15.65 0 0 0-3.25 1.18 15.53 15.53 0 0 1-4.11 1.36 13.33 13.33 0 0 1-4.19-.2 22.7 22.7 0 0 0-3.36-.43 22.7 22.7 0 0 0-3.36.2c-1.21.18-5.51.3-9 .31a38.41 38.41 0 0 0-6.88.48 21.08 21.08 0 0 0-1.21 4.3 27.37 27.37 0 0 0-.59 5.66 11.11 11.11 0 0 0 .97 2.79z"/><path d="M10.93 74.37a3.06 3.06 0 0 0 2.27.22 12.49 12.49 0 0 1 3.34-.18 14.71 14.71 0 0 1 3.41.91 26.63 26.63 0 0 0 3.46 1.14 23.9 23.9 0 0 0 3.48.51c1 .05 2.53 0 3.48 0s2.53-.26 3.48-.43a27.34 27.34 0 0 1 3.48-.37 27 27 0 0 1 3.48.18c.92.12 4.53.16 8.19.09h1.35c.52-.63 1.08-1.33 1.46-1.89.61-.88 1.58-2.49 2.16-3.58s.85-2.29.62-2.68-1.27-.46-2.3-.15-2.7.71-3.7.89-4.95.4-8.78.48-7.75 0-8.71-.08a27 27 0 0 0-3.48-.18 27.34 27.34 0 0 0-3.48.37c-1 .18-2.53.37-3.48.43s-2.53.07-3.48 0a23.9 23.9 0 0 1-3.48-.51 26.81 26.81 0 0 1-2.89-.91c0 .2.09.39.11.56s0 .37 0 .56a9.29 9.29 0 0 1-.24 2.54 2.48 2.48 0 0 0 .25 2.08zM88.24 60.89a15.74 15.74 0 0 1-.39 3 8.24 8.24 0 0 1-1.34 2.7 9.9 9.9 0 0 1-2.49 2 18.22 18.22 0 0 0-2.8 1.95 51 51 0 0 0-4.33 5.21c-1.68 2.25-3.44 4.81-3.91 5.67a30.27 30.27 0 0 0-1.51 3.39c-.36 1-2.8 5.78-5.41 10.62l-3.46 6.4c-2.62 4.84-5.11 9.66-5.55 10.72s-1.06 2.82-1.39 3.92-.77 2.91-1 4a34.43 34.43 0 0 0-.49 3.94 26.29 26.29 0 0 0 .11 3.62 12 12 0 0 1-.17 3.37 12.74 12.74 0 0 1-1.31 3.18 8.76 8.76 0 0 0-1.08 3.18 9.18 9.18 0 0 0 .52 3.38 13.28 13.28 0 0 1 .73 3.48 12.82 12.82 0 0 1-.45 3.48 6.67 6.67 0 0 1-1.84 2.8 9 9 0 0 1-3.43 1.44 32 32 0 0 1-4.2.42c-1.15 0-5.84-.36-10.42-.84-1.6-.17-3.21-.32-4.67-.44v.1c-.05.25-.1.56-.15.89a17 17 0 0 0-.15 2.44 3.62 3.62 0 0 0 1.12 2.51 5.8 5.8 0 0 0 3.17.68c1.15-.06 5.84.28 10.42.76s9.27.86 10.42.84a32 32 0 0 0 4.2-.42 9 9 0 0 0 3.43-1.44 6.67 6.67 0 0 0 1.84-2.8 12.82 12.82 0 0 0 .45-3.48 13.28 13.28 0 0 0-.73-3.48 9.18 9.18 0 0 1-.52-3.38 8.76 8.76 0 0 1 1.08-3.18 12.74 12.74 0 0 0 1.31-3.18 12 12 0 0 0 .17-3.37 26.29 26.29 0 0 1-.11-3.62 34.43 34.43 0 0 1 .49-3.94c.22-1.13.66-2.94 1-4s1-2.86 1.39-3.92 2.94-5.89 5.55-10.72l3.46-6.4c2.62-4.84 5.05-9.62 5.41-10.62a30.27 30.27 0 0 1 1.51-3.39c.47-.87 2.23-3.42 3.91-5.67a51 51 0 0 1 4.33-5.21 18.22 18.22 0 0 1 2.8-1.95 9.9 9.9 0 0 0 2.49-2 8.24 8.24 0 0 0 1.34-2.7 15.74 15.74 0 0 0 .39-3 36.1 36.1 0 0 0-1.21-6.08 27.78 27.78 0 0 1-1.09-6.26 15.34 15.34 0 0 1 .87-3.58 3.07 3.07 0 0 0 0-2.64 3.76 3.76 0 0 0-2.81-.41 23.67 23.67 0 0 1-4.09.26 19.54 19.54 0 0 1-2.72-.36c-.36-.07-.71-.15-1-.23A27.78 27.78 0 0 0 87 54.81a36.1 36.1 0 0 1 1.24 6.08z"/></svg>