<svg xmlns="http://www.w3.org/2000/svg" width="200" height="200" viewBox="0 0 200 200"><title>_</title><path d="M142.61,62.71A10.07,10.07,0,0,0,140.19,61c-0.9-.42-2.35-1.18-3.22-1.71s-2.27-1.47-3.12-2.1-2.16-1.49-3-2-2.32-1.22-3.23-1.6a22.23,22.23,0,0,0-3.5-1.06c-1-.21-6.44-0.77-11.81-1.24l-1.64-.14c-5.57-.48-10.37-0.78-11.76-0.78H98.69a36.23,36.23,0,0,0-4.14.46c-1.15.21-3.81,0.86-5.93,1.45a23.7,23.7,0,0,0-5.19,2,16.26,16.26,0,0,0-2.73,2.51,15,15,0,0,1-3.19,2.79,13.41,13.41,0,0,1-3.84,1.45,11,11,0,0,0-3,1.12,9.93,9.93,0,0,0-2.28,2.1,33.46,33.46,0,0,0-1.9,2.94,34.74,34.74,0,0,0-1.53,3.21,35.41,35.41,0,0,0-1.13,3.39,35.11,35.11,0,0,0-.7,3.5,31.24,31.24,0,0,0-.21,3.71,41.08,41.08,0,0,0,.31,4.1,29.3,29.3,0,0,0,.84,3.9,19.81,19.81,0,0,0,1.35,3.18c0.45,0.8,1.27,2.06,1.78,2.76a30.29,30.29,0,0,0,2,2.41,25.51,25.51,0,0,0,2.18,2A21.66,21.66,0,0,0,73.64,101a3,3,0,0,1,1.64,2.66,5.41,5.41,0,0,1-2,2.81,30,30,0,0,0-2.68,2.47,67.84,67.84,0,0,0-4.16,5.72,39.8,39.8,0,0,0-3.43,6,19.65,19.65,0,0,0-.69,3.57c-0.1,1.17-.51,4-0.91,6.22a25.06,25.06,0,0,0-.44,5.68,12.15,12.15,0,0,0,1.16,3.37c0.53,1,1.45,2.43,2,3.28s1.6,2.14,2.25,2.86a32.49,32.49,0,0,0,2.48,2.46c0.72,0.62,3.44,2.66,5.94,4.45,1.44,1,3,2.12,4.37,3,0.9,0.58,1.58,1,1.93,1.18a26,26,0,0,0,3.53,1.43c1,0.31,2.65.73,3.56,0.91s3.7,0.52,6.11.74a55.52,55.52,0,0,1,6.15.84,30.88,30.88,0,0,1,3.11,1.05,12,12,0,0,0,2.75.7,11.85,11.85,0,0,0,2.83-.14c0.83-.16,3.61-0.93,6.07-1.68,2.29-.7,5.25-1.51,6.26-1.66a23.28,23.28,0,0,0,3-.74c0.88-.29,4.11-1.6,7.07-2.88s6.16-2.75,7-3.24a26.77,26.77,0,0,0,2.91-2,20.39,20.39,0,0,0,2.39-2.33,20.13,20.13,0,0,0,1.86-2.76c0.49-.9,1.84-3.07,3-4.83a47,47,0,0,0,2.86-4.79,24.45,24.45,0,0,0,1.23-3.52,15.78,15.78,0,0,0,.36-3.72,20.49,20.49,0,0,0-.72-4.06,23.42,23.42,0,0,0-1.62-3.86,18.36,18.36,0,0,0-2.28-3.08c-0.79-.82-2-2.21-2.68-3.1s-1.71-2.39-2.3-3.35a13.94,13.94,0,0,0-2.37-2.78,18.13,18.13,0,0,0-3.42-2.15c-1-.44-2.62-1.5-2.81-2.68s1-2.34,2.13-3a28,28,0,0,0,3.09-2A49.53,49.53,0,0,0,145,93a17.84,17.84,0,0,0,3.36-5.24,8.2,8.2,0,0,0-.6-3.19,14.53,14.53,0,0,1-1-4.11,10.77,10.77,0,0,1,.6-3.86,8.6,8.6,0,0,0,.51-2.77,26.31,26.31,0,0,0-2.12-5.72c-0.69-1.45-1.51-3-2.2-4.15A8.38,8.38,0,0,0,142.61,62.71Z" fill="#231f20"/><path d="M146.61,67.74a26,26,0,0,1,2.21,6.11,9.51,9.51,0,0,1-.58,3.18,9.79,9.79,0,0,0-.53,3.44,13.63,13.63,0,0,0,.94,3.77,9.12,9.12,0,0,1,.67,3.68c-0.09.94-1.7,3.54-3.59,5.78a50.35,50.35,0,0,1-4.87,5.19,28.91,28.91,0,0,1-3.22,2.07c-1,.53-1.7,1.39-1.62,1.92a4.2,4.2,0,0,0,2.25,1.93,19.11,19.11,0,0,1,3.65,2.3,15,15,0,0,1,2.58,3c0.56,0.93,1.57,2.4,2.23,3.26s1.84,2.22,2.61,3a19.39,19.39,0,0,1,2.44,3.28,24.2,24.2,0,0,1,1.71,4.06,21.34,21.34,0,0,1,.77,4.3,16.78,16.78,0,0,1-.39,4,25.46,25.46,0,0,1-1.29,3.69,47.62,47.62,0,0,1-2.94,4.93c-1.17,1.74-2.51,3.88-3,4.75a17.4,17.4,0,0,1-4.51,5.4,27.7,27.7,0,0,1-3,2c-0.9.51-4.1,2-7.12,3.29s-6.23,2.61-7.15,2.91a24.15,24.15,0,0,1-3.2.78c-0.84.13-3.6,0.86-6.12,1.63s-5.29,1.54-6.17,1.71a10.55,10.55,0,0,1-6.16-.61,29.62,29.62,0,0,0-3-1,54.52,54.52,0,0,0-6-.81C91.76,160.51,89,160.17,88,160s-2.59-.61-3.65-0.93a26.86,26.86,0,0,1-3.7-1.5c-0.4-.21-1.13-0.65-2-1.23,1,0.8,2.77,2.11,4.56,3.4L84,160.26c2.56,1.83,5.45,3.74,6.42,4.24a26.86,26.86,0,0,0,3.7,1.5c1.06,0.32,2.71.74,3.65,0.93s3.74,0.53,6.21.75a54.52,54.52,0,0,1,6,.81,29.62,29.62,0,0,1,3,1,10.55,10.55,0,0,0,6.16.61c0.87-.17,3.65-0.94,6.17-1.71s5.27-1.5,6.12-1.63a24.15,24.15,0,0,0,3.2-.78c0.92-.3,4.13-1.61,7.15-2.91s6.22-2.78,7.12-3.29a27.7,27.7,0,0,0,3-2,17.4,17.4,0,0,0,4.51-5.4c0.47-.87,1.81-3,3-4.75a47.62,47.62,0,0,0,2.94-4.93,25.46,25.46,0,0,0,1.29-3.69,16.78,16.78,0,0,0,.39-4,21.34,21.34,0,0,0-.77-4.3,24.2,24.2,0,0,0-1.71-4.06,19.39,19.39,0,0,0-2.44-3.28c-0.77-.8-1.95-2.15-2.61-3s-1.67-2.33-2.23-3.26a15,15,0,0,0-2.58-3,19.11,19.11,0,0,0-3.65-2.3,4.2,4.2,0,0,1-2.25-1.93c-0.09-.53.64-1.39,1.62-1.92a28.91,28.91,0,0,0,3.22-2.07,50.35,50.35,0,0,0,4.87-5.19c1.88-2.24,3.5-4.84,3.59-5.78a9.12,9.12,0,0,0-.67-3.68,13.63,13.63,0,0,1-.94-3.77A9.79,9.79,0,0,1,158,84a9.51,9.51,0,0,0,.58-3.18,26,26,0,0,0-2.21-6.11A31.3,31.3,0,0,0,153,69a10.92,10.92,0,0,0-2.72-1.89c-0.87-.4-2.28-1.15-3.12-1.66l-1-.61c-0.64-.42-1.34-0.9-1.89-1.3C145,64.63,145.88,66.19,146.61,67.74Z" fill="#231f20"/></svg>