<svg xmlns="http://www.w3.org/2000/svg" width="112.01" height="200" viewBox="0 0 112.01 200"><title>_</title><path d="M7.62 130.05c.53.95 1.43 2.4 2 3.23s1.58 2.11 2.21 2.81a31.8 31.8 0 0 0 2.44 2.41c.71.61 3.41 2.64 5.91 4.42 1.43 1 3 2.1 4.35 3 .88.57 1.55 1 1.89 1.16a25.35 25.35 0 0 0 3.45 1.4c1 .31 2.61.72 3.51.9s3.66.51 6.05.73a55.89 55.89 0 0 1 6.23.85 31.44 31.44 0 0 1 3.16 1.04 11.6 11.6 0 0 0 2.61.66 11.4 11.4 0 0 0 2.69-.14c.81-.16 3.57-.92 6-1.67s5.3-1.52 6.33-1.68a22.77 22.77 0 0 0 3-.72c.87-.28 4.08-1.59 7-2.86s6.12-2.73 7-3.21a26 26 0 0 0 2.84-1.91 19.78 19.78 0 0 0 2.32-2.26 19.5 19.5 0 0 0 1.81-2.68c.49-.91 1.86-3.1 3.05-4.87a46.66 46.66 0 0 0 2.8-4.66 23.92 23.92 0 0 0 1.2-3.43 15.42 15.42 0 0 0 .35-3.58 19.93 19.93 0 0 0-.7-3.94 22.74 22.74 0 0 0-1.58-3.75 17.74 17.74 0 0 0-2.21-3c-.81-.84-2-2.25-2.72-3.14s-1.74-2.42-2.33-3.4A13.59 13.59 0 0 0 86 99.09 17.52 17.52 0 0 0 82.7 97c-.29-.13-2.82-1.35-3.1-3-.23-1.39 1-2.75 2.38-3.48a27.54 27.54 0 0 0 3-1.94 50.29 50.29 0 0 0 4.64-5 18.58 18.58 0 0 0 3.24-5 7.76 7.76 0 0 0-.56-2.94 15.12 15.12 0 0 1-1.06-4.27 11.15 11.15 0 0 1 .63-4.06 8.13 8.13 0 0 0 .47-2.57 27 27 0 0 0-2.07-5.53c-.68-1.44-1.49-3-2.18-4.1a8.35 8.35 0 0 0-.83-1.22A9.61 9.61 0 0 0 85 52.32c-.91-.42-2.38-1.2-3.27-1.73s-2.3-1.49-3.16-2.13-2.12-1.47-3-1.95-2.28-1.2-3.18-1.58a21.63 21.63 0 0 0-3.4-1c-1-.2-6.4-.77-11.76-1.23l-1.64-.14c-5.52-.56-10.27-.81-11.59-.81h-.2a35.68 35.68 0 0 0-4.07.45c-1.14.21-3.78.85-5.88 1.44a23.43 23.43 0 0 0-5 2 15.93 15.93 0 0 0-2.7 2.36 15.63 15.63 0 0 1-3.32 2.9 14 14 0 0 1-4 1.51 10.54 10.54 0 0 0-2.88 1.06 9.48 9.48 0 0 0-2.14 2 32.79 32.79 0 0 0-1.87 2.89 34 34 0 0 0-1.5 3.15 34.91 34.91 0 0 0-1.11 3.33 34.39 34.39 0 0 0-.68 3.44 30.72 30.72 0 0 0-.21 3.64c0 1 .15 2.89.31 4a28.76 28.76 0 0 0 .82 3.82 19.24 19.24 0 0 0 1.31 3.08c.45.78 1.24 2 1.75 2.71a29.83 29.83 0 0 0 2 2.36 24.93 24.93 0 0 0 2.13 2A21 21 0 0 0 19 91.4a3.42 3.42 0 0 1 1.89 3.16 5.82 5.82 0 0 1-2.19 3.13 29.36 29.36 0 0 0-2.7 2.42 67.72 67.72 0 0 0-4.11 5.65 39.74 39.74 0 0 0-3.37 5.85 19.09 19.09 0 0 0-.67 3.46c-.1 1.18-.51 4-.91 6.27a24.81 24.81 0 0 0-.43 5.52 11.73 11.73 0 0 0 1.11 3.19z"/><path d="M93.88 64.69a9.51 9.51 0 0 1-.58 3.18 9.79 9.79 0 0 0-.53 3.44 13.63 13.63 0 0 0 .94 3.77 9.12 9.12 0 0 1 .67 3.68c-.09.94-1.7 3.54-3.59 5.78a50.35 50.35 0 0 1-4.87 5.19 28.91 28.91 0 0 1-3.22 2.07c-1 .53-1.7 1.39-1.62 1.92a4.2 4.2 0 0 0 2.25 1.93A19.11 19.11 0 0 1 87 97.94a15 15 0 0 1 2.58 3c.56.93 1.57 2.4 2.23 3.26s1.84 2.22 2.61 3a19.39 19.39 0 0 1 2.44 3.28 24.2 24.2 0 0 1 1.71 4.06 21.34 21.34 0 0 1 .77 4.3 16.78 16.78 0 0 1-.39 4 25.46 25.46 0 0 1-1.29 3.69 47.62 47.62 0 0 1-2.94 4.93c-1.17 1.74-2.51 3.88-3 4.75a17.4 17.4 0 0 1-4.51 5.4 27.7 27.7 0 0 1-3 2c-.9.51-4.1 2-7.12 3.29s-6.23 2.61-7.15 2.91a24.15 24.15 0 0 1-3.2.78c-.84.13-3.6.86-6.12 1.63s-5.29 1.54-6.17 1.71a12.94 12.94 0 0 1-3.12.16 13 13 0 0 1-3-.77 29.62 29.62 0 0 0-3-1 54.52 54.52 0 0 0-6-.81c-2.47-.23-5.26-.56-6.21-.75s-2.59-.61-3.65-.93a26.86 26.86 0 0 1-3.7-1.5c-.4-.21-1.13-.65-2-1.23 1 .8 2.77 2.11 4.56 3.4l.67.6c2.56 1.83 5.45 3.74 6.42 4.24a26.86 26.86 0 0 0 3.7 1.5c1.06.32 2.71.74 3.65.93s3.74.53 6.21.75a54.52 54.52 0 0 1 6 .81 29.62 29.62 0 0 1 3 1 13 13 0 0 0 3 .77 12.94 12.94 0 0 0 3.12-.16c.87-.17 3.65-.94 6.17-1.71s5.27-1.5 6.12-1.63a24.15 24.15 0 0 0 3.2-.78c.92-.3 4.13-1.61 7.15-2.91s6.22-2.78 7.12-3.29a27.7 27.7 0 0 0 3-2 17.4 17.4 0 0 0 4.51-5.4c.47-.87 1.81-3 3-4.75a47.62 47.62 0 0 0 2.94-4.93 25.46 25.46 0 0 0 1.29-3.69 16.78 16.78 0 0 0 .39-4 21.34 21.34 0 0 0-.77-4.3 24.2 24.2 0 0 0-1.71-4.06 19.39 19.39 0 0 0-2.44-3.28c-.77-.8-1.95-2.15-2.61-3s-1.67-2.33-2.23-3.26a15 15 0 0 0-2.58-3 19.11 19.11 0 0 0-3.65-2.3 4.2 4.2 0 0 1-2.25-1.93c-.09-.53.64-1.39 1.62-1.92a28.91 28.91 0 0 0 3.22-2.07 50.35 50.35 0 0 0 4.87-5.19c1.88-2.24 3.5-4.84 3.59-5.78a9.12 9.12 0 0 0-.67-3.68 13.63 13.63 0 0 1-.94-3.77 9.79 9.79 0 0 1 .53-3.44 9.51 9.51 0 0 0 .58-3.18 26 26 0 0 0-2.21-6.11 31.3 31.3 0 0 0-3.29-5.73 10.92 10.92 0 0 0-2.72-1.89c-.87-.4-2.28-1.15-3.12-1.66l-1-.61c-.64-.42-1.34-.9-1.89-1.3.68 1.13 1.52 2.7 2.25 4.24a26 26 0 0 1 2.31 6.06z"/></svg>