<svg xmlns="http://www.w3.org/2000/svg" width="101.8" height="200" viewBox="0 0 101.8 200"><title>_</title><path d="M7.77 99.39l2.84 2.88a105.08 105.08 0 0 0 8.39 7.9 23.49 23.49 0 0 0 3.4 1.62l.47.21c1.31.44 3.67 1.12 5.61 1.62a49 49 0 0 0 5.94 1.21 25.64 25.64 0 0 0 3.56 0c1-.09 2.51-.3 3.4-.47s2.32-.52 3.14-.77a18.11 18.11 0 0 0 2.75-1.16 18.56 18.56 0 0 0 2.48-1.7 23.55 23.55 0 0 1 2.84-2 18.82 18.82 0 0 1 3-1.35 4 4 0 0 1 3.83.81 9.05 9.05 0 0 1 1.88 3.94 11.44 11.44 0 0 1-.08 5 11.21 11.21 0 0 1-2.6 4.21c-.26.25-.55.56-.85.89a25.38 25.38 0 0 0-1.77 2.14 20.25 20.25 0 0 0-1.76 3.21 9.61 9.61 0 0 1-2.58 3.48 10.52 10.52 0 0 1-4.07 1.72 32.71 32.71 0 0 1-3.8.42A15 15 0 0 1 41 133l-.35-.06a15.4 15.4 0 0 0-2-.31 17.55 17.55 0 0 0-2.16 0 4.39 4.39 0 0 1-3-.91 3.46 3.46 0 0 1-.75-1.06 5.58 5.58 0 0 1-.56-1.85 7.25 7.25 0 0 0-.48-1.81 4 4 0 0 0-.84-1.1 5.79 5.79 0 0 0-1.57-.73 63.53 63.53 0 0 0-6.64-.73 53.07 53.07 0 0 0-7.15-.14 19.26 19.26 0 0 0-3.37.9c-1.05.41-2.75 1-3.77 1.23a37.29 37.29 0 0 1-3.7.75 3.46 3.46 0 0 0-1.5.59 2.41 2.41 0 0 0-.1 1.18 25.51 25.51 0 0 0 .83 3c.3.84.93 2.31 1.38 3.2a17.77 17.77 0 0 0 1.82 2.82A15.14 15.14 0 0 0 9.37 140a34.71 34.71 0 0 1 2.86 2.33 36 36 0 0 1 2.57 2.71 16.89 16.89 0 0 0 2.31 2.19 17.3 17.3 0 0 0 2.78 1.62 11.69 11.69 0 0 0 1.91.6 9 9 0 0 0 1.09.19 13.84 13.84 0 0 0 3.27-.19 31.24 31.24 0 0 1 4-.5h.47c1.41 0 4.35.16 7 .38a62.91 62.91 0 0 1 7.49 1 24.63 24.63 0 0 1 3.88 1.49 7.33 7.33 0 0 0 2.73.68 6.23 6.23 0 0 0 2.5-.82 26.07 26.07 0 0 1 3.46-1.79 23 23 0 0 1 3.62-1.07 18.75 18.75 0 0 0 2.91-.85 16 16 0 0 0 2.5-1.36c.67-.46 2.28-1.76 3.52-2.84s3-2.51 3.78-3A31.47 31.47 0 0 1 77 139a13.71 13.71 0 0 0 2.37-1.63 14.32 14.32 0 0 0 1.9-2.23c.5-.76 1.24-2 1.66-2.8s1-2.11 1.39-2.93 1.58-4.56 2.7-8.2a62.07 62.07 0 0 0 2.13-8.31 20.58 20.58 0 0 0-.21-3.56 14.5 14.5 0 0 1 .07-4.43 16.48 16.48 0 0 1 1.65-4.26 7.76 7.76 0 0 0 .93-2.89 5.49 5.49 0 0 0-.73-2.48 17.88 17.88 0 0 1-1.68-3.52 14.17 14.17 0 0 1-.58-3.63 27.79 27.79 0 0 1 .27-3.48 33.17 33.17 0 0 1 .8-3.58 14.17 14.17 0 0 0 .47-3 12.2 12.2 0 0 0-.37-2.82 16.86 16.86 0 0 0-1.13-2.79 19.74 19.74 0 0 0-1.79-2.64 19.8 19.8 0 0 1-2.12-3.26 19.6 19.6 0 0 1-1.29-3.66 11.4 11.4 0 0 0-1.09-2.75 11.09 11.09 0 0 0-1.92-2.21c-.3-.25-.75-.66-1.26-1.14-.82-.77-1.77-1.7-2.53-2.49a23.32 23.32 0 0 0-3.35-2.92 11.51 11.51 0 0 0-2.58-1A14.58 14.58 0 0 1 67.2 49a15.35 15.35 0 0 1-2.94-2.38 7.61 7.61 0 0 0-2.19-1.52 8.63 8.63 0 0 0-2.84-.46c-1.07 0-2.8 0-3.87-.08s-2.72-.27-3.73-.45-2.63-.55-3.63-.83-2.67-.81-3.69-1.2a9.44 9.44 0 0 0-3.12-.45 27.24 27.24 0 0 0-5.66 1.71 85.5 85.5 0 0 1-8.33 2.81 61.28 61.28 0 0 1-6.1 1.34 12.74 12.74 0 0 0-3.13.89 12.39 12.39 0 0 0-2.64 1.84c-.79.76-2.76 2.44-4.39 3.74s-3.43 2.84-4.12 3.52a34.87 34.87 0 0 0-2.42 2.64A13.49 13.49 0 0 0 2.74 63 90.42 90.42 0 0 0 1.3 74.45l-.51 6.13C.28 86.68.32 90.84.48 91.36a89.19 89.19 0 0 0 7.29 8.03z"/><path d="M80.16 55.68c.48.45.91.84 1.19 1.08a12.55 12.55 0 0 1 2.24 2.58 12.86 12.86 0 0 1 1.27 3.2A18.14 18.14 0 0 0 86 65.88a18.33 18.33 0 0 0 1.93 3 21.25 21.25 0 0 1 2 2.89 18.49 18.49 0 0 1 1.25 3.09 13.63 13.63 0 0 1 .42 3.25 15.54 15.54 0 0 1-.53 3.39 31.51 31.51 0 0 0-.75 3.39 26.14 26.14 0 0 0-.25 3.25 12.64 12.64 0 0 0 .51 3.18 16.45 16.45 0 0 0 1.52 3.17 7 7 0 0 1 1 3.32 9.14 9.14 0 0 1-1.13 3.61 15 15 0 0 0-1.48 3.8 13 13 0 0 0-.06 3.89 22 22 0 0 1 .23 3.88 60.91 60.91 0 0 1-2.2 8.68c-1.16 3.72-2.39 7.47-2.75 8.33s-1 2.23-1.45 3.06-1.21 2.14-1.73 2.92a15.67 15.67 0 0 1-2.14 2.52 15.1 15.1 0 0 1-2.69 1.85 29.75 29.75 0 0 0-2.83 1.65c-.72.5-2.37 1.82-3.66 2.94s-2.93 2.44-3.64 2.93a17.57 17.57 0 0 1-2.79 1.51 20.25 20.25 0 0 1-3.19.94 21.62 21.62 0 0 0-3.34 1 24.35 24.35 0 0 0-3.25 1.63 7.71 7.71 0 0 1-3.22 1.05 8.63 8.63 0 0 1-3.46-.84 22.84 22.84 0 0 0-3.58-1.38 61.89 61.89 0 0 0-7.22-.93c-3-.25-6.26-.41-7.28-.37a29.5 29.5 0 0 0-3.78.47 15.21 15.21 0 0 1-3.72.22 10.5 10.5 0 0 1-1.28-.22c.38.37.78.8 1.16 1.21s.53.58.73.83a18.47 18.47 0 0 0 2.56 2.43 18.93 18.93 0 0 0 3.09 1.79 13.54 13.54 0 0 0 3.46.91 15.21 15.21 0 0 0 3.72-.22 29.5 29.5 0 0 1 3.78-.47c1 0 4.3.12 7.28.37a61.89 61.89 0 0 1 7.22.93 22.84 22.84 0 0 1 3.54 1.38 8.63 8.63 0 0 0 3.46.84 7.71 7.71 0 0 0 3.26-1.05 24.35 24.35 0 0 1 3.28-1.67 21.62 21.62 0 0 1 3.34-1 20.25 20.25 0 0 0 3.19-.94 17.57 17.57 0 0 0 2.79-1.51c.71-.5 2.35-1.82 3.64-2.93s2.94-2.44 3.66-2.94a29.75 29.75 0 0 1 2.79-1.67 15.1 15.1 0 0 0 2.69-1.85 15.67 15.67 0 0 0 2.14-2.52c.51-.78 1.29-2.1 1.73-2.92s1.09-2.2 1.45-3.06 1.6-4.61 2.75-8.33a60.91 60.91 0 0 0 2.2-8.68 22 22 0 0 0-.23-3.88 13 13 0 0 1 .06-3.89 15 15 0 0 1 1.48-3.8 9.14 9.14 0 0 0 1.13-3.61 7 7 0 0 0-1-3.32 16.45 16.45 0 0 1-1.52-3.17 12.64 12.64 0 0 1-.51-3.21 26.14 26.14 0 0 1 .25-3.25 31.51 31.51 0 0 1 .75-3.39 15.54 15.54 0 0 0 .53-3.39 13.63 13.63 0 0 0-.42-3.25 18.49 18.49 0 0 0-1.25-3.09 21.25 21.25 0 0 0-2-2.89 18.33 18.33 0 0 1-1.93-3 18.14 18.14 0 0 1-1.17-3.33 12.86 12.86 0 0 0-1.27-3.2 12.55 12.55 0 0 0-2.24-2.58c-.75-.62-2.4-2.21-3.67-3.52A24.08 24.08 0 0 0 83.72 57a10.54 10.54 0 0 0-1.27-.6 12.34 12.34 0 0 0-1.73-.57z"/><path d="M34.48 130.62a2.91 2.91 0 0 0 1.91.52 19.3 19.3 0 0 1 2.39 0 17 17 0 0 1 2.26.35h.27a7.51 7.51 0 0 0-1.89-.86 48.18 48.18 0 0 0-5.35-.65 2.17 2.17 0 0 0 .41.64zM47.82 123.22c1-.09 2.6-.31 3.54-.49s2.42-.54 3.3-.81a19.09 19.09 0 0 0 2-.76c.32-.35.63-.69.91-1a9.84 9.84 0 0 0 2.21-3.56 10.08 10.08 0 0 0 .05-4.22 7.76 7.76 0 0 0-1.46-3.19 2.53 2.53 0 0 0-2.32-.46 17.44 17.44 0 0 0-2.72 1.27 22 22 0 0 0-2.62 1.85 20.06 20.06 0 0 1-2.71 1.86 19.61 19.61 0 0 1-3 1.29c-.87.27-2.36.63-3.3.81s-2.53.4-3.54.49a27.35 27.35 0 0 1-3.82 0 49.87 49.87 0 0 1-6.24-1.3c-2-.52-4.4-1.21-5.71-1.65l1.61 1.58a41.68 41.68 0 0 0 3.92 3.46 25 25 0 0 0 3.66 1.75c1.11.41 3.91 1.23 6.22 1.83a49.87 49.87 0 0 0 6.2 1.26 27.35 27.35 0 0 0 3.82-.01z"/></svg>