<svg xmlns="http://www.w3.org/2000/svg" width="200" height="200" viewBox="0 0 200 200"><title>_</title><path d="M109.56 131.59v-3.32a19 19 0 0 0-.54-5.22 4.86 4.86 0 0 0-2.4-1 22.9 22.9 0 0 0-4 0 23.46 23.46 0 0 0-3.91.81 28.37 28.37 0 0 1-4.26.94 77.78 77.78 0 0 1-8 .09 20 20 0 0 0-6.3.52 4.84 4.84 0 0 0-1.15 2.08 14.75 14.75 0 0 0-.39 3.34 18.3 18.3 0 0 0 .54 3.61 27.87 27.87 0 0 1 .73 4.14 72.78 72.78 0 0 1-.39 8.21 20.38 20.38 0 0 0 .16 6.3 38.3 38.3 0 0 0 8.48.64h1.77l8.68-.15c5.64-.09 9.68-.6 10.43-.92a4.16 4.16 0 0 0 .76-2.19c0-1 0-3.68-.2-5.79s-.16-7.68-.01-12.09zM109.58 94.69c-.16-2.21-.17-7.63 0-12.08v-3.33a19 19 0 0 0-.54-5.22 4.87 4.87 0 0 0-2.4-1 22.69 22.69 0 0 0-4 0 23.11 23.11 0 0 0-3.9.82 28.18 28.18 0 0 1-4.26 1 75.12 75.12 0 0 1-8 .09 19.87 19.87 0 0 0-6.3.52A4.87 4.87 0 0 0 79 77.52a14.65 14.65 0 0 0-.39 3.33 18.18 18.18 0 0 0 .55 3.6 27.67 27.67 0 0 1 .74 4.15 70.49 70.49 0 0 1-.39 8.21 20.37 20.37 0 0 0 .16 6.3 38.22 38.22 0 0 0 8.48.64h1.75l8.68-.15c5.64-.09 9.68-.6 10.43-.92a4.16 4.16 0 0 0 .77-2.19c0-1 0-3.68-.2-5.79z" fill="#231f20"/><path d="M120.49 156.45c0-1.07 0-3.73-.2-5.91s-.16-7.56 0-12-.18-8.54-.72-9.16a5.53 5.53 0 0 0-3.09-1.38 23.63 23.63 0 0 0-4.17 0l-.72.09-1 .17v3.38c-.15 4.41-.14 9.8 0 12s.25 4.83.2 5.91a4.87 4.87 0 0 1-1.13 2.93c-.58.54-5.55 1-11 1.14l-8.68.15h-1.83v1c-.08 2.48.13 4.56.55 5s5.47 1 11 .9l8.68-.15c5.5-.09 10.47-.61 11-1.14a4.87 4.87 0 0 0 1.11-2.93zM120.29 101.57c-.16-2.17-.16-7.56 0-12s-.17-8.54-.72-9.17a5.53 5.53 0 0 0-3.1-1.4 23.48 23.48 0 0 0-4.17 0l-.72.1-1 .17v3.38c-.15 4.41-.14 9.8 0 12s.25 4.83.2 5.91a4.87 4.87 0 0 1-1.13 2.93c-.58.54-5.55 1.05-11 1.14l-8.68.15h-1.81v1c-.08 2.48.12 4.56.54 5s5.47 1 11 .9l8.68-.15c5.5-.09 10.47-.61 11-1.14a4.87 4.87 0 0 0 1.13-2.93c.03-1.06-.07-3.72-.22-5.89z" fill="#231f20"/></svg>