<svg xmlns="http://www.w3.org/2000/svg" width="80.71" height="200" viewBox="0 0 80.71 200"><title>_</title><path d="M21.12 153.56a43.91 43.91 0 0 0 8.07.54h1.73l8.68-.15a53.14 53.14 0 0 0 10.14-.85 3.9 3.9 0 0 0 .57-1.79c0-1 0-3.63-.2-5.73s-.17-7.66 0-12.13v-3.29a22.4 22.4 0 0 0-.46-4.94 4.78 4.78 0 0 0-2-.78 21.88 21.88 0 0 0-3.85 0 22.74 22.74 0 0 0-3.8.79 29 29 0 0 1-4.35 1 77.87 77.87 0 0 1-8.05.09 20.82 20.82 0 0 0-6 .46 4.62 4.62 0 0 0-1 1.78 14.36 14.36 0 0 0-.37 3.2 17.69 17.69 0 0 0 .52 3.49 28.4 28.4 0 0 1 .75 4.23 73 73 0 0 1-.39 8.29 23.23 23.23 0 0 0 .01 5.79zM21.45 90.44a70.75 70.75 0 0 1-.39 8.3 23.24 23.24 0 0 0 .07 5.86 43.87 43.87 0 0 0 8.07.54h1.73l8.67-.14a53.14 53.14 0 0 0 10.14-.85 3.9 3.9 0 0 0 .57-1.79c0-1 0-3.64-.2-5.73-.16-2.23-.17-7.67 0-12.13v-3.3a22.42 22.42 0 0 0-.46-4.94 4.79 4.79 0 0 0-2-.78 22 22 0 0 0-3.85 0 22.54 22.54 0 0 0-3.8.8 28.78 28.78 0 0 1-4.36 1 75.09 75.09 0 0 1-8 .09 20.32 20.32 0 0 0-6 .46 4.66 4.66 0 0 0-1 1.78 14.28 14.28 0 0 0-.38 3.2 17.55 17.55 0 0 0 .53 3.48 28.22 28.22 0 0 1 .66 4.15z"/><path d="M40.66 162.54l8.68-.15c5.5-.09 10.47-.61 11-1.14a4.87 4.87 0 0 0 1.13-2.93c0-1.07 0-3.73-.2-5.91s-.16-7.56 0-12-.18-8.54-.72-9.16a5.53 5.53 0 0 0-3.09-1.38 23.65 23.65 0 0 0-4.17 0l-.72.09-1 .17v3.38c-.15 4.41-.14 9.8 0 12s.25 4.83.2 5.91a4.87 4.87 0 0 1-1.13 2.93c-.58.54-5.55 1-11 1.14l-8.68.15h-1.77v1c-.08 2.48.13 4.56.55 5s5.42.99 10.92.9zM61.32 103.44c-.16-2.17-.16-7.56 0-12s-.17-8.54-.72-9.17a5.53 5.53 0 0 0-3.09-1.39 23.47 23.47 0 0 0-4.17 0l-.72.1-1 .17v3.38c-.15 4.41-.14 9.8 0 12s.25 4.83.2 5.91a4.87 4.87 0 0 1-1.13 2.93c-.58.54-5.55 1.05-11 1.14l-8.68.15h-1.82v1c-.08 2.48.12 4.56.54 5s5.47 1 11 .9l8.68-.15c5.5-.09 10.47-.61 11-1.14a4.87 4.87 0 0 0 1.13-2.93c.03-1.07-.06-3.72-.22-5.9z"/></svg>