<svg xmlns="http://www.w3.org/2000/svg" width="76.71" height="200" viewBox="0 0 76.71 200"><title>_</title><path d="M22.36 86.83a100.47 100.47 0 0 1 .14 12 36.21 36.21 0 0 1-1.15 4.53 4.14 4.14 0 0 0-.22 1.29 4.11 4.11 0 0 0 1.33-.22 29.26 29.26 0 0 1 4.68-1c.34 0 .87-.06 1.59-.06h2.11c2.07.06 4.63.2 7 .37 4.72.34 9.44.82 10.75 1.09a3.91 3.91 0 0 0 2.08-.1 3.48 3.48 0 0 0 .39-1.81c-.06-1.18-.24-3-.4-4.15s-.49-2.88-.74-3.93a17.16 17.16 0 0 1-.37-4.42 18.16 18.16 0 0 1 1-4.39 11.67 11.67 0 0 0 .67-3.26 7.24 7.24 0 0 0-.18-1.46 7 7 0 0 0-.4-1.33 8.71 8.71 0 0 0-1.59-2.25 8.91 8.91 0 0 0-2.39-1.42 16.68 16.68 0 0 0-3.19-.74c-.71-.08-5.42.1-11.48.59a66.28 66.28 0 0 0-9.6 1.3 61 61 0 0 0-.03 9.37zM22 176a13.86 13.86 0 0 0-.11 1.47 10 10 0 0 1-.3 2.14 14.22 14.22 0 0 1-.57 1.61 8.11 8.11 0 0 0 1.14-.08 24 24 0 0 0 3.45-.81 19.69 19.69 0 0 0 3-1.35 14.46 14.46 0 0 1 1.46-.72 15.5 15.5 0 0 1 2-.75 16.5 16.5 0 0 1 3.7-.43 4.08 4.08 0 0 0 2-.48 4.77 4.77 0 0 0 1.29-1.69 11.62 11.62 0 0 1 2.07-3.16 10.77 10.77 0 0 1 3.1-2.06 7.6 7.6 0 0 0 2-1.32 6.59 6.59 0 0 0 1.18-1.92c.26-.74.65-2 .84-2.85s.46-2.25.58-3.14c.09-.67.13-5.35 0-11.47l-.16-6.92c-.11-4.61-.09-9.2 0-11.17a8.82 8.82 0 0 1 .1-.94 29.35 29.35 0 0 1 1.12-4 2.85 2.85 0 0 0 .17-1.31 4.58 4.58 0 0 0-1.74-.24c-1.17.07-4 .46-6.23.86a41.21 41.21 0 0 1-6.54.68 20.83 20.83 0 0 1-4.46-.79 15.19 15.19 0 0 0-3.5-.59 11 11 0 0 0-3.12.5 7.45 7.45 0 0 0-2.29 1.38 6.65 6.65 0 0 0-1.27 2.2 19.23 19.23 0 0 0-.62 3.2c-.07.82 0 5.74.27 11.51a102.87 102.87 0 0 0 .79 10.47 1.28 1.28 0 0 0 .17.15 9.23 9.23 0 0 0 1.39 0 10.54 10.54 0 0 0 1.56-.33 12.22 12.22 0 0 1 2.18-.43 15.69 15.69 0 0 1 2.57.19c.49.06 1 .14 1.51.23 3.14.55 3.67 1 4 1.47a2.15 2.15 0 0 1-.4 2.62 2.63 2.63 0 0 0 .4.89 5.51 5.51 0 0 1 .91 2.35 3.33 3.33 0 0 1-.78 2.24l-.08.09a10.81 10.81 0 0 0-.84 1 10 10 0 0 0-.64 1 3.56 3.56 0 0 1-1.83 1.58 5.35 5.35 0 0 1-2.4.09 1.61 1.61 0 0 0-.55 0 1.68 1.68 0 0 0-.28.49 5 5 0 0 1-1.34 2.15c-.8.66-2.78.8-4.3.8h-.9a6.81 6.81 0 0 1 .64 1.62 5.66 5.66 0 0 1-.06 2.42A14.6 14.6 0 0 0 22 176z"/><path d="M61.67 93.54a13.1 13.1 0 0 0 .77-3.78 9.71 9.71 0 0 0-.72-3.41 10.09 10.09 0 0 0-1.94-2.73 10.28 10.28 0 0 0-2.89-1.73 18.51 18.51 0 0 0-3.36-.8h-1.02a8.76 8.76 0 0 1 .21 1.78A13.1 13.1 0 0 1 52 86.6a16.73 16.73 0 0 0-.9 4 15.7 15.7 0 0 0 .34 4c.26 1.09.61 2.92.77 4.07s.35 3.08.41 4.29a4.19 4.19 0 0 1-1 3.06 4.7 4.7 0 0 1-3.31.4c-1.24-.26-6-.73-10.55-1.06-2.48-.18-5-.31-7-.36 0 .27 0 .48-.06.63s0 .24-.07.37a35.54 35.54 0 0 1-1 3.94c-.41 1.21-.4 2.54 0 3s1.75.42 3 0a27.35 27.35 0 0 1 4.38-1 98.93 98.93 0 0 1 10.45.35c4.57.33 9.32.81 10.55 1.06a4.7 4.7 0 0 0 3.31-.4 4.19 4.19 0 0 0 1-3.06c-.06-1.21-.25-3.14-.41-4.29s-.51-3-.77-4.07a15.7 15.7 0 0 1-.34-4 16.73 16.73 0 0 1 .87-3.99zM61.06 133.49a3.29 3.29 0 0 0-.05-2.81 4.36 4.36 0 0 0-3-.76c-1.23.07-4.12.47-6.42.88l-.34.06-1 .16c-.12 1.88-.14 6.38 0 11l.09 6.98c.13 5.5.12 10.77 0 11.71s-.4 2.42-.61 3.28-.61 2.22-.89 3a8.06 8.06 0 0 1-1.53 2.47 9 9 0 0 1-2.52 1.65 9.36 9.36 0 0 0-2.6 1.73 10.26 10.26 0 0 0-1.76 2.69 6.13 6.13 0 0 1-1.85 2.36 5.85 5.85 0 0 1-2.86.73 14.05 14.05 0 0 0-3.28.38 13.71 13.71 0 0 0-1.82.67 4.61 4.61 0 0 1 0 1.11 2.57 2.57 0 0 1-.06.31 16 16 0 0 0-.35 1.67 15.17 15.17 0 0 0-.13 1.67 8.51 8.51 0 0 1-.25 1.76 13.44 13.44 0 0 1-.74 1.94 1 1 0 0 0 .25 1.38 6.37 6.37 0 0 0 2.71.08 25.53 25.53 0 0 0 3.72-.87 21.17 21.17 0 0 0 3.23-1.48 15.17 15.17 0 0 1 3.13-1.32 14.05 14.05 0 0 1 3.28-.38 5.85 5.85 0 0 0 2.86-.73 6.13 6.13 0 0 0 1.85-2.36 10.26 10.26 0 0 1 1.76-2.69A9.36 9.36 0 0 1 54.5 178a9 9 0 0 0 2.5-1.62 8.06 8.06 0 0 0 1.53-2.47c.28-.79.68-2.15.89-3s.48-2.34.61-3.28.13-6.21 0-11.71L59.9 149c-.13-5.5-.08-10.81.11-11.79a27.65 27.65 0 0 1 1.05-3.72zM33.47 156a9.84 9.84 0 0 0-3-.82c-.48-.08-1-.16-1.45-.22 0 .35 0 .69.07 1a38.17 38.17 0 0 0 .57 5.37 1.94 1.94 0 0 0 1.34 1.12 9.75 9.75 0 0 0 1.19 0h.6c.24 0 .57-.08.89-.15a1.82 1.82 0 0 0 .45-1.19 4.1 4.1 0 0 0-.65-1.61 4.37 4.37 0 0 1-.68-1.58 1.6 1.6 0 0 1 .4-1.15.74.74 0 0 0 .27-.77z"/></svg>