<svg xmlns="http://www.w3.org/2000/svg" width="200" height="200" viewBox="0 0 200 200"><title>_</title><path d="M109.53,77.94a9.18,9.18,0,0,0-1.71-2.41A9.38,9.38,0,0,0,105.27,74a17.34,17.34,0,0,0-3.31-.77c-0.84-.09-5.79.13-11.57,0.59a59,59,0,0,0-10,1.41,54.27,54.27,0,0,0-.1,9.75,101.74,101.74,0,0,1,.15,11.91,35.65,35.65,0,0,1-1.13,4.46,4,4,0,0,0-.21,1.91,4.08,4.08,0,0,0,1.94-.2,28.72,28.72,0,0,1,4.58-1c0.35,0,.91-0.05,1.53-0.05s1.44,0,2.1,0c2.06,0.06,4.62.2,7,.37,4.7,0.34,9.39.81,10.69,1.08a4,4,0,0,0,2.48-.2,3.46,3.46,0,0,0,.58-2.23c-0.06-1.19-.24-3.07-0.4-4.2s-0.5-2.91-.75-4a16.58,16.58,0,0,1-.36-4.27,17.59,17.59,0,0,1,1-4.25,12.07,12.07,0,0,0,.7-3.43,7.77,7.77,0,0,0-.19-1.56A7.5,7.5,0,0,0,109.53,77.94Z" fill="#231f20"/><path d="M91.29,163.23a3.07,3.07,0,0,1-1.55,1.34,4.86,4.86,0,0,1-2.15.08,1.87,1.87,0,0,0-.91.08,1.94,1.94,0,0,0-.49.78A4.47,4.47,0,0,1,85,167.42c-0.81.67-3.46,0.68-4,.68a17.12,17.12,0,0,0-1.75.09l0,0.07a6.87,6.87,0,0,1,1,2.09,5.17,5.17,0,0,1-.06,2.18,15.1,15.1,0,0,0-.32,1.55,14.14,14.14,0,0,0-.12,1.54,9.55,9.55,0,0,1-.29,2,14.4,14.4,0,0,1-.8,2.12l0,0.08a7.94,7.94,0,0,0,2,0,24.69,24.69,0,0,0,3.54-.83,20.28,20.28,0,0,0,3.08-1.39,13.9,13.9,0,0,1,1.41-.7,15,15,0,0,1,2-.72,15.75,15.75,0,0,1,3.57-.41,4.49,4.49,0,0,0,2.28-.57,5.21,5.21,0,0,0,1.47-1.92,11.24,11.24,0,0,1,2-3,10.37,10.37,0,0,1,2.93-2,8.06,8.06,0,0,0,2.19-1.43,7.09,7.09,0,0,0,1.3-2.1c0.27-.75.66-2.08,0.86-2.91s0.47-2.29.59-3.19,0.13-5.71,0-11.55l-0.16-6.92c-0.11-4.6-.09-9.17,0-11.12a8.36,8.36,0,0,1,.09-0.88,28.78,28.78,0,0,1,1.1-3.87,2.77,2.77,0,0,0,.12-1.82,4.24,4.24,0,0,0-2.18-.4c-1.19.07-4.07,0.46-6.3,0.86a39.11,39.11,0,0,1-6.43.67,20.18,20.18,0,0,1-4.33-.77,15.57,15.57,0,0,0-3.64-.61,11.65,11.65,0,0,0-3.29.53,7.91,7.91,0,0,0-2.48,1.5,7.15,7.15,0,0,0-1.4,2.4,19.83,19.83,0,0,0-.64,3.3c-0.08.85,0,5.71,0.27,11.57a100.55,100.55,0,0,0,.81,10.6,1.07,1.07,0,0,0,.52.49,9.36,9.36,0,0,0,1.57,0,10.89,10.89,0,0,0,1.65-.35,11.85,11.85,0,0,1,2.07-.41,15.48,15.48,0,0,1,2.46.18c0.48,0.06,1,.14,1.49.23,3.19,0.56,3.48,1,3.64,1.25a1.67,1.67,0,0,1-.39,2.06,0.72,0.72,0,0,0-.11.34,3.69,3.69,0,0,0,.51,1.12,5,5,0,0,1,.82,2.1,2.81,2.81,0,0,1-.66,1.88l-0.08.09a10.93,10.93,0,0,0-.86,1A10.5,10.5,0,0,0,91.29,163.23Z" fill="#231f20"/><path d="M110.95,79.16a8.76,8.76,0,0,1,.21,1.78,13.1,13.1,0,0,1-.77,3.78,16.74,16.74,0,0,0-.9,4,15.7,15.7,0,0,0,.34,4c0.26,1.09.61,2.92,0.77,4.07S111,99.8,111,101a4.19,4.19,0,0,1-1,3.06,4.7,4.7,0,0,1-3.31.4c-1.24-.26-6-0.73-10.55-1.06-2.48-.18-5-0.31-7-0.36,0,0.27,0,.48-0.06.63s0,0.24-.07.37a35.57,35.57,0,0,1-1,3.94c-0.41,1.21-.4,2.54,0,3s1.75,0.42,3,0a27.38,27.38,0,0,1,4.38-1,99.07,99.07,0,0,1,10.45.35c4.57,0.33,9.32.81,10.55,1.06a4.7,4.7,0,0,0,3.31-.4,4.19,4.19,0,0,0,1-3.06c-0.06-1.21-.25-3.14-0.41-4.29s-0.51-3-.77-4.07a15.7,15.7,0,0,1-.34-4,16.74,16.74,0,0,1,.9-4,13.1,13.1,0,0,0,.77-3.78,9.71,9.71,0,0,0-.72-3.41,10.09,10.09,0,0,0-1.94-2.73A10.29,10.29,0,0,0,115.33,80a18.49,18.49,0,0,0-3.36-.8l-0.19,0C111.62,79.17,111.33,79.16,110.95,79.16Z" fill="#231f20"/><path d="M108.62,140.17l0.16,6.92c0.13,5.5.12,10.77,0,11.71s-0.4,2.42-.61,3.28-0.61,2.22-.89,3a8.05,8.05,0,0,1-1.53,2.47,9,9,0,0,1-2.52,1.65,9.36,9.36,0,0,0-2.6,1.73,10.25,10.25,0,0,0-1.76,2.69A6.13,6.13,0,0,1,97,176a5.84,5.84,0,0,1-2.86.73,14,14,0,0,0-3.28.38,13.64,13.64,0,0,0-1.82.67,4.61,4.61,0,0,1,0,1.11,2.57,2.57,0,0,1-.06.31,16,16,0,0,0-.35,1.67,15.17,15.17,0,0,0-.13,1.67,8.51,8.51,0,0,1-.25,1.76,13.43,13.43,0,0,1-.74,1.94,1,1,0,0,0,.25,1.38,6.36,6.36,0,0,0,2.71.08,25.5,25.5,0,0,0,3.72-.87,21.16,21.16,0,0,0,3.27-1.48,15.16,15.16,0,0,1,3.13-1.32,14,14,0,0,1,3.28-.38,5.84,5.84,0,0,0,2.86-.73,6.13,6.13,0,0,0,1.85-2.36,10.25,10.25,0,0,1,1.76-2.69,9.36,9.36,0,0,1,2.6-1.73,9,9,0,0,0,2.52-1.65A8.05,8.05,0,0,0,117,172c0.28-.79.68-2.15,0.89-3s0.48-2.34.61-3.28,0.13-6.21,0-11.71l-0.16-6.92c-0.13-5.5-.08-10.81.11-11.79a27.63,27.63,0,0,1,1.05-3.71,3.29,3.29,0,0,0-.05-2.81,4.36,4.36,0,0,0-3-.76c-1.23.07-4.12,0.47-6.42,0.88l-0.34.06-1,.16C108.53,131,108.51,135.52,108.62,140.17Z" fill="#231f20"/><path d="M92.13,160.42a1.82,1.82,0,0,0,.45-1.19,4.1,4.1,0,0,0-.65-1.61,4.37,4.37,0,0,1-.68-1.58,1.6,1.6,0,0,1,.4-1.15,0.74,0.74,0,0,0,.26-0.8,9.84,9.84,0,0,0-3-.82c-0.48-.09-1-0.16-1.45-0.22,0,0.35,0,.69.07,1a38.16,38.16,0,0,0,.57,5.37,1.94,1.94,0,0,0,1.33,1.13,9.74,9.74,0,0,0,1.19,0l0.6,0C91.48,160.55,91.8,160.49,92.13,160.42Z" fill="#231f20"/></svg>