<svg xmlns="http://www.w3.org/2000/svg" width="116.61" height="200" viewBox="0 0 116.61 200"><title>_</title><path d="M90.33 74.24c0-.37.06-.9.06-1.3a6.12 6.12 0 0 0-1 .25c-.75.25-2.8 1.1-4.47 1.85a45.1 45.1 0 0 1-5.12 2 27.22 27.22 0 0 1-3.89.67 9.26 9.26 0 0 0-5.66 2.49 16.8 16.8 0 0 1-3.35 2.31 16.23 16.23 0 0 1-3.9 1.18 21 21 0 0 0-3.22.85A20.24 20.24 0 0 0 56.85 86a32.65 32.65 0 0 1-3.35 1.79 32.63 32.63 0 0 1-3.57 1.3 31.2 31.2 0 0 0-3.18 1.15 30.41 30.41 0 0 0-3 1.57c-1.07.66-6.49 2.95-11.05 4.77l-8.45 3.38a70.47 70.47 0 0 0-9.25 4.23 1.59 1.59 0 0 0 0 .82 20.68 20.68 0 0 1 .81 2.57 22 22 0 0 1 .15 4.36 42.28 42.28 0 0 1-.58 5.21 3.61 3.61 0 0 0 0 1.75 7.17 7.17 0 0 0 1.84.93c.94.31 3.28.92 5.23 1.37.53.12 1.09.26 1.64.4a31.27 31.27 0 0 1 3.91 1.23 55.5 55.5 0 0 1 6.33 4.11c2.56 1.86 5.13 3.57 5.83 3.93s2.23 1.06 3.1 1.39a27.29 27.29 0 0 0 3.24.94 30.18 30.18 0 0 0 3.48.46 18.14 18.14 0 0 1 4 .77 90.14 90.14 0 0 1 9.66 5.57 71.79 71.79 0 0 0 8.95 5.09 16.57 16.57 0 0 0 3.32.39 13.79 13.79 0 0 1 4.18.71 12.93 12.93 0 0 1 3.55 2.18 16 16 0 0 0 2.6 1.84 12.88 12.88 0 0 0 2.74 1 5.32 5.32 0 0 0 1.49.09 27.47 27.47 0 0 1 .24-3.47 26.73 26.73 0 0 0 .2-3.32 14 14 0 0 0-.33-2.17 13.94 13.94 0 0 1-.37-2.87 14.87 14.87 0 0 1 .19-2.12c0-.3.1-.58.15-.82a1.93 1.93 0 0 0-.18-1.15 5.64 5.64 0 0 0-1.84-1.25c-.92-.39-2.46-.94-3.42-1.23s-2.55-.67-3.51-.85a27.81 27.81 0 0 1-3.85-1.05 27.34 27.34 0 0 1-3.59-1.71c-.86-.51-2.28-1.26-3.17-1.69s-2.37-1.06-3.29-1.4-2.59-1.08-3.55-1.56-2.48-1.38-3.37-2a18.65 18.65 0 0 0-3-1.54 19 19 0 0 0-3.31-.84c-1-.14-3.39-.62-5.39-1.09l-.28-.07a39.38 39.38 0 0 1-5.63-1.73 30.65 30.65 0 0 1-3.5-1.94c-1.14-.75-2.27-2.08-2.25-3.35s1.2-2.56 2.37-3.27a22.38 22.38 0 0 1 3.7-1.73 22.85 22.85 0 0 1 4-.91 14.25 14.25 0 0 0 3.21-.85 14.41 14.41 0 0 0 2.83-1.76 24.81 24.81 0 0 1 3.38-2.31 63.94 63.94 0 0 1 7.21-2.74c3-1 7.08-2.13 9.17-2.57a24.67 24.67 0 0 0 4.93-1.54 13.46 13.46 0 0 0 2.66-2.1 13.21 13.21 0 0 1 3.66-2.62 14.47 14.47 0 0 1 4.49-1 5.7 5.7 0 0 0 2.31-.56 1.54 1.54 0 0 0 .3-1 24.68 24.68 0 0 0-.42-2.65 20.21 20.21 0 0 0-.74-2.37v-.13a12.06 12.06 0 0 1-.65-2.76 11.1 11.1 0 0 1 .2-2.92c.08-.57.25-1.53.3-2.05z"/><path d="M91.94 151.35a1.51 1.51 0 0 1-.81 1.33 5.39 5.39 0 0 1-2.44 0 14.27 14.27 0 0 1-3.14-1.13 17.34 17.34 0 0 1-2.91-2.06 11.56 11.56 0 0 0-3.07-1.89 12.36 12.36 0 0 0-3.64-.62 18.07 18.07 0 0 1-3.72-.44c-1-.24-5.19-2.62-9.39-5.28a91.61 91.61 0 0 0-9.33-5.41 16.77 16.77 0 0 0-3.6-.7 31.32 31.32 0 0 1-3.69-.49 28.58 28.58 0 0 1-3.46-1 35.58 35.58 0 0 1-3.26-1.46c-.87-.46-3.58-2.28-6-4a55.15 55.15 0 0 0-6.06-4 29.35 29.35 0 0 0-3.65-1.2c0 .28-.09.53-.13.75s0 .16 0 .24a3.92 3.92 0 0 0 .38 2.72 7.16 7.16 0 0 0 2.54 1.43c1 .32 3.39 1 5.37 1.41 1 .22 2 .5 3 .78a20.63 20.63 0 0 1 2.26.78 50.57 50.57 0 0 1 5.45 3.52l.61.44c2.44 1.77 5.15 3.59 6 4a35.58 35.58 0 0 0 3.26 1.46 28.58 28.58 0 0 0 3.46 1 31.32 31.32 0 0 0 3.69.49 16.77 16.77 0 0 1 3.6.7 5.69 5.69 0 0 1 .59.26c1.2.59 3.63 2 6.34 3.66l2.39 1.49c4.2 2.66 8.42 5 9.39 5.28a18.07 18.07 0 0 0 3.72.44 12.36 12.36 0 0 1 3.64.62 11.56 11.56 0 0 1 3.07 1.89 17.34 17.34 0 0 0 2.91 2.06 14.27 14.27 0 0 0 3.14 1.13 5.39 5.39 0 0 0 2.44 0 1.51 1.51 0 0 0 .81-1.33c0-.55.12-2.05.27-3.34a27.87 27.87 0 0 0 .21-3.57 15.28 15.28 0 0 0-.38-2.46 12.38 12.38 0 0 1-.32-2.51 13.7 13.7 0 0 1 .3-2.6 3.34 3.34 0 0 0-.42-2.35 6.79 6.79 0 0 0-2.49-1.77c-1-.41-2.58-1-3.57-1.28-.64-.19-1.54-.42-2.38-.61l-1-.21a13.35 13.35 0 0 0-.17 1.88A12.38 12.38 0 0 0 92 142a15.28 15.28 0 0 1 .38 2.46 27.87 27.87 0 0 1-.21 3.57c-.11 1.27-.23 2.77-.23 3.32zM89.08 90.2a13 13 0 0 0-3.94.88A11.71 11.71 0 0 0 82 93.34a14.84 14.84 0 0 1-3 2.39 25.56 25.56 0 0 1-5.34 1.69c-2 .43-6.1 1.57-9 2.53a62.83 62.83 0 0 0-7 2.64 23.07 23.07 0 0 0-3.13 2.15 15.73 15.73 0 0 1-3.2 2 15.57 15.57 0 0 1-3.63 1 21.55 21.55 0 0 0-3.7.83 21 21 0 0 0-3.4 1.6 3.28 3.28 0 0 0-1.64 2 3.33 3.33 0 0 0 1.58 2.08 28.79 28.79 0 0 0 3.3 1.83 38.63 38.63 0 0 0 5.35 1.63l.28.06a4.7 4.7 0 0 1 .85-.67l.2-.12a21.32 21.32 0 0 1 3.2-1.48 21.55 21.55 0 0 1 3.7-.83 15.57 15.57 0 0 0 3.63-1 15.73 15.73 0 0 0 3.2-2 23.07 23.07 0 0 1 3.13-2.15 62.83 62.83 0 0 1 7-2.64c2.93-1 7-2.1 9-2.53a25.56 25.56 0 0 0 5.34-1.69 14.84 14.84 0 0 0 3-2.39A11.71 11.71 0 0 1 94.85 98a13 13 0 0 1 3.94-.88 6.72 6.72 0 0 0 3.17-.88 2.85 2.85 0 0 0 .87-2.27 26.07 26.07 0 0 0-.46-2.85 21.79 21.79 0 0 0-.81-2.59 10.46 10.46 0 0 1-.6-2.46 9.67 9.67 0 0 1 .17-2.46c.15-.68.33-1.7.39-2.28a13.87 13.87 0 0 0 .06-1.9 1.18 1.18 0 0 0-.81-1 5.23 5.23 0 0 0-2.21.31c-.8.27-2.87 1.13-4.6 1.9l-1.22.52-.93.38v.09a21.79 21.79 0 0 1 .81 2.59 26.07 26.07 0 0 1 .5 2.78 2.85 2.85 0 0 1-.87 2.27 6.72 6.72 0 0 1-3.17.93z"/></svg>