<svg xmlns="http://www.w3.org/2000/svg" width="200" height="200" viewBox="0 0 200 200"><title>_</title><path d="M143.92,91.13l0-.11a11.51,11.51,0,0,1-.63-2.64,10.68,10.68,0,0,1,.19-2.77c0.14-.64.31-1.63,0.37-2.17a13.07,13.07,0,0,0,.06-1.74,0.26,0.26,0,0,0-.09-0.15,5.46,5.46,0,0,0-1.61.3c-0.76.26-2.83,1.12-4.52,1.87a44.36,44.36,0,0,1-5,1.93,26.53,26.53,0,0,1-3.81.66,9.75,9.75,0,0,0-6,2.62,16.22,16.22,0,0,1-3.23,2.23,15.69,15.69,0,0,1-3.71,1.18,21.52,21.52,0,0,0-3.31.88,20.77,20.77,0,0,0-3,1.5,26.4,26.4,0,0,1-6.79,3,31.68,31.68,0,0,0-3.25,1.17,31.12,31.12,0,0,0-3.05,1.6c-1,.62-6.37,2.89-11,4.73l-8.45,3.37a63.52,63.52,0,0,0-9.48,4.4,2,2,0,0,0,0,1.32,20.14,20.14,0,0,1,.79,2.49,21.92,21.92,0,0,1,.14,4.22,41.7,41.7,0,0,1-.57,5.13,3.74,3.74,0,0,0,.11,2.11,6.47,6.47,0,0,0,2.1,1.14c0.95,0.31,3.32.93,5.28,1.38,0.53,0.12,1.08.26,1.62,0.4a30.71,30.71,0,0,1,3.79,1.21A55.77,55.77,0,0,1,87,136.5c2.62,1.9,5.16,3.59,5.9,4s2.27,1.08,3.15,1.41a28,28,0,0,0,3.32,1,30.76,30.76,0,0,0,3.55.47,17.59,17.59,0,0,1,3.86.75,91.54,91.54,0,0,1,9.54,5.52,70.75,70.75,0,0,0,9.09,5.16,17.1,17.1,0,0,0,3.45.41h0a13.36,13.36,0,0,1,4,.68,12.53,12.53,0,0,1,3.39,2.08,16.33,16.33,0,0,0,2.71,1.91,13.28,13.28,0,0,0,2.87,1,4.94,4.94,0,0,0,1.86.05,0.62,0.62,0,0,0,.18-0.4c0-.6.12-2.12,0.28-3.46a26.81,26.81,0,0,0,.21-3.4,14.31,14.31,0,0,0-.35-2.27,13.36,13.36,0,0,1-.35-2.75,14.3,14.3,0,0,1,.18-2c0-.29.09-0.56,0.15-0.79a2.38,2.38,0,0,0-.26-1.55,6,6,0,0,0-2.06-1.42c-0.94-.39-2.5-1-3.47-1.25s-2.59-.68-3.57-0.86a27.28,27.28,0,0,1-3.76-1,26.68,26.68,0,0,1-3.51-1.67c-0.87-.52-2.31-1.28-3.21-1.71s-2.4-1.07-3.33-1.41-2.56-1.06-3.5-1.54-2.44-1.35-3.33-1.94a19.24,19.24,0,0,0-3.11-1.59,19.6,19.6,0,0,0-3.41-.87c-1-.14-3.36-0.62-5.35-1.08l-0.28-.07a38.88,38.88,0,0,1-5.53-1.69,30,30,0,0,1-3.43-1.9c-1-.65-2-1.85-2-2.93S92,119,93,118.42a21.78,21.78,0,0,1,3.6-1.69,22.36,22.36,0,0,1,3.9-.88,14.57,14.57,0,0,0,3.35-.89,14.76,14.76,0,0,0,3-1.84,24.17,24.17,0,0,1,3.29-2.26,63.38,63.38,0,0,1,7.13-2.71c3-1,7-2.12,9.12-2.56a24.69,24.69,0,0,0,5.07-1.59,13.83,13.83,0,0,0,2.78-2.19,12.63,12.63,0,0,1,3.5-2.5,13.87,13.87,0,0,1,4.3-1,5.94,5.94,0,0,0,2.6-.67,1.91,1.91,0,0,0,.49-1.39,25.35,25.35,0,0,0-.44-2.72A20.82,20.82,0,0,0,143.92,91.13Z" fill="#231f20"/><path d="M144.72,148.62a12.38,12.38,0,0,0,.32,2.51,15.27,15.27,0,0,1,.38,2.46,27.87,27.87,0,0,1-.21,3.57c-0.15,1.29-.27,2.79-0.27,3.34a1.51,1.51,0,0,1-.81,1.33,5.39,5.39,0,0,1-2.44,0,14.28,14.28,0,0,1-3.14-1.13,17.34,17.34,0,0,1-2.91-2.06,11.56,11.56,0,0,0-3.07-1.89,12.35,12.35,0,0,0-3.64-.62,18.06,18.06,0,0,1-3.72-.44c-1-.24-5.19-2.62-9.39-5.28A91.65,91.65,0,0,0,106.5,145a16.77,16.77,0,0,0-3.6-.7,31.32,31.32,0,0,1-3.69-.49,28.54,28.54,0,0,1-3.46-1,35.61,35.61,0,0,1-3.26-1.46c-0.87-.46-3.58-2.28-6-4a55.19,55.19,0,0,0-6.06-4,29.35,29.35,0,0,0-3.63-1.16c0,0.28-.09.53-0.13,0.75s0,0.16,0,.24a3.92,3.92,0,0,0,.38,2.72,7.16,7.16,0,0,0,2.54,1.43c1,0.32,3.39,1,5.37,1.41,1,0.22,2,.5,3,0.78a20.68,20.68,0,0,1,2.26.78,50.57,50.57,0,0,1,5.45,3.52l0.61,0.44c2.44,1.77,5.15,3.59,6,4a35.61,35.61,0,0,0,3.26,1.46,28.54,28.54,0,0,0,3.46,1,31.32,31.32,0,0,0,3.69.49,16.77,16.77,0,0,1,3.6.7,5.69,5.69,0,0,1,.59.26c1.2,0.59,3.63,2,6.34,3.66l2.39,1.49c4.2,2.66,8.42,5,9.39,5.28a18.06,18.06,0,0,0,3.72.44,12.35,12.35,0,0,1,3.64.62,11.56,11.56,0,0,1,3.07,1.89,17.34,17.34,0,0,0,2.91,2.06,14.28,14.28,0,0,0,3.14,1.13,5.39,5.39,0,0,0,2.44,0,1.51,1.51,0,0,0,.81-1.33c0-.55.12-2.05,0.27-3.34a27.87,27.87,0,0,0,.21-3.57,15.27,15.27,0,0,0-.38-2.46,12.38,12.38,0,0,1-.32-2.51,13.69,13.69,0,0,1,.3-2.6,3.34,3.34,0,0,0-.42-2.35,6.79,6.79,0,0,0-2.49-1.77c-1-.41-2.58-1-3.57-1.28-0.64-.19-1.54-0.42-2.38-0.61l-1-.21A13.35,13.35,0,0,0,144.72,148.62Z" fill="#231f20"/><path d="M144.85,90.76a21.81,21.81,0,0,1,.81,2.59,26.11,26.11,0,0,1,.46,2.85,2.85,2.85,0,0,1-.87,2.28,6.72,6.72,0,0,1-3.17.88,13,13,0,0,0-3.94.88A11.71,11.71,0,0,0,135,102.5a14.84,14.84,0,0,1-3,2.39,25.58,25.58,0,0,1-5.34,1.69c-2,.43-6.1,1.57-9,2.53a62.87,62.87,0,0,0-7,2.64,23.12,23.12,0,0,0-3.13,2.15,12.72,12.72,0,0,1-6.83,3,21.58,21.58,0,0,0-3.7.83,21.06,21.06,0,0,0-3.4,1.6,3.28,3.28,0,0,0-1.64,2,3.33,3.33,0,0,0,1.58,2.08,28.74,28.74,0,0,0,3.3,1.83,38.59,38.59,0,0,0,5.35,1.63l0.28,0.06a4.69,4.69,0,0,1,.85-0.67l0.2-.12a21.32,21.32,0,0,1,3.2-1.48,21.58,21.58,0,0,1,3.7-.83,12.72,12.72,0,0,0,6.83-3,23.12,23.12,0,0,1,3.13-2.15,62.87,62.87,0,0,1,7-2.64c2.93-1,7-2.1,9-2.53a25.58,25.58,0,0,0,5.34-1.69,14.84,14.84,0,0,0,3-2.39,11.71,11.71,0,0,1,3.17-2.27,13,13,0,0,1,3.94-.88,6.72,6.72,0,0,0,3.17-.88,2.85,2.85,0,0,0,.87-2.28,26.11,26.11,0,0,0-.46-2.85,21.81,21.81,0,0,0-.81-2.59,10.46,10.46,0,0,1-.6-2.46,9.68,9.68,0,0,1,.17-2.46c0.15-.68.33-1.7,0.39-2.28a13.89,13.89,0,0,0,.06-1.91,1.18,1.18,0,0,0-.81-1,5.23,5.23,0,0,0-2.21.31c-0.8.27-2.87,1.13-4.6,1.9l-1.22.52-0.93.38Z" fill="#231f20"/></svg>