<svg xmlns="http://www.w3.org/2000/svg" width="122.81" height="200" viewBox="0 0 122.81 200"><title>_</title><path d="M16.31 99.18a9.81 9.81 0 0 0-.46 1.87 21.23 21.23 0 0 0 .5 3.82 9.38 9.38 0 0 0 .93 2.7 5.28 5.28 0 0 0 1.53.19 32.16 32.16 0 0 1 3.31.12c.6.06 1.47.18 2.33.33l1 .2a22.34 22.34 0 0 0 3 .39 22.18 22.18 0 0 0 3-.12c.94-.12 4.57-.25 8.25-.31h3.54c1.12 0 3.82 0 4.72.1s2.47.34 3.4.54a27.93 27.93 0 0 0 3 .45 26.68 26.68 0 0 0 3 0c.84-.05 3.74-.45 6.32-.88a74.53 74.53 0 0 1 9.94-.82c2.63 0 6.88-.21 9.46-.45a59.32 59.32 0 0 1 6.42-.36 5.41 5.41 0 0 0 1.14-.05 24.7 24.7 0 0 0 1.11-4.46c.27-1.61.54-3.34.7-4.62s.16-1.5.16-1.53c0-.62 0-1.73-.12-2.42a2 2 0 0 0-.45-1 25.35 25.35 0 0 0-5.22-.4 62.65 62.65 0 0 0-6.47.31 27.88 27.88 0 0 0-3 .77 15.53 15.53 0 0 1-3.65.66 14.58 14.58 0 0 1-3.66-.42c-.84-.22-2.26-.52-3.09-.65s-3.73-.36-6.31-.49a45.27 45.27 0 0 0-6.14 0 19.3 19.3 0 0 0-3 .81 26.86 26.86 0 0 1-3.47 1 24.6 24.6 0 0 1-3.49.41c-1.07 0-6.72-.43-11.76-.92l-6.51-.63a72.52 72.52 0 0 0-9.61-.46 1.31 1.31 0 0 0 0 .47 14.34 14.34 0 0 1 .19 3 11.34 11.34 0 0 1-.54 2.85zM17.27 137.75a4.8 4.8 0 0 0 1.54.21c.93 0 2.41 0 3.3.11.6.05 1.48.18 2.36.32l1 .18a22.81 22.81 0 0 0 3 .38 22 22 0 0 0 3-.12c.95-.11 4.57-.25 8.24-.3h3.52c1.13 0 3.84 0 4.74.1s2.45.32 3.39.52a28.65 28.65 0 0 0 3 .43 28.57 28.57 0 0 0 3 0c.84-.05 3.74-.44 6.32-.85a76.78 76.78 0 0 1 9.94-.79c2.63 0 6.87-.2 9.47-.44a62.61 62.61 0 0 1 6.42-.34 5.41 5.41 0 0 0 1.14-.06 24.71 24.71 0 0 0 1.08-4.48c.26-1.6.51-3.32.68-4.61s.16-1.51.16-1.56c0-.62 0-1.73-.12-2.41a2 2 0 0 0-.45-.94 23.29 23.29 0 0 0-5.2-.39c-2.93 0-5.76.18-6.47.3a29.12 29.12 0 0 0-3 .75 15.93 15.93 0 0 1-3.64.63 15.05 15.05 0 0 1-3.65-.4c-.84-.21-2.26-.5-3.1-.63s-3.73-.35-6.31-.48a47.24 47.24 0 0 0-6.15 0 19.74 19.74 0 0 0-3 .79 28 28 0 0 1-3.46 1 25.38 25.38 0 0 1-3.48.4c-1.07 0-6.85-.43-11.76-.89l-6.48-.61a72.87 72.87 0 0 0-9.63-.43 1.29 1.29 0 0 0 0 .46 14.61 14.61 0 0 1 .18 3 11.62 11.62 0 0 1-.58 2.78 10.11 10.11 0 0 0-.45 1.88 22 22 0 0 0 .49 3.84 9.43 9.43 0 0 0 .96 2.65z"/><path d="M103.75 100.64a3.27 3.27 0 0 0-1.11-2c-.53-.38-3.26-.67-6.07-.65L95 98h-1c-.16 1.25-.42 3-.71 4.67-.48 2.83-1.22 5.31-1.64 5.51a5.43 5.43 0 0 1-2.19.26 59.36 59.36 0 0 0-6.17.35c-2.61.25-6.93.46-9.6.46a72.78 72.78 0 0 0-9.7.8c-2.67.44-5.58.84-6.47.89a28.25 28.25 0 0 1-3.23 0 29.15 29.15 0 0 1-3.23-.48c-.89-.19-2.34-.42-3.23-.51s-4.53-.12-8.09-.07-7.2.19-8.09.3a23.1 23.1 0 0 1-3.23.13 23.74 23.74 0 0 1-3.23-.42l-1-.19c0 .33.1.68.15 1s.16.93.25 1.39c.36 1.75 1.05 3.39 1.55 3.65a6 6 0 0 0 2.43.44 30.36 30.36 0 0 1 3.11.11c.87.08 2.3.31 3.19.5a23.74 23.74 0 0 0 3.23.42 23.1 23.1 0 0 0 3.23-.13c.89-.11 4.53-.25 8.09-.3s7.2 0 8.09.07 2.34.32 3.23.51a29.15 29.15 0 0 0 3.23.48 28.25 28.25 0 0 0 3.23 0c.89-.05 3.8-.46 6.47-.89a72.78 72.78 0 0 1 9.7-.8c2.67 0 7-.21 9.6-.46a59.36 59.36 0 0 1 6.17-.35 5.43 5.43 0 0 0 2.19-.26c.43-.2 1.16-2.68 1.64-5.51s.88-5.7.89-6.38-.03-1.8-.11-2.55zM99.17 145.61a5.42 5.42 0 0 0 2.2-.27c.43-.2 1.15-2.69 1.62-5.53s.85-5.71.86-6.39 0-1.84-.12-2.58a3.24 3.24 0 0 0-1.1-2c-.53-.38-3.25-.67-6.05-.65h-2.6c-.16 1.25-.41 3-.68 4.66-.46 2.84-1.19 5.32-1.62 5.53a5.42 5.42 0 0 1-2.2.27 61.35 61.35 0 0 0-6.18.34c-2.61.24-6.94.44-9.6.45a75.09 75.09 0 0 0-9.7.77c-2.67.42-5.58.81-6.47.87a29.06 29.06 0 0 1-3.23 0 29.91 29.91 0 0 1-3.23-.46c-.89-.19-2.34-.41-3.23-.5s-4.56-.12-8.12-.12-7.2.18-8.09.29a24 24 0 0 1-3.23.13 24.41 24.41 0 0 1-3.23-.41l-.95-.17c0 .33.09.68.15 1s.15.93.24 1.39c.35 1.75 1 3.39 1.52 3.66a5.92 5.92 0 0 0 2.43.44c.85 0 2.25 0 3.12.11s2.31.3 3.2.48a24.41 24.41 0 0 0 3.23.41 24 24 0 0 0 3.23-.12c.89-.11 4.53-.24 8.09-.29s7.2 0 8.09.07 2.34.31 3.23.5A29.91 29.91 0 0 0 64 148a29.06 29.06 0 0 0 3.23 0c.89-.05 3.8-.44 6.47-.87a75.09 75.09 0 0 1 9.7-.77c2.67 0 7-.2 9.6-.45a61.35 61.35 0 0 1 6.17-.3z"/></svg>