<svg xmlns="http://www.w3.org/2000/svg" width="86.71" height="200" viewBox="0 0 86.71 200"><title>_</title><path d="M85.41 126.66a22 22 0 0 1-.15-4.36 42.28 42.28 0 0 1 .58-5.21 3.61 3.61 0 0 0 0-1.75 7.17 7.17 0 0 0-1.84-.93c-.94-.31-3.28-.92-5.23-1.37-.53-.12-1.09-.26-1.64-.4a31.27 31.27 0 0 1-3.86-1.24 55.5 55.5 0 0 1-6.33-4.11c-2.56-1.86-5.13-3.57-5.83-3.93S58.82 102.3 58 102a27.29 27.29 0 0 0-3.24-.94 30.18 30.18 0 0 0-3.48-.46 18.14 18.14 0 0 1-4-.77 90.14 90.14 0 0 1-9.65-5.57 71.79 71.79 0 0 0-8.95-5.09 16.57 16.57 0 0 0-3.32-.39 13.79 13.79 0 0 1-4.21-.78 12.93 12.93 0 0 1-3.55-2.18A16 16 0 0 0 15 84a12.88 12.88 0 0 0-2.74-1 5.25 5.25 0 0 0-1.49-.09 27.47 27.47 0 0 1-.24 3.47 26.73 26.73 0 0 0-.2 3.32 14 14 0 0 0 .33 2.17 13.94 13.94 0 0 1 .34 2.89 14.87 14.87 0 0 1-.19 2.12c0 .3-.1.58-.15.82a1.93 1.93 0 0 0 .18 1.15 5.64 5.64 0 0 0 1.84 1.25c.92.39 2.46.94 3.42 1.23s2.55.67 3.51.85a27.81 27.81 0 0 1 3.85 1.06 27.34 27.34 0 0 1 3.61 1.76c.86.51 2.28 1.26 3.17 1.69s2.37 1.06 3.29 1.4 2.59 1.08 3.55 1.56 2.48 1.38 3.37 2a18.65 18.65 0 0 0 3 1.54 19 19 0 0 0 3.31.84c1 .14 3.39.62 5.39 1.09l.28.07a39.38 39.38 0 0 1 5.63 1.73 30.65 30.65 0 0 1 3.5 1.94c1.14.75 2.27 2.08 2.25 3.35s-1.2 2.56-2.37 3.27a22.38 22.38 0 0 1-3.7 1.73 22.85 22.85 0 0 1-4 .91 14.25 14.25 0 0 0-3.21.85 14.41 14.41 0 0 0-2.83 1.76 24.81 24.81 0 0 1-3.36 2.27 63.94 63.94 0 0 1-7.21 2.74c-3 1-7.08 2.13-9.17 2.57a24.67 24.67 0 0 0-4.96 1.51 13.46 13.46 0 0 0-2.66 2.1 13.21 13.21 0 0 1-3.66 2.62 14.47 14.47 0 0 1-4.49 1 5.7 5.7 0 0 0-2.31.56 1.54 1.54 0 0 0-.3 1 24.68 24.68 0 0 0 .42 2.6 20.21 20.21 0 0 0 .74 2.37v.13a12.06 12.06 0 0 1 .65 2.76 11.1 11.1 0 0 1-.2 2.92c-.14.62-.31 1.59-.36 2.11s-.06.9-.06 1.3a6.12 6.12 0 0 0 1-.25c.75-.25 2.8-1.1 4.47-1.85a45.1 45.1 0 0 1 5.12-2 27.22 27.22 0 0 1 3.89-.67 11.82 11.82 0 0 0 3-.76 11.71 11.71 0 0 0 2.75-1.68 16.8 16.8 0 0 1 3.35-2.31 16.23 16.23 0 0 1 3.85-1.22 21 21 0 0 0 3.22-.85 20.24 20.24 0 0 0 2.94-1.45 32.65 32.65 0 0 1 3.35-1.79 32.63 32.63 0 0 1 3.57-1.3 31.2 31.2 0 0 0 3.21-1.16 30.41 30.41 0 0 0 3-1.57c1.07-.66 6.49-2.95 11.05-4.77l8.46-3.37a70.47 70.47 0 0 0 9.23-4.29 1.59 1.59 0 0 0 0-.82 20.68 20.68 0 0 1-.82-2.52z"/><path d="M9.3 82.88a1.51 1.51 0 0 1 .81-1.33 5.39 5.39 0 0 1 2.44 0 14.25 14.25 0 0 1 3.14 1.13 17.31 17.31 0 0 1 2.91 2.06 11.55 11.55 0 0 0 3.07 1.89 12.35 12.35 0 0 0 3.64.62 18.07 18.07 0 0 1 3.72.44c1 .24 5.19 2.62 9.39 5.28a91.61 91.61 0 0 0 9.33 5.41 16.77 16.77 0 0 0 3.6.7 31.32 31.32 0 0 1 3.69.49 28.49 28.49 0 0 1 3.46 1 35.58 35.58 0 0 1 3.25 1.43c.87.46 3.58 2.28 6 4a55.18 55.18 0 0 0 6.06 4 29.29 29.29 0 0 0 3.63 1.16c0-.28.09-.53.13-.75s0-.16 0-.24a3.92 3.92 0 0 0-.38-2.72 7.16 7.16 0 0 0-2.54-1.43c-1-.32-3.39-1-5.37-1.41-1-.22-2-.5-3-.78a20.63 20.63 0 0 1-2.26-.78 50.6 50.6 0 0 1-5.45-3.52l-.61-.44c-2.44-1.77-5.15-3.59-6-4a35.58 35.58 0 0 0-3.26-1.46 28.58 28.58 0 0 0-3.46-1 31.32 31.32 0 0 0-3.69-.49 16.77 16.77 0 0 1-3.6-.7 5.69 5.69 0 0 1-.59-.26c-1.2-.59-3.63-2-6.34-3.66L28.69 86c-4.2-2.66-8.42-5-9.39-5.28a18 18 0 0 0-3.72-.44 12.36 12.36 0 0 1-3.58-.6 11.56 11.56 0 0 1-3.12-1.88A17.37 17.37 0 0 0 6 75.74a14.3 14.3 0 0 0-3.14-1.13 5.39 5.39 0 0 0-2.44 0 1.51 1.51 0 0 0-.81 1.33c0 .55-.12 2.05-.27 3.34a27.87 27.87 0 0 0-.21 3.57 15.28 15.28 0 0 0 .38 2.46 12.38 12.38 0 0 1 .29 2.52 13.7 13.7 0 0 1-.3 2.6 3.34 3.34 0 0 0 .42 2.35 6.78 6.78 0 0 0 2.49 1.77C3.38 95 5 95.53 6 95.83c.64.19 1.54.42 2.38.61l1 .21a13.35 13.35 0 0 0 .17-1.88 12.38 12.38 0 0 0-.32-2.51 15.27 15.27 0 0 1-.38-2.46A27.86 27.86 0 0 1 9 86.23c.18-1.29.3-2.8.3-3.35zM8.57 150a26.09 26.09 0 0 1-.46-2.85 2.85 2.85 0 0 1 .89-2.23 6.72 6.72 0 0 1 3.17-.88 13 13 0 0 0 3.94-.88 11.72 11.72 0 0 0 3.17-2.27 14.84 14.84 0 0 1 3-2.39 25.59 25.59 0 0 1 5.34-1.69c2-.43 6.1-1.57 9-2.53a62.93 62.93 0 0 0 7-2.64 23.12 23.12 0 0 0 3.13-2.15 15.73 15.73 0 0 1 3.2-2 15.57 15.57 0 0 1 3.63-1 21.6 21.6 0 0 0 3.7-.83 21 21 0 0 0 3.4-1.6 3.28 3.28 0 0 0 1.64-2 3.32 3.32 0 0 0-1.58-2.06 28.79 28.79 0 0 0-3.3-1.83 38.63 38.63 0 0 0-5.35-1.63l-.28-.06a4.68 4.68 0 0 1-.85.67l-.2.12a21.32 21.32 0 0 1-3.2 1.48 21.55 21.55 0 0 1-3.7.83 15.57 15.57 0 0 0-3.63 1 15.71 15.71 0 0 0-3.2 2 23.12 23.12 0 0 1-3.13 2.15 62.83 62.83 0 0 1-7 2.64c-2.93 1-7 2.1-9 2.53a25.56 25.56 0 0 0-5.34 1.69 14.84 14.84 0 0 0-3 2.39 11.71 11.71 0 0 1-3.17 2.27 13 13 0 0 1-3.94.88 6.72 6.72 0 0 0-3.17.87 2.85 2.85 0 0 0-.87 2.27 26.07 26.07 0 0 0 .46 2.85 21.78 21.78 0 0 0 .81 2.59 10.46 10.46 0 0 1 .6 2.46 9.67 9.67 0 0 1-.17 2.46c-.15.68-.33 1.7-.39 2.28a13.88 13.88 0 0 0-.06 1.91 1.18 1.18 0 0 0 .81 1 5.23 5.23 0 0 0 2.21-.31c.8-.27 2.87-1.13 4.6-1.9l1.22-.52.93-.38v-.09a21.79 21.79 0 0 1-.86-2.62z"/></svg>