<svg xmlns="http://www.w3.org/2000/svg" width="100.9" height="199.14" viewBox="0 0 100.9 199.14"><title>_</title><path d="M89.85 95.61c.62-.59 2.18-2.42 3.41-4a16.71 16.71 0 0 0 2.52-4.22 10.72 10.72 0 0 0 .16-3.23c-.15-1.14-.3-2.93-.34-4s0-2.74 0-3.72a23.39 23.39 0 0 0 0-3.15 24 24 0 0 0-.6-3.12c-.24-.89-.68-2.3-1-3.16s-.87-2.2-1.25-3a19.1 19.1 0 0 0-1.56-2.63 19.42 19.42 0 0 0-2.06-2.28 13.72 13.72 0 0 0-2.48-1.7 28 28 0 0 0-3.56-1.17c-1-.27-2-.54-3-.79-2.9-.7-7-1.53-9-1.84A46.66 46.66 0 0 1 65 52.29a31.45 31.45 0 0 1-4.25-1.88 8.86 8.86 0 0 0-3.3-.94 8.69 8.69 0 0 0-3.26.86 17.85 17.85 0 0 1-4.5 1.57 17 17 0 0 1-4.7 0 10.2 10.2 0 0 0-3.36.13 8.7 8.7 0 0 0-2.75 1.5A35.59 35.59 0 0 1 35.59 56c-.92.6-4 2.23-6.78 3.64a33.71 33.71 0 0 0-5.87 3.52 38.84 38.84 0 0 0-3.54 6.3 66.77 66.77 0 0 0-2.91 6.85 16.29 16.29 0 0 0-.41 2.54v.4a4.07 4.07 0 0 0 .58 1.92 7.51 7.51 0 0 0 2.15 1.73 16.07 16.07 0 0 0 3.31 1.2 38.37 38.37 0 0 0 7.39-.29c3.33-.38 7-.7 8.14-.72a36.8 36.8 0 0 1 4.28.23 4.59 4.59 0 0 0 1.78-.13 1.78 1.78 0 0 0 .08-.89 19 19 0 0 1-.27-3.3 13 13 0 0 1 .52-3 5.86 5.86 0 0 1 1.76-2.57c1.17-.89 4.56-1 5.23-1 2.11 0 4-.15 4.34-.21s.7-.14 1.09-.25l.72-.22a18.49 18.49 0 0 1 2.36-.75 20.38 20.38 0 0 1 2.46-.23 5.23 5.23 0 0 1 2.85.71C66 72.23 67 75.09 67.28 76a13.65 13.65 0 0 1 .7 5.56 27.14 27.14 0 0 1-1.39 4.19 16 16 0 0 1-3 4.42A26 26 0 0 1 56.82 94c-2.59 1-5.38 2-6.35 2.29a8.25 8.25 0 0 0-2.33 1.12 7.86 7.86 0 0 0-1.63 1.94 17.85 17.85 0 0 0-2 5.68 24.32 24.32 0 0 1-.92 3.48 27.47 27.47 0 0 1-1.59 3.38 8.25 8.25 0 0 0-.69 1.75 4.09 4.09 0 0 0-.13.61 4.32 4.32 0 0 0 .33 1.82 5 5 0 0 0 1.25 1.46 7.56 7.56 0 0 0 2.21.89 20.11 20.11 0 0 0 3.06.34c.76 0 3.66-.22 6.79-.6a52.71 52.71 0 0 1 5.75-.39 10.71 10.71 0 0 1 1.84.12 21.63 21.63 0 0 1 4 1.31 4.21 4.21 0 0 0 1.18.33 2.64 2.64 0 0 0 0-.82 14 14 0 0 1 .13-3.93 10.44 10.44 0 0 1 1.49-3.38 25 25 0 0 1 2.15-2.53 25.59 25.59 0 0 1 2.64-2.16c.65-.47 2.26-1.85 3.5-3a37.11 37.11 0 0 1 4-3.23 21.14 21.14 0 0 1 3.27-1.63 19 19 0 0 0 2.75-1.37 18 18 0 0 0 2.33-1.87zM70 143.25a10.76 10.76 0 0 0 .54-3 8 8 0 0 0-.64-2.64 8.44 8.44 0 0 0-1.59-2.13 8.67 8.67 0 0 0-2.31-1.37 10.35 10.35 0 0 0-3-.47h-.66a16.44 16.44 0 0 0-2.78.5c-1.16.33-3 .77-4.16 1s-3 .42-4.15.48a27.42 27.42 0 0 1-4.37-.19 33.15 33.15 0 0 1-4.54-1 4.3 4.3 0 0 0-2.28-.11 3.24 3.24 0 0 0-.83 1.73 24.47 24.47 0 0 0-.23 3.81 54.39 54.39 0 0 0 1.52 7.3 51.31 51.31 0 0 1 1.56 7.75v.09a19.33 19.33 0 0 1-.48 4.13 2.86 2.86 0 0 0 0 1.53 3.54 3.54 0 0 0 1.53.31c1.07 0 4.57-.33 7.82-.69 3-.33 6.1-.55 7.64-.55h.56c1.14.08 4 .5 6.47 1a14.28 14.28 0 0 0 4 .25 20.68 20.68 0 0 0-.05-5.42 59.68 59.68 0 0 1-.5-8.18 20.47 20.47 0 0 1 .93-4.13z"/><path d="M32.21 111.81a9 9 0 0 0 2.79 1.13 21.64 21.64 0 0 0 3.34.38h.53l1-.06a9.88 9.88 0 0 1 .83-2.09 25.56 25.56 0 0 0 1.48-3.17 22.54 22.54 0 0 0 .85-3.22 23.43 23.43 0 0 1 .82-3.17 23.67 23.67 0 0 1 1.35-3 9.29 9.29 0 0 1 2-2.4 9.63 9.63 0 0 1 2.86-1.38c.9-.24 3.68-1.26 6.18-2.28a25 25 0 0 0 6.26-3.51 14.47 14.47 0 0 0 2.69-3.94 25.81 25.81 0 0 0 1.3-3.91 12.57 12.57 0 0 0-.66-4.8 10 10 0 0 0-1.78-3.67 3.9 3.9 0 0 0-2-.47 19.34 19.34 0 0 0-2.29.26 17.28 17.28 0 0 0-2.14.57c-.23.08-.53.17-.83.25a4.16 4.16 0 0 1-.05.92v.13a26.6 26.6 0 0 1-1.27 3.77 14.47 14.47 0 0 1-2.69 3.94 25 25 0 0 1-6.26 3.51c-2.5 1-5.27 2-6.18 2.28a9.63 9.63 0 0 0-2.86 1.38 9.29 9.29 0 0 0-2 2.4 23.67 23.67 0 0 0-1.35 3 23.43 23.43 0 0 0-.82 3.17 22.54 22.54 0 0 1-.85 3.22 25.56 25.56 0 0 1-1.46 3.16 9.13 9.13 0 0 0-1 3 5.75 5.75 0 0 0 .48 2.63 6.4 6.4 0 0 0 1.73 1.97zM8.38 77.32a17.48 17.48 0 0 0 3.7 1.34 9 9 0 0 0 1.51.11h1A18.09 18.09 0 0 1 15 76a66.43 66.43 0 0 1 3-7.11 38.59 38.59 0 0 1 3.81-6.69 33.7 33.7 0 0 1 6.28-3.82c2.77-1.38 5.75-3 6.63-3.55a33.75 33.75 0 0 0 3.12-2.36 10.1 10.1 0 0 1 3.35-1.82 11.5 11.5 0 0 1 4-.16 15.5 15.5 0 0 0 4.21 0A16.43 16.43 0 0 0 53.49 49a9.9 9.9 0 0 1 4-1 10.19 10.19 0 0 1 4 1.13 29.49 29.49 0 0 0 4 1.77 45 45 0 0 0 5.84 1.25c2.11.32 6.24 1.16 9.16 1.87 1 .25 2.08.53 3 .8-.28-.46-.57-.91-.81-1.24A20.91 20.91 0 0 0 80.46 51a15.06 15.06 0 0 0-2.82-1.93A49.79 49.79 0 0 0 70.77 47c-2.93-.71-7.05-1.55-9.16-1.87a45 45 0 0 1-5.84-1.25 29.49 29.49 0 0 1-4-1.77 10.19 10.19 0 0 0-4-1.13 9.9 9.9 0 0 0-4 1 16.43 16.43 0 0 1-4.06 1.42 15.5 15.5 0 0 1-4.21 0 11.5 11.5 0 0 0-4 .16 10.1 10.1 0 0 0-3.35 1.82 33.75 33.75 0 0 1-3.12 2.36c-.88.57-3.86 2.17-6.63 3.55a33.7 33.7 0 0 0-6.28 3.82 38.59 38.59 0 0 0-3.81 6.69 66.43 66.43 0 0 0-3 7.11 17.23 17.23 0 0 0-.48 3.29 5.52 5.52 0 0 0 .85 2.81 8.92 8.92 0 0 0 2.7 2.31zM28.07 128.84a25.91 25.91 0 0 0-.24 4.1 54.46 54.46 0 0 0 1.57 7.62 48.91 48.91 0 0 1 1.51 7.51 18.08 18.08 0 0 1-.44 3.77 3.75 3.75 0 0 0 .3 2.81 4 4 0 0 0 2.75.89c.89 0 3.42-.23 6.09-.5l1-.1a50.64 50.64 0 0 0-1.51-7.43 54.46 54.46 0 0 1-1.57-7.62 25.91 25.91 0 0 1 .24-4.1 4.31 4.31 0 0 1 1.6-2.79 5.25 5.25 0 0 1 3.46 0 31.75 31.75 0 0 0 4.29 1 25.26 25.26 0 0 0 4.07.17c1.09-.06 2.88-.27 4-.46s2.89-.61 4-.93a17.89 17.89 0 0 1 3.07-.55c-.06-.32-.14-.66-.23-1a7.64 7.64 0 0 0-.44-1.24 9.84 9.84 0 0 0-2-2.6 10 10 0 0 0-2.85-1.61 12.76 12.76 0 0 0-3.48-.55 17 17 0 0 0-3.83.59c-1.1.32-2.9.74-4 .93s-2.89.4-4 .46a25.26 25.26 0 0 1-4.03-.21 31.75 31.75 0 0 1-4.29-1 5.25 5.25 0 0 0-3.46 0 4.31 4.31 0 0 0-1.58 2.84z"/></svg>