<svg xmlns="http://www.w3.org/2000/svg" width="128.08" height="200" viewBox="0 0 128.08 200"><title>_</title><path d="M8.88 88a29 29 0 0 1-.19 4.16c-.13 1-.35 5.44-.48 9.71a59 59 0 0 0 .24 9.38 13.14 13.14 0 0 0 1.55 3.13c.67 1 2.07 3.26 3.12 5.12s2.6 4.94 3.46 6.89a47.74 47.74 0 0 0 2.42 4.82c.46.71 2.46 3.15 4.71 5.66a45.55 45.55 0 0 0 5.12 5 15.51 15.51 0 0 0 3.09 1.44c.37.12.82.28 1.29.45.94.35 1.89.76 2.53 1.08A30.91 30.91 0 0 1 39.2 147a25.73 25.73 0 0 0 3.09 1.82 27.55 27.55 0 0 0 3.44 1.31 23.24 23.24 0 0 0 3.62.68 24.3 24.3 0 0 0 3.73 0c.46 0 1-.07 1.64-.07a19.33 19.33 0 0 1 2.76.18 21.12 21.12 0 0 1 4.27 1.22 15.8 15.8 0 0 0 3.35.94 11.51 11.51 0 0 0 3-.11c.89-.18 3.11-.82 4.85-1.39a42.67 42.67 0 0 1 5.22-1.39 22.35 22.35 0 0 1 3.74-.19 9 9 0 0 0 2.72-.36 8.83 8.83 0 0 0 2.37-1.43 34.73 34.73 0 0 1 2.85-2.21 32.4 32.4 0 0 1 3-1.77 17.35 17.35 0 0 0 2.47-1.57 17.7 17.7 0 0 0 2.11-2.07c.3-.36.72-.82 1.2-1.29s1-.94 1.36-1.26a25.4 25.4 0 0 1 3.06-2.09 20.31 20.31 0 0 0 2.43-1.64 10.94 10.94 0 0 0 1.55-1.62 3 3 0 0 0 .45-1.11 2.3 2.3 0 0 0-.33-.92 2.46 2.46 0 0 0-.73-.65h-.07a2.19 2.19 0 0 0-.7.05c-.57.18-1.5.42-2.06.54a38.33 38.33 0 0 1-4.09.35 14.78 14.78 0 0 0-3.6.55 17.35 17.35 0 0 0-2.48 1.5 34.22 34.22 0 0 1-3.35 2.12 35.6 35.6 0 0 1-3.65 1.65c-.44.16-1.25.52-2.23 1s-2.1 1-3 1.52a27.07 27.07 0 0 1-6.09 2.41c-1.48.25-5.26-.19-8.07-.74a38.87 38.87 0 0 0-6.66-.88 12.88 12.88 0 0 0-2.87.79 8.71 8.71 0 0 1-4 .64 7.83 7.83 0 0 1-3.59-1.64 23.92 23.92 0 0 0-2.72-1.87c-.76-.44-3.56-1.79-6.52-3.13l-.89-.4c-2.49-1.12-6.63-3.24-7.83-4.52s-2.87-4.88-4.11-8c-1.38-3.47-2.81-6.66-3.24-7.36a17.92 17.92 0 0 0-2-2.55 7 7 0 0 1-1.81-7.27 16.58 16.58 0 0 0 .52-2.92 13.39 13.39 0 0 0-.18-2.71c-.13-.84-.46-2.14-.7-2.95s-.71-2.13-1-2.95a10.1 10.1 0 0 1-.66-3.65 9.57 9.57 0 0 1 1-3.53 24 24 0 0 0 1.18-2.66 21.51 21.51 0 0 0 .73-2.7 13.7 13.7 0 0 1 1.28-3.46 22 22 0 0 1 2.44-3.38 23.17 23.17 0 0 0 2.27-3.13 24 24 0 0 0 1.61-3.58A24.74 24.74 0 0 1 31.16 63a24.29 24.29 0 0 1 2.77-3.57 21.54 21.54 0 0 1 3.54-2.84 21.67 21.67 0 0 1 4.14-1.87 33.45 33.45 0 0 0 3.51-1.34 20.86 20.86 0 0 0 2.72-1.58 18.9 18.9 0 0 1 3-1.72 18.3 18.3 0 0 1 3.26-1 19 19 0 0 1 3.4-.27 19.06 19.06 0 0 1 3.41.48 18.48 18.48 0 0 0 3.08.41 29.65 29.65 0 0 0 3.73-.17 41.65 41.65 0 0 1 4.45-.25 44.39 44.39 0 0 1 4.47.3 38.47 38.47 0 0 1 4.34.86 34 34 0 0 1 4 1.43 22.25 22.25 0 0 1 3.67 2.16 22.59 22.59 0 0 1 3.1 3c.26.31.69.78 1.19 1.31.86.92 1.9 2 2.76 2.83a55.57 55.57 0 0 1 4 4.36 27.91 27.91 0 0 1 2.15 3.41 28.57 28.57 0 0 1 1.56 3.84 17.43 17.43 0 0 1 .42 2c.3 1.75.62 4.24.84 6.5s.48 4.64.7 6.33c.09.73.18 1.3.23 1.6a20.91 20.91 0 0 0 .85 3 13.49 13.49 0 0 1 .78 3.4 12.05 12.05 0 0 1-.34 3.4 17.27 17.27 0 0 1-1.52 3.49 36.17 36.17 0 0 1-2.69 3.81c-.84 1-2 2.65-2.65 3.62-.19.29-.4.64-.61 1-.5.86-1 1.76-1.24 2.36a10.48 10.48 0 0 1-2.18 3.16 8.64 8.64 0 0 1-4.3 1.49c-1.37.12-3.16.19-4 .17-1.76-.05-2.63-.47-2.9-1.39s.2-1.72 1.2-2.4a1.64 1.64 0 0 0 .27-.25 5.29 5.29 0 0 1-.46-2.28 13.88 13.88 0 0 1 .44-2.72 19.65 19.65 0 0 0 .65-5.26 27.39 27.39 0 0 1 .17-3.07 26.94 26.94 0 0 1 .58-3 17.73 17.73 0 0 1 1.17-3 21.25 21.25 0 0 1 1.85-2.84 9.28 9.28 0 0 0 1.22-2.19 7.49 7.49 0 0 0 .29-2.26c-.06-1 .39-6 .84-10.23.14-1.27.26-2.5.35-3.62.18-2.14.24-3.4.26-4.08a6 6 0 0 1-2 0 7.45 7.45 0 0 1-2.38-1.1 4.79 4.79 0 0 0-1.25-.68 3.2 3.2 0 0 0-1.12 0 7.37 7.37 0 0 0-1.36.54 7.26 7.26 0 0 0-1.18.86A15 15 0 0 1 83 70.27a5.08 5.08 0 0 1-.68.4 3.11 3.11 0 0 1-.69 1.72 5.45 5.45 0 0 1-1.51 1.12 1.6 1.6 0 0 1-.11.79 1.65 1.65 0 0 1-1.69 1 13.36 13.36 0 0 1-2-.43 6 6 0 0 1-.92-.36 7.77 7.77 0 0 1-1.81-1.17 10.31 10.31 0 0 1-1.93-2.67 7 7 0 0 0-1.31-1.77 5.86 5.86 0 0 0-1.78-1 8.1 8.1 0 0 0-2.23-.24 10.11 10.11 0 0 0-2.4.57 16.53 16.53 0 0 1-3.37.87 17.72 17.72 0 0 1-3.55 0 10.54 10.54 0 0 0-2.7.13 76.35 76.35 0 0 0-8.29 3.92c-1.75.91-3.54 1.89-5 2.76a24.31 24.31 0 0 0-2.86 1.81A9.4 9.4 0 0 0 36.74 80c-.36.8-1.14 2.87-1.71 4.51s-1.36 4.41-1.74 6.12c-.1.46-.22 1.11-.34 1.86-.34 2.1-.71 4.94-.94 7.24a51.46 51.46 0 0 0-.36 6.9 37.33 37.33 0 0 0 1.82 4.15c.31.65.65 1.32 1 2a60 60 0 0 0 4.07 7 28 28 0 0 0 3.32 3.42 15.27 15.27 0 0 0 3.79 2.19 10.42 10.42 0 0 0 1.4.36 14.29 14.29 0 0 0 2.87.29 29.18 29.18 0 0 1 4.66.28 11.27 11.27 0 0 1 3.42 1.19 6.07 6.07 0 0 0 1.69.68 4.69 4.69 0 0 0 1.58-.1 10.79 10.79 0 0 0 1.82-.76 11.38 11.38 0 0 0 1.63-1.18c.45-.41 1.15-1.11 1.53-1.53a19.81 19.81 0 0 0 1.28-1.62c.92-1.34 1.61-1.52 2.05-1.54h.65l.54.5a2.49 2.49 0 0 1 .56 2 4.09 4.09 0 0 0 .11 1.1 4.49 4.49 0 0 0 .55 1.05 7.92 7.92 0 0 0 1 1 8.07 8.07 0 0 0 1.21.8 13.51 13.51 0 0 0 1.51.63 15.39 15.39 0 0 0 1.67.43 3.91 3.91 0 0 0 1.15-.1l.37-.1h.08a14.94 14.94 0 0 0 2.48-1.27 32 32 0 0 1 7.23-3.5c1-.33 2.55-.93 3.5-1.34s2.48-1.17 3.41-1.68l1-.57c.81-.48 1.64-1 2.17-1.35.8-.54 2.07-1.49 2.77-2.07a22.24 22.24 0 0 0 2.37-2.41 30.71 30.71 0 0 0 2.18-3.14 30.34 30.34 0 0 1 2.71-3.73 34.69 34.69 0 0 1 3.46-3.33 15.13 15.13 0 0 0 2.05-2.15 9.09 9.09 0 0 0 .58-.81 13.63 13.63 0 0 0 1.41-3.55 35.75 35.75 0 0 0 .57-4.21c.07-1.18 0-5.52-.1-9.47a54.54 54.54 0 0 0-.91-9.29 50.13 50.13 0 0 0-4.8-8c-2.28-3.25-4.91-6.77-5.76-7.68s-5.07-4.54-9.24-7.92l-4.45-3.61a94.24 94.24 0 0 0-8.68-6.42 22.65 22.65 0 0 0-4.24-1.5c-1.29-.29-4.54-.76-7.25-1.05a51.2 51.2 0 0 0-6.93-.34 24.22 24.22 0 0 0-3.87.71 22.69 22.69 0 0 1-4.28.75 24.68 24.68 0 0 1-4.36-.18 8.19 8.19 0 0 0-3.17.23A9 9 0 0 0 46 41.73a24.31 24.31 0 0 1-3.45 2.86 18.52 18.52 0 0 1-3.77 1.8c-.9.29-3.16 1.22-4.94 2a65.39 65.39 0 0 0-6.36 3.49 37.39 37.39 0 0 0-4.29 3.13 108.41 108.41 0 0 0-6.37 8.85C14 68.17 10.93 73.19 10 75.1a21.59 21.59 0 0 0-1.81 5 14.75 14.75 0 0 0 .18 3.58A33.19 33.19 0 0 1 8.88 88z"/><path d="M106.73 57.12l-.17-.12-3.31-2.68a103.06 103.06 0 0 0-9.93-7.38l-.76-.35 1 .79 3.44 2.8c4.27 3.47 8.5 7.09 9.39 8.06s3.54 4.49 5.88 7.83a50.09 50.09 0 0 1 5 8.41 54.52 54.52 0 0 1 1 9.7c.13 4.05.17 8.38.1 9.61a37 37 0 0 1-.6 4.43 15 15 0 0 1-1.6 4 10.63 10.63 0 0 1-.68 1 12 12 0 0 1-.17 1.72c0 .22-.08.44-.13.62a15.87 15.87 0 0 1-1.37 3.13 34.52 34.52 0 0 1-2.56 3.61c-.87 1.06-2.1 2.75-2.75 3.76a33.07 33.07 0 0 0-2 3.56 9.11 9.11 0 0 1-1.83 2.65 7.34 7.34 0 0 1-3.45 1.12c-1.32.11-3 .19-3.82.17a6.11 6.11 0 0 1-1.08-.12.64.64 0 0 1-.42-.19 1.23 1.23 0 0 1 .63-.75 3.11 3.11 0 0 0 .76-.76l-1 .59c-1 .52-2.54 1.3-3.53 1.73s-2.61 1.06-3.62 1.39a37.27 37.27 0 0 0-3.56 1.44 36.8 36.8 0 0 0-3.34 1.86 16.51 16.51 0 0 1-2.76 1.41 2 2 0 0 1 0 .62 3.93 3.93 0 0 0 0 .43 5.36 5.36 0 0 0 .18 1.22 5.9 5.9 0 0 0 .78 1.52 9.33 9.33 0 0 0 1.22 1.29 9.82 9.82 0 0 0 1.5 1l.34.16c1-.47 1.85-.85 2.34-1a33.67 33.67 0 0 0 3.47-1.57 32.34 32.34 0 0 0 3.17-2 18.51 18.51 0 0 1 2.76-1.67 15.18 15.18 0 0 1 4.14-.68 37.66 37.66 0 0 0 3.85-.32c.52-.11 1.38-.33 1.91-.5a3.14 3.14 0 0 1 1.75 0l.12.06 1-.58c.48-.29.93-.58 1.28-.81.85-.57 2.15-1.55 2.89-2.16a23.71 23.71 0 0 0 2.57-2.61 32.06 32.06 0 0 0 2.31-3.32 28.53 28.53 0 0 1 2.55-3.5 33 33 0 0 1 3.28-3.15 16.27 16.27 0 0 0 3-3.33 15 15 0 0 0 1.6-4 37 37 0 0 0 .6-4.43c.07-1.23 0-5.56-.1-9.61a54.52 54.52 0 0 0-1-9.7 50.09 50.09 0 0 0-5-8.52c-2.34-3.34-5-6.87-5.88-7.83s-5.12-4.58-9.39-8.05z"/><path d="M22.25 105.13a5.56 5.56 0 0 0 1.44 5.8 19.38 19.38 0 0 1 2.18 2.82 79.61 79.61 0 0 1 3.36 7.59c1.31 3.3 3 6.69 3.81 7.53s4.09 2.72 7.35 4.18l.9.4c-.23-.43-.46-.92-.7-1.42-.56-1.16-1.13-2.46-1.64-3.75a79.61 79.61 0 0 0-3.36-7.59 19.38 19.38 0 0 0-2.18-2.82 7.07 7.07 0 0 1-1.57-2.69 6.68 6.68 0 0 1-.05-2.19 6 6 0 0 1 .18-.92c.06-.19.11-.42.16-.64a35.4 35.4 0 0 1-1.94-4.49 46.27 46.27 0 0 1 .32-7.29 8.67 8.67 0 0 1-.55-3 8.12 8.12 0 0 1 .82-2.89c.21-.4.47-.93.7-1.46.13-.78.25-1.46.36-1.94.39-1.76 1.2-4.59 1.79-6.29s1.38-3.78 1.76-4.63a10.73 10.73 0 0 1 1.8-2.66 23.23 23.23 0 0 1 3.17-2.05v-.11c.14-.4.33-.88.54-1.38a21.92 21.92 0 0 1 1.23-2.45 22.51 22.51 0 0 1 2.57-3.31 20.13 20.13 0 0 1 3.3-2.65 20.26 20.26 0 0 1 3.8-1.71 34.54 34.54 0 0 0 3.71-1.42 22.3 22.3 0 0 0 3-1.73 17.49 17.49 0 0 1 2.71-1.56 16.78 16.78 0 0 1 2.94-.91 17 17 0 0 1 3.07-.25 17.65 17.65 0 0 1 3.09.43 20 20 0 0 0 3.39.46 31.23 31.23 0 0 0 4-.18 41.74 41.74 0 0 1 4.26-.24 42.68 42.68 0 0 1 4.29.29 37.53 37.53 0 0 1 3.83.74l.3.08c.45.12 1 .3 1.57.49-.52-.56-1-1-1.24-1.37a21.26 21.26 0 0 0-2.86-2.72 20.9 20.9 0 0 0-3.38-2 32.24 32.24 0 0 0-3.8-1.36 36.69 36.69 0 0 0-4.14-.82 42.68 42.68 0 0 0-4.29-.29 41.74 41.74 0 0 0-4.26.24 31.23 31.23 0 0 1-4 .18 20 20 0 0 1-3.39-.46 17.65 17.65 0 0 0-3.09-.43 17 17 0 0 0-3.07.25 16.78 16.78 0 0 0-2.94.91A17.49 17.49 0 0 0 48.72 53a22.3 22.3 0 0 1-3 1.73 34.54 34.54 0 0 1-3.71 1.42 20.26 20.26 0 0 0-3.8 1.71A20.13 20.13 0 0 0 35 60.49a22.51 22.51 0 0 0-2.57 3.31 23 23 0 0 0-1.77 3.83 25.45 25.45 0 0 1-1.73 3.85 24.63 24.63 0 0 1-2.45 3.38A20.59 20.59 0 0 0 24.24 78a12.17 12.17 0 0 0-1.12 3 23.17 23.17 0 0 1-.79 2.93 25.44 25.44 0 0 1-1.27 2.86 8.12 8.12 0 0 0-.82 2.89 8.67 8.67 0 0 0 .55 3c.34.85.83 2.23 1.08 3.07s.59 2.2.76 3a14.75 14.75 0 0 1 .2 3.09 17.84 17.84 0 0 1-.58 3.29zM116.66 135.56a3.14 3.14 0 0 0-1.75 0c-.52.17-1.38.39-1.91.5a37.66 37.66 0 0 1-3.85.32 20.91 20.91 0 0 0-2.6.29 7.59 7.59 0 0 0-1.54.39 18.51 18.51 0 0 0-2.76 1.67c-.66.49-1.7 1.15-2.56 1.66-.42.42-.82.84-1.1 1.19a19.23 19.23 0 0 1-2.33 2.28 18.9 18.9 0 0 1-2.73 1.74 30.65 30.65 0 0 0-2.85 1.67 33 33 0 0 0-2.68 2.07 10.21 10.21 0 0 1-2.82 1.66 10.51 10.51 0 0 1-3.28.44 20.9 20.9 0 0 0-3.44.17 41.91 41.91 0 0 0-5 1.34c-1.81.59-4.07 1.24-5 1.44a12.94 12.94 0 0 1-3.54.13 17.12 17.12 0 0 1-3.75-1 19.79 19.79 0 0 0-3.91-1.12 19.13 19.13 0 0 0-4-.1 25.57 25.57 0 0 1-4 0 24.76 24.76 0 0 1-3.91-.74 29 29 0 0 1-3.67-1.4 27.15 27.15 0 0 1-3.31-2 29.16 29.16 0 0 0-3.29-2c-.63-.31-1.55-.7-2.4-1 .56.61 1.13 1.22 1.69 1.79a29.21 29.21 0 0 0 3.36 3.11 16.86 16.86 0 0 0 3.46 1.62 30.32 30.32 0 0 1 3.6 1.44 29.16 29.16 0 0 1 3.29 2 27.15 27.15 0 0 0 3.31 2 29 29 0 0 0 3.67 1.4 24.76 24.76 0 0 0 3.91.74 25.57 25.57 0 0 0 4 0 19.13 19.13 0 0 1 4 .1 19.79 19.79 0 0 1 3.91 1.12 17.12 17.12 0 0 0 3.75 1 12.94 12.94 0 0 0 3.54-.13c.95-.2 3.2-.84 5-1.44a41.91 41.91 0 0 1 5-1.34 20.9 20.9 0 0 1 3.44-.17 10.51 10.51 0 0 0 3.28-.44 10.21 10.21 0 0 0 2.82-1.66 33 33 0 0 1 2.68-2.07 30.65 30.65 0 0 1 2.85-1.67 18.9 18.9 0 0 0 2.76-1.76 19.23 19.23 0 0 0 2.33-2.28 21.52 21.52 0 0 1 2.36-2.35 23.63 23.63 0 0 1 2.84-1.94 21.88 21.88 0 0 0 2.65-1.79 12.18 12.18 0 0 0 1.81-1.91 4.27 4.27 0 0 0 .73-1.93 3.58 3.58 0 0 0-.61-1.84 3.8 3.8 0 0 0-1.45-1.2zM91.9 92.81a19.79 19.79 0 0 0-1.69 2.61 16.27 16.27 0 0 0-1.06 2.71 25.29 25.29 0 0 0-.55 2.8 25.74 25.74 0 0 0-.16 2.86 26 26 0 0 1-.16 2.86 25.54 25.54 0 0 1-.54 2.8 12.62 12.62 0 0 0-.39 2.37 3.82 3.82 0 0 0 .3 1.58 1.6 1.6 0 0 1 .13 1.13 2.69 2.69 0 0 1-.9 1 1.23 1.23 0 0 0-.63.75 2.65 2.65 0 0 0 1.5.3c.78 0 2.5-.05 3.82-.17a7.34 7.34 0 0 0 3.43-1.09 9.11 9.11 0 0 0 1.83-2.65c.3-.66.81-1.62 1.31-2.49 0-.69.07-1.5.13-2.11v-.2a25.29 25.29 0 0 1 .55-2.8 16.27 16.27 0 0 1 1.06-2.71 19.79 19.79 0 0 1 1.69-2.61 10.6 10.6 0 0 0 1.46-2.64 8.93 8.93 0 0 0 .37-2.83c0-.35 0-1.43.16-2.91.08-1 .19-2.26.32-3.59-.21-1.62-.48-4-.71-6.38s-.54-4.74-.83-6.4a3.58 3.58 0 0 1-.66-.06l-.38-.12a6.45 6.45 0 0 1-1.44-.74 6.2 6.2 0 0 0-1.83-.87 4.6 4.6 0 0 0-1.83 0l-.2.12a9.45 9.45 0 0 0-1 .39c-.1 1.13-.22 2.37-.36 3.65-.51 4.68-.89 9.17-.84 10a8.93 8.93 0 0 1-.37 2.83 10.6 10.6 0 0 1-1.53 2.61z"/><path d="M76.13 73.14a4.72 4.72 0 0 0 .69.28 11.45 11.45 0 0 0 1.63.37c.24 0 .29-.11.11-.27a.52.52 0 0 1-.12-.16 9.7 9.7 0 0 0-2.31-.22zM69.64 123a2.37 2.37 0 0 0-.87.89 21.24 21.24 0 0 1-1.35 1.72c-.41.46-1.15 1.21-1.64 1.65a12.78 12.78 0 0 1-1.9 1.38 12.25 12.25 0 0 1-2.14.9 6 6 0 0 1-2.25.14 7.35 7.35 0 0 1-2.24-.89 9.92 9.92 0 0 0-2.94-1 27.35 27.35 0 0 0-4.37-.26 16 16 0 0 1-3.19-.32l.31.43c.18.22.39.47.62.73a30.1 30.1 0 0 0 2.93 2.91 16.59 16.59 0 0 0 4.25 2.46 16.09 16.09 0 0 0 4.8.73 27.35 27.35 0 0 1 4.37.26 9.92 9.92 0 0 1 2.94 1 7.35 7.35 0 0 0 2.24.89 6 6 0 0 0 2.25-.14 12.25 12.25 0 0 0 2.14-.9 12.78 12.78 0 0 0 1.9-1.38c.49-.44 1.23-1.19 1.64-1.65.25-.28.57-.67.85-1s.36-.48.5-.67a5 5 0 0 1 .36-.46 5.11 5.11 0 0 1-1.74.11 16.88 16.88 0 0 1-1.87-.48 15 15 0 0 1-1.71-.71 9.54 9.54 0 0 1-1.5-1 9.33 9.33 0 0 1-1.24-1.34 5.9 5.9 0 0 1-.78-1.52 5.42 5.42 0 0 1-.17-1.65.83.83 0 0 0-.2-.83z"/></svg>