<svg xmlns="http://www.w3.org/2000/svg" width="200" height="200" viewBox="0 0 200 200"><title>_</title><path d="M148.07 103.44a8.93 8.93 0 0 1-.37 2.83 10.6 10.6 0 0 1-1.46 2.64 19.79 19.79 0 0 0-1.69 2.61 16.27 16.27 0 0 0-1.06 2.71 25.29 25.29 0 0 0-.55 2.8v.2c.7-1 1.73-2.42 2.49-3.35a33.9 33.9 0 0 0 2.47-3.48 14.93 14.93 0 0 0 1.27-2.88 9.8 9.8 0 0 0 .26-2.58 11.11 11.11 0 0 0-.61-2.66c-.18-.45-.38-1.09-.56-1.74-.15 1.46-.21 2.55-.19 2.9zM145.91 132.54a7.34 7.34 0 0 0 3.45-1.12 9.11 9.11 0 0 0 1.83-2.65 33.07 33.07 0 0 1 2-3.56c.65-1 1.88-2.7 2.75-3.76a34.52 34.52 0 0 0 2.56-3.61 15.87 15.87 0 0 0 1.37-3.13c0-.18.09-.4.13-.62a15.33 15.33 0 0 1-1.48 1.43 32.17 32.17 0 0 0-3.16 3 27.8 27.8 0 0 0-2.44 3.36 33.13 33.13 0 0 1-2.4 3.45 24.85 24.85 0 0 1-2.7 2.74c-.77.64-2.1 1.64-3 2.23-.57.38-1.45.93-2.3 1.43l-1.06.61-.41.22a6.11 6.11 0 0 0 1.08.12c.75.05 2.47-.03 3.78-.14zM125.14 143.11a5.9 5.9 0 0 1-.78-1.52 5.36 5.36 0 0 1-.18-1.22l-.5.13a7.84 7.84 0 0 1-1.06.15c-.29.37-.6.77-.85 1-.41.46-1.15 1.21-1.64 1.65a12.78 12.78 0 0 1-1.9 1.38 12.25 12.25 0 0 1-2.14.9 6 6 0 0 1-2.25.14 7.35 7.35 0 0 1-2.24-.89 9.92 9.92 0 0 0-2.94-1 27.35 27.35 0 0 0-4.37-.26 16.09 16.09 0 0 1-4.8-.73 16.59 16.59 0 0 1-4.25-2.46 30.1 30.1 0 0 1-2.93-2.91c-.37-.05-.75-.11-1.12-.18a12.82 12.82 0 0 1-1.75-.45 17.47 17.47 0 0 1-4.56-2.63 30.57 30.57 0 0 1-3.69-3.79 61.2 61.2 0 0 1-4.33-7.38l-.45-.9a6.68 6.68 0 0 0 .05 2.19A7.07 7.07 0 0 0 78 127a19.38 19.38 0 0 1 2.18 2.82 79.61 79.61 0 0 1 3.36 7.59c.51 1.29 1.09 2.59 1.64 3.75l.22.1.9.41c2.64 1.2 5.81 2.7 6.75 3.25a26.55 26.55 0 0 1 3.08 2.16 5.55 5.55 0 0 0 2.29 1.07 6.43 6.43 0 0 0 2.68-.46 15.21 15.21 0 0 1 3.57-1 38.8 38.8 0 0 1 7.42.91 31 31 0 0 0 7.16.73 25 25 0 0 0 5.35-2.16c.78-.41 1.65-.84 2.5-1.26a8.46 8.46 0 0 1-.77-.56 9.33 9.33 0 0 1-1.19-1.24zM126.49 66.89a41.74 41.74 0 0 0-4.26.24 31.23 31.23 0 0 1-4 .18 20 20 0 0 1-3.39-.46 17.65 17.65 0 0 0-3.09-.43 17 17 0 0 0-3.07.25 16.78 16.78 0 0 0-2.94.91 17.49 17.49 0 0 0-2.71 1.56 22.3 22.3 0 0 1-3 1.73 34.54 34.54 0 0 1-3.71 1.42 16.49 16.49 0 0 0-7 4.32 22.51 22.51 0 0 0-2.57 3.31 21.92 21.92 0 0 0-1.23 2.45c1.27-.72 2.67-1.48 4-2.2A71.74 71.74 0 0 1 98.53 76a13 13 0 0 1 3.49-.17 15.34 15.34 0 0 0 3 0 14.07 14.07 0 0 0 2.77-.72 12.4 12.4 0 0 1 3.16-.74 10.52 10.52 0 0 1 3.09.33 8.41 8.41 0 0 1 2.73 1.47 9.5 9.5 0 0 1 1.91 2.56 8 8 0 0 0 1.32 1.91 5.35 5.35 0 0 0 1.19.76 3.69 3.69 0 0 0 .53.22l.41.11a1.34 1.34 0 0 1 .11-.21 4 4 0 0 1 1.36-1 3.3 3.3 0 0 0 .78-.54.69.69 0 0 0 .1-.25 2.75 2.75 0 0 1 .21-1.22 1.64 1.64 0 0 1 1.17-.86s.19-.1.35-.22a13.11 13.11 0 0 0 1.06-.9 8.18 8.18 0 0 1 3.63-2 5.56 5.56 0 0 1 2.3 0 7.11 7.11 0 0 1 2.19 1 5.12 5.12 0 0 0 1.46.69 3.55 3.55 0 0 0 1.34 0 2.18 2.18 0 0 1 2.39.75c.19.3.41.65 0 5.59l.28-.09a4.6 4.6 0 0 1 1.83 0 6.2 6.2 0 0 1 1.83.87A6.45 6.45 0 0 0 146 84a12.12 12.12 0 0 0-.28-1.31 26.1 26.1 0 0 0-1.4-3.44 25.27 25.27 0 0 0-1.92-3 53.85 53.85 0 0 0-3.79-4.1c-.9-.88-2-2-2.83-2.91-.46-.5-.86-.93-1.14-1.26a37.53 37.53 0 0 0-3.83-.74 42.68 42.68 0 0 0-4.32-.35z" fill="none"/><path d="M127.8 50a23.23 23.23 0 0 0-4.35-1.54c-1.3-.29-4.58-.77-7.3-1.06a51.13 51.13 0 0 0-7-.34 24.84 24.84 0 0 0-4 .73 22.07 22.07 0 0 1-4.16.73 24.16 24.16 0 0 1-4.31-.22 8.65 8.65 0 0 0-3.41.25 9.5 9.5 0 0 0-3 2A23.72 23.72 0 0 1 87 53.33a17.91 17.91 0 0 1-3.65 1.74c-.92.29-3.21 1.24-5 2.07a65.91 65.91 0 0 0-6.42 3.52 37.89 37.89 0 0 0-4.37 3.19 107.16 107.16 0 0 0-6.44 8.93c-2.86 4.27-6 9.32-6.91 11.24a21.85 21.85 0 0 0-1.86 5.18 15.09 15.09 0 0 0 .19 3.73 32.67 32.67 0 0 1 .46 4.25 28.38 28.38 0 0 1-.19 4.07c-.14 1-.36 5.48-.48 9.76a58.52 58.52 0 0 0 .26 9.53 13.52 13.52 0 0 0 1.58 3.28c.67 1 2.05 3.24 3.09 5.08s2.58 4.91 3.44 6.84a48.36 48.36 0 0 0 2.47 4.89 74.19 74.19 0 0 0 4.76 5.72 45.46 45.46 0 0 0 5.22 5.13 15.88 15.88 0 0 0 3.21 1.5c.37.12.8.27 1.26.44.92.35 1.85.74 2.49 1.06a30.24 30.24 0 0 1 3.42 2 26.38 26.38 0 0 0 3.16 1.86 28.13 28.13 0 0 0 3.52 1.34 23.85 23.85 0 0 0 3.72.7 24.79 24.79 0 0 0 3.83 0c.46 0 1-.07 1.59-.07a19 19 0 0 1 2.68.17 20.55 20.55 0 0 1 4.15 1.19 16.16 16.16 0 0 0 3.49 1 12 12 0 0 0 3.21-.12c.9-.19 3.15-.83 4.9-1.41a42.19 42.19 0 0 1 5.14-1.37 21.79 21.79 0 0 1 3.64-.18 9.59 9.59 0 0 0 2.91-.39 9.3 9.3 0 0 0 2.49-1.47 34.21 34.21 0 0 1 2.78-2.15 31.73 31.73 0 0 1 3-1.74 18 18 0 0 0 2.56-1.63 18.29 18.29 0 0 0 2.18-2.14c.29-.35.7-.79 1.16-1.25s1-.92 1.33-1.23a24.79 24.79 0 0 1 3-2 20.92 20.92 0 0 0 2.51-1.69 11.35 11.35 0 0 0 1.63-1.72 3.38 3.38 0 0 0 .54-1.38 2.68 2.68 0 0 0-.42-1.23 2.94 2.94 0 0 0-.93-.81l-.11-.06a2.44 2.44 0 0 0-1 .05c-.56.18-1.46.41-2 .52a38.46 38.46 0 0 1-4 .34 14.83 14.83 0 0 0-3.78.6 17.66 17.66 0 0 0-2.57 1.56 33.47 33.47 0 0 1-3.29 2.08 35 35 0 0 1-3.59 1.62c-.45.17-1.27.53-2.26 1s-2.11 1-3.07 1.53a26.89 26.89 0 0 1-5.94 2.36c-1.37.24-5.09-.19-7.89-.74a39.37 39.37 0 0 0-6.81-.88 13.28 13.28 0 0 0-3 .83 8.27 8.27 0 0 1-3.71.61 7.39 7.39 0 0 1-3.33-1.52 24.56 24.56 0 0 0-2.8-2c-.77-.45-3.6-1.81-6.57-3.16l-.89-.4c-3-1.33-6.66-3.32-7.67-4.4s-2.82-4.85-4-7.84a78.93 78.93 0 0 0-3.28-7.43 18.51 18.51 0 0 0-2-2.64 6.55 6.55 0 0 1-1.82-6.79 16.9 16.9 0 0 0 .54-3 13.78 13.78 0 0 0-.19-2.84c-.16-.79-.49-2.14-.73-2.94s-.72-2.16-1.05-3a9.68 9.68 0 0 1-.62-3.44 9.13 9.13 0 0 1 .94-3.32A24.62 24.62 0 0 0 66 92.72a22.16 22.16 0 0 0 .75-2.78A13.12 13.12 0 0 1 68 86.63a21.41 21.41 0 0 1 2.38-3.28 23.71 23.71 0 0 0 2.33-3.21 24.55 24.55 0 0 0 1.65-3.67 24.11 24.11 0 0 1 1.86-4 23.67 23.67 0 0 1 2.7-3.47 17.48 17.48 0 0 1 7.46-4.58A34 34 0 0 0 90 63a21.44 21.44 0 0 0 2.8-1.63 18.31 18.31 0 0 1 2.9-1.66 17.7 17.7 0 0 1 3.16-1 18.1 18.1 0 0 1 3.29-.26 18.49 18.49 0 0 1 3.3.46 19.07 19.07 0 0 0 3.18.43 30.11 30.11 0 0 0 3.81-.18 40.45 40.45 0 0 1 4.39-.24 43.81 43.81 0 0 1 4.41.3 37.83 37.83 0 0 1 4.27.85 33.45 33.45 0 0 1 3.95 1.41 21.71 21.71 0 0 1 3.57 2.1 22 22 0 0 1 3 2.87c.27.32.7.79 1.2 1.33.86.92 1.9 2 2.78 2.85A55.05 55.05 0 0 1 144 75a27.26 27.26 0 0 1 2.1 3.34 28 28 0 0 1 1.53 3.76A17.07 17.07 0 0 1 148 84c.3 1.74.62 4.22.84 6.47s.49 4.66.7 6.35c.1.75.18 1.33.24 1.63a21.55 21.55 0 0 0 .87 3.1 12.91 12.91 0 0 1 .75 3.25 11.66 11.66 0 0 1-.32 3.23 16.73 16.73 0 0 1-1.47 3.37 35.57 35.57 0 0 1-2.65 3.74c-.85 1-2.05 2.68-2.68 3.67-.19.3-.41.66-.62 1-.51.88-1 1.8-1.26 2.4a10.07 10.07 0 0 1-2.09 3 8.25 8.25 0 0 1-4 1.37c-1.35.12-3.12.19-3.94.17-1.89-.06-2.29-.53-2.43-1a1.86 1.86 0 0 1 1-1.85 2 2 0 0 0 .53-.55 1.08 1.08 0 0 0-.07-.3 4.77 4.77 0 0 1-.4-2.05 13.56 13.56 0 0 1 .42-2.61 24.81 24.81 0 0 0 .52-2.67 25.06 25.06 0 0 0 .15-2.73 26.77 26.77 0 0 1 .17-3 26.45 26.45 0 0 1 .57-2.93 17.18 17.18 0 0 1 1.14-2.91 20.65 20.65 0 0 1 1.8-2.76A9.73 9.73 0 0 0 137 99a8 8 0 0 0 .32-2.45c-.06-1 .38-5.92.84-10.14.14-1.28.26-2.5.35-3.63.22-2.55.28-4.08.27-4.74h-.09a5.49 5.49 0 0 1-2.31.06 7 7 0 0 1-2.19-1 5.24 5.24 0 0 0-1.47-.71 3.68 3.68 0 0 0-1.36 0 7.86 7.86 0 0 0-1.48.58 7.76 7.76 0 0 0-1.28.93 14.71 14.71 0 0 1-1.22 1.1 4.24 4.24 0 0 1-.89.48v.12a2.53 2.53 0 0 1-.57 1.61 5 5 0 0 1-1.43 1l-.27.15a1.1 1.1 0 0 1 0 .85 1.16 1.16 0 0 1-1.19.68 12.18 12.18 0 0 1-1.85-.41 5.51 5.51 0 0 1-.84-.33 7.25 7.25 0 0 1-1.69-1.09 9.89 9.89 0 0 1-1.82-2.52 7.52 7.52 0 0 0-1.43-1.93 6.38 6.38 0 0 0-2-1.06 8.66 8.66 0 0 0-2.4-.26 10.58 10.58 0 0 0-2.56.61 15.94 15.94 0 0 1-3.25.84 17.16 17.16 0 0 1-3.43 0 11 11 0 0 0-2.86.13 75.34 75.34 0 0 0-8.42 4c-1.75.92-3.55 1.9-5 2.77a23 23 0 0 0-3 1.89A9.84 9.84 0 0 0 80.92 89c-.36.81-1.15 2.9-1.73 4.55s-1.37 4.45-1.76 6.13c-.1.47-.22 1.13-.35 1.89-.35 2.11-.72 5-.95 7.27a49.2 49.2 0 0 0-.35 7 35.6 35.6 0 0 0 1.86 4.26c.31.65.65 1.32 1 2a60.33 60.33 0 0 0 4.12 7.06 28.63 28.63 0 0 0 3.4 3.49A15.64 15.64 0 0 0 90.1 135a10.9 10.9 0 0 0 1.47.38 15.09 15.09 0 0 0 3 .3 28.48 28.48 0 0 1 4.56.27 10.87 10.87 0 0 1 3.3 1.16 6.48 6.48 0 0 0 1.87.75 5.14 5.14 0 0 0 1.8-.12 11.22 11.22 0 0 0 1.93-.81 11.77 11.77 0 0 0 1.72-1.25c.46-.42 1.18-1.14 1.56-1.57a20.34 20.34 0 0 0 1.27-1.62c.89-1.29 1.45-1.31 1.66-1.32h.45l.39.36a2.08 2.08 0 0 1 .4 1.58 4.51 4.51 0 0 0 .13 1.28 5 5 0 0 0 .62 1.21 8.42 8.42 0 0 0 1.06 1.13 8.58 8.58 0 0 0 1.31.86 13.86 13.86 0 0 0 1.57.66 15.78 15.78 0 0 0 1.74.44 4.27 4.27 0 0 0 1.35-.1l.42-.11h.12a15.49 15.49 0 0 0 2.56-1.31 31.44 31.44 0 0 1 7.12-3.41c1-.33 2.58-.94 3.54-1.36s2.51-1.18 3.45-1.7l1-.58c.82-.48 1.66-1 2.2-1.37.81-.55 2.1-1.51 2.81-2.1a22.84 22.84 0 0 0 2.44-2.48 31.32 31.32 0 0 0 2.22-3.2 29.73 29.73 0 0 1 2.66-3.65 34.13 34.13 0 0 1 3.4-3.27 15.66 15.66 0 0 0 2.13-2.22 9.57 9.57 0 0 0 .62-.86 14 14 0 0 0 1.47-3.71 36.31 36.31 0 0 0 .58-4.29c.07-1.19 0-5.55-.1-9.52a53.83 53.83 0 0 0-.93-9.43 49.45 49.45 0 0 0-4.87-8.14c-2.29-3.26-4.94-6.8-5.8-7.73s-5.11-4.57-9.29-8l-4.45-3.61A92.3 92.3 0 0 0 127.8 50z" fill="#231f20"/><path d="M138 56.08l-.76-.35 1 .79 3.48 2.82c4.27 3.47 8.5 7.09 9.39 8.06s3.54 4.49 5.88 7.83a50.09 50.09 0 0 1 5 8.41 54.52 54.52 0 0 1 1 9.7c.13 4.05.17 8.38.1 9.61a37 37 0 0 1-.6 4.43 15 15 0 0 1-1.6 4 10.63 10.63 0 0 1-.68 1 12 12 0 0 1-.17 1.72c0 .22-.08.44-.13.62a15.87 15.87 0 0 1-1.37 3.13 34.52 34.52 0 0 1-2.56 3.61c-.87 1.06-2.1 2.75-2.75 3.76a33.07 33.07 0 0 0-2 3.56 9.11 9.11 0 0 1-1.83 2.65 7.34 7.34 0 0 1-3.45 1.12c-1.32.11-3 .19-3.82.17a6.11 6.11 0 0 1-1.08-.12.64.64 0 0 1-.42-.19 1.23 1.23 0 0 1 .63-.75 3.11 3.11 0 0 0 .76-.76l-1 .59c-1 .52-2.54 1.3-3.53 1.73s-2.61 1.06-3.62 1.39a37.27 37.27 0 0 0-3.56 1.44 36.8 36.8 0 0 0-3.34 1.86 16.51 16.51 0 0 1-2.76 1.41 2 2 0 0 1 0 .62 3.93 3.93 0 0 0 0 .43 5.36 5.36 0 0 0 .18 1.22 5.9 5.9 0 0 0 .78 1.52 9.33 9.33 0 0 0 1.22 1.29 9.82 9.82 0 0 0 1.5 1l.34.16c1-.47 1.85-.85 2.34-1a33.67 33.67 0 0 0 3.47-1.57 32.34 32.34 0 0 0 3.17-2 18.51 18.51 0 0 1 2.76-1.67 15.18 15.18 0 0 1 4.14-.68 37.66 37.66 0 0 0 3.85-.32c.52-.11 1.38-.33 1.91-.5a3.14 3.14 0 0 1 1.75 0l.12.06 1-.58c.48-.29.93-.58 1.28-.81.85-.57 2.15-1.55 2.89-2.16a23.71 23.71 0 0 0 2.57-2.61 32.06 32.06 0 0 0 2.31-3.32 28.53 28.53 0 0 1 2.55-3.5 33 33 0 0 1 3.28-3.15 16.27 16.27 0 0 0 3-3.33 15 15 0 0 0 1.6-4 37 37 0 0 0 .6-4.43c.07-1.23 0-5.56-.1-9.61a54.52 54.52 0 0 0-1-9.7 50.09 50.09 0 0 0-5-8.41c-2.34-3.34-5-6.87-5.88-7.83s-5.12-4.6-9.39-8.06l-.17-.14-3.31-2.68a103.06 103.06 0 0 0-9.97-7.48z" fill="#231f20"/><path d="M80.21 129.85A19.38 19.38 0 0 0 78 127a7.07 7.07 0 0 1-1.57-2.69 6.68 6.68 0 0 1-.05-2.19 6 6 0 0 1 .18-.92c.06-.19.11-.42.16-.64a35.4 35.4 0 0 1-1.94-4.49 46.27 46.27 0 0 1 .32-7.29 8.67 8.67 0 0 1-.55-3 8.12 8.12 0 0 1 .82-2.89c.21-.4.47-.93.7-1.46.13-.78.25-1.46.36-1.94.39-1.76 1.2-4.59 1.79-6.29s1.38-3.78 1.76-4.63a10.73 10.73 0 0 1 1.8-2.66A23.23 23.23 0 0 1 85 83.84v-.11c.14-.4.33-.88.54-1.38a21.92 21.92 0 0 1 1.23-2.45 22.51 22.51 0 0 1 2.57-3.31 16.49 16.49 0 0 1 7-4.32 34.54 34.54 0 0 0 3.71-1.42 22.3 22.3 0 0 0 3-1.73 17.49 17.49 0 0 1 2.71-1.56 16.78 16.78 0 0 1 2.94-.91 17 17 0 0 1 3.07-.25 17.65 17.65 0 0 1 3.09.43 20 20 0 0 0 3.39.46 31.23 31.23 0 0 0 4-.18 41.74 41.74 0 0 1 4.26-.24 42.68 42.68 0 0 1 4.29.29 37.53 37.53 0 0 1 3.83.74l.3.08c.45.12 1 .3 1.57.49-.52-.56-1-1-1.24-1.37a21.26 21.26 0 0 0-2.86-2.72 20.9 20.9 0 0 0-3.38-2 32.24 32.24 0 0 0-3.8-1.36 36.69 36.69 0 0 0-4.14-.82 42.68 42.68 0 0 0-4.29-.29 41.74 41.74 0 0 0-4.26.24 31.23 31.23 0 0 1-4 .18 20 20 0 0 1-3.39-.46 17.65 17.65 0 0 0-3.09-.43 17 17 0 0 0-3.07.25 16.78 16.78 0 0 0-2.94.91 17.49 17.49 0 0 0-2.71 1.56 22.3 22.3 0 0 1-3 1.73 34.54 34.54 0 0 1-3.71 1.42 16.49 16.49 0 0 0-7 4.32A22.51 22.51 0 0 0 77.07 73a23 23 0 0 0-1.77 3.83 25.45 25.45 0 0 1-1.73 3.85A24.63 24.63 0 0 1 71.12 84a20.59 20.59 0 0 0-2.25 3.1 12.17 12.17 0 0 0-1.12 3 23.17 23.17 0 0 1-.75 2.96 25.44 25.44 0 0 1-1.27 2.86 8.12 8.12 0 0 0-.82 2.89 8.67 8.67 0 0 0 .55 3c.34.85.83 2.23 1.08 3.07s.59 2.2.76 3a14.75 14.75 0 0 1 .2 3.09 17.84 17.84 0 0 1-.58 3.25 5.56 5.56 0 0 0 1.44 5.8 19.38 19.38 0 0 1 2.18 2.82 79.61 79.61 0 0 1 3.36 7.59c1.31 3.3 3 6.69 3.81 7.53s4.09 2.72 7.35 4.18l.9.4c-.23-.43-.46-.92-.7-1.42-.56-1.16-1.13-2.46-1.64-3.75a79.61 79.61 0 0 0-3.41-7.52zM146.89 147.89c-.66.49-1.7 1.15-2.56 1.66-.42.42-.82.84-1.1 1.19a19.23 19.23 0 0 1-2.33 2.26 18.9 18.9 0 0 1-2.73 1.74 30.65 30.65 0 0 0-2.85 1.67 33 33 0 0 0-2.68 2.07 10.21 10.21 0 0 1-2.82 1.66 10.51 10.51 0 0 1-3.28.44 20.9 20.9 0 0 0-3.44.17 41.91 41.91 0 0 0-5 1.34c-1.81.59-4.07 1.24-5 1.44a12.94 12.94 0 0 1-3.54.13 17.12 17.12 0 0 1-3.75-1 19.79 19.79 0 0 0-3.91-1.12 19.13 19.13 0 0 0-4-.1 25.57 25.57 0 0 1-4 0 24.76 24.76 0 0 1-3.91-.74 29 29 0 0 1-3.67-1.4 27.15 27.15 0 0 1-3.31-2 29.16 29.16 0 0 0-3.29-2c-.63-.31-1.55-.7-2.4-1 .56.61 1.13 1.22 1.69 1.79a29.21 29.21 0 0 0 3.36 3.11 16.86 16.86 0 0 0 3.46 1.62 30.32 30.32 0 0 1 3.6 1.44 29.16 29.16 0 0 1 3.29 2 27.15 27.15 0 0 0 3.31 2 29 29 0 0 0 3.67 1.4 24.76 24.76 0 0 0 3.91.74 25.57 25.57 0 0 0 4 0 19.13 19.13 0 0 1 4 .1 19.79 19.79 0 0 1 3.91 1.12 17.12 17.12 0 0 0 3.75 1 12.94 12.94 0 0 0 3.54-.13c.95-.2 3.2-.84 5-1.44a41.91 41.91 0 0 1 5-1.34 20.9 20.9 0 0 1 3.44-.17 10.51 10.51 0 0 0 3.28-.44 10.21 10.21 0 0 0 2.82-1.66 33 33 0 0 1 2.68-2.07 30.65 30.65 0 0 1 2.85-1.67 18.9 18.9 0 0 0 2.73-1.74 19.23 19.23 0 0 0 2.33-2.28 21.52 21.52 0 0 1 2.36-2.35 23.63 23.63 0 0 1 2.84-1.94 21.88 21.88 0 0 0 2.65-1.79 12.18 12.18 0 0 0 1.81-1.91 4.27 4.27 0 0 0 .73-1.93 3.58 3.58 0 0 0-.61-1.84 3.8 3.8 0 0 0-1.43-1.2 3.14 3.14 0 0 0-1.75 0c-.52.17-1.38.39-1.91.5a37.66 37.66 0 0 1-3.85.32 20.91 20.91 0 0 0-2.6.29 7.59 7.59 0 0 0-1.54.39 18.51 18.51 0 0 0-2.75 1.67zM142.7 82.37a4.6 4.6 0 0 0-1.83 0l-.28.09a9.45 9.45 0 0 0-1 .39c-.1 1.13-.22 2.37-.36 3.65-.51 4.68-.89 9.17-.84 10a8.93 8.93 0 0 1-.37 2.83 10.6 10.6 0 0 1-1.46 2.64 19.79 19.79 0 0 0-1.69 2.61 16.27 16.27 0 0 0-1.06 2.71 25.29 25.29 0 0 0-.55 2.8 25.74 25.74 0 0 0-.16 2.86 26 26 0 0 1-.16 2.86 25.54 25.54 0 0 1-.54 2.8 12.62 12.62 0 0 0-.4 2.39 3.82 3.82 0 0 0 .3 1.58 1.6 1.6 0 0 1 .13 1.13 2.69 2.69 0 0 1-.9 1 1.23 1.23 0 0 0-.63.75 2.65 2.65 0 0 0 1.5.3c.78 0 2.5-.05 3.82-.17a7.34 7.34 0 0 0 3.45-1.12 9.11 9.11 0 0 0 1.83-2.65c.3-.66.81-1.62 1.31-2.49 0-.69.07-1.5.13-2.11v-.2a25.29 25.29 0 0 1 .55-2.8 16.27 16.27 0 0 1 1.06-2.71 19.79 19.79 0 0 1 1.69-2.61 10.6 10.6 0 0 0 1.46-2.64 8.93 8.93 0 0 0 .37-2.83c0-.35 0-1.43.16-2.91.08-1 .19-2.26.32-3.59-.21-1.62-.48-4-.71-6.38s-.54-4.74-.83-6.4a3.58 3.58 0 0 1-.66-.06L146 84a6.45 6.45 0 0 1-1.44-.74 6.2 6.2 0 0 0-1.86-.89z" fill="#231f20"/><path d="M123.08 82.95c.24 0 .29-.11.11-.27a.52.52 0 0 1-.12-.16 9.7 9.7 0 0 0-2.31-.22 4.72 4.72 0 0 0 .69.28 11.45 11.45 0 0 0 1.63.37zM95.23 140.41a16.59 16.59 0 0 0 4.25 2.46 16.09 16.09 0 0 0 4.8.73 27.35 27.35 0 0 1 4.37.26 9.92 9.92 0 0 1 2.94 1 7.35 7.35 0 0 0 2.24.89 6 6 0 0 0 2.25-.14 12.25 12.25 0 0 0 2.14-.9 12.78 12.78 0 0 0 1.9-1.38c.49-.44 1.23-1.19 1.64-1.65.25-.28.57-.67.85-1s.36-.48.5-.67a5 5 0 0 1 .36-.46 5.11 5.11 0 0 1-1.74.11 16.88 16.88 0 0 1-1.87-.48 15 15 0 0 1-1.71-.71 9.54 9.54 0 0 1-1.5-1 9.33 9.33 0 0 1-1.22-1.29 5.9 5.9 0 0 1-.78-1.52 5.42 5.42 0 0 1-.17-1.65.83.83 0 0 0-.2-.85 2.37 2.37 0 0 0-.87.89 21.24 21.24 0 0 1-1.35 1.72c-.41.46-1.15 1.21-1.64 1.65a12.78 12.78 0 0 1-1.9 1.38 12.25 12.25 0 0 1-2.14.9 6 6 0 0 1-2.25.14 7.35 7.35 0 0 1-2.24-.89 9.92 9.92 0 0 0-2.94-1 27.35 27.35 0 0 0-4.37-.26 16 16 0 0 1-3.19-.32l.31.43c.18.22.39.47.62.73a30.1 30.1 0 0 0 2.91 2.88z" fill="#231f20"/></svg>