<svg xmlns="http://www.w3.org/2000/svg" width="123.56" height="200" viewBox="0 0 123.56 200"><title>_</title><path d="M2.47 148.78c.44 0 1-.06 1.62-.06a24.21 24.21 0 0 1 2.94.17 27 27 0 0 1 2.94.61c.62.16 1.22.34 1.7.5a17 17 0 0 0 4 .76 70 70 0 0 0 9.71-1.56c4.75-1 8.16-1.81 8.51-1.93a2.76 2.76 0 0 0 .79-.52 3.13 3.13 0 0 0 .46-.92 11.55 11.55 0 0 0 .27-1.62 13 13 0 0 0 0-1.73 16.44 16.44 0 0 1 0-2.21 14.4 14.4 0 0 1 .33-2.11 3.94 3.94 0 0 1 2.38-2.4c1.49-.57 8.29-.4 8.58-.39 3.63.1 7.7.1 8.88 0a38 38 0 0 0 4.31-.63 35.43 35.43 0 0 1 4.78-.64 34.83 34.83 0 0 1 4.82.16 20.59 20.59 0 0 1 4.14.92 7.27 7.27 0 0 1 2.81 1.92 5.89 5.89 0 0 1 1.09 2.62 6.71 6.71 0 0 1-.44 2.85 2 2 0 0 0-.09.29 2.58 2.58 0 0 0-.07.85 2.44 2.44 0 0 0 .61.84 10.19 10.19 0 0 1 1.67 1.7 5.13 5.13 0 0 1 .75 1.61l.16.06c.14 0 1.38.23 5.19.61 1.67.17 3.59.34 5.57.52l12.39 1.07a62.19 62.19 0 0 0 9 .27 4.12 4.12 0 0 0-.44-.82c-.77-1.11-1.85-2.87-2.41-3.93s-1.92-4.28-3-7.18a45.46 45.46 0 0 1-2.32-7.46 21.29 21.29 0 0 1 .07-4.29 9.86 9.86 0 0 0-.2-3.21 9 9 0 0 0-1.5-2.69 16.14 16.14 0 0 1-2.27-3.58 28.1 28.1 0 0 1-1.3-5.85 81.62 81.62 0 0 0-1.9-8.87c-.76-2.85-1.71-6-2.07-6.86a35.13 35.13 0 0 0-1.55-3.16c-.49-.95-1.27-2.49-1.69-3.49s-1-2.59-1.34-3.61a25.71 25.71 0 0 0-1.28-3.19 27.5 27.5 0 0 0-1.82-3 18.48 18.48 0 0 1-1.95-3.63 18.33 18.33 0 0 1-.91-4 12.3 12.3 0 0 0-.8-3.11 13.39 13.39 0 0 0-1.82-2.78 11.47 11.47 0 0 1-2.16-3.83 12.3 12.3 0 0 1-.27-4.46 13.32 13.32 0 0 0 0-3.42 17 17 0 0 0-2.08-4.31l-.26-.34c-1-1.53-2.17-3.17-2.65-3.73A8 8 0 0 0 72.28 44a12.7 12.7 0 0 0-3.12-.87 30.52 30.52 0 0 0-4-.2 38.77 38.77 0 0 0-4.28.41 24.45 24.45 0 0 1-5 .19 25.88 25.88 0 0 1-5-1 26 26 0 0 0-4.3-1 23.51 23.51 0 0 0-4.25 0 12.14 12.14 0 0 0-3.46 1 8.37 8.37 0 0 0-2.31 2A16.65 16.65 0 0 0 35 47.32a16.69 16.69 0 0 0-.86 3.2 25 25 0 0 1-.94 3.88 24.89 24.89 0 0 1-1.67 3.6c-.42.72-2 4.29-3.63 8.25a64.79 64.79 0 0 0-2.9 8.34 17.13 17.13 0 0 0 0 3.53 24.47 24.47 0 0 1 .08 4.26 20.4 20.4 0 0 1-.83 4A27.2 27.2 0 0 1 22.63 90a29.15 29.15 0 0 1-2.24 3.36 16 16 0 0 0-1.74 2.88 15.18 15.18 0 0 0-.88 3.17 25.13 25.13 0 0 1-.92 3.88 25 25 0 0 1-1.65 3.63 19.69 19.69 0 0 0-1.37 3.08 20.11 20.11 0 0 0-.7 3.33 15.81 15.81 0 0 1-1.06 4 16.73 16.73 0 0 1-2.28 3.55 19.7 19.7 0 0 0-2 2.86 70 70 0 0 0-2.64 8.45c-.94 3.56-2.2 7.92-2.67 9-.37.88-.91 2.36-1.18 3.22s-.62 2.31-.78 3.15a1.85 1.85 0 0 0 .09 1 4.69 4.69 0 0 0 1.86.22z"/><path d="M36.6 146.19a4.43 4.43 0 0 1-.79 1.54 4.12 4.12 0 0 1-1.4.93c-.47.17-4.39 1.07-8.71 2a70 70 0 0 1-10.08 1.59 18.62 18.62 0 0 1-4.43-.84c-.45-.16-1-.32-1.59-.47-.08.27-.17.59-.26.92-.22.82-.44 1.75-.56 2.39a2.75 2.75 0 0 0 .58 2.38 5 5 0 0 0 3 .54 23.12 23.12 0 0 1 4.23.1 27.51 27.51 0 0 1 4.36 1 18.62 18.62 0 0 0 4.43.84 70 70 0 0 0 10.02-1.51c4.32-.92 8.24-1.81 8.71-2a4.12 4.12 0 0 0 1.4-.93 4.43 4.43 0 0 0 .79-1.54 13 13 0 0 0 .31-1.89 14.44 14.44 0 0 0 0-2 15 15 0 0 1 0-2 12.92 12.92 0 0 1 .29-1.85 2.5 2.5 0 0 1 1.46-1.37 42.32 42.32 0 0 1 8-.29c3.72.1 7.79.1 9 0a39.17 39.17 0 0 0 4.52-.66 33.62 33.62 0 0 1 4.54-.61h1.06a3.58 3.58 0 0 1 .16-.51 5.29 5.29 0 0 0 .34-2.13 4.43 4.43 0 0 0-.78-1.87 5.85 5.85 0 0 0-2.16-1.44 19.22 19.22 0 0 0-3.77-.83 33.43 33.43 0 0 0-4.57-.15 33.62 33.62 0 0 0-4.54.61 39.17 39.17 0 0 1-4.52.66c-1.24.09-5.31.09-9 0a42.32 42.32 0 0 0-8 .29 2.5 2.5 0 0 0-1.46 1.37 12.92 12.92 0 0 0-.29 1.85 15 15 0 0 0 0 2 14.44 14.44 0 0 1 0 2 13 13 0 0 1-.29 1.88zM110.1 118.16a83.6 83.6 0 0 0-1.9-9.09c-.79-2.94-1.75-6.11-2.14-7.05a36.33 36.33 0 0 0-1.63-3.33c-.51-.89-1.25-2.39-1.66-3.32s-1-2.49-1.28-3.45a27.25 27.25 0 0 0-1.38-3.42 28.84 28.84 0 0 0-1.94-3.21A17 17 0 0 1 96.42 82a16.84 16.84 0 0 1-.82-3.61 13.71 13.71 0 0 0-.92-3.58 14.74 14.74 0 0 0-2.07-3.17 10.12 10.12 0 0 1-1.84-3.25 11 11 0 0 1-.23-3.83 14.7 14.7 0 0 0 0-3.9 18 18 0 0 0-2.29-4.86c-1.08-1.66-2.43-3.57-3-4.24a9.37 9.37 0 0 0-2.57-2 14 14 0 0 0-3.09-.93l-.48-.08-.81-.09.24.36a18 18 0 0 1 2.29 4.86 14.7 14.7 0 0 1 0 3.9 11 11 0 0 0 .23 3.83 10.12 10.12 0 0 0 1.84 3.29 14.74 14.74 0 0 1 2.1 3.17 13.71 13.71 0 0 1 .92 3.58 16.84 16.84 0 0 0 .82 3.61 17 17 0 0 0 1.76 3.28 28.84 28.84 0 0 1 1.94 3.21A27.25 27.25 0 0 1 91.79 85c.3 1 .88 2.52 1.28 3.45s1.15 2.42 1.66 3.32a36.33 36.33 0 0 1 1.63 3.33c.39.94 1.35 4.11 2.14 7.05a83.6 83.6 0 0 1 1.9 9.09 26.63 26.63 0 0 0 1.19 5.44 14.62 14.62 0 0 0 2 3.19 10.38 10.38 0 0 1 1.81 3.26 11.18 11.18 0 0 1 .25 3.82 19.87 19.87 0 0 0-.06 3.93 44.77 44.77 0 0 0 2.16 7c1.07 2.84 2.39 6 2.93 7s1.58 2.71 2.32 3.78 1.05 2.35.7 2.85-5.12.52-10.6 0l-12.39-1.07c-2-.17-3.92-.35-5.59-.52a3 3 0 0 0 0 1 3.7 3.7 0 0 0 1.12 1.63 9 9 0 0 1 1.39 1.4 3.32 3.32 0 0 1 .55 1.3 1.58 1.58 0 0 0 1.16.94c.6.18 5.58.71 11.06 1.18l12.39 1.07c5.48.47 10.25.45 10.6 0s0-1.78-.7-2.85-1.78-2.77-2.32-3.78-1.86-4.16-2.93-7a44.77 44.77 0 0 1-2.16-7 19.87 19.87 0 0 1 .06-3.93 11.18 11.18 0 0 0-.25-3.82 10.38 10.38 0 0 0-1.81-3.26 14.62 14.62 0 0 1-2-3.19 26.63 26.63 0 0 1-1.18-5.45z"/></svg>