<svg xmlns="http://www.w3.org/2000/svg" width="200" height="200" viewBox="0 0 200 200"><title>_</title><path d="M127.5 58.2c-1-1.54-2.19-3.21-2.68-3.78a8.42 8.42 0 0 0-2.25-1.71 13.09 13.09 0 0 0-3.27-.92 32 32 0 0 0-4.06-.21 39.42 39.42 0 0 0-4.35.41 23.82 23.82 0 0 1-4.87.18 25.27 25.27 0 0 1-4.85-1 26.55 26.55 0 0 0-4.4-1 24.07 24.07 0 0 0-4.36 0 12.54 12.54 0 0 0-3.64 1 8.83 8.83 0 0 0-2.48 2.11 17.26 17.26 0 0 0-1.69 3 17 17 0 0 0-.89 3.31 24.42 24.42 0 0 1-.91 3.79 24.26 24.26 0 0 1-1.63 3.53c-.44.75-2 4.27-3.66 8.31a64.33 64.33 0 0 0-3 8.44 17.74 17.74 0 0 0 0 3.66 23.84 23.84 0 0 1 .08 4.15 19.82 19.82 0 0 1-.81 3.87 26.51 26.51 0 0 1-1.56 3.54 28.51 28.51 0 0 1-2.2 3.29 16.39 16.39 0 0 0-1.8 3 15.55 15.55 0 0 0-.92 3.3 20.18 20.18 0 0 1-2.51 7.33 20.31 20.31 0 0 0-1.36 3.2 20.71 20.71 0 0 0-.72 3.43 15.22 15.22 0 0 1-1 3.87 16.15 16.15 0 0 1-2.2 3.43 20.26 20.26 0 0 0-2.06 2.95 69.43 69.43 0 0 0-2.68 8.56c-.94 3.55-2.18 7.88-2.65 9-.38.9-.93 2.39-1.2 3.27s-.63 2.34-.79 3.21a2 2 0 0 0 .24 1.42 4.49 4.49 0 0 0 2.24.32c.44 0 1-.06 1.57-.06a23.75 23.75 0 0 1 2.87.16 26.46 26.46 0 0 1 2.88.59c.61.16 1.19.33 1.67.49a17.64 17.64 0 0 0 4.14.78 69 69 0 0 0 9.83-1.57c4.53-1 8.16-1.8 8.58-1.95a3.2 3.2 0 0 0 1-.66 3.53 3.53 0 0 0 .57-1.13 12 12 0 0 0 .28-1.71 13.38 13.38 0 0 0 0-1.82 15.81 15.81 0 0 1 0-2.13 13.78 13.78 0 0 1 .32-2 3.46 3.46 0 0 1 2.08-2.06c1-.4 5.59-.43 8.39-.36 3.64.09 7.73.1 8.93 0a38.56 38.56 0 0 0 4.38-.64 34.77 34.77 0 0 1 4.7-.63 34.22 34.22 0 0 1 4.74.15 20 20 0 0 1 4 .89 6.82 6.82 0 0 1 2.59 1.76 5.41 5.41 0 0 1 1 2.37 6.25 6.25 0 0 1-.41 2.61 2.51 2.51 0 0 0-.11.37 2.88 2.88 0 0 0-.07 1.08 2.79 2.79 0 0 0 .78 1.11 9.8 9.8 0 0 1 1.57 1.6 4.49 4.49 0 0 1 .71 1.62 1.26 1.26 0 0 0 .47.25c.21.06 1.58.25 5.28.62 1.67.17 3.59.35 5.58.52l12.39 1.07a53.1 53.1 0 0 0 9.68.2 4.36 4.36 0 0 0-.68-1.54c-.76-1.1-1.83-2.84-2.38-3.88s-1.9-4.24-3-7.12a45.66 45.66 0 0 1-2.22-7.29 20.71 20.71 0 0 1 .06-4.17 10.31 10.31 0 0 0-.22-3.41 9.47 9.47 0 0 0-1.61-2.88 15.54 15.54 0 0 1-2.19-3.45 27.6 27.6 0 0 1-1.26-5.71 82.1 82.1 0 0 0-1.87-9c-.77-2.86-1.73-6-2.1-6.93s-1.09-2.36-1.57-3.22-1.29-2.45-1.7-3.41-1-2.56-1.32-3.56a26.37 26.37 0 0 0-1.31-3.27 28.08 28.08 0 0 0-1.86-3.08 17.9 17.9 0 0 1-1.88-3.51 17.73 17.73 0 0 1-.88-3.87 12.72 12.72 0 0 0-.84-3.26 13.75 13.75 0 0 0-1.9-2.91 11.08 11.08 0 0 1-2.05-3.64 11.91 11.91 0 0 1-.26-4.25 13.7 13.7 0 0 0 0-3.58 17.32 17.32 0 0 0-2.15-4.5z" fill="#231f20"/><path d="M125.74 151.14a5.29 5.29 0 0 0 .34-2.13 4.43 4.43 0 0 0-.78-1.87 5.85 5.85 0 0 0-2.16-1.44 19.22 19.22 0 0 0-3.77-.83 27.53 27.53 0 0 0-9.11.46 39.17 39.17 0 0 1-4.52.66c-1.24.09-5.31.09-9 0a42.32 42.32 0 0 0-8 .29 2.5 2.5 0 0 0-1.46 1.37 12.92 12.92 0 0 0-.29 1.85 15 15 0 0 0 0 2 14.44 14.44 0 0 1 0 2 13 13 0 0 1-.31 1.89 4.43 4.43 0 0 1-.79 1.54 4.12 4.12 0 0 1-1.4.93c-.47.17-4.39 1.07-8.71 2a70 70 0 0 1-10.08 1.59 18.62 18.62 0 0 1-4.43-.84c-.45-.16-1-.32-1.59-.47-.08.27-.17.59-.26.92-.22.82-.44 1.75-.56 2.39a2.75 2.75 0 0 0 .58 2.38 5 5 0 0 0 3 .54 23.12 23.12 0 0 1 4.23.1 27.51 27.51 0 0 1 4.36 1 18.62 18.62 0 0 0 4.43.84 70 70 0 0 0 10.08-1.59c4.32-.92 8.24-1.81 8.71-2a4.12 4.12 0 0 0 1.4-.93 4.43 4.43 0 0 0 .79-1.54 13 13 0 0 0 .31-1.89 14.44 14.44 0 0 0 0-2 15 15 0 0 1 0-2 12.92 12.92 0 0 1 .29-1.85 2.5 2.5 0 0 1 1.46-1.37 42.32 42.32 0 0 1 8-.29c3.72.1 7.79.1 9 0a39.17 39.17 0 0 0 4.52-.66 33.62 33.62 0 0 1 4.54-.61h1.06a3.58 3.58 0 0 1 .12-.44zM128.34 57.65l.23.35a18 18 0 0 1 2.29 4.86 14.7 14.7 0 0 1 0 3.9 11 11 0 0 0 .23 3.83 10.12 10.12 0 0 0 1.91 3.26 14.74 14.74 0 0 1 2 3.15 13.71 13.71 0 0 1 1 3.6 16.84 16.84 0 0 0 .82 3.61 17 17 0 0 0 1.76 3.28 28.84 28.84 0 0 1 1.94 3.21 27.25 27.25 0 0 1 1.38 3.42c.3 1 .88 2.52 1.28 3.45s1.15 2.42 1.66 3.32a36.33 36.33 0 0 1 1.63 3.33c.39.94 1.35 4.11 2.14 7.05a83.6 83.6 0 0 1 1.9 9.09 26.63 26.63 0 0 0 1.19 5.44 14.62 14.62 0 0 0 2 3.19 10.38 10.38 0 0 1 1.81 3.26 11.18 11.18 0 0 1 .25 3.82 19.87 19.87 0 0 0-.06 3.93 44.77 44.77 0 0 0 2.16 7c1.07 2.84 2.39 6 2.93 7s1.58 2.71 2.32 3.78 1.05 2.35.7 2.85-5.12.52-10.6 0l-12.39-1.07c-2-.17-3.92-.35-5.59-.52a3 3 0 0 0 0 1 3.7 3.7 0 0 0 1.12 1.63 9 9 0 0 1 1.39 1.4 3.32 3.32 0 0 1 .55 1.3 1.58 1.58 0 0 0 1.16.94c.6.18 5.58.71 11.06 1.18l12.39 1.07c5.48.47 10.25.45 10.6 0s0-1.78-.7-2.85-1.8-2.71-2.33-3.71-1.86-4.16-2.93-7a44.77 44.77 0 0 1-2.16-7 19.87 19.87 0 0 1 .06-3.93 11.18 11.18 0 0 0-.25-3.82 10.38 10.38 0 0 0-1.81-3.26 14.62 14.62 0 0 1-2-3.19 26.63 26.63 0 0 1-1.19-5.44 83.6 83.6 0 0 0-1.9-9.09c-.79-2.94-1.75-6.11-2.14-7.05a36.33 36.33 0 0 0-1.63-3.33c-.51-.89-1.25-2.39-1.66-3.32s-1-2.49-1.28-3.45a27.25 27.25 0 0 0-1.38-3.42 28.84 28.84 0 0 0-1.94-3.21 17 17 0 0 1-1.76-3.28 16.84 16.84 0 0 1-.82-3.61 13.71 13.71 0 0 0-.92-3.58 14.74 14.74 0 0 0-2.07-3.17 10.12 10.12 0 0 1-1.84-3.25 11 11 0 0 1-.23-3.83 14.7 14.7 0 0 0 0-3.9 18 18 0 0 0-2.34-4.87c-1.08-1.66-2.43-3.57-3-4.24a9.37 9.37 0 0 0-2.57-2 14 14 0 0 0-3.09-.93l-.48-.08z" fill="#231f20"/></svg>