<svg xmlns="http://www.w3.org/2000/svg" width="119.81" height="200" viewBox="0 0 119.81 200"><title>_</title><path d="M8.07 75a21.51 21.51 0 0 0 .24 3.19c.17 1 .35 2.63.41 3.63s.07 2.63 0 3.63a21.62 21.62 0 0 0 .13 3.19 23.49 23.49 0 0 0 .71 3.21c.31 1 .73 2.62.93 3.62s.43 2.62.52 3.63a19 19 0 0 1-.12 3.82 20.91 20.91 0 0 1-1 3.79 13.24 13.24 0 0 0-.71 3 12.2 12.2 0 0 0 .24 3 17 17 0 0 1 .37 3.87 17.41 17.41 0 0 1-.69 3.85 8.78 8.78 0 0 0-.3 2.85 10.25 10.25 0 0 0 .94 2.92 12.13 12.13 0 0 1 1.23 4 11.13 11.13 0 0 1-.59 4.11 12.1 12.1 0 0 0-.61 3 11.61 11.61 0 0 0 .38 3 18.52 18.52 0 0 1 .63 3.81 17.6 17.6 0 0 1-.35 3.8 3.09 3.09 0 0 0 0 1.3 2.81 2.81 0 0 0 1.1.26 27.39 27.39 0 0 0 3.11-.23 30.17 30.17 0 0 0 3.17-.68c.22-.06.49-.12.76-.18a15.66 15.66 0 0 1 2.86-.31h.21a15.42 15.42 0 0 1 3.82.7c.87.29 2.34.7 3.21.89s2.33.41 3.2.49 2.26.13 3.24.15 2.35-.08 3.23-.16 2.54-.18 3.51-.19 2.53 0 3.51.13 2.34.1 3.19.06 2.33-.19 3.2-.33 4-.47 6.85-.69a56.37 56.37 0 0 0 6.38-.78c.93-.25 2.44-.58 3.36-.74s2.43-.35 3.36-.42a32.41 32.41 0 0 1 3.45 0c1 0 2.53.23 3.52.4a16.55 16.55 0 0 0 3.17.17 22.25 22.25 0 0 0 3.5-.58 17.85 17.85 0 0 0 3.36-1.34 18.23 18.23 0 0 0 2.94-2.16 25.48 25.48 0 0 1 3.37-2.6 21.6 21.6 0 0 1 3.69-1.74A7.1 7.1 0 0 0 101 138a7 7 0 0 0 1.28-2.32 17.82 17.82 0 0 1 1.72-3.82 24.07 24.07 0 0 1 2.84-3.52 7.54 7.54 0 0 0 1.66-2.74 7.33 7.33 0 0 0-.16-3.15c-.37-1.21-.86-3.17-1.09-4.37s-.71-5.08-1.07-8.67a31 31 0 0 0-1.45-7.31v-.09a11.67 11.67 0 0 0-2.35-1.94 47.46 47.46 0 0 0-3.8-2.45c-6.11-3.54-6.39-4.68-6.49-5.06-.35-1.39.72-2.7 1.85-3.33A10.79 10.79 0 0 0 96 87.58a85.06 85.06 0 0 0 4.84-9.46 70.23 70.23 0 0 0 4-9.94 22.28 22.28 0 0 0-2-5.93c-1.18-2.59-2.54-5.38-3-6.08s-2.11-3-3.69-5.1c-.37-.48-.75-1-1.13-1.43a34.66 34.66 0 0 0-3-3.35 22 22 0 0 0-2.86-1.94 14 14 0 0 0-3.15-1.17 14.6 14.6 0 0 0-3.35-.18c-1.33.12-7.24-.09-12.2-.37L66 42.39c-5.56-.31-11.61-.85-13.49-1.21s-3.92-.65-4.77-.69a24.79 24.79 0 0 0-3.07.07 22.44 22.44 0 0 0-3.06.58 26.18 26.18 0 0 0-3.09 1.14 20.59 20.59 0 0 1-3.62 1.21 17.86 17.86 0 0 1-3.67.33 20.79 20.79 0 0 1-3.62-.5A24.24 24.24 0 0 1 24 42.06a16.06 16.06 0 0 0-3-1 53.22 53.22 0 0 0-6.64-.17 20.58 20.58 0 0 0-5 .61A63.61 63.61 0 0 0 9 51.42l.09 4.88A117.54 117.54 0 0 1 8.64 70a47.76 47.76 0 0 0-.57 5z"/><path d="M118.43 124.75c-.22-1.16-.69-5-1-8.54s-1.14-7.18-1.74-8.08S112 105 109 103.27c-.53-.31-1.05-.62-1.55-.93l-1.37-.87a31.73 31.73 0 0 1 1.59 7.8c.36 3.54.83 7.38 1 8.54s.69 3.05 1 4.21a8.75 8.75 0 0 1 .18 4 9 9 0 0 1-2 3.43 22.37 22.37 0 0 0-2.63 3.26 16.41 16.41 0 0 0-1.55 3.44 8.38 8.38 0 0 1-1.64 2.94 8.52 8.52 0 0 1-2.89 1.78 20.2 20.2 0 0 0-3.38 1.6 23.83 23.83 0 0 0-3.13 2.41 19.78 19.78 0 0 1-3.24 2.37 19.34 19.34 0 0 1-3.7 1.48 23.68 23.68 0 0 1-3.79.63 18.26 18.26 0 0 1-3.52-.18c-.93-.16-2.43-.33-3.34-.38a30.57 30.57 0 0 0-3.25 0c-.88.07-2.33.25-3.22.4s-2.34.47-3.23.71a56.1 56.1 0 0 1-6.65.82c-2.77.21-5.79.52-6.72.67a33.76 33.76 0 0 1-3.38.35 33.23 33.23 0 0 1-3.38-.06c-.93-.07-2.45-.13-3.38-.12s-2.45.09-3.38.18-2.45.17-3.38.17-2.45-.07-3.38-.15-2.45-.32-3.38-.52-2.45-.62-3.38-.94a13.93 13.93 0 0 0-3.38-.62 13.6 13.6 0 0 0-2.73.28c.05.36.08.7.1 1v.24a16.13 16.13 0 0 1-.31 3.42 3.68 3.68 0 0 0 .26 2.55 3.24 3.24 0 0 0 2.3.84 28.87 28.87 0 0 0 3.33-.24 31.48 31.48 0 0 0 3.36-.72 13.58 13.58 0 0 1 3.38-.43 13.93 13.93 0 0 1 3.38.62c.93.31 2.45.74 3.38.94s2.45.44 3.38.52 2.45.16 3.38.15 2.45-.08 3.38-.17 2.45-.17 3.38-.18 2.45 0 3.38.12a33.23 33.23 0 0 0 3.38.06 33.76 33.76 0 0 0 3.38-.35c.93-.15 4-.46 6.72-.67a56.1 56.1 0 0 0 6.65-.82c.89-.24 2.34-.56 3.23-.71s2.33-.33 3.22-.4a30.57 30.57 0 0 1 3.25 0c.91 0 2.41.22 3.34.38a18.26 18.26 0 0 0 3.52.18 23.68 23.68 0 0 0 3.79-.63 19.34 19.34 0 0 0 3.7-1.48 19.78 19.78 0 0 0 3.24-2.37 23.83 23.83 0 0 1 3.13-2.41 20.2 20.2 0 0 1 3.38-1.6 8.52 8.52 0 0 0 2.89-1.78 8.38 8.38 0 0 0 1.64-2.94 16.41 16.41 0 0 1 1.55-3.44 22.37 22.37 0 0 1 2.63-3.26 9 9 0 0 0 2-3.43 8.75 8.75 0 0 0-.18-4c-.24-1.16-.71-3.05-.93-4.21zM104.22 61.63c1.22 2.67 2.16 5.67 2.1 6.66S104.4 74 102.2 78.76s-4.5 9.24-5.11 9.85a12.27 12.27 0 0 1-2.47 1.93 1.85 1.85 0 0 0-1.13 1.66c.12.5 2.73 2.35 5.78 4.12 1.4.81 2.78 1.71 3.93 2.53a1.76 1.76 0 0 1 .5-.87 2.67 2.67 0 0 1 .63-.49 12.27 12.27 0 0 0 2.47-1.93c.61-.65 2.91-5.09 5.11-9.86S116 76.22 116 75.23s-.88-4-2.1-6.66-2.59-5.48-3-6.24-2.16-3.11-3.79-5.24a44.58 44.58 0 0 0-4.34-5 23.48 23.48 0 0 0-3.1-2.1 13.71 13.71 0 0 0-1.74-.77 14 14 0 0 0-1.69-.52c.39.48.78 1 1.16 1.47 1.63 2.13 3.33 4.48 3.79 5.24s1.81 3.59 3.03 6.22z"/></svg>