<svg xmlns="http://www.w3.org/2000/svg" width="200" height="200" viewBox="0 0 200 200"><title>_</title><path d="M151.07,64.54a9.3,9.3,0,0,0-1.78-2.05,10.5,10.5,0,0,0-2.51-1.35,19.24,19.24,0,0,1-3.17-1.48,17.89,17.89,0,0,1-2.71-2.11A16.58,16.58,0,0,0,136,54.2c-0.84-.37-2.81-1.43-4.39-2.36A16.18,16.18,0,0,0,127.38,50a12.8,12.8,0,0,0-3.43.11,37.5,37.5,0,0,1-4.11.48,31.72,31.72,0,0,1-3.93-.1,33.45,33.45,0,0,1-3.83-.67,37.47,37.47,0,0,1-3.83-1.23,17.1,17.1,0,0,0-3.46-.88,43.24,43.24,0,0,0-7.08.58,59,59,0,0,0-7,1.36,21,21,0,0,0-3.13,1.47A19,19,0,0,1,84,52.75a19.55,19.55,0,0,1-3.88.68,10.2,10.2,0,0,0-3.08.75,28.3,28.3,0,0,0-4.85,4.47c-2,2.21-4.86,5.09-6.35,6.43s-3.73,3.56-5.07,5a18.88,18.88,0,0,0-2.92,4.08,13.34,13.34,0,0,0-.69,3.31,13,13,0,0,1-1.05,4.11,16.76,16.76,0,0,1-2.63,3.72,11,11,0,0,0-2,3.21,19.84,19.84,0,0,0-.33,5.76c0.16,2.39.23,5.27,0.16,6.44s-0.48,4-.9,6.35a27.75,27.75,0,0,0-.51,5.94,39,39,0,0,0,2.9,7.42,52.26,52.26,0,0,1,3.22,7.9,19.55,19.55,0,0,1,.27,4.27,16.37,16.37,0,0,0,.24,3.65,14.25,14.25,0,0,0,1.22,3.25,28.94,28.94,0,0,0,2,3c0.61,0.78,3,3.25,5.17,5.4s4.72,4.46,5.51,5a27.76,27.76,0,0,0,3.08,1.91c0.52,0.27,1.28.62,2,1,0.48,0.21,1,.41,1.33.55,0.93,0.36,2.52.88,3.49,1.13a37.57,37.57,0,0,1,3.82,1.3c1.06,0.44,2.8,1.27,3.89,1.87A13.11,13.11,0,0,0,91.62,162a44.8,44.8,0,0,0,8.18-.7,65.2,65.2,0,0,1,7.93-.82,5.9,5.9,0,0,1,.64,0,19.09,19.09,0,0,1,3.85.92,22.29,22.29,0,0,0,3.28.9,20.81,20.81,0,0,0,3.29.24,11,11,0,0,0,3-.59,12.36,12.36,0,0,0,2.77-1.64,29.54,29.54,0,0,1,3-2.12,21.28,21.28,0,0,1,3-1.45,48.09,48.09,0,0,1,4.65-1.24,38.73,38.73,0,0,0,4.42-1.22,43.55,43.55,0,0,0,5.18-3.2,23.06,23.06,0,0,0,4.44-3.75,9.74,9.74,0,0,0,1-2.71,22.51,22.51,0,0,1,.9-3.4,17.92,17.92,0,0,1,1.47-2.95c0.42-.66,1.1-1.83,1.46-2.56s0.94-2,1.25-2.84a25.15,25.15,0,0,0,1.51-6.11c0.06-.52.18-1.21,0.34-1.93,0.11-.49.23-1,0.34-1.32a16.27,16.27,0,0,1,1.25-2.82,1,1,0,0,0,.12-0.8,5.8,5.8,0,0,0-2.19-.74,34.35,34.35,0,0,0-4.09-.32,41.61,41.61,0,0,0-4.18.28,30.42,30.42,0,0,1-4.55.21,31,31,0,0,1-4.55-.62,33.12,33.12,0,0,0-4.21-.62,31.89,31.89,0,0,0-4.19.06,8.87,8.87,0,0,0-3.21,1,18,18,0,0,0-3.18,5.45,35.69,35.69,0,0,1-3.28,6.4c-0.75.87-3.79,2.67-6.25,3.94a38.65,38.65,0,0,1-6.85,2.89,27.16,27.16,0,0,1-6.53-.51l-0.84-.16a18.52,18.52,0,0,1-5.66-1.94,18.73,18.73,0,0,1-3.27-3.38c-0.86-1.16-2.14-3.11-2.86-4.37s-1.79-3.37-2.37-4.72a38,38,0,0,1-1.6-4.47c-0.35-1.35-.32-7.3-0.12-12.21L85,103.47c0.16-3.92.57-10.57,1-11.73a9.62,9.62,0,0,1,1.72-2.92,21,21,0,0,0,1.68-2.13,16.55,16.55,0,0,0,1.17-2.18c0.29-.7,1.42-2.86,2.56-4.91,1-1.89,2.86-4.25,4.18-4.91A9.54,9.54,0,0,1,101.9,74c1.25,0.14,4,.3,6.22.35a48.46,48.46,0,0,1,5.91.43,20.16,20.16,0,0,1,3.56,1.08,10.22,10.22,0,0,1,3,2.12,21.84,21.84,0,0,1,2.21,4.12c0.41,0.93.79,1.85,1.14,2.72,1.25,3.22,2.72,5.42,3.16,5.69a6.7,6.7,0,0,0,3.14.52c0.42,0,1.24,0,2.45,0,2.48,0,6.27.2,9.88,0.41l6.32,0.37A51.58,51.58,0,0,0,159,91.68a3.36,3.36,0,0,0,0-1.88,32.18,32.18,0,0,1-.81-4.1,24.75,24.75,0,0,1-.09-3.85,7.29,7.29,0,0,0-1.77-5.48,18.08,18.08,0,0,1-2-3,15.78,15.78,0,0,1-1.14-3.27,22.41,22.41,0,0,0-.85-2.88,22.14,22.14,0,0,0-1-2.16C151.26,64.87,151.16,64.69,151.07,64.54Z" fill="#231f20"/><path d="M119.88,78.63a9.23,9.23,0,0,0-2.68-1.87,19.36,19.36,0,0,0-3.35-1,48.51,48.51,0,0,0-5.74-.42c-2.2,0-5-.21-6.31-0.35a8.54,8.54,0,0,0-4.06.61c-1,.48-2.65,2.51-3.75,4.5s-2.23,4.16-2.51,4.81a17.45,17.45,0,0,1-1.26,2.34,21.9,21.9,0,0,1-1.77,2.26,8.62,8.62,0,0,0-1.51,2.56A96.18,96.18,0,0,0,86,103.51l-0.11,2.56c-0.23,5.5-.19,10.86.09,11.92a36.87,36.87,0,0,0,1.55,4.33c0.57,1.32,1.62,3.4,2.32,4.63s2,3.15,2.8,4.27a17.93,17.93,0,0,0,3.05,3.17,17.93,17.93,0,0,0,5.27,1.76c-0.27-.4-0.53-0.81-0.77-1.2s-0.46-.75-0.64-1.07c-0.7-1.22-1.75-3.3-2.32-4.63a36.87,36.87,0,0,1-1.55-4.33c-0.28-1.06-.32-6.42-0.09-11.92l0.11-2.56A96.18,96.18,0,0,1,96.63,99a8.62,8.62,0,0,1,1.51-2.56,21.9,21.9,0,0,0,1.77-2.26,17.45,17.45,0,0,0,1.26-2.34c0.28-.66,1.41-2.82,2.51-4.81s2.79-4,3.75-4.5a8.54,8.54,0,0,1,4.06-.61c1.28,0.15,4.12.3,6.31,0.35,1,0,2,.07,3,0.13l1.14,0.09A20.57,20.57,0,0,0,119.88,78.63Z" fill="#231f20"/><path d="M152.24,64.59a18.61,18.61,0,0,1,2,5.3,14.88,14.88,0,0,0,1.06,3,17.16,17.16,0,0,0,1.87,2.8,8.29,8.29,0,0,1,2,6.2,23.6,23.6,0,0,0,.08,3.66,31.22,31.22,0,0,0,.78,3.94,3.54,3.54,0,0,1-.29,2.93c-0.47.49-5.35,0.63-10.84,0.31l-6.32-.37c-3.73-.22-7.45-0.37-9.84-0.41l0,0.12c0.12,0.3.24,0.6,0.37,0.89,1.1,2.6,2.48,4.89,3.23,5.31a7.64,7.64,0,0,0,3.72.65c1.21-.11,6.69.06,12.18,0.38l6.32,0.37c5.49,0.32,10.37.18,10.84-.31a3.54,3.54,0,0,0,.29-2.93,31.22,31.22,0,0,1-.78-3.94,23.6,23.6,0,0,1-.08-3.66,8.29,8.29,0,0,0-2-6.2,17.16,17.16,0,0,1-1.87-2.8,14.88,14.88,0,0,1-1.06-3,23.26,23.26,0,0,0-.89-3A22.9,22.9,0,0,0,161.64,71a10.19,10.19,0,0,0-2-2.32,11.36,11.36,0,0,0-2.81-1.51,18.55,18.55,0,0,1-2.86-1.33l-0.12-.07A16.14,16.14,0,0,1,152.24,64.59Z" fill="#231f20"/><path d="M157.83,126.84a26.16,26.16,0,0,1-1.57,6.35c-0.33.84-.91,2.16-1.29,2.93s-1.07,2-1.52,2.66a17.1,17.1,0,0,0-1.37,2.75,21.72,21.72,0,0,0-.85,3.22,10.63,10.63,0,0,1-1.1,3.06,23,23,0,0,1-4.72,4.06,43.31,43.31,0,0,1-5.38,3.31,39.19,39.19,0,0,1-4.57,1.27c-1.71.38-3.75,0.92-4.52,1.2a20.47,20.47,0,0,0-2.84,1.37,28.48,28.48,0,0,0-2.87,2,13.39,13.39,0,0,1-3,1.8,12,12,0,0,1-3.35.66,21.46,21.46,0,0,1-3.49-.25,23.14,23.14,0,0,1-3.46-.94,18.29,18.29,0,0,0-3.62-.86,51,51,0,0,0-8.31.79,44.62,44.62,0,0,1-8.48.71,14.13,14.13,0,0,1-4-1.35c-1.05-.58-2.76-1.4-3.79-1.82a36.42,36.42,0,0,0-3.7-1.26c-1-.27-2.62-0.79-3.59-1.17-0.39-.15-0.87-0.35-1.37-0.57,0.69,0.65,1.36,1.29,2,1.86,1.08,1,2,1.79,2.43,2.11a28.63,28.63,0,0,0,3.21,2c0.93,0.48,2.49,1.18,3.46,1.55s2.58,0.9,3.59,1.17a36.42,36.42,0,0,1,3.7,1.26c1,0.42,2.73,1.24,3.79,1.82a14.13,14.13,0,0,0,4,1.35,44.62,44.62,0,0,0,8.48-.71,51,51,0,0,1,8.31-.79,18.29,18.29,0,0,1,3.62.86,23.14,23.14,0,0,0,3.46.94,21.46,21.46,0,0,0,3.49.25,12,12,0,0,0,3.35-.66,13.39,13.39,0,0,0,3-1.8,28.48,28.48,0,0,1,2.87-2,20.47,20.47,0,0,1,2.84-1.37c0.78-.28,2.81-0.83,4.52-1.2a39.19,39.19,0,0,0,4.57-1.27,43.31,43.31,0,0,0,5.38-3.31,23,23,0,0,0,4.72-4.06,10.63,10.63,0,0,0,1.1-3.06,21.72,21.72,0,0,1,.85-3.22,17.1,17.1,0,0,1,1.37-2.75c0.45-.69,1.13-1.89,1.52-2.66s1-2.09,1.29-2.93a26.16,26.16,0,0,0,1.57-6.35,20.06,20.06,0,0,1,.64-3.06,15.44,15.44,0,0,1,1.16-2.62,1.8,1.8,0,0,0,0-2,5.86,5.86,0,0,0-2.79-1.08,35.11,35.11,0,0,0-4.23-.33c-0.84,0-2.05.06-3.12,0.16l-1.05.11C158,125.64,157.89,126.32,157.83,126.84Z" fill="#231f20"/></svg>