<svg xmlns="http://www.w3.org/2000/svg" width="120.36" height="200" viewBox="0 0 120.36 200"><title>_</title><path d="M2.84 111.09a52 52 0 0 1 3.27 8 20.13 20.13 0 0 1 .28 4.4 16 16 0 0 0 .23 3.51 13.88 13.88 0 0 0 1.17 3.11 28.33 28.33 0 0 0 2 3c.6.77 2.94 3.22 5.12 5.35s4.68 4.42 5.45 5a27.18 27.18 0 0 0 3 1.87c.51.26 1.26.61 2 .94.48.21.94.4 1.31.55.92.35 2.49.87 3.43 1.12a38.26 38.26 0 0 1 3.9 1.3c1.08.44 2.84 1.29 3.94 1.89a12.73 12.73 0 0 0 3.47 1.18 45.34 45.34 0 0 0 8-.7 65.87 65.87 0 0 1 8-.83 6.34 6.34 0 0 1 .7 0 19.64 19.64 0 0 1 4 .95 21.68 21.68 0 0 0 3.19.87 20 20 0 0 0 3.19.23 10.56 10.56 0 0 0 2.85-.56 12 12 0 0 0 2.63-1.56 30.1 30.1 0 0 1 3.03-2.14 21.91 21.91 0 0 1 3.1-1.49 48.55 48.55 0 0 1 4.71-1.26 38.11 38.11 0 0 0 4.34-1.2 43.6 43.6 0 0 0 5.08-3.15 23.57 23.57 0 0 0 4.29-3.6 9.27 9.27 0 0 0 .9-2.54 23.12 23.12 0 0 1 .93-3.49 18.5 18.5 0 0 1 1.52-3c.42-.65 1.08-1.8 1.44-2.52s.93-2 1.23-2.8a24.66 24.66 0 0 0 1.48-6c.06-.54.19-1.24.35-2 .11-.51.24-1 .35-1.36a16.89 16.89 0 0 1 1.29-2.93.67.67 0 0 0 .08-.25 6.51 6.51 0 0 0-1.79-.54 33.8 33.8 0 0 0-4-.31 41.18 41.18 0 0 0-4.11.28 31.12 31.12 0 0 1-4.64.21 31.58 31.58 0 0 1-4.65-.62 32.49 32.49 0 0 0-4.13-.61 31 31 0 0 0-4.11.06 8.4 8.4 0 0 0-3 .93 18.58 18.58 0 0 0-3 5.22 36.52 36.52 0 0 1-3.37 6.54c-.9 1-4.32 3-6.4 4.05a39.5 39.5 0 0 1-7 2.94 27.11 27.11 0 0 1-6.7-.51l-.86-.17a18.87 18.87 0 0 1-5.85-2 19.3 19.3 0 0 1-3.37-3.49c-.87-1.17-2.16-3.15-2.89-4.42s-1.81-3.41-2.4-4.77a38.52 38.52 0 0 1-1.63-4.55c-.41-1.57-.31-8.25-.13-12.36l.11-2.56c.12-2.84.53-10.5 1-11.87A10 10 0 0 1 37 79.32a20.45 20.45 0 0 0 1.63-2.07 16.18 16.18 0 0 0 1.13-2.1c.3-.71 1.43-2.89 2.58-5s3-4.4 4.39-5.11a10 10 0 0 1 4.91-.76c1.24.14 4 .3 6.18.34a48.92 48.92 0 0 1 6 .44 20.77 20.77 0 0 1 3.67 1.11 10.63 10.63 0 0 1 3.2 2.24A21.16 21.16 0 0 1 73 72.72c.42.93.8 1.86 1.15 2.75a18.31 18.31 0 0 0 3 5.45 6.38 6.38 0 0 0 2.83.45h2.5c2.49 0 6.28.2 9.9.41l6.32.37a58.93 58.93 0 0 0 9.68 0 3.2 3.2 0 0 0-.08-1.32 32.81 32.81 0 0 1-.82-4.17 25.35 25.35 0 0 1-.09-3.94 9 9 0 0 0-.3-2.74 8.92 8.92 0 0 0-1.35-2.38 18.66 18.66 0 0 1-2.06-3.09 16.37 16.37 0 0 1-1.18-3.4 21.77 21.77 0 0 0-.82-2.8 21.51 21.51 0 0 0-1-2.1l-.28-.51a8.84 8.84 0 0 0-1.66-1.91 10.07 10.07 0 0 0-2.37-1.27 19.85 19.85 0 0 1-3.37-1.6 18.43 18.43 0 0 1-2.79-2.18 16.09 16.09 0 0 0-4.79-3.25c-.84-.37-2.83-1.49-4.42-2.38a15.82 15.82 0 0 0-4-1.73 12.35 12.35 0 0 0-3.26.11 38.09 38.09 0 0 1-4.18.49 32.61 32.61 0 0 1-4-.1 34.11 34.11 0 0 1-3.9-.69 38.18 38.18 0 0 1-3.9-1.25 16.49 16.49 0 0 0-3.33-.85 43.15 43.15 0 0 0-6.95.58A60 60 0 0 0 40.53 41a20.42 20.42 0 0 0-3 1.43 19.63 19.63 0 0 1-3.68 1.64 20.15 20.15 0 0 1-4 .7 9.76 9.76 0 0 0-2.89.7 28.34 28.34 0 0 0-4.69 4.36c-2 2.22-4.88 5.12-6.39 6.47s-3.71 3.54-5 5A18.55 18.55 0 0 0 8 65.22a13 13 0 0 0-.66 3.16 13.56 13.56 0 0 1-1.1 4.29 17.35 17.35 0 0 1-2.72 3.85 10.6 10.6 0 0 0-1.94 3 19.55 19.55 0 0 0-.31 5.56c.16 2.41.23 5.32.16 6.5S.92 95.68.49 98a27.75 27.75 0 0 0-.49 5.82 39.06 39.06 0 0 0 2.84 7.27z"/><path d="M45.4 101.29a96.18 96.18 0 0 1 .91-11.45 8.62 8.62 0 0 1 1.51-2.56A21.86 21.86 0 0 0 49.6 85a17.44 17.44 0 0 0 1.26-2.34c.28-.66 1.41-2.82 2.51-4.81s2.79-4 3.75-4.5a8.54 8.54 0 0 1 4.06-.61c1.28.15 4.12.3 6.31.35 1 0 2 .07 3 .13l1.14.09a20.56 20.56 0 0 0-2-3.86 9.23 9.23 0 0 0-2.68-1.87 19.36 19.36 0 0 0-3.35-1 48.51 48.51 0 0 0-5.74-.42c-2.2 0-5-.21-6.31-.35a8.54 8.54 0 0 0-4.06.61c-1 .48-2.65 2.51-3.75 4.5s-2.23 4.16-2.51 4.81a17.44 17.44 0 0 1-1.26 2.34 21.86 21.86 0 0 1-1.77 2.26 8.62 8.62 0 0 0-1.6 2.57 96.18 96.18 0 0 0-.91 11.45l-.11 2.56c-.23 5.5-.19 10.86.09 11.92a36.89 36.89 0 0 0 1.55 4.33c.57 1.32 1.62 3.4 2.32 4.63s2 3.15 2.8 4.27a17.93 17.93 0 0 0 3.05 3.17 17.93 17.93 0 0 0 5.28 1.77c-.27-.4-.53-.81-.77-1.2s-.46-.75-.64-1.07c-.7-1.22-1.75-3.3-2.32-4.63a36.89 36.89 0 0 1-1.55-4.33c-.28-1.06-.32-6.42-.09-11.92zM109.3 59.49a11.36 11.36 0 0 0-2.81-1.49 18.55 18.55 0 0 1-2.86-1.33l-.12-.07a16.14 16.14 0 0 1-1.59-1.15 18.62 18.62 0 0 1 2 5.3 14.89 14.89 0 0 0 1.06 3 17.18 17.18 0 0 0 1.87 2.8 10.28 10.28 0 0 1 1.64 2.89 10.37 10.37 0 0 1 .37 3.31 23.62 23.62 0 0 0 .08 3.66 31.25 31.25 0 0 0 .78 3.94 3.54 3.54 0 0 1-.29 2.93c-.47.49-5.35.63-10.84.31l-6.32-.37c-3.73-.22-7.45-.37-9.84-.41v.12c.12.3.24.6.37.89 1.1 2.6 2.48 4.89 3.23 5.31a7.64 7.64 0 0 0 3.72.65c1.21-.11 6.69.06 12.18.38l6.32.37c5.49.32 10.37.18 10.84-.31a3.54 3.54 0 0 0 .29-2.93 31.25 31.25 0 0 1-.78-3.94 23.62 23.62 0 0 1-.08-3.66 8.29 8.29 0 0 0-2-6.2 17.18 17.18 0 0 1-1.87-2.8 14.89 14.89 0 0 1-1.06-3 23.24 23.24 0 0 0-.89-3 22.9 22.9 0 0 0-1.38-2.83 10.2 10.2 0 0 0-2.02-2.37zM67.65 159.25a18.29 18.29 0 0 1 3.62.86 23.14 23.14 0 0 0 3.46.94 21.46 21.46 0 0 0 3.49.25 12 12 0 0 0 3.35-.66 13.39 13.39 0 0 0 3-1.8 28.5 28.5 0 0 1 2.87-2 20.47 20.47 0 0 1 2.84-1.37c.78-.28 2.81-.83 4.52-1.2a39.18 39.18 0 0 0 4.61-1.27 43.31 43.31 0 0 0 5.38-3.31 23 23 0 0 0 4.72-4.06 10.63 10.63 0 0 0 1.1-3.06 21.72 21.72 0 0 1 .85-3.22 17.1 17.1 0 0 1 1.37-2.75c.45-.69 1.13-1.89 1.52-2.66s1-2.09 1.29-2.93a26.16 26.16 0 0 0 1.57-6.35 20.06 20.06 0 0 1 .64-3.06 15.45 15.45 0 0 1 1.16-2.62 1.8 1.8 0 0 0 0-2 5.86 5.86 0 0 0-2.79-1.08 35.11 35.11 0 0 0-4.23-.33c-.84 0-2.05.06-3.12.16l-1.05.11c-.14.63-.27 1.31-.33 1.83a26.16 26.16 0 0 1-1.57 6.35c-.33.84-.91 2.16-1.29 2.93s-1.07 2-1.52 2.66a17.1 17.1 0 0 0-1.37 2.75 21.72 21.72 0 0 0-.85 3.22 10.63 10.63 0 0 1-1.1 3.06 23 23 0 0 1-4.72 4.06 43.31 43.31 0 0 1-5.37 3.3 39.18 39.18 0 0 1-4.57 1.27c-1.71.38-3.75.92-4.52 1.2a20.47 20.47 0 0 0-2.84 1.37 28.5 28.5 0 0 0-2.87 2 13.39 13.39 0 0 1-3 1.8 12 12 0 0 1-3.35.66 21.46 21.46 0 0 1-3.49-.25 23.14 23.14 0 0 1-3.46-.94 18.29 18.29 0 0 0-3.62-.86 51 51 0 0 0-8.31.79 44.62 44.62 0 0 1-8.48.71 14.13 14.13 0 0 1-4-1.35c-1.05-.58-2.76-1.4-3.79-1.82a36.42 36.42 0 0 0-3.7-1.26c-1-.27-2.62-.79-3.59-1.17-.39-.15-.87-.35-1.37-.57.69.65 1.36 1.29 2 1.86 1.08 1 2 1.79 2.43 2.11a28.64 28.64 0 0 0 3.21 2c.93.48 2.49 1.18 3.46 1.55s2.58.9 3.59 1.17a36.42 36.42 0 0 1 3.7 1.26c1 .42 2.73 1.24 3.79 1.82a14.13 14.13 0 0 0 4 1.35 44.62 44.62 0 0 0 8.48-.71 51 51 0 0 1 8.25-.74z"/></svg>