<svg xmlns="http://www.w3.org/2000/svg" width="200" height="200" viewBox="0 0 200 200"><title>_</title><path d="M150.34,64a27.17,27.17,0,0,0-2.5-2.3,36.45,36.45,0,0,0-4.44-2.63,76.34,76.34,0,0,0-8.07-3.3c-2.72-.94-6.62-2.06-8.7-2.51a53.51,53.51,0,0,0-5.7-.95c-1.06-.07-2.87-0.09-3.94,0a33.24,33.24,0,0,1-4.21-.13,33.68,33.68,0,0,1-4.17-.78,17.41,17.41,0,0,0-3.51-.51,12,12,0,0,0-3,.44,9.11,9.11,0,0,1-3.49.34,10.64,10.64,0,0,1-3.42-1.25,6.49,6.49,0,0,0-2.55-.81,6.09,6.09,0,0,0-2.53.67,19.78,19.78,0,0,1-3.24,1.37,16.4,16.4,0,0,1-3.28.57,12.36,12.36,0,0,1-3.37-.41A15.42,15.42,0,0,1,77,50.29a8.23,8.23,0,0,0-2.64-1,22.32,22.32,0,0,0-5.63,1.28c-2.31.77-5.45,1.52-6.72,1.36A15.85,15.85,0,0,1,58,50.75a3.27,3.27,0,0,0-1.88-.33,3.69,3.69,0,0,0-.3,1.78c0.07,1.1.27,2.88,0.45,3.87a33.25,33.25,0,0,0,.86,3.51A27.28,27.28,0,0,1,58,63.21a25.37,25.37,0,0,1,.21,3.64,29,29,0,0,1-.39,3.62,31.06,31.06,0,0,1-.94,3.6,10.83,10.83,0,0,0-.48,3.11,11.14,11.14,0,0,0,.69,3.12A13.82,13.82,0,0,1,58,84.09a13.17,13.17,0,0,1-.48,3.81A12.42,12.42,0,0,0,57,91.06a12.67,12.67,0,0,0,.58,3.16,11.26,11.26,0,0,1,.51,3.87A12.25,12.25,0,0,1,57,101.92a13,13,0,0,0-1,3.16,34.81,34.81,0,0,0,.57,6.63c0.46,2.9.92,6.84,1,8.77a32.86,32.86,0,0,1-.13,5.41,25.43,25.43,0,0,1-.95,3.63,13.36,13.36,0,0,0-.64,3.17,35.78,35.78,0,0,0,1.31,6.63c0.71,2.62,1.37,6.08,1.19,7.34A12.89,12.89,0,0,1,57,150.48a7.38,7.38,0,0,0-.88,2.81,5,5,0,0,0,.73,2.35,24,24,0,0,0,1.82,2.31,15.57,15.57,0,0,0,1.85,1.67,3.29,3.29,0,0,0,1.68.5,6.88,6.88,0,0,0,2.19-.69l0.13-.06a8.87,8.87,0,0,1,3.61-1h0a8.35,8.35,0,0,1,3.48,1,6.79,6.79,0,0,0,2.52.75,6.67,6.67,0,0,0,2.51-.61,11.4,11.4,0,0,1,3.33-1,10.27,10.27,0,0,1,3.37.31,13.16,13.16,0,0,0,2.73.43,12.73,12.73,0,0,0,2.73-.29,24.81,24.81,0,0,1,3.14-.5,23.93,23.93,0,0,1,3.14,0c0.85,0.07,2.23.24,3.08,0.39s2.23,0.47,3.08.7a9.71,9.71,0,0,0,2.87.2,16.76,16.76,0,0,0,3.49-.9c1.13-.44,3-1,4.1-1.33a40.8,40.8,0,0,1,4.09-.8,34,34,0,0,1,4.2-.23,38.38,38.38,0,0,1,4.38.41,12.12,12.12,0,0,0,3.63,0,9,9,0,0,0,2.91-1.33,23.13,23.13,0,0,1,3.29-2,22.25,22.25,0,0,1,3.6-1.29A22.41,22.41,0,0,0,141,151a22.16,22.16,0,0,0,2.95-1.71c0.78-.55,2.65-2.15,4.09-3.48a20.91,20.91,0,0,0,3.36-3.85,14.84,14.84,0,0,0,1.14-3.25,19.32,19.32,0,0,1,1.26-3.8,18.14,18.14,0,0,1,2.14-3.3,35,35,0,0,0,2.11-2.81,31.67,31.67,0,0,0,1.68-2.95,14.8,14.8,0,0,0,1-3,15.25,15.25,0,0,0,.19-3.18,17.41,17.41,0,0,1,.22-3.72,17.89,17.89,0,0,1,1.16-3.58,14.83,14.83,0,0,0,1-3.07,44.94,44.94,0,0,0-.29-7.06,73.92,73.92,0,0,0-1.06-7.45c-0.27-1-1.55-4.42-2.8-7.41s-2.58-6.45-2.87-7.46-0.64-2.61-.81-3.58-0.74-3.18-1.29-5a27.86,27.86,0,0,0-1.83-4.69,18.3,18.3,0,0,0-1.2-1.69C150.85,64.64,150.58,64.3,150.34,64Z" fill="#231f20"/><path d="M151.92,64.38a19.38,19.38,0,0,1,1.27,1.79,28.75,28.75,0,0,1,1.93,4.91c0.57,1.87,1.16,4.18,1.32,5.11s0.51,2.5.78,3.47S158.77,83.95,160,87s2.56,6.46,2.85,7.54a73.69,73.69,0,0,1,1.08,7.61,44.47,44.47,0,0,1,.28,7.33,15.74,15.74,0,0,1-1,3.33,17.15,17.15,0,0,0-1.08,3.35,16.55,16.55,0,0,0-.2,3.47,16.21,16.21,0,0,1-.2,3.43,15.82,15.82,0,0,1-1.08,3.24,32.5,32.5,0,0,1-1.74,3.06,35.87,35.87,0,0,1-2.19,2.91,17.18,17.18,0,0,0-2,3.08,18.44,18.44,0,0,0-1.18,3.57,15.79,15.79,0,0,1-1.24,3.52,21.44,21.44,0,0,1-3.56,4.12c-1.49,1.38-3.38,3-4.19,3.56a23,23,0,0,1-3.11,1.8,23.28,23.28,0,0,1-3.41,1.19,21.48,21.48,0,0,0-3.41,1.22,22,22,0,0,0-3.11,1.9,10,10,0,0,1-3.31,1.51,13.14,13.14,0,0,1-4,0,37.21,37.21,0,0,0-4.24-.39,32.12,32.12,0,0,0-4,.22,39.56,39.56,0,0,0-4,.78c-1.09.29-2.89,0.87-4,1.3a17.68,17.68,0,0,1-3.75,1,10.49,10.49,0,0,1-3.24-.23c-0.82-.23-2.16-0.53-3-0.68s-2.16-.32-3-0.38a22.8,22.8,0,0,0-3,0,23.67,23.67,0,0,0-3,.48,13.9,13.9,0,0,1-3,.32,14.18,14.18,0,0,1-3-.47,9.25,9.25,0,0,0-3-.27,10.44,10.44,0,0,0-3,.91,7.47,7.47,0,0,1-3,.72,7.76,7.76,0,0,1-3-.87,7.3,7.3,0,0,0-3-.82,7.72,7.72,0,0,0-3.06.86l-0.23.11a4.88,4.88,0,0,0,.16,1,5.83,5.83,0,0,0,.74,1.8,25,25,0,0,0,1.91,2.43,16.49,16.49,0,0,0,2,1.8,4.29,4.29,0,0,0,2.31.69,7.93,7.93,0,0,0,2.83-.9,7.72,7.72,0,0,1,3.06-.86,7.3,7.3,0,0,1,3,.82,7.76,7.76,0,0,0,3,.87,7.47,7.47,0,0,0,3-.72,10.44,10.44,0,0,1,3-.91,9.25,9.25,0,0,1,3,.27,14.18,14.18,0,0,0,3,.47,13.9,13.9,0,0,0,3-.32,23.67,23.67,0,0,1,3-.48,22.8,22.8,0,0,1,3,0c0.82,0.06,2.16.24,3,.38s2.16,0.45,3,.68a10.49,10.49,0,0,0,3.24.23,17.68,17.68,0,0,0,3.75-1c1.1-.43,2.9-1,4-1.3a39.56,39.56,0,0,1,4-.78,32.12,32.12,0,0,1,4-.22,37.21,37.21,0,0,1,4.24.39,13.14,13.14,0,0,0,4,0,10,10,0,0,0,3.31-1.51,22,22,0,0,1,3.11-1.9,21.48,21.48,0,0,1,3.41-1.22,23.28,23.28,0,0,0,3.41-1.19,23,23,0,0,0,3.11-1.8c0.81-.58,2.7-2.18,4.19-3.56A21.44,21.44,0,0,0,162,149.4a15.79,15.79,0,0,0,1.24-3.52,18.44,18.44,0,0,1,1.18-3.57,17.18,17.18,0,0,1,2-3.08,35.87,35.87,0,0,0,2.19-2.91,32.5,32.5,0,0,0,1.74-3.06,15.82,15.82,0,0,0,1.08-3.24,16.21,16.21,0,0,0,.2-3.43,16.55,16.55,0,0,1,.2-3.47,17.15,17.15,0,0,1,1.08-3.35,15.74,15.74,0,0,0,1-3.33,44.47,44.47,0,0,0-.28-7.33,73.69,73.69,0,0,0-1.08-7.61C172.32,100.42,171,97,169.76,94s-2.55-6.37-2.83-7.34-0.63-2.53-.78-3.47S165.4,79.9,164.83,78a28.75,28.75,0,0,0-1.93-4.91,20.46,20.46,0,0,0-2.11-2.81,27.79,27.79,0,0,0-2.61-2.41,35.91,35.91,0,0,0-4.37-2.62l-0.23-.12C153.13,64.93,152.56,64.66,151.92,64.38Z" fill="#231f20"/></svg>