<svg xmlns="http://www.w3.org/2000/svg" width="117.7" height="200" viewBox="0 0 117.7 200"><title>_</title><path d="M1 120.54a13 13 0 0 0-.61 3A35.88 35.88 0 0 0 1.66 130c.6 2.21 1.42 6 1.2 7.55a13.48 13.48 0 0 1-1.42 4 6.9 6.9 0 0 0-.82 2.57 4.57 4.57 0 0 0 .64 2.06A23.57 23.57 0 0 0 3 148.45 15.32 15.32 0 0 0 4.81 150a2.94 2.94 0 0 0 1.37.4 6.55 6.55 0 0 0 2-.64l.14-.07a9.38 9.38 0 0 1 3.81-1.06 8.81 8.81 0 0 1 3.75 1 6.3 6.3 0 0 0 2.29.68 6.28 6.28 0 0 0 2.24-.56 11.78 11.78 0 0 1 3.5-1.07 10.8 10.8 0 0 1 3.56.33 12.78 12.78 0 0 0 2.6.41 11.91 11.91 0 0 0 2.6-.28 25.5 25.5 0 0 1 3.21-.51 24.63 24.63 0 0 1 3.22 0c.87.07 2.27.25 3.13.4s2.26.47 3.12.71a9.31 9.31 0 0 0 2.68.19 16.45 16.45 0 0 0 3.36-.87c1.14-.44 3-1 4.15-1.35a41.44 41.44 0 0 1 4.15-.82 34.25 34.25 0 0 1 4.28-.23 39 39 0 0 1 4.45.41 11.72 11.72 0 0 0 3.44 0 8.56 8.56 0 0 0 2.71-1.24 23.76 23.76 0 0 1 3.43-2 22.82 22.82 0 0 1 3.7-1.32 21.81 21.81 0 0 0 3.14-1.09 21.57 21.57 0 0 0 2.86-1.66c.76-.54 2.61-2.12 4-3.44a20.6 20.6 0 0 0 3.3-3.72 14.44 14.44 0 0 0 1.09-3.12 19.92 19.92 0 0 1 1.3-3.92 18.73 18.73 0 0 1 2.21-3.4 34.16 34.16 0 0 0 2.08-2.76 31 31 0 0 0 1.64-2.89 14.42 14.42 0 0 0 1-2.87 14.83 14.83 0 0 0 .18-3.05 18 18 0 0 1 .23-3.85 18.42 18.42 0 0 1 1.2-3.7 14.47 14.47 0 0 0 .93-2.94 45.13 45.13 0 0 0-.3-6.93 73.71 73.71 0 0 0-1-7.38c-.27-1-1.54-4.37-2.78-7.35s-2.6-6.49-2.89-7.52-.65-2.65-.82-3.63-.73-3.13-1.28-4.93A27.88 27.88 0 0 0 96 57.78a17.79 17.79 0 0 0-1.16-1.64c-.27-.34-.54-.67-.77-.92A26.61 26.61 0 0 0 91.54 53a36 36 0 0 0-4.35-2.58 75.88 75.88 0 0 0-8-3.27c-2.71-.93-6.59-2.05-8.64-2.5a52.93 52.93 0 0 0-5.62-.94c-1-.07-2.82-.09-3.88 0a34 34 0 0 1-4.29-.13 34.4 34.4 0 0 1-4.24-.79 16.75 16.75 0 0 0-3.39-.5 11.58 11.58 0 0 0-2.8.41 9.55 9.55 0 0 1-3.71.36A11 11 0 0 1 39 41.68a6 6 0 0 0-2.31-.74 5.58 5.58 0 0 0-2.28.61A20.35 20.35 0 0 1 31.07 43a17 17 0 0 1-3.4.59 13.2 13.2 0 0 1-3.53-.43 16 16 0 0 1-3.42-1.57 7.76 7.76 0 0 0-2.44-.94 22.32 22.32 0 0 0-5.41 1.26c-2 .66-5.42 1.57-6.94 1.39A16.45 16.45 0 0 1 1.85 42a3.66 3.66 0 0 0-1.33-.33A4 4 0 0 0 .37 43c.07 1.09.27 2.84.44 3.82a32.72 32.72 0 0 0 .84 3.45A27.9 27.9 0 0 1 2.51 54a26 26 0 0 1 .21 3.72 29.51 29.51 0 0 1-.4 3.69 31.72 31.72 0 0 1-1 3.67A10.38 10.38 0 0 0 .92 68a10.71 10.71 0 0 0 .65 3 14.38 14.38 0 0 1 .9 4 13.76 13.76 0 0 1-.5 4 12 12 0 0 0-.42 3 12.27 12.27 0 0 0 .55 3 11.62 11.62 0 0 1 .54 4 12.83 12.83 0 0 1-1.16 4 12.67 12.67 0 0 0-1 3 34.81 34.81 0 0 0 .57 6.47c.47 2.92.92 6.88 1 8.83a33.32 33.32 0 0 1-.13 5.52 26 26 0 0 1-.92 3.72z"/><path d="M104.79 61.15a27.79 27.79 0 0 0-2.61-2.41 35.91 35.91 0 0 0-4.37-2.62l-.23-.12c-.44-.23-1-.49-1.65-.78A19.36 19.36 0 0 1 97.19 57a28.75 28.75 0 0 1 1.93 4.91c.57 1.87 1.16 4.18 1.32 5.11s.51 2.5.78 3.47 1.55 4.28 2.83 7.34 2.56 6.46 2.85 7.54A73.67 73.67 0 0 1 108 93a44.46 44.46 0 0 1 .28 7.33 15.74 15.74 0 0 1-1 3.33 17.14 17.14 0 0 0-1.08 3.35 16.55 16.55 0 0 0-.2 3.47 16.2 16.2 0 0 1-.2 3.43 15.8 15.8 0 0 1-1.08 3.24 32.5 32.5 0 0 1-1.74 3.06 35.87 35.87 0 0 1-2.19 2.91 17.19 17.19 0 0 0-2 3.08 18.46 18.46 0 0 0-1.18 3.57 15.79 15.79 0 0 1-1.24 3.52 21.44 21.44 0 0 1-3.56 4.12c-1.49 1.38-3.38 3-4.19 3.56a23 23 0 0 1-3.11 1.8A23.28 23.28 0 0 1 82 144a21.48 21.48 0 0 0-3.41 1.22 22 22 0 0 0-3.11 1.9 10 10 0 0 1-3.31 1.51 13.14 13.14 0 0 1-4 0 37.21 37.21 0 0 0-4.24-.39 32.12 32.12 0 0 0-4 .22 39.57 39.57 0 0 0-4 .78c-1.09.29-2.89.87-4 1.3a17.68 17.68 0 0 1-3.75 1 10.49 10.49 0 0 1-3.24-.23c-.82-.23-2.16-.53-3-.68s-2.16-.32-3-.38a22.8 22.8 0 0 0-3 0 23.67 23.67 0 0 0-3 .48 13.9 13.9 0 0 1-3 .32 14.18 14.18 0 0 1-3-.47 9.25 9.25 0 0 0-3-.27 10.44 10.44 0 0 0-3 .91 7.47 7.47 0 0 1-3 .72 7.76 7.76 0 0 1-3-.87 7.3 7.3 0 0 0-3-.82 7.72 7.72 0 0 0-3.06.86l-.23.11a4.88 4.88 0 0 0 .16 1 5.83 5.83 0 0 0 .74 1.8 25 25 0 0 0 1.91 2.43 16.5 16.5 0 0 0 2 1.8 4.29 4.29 0 0 0 2.31.69 7.93 7.93 0 0 0 2.83-.9 7.72 7.72 0 0 1 3.06-.86 7.3 7.3 0 0 1 3 .82 7.76 7.76 0 0 0 3 .87 7.47 7.47 0 0 0 3-.72 10.44 10.44 0 0 1 3-.91 9.25 9.25 0 0 1 3 .27 14.18 14.18 0 0 0 3 .47 13.9 13.9 0 0 0 3-.32 23.67 23.67 0 0 1 3-.48 22.8 22.8 0 0 1 3 0c.82.06 2.16.24 3 .38s2.16.45 3 .68a10.49 10.49 0 0 0 3.24.23 17.68 17.68 0 0 0 3.75-1c1.1-.43 2.9-1 4-1.3a39.57 39.57 0 0 1 4-.78 32.12 32.12 0 0 1 4-.22 37.21 37.21 0 0 1 4.24.39 13.14 13.14 0 0 0 4 0 10 10 0 0 0 3.34-1.56 22 22 0 0 1 3.11-1.9 21.48 21.48 0 0 1 3.41-1.22 23.28 23.28 0 0 0 3.41-1.19 23 23 0 0 0 3.11-1.8c.81-.58 2.7-2.18 4.19-3.56a21.44 21.44 0 0 0 3.56-4.12 15.79 15.79 0 0 0 1.24-3.52 18.46 18.46 0 0 1 1.18-3.57 17.19 17.19 0 0 1 2-3.08 35.87 35.87 0 0 0 2.19-2.91 32.5 32.5 0 0 0 1.74-3.06 15.8 15.8 0 0 0 1.08-3.24 16.2 16.2 0 0 0 .2-3.43 16.55 16.55 0 0 1 .2-3.47 17.14 17.14 0 0 1 1.08-3.35 15.74 15.74 0 0 0 1-3.33 44.46 44.46 0 0 0-.28-7.33 73.67 73.67 0 0 0-1.08-7.61c-.28-1.08-1.56-4.47-2.85-7.54s-2.55-6.37-2.83-7.34-.63-2.53-.78-3.47-.75-3.24-1.32-5.11A28.75 28.75 0 0 0 106.9 64a20.46 20.46 0 0 0-2.11-2.85z"/></svg>