<svg xmlns="http://www.w3.org/2000/svg" width="99.16" height="200" viewBox="0 0 99.16 200"><title>_</title><path d="M-1.68 140.53a49.71 49.71 0 0 0 .27 10.14 4.89 4.89 0 0 0 2.13.71 30.17 30.17 0 0 0 4.08 0c.4 0 .89-.1 1.4-.18a22.06 22.06 0 0 0 2.27-.48 29.1 29.1 0 0 1 4-.79c1.33-.14 7.25.14 12.15.47l7 .48a96.84 96.84 0 0 0 11.51.33 17 17 0 0 0 3.58-1.21 25.07 25.07 0 0 1 4.16-1.55 21 21 0 0 1 4.21-.54 40.14 40.14 0 0 1 4 .24 39.83 39.83 0 0 1 4 .76 24.66 24.66 0 0 0 3.59.57 23.87 23.87 0 0 0 3.58-.1 32.17 32.17 0 0 1 4.08-.18 33.23 33.23 0 0 1 4.08.44c1 .18 2.69.39 3.69.45s2.7.06 3.72 0a4.08 4.08 0 0 0 1.82-.55 2.28 2.28 0 0 0 .2-1.27c-.14-.95-.34-3.21-.43-5.05s-.37-4.6-.63-6.35c-.16-1.05-.29-2.27-.38-3.32-.06-.74-.08-1.31-.08-1.69a16.83 16.83 0 0 1 .47-3.31 1.88 1.88 0 0 0 .05-.64 3.27 3.27 0 0 0-.87-.05c-.92.08-3.24.13-5.17.1s-4.8.04-6.7.22a31.23 31.23 0 0 1-5.62 0 19.09 19.09 0 0 1-3.87-1.18 16.47 16.47 0 0 0-3.16-.94 49.64 49.64 0 0 0-6.7 0c-2.81.16-6 .42-6.86.58a27.16 27.16 0 0 0-3.14.78h-.15a13.13 13.13 0 0 1-4 .62 12.81 12.81 0 0 1-3.86-.83 7.85 7.85 0 0 1-2.86-1.92 3.27 3.27 0 0 1-.36-3.24 2.69 2.69 0 0 0 .17-1.06 5 5 0 0 0-.57-1.48c-.39-.63-1-1.66-1.26-2.3s-.76-1.67-1-2.31a9.25 9.25 0 0 1-.5-2.78 10.87 10.87 0 0 1 .48-2.87A5.06 5.06 0 0 1 33 106.7c1.16-.64 7.06-.12 11.81.42l.5.06a81.24 81.24 0 0 0 10.79.82 10.37 10.37 0 0 0 2.36-1.16 11.35 11.35 0 0 1 3.38-1.53c1.41-.32 4.81.38 6.42.79a38 38 0 0 0 5.29 1.06 10 10 0 0 0 2.25-.31 2.41 2.41 0 0 0 .93-.58 23.53 23.53 0 0 0-.19-4.74c-.32-2.62-.61-6.24-.64-8.07v-3.2c0-1.2.09-2.2.15-3a12.21 12.21 0 0 0 0-2.06 17.64 17.64 0 0 1-2.6.27 26.25 26.25 0 0 1-2.89-.15c-.83-.1-2.17-.31-3-.49s-2.16-.52-3-.77a10.82 10.82 0 0 0-2.44-.39 10.08 10.08 0 0 0-2.44.33 17 17 0 0 1-3.19.53 16.54 16.54 0 0 1-3.2-.22 14.37 14.37 0 0 0-2.53-.18 14.64 14.64 0 0 0-2.53.39 16.29 16.29 0 0 1-3.24.42 14.59 14.59 0 0 1-3.27-.47c-.2-.06-.45-.11-.72-.16a14 14 0 0 0-1.9-.25 16.87 16.87 0 0 0-2.88.19 6.25 6.25 0 0 1-3.57-.39c-1.59-.85-2.12-3.91-2.14-4a34.43 34.43 0 0 1-.45-3.67 6.91 6.91 0 0 1 .58-2.64 10.63 10.63 0 0 1 1.66-2.38 7.06 7.06 0 0 0 1-1.38 1.17 1.17 0 0 0 .07-.43 3 3 0 0 1 .73-2.74 10.78 10.78 0 0 1 2.52-1.84 13.07 13.07 0 0 1 3.54-1.22 13.48 13.48 0 0 1 3.77 0c1 .17 2.56.53 3.53.81s2.55.8 3.52 1.18a13.19 13.19 0 0 0 3 .7 24.57 24.57 0 0 0 4.67-.47c1.9-.36 7.94-1.08 13.46-1.61 4.64-.45 10.53-.94 11.48-.94a2.46 2.46 0 0 0 1.25-.3 2.51 2.51 0 0 0 .57-1 13 13 0 0 0 .27-2.36 19 19 0 0 0-.25-2.79 26.21 26.21 0 0 1-.33-3.48 25.84 25.84 0 0 1 .24-3.48c.07-.48.15-1.16.2-1.86 0-.39.06-.76.07-1.05a21.57 21.57 0 0 0-.11-2.6 2.31 2.31 0 0 0-.47-1 26.26 26.26 0 0 0-5.34-.6c-2.88-.09-6.87 0-8.9.11a36.26 36.26 0 0 1-6 0 22.36 22.36 0 0 1-4.09-1.06 31.72 31.72 0 0 0-3.56-1.08 28.65 28.65 0 0 0-3.54-.51c-.78-.06-5.73.39-11.52 1.13l-2.76.35c-4.06.52-10.65 1.21-12.2 1A18.77 18.77 0 0 1 23 41.43a12.51 12.51 0 0 0-3.28-.84 11.5 11.5 0 0 0-3.24.35 39.13 39.13 0 0 1-4 .88c-1.08.17-3.6.4-5.61.53s-4.09.32-4.87.47a6.25 6.25 0 0 0-2 .84 5.93 5.93 0 0 0-1.37 1.63 9.83 9.83 0 0 0-.79 2.41 35.61 35.61 0 0 0 .6 6.3 39.34 39.34 0 0 1 .63 7.35A16.4 16.4 0 0 1-2 65.19a15.08 15.08 0 0 0-.9 3.08A101.34 101.34 0 0 0-2 79.53l1.37 11.33A132.33 132.33 0 0 1 .5 104.49 34.48 34.48 0 0 1-.09 110a28.35 28.35 0 0 1-1.25 3.7 12.42 12.42 0 0 0-.8 3 11.11 11.11 0 0 0 .22 3c.24 1 .55 2.61.69 3.61.17 1.23 0 7.1-.2 12z"/><path d="M89.46 48.11h-2.4c-.05.68-.13 1.41-.22 2a24.28 24.28 0 0 0-.22 3.23 24.39 24.39 0 0 0 .3 3.23 20.73 20.73 0 0 1 .27 3.06 14.42 14.42 0 0 1-.31 2.7 3.81 3.81 0 0 1-1.13 1.88 4.13 4.13 0 0 1-2.17.6c-.74 0-5.83.41-11.3.93-5.47.53-11.47 1.24-13.33 1.59a25.41 25.41 0 0 1-5.07.49 14.57 14.57 0 0 1-3.38-.8c-.93-.36-2.45-.87-3.38-1.14s-2.47-.68-3.4-.88a11.92 11.92 0 0 0-3.27 0 11.52 11.52 0 0 0-3.06 1.05 9.53 9.53 0 0 0-2.11 1.52 1.59 1.59 0 0 0-.41 1.34 2.33 2.33 0 0 1-.14 1.44 8.22 8.22 0 0 1-1.29 1.8 9.18 9.18 0 0 0-1.39 2 5.45 5.45 0 0 0-.44 2 33.4 33.4 0 0 0 .39 3.42 4.91 4.91 0 0 0 1.37 3 4.92 4.92 0 0 0 2.61.24 18.6 18.6 0 0 1 3.19-.21 15.55 15.55 0 0 1 2.13.28 5.61 5.61 0 0 1 .17-1 4.65 4.65 0 0 1 .26-.77 9.18 9.18 0 0 1 1.39-2 8.22 8.22 0 0 0 1.29-1.8 2.33 2.33 0 0 0 .14-1.44 1.59 1.59 0 0 1 .45-1.35A9.53 9.53 0 0 1 47.1 73a11.52 11.52 0 0 1 3.06-1.05 11.92 11.92 0 0 1 3.27 0c.93.16 2.45.51 3.38.77s2.45.77 3.38 1.14a14.57 14.57 0 0 0 3.38.8 25.41 25.41 0 0 0 5.07-.49c1.86-.35 7.86-1.06 13.33-1.59s10.56-.95 11.3-.93a4.13 4.13 0 0 0 2.17-.6 3.81 3.81 0 0 0 1.13-1.88 14.42 14.42 0 0 0 .31-2.7 20.73 20.73 0 0 0-.27-3.06 24.39 24.39 0 0 1-.3-3.23 24.28 24.28 0 0 1 .24-3.18c.13-.89.26-2.28.29-3.1a23.27 23.27 0 0 0-.12-2.82A3.56 3.56 0 0 0 95.66 49c-.5-.4-3.29-.8-6.2-.89zM76.22 108.25a11.43 11.43 0 0 1-2.67.37 37.64 37.64 0 0 1-5.65-1.1 19 19 0 0 0-5.72-.78 10 10 0 0 0-2.86 1.3 11.65 11.65 0 0 1-2.86 1.38c-.79.22-5.9-.12-11.36-.74l-.5-.06c-5.46-.63-10.37-.9-10.91-.6a3.59 3.59 0 0 0-1.38 1.79 9.43 9.43 0 0 0-.41 2.41 7.76 7.76 0 0 0 .4 2.25c.22.6.64 1.58.94 2.18s.83 1.58 1.2 2.18a6.34 6.34 0 0 1 .78 2.08 4.08 4.08 0 0 1-.3 1.89 1.78 1.78 0 0 0 .18 1.68 6.6 6.6 0 0 0 2.25 1.46 11.3 11.3 0 0 0 3.34.71 12.16 12.16 0 0 0 3.45-.54l.16-.05c0-.09-.1-.2-.15-.28l-.36-.61c-.3-.53-.63-1.14-.84-1.57-.29-.6-.71-1.58-.94-2.18a7.76 7.76 0 0 1-.4-2.25 9.43 9.43 0 0 1 .41-2.41 3.59 3.59 0 0 1 1.37-1.76c.54-.3 5.45 0 10.91.6l.5.06c5.46.63 10.58 1 11.36.74A11.65 11.65 0 0 0 69 115a10 10 0 0 1 2.86-1.3 19 19 0 0 1 5.72.78 37.64 37.64 0 0 0 5.65 1.1 11.43 11.43 0 0 0 2.67-.37 3.51 3.51 0 0 0 1.84-1.32c.3-.52.28-3 0-5.62s-.6-6.14-.63-7.92 0-4.48.17-6A7.41 7.41 0 0 0 87 91a1.81 1.81 0 0 0-1.55-.33 16.14 16.14 0 0 1-2.34.24 24.2 24.2 0 0 1-2.68-.14c-.55-.06-1.35-.19-2.05-.31l-.78-.16h-.19v3.13c0 1.78.32 5.34.63 7.92s.33 5.11 0 5.63a3.51 3.51 0 0 1-1.82 1.27zM95.65 133.32c-.87.08-3.13.12-5 .1H88c.08 1 .21 2.16.36 3.23.26 1.78.55 4.7.64 6.49s.28 4 .42 4.9a3.41 3.41 0 0 1-.6 2.54 5 5 0 0 1-2.81 1 32 32 0 0 1-7.77-.46 31.46 31.46 0 0 0-3.86-.41 31 31 0 0 0-3.86.17 25.18 25.18 0 0 1-3.86.1 26.09 26.09 0 0 1-3.86-.62 38 38 0 0 0-3.86-.73 36.32 36.32 0 0 0-3.86-.23 19.62 19.62 0 0 0-3.86.5 23.27 23.27 0 0 0-3.86 1.44 18.54 18.54 0 0 1-3.86 1.34 92.83 92.83 0 0 1-11.9-.3l-7-.48c-5.49-.37-10.84-.59-11.89-.48a27.35 27.35 0 0 0-3.8.74 23.48 23.48 0 0 1-2.45.52v1c.07 2.58.28 4.45.6 4.81a5.61 5.61 0 0 0 3.24 1.31 31.46 31.46 0 0 0 4.33 0 25.28 25.28 0 0 0 4-.71 27.35 27.35 0 0 1 3.8-.74c1-.11 6.4.1 11.89.48l7 .48a92.83 92.83 0 0 0 11.9.3 18.54 18.54 0 0 0 3.86-1.34 23.27 23.27 0 0 1 3.86-1.44 19.62 19.62 0 0 1 3.86-.5 36.32 36.32 0 0 1 3.86.23 38 38 0 0 1 3.86.73 26.09 26.09 0 0 0 3.86.62 25.18 25.18 0 0 0 3.86-.1 31 31 0 0 1 3.86-.17 31.46 31.46 0 0 1 3.86.41 32 32 0 0 0 7.77.46 5 5 0 0 0 2.81-1 3.41 3.41 0 0 0 .6-2.54c-.14-.91-.32-3.12-.42-4.9s-.38-4.71-.64-6.49a38.22 38.22 0 0 1-.43-4.76 15.26 15.26 0 0 1 .42-3 2.55 2.55 0 0 0-.22-2.07 3.13 3.13 0 0 0-2.2-.43z"/></svg>