<svg xmlns="http://www.w3.org/2000/svg" width="200" height="200" viewBox="0 0 200 200"><title>_</title><path d="M141.37,102.56c0-.87,0-2,0-3.17s0.08-2.19.15-2.93a10.45,10.45,0,0,0-.05-2.59,1.78,1.78,0,0,0-.54,0,17.09,17.09,0,0,1-2.51.26,25.41,25.41,0,0,1-2.82-.15c-0.81-.09-2.14-0.31-3-0.48s-2.13-.51-2.94-0.76a11.24,11.24,0,0,0-2.58-.41,11.06,11.06,0,0,0-2.58.35,16.44,16.44,0,0,1-3.08.51A16,16,0,0,1,118.4,93a14.62,14.62,0,0,0-2.64-.19,14.94,14.94,0,0,0-2.64.41,15.78,15.78,0,0,1-3.12.4,14,14,0,0,1-3.12-.45c-0.21-.06-0.48-0.12-0.76-0.17a14.58,14.58,0,0,0-2-.26,17.49,17.49,0,0,0-3,.2,5.8,5.8,0,0,1-3.25-.34C96.81,92,96.2,89.91,96,88.89a34.32,34.32,0,0,1-.44-3.6,6.43,6.43,0,0,1,.53-2.42,10.21,10.21,0,0,1,1.57-2.25A7.44,7.44,0,0,0,98.8,79.1a1.54,1.54,0,0,0,.11-0.72,2.54,2.54,0,0,1,.61-2.32,10.42,10.42,0,0,1,2.38-1.73,12.49,12.49,0,0,1,3.38-1.16,12.89,12.89,0,0,1,3.6,0c1,0.17,2.52.52,3.48,0.79s2.51,0.79,3.47,1.17a13.57,13.57,0,0,0,3.1.74,24.54,24.54,0,0,0,4.8-.48c1.89-.35,7.91-1.07,13.42-1.6,4.94-.47,10.58-0.94,11.44-0.94a2,2,0,0,0,2.31-1.71,13.4,13.4,0,0,0,.28-2.47,19.58,19.58,0,0,0-.26-2.88,25.63,25.63,0,0,1-.32-3.4,25.21,25.21,0,0,1,.24-3.4c0.07-.49.15-1.18,0.21-1.9,0-.4.06-0.78,0.07-1.08A22.16,22.16,0,0,0,151,53.4a2.61,2.61,0,0,0-.7-1.4,23.4,23.4,0,0,0-5.6-.67c-2.89-.09-6.9,0-9,0.11a35.52,35.52,0,0,1-5.86,0,21.77,21.77,0,0,1-4-1,32.39,32.39,0,0,0-3.63-1.1,29.23,29.23,0,0,0-3.62-.52c-0.86-.06-5.82.4-11.61,1.13l-2.76.35c-4.87.62-10.75,1.18-12.07,1a18.16,18.16,0,0,1-4-1.16,12.92,12.92,0,0,0-3.44-.88,12,12,0,0,0-3.42.36,38.56,38.56,0,0,1-3.89.86c-1.07.17-3.56,0.4-5.56,0.52s-4.19.34-5,.49a6.76,6.76,0,0,0-2.22.93,6.44,6.44,0,0,0-1.51,1.8,10.27,10.27,0,0,0-.84,2.56,35.48,35.48,0,0,0,.59,6.42,39.44,39.44,0,0,1,.63,7.21,15.85,15.85,0,0,1-1,3.74,15.44,15.44,0,0,0-.93,3.21,99.85,99.85,0,0,0,.95,11.4l1.37,11.33A131.82,131.82,0,0,1,65,113.63a34,34,0,0,1-.58,5.4,27.7,27.7,0,0,1-1.23,3.62,12.83,12.83,0,0,0-.84,3.16,11.57,11.57,0,0,0,.23,3.13c0.24,1,.54,2.58.68,3.56,0.16,1.15,0,7-.2,11.91l-0.24,5.24c-0.25,5.62,0,9.68.33,10.45a5,5,0,0,0,2.52.92,30.75,30.75,0,0,0,4.17,0c0.41,0,.92-0.1,1.44-0.19a22.57,22.57,0,0,0,2.33-.49,28.54,28.54,0,0,1,4-.77c1.25-.13,7.11.14,12.06,0.47l7,0.48a95.44,95.44,0,0,0,11.64.32,17.57,17.57,0,0,0,3.6-1.25,24.42,24.42,0,0,1,4.06-1.52,20.41,20.41,0,0,1,4.1-.53,39.69,39.69,0,0,1,4,.23,39.16,39.16,0,0,1,4,.75,25.28,25.28,0,0,0,3.68.59,24.41,24.41,0,0,0,3.67-.1,31.75,31.75,0,0,1,4-.18,32.65,32.65,0,0,1,4,.43c1,0.19,2.73.39,3.75,0.45s2.75,0.06,3.78,0a4.24,4.24,0,0,0,2.15-.7,2.55,2.55,0,0,0,.33-1.7c-0.14-.94-0.33-3.18-0.43-5s-0.37-4.64-.63-6.39c-0.15-1-.29-2.25-0.37-3.29-0.06-.73-0.08-1.28-0.07-1.64a16.18,16.18,0,0,1,.46-3.19,2,2,0,0,0,0-1.17,3.44,3.44,0,0,0-1.33-.15c-0.91.08-3.21,0.13-5.12,0.1s-4.94.07-6.85,0.21a30.73,30.73,0,0,1-5.5,0,18.52,18.52,0,0,1-3.75-1.11,17.08,17.08,0,0,0-3.28-1,49,49,0,0,0-6.81,0c-2.82.16-6,.43-6.92,0.59a27.8,27.8,0,0,0-3.21.8l-0.15,0a12.82,12.82,0,0,1-3.8.59,12.25,12.25,0,0,1-3.69-.79,7.42,7.42,0,0,1-2.66-1.77,2.79,2.79,0,0,1-.3-2.72,3.13,3.13,0,0,0,.21-1.34,5.39,5.39,0,0,0-.64-1.68c-0.38-.62-0.94-1.64-1.24-2.26s-0.74-1.63-1-2.27a8.8,8.8,0,0,1-.47-2.6,10.46,10.46,0,0,1,.46-2.72,4.58,4.58,0,0,1,1.85-2.35c1.17-.65,9.11.21,11.51,0.48l0.5,0.06a78.29,78.29,0,0,0,11,.77,10.8,10.8,0,0,0,2.55-1.24,11,11,0,0,1,3.21-1.45c1.22-.27,4.37.32,6.18,0.78a37.92,37.92,0,0,0,5.41,1.07h0a10.55,10.55,0,0,0,2.37-.33,2.62,2.62,0,0,0,1.25-.85,20.69,20.69,0,0,0-.16-5C141.69,108,141.41,104.38,141.37,102.56Z" fill="#231f20"/><path d="M154.44,57.27l-1.4,0h-1c-0.05.68-.13,1.41-0.22,2a24.26,24.26,0,0,0-.22,3.23,24.41,24.41,0,0,0,.3,3.23,20.73,20.73,0,0,1,.27,3.06,14.42,14.42,0,0,1-.31,2.7,3.81,3.81,0,0,1-1.13,1.88,4.13,4.13,0,0,1-2.17.6c-0.74,0-5.83.41-11.3,0.93h0c-5.47.53-11.47,1.24-13.33,1.59a25.41,25.41,0,0,1-5.07.49,14.57,14.57,0,0,1-3.38-.8c-0.93-.36-2.45-0.87-3.38-1.14s-2.45-.61-3.38-0.77a11.92,11.92,0,0,0-3.27,0,11.52,11.52,0,0,0-3.06,1.05,9.54,9.54,0,0,0-2.11,1.52,1.59,1.59,0,0,0-.41,1.34,2.33,2.33,0,0,1-.14,1.44,8.22,8.22,0,0,1-1.29,1.8,9.17,9.17,0,0,0-1.39,2,5.45,5.45,0,0,0-.44,2A33.37,33.37,0,0,0,97,88.72a4.91,4.91,0,0,0,1.37,3,4.92,4.92,0,0,0,2.61.24,18.6,18.6,0,0,1,3.19-.21,15.56,15.56,0,0,1,2.13.28,5.59,5.59,0,0,1,.17-1,4.65,4.65,0,0,1,.26-0.77,9.17,9.17,0,0,1,1.39-2,8.22,8.22,0,0,0,1.29-1.8,2.33,2.33,0,0,0,.14-1.44,1.59,1.59,0,0,1,.41-1.34,9.54,9.54,0,0,1,2.11-1.52,11.52,11.52,0,0,1,3.06-1.05,11.92,11.92,0,0,1,3.27,0c0.93,0.16,2.45.51,3.38,0.77s2.45,0.77,3.38,1.14a14.57,14.57,0,0,0,3.38.8,25.41,25.41,0,0,0,5.07-.49c1.86-.35,7.86-1.06,13.33-1.59h0c5.47-.53,10.56-0.95,11.3-0.93a4.13,4.13,0,0,0,2.17-.6,3.81,3.81,0,0,0,1.13-1.88,14.42,14.42,0,0,0,.31-2.7,20.73,20.73,0,0,0-.27-3.06,24.41,24.41,0,0,1-.3-3.23,24.26,24.26,0,0,1,.22-3.23c0.13-.89.26-2.28,0.29-3.1a23.25,23.25,0,0,0-.12-2.82,3.56,3.56,0,0,0-1.06-2.06C160.14,57.76,157.36,57.36,154.44,57.27Z" fill="#231f20"/><path d="M142.4,99.42c0,1.1,0,2.23,0,3.13,0,1.78.32,5.34,0.63,7.92s0.33,5.11,0,5.63a3.51,3.51,0,0,1-1.84,1.32,11.43,11.43,0,0,1-2.67.37,37.64,37.64,0,0,1-5.65-1.1,19,19,0,0,0-5.72-.78,10,10,0,0,0-2.86,1.3,11.65,11.65,0,0,1-2.86,1.38c-0.79.22-5.9-.12-11.36-0.74l-0.5-.06c-5.46-.63-10.37-0.9-10.91-0.6A3.59,3.59,0,0,0,97.28,119a9.43,9.43,0,0,0-.41,2.41,7.76,7.76,0,0,0,.4,2.25c0.22,0.6.64,1.58,0.94,2.18s0.83,1.58,1.2,2.18a6.34,6.34,0,0,1,.78,2.08,4.08,4.08,0,0,1-.3,1.89,1.78,1.78,0,0,0,.18,1.68,6.6,6.6,0,0,0,2.25,1.46,11.3,11.3,0,0,0,3.34.71,12.17,12.17,0,0,0,3.45-.54l0.16-.05c0-.09-0.1-0.2-0.15-0.28l-0.36-.61c-0.3-.53-0.63-1.14-0.84-1.57-0.29-.6-0.71-1.58-0.94-2.18a7.76,7.76,0,0,1-.4-2.25,9.43,9.43,0,0,1,.41-2.41,3.59,3.59,0,0,1,1.38-1.79c0.54-.3,5.45,0,10.91.6l0.5,0.06c5.46,0.63,10.58,1,11.36.74a11.65,11.65,0,0,0,2.86-1.38,10,10,0,0,1,2.86-1.3,19,19,0,0,1,5.72.78,37.64,37.64,0,0,0,5.65,1.1,11.43,11.43,0,0,0,2.67-.37,3.51,3.51,0,0,0,1.84-1.32c0.3-.52.28-3,0-5.62s-0.6-6.14-.63-7.92,0-4.48.17-6a7.41,7.41,0,0,0-.24-3.32,1.81,1.81,0,0,0-1.55-.33,16.14,16.14,0,0,1-2.34.24,24.2,24.2,0,0,1-2.68-.14c-0.55-.06-1.35-0.19-2.05-0.31l-0.81-.15Z" fill="#231f20"/><path d="M153.35,145.82c0.26,1.78.55,4.7,0.64,6.49s0.28,4,.42,4.9a3.41,3.41,0,0,1-.6,2.54,5,5,0,0,1-2.81,1,32,32,0,0,1-7.77-.46,31.46,31.46,0,0,0-3.86-.41,31,31,0,0,0-3.86.17,25.18,25.18,0,0,1-3.86.1,26.09,26.09,0,0,1-3.86-.62,38,38,0,0,0-3.86-.73,36.33,36.33,0,0,0-3.86-.23,19.62,19.62,0,0,0-3.86.5,23.27,23.27,0,0,0-3.86,1.44,18.54,18.54,0,0,1-3.86,1.34,92.83,92.83,0,0,1-11.9-.3l-7-.48c-5.49-.37-10.84-0.59-11.89-0.48a27.35,27.35,0,0,0-3.8.74,23.49,23.49,0,0,1-2.45.52c0,0.35,0,.68,0,1,0.07,2.58.28,4.45,0.6,4.81A5.61,5.61,0,0,0,75.29,169a31.46,31.46,0,0,0,4.33,0,25.29,25.29,0,0,0,4-.71,27.35,27.35,0,0,1,3.8-.74c1-.11,6.4.1,11.89,0.48l7,0.48a92.83,92.83,0,0,0,11.9.3,18.54,18.54,0,0,0,3.86-1.34,23.27,23.27,0,0,1,3.86-1.44,19.62,19.62,0,0,1,3.86-.5,36.33,36.33,0,0,1,3.86.23,38,38,0,0,1,3.86.73,26.09,26.09,0,0,0,3.86.62,25.18,25.18,0,0,0,3.86-.1,31,31,0,0,1,3.86-.17,31.46,31.46,0,0,1,3.86.41,32,32,0,0,0,7.77.46,5,5,0,0,0,2.81-1,3.41,3.41,0,0,0,.6-2.54c-0.14-.91-0.32-3.12-0.42-4.9s-0.38-4.71-.64-6.49a38.22,38.22,0,0,1-.43-4.76,15.27,15.27,0,0,1,.42-3,2.55,2.55,0,0,0-.22-2.07,3.13,3.13,0,0,0-2.19-.5c-0.87.08-3.13,0.12-5,.1H154l-1,0C153.06,143.56,153.19,144.75,153.35,145.82Z" fill="#231f20"/></svg>