<svg xmlns="http://www.w3.org/2000/svg" width="103.99" height="200" viewBox="0 0 103.99 200"><title>_</title><path d="M7.94 137.43a27.94 27.94 0 0 0 .52 4.71c.36 1.92.69 4.11.74 5a2.19 2.19 0 0 0 .59 1.21 53.71 53.71 0 0 0 7.45 1.44l1.67.21a93 93 0 0 0 15.36.63c4.07-.3 6.77-1.14 7.11-1.41a5.92 5.92 0 0 0 .8-2.82c0-1.42.29-4.78.59-7.51a64.72 64.72 0 0 0 .43-7.1 32 32 0 0 0-.61-4.61 45.6 45.6 0 0 1-.77-5.05 43.26 43.26 0 0 1-.07-5 7.34 7.34 0 0 1 1.91-4.61 7.69 7.69 0 0 1 4.79-1.52 44.71 44.71 0 0 0 4.74-.2c1.31-.14 3.46-.49 4.78-.79a22.9 22.9 0 0 1 5.39-.44 23.87 23.87 0 0 1 5.37 1.12 20 20 0 0 0 4.49.94 17.28 17.28 0 0 0 4.31-.42 9.33 9.33 0 0 0 2.93-1.29 2.28 2.28 0 0 0 .66-1.29 23.87 23.87 0 0 0-.18-2.71c-.1-.77-.37-2.12-.59-3a25.72 25.72 0 0 1-.6-3.48 24.37 24.37 0 0 1 0-3.49c0-.41.13-1.05.27-1.91.18-1.06.41-2.23.62-3.2a6.87 6.87 0 0 0 .15-2.28 7.8 7.8 0 0 0-2.25.13 23.78 23.78 0 0 1-5.44.31 24.88 24.88 0 0 1-5.37-1.16 21.32 21.32 0 0 0-4.57-1 19.83 19.83 0 0 0-4.55.31c-1.12.23-3.55.57-6.06.83l-1.75.17c-.57.05-5.64.47-7.24-.41a3.91 3.91 0 0 1-1.89-3.61 15 15 0 0 0-.06-2.55 12.37 12.37 0 0 0-.61-2.22 7 7 0 0 1-.32-3.36 8.6 8.6 0 0 1 1.45-3.16 4.69 4.69 0 0 0 .76-1.9 6.12 6.12 0 0 0-.49-2.29 4.31 4.31 0 0 1-.06-3.88 4.68 4.68 0 0 1 3.57-1.58 32.17 32.17 0 0 1 3.74.11 26.51 26.51 0 0 1 3.49.64c.81.22 2.88.64 4.53.92a19.29 19.29 0 0 0 4.22.3 13.93 13.93 0 0 0 2.75-.77 11.07 11.07 0 0 1 3.7-.77 11.07 11.07 0 0 1 3.7.77 10.61 10.61 0 0 0 2.65.65 10 10 0 0 0 2.61-.27 31 31 0 0 1 3.31-.69c1-.13 3.66-.22 6.14-.22a16.55 16.55 0 0 0 4.53-.46 4.83 4.83 0 0 0 .96-1.4 9.42 9.42 0 0 0 .54-2.45 11 11 0 0 0-.31-2.68 19.88 19.88 0 0 1-.56-3.55 19.42 19.42 0 0 1 .22-3.56 16.14 16.14 0 0 0 .18-1.89v-.9a13.09 13.09 0 0 0-.43-2.53 3.68 3.68 0 0 0-.79-1.29 67.13 67.13 0 0 0-10.24-.77l-4.55-.1c-5-.11-10.78-.32-12-.48a37.33 37.33 0 0 1-3.78-.75 10.94 10.94 0 0 0-3.07-.26 12.19 12.19 0 0 0-3.12.85 12.78 12.78 0 0 1-4.17 1 12.33 12.33 0 0 1-4.16-.76 12.76 12.76 0 0 0-3.14-.73 11.87 11.87 0 0 0-3.11.33c-1 .28-2.73.64-3.77.79a36.8 36.8 0 0 1-3.78.31c-1 0-2.73 0-3.77-.14s-2.72-.36-3.76-.57a19.7 19.7 0 0 0-3.26-.33 18.8 18.8 0 0 0-3.27.39c-1 .23-3.28.6-5 .82a12.22 12.22 0 0 0-2.87.69 77.29 77.29 0 0 0-1.59 9.74C8 58.92 7.59 63.78 7.61 64.55s.42 3.65 1 6.7a115.65 115.65 0 0 1 1.21 14.09c.13 4.82-.14 13.25-.6 18.79l-.65 7.79c-.51 6.08-.7 10.72-.62 11.38a27.4 27.4 0 0 0 .68 3.25 15.68 15.68 0 0 1 .53 3.91 15.92 15.92 0 0 1-.65 3.9 14.91 14.91 0 0 0-.57 3.07z"/><path d="M54.39 120.54a6.27 6.27 0 0 1 3.75-1.13 48.4 48.4 0 0 0 4.92-.21c1.36-.14 3.59-.51 5-.82a21 21 0 0 1 5-.41 22.15 22.15 0 0 1 5 1 21.43 21.43 0 0 0 4.9 1 18.78 18.78 0 0 0 4.77-.46 10.65 10.65 0 0 0 3.53-1.6 3.7 3.7 0 0 0 1.19-2.42 25.14 25.14 0 0 0-.2-2.93c-.11-.83-.4-2.24-.63-3.13a23.77 23.77 0 0 1-.56-3.23 22.73 22.73 0 0 1 0-3.23c.08-.89.46-3.1.86-4.91s.26-3.55-.31-3.87a6.79 6.79 0 0 0-3.55-.07 22.06 22.06 0 0 1-5 .32h-.46l-1-.14c-.13.75-.22 1.4-.25 1.79a22.73 22.73 0 0 0 0 3.23 23.77 23.77 0 0 0 .56 3.23c.23.89.51 2.3.63 3.13a25.14 25.14 0 0 1 .2 2.93 3.7 3.7 0 0 1-1.32 2.39 10.65 10.65 0 0 1-3.53 1.6 18.78 18.78 0 0 1-4.77.46 21.43 21.43 0 0 1-4.9-1 22.15 22.15 0 0 0-5-1 21 21 0 0 0-5 .41c-1.37.31-3.59.68-5 .82a48.4 48.4 0 0 1-4.92.21 6.27 6.27 0 0 0-3.75 1.13 6 6 0 0 0-1.43 3.58 41.93 41.93 0 0 0 .07 4.82 44.25 44.25 0 0 0 .74 4.85 33.44 33.44 0 0 1 .64 4.87 65.5 65.5 0 0 1-.44 7.33c-.3 2.69-.56 6-.59 7.37a7 7 0 0 1-1.23 3.84c-.65.75-4.28 1.58-8.07 1.86a95.21 95.21 0 0 1-15.66-.64l-1.58-.25c.06.36.11.7.16 1 .12.8.2 1.48.23 1.86a3.59 3.59 0 0 0 1.17 2.3c.59.46 5 1.35 9.85 2a95.21 95.21 0 0 0 15.66.64c3.79-.28 7.42-1.11 8.07-1.86a7 7 0 0 0 1.23-3.84c0-1.36.29-4.68.59-7.37a65.5 65.5 0 0 0 .44-7.33 33.44 33.44 0 0 0-.64-4.87A44.25 44.25 0 0 1 53 129a41.93 41.93 0 0 1-.07-4.82 6 6 0 0 1 1.46-3.64zM101.8 71.65a5.73 5.73 0 0 0 1.54-2.13 10.77 10.77 0 0 0 .65-2.94 12.41 12.41 0 0 0-.36-3.14 18.58 18.58 0 0 1-.51-3.23 18 18 0 0 1 .2-3.23 17.46 17.46 0 0 0 .21-3.12A14.45 14.45 0 0 0 103 51a4.86 4.86 0 0 0-1.43-2.14c-.41-.3-3.19-.62-6.81-.82l-1-.05A17.56 17.56 0 0 1 93.6 50a18 18 0 0 0-.2 3.23 18.58 18.58 0 0 0 .51 3.23 12.41 12.41 0 0 1 .36 3.14 10.77 10.77 0 0 1-.65 2.94 5.73 5.73 0 0 1-1.54 2.13c-.53.39-2.93.7-5.34.69s-5.07.08-5.93.2a29.19 29.19 0 0 0-3.12.65 11.08 11.08 0 0 1-3.12.32 11.9 11.9 0 0 1-3.12-.77 9.68 9.68 0 0 0-3.12-.66 9.67 9.67 0 0 0-3.12.65 15.34 15.34 0 0 1-3.12.87 20.31 20.31 0 0 1-4.68-.3c-1.72-.29-3.82-.72-4.68-.95a24.81 24.81 0 0 0-3.25-.6 30 30 0 0 0-3.53-.1 3.42 3.42 0 0 0-2.38.91 3 3 0 0 0 .18 2.43 7.42 7.42 0 0 1 .62 3 6.1 6.1 0 0 1-1.05 2.69 7.25 7.25 0 0 0-1.17 2.52 5.53 5.53 0 0 0 .26 2.52 13.92 13.92 0 0 1 .68 2.64 16.23 16.23 0 0 1 .07 2.87 2.46 2.46 0 0 0 1.12 2.17c.68.37 3.55.48 6.38.23l1.72-.17c-.09-.29-.17-.57-.26-.79 0-.05 0-.12-.05-.18a5.53 5.53 0 0 1-.21-2.34A7.25 7.25 0 0 1 53 80.71 6.1 6.1 0 0 0 54.09 78a7.42 7.42 0 0 0-.62-3 3 3 0 0 1-.18-2.43 3.42 3.42 0 0 1 2.38-.91 30 30 0 0 1 3.53.1 24.81 24.81 0 0 1 3.25.6c.86.23 3 .66 4.68.95a20.31 20.31 0 0 0 4.68.3 15.34 15.34 0 0 0 3.12-.87 9.67 9.67 0 0 1 3.12-.65 9.68 9.68 0 0 1 3.12.66 11.9 11.9 0 0 0 3.12.77 11.08 11.08 0 0 0 3.12-.32 29.19 29.19 0 0 1 3.12-.65c.86-.12 3.53-.21 5.93-.2s4.81-.35 5.34-.7z"/></svg>