<svg xmlns="http://www.w3.org/2000/svg" width="200" height="200" viewBox="0 0 200 200"><title>_</title><path d="M140.7 56.6a68 68 0 0 0-9.41-4.81c-4.65-2.06-8.68-3.67-9.38-3.82s-4.48-.68-7.94-1.1a44.58 44.58 0 0 0-7.94-.44 25.42 25.42 0 0 0-3.67 1.1A22.37 22.37 0 0 1 98 48.68a21.9 21.9 0 0 1-4.45.07 8.94 8.94 0 0 0-.91 0 12.49 12.49 0 0 0-2.81.3 12.81 12.81 0 0 0-3.38 1.6 19.59 19.59 0 0 1-3.87 2 17.42 17.42 0 0 1-4.15.85 8.79 8.79 0 0 0-3.11.88A8.77 8.77 0 0 0 73 56.61a24.55 24.55 0 0 1-2.58 3.12 21.56 21.56 0 0 1-3.06 2.44 13.22 13.22 0 0 0-2.48 2.14 13.75 13.75 0 0 0-1.74 2.84c-.42 1-1.17 2.51-1.68 3.42s-1.41 2.32-2 3.14a33.9 33.9 0 0 1-2.45 3c-.75.79-2.1 2-3 2.8a8.07 8.07 0 0 0-2 2.69 9.37 9.37 0 0 0-.37 3.54c.14 1.26.26 3.25.27 4.44 0 1.37-.7 7-1.41 11.72-.78 5.19-1.49 10.85-1.58 12.62a14.28 14.28 0 0 0 .36 4.36 10.88 10.88 0 0 0 1.62 2.58 22.55 22.55 0 0 1 2.16 2.95 17.66 17.66 0 0 1 1.39 3.11 20.68 20.68 0 0 1 .68 3.42 31.16 31.16 0 0 1 .08 3.93 14.6 14.6 0 0 0 .32 3.52 12.61 12.61 0 0 0 1.32 3.06c.53.82 2 2.83 3.25 4.4a33.75 33.75 0 0 0 3.54 3.9c.5.42 3.19 2.07 7.16 4.33l1.62.91c4.4 2.45 8.28 4.43 9 4.67a20.81 20.81 0 0 0 3.19.71c1 .12 2.6.41 3.57.64s2.53.69 3.49 1 2.38.75 3.28 1a45.14 45.14 0 0 0 5 .65 46.69 46.69 0 0 0 4.75.17c.79-.05 2.1-.21 2.88-.35s2.07-.45 2.83-.68 4.57-2 9.16-4.22 8.6-4.4 9.37-5A33.47 33.47 0 0 0 132 151a10.81 10.81 0 0 1 2.57-2 1.43 1.43 0 0 1 1.39.18 1.67 1.67 0 0 1 .61 1.51 8.31 8.31 0 0 0 0 1.51 17.13 17.13 0 0 0 .91 2.54 17.87 17.87 0 0 1 1 2.78 3.55 3.55 0 0 1 0 .61 10.44 10.44 0 0 0 1.22 0 17.62 17.62 0 0 1 2.19 0l.7.07a22.21 22.21 0 0 1 3 .67h.15a11.3 11.3 0 0 0 2.49.38 12.15 12.15 0 0 0 2.64-.38 18.1 18.1 0 0 1 3-.58 12.79 12.79 0 0 1 2.77.1 1.24 1.24 0 0 0 .73-.13 68.16 68.16 0 0 0 .33-9.45c-.06-5.13.06-11.05.27-13.19s.36-4.63.35-5.64a32.92 32.92 0 0 0-.29-3.69 28.37 28.37 0 0 1 0-7.94c.15-1.08.67-3.7 1.17-5.84a27.13 27.13 0 0 0 .78-5.34 8 8 0 0 0-.12-.93 11.43 11.43 0 0 0-.6-2.21 13.33 13.33 0 0 0-1.53-2.64 9.17 9.17 0 0 0-2-1.72 4.11 4.11 0 0 0-2-.47 7 7 0 0 0-2.51 1 8 8 0 0 1-3.63 1.25 7.59 7.59 0 0 1-3.66-1 10.69 10.69 0 0 0-2.78-1.12 53.65 53.65 0 0 0-9 1.1c-3.2.58-8.42 1.34-9.69 1.1a11.8 11.8 0 0 1-3.46-1.42 8.5 8.5 0 0 0-2.69-1 6.43 6.43 0 0 0-2.55.29 6 6 0 0 0-2 1.28 4.9 4.9 0 0 0-.87 2 11.31 11.31 0 0 0 0 2.64 13.41 13.41 0 0 0 .72 2.73 17.86 17.86 0 0 1 .91 3.22 28.82 28.82 0 0 1 .13 4.57c-.07 1.68-.06 3.4 0 4a10.2 10.2 0 0 0 .41 2 6.51 6.51 0 0 0 .79 1.48 3 3 0 0 0 1 .76 3.4 3.4 0 0 0 1.3.13c.52-.06 1.39-.21 1.91-.32s1.63-.44 3-.87l1.16-.36c2.11-.67 3.5-.82 4.13-.44a1.13 1.13 0 0 1 .53.77c0 .26.17 1-2.8 5.6-.38.59-.77 1.17-1.16 1.71a17 17 0 0 1-3.21 3.65 8.92 8.92 0 0 1-3.35.94 20.77 20.77 0 0 0-3 .43 17.33 17.33 0 0 0-2.65.92 11.28 11.28 0 0 1-3.05.85 30.59 30.59 0 0 1-6-.75c-1.34-.27-2.85-.65-4.16-1a17.7 17.7 0 0 1-2.23-.79 37.35 37.35 0 0 1-4.1-2.44 16.29 16.29 0 0 1-3.77-3.85c-.91-1.41-2-5.48-2.45-8.59a76.52 76.52 0 0 1-.95-7.87c0-.8.14-2.12.25-2.94a14.17 14.17 0 0 0 0-2.74 20.22 20.22 0 0 0-.62-3.07 14.25 14.25 0 0 1-.51-3.66 13.51 13.51 0 0 1 .66-3.59 19.22 19.22 0 0 0 .74-3 15.41 15.41 0 0 0 .08-2.8 6.15 6.15 0 0 1 .69-3.25 7.4 7.4 0 0 1 2.58-2.31 16.14 16.14 0 0 0 2.69-1.92 24.08 24.08 0 0 0 2.56-2.87 12.54 12.54 0 0 1 3.37-3 13.18 13.18 0 0 1 4.38-1.32 35.09 35.09 0 0 0 4.08-.69 27.69 27.69 0 0 0 3.6-1.21 9.59 9.59 0 0 1 3.77-.75 7.3 7.3 0 0 1 3.38 1.27 19.76 19.76 0 0 1 2.5 2.27 18.11 18.11 0 0 1 1.92 2.68c.18.32.49.81.86 1.37.47.71 1 1.53 1.55 2.23a8.65 8.65 0 0 0 2.74 2.5 11.17 11.17 0 0 0 3.21.42h.52a26.45 26.45 0 0 1 3.85.35 30.14 30.14 0 0 1 4.5 1.23 21 21 0 0 0 4.08 1 44.7 44.7 0 0 0 8.22-.86 31 31 0 0 0 7-1.84 2.67 2.67 0 0 0 .75-1.56 7.92 7.92 0 0 0-.38-2.37 11.48 11.48 0 0 0-1.37-2.37 14.27 14.27 0 0 1-1.72-3.15 15.25 15.25 0 0 1-.73-3.58 7.8 7.8 0 0 0-.93-2.88 12.73 12.73 0 0 0-2.53-2.73 33.93 33.93 0 0 1-3.46-3.2 33.79 33.79 0 0 1-2.87-3.73 17.52 17.52 0 0 0-2.71-3.13z" fill="#231f20"/><path d="M119.25 79.36a17.3 17.3 0 0 0-1.79-2.51 18.87 18.87 0 0 0-2.35-2.13 6.37 6.37 0 0 0-2.85-1.08 8.55 8.55 0 0 0-3.3.67 28.46 28.46 0 0 1-3.76 1.27 35.83 35.83 0 0 1-4.23.71 12.24 12.24 0 0 0-4 1.2 11.6 11.6 0 0 0-3.05 2.73 25 25 0 0 1-2.69 3 17.11 17.11 0 0 1-2.9 2.06 6.49 6.49 0 0 0-2.19 1.94 5.19 5.19 0 0 0-.56 2.65 16.42 16.42 0 0 1-.09 3.06 20.06 20.06 0 0 1-.79 3.18 12.62 12.62 0 0 0-.6 3.28 13.29 13.29 0 0 0 .47 3.36 21.22 21.22 0 0 1 .66 3.26 15.2 15.2 0 0 1 0 3c-.11.78-.22 2.06-.24 2.84a75.83 75.83 0 0 0 .91 7.54c.53 3.37 1.56 7.06 2.3 8.2a15.42 15.42 0 0 0 3.5 3.57 36.19 36.19 0 0 0 4 2.36 16.26 16.26 0 0 0 2.09.74 10.24 10.24 0 0 1-.51-1.21 39.74 39.74 0 0 1-1.64-6.72 75.83 75.83 0 0 1-.91-7.54c0-.78.13-2.06.24-2.84a15.2 15.2 0 0 0 0-3 21.22 21.22 0 0 0-.66-3.26 13.29 13.29 0 0 1-.47-3.36 12.62 12.62 0 0 1 .6-3.28 20.06 20.06 0 0 0 .79-3.18 16.42 16.42 0 0 0 .09-3.06 5.19 5.19 0 0 1 .56-2.65 6.49 6.49 0 0 1 2.19-1.94 17.11 17.11 0 0 0 2.9-2.06 25 25 0 0 0 2.69-3 11.6 11.6 0 0 1 3.05-2.73 12.24 12.24 0 0 1 4-1.2 35.83 35.83 0 0 0 4.23-.71 28.46 28.46 0 0 0 3.76-1.27c.14-.06.31-.12.48-.18a9.45 9.45 0 0 1 1-.29c-.42-.57-.75-1.09-.93-1.42zM122.06 129.62c.38-.54.76-1.1 1.13-1.67a22.67 22.67 0 0 0 2.66-4.89c-.06-.32-1.57-.11-3.37.46l-1.17.36v2.88a11.71 11.71 0 0 0 .3 1.66c.05.21.11.4.16.56a6.21 6.21 0 0 0 .29.64zM144.26 59.19a32.77 32.77 0 0 0 2.76 3.6 33 33 0 0 0 3.33 3.09 13.75 13.75 0 0 1 2.77 3 8.75 8.75 0 0 1 1.07 3.34 14.3 14.3 0 0 0 .67 3.3 13.35 13.35 0 0 0 1.57 2.89 12.26 12.26 0 0 1 1.49 2.7 8.89 8.89 0 0 1 .43 2.74 3.65 3.65 0 0 1-1.12 2.29c-.59.5-3.93 1.43-7.43 2.05a44.32 44.32 0 0 1-8.52.87A22 22 0 0 1 137 88a29 29 0 0 0-4.28-1.21 25.57 25.57 0 0 0-3.69-.33c.16.27.38.62.64 1 .51.78 1.17 1.73 1.76 2.55a9.39 9.39 0 0 0 3.21 2.89 12 12 0 0 0 3.58.48 24.84 24.84 0 0 1 4.21.33 29 29 0 0 1 4.28 1.21A22 22 0 0 0 151 96a44.32 44.32 0 0 0 8.52-.87c3.5-.62 6.84-1.55 7.43-2.05a3.65 3.65 0 0 0 1.12-2.29 8.89 8.89 0 0 0-.43-2.74 12.26 12.26 0 0 0-1.49-2.7 13.35 13.35 0 0 1-1.57-2.89 14.3 14.3 0 0 1-.67-3.3 8.75 8.75 0 0 0-1.07-3.34 13.75 13.75 0 0 0-2.77-3 33 33 0 0 1-3.33-3.09 32.77 32.77 0 0 1-2.76-3.6 18.25 18.25 0 0 0-2.91-3.35A35.79 35.79 0 0 0 146 60l-1.85-.89zM160.93 107.17a27.66 27.66 0 0 1-.8 5.62c-.49 2.11-1 4.69-1.16 5.75a27.34 27.34 0 0 0 0 7.66 33.67 33.67 0 0 1 .3 3.83c0 1.05-.15 3.64-.35 5.75s-.32 8-.26 13.08-.15 9.59-.47 10a2 2 0 0 1-1.76.56 12 12 0 0 0-2.51-.09 17.28 17.28 0 0 0-2.79.55 9.84 9.84 0 0 1-5.69 0c.1.32.24.71.4 1.12s.27.7.42 1a16 16 0 0 1 .91 2.5 2.51 2.51 0 0 1-.07.9.49.49 0 0 0 .46.53 8.36 8.36 0 0 0 1.9.07 16.84 16.84 0 0 1 2.69.11 21.35 21.35 0 0 1 2.85.64 9.94 9.94 0 0 0 5.85 0 17.28 17.28 0 0 1 2.79-.55 12 12 0 0 1 2.51.09 2 2 0 0 0 1.76-.56c.32-.42.53-4.93.47-10s.06-11 .26-13.08.36-4.65.36-5.65a33.67 33.67 0 0 0-.3-3.83 27.34 27.34 0 0 1 0-7.66c.14-1.05.66-3.64 1.16-5.75a27.66 27.66 0 0 0 .8-5.62 12.48 12.48 0 0 0-.79-3.47 14.25 14.25 0 0 0-1.67-2.88 10.08 10.08 0 0 0-2.23-2 5.08 5.08 0 0 0-2.66-.6 6.08 6.08 0 0 0-1.56.47 9.59 9.59 0 0 0-.93.44 9.09 9.09 0 0 1 .11 1.07zM139.77 159.12a8.36 8.36 0 0 1-1.9-.07.49.49 0 0 1-.46-.53 2.51 2.51 0 0 0 .07-.9 16 16 0 0 0-.91-2.5 17.4 17.4 0 0 1-1-2.77 9.13 9.13 0 0 1-.06-1.74c0-.52-.25-.82-.65-.68a10 10 0 0 0-2.22 1.75 34.3 34.3 0 0 1-3.17 2.7c-.92.67-5.2 2.94-9.52 5.05s-8.51 4-9.31 4.27-2.12.56-2.94.7-2.16.31-3 .36a47.2 47.2 0 0 1-4.9-.17 45.43 45.43 0 0 1-5.11-.67c-.94-.22-2.47-.67-3.38-1s-2.44-.77-3.38-1-2.5-.5-3.47-.62a21.67 21.67 0 0 1-3.38-.75c-.89-.29-5-2.43-9.18-4.74l-1.63-.92a26.88 26.88 0 0 0 2.34 2.45l.07.06c.76.62 4.78 3 8.93 5.34s8.28 4.45 9.18 4.74a21.67 21.67 0 0 0 3.38.75c1 .12 2.53.4 3.47.62s2.46.67 3.38 1 2.44.77 3.38 1a45.43 45.43 0 0 0 5.11.67 47.2 47.2 0 0 0 4.9.17c.83-.05 2.18-.22 3-.36s2.14-.46 2.94-.7 5-2.16 9.31-4.27 8.61-4.39 9.52-5.05c.43-.32 1-.75 1.51-1.21.37-.32.75-.64 1.08-.95a16.62 16.62 0 0 0-2-.03z" fill="#231f20"/></svg>