<svg xmlns="http://www.w3.org/2000/svg" width="121.71" height="200" viewBox="0 0 121.71 200"><title>_</title><path d="M2.35 111.94a23 23 0 0 1 2.22 3A18.28 18.28 0 0 1 6 118.17a21.34 21.34 0 0 1 .7 3.52 31.63 31.63 0 0 1 .08 4 14.23 14.23 0 0 0 .3 3.37A12.21 12.21 0 0 0 8.35 132c.52.81 2 2.81 3.22 4.36a33.86 33.86 0 0 0 3.43 3.8c.42.34 2.9 1.9 7.09 4.28l1.62.91c4.6 2.57 8.3 4.43 8.92 4.63a20.23 20.23 0 0 0 3.1.69c1 .13 2.64.42 3.63.65s2.57.7 3.54 1 2.34.74 3.23.95a44.57 44.57 0 0 0 4.88.64 46.3 46.3 0 0 0 4.68.17c.77 0 2.07-.21 2.82-.34s2-.44 2.77-.66c.56-.17 4.28-1.84 9.09-4.19 4.63-2.2 8.63-4.35 9.33-4.89a33 33 0 0 0 3-2.55 11.89 11.89 0 0 1 2.75-2.08 1.92 1.92 0 0 1 1.86.25 2.16 2.16 0 0 1 .81 1.95 7.74 7.74 0 0 0 0 1.39 17.19 17.19 0 0 0 .88 2.42 17.5 17.5 0 0 1 1 2.93v.18h.68a18 18 0 0 1 2.25 0l.73.07a22.89 22.89 0 0 1 3.09.69h.13a10.85 10.85 0 0 0 2.37.36 11.67 11.67 0 0 0 2.49-.36 18.67 18.67 0 0 1 3.08-.6 13.3 13.3 0 0 1 2.89.1.65.65 0 0 0 .21 0 78.66 78.66 0 0 0 .27-9.07c-.06-5.15.06-11.09.27-13.24s.36-4.59.35-5.59a32.36 32.36 0 0 0-.28-3.62 28.87 28.87 0 0 1 0-8.08c.15-1.1.68-3.74 1.18-5.89a26.93 26.93 0 0 0 .77-5.2 7.43 7.43 0 0 0-.11-.87 10.89 10.89 0 0 0-.57-2.1 12.87 12.87 0 0 0-1.46-2.52 8.7 8.7 0 0 0-1.8-1.57 3.61 3.61 0 0 0-1.74-.4 6.68 6.68 0 0 0-2.28.94 8.45 8.45 0 0 1-3.9 1.34 8.07 8.07 0 0 1-3.93-1.11 10.26 10.26 0 0 0-2.62-1.06 56.65 56.65 0 0 0-8.77 1.1c-2.78.5-8.42 1.38-9.87 1.1a12.17 12.17 0 0 1-3.63-1.48 8 8 0 0 0-2.49-1 6 6 0 0 0-2.3.27 5.54 5.54 0 0 0-1.76 1.14 4.44 4.44 0 0 0-.76 1.71 10.89 10.89 0 0 0 0 2.5 13 13 0 0 0 .69 2.6 18.35 18.35 0 0 1 .94 3.32 29.33 29.33 0 0 1 .14 4.67c-.07 1.66-.06 3.35 0 3.89a9.78 9.78 0 0 0 .38 1.86 6 6 0 0 0 .71 1.34 2.57 2.57 0 0 0 .75.6 3 3 0 0 0 1.05.1c.51-.06 1.37-.21 1.86-.32s1.6-.44 3-.86l1.16-.36c2.32-.74 3.76-.86 4.54-.39a1.63 1.63 0 0 1 .76 1.11c.07.4.2 1.16-2.87 6-.38.59-.78 1.18-1.17 1.73a16.53 16.53 0 0 1-3.43 3.79 9.36 9.36 0 0 1-3.57 1 20.17 20.17 0 0 0-2.89.42 16.92 16.92 0 0 0-2.56.89 11.69 11.69 0 0 1-3.21.9 31.43 31.43 0 0 1-6.18-.76c-1.34-.27-2.87-.66-4.2-1.05a18.14 18.14 0 0 1-2.31-.82 37.85 37.85 0 0 1-4.17-2.48 16.89 16.89 0 0 1-3.91-4c-1-1.53-2-5.66-2.53-8.78a75.55 75.55 0 0 1-.93-7.82c0-.82.14-2.16.26-3a13.82 13.82 0 0 0 0-2.62 19.56 19.56 0 0 0-.6-3 14.87 14.87 0 0 1-.53-3.81 14.12 14.12 0 0 1 .69-3.75 18.62 18.62 0 0 0 .72-2.89 15.13 15.13 0 0 0 .08-2.73 6.62 6.62 0 0 1 .76-3.55 7.85 7.85 0 0 1 2.78-2.5A15.79 15.79 0 0 0 41.3 73a23.58 23.58 0 0 0 2.49-2.79A13.12 13.12 0 0 1 47.32 67a13.76 13.76 0 0 1 4.57-1.38 34.52 34.52 0 0 0 4-.68 27.15 27.15 0 0 0 3.52-1.18 10.17 10.17 0 0 1 4-.79 7.74 7.74 0 0 1 3.65 1.37 20.28 20.28 0 0 1 2.57 2.34 18.67 18.67 0 0 1 2 2.77c.17.31.48.79.84 1.34.47.71 1 1.52 1.54 2.22a8.39 8.39 0 0 0 2.5 2.36 10.56 10.56 0 0 0 3 .39h.58a27 27 0 0 1 3.94.36 30.67 30.67 0 0 1 4.54 1.29 20.43 20.43 0 0 0 4 1 44.42 44.42 0 0 0 8.08-.86 32.18 32.18 0 0 0 6.77-1.75 2.26 2.26 0 0 0 .54-1.17 7.44 7.44 0 0 0-.35-2.18 11.1 11.1 0 0 0-1.28-2.3 14.85 14.85 0 0 1-1.79-3.28 15.85 15.85 0 0 1-.76-3.72 7.3 7.3 0 0 0-.86-2.66 12.32 12.32 0 0 0-2.41-2.6A34.55 34.55 0 0 1 97 54.64a34.46 34.46 0 0 1-2.92-3.8 16.91 16.91 0 0 0-2.62-3 68.58 68.58 0 0 0-9.29-4.74c-4.86-2.16-8.68-3.66-9.28-3.79-.83-.17-4.45-.67-7.9-1.09a45 45 0 0 0-7.79-.44 24.89 24.89 0 0 0-3.58 1.07A22.94 22.94 0 0 1 49.16 40a22.46 22.46 0 0 1-4.57.07 8.55 8.55 0 0 0-.86 0 12 12 0 0 0-2.68.28 12.4 12.4 0 0 0-3.22 1.52 20.18 20.18 0 0 1-4 2.1 18 18 0 0 1-4.29.88 8.31 8.31 0 0 0-2.89.81 8.3 8.3 0 0 0-2.17 2.07 25.18 25.18 0 0 1-2.65 3.2 22.1 22.1 0 0 1-3.15 2.5 12.81 12.81 0 0 0-2.36 2 13.33 13.33 0 0 0-1.66 2.71c-.42 1-1.18 2.54-1.7 3.47s-1.43 2.36-2 3.19a34.38 34.38 0 0 1-2.5 3c-.76.8-2.13 2.07-3 2.84a7.61 7.61 0 0 0-1.83 2.49 8.94 8.94 0 0 0-.34 3.31c.14 1.28.26 3.29.28 4.49 0 1.39-.71 7.09-1.41 11.8C1.29 98 .59 103.6.5 105.35a13.94 13.94 0 0 0 .32 4.15 10.46 10.46 0 0 0 1.53 2.44z"/><path d="M49.13 83.08A17.11 17.11 0 0 0 52 81a25 25 0 0 0 2.69-3 11.6 11.6 0 0 1 3.05-2.73 12.24 12.24 0 0 1 4-1.2 35.83 35.83 0 0 0 4.26-.7 28.46 28.46 0 0 0 3.76-1.27c.12-.1.24-.1.45-.17a9.45 9.45 0 0 1 1-.29c-.39-.58-.71-1.1-.9-1.43a17.3 17.3 0 0 0-1.79-2.51 18.87 18.87 0 0 0-2.35-2.13 6.37 6.37 0 0 0-2.85-1.08 8.55 8.55 0 0 0-3.3.67 28.46 28.46 0 0 1-3.76 1.27 35.83 35.83 0 0 1-4.23.71 12.24 12.24 0 0 0-4 1.2A11.6 11.6 0 0 0 45 71.06a25 25 0 0 1-2.69 3 17.11 17.11 0 0 1-2.9 2.06 6.49 6.49 0 0 0-2.19 1.94 5.19 5.19 0 0 0-.56 2.65 16.42 16.42 0 0 1-.09 3.06 20.06 20.06 0 0 1-.78 3.23 12.62 12.62 0 0 0-.6 3.28 13.29 13.29 0 0 0 .47 3.36 21.22 21.22 0 0 1 .66 3.26 15.2 15.2 0 0 1 0 3c-.11.78-.22 2.06-.24 2.84a75.83 75.83 0 0 0 .91 7.54c.53 3.37 1.56 7.06 2.3 8.2a15.42 15.42 0 0 0 3.5 3.57 36.19 36.19 0 0 0 4 2.36 16.26 16.26 0 0 0 2.09.74 10.24 10.24 0 0 1-.51-1.21 39.74 39.74 0 0 1-1.64-6.72 75.83 75.83 0 0 1-.91-7.54c0-.78.13-2.06.24-2.84a15.2 15.2 0 0 0 0-3 21.22 21.22 0 0 0-.66-3.26 13.29 13.29 0 0 1-.47-3.36 12.62 12.62 0 0 1 .6-3.28 20.06 20.06 0 0 0 .79-3.18 16.42 16.42 0 0 0 .09-3.06 5.19 5.19 0 0 1 .53-2.7 6.49 6.49 0 0 1 2.19-1.92zM72.87 119.86a6.21 6.21 0 0 0 .26.6c.38-.54.76-1.1 1.13-1.67a22.67 22.67 0 0 0 2.66-4.89c-.06-.32-1.57-.11-3.37.46l-1.17.36v2.88a11.71 11.71 0 0 0 .3 1.66c.08.25.14.45.19.6zM111.14 63.66a33 33 0 0 1-3.33-3.09A32.77 32.77 0 0 1 105 57a18.25 18.25 0 0 0-2.91-3.35 35.79 35.79 0 0 0-5-2.79l-1.85-.89.09.03a32.77 32.77 0 0 0 2.76 3.6 33 33 0 0 0 3.33 3.09 13.75 13.75 0 0 1 2.77 3 8.75 8.75 0 0 1 1.07 3.34 14.3 14.3 0 0 0 .67 3.3 13.35 13.35 0 0 0 1.57 2.89A12.26 12.26 0 0 1 109 72a8.89 8.89 0 0 1 .43 2.74 3.65 3.65 0 0 1-1.1 2.26c-.59.5-3.93 1.43-7.43 2.05a44.32 44.32 0 0 1-8.52.87 22 22 0 0 1-4.31-1.09 29 29 0 0 0-4.28-1.21 25.57 25.57 0 0 0-3.69-.33c.16.27.38.62.64 1 .51.78 1.17 1.73 1.76 2.55a9.39 9.39 0 0 0 3.21 2.89 12 12 0 0 0 3.58.48 24.84 24.84 0 0 1 4.21.33 29 29 0 0 1 4.28 1.21 22 22 0 0 0 4.31 1.09 44.32 44.32 0 0 0 8.52-.87c3.5-.62 6.84-1.55 7.43-2.05a3.65 3.65 0 0 0 1.12-2.29 8.89 8.89 0 0 0-.43-2.74 12.26 12.26 0 0 0-1.49-2.7 13.35 13.35 0 0 1-1.57-2.89A14.3 14.3 0 0 1 115 70a8.75 8.75 0 0 0-1.07-3.34 13.75 13.75 0 0 0-2.79-3zM117 96.65a5.08 5.08 0 0 0-2.66-.6 6.08 6.08 0 0 0-1.56.47 9.59 9.59 0 0 0-.93.44 9.09 9.09 0 0 1 .13 1 27.66 27.66 0 0 1-.8 5.62c-.49 2.11-1 4.69-1.16 5.75a27.34 27.34 0 0 0 0 7.66 33.67 33.67 0 0 1 .3 3.83c0 1.05-.15 3.64-.35 5.75s-.32 8-.26 13.08-.15 9.59-.47 10a2 2 0 0 1-1.76.56 12 12 0 0 0-2.51-.09 17.28 17.28 0 0 0-2.79.55 9.84 9.84 0 0 1-5.69 0c.1.32.24.71.4 1.12s.27.7.42 1a16 16 0 0 1 .91 2.5 2.51 2.51 0 0 1-.07.9.49.49 0 0 0 .46.53 8.36 8.36 0 0 0 1.9.07 16.84 16.84 0 0 1 2.69.11 21.35 21.35 0 0 1 2.85.64 9.94 9.94 0 0 0 5.85 0 17.28 17.28 0 0 1 2.79-.55 12 12 0 0 1 2.51.09 2 2 0 0 0 1.76-.56c.32-.42.53-4.93.47-10s.06-11 .26-13.08.36-4.69.35-5.75a33.67 33.67 0 0 0-.3-3.83 27.34 27.34 0 0 1 0-7.66c.14-1.05.66-3.64 1.16-5.75a27.66 27.66 0 0 0 .8-5.62 12.48 12.48 0 0 0-.79-3.47 14.25 14.25 0 0 0-1.67-2.88 10.08 10.08 0 0 0-2.24-1.83zM86 140.77a10 10 0 0 0-2.22 1.75 34.3 34.3 0 0 1-3.17 2.7c-.92.67-5.2 2.94-9.52 5.05s-8.51 4-9.31 4.27-2.12.56-2.94.7-2.16.31-3 .36a47.2 47.2 0 0 1-4.9-.17 45.43 45.43 0 0 1-5.11-.67c-.94-.22-2.47-.67-3.38-1S40 153 39 152.78s-2.5-.5-3.47-.62a21.67 21.67 0 0 1-3.38-.75c-.89-.29-5-2.43-9.18-4.74l-1.63-.92a26.88 26.88 0 0 0 2.34 2.45l.07.06c.76.62 4.78 3 8.93 5.34s8.28 4.45 9.18 4.74a21.67 21.67 0 0 0 3.38.75c1 .12 2.53.4 3.47.62s2.46.67 3.38 1 2.44.77 3.38 1a45.43 45.43 0 0 0 5.11.67 47.2 47.2 0 0 0 4.9.17c.83-.05 2.18-.22 3-.36s2.14-.46 2.94-.7 5-2.16 9.31-4.27 8.61-4.39 9.52-5.05c.43-.32 1-.75 1.51-1.21.37-.32.75-.64 1.08-.95a16.62 16.62 0 0 0-2 0 8.36 8.36 0 0 1-1.9-.07.49.49 0 0 1-.46-.53 2.51 2.51 0 0 0 .07-.9 16 16 0 0 0-.91-2.5 17.4 17.4 0 0 1-1-2.77 9.13 9.13 0 0 1-.06-1.74c.08-.57-.21-.88-.58-.73z"/></svg>