<svg xmlns="http://www.w3.org/2000/svg" width="117.43" height="200" viewBox="0 0 117.43 200"><title>_</title><path d="M.6 113.78a7.14 7.14 0 0 0-.6 2.74 7.63 7.63 0 0 0 .85 2.77 11 11 0 0 1 1.25 4.11 10.22 10.22 0 0 1-.78 4.17 10.45 10.45 0 0 0-.72 2.93 9.79 9.79 0 0 0 .44 2.9 14 14 0 0 1 .67 4 14.12 14.12 0 0 1-.72 4 13.71 13.71 0 0 0-.65 3 11.19 11.19 0 0 0 .25 2.79 2.35 2.35 0 0 0 .88 1.22 5.9 5.9 0 0 0 2.58.14 24.34 24.34 0 0 1 4.75-.2 26.51 26.51 0 0 1 4.8.93 19.31 19.31 0 0 0 4.13.7 19.26 19.26 0 0 0 4.14-.43c1.29-.31 3.32-.69 4.51-.84a39.88 39.88 0 0 1 4.15-.27 4.44 4.44 0 0 0 2.24-.79 8.32 8.32 0 0 0 1.73-2.88 22 22 0 0 0 .93-4.5 25.45 25.45 0 0 0-.23-4.85c-.25-1.54-.5-4-.56-5.55a55.42 55.42 0 0 1 .12-5.55 48.79 48.79 0 0 0 .08-5.29c-.07-1.49-.35-4-.62-5.54-.3-1.76-.14-4.17.75-5.35 1.43-1.91 6.46-1.48 7-1.42 2.5.24 5.55.4 6.66.36s4-.39 6.27-.75 5.43-.75 6.75-.84c.75 0 1.81-.08 2.9-.08h2.1a6.22 6.22 0 0 1 4.69 2.35c.86 1.34 1 3.82.69 5.58 0 .23-.08.52-.12.84-.26 1.93-.55 5-.7 7.48a84.88 84.88 0 0 0 .17 10.66c.28 3 .5 6.71.5 8.28s-.16 4.18-.35 5.81a6.52 6.52 0 0 0 .47 3.4 4.15 4.15 0 0 0 2.46 1.18 39.7 39.7 0 0 0 4.63.17h.57c1.72-.18 5.24-.77 8.38-1.41a59.63 59.63 0 0 1 9.48-1.36 27.13 27.13 0 0 1 5 .73 5.91 5.91 0 0 0 2.08.17 2.41 2.41 0 0 0 0-.88 33.07 33.07 0 0 1-.58-3.87c-.09-1.18.05-6.34.24-10.64a105.32 105.32 0 0 1 1.15-12.37 26.31 26.31 0 0 0 .63-4.81 13.77 13.77 0 0 0-.6-3.05 15.1 15.1 0 0 1-.7-3.93 14.84 14.84 0 0 1 .58-3.93 14.8 14.8 0 0 0 .54-3.08 14.27 14.27 0 0 0-.31-3.06c-.24-1-.53-2.63-.66-3.61s-.26-2.62-.29-3.62a29.5 29.5 0 0 1 .18-3.69 30.82 30.82 0 0 1 .74-3.68c.25-.89.57-2.4.71-3.3s.28-2.4.31-3.29a24.19 24.19 0 0 0-.16-3.22 25.6 25.6 0 0 0-.69-3.23 28.44 28.44 0 0 1-.78-3.7 27.21 27.21 0 0 1-.16-3.72c0-.79-.16-4.38-.51-8.48-.22-2.64-.36-5.45-.37-7.33a14.43 14.43 0 0 1 .08-1.89 32 32 0 0 1 1-4.35 3 3 0 0 0 .15-1 7.39 7.39 0 0 0-2 .45 24.83 24.83 0 0 1-5.42 1.27 19.1 19.1 0 0 1-5.19-.37c-1.21-.29-4.19-.78-6.65-1.09s-5.41-.53-6.56-.52-3.09.16-4.25.31a3.8 3.8 0 0 0-2 .93 4.36 4.36 0 0 0-.24 2.4 27.09 27.09 0 0 1 .34 4.88 29.23 29.23 0 0 1-.72 4.94 25.69 25.69 0 0 0-.63 4.37 25.15 25.15 0 0 0 .32 4.36 31.76 31.76 0 0 1 .42 4.89 29.41 29.41 0 0 1-.52 4.75 10.28 10.28 0 0 1-2 4.27 9 9 0 0 1-4 2.28 31 31 0 0 1-4.34.66 32.84 32.84 0 0 1-4.47-.08C56 80.14 54.16 80 53 80s-3 .06-4.15.17a29.7 29.7 0 0 1-3 .07c-.51 0-1 0-1.39-.07a26.87 26.87 0 0 1-4.21-.79 8.79 8.79 0 0 1-3.76-2.36c-1.11-1.31-2.14-6.3-2.53-8.76A63.88 63.88 0 0 1 33 59a30.71 30.71 0 0 1 .8-5 27.83 27.83 0 0 0 .72-4.31 20.81 20.81 0 0 0 0-2.1c0-.77-.09-1.51-.17-2a5.55 5.55 0 0 0-1.1-2.5 5 5 0 0 0-2.4-1 34.28 34.28 0 0 0-4.08-.09 39.2 39.2 0 0 0-4.26.55 23 23 0 0 1-4.93.33 24.11 24.11 0 0 1-4.91-1 39.91 39.91 0 0 0-4.5-1.11 45 45 0 0 0-4.84-.51 4.82 4.82 0 0 0-2.33.52 3.59 3.59 0 0 0 .14 1.67 16.35 16.35 0 0 1 .81 4.61A12.54 12.54 0 0 1 1 51.35a10.54 10.54 0 0 0-.76 2.94 9.79 9.79 0 0 0 .37 2.91 27.08 27.08 0 0 1 .87 3.72 25 25 0 0 1 .2 3.73c0 1-.3 3.4-.59 5.36a25.18 25.18 0 0 0-.29 4.8 14.11 14.11 0 0 0 .83 3.06A11 11 0 0 1 2.41 82a11.53 11.53 0 0 1-1.11 4.06 11.7 11.7 0 0 0-1 3A10.15 10.15 0 0 0 .49 92c.28 1.17.8 5.44 1.15 8.86.29 2.88.62 7.69.32 9.13a19 19 0 0 1-1.36 3.79z"/><path d="M35.92 145.18a9.73 9.73 0 0 1-2.17 3.52 5.65 5.65 0 0 1-3.23 1.16 35.67 35.67 0 0 0-4 .25c-1.14.15-3.1.51-4.35.81a20.52 20.52 0 0 1-4.54.47 20.85 20.85 0 0 1-4.52-.77 25 25 0 0 0-4.41-.86c-.07.36-.12.69-.16 1v.39a12.63 12.63 0 0 0 .29 3.25 3.75 3.75 0 0 0 1.69 2.21 7.12 7.12 0 0 0 3.47.27 22.5 22.5 0 0 1 4.4-.18 24.92 24.92 0 0 1 4.47.86 20.85 20.85 0 0 0 4.52.77 20.52 20.52 0 0 0 4.54-.47c1.25-.3 3.21-.67 4.35-.81a35.67 35.67 0 0 1 4-.25 5.65 5.65 0 0 0 3.23-1.16 9.73 9.73 0 0 0 2.17-3.52 23.33 23.33 0 0 0 1-4.87 26.74 26.74 0 0 0-.27-5.25c-.24-1.48-.48-3.89-.54-5.37s0-3.89.11-5.37a50.78 50.78 0 0 0 .08-5.48c-.08-1.54-.36-4.11-.64-5.71a6.67 6.67 0 0 1 .47-4.2c.53-.71 3.09-1.08 5.69-.83a67.81 67.81 0 0 0 6.87.36c1.18-.05 4.08-.39 6.44-.76 1.47-.23 3.16-.46 4.55-.62l1-.11c0-.34.09-.65.13-.89a7.64 7.64 0 0 0-.48-4.51 4.86 4.86 0 0 0-3.5-1.66c-1.38-.06-3.55 0-4.83 0s-4.26.45-6.62.82-5.26.71-6.44.76a67.81 67.81 0 0 1-6.87-.36c-2.6-.25-5.16.12-5.69.83a6.67 6.67 0 0 0-.47 4.2c.27 1.6.56 4.17.64 5.71a50.78 50.78 0 0 1-.08 5.48c-.12 1.48-.17 3.89-.11 5.37s.3 3.89.54 5.37a26.74 26.74 0 0 1 .24 5.21 23.33 23.33 0 0 1-.97 4.94zM35.23 54.36a28.87 28.87 0 0 0-.75 4.64 64.23 64.23 0 0 0 .92 9c.58 3.68 1.56 7.29 2.19 8a7.35 7.35 0 0 0 3 1.89 25.11 25.11 0 0 0 3.93.74c.36 0 .82.05 1.29.07-.08-.32-.15-.67-.22-1-.15-.82-.33-1.7-.48-2.7a64.23 64.23 0 0 1-.92-9 28.87 28.87 0 0 1 .75-4.68 29.43 29.43 0 0 0 .76-4.6 25.46 25.46 0 0 0-.17-4.44A6.85 6.85 0 0 0 44 48.91a6.31 6.31 0 0 0-3.32-1.37 35.53 35.53 0 0 0-3.68-.09h-1v2.26a29.43 29.43 0 0 1-.77 4.65zM106.39 48.73h-1c0 1.78.14 4.54.36 7.21.32 3.81.55 7.71.51 8.67a25.13 25.13 0 0 0 .15 3.47 26.68 26.68 0 0 0 .73 3.46 27.3 27.3 0 0 1 .74 3.46 25.67 25.67 0 0 1 .17 3.46c0 1-.18 2.51-.33 3.47s-.48 2.51-.75 3.47a29.33 29.33 0 0 0-.69 3.47 27.71 27.71 0 0 0-.17 3.47c0 1 .15 2.51.28 3.47s.41 2.51.64 3.46a15.61 15.61 0 0 1 .34 3.46 16.11 16.11 0 0 1-.6 3.46 13.36 13.36 0 0 0-.51 3.47 13.57 13.57 0 0 0 .62 3.47 15.18 15.18 0 0 1 .68 3.47 27.29 27.29 0 0 1-.66 5.2 104.38 104.38 0 0 0-1.12 12.13c-.21 4.76-.32 9.47-.24 10.46a31.14 31.14 0 0 0 .55 3.65 2.53 2.53 0 0 1-.56 2.48 5.44 5.44 0 0 1-3.34 0 25.45 25.45 0 0 0-4.69-.68 61.87 61.87 0 0 0-9.13 1.33c-3.25.66-6.79 1.25-8.53 1.43 0 .2 0 .4-.06.57s0 .29 0 .44a7.42 7.42 0 0 0 .76 4 5.51 5.51 0 0 0 3.46 1.77 40.43 40.43 0 0 0 4.85.17 87.39 87.39 0 0 0 9.19-1.48 61.87 61.87 0 0 1 9.13-1.33 25.45 25.45 0 0 1 4.69.68 5.44 5.44 0 0 0 3.34 0 2.53 2.53 0 0 0 .56-2.48 31.14 31.14 0 0 1-.55-3.65c-.08-1 0-5.69.24-10.46a104.38 104.38 0 0 1 1.12-12.13 27.29 27.29 0 0 0 .66-5.2 15.18 15.18 0 0 0-.68-3.47 13.57 13.57 0 0 1-.62-3.47 13.36 13.36 0 0 1 .51-3.47 16.11 16.11 0 0 0 .6-3.46 15.61 15.61 0 0 0-.34-3.46c-.22-1-.51-2.51-.64-3.46s-.25-2.51-.28-3.47a27.71 27.71 0 0 1 .17-3.47 29.33 29.33 0 0 1 .69-3.47c.26-1 .6-2.51.75-3.47s.29-2.51.33-3.47a25.67 25.67 0 0 0-.17-3.46 27.3 27.3 0 0 0-.74-3.46 26.68 26.68 0 0 1-.73-3.46 25.13 25.13 0 0 1-.15-3.47c0-1-.19-4.85-.51-8.67a65.39 65.39 0 0 1-.3-8.88 30 30 0 0 1 1-4.1c.39-1.19.27-2.42-.25-2.75s-2.12-.16-3.54.38a23.11 23.11 0 0 1-5 1.18c-.33.05-.6.06-.94.06z"/></svg>