<svg xmlns="http://www.w3.org/2000/svg" width="78.35" height="200" viewBox="0 0 78.35 200"><title>_</title><path d="M23 149.41a6.56 6.56 0 0 0 2.52 1.1 25.89 25.89 0 0 0 4.2.42h.88a26.87 26.87 0 0 0 3.36-.4 32.14 32.14 0 0 1 4.82-.52 31.48 31.48 0 0 1 4.82.37 36.07 36.07 0 0 0 4.34.41 36.65 36.65 0 0 0 4.39-.23 5.19 5.19 0 0 0 2.33-.85 2.26 2.26 0 0 0 .16-1.47 13.51 13.51 0 0 1-.25-4.08 14.53 14.53 0 0 1 1.21-4 15.89 15.89 0 0 0 1.09-3.1 13.24 13.24 0 0 0 .18-3 23.06 23.06 0 0 0-.57-3.21 26.48 26.48 0 0 0-1.15-3.24 12.65 12.65 0 0 1-1-4 12.18 12.18 0 0 1 .66-4 17.34 17.34 0 0 0 .77-3.13 15.92 15.92 0 0 0 0-3.1 25.91 25.91 0 0 1 .15-7.36 21.09 21.09 0 0 0 .22-3.19c0-.78-.56-5.16-1.3-10.21-.53-3.59-1.2-9.46-.88-10.93a15.28 15.28 0 0 1 1.59-3.92 6.88 6.88 0 0 0 .89-2.77 6.66 6.66 0 0 0-.76-2.7 9.57 9.57 0 0 1-1.15-4.3 9.77 9.77 0 0 1 1.27-4.21 8.09 8.09 0 0 0 1-2.81 7.11 7.11 0 0 0-.53-2.74 38.49 38.49 0 0 1-1.39-3.64 34.44 34.44 0 0 1-.93-3.6 28.41 28.41 0 0 1-.34-3.21v-.3a19.21 19.21 0 0 1 .23-3.17 1.37 1.37 0 0 0-.2-.86 5.57 5.57 0 0 0-2.06-.82 30.75 30.75 0 0 0-3.86-.41 37.86 37.86 0 0 0-4.19.17 27.82 27.82 0 0 1-4.86 0 29.75 29.75 0 0 1-4.84-1 17.05 17.05 0 0 0-4-.68 15.35 15.35 0 0 0-3.83.57A10.75 10.75 0 0 0 23 42.74a5.38 5.38 0 0 0-1.35 1.94c-.26.78-.62 2.15-.79 3s-.39 2.31-.47 3.2a30.08 30.08 0 0 0-.09 3.27c0 .78.65 5.17 1.49 10.21.72 4.31 1.47 9.46 1.49 10.61a62.15 62.15 0 0 1-.83 7.2c-.45 2.76-.83 5.83-.88 6.76a31.06 31.06 0 0 0 0 3.27c.07 1 .1 2.64 0 3.64s-.22 2.64-.38 3.64-.32 2.42-.38 3.32 0 4 0 6.79 0 8.41-.27 12.26a83.27 83.27 0 0 0-.21 8.38 24.58 24.58 0 0 0 .69 3.23c.3 1 .69 2.62.87 3.63s.38 2.64.45 3.64.07 3.36 0 5.28a7.61 7.61 0 0 0 .66 3.4z"/><path d="M66.85 147.76a17.23 17.23 0 0 0 1.21-3.47 14.57 14.57 0 0 0 .2-3.47 24.47 24.47 0 0 0-.61-3.46 27.93 27.93 0 0 0-1.23-3.46 11.31 11.31 0 0 1-.84-3.46 10.83 10.83 0 0 1 .57-3.47 18.83 18.83 0 0 0 .85-3.47 17.27 17.27 0 0 0 0-3.5 24.44 24.44 0 0 1 .14-6.93 22.54 22.54 0 0 0 .24-3.46c0-1-.61-5.63-1.31-10.4s-1.1-9.44-.9-10.4a13.79 13.79 0 0 1 1.41-3.47 8.33 8.33 0 0 0 1.07-3.46 8.11 8.11 0 0 0-1-3.46 8.14 8.14 0 0 1-1-3.46 8.35 8.35 0 0 1 1.06-3.47 9.48 9.48 0 0 0 1.16-3.47 8.55 8.55 0 0 0-.66-3.47A36.92 36.92 0 0 1 66 61.13a32.76 32.76 0 0 1-.84-3.47 26.3 26.3 0 0 1-.33-3.27 17.74 17.74 0 0 1 .17-2.87 2.75 2.75 0 0 0-.62-2.19 6.58 6.58 0 0 0-2.84-1.23 32 32 0 0 0-4.09-.44H55.09a27.2 27.2 0 0 0 .32 3 32.76 32.76 0 0 0 .84 3.47 36.92 36.92 0 0 0 1.32 3.47 8.55 8.55 0 0 1 .66 3.47 9.48 9.48 0 0 1-1.16 3.47A8.35 8.35 0 0 0 56 68.05a8.14 8.14 0 0 0 1 3.46 8.11 8.11 0 0 1 1 3.46 8.33 8.33 0 0 1-1.07 3.46 13.79 13.79 0 0 0-1.41 3.47c-.21 1 .2 5.63.9 10.4s1.29 9.44 1.31 10.4a22.54 22.54 0 0 1-.24 3.46 24.44 24.44 0 0 0-.14 6.93 17.27 17.27 0 0 1 0 3.47 18.83 18.83 0 0 1-.85 3.47 10.83 10.83 0 0 0-.57 3.47 11.31 11.31 0 0 0 .84 3.46 27.93 27.93 0 0 1 1.23 3.46 24.47 24.47 0 0 1 .61 3.46 14.57 14.57 0 0 1-.2 3.47 17.23 17.23 0 0 1-1.21 3.47 13 13 0 0 0-1.07 3.49 12 12 0 0 0 .22 3.55 3.51 3.51 0 0 1-.51 2.83 6.22 6.22 0 0 1-3.31 1.31 38.17 38.17 0 0 1-4.61.25 37.46 37.46 0 0 1-4.56-.43 30 30 0 0 0-4.54-.35 30.3 30.3 0 0 0-4.55.49 28.44 28.44 0 0 1-3.57.43v1.01c0 1.72.42 3.45 1 4a7.67 7.67 0 0 0 3.31 1.53 27.23 27.23 0 0 0 4.5.45 27.86 27.86 0 0 0 4.53-.46 30.3 30.3 0 0 1 4.55-.49 30 30 0 0 1 4.54.35 37.46 37.46 0 0 0 4.56.43 38.17 38.17 0 0 0 4.61-.25 6.22 6.22 0 0 0 3.25-1.33 3.51 3.51 0 0 0 .45-2.83 12 12 0 0 1-.22-3.55 13 13 0 0 1 1.07-3.49z"/></svg>