<svg xmlns="http://www.w3.org/2000/svg" width="200" height="200" viewBox="0 0 200 200"><title>_</title><path d="M145.83,54.08a5.58,5.58,0,0,0-1.33-2.62,6.45,6.45,0,0,0-2.92-1.14c-1.18-.13-3.11-0.23-4.31-0.22s-5.26.45-8.92,1-7.86,1-9.08,1.07a42.33,42.33,0,0,1-4.36-.07,7.81,7.81,0,0,0-2.83.28,2.41,2.41,0,0,0-1.1,1.14c-0.21.63-.67,2.46-1,4a31,31,0,0,0-.62,4.23,22.83,22.83,0,0,0,.16,2.89,24.16,24.16,0,0,1,.17,3.21,24.38,24.38,0,0,1-.35,3.21,10.34,10.34,0,0,0-.06,2.72,11.74,11.74,0,0,0,.85,2.76,12.81,12.81,0,0,1,1,3.36,11.5,11.5,0,0,1-.2,3.39,10.29,10.29,0,0,0-.19,2.72,11.29,11.29,0,0,0,.73,2.75,12.76,12.76,0,0,1,.87,3.36,33.89,33.89,0,0,1-.81,6.38,36.15,36.15,0,0,0-.81,5.83,17.42,17.42,0,0,0,.48,2.85,27.14,27.14,0,0,1,.64,3.19,21.09,21.09,0,0,1-.18,6.4h0a27.43,27.43,0,0,1-.83,3.19c-0.27.8-.63,2.12-0.79,2.88a26.2,26.2,0,0,0-.41,2.75,15.57,15.57,0,0,1-.5,2.76A16.88,16.88,0,0,1,107,132a17.55,17.55,0,0,1-2.56,2.92,6.59,6.59,0,0,1-.6.35,8.2,8.2,0,0,1-1.11.48,10.09,10.09,0,0,1-2.25.37,23.51,23.51,0,0,1-2.87-.09,5.32,5.32,0,0,1-3-1.36,6,6,0,0,1-1.26-3.15c-0.07-.78-0.73-4.57-1.61-9-0.27-1.38-.6-2.79-0.94-4.08a17.06,17.06,0,0,0-1.39-4,22.57,22.57,0,0,0-6.5-2,51.81,51.81,0,0,0-7.75-1,20.7,20.7,0,0,0-3.82.66,25.88,25.88,0,0,1-4.28.79,25.86,25.86,0,0,1-4.35-.1,4.72,4.72,0,0,0-2.68.47,4.84,4.84,0,0,0-1.37,2.39,14,14,0,0,0-.27,3.7,12.62,12.62,0,0,0,1,3.43,35,35,0,0,1,1.47,3.74c0.33,1,1,4.52,1.6,7.92a45.74,45.74,0,0,0,1.84,7.71,46.64,46.64,0,0,0,5.12,6.68,46.3,46.3,0,0,0,5.94,5.87A19.54,19.54,0,0,0,79,156.31l0.66,0.22c1.16,0.39,2.5.91,3.34,1.29a32,32,0,0,1,3.47,1.88,10.24,10.24,0,0,0,2.86,1.19,10.48,10.48,0,0,0,3.12,0,15.69,15.69,0,0,1,2.51-.19,12.24,12.24,0,0,1,1.36.07,16.3,16.3,0,0,1,3.77,1,21.57,21.57,0,0,0,3.23,1,17.74,17.74,0,0,0,3.12.31c0.86,0,2.31-.11,3.16-0.22s3.75-.73,6.33-1.35,5.53-1.43,6.45-1.76,2.54-1,3.55-1.47a22.39,22.39,0,0,0,6.44-4.49c0.79-.79,2-2.13,2.7-3s1.77-2.32,2.38-3.25a20.75,20.75,0,0,0,3-7.17,25.53,25.53,0,0,1,1.21-3.93,20,20,0,0,1,1.89-3.35,15,15,0,0,0,1.52-2.75,13.56,13.56,0,0,0,.7-2.94,22,22,0,0,0,0-3.15,22.88,22.88,0,0,0-.52-3.15,13.73,13.73,0,0,1-.28-3.89,20.58,20.58,0,0,1,1-4.27,17.79,17.79,0,0,0,.83-4,16.82,16.82,0,0,0-.34-4,29.64,29.64,0,0,1-.62-4.44c-0.06-1.23.17-5,.53-8.65a101.49,101.49,0,0,0,.48-10.51,48.7,48.7,0,0,0-.56-6.21,38.73,38.73,0,0,0-1.17-4.12,16,16,0,0,1-.81-4.59,16.06,16.06,0,0,1,.83-4.59,20,20,0,0,0,.91-4,15,15,0,0,0,0-1.87A15.48,15.48,0,0,0,145.83,54.08Z" fill="#231f20"/><path d="M147,58a21,21,0,0,1-1,4.21,15.17,15.17,0,0,0-.77,4.25,15.14,15.14,0,0,0,.76,4.25A39.28,39.28,0,0,1,147.2,75a49,49,0,0,1,.58,6.38A102.89,102.89,0,0,1,147.3,92c-0.34,3.51-.58,7.34-0.52,8.51a28.46,28.46,0,0,0,.6,4.25,17.76,17.76,0,0,1,.37,4.25,18.71,18.71,0,0,1-.89,4.25,19.79,19.79,0,0,0-.92,4,12.79,12.79,0,0,0,.25,3.56,23.89,23.89,0,0,1,.55,3.32,23,23,0,0,1,0,3.32,14.55,14.55,0,0,1-.76,3.21,15.92,15.92,0,0,1-1.64,3,19.21,19.21,0,0,0-1.77,3.15,24.39,24.39,0,0,0-1.16,3.74,21.76,21.76,0,0,1-3.12,7.51c-0.62,1-1.72,2.45-2.44,3.34s-2,2.26-2.77,3.07a23.37,23.37,0,0,1-6.72,4.69c-1,.48-2.67,1.16-3.63,1.51s-3.91,1.15-6.56,1.79-5.54,1.26-6.44,1.37-2.37.22-3.28,0.23a18.5,18.5,0,0,1-3.34-.33,22.48,22.48,0,0,1-3.41-1.08,15.41,15.41,0,0,0-3.5-.93,15.07,15.07,0,0,0-3.59.11,11.34,11.34,0,0,1-3.49,0,11.13,11.13,0,0,1-3.21-1.33,30.88,30.88,0,0,0-3.34-1.81c-0.82-.37-2.16-0.89-3.25-1.26,0.51,0.56,1,1.11,1.53,1.63a28.13,28.13,0,0,0,3.66,3.36,20.48,20.48,0,0,0,3.87,1.75,40.42,40.42,0,0,1,3.89,1.46,30.88,30.88,0,0,1,3.34,1.81,11.13,11.13,0,0,0,3.21,1.33,11.34,11.34,0,0,0,3.49,0,15.07,15.07,0,0,1,3.59-.11,15.41,15.41,0,0,1,3.5.93,22.48,22.48,0,0,0,3.41,1.08,18.5,18.5,0,0,0,3.34.33c0.91,0,2.38-.12,3.28-0.23s3.79-.73,6.44-1.37,5.6-1.45,6.56-1.79,2.6-1,3.63-1.51a23.37,23.37,0,0,0,6.72-4.69c0.81-.81,2.06-2.19,2.77-3.07s1.81-2.38,2.44-3.34a21.76,21.76,0,0,0,3.12-7.51,24.39,24.39,0,0,1,1.16-3.74,19.21,19.21,0,0,1,1.77-3.15,15.92,15.92,0,0,0,1.64-3,14.55,14.55,0,0,0,.76-3.21,23,23,0,0,0,0-3.32,23.89,23.89,0,0,0-.55-3.32,12.79,12.79,0,0,1-.25-3.56,19.79,19.79,0,0,1,.92-4,18.71,18.71,0,0,0,.89-4.25,17.76,17.76,0,0,0-.37-4.25,28.46,28.46,0,0,1-.6-4.25c-0.05-1.17.18-5,.52-8.51a102.89,102.89,0,0,0,.48-10.64,49,49,0,0,0-.58-6.38,39.28,39.28,0,0,0-1.2-4.25,15.14,15.14,0,0,1-.76-4.25,15.17,15.17,0,0,1,.77-4.25,21,21,0,0,0,1-4.21,18.4,18.4,0,0,0-.16-4.14,6.48,6.48,0,0,0-1.64-3.19,7.32,7.32,0,0,0-3.48-1.39c-0.91-.1-2.25-0.18-3.39-0.22h-1A16.15,16.15,0,0,1,147,58Z" fill="#231f20"/><path d="M91.74,118.18c0.34,1.26.67,2.69,1,4.14,0.81,4.09,1.54,8.18,1.62,9.09a5,5,0,0,0,1,2.56,4.35,4.35,0,0,0,2.39,1,23.05,23.05,0,0,0,2.72.09,9.3,9.3,0,0,0,2-.32,7.2,7.2,0,0,0,1-.42l-0.19-1c-0.24-1.27-.5-2.66-0.78-4.06-0.81-4.09-2-8-2.57-8.6s-3.75-1.67-7-2.29h0Z" fill="#231f20"/></svg>