<svg xmlns="http://www.w3.org/2000/svg" width="122.85" height="200" viewBox="0 0 122.85 200"><title>_</title><path d="M30.53 102.74a20.07 20.07 0 0 0-3.71.64 26.51 26.51 0 0 1-4.38.81 26.53 26.53 0 0 1-4.45-.1 4.27 4.27 0 0 0-2.33.39 4.39 4.39 0 0 0-1.17 2.09 13.66 13.66 0 0 0-.26 3.53 12.23 12.23 0 0 0 .91 3.26 35.56 35.56 0 0 1 1.5 3.81c.33 1.07 1 4.58 1.62 8a46.29 46.29 0 0 0 1.8 7.59 46.75 46.75 0 0 0 5 6.56 46.42 46.42 0 0 0 5.83 5.77 18.93 18.93 0 0 0 3.53 1.59l.68.22c1.18.4 2.54.92 3.39 1.31a32.64 32.64 0 0 1 3.53 1.92 9.78 9.78 0 0 0 2.69 1.12 10 10 0 0 0 2.94 0 16.24 16.24 0 0 1 2.6-.2 12.75 12.75 0 0 1 1.42.07 16.9 16.9 0 0 1 3.91 1 21 21 0 0 0 3.14 1 16.08 16.08 0 0 0 3 .3c.85 0 2.27-.11 3.11-.22s3.71-.72 6.28-1.34 5.5-1.42 6.4-1.75 2.5-1 3.51-1.46a26.91 26.91 0 0 0 3.34-1.92 27 27 0 0 0 3-2.47c.78-.78 2-2.11 2.67-3s1.74-2.29 2.35-3.21a20.26 20.26 0 0 0 2.91-7 26.14 26.14 0 0 1 1.24-4 20.62 20.62 0 0 1 1.94-3.45 14.59 14.59 0 0 0 1.44-2.6 13.17 13.17 0 0 0 .67-2.81 21.42 21.42 0 0 0 0-3.06 22.28 22.28 0 0 0-.51-3.07 14.29 14.29 0 0 1-.29-4.06 21.2 21.2 0 0 1 1-4.39 17.16 17.16 0 0 0 .8-3.84 16.2 16.2 0 0 0-.33-3.82 30.22 30.22 0 0 1-.63-4.53c-.06-1.25.17-5.09.53-8.72a101.11 101.11 0 0 0 .48-10.44 48.25 48.25 0 0 0-.55-6.12 38.17 38.17 0 0 0-1.08-4.03 16.63 16.63 0 0 1-.84-4.76 16.64 16.64 0 0 1 .86-4.76 19.44 19.44 0 0 0 .89-3.85 14.58 14.58 0 0 0 0-1.81 15.08 15.08 0 0 0-.18-1.92 5.16 5.16 0 0 0-1.17-2.34 6.06 6.06 0 0 0-2.64-1 42.49 42.49 0 0 0-4.25-.22c-1.16 0-5.21.45-8.85 1-3.79.53-7.89 1-9.12 1.07a43.31 43.31 0 0 1-4.42-.07 7.44 7.44 0 0 0-2.6.25 2 2 0 0 0-.82.84c-.21.62-.66 2.42-1 3.94a31 31 0 0 0-.61 4.14 22.21 22.21 0 0 0 .16 2.81 24.83 24.83 0 0 1 .17 3.29 25 25 0 0 1-.36 3.29 9.89 9.89 0 0 0-.06 2.56 11.31 11.31 0 0 0 .84 2.55 13.39 13.39 0 0 1 1 3.51 11.9 11.9 0 0 1-.21 3.57 9.83 9.83 0 0 0-.18 2.56 10.87 10.87 0 0 0 .69 2.6 13.34 13.34 0 0 1 .91 3.52 34.67 34.67 0 0 1-.82 6.52 36.17 36.17 0 0 0-.8 5.7 16.78 16.78 0 0 0 .47 2.75 27.75 27.75 0 0 1 .65 3.26 21.58 21.58 0 0 1-.18 6.55 28.09 28.09 0 0 1-.84 3.26c-.26.78-.62 2.08-.78 2.82a25.5 25.5 0 0 0-.4 2.69 16.17 16.17 0 0 1-.52 2.87 17.09 17.09 0 0 1-2.22 3.83 18.62 18.62 0 0 1-2.68 3 7.06 7.06 0 0 1-.65.37 8.67 8.67 0 0 1-1.18.51 10.48 10.48 0 0 1-2.38.4 24 24 0 0 1-2.94-.09 5.78 5.78 0 0 1-3.34-1.52 6.4 6.4 0 0 1-1.4-3.45c-.07-.76-.73-4.53-1.6-8.93-.27-1.36-.59-2.77-.94-4.05a18.7 18.7 0 0 0-1.3-3.87 26.42 26.42 0 0 0-6.2-1.8 51.82 51.82 0 0 0-7.63-.96z"/><path d="M101.31 121.58a15.92 15.92 0 0 1-1.64 3 19.21 19.21 0 0 0-1.77 3.15 24.39 24.39 0 0 0-1.16 3.74 21.76 21.76 0 0 1-3.12 7.53c-.62 1-1.72 2.45-2.44 3.34s-2 2.26-2.77 3.07a23.37 23.37 0 0 1-6.72 4.69c-1 .48-2.67 1.16-3.63 1.51s-3.91 1.15-6.56 1.79-5.54 1.26-6.44 1.37-2.37.22-3.28.23a18.5 18.5 0 0 1-3.34-.33 22.48 22.48 0 0 1-3.44-1.13 15.41 15.41 0 0 0-3.5-.93 15.07 15.07 0 0 0-3.59.11 11.34 11.34 0 0 1-3.49 0 11.13 11.13 0 0 1-3.21-1.33 30.88 30.88 0 0 0-3.34-1.81c-.82-.37-2.16-.89-3.25-1.26.51.56 1 1.11 1.53 1.63a28.13 28.13 0 0 0 3.66 3.36 20.48 20.48 0 0 0 3.92 1.69 40.42 40.42 0 0 1 3.89 1.46 30.88 30.88 0 0 1 3.38 1.86 11.13 11.13 0 0 0 3.21 1.33 11.34 11.34 0 0 0 3.49 0 15.07 15.07 0 0 1 3.59-.11 15.41 15.41 0 0 1 3.5.93 22.48 22.48 0 0 0 3.41 1.08 18.5 18.5 0 0 0 3.34.33c.91 0 2.38-.12 3.28-.23s3.79-.73 6.44-1.37 5.6-1.45 6.56-1.79 2.6-1 3.63-1.51a23.37 23.37 0 0 0 6.72-4.69c.81-.81 2.06-2.19 2.77-3.07s1.81-2.38 2.44-3.34a21.76 21.76 0 0 0 3.12-7.51 24.39 24.39 0 0 1 1.16-3.74 19.21 19.21 0 0 1 1.77-3.15 15.92 15.92 0 0 0 1.64-3 14.55 14.55 0 0 0 .76-3.21 23 23 0 0 0 0-3.32 23.89 23.89 0 0 0-.55-3.32 12.79 12.79 0 0 1-.25-3.56 19.79 19.79 0 0 1 .92-4 18.71 18.71 0 0 0 .89-4.25 17.76 17.76 0 0 0-.37-4.25 28.46 28.46 0 0 1-.6-4.25c-.05-1.17.18-5 .52-8.51a102.89 102.89 0 0 0 .48-10.64 49 49 0 0 0-.58-6.38 39.28 39.28 0 0 0-1.2-4.25 15.14 15.14 0 0 1-.76-4.25 15.17 15.17 0 0 1 .77-4.25 21 21 0 0 0 1-4.21 18.4 18.4 0 0 0-.16-4.14 6.48 6.48 0 0 0-1.64-3.19 7.32 7.32 0 0 0-3.48-1.39c-.91-.1-2.25-.18-3.39-.22h-1a16.15 16.15 0 0 1 0 2 21 21 0 0 1-1 4.21 15.17 15.17 0 0 0-.77 4.25 15.14 15.14 0 0 0 .76 4.25 39.28 39.28 0 0 1 1.2 4.25 49 49 0 0 1 .58 6.38 102.89 102.89 0 0 1-.48 10.64c-.34 3.51-.58 7.34-.52 8.51a28.46 28.46 0 0 0 .6 4.25 17.76 17.76 0 0 1 .37 4.25 18.71 18.71 0 0 1-.89 4.25 19.79 19.79 0 0 0-.92 4 12.79 12.79 0 0 0 .25 3.56 23.89 23.89 0 0 1 .55 3.32 23 23 0 0 1 0 3.32 14.55 14.55 0 0 1-.85 3.25z"/><path d="M55.21 111.5c-.6-.64-3.75-1.67-7-2.29l-1-.19c.34 1.26.67 2.69 1 4.14.81 4.09 1.54 8.18 1.62 9.09a5 5 0 0 0 1 2.56 4.35 4.35 0 0 0 2.39 1 23.05 23.05 0 0 0 2.72.09 9.3 9.3 0 0 0 2-.32 7.2 7.2 0 0 0 1-.42l-.19-1c-.24-1.27-.5-2.66-.78-4.06-.97-4.1-2.16-7.95-2.76-8.6z"/></svg>