<svg xmlns="http://www.w3.org/2000/svg" width="200" height="200" viewBox="0 0 200 200"><title>_</title><path d="M106.62,125.43c0.12,0.37.24,0.72,0.32,1,0.27,0.91.62,2.44,0.8,3.41a7.68,7.68,0,0,0,3,4.9,22.78,22.78,0,0,1,2.59,2.42c0.76,0.86,3.51,6,5.71,10.38l1.31,2.62a75.54,75.54,0,0,0,5.37,9.59,6.69,6.69,0,0,0,2.18,1.1,6.59,6.59,0,0,0,2.44.06,4.62,4.62,0,0,0,.6-0.19,8.46,8.46,0,0,0,1.8-.93,8.34,8.34,0,0,1,3.17-1.35,6.91,6.91,0,0,1,3.26.46,9.07,9.07,0,0,0,2.4.6,8.38,8.38,0,0,0,2.37-.27A9.25,9.25,0,0,1,147,159a10.37,10.37,0,0,1,3.07,1,14.39,14.39,0,0,0,2.51,1,62.57,62.57,0,0,0,8.66-.22,37.21,37.21,0,0,0,6.85-1,5.81,5.81,0,0,0-.87-1.32,32.27,32.27,0,0,1-2.55-3.39,23.85,23.85,0,0,1-1.74-3.45,10.69,10.69,0,0,0-1.59-2.64,12.42,12.42,0,0,0-2.57-2.06,18.38,18.38,0,0,1-3.13-2.34,15.56,15.56,0,0,1-2.27-3c-0.55-1-2.14-5-3.35-8.24-1.44-3.9-2.83-7.26-3.23-7.94a23.73,23.73,0,0,0-1.86-2.69c-0.62-.76-1.57-2-2.1-2.87s-1.32-2.21-1.76-3.09a20.31,20.31,0,0,0-1.71-2.75,21.3,21.3,0,0,0-2.25-2.41c-0.76-.67-1.92-1.81-2.58-2.54s-1.69-2-2.27-2.75-1.85-2.77-2.83-4.43-2.22-3.58-2.8-4.36-1.71-2.1-2.45-2.88A5.62,5.62,0,0,1,122.61,91a5.93,5.93,0,0,1,2.06-3.47c0.75-.63,4.05-4,7.76-8.06a116.5,116.5,0,0,1,10.7-10.3c2.55-2,4.89-4,5.46-4.62s2.43-3.08,4.27-5.77c0.92-1.35,2-2.78,2.87-3.94a17.54,17.54,0,0,1,1.64-1.91,15.1,15.1,0,0,1,2.86-2,1.45,1.45,0,0,0,.27-0.17,10.84,10.84,0,0,0-2.2-1,25.52,25.52,0,0,0-4.76-1,59.73,59.73,0,0,0-10.27,1.32,73.53,73.53,0,0,1-10.94,1.51,26.79,26.79,0,0,1-5.75-.94,13,13,0,0,0-4.25-.53,4.1,4.1,0,0,0-2.27,1.22,28.92,28.92,0,0,0-1.76,2.65A26.49,26.49,0,0,0,117,56.83a16.68,16.68,0,0,1-1.56,2.93A39.58,39.58,0,0,1,111,64.17a41.06,41.06,0,0,0-4.13,4.05,17,17,0,0,0-1.41,2.49,12.51,12.51,0,0,1-1.81,2.82,12.65,12.65,0,0,1-2.27,1.88l-0.09.06-0.26.16a16.84,16.84,0,0,0-2.33,1.67,28.75,28.75,0,0,0-2.67,3c-0.84,1.1-2,2.5-2.46,3a2.23,2.23,0,0,1-2.81.16,9.41,9.41,0,0,1-2.07-2.85,11,11,0,0,1-1-4.42,14,14,0,0,1,1.16-4.71,20.75,20.75,0,0,0,1.33-4.23,41.63,41.63,0,0,0-.6-8.4c-0.11-.69-0.23-1.38-0.36-2a16.86,16.86,0,0,0-1.56-5,6,6,0,0,0-2.77-1.14c-1-.12-6,0-11.9.37l-6.15.38c-6,.37-10.13,1-10.72,1.22A3.23,3.23,0,0,0,55,54.07a9.67,9.67,0,0,0-.28,2.5,15.65,15.65,0,0,0,.54,3,13,13,0,0,1,.43,3.82,13.77,13.77,0,0,1-.93,3.79,33.27,33.27,0,0,0-1.18,3.34,29.51,29.51,0,0,0-.68,3.32,19.24,19.24,0,0,0-.09,3.26,20.36,20.36,0,0,0,.59,3.27,23.46,23.46,0,0,1,.68,3.65,22,22,0,0,1,0,3.66,19.52,19.52,0,0,0,0,3.26,20.74,20.74,0,0,0,.65,3.27c0.3,1,.69,2.58.89,3.56s0.44,2.58.53,3.56,0.18,3.36.18,5.29a27.9,27.9,0,0,1-.47,5.45,23.7,23.7,0,0,1-1.35,3.65A17.64,17.64,0,0,0,53.35,119a70.2,70.2,0,0,0-.27,8.44c0,4.1.2,7.72,0.33,8.52s0.69,3.24,1.19,5.08a19,19,0,0,1,.77,5.59,12.31,12.31,0,0,1-1.3,3.83A11,11,0,0,0,53,153.62a9.94,9.94,0,0,0,.24,3.19,4.32,4.32,0,0,0,1.48,2.11,25.74,25.74,0,0,0,7,.57h0.79c3.78-.1,8.87-0.42,11.36-0.73a44.08,44.08,0,0,1,7.22-.35,32.66,32.66,0,0,1,5.33,1.06,5.09,5.09,0,0,0,3.19,0c0.29-.37,1-3.2,1-7.28a76.09,76.09,0,0,0-.27-9.2,30.46,30.46,0,0,0-1.17-4.22,18.69,18.69,0,0,1-1-4.66A27,27,0,0,1,89,128a37.16,37.16,0,0,0,.84-4.34,5,5,0,0,1,.45-2c0.46-.91,2.62-2.16,2.86-2.3,1.25-.72,2.36-1.38,2.61-1.56a6.59,6.59,0,0,0,.78-0.65,2,2,0,0,1,1.44-.52,3.06,3.06,0,0,1,.83.11,12.38,12.38,0,0,1,2.56,1.27,13.91,13.91,0,0,1,2.65,2.29,13.41,13.41,0,0,1,1.81,3C106,123.78,106.35,124.6,106.62,125.43Z" fill="#231f20"/><path d="M175.26,161.44a22.63,22.63,0,0,1-1.66-3.27,11.54,11.54,0,0,0-1.78-2.94A13.45,13.45,0,0,0,169,153a17.51,17.51,0,0,1-2.93-2.19A14.63,14.63,0,0,1,164,148c-0.46-.82-1.94-4.47-3.28-8.1s-2.83-7.27-3.3-8.09a24.63,24.63,0,0,0-2-2.83c-0.6-.73-1.52-2-2-2.78s-1.28-2.14-1.7-3a21.2,21.2,0,0,0-1.82-2.91,22.18,22.18,0,0,0-2.38-2.55c-0.73-.65-1.86-1.76-2.51-2.46s-1.64-1.9-2.2-2.66S141,110,140,108.32s-2.25-3.63-2.86-4.46a39,39,0,0,0-2.53-3A4.64,4.64,0,0,1,133.32,98a5,5,0,0,1,1.7-2.77c0.88-.75,4.42-4.41,7.85-8.15A115.57,115.57,0,0,1,153.45,76.9c2.38-1.87,4.89-4,5.57-4.72s2.65-3.38,4.37-5.89a49,49,0,0,1,4.36-5.67,14.14,14.14,0,0,1,2.63-1.8c0.77-.38,1.17-1,0.89-1.45a7.69,7.69,0,0,0-3-1.56,26.38,26.38,0,0,0-5-1,32.59,32.59,0,0,0-5.36.47l-1.45.22c-0.84,1.08-1.87,2.48-2.83,3.89-1.72,2.51-3.69,5.16-4.37,5.89s-3.19,2.86-5.57,4.72a115.57,115.57,0,0,0-10.58,10.19c-3.43,3.74-7,7.4-7.85,8.15a5,5,0,0,0-1.7,2.77A4.64,4.64,0,0,0,124.93,94a39,39,0,0,1,2.53,3c0.62,0.82,1.9,2.83,2.86,4.46s2.21,3.58,2.77,4.34,1.55,2,2.2,2.66,1.78,1.81,2.51,2.46a22.18,22.18,0,0,1,2.38,2.55,21.2,21.2,0,0,1,1.82,2.91c0.42,0.85,1.19,2.2,1.7,3s1.43,2,2,2.78a24.63,24.63,0,0,1,2,2.83c0.47,0.82,2,4.46,3.3,8.09s2.82,7.28,3.28,8.1a14.63,14.63,0,0,0,2.1,2.73A17.51,17.51,0,0,0,159.3,146a13.45,13.45,0,0,1,2.82,2.26,11.54,11.54,0,0,1,1.78,2.94,22.63,22.63,0,0,0,1.66,3.27,31.19,31.19,0,0,0,2.46,3.26,3.93,3.93,0,0,1,1.19,2.52c-0.13.49-3.66,1.13-7.85,1.43a58.89,58.89,0,0,1-9,.19,15.41,15.41,0,0,1-2.72-1.07,9.38,9.38,0,0,0-2.72-.87,8.22,8.22,0,0,0-2.72.24,9.31,9.31,0,0,1-2.72.31,10,10,0,0,1-2.72-.68,6,6,0,0,0-2.72-.39,7.47,7.47,0,0,0-2.72,1.18,9.47,9.47,0,0,1-2,1.06l0.48,0.88a31.64,31.64,0,0,0,3,4.91,7.68,7.68,0,0,0,2.6,1.32,7.6,7.6,0,0,0,2.89.06,9,9,0,0,0,2.78-1.29,7.47,7.47,0,0,1,2.72-1.18,6,6,0,0,1,2.72.39,10,10,0,0,0,2.72.68,9.31,9.31,0,0,0,2.72-.31,8.22,8.22,0,0,1,2.72-.24,9.38,9.38,0,0,1,2.72.87,15.41,15.41,0,0,0,2.72,1.07,58.89,58.89,0,0,0,9-.19c4.19-.3,7.72-0.94,7.85-1.43a3.93,3.93,0,0,0-1.19-2.52A31.19,31.19,0,0,1,175.26,161.44Z" fill="#231f20"/><path d="M104.89,123.62a12.49,12.49,0,0,0-1.66-2.7,13,13,0,0,0-2.43-2.09,11.55,11.55,0,0,0-2.3-1.15,1.46,1.46,0,0,0-1.27.13,7.53,7.53,0,0,1-.93.77c-0.3.21-1.51,0.93-2.68,1.6a8.64,8.64,0,0,0-2.47,1.88,4.07,4.07,0,0,0-.34,1.57,35.77,35.77,0,0,1-.87,4.58,26.46,26.46,0,0,0-.76,5.84,17.86,17.86,0,0,0,.93,4.37,31.24,31.24,0,0,1,1.21,4.39,76.8,76.8,0,0,1,.28,9.39c-0.06,4-.73,7.6-1.48,8.1a5.77,5.77,0,0,1-4,.11,31.51,31.51,0,0,0-5.13-1,43.14,43.14,0,0,0-7,.35c-2.5.31-7.65,0.64-11.46,0.74H61.71a8,8,0,0,0,0,1A10.87,10.87,0,0,0,62,164a5.27,5.27,0,0,0,1.92,2.7c0.78,0.48,4.53.8,8.33,0.7s9-.43,11.46-0.74a43.14,43.14,0,0,1,7-.35,31.51,31.51,0,0,1,5.13,1,5.77,5.77,0,0,0,4-.11c0.75-.5,1.41-4.14,1.48-8.1a76.8,76.8,0,0,0-.28-9.39,31.24,31.24,0,0,0-1.21-4.39A17.86,17.86,0,0,1,98.9,141a26.46,26.46,0,0,1,.76-5.84,35.77,35.77,0,0,0,.87-4.58,4.07,4.07,0,0,1,.34-1.57,8.64,8.64,0,0,1,2.47-1.88l1.46-.85,0.88-.53C105.42,125,105.12,124.18,104.89,123.62Z" fill="#231f20"/><path d="M90.56,58.72a41.57,41.57,0,0,1,.6,8.71,21.67,21.67,0,0,1-1.41,4.49,13.11,13.11,0,0,0-1.07,4.31,10,10,0,0,0,.9,4,8.71,8.71,0,0,0,1.77,2.49,1.22,1.22,0,0,0,1.52-.07c0.38-.37,1.45-1.66,2.37-2.85A29.42,29.42,0,0,1,98,76.56a17.89,17.89,0,0,1,2.5-1.79l0.31-.2,0-.2a7.54,7.54,0,0,0,.07-1.1,55.44,55.44,0,0,0-.67-7.61c-0.54-3.56-1.54-7-2.23-7.63a6.92,6.92,0,0,0-3.34-1.41c-0.49-.06-1.78-0.06-3.5,0l-1,0C90.32,57.3,90.45,58,90.56,58.72Z" fill="#231f20"/></svg>