<svg xmlns="http://www.w3.org/2000/svg" width="127.64" height="200" viewBox="0 0 127.64 200"><title>_</title><path d="M89.83 148.79a7.4 7.4 0 0 1 3.53.5 8.6 8.6 0 0 0 2.23.56 7.88 7.88 0 0 0 2.2-.25 9.63 9.63 0 0 1 3.32-.29 10.77 10.77 0 0 1 3.25 1 14 14 0 0 0 2.4.94 66.14 66.14 0 0 0 8.49-.23 43.78 43.78 0 0 0 6.13-.79 5.35 5.35 0 0 0-.5-.67 32.84 32.84 0 0 1-2.6-3.45 24.45 24.45 0 0 1-1.79-3.54 10.25 10.25 0 0 0-1.5-2.48 12 12 0 0 0-2.45-2 19 19 0 0 1-3.23-2.42 16.17 16.17 0 0 1-2.36-3.07c-.58-1-2.18-5.06-3.38-8.32-1.41-3.82-2.82-7.21-3.19-7.87a23.06 23.06 0 0 0-1.81-2.62c-.64-.77-1.59-2.08-2.13-2.91s-1.34-2.25-1.78-3.14a19.7 19.7 0 0 0-1.66-2.58 20.65 20.65 0 0 0-2.19-2.34c-.77-.68-1.94-1.83-2.62-2.57s-1.71-2-2.3-2.79S84 94.66 83 93s-2.19-3.54-2.77-4.32-1.69-2.07-2.41-2.83a6.07 6.07 0 0 1-1.73-4A6.38 6.38 0 0 1 78.35 78c.74-.63 4-4 7.72-8a117.1 117.1 0 0 1 10.75-10.38c2.54-2 4.84-4 5.4-4.57s2.4-3 4.23-5.71c.93-1.36 2-2.8 2.89-4a17.62 17.62 0 0 1 1.7-2 16.15 16.15 0 0 1 2.43-1.74 11.49 11.49 0 0 0-1.33-.53 24.94 24.94 0 0 0-4.64-1 60.42 60.42 0 0 0-10.13 1.32 71.57 71.57 0 0 1-11 1.52 27.35 27.35 0 0 1-5.87-1 12.57 12.57 0 0 0-4-.52 3.63 3.63 0 0 0-1.94 1 28.34 28.34 0 0 0-1.72 2.59 25.91 25.91 0 0 0-1.3 2.71 17.3 17.3 0 0 1-1.62 3 39.43 39.43 0 0 1-4.51 4.5 41.21 41.21 0 0 0-4.05 4 16.68 16.68 0 0 0-1.36 2.4 13.07 13.07 0 0 1-1.9 3 13.22 13.22 0 0 1-2.37 2l-.09.06-.28.18A16.27 16.27 0 0 0 53 68.52a28.22 28.22 0 0 0-2.61 3 39.16 39.16 0 0 1-2.51 3 2.74 2.74 0 0 1-3.45.21 9.82 9.82 0 0 1-2.22-3A11.4 11.4 0 0 1 41.18 67a14.61 14.61 0 0 1 1.21-4.9 20.12 20.12 0 0 0 1.29-4.1 41.63 41.63 0 0 0-.6-8.24 37.6 37.6 0 0 0-.36-2A17.78 17.78 0 0 0 41.27 43a5.69 5.69 0 0 0-2.46-1c-.93-.11-6 0-11.81.37l-6.15.38a69.61 69.61 0 0 0-10.55 1.18 2.91 2.91 0 0 0-.79 1.12 9.22 9.22 0 0 0-.26 2.34 15.28 15.28 0 0 0 .52 2.9 13.59 13.59 0 0 1 .45 4 14.37 14.37 0 0 1-1 4 32.52 32.52 0 0 0-1.12 3.24 28.94 28.94 0 0 0-.67 3.26 18.62 18.62 0 0 0-.08 3.15 19.75 19.75 0 0 0 .58 3.17 24.08 24.08 0 0 1 .7 3.75 22.63 22.63 0 0 1 0 3.76 18.92 18.92 0 0 0 0 3.16A20.12 20.12 0 0 0 9.19 85c.3 1 .7 2.62.9 3.6s.44 2.61.54 3.61.18 3.4.18 5.34a28.45 28.45 0 0 1-.49 5.57 24.31 24.31 0 0 1-1.38 3.75A17 17 0 0 0 7.85 110a70.57 70.57 0 0 0-.26 8.33c0 4.08.2 7.67.32 8.45s.68 3.19 1.18 5a19.3 19.3 0 0 1 .79 5.78 12.69 12.69 0 0 1-1.36 4 10.54 10.54 0 0 0-1 3 9.49 9.49 0 0 0 .22 3A3.85 3.85 0 0 0 9 149.35a27.76 27.76 0 0 0 6.71.49h.79c3.77-.1 8.84-.42 11.31-.73a44.71 44.71 0 0 1 7.33-.35 33.23 33.23 0 0 1 5.43 1.07 5.34 5.34 0 0 0 2.69.12 24.5 24.5 0 0 0 .89-6.91 77.3 77.3 0 0 0-.26-9.1 29.82 29.82 0 0 0-1.14-4.13 19.29 19.29 0 0 1-1-4.81 27.6 27.6 0 0 1 .79-6.27 38.63 38.63 0 0 0 .83-4.23 5.46 5.46 0 0 1 .5-2.26c.51-1 2.47-2.17 3.06-2.5 1.23-.7 2.34-1.37 2.57-1.53a6.19 6.19 0 0 0 .7-.58 2.45 2.45 0 0 1 1.8-.67 3.56 3.56 0 0 1 1 .13 12.72 12.72 0 0 1 2.69 1.33 14.49 14.49 0 0 1 2.77 2.39 14 14 0 0 1 1.9 3.09c.24.56.55 1.39.83 2.23.13.37.24.73.33 1 .27.92.63 2.48.81 3.46A7.18 7.18 0 0 0 65 125.2a23.35 23.35 0 0 1 2.66 2.48c.89 1 3.95 6.83 5.79 10.49l1.31 2.62a79.21 79.21 0 0 0 5.27 9.45 6.3 6.3 0 0 0 2 1 6.09 6.09 0 0 0 2.21.05 4.11 4.11 0 0 0 .53-.17 7.91 7.91 0 0 0 1.69-.87 8.78 8.78 0 0 1 3.37-1.46z"/><path d="M129.27 152.28a22.63 22.63 0 0 1-1.66-3.27 11.54 11.54 0 0 0-1.78-2.94 13.45 13.45 0 0 0-2.82-2.26 17.51 17.51 0 0 1-2.93-2.19 14.63 14.63 0 0 1-2.1-2.73c-.46-.82-1.94-4.47-3.28-8.1s-2.83-7.27-3.3-8.09a24.63 24.63 0 0 0-2-2.83c-.6-.73-1.52-2-2-2.78s-1.28-2.14-1.7-3a21.2 21.2 0 0 0-1.82-2.91 22.18 22.18 0 0 0-2.38-2.55c-.73-.65-1.86-1.76-2.51-2.46s-1.64-1.9-2.2-2.66S95 100.8 94 99.17s-2.25-3.63-2.86-4.46a39 39 0 0 0-2.53-3 4.64 4.64 0 0 1-1.32-2.89A5 5 0 0 1 89 86.08c.88-.75 4.42-4.41 7.85-8.15a115.57 115.57 0 0 1 10.58-10.19c2.38-1.87 4.89-4 5.57-4.72s2.65-3.38 4.37-5.89a49 49 0 0 1 4.36-5.67 14.14 14.14 0 0 1 2.63-1.8c.77-.38 1.17-1 .89-1.45a7.69 7.69 0 0 0-3-1.56 26.38 26.38 0 0 0-5-1 32.59 32.59 0 0 0-5.36.47l-1.45.22c-.84 1.08-1.87 2.48-2.83 3.89-1.72 2.51-3.69 5.16-4.37 5.89s-3.19 2.86-5.57 4.72A115.57 115.57 0 0 0 87.17 71c-3.43 3.74-7 7.4-7.85 8.15a5 5 0 0 0-1.7 2.77 4.64 4.64 0 0 0 1.32 2.89 39 39 0 0 1 2.53 3c.62.82 1.9 2.83 2.86 4.46s2.21 3.58 2.77 4.34 1.55 2 2.2 2.66 1.78 1.81 2.51 2.46a22.18 22.18 0 0 1 2.38 2.55 21.2 21.2 0 0 1 1.81 2.88c.42.85 1.19 2.2 1.7 3s1.43 2 2 2.78a24.63 24.63 0 0 1 2 2.83c.47.82 2 4.46 3.3 8.09s2.82 7.28 3.28 8.1a14.63 14.63 0 0 0 2.1 2.73 17.51 17.51 0 0 0 2.93 2.19 13.45 13.45 0 0 1 2.82 2.26 11.54 11.54 0 0 1 1.78 2.94 22.63 22.63 0 0 0 1.66 3.27 31.19 31.19 0 0 0 2.43 3.25 3.93 3.93 0 0 1 1.19 2.52c-.13.49-3.66 1.13-7.85 1.43a58.89 58.89 0 0 1-9 .19 15.41 15.41 0 0 1-2.72-1.07 9.38 9.38 0 0 0-2.72-.87 8.22 8.22 0 0 0-2.72.24 9.31 9.31 0 0 1-2.72.31 10 10 0 0 1-2.72-.68 6 6 0 0 0-2.72-.39 7.47 7.47 0 0 0-2.72 1.18 9.47 9.47 0 0 1-2 1.06l.48.88a31.64 31.64 0 0 0 3 4.91 7.68 7.68 0 0 0 2.6 1.32 7.6 7.6 0 0 0 2.89.06 9 9 0 0 0 2.73-1.3 7.47 7.47 0 0 1 2.72-1.18 6 6 0 0 1 2.72.39 10 10 0 0 0 2.72.68 9.31 9.31 0 0 0 2.72-.31 8.22 8.22 0 0 1 2.72-.24 9.38 9.38 0 0 1 2.72.87 15.41 15.41 0 0 0 2.72 1.07 58.89 58.89 0 0 0 9-.19c4.19-.3 7.72-.94 7.85-1.43a3.93 3.93 0 0 0-1.19-2.52 31.19 31.19 0 0 1-2.43-3.25zM44.15 151.15a5.77 5.77 0 0 1-4 .11 31.51 31.51 0 0 0-5.13-1 43.14 43.14 0 0 0-7 .35c-2.5.31-7.65.64-11.46.74h-.85a8 8 0 0 0 0 1 10.87 10.87 0 0 0 .31 2.53 5.27 5.27 0 0 0 1.92 2.7c.78.48 4.53.8 8.33.7s9-.43 11.46-.74a43.14 43.14 0 0 1 7-.35 31.51 31.51 0 0 1 5.13 1 5.77 5.77 0 0 0 4-.11c.75-.5 1.41-4.14 1.48-8.1a76.8 76.8 0 0 0-.28-9.39 31.24 31.24 0 0 0-1.21-4.39 17.86 17.86 0 0 1-.93-4.37 26.46 26.46 0 0 1 .76-5.84 35.77 35.77 0 0 0 .87-4.58 4.07 4.07 0 0 1 .34-1.57 8.64 8.64 0 0 1 2.45-1.84l1.46-.85.88-.53c-.25-.75-.55-1.57-.79-2.13a12.49 12.49 0 0 0-1.66-2.7 13 13 0 0 0-2.43-2.09 11.55 11.55 0 0 0-2.3-1.15 1.46 1.46 0 0 0-1.27.13 7.53 7.53 0 0 1-.93.77c-.3.21-1.51.93-2.68 1.6a8.64 8.64 0 0 0-2.47 1.88 4.07 4.07 0 0 0-.34 1.57 35.77 35.77 0 0 1-.87 4.58 26.46 26.46 0 0 0-.76 5.84 17.86 17.86 0 0 0 .93 4.37 31.24 31.24 0 0 1 1.21 4.39 76.8 76.8 0 0 1 .28 9.39c-.04 3.93-.7 7.58-1.45 8.08zM43.75 62.76a13.11 13.11 0 0 0-1.07 4.31 10 10 0 0 0 .9 4 8.71 8.71 0 0 0 1.77 2.49 1.22 1.22 0 0 0 1.52-.07c.38-.37 1.45-1.66 2.37-2.85A29.42 29.42 0 0 1 52 67.41a17.89 17.89 0 0 1 2.5-1.79l.31-.2v-.2a7.54 7.54 0 0 0 .07-1.1 55.44 55.44 0 0 0-.67-7.61c-.54-3.56-1.54-7-2.23-7.63a6.92 6.92 0 0 0-3.34-1.41c-.49-.06-1.78-.06-3.5 0h-1c.14.68.26 1.38.37 2.09a41.57 41.57 0 0 1 .6 8.71 21.67 21.67 0 0 1-1.36 4.49z"/></svg>