<svg xmlns="http://www.w3.org/2000/svg" width="96.8" height="200" viewBox="0 0 96.8 200"><title>_</title><path d="M35.25 47.56c-.07-.33-.15-.66-.22-1a7.67 7.67 0 0 0-1.31-2.94 39 39 0 0 0-6.93-1.88 47 47 0 0 0-8.2-1.09 18.24 18.24 0 0 0-4.13.94 21.46 21.46 0 0 1-5 1.13 21.05 21.05 0 0 1-5.07-.34 6.5 6.5 0 0 0-1.32-.13 3.8 3.8 0 0 0-1.31.17A2.31 2.31 0 0 0 1 43.81c-.12.95-.25 2.52-.27 3.45s0 2.45.1 3.35a26.36 26.36 0 0 0 .53 3.24 29.37 29.37 0 0 0 1.08 3.25 18.35 18.35 0 0 1 1 3.84 44.74 44.74 0 0 1-.39 7.29 55.92 55.92 0 0 0-.48 6.64 25.62 25.62 0 0 0 .51 3.23 34.2 34.2 0 0 1 .62 3.66 32.75 32.75 0 0 1 .13 3.67 18.28 18.28 0 0 1-.63 3.84A22.08 22.08 0 0 1 1.62 93a12.7 12.7 0 0 0-1.13 3 10.33 10.33 0 0 0-.03 3c.17 1 .37 2.62.44 3.61s0 4.17-.21 7.15a40.92 40.92 0 0 0 0 6.54 14.75 14.75 0 0 0 1.08 3.07 16.13 16.13 0 0 1 1.31 3.89 14 14 0 0 1 0 4c-.15.9-.46 4-.67 6.79a68.66 68.66 0 0 1-.83 7.16 34.05 34.05 0 0 0-.57 3.4c-.1 1-.18 2.64-.17 3.66a3.89 3.89 0 0 0 .64 2 4.52 4.52 0 0 0 2.15.82 29 29 0 0 0 3.74.07c.41 0 1-.09 1.55-.17s1.4-.23 1.87-.35a20.46 20.46 0 0 1 3.93-.46 19.06 19.06 0 0 1 3.95.54 11.18 11.18 0 0 0 3.08.28 12.42 12.42 0 0 0 3.13-.81 29.27 29.27 0 0 1 3.83-1.29 26.08 26.08 0 0 1 3.86-.58 36.1 36.1 0 0 1 3.78 0 69.76 69.76 0 0 1 7.43 1.46 62.7 62.7 0 0 0 6.91 1.35 17.45 17.45 0 0 0 3.25-.21 26.31 26.31 0 0 1 3.86-.35 26.25 26.25 0 0 1 3.86.35 15.25 15.25 0 0 0 3.21.17 16.43 16.43 0 0 0 3.23-.67 16.5 16.5 0 0 1 4-.73 15.8 15.8 0 0 1 4 .5 10.87 10.87 0 0 0 2.92.33 8.42 8.42 0 0 0 2.52-.69 12.71 12.71 0 0 0 2.24-1.49 10.46 10.46 0 0 0 1.57-1.89 6.64 6.64 0 0 0 .73-2.08 32.88 32.88 0 0 0-.81-5.79c-.58-2.77-1.09-5.65-1.16-6.54v-.26c-.06-.89-.1-2.07-.08-2.8a3.67 3.67 0 0 0-.38-1.56 4.21 4.21 0 0 0-1.35-1.08 8.36 8.36 0 0 0-2.27-.6 36.24 36.24 0 0 0-5.7.81 32 32 0 0 1-6.71.79 16.62 16.62 0 0 1-3.49-.88 6.53 6.53 0 0 0-2.43-.36 7.79 7.79 0 0 0-2.5.87 16.77 16.77 0 0 1-3.49 1.5 13.41 13.41 0 0 1-3.58.4 16 16 0 0 1-3.51-.65 19.8 19.8 0 0 1-3.43-1.58h-.07a8 8 0 0 0-2.51-.87 7.8 7.8 0 0 0-2.67.34 4.46 4.46 0 0 1-3.94-.31 4.87 4.87 0 0 1-1.3-3.77 35.32 35.32 0 0 0-.08-3.54 32.69 32.69 0 0 0-.51-3.41 13.29 13.29 0 0 1-.13-4.09 15.19 15.19 0 0 1 1.34-4 7.5 7.5 0 0 0 .73-2.83 7.69 7.69 0 0 0-.81-2.84 11.15 11.15 0 0 1-1.23-4.2 10.59 10.59 0 0 1 .87-4.23 27.29 27.29 0 0 0 1.22-3.32 23.61 23.61 0 0 0 .62-3.29 13.54 13.54 0 0 0-.15-3.11 16.2 16.2 0 0 0-1.08-3.18A19.39 19.39 0 0 1 34.21 76a49.31 49.31 0 0 1-.21-7.37c.07-3 .25-6.23.41-7.27a27 27 0 0 1 .93-3.8 18 18 0 0 0 .66-3.21 16.64 16.64 0 0 0-.05-3.19c-.1-.72-.39-2.16-.7-3.6z"/><path d="M36.72 58a25.29 25.29 0 0 0-.87 3.54c-.15 1-.33 4.16-.4 7.08a48.88 48.88 0 0 0 .23 7.08 18 18 0 0 0 1.21 3.54 17.46 17.46 0 0 1 1.2 3.54 14.89 14.89 0 0 1 .17 3.54 25 25 0 0 1-.66 3.54 28.8 28.8 0 0 1-1.3 3.54 9.19 9.19 0 0 0-.74 3.6 9.77 9.77 0 0 0 1 3.54 9.11 9.11 0 0 1 1 3.54 8.92 8.92 0 0 1-.9 3.54 13.72 13.72 0 0 0-1.19 3.54 11.73 11.73 0 0 0 .12 3.54 34.15 34.15 0 0 1 .54 3.6 36.48 36.48 0 0 1 .08 3.72 3.61 3.61 0 0 0 .74 2.54 3.1 3.1 0 0 0 2.51.06 9.18 9.18 0 0 1 3.32-.41 9.38 9.38 0 0 1 3.06 1c0-.33-.08-.74-.13-1.16-.11-.85-.27-1.79-.41-2.44a11.73 11.73 0 0 1-.12-3.54 13.72 13.72 0 0 1 1.19-3.54 8.92 8.92 0 0 0 .9-3.54 9.11 9.11 0 0 0-1-3.54 9.77 9.77 0 0 1-1-3.54 9.19 9.19 0 0 1 .73-3.51 28.8 28.8 0 0 0 1.3-3.54 25 25 0 0 0 .7-3.54 14.89 14.89 0 0 0-.17-3.54 17.46 17.46 0 0 0-1.2-3.54 18 18 0 0 1-1.21-3.54 48.88 48.88 0 0 1-.23-7.08c.07-2.92.25-6.11.4-7.08a25.29 25.29 0 0 1 .84-3.54 19.54 19.54 0 0 0 .78-3.54 18.23 18.23 0 0 0-.06-3.54c-.13-1-.56-3.09-.95-4.71a8 8 0 0 0-1.88-3.79 30 30 0 0 0-6.53-1.94l-1-.21h-.09c.31 1.41.61 2.93.72 3.72a18.23 18.23 0 0 1 .06 3.54 19.54 19.54 0 0 1-.76 3.47zM94.67 133.55a5.5 5.5 0 0 0-2-1.63 9.77 9.77 0 0 0-2.78-.74 19.92 19.92 0 0 0-3.26.33l-1 .16v.25c.07.83.58 3.69 1.14 6.36a31.53 31.53 0 0 1 .83 6.28 8.12 8.12 0 0 1-.93 2.67 11.77 11.77 0 0 1-1.86 2.23 14.13 14.13 0 0 1-2.56 1.72 9.82 9.82 0 0 1-3.09.85 12.23 12.23 0 0 1-3.42-.38 14.61 14.61 0 0 0-3.59-.44 15 15 0 0 0-3.59.66 18 18 0 0 1-3.59.74 17 17 0 0 1-3.59-.18 24.49 24.49 0 0 0-3.59-.32 24.52 24.52 0 0 0-3.59.32 18.93 18.93 0 0 1-3.59.23 62.34 62.34 0 0 1-7.19-1.39 68.65 68.65 0 0 0-7.19-1.42 34.26 34.26 0 0 0-3.59 0 24.21 24.21 0 0 0-3.59.54 27.51 27.51 0 0 0-3.59 1.21 13.84 13.84 0 0 1-3.59.92 12.73 12.73 0 0 1-3.59-.33 17.61 17.61 0 0 0-3.58-.49 17.09 17.09 0 0 0-3.55.42c-.54.13-1.28.27-2 .37 0 .33 0 .67-.05 1v1.7a5.16 5.16 0 0 0 1.06 3.06 5.71 5.71 0 0 0 3.1 1.28 30.58 30.58 0 0 0 4 .07 25.21 25.21 0 0 0 3.68-.56 17.09 17.09 0 0 1 3.55-.42 17.61 17.61 0 0 1 3.58.49 12.73 12.73 0 0 0 3.59.33 13.84 13.84 0 0 0 3.59-.92 27.51 27.51 0 0 1 3.59-1.21 24.21 24.21 0 0 1 3.59-.54 34.26 34.26 0 0 1 3.59 0 68.65 68.65 0 0 1 7.19 1.42 62.34 62.34 0 0 0 7.19 1.39 18.93 18.93 0 0 0 3.59-.23 24.52 24.52 0 0 1 3.59-.32 24.49 24.49 0 0 1 3.59.32 17 17 0 0 0 3.59.18 18 18 0 0 0 3.59-.74 15 15 0 0 1 3.59-.66 14.61 14.61 0 0 1 3.59.44 12.23 12.23 0 0 0 3.42.38 9.82 9.82 0 0 0 3.09-.85 14.13 14.13 0 0 0 2.56-1.72 11.77 11.77 0 0 0 1.86-2.23 8.12 8.12 0 0 0 .93-2.67 31.53 31.53 0 0 0-.83-6.28c-.56-2.67-1.07-5.53-1.14-6.36s-.11-2.14-.09-2.91a5 5 0 0 0-.66-2.38z"/></svg>