<svg xmlns="http://www.w3.org/2000/svg" width="151.3" height="200" viewBox="0 0 151.3 200"><title>_</title><path d="M13.4 95.52c.21 1.21.27 6.4.24 10.66 0 5 0 9.42.13 10.19a21.42 21.42 0 0 0 .73 3.19 27.4 27.4 0 0 1 .88 3.71 25.71 25.71 0 0 1 .23 3.73c0 .89.11 3.19.29 5a26.85 26.85 0 0 1 0 5.6 17.08 17.08 0 0 1-1.27 3.87 13 13 0 0 0-1 3 10.08 10.08 0 0 0 .07 2.79 5.16 5.16 0 0 0 1.07 2 8.12 8.12 0 0 0 2.5 1.45 9.47 9.47 0 0 0 3.29.37 6.57 6.57 0 0 0 .85-.17 12.58 12.58 0 0 0 2.65-1 15.86 15.86 0 0 1 4.62-1.58 13.73 13.73 0 0 1 4.69.33 27.38 27.38 0 0 0 3.73.71 22.11 22.11 0 0 0 3.5 0 4.63 4.63 0 0 0 2.19-.95 7.35 7.35 0 0 0 1.44-2.68 26.15 26.15 0 0 0 .74-4.15 28 28 0 0 0-.09-4.33 42.71 42.71 0 0 1-.22-4.91 43.2 43.2 0 0 1 .47-4.9c.21-1.25.43-3.29.5-4.54s.07-3.28 0-4.54-.24-3-.39-3.91a15.29 15.29 0 0 0-.62-2.47 10 10 0 0 1-.6-2.61 9.68 9.68 0 0 1 .26-2.65 3.6 3.6 0 0 0 0-1.39 5.47 5.47 0 0 0-.86-1.54 12.27 12.27 0 0 1-1.42-2.42 8.79 8.79 0 0 1-.66-2.63 11.25 11.25 0 0 1 .17-2.52 12.78 12.78 0 0 1 .82-2.47 3.42 3.42 0 0 0 .26-1.3A3.53 3.53 0 0 0 42 91.2a11.21 11.21 0 0 1-1.24-2.32 9.33 9.33 0 0 1-.48-2.49 13.46 13.46 0 0 1 .24-2.39 12.12 12.12 0 0 1 .48-1.83 1.65 1.65 0 0 1 1.2-1 3 3 0 0 1 2.59 1.08 11 11 0 0 1 2.13 3 10 10 0 0 1 .74 3.66 17.75 17.75 0 0 0 .24 2.83 16.61 16.61 0 0 0 .78 2.66c.3.74 1.23 2.6 2 4.06a16.15 16.15 0 0 1 1.83 4.92 11.86 11.86 0 0 1-.44 3.88 5.83 5.83 0 0 0-.12 2.43 5.58 5.58 0 0 0 1.28 2 22 22 0 0 1 2.45 2.79 17 17 0 0 1 1 1.73 14.42 14.42 0 0 1 .65 1.35 11.81 11.81 0 0 1 .84 5.32 15.42 15.42 0 0 1-.18 1.74 6.59 6.59 0 0 0 .12 2.46 3.48 3.48 0 0 0 .18.42 7.23 7.23 0 0 0 1.14 1.71 10.08 10.08 0 0 1 2 3.29 9.6 9.6 0 0 1 .3 3.82 9.55 9.55 0 0 0 .06 2.66 8.75 8.75 0 0 0 1 2.35 21.68 21.68 0 0 1 1.56 2.93 16.71 16.71 0 0 1 .88 3 3.1 3.1 0 0 0 .6 1.28 3.53 3.53 0 0 0 1.39.62 26.31 26.31 0 0 0 2.67.3h2.89a30.27 30.27 0 0 1 3.36 0 31.2 31.2 0 0 1 3.35.46 17.78 17.78 0 0 0 5.82.23 4.92 4.92 0 0 0 1.89-.71 4.57 4.57 0 0 0 1.1-1.61 16.42 16.42 0 0 0 .7-2.73 18 18 0 0 0 .12-2.87c-.05-.94 0-2.46 0-3.38a32.31 32.31 0 0 1 .41-3.28 11.18 11.18 0 0 1 1.36-3.4 14.86 14.86 0 0 1 2.62-2.9 8.27 8.27 0 0 0 1.75-2.1 6 6 0 0 0 .48-2.31 12.61 12.61 0 0 1 .47-3.59A12.89 12.89 0 0 1 97.9 118a18.13 18.13 0 0 0 1.49-2.48 39.83 39.83 0 0 0 1.48-5.62 42.15 42.15 0 0 0 .86-5.82 21.38 21.38 0 0 0-.35-3 25.7 25.7 0 0 1-.43-3.57 21.59 21.59 0 0 1 .21-3.43 16.8 16.8 0 0 1 .94-3.31 18.23 18.23 0 0 1 1.74-3.06 7.32 7.32 0 0 0 1.43-5 12.06 12.06 0 0 1 .18-3.1 3.94 3.94 0 0 1 1.55-2.26 5.62 5.62 0 0 1 1.37-.62 1.68 1.68 0 0 1 1.48.15l.54.36.11.64a1.54 1.54 0 0 1-1.1 1.73l-.49.4a1.25 1.25 0 0 0-.12.34 16 16 0 0 0 .79 2.93 42 42 0 0 1 1.24 4.07 11.07 11.07 0 0 1 .16 3 11.25 11.25 0 0 1-.8 2.91 8.81 8.81 0 0 0-.57 2 8.42 8.42 0 0 0 .08 2.06A23.92 23.92 0 0 1 110 100a53.25 53.25 0 0 1-.46 5.72c-.31 2.59-.49 4.74-.48 5.15a15.53 15.53 0 0 1-.18 2.44 16.73 16.73 0 0 1-.63 2.4 7.14 7.14 0 0 0-.21 2.08 21.64 21.64 0 0 0 .59 3.42 41.35 41.35 0 0 1 .85 4.43c0 .37.09.82.12 1.29.09 1.12.13 2.33.12 3.15a43.89 43.89 0 0 1-.33 4.42c-.17 1.22-.56 3.2-.87 4.41a32.92 32.92 0 0 0-.73 4.06 34 34 0 0 0-.1 4.18 5 5 0 0 0 .85 2.49 11.19 11.19 0 0 0 4.37.93c1 0 2 .07 3 .08 1.34 0 2.53 0 3.11-.06 1.08-.1 2.85-.34 3.93-.55s2.85-.64 3.94-1a17.74 17.74 0 0 1 4.67-.58 20.66 20.66 0 0 1 4.85.9 5.35 5.35 0 0 0 1.55.28 3 3 0 0 0-.14-.92 18.18 18.18 0 0 1-.7-4.3 14.91 14.91 0 0 1 .62-4.09 10.51 10.51 0 0 0 .43-2.95 11 11 0 0 0-.65-3 10 10 0 0 1-.61-4.18 11.37 11.37 0 0 1 1.46-4.09 12.17 12.17 0 0 0 1.26-3 9.44 9.44 0 0 0 .07-2.89c-.18-1-.49-4.9-.72-8.83-.2-3.46-.34-7.73-.23-8.9.1-1 .36-2.64.58-3.64s.5-3.19.67-5a54.06 54.06 0 0 0 .11-6.71 43.77 43.77 0 0 0-.55-5c-.2-.89-.62-2.41-.92-3.3a22.33 22.33 0 0 1-.88-3.76 20.81 20.81 0 0 1-.06-3.79c.09-1 .34-2.63.55-3.63s.64-2.62 1-3.62a13.44 13.44 0 0 0 .53-3 13.12 13.12 0 0 0-.37-3c-.27-1-.73-3.42-1-5.38a35.68 35.68 0 0 1-.41-5.61c0-.42.07-.94.14-1.5.11-.9.25-1.85.39-2.52a4.28 4.28 0 0 0 0-1.46 2.3 2.3 0 0 0-.78 0 12.51 12.51 0 0 1-3.69.18 11.18 11.18 0 0 1-3.42-1.14 4.55 4.55 0 0 0-1.92-.49 5.25 5.25 0 0 0-2 .76 9.27 9.27 0 0 1-3.38 1.37 7.73 7.73 0 0 1-3.51-.44 6.73 6.73 0 0 0-2.15-.41 7.17 7.17 0 0 0-2.18.5 10 10 0 0 1-3.32.76 9.85 9.85 0 0 1-3.33-.63c-.71-.28-1.9-.69-2.6-.9s-1.89-.47-2.58-.59a24.34 24.34 0 0 0-2.7-.27c-.8 0-2.19 0-3.05.08a2.83 2.83 0 0 0-1.59.84 8 8 0 0 0-.94 3c-.15 1.41-.72 4.6-1.28 7.12a73.11 73.11 0 0 1-2.69 8.92 51.92 51.92 0 0 0-2 6.17 26 26 0 0 0-.42 4.28 38.26 38.26 0 0 1-.35 4.8c-.19 1.27-1.33 6.25-2.54 11.1s-2.58 9.79-3 11c-.22.57-.51 1.28-.81 2s-.67 1.52-.94 2.06c-.51 1-1.39 2.6-2 3.46a4.59 4.59 0 0 1-3.25 2.2 4.75 4.75 0 0 1-3.35-2.07 15.15 15.15 0 0 1-1.91-3.81 21 21 0 0 1-.85-4.59c-.05-1.24-.22-3.22-.38-4.42s-.51-3.13-.77-4.31-1.75-6-3.24-10.61A121.17 121.17 0 0 0 60.93 65a44.86 44.86 0 0 1-2.7-6.56 24.06 24.06 0 0 1-.63-4.87 20 20 0 0 0-.5-4c0-.16-.09-.33-.15-.5a16.61 16.61 0 0 0-1.27-2.93 11.67 11.67 0 0 0-1.74-2.26 2.46 2.46 0 0 0-1-.45c-.72.06-4.35-.25-6.37-.44-2.63-.24-5.9-.6-6.81-.79a27.8 27.8 0 0 1-2.94-.82 6.54 6.54 0 0 0-2.12-.28 7.32 7.32 0 0 0-2.18.67 24.49 24.49 0 0 1-3 1.27 20.52 20.52 0 0 1-3 .72 22.39 22.39 0 0 1-3 .19 45.75 45.75 0 0 1-5.73-.92 15 15 0 0 0-3.35-.37 67 67 0 0 0-1 8.19 76.74 76.74 0 0 0-.37 9.95 19.15 19.15 0 0 0 1 3.16 10.92 10.92 0 0 1 .83 4.11 11.35 11.35 0 0 1-1.09 4.09 7.11 7.11 0 0 0-.65 2.74 7.59 7.59 0 0 0 .86 2.77A9 9 0 0 1 15.17 82a9.62 9.62 0 0 1-1.49 4.23 10 10 0 0 0-1.26 2.91 7.43 7.43 0 0 0 .15 2.76c.29.99.66 2.62.83 3.62z"/><path d="M139.42 47.14a34.71 34.71 0 0 0 .4 5.31c.28 1.91.72 4.25 1 5.2a14.52 14.52 0 0 1 .43 3.47 14.84 14.84 0 0 1-.6 3.47c-.31 1-.72 2.51-.92 3.47s-.43 2.51-.52 3.46a19.35 19.35 0 0 0 .06 3.46 21 21 0 0 0 .81 3.46c.33 1 .76 2.51 1 3.47a44.57 44.57 0 0 1 .58 5.2 55.88 55.88 0 0 1-.11 6.93c-.17 1.91-.49 4.24-.7 5.2s-.45 2.51-.55 3.46 0 4.85.23 8.66.54 7.71.7 8.67a10.76 10.76 0 0 1-.08 3.47 13.62 13.62 0 0 1-1.45 3.46 10 10 0 0 0-1.25 3.46 8.64 8.64 0 0 0 .51 3.46 12.42 12.42 0 0 1 .76 3.47 12 12 0 0 1-.51 3.47 13.37 13.37 0 0 0-.55 3.6 16.71 16.71 0 0 0 .64 3.88c.34 1.1.24 2.29-.21 2.63s-1.85.29-3.1-.13a19.18 19.18 0 0 0-4.43-.83 15.9 15.9 0 0 0-4.2.52c-1.12.33-3 .77-4.08 1s-3 .47-4.08.57c-.65.06-1.88.08-3.25.07v2a6.31 6.31 0 0 0 1.25 3.44c.63.66 3.05 1.29 5.39 1.4s5.18.11 6.3 0 3-.36 4.08-.57 3-.66 4.08-1a15.9 15.9 0 0 1 4.2-.52 19.18 19.18 0 0 1 4.43.83c1.25.41 2.64.47 3.1.13s.55-1.53.21-2.63a16.71 16.71 0 0 1-.64-3.88 13.37 13.37 0 0 1 .55-3.6 12 12 0 0 0 .51-3.47 12.42 12.42 0 0 0-.76-3.47 8.64 8.64 0 0 1-.51-3.46 10 10 0 0 1 1.25-3.46 13.62 13.62 0 0 0 1.45-3.46 10.76 10.76 0 0 0 .08-3.47c-.16-1-.48-4.85-.7-8.67s-.33-7.71-.23-8.66.34-2.51.55-3.46.52-3.29.7-5.2a55.88 55.88 0 0 0 .06-6.95 44.57 44.57 0 0 0-.58-5.2c-.21-1-.65-2.51-1-3.47a21 21 0 0 1-.81-3.46 19.35 19.35 0 0 1-.06-3.46c.09-1 .32-2.51.52-3.46s.61-2.51.92-3.47a14.84 14.84 0 0 0 .6-3.47 14.52 14.52 0 0 0-.43-3.47c-.26-1-.7-3.29-1-5.2a34.71 34.71 0 0 1-.4-5.31 33.28 33.28 0 0 1 .5-3.81 4.16 4.16 0 0 0-.24-2.76 2.58 2.58 0 0 0-2.3-.44 11.14 11.14 0 0 1-3.18.16 9.78 9.78 0 0 1-2.89-1 4.51 4.51 0 0 0-.5-.22 6.67 6.67 0 0 0-1-.31c.04.6 0 1.1-.03 1.49zM76.79 84A123.07 123.07 0 0 0 72 71.32a44.05 44.05 0 0 1-2.59-6.27 22.29 22.29 0 0 1-.58-4.5 21.57 21.57 0 0 0-.55-4.38 17.77 17.77 0 0 0-1.59-3.82 12.89 12.89 0 0 0-2.05-2.63 3.37 3.37 0 0 0-2-.81c-.33 0-1.6-.06-3.22-.18l-1.07-.08c.07.2.13.4.17.58a21.57 21.57 0 0 1 .55 4.38 22.29 22.29 0 0 0 .58 4.5 44.05 44.05 0 0 0 2.59 6.27A123.07 123.07 0 0 1 67.08 77c1.53 4.7 3 9.54 3.28 10.74s.63 3.2.8 4.44.34 3.29.39 4.56a19.69 19.69 0 0 0 .69 4.2 13.65 13.65 0 0 0 1.68 3.36 3.42 3.42 0 0 0 2.08 1.48 3.23 3.23 0 0 0 2-1.52c.54-.83 1.38-2.32 1.87-3.31.26-.52.59-1.25.91-2-.08-.55-.18-1.21-.3-1.88-.15-.86-.32-1.73-.47-2.38-.22-1.19-1.69-6.02-3.22-10.69zM108 125.8a39.42 39.42 0 0 0-.82-4.24 23 23 0 0 1-.64-3.72 8.36 8.36 0 0 1 .3-2.67 15.21 15.21 0 0 0 .56-2.15 14 14 0 0 0 .16-2.16c0-.59.21-3 .49-5.36a53.27 53.27 0 0 0 .45-5.45 22.22 22.22 0 0 0-.31-2.44 9.84 9.84 0 0 1-.09-2.52 10.21 10.21 0 0 1 .69-2.45 9.85 9.85 0 0 0 .68-2.46 9.7 9.7 0 0 0-.13-2.54c-.15-.71-.68-2.45-1.19-3.88a14.51 14.51 0 0 1-.87-3.5 2.23 2.23 0 0 1 .65-1.41 5.94 5.94 0 0 1 .84-.62l.24-.11-.31.06a4.26 4.26 0 0 0-.92.44 2.54 2.54 0 0 0-.85 1.37 10.85 10.85 0 0 0-.14 2.64 8.83 8.83 0 0 1-1.72 5.93 16.75 16.75 0 0 0-1.57 2.76 15.35 15.35 0 0 0-.84 3 20.28 20.28 0 0 0-.19 3.15 24.09 24.09 0 0 0 .4 3.31 22.94 22.94 0 0 1 .38 3.31 42 42 0 0 1-.89 6.16 39.78 39.78 0 0 1-1.59 6 19.59 19.59 0 0 1-1.64 2.74 11.36 11.36 0 0 0-1.44 2.79 11.08 11.08 0 0 0-.4 3.09 7.5 7.5 0 0 1-.63 3 9.63 9.63 0 0 1-2.14 2.6 13.35 13.35 0 0 0-2.33 2.53 9.78 9.78 0 0 0-1.19 2.86 30.6 30.6 0 0 0-.38 3.09c-.05.87-.06 2.31 0 3.2a19.57 19.57 0 0 1-.13 3.17 18 18 0 0 1-.75 3 6 6 0 0 1-1.58 2.27 6.3 6.3 0 0 1-2.63 1 23.24 23.24 0 0 1-3.15.13 23.73 23.73 0 0 1-3.16-.39 29.59 29.59 0 0 0-3.16-.44 28.77 28.77 0 0 0-3.16 0h-.59c.16.31.3.61.4.85l.05.13a15.2 15.2 0 0 1 .74 2.52 4.5 4.5 0 0 0 1 2.1 4.88 4.88 0 0 0 2.18 1 27.63 27.63 0 0 0 2.85.32h3.05a28.77 28.77 0 0 1 3.16 0 29.59 29.59 0 0 1 3.16.44 23.73 23.73 0 0 0 3.16.39 23.24 23.24 0 0 0 3.15-.13 6.3 6.3 0 0 0 2.63-1 6 6 0 0 0 1.58-2.27 18 18 0 0 0 .75-3 19.57 19.57 0 0 0 .13-3.17v-3.2a30.6 30.6 0 0 1 .38-3.09 9.78 9.78 0 0 1 1.15-2.88 13.35 13.35 0 0 1 2.31-2.55 9.63 9.63 0 0 0 2.14-2.6 7.5 7.5 0 0 0 .63-3 11.34 11.34 0 0 1 .24-2.45c0-.23.1-.45.16-.64a10.2 10.2 0 0 1 .73-1.64c.04-.44-.04-.86-.04-1.22zM56.41 134.67c.21-1.28.44-3.38.52-4.67 0-.52 0-1.17.05-1.84a4.94 4.94 0 0 1-.25-.62 8 8 0 0 1-.16-3.16 13.69 13.69 0 0 0 .16-1.56c-.07-.62-.14-1.19-.2-1.59a16.58 16.58 0 0 0-.7-2.79 8.61 8.61 0 0 1-.41-1.51 15.67 15.67 0 0 0-.95-1.57 20.62 20.62 0 0 0-2.26-2.56 6.88 6.88 0 0 1-1.7-2.72 7.11 7.11 0 0 1 .14-3.24 10.51 10.51 0 0 0 .35-3.34 15.16 15.16 0 0 0-1.66-4.34c-.83-1.53-1.78-3.42-2.1-4.21a18.22 18.22 0 0 1-.87-3 19.29 19.29 0 0 1-.26-3.13 8.56 8.56 0 0 0-.61-3 9.57 9.57 0 0 0-1.79-2.52c-.64-.61-1.25-.87-1.36-.6a10.92 10.92 0 0 0-.35 1.58 12 12 0 0 0-.16 2.07 7.84 7.84 0 0 0 .39 2 9.83 9.83 0 0 0 1 2 4.89 4.89 0 0 1 .79 2 4.81 4.81 0 0 1-.4 2.08 11.45 11.45 0 0 0-.71 2.13 9.87 9.87 0 0 0-.14 2.13 7.48 7.48 0 0 0 .54 2.12 10.93 10.93 0 0 0 1.33 2.1 6.81 6.81 0 0 1 1.19 2.09 5 5 0 0 1 0 2.16 8.24 8.24 0 0 0-.22 2.18 8.54 8.54 0 0 0 .5 2.16 16.58 16.58 0 0 1 .7 2.79c.15.94.33 2.77.41 4.07s.07 3.41 0 4.71-.3 3.41-.52 4.7a41.41 41.41 0 0 0-.45 4.7 41 41 0 0 0 .21 4.7 29.35 29.35 0 0 1 .09 4.61 27.51 27.51 0 0 1-.79 4.45 8.79 8.79 0 0 1-1.85 3.36 6 6 0 0 1-3.08 1.36 23.53 23.53 0 0 1-3.79 0 28.81 28.81 0 0 1-4-.76 12.15 12.15 0 0 0-4.09-.29 14.36 14.36 0 0 0-4.1 1.41 14.12 14.12 0 0 1-3 1.15v1a8.25 8.25 0 0 0 .15 1.04 6.51 6.51 0 0 0 1.47 2.78 9.47 9.47 0 0 0 3.08 1.82 10.74 10.74 0 0 0 3.94.44 13.37 13.37 0 0 0 4.05-1.35 14.36 14.36 0 0 1 4.1-1.41 12.15 12.15 0 0 1 4.09.29 28.81 28.81 0 0 0 4 .76 23.53 23.53 0 0 0 3.79 0 6 6 0 0 0 3.08-1.36 8.79 8.79 0 0 0 1.85-3.36 27.51 27.51 0 0 0 .79-4.45 29.35 29.35 0 0 0-.09-4.61 41 41 0 0 1-.21-4.7 41.41 41.41 0 0 1 .47-4.68z"/></svg>