<svg xmlns="http://www.w3.org/2000/svg" width="127.05" height="200" viewBox="0 0 127.05 200"><title>_</title><path d="M9.43 98.75a35.72 35.72 0 0 1 1 3.66 32.89 32.89 0 0 1 .49 3.67c.06.9.35 3.22.64 5.06s.61 4.34.67 5.34a34.12 34.12 0 0 1 0 3.66 28.28 28.28 0 0 1-.57 3.7 31.21 31.21 0 0 1-1.17 3.68 22 22 0 0 0-1 3.2 19.48 19.48 0 0 0-.3 3.17c0 1-.13 3.38-.3 5.34a29 29 0 0 0-.05 4.77 13.16 13.16 0 0 0 .81 2.78 7.39 7.39 0 0 0 1.63 2.12 11.85 11.85 0 0 0 2.91 1.59 15.25 15.25 0 0 0 3.34.69h.32a16.92 16.92 0 0 0 3.84-.46 36.58 36.58 0 0 1 4.58-.85c1.25-.13 5.25-.19 8.92-.13 3.92.06 6.45-.46 6.79-.68a5 5 0 0 0 .85-2.32c.11-1.17.19-5.14.19-8.67a84.12 84.12 0 0 1 .36-9 17.17 17.17 0 0 0 .07-4 19.05 19.05 0 0 0-1.07-4 18.72 18.72 0 0 1-1.18-4.51 11.46 11.46 0 0 1 .44-4.11 8.4 8.4 0 0 0 .37-2.59 8.68 8.68 0 0 0-.7-2.55 9.32 9.32 0 0 1-.37-7.48 14 14 0 0 0 .65-2.83 13.13 13.13 0 0 0-.14-2.85c-.33-1.79-.08-2.91.76-3.4s2.07-.1 3.27 1.38c.57.71 1.81 2.45 2.77 3.87s2.06 3 2.56 3.59a28.45 28.45 0 0 0 1.94 2.1c.34.32.76.77 1.18 1.25s.74.87 1 1.22c.61.82 2.07 3.39 3.14 5.4 1.19 2.24 2.43 4.72 2.78 5.53s.84 2.2 1.1 3.07a21.59 21.59 0 0 0 1 2.64c.3.61 1.6 2.75 3.06 4.94a49 49 0 0 0 3.4 4.63 17 17 0 0 0 2.19 1.81 9.33 9.33 0 0 1 2.57 2.73 10 10 0 0 1 1.05 3.66 7.27 7.27 0 0 0 .67 2.41 6.48 6.48 0 0 0 1.62 1.73 13.19 13.19 0 0 1 2.65 2.52 14 14 0 0 1 1.72 3.29 3.3 3.3 0 0 0 1.23 1.5 13.71 13.71 0 0 0 4.11.15l.83-.08c2.34-.26 5.24-.71 6.35-1a25.74 25.74 0 0 1 4.58-.62 78.06 78.06 0 0 1 9 .94 25.1 25.1 0 0 0 6.87.31 3.17 3.17 0 0 0 .62-1.62 31.77 31.77 0 0 0 0-3.59 27.26 27.26 0 0 0-.5-3.35 17.06 17.06 0 0 1-.36-3.87 17.69 17.69 0 0 1 .7-3.85 11.05 11.05 0 0 0 .43-3 11.39 11.39 0 0 0-.61-3 32 32 0 0 1-1.11-3.67 29.43 29.43 0 0 1-.53-3.69c-.07-1-.08-2.64 0-3.64s.23-2.63.39-3.64a27.37 27.37 0 0 0 .3-3.25 26.91 26.91 0 0 0-.18-3.24 17.46 17.46 0 0 1 0-3.85 19.16 19.16 0 0 1 1-3.82 18.7 18.7 0 0 0 .87-3.15c.11-.65 0-5.3-.39-11.37L115 76.4a108.44 108.44 0 0 1 0-15.46 34.28 34.28 0 0 0 .31-6.47 16 16 0 0 0-1-3.1 16.83 16.83 0 0 1-1.22-3.7 10.15 10.15 0 0 1-.12-1.54 10.31 10.31 0 0 1 .14-2 2.18 2.18 0 0 0-.27-1.33 6.42 6.42 0 0 0-2.11-1.4 14.16 14.16 0 0 0-3.51-.83 15.64 15.64 0 0 0-3.79.32 27.54 27.54 0 0 1-4.66.57 27.45 27.45 0 0 1-4.66-.4 40.17 40.17 0 0 0-4.28-.52 45.07 45.07 0 0 0-4.53 0 4.72 4.72 0 0 0-2.4.87c-.2.62-.54 4.4-.2 10.28l.16 2.79c.29 4.91.49 10.95.31 12.46-.15 1.26-.53 3.32-.84 4.59a12.82 12.82 0 0 0-.33 3.6 8.41 8.41 0 0 0 1 2.8 16.61 16.61 0 0 1 1.5 3.47c.38 1.31.42 6.93.35 10.39 0 1-.06 2-.1 2.93-.31 6.22-.82 6.73-1.69 7.1-1.53.65-3.36-.93-3.71-1.25a14.35 14.35 0 0 1-2.49-3.14 11.83 11.83 0 0 1-1.16-3.67 8.31 8.31 0 0 0-.75-2.43 7.55 7.55 0 0 0-1.6-1.83 17.17 17.17 0 0 1-2.47-2.4 16.14 16.14 0 0 1-1.78-2.88c-.36-.79-1.13-2.79-1.71-4.45A21 21 0 0 0 65.68 76a10.85 10.85 0 0 0-1.83-1.87 17.92 17.92 0 0 1-2.49-2.37 16.58 16.58 0 0 1-1.83-2.83c-.34-.69-1.34-2.43-2.18-3.8a39.67 39.67 0 0 0-2.44-3.54c-.5-.59-1.42-1.55-2-2.1a15.6 15.6 0 0 1-2.17-2.64 36.78 36.78 0 0 1-2.3-6.17c-.31-1-.67-2.16-1-3.16a19 19 0 0 0-1-2.38 14.7 14.7 0 0 0-1.75-2.26 6.32 6.32 0 0 0-2.21-1.3 74.52 74.52 0 0 0-11.07.56l-1.65.17c-5 .5-11 .95-12.45.83a26.72 26.72 0 0 1-4.91-1 6.2 6.2 0 0 0-1.79-.27 2.15 2.15 0 0 0-.67.07 2.45 2.45 0 0 0-.55 1.39 35.24 35.24 0 0 0 0 3.67c.06 1 .57 4.11 1.11 6.87a52.94 52.94 0 0 1 1 7.24 23.88 23.88 0 0 1-.42 3.75 20.72 20.72 0 0 0-.36 3.18 20.38 20.38 0 0 0 .28 3.22 16.93 16.93 0 0 1 .16 3.87 18.2 18.2 0 0 1-.9 3.87 31.71 31.71 0 0 0-1 3.28 63.56 63.56 0 0 0-.64 6.68 50.43 50.43 0 0 0 0 6.61 23.3 23.3 0 0 0 .81 3.18z"/><path d="M76.61 82.08a12.15 12.15 0 0 0-2.15-2.19 16.45 16.45 0 0 1-2.25-2.13 15.18 15.18 0 0 1-1.64-2.53c-.37-.75-1.38-2.52-2.26-3.93a40.45 40.45 0 0 0-2.57-3.72c-.54-.64-1.49-1.63-2.11-2.22A14.1 14.1 0 0 1 61.71 63a36.24 36.24 0 0 1-2.14-5.8 39.53 39.53 0 0 0-2.14-5.88 16 16 0 0 0-2-2.55 7.79 7.79 0 0 0-2.86-1.69 13.37 13.37 0 0 0-2.75-.1h-1c.35 1 .73 2.13 1.05 3.24A36.24 36.24 0 0 0 52 56.08a14.1 14.1 0 0 0 1.93 2.34C54.55 59 55.5 60 56 60.64a40.45 40.45 0 0 1 2.57 3.72c.87 1.41 1.89 3.18 2.26 3.93a15.18 15.18 0 0 0 1.64 2.53 16.45 16.45 0 0 0 2.25 2.13 12.15 12.15 0 0 1 2.15 2.19 21.87 21.87 0 0 1 1.9 4.16c.56 1.61 1.31 3.55 1.66 4.32A14.69 14.69 0 0 0 72 86.18a15.78 15.78 0 0 0 2.22 2.15 9 9 0 0 1 2 2.29 9.69 9.69 0 0 1 .93 3 10.52 10.52 0 0 0 1 3.13 12.82 12.82 0 0 0 2.18 2.75 2.82 2.82 0 0 0 2.11 1c.31-.13.62-2.55.78-5.79-.33-.3-.66-.63-1-.94s-.39-.42-.53-.6a14.69 14.69 0 0 1-1.59-2.56c-.35-.76-1.1-2.7-1.66-4.32a21.87 21.87 0 0 0-1.83-4.21zM115.67 151c-.67.47-4.21.42-7.86-.12A81.42 81.42 0 0 0 99 150a24 24 0 0 0-4.25.58c-1.17.29-4.11.75-6.54 1l-.89.08c.33.3.65.61.93.92s.3.34.42.49a12.54 12.54 0 0 1 1.5 2.87 4.77 4.77 0 0 0 1.95 2.34c.77.4 3.38.51 5.8.24s5.37-.73 6.54-1a24 24 0 0 1 4.25-.58 81.42 81.42 0 0 1 8.77.92c3.66.54 7.19.59 7.86.12a4.17 4.17 0 0 0 1.34-2.81 33.17 33.17 0 0 0 0-3.79 28.74 28.74 0 0 0-.54-3.58 15.56 15.56 0 0 1-.32-3.47 16.11 16.11 0 0 1 .63-3.47 12.48 12.48 0 0 0 .5-3.46 12.86 12.86 0 0 0-.71-3.46 30.55 30.55 0 0 1-1-3.46 27.74 27.74 0 0 1-.5-3.47c-.06-1-.08-2.51 0-3.47s.22-2.51.38-3.47a23.39 23.39 0 0 0 .12-6.93 16.11 16.11 0 0 1 0-3.46 17.73 17.73 0 0 1 .9-3.46 20.31 20.31 0 0 0 1-3.46 114.09 114.09 0 0 0-.46-11.76l-.51-7.76a107.37 107.37 0 0 1 0-15.18 34.26 34.26 0 0 0 .3-6.93 17.34 17.34 0 0 0-1.16-3.47 15.43 15.43 0 0 1-1.1-3.31 9.78 9.78 0 0 1 0-3 3.63 3.63 0 0 0-.54-2.52 7.64 7.64 0 0 0-2.76-1.83 15.51 15.51 0 0 0-4-.94 12.94 12.94 0 0 0-1.57 0l-1 .08a8.84 8.84 0 0 0 .1 1.3 15.43 15.43 0 0 0 1.1 3.31 17.34 17.34 0 0 1 1.16 3.47 34.26 34.26 0 0 1-.3 6.93 107.37 107.37 0 0 0 0 15.18l.6 7.73a114.09 114.09 0 0 1 .38 11.71 20.31 20.31 0 0 1-1 3.46 17.73 17.73 0 0 0-.9 3.46 16.11 16.11 0 0 0 0 3.46 23.39 23.39 0 0 1-.12 6.93c-.16 1-.33 2.51-.38 3.47s0 2.51 0 3.47a27.74 27.74 0 0 0 .5 3.47 30.55 30.55 0 0 0 1 3.46 12.86 12.86 0 0 1 .71 3.46 12.48 12.48 0 0 1-.5 3.46 16.11 16.11 0 0 0-.63 3.47 15.56 15.56 0 0 0 .32 3.47 28.74 28.74 0 0 1 .54 3.58 33.17 33.17 0 0 1 0 3.79 4.17 4.17 0 0 1-1.25 2.82zM44.52 138.06c0 3.63-.08 7.59-.2 8.81a6.06 6.06 0 0 1-1.41 3.35c-.66.62-4.15 1.08-7.76 1s-7.54 0-8.74.12a34.92 34.92 0 0 0-4.35.81 17.7 17.7 0 0 1-4.27.51h-.39c.1.35.21.7.33 1s.17.45.25.64A8.82 8.82 0 0 0 20 157a13.25 13.25 0 0 0 3.37 1.85 16.4 16.4 0 0 0 4.12.79 17.7 17.7 0 0 0 4.27-.51 34.92 34.92 0 0 1 4.35-.81c1.2-.13 5.13-.18 8.74-.12s7.1-.4 7.76-1a6.06 6.06 0 0 0 1.39-3.39c.11-1.22.2-5.19.2-8.81a84.47 84.47 0 0 1 .34-8.79 18.7 18.7 0 0 0 .08-4.38 20.57 20.57 0 0 0-1.17-4.37 17.3 17.3 0 0 1-1.08-4.08 10 10 0 0 1 .37-3.49 9.83 9.83 0 0 0 .45-3.17 10.07 10.07 0 0 0-.84-3.11 7.81 7.81 0 0 1-.31-6.32 15.11 15.11 0 0 0 .55-2.06 11.75 11.75 0 0 0 .19-1.18v-.15c-.38-.43-.77-.85-1.09-1.16a29.76 29.76 0 0 1-2.07-2.24c-.53-.64-1.72-2.31-2.64-3.7s-2.12-3.08-2.67-3.8A2.17 2.17 0 0 0 43 92a2.78 2.78 0 0 0 0 1.84 14.53 14.53 0 0 1 .16 3.26 15.35 15.35 0 0 1-.73 3.24 7.81 7.81 0 0 0 .31 6.32 10.07 10.07 0 0 1 .84 3.11 9.83 9.83 0 0 1-.45 3.17 10 10 0 0 0-.37 3.49 17.3 17.3 0 0 0 1.08 4.08 20.57 20.57 0 0 1 1.17 4.37 18.7 18.7 0 0 1-.08 4.38 84.47 84.47 0 0 0-.41 8.8z"/></svg>