<svg xmlns="http://www.w3.org/2000/svg" width="200" height="200" viewBox="0 0 200 200"><title>_</title><path d="M90.45,54.06a15.08,15.08,0,0,0-1.82-2.36,6.83,6.83,0,0,0-2.43-1.43,70.93,70.93,0,0,0-11.26.55L73.29,51c-4.94.5-10.91,0.94-12.36,0.83a26.14,26.14,0,0,1-4.8-1,6.7,6.7,0,0,0-1.94-.3,2.32,2.32,0,0,0-.89.12,2.61,2.61,0,0,0-.82,1.8,35.93,35.93,0,0,0,0,3.74c0.06,1,.58,4.15,1.12,6.94a53.24,53.24,0,0,1,1,7.14A23.19,23.19,0,0,1,54.19,74a21.35,21.35,0,0,0-.37,3.27,21,21,0,0,0,.26,3.27,16.37,16.37,0,0,1,.15,3.74A17.54,17.54,0,0,1,53.37,88a32.58,32.58,0,0,0-1,3.34,63,63,0,0,0-.65,6.76,49.76,49.76,0,0,0,0,6.72,23.81,23.81,0,0,0,.83,3.3h0a34.93,34.93,0,0,1,1,3.59,32.29,32.29,0,0,1,.48,3.6c0.06,0.91.35,3.25,0.65,5.11s0.6,4.31.66,5.29a33.65,33.65,0,0,1,0,3.59,27.67,27.67,0,0,1-.55,3.62,30.84,30.84,0,0,1-1.15,3.61,22.51,22.51,0,0,0-1,3.29,20.09,20.09,0,0,0-.31,3.27c0,1-.13,3.35-0.3,5.29a28.93,28.93,0,0,0-.07,4.87,13.59,13.59,0,0,0,.85,2.91,7.88,7.88,0,0,0,1.76,2.3,12.25,12.25,0,0,0,3.07,1.67,15.82,15.82,0,0,0,3.47.71l0.34,0a17.05,17.05,0,0,0,4-.47,36,36,0,0,1,4.5-.84c1.23-.13,5.21-0.19,8.86-0.13,3.9,0.06,6.64-.46,7.08-0.77a5.2,5.2,0,0,0,1.07-2.69c0.11-1.18.2-5.17,0.19-8.72a83.54,83.54,0,0,1,.36-8.95,17.79,17.79,0,0,0,.07-4.1,19.61,19.61,0,0,0-1.11-4.12,18.16,18.16,0,0,1-1.15-4.36,11,11,0,0,1,.42-3.91,8.89,8.89,0,0,0,.39-2.78,9.13,9.13,0,0,0-.75-2.74,8.81,8.81,0,0,1-.35-7.1,14.34,14.34,0,0,0,.68-3,13.54,13.54,0,0,0-.14-3c-0.43-2.32.29-2.74,0.52-2.88,0.73-.42,1.61,0,2.63,1.27,0.56,0.7,1.79,2.42,2.74,3.84s2.08,3,2.59,3.63a29.19,29.19,0,0,0,2,2.15c0.32,0.31.73,0.74,1.15,1.22s0.72,0.85,1,1.19c0.59,0.8,2,3.34,3.1,5.34,1.18,2.23,2.42,4.69,2.76,5.49s0.83,2.16,1.08,3a22.17,22.17,0,0,0,1.05,2.71c0.31,0.63,1.63,2.79,3.1,5a48.3,48.3,0,0,0,3.46,4.7,17.61,17.61,0,0,0,2.27,1.87,8.9,8.9,0,0,1,2.41,2.56,9.6,9.6,0,0,1,1,3.45,7.76,7.76,0,0,0,.74,2.62,7,7,0,0,0,1.77,1.9,12.61,12.61,0,0,1,2.53,2.41,13.46,13.46,0,0,1,1.65,3.15,3.79,3.79,0,0,0,1.47,1.78,12.91,12.91,0,0,0,4.37.21l0.85-.08c2.36-.26,5.29-0.72,6.41-1a25.13,25.13,0,0,1,4.47-.61,77.7,77.7,0,0,1,8.95.93c3.9,0.57,6.71.48,7.19,0.26a3.34,3.34,0,0,0,.87-2,32.54,32.54,0,0,0,0-3.65,28.06,28.06,0,0,0-.51-3.43,16.4,16.4,0,0,1-.35-3.73,17,17,0,0,1,.67-3.72,11.46,11.46,0,0,0,.45-3.13,11.82,11.82,0,0,0-.64-3.14,31.4,31.4,0,0,1-1.08-3.6,28.83,28.83,0,0,1-.52-3.62c-0.07-1-.08-2.6,0-3.58s0.22-2.6.39-3.58a22.43,22.43,0,0,0,.12-6.64,16.89,16.89,0,0,1,0-3.72,18.54,18.54,0,0,1,1-3.7,19.47,19.47,0,0,0,.9-3.26c0.12-.77,0-5.67-0.39-11.49L159,85.52a107.93,107.93,0,0,1,0-15.37,34.26,34.26,0,0,0,.31-6.62,16.34,16.34,0,0,0-1.08-3.22,16.2,16.2,0,0,1-1.18-3.57,9.68,9.68,0,0,1-.12-1.46,9.82,9.82,0,0,1,.13-1.9,2.64,2.64,0,0,0-.36-1.73,6.79,6.79,0,0,0-2.32-1.56,14.49,14.49,0,0,0-3.67-.86,16.18,16.18,0,0,0-3.93.33,22,22,0,0,1-9.11.17,40.67,40.67,0,0,0-4.34-.53,45.55,45.55,0,0,0-4.59,0,4.85,4.85,0,0,0-2.8,1.1c-0.3.6-.61,4.78-0.27,10.58l0.16,2.79c0.29,5,.49,10.94.31,12.37-0.15,1.25-.52,3.29-0.83,4.54a13.24,13.24,0,0,0-.3,3.74,8.9,8.9,0,0,0,1,3,16,16,0,0,1,1.53,3.35c0.32,1.11.41,6.11,0.33,10.24,0,1-.06,2-0.1,2.92-0.31,6.21-.84,6.43-1.39,6.66-1.28.54-3-1-3.17-1.16a13.76,13.76,0,0,1-2.38-3,11.47,11.47,0,0,1-1.1-3.49,8.78,8.78,0,0,0-.81-2.61,8,8,0,0,0-1.73-2A16.64,16.64,0,0,1,114.85,96a15.6,15.6,0,0,1-1.72-2.77c-0.36-.79-1.12-2.76-1.7-4.4a21.23,21.23,0,0,0-1.77-3.91,11.27,11.27,0,0,0-1.94-2,17.35,17.35,0,0,1-2.41-2.29,16,16,0,0,1-1.77-2.73c-0.35-.71-1.36-2.47-2.21-3.84a40,40,0,0,0-2.48-3.6c-0.51-.6-1.44-1.58-2-2.14a15,15,0,0,1-2.09-2.54,36.86,36.86,0,0,1-2.25-6c-0.31-1-.67-2.16-1-3.19A18.91,18.91,0,0,0,90.45,54.06Z" fill="#231f20"/><path d="M93.45,59.43a36.21,36.21,0,0,0,2.14,5.8,14.09,14.09,0,0,0,1.93,2.34c0.62,0.58,1.57,1.58,2.11,2.22a40.43,40.43,0,0,1,2.57,3.72c0.87,1.41,1.89,3.18,2.26,3.93A15.18,15.18,0,0,0,106.09,80a16.45,16.45,0,0,0,2.25,2.13,12.15,12.15,0,0,1,2.15,2.19,21.87,21.87,0,0,1,1.9,4.16c0.56,1.61,1.31,3.55,1.66,4.32a14.69,14.69,0,0,0,1.59,2.56,15.77,15.77,0,0,0,2.22,2.15,9,9,0,0,1,2,2.29,9.7,9.7,0,0,1,.93,3,10.52,10.52,0,0,0,1,3.13,12.82,12.82,0,0,0,2.18,2.75,2.82,2.82,0,0,0,2.11,1c0.31-.13.62-2.55,0.78-5.79-0.33-.3-0.66-0.63-1-0.94s-0.39-.42-0.53-0.6a14.69,14.69,0,0,1-1.59-2.56c-0.35-.76-1.1-2.7-1.66-4.32a21.87,21.87,0,0,0-1.9-4.16A12.15,12.15,0,0,0,118,89a16.45,16.45,0,0,1-2.25-2.13,15.18,15.18,0,0,1-1.64-2.53c-0.37-.75-1.38-2.52-2.26-3.93a40.43,40.43,0,0,0-2.57-3.72c-0.54-.64-1.49-1.63-2.11-2.22a14.09,14.09,0,0,1-1.93-2.34,36.21,36.21,0,0,1-2.14-5.8A39.54,39.54,0,0,0,101,60.49a16,16,0,0,0-2-2.55,7.79,7.79,0,0,0-2.86-1.69,13.37,13.37,0,0,0-2.75-.1l-1,0C92.75,57.18,93.12,58.32,93.45,59.43Z" fill="#231f20"/><path d="M158.05,56.57a15.42,15.42,0,0,0,1.1,3.31,17.34,17.34,0,0,1,1.16,3.47,34.25,34.25,0,0,1-.3,6.93,107.33,107.33,0,0,0,0,15.18l0.51,7.76a114.11,114.11,0,0,1,.38,11.71,20.3,20.3,0,0,1-1,3.46,17.74,17.74,0,0,0-.9,3.46,16.11,16.11,0,0,0,0,3.46,23.39,23.39,0,0,1-.12,6.93c-0.16,1-.33,2.51-0.38,3.47s0,2.51,0,3.47a27.74,27.74,0,0,0,.5,3.47,30.55,30.55,0,0,0,1,3.46,12.85,12.85,0,0,1,.71,3.46,12.48,12.48,0,0,1-.5,3.46,16.11,16.11,0,0,0-.63,3.47A15.56,15.56,0,0,0,160,150a28.74,28.74,0,0,1,.54,3.58,33.17,33.17,0,0,1,0,3.79,4.17,4.17,0,0,1-1.34,2.81c-0.67.47-4.21,0.42-7.86-.12a81.42,81.42,0,0,0-8.77-.92,24,24,0,0,0-4.25.58c-1.17.29-4.11,0.75-6.54,1l-0.89.08c0.33,0.3.65,0.61,0.93,0.92s0.3,0.34.42,0.49a12.54,12.54,0,0,1,1.5,2.87,4.77,4.77,0,0,0,1.95,2.34c0.77,0.4,3.38.51,5.8,0.24s5.37-.73,6.54-1a24,24,0,0,1,4.25-.58,81.42,81.42,0,0,1,8.77.92c3.66,0.54,7.19.59,7.86,0.12a4.17,4.17,0,0,0,1.34-2.81,33.17,33.17,0,0,0,0-3.79,28.74,28.74,0,0,0-.54-3.58,15.56,15.56,0,0,1-.32-3.47,16.11,16.11,0,0,1,.63-3.47,12.48,12.48,0,0,0,.5-3.46,12.85,12.85,0,0,0-.71-3.46,30.55,30.55,0,0,1-1-3.46,27.74,27.74,0,0,1-.5-3.47c-0.06-1-.08-2.51,0-3.47s0.22-2.51.38-3.47a23.39,23.39,0,0,0,.12-6.93,16.11,16.11,0,0,1,0-3.46,17.74,17.74,0,0,1,.9-3.46,20.3,20.3,0,0,0,1-3.46,114.11,114.11,0,0,0-.38-11.71l-0.51-7.76a107.33,107.33,0,0,1,0-15.18,34.25,34.25,0,0,0,.3-6.93,17.34,17.34,0,0,0-1.16-3.47,15.42,15.42,0,0,1-1.1-3.31,9.78,9.78,0,0,1,0-3,3.62,3.62,0,0,0-.54-2.52,7.64,7.64,0,0,0-2.74-1.89,15.51,15.51,0,0,0-4-.94,12.94,12.94,0,0,0-1.57,0l-1,.08A8.84,8.84,0,0,0,158.05,56.57Z" fill="#231f20"/><path d="M96.38,113.06c-0.38-.43-0.77-0.85-1.09-1.16a29.76,29.76,0,0,1-2.07-2.24c-0.53-.64-1.72-2.31-2.64-3.7s-2.14-3.09-2.68-3.76a2.17,2.17,0,0,0-1.34-1,2.78,2.78,0,0,0,0,1.84,14.53,14.53,0,0,1,.16,3.26,15.35,15.35,0,0,1-.73,3.24,7.81,7.81,0,0,0,.31,6.32,10.07,10.07,0,0,1,.84,3.11,9.84,9.84,0,0,1-.45,3.17,10,10,0,0,0-.37,3.49,17.29,17.29,0,0,0,1.08,4.08A20.57,20.57,0,0,1,88.52,134a18.71,18.71,0,0,1-.08,4.38,84.51,84.51,0,0,0-.34,8.79c0,3.63-.08,7.59-0.2,8.81a6.06,6.06,0,0,1-1.41,3.35c-0.66.62-4.15,1.08-7.76,1s-7.54,0-8.74.12a34.92,34.92,0,0,0-4.35.81,17.7,17.7,0,0,1-4.27.51l-0.39,0c0.1,0.35.21,0.7,0.33,1s0.17,0.45.25,0.64a8.82,8.82,0,0,0,2,2.67A13.25,13.25,0,0,0,67,168a16.4,16.4,0,0,0,4.12.79,17.7,17.7,0,0,0,4.27-.51,34.92,34.92,0,0,1,4.35-.81c1.2-.13,5.13-0.18,8.74-0.12s7.1-.4,7.76-1A6.06,6.06,0,0,0,97.62,163c0.11-1.22.2-5.19,0.2-8.81a84.51,84.51,0,0,1,.34-8.79,18.71,18.71,0,0,0,.08-4.38,20.57,20.57,0,0,0-1.17-4.37A17.29,17.29,0,0,1,96,132.54a10,10,0,0,1,.37-3.49,9.84,9.84,0,0,0,.45-3.17,10.07,10.07,0,0,0-.84-3.11,7.81,7.81,0,0,1-.31-6.32,15.08,15.08,0,0,0,.55-2.06,11.75,11.75,0,0,0,.19-1.18S96.38,113.11,96.38,113.06Z" fill="#231f20"/></svg>