<svg xmlns="http://www.w3.org/2000/svg" width="123.05" height="200" viewBox="0 0 123.05 200"><title>_</title><path d="M3.36 115.08c1.7 5.57 3.29 10.25 3.65 11a29.77 29.77 0 0 0 1.75 3c.55.8 2.08 2.74 3.33 4.23a40.61 40.61 0 0 0 3.56 3.78c.71.59 4.79 3.49 8.72 6.19l.56.38a61.68 61.68 0 0 0 8.23 5 14.34 14.34 0 0 0 3.45.4h.5c1.2 0 2.79.08 3.78.18A37 37 0 0 1 45 150c1 .24 3.58.65 5.65.89s4.91.65 6.05.89a41.57 41.57 0 0 1 4.17 1.15 9.08 9.08 0 0 0 3.22.38 9.18 9.18 0 0 0 3-1.17c1-.66 2.69-1.62 3.72-2.14s5-2.08 8.81-3.5 7.82-2.76 8.92-3a11.79 11.79 0 0 0 2.92-1.16 11.2 11.2 0 0 0 2.3-2 21.91 21.91 0 0 1 2.88-2.87 25.12 25.12 0 0 1 3.55-2.27 7.69 7.69 0 0 0 2.29-1.94 8.24 8.24 0 0 0 1.05-2.91 41.42 41.42 0 0 1 .79-4.13 33.71 33.71 0 0 1 1.25-3.75 36.61 36.61 0 0 1 1.63-3.34 32.66 32.66 0 0 1 2-3 11.08 11.08 0 0 0 1.31-2.4A10.52 10.52 0 0 0 111 111c0-.94.14-2.46.28-3.39s.44-2.43.68-3.32a12.18 12.18 0 0 0 .33-2.71 13 13 0 0 0-.44-2.78 15.26 15.26 0 0 1-.52-3.75 18 18 0 0 1 .56-3.91 16.47 16.47 0 0 0 .48-3.24 88.52 88.52 0 0 0-2-10.23c-1.25-5.23-2.4-9.57-2.7-10.34a67.06 67.06 0 0 0-3.33-6.23 70.4 70.4 0 0 0-3.87-6c-.62-.75-1.76-2-2.49-2.67s-2.76-2.43-4.37-3.69a24.68 24.68 0 0 0-4.46-2.87 16.92 16.92 0 0 0-3.44-.81 17.74 17.74 0 0 1-4.11-1 14.76 14.76 0 0 1-3.44-2.12 6.19 6.19 0 0 0-2.24-1.15 7.1 7.1 0 0 0-2.68.18 11.81 11.81 0 0 1-4.1.36 10.89 10.89 0 0 1-3.8-1.37 11 11 0 0 0-2.67-1.13 9.82 9.82 0 0 0-2.74-.12c-1 .13-2.62.24-3.69.26s-2.83 0-4-.13a13.48 13.48 0 0 0-3.49.28 15 15 0 0 0-3.34 1.4 18.91 18.91 0 0 1-4.18 1.77 18.32 18.32 0 0 1-4.48.48 14.58 14.58 0 0 0-3.45.35 11.52 11.52 0 0 0-2.87 1.31 20.87 20.87 0 0 1-3.57 1.88 24.09 24.09 0 0 1-4 1.08 10.32 10.32 0 0 0-3 1.06c-.44.3-3.09 3.75-6.31 9l-1.05 1.7C9.4 64 6.94 68.29 6.64 69c-.4 1-1.64 3.32-2.7 5.27a31.25 31.25 0 0 0-2.32 5 38.82 38.82 0 0 0-.13 7.46 64 64 0 0 1 .06 8.14 17.41 17.41 0 0 1-1.09 3.82 11.16 11.16 0 0 0-.74 2.76A80 80 0 0 0 2.43 112z"/><path d="M108.71 58.25c-.77-.74-2.78-2.42-4.46-3.75a36.05 36.05 0 0 0-2.52-1.79 15.2 15.2 0 0 0-2.33-1.3l-.45-.16H99c.77.74 1.95 2 2.61 2.8a71.47 71.47 0 0 1 4 6.22 67.06 67.06 0 0 1 3.44 6.46c.35.93 1.59 5.67 2.75 10.53a85.55 85.55 0 0 1 2.07 10.62 18.06 18.06 0 0 1-.54 3.6 16.53 16.53 0 0 0-.51 3.52 13.73 13.73 0 0 0 .46 3.31 14.46 14.46 0 0 1 .5 3.18 13.61 13.61 0 0 1-.39 3.13c-.23.85-.52 2.27-.64 3.14s-.24 2.32-.26 3.22a12 12 0 0 1-.56 3.11 12.5 12.5 0 0 1-1.53 2.81 31 31 0 0 0-1.86 2.83A35.08 35.08 0 0 0 107 123a31.8 31.8 0 0 0-1.18 3.55 39.57 39.57 0 0 0-.75 4 9.63 9.63 0 0 1-1.31 3.58 9.1 9.1 0 0 1-2.84 2.42 23.45 23.45 0 0 0-3.29 2.11A20.53 20.53 0 0 0 95 141.2a12.66 12.66 0 0 1-2.68 2.38 13.21 13.21 0 0 1-3.38 1.35c-1 .23-5 1.56-8.73 3s-7.67 2.94-8.65 3.43-2.59 1.42-3.58 2.06a10.51 10.51 0 0 1-3.68 1.4 10.36 10.36 0 0 1-3.89-.45 39.85 39.85 0 0 0-4-1.1c-1.09-.23-3.76-.62-5.91-.87s-4.79-.66-5.84-.93a35.39 35.39 0 0 0-3.92-.69 38.57 38.57 0 0 0-4.09-.17 16.14 16.14 0 0 1-3.89-.46c-.95-.26-4.77-2.58-8.67-5.24l.32.28c.74.61 4.48 3.28 8.43 6l.39.27c4.09 2.82 8.25 5.35 9.24 5.62a16.14 16.14 0 0 0 3.89.46 38.57 38.57 0 0 1 4.09.17 35.39 35.39 0 0 1 3.92.69c1.05.26 3.68.68 5.84.93s4.82.64 5.91.87a39.85 39.85 0 0 1 4 1.1 10.36 10.36 0 0 0 3.89.45 10.51 10.51 0 0 0 3.68-1.4c1-.64 2.59-1.56 3.58-2.06s4.88-2 8.65-3.43 7.7-2.72 8.73-3a13.21 13.21 0 0 0 3.38-1.35 12.66 12.66 0 0 0 2.68-2.38 20.53 20.53 0 0 1 2.65-2.64 23.45 23.45 0 0 1 3.29-2.11 9.1 9.1 0 0 0 2.84-2.42 9.63 9.63 0 0 0 1.31-3.58 39.57 39.57 0 0 1 .75-4 31.8 31.8 0 0 1 1.18-3.55 35.08 35.08 0 0 1 1.55-3.17 31 31 0 0 1 1.86-2.83 12.5 12.5 0 0 0 1.53-2.81 12 12 0 0 0 .56-3.11c0-.9.14-2.34.26-3.22s.41-2.29.64-3.14a13.61 13.61 0 0 0 .39-3.13 14.46 14.46 0 0 0-.5-3.18 13.73 13.73 0 0 1-.46-3.31 16.53 16.53 0 0 1 .51-3.52 18.06 18.06 0 0 0 .54-3.6 85.55 85.55 0 0 0-2.07-10.62c-1.16-4.86-2.4-9.59-2.75-10.53a67.06 67.06 0 0 0-3.44-6.46 71.47 71.47 0 0 0-4-6.22c-.69-.73-1.87-1.98-2.64-2.73z"/></svg>