<svg xmlns="http://www.w3.org/2000/svg" width="107.6" height="200" viewBox="0 0 107.6 200"><title>_</title><path d="M2.53 144.4a27.13 27.13 0 0 1-.53 3.85 1.91 1.91 0 0 0 0 .94 5.83 5.83 0 0 0 2.06-.06c1.33-.27 3.47-.61 4.78-.74.48 0 1.08-.1 1.7-.13 1.07-.07 2.18-.1 3-.1a32.76 32.76 0 0 1 4.89.45 35.75 35.75 0 0 1 4.79 1.31 14.56 14.56 0 0 0 3.88.75 10.44 10.44 0 0 0 3.46-.66 6.13 6.13 0 0 0 2.17-1.55 4.15 4.15 0 0 0 .49-2.13 17.83 17.83 0 0 1 .29-4.2 26.48 26.48 0 0 1 1.49-4.46 15.37 15.37 0 0 0 1-3.84 13.79 13.79 0 0 0-.3-3.8c-.32-1.24-.72-3.27-.91-4.51s-.38-3.3-.44-4.6a9.67 9.67 0 0 1 .67-4.17c.95-1.82 5-2.33 5.46-2.39a30 30 0 0 1 5.24-.24 11.2 11.2 0 0 1 2.72.87 5.58 5.58 0 0 0 1.65.39 4.86 4.86 0 0 0 1.59-.44 15.72 15.72 0 0 1 2.9-1.06 23.34 23.34 0 0 1 3.39-.5 26.35 26.35 0 0 1 3.72.09 29.89 29.89 0 0 1 3.79.72 9.33 9.33 0 0 0 2.9.22 8.81 8.81 0 0 0 2.67-1 29 29 0 0 1 3.57-1.75 34.51 34.51 0 0 1 4-1.23c1.06-.25 2.77-.75 3.82-1.11s2.73-1 3.76-1.53a11.72 11.72 0 0 0 2.82-2 67.81 67.81 0 0 0 4.67-10.2l2.79-7.11a84.62 84.62 0 0 0 3.72-10.91 21.47 21.47 0 0 0-.09-3.73 19.81 19.81 0 0 0-.88-3.56 20.23 20.23 0 0 0-1.67-3.29 24.37 24.37 0 0 1-2-3.84 23.43 23.43 0 0 1-1.09-4.13 8.78 8.78 0 0 0-1.05-2.84 9.2 9.2 0 0 0-.91-.83c-1.68-1.4-4.81-3.67-8-5.79l-.51-.25a91.48 91.48 0 0 0-9.74-5.93 9.07 9.07 0 0 0-3-.28 18.64 18.64 0 0 1-4 0 18 18 0 0 1-3.9-1.1 11.8 11.8 0 0 0-3-.73 11.83 11.83 0 0 0-3 .27c-1 .26-2.68.57-3.68.7s-2.67.22-3.59.22a23.82 23.82 0 0 1-3.62-.35 26.26 26.26 0 0 1-3.59-1 14.81 14.81 0 0 0-3-.71 13.2 13.2 0 0 0-2.94.1c-.86.15-3.07.71-4.83 1.24a20.65 20.65 0 0 1-5.54.94 12.7 12.7 0 0 1-3.88-1 10.65 10.65 0 0 0-2.83-.8 9.52 9.52 0 0 0-2.79.28c-1 .28-3.28.79-5.16 1.14a35.68 35.68 0 0 1-5.22.62h-.01a25.92 25.92 0 0 1-3.53-.34 2.75 2.75 0 0 0-1.42.14 3.21 3.21 0 0 0-.63 1.38 13.93 13.93 0 0 0-.06 3 16 16 0 0 0 .76 3.1 12.89 12.89 0 0 1 .73 4 13 13 0 0 1-.84 4 12.5 12.5 0 0 0-.73 3 11.4 11.4 0 0 0 .26 3c.29 1.14.89 5.4 1.3 8.85a71.46 71.46 0 0 1 .66 9 21.46 21.46 0 0 1-.79 3.78c-.29.89-.68 2.4-.85 3.29a32 32 0 0 0-.43 3.28 16.62 16.62 0 0 0 .15 3.12 18.7 18.7 0 0 0 .88 3.16 10.64 10.64 0 0 1 .64 4.14 11.63 11.63 0 0 1-1.3 4.08 9.87 9.87 0 0 0-1 2.91 8.29 8.29 0 0 0 .3 2.82 15.32 15.32 0 0 1 .66 3.92 15.18 15.18 0 0 1-.59 3.92 15.83 15.83 0 0 0-.56 3.1c0 .66.37 4.83 1.1 10.11.61 4.32 1.2 9.48 1.14 10.72z"/><path d="M96.14 56.06l-1.06-.71-.51-.35-1.09-.72a7.68 7.68 0 0 1 1.2 1.14A10.12 10.12 0 0 1 96 58.88a21.79 21.79 0 0 0 1 3.81 22.84 22.84 0 0 0 1.84 3.56 21.75 21.75 0 0 1 1.82 3.58 21.41 21.41 0 0 1 1 3.88 23 23 0 0 1 .1 4c-.14 1.17-1.86 6.29-3.87 11.39l-2.79 7.11c-2 5.12-4.25 9.93-5 10.69a13.14 13.14 0 0 1-3.27 2.29c-1.06.5-2.82 1.21-3.9 1.59s-2.87.9-4 1.15a32.81 32.81 0 0 0-3.78 1.17 27.28 27.28 0 0 0-3.34 1.64 10.2 10.2 0 0 1-3.25 1.16 10.66 10.66 0 0 1-3.49-.26 28.22 28.22 0 0 0-3.56-.67 24.6 24.6 0 0 0-3.46-.08 21.88 21.88 0 0 0-3.13.46 14.15 14.15 0 0 0-2.57.94 6.2 6.2 0 0 1-2.29.6 6.09 6.09 0 0 1-2.29-.54 9.79 9.79 0 0 0-2.29-.73 28.68 28.68 0 0 0-4.84.25c-2 .23-4 .95-4.3 1.59a8.37 8.37 0 0 0-.51 3.41c.06 1.24.25 3.24.43 4.45s.57 3.17.87 4.36a15.18 15.18 0 0 1 .35 4.31 16.68 16.68 0 0 1-1.16 4.31 24.68 24.68 0 0 0-1.32 4.11 16.33 16.33 0 0 0-.27 3.78 5.57 5.57 0 0 1-.76 3.1 7.4 7.4 0 0 1-2.83 2.08 12.52 12.52 0 0 1-4 .77 15.88 15.88 0 0 1-4.38-.84 34 34 0 0 0-4.55-1.24 31.08 31.08 0 0 0-4.55-.42c-.79 0-1.91 0-2.94.1q0 .59.07 1v.54a25.36 25.36 0 0 1-.49 3.59 2.6 2.6 0 0 0 .56 2.48 5.37 5.37 0 0 0 3.29.19c1.28-.26 3.36-.59 4.63-.72s3.33-.23 4.58-.23a31.08 31.08 0 0 1 4.55.42 34 34 0 0 1 4.55 1.24 15.88 15.88 0 0 0 4.38.84 12.52 12.52 0 0 0 4-.77 7.4 7.4 0 0 0 2.83-2.08 5.57 5.57 0 0 0 .76-3.1 16.33 16.33 0 0 1 .27-3.78 24.68 24.68 0 0 1 1.36-4.14 16.68 16.68 0 0 0 1.16-4.31 15.18 15.18 0 0 0-.35-4.31c-.3-1.19-.7-3.15-.87-4.36s-.37-3.21-.43-4.45a8.37 8.37 0 0 1 .51-3.41c.33-.64 2.27-1.36 4.3-1.59a28.68 28.68 0 0 1 4.84-.25 9.79 9.79 0 0 1 2.29.73 6.09 6.09 0 0 0 2.29.54 6.2 6.2 0 0 0 2.29-.6 14.15 14.15 0 0 1 2.57-.94 21.88 21.88 0 0 1 3.13-.46 24.6 24.6 0 0 1 3.46.08 28.22 28.22 0 0 1 3.56.67 10.66 10.66 0 0 0 3.49.26 10.2 10.2 0 0 0 3.25-1.16A27.28 27.28 0 0 1 84.9 120a32.81 32.81 0 0 1 3.78-1.17c1.1-.26 2.89-.78 4-1.15s2.84-1.09 3.9-1.59a13.14 13.14 0 0 0 3.27-2.29c.73-.76 3-5.57 5-10.69L107.6 96c2-5.12 3.73-10.22 3.82-11.34a23 23 0 0 0-.1-4 21.41 21.41 0 0 0-1-3.88 21.75 21.75 0 0 0-1.82-3.58 22.84 22.84 0 0 1-1.84-3.56 21.79 21.79 0 0 1-1-3.81 10.12 10.12 0 0 0-1.29-3.45c-.48-.76-4.08-3.51-8.23-6.32z"/></svg>