<svg xmlns="http://www.w3.org/2000/svg" width="125.04" height="200" viewBox="0 0 125.04 200"><title>_</title><path d="M1.39 110c.51.85 1.25 2.23 1.64 3.08s1 2.27 1.26 3.14.71 2.4.92 3.39.49 2.69.62 3.81a20.53 20.53 0 0 0 .77 3.44A19.72 19.72 0 0 0 8.07 130c.52.86 2 3 3.2 4.64a36.56 36.56 0 0 0 3.48 4.14 24.26 24.26 0 0 0 2.82 2.11 30.88 30.88 0 0 0 3.17 1.67c.3.13.66.27 1 .42.83.31 1.72.61 2.32.78a30.6 30.6 0 0 1 3.74 1.35c1 .45 4 2.26 6.9 4.11a46.06 46.06 0 0 0 6.63 3.7 18.11 18.11 0 0 0 3.7.67 31.47 31.47 0 0 0 4-.09 32.39 32.39 0 0 0 3.97-.7 22.11 22.11 0 0 1 4.63-.59 25.66 25.66 0 0 1 4.82.55 24.79 24.79 0 0 0 4 .46 16 16 0 0 0 3.56-.52c1-.3 2.54-.84 3.42-1.2s2.21-1 3-1.41a25.21 25.21 0 0 1 3-1.37 14.61 14.61 0 0 1 2.67-.72 11.59 11.59 0 0 1 1.29-.06 13.63 13.63 0 0 1 1.45.07 20.23 20.23 0 0 1 2.93.61 10.67 10.67 0 0 1 2.94 1.46c1 .79 2.72 3.62 3.45 5l.32.59a37.63 37.63 0 0 0 2.37 3.93 11.84 11.84 0 0 0 1.79 1.64 2.3 2.3 0 0 0 1 .38 2.89 2.89 0 0 0 .84-.8l.13-.19c.69-.95 3.44-4.07 6.4-7.27a72.53 72.53 0 0 0 5.28-6.21 1.27 1.27 0 0 0-.16-.41c-.36-.49-1.15-1.76-1.79-2.89a15.91 15.91 0 0 0-1.66-2.43 7.83 7.83 0 0 0-1.47-1.09 15.93 15.93 0 0 1-2.12-1.4 13.67 13.67 0 0 1-1.74-1.73 5.35 5.35 0 0 1-.84-3.51 19.69 19.69 0 0 1 1.2-4.44 34.42 34.42 0 0 1 2.55-4.92 40.11 40.11 0 0 1 3.57-4.57 17.75 17.75 0 0 0 2.73-4.11 49.25 49.25 0 0 0 1.48-10c.3-4.3.49-8.92.41-10.08a23.22 23.22 0 0 0-.63-3.83c-.3-1.09-.7-2.86-.88-4s-.37-2.89-.43-4a22.73 22.73 0 0 0-1.45-7c-.35-.93-1-2.42-1.45-3.27s-2.87-4.48-5.83-8.69a146.6 146.6 0 0 0-9.91-12.43c-1.1-1.2-2.23-2.38-3.23-3.43-1.46-1.52-2.62-2.68-3-3A28.47 28.47 0 0 0 84.82 44a18.68 18.68 0 0 0-3.17-1.46 22.9 22.9 0 0 0-3.69-.8 42.75 42.75 0 0 1-4.36-.79 42.87 42.87 0 0 1-4.23-1.33 25.91 25.91 0 0 0-3.78-1.07 23 23 0 0 0-3.88-.34c-1.24 0-4.1-.16-6.41-.36a29.31 29.31 0 0 0-5.72 0 41.89 41.89 0 0 0-7 3.17 47.76 47.76 0 0 1-7.75 3.51 18.71 18.71 0 0 1-4.35.35 16.68 16.68 0 0 0-3.5.25 14.47 14.47 0 0 0-3.11 1.14 15.29 15.29 0 0 0-2.67 1.94c-.52.49-3.2 4-6.4 8.6-2.89 4.06-5.93 8.79-6.8 10.5a35.3 35.3 0 0 0-2 4.71 32 32 0 0 0-.75 3.57c-.16 1.13-.49 2.94-.75 4s-.76 2.88-1.11 4-1 3.57-1.41 5.65a46.55 46.55 0 0 0-.86 5.46 22.72 22.72 0 0 0 .13 3.11 20.42 20.42 0 0 1 .1 3.51 22.84 22.84 0 0 1-.61 3.57 8.41 8.41 0 0 0-.2 2.64 8.22 8.22 0 0 0 .85 2.47z"/><path d="M114.78 71a148.6 148.6 0 0 0-10-12.58c-2.72-2.95-5.6-5.9-6.38-6.57a30 30 0 0 0-3-2.2c-.4-.22-.86-.45-1.33-.65a19.69 19.69 0 0 0-2.23-1h-.06c1 1 2.14 2.24 3.25 3.45a148.6 148.6 0 0 1 10 12.58c2.8 4 5.47 8 5.93 8.86s1.15 2.45 1.53 3.43a24.33 24.33 0 0 1 1.55 7.42c.05 1.05.24 2.77.41 3.82s.55 2.76.84 3.8a24.67 24.67 0 0 1 .68 4.14c.08 1.24-.1 5.87-.41 10.29s-1 9.13-1.6 10.47a19.31 19.31 0 0 1-3 4.54 38.43 38.43 0 0 0-3.41 4.37 32.75 32.75 0 0 0-2.41 4.66 18.34 18.34 0 0 0-1.1 4 4 4 0 0 0 .52 2.43 12.32 12.32 0 0 0 1.51 1.51A14.57 14.57 0 0 0 108 139a9.24 9.24 0 0 1 1.83 1.35 16.9 16.9 0 0 1 1.9 2.75c.61 1.07 1.37 2.3 1.69 2.73a2.6 2.6 0 0 1 .46 1.65c-.07.48-2.63 3.58-5.68 6.89-2.91 3.15-5.64 6.25-6.29 7.14.18.31.36.64.54 1l.14.24a41.51 41.51 0 0 0 2.86 4.78 13.21 13.21 0 0 0 2.08 1.9 3.38 3.38 0 0 0 2.19.63 3.61 3.61 0 0 0 1.82-1.45c.45-.69 3.32-4 6.38-7.26s5.62-6.41 5.68-6.89a2.6 2.6 0 0 0-.46-1.65c-.32-.43-1.08-1.66-1.69-2.73a16.9 16.9 0 0 0-1.9-2.75 9.24 9.24 0 0 0-1.83-1.35 14.57 14.57 0 0 1-1.88-1.24 12.32 12.32 0 0 1-1.51-1.51 4 4 0 0 1-.52-2.43 18.34 18.34 0 0 1 1.1-4 32.75 32.75 0 0 1 2.41-4.66 38.43 38.43 0 0 1 3.41-4.37 19.31 19.31 0 0 0 3-4.54c.58-1.34 1.3-6 1.6-10.47s.49-9.05.41-10.29a24.67 24.67 0 0 0-.68-4.14c-.29-1-.67-2.75-.84-3.8s-.36-2.77-.41-3.82a24.33 24.33 0 0 0-1.55-7.42c-.37-1-1.06-2.53-1.53-3.43S117.58 75 114.78 71zM89.81 151.31a9.31 9.31 0 0 0-2.46-1.22 18.77 18.77 0 0 0-2.67-.56 12.76 12.76 0 0 0-2.4 0 13.14 13.14 0 0 0-2.42.6 23.21 23.21 0 0 0-2.74 1.27c-.8.44-2.2 1.11-3.11 1.49s-2.52.94-3.56 1.25a17.35 17.35 0 0 1-4 .59 22.93 22.93 0 0 1-4.39-.5 24.09 24.09 0 0 0-4.48-.51 20.75 20.75 0 0 0-4.26.54 33.59 33.59 0 0 1-4.16.75 32.78 32.78 0 0 1-4.19.1 19.64 19.64 0 0 1-4.07-.74 46 46 0 0 1-7-3.87c-2.76-1.78-5.78-3.59-6.7-4a28.71 28.71 0 0 0-3.52-1.27c-.68-.19-1.62-.5-2.45-.82.45.55.89 1.07 1.28 1.51s.69.74.92 1a25.76 25.76 0 0 0 3 2.27 32.31 32.31 0 0 0 3.36 1.76 32.14 32.14 0 0 0 3.57 1.26 29.55 29.55 0 0 1 3.11 1.1l.41.18c.43.2 1.32.7 2.41 1.35 1.27.75 2.81 1.71 4.29 2.66a46 46 0 0 0 7 3.87 19.64 19.64 0 0 0 4.07.74 32.78 32.78 0 0 0 4.19-.1 33.59 33.59 0 0 0 4.16-.75 20.75 20.75 0 0 1 4.26-.54 24.09 24.09 0 0 1 4.48.51 22.93 22.93 0 0 0 4.39.5 17.35 17.35 0 0 0 4-.59c1-.31 2.64-.87 3.56-1.25s2.32-1 3.11-1.49a23.21 23.21 0 0 1 2.74-1.27 13.14 13.14 0 0 1 2.42-.6h.07a10.77 10.77 0 0 1 1.11 0l-.32-.6a19.68 19.68 0 0 0-3.01-4.62z"/></svg>