<svg xmlns="http://www.w3.org/2000/svg" width="107.43" height="200" viewBox="0 0 107.43 200"><title>_</title><path d="M1.79 149.72a5.07 5.07 0 0 0 2.2.71 28.27 28.27 0 0 0 4.33 0c.48 0 1.14-.14 1.86-.27.93-.17 1.82-.36 2.43-.54a18.39 18.39 0 0 1 4.49-.62h.55a18.93 18.93 0 0 1 5 1.12 20.13 20.13 0 0 0 4.24 1.06 20.57 20.57 0 0 0 4.4-.11 4.59 4.59 0 0 0 2.48-1.24 5.4 5.4 0 0 0 .43-3 41.16 41.16 0 0 1-.33-5.3 38 38 0 0 1 .52-5.16 22.41 22.41 0 0 0 .27-4.46 23.39 23.39 0 0 0-.84-4.48 32.95 32.95 0 0 1-1.49-10.39 11.42 11.42 0 0 1 .81-4.31 3 3 0 0 1 3.52-1.38 7.41 7.41 0 0 0 1.62.36 2.89 2.89 0 0 0 1-.14 7.38 7.38 0 0 1 1.84-.49 6.63 6.63 0 0 1 1.88.11c.5.11 1.54.44 2.25.69a11.52 11.52 0 0 0 2.58.49h4a18.5 18.5 0 0 1 4.81.46 9.07 9.07 0 0 1 3.57 2c.56.58 1.61 1.53 2.28 2.07s2 1.48 2.77 2a7.33 7.33 0 0 1 1.31 1.14 8.22 8.22 0 0 1 1.52 2.27 12.35 12.35 0 0 1 .66 4.75c-.09 1.35-.32 3.41-.52 4.59a36.35 36.35 0 0 1-.94 4 8 8 0 0 0-.3 2.64 6.28 6.28 0 0 0 .85 2.22 17 17 0 0 1 1.54 2.85 10.86 10.86 0 0 1 .55 3.43v1.06c.59.29 1.43.68 2.33 1.05a19 19 0 0 0 5.11 1.39h.54a15.4 15.4 0 0 0 3.54-.58 26.75 26.75 0 0 1 4.94-1 60.72 60.72 0 0 1 9.62 1c3.58.58 6.32.92 7.33 1a2.67 2.67 0 0 1 .27-.89 2.18 2.18 0 0 1 .14-.23 2 2 0 0 1-.37-.68 1.91 1.91 0 0 1-.08-.63 5.2 5.2 0 0 1-1.56-.35 6.66 6.66 0 0 1-2.06-1.53 5.41 5.41 0 0 1-1.18-2.87 9.75 9.75 0 0 1 .52-3.35c.27-.8.85-3.35 1.26-5.57a35.43 35.43 0 0 0 .65-5.84 36.07 36.07 0 0 0-1.74-6.46c-1-2.75-1.94-5.93-2.18-7.08s-.51-3.19-.63-4.54a9.14 9.14 0 0 0-.41-1.88 6.28 6.28 0 0 0-.6-1.39 6.47 6.47 0 0 0-1.33-1 36.13 36.13 0 0 0-4.8-2.58c-6.3-2.82-6.62-4-6.41-5.07.32-1.57 2.72-2.47 3.45-2.71a14.51 14.51 0 0 0 3.52-1.83 12.15 12.15 0 0 0 2.43-2.77c.49-.84 2.3-5.07 4.11-9.79a78 78 0 0 0 3.2-9.67 47.76 47.76 0 0 0-1.38-8.46c-.93-4-1.89-7.64-2.17-8.34a5.55 5.55 0 0 0-.25-.52 8.73 8.73 0 0 0-1.18-1.73 90.14 90.14 0 0 0-9.38-5.37c-5-2.63-9.5-4.77-10.35-5a24.11 24.11 0 0 0-3.61-.81c-1-.13-2.74-.26-3.78-.29s-2.75 0-3.8.1a31.26 31.26 0 0 1-4.19 0 31.93 31.93 0 0 1-4.15-.69 21.51 21.51 0 0 0-3.45-.53 16 16 0 0 0-3.07.22c-1 .19-2.49.41-3.43.49s-2.5.13-3.44.1a18.23 18.23 0 0 0-3 .22 21.08 21.08 0 0 0-3 .81 12.24 12.24 0 0 1-3.82.65 12.51 12.51 0 0 1-3.81-.83 19.38 19.38 0 0 0-3-.92 58.15 58.15 0 0 0-6.28-.5 61.19 61.19 0 0 0-6.31.11 19.8 19.8 0 0 0-3 .72 16.18 16.18 0 0 1-3.79.72 18.54 18.54 0 0 1-4-.34 2.76 2.76 0 0 0-1 0A4.3 4.3 0 0 0 1 43a15.86 15.86 0 0 1 .45 4.23 14.61 14.61 0 0 1-1 4.06 12.53 12.53 0 0 0-.77 3A36.45 36.45 0 0 0 .7 60.81a33.86 33.86 0 0 1 .93 7.42 16.77 16.77 0 0 1-1.05 3.88 13.41 13.41 0 0 0-.82 3 12 12 0 0 0 .14 3c.21 1 .51 3.41.68 5.37A34.67 34.67 0 0 1 .69 89a28.72 28.72 0 0 1-.74 3.7 10.35 10.35 0 0 0-.29 2.93 11.34 11.34 0 0 0 .8 3 27.32 27.32 0 0 1 1.31 3.71 23.64 23.64 0 0 1 .58 3.75c.06 1 .07 2.62 0 3.62s-.21 2.61-.36 3.62-.69 3.4-1.21 5.35-1 4.14-1.16 5.05-.32 4-.38 6.73A37.07 37.07 0 0 0-.45 137a17 17 0 0 0 1.3 3.1 12.75 12.75 0 0 1 1.35 4.06 11.67 11.67 0 0 1-.43 4.18 2.19 2.19 0 0 0 .02 1.38z"/><path d="M113.75 153.76a4 4 0 0 1-1.73-.23 5.24 5.24 0 0 1-1.53-1.15 3.94 3.94 0 0 1-.81-2 8.51 8.51 0 0 1 .44-2.75c.29-.86.88-3.46 1.31-5.78a36.12 36.12 0 0 0 .67-6.19 36.36 36.36 0 0 0-1.83-6.88c-.95-2.69-1.9-5.78-2.12-6.88s-.49-3.06-.6-4.37a10.16 10.16 0 0 0-1.25-4c-.57-.87-3.62-2.74-6.77-4.15l-1-.45-1.19-.59a10.58 10.58 0 0 1 .47 2.21c.11 1.31.38 3.28.6 4.37s1.17 4.18 2.12 6.88a36.36 36.36 0 0 1 1.83 6.88 36.12 36.12 0 0 1-.67 6.19c-.43 2.32-1 4.92-1.31 5.78a8.51 8.51 0 0 0-.44 2.75 3.94 3.94 0 0 0 .81 2 5.24 5.24 0 0 0 1.53 1.15 4 4 0 0 0 1.73.23 2.22 2.22 0 0 1 1.17.09.6.6 0 0 1-.13.72.82.82 0 0 0 .45 1.46 1.12 1.12 0 0 1 .65.42.7.7 0 0 1-.51.42 1.66 1.66 0 0 0-.76.62 1.81 1.81 0 0 0-.1 1 .89.89 0 0 1-1 .7 76.11 76.11 0 0 1-8.07-1 59.45 59.45 0 0 0-9.26-.94 25 25 0 0 0-4.6.93 16.86 16.86 0 0 1-3.94.65c.06.32.11.66.15 1a8.8 8.8 0 0 1 0 .94 16.77 16.77 0 0 1-.08 1.88 16.45 16.45 0 0 0 3.3 1.63 20 20 0 0 0 5.65 1.5 16.33 16.33 0 0 0 4.58-.66 25 25 0 0 1 4.6-.93 59.45 59.45 0 0 1 9.26.94 76.11 76.11 0 0 0 8.07 1 .89.89 0 0 0 1-.7 1.81 1.81 0 0 1 .1-1 1.66 1.66 0 0 1 .76-.62.7.7 0 0 0 .51-.42 1.12 1.12 0 0 0-.65-.42.82.82 0 0 1-.45-1.46.6.6 0 0 0 .13-.72 2.22 2.22 0 0 0-1.09-.05zM10 154.82a3.3 3.3 0 0 0 .31 2.8 5.72 5.72 0 0 0 3.2 1.24 29.58 29.58 0 0 0 4.62 0 30.21 30.21 0 0 0 4.57-.86 16.6 16.6 0 0 1 4.54-.53 17.51 17.51 0 0 1 4.54 1 21.66 21.66 0 0 0 4.63 1.16 22 22 0 0 0 4.79-.12 5.94 5.94 0 0 0 3.48-1.85 6.66 6.66 0 0 0 .69-4 39.45 39.45 0 0 1-.31-5.07 36.23 36.23 0 0 1 .5-4.91 23.77 23.77 0 0 0 .3-4.83A24.88 24.88 0 0 0 45 134a38.06 38.06 0 0 1-1.11-4.9 38.48 38.48 0 0 1-.31-5 10.28 10.28 0 0 1 .62-3.62 1.46 1.46 0 0 1 1.71-.68 8.86 8.86 0 0 0 2 .44 4.4 4.4 0 0 0 1.63-.26 6 6 0 0 1 1.41-.38 5.21 5.21 0 0 1 1.4.08c.38.08 1.32.37 2.08.64a13 13 0 0 0 3 .57h4.15a17.61 17.61 0 0 1 2 .05 16.17 16.17 0 0 1 1.82.24 5.85 5.85 0 0 0-1-.91c-.86-.57-2.16-1.51-2.89-2.1s-1.82-1.58-2.41-2.19a7.63 7.63 0 0 0-2.9-1.63 17.07 17.07 0 0 0-4.34-.4c-1.39.06-3.26.07-4.15 0a13 13 0 0 1-3-.57c-.76-.27-1.7-.55-2.08-.64a5.21 5.21 0 0 0-1.4-.08 6 6 0 0 0-1.41.38 4.4 4.4 0 0 1-1.63.26 8.86 8.86 0 0 1-2-.44 1.46 1.46 0 0 0-1.71.68 10.28 10.28 0 0 0-.62 3.62 38.48 38.48 0 0 0 .31 5 38.06 38.06 0 0 0 1.11 4.9 24.88 24.88 0 0 1 .9 4.83 23.77 23.77 0 0 1-.3 4.83 36.23 36.23 0 0 0-.5 4.91 39.45 39.45 0 0 0 .31 5.07 6.66 6.66 0 0 1-.69 4 5.94 5.94 0 0 1-3.48 1.85 22 22 0 0 1-4.79.12 21.66 21.66 0 0 1-4.63-1.16 17.51 17.51 0 0 0-4.54-1 16.6 16.6 0 0 0-4.54.53c-.7.2-1.65.41-2.58.57a9.36 9.36 0 0 1 0 1 10 10 0 0 1-.44 2.21zM97.72 82.21c-1.71 4.48-3.61 9-4.22 10a13.57 13.57 0 0 1-2.8 3.2 15.83 15.83 0 0 1-4 2.07c-1.25.41-2.36 1.13-2.45 1.59s2.4 2 5.55 3.4a37.47 37.47 0 0 1 5 2.69 7.21 7.21 0 0 1 1-.51c.19-.08.37-.16.57-.23a15.83 15.83 0 0 0 4-2.07 13.57 13.57 0 0 0 2.8-3.2c.61-1 2.51-5.54 4.22-10a75.57 75.57 0 0 0 3.31-10.1 46.83 46.83 0 0 0-1.41-8.94c-.88-3.84-1.89-7.69-2.24-8.56a10.19 10.19 0 0 0-1.74-2.73 55 55 0 0 0-6.88-4.12l-1.41-.76a7.27 7.27 0 0 1 .32.67c.35.87 1.36 4.72 2.24 8.56a46.83 46.83 0 0 1 1.42 8.94 75.57 75.57 0 0 1-3.28 10.1z"/></svg>