<svg xmlns="http://www.w3.org/2000/svg" width="200" height="200" viewBox="0 0 200 200"><title>_</title><path d="M94.62,135.23A3,3,0,0,1,93.31,134a4.27,4.27,0,0,1-.37-2,7.52,7.52,0,0,0-.06-1.35,3.61,3.61,0,0,0-.29-0.89,1.18,1.18,0,0,0-.33-0.33,2,2,0,0,0-.67-0.09,37.21,37.21,0,0,1-4.44-.61c-2-.36-5.52-1.22-7.93-1.93a24.61,24.61,0,0,0-6.15-1.09,14.24,14.24,0,0,0-4,1,25.64,25.64,0,0,1-4.52,1.46,20.94,20.94,0,0,1-4.48.31h-0.3a5.27,5.27,0,0,0-2.32.48,2.88,2.88,0,0,0-.9,1.71,7.34,7.34,0,0,0,.33,2.76,10.41,10.41,0,0,0,1.73,2.71h0a21.62,21.62,0,0,1,2.45,3.37,22.3,22.3,0,0,1,1.64,3.88,10.85,10.85,0,0,0,1.58,3.08c0.39,0.48,3.72,2.75,8.7,5.59l1.84,1c5.17,2.9,9.51,5.16,10.33,5.44a35.42,35.42,0,0,0,6.48.85,35.86,35.86,0,0,1,6.91.93,19,19,0,0,1,3.49,1.79,6.23,6.23,0,0,0,2.76.94h0a6.73,6.73,0,0,0,2.86-.9,10.84,10.84,0,0,1,3.94-1.38,10.36,10.36,0,0,1,4.09.6,14.24,14.24,0,0,0,3.35.78,12.21,12.21,0,0,0,3.21-.29,36,36,0,0,0,3.5-1.17c1-.4,5.86-2.87,10.62-5.4l1.87-1a85.57,85.57,0,0,0,10-5.91,32.43,32.43,0,0,0,3.58-7,47.66,47.66,0,0,0,2.54-7.82,89.53,89.53,0,0,0-.61-10.14c-0.44-4.43-1-9.07-1.27-10.13a13.65,13.65,0,0,0-1.37-3.4,9.27,9.27,0,0,0-.62-0.86,13.7,13.7,0,0,0-1.81-1.9c-0.85-.7-2.31-1.77-3.2-2.35l-0.45-.28c-0.92-.56-2.14-1.24-2.92-1.61a23.71,23.71,0,0,1-2.82-1.68c-0.28-.19-0.54-0.38-0.76-0.56a28.61,28.61,0,0,1-3.23-3.07,12.39,12.39,0,0,0-3-2.37,11.16,11.16,0,0,0-3.51-1c-1.19-.09-3.05-0.32-4.16-0.52s-2.85-.6-3.88-0.91a25.55,25.55,0,0,0-3.54-.71,27.51,27.51,0,0,0-3.7-.11,12.35,12.35,0,0,1-4.14-.59,13.55,13.55,0,0,1-3.67-2.2,16,16,0,0,0-3-2,9.27,9.27,0,0,0-.89-0.35,12.72,12.72,0,0,0-2.34-.58A10.41,10.41,0,0,1,95.79,85,11.24,11.24,0,0,1,93,82.22a12.8,12.8,0,0,1-1.51-3.06,3.47,3.47,0,0,1,.34-2.65A8.4,8.4,0,0,1,93,75.2a16.45,16.45,0,0,1,3-1.52,17.47,17.47,0,0,1,3.49-1.07,28.47,28.47,0,0,1,3.38,0c1.16,0.06,2.95.06,3.91,0a11.62,11.62,0,0,1,2.72.11,5,5,0,0,1,1.3.69,3,3,0,0,0,.68.36,2.91,2.91,0,0,0,.75.09,5.27,5.27,0,0,1,1.38.13,4.53,4.53,0,0,1,1.24.55c0.17,0.12.78,0.45,1.33,0.72a4.34,4.34,0,0,1,1.7,1.4,3.39,3.39,0,0,1,.27,1.69,1.37,1.37,0,0,0,0,.39l0.09,0c0.38,0.05,1.3.26,2,.44s2.28,0.61,3.44.94a34.59,34.59,0,0,0,4.08.84,33.84,33.84,0,0,0,4.16.23,34.62,34.62,0,0,0,4.19-.39,36.92,36.92,0,0,0,4.18-1,34.16,34.16,0,0,1,4.39-1,28.59,28.59,0,0,1,4.27-.27,5.57,5.57,0,0,0,2.24-.33,0.86,0.86,0,0,0,.08-0.66,21.76,21.76,0,0,1-.58-2.94c-0.11-.9-0.22-2.54-0.24-3.65a8.47,8.47,0,0,0-.74-3.08,8.54,8.54,0,0,0-2.12-2.37,18.78,18.78,0,0,1-3-2.8,18.57,18.57,0,0,1-2.15-3.47l-0.17-.35a13.09,13.09,0,0,0-1.79-2.56,14.64,14.64,0,0,0-3-2.22,22,22,0,0,0-3.66-1.5,22.34,22.34,0,0,0-3.93-.65,22.3,22.3,0,0,1-4.18-.69,16.83,16.83,0,0,1-3.57-1.58,25.67,25.67,0,0,0-2.95-1.54,25,25,0,0,0-3.12-1,14,14,0,0,0-3.11-.32,15.06,15.06,0,0,0-3.17.54,28.8,28.8,0,0,1-3.53.8,24.1,24.1,0,0,1-3.44.21c-0.84,0-2.26,0-3.09.09s-3.69.5-6.23,0.95a61.32,61.32,0,0,0-6.28,1.38c-0.79.27-3.74,1.71-6.88,3.41-2.91,1.58-6.61,3.79-8.24,4.92A42.62,42.62,0,0,0,68,62.29a29.8,29.8,0,0,0-2.26,2.56,32.28,32.28,0,0,0-1.94,2.92c-0.48.84-2,4.09-3.3,7.09A42,42,0,0,0,58,81.93a9.3,9.3,0,0,0,.27,3c0.26,0.85.78,2.23,1.13,3s2.44,4,5,7.72A70.84,70.84,0,0,0,70,103c0.68,0.58,3.52,2.58,6.19,4.38,0.92,0.62,1.87,1.23,2.77,1.8,1.77,1.12,3.3,2,3.88,2.28a21.79,21.79,0,0,0,3.61,1.17c1.13,0.24,4.52,1.19,7.56,2.13s6.24,1.82,7.21,2a19.24,19.24,0,0,1,3.83,1.17,21.09,21.09,0,0,1,3.53,2.11,31.66,31.66,0,0,0,3,2,22.61,22.61,0,0,0,2.94,1.33,13.62,13.62,0,0,1,2.91,1.45,9.51,9.51,0,0,1,2.07,2.11c0.23,0.34.62,1,1,1.73,0.31,0.54.64,1.13,0.93,1.67s1.41,2.72,1,3.87a3.53,3.53,0,0,1-2,1.79,12.78,12.78,0,0,1-2.63.57,14.48,14.48,0,0,1-2.79-.08,23.5,23.5,0,0,0-2.57-.18,21.42,21.42,0,0,0-2.71.16,14.87,14.87,0,0,0-2.32.49,6.16,6.16,0,0,0-1.45.73,10.94,10.94,0,0,1-1.59,1l-0.38.17a9.74,9.74,0,0,1-1.33.45,5,5,0,0,1-1.88.06,4.79,4.79,0,0,1-1.7-.76c-0.37-.27-1.14-0.93-1.75-1.48a16.84,16.84,0,0,0-1.51-1.24,7.42,7.42,0,0,0-1.06-.54Z" fill="#231f20"/><path d="M119.69,129.14c-0.41-.71-0.78-1.35-1-1.68a8.48,8.48,0,0,0-1.82-1.85,12.67,12.67,0,0,0-2.65-1.32,23.5,23.5,0,0,1-3.1-1.4,32.45,32.45,0,0,1-3.17-2.09,20.29,20.29,0,0,0-3.33-2,18.44,18.44,0,0,0-3.59-1.1c-1-.18-4.32-1.09-7.33-2s-6.37-1.88-7.47-2.11a22.68,22.68,0,0,1-3.82-1.24,45.44,45.44,0,0,1-4-2.34,7,7,0,0,0,.64.68c0.54,0.46,2.3,1.72,4.31,3.1l2,1.34a72.37,72.37,0,0,0,6.79,4.16,22.68,22.68,0,0,0,3.82,1.24c1.1,0.23,4.46,1.18,7.47,2.11s6.31,1.84,7.33,2a18.44,18.44,0,0,1,3.59,1.1,20.33,20.33,0,0,1,3.3,2l0,0C118.21,128.16,119,128.68,119.69,129.14Z" fill="#231f20"/><path d="M143.18,58.37l0.2,0.4a17.71,17.71,0,0,0,2,3.25,18,18,0,0,0,2.81,2.62,9.47,9.47,0,0,1,2.42,2.71,9.39,9.39,0,0,1,.85,3.52c0,1.08.12,2.67,0.23,3.54a21,21,0,0,0,.55,2.78,1.68,1.68,0,0,1-.47,1.77,6,6,0,0,1-2.83.51,27.45,27.45,0,0,0-4.09.26,33,33,0,0,0-4.24,1,37.57,37.57,0,0,1-4.32,1.06,29.18,29.18,0,0,1-8.64.16,35.43,35.43,0,0,1-4.22-.87c-1.15-.33-2.69-0.75-3.41-0.93s-1.57-.37-1.87-0.41a1.26,1.26,0,0,1-.79-0.46,2,2,0,0,1-.17-1.05A2.43,2.43,0,0,0,117,77.1a3.35,3.35,0,0,0-1.25-1c-0.56-.27-1.21-0.63-1.44-0.79a3.58,3.58,0,0,0-.93-0.41,4.34,4.34,0,0,0-1.08-.1,3.76,3.76,0,0,1-1.1-.13,3.88,3.88,0,0,1-1-.52,4.06,4.06,0,0,0-1-.53,10.12,10.12,0,0,0-2.36-.06c-1,.06-2.81.06-4,0a27.94,27.94,0,0,0-3.23,0,16.81,16.81,0,0,0-3.22,1A15.74,15.74,0,0,0,93.64,76a7.53,7.53,0,0,0-1,1.14,2.5,2.5,0,0,0-.18,1.81,11.76,11.76,0,0,0,1.37,2.76,10.26,10.26,0,0,0,2.53,2.53,9.41,9.41,0,0,0,3.29,1.13,13.65,13.65,0,0,1,2.55.62l0-.1a2.92,2.92,0,0,1-.07-1,1.76,1.76,0,0,1,.25-0.82,7.53,7.53,0,0,1,1-1.14,15.74,15.74,0,0,1,2.75-1.36,16.81,16.81,0,0,1,3.22-1,27.94,27.94,0,0,1,3.23,0c1.21,0.06,3,.06,4,0l0.76,0a7.15,7.15,0,0,1,1.6.09,4.06,4.06,0,0,1,1,.53L120,81.2a3.89,3.89,0,0,0,.91.46,3.76,3.76,0,0,0,1.1.13h0.19a4.3,4.3,0,0,1,.89.1,3.62,3.62,0,0,1,.87.38l0.06,0c0.23,0.16.88,0.51,1.44,0.79a3.35,3.35,0,0,1,1.25,1,2.43,2.43,0,0,1,.17,1.13,2,2,0,0,0,.17,1.05,1.26,1.26,0,0,0,.79.46c0.3,0,1.15.23,1.87,0.41s2.26,0.6,3.41.93a29.08,29.08,0,0,0,8.53,1.11,35.31,35.31,0,0,0,4.34-.4,37.57,37.57,0,0,0,4.32-1.06,33,33,0,0,1,4.24-1,27.45,27.45,0,0,1,4.09-.26,6,6,0,0,0,2.83-.51,1.68,1.68,0,0,0,.47-1.77,21,21,0,0,1-.55-2.78c-0.11-.87-0.21-2.46-0.23-3.54a9.39,9.39,0,0,0-.85-3.52,9.47,9.47,0,0,0-2.42-2.71A18,18,0,0,1,155.1,69a17.71,17.71,0,0,1-2-3.25,13.72,13.72,0,0,0-2.15-3.18,15.62,15.62,0,0,0-3.2-2.41,23.43,23.43,0,0,0-3.27-1.39l-0.6-.19Z" fill="#231f20"/><path d="M145.58,103.71a13.46,13.46,0,0,0-3.06-2.38,11.79,11.79,0,0,0-2.64-.88,22.81,22.81,0,0,0,2.69,1.6C143.4,102.46,144.65,103.15,145.58,103.71Z" fill="#231f20"/><path d="M151.3,108.47a10.25,10.25,0,0,1,.69,1,14.64,14.64,0,0,1,1.49,3.7c0.25,1.11.83,5.73,1.29,10.26a89.93,89.93,0,0,1,.61,10.34,47.43,47.43,0,0,1-2.61,8.09c-1.31,3.29-3,6.61-3.81,7.37s-5.39,3.5-10.25,6.08l-1.87,1c-4.86,2.58-9.68,5-10.72,5.44a36.51,36.51,0,0,1-3.62,1.21,13.08,13.08,0,0,1-3.53.32,15.26,15.26,0,0,1-3.64-.85,9.46,9.46,0,0,0-3.63-.54,9.88,9.88,0,0,0-3.51,1.24,7.66,7.66,0,0,1-3.41,1,7.22,7.22,0,0,1-3.31-1.11,18.2,18.2,0,0,0-3.27-1.68,35.1,35.1,0,0,0-6.63-.87,35.56,35.56,0,0,1-6.76-.9c-1-.34-5.69-2.82-10.48-5.52l-0.92-.52L72.48,153a8.65,8.65,0,0,0,.73,1.11,13.11,13.11,0,0,0,2.17,1.66c1.89,1.27,4.74,3,7.74,4.69L84,161c4.8,2.69,9.51,5.17,10.48,5.52a35.56,35.56,0,0,0,6.76.9,35.1,35.1,0,0,1,6.63.87,18.2,18.2,0,0,1,3.27,1.68,7.22,7.22,0,0,0,3.31,1.11,7.66,7.66,0,0,0,3.41-1,9.88,9.88,0,0,1,3.51-1.24,9.46,9.46,0,0,1,3.63.54,15.26,15.26,0,0,0,3.64.85,13.08,13.08,0,0,0,3.53-.32,36.51,36.51,0,0,0,3.62-1.21c1-.41,5.86-2.86,10.72-5.44l1.87-1c4.86-2.58,9.47-5.31,10.25-6.08s2.49-4.08,3.81-7.37a47.43,47.43,0,0,0,2.61-8.09,89.93,89.93,0,0,0-.61-10.34c-0.45-4.53-1-9.14-1.29-10.26a11.87,11.87,0,0,0-4.13-6.7c-0.88-.73-2.37-1.82-3.3-2.42-0.69-.45-1.73-1-2.62-1.52l-0.85-.43C152,108.86,151.65,108.67,151.3,108.47Z" fill="#231f20"/><path d="M95.09,134.34l0.06,0a8.35,8.35,0,0,1,1.24.63A17.44,17.44,0,0,1,98,136.35c0.58,0.53,1.34,1.17,1.67,1.42a3.86,3.86,0,0,0,1.3.59,4.12,4.12,0,0,0,1.46,0,8.68,8.68,0,0,0,1.17-.4c0-.16,0-0.32,0-0.44a4.39,4.39,0,0,0-.15-0.57,3.74,3.74,0,0,0-.26-0.63,2.08,2.08,0,0,0-.77-0.74,2.79,2.79,0,0,0-1.17-.18,27.59,27.59,0,0,1-3.35-.45L97,134.75C96.49,134.65,95.82,134.51,95.09,134.34Z" fill="#231f20"/></svg>