<svg xmlns="http://www.w3.org/2000/svg" width="125" height="200" viewBox="0 0 125 200"><title>_</title><path d="M11 126.73a22.19 22.19 0 0 1 2.52 3.47 22.86 22.86 0 0 1 1.68 4 10.42 10.42 0 0 0 1.49 2.91 65 65 0 0 0 8.55 5.47l1.84 1c5.07 2.85 9.47 5.14 10.25 5.41a35.38 35.38 0 0 0 6.34.82 35.76 35.76 0 0 1 7.05 1 19.62 19.62 0 0 1 3.59 1.85 5.73 5.73 0 0 0 2.49.85 6.26 6.26 0 0 0 2.61-.83 11.25 11.25 0 0 1 4.15-1.45 10.75 10.75 0 0 1 4.32.63 13.89 13.89 0 0 0 3.2.75 11.79 11.79 0 0 0 3-.28 35.32 35.32 0 0 0 3.44-1.15c1-.39 5.82-2.85 10.57-5.37l1.87-1a86.72 86.72 0 0 0 9.9-5.82 32.52 32.52 0 0 0 3.47-6.86 47.72 47.72 0 0 0 2.51-7.69 91.31 91.31 0 0 0-.61-10c-.44-4.41-1-9-1.26-10.07a13.25 13.25 0 0 0-1.31-3.25 8.77 8.77 0 0 0-.58-.81 13.19 13.19 0 0 0-1.73-1.82c-.83-.69-2.28-1.75-3.16-2.31l-.44-.27c-.9-.55-2.11-1.22-2.87-1.58a24.24 24.24 0 0 1-2.88-1.8c-.29-.2-.56-.39-.79-.57a29.22 29.22 0 0 1-3.3-3.14 12 12 0 0 0-2.82-2.25 10.74 10.74 0 0 0-3.32-.92c-1.2-.09-3.09-.33-4.21-.53s-2.88-.61-3.93-.92a25 25 0 0 0-3.45-.7 26.72 26.72 0 0 0-3.62-.1 13 13 0 0 1-4.33-.62 14.16 14.16 0 0 1-3.83-2.3 15.64 15.64 0 0 0-2.92-1.94 8.89 8.89 0 0 0-.84-.33 12.19 12.19 0 0 0-2.24-.55 10.82 10.82 0 0 1-3.91-1.35 11.64 11.64 0 0 1-3-3A13.19 13.19 0 0 1 43 70.14a4 4 0 0 1 .42-3.06 8.85 8.85 0 0 1 1.3-1.41 18 18 0 0 1 3.15-1.6 17.62 17.62 0 0 1 3.6-1.07 28.68 28.68 0 0 1 3.46 0c1.14.06 2.9.06 3.85 0a11.24 11.24 0 0 1 2.91.14 5.47 5.47 0 0 1 1.45.77 2.56 2.56 0 0 0 .53.28 2.34 2.34 0 0 0 .58.07 5.79 5.79 0 0 1 1.52.14 5 5 0 0 1 1.39.62c.14.09.71.41 1.27.68a4.67 4.67 0 0 1 1.93 1.62 3.86 3.86 0 0 1 .33 1.9c.44.08 1.16.25 1.71.39.74.19 2.29.61 3.45.94a34 34 0 0 0 4 .83 32.4 32.4 0 0 0 4.08.23 34 34 0 0 0 4.12-.38 36.29 36.29 0 0 0 4.11-1 34.75 34.75 0 0 1 4.47-1.06 29.77 29.77 0 0 1 4.36-.27 6.21 6.21 0 0 0 1.83-.21.37.37 0 0 0 0-.14 22.37 22.37 0 0 1-.6-3c-.11-.92-.22-2.58-.24-3.7a8 8 0 0 0-.68-2.85 8.07 8.07 0 0 0-2-2.19 19.35 19.35 0 0 1-3.09-2.89A19.15 19.15 0 0 1 94 50.23l-.16-.32a12.72 12.72 0 0 0-1.7-2.44 14.27 14.27 0 0 0-2.83-2.13 21.41 21.41 0 0 0-3.56-1.46 21.74 21.74 0 0 0-3.82-.63 22.87 22.87 0 0 1-4.29-.71 17.41 17.41 0 0 1-3.7-1.63 25.15 25.15 0 0 0-2.88-1.5 24.38 24.38 0 0 0-3-1 13.54 13.54 0 0 0-3-.31 14.72 14.72 0 0 0-3 .52 29.38 29.38 0 0 1-3.61.82 25 25 0 0 1-3.53.22c-.82 0-2.22 0-3 .08s-3.65.5-6.18.94A60.83 60.83 0 0 0 39.45 42c-.77.26-3.69 1.68-6.81 3.38-2.9 1.57-6.57 3.77-8.2 4.89a42.17 42.17 0 0 0-4.08 3.17 29.2 29.2 0 0 0-2.2 2.56 31.7 31.7 0 0 0-1.9 2.86c-.47.83-2 4.05-3.28 7a42.22 42.22 0 0 0-2.5 6.92 8.86 8.86 0 0 0 .25 2.81c.26.83.77 2.19 1.11 3 .26.58 2.28 3.76 5 7.64a71.7 71.7 0 0 0 5.49 7.19c.67.58 3.46 2.58 6.12 4.36.91.61 1.86 1.23 2.75 1.79 1.73 1.09 3.26 2 3.82 2.24a21.19 21.19 0 0 0 3.52 1.19c1.14.24 4.55 1.2 7.6 2.15s6.19 1.81 7.15 2a19.84 19.84 0 0 1 3.95 1.2 21.65 21.65 0 0 1 3.63 2.16 31 31 0 0 0 3 2 22 22 0 0 0 2.86 1.3 14.19 14.19 0 0 1 3 1.52 9.92 9.92 0 0 1 2.2 2.24c.23.35.63 1 1.05 1.76.31.55.64 1.14.94 1.68.46.86 1.49 3 1 4.28a4 4 0 0 1-2.35 2.1 13.4 13.4 0 0 1-2.75.6 15 15 0 0 1-2.9-.08 22.93 22.93 0 0 0-2.5-.17 20.8 20.8 0 0 0-2.64.16 14.56 14.56 0 0 0-2.22.46 5.77 5.77 0 0 0-1.3.65 11.36 11.36 0 0 1-1.65.99l-.4.18a10.38 10.38 0 0 1-1.4.47 5.54 5.54 0 0 1-2.09.06 5.27 5.27 0 0 1-1.91-.85c-.39-.29-1.17-1-1.79-1.52a16.55 16.55 0 0 0-1.44-1.19 7 7 0 0 0-1-.5l-.18-.09a3.52 3.52 0 0 1-1.55-1.43 4.76 4.76 0 0 1-.43-2.24 7.08 7.08 0 0 0-.05-1.24 3.24 3.24 0 0 0-.23-.73 1 1 0 0 0-.15-.14h-.36a34.56 34.56 0 0 1-4.57-.61c-2-.36-5.56-1.23-8-1.94a24.66 24.66 0 0 0-6-1.07 13.87 13.87 0 0 0-3.83 1 26.22 26.22 0 0 1-4.63 1.49 21.51 21.51 0 0 1-4.61.32h-.23a5 5 0 0 0-2 .4 2.45 2.45 0 0 0-.76 1.28 6.84 6.84 0 0 0 .31 2.53 10 10 0 0 0 1.69 2.55z"/><path d="M66.33 116.59a20.33 20.33 0 0 1 3.3 2c.56.42 1.32.95 2 1.4-.41-.71-.78-1.35-1-1.68a8.48 8.48 0 0 0-1.82-1.85 12.67 12.67 0 0 0-2.65-1.32 23.5 23.5 0 0 1-3.1-1.4 32.45 32.45 0 0 1-3.06-2.1 20.29 20.29 0 0 0-3.33-2 18.44 18.44 0 0 0-3.59-1.1c-1-.18-4.32-1.09-7.33-2s-6.37-1.88-7.47-2.11a22.68 22.68 0 0 1-3.82-1.24 45.44 45.44 0 0 1-4-2.34 7 7 0 0 0 .64.68c.54.46 2.3 1.72 4.31 3.1l2 1.34a72.37 72.37 0 0 0 6.79 4.16 22.68 22.68 0 0 0 3.82 1.24c1.1.23 4.46 1.18 7.47 2.11s6.31 1.84 7.33 2a18.44 18.44 0 0 1 3.51 1.11zM102.33 78.53a33 33 0 0 1 4.24-1 27.45 27.45 0 0 1 4.09-.26 6 6 0 0 0 2.83-.51A1.68 1.68 0 0 0 114 75a21 21 0 0 1-.55-2.78c-.11-.87-.21-2.46-.23-3.54a9.39 9.39 0 0 0-.85-3.52 9.47 9.47 0 0 0-2.42-2.71 18 18 0 0 1-2.81-2.62 17.71 17.71 0 0 1-2-3.25 13.72 13.72 0 0 0-2.15-3.18 15.62 15.62 0 0 0-3.25-2.4 23.43 23.43 0 0 0-3.27-1.39l-.6-.19-.69-.17.2.4a17.71 17.71 0 0 0 2 3.25 18 18 0 0 0 2.81 2.62 9.47 9.47 0 0 1 2.42 2.71 9.39 9.39 0 0 1 .85 3.52c0 1.08.12 2.67.23 3.54a21 21 0 0 0 .55 2.78 1.68 1.68 0 0 1-.47 1.77 6 6 0 0 1-2.83.51 27.45 27.45 0 0 0-4.09.26 33 33 0 0 0-4.24 1 37.57 37.57 0 0 1-4.32 1.06 35.31 35.31 0 0 1-4.34.4 35.34 35.34 0 0 1-4.3-.24 35.43 35.43 0 0 1-4.22-.87c-1.14-.35-2.68-.77-3.43-.96s-1.57-.37-1.87-.41a1.26 1.26 0 0 1-.79-.46 2 2 0 0 1-.17-1.05 2.43 2.43 0 0 0-.17-1.13 3.35 3.35 0 0 0-1.25-1c-.56-.27-1.21-.63-1.44-.79a3.58 3.58 0 0 0-.93-.41 4.34 4.34 0 0 0-1.08-.1 3.76 3.76 0 0 1-1.1-.13 3.88 3.88 0 0 1-1-.52 4.06 4.06 0 0 0-1-.53 10.12 10.12 0 0 0-2.36-.06c-1 .06-2.81.06-4 0a27.94 27.94 0 0 0-3.23 0 16.81 16.81 0 0 0-3.22 1 15.74 15.74 0 0 0-2.75 1.36 7.53 7.53 0 0 0-1 1.14 2.5 2.5 0 0 0-.18 1.81 11.76 11.76 0 0 0 1.37 2.76 10.26 10.26 0 0 0 2.5 2.52 9.41 9.41 0 0 0 3.29 1.13 13.65 13.65 0 0 1 2.55.62v-.1a2.92 2.92 0 0 1-.07-1 1.76 1.76 0 0 1 .25-.82 7.53 7.53 0 0 1 1-1.14 15.74 15.74 0 0 1 2.75-1.36 16.81 16.81 0 0 1 3.22-1 27.94 27.94 0 0 1 3.23 0c1.21.06 3 .06 4 0h.76a7.15 7.15 0 0 1 1.6.09 4.06 4.06 0 0 1 1 .53L72 72a3.89 3.89 0 0 0 .91.46 3.76 3.76 0 0 0 1.1.13h.19a4.3 4.3 0 0 1 .89.1 3.62 3.62 0 0 1 .87.38h.06c.23.16.88.51 1.44.79a3.35 3.35 0 0 1 1.25 1A2.43 2.43 0 0 1 78.9 76a2 2 0 0 0 .17 1.05 1.26 1.26 0 0 0 .79.46c.3 0 1.15.23 1.87.41s2.26.6 3.41.93a35.43 35.43 0 0 0 4.22.87 29.18 29.18 0 0 0 8.64-.13 37.57 37.57 0 0 0 4.33-1.06zM94.58 92.9c.83.4 2.08 1.09 3 1.66a13.46 13.46 0 0 0-3.06-2.38 11.79 11.79 0 0 0-2.64-.88 22.81 22.81 0 0 0 2.7 1.6z"/><path d="M113.7 107.21a14.69 14.69 0 0 0-2.64-3c-.88-.73-2.37-1.82-3.3-2.42-.69-.45-1.73-1-2.62-1.52l-.85-.43c-.29-.14-.63-.32-1-.53a10.25 10.25 0 0 1 .69 1 14.64 14.64 0 0 1 1.49 3.7c.25 1.11.83 5.73 1.29 10.26a89.93 89.93 0 0 1 .61 10.34 47.43 47.43 0 0 1-2.61 8.09c-1.31 3.29-3 6.61-3.81 7.37s-5.39 3.5-10.25 6.08l-1.87 1c-4.86 2.58-9.68 5-10.72 5.44a36.51 36.51 0 0 1-3.62 1.21 13.08 13.08 0 0 1-3.53.32 15.26 15.26 0 0 1-3.64-.85 9.46 9.46 0 0 0-3.63-.54 9.88 9.88 0 0 0-3.51 1.24 7.66 7.66 0 0 1-3.41 1 7.22 7.22 0 0 1-3.31-1.11 18.2 18.2 0 0 0-3.27-1.68 35.1 35.1 0 0 0-6.63-.87 35.56 35.56 0 0 1-6.76-.9c-1-.34-5.69-2.82-10.48-5.52l-.92-.52-.92-.52a8.65 8.65 0 0 0 .73 1.11 13.11 13.11 0 0 0 2.17 1.66c1.89 1.27 4.74 3 7.74 4.69l.88.53c4.8 2.69 9.51 5.17 10.48 5.52a35.56 35.56 0 0 0 6.76.9 35.1 35.1 0 0 1 6.63.87 18.2 18.2 0 0 1 3.27 1.68 7.22 7.22 0 0 0 3.31 1.11 7.66 7.66 0 0 0 3.41-1 9.88 9.88 0 0 1 3.51-1.24 9.46 9.46 0 0 1 3.63.54 15.26 15.26 0 0 0 3.64.85 13.08 13.08 0 0 0 3.53-.32 36.51 36.51 0 0 0 3.62-1.21c1-.41 5.86-2.86 10.72-5.44l1.87-1c4.86-2.58 9.47-5.31 10.25-6.08s2.49-4.08 3.81-7.37a47.43 47.43 0 0 0 2.61-8.09 89.93 89.93 0 0 0-.61-10.34c-.45-4.53-1-9.14-1.29-10.26a14.64 14.64 0 0 0-1.45-3.75z"/><path d="M55.18 127.11a2.08 2.08 0 0 0-.77-.74 2.79 2.79 0 0 0-1.17-.18 27.59 27.59 0 0 1-3.35-.45l-.89-.15c-.54-.1-1.22-.24-1.95-.4h.06a8.35 8.35 0 0 1 1.24.63 17.44 17.44 0 0 1 1.65 1.37c.58.53 1.34 1.17 1.67 1.42a3.86 3.86 0 0 0 1.3.59 4.12 4.12 0 0 0 1.46 0 8.68 8.68 0 0 0 1.17-.4v-.44a4.39 4.39 0 0 0-.15-.57 3.74 3.74 0 0 0-.27-.68z"/></svg>