<svg xmlns="http://www.w3.org/2000/svg" width="120.48" height="200" viewBox="0 0 120.48 200"><title>_</title><path d="M4.39 58.89A16.3 16.3 0 0 0 4 62.07 13.42 13.42 0 0 0 4.33 65a5.43 5.43 0 0 0 1.17 2 7.53 7.53 0 0 0 2.41 1.3 33 33 0 0 0 3.6.82l1 .13c1 .11 2.09.2 2.84.22s5-.39 10.34-1.17a59.08 59.08 0 0 1 7.43-.67c2.29 0 3 .37 3.25.65 1.06 1 1.16 2.93.8 4.32a17.68 17.68 0 0 0-.48 3.51v.58a13.53 13.53 0 0 0 .41 2.56 26.1 26.1 0 0 1 .74 3.66 24.79 24.79 0 0 1 .08 3.68 29.18 29.18 0 0 1-.53 3.63 31.85 31.85 0 0 1-1.09 3.61 16.13 16.13 0 0 0-.77 3.05 14.52 14.52 0 0 0 0 3c.12.88.62 3.14 1.09 4.94a35.26 35.26 0 0 1 1 5.41 18.26 18.26 0 0 1-.28 3.77c-.13.66-.37 5.32-.46 11.43L36.75 136c-.09 6.1 0 10.68.13 11.29a3.63 3.63 0 0 0 1 1.71 32 32 0 0 0 7.2 1.61 52.3 52.3 0 0 0 8.57.63 26.5 26.5 0 0 0 4.25-1 39 39 0 0 1 4.66-1.24 31.17 31.17 0 0 1 4.49-.42 6.11 6.11 0 0 0 2.35-.48 1.85 1.85 0 0 0 .57-1c.08-.82.44-3 .79-4.83s.67-3.93.74-4.81a28.31 28.31 0 0 0 0-3.2 32.91 32.91 0 0 1 0-3.61 33.79 33.79 0 0 1 .5-3.6 12 12 0 0 0 .15-3 13.31 13.31 0 0 0-.78-3 34.55 34.55 0 0 1-1.22-3.6 30.92 30.92 0 0 1-.69-3.62 29.15 29.15 0 0 1-.15-3.63 29.63 29.63 0 0 1 .4-3.63c.18-1 .8-3.35 1.38-5.27a16.83 16.83 0 0 0 .8-4.53A9.55 9.55 0 0 0 71 94a15.78 15.78 0 0 1-1.4-3.84 13.39 13.39 0 0 1-.06-3.93 18.68 18.68 0 0 0 .17-3.1 19.11 19.11 0 0 0-.44-3.13 11.84 11.84 0 0 1-.27-3.8 10.33 10.33 0 0 1 1.22-3.49A10.17 10.17 0 0 1 72.76 70a12.16 12.16 0 0 1 3.56-1.53 18.54 18.54 0 0 1 4-.41 23.19 23.19 0 0 1 4.27.61 27.19 27.19 0 0 0 3.82.62 35.3 35.3 0 0 0 5.66-.43c2.09-.31 4.62-.79 5.53-1.05a8 8 0 0 0 2.4-1.22 6.07 6.07 0 0 0 1.35-1.94 11.56 11.56 0 0 0 .6-2.75 44.12 44.12 0 0 0-1-6.73c-.47-2.29-.9-4.76-1.1-6.3-.06-.49-.1-.89-.11-1.14a24.32 24.32 0 0 1 .2-3.69A3.53 3.53 0 0 0 102 43a17.58 17.58 0 0 0-3.81 0c-2.58.21-5.34.35-6.28.31s-2.4-.17-3.32-.3-3.14-.62-4.94-1.09a28.52 28.52 0 0 0-4.43-.84 38.56 38.56 0 0 0-5.93 1.14c-2 .53-5.58 1.23-7 1a11.94 11.94 0 0 1-3.72-1.49 7.71 7.71 0 0 0-2.54-1 6.32 6.32 0 0 0-2.44.36 13.19 13.19 0 0 1-3.66.82 12.78 12.78 0 0 1-3.69-.49 24.11 24.11 0 0 0-3-.68 59.45 59.45 0 0 0-6.11-.14c-2.53 0-5.36.18-6.17.29s-2.19.39-3 .61a26 26 0 0 1-3.41.61 24.68 24.68 0 0 1-3.43 0 17.9 17.9 0 0 0-2.88.08 19.49 19.49 0 0 0-2.9.65 19.26 19.26 0 0 1-3.5.73 49.11 49.11 0 0 1-6.12-.22 14.64 14.64 0 0 0-3.89.08 4.12 4.12 0 0 0-.45 1.32c-.11.79-.23 2.19-.27 3.06s0 2.38 0 3.35A30.14 30.14 0 0 1 5.08 55a31.62 31.62 0 0 1-.69 3.89z"/><path d="M35.3 69.38c-.49-.46-4.74-.28-9.44.4S16.39 71 15.27 71c-.81 0-2-.11-3-.22 0 .36.11.7.17 1s.08.4.13.56A6.87 6.87 0 0 0 14.18 75a9 9 0 0 0 3 1.65 34.27 34.27 0 0 0 3.8.87 37 37 0 0 0 4 .36c1 0 5-.41 9.21-1l1-.14v-.68a19.21 19.21 0 0 1 .52-3.87 3.32 3.32 0 0 0-.41-2.81zM112.86 48.79c-.32-.41-2.61-.59-5.09-.38-1.13.09-2.32.17-3.36.23h-1c.19 1.44.61 3.88 1.08 6.19a43.68 43.68 0 0 1 1 7.13 13 13 0 0 1-.7 3.19 7.57 7.57 0 0 1-1.79 2.6 9.37 9.37 0 0 1-3 1.53c-1 .28-3.55.77-5.73 1.1a36.37 36.37 0 0 1-6 .44 28.59 28.59 0 0 1-4.08-.66 21.82 21.82 0 0 0-3.94-.56 17.24 17.24 0 0 0-3.66.37 10.79 10.79 0 0 0-3.05 1.31 8.75 8.75 0 0 0-2.11 2.26 8.92 8.92 0 0 0-1 2.9 10.49 10.49 0 0 0 .24 3.24 20.75 20.75 0 0 1 .51 3.41 20.17 20.17 0 0 1-.18 3.38 11.87 11.87 0 0 0 .05 3.41 14.29 14.29 0 0 0 1.25 3.41 10.89 10.89 0 0 1 1.09 3.41 17.78 17.78 0 0 1-.86 5.11c-.57 1.87-1.17 4.18-1.34 5.11a27.93 27.93 0 0 0-.37 3.41 27.48 27.48 0 0 0 .14 3.41 29.27 29.27 0 0 0 .65 3.41 32.73 32.73 0 0 0 1.16 3.41 14.75 14.75 0 0 1 .93 3.44 13.43 13.43 0 0 1-.17 3.41 32 32 0 0 0-.47 3.41 31.11 31.11 0 0 0 0 3.41 29.74 29.74 0 0 1 0 3.41c-.07.94-.42 3.17-.76 5s-.69 3.91-.77 4.69a3.26 3.26 0 0 1-1.25 2.14 7.09 7.09 0 0 1-3.16.72 29.52 29.52 0 0 0-4.23.4 37.19 37.19 0 0 0-4.44 1.16 27.93 27.93 0 0 1-4.54 1.06 52.08 52.08 0 0 1-8.87-.62v1a13 13 0 0 0 .1 1.4 5.1 5.1 0 0 0 1.55 2.59c.68.55 4.26 1.42 7.93 1.92a52.48 52.48 0 0 0 9 .63 27.93 27.93 0 0 0 4.54-1.06 37.19 37.19 0 0 1 4.44-1.16 29.52 29.52 0 0 1 4.23-.4 7.09 7.09 0 0 0 3.16-.72 3.26 3.26 0 0 0 1.25-2.14c.08-.78.43-2.9.77-4.69s.69-4 .76-5a29.74 29.74 0 0 0 0-3.41 31.11 31.11 0 0 1 0-3.41 32 32 0 0 1 .47-3.41 13.43 13.43 0 0 0 .17-3.41 14.75 14.75 0 0 0-.89-3.41 32.73 32.73 0 0 1-1.16-3.41 29.27 29.27 0 0 1-.65-3.41 27.48 27.48 0 0 1-.14-3.41 27.93 27.93 0 0 1 .37-3.41c.17-.94.78-3.24 1.34-5.11a17.78 17.78 0 0 0 .86-5.11 10.89 10.89 0 0 0-1.09-3.41 14.29 14.29 0 0 1-1.25-3.41 11.87 11.87 0 0 1-.05-3.41 20.17 20.17 0 0 0 .2-3.42 20.75 20.75 0 0 0-.51-3.41 10.49 10.49 0 0 1-.24-3.24 8.92 8.92 0 0 1 1-2.9 8.75 8.75 0 0 1 2.11-2.26 10.79 10.79 0 0 1 3.05-1.31 17.24 17.24 0 0 1 3.64-.35 21.82 21.82 0 0 1 3.94.56 28.59 28.59 0 0 0 4.08.66 36.37 36.37 0 0 0 6-.44c2.17-.32 4.75-.82 5.73-1.1a9.37 9.37 0 0 0 3-1.53 7.57 7.57 0 0 0 1.77-2.54 13 13 0 0 0 .7-3.19 43.68 43.68 0 0 0-1-7.13 70.16 70.16 0 0 1-1.18-7.2 22.59 22.59 0 0 1 .18-3.41 3.85 3.85 0 0 0-.36-2.42z"/></svg>