<svg xmlns="http://www.w3.org/2000/svg" width="132.94" height="200" viewBox="0 0 132.94 200"><title>_</title><path d="M112.89 47.38c0-.61.09-1.23.12-1.82a10.56 10.56 0 0 0-.47-4.15 30.63 30.63 0 0 0-7.39.58c-4.16.73-8.47 1.32-9.81 1.35a33.3 33.3 0 0 1-4.8-.32 41.52 41.52 0 0 0-4.19-.39 31.62 31.62 0 0 0-3.83.17 4.58 4.58 0 0 0-1.9.7 22 22 0 0 0-.22 5.58 60.63 60.63 0 0 1 .07 8 29.45 29.45 0 0 1-1 4.42c-.36 1.11-.85 2.9-1.09 4s-.53 2.89-.65 4-.2 3.84-.18 6 .23 5.91.47 8.15a51.84 51.84 0 0 1 .32 6.47 29.91 29.91 0 0 1-.67 4.42 27.33 27.33 0 0 0-.6 3.89 72.08 72.08 0 0 0 .58 8.08 45.87 45.87 0 0 1 .38 8.54c-.28 1.56-2.27 5-3.53 7s-3.74 5.19-5.22 6a14.58 14.58 0 0 1-4.44 1.25A18.31 18.31 0 0 1 60 129a28.16 28.16 0 0 1-5.38-2.46c-.7-.39-1.4-.81-2.08-1.23a67.08 67.08 0 0 1-6.27-4.3c-.7-.64-1.84-1.79-2.54-2.56a15.3 15.3 0 0 1-2.25-3.45 15.2 15.2 0 0 1-1-8.6 21.1 21.1 0 0 1 1.43-4.49 12.72 12.72 0 0 0 1-3.62 11.64 11.64 0 0 0-.47-3.58 28.23 28.23 0 0 1-1-4.43 72.28 72.28 0 0 1 .06-8.56c.18-3.47.6-8.18.93-10.5s.62-5 .67-6.08c0-.92-.45-5.94-1.21-11.66-.18-1.34-.39-2.69-.62-4a35.46 35.46 0 0 0-1.31-5.67 4.51 4.51 0 0 0-1.78-.21c-1.19.12-4.24.19-6.5.19-2.47 0-8.62-.47-13.72-1a47 47 0 0 0-9-.34 3 3 0 0 0-.08 1.39C9 45 9.23 46.85 9.31 48a40.31 40.31 0 0 1 0 4.13 33.88 33.88 0 0 1-.54 4.13 37 37 0 0 1-1.15 4.11A12.55 12.55 0 0 0 7 63.78a12.57 12.57 0 0 0 .61 3.4 20.55 20.55 0 0 1 1 4.28 19.22 19.22 0 0 1-.19 4.31 17.08 17.08 0 0 0-.17 3.53A18.19 18.19 0 0 0 9 82.84a17.1 17.1 0 0 1 .76 4.36 16.88 16.88 0 0 1-.63 4.37 25 25 0 0 0-.76 3.64 54.56 54.56 0 0 0 .46 7.57c.38 3.34.68 7 .67 8.19a35.71 35.71 0 0 1-.36 4.39 22.85 22.85 0 0 0-.21 3.85 22 22 0 0 0 .6 3.76 23.19 23.19 0 0 0 1.25 3.39c.31.64 3 4.56 6.57 9.49l1.6 2.18a70 70 0 0 0 6.82 8.4 6.1 6.1 0 0 0 2.39.49h.14a12.59 12.59 0 0 1 1.27.07 13 13 0 0 1 2.46.47 12.36 12.36 0 0 1 3.35 1.8A16.87 16.87 0 0 0 38 150.9a21.86 21.86 0 0 0 3.23 1.16 14.28 14.28 0 0 0 3.4.35 16.17 16.17 0 0 0 3.54-.7 18.44 18.44 0 0 1 4.36-.84 16.24 16.24 0 0 1 4.29.49 22 22 0 0 0 3.53.6c.73 0 5.59-.49 11.48-1.42l3.44-.55c4.05-.64 10.55-1.58 11.89-1.53a13.5 13.5 0 0 0 2.9-.28 33.55 33.55 0 0 0 5.42-2.75 55.79 55.79 0 0 0 5.28-3.47 22.86 22.86 0 0 0 2.11-2.18 17.56 17.56 0 0 0 1.62-2.45 17.81 17.81 0 0 0 1.09-2.75 26.15 26.15 0 0 1 1.23-3.29 25.4 25.4 0 0 1 1.74-3 16.4 16.4 0 0 0 1.41-2.68 22.41 22.41 0 0 0 .93-3.32c.19-1 .4-2.72.47-3.73s.08-2.73 0-3.76a24.73 24.73 0 0 1 .22-4.24 26.14 26.14 0 0 1 1.1-4.17 9.54 9.54 0 0 0 .48-3.24 10.8 10.8 0 0 0-1-3.33 14.33 14.33 0 0 1-1.36-4.47 13 13 0 0 1 .54-4.53c.34-1 1-3.65 1.52-5.74a25.74 25.74 0 0 0 .74-5.43 17.32 17.32 0 0 0-.72-3.54 21 21 0 0 1-.89-4.28 19.86 19.86 0 0 1 .22-4.3 27.26 27.26 0 0 0 .35-3.67 27.12 27.12 0 0 0-.26-3.67A30.17 30.17 0 0 1 112 56a30.43 30.43 0 0 1 .41-4.17c.15-.75.33-2.53.48-4.45z"/><path d="M113.49 71.67a19.58 19.58 0 0 0 .82 3.92 18.87 18.87 0 0 1 .8 3.92 26.75 26.75 0 0 1-.77 5.88c-.5 2.15-1.2 4.8-1.56 5.88a11.46 11.46 0 0 0-.47 3.92 12.81 12.81 0 0 0 1.2 3.92 12.23 12.23 0 0 1 1.17 3.9 10.89 10.89 0 0 1-.57 3.88 24.37 24.37 0 0 0-1 3.88 22.91 22.91 0 0 0-.21 3.93c.06 1.09 0 2.86 0 3.94s-.29 2.84-.49 3.91a24 24 0 0 1-1 3.59 17.69 17.69 0 0 1-1.57 3 23.7 23.7 0 0 0-1.61 2.81A24.37 24.37 0 0 0 107 135a19.31 19.31 0 0 1-1.2 3 19.11 19.11 0 0 1-1.79 2.71 24.4 24.4 0 0 1-2.27 2.36 55.85 55.85 0 0 1-5.5 3.63 33.46 33.46 0 0 1-5.85 2.92 15 15 0 0 1-3.3.32c-.95 0-6.17.65-11.6 1.51l-3.44.55a109 109 0 0 1-11.81 1.44 23.45 23.45 0 0 1-3.82-.65 15 15 0 0 0-3.83-.43 17 17 0 0 0-3.94.76 17.46 17.46 0 0 1-3.95.78 15.48 15.48 0 0 1-3.84-.39 23.36 23.36 0 0 1-3.5-1.25 18.43 18.43 0 0 1-2.92-1.81 11 11 0 0 0-2.88-1.55 11.55 11.55 0 0 0-2.15-.41l.88 1.13a33.52 33.52 0 0 0 4.42 5 7.65 7.65 0 0 0 3.18.7 12.51 12.51 0 0 1 3.39.47 11 11 0 0 1 2.88 1.55 18.43 18.43 0 0 0 2.92 1.81 23.36 23.36 0 0 0 3.5 1.25 15.48 15.48 0 0 0 3.84.39 17.46 17.46 0 0 0 3.95-.78 17 17 0 0 1 3.94-.76 15 15 0 0 1 3.83.43 23.45 23.45 0 0 0 3.82.65 109 109 0 0 0 11.81-1.44l3.44-.55c5.43-.86 10.65-1.54 11.6-1.51a15 15 0 0 0 3.3-.32 33.46 33.46 0 0 0 5.85-2.92 55.85 55.85 0 0 0 5.5-3.63 24.4 24.4 0 0 0 2.27-2.36 19.11 19.11 0 0 0 1.79-2.71 19.31 19.31 0 0 0 1.2-3 24.37 24.37 0 0 1 1.14-3.06 23.7 23.7 0 0 1 1.61-2.81 17.69 17.69 0 0 0 1.57-3 24 24 0 0 0 1-3.59c.2-1.07.42-2.83.49-3.91s.09-2.85 0-3.94a22.91 22.91 0 0 1 .21-3.93 24.37 24.37 0 0 1 1-3.88 10.89 10.89 0 0 0 .57-3.88 12.23 12.23 0 0 0-1.17-3.9 12.81 12.81 0 0 1-1.2-3.92 11.46 11.46 0 0 1 .47-3.92c.36-1.08 1.06-3.72 1.56-5.88a26.75 26.75 0 0 0 .77-5.88 18.87 18.87 0 0 0-.8-3.92 19.58 19.58 0 0 1-.82-3.92 18.45 18.45 0 0 1 .2-3.92 28.79 28.79 0 0 0 .38-3.92 28.6 28.6 0 0 0-.28-3.92 28.44 28.44 0 0 1-.28-3.92 28.64 28.64 0 0 1 .38-3.92c.2-1.08.47-4 .61-6.45s-.33-4.92-1-5.45-4.07-.4-7.79.19l-.79.13h-.22c-.14 1.92-.34 3.78-.48 4.59a28.64 28.64 0 0 0-.38 3.92 28.44 28.44 0 0 0 .28 3.92 28.6 28.6 0 0 1 .28 3.92 28.79 28.79 0 0 1-.38 3.92 18.45 18.45 0 0 0-.16 4.03z"/><path d="M43.22 102.56a19.7 19.7 0 0 0-1.31 4.11 13.68 13.68 0 0 0 .94 7.74 13.8 13.8 0 0 0 2 3c.68.75 1.78 1.86 2.44 2.46a67 67 0 0 0 6.03 4.13c.65.41 1.34.81 2 1.19-.29-.3-.57-.59-.8-.85a13.81 13.81 0 0 1-2-3 13.68 13.68 0 0 1-.94-7.74 19.7 19.7 0 0 1 1.31-4.11 14.12 14.12 0 0 0 1.1-4.15 13.09 13.09 0 0 0-.55-4.15 26.37 26.37 0 0 1-.94-4.15 72.85 72.85 0 0 1 .07-8.3c.18-3.42.59-8.09.91-10.37s.63-5.08.68-6.22-.45-6.49-1.16-11.91S51.2 50 50.63 49.62a5.09 5.09 0 0 0-3-.57c-.73.07-2.3.13-4 .16h-1c.22 1.27.44 2.65.63 4.07.74 5.43 1.29 10.8 1.24 11.94s-.36 3.94-.68 6.22-.74 6.95-.91 10.37a72.85 72.85 0 0 0-.07 8.3 26.37 26.37 0 0 0 .94 4.15 13.09 13.09 0 0 1 .55 4.15 14.12 14.12 0 0 1-1.11 4.15z"/></svg>