<svg xmlns="http://www.w3.org/2000/svg" width="200" height="200" viewBox="0 0 200 200"><title>_</title><path d="M85.72,56a14.91,14.91,0,0,1-.08-4.13,2.69,2.69,0,0,0-.47-2,29.18,29.18,0,0,0-7.63.11c-4.1.44-8.34,0.75-9.66,0.69a46.52,46.52,0,0,1-4.7-.48,45.1,45.1,0,0,0-4.5-.46l-1.31,0c-1.11,0-2.39,0-3.28.11a5.06,5.06,0,0,0-2.57.85,2.48,2.48,0,0,0,0,1.86c0.34,1,1,2.55,1.38,3.48s1.17,2.39,1.67,3.26,1.64,3.19,2.47,5.07,2,5,2.7,6.92,1.36,4.35,1.58,5.38,0.5,2.7.63,3.75,0.41,2.59.63,3.54,0.69,2.5,1,3.4a29.26,29.26,0,0,1,1,3.69A31,31,0,0,1,65,94.82a33.72,33.72,0,0,0,.39,3.6,31.48,31.48,0,0,0,.85,3.43c0.3,0.94.87,2.43,1.26,3.34s1.1,2.36,1.58,3.24,1.33,2.28,1.9,3.12,1.58,2.19,2.25,3a23.94,23.94,0,0,1,2.22,3.32c0.6,1.13,2.18,6.81,3.37,11.57l0.49,2c1.33,5.32,3.79,13.44,5.49,18.1,1.8,4.92,3.67,8.61,4.22,9.1a11.1,11.1,0,0,0,3.3,1.36c0.84,0.18,2.13.4,3.27,0.55l1.09,0.13c1.21,0.12,3.19.18,4.41,0.15s3.23-.2,4.45-0.37,3.23-.56,4.45-0.87a40.28,40.28,0,0,1,4.66-.84,36.86,36.86,0,0,1,4.59-.14,6.25,6.25,0,0,0,2.86-.55,3.39,3.39,0,0,0,1.13-1.87,15.51,15.51,0,0,1,1.23-3.6,18.63,18.63,0,0,1,2.28-3.3,11.76,11.76,0,0,0,1.8-2.89,11.2,11.2,0,0,0,.61-3.29,13.75,13.75,0,0,1,.72-4A14,14,0,0,1,132,135.6a21.08,21.08,0,0,0,2-3,87.69,87.69,0,0,0,3-8.46c1.32-4.14,2.36-7.84,2.5-8.69a31.84,31.84,0,0,1,.9-3.72,31.43,31.43,0,0,1,1.43-3.54c0.43-.87,2-4.74,3.33-8.44s3.35-10,4.36-13.91,1.94-7.9,2.09-8.87,0.3-2.64.33-3.65a18.78,18.78,0,0,1,.63-3.93,33.76,33.76,0,0,1,2.42-5.22,57.18,57.18,0,0,0,3-6.34c0.19-.52.39-1.05,0.57-1.58,0.43-1.25.78-2.39,0.88-2.85a2,2,0,0,0-.3-1.38A5.53,5.53,0,0,0,157,51a25.34,25.34,0,0,0-3.85-.48,33.24,33.24,0,0,0-4.24.22c-1.29.17-3.4,0.32-4.69,0.34s-5.6-.35-9.59-0.82c-4.33-.51-7.4-0.4-7.91-0.19a2.89,2.89,0,0,0-1,1.88c-0.1,1.08-.46,3.44-0.81,5.28a28.84,28.84,0,0,1-1.36,5,22.46,22.46,0,0,1-1.71,3,8.09,8.09,0,0,0-1.08,2.57,9.2,9.2,0,0,0,.11,2.94,12.68,12.68,0,0,1,.21,3.7,11,11,0,0,1-1.12,3.39,17.79,17.79,0,0,0-1.19,2.77,50.13,50.13,0,0,0-.94,6.15c-0.26,2.44-.85,5.59-1.44,6.64a13.73,13.73,0,0,1-2.44,3,6.41,6.41,0,0,0-1.6,2.33,6.15,6.15,0,0,0,0,2.75,8.88,8.88,0,0,1,.13,3.84,8.57,8.57,0,0,1-1.88,3.31c-0.14.15-.29,0.32-0.44,0.51a10.25,10.25,0,0,0-1.26,2,8.87,8.87,0,0,0-.59,2.74,28,28,0,0,1-.25,3.15,16.83,16.83,0,0,1-.67,2.66,2.48,2.48,0,0,1-1.8,1.79c-1.08,0-1.92-1.21-2.08-1.47a20.92,20.92,0,0,1-1.26-2.45c-0.31-.74-0.77-2-1-2.92a18.12,18.12,0,0,1-.58-3.36,20.4,20.4,0,0,1,.16-3.53,7.65,7.65,0,0,0-.19-2.78,8.27,8.27,0,0,0-1.48-2.47,18.36,18.36,0,0,1-2.14-3c-0.56-1-1.94-6.68-2.95-11.5l-0.47-2.23C92.36,80,91.28,75.3,91,74.6a24.46,24.46,0,0,0-1.24-2.8,13.38,13.38,0,0,1-1.16-3.3,14.22,14.22,0,0,1-.1-3.56,10,10,0,0,0-.16-2.88,9.89,9.89,0,0,0-1.2-2.61,10.91,10.91,0,0,1-1.41-3.3Z" fill="#231f20"/><path d="M159,58.21a58.63,58.63,0,0,1-3,6.47,33.39,33.39,0,0,0-2.33,5,17.94,17.94,0,0,0-.59,3.68c0,1.06-.19,2.75-0.34,3.76s-1.1,5.05-2.11,9-3,10.22-4.39,14-2.93,7.63-3.37,8.54a30.36,30.36,0,0,0-1.37,3.4,30.7,30.7,0,0,0-.87,3.58c-0.17,1-1.31,5-2.54,8.83a88.17,88.17,0,0,1-3.11,8.63,22,22,0,0,1-2.15,3.14,13.1,13.1,0,0,0-1.91,3.22,12.8,12.8,0,0,0-.66,3.65,12.26,12.26,0,0,1-.68,3.65,12.79,12.79,0,0,1-2,3.19A17.81,17.81,0,0,0,125.4,153a14.58,14.58,0,0,0-1.13,3.32,4.33,4.33,0,0,1-1.57,2.53,7,7,0,0,1-3.45.71,35.37,35.37,0,0,0-4.43.14,39.25,39.25,0,0,0-4.52.82c-1.25.32-3.31,0.72-4.56,0.9s-3.31.34-4.56,0.38-3.3,0-4.53-.16l-1.13-.13c0.16,0.37.33,0.73,0.48,1.07a13.67,13.67,0,0,0,2.19,3.77,11.92,11.92,0,0,0,3.69,1.54c1.22,0.27,3.24.58,4.48,0.7s3.28,0.19,4.53.16,3.31-.2,4.56-0.38,3.31-.58,4.56-0.9a39.25,39.25,0,0,1,4.52-.82,35.37,35.37,0,0,1,4.43-.14,7,7,0,0,0,3.45-.71,4.33,4.33,0,0,0,1.57-2.53,14.58,14.58,0,0,1,1.13-3.32,17.81,17.81,0,0,1,2.14-3.09,12.79,12.79,0,0,0,2-3.19,12.26,12.26,0,0,0,.68-3.65,12.8,12.8,0,0,1,.66-3.65,13.1,13.1,0,0,1,1.91-3.22,22,22,0,0,0,2.15-3.14,88.17,88.17,0,0,0,3.11-8.63c1.23-3.85,2.37-7.82,2.54-8.83a30.7,30.7,0,0,1,.87-3.58,30.36,30.36,0,0,1,1.37-3.4c0.45-.91,2-4.75,3.37-8.54s3.38-10.09,4.39-14,2-8,2.11-9,0.31-2.71.34-3.76a17.94,17.94,0,0,1,.59-3.68,33.39,33.39,0,0,1,2.33-5,58.63,58.63,0,0,0,3-6.47,43.25,43.25,0,0,0,1.49-4.58,2.89,2.89,0,0,0-.55-2.26A6.32,6.32,0,0,0,166.88,57a26.18,26.18,0,0,0-4-.5c-0.59,0-1.4,0-2.21,0l-1.08.07C159.37,57.14,159.17,57.69,159,58.21Z" fill="#231f20"/><path d="M86.74,55.93a10,10,0,0,0,1.26,3,10.78,10.78,0,0,1,1.34,2.93,10.94,10.94,0,0,1,.19,3.24,13.33,13.33,0,0,0,.09,3.26,12.43,12.43,0,0,0,1.06,3A25.26,25.26,0,0,1,92,74.27c0.29,0.83,1.45,5.91,2.58,11.29L95,87.79A89,89,0,0,0,97.88,99a17.5,17.5,0,0,0,2,2.76,9.19,9.19,0,0,1,1.69,2.84,8.6,8.6,0,0,1,.23,3.23,19.65,19.65,0,0,0-.16,3.33,17.3,17.3,0,0,0,.54,3.14c0.24,0.84.69,2.1,1,2.81a20.15,20.15,0,0,0,1.19,2.31,2,2,0,0,0,1.17,1,1.7,1.7,0,0,0,.93-1.13,15.94,15.94,0,0,0,.62-2.47,26.67,26.67,0,0,0,.24-3,9.79,9.79,0,0,1,.67-3.12,11.21,11.21,0,0,1,1.4-2.21c-0.2-.24-0.42-0.51-0.64-0.79a15.64,15.64,0,0,1-1.17-1.73,89,89,0,0,1-2.85-11.22l-0.47-2.23C103.14,87.12,102,82,101.69,81.21a25.26,25.26,0,0,0-1.3-2.94,12.43,12.43,0,0,1-1.06-3A13.33,13.33,0,0,1,99.24,72a10.94,10.94,0,0,0-.19-3.24,10.78,10.78,0,0,0-1.34-2.93,9.94,9.94,0,0,1-1.3-3.12,14,14,0,0,1-.06-3.79A3.51,3.51,0,0,0,95.5,56c-0.59-.45-4-0.51-7.75-0.15l-0.6.06Z" fill="#231f20"/></svg>