<svg xmlns="http://www.w3.org/2000/svg" width="118.91" height="200" viewBox="0 0 118.91 200"><title>_</title><path d="M.57 41.8a2.46 2.46 0 0 0 .05 1.36c.34 1 1 2.52 1.37 3.43S3.14 49 3.64 49.82 5.29 53 6.13 54.93s2.06 5 2.72 7 1.37 4.39 1.6 5.43.5 2.73.63 3.8.4 2.55.62 3.48.68 2.45 1 3.34a29.85 29.85 0 0 1 1.05 3.76 31.58 31.58 0 0 1 .46 3.94 33.17 33.17 0 0 0 .38 3.53 30.93 30.93 0 0 0 .84 3.36c.3.92.86 2.4 1.24 3.29s1.08 2.32 1.56 3.19 1.32 2.25 1.88 3.08 1.56 2.17 2.23 3a24.53 24.53 0 0 1 2.28 3.4c.7 1.32 2.42 7.71 3.41 11.68l.49 2c1.32 5.31 3.78 13.4 5.47 18.05 1.85 5.06 3.67 8.53 4.08 8.89a10.75 10.75 0 0 0 3.08 1.25c.83.18 2.1.4 3.23.55l1.08.05c1.19.11 3.14.18 4.35.15s3.19-.19 4.39-.36 3.19-.56 4.4-.86a40.84 40.84 0 0 1 4.73-.85 37.32 37.32 0 0 1 4.66-.15 6 6 0 0 0 2.57-.47 2.94 2.94 0 0 0 .91-1.54 16.1 16.1 0 0 1 1.27-3.74 19.22 19.22 0 0 1 2.36-3.4 11.32 11.32 0 0 0 1.71-2.74 10.78 10.78 0 0 0 .58-3.11 14.34 14.34 0 0 1 .75-4.17 14.58 14.58 0 0 1 2.17-3.66 20.47 20.47 0 0 0 2-2.87c.38-.72 1.71-4.33 3-8.38s2.35-7.8 2.49-8.62a32.49 32.49 0 0 1 .92-3.79 32.07 32.07 0 0 1 1.46-3.61c.42-.86 1.94-4.71 3.31-8.4s3.34-10 4.34-13.86 1.93-7.86 2.08-8.82.29-2.6.33-3.59a19.34 19.34 0 0 1 .65-4.05 34.27 34.27 0 0 1 2.46-5.32 56.6 56.6 0 0 0 2.94-6.27c.19-.51.38-1 .56-1.57.42-1.21.77-2.35.86-2.78a1.54 1.54 0 0 0-.18-.94 5.28 5.28 0 0 0-2-.88 24.77 24.77 0 0 0-3.75-.46 33.49 33.49 0 0 0-4.16.21c-1.31.17-3.44.32-4.75.34s-5.78-.36-9.66-.82a29.78 29.78 0 0 0-7.65-.22 2.67 2.67 0 0 0-.67 1.47c-.1 1.09-.46 3.48-.82 5.33a29.35 29.35 0 0 1-1.4 5.08 23 23 0 0 1-1.76 3.1 7.61 7.61 0 0 0-1 2.37 8.75 8.75 0 0 0 .1 2.74 13.26 13.26 0 0 1 .22 3.88 11.4 11.4 0 0 1-1.18 3.57 17.17 17.17 0 0 0-1.15 2.67 50.87 50.87 0 0 0-.9 6.05c-.22 2.06-.79 5.58-1.5 6.83a14.32 14.32 0 0 1-2.54 3.08 6 6 0 0 0-1.45 2.1 5.73 5.73 0 0 0 0 2.47 9.32 9.32 0 0 1 .13 4.09 9 9 0 0 1-2 3.54c-.13.14-.27.3-.41.47a9.88 9.88 0 0 0-1.2 1.87 8.4 8.4 0 0 0-.54 2.55 28.7 28.7 0 0 1-.26 3.22 17.43 17.43 0 0 1-.69 2.76 2.92 2.92 0 0 1-2.24 2.12c-1.32.05-2.28-1.29-2.54-1.7a21.51 21.51 0 0 1-1.3-2.52c-.32-.75-.79-2.09-1-3a18.69 18.69 0 0 1-.6-3.47 21 21 0 0 1 .14-3.61 7.17 7.17 0 0 0-.17-2.55 7.81 7.81 0 0 0-1.37-2.28 19 19 0 0 1-2.21-3c-.66-1.2-2.16-7.62-3-11.64l-.47-2.23c-1.2-5.71-2.29-10.43-2.53-11.1A23.8 23.8 0 0 0 38 62.88a14 14 0 0 1-1.21-3.44 14.82 14.82 0 0 1-.11-3.7 9.6 9.6 0 0 0-.1-2.74 9.44 9.44 0 0 0-1.12-2.44A11.47 11.47 0 0 1 34 47.11v-.21a15.28 15.28 0 0 1-.08-4.29 2.61 2.61 0 0 0-.25-1.51 33.47 33.47 0 0 0-7.29.17c-4.3.46-8.48.73-9.83.73a47.07 47.07 0 0 1-4.76-.49A44.64 44.64 0 0 0 7.34 41H6.05c-1.14 0-2.39 0-3.25.11a5.06 5.06 0 0 0-2.23.69z"/><path d="M115.57 47.84a26.18 26.18 0 0 0-4-.5h-2.21l-1.08.07c-.18.53-.38 1.08-.58 1.6a58.63 58.63 0 0 1-3 6.47 33.39 33.39 0 0 0-2.33 5 17.94 17.94 0 0 0-.59 3.68c0 1.06-.19 2.75-.34 3.76s-1.1 5.05-2.11 9-3 10.22-4.39 14-2.93 7.63-3.37 8.54a30.36 30.36 0 0 0-1.37 3.4 30.7 30.7 0 0 0-.87 3.58c-.17 1-1.31 5-2.54 8.83a88.17 88.17 0 0 1-3.17 8.73 22 22 0 0 1-2.15 3.14 13.1 13.1 0 0 0-1.91 3.22 12.8 12.8 0 0 0-.66 3.64 12.26 12.26 0 0 1-.68 3.65 12.79 12.79 0 0 1-2 3.19 17.81 17.81 0 0 0-2.14 3.09 14.58 14.58 0 0 0-1.08 3.28 4.33 4.33 0 0 1-1.57 2.53 7 7 0 0 1-3.45.71 35.37 35.37 0 0 0-4.43.14 39.25 39.25 0 0 0-4.52.82c-1.25.32-3.31.72-4.56.9s-3.31.34-4.56.38-3.3 0-4.53-.16l-1.13-.13c.16.37.33.73.48 1.07a13.67 13.67 0 0 0 2.19 3.77 11.92 11.92 0 0 0 3.69 1.54c1.22.27 3.24.58 4.48.7s3.28.19 4.53.16 3.31-.2 4.56-.38 3.31-.58 4.56-.9a39.25 39.25 0 0 1 4.52-.82 35.37 35.37 0 0 1 4.43-.14 7 7 0 0 0 3.45-.71 4.33 4.33 0 0 0 1.57-2.53 14.58 14.58 0 0 1 1.13-3.32 17.81 17.81 0 0 1 2.14-3.09 12.79 12.79 0 0 0 2-3.19 12.26 12.26 0 0 0 .68-3.65 12.8 12.8 0 0 1 .66-3.65 13.1 13.1 0 0 1 1.86-3.26 22 22 0 0 0 2.15-3.14 88.17 88.17 0 0 0 3.11-8.63c1.23-3.85 2.37-7.82 2.54-8.83a30.7 30.7 0 0 1 .87-3.58 30.36 30.36 0 0 1 1.37-3.4c.45-.91 2-4.75 3.37-8.54s3.38-10.09 4.39-14 2-8 2.11-9 .31-2.71.34-3.76a17.94 17.94 0 0 1 .59-3.68 33.39 33.39 0 0 1 2.33-5 58.63 58.63 0 0 0 3-6.47 43.25 43.25 0 0 0 1.49-4.58 2.89 2.89 0 0 0-.55-2.26 6.32 6.32 0 0 0-2.72-1.29zM50.33 102a17.3 17.3 0 0 0 .54 3.14c.24.84.69 2.1 1 2.81a20.15 20.15 0 0 0 1.19 2.31 2 2 0 0 0 1.17 1 1.7 1.7 0 0 0 .93-1.13 15.94 15.94 0 0 0 .62-2.47 26.67 26.67 0 0 0 .24-3 9.79 9.79 0 0 1 .67-3.12 11.21 11.21 0 0 1 1.4-2.21c-.2-.24-.42-.51-.64-.79a15.64 15.64 0 0 1-1.17-1.73 89 89 0 0 1-2.85-11.22L53 83.35c-1.17-5.35-2.33-10.47-2.62-11.3a25.26 25.26 0 0 0-1.3-2.94 12.43 12.43 0 0 1-1.06-3 13.33 13.33 0 0 1-.09-3.26 10.94 10.94 0 0 0-.19-3.24 10.78 10.78 0 0 0-1.34-2.93 9.94 9.94 0 0 1-1.3-3.12 14 14 0 0 1-.1-3.8 3.51 3.51 0 0 0-.85-2.94c-.59-.45-4-.51-7.75-.15l-.6.06h-.41a10 10 0 0 0 1.26 3A10.78 10.78 0 0 1 38 52.66a10.94 10.94 0 0 1 .19 3.24 13.33 13.33 0 0 0 .09 3.26 12.43 12.43 0 0 0 1.06 3 25.26 25.26 0 0 1 1.3 2.94c.36.84 1.48 5.9 2.61 11.3l.47 2.23a89 89 0 0 0 2.85 11.22 17.5 17.5 0 0 0 2 2.76 9.19 9.19 0 0 1 1.69 2.84 8.6 8.6 0 0 1 .23 3.23 19.65 19.65 0 0 0-.16 3.32z"/></svg>