<svg xmlns="http://www.w3.org/2000/svg" width="200" height="200" viewBox="0 0 200 200"><title>_</title><path d="M112.65,128a66.82,66.82,0,0,1,2.41,8.08,30.57,30.57,0,0,1,.25,4.3,25.88,25.88,0,0,0,.27,3.94,50.47,50.47,0,0,0,2.47,7.15,25.36,25.36,0,0,0,3.27,6.11,11.39,11.39,0,0,0,3,1.65c0.68,0.24,2.19.67,3.93,1.11l2.21,0.54a54.22,54.22,0,0,0,6.39,1.13,89.51,89.51,0,0,0,9.06-.52c4.1-.39,7.48-1.21,8-1.59a6.15,6.15,0,0,0,1.8-2.54,34.79,34.79,0,0,0,.94-3.68,29.39,29.39,0,0,0,.39-3.55,31.42,31.42,0,0,1,.39-3.73c0.21-1.16,2-6.17,3.62-10.33a85.58,85.58,0,0,0,3.39-9.93,23.27,23.27,0,0,0,.06-3.48,20.45,20.45,0,0,1,.14-3.87,19.15,19.15,0,0,1,1-3.67c0.36-.89,1.13-3.18,1.68-5a21.21,21.21,0,0,0,.93-5,17.76,17.76,0,0,0-.6-3.59,11.68,11.68,0,0,1-.35-4.18c0.19-1.31,2.08-4.54,3.77-6.91a32.53,32.53,0,0,0,3.62-6.09,10.56,10.56,0,0,0,.16-3.25,37.91,37.91,0,0,1-.29-3.87c0-1.08.3-4.3,0.71-7.33a56.25,56.25,0,0,1,1.35-7.23,25.34,25.34,0,0,1,1.58-3.47c0.25-.44.57-1.07,0.88-1.74s0.47-1.05.63-1.47a29.76,29.76,0,0,0,1-3.43,2.12,2.12,0,0,0-.12-1.41,5.13,5.13,0,0,0-2.39.14,26.94,26.94,0,0,1-4.73.76,24.82,24.82,0,0,1-4.66-.3,23.68,23.68,0,0,0-4.18-.3,24.57,24.57,0,0,0-4.18.61,29.12,29.12,0,0,1-4.41.71,22,22,0,0,1-4.12-.19,5.63,5.63,0,0,0-2.71.31,6.18,6.18,0,0,0-2,2,13.35,13.35,0,0,0-1.3,3.36,57,57,0,0,0-.09,8.42,80.49,80.49,0,0,1,0,9c-0.16,1.25-1.06,5-2.06,8.62A73.93,73.93,0,0,1,141,92.9,38.59,38.59,0,0,1,138.59,97a9.41,9.41,0,0,0-.94,1.89,8.1,8.1,0,0,0-.49,1.8,11,11,0,0,0,.55,4.08,13.53,13.53,0,0,1,.7,5,11.58,11.58,0,0,1-1.49,4.4c-0.73,1.14-1.44,1.19-1.91,1-0.69-.23-1-0.91-0.91-2a12.32,12.32,0,0,0-.47-3.86,14.32,14.32,0,0,0-2-3.68,35.55,35.55,0,0,1-2.71-4A30.55,30.55,0,0,1,127,97.34a25.44,25.44,0,0,1-1-4.48,48,48,0,0,1,.17-6.89c0.22-2.46.38-6.44,0.36-8.86s-0.39-7.27-.84-10.83a42,42,0,0,0-1.62-8.07c-0.09-.19-0.22-0.41-0.35-0.64A14.68,14.68,0,0,0,121.86,55,19.69,19.69,0,0,0,119,52.68a36,36,0,0,0-6.28-2.16,34.87,34.87,0,0,0-6.61-1.22,12.86,12.86,0,0,0-3.43.76,14.39,14.39,0,0,1-8.27.76,3.47,3.47,0,0,0-2.31.33,5,5,0,0,0-1.13,2.54,37.18,37.18,0,0,1-1,4.53,37,37,0,0,1-1.7,4.31,13.6,13.6,0,0,0-1.08,3.87,15.29,15.29,0,0,0,.37,4.19,13.22,13.22,0,0,1,.19,4.91,13.25,13.25,0,0,1-2,4.49,24.22,24.22,0,0,0-2.2,3.8,20.59,20.59,0,0,0-1.17,4c-0.18,1.09-.72,3.51-1.3,5.76l-0.18.72c-0.59,2.27-1.24,5.14-1.41,6.28a37.41,37.41,0,0,0-.32,4.24c0,1.18.2,4.22,0.45,6.65,0.23,2.26.46,5.09,0.43,5.91,0,0.56-.16,1.9-1.05,2.29a1.59,1.59,0,0,1-1.71-.23,1.8,1.8,0,0,1-.48-1.09,1.58,1.58,0,0,1-1.24-1,20.55,20.55,0,0,1-1-3.11,21.58,21.58,0,0,1-.59-4.58,24.78,24.78,0,0,1,.57-4.76,24.74,24.74,0,0,0,.55-4.32,21.46,21.46,0,0,0-.42-4.11,21.65,21.65,0,0,0-1.39-3.93,26.39,26.39,0,0,0-2.4-3.79,23.7,23.7,0,0,1-2.55-4.2c-0.6-1.36-1.61-7.3-2.24-12.24l-1.26-9.87c-0.16-1.23-.34-2.46-0.54-3.66a31.08,31.08,0,0,0-1.5-6.41,4.15,4.15,0,0,0-2.24-.16,28.86,28.86,0,0,1-4.29.47,32.76,32.76,0,0,1-4.46-.29c-1.24-.18-3.26-0.59-4.49-0.9s-3.25-.94-4.48-1.39a31.24,31.24,0,0,0-4.46-1.16,39.22,39.22,0,0,0-5-.43,5.48,5.48,0,0,0-3.08.83c-0.21.4-.3,3,0.41,6.44a60.41,60.41,0,0,0,2,7.6,22.1,22.1,0,0,0,1.77,3,27.42,27.42,0,0,1,2,3.35c0.46,1,1.56,4,2.5,6.88a50.44,50.44,0,0,1,1.86,7.12,19,19,0,0,1-.15,4,18.11,18.11,0,0,0-.15,3.48,15.86,15.86,0,0,0,.68,3.25,24.32,24.32,0,0,0,1.42,3.15,28.14,28.14,0,0,0,2,3,27.54,27.54,0,0,1,2.18,3.3,24.21,24.21,0,0,1,1.49,3.5,20.1,20.1,0,0,1,.73,3.73,22.29,22.29,0,0,1-.1,3.92c-0.13,1-.25,2.67-0.27,3.64s0,2.59.14,3.52a13.38,13.38,0,0,0,.81,3.17,15.46,15.46,0,0,0,1.79,3,24.53,24.53,0,0,1,2.18,3.33,21,21,0,0,1,1.39,3.55,15.5,15.5,0,0,1,.43,3.88,19.31,19.31,0,0,1-.7,4.1,22.23,22.23,0,0,0-.72,3.67A17.47,17.47,0,0,0,54,150.3a18.31,18.31,0,0,0,.87,3.2,19,19,0,0,0,1.58,3A4.49,4.49,0,0,0,58.49,158a7.4,7.4,0,0,0,3.24-.24,8.22,8.22,0,0,1,1-.24,11.91,11.91,0,0,1,3.83,0,15.34,15.34,0,0,1,4.81,2.08,13.39,13.39,0,0,0,4.09,1.77,10.37,10.37,0,0,0,4-.23,36.16,36.16,0,0,1,4.68-1,36.51,36.51,0,0,1,4.79-.26,6.13,6.13,0,0,0,3.11-.78,5.09,5.09,0,0,0,1.45-2.56,32.59,32.59,0,0,0,.52-4.1,32,32,0,0,0-.13-4.11,38.58,38.58,0,0,1-.18-4.35,82.15,82.15,0,0,1,1.16-8.28,64.33,64.33,0,0,1,1.91-8.18,30.31,30.31,0,0,1,2-4c0.61-1,2-3.55,3-5.59a18.21,18.21,0,0,0,1.78-5.47,14,14,0,0,0-.71-4,24.3,24.3,0,0,1-1.08-4.61,19.24,19.24,0,0,1,.13-4.44,9.66,9.66,0,0,1,1-3.08,1.53,1.53,0,0,1,1.22-.64,1.75,1.75,0,0,1,1,.3v0a1.17,1.17,0,0,1,.66-1l0.5-.22,0.47,0.3c0.47,0.31.47,0.31,0.71,3.93a37.86,37.86,0,0,0,.66,5,27.81,27.81,0,0,0,1.25,3.76,18.86,18.86,0,0,1,1.18,4.23,19.79,19.79,0,0,1,0,4.45,20.13,20.13,0,0,0-.07,4,49.08,49.08,0,0,0,1.9,6.7Z" fill="#231f20"/><path d="M109.42,120.43a21,21,0,0,1,.07-4.2,19,19,0,0,0,0-4.19,18,18,0,0,0-1.11-4,28.69,28.69,0,0,1-1.31-3.92,38.48,38.48,0,0,1-.68-5.12c-0.11-1.72-.23-3.14-0.26-3.16s-0.07.08-.09,0.21-0.06.71-.09,1.28-0.19.89-.36,0.73S105,97.47,104.73,97a0.62,0.62,0,0,0-1-.12,8.84,8.84,0,0,0-.81,2.66,18.35,18.35,0,0,0-.12,4.16,23.13,23.13,0,0,0,1,4.38,15,15,0,0,1,.77,4.33,18.83,18.83,0,0,1-1.89,5.9c-1,2.1-2.38,4.65-3,5.68a29.15,29.15,0,0,0-1.92,3.8,63.53,63.53,0,0,0-1.86,8c-0.6,3.33-1.12,7-1.15,8.13a37.61,37.61,0,0,0,.18,4.21,32.82,32.82,0,0,1,.13,4.27,33.4,33.4,0,0,1-.54,4.26,6,6,0,0,1-1.83,3.16,7.06,7.06,0,0,1-3.74,1,35.24,35.24,0,0,0-4.63.25,35,35,0,0,0-4.52,1,11.23,11.23,0,0,1-4.47.26,14.37,14.37,0,0,1-4.47-1.93,14.44,14.44,0,0,0-4.44-1.93,11,11,0,0,0-3.48,0c0.08,0.32.17,0.65,0.26,1,0.14,0.49.29,1,.44,1.32A19.89,19.89,0,0,0,65.31,164a5.43,5.43,0,0,0,2.63,1.94,8.36,8.36,0,0,0,3.79-.25,10.87,10.87,0,0,1,4.39-.25,14.44,14.44,0,0,1,4.44,1.93A14.37,14.37,0,0,0,85,169.27a11.23,11.23,0,0,0,4.47-.26,28.86,28.86,0,0,1,9.15-1.23,7.06,7.06,0,0,0,3.74-1,6,6,0,0,0,1.83-3.16,33.4,33.4,0,0,0,.54-4.26,32.82,32.82,0,0,0-.13-4.27,37.61,37.61,0,0,1-.18-4.21c0-1.14.55-4.8,1.15-8.13a63.53,63.53,0,0,1,1.86-8,29.15,29.15,0,0,1,1.92-3.8c0.31-.51.81-1.4,1.35-2.42l0.64-1.22A49.45,49.45,0,0,1,109.42,120.43Z" fill="#231f20"/><path d="M190.9,57.32a5.08,5.08,0,0,0-3.22,0,25.83,25.83,0,0,1-4.52.73,20.51,20.51,0,0,1-2.12,0L180,57.93c-0.31.66-.64,1.33-0.91,1.81a24.22,24.22,0,0,0-1.5,3.31,55.44,55.44,0,0,0-1.31,7c-0.4,2.94-.71,6.17-0.7,7.19a36.78,36.78,0,0,0,.28,3.75,11.43,11.43,0,0,1-.18,3.63,32.21,32.21,0,0,1-3.78,6.42c-1.84,2.58-3.45,5.49-3.59,6.47a10.7,10.7,0,0,0,.32,3.76,18.75,18.75,0,0,1,.64,3.84,21.8,21.8,0,0,1-1,5.27c-0.57,1.88-1.34,4.17-1.71,5.09a18.38,18.38,0,0,0-1,3.44,19.61,19.61,0,0,0-.13,3.65,24.22,24.22,0,0,1-.06,3.67A83.51,83.51,0,0,1,162,136.44c-1.79,4.61-3.4,9.18-3.57,10.15a30.18,30.18,0,0,0-.38,3.59,30.25,30.25,0,0,1-.41,3.7,35.47,35.47,0,0,1-1,3.8,7.14,7.14,0,0,1-2.16,3c-0.84.61-4.67,1.41-8.51,1.78a90,90,0,0,1-9.22.52,54.56,54.56,0,0,1-6.55-1.15l-2.24-.55q0.3,0.62.6,1.18a12,12,0,0,0,1.81,2.79,12.4,12.4,0,0,0,3.28,1.83c1.06,0.38,3.88,1.14,6.25,1.69a54.56,54.56,0,0,0,6.55,1.15,90,90,0,0,0,9.22-.52c3.84-.37,7.67-1.17,8.51-1.78a7.14,7.14,0,0,0,2.16-3,35.47,35.47,0,0,0,1-3.8,30.25,30.25,0,0,0,.41-3.7,30.18,30.18,0,0,1,.38-3.59c0.17-1,1.78-5.54,3.57-10.15a83.51,83.51,0,0,0,3.45-10.18,24.22,24.22,0,0,0,.06-3.67,19.61,19.61,0,0,1,.13-3.65,18.38,18.38,0,0,1,1-3.44c0.37-.92,1.14-3.21,1.71-5.09a21.8,21.8,0,0,0,1-5.27,18.75,18.75,0,0,0-.64-3.84,10.7,10.7,0,0,1-.32-3.76c0.14-1,1.76-3.89,3.59-6.47a32.21,32.21,0,0,0,3.78-6.42,11.43,11.43,0,0,0,.18-3.63,36.78,36.78,0,0,1-.28-3.75c0-1,.3-4.25.7-7.19a55.44,55.44,0,0,1,1.31-7,24.22,24.22,0,0,1,1.5-3.31,29.69,29.69,0,0,0,1.57-3.34,30.54,30.54,0,0,0,1.07-3.57A2.55,2.55,0,0,0,190.9,57.32Z" fill="#231f20"/><path d="M125,57.78a41.82,41.82,0,0,1,1.72,8.38c0.45,3.58.83,8.5,0.85,10.94s-0.15,6.47-.37,9a47,47,0,0,0-.17,6.7A24.29,24.29,0,0,0,128,97a29.47,29.47,0,0,0,1.8,4.09A34.46,34.46,0,0,0,132.4,105a15.33,15.33,0,0,1,2.19,4,13.35,13.35,0,0,1,.51,4.24c-0.09,1.18.35,1.35,1,.37a10.6,10.6,0,0,0,1.34-4,12.63,12.63,0,0,0-.65-4.54,12,12,0,0,1-.6-4.53,9,9,0,0,1,.55-2c0-.67,0-1.48,0-2.35,0-1,.1-2.17.19-3.21,0.22-2.49.38-6.52,0.37-9s-0.4-7.37-.85-10.94a41.82,41.82,0,0,0-1.72-8.38,15.3,15.3,0,0,0-2.46-3.44,20.65,20.65,0,0,0-3.08-2.51A19.66,19.66,0,0,0,126,57.5l-1.36-.43C124.79,57.32,124.93,57.56,125,57.78Z" fill="#231f20"/><path d="M65.16,58.6c0.19,1.16.38,2.41,0.54,3.69L67,72.17c0.7,5.46,1.67,10.84,2.17,12a22.57,22.57,0,0,0,2.42,4,27.29,27.29,0,0,1,2.52,4,18.4,18.4,0,0,1,1.92,8.5,25.63,25.63,0,0,1-.58,4.53,23.67,23.67,0,0,0-.54,4.52,20.79,20.79,0,0,0,.56,4.33,20,20,0,0,0,1,2.9c0.22,0.43.52,0.55,0.66,0.25a6.46,6.46,0,0,1,.4-0.73,1.17,1.17,0,0,1,.2.93,3.13,3.13,0,0,0,.27,1.33,0.63,0.63,0,0,0,.62,0,1.94,1.94,0,0,0,.45-1.41c0-.68-0.17-3.27-0.42-5.77s-0.46-5.54-.45-6.76a38,38,0,0,1,.33-4.38c0.18-1.19.82-4.06,1.43-6.39L80,93.27c-0.26-.42-0.5-0.84-0.72-1.24s-0.35-.67-0.47-1c-0.5-1.13-1.47-6.51-2.17-12l-1.26-9.87c-0.7-5.46-1.76-10.27-2.36-10.71a4.67,4.67,0,0,0-3.11-.38,28.08,28.08,0,0,1-3.77.44h-1Z" fill="#231f20"/></svg>