<svg xmlns="http://www.w3.org/2000/svg" width="165" height="200" viewBox="0 0 165 200"><title>_</title><path d="M10.29 67.33a50.13 50.13 0 0 1 1.88 7.23 19.57 19.57 0 0 1-.17 4.09 17.48 17.48 0 0 0-.12 3.35 15.48 15.48 0 0 0 .66 3.12 23.67 23.67 0 0 0 1.39 3.07 27.43 27.43 0 0 0 2 3 28.17 28.17 0 0 1 2.23 3.37 24.83 24.83 0 0 1 1.52 3.59 20.69 20.69 0 0 1 .75 3.84 22.91 22.91 0 0 1-.11 4c-.13 1-.25 2.63-.27 3.58s0 2.55.14 3.47a13 13 0 0 0 .77 3 15.11 15.11 0 0 0 1.72 2.84 25.18 25.18 0 0 1 2.24 3.41 21.57 21.57 0 0 1 1.42 3.71 16.11 16.11 0 0 1 .45 4 19.87 19.87 0 0 1-.72 4.22 21.66 21.66 0 0 0-.7 3.56 16.87 16.87 0 0 0 .11 3.29 17.65 17.65 0 0 0 .84 3.09 18.34 18.34 0 0 0 1.52 2.84 4 4 0 0 0 1.77 1.33 6.93 6.93 0 0 0 3-.23 8.64 8.64 0 0 1 1.1-.25 12.5 12.5 0 0 1 4 0 15.91 15.91 0 0 1 5 2.16 13 13 0 0 0 3.9 1.69 10 10 0 0 0 3.76-.22 36.79 36.79 0 0 1 4.76-1 37.46 37.46 0 0 1 4.87-.26 5.51 5.51 0 0 0 2.8-.68 4.65 4.65 0 0 0 1.2-2.3 32 32 0 0 0 .51-4 31.3 31.3 0 0 0-.12-4 39.16 39.16 0 0 1-.19-4.42 82.71 82.71 0 0 1 1.17-8.36 64.68 64.68 0 0 1 1.94-8.28 30.9 30.9 0 0 1 2-4c.6-1 1.95-3.51 2.94-5.54a17.91 17.91 0 0 0 1.73-5.26 13.62 13.62 0 0 0-.69-3.81 24.9 24.9 0 0 1-1.1-4.73 19.81 19.81 0 0 1 .13-4.57 10.39 10.39 0 0 1 1.07-3.29A2 2 0 0 1 75.1 86a2.48 2.48 0 0 1 .65.1 1.52 1.52 0 0 1 .78-.78l.75-.32.72.48c.68.45.69.52.93 4.31a37.27 37.27 0 0 0 .64 4.87 27.23 27.23 0 0 0 1.23 3.67 19.45 19.45 0 0 1 1.2 4.37 20.4 20.4 0 0 1 0 4.58 19.51 19.51 0 0 0-.06 3.83 49.75 49.75 0 0 0 1.87 6.59l.34 1a67.18 67.18 0 0 1 2.43 8.18 31.18 31.18 0 0 1 .26 4.39 25.29 25.29 0 0 0 .26 3.85 51.1 51.1 0 0 0 2.44 7 26 26 0 0 0 3.14 5.92 11 11 0 0 0 2.81 1.56c.67.24 2.16.66 3.89 1.1l2.2.54a53.68 53.68 0 0 0 6.31 1.12 89.24 89.24 0 0 0 9-.52 30.06 30.06 0 0 0 7.77-1.5 5.65 5.65 0 0 0 1.62-2.3 34.24 34.24 0 0 0 .93-3.61 28.87 28.87 0 0 0 .38-3.48 32 32 0 0 1 .4-3.8c.22-1.24 2-6.29 3.65-10.43a86.76 86.76 0 0 0 3.36-9.8 22.69 22.69 0 0 0 .06-3.39 21 21 0 0 1 .15-4 19.73 19.73 0 0 1 1-3.78c.36-.88 1.12-3.15 1.66-5a20.94 20.94 0 0 0 .91-4.79 17.17 17.17 0 0 0-.58-3.47 12.06 12.06 0 0 1-.37-4.4c.17-1.49 2.41-5.09 3.84-7.09a32.6 32.6 0 0 0 3.55-5.92 10.11 10.11 0 0 0 .15-3.06 38.56 38.56 0 0 1-.29-3.93c0-1.1.3-4.35.71-7.4a55.8 55.8 0 0 1 1.38-7.33 26 26 0 0 1 1.61-3.55c.24-.43.56-1.05.86-1.7s.46-1 .62-1.43a29.12 29.12 0 0 0 1-3.36 2 2 0 0 0 0-.87 5.69 5.69 0 0 0-1.89.19 27.54 27.54 0 0 1-4.83.78 25.42 25.42 0 0 1-4.77-.3 23.17 23.17 0 0 0-4.07-.29 23.94 23.94 0 0 0-4.08.59 29.77 29.77 0 0 1-4.5.73 22.62 22.62 0 0 1-4.23-.19 5.22 5.22 0 0 0-2.41.26 5.77 5.77 0 0 0-1.81 1.81 13 13 0 0 0-1.24 3.21 57.24 57.24 0 0 0-.08 8.29 80.85 80.85 0 0 1 0 9.11c-.16 1.28-1.07 5.1-2.07 8.7a74.24 74.24 0 0 1-2.84 8.6 39.21 39.21 0 0 1-2.45 4.2 8.85 8.85 0 0 0-.89 1.78 7.61 7.61 0 0 0-.46 1.68 10.56 10.56 0 0 0 .52 3.86 14.11 14.11 0 0 1 .73 5.19 12.16 12.16 0 0 1-1.57 4.62c-.95 1.48-2 1.42-2.48 1.25s-1.38-.83-1.25-2.54a11.93 11.93 0 0 0-.44-3.67 14 14 0 0 0-1.93-3.53 36.15 36.15 0 0 1-2.76-4.12 31.18 31.18 0 0 1-1.91-4.34 26 26 0 0 1-1-4.58 48.55 48.55 0 0 1 .17-7c.22-2.45.38-6.41.36-8.82s-.39-7.23-.83-10.77a42.09 42.09 0 0 0-1.58-7.92c-.09-.18-.2-.38-.33-.59a14.15 14.15 0 0 0-1.84-2.44 19.14 19.14 0 0 0-2.8-2.29 36 36 0 0 0-6.15-2.1 35.64 35.64 0 0 0-6.46-1.21 12.47 12.47 0 0 0-3.26.73 18 18 0 0 1-4.22 1 17.85 17.85 0 0 1-4.33-.24 3.13 3.13 0 0 0-1.9.23 4.66 4.66 0 0 0-.95 2.22 37.81 37.81 0 0 1-1 4.6 37.69 37.69 0 0 1-1.73 4.38 13.23 13.23 0 0 0-1 3.7 14.94 14.94 0 0 0 .36 4 13.8 13.8 0 0 1 .19 5.13 13.83 13.83 0 0 1-2.1 4.69A23.58 23.58 0 0 0 55 74.75a20 20 0 0 0-1.14 3.85c-.18 1.1-.73 3.54-1.31 5.8l-.18.72c-.59 2.25-1.23 5.11-1.4 6.23a36.83 36.83 0 0 0-.32 4.17c0 1.16.2 4.18.45 6.59.23 2.25.46 5.11.43 6s-.25 2.25-1.35 2.73a2.09 2.09 0 0 1-2.26-.33 2 2 0 0 1-.54-1A2.21 2.21 0 0 1 46 108.4a20.66 20.66 0 0 1-1-3.2 22.16 22.16 0 0 1-.6-4.7 25.4 25.4 0 0 1 .58-4.87 24.1 24.1 0 0 0 .54-4.21 20.87 20.87 0 0 0-.41-4 21.07 21.07 0 0 0-1.36-3.82 25.76 25.76 0 0 0-2.35-3.7 24.32 24.32 0 0 1-2.61-4.31c-.64-1.46-1.65-7.47-2.28-12.38l-1.26-9.87c-.15-1.21-.33-2.44-.53-3.64a35.46 35.46 0 0 0-1.38-6.1 4 4 0 0 0-1.77-.06 29.44 29.44 0 0 1-4.38.48 33.72 33.72 0 0 1-4.55-.3c-1.26-.19-3.29-.6-4.54-.92s-3.29-.95-4.53-1.4a30.64 30.64 0 0 0-4.38-1.14 38.64 38.64 0 0 0-4.91-.42 5.65 5.65 0 0 0-2.65.63 19.3 19.3 0 0 0 .48 6A60.7 60.7 0 0 0 4 54a21.54 21.54 0 0 0 1.72 3 28 28 0 0 1 2 3.42c.52.93 1.63 3.98 2.57 6.91z"/><path d="M65.51 147.54a6 6 0 0 1-1.83 3.16 7.06 7.06 0 0 1-3.74 1 35.24 35.24 0 0 0-4.63.25 35 35 0 0 0-4.52 1 11.23 11.23 0 0 1-4.47.26 14.37 14.37 0 0 1-4.47-1.93 14.44 14.44 0 0 0-4.44-1.93 11 11 0 0 0-3.48 0c.08.32.17.65.26 1 .14.49.29 1 .44 1.32a19.89 19.89 0 0 0 1.68 3.16 5.43 5.43 0 0 0 2.63 1.94 8.36 8.36 0 0 0 3.79-.25 10.87 10.87 0 0 1 4.39-.25 14.44 14.44 0 0 1 4.44 1.93 14.37 14.37 0 0 0 4.44 1.91 11.23 11.23 0 0 0 4.47-.26 35 35 0 0 1 4.52-1 35.24 35.24 0 0 1 4.63-.25 7.06 7.06 0 0 0 3.74-1 6 6 0 0 0 1.83-3.16 33.38 33.38 0 0 0 .54-4.26 32.82 32.82 0 0 0-.13-4.27 37.61 37.61 0 0 1-.18-4.21c0-1.14.55-4.8 1.15-8.13a63.56 63.56 0 0 1 1.86-8 29.15 29.15 0 0 1 1.92-3.8c.31-.51.81-1.4 1.35-2.42l.64-1.22a49.45 49.45 0 0 1-1.94-6.91 21 21 0 0 1 .07-4.2 19 19 0 0 0 0-4.19 18 18 0 0 0-1.11-4A28.7 28.7 0 0 1 78.1 95a38.48 38.48 0 0 1-.68-5.12c-.11-1.72-.23-3.14-.26-3.16s-.07.08-.09.21-.07.73-.07 1.3-.19.89-.36.73-.56-.64-.88-1.06a.62.62 0 0 0-1-.12 8.83 8.83 0 0 0-.81 2.66 18.34 18.34 0 0 0-.12 4.16 23.13 23.13 0 0 0 1 4.38 15 15 0 0 1 .77 4.33 18.83 18.83 0 0 1-1.89 5.9c-1 2.1-2.38 4.65-3 5.68a29.15 29.15 0 0 0-1.92 3.8 63.56 63.56 0 0 0-1.86 8c-.6 3.33-1.12 7-1.15 8.13a37.61 37.61 0 0 0 .18 4.21 32.82 32.82 0 0 1 .13 4.27 33.38 33.38 0 0 1-.58 4.24zM161.91 48.16a5.08 5.08 0 0 0-3.22 0 25.83 25.83 0 0 1-4.52.73 20.51 20.51 0 0 1-2.12 0l-1.05-.11c-.31.66-.64 1.33-.91 1.81a24.22 24.22 0 0 0-1.5 3.31 55.39 55.39 0 0 0-1.31 7c-.4 2.94-.71 6.17-.7 7.19a36.78 36.78 0 0 0 .28 3.75 11.44 11.44 0 0 1-.18 3.63 32.2 32.2 0 0 1-3.78 6.42c-1.84 2.58-3.45 5.49-3.59 6.47a10.71 10.71 0 0 0 .32 3.76 18.74 18.74 0 0 1 .64 3.84 21.81 21.81 0 0 1-1 5.27c-.57 1.88-1.34 4.17-1.71 5.09a18.38 18.38 0 0 0-1 3.44 19.62 19.62 0 0 0-.13 3.65 24.22 24.22 0 0 1-.06 3.67 83.51 83.51 0 0 1-3.37 10.2c-1.79 4.61-3.4 9.18-3.57 10.15A30.18 30.18 0 0 0 129 141a30.25 30.25 0 0 1-.41 3.7 35.47 35.47 0 0 1-1 3.8 7.14 7.14 0 0 1-2.16 3c-.84.61-4.67 1.41-8.51 1.78a90 90 0 0 1-9.22.52 54.56 54.56 0 0 1-6.55-1.15l-2.15-.48q.3.62.6 1.18a12 12 0 0 0 1.81 2.79 12.4 12.4 0 0 0 3.28 1.83c1.06.38 3.88 1.14 6.25 1.69a54.56 54.56 0 0 0 6.55 1.15 90 90 0 0 0 9.22-.52c3.84-.37 7.67-1.17 8.51-1.78a7.14 7.14 0 0 0 2.16-3 35.47 35.47 0 0 0 1-3.8 30.25 30.25 0 0 0 .41-3.7 30.18 30.18 0 0 1 .38-3.59c.17-1 1.78-5.54 3.57-10.15a83.51 83.51 0 0 0 3.4-10.27 24.22 24.22 0 0 0 .06-3.67 19.62 19.62 0 0 1 .13-3.65 18.38 18.38 0 0 1 1-3.44c.37-.92 1.14-3.21 1.71-5.09a21.81 21.81 0 0 0 1-5.27 18.74 18.74 0 0 0-.64-3.84 10.71 10.71 0 0 1-.32-3.76c.14-1 1.76-3.89 3.59-6.47a32.2 32.2 0 0 0 3.78-6.42 11.44 11.44 0 0 0 .18-3.63 36.78 36.78 0 0 1-.28-3.75c0-1 .3-4.25.7-7.19a55.39 55.39 0 0 1 1.31-7 24.22 24.22 0 0 1 1.5-3.31 29.69 29.69 0 0 0 1.57-3.34 30.54 30.54 0 0 0 1.07-3.57 2.55 2.55 0 0 0-.59-2.44zM107.08 104.48a10.6 10.6 0 0 0 1.34-4 12.63 12.63 0 0 0-.65-4.54 12 12 0 0 1-.6-4.53 9 9 0 0 1 .55-2v-2.35c0-1 .1-2.17.19-3.21.22-2.49.38-6.52.37-9s-.4-7.37-.85-10.94a41.83 41.83 0 0 0-1.72-8.38 15.3 15.3 0 0 0-2.46-3.44 20.65 20.65 0 0 0-3.08-2.51A19.66 19.66 0 0 0 97 48.34l-1.36-.43c.15.25.29.5.39.72A41.83 41.83 0 0 1 97.76 57c.45 3.58.83 8.5.85 10.94s-.15 6.47-.37 9a47 47 0 0 0-.17 6.7 24.3 24.3 0 0 0 .93 4.23 29.48 29.48 0 0 0 1.8 4.09 34.46 34.46 0 0 0 2.62 3.91 15.33 15.33 0 0 1 2.19 4 13.35 13.35 0 0 1 .51 4.24c-.12 1.18.34 1.35.96.37zM50.86 84.83l.14-.71c-.26-.42-.5-.84-.72-1.24s-.35-.67-.47-1c-.5-1.13-1.47-6.51-2.17-12l-1.26-9.87c-.7-5.46-1.76-10.27-2.36-10.71a4.67 4.67 0 0 0-3.07-.3 28.07 28.07 0 0 1-3.77.44h-1c.19 1.16.38 2.41.54 3.69L38 63c.7 5.46 1.67 10.84 2.17 12a22.58 22.58 0 0 0 2.42 4 27.29 27.29 0 0 1 2.52 4 22.6 22.6 0 0 1 1.47 4.16 22.44 22.44 0 0 1 .42 4.27 25.63 25.63 0 0 1-.6 4.57 23.67 23.67 0 0 0-.54 4.52 20.79 20.79 0 0 0 .56 4.33 20 20 0 0 0 1 2.9c.22.43.52.55.66.25a6.5 6.5 0 0 1 .4-.73 1.17 1.17 0 0 1 .2.93 3.13 3.13 0 0 0 .27 1.33.63.63 0 0 0 .62 0 1.94 1.94 0 0 0 .45-1.41c0-.68-.17-3.27-.42-5.77s-.46-5.54-.45-6.76a38 38 0 0 1 .33-4.38c.12-1.21.76-4.06 1.38-6.38z"/></svg>