<svg xmlns="http://www.w3.org/2000/svg" width="123.14" height="200" viewBox="0 0 123.14 200"><title>_</title><path d="M1.75 149a33.63 33.63 0 0 1 5.2.07 38.35 38.35 0 0 1 4.93.94l.37.1a31.9 31.9 0 0 0 4.82.9 30.24 30.24 0 0 0 4.81-.05c1.44-.16 5-.33 7.94-.38a19.77 19.77 0 0 0 6.31-1 14.64 14.64 0 0 0 3.2-4.65 127.94 127.94 0 0 1 7-11.85c2.62-4 5.24-8.17 5.72-9.13a5.23 5.23 0 0 1 3.3-2.86 5.78 5.78 0 0 1 4.12 1.6 17.47 17.47 0 0 1 3 3.68A19.48 19.48 0 0 1 64.2 131c0 .18.09.38.15.58a29.2 29.2 0 0 0 1.19 3.5 26.67 26.67 0 0 0 2 3.67c.73 1.06 1.84 2.86 2.47 4s1.57 3.11 2.1 4.36a4.9 4.9 0 0 0 1.93 2.16 7 7 0 0 0 3.51 0l.64-.15a23.53 23.53 0 0 1 4.34-.44h.76a21.53 21.53 0 0 1 5.65 1.32 20.17 20.17 0 0 0 4.68 1.15 18.57 18.57 0 0 0 4.64-.32c1.45-.33 3.8-.72 5.24-.89s3.78-.3 5.2-.31a5.65 5.65 0 0 0 2-.35 2.93 2.93 0 0 0-.36-1.05A27.37 27.37 0 0 0 108 145a30.58 30.58 0 0 0-2.92-2.91 21.56 21.56 0 0 1-3.21-3.5 64.65 64.65 0 0 1-3.87-8.14 47.63 47.63 0 0 0-3.69-7.36 22.91 22.91 0 0 0-2.91-2.86 15.1 15.1 0 0 1-3.22-3.72 16.07 16.07 0 0 1-1.6-4.73 27.17 27.17 0 0 0-1-4.15 23.28 23.28 0 0 0-1.79-3.63 25.67 25.67 0 0 0-2.5-3.25 31.83 31.83 0 0 0-3.32-3 7.69 7.69 0 0 1-2.82-4 6.32 6.32 0 0 1 1.4-4.54c.73-.92 2.34-3.2 3.57-5.09A110.18 110.18 0 0 1 88 74.37 179.47 179.47 0 0 0 99.07 60.2l4.83-6.94c1.9-2.73 3.8-5.56 5.09-7.57 1-1.62 1.31-2.12 1.38-2.26a2.27 2.27 0 0 0 .18-1.44 5.79 5.79 0 0 0-2.36-.9 30.27 30.27 0 0 0-4.78-.3 32.07 32.07 0 0 0-4.81.62 25.84 25.84 0 0 1-5.48.51 26.56 26.56 0 0 1-5.47-.92 37.37 37.37 0 0 0-5-1 39.72 39.72 0 0 0-5.21-.22 7.66 7.66 0 0 0-3.55 1 5.5 5.5 0 0 0-1.54 2.76 44 44 0 0 1-1.23 4.7 111.76 111.76 0 0 1-5.92 11l-.7 1.21c-1.25 2.11-2.56 4.16-3.71 5.78-2.16 3-2.94 3.56-3.86 3.56-1.68 0-4.14-3.5-5.91-6.41a82.19 82.19 0 0 1-4.32-7.79 26.19 26.19 0 0 1-1.21-4.3A13.38 13.38 0 0 0 44.37 48l-.07-.11a11 11 0 0 0-1.95-2.35 25 25 0 0 0-3.13-2.13 39.48 39.48 0 0 0-4.06-1.9 13 13 0 0 0-4.22-.76 15.69 15.69 0 0 0-4.48 1A28.91 28.91 0 0 1 21 43.16 69.15 69.15 0 0 1 10.7 43a38.42 38.42 0 0 0-7.13 0 1.94 1.94 0 0 0 .12.82 13.13 13.13 0 0 0 1.61 2.81 16.73 16.73 0 0 0 2.63 2.47 15.68 15.68 0 0 1 3.21 3.28A15.55 15.55 0 0 1 13 56.56a12.12 12.12 0 0 0 1.44 3.2A12.43 12.43 0 0 0 17 62.25a14.76 14.76 0 0 1 3.29 3.27 14.66 14.66 0 0 1 1.82 4.25 21 21 0 0 0 1.23 3.6 18.87 18.87 0 0 0 1.95 3.08c.66.81 2.52 2.78 4.06 4.31a28.62 28.62 0 0 1 4.05 4.85 13.75 13.75 0 0 1 1.31 4 19.75 19.75 0 0 1 .05 4.08 21 21 0 0 1-.95 4 24.39 24.39 0 0 1-1.88 3.86 28.75 28.75 0 0 1-2.74 3.57 18.21 18.21 0 0 0-2.28 3.24 20.07 20.07 0 0 0-1.41 3.87 15.13 15.13 0 0 1-2 4.59 15.45 15.45 0 0 1-3.69 3.44A11.84 11.84 0 0 0 17 123a11.79 11.79 0 0 0-1.46 3.56 19.76 19.76 0 0 1-1.64 4.67 18.12 18.12 0 0 1-2.95 3.77c-.72.69-3.54 4.23-6.45 8.22A53 53 0 0 0 .76 149a6.79 6.79 0 0 0 .99 0z"/><path d="M11.59 157.42a32 32 0 0 1 4.93.07 36.29 36.29 0 0 1 5 1 33.18 33.18 0 0 0 5.1.95 31.55 31.55 0 0 0 5.1-.05c1.4-.15 4.92-.32 7.81-.37s6.07-.57 7.05-1.16 2.69-3 3.79-5.3a126.55 126.55 0 0 1 6.87-11.66c1.94-3 3.82-5.93 4.92-7.74.29-.48.54-.9.7-1.19-.06-.22-.12-.44-.16-.64a18.12 18.12 0 0 0-1.59-4.15 16 16 0 0 0-2.69-3.31 4.45 4.45 0 0 0-2.89-1.24 3.88 3.88 0 0 0-2.19 2c-.51 1-3.12 5.19-5.8 9.28a126.55 126.55 0 0 0-6.87 11.66c-1.09 2.33-2.8 4.71-3.79 5.3s-4.16 1.11-7.05 1.16-6.41.22-7.81.37a31.55 31.55 0 0 1-5.1.05 33.18 33.18 0 0 1-5.1-.95l-.34-.09-.59.88c-1.6 2.44-2.59 4.31-2.35 4.59s1.71.65 3.05.54zM108.7 151.1c-1.38 0-3.64.14-5 .3s-3.68.55-5.08.86a20 20 0 0 1-5.1.35 21.66 21.66 0 0 1-5.1-1.25 20.14 20.14 0 0 0-5.16-1.19 20.48 20.48 0 0 0-4.7.39l.44.93c.52 1 1.1 2.26 1.47 3.13a6.22 6.22 0 0 0 2.73 3 8.39 8.39 0 0 0 4.46.06 20.19 20.19 0 0 1 5.27-.52 20.14 20.14 0 0 1 5.16 1.19 21.66 21.66 0 0 0 5.1 1.25 20 20 0 0 0 5.1-.35c1.4-.31 3.69-.7 5.08-.86s3.66-.29 5-.3a5 5 0 0 0 3.23-.92c.4-.5.25-1.73-.32-2.74a28.67 28.67 0 0 0-2.44-3.45 31.69 31.69 0 0 0-3.1-3.08 20.2 20.2 0 0 1-2.95-3.21 64.4 64.4 0 0 1-3.78-7.82 47.26 47.26 0 0 0-3.91-7.73A24.38 24.38 0 0 0 102 126a13.6 13.6 0 0 1-2.84-3.28 14.61 14.61 0 0 1-1.42-4.22 28.68 28.68 0 0 0-1.09-4.43 24.76 24.76 0 0 0-1.88-3.92 27.1 27.1 0 0 0-2.68-3.49 33.22 33.22 0 0 0-3.51-3.14 6.32 6.32 0 0 1-2.25-3.09 5 5 0 0 1 1.09-3.33c.76-1 2.4-3.3 3.66-5.21a108.4 108.4 0 0 1 7.74-9.59A181.58 181.58 0 0 0 110 68l4.83-6.94c3.14-4.51 6.11-9 6.59-10a3.26 3.26 0 0 0 .06-2.95 6.07 6.07 0 0 0-3.35-1.52 32.29 32.29 0 0 0-5.07-.32c-.44 0-1 .06-1.54.11l-1.28.15c-1.26 2-3.16 4.79-5.13 7.61l-4.83 6.94a181.58 181.58 0 0 1-11.16 14.29A108.4 108.4 0 0 0 81.38 85c-1.25 1.91-2.9 4.26-3.66 5.21a5 5 0 0 0-1.09 3.33 6.32 6.32 0 0 0 2.25 3.09 33.22 33.22 0 0 1 3.51 3.14 27.1 27.1 0 0 1 2.68 3.49 24.76 24.76 0 0 1 1.88 3.92 28.68 28.68 0 0 1 1.05 4.38 14.61 14.61 0 0 0 1.42 4.22 13.6 13.6 0 0 0 2.84 3.28 24.38 24.38 0 0 1 3.14 3.09 47.26 47.26 0 0 1 3.91 7.73 64.4 64.4 0 0 0 3.78 7.82 20.2 20.2 0 0 0 2.95 3.21 31.69 31.69 0 0 1 3.1 3.08 28.67 28.67 0 0 1 2.44 3.45c.58 1 .72 2.23.32 2.74a5 5 0 0 1-3.2.92zM47 51a24.44 24.44 0 0 0 1.13 4 83.51 83.51 0 0 0 4.17 7.6c1.9 3.12 4 5.68 4.64 5.69.35 0 1.35-1.14 2.63-2.93l-.54-1c-.6-1.09-1-2-1.22-2.41a24.44 24.44 0 0 1-1.13-4 14.75 14.75 0 0 0-1.28-3.78A12.14 12.14 0 0 0 53 51.3a26.4 26.4 0 0 0-3.33-2.3C49 48.64 48 48.14 47 47.7c-.49-.22-1-.43-1.4-.6l.09.15A14.75 14.75 0 0 1 47 51z"/></svg>