<svg xmlns="http://www.w3.org/2000/svg" width="108.52" height="200" viewBox="0 0 108.52 200"><title>_</title><path d="M74.77 103c.38-.9 1.09-2.34 1.57-3.2a20.82 20.82 0 0 1 2.15-3 23.15 23.15 0 0 1 2.8-2.6 7 7 0 0 0 2.81-4.86 14.81 14.81 0 0 1 1.12-3.8 13.78 13.78 0 0 1 2.26-3.17c.63-.63 2.11-2.36 3.23-3.79s4.43-6.38 7.35-11l.16-.26c3.11-4.94 5.65-9.15 6-9.84a21.31 21.31 0 0 0 1.09-3 35 35 0 0 1 1.15-3.48 32.85 32.85 0 0 1 1.54-3.18c.32-.55 1-1.56 1.89-2.79.49-.67 1-1.38 1.52-2a11.57 11.57 0 0 0 1.25-2 82.09 82.09 0 0 0-9-.53l-5.85-.08c-5.45-.07-12.13.09-14.88.36a18.62 18.62 0 0 0-6.29 1.57c-.7.48-3.16 3.64-5.59 7.7-2.23 3.73-5 8.88-6.25 11.48s-3.1 7.17-4.18 10.18c-.09.26-.19.51-.28.75-2 5.09-3.24 5.77-4.13 5.8-2 .07-3.24-2.84-3.6-3.74a53.34 53.34 0 0 0-2.39-5.12 43.8 43.8 0 0 0-2.86-4.4c-.92-1.22-2.92-4.25-4.46-6.76a81.43 81.43 0 0 1-4.83-9.43c-.25-.61-.54-1.25-.86-1.88a16.33 16.33 0 0 0-2.36-3.8 9.93 9.93 0 0 0-3.42-1.77 38.7 38.7 0 0 0-4.68-.82c-1.29-.13-5.83-.14-9.92 0s-8.63.29-9.9.46a44.11 44.11 0 0 0-4.51.84 9.06 9.06 0 0 0-1.66.59 14.67 14.67 0 0 1 1.92 2.3c.68 1 2.62 6.46 3.76 9.85 1.64 4.88 3.11 8.89 3.46 9.58a20.36 20.36 0 0 0 1.65 2.66c.6.79 1.49 2.12 2 3S14.8 72 15.2 72.95a9.69 9.69 0 0 0 1.64 2.34 13.18 13.18 0 0 0 2.7 1.87A15.8 15.8 0 0 1 23 79.58a12.14 12.14 0 0 1 2.26 3.28c.35.82 1 2.16 1.45 2.93s1.22 2 1.72 2.77a25.09 25.09 0 0 1 1.8 3.19 26.59 26.59 0 0 1 1.25 3.5 31.13 31.13 0 0 0 1 3.12c.33.81 1.75 3.48 3.11 5.83a55.17 55.17 0 0 1 3.41 6.69 47.41 47.41 0 0 1 1.3 4.7 23.16 23.16 0 0 1 .39 5.47 24.43 24.43 0 0 1-1.19 5.45 31.24 31.24 0 0 0-1.24 4.76 74.38 74.38 0 0 0 0 9.89 28.62 28.62 0 0 0 1.29 7.84 24.85 24.85 0 0 0 7 .22c3-.24 6.22-.39 8.16-.39h1.3a44.34 44.34 0 0 1 4.74.72 29.07 29.07 0 0 0 4.21.55 25.18 25.18 0 0 0 4-.24 6.09 6.09 0 0 0 2.71-1.3 8.73 8.73 0 0 0 1.68-3.13 21.76 21.76 0 0 0 .65-4.53 23.69 23.69 0 0 0-.53-4.71 24 24 0 0 1-.05-10.95 22.28 22.28 0 0 0 .08-9.62 30.35 30.35 0 0 1-.58-5 16.84 16.84 0 0 1 .57-4.24c.34-.92.9-2.44 1.28-3.38z"/><path d="M113.38 45.94h-2.23c-.81 1.12-1.51 2.14-1.8 2.65a31.17 31.17 0 0 0-1.49 3 33 33 0 0 0-1.1 3.28 22.57 22.57 0 0 1-1.19 3.23c-.4.84-3.13 5.34-6.06 10l-.16.26C96.4 73 93.05 78 91.89 79.52s-2.67 3.24-3.35 3.92a12.26 12.26 0 0 0-2 2.77 13.3 13.3 0 0 0-1 3.35 10.66 10.66 0 0 1-1.09 3.29 10.54 10.54 0 0 1-2.3 2.57 21.76 21.76 0 0 0-2.59 2.4 19.36 19.36 0 0 0-2 2.77c-.45.81-1.13 2.19-1.5 3.05s-.81 2.36-1.06 3.23a15.33 15.33 0 0 0-.5 3.79 28.67 28.67 0 0 0 .55 4.69 23.75 23.75 0 0 1-.09 10.26 27.32 27.32 0 0 0-.57 5.13 27.65 27.65 0 0 0 .62 5.14 25.24 25.24 0 0 1 .57 5.07 23.22 23.22 0 0 1-.71 4.91 10.06 10.06 0 0 1-2.07 3.79 7.57 7.57 0 0 1-3.53 1.71 27 27 0 0 1-4.33.26 30.41 30.41 0 0 1-4.47-.58 42.73 42.73 0 0 0-4.54-.7 86.78 86.78 0 0 0-9.18.35c0 .34.08.67.12 1 .35 2.72.87 4.87 1.36 5.33.69.64 4.38.92 8.2.62a87.08 87.08 0 0 1 9.21-.35 42.73 42.73 0 0 1 4.54.7 30.41 30.41 0 0 0 4.47.58 27 27 0 0 0 4.33-.26 7.57 7.57 0 0 0 3.53-1.71 10.06 10.06 0 0 0 2.07-3.79 23.22 23.22 0 0 0 .71-4.91 25.24 25.24 0 0 0-.57-5.07 27.65 27.65 0 0 1-.62-5.14 27.32 27.32 0 0 1 .57-5.13 23.75 23.75 0 0 0 .09-10.26 28.67 28.67 0 0 1-.55-4.69 15.33 15.33 0 0 1 .5-3.79c.28-.92.82-2.38 1.18-3.25s1-2.24 1.5-3.05a19.36 19.36 0 0 1 2-2.77 21.76 21.76 0 0 1 2.59-2.4 10.54 10.54 0 0 0 2.3-2.57 10.66 10.66 0 0 0 1.09-3.29 13.3 13.3 0 0 1 1-3.35 12.26 12.26 0 0 1 2-2.77c.68-.68 2.18-2.44 3.35-3.92S106.11 80 109 75.31l.16-.26c2.93-4.65 5.66-9.15 6.06-10a22.57 22.57 0 0 0 1.19-3.23 33 33 0 0 1 1.1-3.28 31.17 31.17 0 0 1 1.49-3c.46-.81 1.95-2.9 3.3-4.65s2.13-3.54 1.74-4-5.16-.89-10.66-.95zM48.56 64.07a46 46 0 0 1 3 4.61A55.53 55.53 0 0 1 54 74c.61 1.55 1.58 2.8 2.16 2.79s1.73-2.13 2.77-4.84c-.23-.34-.46-.65-.66-.92v-.06c-.9-1.21-2.83-4.14-4.33-6.58a79.62 79.62 0 0 1-4.72-9.22 22.77 22.77 0 0 0-3.6-6.22 11.25 11.25 0 0 0-4.06-2.11c-.49-.12-1.11-.26-1.75-.38l-1.2-.21c.32.65.63 1.32.9 2a79.62 79.62 0 0 0 4.72 9.22c1.47 2.43 3.44 5.42 4.33 6.6z"/></svg>