<svg xmlns="http://www.w3.org/2000/svg" width="200" height="200" viewBox="0 0 200 200"><title>_</title><path d="M95.4,89.37a62.11,62.11,0,0,0-3,6,30,30,0,0,1-3.48,6.22,13.91,13.91,0,0,1-3,2.17,31.94,31.94,0,0,0-2.84,1.71,57.94,57.94,0,0,0-4.78,4.34,47.86,47.86,0,0,0-4.3,4.72,23.76,23.76,0,0,0-1.53,2.85,24.58,24.58,0,0,1-1.7,3.14,22.9,22.9,0,0,1-2.19,2.72A23.32,23.32,0,0,1,66,125.5a25.94,25.94,0,0,1-3.13,1.84,16.27,16.27,0,0,0-2.72,1.74,15.85,15.85,0,0,0-2.18,2.33,8.22,8.22,0,0,0-1.18,2.6,8.5,8.5,0,0,0,.08,2.9,16.79,16.79,0,0,1,.37,3.7,16,16,0,0,1-.63,3.61,16.43,16.43,0,0,0-.6,3.06,15.51,15.51,0,0,0,.15,3c0.16,0.93.34,2.51,0.4,3.51s0.07,2.66,0,3.71a3.57,3.57,0,0,0,.73,2.21,6.25,6.25,0,0,0,2.82,1.16,30.11,30.11,0,0,0,4.27.28l0.85,0a26.67,26.67,0,0,0,3.19-.42,26.67,26.67,0,0,1,4.32-.49,27.26,27.26,0,0,1,4.34.37,15.54,15.54,0,0,0,3.86.12,17.53,17.53,0,0,0,3.89-1.07,28,28,0,0,1,4.35-1.38,65.08,65.08,0,0,1,8.53-.5c3.49,0,7.27.07,8.45,0.21a38.58,38.58,0,0,1,4.3.82,20.74,20.74,0,0,0,3.93.55,20,20,0,0,0,3.93-.39,28.45,28.45,0,0,1,4.35-.55,27.53,27.53,0,0,1,4.35.28,34.85,34.85,0,0,0,4,.35,33.48,33.48,0,0,0,4-.23,21.25,21.25,0,0,1,4.41,0,23.35,23.35,0,0,1,4.39,1.06,14.38,14.38,0,0,0,3.77.75,13.3,13.3,0,0,0,3.6-.57,10,10,0,0,0,2.76-1.52,5.24,5.24,0,0,0,1.26-2,10,10,0,0,0,.26-2.63,12.77,12.77,0,0,0-.62-2.87,13,13,0,0,1-.66-3.56,12.8,12.8,0,0,1,.56-3.56,31.06,31.06,0,0,0,.82-3.2c0.19-1,.4-2.71.47-3.75a3.7,3.7,0,0,0-.57-2.24,4.24,4.24,0,0,0-2.37-.78,20.22,20.22,0,0,0-3.77.31,17.68,17.68,0,0,0-3.43,1.17,13.51,13.51,0,0,1-3.84,1.14,12.25,12.25,0,0,1-3.88-.34c-0.92-.26-2.48-0.61-3.39-0.76s-2.47-.31-3.39-0.36a19.16,19.16,0,0,0-3.3.19,21.61,21.61,0,0,0-3.32.89,23.41,23.41,0,0,1-3.69,1,41.81,41.81,0,0,1-5,.17l-2.17,0c-2.93-.1-6.09-0.29-7.05-0.43a31.81,31.81,0,0,1-3.44-.73c-0.22-.06-2.18-0.65-2.5-1.86-0.25-.94.53-2,1.41-2.7,0.65-.49,2.3-1.92,3.6-3.1a67.26,67.26,0,0,0,6.25-7.5c2.2-3,5-6.6,6.24-8a43.28,43.28,0,0,0,3-3.79,23.48,23.48,0,0,0,1.53-2.89,11,11,0,0,1,2.14-3.11,11.89,11.89,0,0,1,3.26-2,16.19,16.19,0,0,0,2.89-1.57,38.57,38.57,0,0,0,4.34-4.72,75.06,75.06,0,0,1,5.69-6.29A23.77,23.77,0,0,0,144.51,85a14.27,14.27,0,0,0,1.28-3,10.13,10.13,0,0,1,1.87-3.48,10.83,10.83,0,0,1,3.3-2.29,4.64,4.64,0,0,0,1.93-1.53,3.66,3.66,0,0,0,0-2.2,15.9,15.9,0,0,1-.62-3.65,14.21,14.21,0,0,1,.45-3.56,9.78,9.78,0,0,0,.28-2.85,10.87,10.87,0,0,0-.8-2.88,17.67,17.67,0,0,1-.89-2.43c-0.08-.3-0.15-0.57-0.2-0.8a9.68,9.68,0,0,1-.06-2.94,1.42,1.42,0,0,0-.15-0.86,76.78,76.78,0,0,0-9.68-1.79c-5.61-.79-10.38-1.33-11.31-1.33a25.15,25.15,0,0,0-3.79.35,35.13,35.13,0,0,1-4.13.48c-1.16,0-6.46-.2-12.08-0.57l-4-.26C100.07,49,95.11,48.85,94.19,49s-2.82.43-3.86,0.68-2.83.78-3.87,1.17a15.13,15.13,0,0,1-4.32.8h0a15.12,15.12,0,0,1-4.29-.75c-1.07-.38-2.82-0.9-3.89-1.17s-2.81-.6-3.88-0.75a14.55,14.55,0,0,0-3.55,0A13.42,13.42,0,0,0,63.23,50a7.67,7.67,0,0,0-2.15,1.65,13.82,13.82,0,0,0-.32,4.74,34.54,34.54,0,0,1-.06,6.2,20.43,20.43,0,0,1-1.07,3.43A13.56,13.56,0,0,0,58.8,69a11.38,11.38,0,0,0,.07,2.85,2.88,2.88,0,0,0,.75,1.49,2.87,2.87,0,0,0,1.66.08A14.56,14.56,0,0,1,64.65,73a15.7,15.7,0,0,1,3.41.57c0.84,0.25,2.26.6,3.09,0.77s2.25,0.36,3.08.44a21.57,21.57,0,0,0,3,0,22.72,22.72,0,0,0,3-.51A12.42,12.42,0,0,1,83.8,74a13.47,13.47,0,0,1,3.49.9,9.29,9.29,0,0,0,2.81.63,9.08,9.08,0,0,0,2.8-.52,16.81,16.81,0,0,1,3.43-.88,9.86,9.86,0,0,1,1.14,0c1.35,0,3.34.13,4.93,0.29,4.89,0.51,5.12,1.19,5.26,1.64s0.36,1.11-5.79,6.83l-1.45,1.36A62.2,62.2,0,0,0,95.4,89.37Z" fill="#231f20"/><path d="M101.19,82.15c3.13-2.9,5.62-5.51,5.53-5.79s-2.08-.71-4.42-1a37.7,37.7,0,0,0-5.84-.25,16,16,0,0,0-3.19.82,10,10,0,0,1-3.19.59,10.19,10.19,0,0,1-3.19-.71A12.52,12.52,0,0,0,83.71,75a11.48,11.48,0,0,0-3.19.26,23.46,23.46,0,0,1-3.19.53,22.51,22.51,0,0,1-3.19,0c-0.88-.08-2.31-0.28-3.19-0.45s-2.31-.53-3.19-0.79h0c-0.09.35-.16,0.68-0.21,1,0,0.08,0,.18,0,0.25A12.43,12.43,0,0,0,67.59,79a3.67,3.67,0,0,0,1.19,2.15,3.65,3.65,0,0,0,2.45.21,13.74,13.74,0,0,1,3.1-.33,14.83,14.83,0,0,1,3.16.53c0.88,0.26,2.31.62,3.19,0.79s2.31,0.38,3.19.45a22.51,22.51,0,0,0,3.19,0,23.46,23.46,0,0,0,3.19-.53A11.48,11.48,0,0,1,93.42,82a12.52,12.52,0,0,1,3.19.82,9.87,9.87,0,0,0,1.86.54,8.3,8.3,0,0,0,1.27.17Z" fill="#231f20"/><path d="M153.14,59.13a11.72,11.72,0,0,1,.89,3.21,10.66,10.66,0,0,1-.31,3.21,13.28,13.28,0,0,0-.42,3.27,14.89,14.89,0,0,0,.57,3.38,4.58,4.58,0,0,1-.1,3,5.49,5.49,0,0,1-2.43,2,9.85,9.85,0,0,0-2.95,2,9.14,9.14,0,0,0-1.65,3.08,15.31,15.31,0,0,1-1.39,3.25A24.75,24.75,0,0,1,142,89.26a74.09,74.09,0,0,0-5.6,6.19,38.57,38.57,0,0,1-4.53,4.91,17.19,17.19,0,0,1-3.11,1.69,10.92,10.92,0,0,0-2.94,1.84,10,10,0,0,0-1.91,2.78,24.47,24.47,0,0,1-1.61,3,43.73,43.73,0,0,1-3.14,3.91c-1.22,1.37-4,4.94-6.18,7.92a67.26,67.26,0,0,1-6.38,7.64c-1.33,1.22-3,2.64-3.67,3.16a2.18,2.18,0,0,0-1.05,1.65,2.87,2.87,0,0,0,1.81,1.16,30.78,30.78,0,0,0,3.31.71c0.93,0.13,4.05.32,6.94,0.42l2.15,0,0.22-.2c0.22-.2.5-0.49,0.79-0.8a79.7,79.7,0,0,0,5.59-6.84c2.18-3,5-6.55,6.18-7.92a43.73,43.73,0,0,0,3.14-3.91,24.47,24.47,0,0,0,1.61-3,10,10,0,0,1,1.91-2.78A10.92,10.92,0,0,1,138.5,109a17.19,17.19,0,0,0,3.11-1.69,38.57,38.57,0,0,0,4.53-4.91,74.09,74.09,0,0,1,5.6-6.19,24.75,24.75,0,0,0,3.34-3.73,15.31,15.31,0,0,0,1.39-3.25,9.14,9.14,0,0,1,1.65-3.08,9.85,9.85,0,0,1,2.95-2,5.49,5.49,0,0,0,2.43-2,4.58,4.58,0,0,0,.1-3,14.89,14.89,0,0,1-.57-3.38,13.28,13.28,0,0,1,.42-3.27,10.66,10.66,0,0,0,.31-3.21,11.72,11.72,0,0,0-.89-3.21,15.86,15.86,0,0,1-1-3,8.6,8.6,0,0,1-.06-2.58,2.22,2.22,0,0,0-.51-1.84c-0.34-.3-3.69-1-7.87-1.64l-1.1-.17A17.15,17.15,0,0,0,153.14,59.13Z" fill="#231f20"/><path d="M155.75,144.2a11.85,11.85,0,0,0-.51,3.23,12,12,0,0,0,.6,3.23,13.81,13.81,0,0,1,.68,3.14,11,11,0,0,1-.29,3,6.16,6.16,0,0,1-1.55,2.49,10.83,10.83,0,0,1-3.1,1.73,13.52,13.52,0,0,1-4,.63,15.34,15.34,0,0,1-4.09-.81,22.25,22.25,0,0,0-4.17-1,20.42,20.42,0,0,0-4.17,0,29,29,0,0,1-8.33-.12,26.76,26.76,0,0,0-4.16-.27,27.26,27.26,0,0,0-4.16.52,21.33,21.33,0,0,1-4.17.42,21.63,21.63,0,0,1-4.17-.59A37.55,37.55,0,0,0,106,159c-1.15-.14-4.89-0.23-8.33-0.21a64.22,64.22,0,0,0-8.33.48,26.81,26.81,0,0,0-4.17,1.32,18.49,18.49,0,0,1-4.16,1.14,16.61,16.61,0,0,1-4.16-.13,25.84,25.84,0,0,0-4.15-.36,25.58,25.58,0,0,0-4.12.46,27.66,27.66,0,0,1-3.33.44c0,0.33,0,.67,0,1s0,0.93,0,1.3a4.49,4.49,0,0,0,1,3,7.1,7.1,0,0,0,3.38,1.44,31.64,31.64,0,0,0,4.44.29,27.51,27.51,0,0,0,4.22-.48,25.58,25.58,0,0,1,4.12-.46,25.84,25.84,0,0,1,4.15.36,16.61,16.61,0,0,0,4.16.13,18.49,18.49,0,0,0,4.16-1.14,26.81,26.81,0,0,1,4.17-1.32,64.22,64.22,0,0,1,8.33-.48c3.44,0,7.18.07,8.33,0.21a37.55,37.55,0,0,1,4.16.79,21.63,21.63,0,0,0,4.17.59,21.33,21.33,0,0,0,4.17-.42,27.26,27.26,0,0,1,4.16-.52,26.76,26.76,0,0,1,4.16.27,29,29,0,0,0,8.33.12,20.42,20.42,0,0,1,4.17,0,22.25,22.25,0,0,1,4.17,1,15.34,15.34,0,0,0,4.09.81,13.52,13.52,0,0,0,4-.63,10.83,10.83,0,0,0,3.1-1.73,6.16,6.16,0,0,0,1.55-2.49,11,11,0,0,0,.29-3,13.81,13.81,0,0,0-.68-3.14,12,12,0,0,1-.6-3.23,11.85,11.85,0,0,1,.51-3.23,31.63,31.63,0,0,0,.87-3.42c0.18-1,.39-2.69.47-3.78a4.54,4.54,0,0,0-.84-3,5.11,5.11,0,0,0-3.06-1.08,20.77,20.77,0,0,0-4,.33c-0.35.07-.77,0.19-1.21,0.32s-0.72.23-1.08,0.36A31.76,31.76,0,0,1,155.75,144.2Z" fill="#231f20"/></svg>