<svg xmlns="http://www.w3.org/2000/svg" width="107.82" height="200" viewBox="0 0 107.82 200"><title>_</title><path d="M1.07 144.65c.06 1 .07 2.69 0 3.76a3.13 3.13 0 0 0 .58 1.83 5.86 5.86 0 0 0 2.54 1 29.67 29.67 0 0 0 4.18.28h.82a26.1 26.1 0 0 0 3.12-.41 27.3 27.3 0 0 1 4.42-.5 28.89 28.89 0 0 1 4.44.38 15.17 15.17 0 0 0 3.71.12 16.91 16.91 0 0 0 3.76-1 28.6 28.6 0 0 1 4.45-1.41 65.44 65.44 0 0 1 8.63-.51c3.51 0 7.33.07 8.52.22a39.22 39.22 0 0 1 4.37.83 20.09 20.09 0 0 0 3.82.54 19.68 19.68 0 0 0 3.81-.38 29 29 0 0 1 4.44-.56 27.94 27.94 0 0 1 4.45.29 34.22 34.22 0 0 0 3.95.34 31.56 31.56 0 0 0 4-.23 21.86 21.86 0 0 1 4.54 0 24 24 0 0 1 4.5 1.09 14 14 0 0 0 3.61.72 12.93 12.93 0 0 0 3.41-.55 9.53 9.53 0 0 0 2.56-1.5 4.78 4.78 0 0 0 1.11-1.77 9.61 9.61 0 0 0 .24-2.47 12.39 12.39 0 0 0-.59-2.73 13.62 13.62 0 0 1-.69-3.72 13.36 13.36 0 0 1 .59-3.73 30.32 30.32 0 0 0 .8-3.13c.19-1 .39-2.65.46-3.69a3.38 3.38 0 0 0-.43-1.86 3.88 3.88 0 0 0-2-.62 19.86 19.86 0 0 0-3.66.3 17.07 17.07 0 0 0-3.32 1.13 14.11 14.11 0 0 1-4 1.18 12.92 12.92 0 0 1-4.07-.36c-.91-.26-2.44-.6-3.34-.74s-2.43-.31-3.33-.35a18.64 18.64 0 0 0-3.19.19 21.06 21.06 0 0 0-3.22.87 24 24 0 0 1-3.79 1 41.69 41.69 0 0 1-5.11.17h-2.18c-2.95-.1-6.13-.29-7.11-.43a32.31 32.31 0 0 1-3.51-.75c-.41-.12-2.46-.77-2.85-2.22-.33-1.24.65-2.52 1.59-3.23.65-.49 2.28-1.9 3.56-3.07a66.62 66.62 0 0 0 6.18-7.42c2.21-3 5-6.63 6.27-8a42.76 42.76 0 0 0 3-3.73A22.93 22.93 0 0 0 66.6 97a11.45 11.45 0 0 1 2.25-3.27 12.3 12.3 0 0 1 3.42-2.15A15.87 15.87 0 0 0 75.05 90a38.64 38.64 0 0 0 4.24-4.63A75.56 75.56 0 0 1 85 79a23.72 23.72 0 0 0 3.08-3.42 13.91 13.91 0 0 0 1.22-2.87 10.54 10.54 0 0 1 2-3.68 11.22 11.22 0 0 1 3.48-2.42 4.28 4.28 0 0 0 1.68-1.3 3.23 3.23 0 0 0 0-1.82 16.51 16.51 0 0 1-.64-3.79 14.83 14.83 0 0 1 .49-3.7 9.28 9.28 0 0 0 .26-2.67 10.44 10.44 0 0 0-.75-2.72 18.38 18.38 0 0 1-.92-2.51c-.09-.31-.16-.6-.21-.84a10.08 10.08 0 0 1-.06-3.12.93.93 0 0 0 0-.38 88.74 88.74 0 0 0-9.38-1.7c-5.59-.79-10.33-1.32-11.24-1.33a24.49 24.49 0 0 0-3.7.34 35.73 35.73 0 0 1-4.2.49c-1.19 0-6.51-.2-12.14-.57l-4-.26c-5.79-.38-10.81-.54-11.71-.44s-2.77.42-3.8.66-2.78.77-3.82 1.15a15.73 15.73 0 0 1-4.49.83 15.56 15.56 0 0 1-4.49-.78c-1.06-.37-2.78-.89-3.84-1.15s-2.78-.59-3.83-.74a14.15 14.15 0 0 0-3.4 0 13 13 0 0 0-3.11 1 7.32 7.32 0 0 0-2 1.5 15.83 15.83 0 0 0-.22 4.41 34.43 34.43 0 0 1-.07 6.33 21 21 0 0 1-1.1 3.53 13.17 13.17 0 0 0-.79 2.81 11 11 0 0 0 .06 2.7 2.68 2.68 0 0 0 .55 1.17 2.93 2.93 0 0 0 1.25 0 15.25 15.25 0 0 1 3.51-.38 16.28 16.28 0 0 1 3.54.59c.83.25 2.22.59 3 .75s2.21.36 3 .43a20.87 20.87 0 0 0 2.93 0 22.05 22.05 0 0 0 2.94-.49 12.74 12.74 0 0 1 3.69-.3 14.07 14.07 0 0 1 3.65.94 8.81 8.81 0 0 0 2.62.59 8.09 8.09 0 0 0 2.61-.49 17.39 17.39 0 0 1 3.55-.91 10.22 10.22 0 0 1 1.2-.05c1.31 0 3.26.12 5 .3 4.83.51 5.43 1.2 5.68 2s.46 1.42-5.93 7.35l-1.35 1.4a62.49 62.49 0 0 0-5 5 63 63 0 0 0-2.93 5.91c-.9 2-2.59 5.37-3.59 6.37A14.5 14.5 0 0 1 30.24 95a31.32 31.32 0 0 0-2.79 1.68 58.81 58.81 0 0 0-4.71 4.32 48 48 0 0 0-4.23 4.64 23.22 23.22 0 0 0-1.51 2.77 25.12 25.12 0 0 1-1.74 3.21 23.51 23.51 0 0 1-2.26 2.79 24 24 0 0 1-2.73 2.34 26.6 26.6 0 0 1-3.2 1.88 15.9 15.9 0 0 0-2.62 1.67 15.47 15.47 0 0 0-2.1 2.24A7.72 7.72 0 0 0 1.29 125a8 8 0 0 0 .08 2.69 17.41 17.41 0 0 1 .38 3.83 16.57 16.57 0 0 1-.65 3.74 16 16 0 0 0-.58 2.95 15.11 15.11 0 0 0 .15 2.93c.16.86.33 2.5.4 3.51z"/><path d="M12.82 72a3.65 3.65 0 0 0 2.45.21 13.74 13.74 0 0 1 3.1-.33 14.83 14.83 0 0 1 3.16.53c.88.26 2.31.62 3.19.79s2.31.38 3.19.45a22.51 22.51 0 0 0 3.19 0 23.46 23.46 0 0 0 3.19-.53 11.48 11.48 0 0 1 3.19-.26 12.52 12.52 0 0 1 3.19.82 9.86 9.86 0 0 0 1.86.54 8.3 8.3 0 0 0 1.27.17L45.22 73c3.13-2.9 5.62-5.51 5.53-5.79s-2.08-.71-4.42-1a37.7 37.7 0 0 0-5.84-.21 16 16 0 0 0-3.19.82 10 10 0 0 1-3.19.59 10.19 10.19 0 0 1-3.19-.71 12.52 12.52 0 0 0-3.19-.82 11.48 11.48 0 0 0-3.19.26 23.46 23.46 0 0 1-3.19.53 22.51 22.51 0 0 1-3.19 0c-.88-.08-2.31-.28-3.19-.45s-2.31-.53-3.19-.79c-.09.35-.16.68-.21 1v.25a12.42 12.42 0 0 0 .07 3.15A3.67 3.67 0 0 0 12.82 72zM95.39 68a9.84 9.84 0 0 0-2.95 2 9.14 9.14 0 0 0-1.65 3.08 15.31 15.31 0 0 1-1.39 3.25 24.74 24.74 0 0 1-3.34 3.73 74.14 74.14 0 0 0-5.6 6.19 38.56 38.56 0 0 1-4.53 4.91 17.19 17.19 0 0 1-3.11 1.69 10.91 10.91 0 0 0-2.94 1.84A10 10 0 0 0 68 97.51a24.47 24.47 0 0 1-1.61 3 43.75 43.75 0 0 1-3.14 3.91c-1.22 1.37-4 4.94-6.18 7.92a67.26 67.26 0 0 1-6.41 7.66c-1.33 1.22-3 2.64-3.67 3.16a2.18 2.18 0 0 0-1.05 1.65 2.87 2.87 0 0 0 1.82 1.19 30.78 30.78 0 0 0 3.31.71c.93.13 4.05.32 6.94.42h2.15l.22-.2c.22-.2.5-.49.79-.8a79.7 79.7 0 0 0 5.59-6.84c2.18-3 5-6.55 6.18-7.92a43.75 43.75 0 0 0 3.14-3.91 24.47 24.47 0 0 0 1.61-3 10 10 0 0 1 1.91-2.78 10.91 10.91 0 0 1 2.94-1.84 17.19 17.19 0 0 0 3.11-1.69 38.56 38.56 0 0 0 4.53-4.91A74.14 74.14 0 0 1 95.77 87a24.74 24.74 0 0 0 3.34-3.73 15.31 15.31 0 0 0 1.39-3.25 9.14 9.14 0 0 1 1.65-3.02 9.84 9.84 0 0 1 2.95-2 5.49 5.49 0 0 0 2.43-2 4.58 4.58 0 0 0 .1-3 14.91 14.91 0 0 1-.57-3.38 13.29 13.29 0 0 1 .42-3.27 10.66 10.66 0 0 0 .31-3.21 11.72 11.72 0 0 0-.89-3.21 15.88 15.88 0 0 1-1-3 8.61 8.61 0 0 1-.06-2.58 2.22 2.22 0 0 0-.51-1.84c-.34-.3-3.69-1-7.87-1.64l-1.1-.17a17.16 17.16 0 0 0 .82 2.3 11.72 11.72 0 0 1 .89 3.21 10.66 10.66 0 0 1-.31 3.21 13.29 13.29 0 0 0-.42 3.27 14.91 14.91 0 0 0 .58 3.31 4.58 4.58 0 0 1-.1 3 5.49 5.49 0 0 1-2.43 2zM110.37 138.57c.18-1 .39-2.69.47-3.78a4.54 4.54 0 0 0-.84-3 5.11 5.11 0 0 0-3.06-1.08 20.77 20.77 0 0 0-4 .33c-.35.07-.77.19-1.21.32s-.72.23-1.08.36a31.76 31.76 0 0 1-.85 3.32 11.85 11.85 0 0 0-.51 3.23 12 12 0 0 0 .6 3.23 13.82 13.82 0 0 1 .68 3.14 11 11 0 0 1-.29 3 6.17 6.17 0 0 1-1.55 2.49 10.83 10.83 0 0 1-3.1 1.73 13.52 13.52 0 0 1-4 .63 15.34 15.34 0 0 1-4.09-.81 22.25 22.25 0 0 0-4.17-1 20.42 20.42 0 0 0-4.17 0 35.22 35.22 0 0 1-4.16.24 35.43 35.43 0 0 1-4.16-.36 26.76 26.76 0 0 0-4.16-.27 27.26 27.26 0 0 0-4.16.52 21.33 21.33 0 0 1-4.17.42 21.63 21.63 0 0 1-4.17-.59 37.56 37.56 0 0 0-4.16-.79c-1.15-.14-4.89-.23-8.33-.21a64.22 64.22 0 0 0-8.33.48 26.81 26.81 0 0 0-4.17 1.32 18.49 18.49 0 0 1-4.16 1.14 16.61 16.61 0 0 1-4.16-.13 25.84 25.84 0 0 0-4.15-.36 25.58 25.58 0 0 0-4.12.46 27.66 27.66 0 0 1-3.33.44v2.3a4.49 4.49 0 0 0 1 3 7.1 7.1 0 0 0 3.38 1.44 31.64 31.64 0 0 0 4.44.29 27.51 27.51 0 0 0 4.22-.48 25.58 25.58 0 0 1 4.12-.46 25.84 25.84 0 0 1 4.15.36 16.61 16.61 0 0 0 4.16.13 18.49 18.49 0 0 0 4.22-1.19 26.81 26.81 0 0 1 4.17-1.32 64.22 64.22 0 0 1 8.33-.48c3.44 0 7.18.07 8.33.21a37.56 37.56 0 0 1 4.16.79 21.63 21.63 0 0 0 4.17.59 21.33 21.33 0 0 0 4.17-.42 27.26 27.26 0 0 1 4.16-.52 26.76 26.76 0 0 1 4.16.27 35.43 35.43 0 0 0 4.16.36 35.22 35.22 0 0 0 4.16-.24 20.42 20.42 0 0 1 4.17 0 22.25 22.25 0 0 1 4.17 1 15.34 15.34 0 0 0 4.09.81 13.52 13.52 0 0 0 4-.63 10.83 10.83 0 0 0 3.1-1.73 6.17 6.17 0 0 0 1.55-2.49 11 11 0 0 0 .29-3 13.82 13.82 0 0 0-.68-3.14 12 12 0 0 1-.6-3.23 11.85 11.85 0 0 1 .51-3.23 31.66 31.66 0 0 0 .8-3.41z"/></svg>