<svg xmlns="http://www.w3.org/2000/svg" width="79.21" height="200" viewBox="0 0 79.21 200"><title>_</title><path d="M14 141.5a14.49 14.49 0 0 0-1.7 3.06 72.84 72.84 0 0 0-.16 11.16l.16 4.22a95.5 95.5 0 0 0 .76 11.06 14.49 14.49 0 0 0 1.21 2.45 8.18 8.18 0 0 0 1.43 1.62 3.75 3.75 0 0 0 1.28.57 19.51 19.51 0 0 1 2.51.58c.62.19 1.62.56 2.45.89l.38.16a24.87 24.87 0 0 0 2.72.94 23.39 23.39 0 0 0 2.76.52c.67.08 3.79.16 7.33.15a53 53 0 0 0 7.13-.36 15.2 15.2 0 0 0 2.68-1.07 9.81 9.81 0 0 1 3.7-1 9 9 0 0 1 3.74 1 7.71 7.71 0 0 0 2.37.79 5.88 5.88 0 0 0 2.17-.33 3.45 3.45 0 0 0 1.24-.88 2.34 2.34 0 0 0 .09-1.19 15.13 15.13 0 0 1-.29-3.06 17 17 0 0 1 .45-3.13 11.36 11.36 0 0 0 .28-2.45 11.65 11.65 0 0 0-.4-2.45 20.5 20.5 0 0 1-.63-3c0-.34-.06-.76-.07-1.18a13.29 13.29 0 0 1 .05-1.6 3.23 3.23 0 0 0-.14-1.25 3 3 0 0 0-.79-.88 9.15 9.15 0 0 0-1.67-.83 35.13 35.13 0 0 0-4-.73l-.48-.07a21.48 21.48 0 0 0-4.55-.2 11.71 11.71 0 0 0-2.42 1c-1.56.87-3.14.75-3.86-.28s-.24-3.32-.05-4a15 15 0 0 0 .48-3.62 13.65 13.65 0 0 0-.67-3.46 13 13 0 0 1-.67-4.47 13.86 13.86 0 0 1 1.18-4.32 8.5 8.5 0 0 0 .74-3.16 9 9 0 0 0-.92-3.19 21.42 21.42 0 0 1-1.67-4.21 17.88 17.88 0 0 1-.45-4.3 26.41 26.41 0 0 1 .57-4.15 30 30 0 0 1 1.36-4.11 16 16 0 0 0 1-3.46A42.72 42.72 0 0 0 40 102a47.8 47.8 0 0 1-.72-8.11 22.26 22.26 0 0 1 .93-4.2 11.75 11.75 0 0 0 .52-3.33A12.11 12.11 0 0 0 40 83a21.09 21.09 0 0 1-1.13-4.22 56.8 56.8 0 0 1 .16-8c.17-2.34.59-6.4 1.42-7.34a3.18 3.18 0 0 1 3.52-.61 9.78 9.78 0 0 0 2 .54 9.19 9.19 0 0 0 2-.05 13.67 13.67 0 0 0 2.18-.61 17.3 17.3 0 0 0 2.25-1.13 10.19 10.19 0 0 1 2.91-1.18 7.18 7.18 0 0 1 2.95.12 1 1 0 0 0 .31 0 2.63 2.63 0 0 0 .15-.66 23.92 23.92 0 0 1 .47-2.86 30 30 0 0 1 .87-3 13 13 0 0 0 .58-2.49 26.23 26.23 0 0 0-.31-3.88c-.06-.48-.13-1-.2-1.45a16.23 16.23 0 0 0-1-3.8 3 3 0 0 0-1.09 0 11.77 11.77 0 0 1-3.54.25 13.1 13.1 0 0 1-3.48-1 13.07 13.07 0 0 0-2.63-.84 11.07 11.07 0 0 0-2.57-.07 20.09 20.09 0 0 0-2.75.58 23.73 23.73 0 0 0-2.79 1.09 10 10 0 0 1-3.63.89 10.49 10.49 0 0 1-3.64-.8 9.61 9.61 0 0 0-2.51-.68 8.67 8.67 0 0 0-2.46.25 16.36 16.36 0 0 1-3.37.54 46.46 46.46 0 0 1-7.08-1.07 21.76 21.76 0 0 0-4.19-.49 5.27 5.27 0 0 0-.93.06 4.72 4.72 0 0 0-.56 1.87 18.46 18.46 0 0 0 .19 3.71A15.53 15.53 0 0 0 13.2 50a22.42 22.42 0 0 1 1.4 3.76c.36 1.43.26 6.22.1 9.09-.22 4.09-.32 7.68-.28 8.48a32 32 0 0 0 .39 3.27c.16.89.54 2.4.81 3.28a10.63 10.63 0 0 1 .38 4.17 12.72 12.72 0 0 1-1.53 4 11 11 0 0 0-1.2 3 8.57 8.57 0 0 0 .06 2.84c.23 1 .63 3.38.89 5.33a30.1 30.1 0 0 1 .28 5.54 23.57 23.57 0 0 1-.78 3.74c-.28.89-.8 3.19-1.14 5a14.05 14.05 0 0 0-.19 4.51 12.34 12.34 0 0 0 1.48 3 10.44 10.44 0 0 1 1.67 4.15 9 9 0 0 1-.78 4.27 7.62 7.62 0 0 0-.64 2.77 7.93 7.93 0 0 0 .78 2.79 8.51 8.51 0 0 1 .89 4.33A9.92 9.92 0 0 1 14 141.5z"/><path d="M70.37 64.3a28.55 28.55 0 0 1 .82-2.78 14.41 14.41 0 0 0 .66-2.85 35 35 0 0 0-.53-5.67c-.37-2.36-1.06-4.53-1.53-4.82A3.71 3.71 0 0 0 67.4 48a10.47 10.47 0 0 1-3 .21 9.52 9.52 0 0 1-1.52-.33c-.36-.11-.73-.22-1.05-.35a27.1 27.1 0 0 1 .31 4.22 14.41 14.41 0 0 1-.66 2.85 28.55 28.55 0 0 0-.82 2.78 22.48 22.48 0 0 0-.41 2.62 3 3 0 0 1-.69 1.78 2.11 2.11 0 0 1-1.68.17 5.74 5.74 0 0 0-2.25-.09 8.78 8.78 0 0 0-2.41 1 18.91 18.91 0 0 1-2.48 1.25 15.11 15.11 0 0 1-2.48.69 10.52 10.52 0 0 1-2.46.06 11.1 11.1 0 0 1-2.43-.64 1.74 1.74 0 0 0-1.82.21c-.34.39-.82 3.3-1.05 6.46a56.23 56.23 0 0 0-.17 7.69 19.73 19.73 0 0 0 1 3.86 13.58 13.58 0 0 1 .83 3.86 13.14 13.14 0 0 1-.6 3.86 20.87 20.87 0 0 0-.82 3.84 47.32 47.32 0 0 0 .71 7.73 42.47 42.47 0 0 1 .65 7.73 17.51 17.51 0 0 1-1.1 3.88 28.17 28.17 0 0 0-1.28 3.86 24.77 24.77 0 0 0-.53 3.86 16.39 16.39 0 0 0 .41 3.86 20.08 20.08 0 0 0 1.54 3.86 10.31 10.31 0 0 1 1.1 3.86 9.91 9.91 0 0 1-.89 3.86 12.35 12.35 0 0 0-1.06 3.86 11.48 11.48 0 0 0 .58 3.86 15.1 15.1 0 0 1 .76 3.93 16.29 16.29 0 0 1-.53 4.08A4.58 4.58 0 0 0 41 155c.24.35 1.09.27 1.9-.18a13.05 13.05 0 0 1 2.81-1.12 21.22 21.22 0 0 1 5.08.18l.49.07c0-.34-.12-.69-.19-1a12.82 12.82 0 0 0-.45-1.68 11.48 11.48 0 0 1-.58-3.86 12.35 12.35 0 0 1 1.06-3.86 9.91 9.91 0 0 0 .88-3.95 10.31 10.31 0 0 0-1.1-3.86 20.08 20.08 0 0 1-1.54-3.86 16.39 16.39 0 0 1-.41-3.86 24.77 24.77 0 0 1 .53-3.86 28.17 28.17 0 0 1 1.28-3.86 17.51 17.51 0 0 0 1.08-3.86 42.47 42.47 0 0 0-.65-7.73 47.32 47.32 0 0 1-.71-7.73 20.87 20.87 0 0 1 .85-3.86 13.14 13.14 0 0 0 .6-3.86 13.58 13.58 0 0 0-.83-3.86 19.73 19.73 0 0 1-1-3.86 56.23 56.23 0 0 1 .17-7.69c.24-3.17.71-6.07 1.05-6.46a1.74 1.74 0 0 1 1.82-.21 11.1 11.1 0 0 0 2.43.64 10.52 10.52 0 0 0 2.43-.09 15.11 15.11 0 0 0 2.45-.73 18.91 18.91 0 0 0 2.48-1.25 8.78 8.78 0 0 1 2.41-1 5.74 5.74 0 0 1 2.25.09 2.11 2.11 0 0 0 1.68-.17 3 3 0 0 0 .73-1.72 22.48 22.48 0 0 1 .37-2.65zM69.91 174.18a13 13 0 0 0-.46-2.85 19 19 0 0 1-.58-2.71 12.93 12.93 0 0 1 0-2.44 4.62 4.62 0 0 0-.27-2 4.32 4.32 0 0 0-1.32-1.51 10.55 10.55 0 0 0-2-1 38.51 38.51 0 0 0-4.81-.86h-.34l-1-.11c0 .37 0 .74.06 1a19 19 0 0 0 .58 2.71 13 13 0 0 1 .46 2.85 12.74 12.74 0 0 1-.33 2.85 15.37 15.37 0 0 0-.4 2.8 13.62 13.62 0 0 0 .25 2.7 3.65 3.65 0 0 1-.27 2.27 4.61 4.61 0 0 1-2 1.51 7.37 7.37 0 0 1-2.86.43 9.11 9.11 0 0 1-3-1 7.56 7.56 0 0 0-3-.85 7.46 7.46 0 0 0-3 .79 16.58 16.58 0 0 1-3 1.2 51.86 51.86 0 0 1-7.51.41c-3.3 0-6.68-.06-7.51-.15a24.76 24.76 0 0 1-3-.56 26.32 26.32 0 0 1-2.92-1l-.36-.15c.14.38.35.85.57 1.31a13.61 13.61 0 0 0 .78 1.41 9.57 9.57 0 0 0 1.78 2 5.09 5.09 0 0 0 2 .86 18.07 18.07 0 0 1 2.28.53c.68.21 1.89.66 2.69 1a26.32 26.32 0 0 0 2.92 1 24.76 24.76 0 0 0 3 .56c.83.09 4.2.16 7.51.15a51.86 51.86 0 0 0 7.51-.41 16.58 16.58 0 0 0 3-1.2 7.46 7.46 0 0 1 3-.79 7.56 7.56 0 0 1 3 .85 9.11 9.11 0 0 0 3 1 7.37 7.37 0 0 0 2.86-.43 4.61 4.61 0 0 0 2-1.51 3.65 3.65 0 0 0 .27-2.27 13.62 13.62 0 0 1-.25-2.7 15.37 15.37 0 0 1 .4-2.8 12.74 12.74 0 0 0 .27-2.89z"/></svg>