<svg xmlns="http://www.w3.org/2000/svg" width="101.95" height="200" viewBox="0 0 101.95 200"><title>_</title><path d="M18.91 62.21A86.33 86.33 0 0 1 23.63 71a31 31 0 0 1 1.06 4c.19 1.06.57 2.73.84 3.74.23.85 2 5.42 4.18 10.62C32 94.79 34 99 34.41 99.6a35.29 35.29 0 0 0 2.33 2.94c.77.85 1.92 2.3 2.58 3.23a39.86 39.86 0 0 1 2.14 3.46c.53 1 1.59 3.46 2.36 5.51s1.73 4.27 2.2 5.15a25.75 25.75 0 0 0 2 3 18.44 18.44 0 0 1 2.16 3.69 19.41 19.41 0 0 1 1.1 4.19 32.71 32.71 0 0 0 .74 3.7 30 30 0 0 0 1.24 3.44 36.6 36.6 0 0 0 1.71 3.25c.53.88 2.43 3.6 4.24 6.07a58.88 58.88 0 0 0 4.14 5.2 6.25 6.25 0 0 0 1.63 1A16.48 16.48 0 0 0 67 154c.31.05.74.1 1.17.14s.86.07 1.19.08c.64 0 2.34-.08 3.85-.23s3.47-.29 4.3-.29 2.33.08 3.22.17a1.4 1.4 0 0 0 .6-.07 5.67 5.67 0 0 0-.22-1.76c-.32-1.09-.9-2.78-1.3-3.75s-2.83-5.64-5.31-10.19a166 166 0 0 0-9.1-14.66c-2.55-3.53-5.52-7.93-6.61-9.81a41.69 41.69 0 0 1-2.71-5.43 32.87 32.87 0 0 1-1.07-4 23.37 23.37 0 0 0-1-3.49c-.36-.92-2-4-3.5-6.64a50.63 50.63 0 0 1-3.51-7.3 29.41 29.41 0 0 1-.82-4.17 21.26 21.26 0 0 0-.78-3.6 19.36 19.36 0 0 0-1.48-3.19 34 34 0 0 0-2.13-3 37.4 37.4 0 0 0-2.6-2.81 14.59 14.59 0 0 1-2.62-3.61A14.66 14.66 0 0 1 35.43 62a14.53 14.53 0 0 0-.8-3.42 13.5 13.5 0 0 0-1.77-2.91c-.52-.62-1.49-1.91-2.46-3.27-.33-.47-.66-.94-1-1.38a31.72 31.72 0 0 0-2.85-3.69 6 6 0 0 0-1.59-1 7.73 7.73 0 0 0-1.88-.32 9.32 9.32 0 0 0-2.21.26 18.85 18.85 0 0 1-3 .44 18.75 18.75 0 0 1-3-.15c-.69-.1-1.75-.21-2.31-.24h-1.23c.25.87.81 2.49 1.64 4.5a110.07 110.07 0 0 0 5.94 11.39z"/><path d="M80.63 155.33c-.87-.1-2.24-.17-3.05-.16s-2.68.13-4.16.28-3.3.26-4 .24c-.37 0-.83 0-1.29-.08l.8 1.06a41.66 41.66 0 0 0 3.18 3.86 7.69 7.69 0 0 0 2.14 1.29 17.78 17.78 0 0 0 2.32.58 22.5 22.5 0 0 0 2.57.24c.74 0 2.56-.09 4-.24s3.35-.28 4.16-.28 2.18.07 3.05.16a2.22 2.22 0 0 0 2.08-.76 5.1 5.1 0 0 0-.1-3c-.33-1.12-.94-2.88-1.36-3.91s-2.84-5.68-5.38-10.34a168.22 168.22 0 0 0-9.21-14.82c-2.52-3.49-5.46-7.85-6.53-9.69a40.85 40.85 0 0 1-2.59-5.17 31 31 0 0 1-1-3.8 24.91 24.91 0 0 0-1.1-3.79c-.39-1-2-4.07-3.59-6.83a50.24 50.24 0 0 1-3.43-6.91 27.64 27.64 0 0 1-.77-3.92 22.71 22.71 0 0 0-.84-3.88A20.77 20.77 0 0 0 54.91 82a35.26 35.26 0 0 0-2.25-3.19 38.78 38.78 0 0 0-2.72-3 13 13 0 0 1-2.31-3.17 13.21 13.21 0 0 1-1-3.81 15.82 15.82 0 0 0-.9-3.86 14.81 14.81 0 0 0-2-3.31c-.71-.84-2.21-2.87-3.33-4.53a31.9 31.9 0 0 0-3.07-4 7.28 7.28 0 0 0-2.13-1.23 9.21 9.21 0 0 0-2.33-.4h-.07a10 10 0 0 0-1.18.08c.92 1.29 1.87 2.56 2.39 3.18a14.81 14.81 0 0 1 2 3.31 15.82 15.82 0 0 1 .9 3.86 13.21 13.21 0 0 0 1 3.81 13 13 0 0 0 2.31 3.17 38.78 38.78 0 0 1 2.72 3 35.26 35.26 0 0 1 2.25 3.19 20.77 20.77 0 0 1 1.62 3.5 22.71 22.71 0 0 1 .84 3.88 27.64 27.64 0 0 0 .77 3.92 50.24 50.24 0 0 0 3.43 6.91c1.59 2.77 3.2 5.84 3.59 6.83a24.91 24.91 0 0 1 1.08 3.76 31 31 0 0 0 1 3.8 40.85 40.85 0 0 0 2.59 5.17c1.07 1.84 4 6.2 6.53 9.69a168.22 168.22 0 0 1 9.21 14.82c2.54 4.66 5 9.31 5.38 10.34s1 2.79 1.36 3.91a5.1 5.1 0 0 1 .1 3 2.22 2.22 0 0 1-2.06.7z"/></svg>