<svg xmlns="http://www.w3.org/2000/svg" width="64.07" height="200" viewBox="0 0 64.07 200"><title>_</title><path d="M62.23 190.75a22.36 22.36 0 0 1-1.4-3.76c-.36-1.43-.26-6.22-.1-9.09.22-4.09.32-7.68.28-8.48a32.49 32.49 0 0 0-.39-3.27c-.16-.89-.53-2.4-.81-3.28a10.63 10.63 0 0 1-.32-4.13 12.72 12.72 0 0 1 1.53-4 11 11 0 0 0 1.2-3 8.59 8.59 0 0 0-.06-2.84c-.23-1-.63-3.38-.89-5.33a30.11 30.11 0 0 1-.28-5.54 23.57 23.57 0 0 1 .78-3.74c.28-.89.8-3.19 1.14-5a14.05 14.05 0 0 0 .19-4.51 12.34 12.34 0 0 0-1.48-3 10.43 10.43 0 0 1-1.67-4.15 9 9 0 0 1 .78-4.27 7.62 7.62 0 0 0 .64-2.77 7.92 7.92 0 0 0-.78-2.79 8.51 8.51 0 0 1-.89-4.33 9.93 9.93 0 0 1 1.79-4.19 14.46 14.46 0 0 0 1.7-3.06 72.83 72.83 0 0 0 .16-11.16l-.16-4.22a95.46 95.46 0 0 0-.82-11.06 14.46 14.46 0 0 0-1.21-2.45 8.16 8.16 0 0 0-1.43-1.62 3.73 3.73 0 0 0-1.28-.57 19.52 19.52 0 0 1-2.51-.58c-.61-.19-1.62-.56-2.45-.89l-.38-.16a24.66 24.66 0 0 0-2.72-.94 23.43 23.43 0 0 0-2.76-.52c-.63-.05-3.79-.13-7.34-.13a53 53 0 0 0-7.13.36 15.3 15.3 0 0 0-2.67 1.07 9.84 9.84 0 0 1-3.7 1 9 9 0 0 1-3.74-1 7.72 7.72 0 0 0-2.37-.79 5.92 5.92 0 0 0-2.17.33 3.45 3.45 0 0 0-1.24.88 2.33 2.33 0 0 0-.09 1.19 15.14 15.14 0 0 1 .28 3.04 17 17 0 0 1-.46 3.09 11.37 11.37 0 0 0-.28 2.45 11.65 11.65 0 0 0 .4 2.45 20.48 20.48 0 0 1 .63 3c0 .34.06.76.07 1.18a13 13 0 0 1-.05 1.6 3.23 3.23 0 0 0 .15 1.23 3 3 0 0 0 .79.88 9.12 9.12 0 0 0 1.67.83 35.37 35.37 0 0 0 4 .73l.48.07a21.5 21.5 0 0 0 4.55.2 11.68 11.68 0 0 0 2.42-1c1.58-.87 3.17-.71 3.89.29s.24 3.32.05 4a15 15 0 0 0-.48 3.62A13.66 13.66 0 0 0 36 96a12.82 12.82 0 0 1 .67 4.47 13.87 13.87 0 0 1-1.21 4.43 8.49 8.49 0 0 0-.74 3.16 9 9 0 0 0 .92 3.19 21.37 21.37 0 0 1 1.67 4.21 17.89 17.89 0 0 1 .45 4.29 26.55 26.55 0 0 1-.57 4.15 30.18 30.18 0 0 1-1.39 4.1 16 16 0 0 0-1 3.46 42.72 42.72 0 0 0 .64 7.3 47.8 47.8 0 0 1 .72 8.11 22.25 22.25 0 0 1-.93 4.2 11.74 11.74 0 0 0-.52 3.33 12.11 12.11 0 0 0 .72 3.35A21.11 21.11 0 0 1 36.6 162a56.8 56.8 0 0 1-.16 8c-.17 2.34-.59 6.4-1.42 7.34a3.19 3.19 0 0 1-3.52.61 9.7 9.7 0 0 0-2-.54 9.17 9.17 0 0 0-2 .05 13.59 13.59 0 0 0-2.18.61 17.23 17.23 0 0 0-2.32 1.15 10.21 10.21 0 0 1-2.91 1.18 7.12 7.12 0 0 1-2.95-.12 1.18 1.18 0 0 0-.31 0 2.63 2.63 0 0 0-.15.66 24 24 0 0 1-.44 2.86 30.26 30.26 0 0 1-.87 3 13 13 0 0 0-.58 2.49 26.06 26.06 0 0 0 .31 3.88c.06.48.13 1 .2 1.45a16.22 16.22 0 0 0 1 3.8 3 3 0 0 0 1.09 0A12 12 0 0 1 20 198a8.59 8.59 0 0 1 .89 0 13.12 13.12 0 0 1 3.48 1 13 13 0 0 0 2.63.84 11.1 11.1 0 0 0 2.57.07 20.13 20.13 0 0 0 2.75-.58 23.53 23.53 0 0 0 2.78-1.09 10 10 0 0 1 3.63-.89 10.1 10.1 0 0 1 3.6.8 9.57 9.57 0 0 0 2.51.68 8.54 8.54 0 0 0 2.46-.25 16.37 16.37 0 0 1 3.37-.54 50.58 50.58 0 0 1 7.08 1.07 21.77 21.77 0 0 0 4.19.49 5.26 5.26 0 0 0 .93-.06 4.71 4.71 0 0 0 .56-1.87 18.46 18.46 0 0 0-.19-3.71 15.53 15.53 0 0 0-1.01-3.21z"/><path d="M15.88 179a2.11 2.11 0 0 1 1.68-.17 5.74 5.74 0 0 0 2.25.09 8.8 8.8 0 0 0 2.41-1 18.93 18.93 0 0 1 2.48-1.25 15.12 15.12 0 0 1 2.48-.69 10.53 10.53 0 0 1 2.46-.06 11.07 11.07 0 0 1 2.43.64 1.74 1.74 0 0 0 1.82-.21c.34-.39.82-3.3 1.05-6.46a56.23 56.23 0 0 0 .17-7.69 19.74 19.74 0 0 0-1-3.86 13.57 13.57 0 0 1-.83-3.86 13.14 13.14 0 0 1 .6-3.86 20.86 20.86 0 0 0 .85-3.86A47.32 47.32 0 0 0 34 139a42.47 42.47 0 0 1-.65-7.73 17.52 17.52 0 0 1 1.08-3.86 28.18 28.18 0 0 0 1.28-3.86 24.77 24.77 0 0 0 .53-3.86 16.39 16.39 0 0 0-.41-3.86 20.09 20.09 0 0 0-1.54-3.83 10.31 10.31 0 0 1-1.1-3.86 9.91 9.91 0 0 1 .89-3.86 12.35 12.35 0 0 0 1.06-3.86 11.48 11.48 0 0 0-.58-3.86 15.1 15.1 0 0 1-.76-3.93 16.29 16.29 0 0 1 .53-4.08 4.58 4.58 0 0 0 .15-2.7c-.24-.35-1.09-.27-1.9.18a13.06 13.06 0 0 1-2.81 1.12A21.21 21.21 0 0 1 24.7 87l-.5-.1c0 .34.12.69.19 1a12.8 12.8 0 0 0 .45 1.68 11.48 11.48 0 0 1 .58 3.86 12.35 12.35 0 0 1-1.06 3.86 9.91 9.91 0 0 0-.89 3.86 10.31 10.31 0 0 0 1.1 3.86 20.09 20.09 0 0 1 1.54 3.86 16.39 16.39 0 0 1 .41 3.86 24.77 24.77 0 0 1-.53 3.86 28.18 28.18 0 0 1-1.28 3.86 17.52 17.52 0 0 0-1.08 3.86 42.47 42.47 0 0 0 .65 7.73 47.32 47.32 0 0 1 .71 7.73 20.86 20.86 0 0 1-.85 3.86 13.14 13.14 0 0 0-.6 3.86 13.57 13.57 0 0 0 .83 3.86 19.74 19.74 0 0 1 1 3.86 56.23 56.23 0 0 1-.17 7.69c-.24 3.17-.71 6.07-1.05 6.46a1.74 1.74 0 0 1-1.82.21 11.07 11.07 0 0 0-2.43-.64 10.53 10.53 0 0 0-2.46.06 15.12 15.12 0 0 0-2.48.69A18.93 18.93 0 0 0 12.5 171a8.8 8.8 0 0 1-2.41 1 5.74 5.74 0 0 1-2.25-.09 2.11 2.11 0 0 0-1.68.17 3 3 0 0 0-.69 1.78 22.46 22.46 0 0 1-.41 2.65 28.5 28.5 0 0 1-.82 2.78 14.42 14.42 0 0 0-.66 2.85 35 35 0 0 0 .52 5.72c.37 2.36 1.06 4.53 1.53 4.82a3.71 3.71 0 0 0 2.38.16 10.46 10.46 0 0 1 3-.21 9.55 9.55 0 0 1 1.52.33c.36.11.73.22 1.05.35a27.1 27.1 0 0 1-.31-4.22 14.42 14.42 0 0 1 .66-2.85 28.5 28.5 0 0 0 .82-2.78 22.46 22.46 0 0 0 .41-2.65 3 3 0 0 1 .72-1.81zM18 61.44a7.38 7.38 0 0 1 2.81-.44 9.11 9.11 0 0 1 3 1 7.56 7.56 0 0 0 3 .85 7.46 7.46 0 0 0 3-.79 16.6 16.6 0 0 1 3-1.2 51.94 51.94 0 0 1 7.51-.41c3.3 0 6.68.06 7.51.15a24.74 24.74 0 0 1 3 .56 26.29 26.29 0 0 1 2.92 1l.36.15c-.14-.38-.35-.85-.57-1.31a13.6 13.6 0 0 0-.78-1.41 9.57 9.57 0 0 0-1.78-2 5.09 5.09 0 0 0-2-.86 18 18 0 0 1-2.28-.53c-.7-.2-1.92-.65-2.7-.99a26.29 26.29 0 0 0-2.92-1 24.74 24.74 0 0 0-3-.56c-.83-.09-4.2-.16-7.51-.15a51.94 51.94 0 0 0-7.51.41 16.6 16.6 0 0 0-3 1.2 7.46 7.46 0 0 1-3 .79 7.56 7.56 0 0 1-3-.85 9.11 9.11 0 0 0-3-1 7.38 7.38 0 0 0-2.86.43 4.61 4.61 0 0 0-2 1.51 3.65 3.65 0 0 0-.2 2.28A13.63 13.63 0 0 1 6.25 61a15.38 15.38 0 0 1-.4 2.8 12.74 12.74 0 0 0-.33 2.85A13 13 0 0 0 6 69.47a19 19 0 0 1 .58 2.71 12.93 12.93 0 0 1 0 2.44 4.62 4.62 0 0 0 .27 2 4.32 4.32 0 0 0 1.32 1.51 10.57 10.57 0 0 0 2 1A38.52 38.52 0 0 0 15 80h.34l1 .11c0-.37 0-.74-.06-1a19 19 0 0 0-.58-2.71 13 13 0 0 1-.46-2.85 12.74 12.74 0 0 1 .33-2.85 15.38 15.38 0 0 0 .4-2.8 13.63 13.63 0 0 0-.25-2.7 3.65 3.65 0 0 1 .28-2.26 4.61 4.61 0 0 1 2-1.5z"/></svg>