<svg xmlns="http://www.w3.org/2000/svg" width="80.14" height="200" viewBox="0 0 80.14 200"><title>_</title><path d="M43 76.67A11.3 11.3 0 0 1 45.6 82a14.33 14.33 0 0 0 .81 2.54 44.89 44.89 0 0 0 3.17 4.75 50.14 50.14 0 0 1 3.51 5.25 24 24 0 0 1 1.16 3c.22.75.9 2.6 1.49 4.05a11.6 11.6 0 0 0 1.34 2.5 1.11 1.11 0 0 0 .43 0c.59-.23 1.57-.56 2.2-.73s1.66-.4 2.31-.52a7.75 7.75 0 0 0 1.68-.55 8 8 0 0 0 1.48-1 13.26 13.26 0 0 1 2.19-1.6 15.74 15.74 0 0 1 2.6-1.1.46.46 0 0 0 .19-.13 7.5 7.5 0 0 0-1-1.84 39.13 39.13 0 0 1-2.33-3.76 35.73 35.73 0 0 1-1.73-3.93c-.31-.87-2.47-5.33-5.21-10.58L54.3 67.51a106.47 106.47 0 0 1-5.89-13A57.43 57.43 0 0 0 46.5 49v-.1a24 24 0 0 0-1.76-3 17.15 17.15 0 0 0-2-2.28 5.48 5.48 0 0 0-1.5-.93 5.84 5.84 0 0 0-1.56-.18 8.14 8.14 0 0 0-1.8.38 10.18 10.18 0 0 1-2.79.51 10.67 10.67 0 0 1-2.79-.43 16.17 16.17 0 0 0-2.1-.49 16.89 16.89 0 0 0-2-.14H28a1.85 1.85 0 0 0-1 .52 8.21 8.21 0 0 0-1 2.4 23.15 23.15 0 0 1-1.61 4.12A22.79 22.79 0 0 1 21.84 53a21.32 21.32 0 0 0-2.16 3.07 20.53 20.53 0 0 0-1.41 3.41 29 29 0 0 1-1.56 4 29.57 29.57 0 0 1-2.25 3.67 28.23 28.23 0 0 0-2 3.23c-.47.92-1.81 4.27-2.93 7.31a127 127 0 0 1-6 13.11 50.7 50.7 0 0 0-3.71 7.89 1.78 1.78 0 0 0 .43.53 21.19 21.19 0 0 0 2 1 16.31 16.31 0 0 0 2 .64 15.39 15.39 0 0 1 2.34.81 15.58 15.58 0 0 1 2.15 1.24l.37.24a11.81 11.81 0 0 0 1.29.7 12 12 0 0 0 1.82.59 1.28 1.28 0 0 0 .6-.07 26.49 26.49 0 0 0 1.81-4.2A48.09 48.09 0 0 1 17 94.4a26.8 26.8 0 0 1 1.85-2.66 15.23 15.23 0 0 0 1.45-2.25 15.09 15.09 0 0 0 .94-2.49 14.39 14.39 0 0 1 1.26-3.17 15.06 15.06 0 0 1 2.12-2.73 10.77 10.77 0 0 0 1.57-2.1 10.45 10.45 0 0 0 .81-2.42 13.27 13.27 0 0 1 1.14-3.28 13.71 13.71 0 0 1 2.11-2.79 15 15 0 0 0 1.67-2 9.94 9.94 0 0 0 .94-2A3.32 3.32 0 0 1 35 64.15c1.41-.3 2.8 1 3 1.2a9.25 9.25 0 0 1 1.77 2.71 12.34 12.34 0 0 1 .7 3.37A9 9 0 0 0 41 73.9a8.45 8.45 0 0 0 1.39 2c.2.24.42.5.61.77z"/><path d="M77.92 99.07a34.12 34.12 0 0 1-1.64-3.73c-.37-1-2.76-5.9-5.3-10.77l-5.64-10.81A105.31 105.31 0 0 1 59.56 61a58.1 58.1 0 0 0-2-5.69 25 25 0 0 0-2-3.37 18.29 18.29 0 0 0-2.19-2.53 6.81 6.81 0 0 0-2.06-1.24 7.34 7.34 0 0 0-2.07-.24l-.46.07c-.32 0-.67.12-1 .2l.09.18a58.1 58.1 0 0 1 2 5.69 105.31 105.31 0 0 0 5.79 12.77l5.63 10.81c2.54 4.88 4.93 9.73 5.3 10.77a34.12 34.12 0 0 0 1.64 3.73 37.59 37.59 0 0 0 2.22 3.58 6.58 6.58 0 0 1 1.26 2.82 1.74 1.74 0 0 1-1.28 1.45 14.26 14.26 0 0 0-2.31 1 11.72 11.72 0 0 0-1.9 1.38 9.44 9.44 0 0 1-1.83 1.29 9.12 9.12 0 0 1-2.06.68c.08.22.15.43.2.62l.11.34c.3.92.9 2.53 1.44 3.85a9.19 9.19 0 0 0 1.92 3.17 2.32 2.32 0 0 0 1.79.09c.55-.21 1.47-.52 2.05-.68s1.56-.38 2.17-.49a9.11 9.11 0 0 0 2.1-.69 9.44 9.44 0 0 0 1.83-1.29 11.72 11.72 0 0 1 1.9-1.38 14.26 14.26 0 0 1 2.31-1 1.74 1.74 0 0 0 1.26-1.45 6.58 6.58 0 0 0-1.26-2.82 37.59 37.59 0 0 1-2.23-3.55zM37.22 86.64a11.8 11.8 0 0 0 1-2.84 11.77 11.77 0 0 1 1-2.84A12.21 12.21 0 0 1 41 78.53l.15-.16c.22-.22.45-.48.68-.75-.19-.23-.38-.45-.55-.62a9.9 9.9 0 0 1-1.7-2.49 10.37 10.37 0 0 1-.68-3 11 11 0 0 0-.59-2.9 7.8 7.8 0 0 0-1.44-2.2 2.31 2.31 0 0 0-1.58-.79 2 2 0 0 0-1 1.34 11.35 11.35 0 0 1-1.11 2.36 16.23 16.23 0 0 1-1.88 2.27A12.21 12.21 0 0 0 29.49 74a11.77 11.77 0 0 0-1 2.84 11.8 11.8 0 0 1-1 2.84 12.21 12.21 0 0 1-1.83 2.43 13.56 13.56 0 0 0-1.87 2.41 12.84 12.84 0 0 0-1.11 2.78 16.48 16.48 0 0 1-1 2.82A16.56 16.56 0 0 1 20 92.68a25.12 25.12 0 0 0-1.73 2.48 47.55 47.55 0 0 0-2.26 5.55 18.36 18.36 0 0 1-2.27 4.87 2.56 2.56 0 0 1-1.87.36 13.41 13.41 0 0 1-2.11-.69 13.24 13.24 0 0 1-1.47-.8 5 5 0 0 0-.29 1 .84.84 0 0 0 0 .1 2.6 2.6 0 0 0 1.18 1.91 22.69 22.69 0 0 0 2.23 1.11 17.77 17.77 0 0 0 2.18.72 13.87 13.87 0 0 1 2.07.71 14.08 14.08 0 0 1 1.91 1.1 13.24 13.24 0 0 0 1.92 1.09 13.41 13.41 0 0 0 2.11.69 2.56 2.56 0 0 0 1.87-.36 18.36 18.36 0 0 0 2.27-4.87A47.55 47.55 0 0 1 28 102.1a25.12 25.12 0 0 1 1.73-2.48 16.56 16.56 0 0 0 1.63-2.53 16.48 16.48 0 0 0 1-2.82 12.84 12.84 0 0 1 1.11-2.78 13.56 13.56 0 0 1 1.87-2.41 12.21 12.21 0 0 0 1.88-2.44z"/></svg>