<svg xmlns="http://www.w3.org/2000/svg" width="200" height="200" viewBox="0 0 200 200"><title>_</title><path d="M118 57.83a24.63 24.63 0 0 0-1.8-3.1 17.39 17.39 0 0 0-2-2.36 5.89 5.89 0 0 0-1.68-1 6.51 6.51 0 0 0-1.73-.2 8.59 8.59 0 0 0-1.95.41 9.77 9.77 0 0 1-2.63.48 10.12 10.12 0 0 1-2.63-.4 16.44 16.44 0 0 0-2.18-.51 17 17 0 0 0-2.3-.15 2.3 2.3 0 0 0-1.34.69 8.54 8.54 0 0 0-1.19 2.63 22.51 22.51 0 0 1-1.57 4 22.25 22.25 0 0 1-2.46 3.55A21.91 21.91 0 0 0 90.3 65a21.16 21.16 0 0 0-1.46 3.52 28.35 28.35 0 0 1-1.53 3.92A28.87 28.87 0 0 1 85.12 76a28.76 28.76 0 0 0-2 3.3c-.48.93-1.83 4.31-3 7.37a126.28 126.28 0 0 1-6 13 48.49 48.49 0 0 0-3.71 8 1.67 1.67 0 0 0 .68 1 21.84 21.84 0 0 0 2.11 1.05 17 17 0 0 0 2 .67 12.5 12.5 0 0 1 4.32 2l.4.26a9.67 9.67 0 0 0 3.27 1.35 1.61 1.61 0 0 0 1-.17 23.16 23.16 0 0 0 1.95-4.41 48.2 48.2 0 0 1 2.35-5.73 26.07 26.07 0 0 1 1.81-2.6 12.51 12.51 0 0 0 2.46-5 13.85 13.85 0 0 1 1.21-3 14.48 14.48 0 0 1 2-2.63 11.15 11.15 0 0 0 1.65-2.19 10.89 10.89 0 0 0 .89-2.55 12.68 12.68 0 0 1 1.09-3.13 13.1 13.1 0 0 1 2-2.67 15.38 15.38 0 0 0 1.74-2.1 10.38 10.38 0 0 0 1-2.11 2.85 2.85 0 0 1 1.76-2 3.19 3.19 0 0 1 2.49 1.06 8.82 8.82 0 0 1 1.66 2.54 12 12 0 0 1 .66 3.21 9.48 9.48 0 0 0 .6 2.65 9 9 0 0 0 1.5 2.19c.19.19.4.44.61.69a10.81 10.81 0 0 1 2.46 5.09 14.63 14.63 0 0 0 .85 2.65 44.85 44.85 0 0 0 3.23 4.84 50.26 50.26 0 0 1 3.46 5.17 23.43 23.43 0 0 1 1.13 3c.22.76.91 2.64 1.51 4.1a10.08 10.08 0 0 0 1.54 2.76 1.48 1.48 0 0 0 .88 0c.57-.22 1.54-.54 2.15-.71s1.62-.39 2.27-.51a8.24 8.24 0 0 0 1.82-.6 8.48 8.48 0 0 0 1.6-1.12 12.66 12.66 0 0 1 2.09-1.52 15.13 15.13 0 0 1 2.51-1.06.87.87 0 0 0 .55-.5 6.17 6.17 0 0 0-1.07-2.23 38.65 38.65 0 0 1-2.29-3.7 35.18 35.18 0 0 1-1.7-3.87c-.31-.88-2.49-5.37-5.24-10.65l-5.63-10.81A105.94 105.94 0 0 1 120 63.49a57.68 57.68 0 0 0-2-5.56z" fill="#231f20"/><path d="M118.93 57.52a58.1 58.1 0 0 1 2 5.69A105.31 105.31 0 0 0 126.7 76l5.63 10.81c2.54 4.88 4.93 9.73 5.3 10.77a34.12 34.12 0 0 0 1.64 3.73 37.59 37.59 0 0 0 2.22 3.58 6.58 6.58 0 0 1 1.26 2.82 1.74 1.74 0 0 1-1.26 1.45 14.26 14.26 0 0 0-2.31 1 11.72 11.72 0 0 0-1.9 1.38 9.44 9.44 0 0 1-1.83 1.29 9.12 9.12 0 0 1-2.06.68c.08.22.15.43.2.62l.11.34c.3.92.9 2.53 1.44 3.85a9.19 9.19 0 0 0 1.91 3.22 2.32 2.32 0 0 0 1.79.09c.55-.21 1.47-.52 2.05-.68s1.56-.38 2.17-.49a9.11 9.11 0 0 0 2.1-.69 9.44 9.44 0 0 0 1.83-1.29 11.72 11.72 0 0 1 1.9-1.38 14.26 14.26 0 0 1 2.31-1 1.74 1.74 0 0 0 1.26-1.45 6.58 6.58 0 0 0-1.26-2.82 37.59 37.59 0 0 1-2.22-3.58 34.12 34.12 0 0 1-1.64-3.73c-.37-1-2.76-5.9-5.3-10.77l-5.63-10.81a105.31 105.31 0 0 1-5.79-12.77 58.1 58.1 0 0 0-2-5.69 25 25 0 0 0-2-3.37 18.29 18.29 0 0 0-2.19-2.53 6.81 6.81 0 0 0-2.06-1.24 7.34 7.34 0 0 0-2.07-.24l-.52.06c-.32 0-.67.12-1 .2zM80.27 116.62a22.69 22.69 0 0 0 2.23 1.11 17.77 17.77 0 0 0 2.18.72 13.87 13.87 0 0 1 2.07.71 14.08 14.08 0 0 1 1.91 1.1 13.24 13.24 0 0 0 1.92 1.09 13.41 13.41 0 0 0 2.11.69 2.56 2.56 0 0 0 1.87-.36 18.36 18.36 0 0 0 2.27-4.87 47.55 47.55 0 0 1 2.26-5.55 25.12 25.12 0 0 1 1.73-2.48 13.49 13.49 0 0 0 2.65-5.36 12.84 12.84 0 0 1 1.11-2.78 13.56 13.56 0 0 1 1.87-2.41 12.21 12.21 0 0 0 1.83-2.43 11.8 11.8 0 0 0 1-2.84 11.77 11.77 0 0 1 1-2.84 12.21 12.21 0 0 1 1.84-2.43l.15-.16c.22-.22.45-.48.68-.75-.19-.23-.38-.45-.55-.62a9.9 9.9 0 0 1-1.7-2.49 10.37 10.37 0 0 1-.68-3 11 11 0 0 0-.59-2.9 7.8 7.8 0 0 0-1.44-2.2 2.31 2.31 0 0 0-1.58-.79 2 2 0 0 0-1 1.34 11.35 11.35 0 0 1-1.11 2.36 16.23 16.23 0 0 1-1.88 2.27 12.21 12.21 0 0 0-1.84 2.43 11.77 11.77 0 0 0-1 2.84 11.8 11.8 0 0 1-1 2.84 12.21 12.21 0 0 1-1.83 2.43 13.56 13.56 0 0 0-1.87 2.41 12.84 12.84 0 0 0-1.11 2.78 13.49 13.49 0 0 1-2.65 5.36 25.12 25.12 0 0 0-1.73 2.48 47.55 47.55 0 0 0-2.26 5.55 18.36 18.36 0 0 1-2.27 4.87 2.56 2.56 0 0 1-1.87.36 13.41 13.41 0 0 1-2.11-.69 13.24 13.24 0 0 1-1.47-.8 5 5 0 0 0-.29 1 .84.84 0 0 0 0 .1 2.6 2.6 0 0 0 1.15 1.91z" fill="#231f20"/></svg>