<svg xmlns="http://www.w3.org/2000/svg" width="107.06" height="200" viewBox="0 0 107.06 200"><title>_</title><path d="M69 161.65a17 17 0 0 0-2.89.68 13.85 13.85 0 0 1-3.68.68 14 14 0 0 1-3.69-.55 20.58 20.58 0 0 0-2.94-.65 18.22 18.22 0 0 0-2.92-.09c-.83.05-3 .33-4.67.61s-4.74.64-6.55.77a66.91 66.91 0 0 1-9.92-.59c-3.91-.5-7.17-.77-7.87-.8a28.09 28.09 0 0 0-3 .2c-.93.12-2.45.24-3.39.26s-2.43 0-3.41-.1a8.65 8.65 0 0 0-2.1.07 1 1 0 0 0-.33.17 9.11 9.11 0 0 0-.33.91 5.81 5.81 0 0 0-.16.86 2.13 2.13 0 0 0 .07.53 3.47 3.47 0 0 0 .38.7 5 5 0 0 1 .81 1.91 6.08 6.08 0 0 1 .06 1.24 8.26 8.26 0 0 0 1-.3 14 14 0 0 1 3.83-.79 12.78 12.78 0 0 1 2.84.31 9.89 9.89 0 0 1 1 .26 13.68 13.68 0 0 0 2.86.55 46.18 46.18 0 0 0 6.08-.78 40.37 40.37 0 0 1 6.09-.7 5.78 5.78 0 0 1 .82 0 17 17 0 0 1 3.58 1 10.09 10.09 0 0 0 2.7.67 9.48 9.48 0 0 0 2.67-.34 21.45 21.45 0 0 1 3.49-.74 52.94 52.94 0 0 1 6.7.22c2.6.21 6.84.31 9.45.21a60.74 60.74 0 0 1 6.67 0c.81.1 2.21.18 3 .19a27.75 27.75 0 0 0 3-.22c.94-.13 2.45-.26 3.38-.29s2.43 0 3.39.09h.58c0-.11-.06-.21-.08-.3a2.26 2.26 0 0 1-.05-.49 22.06 22.06 0 0 1 .47-3.53 7.86 7.86 0 0 0 .16-1.46c-1.31-.12-4.08-.3-7.68-.42-4.66-.01-8.7-.03-9.42.05z"/><path d="M87.17 169.33a7.4 7.4 0 0 1-2.25.1c-.89-.07-2.34-.11-3.23-.08s-2.33.15-3.22.27a23.9 23.9 0 0 1-6.42 0 59.41 59.41 0 0 0-6.42 0c-2.65.1-7 0-9.63-.22a52.22 52.22 0 0 0-6.42-.22 20.26 20.26 0 0 0-3.21.68 10.69 10.69 0 0 1-3.21.41 11.43 11.43 0 0 1-3.21-.8 15.51 15.51 0 0 0-3.21-.94 30.19 30.19 0 0 0-6.42.64 43.1 43.1 0 0 1-6.43.8 15 15 0 0 1-3.25-.62 8.29 8.29 0 0 0-.82-.22c-.08.22-.16.44-.21.6s-.06.23-.09.36a6.7 6.7 0 0 0-.13.8 3.41 3.41 0 0 0 .14 1.12 4.85 4.85 0 0 0 .6 1.12 3.6 3.6 0 0 1 .54 1.28 5.5 5.5 0 0 1 0 1.6.82.82 0 0 0 .6 1 6.72 6.72 0 0 0 2.45-.52 12.4 12.4 0 0 1 3.35-.69 11.51 11.51 0 0 1 3.3.49 15 15 0 0 0 3.25.62 43.1 43.1 0 0 0 6.43-.8 30.19 30.19 0 0 1 6.42-.64 15.51 15.51 0 0 1 3.21.94 11.43 11.43 0 0 0 3.21.8 10.69 10.69 0 0 0 3.21-.41 20.26 20.26 0 0 1 3.21-.68 52.22 52.22 0 0 1 6.42.22c2.65.22 7 .31 9.63.22a59.41 59.41 0 0 1 6.42 0 23.9 23.9 0 0 0 6.42 0c.88-.12 2.33-.25 3.22-.27s2.34 0 3.23.08a7.4 7.4 0 0 0 2.25-.1.56.56 0 0 0 .3-.83 5.24 5.24 0 0 1-.47-1.17 16.13 16.13 0 0 1 .42-3.4c.31-1.55.23-2.95-.18-3.11a86.2 86.2 0 0 0-8.76-.57H87a.89.89 0 0 0 0 .17 5.24 5.24 0 0 0 .47 1.17.56.56 0 0 1-.3.8z"/></svg>