<svg xmlns="http://www.w3.org/2000/svg" width="200" height="200" viewBox="0 0 200 200"><title>_</title><path d="M135,170.41c-4.68-.17-8.75-0.19-9.48-0.1a17.37,17.37,0,0,0-3,.71,10.88,10.88,0,0,1-7.05.12,21.18,21.18,0,0,0-3-.67,19.27,19.27,0,0,0-3-.09c-0.84.05-3,.33-4.72,0.62s-4.7.64-6.51,0.76a65.59,65.59,0,0,1-9.82-.59c-3.82-.48-7.16-0.77-7.91-0.8a28.58,28.58,0,0,0-3.07.2c-0.92.12-2.41,0.24-3.33,0.26s-2.42,0-3.35-.1a9,9,0,0,0-2.26.08,1.38,1.38,0,0,0-.62.37,9.45,9.45,0,0,0-.4,1.05,6.2,6.2,0,0,0-.18,1,2.52,2.52,0,0,0,.1.72,3.91,3.91,0,0,0,.45.84,4.55,4.55,0,0,1,.72,1.7,6.42,6.42,0,0,1,0,1.77,8.2,8.2,0,0,0,1.69-.45,13.41,13.41,0,0,1,3.67-.75,12.75,12.75,0,0,1,2.72.3,9.49,9.49,0,0,1,.92.25,14,14,0,0,0,3,.58,43.17,43.17,0,0,0,6.2-.79,39.85,39.85,0,0,1,6-.69,5.29,5.29,0,0,1,.75,0,16.4,16.4,0,0,1,3.46,1,10.54,10.54,0,0,0,2.87.71,9.82,9.82,0,0,0,2.85-.36,20.92,20.92,0,0,1,3.4-.72,53,53,0,0,1,6.61.22c2.62,0.22,6.89.31,9.51,0.21a60,60,0,0,1,6.58,0c0.83,0.11,2.26.18,3.07,0.19a28.44,28.44,0,0,0,3.08-.22c0.92-.13,2.41-0.25,3.32-0.28s2.41,0,3.34.08a9.12,9.12,0,0,0,1.34,0,5.64,5.64,0,0,1-.31-0.9,1.76,1.76,0,0,1,0-.38,21.75,21.75,0,0,1,.46-3.43,7.13,7.13,0,0,0,.15-2C142.06,170.76,139.06,170.56,135,170.41Z" fill="#231f20"/><path d="M143.51,176.48a5.24,5.24,0,0,0,.47,1.17,0.56,0.56,0,0,1-.3.83,7.4,7.4,0,0,1-2.25.1c-0.89-.07-2.34-0.11-3.23-0.08s-2.33.15-3.22,0.27a23.9,23.9,0,0,1-6.42,0,59.41,59.41,0,0,0-6.42,0c-2.65.1-7,0-9.63-.22a52.22,52.22,0,0,0-6.42-.22,20.26,20.26,0,0,0-3.21.68,10.69,10.69,0,0,1-3.21.41,11.43,11.43,0,0,1-3.21-.8,15.51,15.51,0,0,0-3.21-.94,30.19,30.19,0,0,0-6.42.64,43.1,43.1,0,0,1-6.43.8,15,15,0,0,1-3.25-.62,8.29,8.29,0,0,0-.82-0.22c-0.08.22-.16,0.44-0.21,0.6s-0.06.23-.09,0.36a6.7,6.7,0,0,0-.13.8,3.41,3.41,0,0,0,.14,1.12,4.85,4.85,0,0,0,.6,1.12,3.6,3.6,0,0,1,.54,1.28,5.5,5.5,0,0,1,0,1.6,0.82,0.82,0,0,0,.6,1,6.72,6.72,0,0,0,2.45-.52,12.4,12.4,0,0,1,3.35-.69,11.51,11.51,0,0,1,3.3.49,15,15,0,0,0,3.25.62,43.1,43.1,0,0,0,6.43-.8,30.19,30.19,0,0,1,6.42-.64,15.51,15.51,0,0,1,3.21.94,11.43,11.43,0,0,0,3.21.8,10.69,10.69,0,0,0,3.21-.41,20.26,20.26,0,0,1,3.21-.68,52.22,52.22,0,0,1,6.42.22c2.65,0.22,7,.31,9.63.22a59.41,59.41,0,0,1,6.42,0,23.9,23.9,0,0,0,6.42,0c0.88-.12,2.33-0.25,3.22-0.27s2.34,0,3.23.08a7.4,7.4,0,0,0,2.25-.1,0.56,0.56,0,0,0,.3-0.83,5.24,5.24,0,0,1-.47-1.17,16.13,16.13,0,0,1,.42-3.4c0.31-1.55.23-2.95-.18-3.11a86.2,86.2,0,0,0-8.76-.57h-0.2l-1,0A0.89,0.89,0,0,0,143.51,176.48Z" fill="#231f20"/></svg>