<svg xmlns="http://www.w3.org/2000/svg" width="200" height="200" viewBox="0 0 200 200"><title>_</title><path d="M108.24 50.32a8.74 8.74 0 0 0-2.32-1.7 37.25 37.25 0 0 0-7.13-1.11c-3.24-.27-9.44-.37-13.81-.21a60.24 60.24 0 0 0-6.59.54 6.71 6.71 0 0 0 .71.56c1 .7 4.82 3.83 8.49 7a131.31 131.31 0 0 1 9.68 9.09 25.58 25.58 0 0 0 4.12 3.88 4.41 4.41 0 0 0 2.2.45h.29c1.22-.11 5.25-.18 9.38-.15a53.12 53.12 0 0 0 7-.33c-.7-1.33-2.42-4.16-4.91-7.86l-.46-.68c-1.29-1.91-2.57-3.77-3.66-5.34-1.84-2.65-2.75-3.87-2.99-4.14z" fill="#231f20"/><path d="M125.41 66.13c-3.08-4.56-6.1-8.85-6.71-9.53a9.65 9.65 0 0 0-2.7-1.95 13.75 13.75 0 0 0-2.66-.61l-1.36-.2c1.1 1.57 2.38 3.44 3.67 5.35l.46.68c3.08 4.56 5.51 8.62 5.41 9s-3.84.73-8.3.71c-4.14 0-8.11 0-9.29.15l1 .95c.52.53 1 1 1.31 1.37a25.77 25.77 0 0 0 4.39 4.1 5.36 5.36 0 0 0 2.82.55c.77-.12 5.05-.19 9.52-.17s8.2-.3 8.3-.71-2.33-4.48-5.41-9z" fill="#231f20"/></svg>