<svg xmlns="http://www.w3.org/2000/svg" width="63.25" height="200" viewBox="0 0 63.25 200"><title>_</title><path d="M34.62 41.5a8.24 8.24 0 0 0-2.16-1.58 37.49 37.49 0 0 0-7-1.07c-3.22-.27-9.39-.36-13.75-.21-2 .07-3.9.21-5.36.37 1.3 1 4.85 3.89 8.27 6.82A131.88 131.88 0 0 1 24.4 55a25.46 25.46 0 0 0 4 3.77 3.9 3.9 0 0 0 1.89.39h.33C31.86 59 36 58.92 40 59a60.93 60.93 0 0 0 6.18-.23c-.8-1.42-2.34-3.92-4.53-7.17l-.46-.68c-1.29-1.91-2.56-3.77-3.66-5.33-1.78-2.59-2.68-3.84-2.91-4.09z"/><path d="M52.16 57c-3.08-4.56-6.1-8.85-6.71-9.53a9.65 9.65 0 0 0-2.65-1.94 13.75 13.75 0 0 0-2.66-.61l-1.36-.2c1.1 1.57 2.38 3.44 3.67 5.35l.46.68c3.08 4.56 5.51 8.62 5.41 9s-3.84.73-8.3.71c-4.14 0-8.11 0-9.29.15l1 .95c.52.53 1 1 1.31 1.37A25.77 25.77 0 0 0 37.38 67a5.36 5.36 0 0 0 2.82.55c.77-.12 5.05-.19 9.52-.17s8.2-.3 8.3-.71-2.33-4.48-5.41-9z"/></svg>