<svg xmlns="http://www.w3.org/2000/svg" width="112.13" height="200" viewBox="0 0 112.13 200"><title>_</title><path d="M99 150.23c-.2 0-.33.12-.29.18a.44.44 0 0 0 .42 0 .47.47 0 0 0 .29-.18 1.43 1.43 0 0 0-.42 0z" fill="none"/><path d="M16.5 113c-.75.48-1.94 1.33-2.66 1.89a21.14 21.14 0 0 0-2.3 2.17 22.62 22.62 0 0 0-1.92 2.62 21 21 0 0 0-1.43 2.95 21.72 21.72 0 0 0-.85 3.21c-.16.93-.33 2.42-.37 3.25a23 23 0 0 0 .03 2.8 15 15 0 0 0 1.36 4.93c.27.58 1.5 2.74 2.89 5a20.18 20.18 0 0 0 3.9 4.77 26.07 26.07 0 0 0 5.2 1.91c1.14.33 2.27.63 3.38.88A97.68 97.68 0 0 0 40 151.27c5.84.15 10-.22 10.54-.45a12 12 0 0 0 2.83-2c.85-.86 3.18-2.91 5.18-4.57.39-.33 3.87-3.19 5.16-3.53a2.45 2.45 0 0 1 2 .32 2.3 2.3 0 0 1 1 1.61 9.74 9.74 0 0 1 0 2.1 6.44 6.44 0 0 1-.56 1.89 1.69 1.69 0 0 0-.15.36 8.76 8.76 0 0 0 .65 1.14 2.29 2.29 0 0 0 1 .79 21.74 21.74 0 0 0 2.91 0l1.13-.05c1.17 0 2.37 0 3.21.08h.15a34 34 0 0 1 4.19.7 36 36 0 0 0 3.92.68 33.86 33.86 0 0 0 3.93.13h4.29c1.19 0 3.13.27 4.31.45.38.06.75.1 1.08.13a1.6 1.6 0 0 1-.11-.43l-.08-.85.22-.18c-.07-.36-.1-.69-.12-.84a3.6 3.6 0 0 0-.3-1.08 1.83 1.83 0 0 0-.48-.45 3.72 3.72 0 0 1-1.65-1.62 3.49 3.49 0 0 1 0-2.32 5.7 5.7 0 0 0 .21-1.07 6 6 0 0 0-.07-1.12c-.16-.87-.32-10.59-.32-11v-2c-.09-5.55.18-14.19.61-19.25a89.65 89.65 0 0 0 .1-13.84 52.54 52.54 0 0 0-1-6.3A41.32 41.32 0 0 0 91 83.66c-.59-1-1.25-2-1.87-2.89A14 14 0 0 0 87.84 79a17.29 17.29 0 0 0-2.33-1.82c-.76-.48-2.78-1.57-4.43-2.39a68 68 0 0 0-6.42-2.69 47.16 47.16 0 0 0-5.11-1.5c-.85-.16-5.42-.59-10.86-1-5-.37-10.59-.6-12.44-.52s-4.06.27-4.93.42-2.32.5-3.19.78-2.58.66-3.6.84-2.76.41-3.83.5a10.43 10.43 0 0 0-3 .81 11 11 0 0 0-2.55 1.92c-.77.82-2.46 2.42-3.75 3.56a54.89 54.89 0 0 1-5.08 3.86 16.81 16.81 0 0 0-3.12 2.54 8.05 8.05 0 0 0-1 2.2 16.12 16.12 0 0 0-.43 2.66 12.69 12.69 0 0 0 .16 2.44 1.81 1.81 0 0 0 .57.91 32.24 32.24 0 0 0 6 0l1.74-.1a51.39 51.39 0 0 1 6.18 0 32.76 32.76 0 0 1 4.08.84 18.59 18.59 0 0 0 3.48.59 16.69 16.69 0 0 0 3.4-.26 9.6 9.6 0 0 0 2.43-.83 1.93 1.93 0 0 0 .62-.67 5.8 5.8 0 0 1 1.14-2.18 6.27 6.27 0 0 1 2.06-1.41c.45-.18 1.59-.75 2.44-1.22s2.13-1.13 2.64-1.35a18.73 18.73 0 0 1 1.95-.7 5 5 0 0 1 4.64.92 12.24 12.24 0 0 0 1.3.88 9.56 9.56 0 0 0 1.29.57 9.89 9.89 0 0 0 1.48.32c.43.05 1.31.08 1.92.09a5 5 0 0 1 2.83.86 5.29 5.29 0 0 1 1.61 2.51 7 7 0 0 1 0 3.29l-.06.18A12.81 12.81 0 0 1 64 97.93a14.32 14.32 0 0 1-2.66 2.82c-1.13.85-4.58 1.92-6.63 2.43a65.18 65.18 0 0 1-6.7 1.38 34.85 34.85 0 0 1-3.54.09 29.75 29.75 0 0 0-3.14.1 28.35 28.35 0 0 0-3.07.51 20.1 20.1 0 0 1-3.69.45 26.82 26.82 0 0 1-3.9-.34 6.15 6.15 0 0 0-1.05-.08 6.78 6.78 0 0 0-1.76.2 7.92 7.92 0 0 0-2.45 1.51 36.53 36.53 0 0 1-3 2.5 29.09 29.09 0 0 1-3.12 1.92c-.79.37-2.06 1.1-2.79 1.58z"/><path d="M65.24 144.56a8.33 8.33 0 0 0 0-1.72.86.86 0 0 0-1.13-.68 24.44 24.44 0 0 0-4.58 3.23c-2 1.63-4.25 3.64-5.08 4.48a13.47 13.47 0 0 1-3.28 2.32c-1 .45-6 .71-11.2.58a99.72 99.72 0 0 1-16.53-1.9c-1.16-.27-2.34-.58-3.45-.91.27.43.57.86.87 1.28A17.13 17.13 0 0 0 24 154.8c1.08.74 5.17 2.1 9.09 3a99.72 99.72 0 0 0 16.53 1.9c5.18.13 10.22-.13 11.2-.58a13.47 13.47 0 0 0 3.28-2.32c.82-.83 3.11-2.85 5.08-4.48.38-.31.75-.61 1.12-.9s1-.76 1.42-1.07h-1.06a23.23 23.23 0 0 1-3.19 0 3.45 3.45 0 0 1-2-1.45 5.67 5.67 0 0 1-.91-1.88 2.88 2.88 0 0 1 .29-1.16 5 5 0 0 0 .39-1.3zM106 101.79a52 52 0 0 0-1.11-6.6 41.3 41.3 0 0 0-2.89-5.36 36.34 36.34 0 0 0-3.44-4.94 18.94 18.94 0 0 0-2.58-2c-.69-.44-2.31-1.32-3.84-2.1l-.73-.37-1.05-.5c.61.88 1.3 1.94 1.92 3a41.3 41.3 0 0 1 2.84 5.36 52 52 0 0 1 1.11 6.6 91.54 91.54 0 0 1-.12 14.12c-.42 5-.69 13.6-.6 19.1v2c.09 5.5.22 10.34.3 10.75a7.28 7.28 0 0 1 .09 1.49 7 7 0 0 1-.29 1.45 2 2 0 0 0 0 1.24 2.26 2.26 0 0 0 .94.88 3.15 3.15 0 0 1 1.11 1 5 5 0 0 1 .5 1.69 5.18 5.18 0 0 0 .27 1.33c.09.17.11.33 0 .34a.87.87 0 0 0-.28.12c-.08.05 0 .14.08.19a1.4 1.4 0 0 1 .45.43 6 6 0 0 1 .46.89c.13.31-.19.62-.7.69a14.84 14.84 0 0 1-3-.19c-1.15-.17-3-.37-4.17-.44s-3-.09-4.15 0a35.9 35.9 0 0 1-4.13-.14 37.22 37.22 0 0 1-4.13-.72 33 33 0 0 0-3.94-.66 7.5 7.5 0 0 1 0 1v.05a5 5 0 0 1-.41 1.39 2.88 2.88 0 0 0-.29 1.16 5.67 5.67 0 0 0 .91 1.88 3.45 3.45 0 0 0 2 1.45 23.23 23.23 0 0 0 3.19 0 31 31 0 0 1 4.1 0 32.59 32.59 0 0 1 4.11.68 37.22 37.22 0 0 0 4.13.72 35.9 35.9 0 0 0 4.13.14h4.15c1.15 0 3 .26 4.17.44a14.84 14.84 0 0 0 3 .19c.51-.07.83-.38.7-.69a6 6 0 0 0-.46-.89 1.4 1.4 0 0 0-.45-.43c-.12-.05-.16-.14-.08-.19a.87.87 0 0 1 .28-.12c.08 0 .06-.17 0-.34a5.18 5.18 0 0 1-.27-1.33 5 5 0 0 0-.5-1.69 3.15 3.15 0 0 0-1.11-1 2.26 2.26 0 0 1-.94-.88 2 2 0 0 1 0-1.24 7 7 0 0 0 .29-1.45 7.28 7.28 0 0 0-.09-1.49c-.08-.42-.21-5.25-.3-10.75v-2c-.09-5.5.18-14.09.6-19.1a91.54 91.54 0 0 0 .22-14.16zm-6.86 48.58a.44.44 0 0 1-.42 0c0-.06.1-.15.29-.18a1.43 1.43 0 0 1 .42 0 .47.47 0 0 1-.31.18zM21.43 100.77c.59.32 3.63.41 6.77.2a60.86 60.86 0 0 1 7.63-.14 30.83 30.83 0 0 1 3.85.8 20.44 20.44 0 0 0 2.79.55c.38 0 .74.08 1 .1a18.35 18.35 0 0 0 2.64-.12c.41 0 .81-.1 1.13-.17a11 11 0 0 0 2.92-1 3.14 3.14 0 0 0 1.28-1.56 4.37 4.37 0 0 1 .81-1.56 4.83 4.83 0 0 1 1.51-1c.51-.21 1.68-.79 2.6-1.3s2.05-1.09 2.52-1.29a17.16 17.16 0 0 1 1.76-.64 4.36 4.36 0 0 1 1.73-.1 3.63 3.63 0 0 1 .82.3 4.16 4.16 0 0 1 .74.45l.15.11v-.11a5.58 5.58 0 0 0 0-2.49 3.85 3.85 0 0 0-.99-1.8 3.54 3.54 0 0 0-1.9-.55 18.37 18.37 0 0 1-2.13-.1 11.12 11.12 0 0 1-1.77-.35 11 11 0 0 1-1.55-.69 13.31 13.31 0 0 1-1.5-1 3.46 3.46 0 0 0-3.24-.66 17.16 17.16 0 0 0-1.76.64c-.47.21-1.61.79-2.52 1.29s-2.09 1.09-2.6 1.3a4.83 4.83 0 0 0-1.51 1 4.37 4.37 0 0 0-.81 1.56A3.14 3.14 0 0 1 40.48 94a11 11 0 0 1-2.92 1 18.62 18.62 0 0 1-3.77.29 20.12 20.12 0 0 1-3.79-.6 30.83 30.83 0 0 0-3.85-.8 49.55 49.55 0 0 0-5.92 0c-.06.33-.12.68-.17 1s-.1.78-.12 1.09a14.14 14.14 0 0 0 .19 2.8 3.15 3.15 0 0 0 1.3 1.99z"/><path d="M108.7 157.17c-.2 0-.33.12-.29.18a.44.44 0 0 0 .42 0 .47.47 0 0 0 .29-.18 1.43 1.43 0 0 0-.42 0z"/></svg>