<svg xmlns="http://www.w3.org/2000/svg" width="200" height="200" viewBox="0 0 200 200"><title>_</title><path d="M113.48,102.75a17.16,17.16,0,0,0-1.76.64c-0.47.21-1.61,0.79-2.52,1.29s-2.09,1.09-2.6,1.3a4.83,4.83,0,0,0-1.51,1,4.37,4.37,0,0,0-.81,1.56,3.14,3.14,0,0,1-1.28,1.56,11,11,0,0,1-2.92,1c-0.32.06-.71,0.12-1.13,0.17,0.6,0,1.2,0,1.65-.08a63.62,63.62,0,0,0,6.31-1.32,25.18,25.18,0,0,0,5.73-2,11.77,11.77,0,0,0,2.1-2.24,10.44,10.44,0,0,0,1.21-2.43l0-.11c0-.05,0-0.11,0-0.17a3.63,3.63,0,0,0-.82-0.3A4.36,4.36,0,0,0,113.48,102.75Z" fill="none"/><path d="M113.85,109.51c-0.95.71-4,1.74-6.45,2.34a65,65,0,0,1-6.62,1.37,33.51,33.51,0,0,1-3.47.09,31.39,31.39,0,0,0-3.2.1,29.12,29.12,0,0,0-3.14.52,19.56,19.56,0,0,1-3.58.43,25.32,25.32,0,0,1-3.8-.33,6.66,6.66,0,0,0-1.14-.09,7.28,7.28,0,0,0-1.9.22,8.4,8.4,0,0,0-2.66,1.6,36,36,0,0,1-3,2.46,28.49,28.49,0,0,1-3.06,1.88c-0.78.4-2.07,1.14-2.81,1.62s-2,1.35-2.7,1.92A21.79,21.79,0,0,0,64,125.88a23.24,23.24,0,0,0-2,2.69,21.56,21.56,0,0,0-1.47,3,22.33,22.33,0,0,0-.88,3.3c-0.16.95-.33,2.46-0.38,3.31a23.62,23.62,0,0,0,.06,2.89,15.51,15.51,0,0,0,1.4,5.1c0.28,0.6,1.52,2.78,2.91,5.07a20.47,20.47,0,0,0,4,4.93,25.83,25.83,0,0,0,5.35,2c1.15,0.33,2.29.63,3.4,0.89a98.32,98.32,0,0,0,16.33,1.87c5.66,0.14,10.08-.19,10.76-0.49a12.47,12.47,0,0,0,3-2.12c0.84-.85,3.15-2.89,5.15-4.54,1.3-1.07,4-3.17,5-3.43a2,2,0,0,1,1.59.25,1.8,1.8,0,0,1,.78,1.26,9.34,9.34,0,0,1,0,2,6,6,0,0,1-.51,1.72,2,2,0,0,0-.19.68,7.93,7.93,0,0,0,.74,1.35,2.58,2.58,0,0,0,1.32,1,21.67,21.67,0,0,0,3,0l1.11-.05c1.11,0,2.32,0,3.15.07h0.15a33.76,33.76,0,0,1,4.12.69,36.56,36.56,0,0,0,4,.7,35.09,35.09,0,0,0,4,.14c1.16,0,3.07,0,4.24,0s3.1,0.27,4.26.45a18.6,18.6,0,0,0,2.31.2l0,0-0.1-.11a1.15,1.15,0,0,1-.64-0.9l-0.06-.58,0.25-.2a9.24,9.24,0,0,1-.18-1.09,4,4,0,0,0-.37-1.28A2.21,2.21,0,0,0,149,156a3.22,3.22,0,0,1-1.41-1.37,3,3,0,0,1,0-2,6.16,6.16,0,0,0,.24-1.2,6.41,6.41,0,0,0-.08-1.24c-0.13-.69-0.27-8.11-0.31-10.92l0-2c-0.09-5.54.18-14.15,0.6-19.2a90.17,90.17,0,0,0,.16-14,52.38,52.38,0,0,0-1.06-6.4,41.29,41.29,0,0,0-2.74-5.16c-0.59-1-1.26-2-1.89-2.92A14.34,14.34,0,0,0,141,87.82a18,18,0,0,0-2.41-1.89c-0.77-.49-2.82-1.59-4.48-2.41a68.53,68.53,0,0,0-6.48-2.71,47.62,47.62,0,0,0-5.18-1.52c-0.86-.16-5.45-0.6-10.92-1-5-.37-10.65-0.6-12.5-0.52s-4.11.28-5,.43-2.37.5-3.24,0.75-2.54.65-3.55,0.83-2.72.4-3.79,0.49a10.85,10.85,0,0,0-3.18.86,11.48,11.48,0,0,0-2.69,2c-0.77.81-2.44,2.39-3.72,3.52a54.25,54.25,0,0,1-5,3.82,17.12,17.12,0,0,0-3.25,2.66,8.51,8.51,0,0,0-1.13,2.37A16.42,16.42,0,0,0,64,98.29a13.09,13.09,0,0,0,.17,2.56A2.22,2.22,0,0,0,65,102.1a27.53,27.53,0,0,0,6.23.08l1.73-.1a50.94,50.94,0,0,1,6.09,0,32,32,0,0,1,4,.83,19.2,19.2,0,0,0,3.59.61,17.35,17.35,0,0,0,3.52-.27,10.07,10.07,0,0,0,2.59-.89,2.26,2.26,0,0,0,.83-1,5.36,5.36,0,0,1,1-2,5.81,5.81,0,0,1,1.88-1.28c0.47-.19,1.61-0.76,2.49-1.25s2.1-1.11,2.6-1.33a18.07,18.07,0,0,1,1.88-.68,4.46,4.46,0,0,1,4.19.83,12.45,12.45,0,0,0,1.37.92,10,10,0,0,0,1.38.61,10.31,10.31,0,0,0,1.57.34,18.75,18.75,0,0,0,2,.09,4.58,4.58,0,0,1,2.53.75,4.8,4.8,0,0,1,1.43,2.25,6.53,6.53,0,0,1,0,3l0,0.15a12.44,12.44,0,0,1-1.48,3A13.75,13.75,0,0,1,113.85,109.51Z" fill="#231f20"/><path d="M123.5,159.56a23.23,23.23,0,0,1-3.19,0,3.45,3.45,0,0,1-2-1.45,5.67,5.67,0,0,1-.91-1.88,2.88,2.88,0,0,1,.29-1.16,5,5,0,0,0,.41-1.39,8.33,8.33,0,0,0,0-1.72,0.86,0.86,0,0,0-1.13-.68,24.44,24.44,0,0,0-4.58,3.23c-2,1.63-4.25,3.64-5.08,4.48a13.47,13.47,0,0,1-3.28,2.32c-1,.45-6,0.71-11.2.58A99.72,99.72,0,0,1,76.22,160c-1.16-.27-2.34-0.58-3.45-0.91,0.27,0.43.57,0.86,0.87,1.28a17.13,17.13,0,0,0,3.2,3.55c1.08,0.74,5.17,2.1,9.09,3a99.72,99.72,0,0,0,16.53,1.9c5.18,0.13,10.22-.13,11.2-0.58a13.47,13.47,0,0,0,3.28-2.32c0.82-.83,3.11-2.85,5.08-4.48,0.38-.31.75-0.61,1.12-0.9s1-.76,1.42-1.07Z" fill="#231f20"/><path d="M143.22,89.07c0.61,0.88,1.3,1.94,1.92,3A41.3,41.3,0,0,1,148,97.4a52,52,0,0,1,1.11,6.6,91.54,91.54,0,0,1-.16,14.19c-0.42,5-.69,13.6-0.6,19.1l0,2c0.09,5.5.22,10.34,0.3,10.75a7.28,7.28,0,0,1,.09,1.49,7,7,0,0,1-.29,1.45,2,2,0,0,0,0,1.24,2.26,2.26,0,0,0,.94.88,3.15,3.15,0,0,1,1.11,1,5,5,0,0,1,.5,1.69,5.18,5.18,0,0,0,.27,1.33c0.09,0.17.11,0.33,0,.34a0.87,0.87,0,0,0-.28.12c-0.08.05,0,.14,0.08,0.19a1.4,1.4,0,0,1,.45.43,6,6,0,0,1,.46.89c0.13,0.31-.19.62-0.7,0.69a14.84,14.84,0,0,1-3-.19c-1.15-.17-3-0.37-4.17-0.44s-3-.09-4.15,0a35.9,35.9,0,0,1-4.13-.14,37.22,37.22,0,0,1-4.13-.72,33,33,0,0,0-3.94-.66,7.5,7.5,0,0,1,0,1s0,0,0,.05a5,5,0,0,1-.41,1.39,2.88,2.88,0,0,0-.29,1.16,5.67,5.67,0,0,0,.91,1.88,3.45,3.45,0,0,0,2,1.45,23.23,23.23,0,0,0,3.19,0,31,31,0,0,1,4.1,0,32.59,32.59,0,0,1,4.11.68,37.22,37.22,0,0,0,4.13.72,35.9,35.9,0,0,0,4.13.14c1.14,0,3,0,4.15,0s3,0.26,4.17.44a14.84,14.84,0,0,0,3,.19c0.51-.07.83-0.38,0.7-0.69a6,6,0,0,0-.46-0.89,1.4,1.4,0,0,0-.45-0.43c-0.12-.05-0.16-0.14-0.08-0.19a0.87,0.87,0,0,1,.28-0.12c0.08,0,.06-0.17,0-0.34a5.18,5.18,0,0,1-.27-1.33,5,5,0,0,0-.5-1.69,3.15,3.15,0,0,0-1.11-1,2.26,2.26,0,0,1-.94-0.88,2,2,0,0,1,0-1.24,7,7,0,0,0,.29-1.45,7.28,7.28,0,0,0-.09-1.49c-0.08-.42-0.21-5.25-0.3-10.75l0-2c-0.09-5.5.18-14.09,0.6-19.1a91.54,91.54,0,0,0,.16-14.19,52,52,0,0,0-1.11-6.6A41.3,41.3,0,0,0,154.85,99,36.34,36.34,0,0,0,151.41,94a18.94,18.94,0,0,0-2.58-2c-0.69-.44-2.31-1.32-3.84-2.1l-0.73-.37Zm8.29,70.5c0-.06.1-0.15,0.29-0.18a1.43,1.43,0,0,1,.42,0,0.47,0.47,0,0,1-.29.18A0.44,0.44,0,0,1,151.51,159.57Z" fill="#231f20"/><path d="M99,111.31c0.41,0,.81-0.1,1.13-0.17a11,11,0,0,0,2.92-1,3.14,3.14,0,0,0,1.28-1.56,4.37,4.37,0,0,1,.81-1.56,4.83,4.83,0,0,1,1.51-1c0.51-.21,1.68-0.79,2.6-1.3s2.05-1.09,2.52-1.29a17.16,17.16,0,0,1,1.76-.64,4.36,4.36,0,0,1,1.73-.1,3.63,3.63,0,0,1,.82.3,4.16,4.16,0,0,1,.74.45l0.15,0.11,0-.11a5.58,5.58,0,0,0,0-2.49,3.85,3.85,0,0,0-1.08-1.73,3.54,3.54,0,0,0-1.9-.55,18.37,18.37,0,0,1-2.13-.1,11.12,11.12,0,0,1-1.76-.38,11,11,0,0,1-1.55-.69,13.31,13.31,0,0,1-1.5-1,3.46,3.46,0,0,0-3.28-.65,17.16,17.16,0,0,0-1.76.64c-0.47.21-1.61,0.79-2.52,1.29s-2.09,1.09-2.6,1.3a4.83,4.83,0,0,0-1.51,1,4.37,4.37,0,0,0-.81,1.56,3.14,3.14,0,0,1-1.28,1.56,11,11,0,0,1-2.92,1,18.62,18.62,0,0,1-3.77.29,20.12,20.12,0,0,1-3.82-.64,30.83,30.83,0,0,0-3.85-.8,49.55,49.55,0,0,0-5.92,0c-0.06.33-.12,0.68-0.17,1s-0.1.78-.12,1.09a14.14,14.14,0,0,0,.19,2.8,3.15,3.15,0,0,0,1.33,1.94c0.59,0.32,3.63.41,6.77,0.2a60.86,60.86,0,0,1,7.63-.14,30.83,30.83,0,0,1,3.85.8,20.44,20.44,0,0,0,2.79.55c0.38,0,.74.08,1,0.1A18.35,18.35,0,0,0,99,111.31Z" fill="#231f20"/><path d="M161.64,166.47a0.47,0.47,0,0,0,.29-0.18,1.43,1.43,0,0,0-.42,0c-0.2,0-.33.12-0.29,0.18A0.44,0.44,0,0,0,161.64,166.47Z" fill="#231f20"/></svg>