<svg xmlns="http://www.w3.org/2000/svg" width="118.91" height="200" viewBox="0 0 118.91 200"><title>_</title><path d="M85.32 76.16A27.22 27.22 0 0 0 82.74 74a24.68 24.68 0 0 0-2.89-1.73 26.12 26.12 0 0 0-3.2-1.27c-.79-.24-4.6-.88-8.81-1.43a72 72 0 0 0-8.58-.75 13.76 13.76 0 0 0-2.86.7 24.73 24.73 0 0 0-2.8 1.35l-.42.26a25 25 0 0 0-2.11 1.48 27.8 27.8 0 0 0-2.21 2 22.78 22.78 0 0 0-1.76 2.17 3 3 0 0 1-2.22 1.41 1.77 1.77 0 0 1-1.48-.79c-.59-.87-.59-3-.56-3.81a32.8 32.8 0 0 0-.24-4.47 35.41 35.41 0 0 0-1-4.5 39.86 39.86 0 0 1-1.11-5 69.83 69.83 0 0 1 .16-9.91c.08-1.13.12-2.28.13-3.39a18.14 18.14 0 0 0-.3-4.33 3.47 3.47 0 0 0-1.79-.88c-1.06-.15-2.82-.3-3.86-.33s-5.11.32-9.73.85c-4.07.47-8.79.92-10 .91a6.07 6.07 0 0 0-2.32.54 4.68 4.68 0 0 0-1.38 1.65 16.49 16.49 0 0 0-.94 2.86 17.09 17.09 0 0 0-.28 3c0 .89.13 2.4.25 3.29s.79 3.68 1.64 6.73a40.31 40.31 0 0 1 1.49 7.34A15.74 15.74 0 0 1 13 72a17.44 17.44 0 0 0-.63 3.14 16.37 16.37 0 0 0 .11 3.12c.15 1 .31 2.62.36 3.62s0 2.62 0 3.62-.07 2.42 0 3.32.17 2.41.29 3.32.27 2.62.29 3.62 0 2.63-.1 3.63a25.61 25.61 0 0 0 0 3.23 26.61 26.61 0 0 0 .49 3.24 13.6 13.6 0 0 1 .21 4 15.15 15.15 0 0 1-1.17 3.93 10 10 0 0 0-.78 2.91 9.14 9.14 0 0 0 .43 2.87 12.39 12.39 0 0 1 .62 4 13 13 0 0 1-1 4 15 15 0 0 0-.94 3.08 37 37 0 0 0 .43 6.5c.39 2.91.73 6.12.76 7.15s0 2.72-.1 3.78a3.62 3.62 0 0 0 .43 1.91 4.28 4.28 0 0 0 1.91 1 10.64 10.64 0 0 0 3.21.06 11.25 11.25 0 0 0 2.19-.7 9.9 9.9 0 0 0 1-.47 19.33 19.33 0 0 1 4-1.64 16.16 16.16 0 0 1 4-.44c1 0 3.48.32 5.47.6.9.13 1.83.24 2.58.31a2.7 2.7 0 0 1 .19-.94 5.75 5.75 0 0 1 1.63-2 1.26 1.26 0 0 0 .2-.2 1.57 1.57 0 0 0-.27-.26 5.43 5.43 0 0 1-1.81-2.13 3.37 3.37 0 0 1 .3-2.72 11.9 11.9 0 0 0 .59-1.11 4.28 4.28 0 0 0 .22-.67 1.77 1.77 0 0 1 1.21-1.62l1-.25.61.78.08.11a2.46 2.46 0 0 1 2 1.41 13.51 13.51 0 0 1 .91 2.86 6.16 6.16 0 0 0 1 2.21 6.26 6.26 0 0 0 2 1.37 17.58 17.58 0 0 1 2.24 1.11c.54.31.94.56 1.26.79a24.3 24.3 0 0 1 3.17 2.85 5.5 5.5 0 0 0 .93.77 6.08 6.08 0 0 0 1.64.83 9.34 9.34 0 0 0 3.53-.06 32.88 32.88 0 0 1 4.91-.68 28.55 28.55 0 0 1 4.76.26 32.52 32.52 0 0 0 4.15.32 34.23 34.23 0 0 0 4.26-.34 24.42 24.42 0 0 0 3.9-1 19.15 19.15 0 0 0 3.27-1.67 27.34 27.34 0 0 0 5.51-4.89 20.55 20.55 0 0 0 2-2.91 21.19 21.19 0 0 0 1.37-3.31 40.49 40.49 0 0 1 1.42-3.87 39.67 39.67 0 0 1 1.87-3.64 26.3 26.3 0 0 0 1.61-3.34 31 31 0 0 0 1.11-3.77 28.31 28.31 0 0 0 .53-8.13c-.09-1.15-.33-3-.53-4.13s-.63-2.94-.94-4a34.5 34.5 0 0 1-1.33-8.87 16.25 16.25 0 0 0-.56-3.7 79 79 0 0 0-5.5-9.24c-1.75-2.66-3.65-5.41-4.95-7.18a16.91 16.91 0 0 0-1.23-1.59z"/><path d="M111 130.22a29.77 29.77 0 0 0 .56-8.56c-.09-1.19-.34-3.11-.55-4.28s-.65-3.05-1-4.2a33 33 0 0 1-1.27-8.48 17.84 17.84 0 0 0-.61-4c-.31-1-2.87-5.37-5.69-9.63a106.63 106.63 0 0 0-6.39-9 28.75 28.75 0 0 0-2.75-2.3 26.23 26.23 0 0 0-3.11-1.86l-.72-.33c-.54-.23-1.15-.48-1.73-.68 1.27 1.72 3.14 4.43 5 7.24 2.81 4.27 5.37 8.6 5.69 9.63a17.84 17.84 0 0 1 .61 4 33 33 0 0 0 1.27 8.48c.33 1.14.77 3 1 4.2s.46 3.09.55 4.28a29.77 29.77 0 0 1-.56 8.56 32.52 32.52 0 0 1-1.18 4 27.73 27.73 0 0 1-1.73 3.58 37.7 37.7 0 0 0-1.79 3.47 38.75 38.75 0 0 0-1.35 3.7 22.73 22.73 0 0 1-1.49 3.6 22 22 0 0 1-2.19 3.17 34.69 34.69 0 0 1-2.72 2.77 35.26 35.26 0 0 1-3.09 2.42 20.76 20.76 0 0 1-3.58 1.82 26 26 0 0 1-4.18 1.05 35.31 35.31 0 0 1-4.47.36 33.87 33.87 0 0 1-4.41-.34 27 27 0 0 0-4.47-.24 31.1 31.1 0 0 0-4.64.65 10.6 10.6 0 0 1-4.25 0 7.44 7.44 0 0 1-2.11-1 8.07 8.07 0 0 0 2.44 1.59 13.84 13.84 0 0 1 1.38.65 16.49 16.49 0 0 1 1.78 1.07 22.55 22.55 0 0 1 2.93 2.64 8.1 8.1 0 0 0 3.29 2 10.6 10.6 0 0 0 4.25 0 31.1 31.1 0 0 1 4.64-.65 27 27 0 0 1 4.47.24 33.87 33.87 0 0 0 4.41.34 35.31 35.31 0 0 0 4.47-.36 26 26 0 0 0 4.19-1.08 20.76 20.76 0 0 0 3.58-1.82 35.26 35.26 0 0 0 3.09-2.39 34.69 34.69 0 0 0 2.72-2.77 22 22 0 0 0 2.19-3.17A22.73 22.73 0 0 0 105 145a38.75 38.75 0 0 1 1.35-3.7 37.7 37.7 0 0 1 1.79-3.47 27.73 27.73 0 0 0 1.73-3.58 32.52 32.52 0 0 0 1.13-4.03zM38.35 150.23a25.84 25.84 0 0 1-4.2-.38c-1.94-.28-4.33-.54-5.32-.59a14.5 14.5 0 0 0-3.6.39 18.09 18.09 0 0 0-3.6 1.5 11 11 0 0 1-1.14.55v1.08c0 .76 0 1.55-.09 2.14a4.92 4.92 0 0 0 .75 3 5.5 5.5 0 0 0 2.79 1.5 12.22 12.22 0 0 0 3.76.07 13.55 13.55 0 0 0 3.65-1.35 18.09 18.09 0 0 1 3.6-1.5 14.5 14.5 0 0 1 3.6-.39c1 0 3.38.31 5.32.59a25.84 25.84 0 0 0 4.2.38.43.43 0 0 0 .3-.71 1.47 1.47 0 0 1-.12-1.22 4.36 4.36 0 0 1 1.17-1.36 2.2 2.2 0 0 0 .88-1.42 2.41 2.41 0 0 0-1-1.42 4 4 0 0 1-1.22-1.43 1.6 1.6 0 0 1-.05-.72 1.83 1.83 0 0 1 .23-.7l.14-.24a16 16 0 0 0-2-1 7.76 7.76 0 0 1-2.64-1.8 7.66 7.66 0 0 1-1.36-2.87 12.4 12.4 0 0 0-.76-2.47.87.87 0 0 0-.85-.59 3.58 3.58 0 0 0-.68.35.67.67 0 0 0-.25.36 1.65 1.65 0 0 1-.06-.59 4.66 4.66 0 0 0-.08-.82.67.67 0 0 0-.12.4 5.29 5.29 0 0 1-.32 1 13.07 13.07 0 0 1-.69 1.3 1.88 1.88 0 0 0-.18 1.43 4 4 0 0 0 1.22 1.43 2.41 2.41 0 0 1 1 1.42 2.2 2.2 0 0 1-.88 1.42 4.36 4.36 0 0 0-1.17 1.36 1.47 1.47 0 0 0 .12 1.22.43.43 0 0 1-.35.68zM51.49 48.28a4.6 4.6 0 0 0-2.88-1.64c-1.11-.16-2.92-.31-4-.34H43.3l-1 .07c0 1.1-.05 2.28-.14 3.49a70.27 70.27 0 0 0-.16 9.63 38.06 38.06 0 0 0 1 4.75 36.85 36.85 0 0 1 1 4.73 34.2 34.2 0 0 1 .25 4.72 7.78 7.78 0 0 0 .31 2.93c.21.31.76 0 1.23-.64a24.25 24.25 0 0 1 1.91-2.34 29.07 29.07 0 0 1 2.36-2.17 26.27 26.27 0 0 1 2.25-1.59c-.08-.33-.16-.68-.24-1-.2-.88-.37-1.76-.46-2.43a70.27 70.27 0 0 1 .17-9.59c.35-3.99.22-7.86-.29-8.58z"/></svg>