<svg xmlns="http://www.w3.org/2000/svg" width="111.77" height="200" viewBox="0 0 111.77 200"><title>_</title><path d="M87.57 82.18c-2.37-1.73-5-3.58-5.84-4s-3.41-1.62-6.36-2.8-6.75-2.93-8.76-4a23.93 23.93 0 0 0-5-2.1 11.14 11.14 0 0 0-3.38.09 30.18 30.18 0 0 1-4.07.54 21 21 0 0 1-3.7-.21 9 9 0 0 0-2.55 0 9.72 9.72 0 0 0-2.46 1 11.41 11.41 0 0 1-3.58 1.3 12.46 12.46 0 0 1-3.87-.19 4.4 4.4 0 0 0-.89-.08 6 6 0 0 0-1.72.23 79.34 79.34 0 0 0-9 6.57l-1 .77c-4.2 3.36-8.41 6.86-9.19 7.64a30.11 30.11 0 0 0-4.8 6.28 22.24 22.24 0 0 0-1.34 2.94 12.9 12.9 0 0 0-.55 2.75 14 14 0 0 0 .21 2.9 33 33 0 0 1 .47 3.48 28.8 28.8 0 0 1 0 3.37 27.72 27.72 0 0 0 0 2.88c0 .78.5 4.14 1 7.34s1.55 8.25 2.33 11.16a43.46 43.46 0 0 0 2.3 6.8 16.3 16.3 0 0 0 2.3 3 40.56 40.56 0 0 0 3.09 2.68c.88.67 2.44 1.71 3.41 2.28.61.36 1.51.83 2.4 1.27.46.22.9.43 1.26.59 1 .46 2.75 1.09 3.81 1.42s2.73.77 3.68 1a30.89 30.89 0 0 0 3.13.47 15.84 15.84 0 0 1 3.4.73 18.09 18.09 0 0 1 3.22 1.61 5.6 5.6 0 0 0 2.17.75A6.26 6.26 0 0 0 50 152a18.88 18.88 0 0 1 3.7-1.33 49.83 49.83 0 0 1 8.22-.25c3.16.1 6.79.09 7.77 0a49.56 49.56 0 0 0 7-2.09 52.46 52.46 0 0 0 6.64-2.82 22.65 22.65 0 0 0 2.67-2.16c.73-.7 1.85-1.87 2.5-2.6s1.66-2 2.24-2.8a18.92 18.92 0 0 0 1.7-3 23.08 23.08 0 0 0 1.12-3.53c.19-.89.71-2.76 1.33-4.77.17-.55.34-1.11.52-1.64a16.12 16.12 0 0 0 .77-3.52 3.7 3.7 0 0 0-1.05.1 22.72 22.72 0 0 1-4.5.55 21.5 21.5 0 0 1-4.46-.56 36 36 0 0 0-3.85-.71c-1-.12-4.65-.14-7.89 0a34.37 34.37 0 0 0-6.66.66 2.19 2.19 0 0 0-.78.91c-.18.6-.54 2.21-.79 3.51 0 .12-.57 3-1.66 4s-4.65 1.65-5.36 1.78a34.86 34.86 0 0 1-5.5.6l-.51-.06a15.89 15.89 0 0 1-2.55-.54 18 18 0 0 1-2.86-1.24 16.11 16.11 0 0 1-2.46-1.77 14.54 14.54 0 0 1-2-2.4 18.68 18.68 0 0 1-1.51-3c-.4-1-1.55-5.58-2.43-9.34-.75-3.17-1.79-8.46-1.6-10a16.55 16.55 0 0 1 1.14-4.07c.46-1 1.69-3.33 2.75-5.15A18.51 18.51 0 0 1 45.42 90a20.33 20.33 0 0 1 5.37-2.19 42.59 42.59 0 0 1 4.37-1 7.92 7.92 0 0 1 1.71.09 7.65 7.65 0 0 1 1.62.51 4.74 4.74 0 0 1 1.57 1.23 6 6 0 0 1 .9 1.81 1.15 1.15 0 0 0 .15.29 1 1 0 0 0 .26 0 3.64 3.64 0 0 1 2.21.49 3 3 0 0 1 1.12 2 1 1 0 0 0 .51.84l.09.13a4.85 4.85 0 0 1 1.31 1.24 4.67 4.67 0 0 1 .67 1.72 10.84 10.84 0 0 1 .1 1.56c0 .25 0 .6-.06.95.81 0 2.73-.07 5.55-.33l.61-.06a77.8 77.8 0 0 1 8.4-.5 32 32 0 0 1 4.3.61 34.72 34.72 0 0 0 3.86.6 34.64 34.64 0 0 0 3.85.05 3.54 3.54 0 0 0 1.83-.63 3.48 3.48 0 0 0 .25-1.9c-.15-1-.75-3.71-1.31-5.83a22.51 22.51 0 0 0-1.92-5.07 15.61 15.61 0 0 0-2-2c-1.01-.79-2.13-1.67-3.17-2.43z"/><path d="M49.93 107.45c.44-1 1.64-3.23 2.68-5A17.22 17.22 0 0 1 56 98.14a19.1 19.1 0 0 1 4.88-2c.8-.21 1.58-.4 2.25-.56l1.14-.25h.05l-.32-.21a2.73 2.73 0 0 1-.45-.51 3.2 3.2 0 0 1-.38-1.16 1.49 1.49 0 0 0-.49-1 2.15 2.15 0 0 0-1.2-.22 2.25 2.25 0 0 1-1.24-.23 2.37 2.37 0 0 1-.72-1.12 4.53 4.53 0 0 0-.64-1.29 3.28 3.28 0 0 0-1-.8 6.29 6.29 0 0 0-1.26-.39 6.9 6.9 0 0 0-1.36-.07c-.39 0-2.22.44-4.08.93a19.1 19.1 0 0 0-4.88 2 17.22 17.22 0 0 0-3.39 4.3c-1 1.78-2.24 4-2.68 5a15.07 15.07 0 0 0-1 3.63c-.12 1 .59 5.29 1.57 9.49s2.05 8.32 2.37 9.14a17.3 17.3 0 0 0 1.36 2.71 13.09 13.09 0 0 0 1.79 2.11 14.63 14.63 0 0 0 2.19 1.58 16.53 16.53 0 0 0 2.58 1.11 14.41 14.41 0 0 0 2.25.48c-.18-.37-.34-.74-.46-1-.33-.9-1.38-5-2.36-9.1s-1.7-8.47-1.57-9.49a15.07 15.07 0 0 1 .98-3.77zM105.83 98.25a23.27 23.27 0 0 0-2.14-5.54 33.66 33.66 0 0 0-5.52-4.79c-1-.75-2.08-1.5-3-2.16-1.33-.93-2.45-1.68-2.94-2l-.52-.27A16.52 16.52 0 0 1 94 85.76a23.27 23.27 0 0 1 2.14 5.54c.58 2.2 1.19 4.9 1.35 6a4.58 4.58 0 0 1-.58 3.06 4.62 4.62 0 0 1-2.9 1.17 35 35 0 0 1-4.06-.06 36.21 36.21 0 0 1-4.06-.63 30.4 30.4 0 0 0-4.06-.58 79.49 79.49 0 0 0-8.14.5l-.65.06a2.93 2.93 0 0 0 .29.72 2.06 2.06 0 0 0 .19.24 3.32 3.32 0 0 0 .7.61 3.47 3.47 0 0 1 .9.83 3.22 3.22 0 0 1 .43 1.11 9.47 9.47 0 0 1 .09 1.3 12 12 0 0 1-.13 1.41 1 1 0 0 0 .84 1 43.49 43.49 0 0 0 7.06-.34 79.49 79.49 0 0 1 8.14-.5 30.4 30.4 0 0 1 4.06.58 36.21 36.21 0 0 0 4.06.63 35 35 0 0 0 4.06.06 4.62 4.62 0 0 0 2.9-1.17 4.58 4.58 0 0 0 .58-3.06c-.21-1.1-.8-3.8-1.38-5.99zM71.6 158.86c3.33.11 6.93.09 8 0a49.58 49.58 0 0 0 7.3-2.17 52.27 52.27 0 0 0 6.94-3 23.94 23.94 0 0 0 2.93-2.31c.75-.71 1.91-1.93 2.59-2.7s1.72-2.07 2.32-2.9a20.55 20.55 0 0 0 1.86-3.27 24.6 24.6 0 0 0 1.21-3.81c.24-1.12 1.06-3.94 1.81-6.26s1.07-4.59.7-5-1.61-.58-2.76-.31a21.27 21.27 0 0 1-4.16.51 20 20 0 0 1-3-.29c-.36-.06-.69-.13-1-.2-.58 1.89-1.11 3.78-1.3 4.65a24.6 24.6 0 0 1-1.21 3.81 20.55 20.55 0 0 1-1.83 3.23c-.6.83-1.65 2.13-2.32 2.9s-1.84 2-2.59 2.7a23.94 23.94 0 0 1-2.93 2.31 52.27 52.27 0 0 1-6.94 3 49.58 49.58 0 0 1-7.3 2.17c-1.06.12-4.66.13-8 0a49.77 49.77 0 0 0-7.84.21 17.36 17.36 0 0 0-3.35 1.21 7.44 7.44 0 0 1-3.08.74 6.93 6.93 0 0 1-2.92-1 16.71 16.71 0 0 0-2.91-1.45 14.33 14.33 0 0 0-3-.65 32.38 32.38 0 0 1-3.32-.5c-1-.21-2.69-.66-3.81-1s-2.9-1-4-1.48c-.38-.17-.84-.38-1.32-.62l.42.44c.48.47 1.14 1.07 1.8 1.63s1 .86 1.43 1.17a42.14 42.14 0 0 0 3.56 2.38c1 .6 2.74 1.47 3.81 1.94s2.86 1.14 4 1.48 2.83.79 3.81 1a32.38 32.38 0 0 0 3.32.5 14.33 14.33 0 0 1 3 .65 16.71 16.71 0 0 1 2.89 1.43 6.93 6.93 0 0 0 2.92 1 7.44 7.44 0 0 0 3.08-.74 17.36 17.36 0 0 1 3.35-1.21 49.77 49.77 0 0 1 7.84-.19z"/></svg>