<svg xmlns="http://www.w3.org/2000/svg" width="116.38" height="200" viewBox="0 0 116.38 200"><title>_</title><path d="M10.51 128.39a19.23 19.23 0 0 0 1.38 3.27c.5.88 1.89 3 3 4.71A56.66 56.66 0 0 0 19.5 142a37.08 37.08 0 0 0 3.82 3.56 27.67 27.67 0 0 0 2.94 1.76c.54.27 1.38.65 2.19 1l1.12.45c.94.36 4.45 1.37 7.66 2.22a54.37 54.37 0 0 0 7.55 1.57 33.62 33.62 0 0 0 6.42-1.44c2.92-.9 5.62-1.87 6.3-2.2s2.13-1.11 2.92-1.59 2.05-1.32 2.8-1.87 1.92-1.5 2.61-2.11 1.63-1.41 2.07-1.72a1.94 1.94 0 0 1 2.24-.33l.86.5-.1 1s0 .45.08 1.06a9.84 9.84 0 0 0 .25 1.5 9.3 9.3 0 0 0 .45 1.12 5 5 0 0 1 .46 2.18 6.52 6.52 0 0 1-.42 1.82 8.39 8.39 0 0 0 1.57.29 19.93 19.93 0 0 0 2.15 0c.47 0 .92 0 1.27-.09a20 20 0 0 0 2.21-.44c.41-.1.8-.21 1.11-.32a15.86 15.86 0 0 1 4.05-.67 14.84 14.84 0 0 1 4.09.73 13.21 13.21 0 0 0 3.1.61 10.85 10.85 0 0 0 2.92-.37 6.12 6.12 0 0 0 2.08-1.17 5.6 5.6 0 0 0 1.07-2 20.68 20.68 0 0 0 .48-3 76.3 76.3 0 0 0-.86-8.28c-.49-3.47-1-7.75-1-8.92 0-1 .16-2.63.28-3.61s.4-2.61.62-3.6.52-3.21.72-5 .36-4.91.35-6.77a35.34 35.34 0 0 0-.31-4.91 26.37 26.37 0 0 0-.9-3.24 11.28 11.28 0 0 1 0-8 8.31 8.31 0 0 0 0-5.9 20.15 20.15 0 0 1-.91-3.8 18.68 18.68 0 0 1 0-3.83 33.13 33.13 0 0 1 .74-3.67 36.52 36.52 0 0 1 1.25-3.64 9 9 0 0 0 .57-2.86 9.24 9.24 0 0 0-.67-2.88c-.45-1-1.07-2.63-1.39-3.63a36.51 36.51 0 0 1-.91-3.65 13.36 13.36 0 0 1 0-4A15.57 15.57 0 0 1 96.83 50 14.6 14.6 0 0 0 98 46.84a10.46 10.46 0 0 0 .14-1.08 14.68 14.68 0 0 0 0-2.33 3.87 3.87 0 0 0-.81-1.94 41.41 41.41 0 0 0-8.66-1.11c-4.93-.25-9.22-.33-10.13-.26a34.59 34.59 0 0 0-3.63.54 27.74 27.74 0 0 0-3.26 1A4.16 4.16 0 0 0 70 43a33 33 0 0 0-.65 7.38 71.53 71.53 0 0 1-.56 9.43 42.07 42.07 0 0 1-1.41 5 16.8 16.8 0 0 0-.84 4.34 16.79 16.79 0 0 0 .62 4.38c.22.73.89 3.22.07 4.44-.61.9-1.23 1.83-11.3-3.38l-3.57-1.85C47 70 43 68.38 42.42 68.36a8.52 8.52 0 0 0-2.75.73c-1 .48-3.28 1.45-5.13 2.15a32.07 32.07 0 0 0-4.42 2 48.91 48.91 0 0 0-4.76 4.36 100.17 100.17 0 0 0-7.88 9.63c-2.7 3.75-4.75 6.88-5 7.48a70.58 70.58 0 0 0-2 8.8c-.82 4.42-1.42 8.39-1.45 9.18s.2 4.51.5 7.85a65.88 65.88 0 0 0 .98 7.85z"/><path d="M98.79 147.49a6.88 6.88 0 0 1-1.45 2.66 7.58 7.58 0 0 1-2.72 1.56 12.61 12.61 0 0 1-3.41.44 14.5 14.5 0 0 1-3.54-.7 13.35 13.35 0 0 0-3.59-.65 13 13 0 0 0-3.57.59c-.35.12-.77.24-1.22.35a9.05 9.05 0 0 0 .2 1 10.85 10.85 0 0 0 .54 1.35 3.49 3.49 0 0 1 .3 1.44 5.25 5.25 0 0 1-.44 1.64 1.14 1.14 0 0 0 .34 1.38 7 7 0 0 0 2.63.66 22.26 22.26 0 0 0 3.73-.07 22 22 0 0 0 3.62-.83 13 13 0 0 1 3.57-.59 13.35 13.35 0 0 1 3.59.65 14.5 14.5 0 0 0 3.54.7 12.61 12.61 0 0 0 3.41-.44 7.58 7.58 0 0 0 2.72-1.56 6.88 6.88 0 0 0 1.45-2.66 22.17 22.17 0 0 0 .53-3.27 74.43 74.43 0 0 0-.87-8.6c-.54-3.81-1-7.71-.94-8.66s.15-2.51.26-3.46.38-2.51.59-3.47.54-3.29.74-5.2.36-5 .36-6.93a36.29 36.29 0 0 0-.34-5.2 27.6 27.6 0 0 0-1-3.46 9.79 9.79 0 0 1 0-6.93 9.81 9.81 0 0 0 0-6.93 18.62 18.62 0 0 1-.83-3.47 17.09 17.09 0 0 1 0-3.47 31.26 31.26 0 0 1 .69-3.46 34.78 34.78 0 0 1 1.32-3.44 10.38 10.38 0 0 0 .69-3.46 10.62 10.62 0 0 0-.81-3.47c-.43-1-1-2.51-1.32-3.47a34.7 34.7 0 0 1-.86-3.47 11.86 11.86 0 0 1 0-3.47 14.08 14.08 0 0 1 1.22-3.47 16 16 0 0 0 1.29-3.59 16.27 16.27 0 0 0 .2-3.83 5 5 0 0 0-1.36-3c-.55-.47-3.68-1-7.39-1.29l-1-.07a11.84 11.84 0 0 1-.17 1.24 16 16 0 0 1-1.29 3.59 14.08 14.08 0 0 0-1.22 3.47 11.86 11.86 0 0 0 0 3.47 34.7 34.7 0 0 0 .86 3.47c.3 1 .9 2.51 1.32 3.47a10.62 10.62 0 0 1 .81 3.47 10.38 10.38 0 0 1-.69 3.46 34.78 34.78 0 0 0-1.2 3.49 31.26 31.26 0 0 0-.69 3.46 17.09 17.09 0 0 0 0 3.47 18.62 18.62 0 0 0 .83 3.47 9.81 9.81 0 0 1 0 6.93 9.79 9.79 0 0 0 0 6.93 27.6 27.6 0 0 1 1 3.46 36.29 36.29 0 0 1 .34 5.2c0 1.91-.16 5-.36 6.93s-.54 4.25-.74 5.2-.47 2.51-.59 3.47-.33 2.48-.36 3.48.39 4.85.94 8.66a74.43 74.43 0 0 1 .87 8.6 22.17 22.17 0 0 1-.53 3.23zM68.79 142.85c-.35.25-1.23 1-2 1.63s-1.95 1.63-2.72 2.2-2.09 1.44-2.92 1.94-2.19 1.24-3 1.65-3.77 1.44-6.52 2.29a33 33 0 0 1-6.9 1.51 53.83 53.83 0 0 1-7.91-1.62c-3.3-.87-6.81-1.9-7.81-2.27l-1.18-.47.29.29c.44.46.92.95 1.4 1.41a28.67 28.67 0 0 0 2.64 2.34 28.93 28.93 0 0 0 3.13 1.88c.9.45 2.46 1.13 3.45 1.5s4.51 1.4 7.81 2.27a53.83 53.83 0 0 0 7.91 1.6 33 33 0 0 0 6.9-1.51c2.75-.85 5.68-1.88 6.52-2.29s2.2-1.15 3-1.65 2.14-1.37 2.92-1.94l.38-.29c.39-.3.84-.66 1.28-1a21.5 21.5 0 0 1-2.33 0 7 7 0 0 1-2.63-.66 1.14 1.14 0 0 1-.34-1.38 5.25 5.25 0 0 0 .44-1.64 3.49 3.49 0 0 0-.3-1.44 10.85 10.85 0 0 1-.54-1.35 11.25 11.25 0 0 1-.31-1.81 11.75 11.75 0 0 1-.07-1.38c.03-.16-.24-.06-.59.19z"/></svg>