<svg xmlns="http://www.w3.org/2000/svg" width="112" height="200" viewBox="0 0 112 200"><title>_</title><path d="M84.31 82.94a29.25 29.25 0 0 0-3.8-4.16 9.34 9.34 0 0 0-2.39-1 17.15 17.15 0 0 1-3.34-1.18 16 16 0 0 1-2.89-2 13.54 13.54 0 0 0-2.29-1.54 56.13 56.13 0 0 0-7.77-1.82c-3.33-.61-7.49-1.47-8.66-1.87a22.54 22.54 0 0 0-3.07-.78 18.75 18.75 0 0 0-2.54-.18h-.36c-.82 0-2.17.16-3 .28s-2.13.4-2.91.6-2.07.63-2.81.92-2 .86-2.68 1.24A29.06 29.06 0 0 1 32.49 73c-1 .36-2.83.88-4.06 1.17a12.12 12.12 0 0 0-3.33 1.46 12.59 12.59 0 0 0-2.58 2.64 36.32 36.32 0 0 1-2.87 3.6 33.45 33.45 0 0 1-3.32 3 16 16 0 0 0-2.56 2.61 15.6 15.6 0 0 0-1.69 3.24 31.54 31.54 0 0 1-1.69 3.82 21.85 21.85 0 0 1-2.14 3.12A13.92 13.92 0 0 0 6.69 100a12.76 12.76 0 0 0-.86 2.57 16.27 16.27 0 0 0-.24 2.78 16.9 16.9 0 0 0 .36 2.81c.21.9.47 2.37.59 3.27s.21 2.35.23 3.24a21.72 21.72 0 0 0 .23 2.76c.1.58 1.2 4.41 2.75 9.32a100 100 0 0 0 3.41 9.57 18.11 18.11 0 0 0 2.2 3 18.17 18.17 0 0 0 2.9 2.4 19 19 0 0 0 3.47 1.62c.33.11.71.25 1.1.4a28.39 28.39 0 0 1 3.08 1.41 29.07 29.07 0 0 1 3.76 2.56 18.49 18.49 0 0 0 3 2 10.73 10.73 0 0 0 2.68.82c.9.1 3.7.67 6.25 1.25s5.12 1.09 5.9 1.17a16.84 16.84 0 0 0 2.89 0 22.25 22.25 0 0 0 3.15-.65 24.66 24.66 0 0 1 3.84-.75 24.67 24.67 0 0 1 3.91 0 12.32 12.32 0 0 0 3.06-.17 12 12 0 0 0 2.82-1.13c.88-.52 2.35-1.31 3.27-1.75s3.88-1.59 6.62-2.58a60.67 60.67 0 0 0 6.15-2.52 22.59 22.59 0 0 0 2.63-1.84 20.07 20.07 0 0 0 2.25-2.31 21.83 21.83 0 0 0 1.83-2.8c.46-.87 1.13-2.27 1.48-3.11l.14-.35c.38-1 .74-2 .93-2.62a2 2 0 0 0 0-.95A3.81 3.81 0 0 0 91 129c-1.06-.06-3.67-.39-5.8-.75a55 55 0 0 0-5.5-.66 23.55 23.55 0 0 0-3.57.21 26.72 26.72 0 0 1-4.13.2 28.42 28.42 0 0 1-4.19-.57 6.43 6.43 0 0 0-2.43-.1 1.66 1.66 0 0 0-.76.72 21.33 21.33 0 0 1-1.12 2.38 13 13 0 0 1-1.36 1.91 20.45 20.45 0 0 1-1.46 1.46c-.43.38-1.16 1-1.66 1.32a11.22 11.22 0 0 1-2.02 1.15 11.78 11.78 0 0 1-2.28.6 9.42 9.42 0 0 1-2.81-.12 37.68 37.68 0 0 1-4.39-1.63l-1.64-.72a34.41 34.41 0 0 1-6-3.25 15.31 15.31 0 0 1-2.29-2.68 15.8 15.8 0 0 1-1.47-3 11.18 11.18 0 0 1-.51-3.06 5.77 5.77 0 0 1 1.21-3.26 10.58 10.58 0 0 1 3.09-2.29 14.36 14.36 0 0 1 4.09-1.2 15.25 15.25 0 0 1 4.29.28 20.18 20.18 0 0 0 3.57.42 18.07 18.07 0 0 0 3.51-.37 30.45 30.45 0 0 1 4.06-.56 28.85 28.85 0 0 1 4.07.11 33.64 33.64 0 0 0 3.63.17 36.08 36.08 0 0 0 3.64-.28c1.1-.15 3.74-.35 5.88-.43a44.33 44.33 0 0 1 6 .12 36.44 36.44 0 0 1 4 .84 24.7 24.7 0 0 0 3.54.66 22.13 22.13 0 0 0 3.5 0 3.91 3.91 0 0 0 1.7-.58 2.21 2.21 0 0 0 .13-1.19c-.18-.93-.37-2.46-.44-3.43s-.08-2.56 0-3.55 0-2.39 0-3.28-.22-2.39-.36-3.27a12.85 12.85 0 0 0-.84-2.76 11.37 11.37 0 0 0-1.54-2.28 18.7 18.7 0 0 1-2.08-2.81 17.63 17.63 0 0 1-1.37-3.16 16.54 16.54 0 0 0-1.06-2.55 51.53 51.53 0 0 0-3.06-4.25z"/><path d="M106.24 111.44c-.05-.94-.22-2.49-.37-3.43a14.16 14.16 0 0 0-1-3.17 12.85 12.85 0 0 0-1.8-2.65 17.29 17.29 0 0 1-1.88-2.55A16.21 16.21 0 0 1 100 96.8a18.12 18.12 0 0 0-1.18-2.8 56.47 56.47 0 0 0-3.62-5 29 29 0 0 0-4.2-4.53 10.68 10.68 0 0 0-2.87-1.18l-.53-.14a17.68 17.68 0 0 1-1.71-.59A51.34 51.34 0 0 1 89.11 87a18.12 18.12 0 0 1 1.17 2.83 16.21 16.21 0 0 0 1.23 2.85 17.29 17.29 0 0 0 1.88 2.55 12.85 12.85 0 0 1 1.8 2.65 14.16 14.16 0 0 1 1 3.17c.15.94.32 2.48.37 3.43s.06 2.49 0 3.44 0 2.47 0 3.38a32.49 32.49 0 0 0 .42 3.25 3.3 3.3 0 0 1-.49 2.48 4.79 4.79 0 0 1-2.67 1.07 24.26 24.26 0 0 1-3.78 0 26.09 26.09 0 0 1-3.81-.71 34.58 34.58 0 0 0-3.82-.8 43.53 43.53 0 0 0-5.73-.11c-2.1.08-4.68.27-5.73.42a37.42 37.42 0 0 1-3.82.3 37.21 37.21 0 0 1-3.82-.18 28 28 0 0 0-3.82-.1 28.8 28.8 0 0 0-3.82.53 20.85 20.85 0 0 1-3.85.41 21.73 21.73 0 0 1-3.89-.46 13.89 13.89 0 0 0-3.8-.25 12.89 12.89 0 0 0-3.57 1 9.2 9.2 0 0 0-2.56 1.93 4.31 4.31 0 0 0-.87 2.32 9.75 9.75 0 0 0 .43 2.58 14.39 14.39 0 0 0 1.31 2.67 13.79 13.79 0 0 0 2 2.37 33.35 33.35 0 0 0 5.58 3l1.61.71c-.25-.46-.48-1-.66-1.38-.06-.16-.12-.31-.17-.44a9.75 9.75 0 0 1-.43-2.58 4.31 4.31 0 0 1 .87-2.32 9.2 9.2 0 0 1 2.59-1.89 12.89 12.89 0 0 1 3.57-1 13.89 13.89 0 0 1 3.8.25 21.73 21.73 0 0 0 3.89.46 20.85 20.85 0 0 0 3.85-.41 28.8 28.8 0 0 1 3.82-.53A28 28 0 0 1 73 124a37.21 37.21 0 0 0 3.82.18 37.42 37.42 0 0 0 3.82-.3c1.05-.15 3.63-.34 5.73-.42a43.53 43.53 0 0 1 5.73.11 34.58 34.58 0 0 1 3.82.8 26.09 26.09 0 0 0 3.81.71 24.26 24.26 0 0 0 3.78 0 4.79 4.79 0 0 0 2.67-1.07 3.3 3.3 0 0 0 .49-2.48 32.49 32.49 0 0 1-.42-3.25c-.06-.91-.07-2.43 0-3.38s.05-2.51-.01-3.46zM27.19 150a20.54 20.54 0 0 0 3.81 1.74l.54.19c.41.15.86.33 1.31.52.76.32 1.52.68 2.07 1a27.48 27.48 0 0 1 3.53 2.4 20 20 0 0 0 3.27 2.15 12 12 0 0 0 3.15 1c.85.1 3.59.65 6.08 1.22s5.23 1.11 6.09 1.2a18.32 18.32 0 0 0 3.2 0 23.6 23.6 0 0 0 3.42-.7 23 23 0 0 1 3.56-.69 23 23 0 0 1 3.62 0 13.63 13.63 0 0 0 3.53-.2 13.4 13.4 0 0 0 3.26-1.3c.86-.51 2.28-1.27 3.15-1.68s3.79-1.55 6.48-2.53a61.1 61.1 0 0 0 6.39-2.63 24 24 0 0 0 2.84-2A21.42 21.42 0 0 0 99 147.1a23.41 23.41 0 0 0 2-3c.48-.91 1.17-2.36 1.54-3.23s.87-2.28 1.12-3.12a2.86 2.86 0 0 0-.23-2.34 4.19 4.19 0 0 0-2.54-.92c-1-.06-3.55-.38-5.64-.73l-1.25-.22-1-.14-.2.5c-.37.87-1.06 2.33-1.54 3.23a23.41 23.41 0 0 1-2 3 21.42 21.42 0 0 1-2.46 2.52 24 24 0 0 1-2.84 2 61.1 61.1 0 0 1-6.39 2.63c-2.69 1-5.61 2.11-6.48 2.53s-2.29 1.17-3.15 1.68a13.4 13.4 0 0 1-3.26 1.3 13.63 13.63 0 0 1-3.53.2 23 23 0 0 0-3.62 0 23 23 0 0 0-3.56.69 23.6 23.6 0 0 1-3.42.7 18.32 18.32 0 0 1-3.2 0c-.85-.09-3.59-.63-6.09-1.2S36 152.1 35.16 152a12 12 0 0 1-3.16-1 20 20 0 0 1-3.27-2.16 27.48 27.48 0 0 0-3.53-2.4 27.41 27.41 0 0 0-2.9-1.32c.37.55.8 1.11 1.2 1.6.17.21.34.4.49.56a19.7 19.7 0 0 0 3.2 2.72z"/></svg>