<svg xmlns="http://www.w3.org/2000/svg" width="200" height="200" viewBox="0 0 200 200"><title>_</title><path d="M147.88 138.23a3.66 3.66 0 0 0-1.82-.56c-1-.06-3.63-.39-5.75-.74a55.61 55.61 0 0 0-5.57-.67 24.73 24.73 0 0 0-3.66.22 26.09 26.09 0 0 1-4.05.21 27.77 27.77 0 0 1-4.11-.56 6.76 6.76 0 0 0-2.69-.08 2.1 2.1 0 0 0-1.08 1 20.68 20.68 0 0 1-1.09 2.32 12.65 12.65 0 0 1-1.29 1.83c-.37.42-1 1-1.42 1.42s-1.13.94-1.62 1.29a10.83 10.83 0 0 1-2 1.06 11.33 11.33 0 0 1-2.17.57 9 9 0 0 1-2.64-.12 34.69 34.69 0 0 1-4.29-1.6l-1.63-.72a33.62 33.62 0 0 1-5.83-3.17 14.7 14.7 0 0 1-2.2-2.58 15.2 15.2 0 0 1-1.42-2.89 10.75 10.75 0 0 1-.49-2.9 5.29 5.29 0 0 1 1.09-2.95 10.17 10.17 0 0 1 2.92-2.16 13.8 13.8 0 0 1 3.9-1.13 14.73 14.73 0 0 1 4.13.27 20.75 20.75 0 0 0 3.68.44 19.1 19.1 0 0 0 3.62-.39 29.94 29.94 0 0 1 4-.55 28.79 28.79 0 0 1 4 .11 33.47 33.47 0 0 0 3.7.17 36.5 36.5 0 0 0 3.7-.29c1.09-.15 3.71-.34 5.83-.43a43.88 43.88 0 0 1 5.91.12 35.82 35.82 0 0 1 4 .83 25.32 25.32 0 0 0 3.63.68 23 23 0 0 0 3.59 0 4.06 4.06 0 0 0 2-.74 2.42 2.42 0 0 0 .25-1.62c-.17-.91-.37-2.42-.43-3.37s-.08-2.52 0-3.5 0-2.43 0-3.33-.22-2.42-.36-3.33a13.2 13.2 0 0 0-.88-2.9 11.79 11.79 0 0 0-1.63-2.4 18.21 18.21 0 0 1-2-2.73 17 17 0 0 1-1.32-3.06 17.12 17.12 0 0 0-1.1-2.64 50.7 50.7 0 0 0-3.1-4.32l-.43-.54a29.24 29.24 0 0 0-3.92-4.27 9.82 9.82 0 0 0-2.55-1 16.52 16.52 0 0 1-3.29-1.19 15.38 15.38 0 0 1-2.78-1.88 13.93 13.93 0 0 0-2.39-1.62 55.58 55.58 0 0 0-7.9-1.86c-3.35-.61-7.48-1.47-8.59-1.85a23.22 23.22 0 0 0-3.15-.8 19.39 19.39 0 0 0-2.62-.19h-.38c-.83 0-2.2.17-3 .29s-2.16.4-3 .61-2.11.64-2.86.94-2 .88-2.73 1.27a28.47 28.47 0 0 1-3.29 1.43c-1 .35-2.79.87-4 1.16a12.51 12.51 0 0 0-3.5 1.53 13 13 0 0 0-2.71 2.77 35.66 35.66 0 0 1-2.83 3.54 32.75 32.75 0 0 1-3.26 3 13 13 0 0 0-4.42 6.07 30.87 30.87 0 0 1-1.66 3.74 21.27 21.27 0 0 1-2.08 3 14.24 14.24 0 0 0-1.62 2.44 13.15 13.15 0 0 0-.9 2.69 16.62 16.62 0 0 0-.25 2.89 17.33 17.33 0 0 0 .37 2.92c.21.88.47 2.33.58 3.22s.21 2.31.22 3.18a22.36 22.36 0 0 0 .26 2.85c.12.67 1.28 4.7 2.77 9.39a97.72 97.72 0 0 0 3.45 9.66 15.44 15.44 0 0 0 5.27 5.6 19.63 19.63 0 0 0 3.59 1.67c.32.1.69.24 1.08.39a27.85 27.85 0 0 1 3 1.38 28.51 28.51 0 0 1 3.68 2.5 19.13 19.13 0 0 0 3.07 2 11.16 11.16 0 0 0 2.84.87c.89.1 3.66.66 6.19 1.24s5.17 1.1 6 1.18a17.36 17.36 0 0 0 3 0 22.91 22.91 0 0 0 3.24-.67 19.8 19.8 0 0 1 7.56-.73 12.77 12.77 0 0 0 3.21-.18 12.45 12.45 0 0 0 3-1.19c.88-.52 2.33-1.3 3.23-1.73s3.85-1.58 6.57-2.57a60.14 60.14 0 0 0 6.23-2.56 23.15 23.15 0 0 0 2.7-1.89 20.58 20.58 0 0 0 2.32-2.38 22.49 22.49 0 0 0 1.88-2.88c.47-.89 1.14-2.3 1.5-3.15l.17-.43c.35-.89.72-1.94.92-2.58a2.12 2.12 0 0 0-.1-1.39z" fill="#231f20"/><path d="M161.24 120.6c-.05-.94-.22-2.49-.37-3.43a14.16 14.16 0 0 0-1-3.17 12.84 12.84 0 0 0-1.8-2.65 17.29 17.29 0 0 1-1.88-2.55A16.22 16.22 0 0 1 155 106a18.12 18.12 0 0 0-1.17-2.83 56.47 56.47 0 0 0-3.62-5 29.05 29.05 0 0 0-4.21-4.54 10.68 10.68 0 0 0-2.87-1.18l-.53-.14a17.68 17.68 0 0 1-1.71-.59 51.31 51.31 0 0 1 3.19 4.46 18.12 18.12 0 0 1 1.2 2.82 16.22 16.22 0 0 0 1.23 2.85 17.29 17.29 0 0 0 1.88 2.55 12.84 12.84 0 0 1 1.8 2.65 14.16 14.16 0 0 1 1 3.17c.15.94.32 2.48.37 3.43s.06 2.49 0 3.44 0 2.47 0 3.38a32.49 32.49 0 0 0 .41 3.25 3.3 3.3 0 0 1-.49 2.48 4.79 4.79 0 0 1-2.67 1.07 24.26 24.26 0 0 1-3.78 0 26.09 26.09 0 0 1-3.81-.71 34.58 34.58 0 0 0-3.82-.8 43.53 43.53 0 0 0-5.73-.11c-2.1.08-4.68.27-5.73.42a30.66 30.66 0 0 1-7.64.12 28 28 0 0 0-3.82-.1 28.8 28.8 0 0 0-3.82.53 20.85 20.85 0 0 1-3.85.41 21.73 21.73 0 0 1-3.89-.46 13.89 13.89 0 0 0-3.8-.25 12.89 12.89 0 0 0-3.57 1 9.2 9.2 0 0 0-2.55 1.92 4.31 4.31 0 0 0-.87 2.32 9.75 9.75 0 0 0 .43 2.58 14.38 14.38 0 0 0 1.31 2.67 13.78 13.78 0 0 0 2 2.37 33.35 33.35 0 0 0 5.58 3l1.61.71c-.25-.46-.48-1-.66-1.38-.06-.16-.12-.31-.17-.44a9.75 9.75 0 0 1-.43-2.58 4.31 4.31 0 0 1 .87-2.32 9.2 9.2 0 0 1 2.59-1.89 12.89 12.89 0 0 1 3.57-1 13.89 13.89 0 0 1 3.8.25 21.73 21.73 0 0 0 3.89.46 20.85 20.85 0 0 0 3.85-.41 28.8 28.8 0 0 1 3.82-.53 28 28 0 0 1 3.82.1 30.66 30.66 0 0 0 7.64-.12c1.05-.15 3.63-.34 5.73-.42a43.53 43.53 0 0 1 5.73.11 34.58 34.58 0 0 1 3.82.8 26.09 26.09 0 0 0 3.81.71 24.26 24.26 0 0 0 3.78 0 4.79 4.79 0 0 0 2.67-1.07 3.3 3.3 0 0 0 .49-2.48 32.49 32.49 0 0 1-.41-3.25c-.06-.91-.07-2.43 0-3.38s.02-2.51-.03-3.45zM147.76 143c-.37.87-1.06 2.33-1.54 3.23a23.41 23.41 0 0 1-2 3 21.42 21.42 0 0 1-2.46 2.52 24 24 0 0 1-2.84 2 61.08 61.08 0 0 1-6.39 2.63c-2.69 1-5.61 2.11-6.48 2.53s-2.29 1.17-3.15 1.68a13.4 13.4 0 0 1-3.26 1.3 13.63 13.63 0 0 1-3.53.2 18.82 18.82 0 0 0-7.18.69 23.6 23.6 0 0 1-3.42.7 18.32 18.32 0 0 1-3.2 0c-.85-.09-3.59-.63-6.09-1.2s-5.23-1.12-6.08-1.22a12 12 0 0 1-3.15-1 20 20 0 0 1-3.26-2.06 27.48 27.48 0 0 0-3.53-2.4 27.42 27.42 0 0 0-2.9-1.32c.37.55.8 1.11 1.2 1.6.17.21.34.4.49.56a19.7 19.7 0 0 0 3.19 2.64 20.53 20.53 0 0 0 3.82 1.81l.54.19c.41.15.86.33 1.31.52.76.32 1.52.68 2.07 1a27.48 27.48 0 0 1 3.53 2.4 20 20 0 0 0 3.27 2.16 12 12 0 0 0 3.15 1c.85.1 3.59.65 6.08 1.22s5.23 1.11 6.09 1.2a18.32 18.32 0 0 0 3.2 0 23.6 23.6 0 0 0 3.42-.7 18.82 18.82 0 0 1 7.18-.69 13.63 13.63 0 0 0 3.53-.2 13.4 13.4 0 0 0 3.26-1.3c.86-.51 2.28-1.27 3.15-1.68s3.79-1.55 6.48-2.53a61.08 61.08 0 0 0 6.39-2.63 24 24 0 0 0 2.84-2 21.42 21.42 0 0 0 2.46-2.52 23.41 23.41 0 0 0 2-3c.48-.91 1.17-2.36 1.54-3.23s.87-2.28 1.12-3.12a2.86 2.86 0 0 0-.23-2.34 4.19 4.19 0 0 0-2.54-.92c-1-.06-3.55-.38-5.64-.73l-1.21-.19-1-.14z" fill="#231f20"/></svg>