<svg xmlns="http://www.w3.org/2000/svg" width="70.42" height="200" viewBox="0 0 70.42 200"><title>_</title><path d="M10.28 66.58A28.28 28.28 0 0 1 8.89 70a6.16 6.16 0 0 1-1.74 2.13 5.09 5.09 0 0 1-1.79.64A10.49 10.49 0 0 1 2 72.14a16.1 16.1 0 0 0-1.53-.44c-.42.65-1.2 1.66-1.38 1.89a16.57 16.57 0 0 0-1.51 2.31A9.87 9.87 0 0 0-3 77.73a3.88 3.88 0 0 0 .12 1.54 6.94 6.94 0 0 0 1.12 1.81 6 6 0 0 1 1.43 3.37 6.31 6.31 0 0 1-.57 2.5h.37a4.61 4.61 0 0 1 2.4.51 1.89 1.89 0 0 0 .59.18 1.93 1.93 0 0 0 .54-.22 4.84 4.84 0 0 1 1.91-.61 3.58 3.58 0 0 1 2 .55 6.73 6.73 0 0 1 1.54 1.94c.2.37.49 1 .79 1.64.23.5.46 1 .64 1.52a13.18 13.18 0 0 1 .68 2.68 10.85 10.85 0 0 1 .14 1.68 14.3 14.3 0 0 1-.92 4.4 29.63 29.63 0 0 0-1.17 3.66 61 61 0 0 0-.61 7.5 47.37 47.37 0 0 0 .22 7.4 22.49 22.49 0 0 0 1.23 3.6 13.38 13.38 0 0 1 1.07 4.48 13.08 13.08 0 0 1-.87 4.49 13.37 13.37 0 0 0-.81 3.41 12.44 12.44 0 0 0 .38 3.38 20.09 20.09 0 0 1 .65 4.38 23.14 23.14 0 0 1-.5 4.56 3.48 3.48 0 0 0-.06 1.31 4.56 4.56 0 0 0 1.54-.24A38.79 38.79 0 0 1 15.4 148a24.35 24.35 0 0 1 2.52-.24c1.71-.1 3.89-.16 5.85-.16 3.36 0 7.77.2 9.83.45a12.42 12.42 0 0 0 3.34 0 22.65 22.65 0 0 0 .81-5.06 84.59 84.59 0 0 1 1.25-9.58 25 25 0 0 0 .62-5.38 13.94 13.94 0 0 0-.91-3.43 14.7 14.7 0 0 1-1.05-4.42 14.06 14.06 0 0 1 .67-4.45 38 38 0 0 0 1-3.71 34.53 34.53 0 0 0 .55-3.69 22.16 22.16 0 0 0-.07-3.59 23.86 23.86 0 0 0-.8-3.61 32.84 32.84 0 0 1-1-4.14 32.19 32.19 0 0 1-.31-4.21 12.27 12.27 0 0 1 .6-3.78 5 5 0 0 1 2.19-2.5 4.5 4.5 0 0 1 2.93-.31A5.81 5.81 0 0 1 46 87.87a2.48 2.48 0 0 0 .71.55 1.52 1.52 0 0 0 .48-.27 8 8 0 0 1 2-1.37 4 4 0 0 1 2.26-.2h.17a5 5 0 0 0 .94-1 3.28 3.28 0 0 0 .44-1.35 3.94 3.94 0 0 0-.39-1.47 7 7 0 0 1-.75-3 7.17 7.17 0 0 1 .55-2.29 5.84 5.84 0 0 1 .35-.73 3.06 3.06 0 0 0 .36-1.28 2.68 2.68 0 0 0-.58-1.06 15.46 15.46 0 0 0-1.42-1.28 3.82 3.82 0 0 0-.73-.42 2.69 2.69 0 0 0-.4 0h-.2a6.53 6.53 0 0 0-1.16.32 6.1 6.1 0 0 1-2.29.37 6.63 6.63 0 0 1-2.24-.62 15.14 15.14 0 0 0-1.44-.61 10 10 0 0 0-1.27-.32 3.22 3.22 0 0 1-2.27-2 10.56 10.56 0 0 1-.48-3.24c0-1 .07-2.53.16-3.41a25.68 25.68 0 0 1 .5-3 4.21 4.21 0 0 1 1.94-2.63 4.88 4.88 0 0 1 3.29 0 8.37 8.37 0 0 0 2.32.32 12.12 12.12 0 0 0 2.71-.52 6.93 6.93 0 0 0 2.05-1.13 3.69 3.69 0 0 0 .83-1.44 5.75 5.75 0 0 0 0-1.92 7.49 7.49 0 0 0-.87-2 8.14 8.14 0 0 1-1.17-3.19 7 7 0 0 1 .22-2.22 6.13 6.13 0 0 1 .35-1.06 8.11 8.11 0 0 0 .57-2 5.74 5.74 0 0 0-.15-1.7 4.51 4.51 0 0 0-.42-.94 6.47 6.47 0 0 1-1.71-.09 10.48 10.48 0 0 1-1.84-.67 2.55 2.55 0 0 0-.92-.17 3.29 3.29 0 0 0-1 .43 8.2 8.2 0 0 1-2.17 1c-1 .26-5.93-.33-8.8-.71a44.13 44.13 0 0 0-8.22-.55 6.67 6.67 0 0 0-2 1.17 13.74 13.74 0 0 1-2.79 2 13.65 13.65 0 0 1-3.23 1 5.07 5.07 0 0 0-1.85.79 12.87 12.87 0 0 0-1.94 3.17 48 48 0 0 1-2.19 4.3 8.67 8.67 0 0 0-.9 2.48 17.25 17.25 0 0 0-.1 3.58 28 28 0 0 1-.06 4.64 26.78 26.78 0 0 1-.97 4.45z"/><path d="M62.83 49.47a7 7 0 0 0-.21-2.28 4.88 4.88 0 0 0-.8-1.61 1.43 1.43 0 0 0-1.1-.41 4.75 4.75 0 0 1-1.36-.06 9 9 0 0 1-1.6-.54 3.86 3.86 0 0 0-1.71-.3 4.57 4.57 0 0 0-1.71.68 7 7 0 0 1-1 .56 5 5 0 0 1-.67.25 2.26 2.26 0 0 1-.46 0 5.56 5.56 0 0 0-.21 1.73 6.8 6.8 0 0 0 .91 2.51A9 9 0 0 1 54 52.55a7.19 7.19 0 0 1 0 2.56 5.15 5.15 0 0 1-1.26 2.2 8.36 8.36 0 0 1-2.61 1.46 13.53 13.53 0 0 1-3.13.6 9.8 9.8 0 0 1-2.88-.37 3.48 3.48 0 0 0-2.17 0 2.76 2.76 0 0 0-1.14 1.65 23.85 23.85 0 0 0-.47 2.74c-.08.82-.15 2.29-.15 3.25a9.31 9.31 0 0 0 .37 2.69 1.75 1.75 0 0 0 1.11 1.05 11.22 11.22 0 0 1 1.52.38 15.85 15.85 0 0 1 1.62.68 5.18 5.18 0 0 0 1.67.47 4.66 4.66 0 0 0 1.65-.27 8 8 0 0 1 1.49-.41h.37c0-.33 0-.63.07-.88v-.21a23.79 23.79 0 0 1 .45-2.62 2.76 2.76 0 0 1 1.14-1.65 3.48 3.48 0 0 1 2.17 0 9.8 9.8 0 0 0 2.83.39 13.53 13.53 0 0 0 3.13-.6 8.36 8.36 0 0 0 2.61-1.46 5.15 5.15 0 0 0 1.28-2.2 7.19 7.19 0 0 0 0-2.56A9 9 0 0 0 62.62 57a6.8 6.8 0 0 1-.94-2.52 5.89 5.89 0 0 1 .45-2.52 9.55 9.55 0 0 0 .7-2.49zM64.35 82.2a4 4 0 0 0-1-1.95 16.72 16.72 0 0 0-1.6-1.44 4.59 4.59 0 0 0-1.23-.66 3.74 3.74 0 0 0-1.2 0 8 8 0 0 0-1.49.41 4.66 4.66 0 0 1-1.65.27 5.14 5.14 0 0 1-1.46-.38l-.21-.09-.69-.36a4.36 4.36 0 0 0 .18 4.07 5.24 5.24 0 0 1 .56 2.23 4.67 4.67 0 0 1-.76 2.08 6.17 6.17 0 0 1-1.37 1.42 1.89 1.89 0 0 1-1.29.24 2.46 2.46 0 0 0-1.36.13 6.6 6.6 0 0 0-1.57 1.08 2.51 2.51 0 0 1-1.67.68 3.29 3.29 0 0 1-1.67-1.08 4.42 4.42 0 0 0-1.74-1.23 3.08 3.08 0 0 0-1.87.22 3.62 3.62 0 0 0-1.45 1.71 11 11 0 0 0-.5 3.23 30.25 30.25 0 0 0 .3 4 31.19 31.19 0 0 0 .93 3.92 25.17 25.17 0 0 1 .86 3.89 23.46 23.46 0 0 1 .07 3.89 36.55 36.55 0 0 1-.58 3.89 39.67 39.67 0 0 1-1.1 3.89 12.53 12.53 0 0 0-.59 3.89 13.15 13.15 0 0 0 .93 3.89 15.3 15.3 0 0 1 1 3.89 26 26 0 0 1-.65 5.83 82.82 82.82 0 0 0-1.2 9.35c-.21 3-.78 5.78-1.28 6.17s-2.55.51-4.55.27-6.35-.44-9.65-.44c-2 0-4.14.06-5.76.16 0 .36.06.69.08 1v.26a21.3 21.3 0 0 1-.46 4.2c-.27 1.19-.11 2.47.36 2.86s1.85.37 3.06 0a37.15 37.15 0 0 1 4.31-1.12 68.13 68.13 0 0 1 8.11-.38c3.3 0 7.65.2 9.65.44s4.05.12 4.55-.27S48.76 153 49 150a82.82 82.82 0 0 1 1.2-9.35 26 26 0 0 0 .65-5.83 15.3 15.3 0 0 0-1-3.89 13.15 13.15 0 0 1-.93-3.89 12.53 12.53 0 0 1 .59-3.89 39.67 39.67 0 0 0 1.1-3.89 36.55 36.55 0 0 0 .58-3.89 23.46 23.46 0 0 0-.07-3.89 25.17 25.17 0 0 0-.86-3.89 31.19 31.19 0 0 1-.93-3.92 30.25 30.25 0 0 1-.3-4 11 11 0 0 1 .5-3.23 3.62 3.62 0 0 1 1.45-1.71 3.08 3.08 0 0 1 1.87-.22 4.42 4.42 0 0 1 1.74 1.23 3.29 3.29 0 0 0 1.67 1.08 2.51 2.51 0 0 0 1.67-.68 6.6 6.6 0 0 1 1.57-1.08 2.46 2.46 0 0 1 1.3-.06 1.89 1.89 0 0 0 1.29-.24 6.17 6.17 0 0 0 1.37-1.42 4.67 4.67 0 0 0 .76-2.08 5.24 5.24 0 0 0-.55-2.26 5.6 5.6 0 0 1-.58-2.31 5.84 5.84 0 0 1 .7-2.31 4.33 4.33 0 0 0 .56-2.18zM9.09 95.37a11.78 11.78 0 0 0-.6-2.37c-.18-.46-.4-1-.62-1.46a5 5 0 0 1-.4 1.62 5.43 5.43 0 0 1-.48 1A4.56 4.56 0 0 0 6.14 96c0 .25.57.22 1.17-.06a6.89 6.89 0 0 1 .8-.3 6.62 6.62 0 0 1 .98-.27z"/></svg>