<svg xmlns="http://www.w3.org/2000/svg" width="200" height="200" viewBox="0 0 200 200"><title>_</title><path d="M131.79 48.48a.55.55 0 0 0-.25-.1 5.65 5.65 0 0 1-1.68-.07 10 10 0 0 1-1.81-.61 2.91 2.91 0 0 0-1.19-.21 3.69 3.69 0 0 0-1.26.51 7.75 7.75 0 0 1-2 .95c-1 .28-7.84-.62-8.61-.72a42.63 42.63 0 0 0-8.38-.54A7.18 7.18 0 0 0 104.4 49a10.94 10.94 0 0 1-5.77 2.86 5.51 5.51 0 0 0-2.08.9 12.91 12.91 0 0 0-2.07 3.35c-.73 1.6-1.7 3.5-2.16 4.24a9.09 9.09 0 0 0-1 2.66 17.8 17.8 0 0 0-.11 3.71 27.48 27.48 0 0 1-.06 4.54 26.07 26.07 0 0 1-1 4.36A27.76 27.76 0 0 1 88.86 79a5.59 5.59 0 0 1-1.56 1.94 4.58 4.58 0 0 1-1.59.57 10.61 10.61 0 0 1-3.09-.64 13.74 13.74 0 0 0-2-.53 24 24 0 0 1-1.52 2.14 16.93 16.93 0 0 0-1.57 2.4 10.32 10.32 0 0 0-.62 1.95 4.36 4.36 0 0 0 .14 1.8 7.47 7.47 0 0 0 1.22 2 5.56 5.56 0 0 1 1.31 3.06 6.44 6.44 0 0 1-1 3.23 6.54 6.54 0 0 1 1.36-.3A4.11 4.11 0 0 1 82 97a1.51 1.51 0 0 0 1.66 0 4.36 4.36 0 0 1 1.68-.54 3.09 3.09 0 0 1 1.66.47 6 6 0 0 1 1.4 1.77c.19.35.48.94.77 1.6.22.5.45 1 .63 1.5a12.65 12.65 0 0 1 .66 2.57 10.28 10.28 0 0 1 .13 1.6 13.71 13.71 0 0 1-.89 4.22 30.26 30.26 0 0 0-1.19 3.74 60.22 60.22 0 0 0-.61 7.58 47.29 47.29 0 0 0 .23 7.53 23 23 0 0 0 1.26 3.69 12.82 12.82 0 0 1 1 4.28 12.51 12.51 0 0 1-.83 4.29 13.74 13.74 0 0 0-.85 3.57 12.81 12.81 0 0 0 .4 3.55 19.5 19.5 0 0 1 .63 4.25 22.52 22.52 0 0 1-.49 4.44 3.38 3.38 0 0 0 0 1.86 4.1 4.1 0 0 0 2.1-.21 38.27 38.27 0 0 1 4.45-1.16 24 24 0 0 1 2.46-.23c1.7-.1 3.88-.16 5.82-.16 3.34 0 7.72.2 9.77.44a11.27 11.27 0 0 0 3.77-.06 19.81 19.81 0 0 0 .95-5.46 84.12 84.12 0 0 1 1.22-9.49 25.07 25.07 0 0 0 .63-5.53 14.3 14.3 0 0 0-.95-3.58 14.11 14.11 0 0 1-1-4.24 13.44 13.44 0 0 1 .65-4.26 38.88 38.88 0 0 0 1.06-3.77 35.38 35.38 0 0 0 .56-3.76 22.72 22.72 0 0 0-.07-3.69 24.4 24.4 0 0 0-.82-3.7 32.26 32.26 0 0 1-1-4.07 31.61 31.61 0 0 1-.31-4.13 11.94 11.94 0 0 1 .57-3.6 4.54 4.54 0 0 1 1.95-2.24 4 4 0 0 1 2.58-.28 5.33 5.33 0 0 1 2.36 1.56 2.6 2.6 0 0 0 1 .74 1.76 1.76 0 0 0 .87-.42 7.6 7.6 0 0 1 1.87-1.28 3.5 3.5 0 0 1 2-.17 1 1 0 0 0 .5-.12 5.3 5.3 0 0 0 1.12-1.1 3.73 3.73 0 0 0 .58-1.55 4.33 4.33 0 0 0-.44-1.72 6.56 6.56 0 0 1-.69-2.8 6.64 6.64 0 0 1 .51-2.12 5.37 5.37 0 0 1 .33-.67 3.46 3.46 0 0 0 .43-1.58 3 3 0 0 0-.72-1.36 15.75 15.75 0 0 0-1.48-1.33 3.94 3.94 0 0 0-.88-.5 2.31 2.31 0 0 0-.56 0h-.25a7.09 7.09 0 0 0-1.27.35 5.51 5.51 0 0 1-2.07.34 6.17 6.17 0 0 1-2.05-.57 15.23 15.23 0 0 0-1.5-.63 10.44 10.44 0 0 0-1.36-.34 2.73 2.73 0 0 1-1.94-1.74 10.2 10.2 0 0 1-.44-3.05c0-1 .07-2.5.16-3.36a25.15 25.15 0 0 1 .49-2.88 3.72 3.72 0 0 1 1.67-2.3 4.41 4.41 0 0 1 2.92 0 9 9 0 0 0 2.49.34 12.52 12.52 0 0 0 2.85-.55 7.41 7.41 0 0 0 2.24-1.24 4.18 4.18 0 0 0 1-1.69 6.18 6.18 0 0 0 0-2.13 8 8 0 0 0-.94-2.19 7.7 7.7 0 0 1-1.1-3 6.43 6.43 0 0 1 .21-2.05 5.59 5.59 0 0 1 .32-1 8.58 8.58 0 0 0 .61-2.13 6.15 6.15 0 0 0-.17-1.9 4.25 4.25 0 0 0-.52-1.17z" fill="#231f20"/><path d="M132.57 54.94a5.56 5.56 0 0 0-.19 1.71 6.8 6.8 0 0 0 .94 2.52 9 9 0 0 1 1.08 2.53 7.19 7.19 0 0 1 0 2.56 5.15 5.15 0 0 1-1.26 2.2 8.36 8.36 0 0 1-2.61 1.46 13.53 13.53 0 0 1-3.13.6 9.8 9.8 0 0 1-2.83-.39 3.48 3.48 0 0 0-2.17 0 2.76 2.76 0 0 0-1.14 1.65 23.82 23.82 0 0 0-.47 2.74c-.09.82-.15 2.29-.15 3.25a9.31 9.31 0 0 0 .37 2.69 1.75 1.75 0 0 0 1.11 1.05 11.22 11.22 0 0 1 1.52.38 15.84 15.84 0 0 1 1.62.68 5.18 5.18 0 0 0 1.67.47 4.66 4.66 0 0 0 1.65-.27 8 8 0 0 1 1.49-.41h.37c0-.33 0-.63.07-.88v-.19a23.79 23.79 0 0 1 .45-2.62 2.76 2.76 0 0 1 1.11-1.67 3.48 3.48 0 0 1 2.17 0 9.8 9.8 0 0 0 2.83.39 13.53 13.53 0 0 0 3.13-.6 8.36 8.36 0 0 0 2.61-1.46 5.15 5.15 0 0 0 1.26-2.2 7.19 7.19 0 0 0 0-2.56 9 9 0 0 0-1.07-2.46 6.8 6.8 0 0 1-.94-2.52 5.89 5.89 0 0 1 .45-2.52 9.55 9.55 0 0 0 .69-2.44 7.05 7.05 0 0 0-.21-2.28 4.88 4.88 0 0 0-.8-1.61 1.43 1.43 0 0 0-1.1-.41 4.75 4.75 0 0 1-1.36-.06 9 9 0 0 1-1.6-.54 3.86 3.86 0 0 0-1.71-.3 4.57 4.57 0 0 0-1.71.68 7 7 0 0 1-1 .56 5 5 0 0 1-.67.25 2.26 2.26 0 0 1-.47.02zM134.23 87.15a4.36 4.36 0 0 0 .14 4.07 5.24 5.24 0 0 1 .56 2.23 4.67 4.67 0 0 1-.76 2.08A6.18 6.18 0 0 1 132.8 97a1.89 1.89 0 0 1-1.29.24 2.46 2.46 0 0 0-1.36.13 6.6 6.6 0 0 0-1.57 1.08 2.51 2.51 0 0 1-1.67.68 3.3 3.3 0 0 1-1.68-1.13 4.42 4.42 0 0 0-1.74-1.23 3.08 3.08 0 0 0-1.87.22 3.62 3.62 0 0 0-1.45 1.71 11 11 0 0 0-.5 3.23 30.23 30.23 0 0 0 .3 4 31.19 31.19 0 0 0 .93 3.92 25.17 25.17 0 0 1 .86 3.89 23.47 23.47 0 0 1 .07 3.89 36.55 36.55 0 0 1-.58 3.89 39.63 39.63 0 0 1-1.1 3.89 12.53 12.53 0 0 0-.59 3.89 13.15 13.15 0 0 0 .93 3.89 15.3 15.3 0 0 1 1 3.89 26 26 0 0 1-.65 5.83 82.79 82.79 0 0 0-1.2 9.35c-.21 3-.78 5.78-1.28 6.17s-2.55.51-4.55.27-6.35-.44-9.65-.44c-2 0-4.14.06-5.76.16 0 .36.06.69.08 1v.26a21.3 21.3 0 0 1-.46 4.2c-.27 1.19-.11 2.47.36 2.86s1.85.37 3.06 0a37.15 37.15 0 0 1 4.31-1.12 68.13 68.13 0 0 1 8.11-.38c3.3 0 7.65.2 9.65.44s4.05.12 4.55-.27 1.08-3.17 1.28-6.17a82.79 82.79 0 0 1 1.2-9.35 26 26 0 0 0 .65-5.83 15.3 15.3 0 0 0-1-3.89 13.15 13.15 0 0 1-.93-3.89 12.53 12.53 0 0 1 .59-3.89 39.63 39.63 0 0 0 1.1-3.89 36.55 36.55 0 0 0 .58-3.89 23.47 23.47 0 0 0-.07-3.89 25.17 25.17 0 0 0-.86-3.89 31.19 31.19 0 0 1-.93-3.92 30.23 30.23 0 0 1-.3-4 11 11 0 0 1 .5-3.23 3.62 3.62 0 0 1 1.45-1.71 3.08 3.08 0 0 1 1.87-.22 4.42 4.42 0 0 1 1.74 1.23 3.3 3.3 0 0 0 1.67 1.08 2.51 2.51 0 0 0 1.67-.68 6.6 6.6 0 0 1 1.57-1.08 2.46 2.46 0 0 1 1.36-.13 1.89 1.89 0 0 0 1.29-.24 6.18 6.18 0 0 0 1.37-1.42 4.67 4.67 0 0 0 .76-2.08 5.24 5.24 0 0 0-.56-2.23 5.61 5.61 0 0 1-.58-2.31 5.84 5.84 0 0 1 .7-2.31 4.33 4.33 0 0 0 .56-2.19 4 4 0 0 0-1-1.95 16.73 16.73 0 0 0-1.6-1.44 4.59 4.59 0 0 0-1.23-.66 3.75 3.75 0 0 0-1.2 0 8 8 0 0 0-1.49.41 4.66 4.66 0 0 1-1.65.27 5.14 5.14 0 0 1-1.46-.38l-.21-.09zM88.91 102.17c-.18-.46-.4-1-.62-1.46a5 5 0 0 1-.4 1.62 5.43 5.43 0 0 1-.48 1 4.56 4.56 0 0 0-.85 1.85c0 .25.57.22 1.17-.06a6.88 6.88 0 0 1 .8-.3 6.62 6.62 0 0 1 1-.24 11.78 11.78 0 0 0-.62-2.41z" fill="#231f20"/></svg>