<svg xmlns="http://www.w3.org/2000/svg" width="200" height="200" viewBox="0 0 200 200"><title>_</title><path d="M81 152a22 22 0 0 0 3.22 1 35.31 35.31 0 0 1 3.78 1.17 41.28 41.28 0 0 1 3.82 1.72 7.29 7.29 0 0 0 3.18.72 8.32 8.32 0 0 0 3.23-1.22 23.9 23.9 0 0 1 3.79-2 33.92 33.92 0 0 1 6.85-1.14 22.2 22.2 0 0 0 5.55-1 7.39 7.39 0 0 0 1.82-2.13c.28-.49.5-.88.69-1.17.46-.68.78-.83 1.39-.5l.86.46-.48.95a4.52 4.52 0 0 0-.29.76 2.33 2.33 0 0 0 0 .54 3 3 0 0 0 .14.58 4.36 4.36 0 0 0 .33.63 3.28 3.28 0 0 1 .47 1.25 3 3 0 0 1-.19 1.33c-.07.17-.46 1.38-1 3.13-.36 1.17-.76 2.62-1 3.61-.06.25-.11.47-.14.64a27.63 27.63 0 0 0-.39 2.79 6 6 0 0 1-.92 2.74 5 5 0 0 1-2.3 1.57 15.94 15.94 0 0 0-2.25.94 27.66 27.66 0 0 0-2.54 1.58 9.51 9.51 0 0 1-2.2 1.15 3.72 3.72 0 0 1-.57.16 2.8 2.8 0 0 1-1.68-.29 2.25 2.25 0 0 1-.76-.58 5.2 5.2 0 0 0-.84-.82 1.46 1.46 0 0 0-.47-.19 4 4 0 0 0-.75.09 7.21 7.21 0 0 0-1 .33 4.21 4.21 0 0 1-1.51.34 2.62 2.62 0 0 1-1.45-.53 4.53 4.53 0 0 1-.79-.86 4.1 4.1 0 0 1-.48-1.06 3.4 3.4 0 0 1-.06-1.28 4.79 4.79 0 0 1 .43-1.24 5.16 5.16 0 0 0 .23-.52l-.36-.37a3.62 3.62 0 0 0-.9-.13c-.5 0-3.53.28-7 .72a105.38 105.38 0 0 1-14.2.47 42 42 0 0 0-7.16.2 37.72 37.72 0 0 0 3.33 5.48c2.2 3.12 4.7 6.47 5.47 7.32a30.6 30.6 0 0 0 2.74 2.62 8.83 8.83 0 0 0 2.66 1.37 8.5 8.5 0 0 0 1.7.21 8.74 8.74 0 0 0 1.43-.05 16.89 16.89 0 0 1 3.79 0 12.84 12.84 0 0 1 3.36 1 14.49 14.49 0 0 0 2.66.93 13.92 13.92 0 0 0 2.78.26h.28a19.33 19.33 0 0 1 3 .25 20.82 20.82 0 0 1 3.24.92 26.18 26.18 0 0 0 3.15.94 36.59 36.59 0 0 0 3.67.56A16.16 16.16 0 0 0 114 188a17.09 17.09 0 0 0 3.59-1.24c1.07-.54 2.8-1.3 3.86-1.71s2.81-1 3.86-1.27 2.61-.81 3.54-1.19 4.15-2 7-3.53a43.67 43.67 0 0 0 6.46-4 13.07 13.07 0 0 0 2-2.82 31.55 31.55 0 0 0 1.42-3.41 71.8 71.8 0 0 0 1.47-7.64 63.07 63.07 0 0 0 .8-7.95 30.46 30.46 0 0 0-.53-4.1c-.26-1.21-.56-3.15-.69-4.32s-.21-3.08-.2-4.23-.23-4.75-.52-8c-.31-3.46-.52-7.08-.47-8.25a24.66 24.66 0 0 1 .62-4.27 28.44 28.44 0 0 1 1.53-4.24 22.56 22.56 0 0 0 1.33-3.85 19.19 19.19 0 0 0 .36-3.82c0-1.08-.19-2.88-.35-3.94s-.53-2.86-.83-3.95a25 25 0 0 1-.69-4.27 24.2 24.2 0 0 1 .22-4.27c.17-1.09.35-2.87.41-4v-1.29c0-1 0-2-.07-2.75a5 5 0 0 0-.84-2.49 17.6 17.6 0 0 0-5.71-.72 67.58 67.58 0 0 0-6.92.27 24.71 24.71 0 0 0-3.36.85 21 21 0 0 1-3.66.86 17.55 17.55 0 0 1-3.57 0c-.53-.06-1.06-.11-1.46-.13a11.87 11.87 0 0 1 .22 1.19 6.85 6.85 0 0 1 0 1.6 7.66 7.66 0 0 1-.44 1.57c-.12.3-.3.81-.41 1.15a12.87 12.87 0 0 0-.3 1.33 1.44 1.44 0 0 1-.83 1.13 1.48 1.48 0 0 1-1.43-.15 11.43 11.43 0 0 1-2-2.13c-.44-.58-1.12-1.42-1.74-2.13l-.56-.62a40.54 40.54 0 0 0-2.6-2.48 19.61 19.61 0 0 0-6-3.52 15.55 15.55 0 0 0-6.78-.9c-.86.07-5 1-9.69 2.25-4.34 1.17-9.78 2.44-12.04 2.83a13.66 13.66 0 0 0-4.83 1.61 6.48 6.48 0 0 0-1.49 2.69 18.16 18.16 0 0 1-1.56 3.94 15.15 15.15 0 0 1-2.53 3.14 11.15 11.15 0 0 0-2 2.51 11 11 0 0 0-.95 3c-.14 1-.45 2.71-.7 3.73s-.74 2.65-1.1 3.64-1 3.35-1.49 5.31a45.52 45.52 0 0 0-1 5.38 73.92 73.92 0 0 0 .35 7.46 44 44 0 0 0 1.07 7.2 16.4 16.4 0 0 0 1.58 3c.56.8 2.07 2.71 3.31 4.17s2.82 3.21 3.49 3.83 3.08 2.54 5.28 4.19a48.05 48.05 0 0 0 5.38 3.6l-.29 1z" fill="#231f20"/><path d="M116.55 85.24c.62.71 1.33 1.58 1.79 2.19a10.57 10.57 0 0 0 1.73 1.89.43.43 0 0 0 .72-.29c.06-.38.2-1 .3-1.37v-.09l-.84-.57-.25-.15c-.38-.22-.89-.49-1.42-.74s-1.37-.63-1.9-.82zM149.28 87.77c-.05 1.13-.24 3-.42 4.09a23.13 23.13 0 0 0-.21 4.06 24 24 0 0 0 .66 4.06c.3 1.12.68 2.94.85 4.06s.33 2.94.36 4.06a20.07 20.07 0 0 1-.39 4.06 23.43 23.43 0 0 1-1.4 4.06 27.38 27.38 0 0 0-1.47 4.06 23.49 23.49 0 0 0-.59 4.06c0 1.12.17 4.77.47 8.12s.53 7 .52 8.12.08 3 .2 4.11.42 3 .67 4.22a31.35 31.35 0 0 1 .55 4.27 64 64 0 0 1-.81 8.14 72.84 72.84 0 0 1-1.51 7.81 32.45 32.45 0 0 1-1.48 3.54 14.1 14.1 0 0 1-2.24 3.08 43.52 43.52 0 0 1-6.69 4.2c-2.93 1.57-6.12 3.18-7.1 3.57a38.45 38.45 0 0 1-3.66 1.23c-1 .28-2.73.83-3.76 1.23s-2.74 1.15-3.77 1.67a18.07 18.07 0 0 1-3.86 1.35 16.91 16.91 0 0 1-4 .19 37.28 37.28 0 0 1-3.79-.58 27 27 0 0 1-3.3-1 19.86 19.86 0 0 0-3.06-.87 18.14 18.14 0 0 0-3.07-.23 15.11 15.11 0 0 1-3-.28 15.51 15.51 0 0 1-2.88-1 11.92 11.92 0 0 0-3.05-.9 16.17 16.17 0 0 0-3.53 0 9.93 9.93 0 0 1-1.6.06l.77 1c.5.64.9 1.15 1.14 1.41a31.14 31.14 0 0 0 2.85 2.73 9.77 9.77 0 0 0 3 1.56 10.81 10.81 0 0 0 3.52.18 16.17 16.17 0 0 1 3.53 0 11.92 11.92 0 0 1 3.05.9 15.51 15.51 0 0 0 2.88 1 15.11 15.11 0 0 0 3 .28 18.14 18.14 0 0 1 3.07.23 19.86 19.86 0 0 1 3.06.87 27 27 0 0 0 3.3 1 37.28 37.28 0 0 0 3.79.58 16.91 16.91 0 0 0 4-.19 18.07 18.07 0 0 0 3.84-1.33c1-.52 2.74-1.27 3.77-1.67s2.73-1 3.76-1.23a38.45 38.45 0 0 0 3.66-1.23c1-.4 4.18-2 7.1-3.57a43.52 43.52 0 0 0 6.69-4.2 14.1 14.1 0 0 0 2.24-3.08 32.45 32.45 0 0 0 1.48-3.54 72.84 72.84 0 0 0 1.51-7.81 64 64 0 0 0 .81-8.14 31.35 31.35 0 0 0-.55-4.27c-.25-1.17-.55-3.07-.67-4.22s-.21-3-.2-4.11-.23-4.77-.52-8.12-.51-7-.47-8.12a23.49 23.49 0 0 1 .59-4.06 27.38 27.38 0 0 1 1.47-4.06 23.43 23.43 0 0 0 1.4-4.06 20.07 20.07 0 0 0 .39-4.06c0-1.12-.2-2.94-.36-4.06s-.55-2.94-.85-4.06a24 24 0 0 1-.66-4.06 23.13 23.13 0 0 1 .21-4.06c.18-1.12.37-3 .42-4.09s0-3 0-4.15a5.81 5.81 0 0 0-1.12-3.11c-.54-.56-3.4-1-6.37-1h-2.16c.01.46 0 .92-.01 1.3z" fill="#231f20"/><path d="M106.09 171.12a5.09 5.09 0 0 0-.88-.11h-.59a1.84 1.84 0 0 0 1.07.2 2.66 2.66 0 0 0 .4-.09zM117.19 156.76c.47-1.54.94-3 1-3.22a2 2 0 0 0 .12-.83 2.33 2.33 0 0 0-.32-.83 5.15 5.15 0 0 1-.43-.83 3.91 3.91 0 0 1-.2-.83 3.2 3.2 0 0 1 .07-.88 5.38 5.38 0 0 1 .38-1 8.14 8.14 0 0 0-.72 1.23 8.24 8.24 0 0 1-2.16 2.48 21 21 0 0 1-6 1.13 33.08 33.08 0 0 0-6.56 1.07 22.7 22.7 0 0 0-3.59 1.93 9.23 9.23 0 0 1-3.71 1.39 8.2 8.2 0 0 1-3.71-.84 40 40 0 0 0-3.7-1.67A34 34 0 0 0 84 154a23 23 0 0 1-3.45-1.12l-.16-.08c.67.55 1.54 1.23 2.46 1.94l1.71 1.26a45.61 45.61 0 0 0 5.71 3.78 23 23 0 0 0 3.45 1.12 34 34 0 0 1 3.68 1.1 40 40 0 0 1 3.7 1.67 8.2 8.2 0 0 0 3.71.84 9.23 9.23 0 0 0 3.71-1.39 22.7 22.7 0 0 1 3.59-1.93 17.6 17.6 0 0 1 3-.65l1.06-.15c.25-.95.65-2.39 1.02-3.63z" fill="#231f20"/></svg>