<svg xmlns="http://www.w3.org/2000/svg" width="116" height="200" viewBox="0 0 116 200"><title>_</title><path d="M15.94 86a10.7 10.7 0 0 0-1.88 2.37 10.58 10.58 0 0 0-.89 2.87c-.17 1.09-.46 2.76-.71 3.82s-.75 2.69-1.12 3.69-1 3.31-1.48 5.25a45 45 0 0 0-1 5.3c-.06.84.07 4.07.35 7.38a44.13 44.13 0 0 0 1 7.07 16 16 0 0 0 1.52 2.9c.55.79 2.05 2.68 3.28 4.14s2.8 3.18 3.45 3.79 3 2.51 5.24 4.15a47.66 47.66 0 0 0 5.3 3.55l.15.08a21.45 21.45 0 0 0 3.13 1 35.73 35.73 0 0 1 3.88 1.17 41.82 41.82 0 0 1 3.87 1.74A6.83 6.83 0 0 0 43 147a7.85 7.85 0 0 0 3-1.14 24.5 24.5 0 0 1 3.88-2.08 33.94 33.94 0 0 1 7-1.17 23 23 0 0 0 5.33-.91 7 7 0 0 0 1.64-1.94c.29-.5.51-.9.71-1.2l.18-.42h.1a1.28 1.28 0 0 1 1.78-.31l1.29.7-.7 1.38a4.2 4.2 0 0 0-.25.65 2 2 0 0 0 0 .38 2.62 2.62 0 0 0 .11.45 3.87 3.87 0 0 0 .28.53 3.77 3.77 0 0 1 .55 1.47 3.45 3.45 0 0 1-.23 1.58c-.05.14-.44 1.32-1 3.08-.36 1.16-.75 2.6-1 3.58-.06.24-.11.45-.14.61a26.94 26.94 0 0 0-.38 2.73 6.48 6.48 0 0 1-1 3 5.47 5.47 0 0 1-2.55 1.76 15.35 15.35 0 0 0-2.16.91 27 27 0 0 0-2.48 1.54 10 10 0 0 1-2.32 1.21 4.2 4.2 0 0 1-.66.18 3.35 3.35 0 0 1-2-.34 2.74 2.74 0 0 1-.98-.73 4.91 4.91 0 0 0-.73-.72 1.08 1.08 0 0 0-.26-.11 4.84 4.84 0 0 0-.57.08 6.71 6.71 0 0 0-.88.3 4.67 4.67 0 0 1-1.71.38 3.15 3.15 0 0 1-1.77-.64 5 5 0 0 1-.89-1 4.63 4.63 0 0 1-.54-1.21 3.9 3.9 0 0 1-.07-1.49 5.3 5.3 0 0 1 .48-1.39l.09-.19-.06-.06a3.52 3.52 0 0 0-.66-.08c-.46 0-3.47.27-7 .72a106.78 106.78 0 0 1-14.28.47 48.79 48.79 0 0 0-6.38.1 43.69 43.69 0 0 0 3 4.78c2.19 3.11 4.68 6.44 5.43 7.27a30.14 30.14 0 0 0 2.68 2.57 8.37 8.37 0 0 0 2.47 1.27 9.61 9.61 0 0 0 2.93.14 17.63 17.63 0 0 1 3.93 0 13.44 13.44 0 0 1 3.52 1 14.14 14.14 0 0 0 2.55.89 13.53 13.53 0 0 0 2.65.25h.3a19.7 19.7 0 0 1 3.09.26 21.43 21.43 0 0 1 3.34 1 25.53 25.53 0 0 0 3.07.92 36 36 0 0 0 3.61.55 15.71 15.71 0 0 0 3.55-.17 16.4 16.4 0 0 0 3.46-1.2c1.09-.55 2.85-1.32 3.91-1.73s2.84-1 3.91-1.28 2.57-.8 3.49-1.17 4.11-2 7-3.51a43.79 43.79 0 0 0 6.34-3.95 12.69 12.69 0 0 0 2-2.69 31.06 31.06 0 0 0 1.4-3.34 73.18 73.18 0 0 0 1.39-7.52 62.65 62.65 0 0 0 .8-7.85 29.72 29.72 0 0 0-.52-4c-.26-1.22-.57-3.18-.69-4.38s-.22-3.12-.21-4.29-.23-4.72-.52-8c-.31-3.47-.52-7.12-.47-8.31a25.17 25.17 0 0 1 .63-4.37 29 29 0 0 1 1.56-4.33 21.92 21.92 0 0 0 1.29-3.75A18.56 18.56 0 0 0 97 99c0-1.06-.19-2.84-.35-3.88s-.53-2.83-.81-3.89a25.48 25.48 0 0 1-.71-4.37 24.76 24.76 0 0 1 .23-4.38c.17-1.07.35-2.83.4-3.92v-1.27c0-1 0-2-.07-2.72a4.9 4.9 0 0 0-.66-2.12 19.82 19.82 0 0 0-5.4-.61 67.72 67.72 0 0 0-6.83.26 24.15 24.15 0 0 0-3.27.83 21.63 21.63 0 0 1-3.77.89 18.31 18.31 0 0 1-3.69 0l-.78-.08c0 .2.07.41.09.58a7.31 7.31 0 0 1 0 1.74 8.12 8.12 0 0 1-.47 1.69c-.12.29-.29.77-.39 1.1a12.24 12.24 0 0 0-.28 1.26 1.93 1.93 0 0 1-1.12 1.5 2 2 0 0 1-1.91-.19 11.91 11.91 0 0 1-2.11-2.25c-.43-.58-1.1-1.4-1.72-2.1l-.55-.61c-.66-.7-1.83-1.82-2.56-2.44a23.59 23.59 0 0 0-2.78-2 23.56 23.56 0 0 0-3.09-1.45 18.51 18.51 0 0 0-3.23-.8 18.66 18.66 0 0 0-3.34-.07c-.82.07-5 1-9.61 2.23-4.46 1.18-9.92 2.45-12.18 2.84a13.7 13.7 0 0 0-4.58 1.48 6 6 0 0 0-1.33 2.44 18.79 18.79 0 0 1-1.61 4.07A15.78 15.78 0 0 1 15.94 86z"/><path d="M66.58 76.95c-.67-.32-1.37-.63-1.9-.82h-.12c.62.71 1.33 1.58 1.79 2.19a10.57 10.57 0 0 0 1.73 1.89.43.43 0 0 0 .72-.29c.06-.38.2-1 .3-1.37v-.09l-.87-.57-.23-.2c-.38-.23-.89-.49-1.42-.74zM107 85.55c.05-1.13 0-3 0-4.15a5.81 5.81 0 0 0-1.12-3.11c-.54-.56-3.4-1-6.37-1h-2.2v1.33c-.05 1.13-.24 3-.42 4.09a23.13 23.13 0 0 0-.21 4.06 24 24 0 0 0 .66 4.06c.3 1.12.68 2.94.85 4.06s.33 2.94.36 4.06a20.07 20.07 0 0 1-.39 4.06 23.43 23.43 0 0 1-1.4 4.06 27.38 27.38 0 0 0-1.47 4.06 23.49 23.49 0 0 0-.59 4.06c0 1.12.17 4.77.47 8.12s.53 7 .52 8.12.08 3 .2 4.11.42 3 .67 4.22a31.35 31.35 0 0 1 .55 4.27 64 64 0 0 1-.81 8.14 72.84 72.84 0 0 1-1.53 7.83 32.45 32.45 0 0 1-1.48 3.54 14.1 14.1 0 0 1-2.29 3.07 43.52 43.52 0 0 1-6.69 4.2c-2.93 1.57-6.12 3.18-7.1 3.57a38.45 38.45 0 0 1-3.66 1.23c-1 .28-2.73.83-3.76 1.23s-2.74 1.15-3.77 1.67a18.07 18.07 0 0 1-3.84 1.33 16.91 16.91 0 0 1-4 .19 37.28 37.28 0 0 1-3.79-.58 27 27 0 0 1-3.3-1 19.86 19.86 0 0 0-3.06-.87 18.14 18.14 0 0 0-3.07-.23 15.11 15.11 0 0 1-3-.28 15.51 15.51 0 0 1-2.88-1 11.92 11.92 0 0 0-3.05-.9 16.17 16.17 0 0 0-3.53 0 9.93 9.93 0 0 1-1.6.06l.77 1c.5.64.9 1.15 1.14 1.41a31.14 31.14 0 0 0 2.85 2.73 9.77 9.77 0 0 0 3 1.56 10.81 10.81 0 0 0 3.52.18 16.17 16.17 0 0 1 3.53 0 11.92 11.92 0 0 1 3.05.9 15.51 15.51 0 0 0 2.88 1 15.11 15.11 0 0 0 3 .28 18.14 18.14 0 0 1 3.07.23 19.86 19.86 0 0 1 3.06.87 27 27 0 0 0 3.3 1 37.28 37.28 0 0 0 3.79.58 16.91 16.91 0 0 0 4-.19 18.07 18.07 0 0 0 3.84-1.33c1-.52 2.74-1.27 3.77-1.67s2.73-1 3.76-1.23a38.45 38.45 0 0 0 3.77-1.22c1-.4 4.18-2 7.1-3.57a43.52 43.52 0 0 0 6.69-4.2 14.1 14.1 0 0 0 2.24-3.08 32.45 32.45 0 0 0 1.48-3.54 72.84 72.84 0 0 0 1.51-7.81 64 64 0 0 0 .81-8.14 31.35 31.35 0 0 0-.55-4.27c-.25-1.17-.55-3.07-.67-4.22s-.21-3-.2-4.11-.23-4.77-.52-8.12-.51-7-.47-8.12a23.49 23.49 0 0 1 .59-4.06 27.38 27.38 0 0 1 1.47-4.06 23.43 23.43 0 0 0 1.4-4.06 20.07 20.07 0 0 0 .39-4.06c0-1.12-.2-2.94-.36-4.06s-.55-2.94-.85-4.06a24 24 0 0 1-.66-4.06 23.13 23.13 0 0 1 .21-4.06c.15-1.14.33-2.98.39-4.12z"/><path d="M53.7 162.07a2.66 2.66 0 0 0 .4-.11 5.09 5.09 0 0 0-.88-.11h-.59a1.84 1.84 0 0 0 1.07.22zM65.86 139.21a8.14 8.14 0 0 0-.72 1.23 8.24 8.24 0 0 1-2.14 2.48 21 21 0 0 1-6 1.13 33.08 33.08 0 0 0-6.56 1.07 22.7 22.7 0 0 0-3.59 1.93 9.23 9.23 0 0 1-3.71 1.39 8.2 8.2 0 0 1-3.71-.84 40 40 0 0 0-3.7-1.67 34 34 0 0 0-3.73-1.09 23.77 23.77 0 0 1-3-.94l-.45-.18-.16-.08.14.11c.65.53 1.46 1.17 2.32 1.83l1.72 1.31a45.61 45.61 0 0 0 5.71 3.78 23 23 0 0 0 3.45 1.12 34 34 0 0 1 3.68 1.11 40 40 0 0 1 3.7 1.67 8.2 8.2 0 0 0 3.71.84 9.23 9.23 0 0 0 3.71-1.41 22.7 22.7 0 0 1 3.59-1.93 17.6 17.6 0 0 1 3-.65l1.06-.15c.24-1 .64-2.46 1-3.67.47-1.54.94-3 1-3.22a2 2 0 0 0 .12-.83 2.33 2.33 0 0 0-.32-.83 5.15 5.15 0 0 1-.43-.83 3.91 3.91 0 0 1-.2-.83 3.2 3.2 0 0 1 .07-.88 5.38 5.38 0 0 1 .44-.97z"/></svg>