<svg xmlns="http://www.w3.org/2000/svg" width="113" height="200" viewBox="0 0 113 200"><title>_</title><path d="M10.25 148a4.14 4.14 0 0 0 1.39.19h1.41c.85 0 1.73 0 2.36.07s1.4.15 2.71.35c1.55.23 3.49.54 5.31.86a69.62 69.62 0 0 0 7.65 1 23.44 23.44 0 0 0 3.57-.37 3.87 3.87 0 0 0 1.95-1.19 34.56 34.56 0 0 0 1.11-8.21c.2-4.06.32-8.64.24-10s-.31-3.6-.53-5-.59-6.82-.8-11.92c-.15-3.76-.28-9.85 0-11.18a17.73 17.73 0 0 1 1.14-3.38 11.65 11.65 0 0 1 2-2.82 23.3 23.3 0 0 1 5.69-3c1.56-.62 4.86-1.75 6.24-1.65A11.41 11.41 0 0 1 56 93.73a39.44 39.44 0 0 1 3.2 2.35 18.43 18.43 0 0 1 1.64 1.74c.33.4.79 1 1.2 1.65l.28.44c.4.64 1.29 2.34 2 3.88a13.48 13.48 0 0 1 1.36 5.44 24.51 24.51 0 0 1-1 5.09 31.44 31.44 0 0 0-1 5 29.6 29.6 0 0 0 0 5 52.84 52.84 0 0 1 .28 5.52 53.12 53.12 0 0 1-.42 5.52c-.19 1.41-.42 5.16-.49 8.2a16.56 16.56 0 0 0 .61 5.66 3.4 3.4 0 0 0 2-.08 25.91 25.91 0 0 1 4.84-1.08 7.34 7.34 0 0 1 .84 0 52.37 52.37 0 0 1 7.78 1.07 53.74 53.74 0 0 0 7.5 1.11 13.24 13.24 0 0 0 3.15-.64 11.17 11.17 0 0 0 2.43-1.3 5.24 5.24 0 0 0 1.19-1.48 11.73 11.73 0 0 0 .64-2.14 38.77 38.77 0 0 0-.11-5.49c-.18-2.59-.48-5.15-.63-5.83s-.54-2.1-.8-2.88a16.9 16.9 0 0 1-.68-3.38 16 16 0 0 1 .18-3.4 30.73 30.73 0 0 1 .8-3.21c.28-.87.83-2.3 1.24-3.19a14.83 14.83 0 0 0 .88-2.69 32.13 32.13 0 0 0-.15-5.62c-.24-2.54-.43-5.41-.42-6.4s.11-2.7.23-3.8a10.64 10.64 0 0 0-.23-3.18 11.91 11.91 0 0 0-1.45-3c-.68-1-1.63-2.47-2.12-3.35a28.37 28.37 0 0 1-1.47-3.14 19 19 0 0 0-1.15-2.43 18.71 18.71 0 0 0-1.53-2.17 17.65 17.65 0 0 1-1.87-2.81 23 23 0 0 1-1.28-3.18l-.06-.18A8.48 8.48 0 0 0 82.32 73a7 7 0 0 0-1.91-1.48 31 31 0 0 0-2.9-1.17c-.83-.28-2.34-.69-3.28-.9a12.82 12.82 0 0 0-3.16-.2 14.29 14.29 0 0 0-3.21.79 14.47 14.47 0 0 1-4.21.89 15.33 15.33 0 0 1-4.33-.64 7.93 7.93 0 0 0-2.92-.3 6.12 6.12 0 0 0-2.35 1.11 24.21 24.21 0 0 1-3.18 2.18l-.31.16a23.8 23.8 0 0 1-3.21 1.35A8.54 8.54 0 0 0 45 76.08 6.86 6.86 0 0 0 43.58 78a3.11 3.11 0 0 1-2 1.91 1.78 1.78 0 0 1-1.58-.44c-.8-.76-1.21-2.9-1.34-3.78a41.2 41.2 0 0 1-.4-5.14 43.63 43.63 0 0 1 .37-5.22c.2-1.35.39-3.54.43-4.87s-.19-5.87-.51-9.95a58.98 58.98 0 0 0-.38-3.46 20 20 0 0 0-1-4.75A4.08 4.08 0 0 0 35 41.23a18.48 18.48 0 0 0-3.67 0 20.2 20.2 0 0 0-3.68.85 14.25 14.25 0 0 1-4.56.72 15 15 0 0 1-4.54-1.06 17.87 17.87 0 0 0-3.7-1.05 17.77 17.77 0 0 0-3.82 0 4.84 4.84 0 0 0-2.03.73 18.42 18.42 0 0 0 .23 5.36c.33 2.28.77 6.22.55 7.67a15.42 15.42 0 0 1-1.37 3.92 14.56 14.56 0 0 0-1.14 3.07 32.21 32.21 0 0 0 .29 6.44c.34 2.77.81 5.87 1 6.76s.67 2.43 1 3.33a15.06 15.06 0 0 1 .71 3.93 14.74 14.74 0 0 1-.58 3.94c-.28.9-.66 2.41-.83 3.3s-.37 2.39-.44 3.29-.08 3.22 0 5 .48 6.46 1 10.24c.37 2.88.83 7.69.56 9.13a21.93 21.93 0 0 1-1.14 3.77 14.5 14.5 0 0 0-.84 3.1 12.72 12.72 0 0 0 .09 3 19.54 19.54 0 0 1 .24 3.81 20.14 20.14 0 0 1-.65 3.8 8.74 8.74 0 0 0-.22 2.85 10.56 10.56 0 0 0 1 2.94 17.6 17.6 0 0 1 1.5 3.68 10.91 10.91 0 0 1 .21 3.54 1.56 1.56 0 0 0 .08.71z"/><path d="M40.13 65.55a41.73 41.73 0 0 0-.36 5 39.61 39.61 0 0 0 .38 4.91 7.68 7.68 0 0 0 .85 2.92c.28.27.81-.17 1.16-1A8.27 8.27 0 0 1 44 74.94a9.92 9.92 0 0 1 2.87-1.54 22.34 22.34 0 0 0 3-1.26c0-.37.1-.79.14-1.23.12-1.19.22-2.53.25-3.46 0-1.39-.19-5.94-.52-10.11s-1.1-8.22-1.7-9a5.46 5.46 0 0 0-3.13-1.66 20.32 20.32 0 0 0-4 0h-.24c-.3 0-.63.1-1 .17.16 1.12.29 2.33.39 3.55.33 4.17.56 8.72.52 10.11s-.25 3.65-.45 5.04zM18.95 156.11a4.19 4.19 0 0 0 2.48.56 34.18 34.18 0 0 1 3.58 0c1 .07 4.56.61 7.87 1.19a69.07 69.07 0 0 0 7.95 1 24.82 24.82 0 0 0 3.83-.39 5.29 5.29 0 0 0 2.88-1.8c.55-.79 1.17-4.84 1.38-9s.32-8.73.24-10.14-.32-3.73-.55-5.14-.58-6.7-.79-11.75a93.47 93.47 0 0 1 0-10.81 16.22 16.22 0 0 1 1-3 10.19 10.19 0 0 1 1.67-2.4 23.27 23.27 0 0 1 5.19-2.64 32.68 32.68 0 0 1 4-1.31 10.13 10.13 0 0 1 1.07-.21c-.35-.53-.8-1.15-1.11-1.54a17.12 17.12 0 0 0-1.48-1.57c-.42-.38-1.79-1.38-3-2.22a10.23 10.23 0 0 0-3.63-1.64A20.42 20.42 0 0 0 46 94.88a23.27 23.27 0 0 0-5.19 2.64 10.19 10.19 0 0 0-1.67 2.4 16.22 16.22 0 0 0-1 3 93.47 93.47 0 0 0 0 10.81c.21 5 .56 10.33.79 11.75s.47 3.73.55 5.14 0 6-.24 10.14-.83 8.22-1.38 9a5.29 5.29 0 0 1-2.88 1.8 24.82 24.82 0 0 1-3.83.39 69.07 69.07 0 0 1-7.95-1c-1.84-.32-3.75-.63-5.27-.86a9.84 9.84 0 0 1 .3 1v.09a9.44 9.44 0 0 1 .16 2.89 2.56 2.56 0 0 0 .56 2.04zM105.6 102.22a13.3 13.3 0 0 0-1.67-3.48c-.65-.92-1.57-2.37-2-3.22a26.51 26.51 0 0 1-1.37-2.94 20.68 20.68 0 0 0-1.26-2.66 20.19 20.19 0 0 0-1.69-2.38 16.19 16.19 0 0 1-1.7-2.54 21.5 21.5 0 0 1-1.23-3.1A9.91 9.91 0 0 0 93.2 79a8.41 8.41 0 0 0-2.42-1.89 32.41 32.41 0 0 0-3.07-1.24c-.41-.14-1-.3-1.53-.46L85 75.14a21.62 21.62 0 0 0 1.18 2.93 16.19 16.19 0 0 0 1.68 2.53 20.19 20.19 0 0 1 1.7 2.4 20.68 20.68 0 0 1 1.26 2.66 26.51 26.51 0 0 0 1.37 2.94c.47.85 1.38 2.29 2 3.22a13.3 13.3 0 0 1 1.67 3.48 12.1 12.1 0 0 1 .31 3.7c-.12 1.06-.22 2.7-.22 3.65s.18 3.76.42 6.25a32.31 32.31 0 0 1 .13 6 16.34 16.34 0 0 1-1 3c-.38.83-.91 2.19-1.17 3a29 29 0 0 0-.75 3 14.52 14.52 0 0 0-.16 3 15.32 15.32 0 0 0 .61 3c.27.83.65 2.19.84 3s.49 3.55.67 6a38.36 38.36 0 0 1 .09 5.87 13.17 13.17 0 0 1-.75 2.48 6.55 6.55 0 0 1-1.63 2 12.32 12.32 0 0 1-2.85 1.53 14.61 14.61 0 0 1-3.6.73 50.78 50.78 0 0 1-7.87-1.14 50.9 50.9 0 0 0-7.52-1v1c-.06 3.11.41 6.12 1.05 6.7a4.05 4.05 0 0 0 3.52.27 24.28 24.28 0 0 1 4.5-1 41.28 41.28 0 0 1 8.18 1 50.78 50.78 0 0 0 7.87 1.14 14.61 14.61 0 0 0 3.6-.73 12.32 12.32 0 0 0 2.85-1.53 6.55 6.55 0 0 0 1.63-2 13.17 13.17 0 0 0 .75-2.48 38.36 38.36 0 0 0-.09-5.87c-.18-2.49-.48-5.21-.67-6s-.56-2.19-.84-3a15.32 15.32 0 0 1-.61-3 14.52 14.52 0 0 1 .16-3 29 29 0 0 1 .75-3c.26-.83.79-2.19 1.17-3a16.34 16.34 0 0 0 1-3 32.31 32.31 0 0 0-.13-6c-.24-2.49-.42-5.31-.42-6.25s.11-2.59.22-3.65a12.1 12.1 0 0 0-.3-3.75z"/></svg>