<svg xmlns="http://www.w3.org/2000/svg" width="200" height="200" viewBox="0 0 200 200"><title>_</title><path d="M116.9 109.33c.39.62 1.27 2.3 2 3.83a13.13 13.13 0 0 1 1.31 5.21 23.88 23.88 0 0 1-.94 5 32.11 32.11 0 0 0-1 5.14 30.22 30.22 0 0 0 0 5.12 43.32 43.32 0 0 1-.13 10.92c-.2 1.42-.42 5.2-.49 8.26-.08 3.28.44 5.63.75 6a3.35 3.35 0 0 0 2.5 0 25.26 25.26 0 0 1 4.73-1.06 6.2 6.2 0 0 1 .78 0 51.79 51.79 0 0 1 7.7 1.06 51 51 0 0 0 7.62 1.12 13.58 13.58 0 0 0 3.3-.67 11.53 11.53 0 0 0 2.57-1.37 5.66 5.66 0 0 0 1.34-1.67 12.15 12.15 0 0 0 .68-2.26 38.61 38.61 0 0 0-.1-5.62c-.19-2.66-.49-5.2-.64-5.9s-.55-2.13-.81-2.93a16.26 16.26 0 0 1-.65-3.26 15.41 15.41 0 0 1 .17-3.27 30.09 30.09 0 0 1 .79-3.15c.27-.86.82-2.27 1.21-3.13a15.2 15.2 0 0 0 .92-2.8 32.22 32.22 0 0 0-.15-5.76c-.24-2.53-.43-5.38-.42-6.35s.11-2.66.23-3.75a11.09 11.09 0 0 0-.25-3.36 12.29 12.29 0 0 0-1.52-3.16c-.67-1-1.61-2.44-2.09-3.31a27.64 27.64 0 0 1-1.43-3.07 19.69 19.69 0 0 0-1.18-2.5 19.24 19.24 0 0 0-1.58-2.24 17.09 17.09 0 0 1-1.81-2.72 22.43 22.43 0 0 1-1.24-3.09l-.07-.18a9 9 0 0 0-1.29-2.54 7.46 7.46 0 0 0-2.08-1.62 31.65 31.65 0 0 0-3-1.19c-.85-.29-2.38-.7-3.33-.91a13.25 13.25 0 0 0-3.32-.21 14.62 14.62 0 0 0-3.35.82 13.89 13.89 0 0 1-4 .85 15.2 15.2 0 0 1-4.16-.62 8.4 8.4 0 0 0-3.15-.31 6.62 6.62 0 0 0-2.59 1.22 23.54 23.54 0 0 1-3.1 2.13l-.29.16a23.35 23.35 0 0 1-3.13 1.32 9 9 0 0 0-2.53 1.35A7.36 7.36 0 0 0 98.12 87a2.64 2.64 0 0 1-1.62 1.62 1.28 1.28 0 0 1-1.14-.33c-.73-.69-1.12-3-1.19-3.5a40.63 40.63 0 0 1-.39-5.06 43 43 0 0 1 .37-5.15c.2-1.36.39-3.58.43-4.93s-.19-5.91-.51-10c-.09-1.16-.22-2.33-.38-3.49a18.6 18.6 0 0 0-1.12-5 4.52 4.52 0 0 0-2.47-1.29 19.25 19.25 0 0 0-3.79 0 20.85 20.85 0 0 0-3.79.88 13.66 13.66 0 0 1-4.37.69 14.42 14.42 0 0 1-4.36-1 18.47 18.47 0 0 0-3.82-1.09 18.13 18.13 0 0 0-4 0 4.86 4.86 0 0 0-2.46 1 16.16 16.16 0 0 0 .18 5.65 35 35 0 0 1 .58 7.51A14.82 14.82 0 0 1 63 67.29a14.92 14.92 0 0 0-1.19 3.2 32.25 32.25 0 0 0 .29 6.6c.34 2.78.82 5.91 1 6.82s.67 2.46 1 3.37a14.43 14.43 0 0 1 .69 3.78 14.16 14.16 0 0 1-.55 3.78c-.28.91-.67 2.45-.84 3.35s-.38 2.44-.45 3.35-.08 3.25 0 5.1.48 6.5 1 10.3c.44 3.44.79 7.75.57 9a21.49 21.49 0 0 1-1.11 3.66 14.79 14.79 0 0 0-.86 3.2 13.1 13.1 0 0 0 .09 3.17 19 19 0 0 1 .23 3.7 19.59 19.59 0 0 1-.63 3.69 9.18 9.18 0 0 0-.23 3.06 11 11 0 0 0 .99 3.08 17 17 0 0 1 1.46 3.5 10.49 10.49 0 0 1 .2 3.36 1.77 1.77 0 0 0 .23 1.17 3.82 3.82 0 0 0 1.77.31h1.38c.81 0 1.68 0 2.33.07s1.79.21 2.68.34c1.56.23 3.49.54 5.29.86a69.41 69.41 0 0 0 7.74 1 24 24 0 0 0 3.64-.37 4.34 4.34 0 0 0 2.26-1.4c.35-.56 1-4.07 1.2-8.48.21-4.08.32-8.67.24-10s-.32-3.65-.54-5-.59-6.77-.8-11.87a91.9 91.9 0 0 1 0-11.05 17.09 17.09 0 0 1 1.1-3.27 11.2 11.2 0 0 1 1.9-2.67 23.16 23.16 0 0 1 5.52-2.85c1.78-.7 4.83-1.71 6-1.62a11.08 11.08 0 0 1 4.11 1.81c1.14.77 2.63 1.85 3.14 2.31a17.88 17.88 0 0 1 1.59 1.68c.32.39.78 1 1.17 1.61z" fill="#231f20"/><path d="M95 59.55c.33 4.17.56 8.72.52 10.11s-.24 3.66-.44 5a41.73 41.73 0 0 0-.36 5 39.61 39.61 0 0 0 .38 4.91 7.68 7.68 0 0 0 .9 2.97c.28.27.81-.17 1.16-1A8.27 8.27 0 0 1 99 84.1a9.92 9.92 0 0 1 2.87-1.54 22.34 22.34 0 0 0 3-1.26c0-.37.1-.79.14-1.23.12-1.19.22-2.53.25-3.46 0-1.39-.19-5.94-.52-10.11s-1.1-8.22-1.7-9a5.46 5.46 0 0 0-3.13-1.66 20.32 20.32 0 0 0-4 0h-.24c-.3 0-.63.1-1 .17.15 1.11.33 2.32.33 3.54zM114.68 107.92a17.12 17.12 0 0 0-1.48-1.57c-.42-.38-1.79-1.38-3-2.22a10.23 10.23 0 0 0-3.63-1.64A20.42 20.42 0 0 0 101 104a23.27 23.27 0 0 0-5.19 2.64 10.19 10.19 0 0 0-1.67 2.4 16.22 16.22 0 0 0-1 3 93.47 93.47 0 0 0 0 10.81c.21 5 .56 10.33.79 11.75s.47 3.73.55 5.14 0 6-.24 10.14-.83 8.22-1.38 9a5.29 5.29 0 0 1-2.88 1.8 24.82 24.82 0 0 1-3.83.39 69.07 69.07 0 0 1-7.95-1c-1.84-.32-3.75-.63-5.27-.86a9.84 9.84 0 0 1 .3 1v.09a9.44 9.44 0 0 1 .16 2.89 2.56 2.56 0 0 0 .56 2.06 4.19 4.19 0 0 0 2.48.56 34.18 34.18 0 0 1 3.58 0c1 .07 4.56.61 7.87 1.19a69.07 69.07 0 0 0 7.95 1 24.82 24.82 0 0 0 3.83-.39 5.29 5.29 0 0 0 2.88-1.8c.55-.79 1.17-4.84 1.38-9s.32-8.73.24-10.14-.32-3.73-.55-5.14-.58-6.7-.79-11.75a93.47 93.47 0 0 1 0-10.81 16.22 16.22 0 0 1 1-3 10.19 10.19 0 0 1 1.67-2.4 23.27 23.27 0 0 1 5.19-2.64 32.68 32.68 0 0 1 4-1.31 10.13 10.13 0 0 1 1.07-.21c-.32-.49-.75-1.11-1.07-1.49zM159 137.09c.26-.83.79-2.19 1.17-3a16.34 16.34 0 0 0 1-3 32.31 32.31 0 0 0-.13-6c-.24-2.49-.42-5.31-.42-6.25s.11-2.59.22-3.65a12.1 12.1 0 0 0-.27-3.73 13.3 13.3 0 0 0-1.67-3.48c-.65-.92-1.57-2.37-2-3.22a26.51 26.51 0 0 1-1.37-2.94 20.68 20.68 0 0 0-1.26-2.66 20.19 20.19 0 0 0-1.69-2.38 16.19 16.19 0 0 1-1.68-2.53 21.5 21.5 0 0 1-1.23-3.1 9.91 9.91 0 0 0-1.48-2.89 8.41 8.41 0 0 0-2.42-1.89 32.41 32.41 0 0 0-3.07-1.24c-.41-.14-1-.3-1.53-.46L140 84.3a21.62 21.62 0 0 0 1.18 2.93 16.19 16.19 0 0 0 1.68 2.53 20.19 20.19 0 0 1 1.69 2.38 20.68 20.68 0 0 1 1.26 2.66 26.51 26.51 0 0 0 1.37 2.94c.47.85 1.38 2.29 2 3.22a13.3 13.3 0 0 1 1.67 3.48 12.1 12.1 0 0 1 .27 3.73c-.12 1.06-.22 2.7-.22 3.65s.18 3.76.42 6.25a32.31 32.31 0 0 1 .13 6 16.34 16.34 0 0 1-1 3c-.38.83-.91 2.19-1.17 3a29 29 0 0 0-.75 3 14.52 14.52 0 0 0-.16 3 15.32 15.32 0 0 0 .61 3c.27.83.65 2.19.84 3s.49 3.55.67 6a38.36 38.36 0 0 1 .09 5.87 13.17 13.17 0 0 1-.75 2.48 6.55 6.55 0 0 1-1.63 2 12.32 12.32 0 0 1-2.85 1.53 14.61 14.61 0 0 1-3.6.73 50.78 50.78 0 0 1-7.87-1.14 50.9 50.9 0 0 0-7.52-1v1c-.06 3.11.41 6.12 1.05 6.7a4.05 4.05 0 0 0 3.52.27 24.28 24.28 0 0 1 4.5-1 41.28 41.28 0 0 1 8.18 1 50.78 50.78 0 0 0 7.87 1.14 14.61 14.61 0 0 0 3.6-.73 12.32 12.32 0 0 0 2.85-1.53 6.55 6.55 0 0 0 1.63-2 13.17 13.17 0 0 0 .75-2.48 38.36 38.36 0 0 0-.09-5.87c-.18-2.49-.48-5.21-.67-6s-.56-2.19-.84-3a15.32 15.32 0 0 1-.61-3 14.52 14.52 0 0 1 .16-3 29 29 0 0 1 .74-2.95z" fill="#231f20"/></svg>