<svg xmlns="http://www.w3.org/2000/svg" width="200" height="200" viewBox="0 0 200 200"><title>_</title><path d="M120,48.48a12.12,12.12,0,0,0-2.68-1.55,9,9,0,0,0-3.3-.53,11.33,11.33,0,0,0-3.54,1.06,12.8,12.8,0,0,1-4.41,1.24,12,12,0,0,1-4.44-.8,29.5,29.5,0,0,0-4-1.25,32.9,32.9,0,0,0-4.32-.59,5.93,5.93,0,0,0-3,.58,3.63,3.63,0,0,0-1.09,2.11,14,14,0,0,0,0,3.28,10,10,0,0,0,.95,2.68,9.32,9.32,0,0,1,1.05,3.17,8.72,8.72,0,0,1-.43,3.26,13.17,13.17,0,0,0-.6,2.63,12.92,12.92,0,0,0,.09,2.68,2.09,2.09,0,0,0,.82,1.29,5.57,5.57,0,0,0,2.56.1A19.5,19.5,0,0,1,97,67.59c0.41,0,.79,0,1.12,0s0.88,0.1,1.44.21a20.05,20.05,0,0,1,2.84.74,18.34,18.34,0,0,0,3.75.84,17,17,0,0,0,3.74-.18,29.19,29.19,0,0,1,4.32-.39,39.13,39.13,0,0,1,4.57.36A5.6,5.6,0,0,0,121.6,69a2.76,2.76,0,0,0,.91-1.78,12.13,12.13,0,0,0-.17-3.12,10.75,10.75,0,0,0-1.13-2.73A8.31,8.31,0,0,1,120,58a7.56,7.56,0,0,1,.69-3.36,9.34,9.34,0,0,0,.71-2.26l0-.12a5.93,5.93,0,0,0-.21-2.08A5.08,5.08,0,0,0,120,48.48Z" fill="#231f20"/><path d="M121,80.46a6.93,6.93,0,0,0-2.87-1.23,18.23,18.23,0,0,0-4-.16,17.78,17.78,0,0,0-3.81.92,17.29,17.29,0,0,1-4.3,1,16.35,16.35,0,0,1-4.32-.4A27.17,27.17,0,0,0,97.94,80c-0.38,0-.86,0-1.36,0-0.88,0-1.85,0-2.53.11a4.42,4.42,0,0,0-2.24.86,2.77,2.77,0,0,0-.27,1.85,14.61,14.61,0,0,1,.19,3.74,15.26,15.26,0,0,1-1,3.67,13.29,13.29,0,0,0-.8,3.08,12,12,0,0,0,.17,3,18.33,18.33,0,0,1,.34,3.59,18.63,18.63,0,0,1-.51,3.59,30.18,30.18,0,0,0-.62,3.23,28.92,28.92,0,0,0-.17,3.23,15.56,15.56,0,0,0,.45,3.12,19,19,0,0,0,1.26,3.16A11,11,0,0,1,92,120a10.21,10.21,0,0,1-.65,3.8,11.34,11.34,0,0,0-.69,3,10.72,10.72,0,0,0,.39,3,11.76,11.76,0,0,1,.43,3.74,12.73,12.73,0,0,1-1,3.71,7.2,7.2,0,0,0-.58,2.87,8.09,8.09,0,0,0,1,2.92,9.83,9.83,0,0,1,1.25,3.82,9.12,9.12,0,0,1-.81,3.86,19,19,0,0,0-1.16,3.35,22.85,22.85,0,0,0-.44,3.77,4,4,0,0,0,.82,2.44c0.42,0.22,3.3.66,8.15,0.76q1.14,0,2.34,0h1a115.78,115.78,0,0,0,11.63-.45,21.39,21.39,0,0,0,3.34-1.12,13,13,0,0,0,2.62-1.64,8.74,8.74,0,0,0,1.63-2,6.49,6.49,0,0,0,.59-2.35,9.62,9.62,0,0,0-.54-2.81,13.37,13.37,0,0,1-.73-3.69,13.07,13.07,0,0,1,.55-3.69c0.29-.88.69-2.38,0.88-3.26s0.43-2.37.52-3.26a23.35,23.35,0,0,0,.06-3.2,24,24,0,0,0-.48-3.2,15.92,15.92,0,0,1,0-7.17,23.34,23.34,0,0,0,.43-3.19,61.76,61.76,0,0,0-.52-6.56c-0.34-2.87-.6-5.88-0.58-6.87a31.61,31.61,0,0,1,.31-3.49,12.87,12.87,0,0,0,0-3.07,14.59,14.59,0,0,0-.89-3.1,10.06,10.06,0,0,1-.73-3.81,10.63,10.63,0,0,1,1.08-3.78,12.75,12.75,0,0,0,1.08-3.15,8.92,8.92,0,0,0,.1-1.1,12.4,12.4,0,0,0-.1-2.2A5,5,0,0,0,121,80.46Z" fill="#231f20"/><path d="M118.71,77.3c0.38,0,.74-0.08,1-0.14a28.18,28.18,0,0,1,4.14-.37,34.08,34.08,0,0,1,4.42.35,6.37,6.37,0,0,0,3.5-.37,3.66,3.66,0,0,0,1.4-2.54,13.17,13.17,0,0,0-.19-3.43,11.62,11.62,0,0,0-1.26-3,7.43,7.43,0,0,1-1-2.85,6.65,6.65,0,0,1,.59-2.85,10.1,10.1,0,0,0,.84-2.73,6.89,6.89,0,0,0-.26-2.5,6,6,0,0,0-1.53-2.16,12.88,12.88,0,0,0-3-1.72,9.93,9.93,0,0,0-3.75-.61l-0.21,0a8.82,8.82,0,0,0-1,.19h0a10.33,10.33,0,0,1-.8,2.55A6.65,6.65,0,0,0,121,58a7.43,7.43,0,0,0,1,2.85,11.62,11.62,0,0,1,1.26,3,13.17,13.17,0,0,1,.19,3.43,3.66,3.66,0,0,1-1.4,2.54,6.37,6.37,0,0,1-3.5.37,34.08,34.08,0,0,0-4.42-.35,28.18,28.18,0,0,0-4.14.37,18,18,0,0,1-4,.19,19.33,19.33,0,0,1-4-.89,19.15,19.15,0,0,0-2.69-.69c-0.08.32-.16,0.66-0.22,1s-0.1.59-.12,0.83a14,14,0,0,0,.1,2.93,3,3,0,0,0,1.37,2,6.33,6.33,0,0,0,3.18.18,18.52,18.52,0,0,1,4.06-.2,19.24,19.24,0,0,1,4,.89,18.51,18.51,0,0,0,2.3.62,15.43,15.43,0,0,0,1.71.27A18,18,0,0,0,118.71,77.3Z" fill="#231f20"/><path d="M132.69,147.14c0.2-.92.44-2.44,0.54-3.36a24.12,24.12,0,0,0,.07-3.36,24.9,24.9,0,0,0-.5-3.36,14.93,14.93,0,0,1,0-6.72,24.25,24.25,0,0,0,.45-3.36,62.4,62.4,0,0,0-.52-6.73c-0.33-2.77-.59-5.8-0.57-6.73a30.44,30.44,0,0,1,.29-3.36,13.9,13.9,0,0,0,0-3.36,15.64,15.64,0,0,0-1-3.36,9.05,9.05,0,0,1-.65-3.36,9.64,9.64,0,0,1,1-3.36A13.73,13.73,0,0,0,133,93.25a13.46,13.46,0,0,0,0-3.62,5.91,5.91,0,0,0-1.52-3,7.89,7.89,0,0,0-3.37-1.48,19.64,19.64,0,0,0-3.7-.2l-0.52,0-0.48.06a10,10,0,0,1-.11,1.23,13.73,13.73,0,0,1-1.18,3.45,9.64,9.64,0,0,0-1,3.36,9.05,9.05,0,0,0,.65,3.36,15.64,15.64,0,0,1,1,3.36,13.9,13.9,0,0,1,0,3.36,30.44,30.44,0,0,0-.29,3.36c0,0.92.24,4,.57,6.73a62.4,62.4,0,0,1,.52,6.73,24.25,24.25,0,0,1-.45,3.36,14.93,14.93,0,0,0,0,6.72,24.9,24.9,0,0,1,.5,3.36,24.12,24.12,0,0,1-.07,3.36c-0.1.92-.34,2.44-0.54,3.36s-0.61,2.44-.91,3.36a12.12,12.12,0,0,0-.51,3.36,12.43,12.43,0,0,0,.67,3.36,10.5,10.5,0,0,1,.6,3.17,7.49,7.49,0,0,1-.7,2.8,9.67,9.67,0,0,1-1.86,2.34,14,14,0,0,1-2.86,1.8,22.28,22.28,0,0,1-3.53,1.19,112.93,112.93,0,0,1-11.84.48h-1c-0.8,0-1.59,0-2.36,0,0,0.32-.09.66-0.12,1-0.07.62-.11,1.24-0.12,1.73A4.83,4.83,0,0,0,99.58,168c0.65,0.6,5.68,1.07,11.18,1h1a112.93,112.93,0,0,0,11.84-.48,22.28,22.28,0,0,0,3.53-1.19,14,14,0,0,0,2.86-1.8,9.67,9.67,0,0,0,1.86-2.34,7.49,7.49,0,0,0,.7-2.8,10.5,10.5,0,0,0-.6-3.17,12.43,12.43,0,0,1-.67-3.36,12.12,12.12,0,0,1,.51-3.36C132.08,149.58,132.49,148.06,132.69,147.14Z" fill="#231f20"/></svg>