<svg xmlns="http://www.w3.org/2000/svg" width="62.79" height="200" viewBox="0 0 62.79 200"><title>_</title><path d="M43.63 43.18v-.14a5.44 5.44 0 0 0-.19-1.83 4.61 4.61 0 0 0-1.09-1.51 11.72 11.72 0 0 0-2.54-1.46 8.52 8.52 0 0 0-3.08-.5 10.9 10.9 0 0 0-3.34 1 13.38 13.38 0 0 1-4.6 1.26 12.28 12.28 0 0 1-4.65-.84A28.86 28.86 0 0 0 20.23 38a32.23 32.23 0 0 0-4.23-.6 5.48 5.48 0 0 0-2.65.49 3.2 3.2 0 0 0-.88 1.77 13.63 13.63 0 0 0 0 3.13 9.5 9.5 0 0 0 .89 2.52 9.75 9.75 0 0 1 1.12 3.37 9.15 9.15 0 0 1-.48 3.48 12.8 12.8 0 0 0-.57 2.51 12.57 12.57 0 0 0 .08 2.55 1.72 1.72 0 0 0 .55.92 5.3 5.3 0 0 0 2.25.05 20 20 0 0 1 3.3-.26h1.16c.34 0 .91.11 1.49.21a20.54 20.54 0 0 1 2.92.76 17.72 17.72 0 0 0 3.63.81 16.36 16.36 0 0 0 3.6-.17 29.87 29.87 0 0 1 4.41-.4 39.7 39.7 0 0 1 4.65.37 5.36 5.36 0 0 0 2.53-.13 2.4 2.4 0 0 0 .69-1.38 11.75 11.75 0 0 0-.16-3 10.29 10.29 0 0 0-1.07-2.57 8.74 8.74 0 0 1-1.23-3.54A8 8 0 0 1 43 45.3a8.9 8.9 0 0 0 .63-2.12zM13.33 145a22.24 22.24 0 0 0-.43 3.67 3.71 3.71 0 0 0 .61 2 39.65 39.65 0 0 0 7.87.68h3.33c6.09 0 10.81-.28 11.52-.44a20.8 20.8 0 0 0 3.24-1.09A12.63 12.63 0 0 0 42 148.3a8.25 8.25 0 0 0 1.51-1.9 6 6 0 0 0 .53-2.13 9.17 9.17 0 0 0-.51-2.63 14 14 0 0 1-.76-3.85 13.66 13.66 0 0 1 .58-3.86c.28-.87.68-2.35.87-3.21s.42-2.34.51-3.2a22.66 22.66 0 0 0 .06-3.11 23.44 23.44 0 0 0-.47-3.12 16.43 16.43 0 0 1-.05-7.39 22.63 22.63 0 0 0 .42-3.11 62.59 62.59 0 0 0-.51-6.47c-.35-2.89-.6-5.93-.58-6.93a32.29 32.29 0 0 1 .31-3.56 12.49 12.49 0 0 0 0-2.92 14.23 14.23 0 0 0-.85-3 10.48 10.48 0 0 1-.77-4 11 11 0 0 1 1.14-4 12.33 12.33 0 0 0 1-3 8.5 8.5 0 0 0 .09-1 11.88 11.88 0 0 0-.1-2.1 4.53 4.53 0 0 0-1.05-2.09 6.43 6.43 0 0 0-2.62-1.11 17.44 17.44 0 0 0-3.82-.15 17.17 17.17 0 0 0-3.68.89 17.85 17.85 0 0 1-4.44 1 17.15 17.15 0 0 1-4.47-.41 26.37 26.37 0 0 0-3.77-.61 27.1 27.1 0 0 0-3.8.07 4.24 4.24 0 0 0-1.92.69 2.52 2.52 0 0 0-.15 1.42 15.22 15.22 0 0 1 .2 3.89 15.82 15.82 0 0 1-1 3.82 12.89 12.89 0 0 0-.77 2.94 11.53 11.53 0 0 0 .19 2.84 19 19 0 0 1 .36 3.71 19.24 19.24 0 0 1-.52 3.71 29.5 29.5 0 0 0-.6 3.17 28.21 28.21 0 0 0-.16 3.16 15.19 15.19 0 0 0 .43 3 18.39 18.39 0 0 0 1.17 3.06 11.36 11.36 0 0 1 1.16 4 10.63 10.63 0 0 1-.68 4 10.92 10.92 0 0 0-.65 2.87 10.3 10.3 0 0 0 .37 2.85 12.16 12.16 0 0 1 .45 3.92 13.11 13.11 0 0 1-1.06 3.88 6.7 6.7 0 0 0-.54 2.63 7.61 7.61 0 0 0 .91 2.69 10.24 10.24 0 0 1 1.32 4 9.54 9.54 0 0 1-.86 4.1 18.4 18.4 0 0 0-1.09 3.25z"/><path d="M54.85 50.16a6.89 6.89 0 0 0-.26-2.5 6 6 0 0 0-1.53-2.16 12.88 12.88 0 0 0-3-1.72 9.93 9.93 0 0 0-3.75-.61h-.21a8.82 8.82 0 0 0-1 .19 10.33 10.33 0 0 1-.8 2.55 6.65 6.65 0 0 0-.59 2.85 7.43 7.43 0 0 0 1 2.85 11.62 11.62 0 0 1 1.26 3 13.17 13.17 0 0 1 .19 3.43 3.66 3.66 0 0 1-1.4 2.54 6.37 6.37 0 0 1-3.5.37 34.08 34.08 0 0 0-4.42-.35 28.18 28.18 0 0 0-4.14.37 18 18 0 0 1-4 .19 19.33 19.33 0 0 1-4-.89 19.15 19.15 0 0 0-2.7-.6c-.08.32-.16.66-.22 1s-.1.59-.12.83a14 14 0 0 0 .1 2.93 3 3 0 0 0 1.37 2 6.33 6.33 0 0 0 3.18.18 18.52 18.52 0 0 1 4.06-.2 19.24 19.24 0 0 1 4 .89 18.51 18.51 0 0 0 2.3.62 15.43 15.43 0 0 0 1.71.27 18 18 0 0 0 3-.05c.38 0 .74-.08 1-.14a28.18 28.18 0 0 1 4.14-.37A34.08 34.08 0 0 1 51 68a6.37 6.37 0 0 0 3.5-.37 3.66 3.66 0 0 0 1.4-2.54 13.17 13.17 0 0 0-.19-3.43 11.62 11.62 0 0 0-1.26-3 7.43 7.43 0 0 1-1-2.85 6.65 6.65 0 0 1 .55-2.92 10.1 10.1 0 0 0 .85-2.73zM55.36 138c.2-.92.44-2.44.54-3.36a24.12 24.12 0 0 0 .07-3.36 24.9 24.9 0 0 0-.5-3.36 14.93 14.93 0 0 1 0-6.72 24.25 24.25 0 0 0 .45-3.36 62.4 62.4 0 0 0-.52-6.73c-.33-2.77-.59-5.8-.57-6.73a30.44 30.44 0 0 1 .29-3.36 13.9 13.9 0 0 0 0-3.36 15.64 15.64 0 0 0-1-3.36 9.05 9.05 0 0 1-.65-3.36 9.64 9.64 0 0 1 1-3.36 13.73 13.73 0 0 0 1.18-3.45 13.46 13.46 0 0 0 0-3.62 5.91 5.91 0 0 0-1.52-3 7.89 7.89 0 0 0-3.4-1.51 19.64 19.64 0 0 0-3.7-.2h-.52l-.51.13a10 10 0 0 1-.11 1.23 13.73 13.73 0 0 1-1.18 3.45 9.64 9.64 0 0 0-1 3.36 9.05 9.05 0 0 0 .65 3.36 15.64 15.64 0 0 1 1 3.36 13.9 13.9 0 0 1 0 3.36 30.44 30.44 0 0 0-.29 3.36c0 .92.24 4 .57 6.73a62.4 62.4 0 0 1 .52 6.73 24.25 24.25 0 0 1-.45 3.36 14.93 14.93 0 0 0 0 6.72 24.9 24.9 0 0 1 .5 3.36 24.12 24.12 0 0 1-.07 3.36c-.1.92-.34 2.44-.54 3.36s-.61 2.44-.91 3.36a12.12 12.12 0 0 0-.51 3.36 12.43 12.43 0 0 0 .67 3.36 10.5 10.5 0 0 1 .6 3.17 7.49 7.49 0 0 1-.7 2.8 9.67 9.67 0 0 1-1.75 2.35 14 14 0 0 1-2.86 1.8 22.28 22.28 0 0 1-3.53 1.19 112.93 112.93 0 0 1-11.84.48h-3.36c0 .32-.09.66-.12 1-.07.62-.11 1.24-.12 1.73a4.83 4.83 0 0 0 1.14 3.19c.65.6 5.68 1.07 11.18 1h1a112.93 112.93 0 0 0 11.84-.48 22.28 22.28 0 0 0 3.53-1.19 14 14 0 0 0 2.86-1.8 9.67 9.67 0 0 0 1.8-2.35 7.49 7.49 0 0 0 .7-2.8 10.5 10.5 0 0 0-.6-3.17 12.43 12.43 0 0 1-.67-3.36 12.12 12.12 0 0 1 .51-3.36c.3-.89.71-2.4.9-3.31z"/></svg>