<svg xmlns="http://www.w3.org/2000/svg" width="63.26" height="200" viewBox="0 0 63.26 200"><title>_</title><path d="M-3.85 176.66a.6.6 0 0 0 .2.06 12.79 12.79 0 0 1 2.3.31 12.67 12.67 0 0 1 2.18.8 3.65 3.65 0 0 0 1.17.31 4.74 4.74 0 0 0 1.11-.27c.2-.1.46-.21.73-.31a9.55 9.55 0 0 1 1.38-.42 8.53 8.53 0 0 1 2.14-.14 8.3 8.3 0 0 0 1.87-.23c.76-.17 2.35-.66 3.48-1.05a20.2 20.2 0 0 1 4.86-1 22.87 22.87 0 0 1 5.11.45 9.88 9.88 0 0 0 3.47.12 4.2 4.2 0 0 0 1.85-1.17 28.41 28.41 0 0 1 2.29-2.68 24 24 0 0 1 2.56-2.18 6 6 0 0 0 1.43-1.59 6.11 6.11 0 0 0 .53-2.12c0-.91.26-2.94.51-4.54a18.34 18.34 0 0 1 1.38-4.77 25.89 25.89 0 0 1 2.3-3.34 5.55 5.55 0 0 0 1-2.45 5.79 5.79 0 0 0-.82-2.58 19.14 19.14 0 0 1-1.83-3.77 11.92 11.92 0 0 1-.51-3.71c.05-.88.2-2.31.33-3.18s.42-2.3.63-3.17.93-3 1.59-4.74a18.81 18.81 0 0 0 1.12-4.08 8.51 8.51 0 0 0-.39-2.49 15.53 15.53 0 0 1-.72-3.43 14.73 14.73 0 0 1 .24-3.46 8 8 0 0 0 0-2.46 10.2 10.2 0 0 0-1-2.56 14.66 14.66 0 0 1-1.39-3.46c-.3-1.32.06-4.71.38-6.66a49.87 49.87 0 0 1 1.38-6.36 30.17 30.17 0 0 1 1.48-3.24 5.58 5.58 0 0 0 .57-2.25 6.08 6.08 0 0 0-.81-2.31 20.76 20.76 0 0 1-1.67-3.33 16.4 16.4 0 0 1-.8-3.41 16.38 16.38 0 0 1 .22-3.62c0-.11 0-.24.07-.37a25.24 25.24 0 0 1 1-3.48 2.65 2.65 0 0 0 .12-1.41 4.64 4.64 0 0 0-2-.56c-1.24-.07-3.16-.07-4.28 0s-4.74.53-7.93 1a69.4 69.4 0 0 1-8.3.89 38.45 38.45 0 0 1-4.49-.45 5.19 5.19 0 0 0-2.41.15A2.49 2.49 0 0 0 9 73.31c-.14.9-.28 2.38-.31 3.23a28.39 28.39 0 0 0 .07 3 23.39 23.39 0 0 1 0 3.3 24.22 24.22 0 0 1-.55 3.29 7.45 7.45 0 0 0-.11 2.43 9.46 9.46 0 0 0 1 2.53c.51.88 1.25 2.32 1.63 3.2a31.51 31.51 0 0 1 1.16 3.23 18.41 18.41 0 0 1 .58 3.37 17.74 17.74 0 0 1-.18 3.38 17.12 17.12 0 0 1-1 3.39 22.3 22.3 0 0 1-1.89 3.31 8.22 8.22 0 0 0-1.13 2.47 5.84 5.84 0 0 0 .13 2.31c.27.87.65 2.29.83 3.17s.42 2.3.53 3.18.31 2.11.48 2.9.52 2.12.77 2.91a16.11 16.11 0 0 1 .62 3.42 15.55 15.55 0 0 1-.29 3.44c-.19.88-.79 3-1.33 4.69s-1.09 3.65-1.26 4.43a28.08 28.08 0 0 0-.44 2.87 23.18 23.18 0 0 1-.42 2.81 8 8 0 0 1-.83 2.1A5.21 5.21 0 0 1 5.53 153a7 7 0 0 1-1.94.76 10.39 10.39 0 0 0-1.67.62c-.58.27-1.68.89-2.4 1.34a18.42 18.42 0 0 0-2.31 1.76 14.78 14.78 0 0 0-1.71 2 4.88 4.88 0 0 0-.67 1.8 5.67 5.67 0 0 0 .38 2 17.18 17.18 0 0 1 .94 3.18 37.92 37.92 0 0 1 0 6.05 23.2 23.2 0 0 0 0 4.15zM37.83 51.27c.22-.83.93-2.83 1.58-4.46a22.33 22.33 0 0 0 1-3.07 4.71 4.71 0 0 0 .13-.69 6.88 6.88 0 0 0-.34-2.16 3.89 3.89 0 0 0-1.2-1.46 7.94 7.94 0 0 0-2.57-.9 14.6 14.6 0 0 0-3.49 0 17.19 17.19 0 0 0-3.59 1A22.29 22.29 0 0 1 25 40.88a41.16 41.16 0 0 1-8.33-.43 30.38 30.38 0 0 0-6.54-.35 3.37 3.37 0 0 0-1.29 1.13A4.06 4.06 0 0 0 8.4 43a5.67 5.67 0 0 0 .81 2.06 19 19 0 0 1 1.68 3.14 14.82 14.82 0 0 1 .8 3.24 15 15 0 0 1-.13 3.43 22.45 22.45 0 0 1-1 3.68l-.05.15a7.3 7.3 0 0 0 1.11-.36 33.4 33.4 0 0 1 4.58-1.49 27.34 27.34 0 0 1 3.52-.52l1-.05h.22a19 19 0 0 1 4.28.55 22.33 22.33 0 0 1 4.38 1.81 8.56 8.56 0 0 0 3.12 1 5.46 5.46 0 0 0 2.59-.76 9.52 9.52 0 0 0 2-1.64 1.64 1.64 0 0 0 .26-.71 10.16 10.16 0 0 1-.11-2.43 19.84 19.84 0 0 1 .37-2.83z"/><path d="M50.19 101.79a28.48 28.48 0 0 1 1.39-3 6.91 6.91 0 0 0 .75-3 7.47 7.47 0 0 0-1-3 19.25 19.25 0 0 1-1.53-3 11.81 11.81 0 0 1-.59-6.26 22.59 22.59 0 0 1 1-3.57 3.37 3.37 0 0 0-.09-2.87 5 5 0 0 0-3.11-1.13c-1.27-.07-3.27-.08-4.44 0-.4 0-1.09.09-1.94.19l-1.05.13c0 .11 0 .22-.06.32a14.9 14.9 0 0 0-.13 3.22 14.89 14.89 0 0 0 .71 3 19.25 19.25 0 0 0 1.53 3 7.47 7.47 0 0 1 1 3 6.91 6.91 0 0 1-.75 3 28.48 28.48 0 0 0-1.39 3 48.77 48.77 0 0 0-1.3 6.08 24.45 24.45 0 0 0-.4 6.08 13.12 13.12 0 0 0 1.22 3 11.48 11.48 0 0 1 1.16 3 9.4 9.4 0 0 1 0 3 13.24 13.24 0 0 0-.22 3 14 14 0 0 0 .64 3 9.9 9.9 0 0 1 .48 3 19.65 19.65 0 0 1-1.22 4.56c-.64 1.67-1.33 3.73-1.53 4.56s-.48 2.21-.6 3-.27 2.21-.32 3a10.55 10.55 0 0 0 .44 3.17 17.63 17.63 0 0 0 1.66 3.42 7.08 7.08 0 0 1 1.06 3.46 6.87 6.87 0 0 1-1.37 3.31 24.08 24.08 0 0 0-2.07 3.11 17.36 17.36 0 0 0-1.22 4.3c-.24 1.55-.46 3.51-.5 4.36a7.6 7.6 0 0 1-.71 2.77 7.37 7.37 0 0 1-1.89 2.1 22.5 22.5 0 0 0-2.37 2 26.94 26.94 0 0 0-2.19 2.9 5.61 5.61 0 0 1-2.74 1.8 11.16 11.16 0 0 1-4.15-.11 21.54 21.54 0 0 0-4.71-.42 18.79 18.79 0 0 0-4.44.87c-1.18.42-2.82.91-3.64 1.1a9.65 9.65 0 0 1-2.34.26 7 7 0 0 0-1.7.1 8.2 8.2 0 0 0-1.15.36v1.11a13.64 13.64 0 0 0 .22 4.33 2 2 0 0 0 1.49.76 11.28 11.28 0 0 1 2 .27 11.35 11.35 0 0 1 1.88.69 5 5 0 0 0 1.82.46 4.75 4.75 0 0 0 1.78-.42 8.9 8.9 0 0 1 1.75-.61 7 7 0 0 1 1.7-.1 9.65 9.65 0 0 0 2.34-.26c.82-.19 2.46-.68 3.64-1.1a18.79 18.79 0 0 1 4.44-.87 21.54 21.54 0 0 1 4.71.42 11.16 11.16 0 0 0 4.15.11 5.61 5.61 0 0 0 2.74-1.8 26.94 26.94 0 0 1 2.15-2.51 22.5 22.5 0 0 1 2.37-2 7.37 7.37 0 0 0 1.89-2.1 7.6 7.6 0 0 0 .71-2.77c0-.85.25-2.82.5-4.36a17.36 17.36 0 0 1 1.22-4.3 24.08 24.08 0 0 1 2.07-3.11 6.87 6.87 0 0 0 1.37-3.31 7.08 7.08 0 0 0-1.15-3.49 17.63 17.63 0 0 1-1.66-3.42 10.55 10.55 0 0 1-.44-3.17c0-.84.19-2.21.32-3s.4-2.21.6-3 .9-2.89 1.53-4.56a19.65 19.65 0 0 0 1.22-4.56 9.9 9.9 0 0 0-.48-3 14 14 0 0 1-.64-3 13.24 13.24 0 0 1 .22-3 9.4 9.4 0 0 0 0-3 11.48 11.48 0 0 0-1.16-3 13.12 13.12 0 0 1-1.22-3 24.45 24.45 0 0 1 .4-6.08 48.77 48.77 0 0 1 1.34-6.42zM49.59 45.13A9.37 9.37 0 0 0 46.4 44a16.33 16.33 0 0 0-3.48-.07l-.45.07-.6.11a24.13 24.13 0 0 1-1.06 3.3c-.63 1.57-1.32 3.49-1.52 4.27a18.37 18.37 0 0 0-.46 2.58 8.86 8.86 0 0 0 .09 2.06 2.76 2.76 0 0 1-.53 1.86 10.8 10.8 0 0 1-2.35 2 7.21 7.21 0 0 1-3.44 1A9.9 9.9 0 0 1 28.77 60a20.92 20.92 0 0 0-4-1.67 17.47 17.47 0 0 0-4.08-.5h-.87c.05.26.09.51.11.72s0 .19 0 .28a13.81 13.81 0 0 1-.13 2.75 21.05 21.05 0 0 1-1 3.38c-.38 1-.35 2 .07 2.21a4.88 4.88 0 0 0 3-.5 32.06 32.06 0 0 1 4.33-1.37 25.3 25.3 0 0 1 4.18-.53 17.47 17.47 0 0 1 4.08.5 20.92 20.92 0 0 1 4 1.67 9.9 9.9 0 0 0 3.82 1.17 7.21 7.21 0 0 0 3.44-1 10.8 10.8 0 0 0 2.35-2 2.76 2.76 0 0 0 .53-1.86 8.86 8.86 0 0 1-.09-2.06 18.37 18.37 0 0 1 .49-2.6c.2-.78.89-2.71 1.52-4.27a18.28 18.28 0 0 0 1.22-4.24 8.33 8.33 0 0 0-.43-2.75 5.34 5.34 0 0 0-1.72-2.2z"/></svg>