<svg xmlns="http://www.w3.org/2000/svg" width="200" height="200" viewBox="0 0 200 200"><title>_</title><path d="M122.68 79.77a4.45 4.45 0 0 0-2.38-.77c-1.24-.07-3.19-.08-4.33 0s-4.78.53-8 1a70.62 70.62 0 0 1-8.22.88 37.63 37.63 0 0 1-4.41-.44 5.44 5.44 0 0 0-2.74.2 2.86 2.86 0 0 0-1 1.73c-.14.92-.29 2.42-.32 3.28a28.94 28.94 0 0 0 .07 3 22.76 22.76 0 0 1 0 3.21 23.54 23.54 0 0 1-.54 3.2 7.94 7.94 0 0 0-.12 2.63 9.9 9.9 0 0 0 1 2.7c.51.87 1.23 2.28 1.6 3.15a30.88 30.88 0 0 1 1.14 3.17A17.84 17.84 0 0 1 95 110a17.17 17.17 0 0 1-.18 3.26 16.52 16.52 0 0 1-1 3.28 21.69 21.69 0 0 1-1.82 3.25 8.71 8.71 0 0 0-1.21 2.66A6.36 6.36 0 0 0 91 125c.27.86.64 2.26.82 3.13s.42 2.27.52 3.13.32 2.15.49 2.95.53 2.15.78 3a15.48 15.48 0 0 1 .6 3.29 15 15 0 0 1-.28 3.31c-.19.87-.78 3-1.32 4.65s-1.1 3.68-1.27 4.48a28.75 28.75 0 0 0-.45 2.93 22.52 22.52 0 0 1-.41 2.73 7.52 7.52 0 0 1-.76 1.94 4.74 4.74 0 0 1-1.3 1.27 6.56 6.56 0 0 1-1.78.7 10.73 10.73 0 0 0-1.77.65c-.59.28-1.71.91-2.46 1.37a19.11 19.11 0 0 0-2.41 1.78 15.16 15.16 0 0 0-1.79 2.08 5.33 5.33 0 0 0-.75 2 6.1 6.1 0 0 0 .42 2.27 16.58 16.58 0 0 1 .91 3.07 38.09 38.09 0 0 1 0 5.93 20.33 20.33 0 0 0 .06 4.43 1.19 1.19 0 0 0 .64.26 10.28 10.28 0 0 1 4.27 1.06 4.09 4.09 0 0 0 1.38.36 5.21 5.21 0 0 0 1.34-.32c.19-.1.44-.2.69-.29a9 9 0 0 1 1.3-.4 8 8 0 0 1 2-.12 8.51 8.51 0 0 0 2-.24c.78-.18 2.4-.67 3.53-1.07a19.58 19.58 0 0 1 4.72-.93 22.48 22.48 0 0 1 5 .44 10.35 10.35 0 0 0 3.7.12 4.67 4.67 0 0 0 2.17-1.43 28 28 0 0 1 2.24-2.63 23.52 23.52 0 0 1 2.5-2.13 6.38 6.38 0 0 0 1.59-1.76 6.61 6.61 0 0 0 .59-2.33c0-.89.26-2.9.51-4.48a18.07 18.07 0 0 1 1.32-4.61 25.26 25.26 0 0 1 2.18-3.27 6 6 0 0 0 1.15-2.73 6.2 6.2 0 0 0-.9-2.88 18.53 18.53 0 0 1-1.77-3.65 11.54 11.54 0 0 1-.48-3.53c.05-.86.2-2.27.33-3.13s.41-2.27.62-3.13.92-3 1.57-4.68a19.08 19.08 0 0 0 1.15-4.24 9 9 0 0 0-.42-2.67 15 15 0 0 1-.7-3.3 14.15 14.15 0 0 1 .23-3.32 8.47 8.47 0 0 0 0-2.65 10.62 10.62 0 0 0-1-2.72 14.06 14.06 0 0 1-1.33-3.32 24.89 24.89 0 0 1 .39-6.46 49.49 49.49 0 0 1 1.35-6.27 29.55 29.55 0 0 1 1.45-3.17 6 6 0 0 0 .63-2.52 6.49 6.49 0 0 0-.89-2.55 20.13 20.13 0 0 1-1.63-3.23 12.81 12.81 0 0 1-.64-6.77c0-.11 0-.23.07-.35a24.64 24.64 0 0 1 1-3.4 2.67 2.67 0 0 0-.02-1.88zM122.43 48.17a8.42 8.42 0 0 0-2.78-1 14.93 14.93 0 0 0-3.64 0 17.77 17.77 0 0 0-3.72 1.09 21.69 21.69 0 0 1-4.24 1.28 41 41 0 0 1-8.18-.43 29.17 29.17 0 0 0-6.75-.33 3.8 3.8 0 0 0-1.57 1.36 4.53 4.53 0 0 0-.52 2.1 6.08 6.08 0 0 0 .9 2.31 18.44 18.44 0 0 1 1.62 3 14.23 14.23 0 0 1 .77 3.11 14.44 14.44 0 0 1-.13 3.3 21.84 21.84 0 0 1-1 3.58 2.72 2.72 0 0 0-.2.94 6.76 6.76 0 0 0 1.9-.48 33 33 0 0 1 4.5-1.46 26.88 26.88 0 0 1 3.45-.5l.93-.05h.23a18.61 18.61 0 0 1 4.15.53 21.67 21.67 0 0 1 4.26 1.77 9 9 0 0 0 3.35 1 6.14 6.14 0 0 0 2.88-.84 9.93 9.93 0 0 0 2.08-1.77 1.94 1.94 0 0 0 .36-1.07 9.88 9.88 0 0 1-.11-2.34 19.29 19.29 0 0 1 .49-2.76c.21-.82.92-2.79 1.56-4.4A23 23 0 0 0 124 53a5 5 0 0 0 .14-.77 7.38 7.38 0 0 0-.37-2.36 4.38 4.38 0 0 0-1.34-1.7z" fill="#231f20"/><path d="M122.57 85.58a11.81 11.81 0 0 0 .59 6.26 19.25 19.25 0 0 0 1.53 3 7.47 7.47 0 0 1 1 3 6.91 6.91 0 0 1-.75 3 28.48 28.48 0 0 0-1.39 3 48.77 48.77 0 0 0-1.3 6.08 24.45 24.45 0 0 0-.4 6.08 13.12 13.12 0 0 0 1.22 3 11.48 11.48 0 0 1 1.16 3 9.4 9.4 0 0 1 0 3 13.24 13.24 0 0 0-.22 3 14 14 0 0 0 .64 3 9.9 9.9 0 0 1 .48 3 19.65 19.65 0 0 1-1.22 4.56c-.64 1.67-1.33 3.73-1.53 4.56s-.48 2.21-.6 3-.27 2.21-.32 3a10.55 10.55 0 0 0 .44 3.17 17.63 17.63 0 0 0 1.66 3.42 7.08 7.08 0 0 1 1.06 3.46 6.87 6.87 0 0 1-1.37 3.31 24.08 24.08 0 0 0-2.07 3.11 17.36 17.36 0 0 0-1.22 4.3c-.24 1.55-.46 3.51-.5 4.36a7.6 7.6 0 0 1-.71 2.77 7.37 7.37 0 0 1-1.89 2.1 22.5 22.5 0 0 0-2.37 2 26.94 26.94 0 0 0-2.15 2.51 5.61 5.61 0 0 1-2.74 1.8 11.16 11.16 0 0 1-4.15-.11 21.54 21.54 0 0 0-4.71-.42 18.79 18.79 0 0 0-4.44.87c-1.18.42-2.82.91-3.64 1.1a9.65 9.65 0 0 1-2.34.26 7 7 0 0 0-1.7.1 8.2 8.2 0 0 0-1.15.36v1.11a13.64 13.64 0 0 0 .22 4.33 2 2 0 0 0 1.49.76 9.26 9.26 0 0 1 3.86 1 5 5 0 0 0 1.82.46 4.75 4.75 0 0 0 1.78-.42 8.9 8.9 0 0 1 1.75-.61 7 7 0 0 1 1.7-.1 9.65 9.65 0 0 0 2.34-.26c.82-.19 2.46-.68 3.64-1.1a18.79 18.79 0 0 1 4.44-.87 21.54 21.54 0 0 1 4.71.42 11.16 11.16 0 0 0 4.15.11 5.61 5.61 0 0 0 2.74-1.8 26.94 26.94 0 0 1 2.15-2.51 22.5 22.5 0 0 1 2.37-2 7.37 7.37 0 0 0 1.89-2.1 7.6 7.6 0 0 0 .71-2.77c0-.85.25-2.82.5-4.36a17.36 17.36 0 0 1 1.22-4.3 24.08 24.08 0 0 1 2.07-3.11 6.87 6.87 0 0 0 1.37-3.31 7.08 7.08 0 0 0-1.06-3.46 17.63 17.63 0 0 1-1.66-3.42 10.55 10.55 0 0 1-.44-3.17c0-.84.19-2.21.32-3s.4-2.21.6-3 .9-2.89 1.53-4.56a19.65 19.65 0 0 0 1.22-4.56 9.9 9.9 0 0 0-.48-3 14 14 0 0 1-.64-3 13.24 13.24 0 0 1 .22-3 9.4 9.4 0 0 0 0-3 11.48 11.48 0 0 0-1.16-3 13.12 13.12 0 0 1-1.22-3A24.45 24.45 0 0 1 132 117a48.77 48.77 0 0 1 1.3-6.08 28.48 28.48 0 0 1 1.39-3 6.91 6.91 0 0 0 .75-3 7.47 7.47 0 0 0-1-3 19.25 19.25 0 0 1-1.53-3 11.81 11.81 0 0 1-.59-6.26 22.59 22.59 0 0 1 1-3.57 3.37 3.37 0 0 0-.09-2.87 5 5 0 0 0-3.17-1.22c-1.27-.07-3.27-.08-4.44 0-.4 0-1.09.09-1.94.19l-1.05.13c-.02.05-.05.16-.06.26zM132.11 67.75c.2-.78.89-2.71 1.52-4.27a18.28 18.28 0 0 0 1.22-4.24 8.33 8.33 0 0 0-.43-2.75 5.34 5.34 0 0 0-1.73-2.19 9.37 9.37 0 0 0-3.18-1.14 16.33 16.33 0 0 0-3.48-.07l-.45.05-.6.11a24.13 24.13 0 0 1-1.06 3.3c-.63 1.57-1.32 3.49-1.52 4.27a18.37 18.37 0 0 0-.46 2.58 8.86 8.86 0 0 0 .09 2.06 2.76 2.76 0 0 1-.53 1.86 10.8 10.8 0 0 1-2.35 2 7.21 7.21 0 0 1-3.44 1 9.9 9.9 0 0 1-3.82-1.17 20.92 20.92 0 0 0-4-1.67 17.47 17.47 0 0 0-4.08-.5h-.87c.05.26.09.51.11.72s0 .19 0 .28a13.81 13.81 0 0 1-.13 2.75 21.05 21.05 0 0 1-1 3.38c-.38 1-.35 2 .07 2.21a4.88 4.88 0 0 0 3-.5 32.06 32.06 0 0 1 4.34-1.41 25.3 25.3 0 0 1 4.18-.53 17.47 17.47 0 0 1 4.08.5 20.92 20.92 0 0 1 4 1.67 9.9 9.9 0 0 0 3.82 1.17 7.21 7.21 0 0 0 3.44-1 10.8 10.8 0 0 0 2.35-2 2.76 2.76 0 0 0 .53-1.86 8.86 8.86 0 0 1-.09-2.06 18.37 18.37 0 0 1 .47-2.55z" fill="#231f20"/></svg>