<svg xmlns="http://www.w3.org/2000/svg" width="109.22" height="200" viewBox="0 0 109.22 200"><title>_</title><path d="M56.18 132.05l.21.2a16.34 16.34 0 0 1 2.9 3.7 17.17 17.17 0 0 1 1.51 4.53 10.87 10.87 0 0 0 1.2 3.31 9.35 9.35 0 0 0 2.34 2.29 27 27 0 0 0 3.49 1.76c.57.23 1.43.52 2.31.77.58.17 1.15.32 1.62.42a20.71 20.71 0 0 0 4.14.41 25.63 25.63 0 0 0 4.4-.56 21.75 21.75 0 0 1 5.25-.44 22.47 22.47 0 0 1 5.22 1.09 26.32 26.32 0 0 0 4.56 1.09 26.47 26.47 0 0 0 4.69.06 7.23 7.23 0 0 0 1.34-.26 3.36 3.36 0 0 0-.34-.32 15.87 15.87 0 0 1-3-3.44 15 15 0 0 1-1.56-4.19 13.72 13.72 0 0 0-1.11-3.23 12.2 12.2 0 0 0-2-2.57 36.56 36.56 0 0 1-2.74-2.89 35.39 35.39 0 0 1-2.31-3.2c-.57-.91-1.42-2.44-1.91-3.4s-1.2-2.58-1.6-3.6a20.67 20.67 0 0 0-1.58-3.08 47.93 47.93 0 0 0-5-5.18 51.38 51.38 0 0 1-5.51-5.7 17.87 17.87 0 0 1-1.83-3.74 11.63 11.63 0 0 1-.57-3.84c.14-1.84 4.13-7 4.58-7.56 1.49-1.9 4.6-5.69 5.68-6.39a12.47 12.47 0 0 1 3.13-1.36 13.35 13.35 0 0 0 2.43-1A10.07 10.07 0 0 0 88 84.4a12 12 0 0 0 1.43-1.87 14.57 14.57 0 0 0 1-2.33 8.66 8.66 0 0 1 1.7-2.91l.07-.08a8.78 8.78 0 0 1 3-1.82 7.13 7.13 0 0 0 1.86-1 3.85 3.85 0 0 0 .94-1.22.58.58 0 0 0-.08-.17 7.87 7.87 0 0 0-2.33-.74 26.87 26.87 0 0 0-4.15-.26 33.22 33.22 0 0 0-4.35.42c-1.33.23-3.5.5-4.83.59s-5.55.06-9.41-.06a38.45 38.45 0 0 0-8.12.36A8.15 8.15 0 0 0 62.22 75c-.75.83-2.77 2.71-4.5 4.18a36.64 36.64 0 0 0-4.07 4l-.2.27a18.71 18.71 0 0 0-1.66 2.92 32.39 32.39 0 0 1-2.1 3.94 36.15 36.15 0 0 1-2.79 3.67c-.49.55-2.19 2.29-3.73 2s-2.1-2.06-2.22-3.5a30.41 30.41 0 0 1 0-4.1 25.56 25.56 0 0 1 .64-3.84 13.75 13.75 0 0 0 .38-3 13.93 13.93 0 0 0-.47-3 13.26 13.26 0 0 1-.45-4 14.09 14.09 0 0 1 1-3.92 15.2 15.2 0 0 0 .88-3 13.31 13.31 0 0 0 0-3c-.14-1-.27-2.6-.3-3.59s0-2.6.1-3.59a24.13 24.13 0 0 0 0-3.18 25 25 0 0 0-.56-3.26 36.082 36.082 0 0 1-.65-3.6 33.79 33.79 0 0 1-.18-3.59 2 2 0 0 0-.34-1.15 4.56 4.56 0 0 0-1.82 0 39.53 39.53 0 0 1-4.17.49 39.05 39.05 0 0 1-4.19 0c-1.13-.08-3-.31-4.14-.5s-3-.58-4.13-.88a19.8 19.8 0 0 0-3.62-.53 18 18 0 0 0-3.49.32 5 5 0 0 0-2 1A2.79 2.79 0 0 0 13 44a19.88 19.88 0 0 1-.23 3.61 24.37 24.37 0 0 1-1 3.68 16.44 16.44 0 0 0-.77 3.08 15.13 15.13 0 0 0 0 3.09c.12.89.8 4 1.49 6.77a70.69 70.69 0 0 1 1.64 10.67c.17 2.92.25 6.11.19 7.12s-.5 4.16-1 7.07a72.49 72.49 0 0 0-.85 8.44c0 1.95-.12 4.34-.23 5.34a34.42 34.42 0 0 1-.63 3.66c-.22.91-.5 2.4-.62 3.32s-.25 2.42-.28 3.31a15.33 15.33 0 0 0 .3 3.09 17.94 17.94 0 0 0 1.11 3.14 14.47 14.47 0 0 1 1.16 3.95 13.07 13.07 0 0 1-.3 4 14.11 14.11 0 0 0-.37 3.06 14.34 14.34 0 0 0 .49 3.07 21.41 21.41 0 0 1 .71 3.78 20.41 20.41 0 0 1-.13 3.8c-.13.92-.28 2.34-.32 3.16s0 2.08 0 2.8a3.2 3.2 0 0 0 .6 1.49 6.21 6.21 0 0 0 2 1.19 9.86 9.86 0 0 0 3 .49 13.07 13.07 0 0 0 2.25-.3 11.94 11.94 0 0 0 1.18-.3 14.83 14.83 0 0 1 4.07-.62H27a15.35 15.35 0 0 1 4.53 1.14 16.41 16.41 0 0 0 3.65 1.05 16.15 16.15 0 0 0 3.82-.05 4.57 4.57 0 0 0 1.91-.74 2.27 2.27 0 0 0-.12-1.06 14.5 14.5 0 0 1-.9-3.52 24.32 24.32 0 0 1 1.2-6.32 31.34 31.34 0 0 0 1.21-5.24 9.63 9.63 0 0 0-.42-2.41 16 16 0 0 1-.68-2.85 6.16 6.16 0 0 1 .23-2.47 3.18 3.18 0 0 1 1.75-1.81 4.4 4.4 0 0 1 2.47 0 3.41 3.41 0 0 0 .67.11c.1-.25.26-.65.38-1a1.9 1.9 0 0 1 3.45-.5 27.25 27.25 0 0 1 1.55 2.76 24.56 24.56 0 0 0 2 3.25 27.08 27.08 0 0 0 2.48 2.75z"/><path d="M112.89 158.08c.25-.44-.28-1.42-1.17-2.17a14.39 14.39 0 0 1-2.63-3.06 13.49 13.49 0 0 1-1.37-3.7 15.11 15.11 0 0 0-1.26-3.67 13.64 13.64 0 0 0-2.3-3 35 35 0 0 1-2.61-2.75 33.71 33.71 0 0 1-2.19-3c-.55-.87-1.37-2.35-1.84-3.28S96.36 131 96 130a22.09 22.09 0 0 0-1.72-3.36 47.43 47.43 0 0 0-5.28-5.47 51 51 0 0 1-5.28-5.44 16.36 16.36 0 0 1-1.64-3.37 10.3 10.3 0 0 1-.49-3.26c.06-.79 2-3.82 4.27-6.74a49 49 0 0 1 5.32-6.07 11.1 11.1 0 0 1 2.69-1.16A14.66 14.66 0 0 0 96.63 94a11.41 11.41 0 0 0 2.19-1.65 13.48 13.48 0 0 0 1.65-2.16 15.86 15.86 0 0 0 1.16-2.63 7.14 7.14 0 0 1 1.37-2.34 7.31 7.31 0 0 1 2.39-1.45 8.6 8.6 0 0 0 2.36-1.28 5.32 5.32 0 0 0 1.31-1.87 1.73 1.73 0 0 0-.5-1.8 8.21 8.21 0 0 0-3.05-1.08 30.62 30.62 0 0 0-4.42-.33 34.58 34.58 0 0 0-4.59.44l-1.02.15c-.69.1-1.44.2-2.16.27a7.15 7.15 0 0 0-1.4 2.37 15.86 15.86 0 0 1-1.16 2.63 13.48 13.48 0 0 1-1.65 2.16 11.41 11.41 0 0 1-2.19 1.65 14.66 14.66 0 0 1-2.77 1.09 11.1 11.1 0 0 0-2.69 1.16 49 49 0 0 0-5.32 6.07c-2.29 2.92-4.21 6-4.27 6.74a10.3 10.3 0 0 0 .49 3.26 16.36 16.36 0 0 0 1.64 3.39 51 51 0 0 0 5.28 5.44 47.43 47.43 0 0 1 5.26 5.46 22.09 22.09 0 0 1 1.73 3.31c.38 1 1.08 2.55 1.54 3.48s1.29 2.4 1.84 3.28a33.71 33.71 0 0 0 2.19 3 35 35 0 0 0 2.61 2.75 13.64 13.64 0 0 1 2.3 3 15.11 15.11 0 0 1 1.25 3.7 13.49 13.49 0 0 0 1.37 3.7A14.39 14.39 0 0 0 102 149c.9.75 1.43 1.73 1.17 2.17s-1.6.92-3 1.05a27.65 27.65 0 0 1-5-.06 27.64 27.64 0 0 1-4.89-1.16 21.17 21.17 0 0 0-4.81-1 20.07 20.07 0 0 0-4.81.41 27.15 27.15 0 0 1-4.71.6 23.41 23.41 0 0 1-4.49-.44c-.49-.11-1.1-.27-1.72-.45a10.11 10.11 0 0 0 .57 1.2c.05.09.11.21.16.29a10.68 10.68 0 0 0 2.81 2.75 28.36 28.36 0 0 0 3.72 1.82 32.19 32.19 0 0 0 4.17 1.27 23.41 23.41 0 0 0 4.49.44 27.15 27.15 0 0 0 4.71-.6 20.07 20.07 0 0 1 4.81-.41 21.17 21.17 0 0 1 4.81 1 27.64 27.64 0 0 0 4.88 1.17 27.65 27.65 0 0 0 5 .06c1.42-.11 2.77-.59 3.02-1.03zM52.3 80.88a13 13 0 0 1 .77-2.76 16.56 16.56 0 0 0 1-3.43 14.7 14.7 0 0 0 0-3.43c-.13-.94-.26-2.48-.28-3.43s0-2.48.09-3.43a25.56 25.56 0 0 0 0-3.43 26.57 26.57 0 0 0-.55-3.43 34 34 0 0 1-.61-3.42 32 32 0 0 1-.17-3.39 3.09 3.09 0 0 0-1-2.36 4.83 4.83 0 0 0-3-.3 37.94 37.94 0 0 1-4 .47h-1.42c.12.72.27 1.47.4 2a26.57 26.57 0 0 1 .65 3.46 25.56 25.56 0 0 1 0 3.43c-.08.94-.12 2.48-.09 3.43s.15 2.48.28 3.43a14.7 14.7 0 0 1 0 3.43 16.56 16.56 0 0 1-1 3.43 12.57 12.57 0 0 0-.85 3.43A11.72 11.72 0 0 0 42.9 78a15.37 15.37 0 0 1 .53 3.43 15.18 15.18 0 0 1-.43 3.45 23.76 23.76 0 0 0-.59 3.57 28.8 28.8 0 0 0 0 3.86c.1 1.1.55 2.07 1 2.16s1.51-.6 2.33-1.52a34.35 34.35 0 0 0 2.65-3.49 30.65 30.65 0 0 0 2-3.72 20.27 20.27 0 0 1 1.81-3.19 8.37 8.37 0 0 1 0-1c.03-.21.07-.44.1-.67zM53.37 133h.21a3.36 3.36 0 0 1 1.32.1l.24.06a28.73 28.73 0 0 1-2.66-2.91 26.07 26.07 0 0 1-2.18-3.49 26.16 26.16 0 0 0-1.43-2.56c-.28-.4-.65-.34-.81.12s-.4 1.07-.53 1.36a1.31 1.31 0 0 1-.83.64 4 4 0 0 1-1.52-.15 3 3 0 0 0-1.54-.05 1.73 1.73 0 0 0-.86.93 4.78 4.78 0 0 0-.15 1.79 14.56 14.56 0 0 0 .61 2.53 11 11 0 0 1 .5 2.88 30.63 30.63 0 0 1-1.27 5.68 23.22 23.22 0 0 0-1.14 5.75 13 13 0 0 0 .8 3.09 2.92 2.92 0 0 1-.08 2.55 5.25 5.25 0 0 1-2.86 1.3 17.34 17.34 0 0 1-4.19.06 17.88 17.88 0 0 1-4.07-1.17 13.87 13.87 0 0 0-4-1 13 13 0 0 0-4 .53 13.43 13.43 0 0 1-1.33.35V154.07a4.59 4.59 0 0 0 1 2.4 7.47 7.47 0 0 0 2.62 1.6 12.47 12.47 0 0 0 3.58.57 15.8 15.8 0 0 0 3.86-.68 13 13 0 0 1 4-.53 13.87 13.87 0 0 1 4 1 17.88 17.88 0 0 0 4.07 1.17 17.34 17.34 0 0 0 4.19-.06 5.25 5.25 0 0 0 2.86-1.3 2.92 2.92 0 0 0 .08-2.55 13 13 0 0 1-.8-3.09 23.22 23.22 0 0 1 1.14-5.75 30.63 30.63 0 0 0 1.27-5.68 11 11 0 0 0-.5-2.88 14.56 14.56 0 0 1-.61-2.53 4.78 4.78 0 0 1 .15-1.79 1.73 1.73 0 0 1 .86-.97z"/></svg>