<svg xmlns="http://www.w3.org/2000/svg" width="200" height="200" viewBox="0 0 200 200"><title>_</title><path d="M118.36,49.71a41,41,0,0,0-4.13.2c-1.1.12-2.91,0.42-4,.66s-3,.59-4.09.75-3,.33-4.09.38a31.82,31.82,0,0,1-4.27-.16,38.59,38.59,0,0,1-4.45-.85,4.9,4.9,0,0,0-2.74,0,3.29,3.29,0,0,0-1.11,2c-0.19,1.06-.4,2.73-0.48,3.73s0,4.12.21,6.9a62.15,62.15,0,0,0,1.19,8.49c0.48,1.93,1,4.3,1.13,5.29a31.71,31.71,0,0,1,.29,3.6,19.91,19.91,0,0,1-.37,3.69A23,23,0,0,1,90.31,88a11.45,11.45,0,0,0-.79,3.13,10.77,10.77,0,0,0,.37,3.11,22.56,22.56,0,0,1,.74,3.66,21.25,21.25,0,0,1,0,3.67,26.49,26.49,0,0,0,.15,6.68c0.15,1,.35,3.35.45,5.29a104.26,104.26,0,0,1-.37,10.53,106.8,106.8,0,0,0,0,13.71c0.26,3.45.46,7.7,0.35,8.84a20.14,20.14,0,0,1-.79,3.68,21.6,21.6,0,0,0-.76,3.46,27.24,27.24,0,0,0-.11,3.85,3.89,3.89,0,0,0,1,2.35,5.33,5.33,0,0,0,2.89.61c0.43,0,1.15,0,1.93,0,1,0,2.18,0,3,0,1.74,0,3.73.09,5.68,0.16a97.62,97.62,0,0,0,9.85,0,21,21,0,0,0,3.49-.91,7.45,7.45,0,0,0,2.38-1.5,4.4,4.4,0,0,0,.89-2,22.22,22.22,0,0,0,.07-2.95,28.62,28.62,0,0,0-.41-3.21,16.24,16.24,0,0,1-.22-3.74,17.18,17.18,0,0,1,.81-3.72c0.33-.93.79-2.44,1-3.37s0.54-2.44.68-3.37a10.38,10.38,0,0,0-.11-3.09,13.22,13.22,0,0,0-1.31-3.17,19.28,19.28,0,0,1-1.66-3.7,15.4,15.4,0,0,1-.56-3.75,30.24,30.24,0,0,1,.27-3.61,32,32,0,0,1,.79-3.6c0.27-.91.63-2.45,0.8-3.36s0.36-2.45.43-3.36a27.63,27.63,0,0,0,0-3.32,28.73,28.73,0,0,0-.49-3.32c-0.25-1.12-.72-5.35-1-8.79a163,163,0,0,1-.22-17.05l0.17-4.27c0.2-5,.54-10.75.77-11.88,0.13-.65.35-2.09,0.55-3.68,0.07-.57.14-1.15,0.2-1.71a8.08,8.08,0,0,0-.31-3.9A4.72,4.72,0,0,0,118.36,49.71Z" fill="#231f20"/><path d="M121.35,59.88c-0.19,1-.53,6.23-0.75,11.72l-0.17,4.27a162.11,162.11,0,0,0,.22,16.92c0.34,3.81.8,7.71,1,8.67a29.47,29.47,0,0,1,.52,3.47,28.46,28.46,0,0,1,0,3.46c-0.07,1-.27,2.51-0.44,3.46s-0.55,2.51-.83,3.46a31,31,0,0,0-.76,3.47,29.12,29.12,0,0,0-.26,3.47,14.46,14.46,0,0,0,.51,3.47,18.42,18.42,0,0,0,1.56,3.47,14.22,14.22,0,0,1,1.43,3.47,11.25,11.25,0,0,1,.13,3.46c-0.14,1-.46,2.51-0.7,3.46s-0.72,2.51-1.06,3.46a16.34,16.34,0,0,0-.76,3.47,15.34,15.34,0,0,0,.2,3.47,29.56,29.56,0,0,1,.43,3.35,23.13,23.13,0,0,1-.07,3.11,5.38,5.38,0,0,1-1.14,2.58,8.42,8.42,0,0,1-2.77,1.76,21.91,21.91,0,0,1-3.69,1,98,98,0,0,1-10,0c-1.94-.07-3.93-0.13-5.66-0.16,0,0.32,0,.66,0,1,0,0.73,0,1.47,0,2a4.77,4.77,0,0,0,1.34,3.08,6.12,6.12,0,0,0,3.57.82c1.29-.08,6,0,10.48.16a98,98,0,0,0,10,0,21.91,21.91,0,0,0,3.69-1,8.42,8.42,0,0,0,2.77-1.76,5.38,5.38,0,0,0,1.14-2.58,23.13,23.13,0,0,0,.07-3.11,29.56,29.56,0,0,0-.43-3.35,15.34,15.34,0,0,1-.2-3.47,16.34,16.34,0,0,1,.76-3.47c0.34-1,.82-2.51,1.06-3.46s0.56-2.51.7-3.46a11.25,11.25,0,0,0-.13-3.46,14.22,14.22,0,0,0-1.43-3.47,18.42,18.42,0,0,1-1.56-3.47,14.46,14.46,0,0,1-.51-3.47,29.12,29.12,0,0,1,.26-3.47,31,31,0,0,1,.76-3.47c0.28-1,.65-2.51.83-3.46s0.37-2.51.44-3.46a28.46,28.46,0,0,0,0-3.46,29.47,29.47,0,0,0-.52-3.47c-0.21-1-.67-4.85-1-8.67a162.11,162.11,0,0,1-.22-16.92l0.17-4.27c0.22-5.5.56-10.77,0.75-11.72s0.54-3.41.77-5.47,0-4.17-.59-4.71a5.39,5.39,0,0,0-3.16-1c-1.19,0-3.1.08-4.24,0.2l-0.9.11-1,.16C121.71,57.68,121.49,59.18,121.35,59.88Z" fill="#231f20"/></svg>