<svg xmlns="http://www.w3.org/2000/svg" width="56" height="200" viewBox="0 0 56 200"><title>_</title><path d="M35.36 41.06c-1.17 0-3 .08-4.07.19s-2.87.41-3.91.65-3 .6-4.13.76-3 .33-4.14.38a32.67 32.67 0 0 1-4.35-.16 39.28 39.28 0 0 1-4.51-.88 4.61 4.61 0 0 0-2.38 0A3 3 0 0 0 7 43.59c-.18 1.05-.4 2.7-.48 3.68s0 4.06.21 6.82a61.62 61.62 0 0 0 1.2 8.41c.48 2 1 4.34 1.14 5.33a32.26 32.26 0 0 1 .3 3.67A20.54 20.54 0 0 1 9 75.3a23.62 23.62 0 0 1-1.22 3.75A11 11 0 0 0 7 82a10.33 10.33 0 0 0 .35 2.93 23.13 23.13 0 0 1 .76 3.75 21.85 21.85 0 0 1 0 3.77A26 26 0 0 0 8.27 99c.15 1 .35 3.39.46 5.34A104.8 104.8 0 0 1 8.35 115a106.22 106.22 0 0 0 0 13.63 89.28 89.28 0 0 1 .35 8.92 20.72 20.72 0 0 1-.81 3.79 21 21 0 0 0-.74 3.36 26.63 26.63 0 0 0-.15 3.72 3.5 3.5 0 0 0 .78 2 5 5 0 0 0 2.54.5h5c1.74 0 3.74.09 5.69.16 4.72.18 8.93.16 9.76 0a20.48 20.48 0 0 0 3.39-.88 7 7 0 0 0 2.19-1.37 3.92 3.92 0 0 0 .76-1.74 21.68 21.68 0 0 0 .07-2.86 27.93 27.93 0 0 0-.4-3.14 16.85 16.85 0 0 1-.22-3.88 17.74 17.74 0 0 1 .84-3.85c.33-.92.78-2.41 1-3.33s.53-2.4.67-3.32a9.94 9.94 0 0 0-.11-2.91 12.85 12.85 0 0 0-1.25-3A19.84 19.84 0 0 1 36 117a16 16 0 0 1-.58-3.9 30.84 30.84 0 0 1 .28-3.68 32.44 32.44 0 0 1 .81-3.67c.26-.9.62-2.41.79-3.31s.36-2.41.42-3.3a27 27 0 0 0 0-3.24 28 28 0 0 0-.48-3.25c-.25-1.14-.73-5.4-1-8.86a163.6 163.6 0 0 1-.23-17.12l.17-4.27c.2-4.9.54-10.76.78-12 .13-.63.34-2.06.54-3.64.07-.57.14-1.15.2-1.7a8.48 8.48 0 0 0-.22-3.55 5.27 5.27 0 0 0-2.12-.45z"/><path d="M47.31 69.39c.22-5.5.56-10.77.75-11.72s.54-3.41.77-5.47 0-4.17-.59-4.71a5.39 5.39 0 0 0-3.16-1c-1.19 0-3.1.08-4.24.2l-.9.11-1 .16c-.2 1.56-.42 3.05-.56 3.75-.19 1-.53 6.23-.75 11.72l-.17 4.27a162.11 162.11 0 0 0 .22 16.92c.34 3.81.8 7.71 1 8.67a29.47 29.47 0 0 1 .52 3.47 28.46 28.46 0 0 1 0 3.46c-.07 1-.27 2.51-.44 3.46s-.55 2.51-.83 3.46a31 31 0 0 0-.76 3.47 29.12 29.12 0 0 0-.26 3.47 14.46 14.46 0 0 0 .51 3.47A18.42 18.42 0 0 0 39 120a14.22 14.22 0 0 1 1.43 3.47 11.25 11.25 0 0 1 .13 3.46c-.14 1-.46 2.51-.7 3.46s-.72 2.51-1.06 3.46a16.34 16.34 0 0 0-.76 3.47 15.34 15.34 0 0 0 .2 3.47 29.56 29.56 0 0 1 .43 3.35 23.13 23.13 0 0 1-.07 3.11 5.38 5.38 0 0 1-1.14 2.58 8.42 8.42 0 0 1-2.77 1.76 21.91 21.91 0 0 1-3.69 1 98 98 0 0 1-10 0c-1.94-.07-3.93-.13-5.66-.16v3a4.77 4.77 0 0 0 1.34 3.08 6.12 6.12 0 0 0 3.57.82c1.29-.08 6 0 10.48.16a98 98 0 0 0 10 0 21.91 21.91 0 0 0 3.69-1 8.42 8.42 0 0 0 2.77-1.76 5.38 5.38 0 0 0 1.14-2.58 23.13 23.13 0 0 0 .07-3.11 29.56 29.56 0 0 0-.43-3.35 15.34 15.34 0 0 1-.2-3.47 16.34 16.34 0 0 1 .76-3.47c.34-1 .82-2.51 1.06-3.46s.56-2.51.7-3.46a11.25 11.25 0 0 0-.13-3.46 14.22 14.22 0 0 0-1.49-3.37 18.42 18.42 0 0 1-1.56-3.47 14.46 14.46 0 0 1-.51-3.53 29.12 29.12 0 0 1 .26-3.47 31 31 0 0 1 .76-3.47c.28-1 .65-2.51.83-3.46s.37-2.51.44-3.46a28.46 28.46 0 0 0 0-3.46 29.47 29.47 0 0 0-.52-3.47c-.21-1-.67-4.85-1-8.67a162.11 162.11 0 0 1-.22-16.92z"/></svg>