<svg xmlns="http://www.w3.org/2000/svg" width="165" height="200" viewBox="0 0 165 200"><title>_</title><path d="M10.38 146.83a1.8 1.8 0 0 0 .33.9 5.17 5.17 0 0 0 1.67.87 22.5 22.5 0 0 0 3.09.63 26 26 0 0 0 2.67 0c2.21 0 5.28-.18 8.2-.35a45 45 0 0 0 9.28-1.24 6.61 6.61 0 0 0 .67-2.26c.11-1.14.19-3.07.18-4.3s-.13-3.34-.27-4.67a30.47 30.47 0 0 1 0-5.3 32.45 32.45 0 0 1 1.13-5.28c.43-1.34 1-3.52 1.32-4.86s.68-3.52.85-4.85a18.43 18.43 0 0 0 0-4.21 12.93 12.93 0 0 0-1.15-3.44 8.88 8.88 0 0 1-1.1-4.09c.08-1.63 2.21-4.31 3.33-5.51a66.3 66.3 0 0 1 5.27-5c.28-.23 2.79-2.22 4.5-2.06a5.5 5.5 0 0 1 3.15 1.8c.5.6 1.34 1.39 1.77 1.83a9 9 0 0 0 1.23 1 6 6 0 0 1 1.66 1.54 10.41 10.41 0 0 1 1.1 2.2l.1.25c.33.81 1.12 2.47 1.86 4a17.73 17.73 0 0 1 1.86 6.1 18.5 18.5 0 0 1-.85 5.27 18.61 18.61 0 0 0-.78 4.68 18.49 18.49 0 0 0 .74 4.68 37.61 37.61 0 0 1 1.22 5.4 68.8 68.8 0 0 1 .27 7.76c0 2.64 0 5.84.17 7a7.11 7.11 0 0 0 .87 2.66 2.56 2.56 0 0 0 1.41.74c.79.07 2.23.09 3.15.06.6 0 1.55-.1 2.49-.2l1.15-.14a32.76 32.76 0 0 1 4.25-.23 32.15 32.15 0 0 1 4.25.46c1 .2 2.73.43 3.7.5a31.28 31.28 0 0 0 3.42 0 2.28 2.28 0 0 0 1.38-.64 5.74 5.74 0 0 0 .4-2.55 32.09 32.09 0 0 1 .16-5 38.46 38.46 0 0 1 1.08-5.12c.39-1.31 1.11-4.66 1.58-7.32a59.6 59.6 0 0 0 .88-7.23 44.45 44.45 0 0 0-.28-4.79c-.16-1.33-.52-3.33-.79-4.47a33 33 0 0 0-1.15-3.72 11.6 11.6 0 0 1-.77-4c0-1.43 1.51-4.55 2.48-6.3.25-.46 2.52-4.47 4.08-5.21a7.54 7.54 0 0 1 3.63-.52 16.18 16.18 0 0 0 2.94 0 16.58 16.58 0 0 0 2.89-.67 6 6 0 0 1 3.68-.14 4.86 4.86 0 0 1 2.46 2.62c.27.69 1.09 2.42 1.78 3.76a17.25 17.25 0 0 1 1 2.31 9.4 9.4 0 0 1 .55 2.47 14.62 14.62 0 0 1-.64 4 11.28 11.28 0 0 0-.34 3.6 19.43 19.43 0 0 0 1.15 4.4 24.73 24.73 0 0 1 1.41 5.54c.19 1.79-.41 7.95-1.06 12.84l-1 7.09c-.71 5.32-.65 8.9-.45 9.87a3.87 3.87 0 0 0 2.12 0 21.63 21.63 0 0 1 4.84-.63h.45c.33 0 .7 0 1.1.1a16.11 16.11 0 0 1 3.69.95 9.63 9.63 0 0 0 3.38.68 10.51 10.51 0 0 0 3.41-.85A17.54 17.54 0 0 1 139 149a16.39 16.39 0 0 1 4.58.2 5 5 0 0 0 2.13 0 1.69 1.69 0 0 0 .37-.9 17.87 17.87 0 0 0-.09-2.81c-.09-.67-.7-3.22-1.43-5.79-.48-1.68-1.28-5.25-.92-6.73a11.87 11.87 0 0 1 1.67-3.5 6.11 6.11 0 0 0 .95-2.26 5 5 0 0 0-.46-2.14 13.78 13.78 0 0 1-1.17-3.43 28 28 0 0 1 .57-6.48 32.94 32.94 0 0 0 .64-5.55 12.59 12.59 0 0 0-.64-2.6 12.34 12.34 0 0 1-.69-3.7 16.49 16.49 0 0 1 .59-4 18.22 18.22 0 0 0 .58-3.41 17.1 17.1 0 0 0-.24-3.36 33.12 33.12 0 0 0-.85-3.29 24.27 24.27 0 0 0-1.16-2.79c-.37-.72-1-1.88-1.46-2.54-.28-.44-1.19-1.65-2.25-3l-1.25-1.57a24 24 0 0 0-3.47-3.7 7.82 7.82 0 0 0-2.17-.66 11.58 11.58 0 0 1-3.51-1.16 18.77 18.77 0 0 1-3.32-2.46 10.84 10.84 0 0 0-2.76-1.8 9.11 9.11 0 0 0-3-.49c-1.13 0-4 0-6.39-.2a23.68 23.68 0 0 0-5.74.24 11 11 0 0 0-3.09 1.65 34.32 34.32 0 0 1-3.68 2.54 33.18 33.18 0 0 1-4 1.9 15.26 15.26 0 0 0-3.13 1.73 14 14 0 0 0-2.37 2.5 8.06 8.06 0 0 1-.94 1.11A5.91 5.91 0 0 1 88.63 82a4.7 4.7 0 0 1-3.77-.73 14.82 14.82 0 0 1-2.62-2.53A17.2 17.2 0 0 1 81.09 77c-.35-.6-.67-1.19-.9-1.68A8.09 8.09 0 0 0 78.37 73a38.28 38.28 0 0 0-7.59-2.63 68.72 68.72 0 0 0-8.71-1.84 20.67 20.67 0 0 0-4.12.29A18.83 18.83 0 0 0 54.23 70a17.35 17.35 0 0 0-3.15 2.1 40.25 40.25 0 0 1-3.4 2.64 35.06 35.06 0 0 1-3.57 2.06c-.3.15-.66.34-1 .57a17 17 0 0 0-1.85 1.27 18.12 18.12 0 0 0-2.38 2.48 8.58 8.58 0 0 1-2.58 2.32 2.2 2.2 0 0 1-1.72-.06 2.59 2.59 0 0 1-1.34-1.48 8 8 0 0 1-.44-2.29 6.16 6.16 0 0 1 .44-2.21 3.73 3.73 0 0 0 .12-.4 3.8 3.8 0 0 0 .12-.58 4.09 4.09 0 0 0-.08-1 5.87 5.87 0 0 1 .1-2.54 14.21 14.21 0 0 1 .95-2.36c-1.64.16-4.63.59-8.38 1.3-3.94.74-10.36 1.78-11.91 1.62a27.64 27.64 0 0 1-4.16-.9 4.25 4.25 0 0 0-1.29-.17 20.16 20.16 0 0 0 .08 4.48 36.39 36.39 0 0 1 .25 7.4A18.13 18.13 0 0 1 7.81 88a14.3 14.3 0 0 0-1 3 30.79 30.79 0 0 0 .56 6.22c.47 2.82.9 5.92.95 6.9a27.67 27.67 0 0 1-.11 3.6 25.8 25.8 0 0 0-.11 3.14 26.31 26.31 0 0 0 .37 3.14 25.27 25.27 0 0 1 .37 3.62 24.94 24.94 0 0 1-.27 3.63 11.65 11.65 0 0 0 0 2.9 13.57 13.57 0 0 0 .9 3 10.26 10.26 0 0 1 .85 4 10.72 10.72 0 0 1-1.13 4 8.28 8.28 0 0 0-.81 2.74 7.61 7.61 0 0 0 .51 2.7 25.87 25.87 0 0 1 1.11 3.29 13.34 13.34 0 0 1 .38 2.95z"/><path d="M89 78.76a23.71 23.71 0 0 0-5.17-2l-1.46-.44a16 16 0 0 0 1 1.57 13.3 13.3 0 0 0 2.31 2.23 3.25 3.25 0 0 0 2.46.52 4.57 4.57 0 0 0 1.57-1.11 6.65 6.65 0 0 0-.72-.7zM57.85 100.63a8.94 8.94 0 0 0-.91-1.83 4.49 4.49 0 0 0-1.18-1.11 10.35 10.35 0 0 1-1.5-1.15c-.46-.43-1.31-1.31-1.87-2a4 4 0 0 0-2.17-1.29A7 7 0 0 0 46.81 95a64.74 64.74 0 0 0-5.12 4.88c-1.57 1.67-2.89 3.72-2.92 4.55a7.6 7.6 0 0 0 .91 3.3 14.34 14.34 0 0 1 1.32 3.95 20 20 0 0 1 0 4.63c-.18 1.37-.57 3.61-.88 5s-.92 3.61-1.36 5a30.72 30.72 0 0 0-1.07 5 28.74 28.74 0 0 0 0 5c.14 1.37.26 3.54.27 4.81s-.07 3.28-.19 4.46a7.18 7.18 0 0 1-1.1 3.22c-.49.59-5.1 1.33-10.25 1.63-3.08.18-6.11.31-8.26.35 0 .16.09.3.12.43s.08.37.12.56a11.38 11.38 0 0 1 .2 2 3.17 3.17 0 0 0 .74 2 6.28 6.28 0 0 0 2.31 1.23 24 24 0 0 0 3.34.68c1 .12 6 0 11.14-.34s9.76-1 10.25-1.63a7.18 7.18 0 0 0 1.1-3.22c.12-1.18.2-3.19.19-4.46s-.13-3.44-.27-4.81a28.74 28.74 0 0 1 0-5 30.72 30.72 0 0 1 1.07-5c.44-1.37 1-3.61 1.36-5s.7-3.61.88-5a20 20 0 0 0 0-4.63 14.34 14.34 0 0 0-1.32-3.93 7.6 7.6 0 0 1-.91-3.3c0-.83 1.35-2.88 2.92-4.55a64.74 64.74 0 0 1 5.12-4.81c.2-.16.4-.31.61-.45s.57-.39.85-.55zM110.79 100.74a18 18 0 0 0 2.74 0h.54l.49-.08a15.78 15.78 0 0 0-.88-2.1c-.72-1.4-1.55-3.15-1.85-3.9a3.41 3.41 0 0 0-1.6-1.76 4.69 4.69 0 0 0-2.65.15 18.11 18.11 0 0 1-3.21.74 17.74 17.74 0 0 1-3.28 0 6.24 6.24 0 0 0-2.83.38c-.65.31-2.18 2.37-3.42 4.59a19.27 19.27 0 0 0-2.29 5.61 10.23 10.23 0 0 0 .66 3.38 34.51 34.51 0 0 1 1.22 3.93c.28 1.18.65 3.26.82 4.63a46.5 46.5 0 0 1 .29 5 60.16 60.16 0 0 1-.91 7.48c-.49 2.74-1.22 6.11-1.62 7.48a36.86 36.86 0 0 0-1 4.88 30.36 30.36 0 0 0-.15 4.67 6.77 6.77 0 0 1-.65 3.48 3.66 3.66 0 0 1-2.54 1.3 32.67 32.67 0 0 1-3.62 0c-1-.08-2.77-.31-3.87-.52a30.15 30.15 0 0 0-4-.44 29.73 29.73 0 0 0-4 .22l-1.2.14v1c0 .56.06 1 .1 1.37a8.27 8.27 0 0 0 1.17 3.4 4 4 0 0 0 2.46 1.23 32.54 32.54 0 0 0 3.34.06c1 0 2.68-.19 3.78-.34a29.73 29.73 0 0 1 4-.22 30.15 30.15 0 0 1 4 .44c1.1.21 2.84.45 3.87.52a32.67 32.67 0 0 0 3.62 0 3.66 3.66 0 0 0 2.54-1.3 6.77 6.77 0 0 0 .65-3.48 30.36 30.36 0 0 1 .15-4.67 36.86 36.86 0 0 1 1-4.88c.41-1.37 1.14-4.74 1.62-7.48a60.16 60.16 0 0 0 .91-7.48 46.5 46.5 0 0 0-.29-5c-.17-1.37-.54-3.46-.82-4.63a34.51 34.51 0 0 0-1.22-3.93 10.23 10.23 0 0 1-.66-3.37 19.27 19.27 0 0 1 2.29-5.61c1.23-2.22 2.77-4.28 3.42-4.59a6.24 6.24 0 0 1 2.88-.3zM156.28 137.27a7.47 7.47 0 0 0 1.22-3 6.34 6.34 0 0 0-.62-3 12.28 12.28 0 0 1-1-3 26.88 26.88 0 0 1 .56-6 33.06 33.06 0 0 0 .66-6 13.92 13.92 0 0 0-.73-3 10.83 10.83 0 0 1-.59-3.18 15 15 0 0 1 .53-3.57 19.73 19.73 0 0 0 .64-3.75 18.61 18.61 0 0 0-.27-3.72 34.45 34.45 0 0 0-.9-3.47 25.74 25.74 0 0 0-1.25-3c-.39-.76-1.08-2-1.53-2.67s-2.07-2.82-3.61-4.7a23 23 0 0 0-4-4.07 9.21 9.21 0 0 0-2.69-.83h-.15a9.63 9.63 0 0 1-1.61-.44c1.07 1.36 2 2.61 2.34 3.12.45.7 1.14 1.9 1.53 2.67a25.74 25.74 0 0 1 1.25 3 34.45 34.45 0 0 1 .9 3.47 18.61 18.61 0 0 1 .27 3.72 19.73 19.73 0 0 1-.64 3.75 15 15 0 0 0-.53 3.57 10.83 10.83 0 0 0 .59 3.18 13.92 13.92 0 0 1 .73 3 33.06 33.06 0 0 1-.66 6 26.88 26.88 0 0 0-.56 6 12.28 12.28 0 0 0 1 3 6.34 6.34 0 0 1 .62 3 7.47 7.47 0 0 1-1.22 3 10.49 10.49 0 0 0-1.44 3c-.2.82.21 3.51.9 6s1.36 5.16 1.47 6a19.32 19.32 0 0 1 .1 3.1 2.8 2.8 0 0 1-1.18 2.13 5.76 5.76 0 0 1-3.14.13 14.82 14.82 0 0 0-4.09-.18 16.09 16.09 0 0 0-4 1.19 12 12 0 0 1-4 1 11.62 11.62 0 0 1-4-.8 14.63 14.63 0 0 0-3.31-.84c0 .34 0 .67-.07 1-.19 3.15-.08 5.52.35 5.94a4.39 4.39 0 0 0 3.69.49 19.61 19.61 0 0 1 4.78-.58 14.63 14.63 0 0 1 4.26.93 11.62 11.62 0 0 0 4 .8 12 12 0 0 0 4-1 16.09 16.09 0 0 1 4-1.19 14.82 14.82 0 0 1 4.09.18 5.76 5.76 0 0 0 3.14-.13 2.8 2.8 0 0 0 1.18-2.13 19.32 19.32 0 0 0-.1-3.1c-.11-.84-.77-3.54-1.47-6s-1.1-5.15-.9-6a10.49 10.49 0 0 1 1.46-3.02zM35.89 77.17l-.37.07-.71.13a5.37 5.37 0 0 1-.22.65 4.69 4.69 0 0 0-.32 1.6 6.6 6.6 0 0 0 .35 1.8.9.9 0 0 0 1.1.65 6.83 6.83 0 0 0 1.93-1.83 19.69 19.69 0 0 1 2.62-2.73 18.55 18.55 0 0 1 2-1.39c-.69.09-1.47.21-2.3.34-1.23.2-2.62.44-4.08.71z"/></svg>