<svg xmlns="http://www.w3.org/2000/svg" width="113" height="200" viewBox="0 0 113 200"><title>_</title><path d="M64.43 149.31a18 18 0 0 0 6 .19l1.73-.14c3.84-.25 9.07-.36 12.84-.17a44.91 44.91 0 0 0 8.4-.19 2.76 2.76 0 0 0 .44-1c.1-.78.21-2.09.23-2.88s0-2.1 0-2.87-.07-2.31 0-3.18.17-2.3.3-3.18a10.61 10.61 0 0 0 0-2.56 12.26 12.26 0 0 0-.83-2.62 12.43 12.43 0 0 1-1-3.52 11.39 11.39 0 0 1 .32-3.57c.22-.78.5-2.09.62-2.85s.21-3.21.21-5.81.07-5.32.16-6.21a27.76 27.76 0 0 1 .59-3.23 9.07 9.07 0 0 0 .14-2.63 14.06 14.06 0 0 0-.88-3.09 28.23 28.23 0 0 1-1.31-3.93 25.66 25.66 0 0 1-.55-4 16.32 16.32 0 0 0-.48-3.09 11.66 11.66 0 0 0-1.12-2.49c-.49-.75-1.52-2.63-2.3-4.18s-1.69-3.19-2.12-3.83c-.18-.28-.44-.62-.71-1s-.74-.91-1-1.2c-.53-.57-2-2-3.28-3a11.37 11.37 0 0 0-3.28-2 10 10 0 0 0-2.93 0 18 18 0 0 1-4.13.13 16.57 16.57 0 0 1-3.93-1 10.87 10.87 0 0 0-3.06-.67A41.58 41.58 0 0 0 56.16 71c-3.46.93-6.65 1.93-7.45 2.29a28.25 28.25 0 0 0-3.3 1.71 24.91 24.91 0 0 0-2.84 2.22c-.27.26-.68.68-1.13 1.2-.59.67-1.17 1.37-1.58 1.92-1.44 1.94-2 2.73-3.27 2l-1.17-.74.67-1.28a1.51 1.51 0 0 0 .06-.37 4.07 4.07 0 0 0-.23-.95 7.48 7.48 0 0 1-.32-1.08 6.75 6.75 0 0 1-.15-1 7.43 7.43 0 0 1 .19-2.05 9.32 9.32 0 0 0 .21-1.47 17.34 17.34 0 0 0-.05-2 .51.51 0 0 0-.16-.23 7.11 7.11 0 0 0-2.18.22 28 28 0 0 1-4.18.69 63.21 63.21 0 0 1-7.67-.5 79.7 79.7 0 0 0-9.15-.5 11 11 0 0 0-3.65.63 3.22 3.22 0 0 0-.14 1.52A27.1 27.1 0 0 1 9 77.15a24.19 24.19 0 0 1-.36 3.72 21.32 21.32 0 0 0-.28 6.3c.09.88.46 3.13.81 4.91a42.58 42.58 0 0 1 .73 5.29 68.27 68.27 0 0 1-.61 7 61.08 61.08 0 0 0-.56 6.47A29.67 29.67 0 0 0 9.1 114a26.27 26.27 0 0 1 .34 3.61 69.29 69.29 0 0 1-.73 7A51.83 51.83 0 0 0 8.1 131a20.84 20.84 0 0 0 .48 3 14.69 14.69 0 0 1 .35 3.82 15.56 15.56 0 0 1-.85 3.8 17.07 17.07 0 0 0-.79 3.19 20.89 20.89 0 0 0-.07 3.55 3.63 3.63 0 0 0 .7 1.78 37.71 37.71 0 0 0 7.48-.14c.88-.07 1.78-.16 2.7-.26l1-.11a112.88 112.88 0 0 1 12.39-.91 40.39 40.39 0 0 1 4.65.79 2.75 2.75 0 0 0 1.75-.11 6.34 6.34 0 0 0 .12-2.69 55 55 0 0 1-.54-5.67 47.86 47.86 0 0 1 .2-5.46c.15-1.39.29-3.64.32-5s0-3.62-.12-5-.14-3.83-.1-5.29.46-5.53.92-9.07c.49-3.75.82-7.06.83-7.8a29.21 29.21 0 0 0-.17-3 8.56 8.56 0 0 1 .37-3.56A7.52 7.52 0 0 1 41.76 94a13.6 13.6 0 0 1 2.92-1.71 16.52 16.52 0 0 1 3.45-.88 20.69 20.69 0 0 1 3.53-.11A18 18 0 0 1 55 92a11.61 11.61 0 0 1 2.92 1.41A8.43 8.43 0 0 1 60 95.63a19.19 19.19 0 0 0 1.32 1.89c.26.31.67.78 1.12 1.25l.56.64a6.09 6.09 0 0 1 1.67 3.13 7.42 7.42 0 0 1-.62 3.6 12.93 12.93 0 0 0-.78 3.15c-.1.93 0 6 .26 11.85l.32 6.69c.26 5.56.34 12.61.18 15.72a20.73 20.73 0 0 0 .4 5.76z"/><path d="M59.94 99.77H61.33c-.44-.47-.9-1-1.2-1.34a20.7 20.7 0 0 1-1.44-2.07A7.08 7.08 0 0 0 57 94.61a10.26 10.26 0 0 0-2.48-1.19 16.47 16.47 0 0 0-3-.56 19.34 19.34 0 0 0-3.23.1 15 15 0 0 0-3.07.78 12 12 0 0 0-2.54 1.49 6.13 6.13 0 0 0-1.61 2.18 7.21 7.21 0 0 0-.28 2.85 30.82 30.82 0 0 1 .18 3.22c0 .9-.38 4.49-.84 8s-.86 7.51-.91 8.93 0 3.73.09 5.14.15 3.73.12 5.14-.18 3.73-.33 5.14a46.1 46.1 0 0 0-.19 5.25 53 53 0 0 0 .52 5.48 6.07 6.07 0 0 1-.48 3.92 3.57 3.57 0 0 1-3.22.57 38.59 38.59 0 0 0-4.44-.75 113.68 113.68 0 0 0-12.08.91l-1 .11c-.93.1-1.85.19-2.74.27v.06c0 .27-.06.6-.08 1a23.08 23.08 0 0 0 0 2.9 4.65 4.65 0 0 0 1.38 2.94c.67.51 5.69.43 11.16-.18l1-.11a113.68 113.68 0 0 1 12.07-1 38.59 38.59 0 0 1 4.44.75 3.57 3.57 0 0 0 3.22-.57 6.07 6.07 0 0 0 .48-3.92 53 53 0 0 1-.52-5.48 46.1 46.1 0 0 1 .19-5.25c.15-1.41.3-3.73.33-5.14s0-3.73-.12-5.14-.14-3.73-.09-5.14.45-5.43.91-8.93.83-7.09.84-8a30.82 30.82 0 0 0-.18-3.22 7.21 7.21 0 0 1 .28-2.85 6.13 6.13 0 0 1 1.61-2.18 12 12 0 0 1 2.61-1.46 15 15 0 0 1 3-.78 18.71 18.71 0 0 1 1.94-.12zM80.29 157.94a126.84 126.84 0 0 1 14.34-.31c4.4.18 8.5 0 9.11-.33a3.29 3.29 0 0 0 1.3-2.16c.11-.83.22-2.19.25-3s0-2.19-.05-3-.07-2.19 0-3 .17-2.19.29-3a11.86 11.86 0 0 0 0-3 13.66 13.66 0 0 0-1-3 11.06 11.06 0 0 1-.86-3 10 10 0 0 1 .27-3c.23-.83.52-2.19.65-3a59.56 59.56 0 0 0 .23-6c0-2.49.06-5.21.15-6a26.36 26.36 0 0 1 .55-3 10.41 10.41 0 0 0 .18-3.18 15.44 15.44 0 0 0-1-3.5 26.53 26.53 0 0 1-1.22-3.68 24 24 0 0 1-.51-3.71 17.59 17.59 0 0 0-.53-3.45 13.12 13.12 0 0 0-1.3-2.89c-.46-.72-1.46-2.54-2.22-4s-1.75-3.3-2.21-4A22.41 22.41 0 0 0 94.84 82c-.57-.61-2.09-2-3.4-3.14a12.45 12.45 0 0 0-3.86-2.35h-.08a7.84 7.84 0 0 0-1.28-.13c.29.38.57.75.77 1.05.46.69 1.45 2.48 2.21 4s1.76 3.33 2.22 4a13.12 13.12 0 0 1 1.3 2.89 17.59 17.59 0 0 1 .53 3.45 24 24 0 0 0 .51 3.71A26.53 26.53 0 0 0 95 99.19a15.44 15.44 0 0 1 1 3.5 10.41 10.41 0 0 1-.18 3.18 26.36 26.36 0 0 0-.55 3c-.09.83-.16 3.55-.15 6a59.56 59.56 0 0 1-.23 6c-.13.83-.42 2.19-.65 3a10 10 0 0 0-.27 3 11.06 11.06 0 0 0 .86 3 13.66 13.66 0 0 1 1 3 11.86 11.86 0 0 1 0 3c-.12.83-.25 2.19-.29 3s0 2.19 0 3 .08 2.19.05 3-.14 2.19-.25 3a3.29 3.29 0 0 1-1.3 2.16c-.6.36-4.7.51-9.11.33-3.77-.15-9-.07-12.66.17v1c0 2.53.27 4.82.73 5.41s3.81 1.34 7.29 1zM38.66 79.44c.46-.62 1.07-1.36 1.66-2-.53.08-1 .14-1.42.16h-1.79a6.06 6.06 0 0 0 .25.85 5.36 5.36 0 0 1 .34 1.43 2.64 2.64 0 0 1-.28 1.12 6.44 6.44 0 0 0 1.24-1.56z"/></svg>