<svg xmlns="http://www.w3.org/2000/svg" width="200" height="200" viewBox="0 0 200 200"><title>_</title><path d="M117.69,108.93a5.63,5.63,0,0,1,1.52,2.84,7,7,0,0,1-.58,3.33,13.32,13.32,0,0,0-.82,3.3c-0.1,1,0,6,.26,11.93l0.32,6.69c0.26,5.54.34,12.57,0.18,15.67a18.32,18.32,0,0,0,.47,6.17c0.53,0.3,3,.65,6.45.31l1.71-.14c3.77-.25,9-0.32,12.77-0.17a43.19,43.19,0,0,0,8.62-.22,2.43,2.43,0,0,0,.76-1.4c0.1-.79.21-2.13,0.24-2.92s0-2.13,0-2.92-0.07-2.27,0-3.13,0.17-2.26.3-3.13a11,11,0,0,0,0-2.72,12.62,12.62,0,0,0-.87-2.76,12,12,0,0,1-.95-3.35,11,11,0,0,1,.3-3.39c0.22-.79.51-2.12,0.63-2.91s0.22-3.23.21-5.89,0.07-5.28.16-6.15a27.28,27.28,0,0,1,.57-3.16A9.52,9.52,0,0,0,150,112a14.4,14.4,0,0,0-.92-3.23,27.67,27.67,0,0,1-1.28-3.85,25.12,25.12,0,0,1-.54-3.9,16.67,16.67,0,0,0-.5-3.21,12.07,12.07,0,0,0-1.18-2.62c-0.48-.75-1.5-2.6-2.27-4.14s-1.72-3.23-2.15-3.88c-0.19-.29-0.45-0.64-0.73-1s-0.76-.94-1-1.23c-0.54-.58-2.06-2-3.32-3.06a11.55,11.55,0,0,0-3.5-2.15,10.51,10.51,0,0,0-3.12,0,17.34,17.34,0,0,1-4,.13,16,16,0,0,1-3.79-1,11.32,11.32,0,0,0-3.24-.71A42.21,42.21,0,0,0,111,79.61c-3.49.93-6.71,2-7.53,2.32a28.9,28.9,0,0,0-3.3,1.8A25.65,25.65,0,0,0,97.22,86c-0.29.27-.7,0.71-1.16,1.23-0.6.68-1.18,1.39-1.6,2C93,91.11,92.7,91.56,91.86,91l-0.78-.5,0.46-.88A1.76,1.76,0,0,0,91.65,89a4.47,4.47,0,0,0-.27-1.1,7,7,0,0,1-.29-1,6.18,6.18,0,0,1-.14-0.88,7,7,0,0,1,.18-1.89,9.75,9.75,0,0,0,.22-1.57,17.87,17.87,0,0,0-.06-2,0.9,0.9,0,0,0-.46-0.64,6.52,6.52,0,0,0-2.5.2,27.26,27.26,0,0,1-4.09.67,63.37,63.37,0,0,1-7.58-.49,80.45,80.45,0,0,0-9.22-.5,9.77,9.77,0,0,0-4,.77,3.27,3.27,0,0,0-.27,2,26.53,26.53,0,0,1,.32,3.76,23.63,23.63,0,0,1-.35,3.63,27.35,27.35,0,0,0-.38,3.23,26.94,26.94,0,0,0,.1,3.22c0.09,0.89.47,3.16,0.82,5a41.94,41.94,0,0,1,.72,5.21,67.79,67.79,0,0,1-.6,6.88,60,60,0,0,0-.56,6.55,30.22,30.22,0,0,0,.36,3.23,25.68,25.68,0,0,1,.33,3.53,68.92,68.92,0,0,1-.72,6.88,51.16,51.16,0,0,0-.62,6.52,21.54,21.54,0,0,0,.49,3.18,14.13,14.13,0,0,1,.33,3.67,14.93,14.93,0,0,1-.81,3.65,17.72,17.72,0,0,0-.82,3.3,21.41,21.41,0,0,0-.07,3.65,3.88,3.88,0,0,0,.94,2.19c0.59,0.19,3.32.29,7.78-.08,0.88-.07,1.79-0.16,2.71-0.26l1-.11a113.26,113.26,0,0,1,12.29-.91,39.61,39.61,0,0,1,4.58.78A2.87,2.87,0,0,0,93.2,159a5.57,5.57,0,0,0,.27-3.13,54.28,54.28,0,0,1-.54-5.6,47.1,47.1,0,0,1,.2-5.39c0.15-1.39.29-3.66,0.32-5.05s0-3.66-.12-5.05-0.14-3.79-.1-5.24,0.45-5.49.91-9c0.49-3.77.82-7.11,0.83-7.87a29.79,29.79,0,0,0-.17-3.1,8.13,8.13,0,0,1,.34-3.32,7.06,7.06,0,0,1,1.92-2.6,13,13,0,0,1,2.8-1.64,15.88,15.88,0,0,1,3.32-.85,20.21,20.21,0,0,1,3.43-.1,17.32,17.32,0,0,1,3.23.61,11.2,11.2,0,0,1,2.77,1.34,8,8,0,0,1,1.92,2.09A19.83,19.83,0,0,0,115.9,107c0.26,0.32.69,0.8,1.14,1.28Z" fill="#231f20"/><path d="M116.26,108.95h0.06c-0.44-.47-0.9-1-1.2-1.34a20.72,20.72,0,0,1-1.44-2.07,7.08,7.08,0,0,0-1.65-1.79,10.26,10.26,0,0,0-2.48-1.19,16.47,16.47,0,0,0-3-.56,19.34,19.34,0,0,0-3.23.1,15,15,0,0,0-3.07.78,12,12,0,0,0-2.54,1.49,6.13,6.13,0,0,0-1.61,2.18,7.21,7.21,0,0,0-.28,2.85,30.79,30.79,0,0,1,.18,3.22c0,0.9-.38,4.49-0.84,8s-0.86,7.51-.91,8.93,0,3.73.09,5.14,0.15,3.73.12,5.14-0.18,3.73-.33,5.14a46.13,46.13,0,0,0-.19,5.25,53,53,0,0,0,.52,5.48A6.07,6.07,0,0,1,94,159.6a3.57,3.57,0,0,1-3.22.57,38.59,38.59,0,0,0-4.44-.75,113.67,113.67,0,0,0-12.08.91l-1,.11c-0.93.1-1.85,0.19-2.74,0.27v0.06c0,0.27-.06.6-0.08,1a23.08,23.08,0,0,0,0,2.9,4.65,4.65,0,0,0,1.38,2.94c0.67,0.51,5.69.43,11.16-.18l1-.11A113.67,113.67,0,0,1,96,166.36a38.59,38.59,0,0,1,4.44.75,3.57,3.57,0,0,0,3.22-.57,6.07,6.07,0,0,0,.48-3.92,53,53,0,0,1-.52-5.48,46.13,46.13,0,0,1,.19-5.25c0.15-1.41.3-3.73,0.33-5.14s0-3.73-.12-5.14-0.14-3.73-.09-5.14,0.45-5.43.91-8.93,0.83-7.09.84-8a30.79,30.79,0,0,0-.18-3.22,7.21,7.21,0,0,1,.28-2.85,6.13,6.13,0,0,1,1.61-2.18,12,12,0,0,1,2.54-1.49A15,15,0,0,1,113,109a18.71,18.71,0,0,1,1.9-.12C115.42,108.92,115.89,108.92,116.26,108.95Z" fill="#231f20"/><path d="M159.58,137.09a59.56,59.56,0,0,0,.23-6c0-2.49.06-5.21,0.15-6a26.39,26.39,0,0,1,.55-3,10.41,10.41,0,0,0,.18-3.18,15.44,15.44,0,0,0-1-3.5,26.5,26.5,0,0,1-1.22-3.68,24,24,0,0,1-.51-3.71,17.6,17.6,0,0,0-.53-3.45,13.14,13.14,0,0,0-1.3-2.89c-0.46-.72-1.46-2.54-2.22-4s-1.75-3.3-2.21-4a22.39,22.39,0,0,0-1.86-2.35c-0.57-.61-2.09-2-3.4-3.14a12.45,12.45,0,0,0-3.86-2.35l-0.08,0a7.84,7.84,0,0,0-1.28-.13c0.29,0.38.57,0.75,0.77,1.05,0.46,0.69,1.45,2.48,2.21,4s1.76,3.33,2.22,4a13.14,13.14,0,0,1,1.3,2.89,17.6,17.6,0,0,1,.53,3.45,24,24,0,0,0,.51,3.71,26.5,26.5,0,0,0,1.22,3.68,15.44,15.44,0,0,1,1,3.5,10.41,10.41,0,0,1-.18,3.18,26.39,26.39,0,0,0-.55,3c-0.09.83-.16,3.55-0.15,6a59.56,59.56,0,0,1-.23,6c-0.13.83-.42,2.19-0.65,3a10,10,0,0,0-.27,3,11.05,11.05,0,0,0,.86,3,13.66,13.66,0,0,1,1,3,11.86,11.86,0,0,1,0,3c-0.12.83-.25,2.19-0.29,3s0,2.19,0,3,0.08,2.19.05,3-0.14,2.19-.25,3a3.29,3.29,0,0,1-1.3,2.16c-0.6.36-4.7,0.51-9.11,0.33-3.77-.15-9-0.07-12.66.17,0,0.34,0,.67,0,1,0,2.53.27,4.82,0.73,5.41s3.84,1,7.32.66a126.84,126.84,0,0,1,14.34-.31c4.4,0.18,8.5,0,9.11-.33a3.29,3.29,0,0,0,1.3-2.16c0.11-.83.22-2.19,0.25-3s0-2.19-.05-3-0.07-2.19,0-3,0.17-2.19.29-3a11.86,11.86,0,0,0,0-3,13.66,13.66,0,0,0-1-3,11.05,11.05,0,0,1-.86-3,10,10,0,0,1,.27-3C159.16,139.28,159.45,137.92,159.58,137.09Z" fill="#231f20"/><path d="M92.31,87.57A5.37,5.37,0,0,1,92.65,89a2.64,2.64,0,0,1-.24,1.13,6.45,6.45,0,0,0,1.24-1.53c0.46-.62,1.07-1.36,1.66-2-0.53.08-1,.14-1.42,0.16H93.11l-1,0A6,6,0,0,0,92.31,87.57Z" fill="#231f20"/></svg>