<svg xmlns="http://www.w3.org/2000/svg" width="200" height="200" viewBox="0 0 200 200"><title>_</title><path d="M135.09 87.21a20.84 20.84 0 0 0-2.81-2.86 42.68 42.68 0 0 0-6.69-3.45 58.1 58.1 0 0 0-6.69-2.53 21.63 21.63 0 0 0-3.12-.33c-.87 0-2.34 0-3.21.13s-2.33.32-3.18.52a29 29 0 0 1-3.39.5 26.14 26.14 0 0 1-3.33 0c-.66-.05-1.68-.09-2.48-.09h-.55c-.82 0-3.63.34-6.16.7a42.87 42.87 0 0 0-6.2 1.25 29.06 29.06 0 0 0-3.4 1.62 37.68 37.68 0 0 0-3.38 2.24c-.77.59-3.85 3.56-7.21 7s-6.21 6.68-6.77 7.47-1.57 2.36-2.05 3.21-1.15 2.19-1.48 3-.81 2.11-1.06 2.92-.59 2.18-.76 3a20 20 0 0 0-.31 3 20.48 20.48 0 0 0 .25 3c.16.92.34 2.39.41 3.28s.11 2.34.1 3.22 0 2.19.08 3 .23 2.17.36 3a17.08 17.08 0 0 0 .76 2.75 17.45 17.45 0 0 0 1.32 2.56c.55.86 2.74 5 4.53 8.5 2.18 4.27 4.34 7.51 4.94 8a11.85 11.85 0 0 0 3.39 1.57 24.16 24.16 0 0 1 3.24 1.17c.37.16.71.32 1 .47a23.78 23.78 0 0 1 3.72 2.56 24.47 24.47 0 0 0 3.04 2.23 14.19 14.19 0 0 0 2.86 1.18c.79.21 2.85.59 4.49.84a36 36 0 0 0 4.46.43 27.77 27.77 0 0 0 3-.25c.81-.12 2.85-.58 4.46-1a21.65 21.65 0 0 1 4.88-.74 13.83 13.83 0 0 1 3.49.75 6.76 6.76 0 0 0 2.64.36 6.19 6.19 0 0 0 2.35-1 19.58 19.58 0 0 1 3.22-1.85 28.23 28.23 0 0 1 3.92-1.29 14.32 14.32 0 0 0 3.47-1.43 14.55 14.55 0 0 0 2.84-2.49c.77-.92 4.11-4.32 7.44-7.58a68.84 68.84 0 0 0 6.74-7.26 28.28 28.28 0 0 0 1.57-6.25 71.89 71.89 0 0 0 .81-8.11 101.58 101.58 0 0 0-1.83-12.9l-1-5.19c-1.13-5.85-2.47-10.29-2.93-10.9a10.89 10.89 0 0 0-2.88-2.23 25.1 25.1 0 0 1-3.76-2.47 24.67 24.67 0 0 1-2.55-2.53c-.23-.25-.43-.49-.6-.7z" fill="#231f20"/><path d="M159.47 118l-1-5.19c-1-5.4-2.45-10.5-3.14-11.34a11.91 11.91 0 0 0-3.18-2.47 23.87 23.87 0 0 1-3.58-2.35 20.46 20.46 0 0 1-1.57-1.48 21.31 21.31 0 0 1-1.45-1.64 19.84 19.84 0 0 0-1.48-1.65 18.5 18.5 0 0 0-1.5-1.38 25.86 25.86 0 0 0-3.57-2.04c-.82-.4-1.69-.82-2.57-1.21a19.14 19.14 0 0 0 6 4.78 11.91 11.91 0 0 1 3.19 2.52c.68.84 2.1 5.94 3.14 11.34l1 5.19a100.59 100.59 0 0 1 1.85 13.11 73.57 73.57 0 0 1-.83 8.25 28.54 28.54 0 0 1-1.68 6.56 67.33 67.33 0 0 1-6.91 7.49c-3.3 3.23-6.62 6.61-7.38 7.51a15.56 15.56 0 0 1-3.08 2.7 15.33 15.33 0 0 1-3.76 1.56 27 27 0 0 0-3.75 1.24 18.74 18.74 0 0 0-3 1.74 7.2 7.2 0 0 1-2.82 1.19 7.79 7.79 0 0 1-3.11-.42 12.91 12.91 0 0 0-3.19-.69 20 20 0 0 0-4.57.71c-1.66.43-3.71.89-4.56 1a28.58 28.58 0 0 1-3.1.26 37.21 37.21 0 0 1-4.63-.44c-1.69-.26-3.76-.65-4.59-.86a15.16 15.16 0 0 1-3.09-1.31 25.32 25.32 0 0 1-3.23-2.34 22.51 22.51 0 0 0-3.54-2.43c-.27-.14-.59-.29-.93-.44.36.6.7 1.15 1 1.65a11.85 11.85 0 0 0 1.86 2.42 12.88 12.88 0 0 0 3.73 1.76l.31.09a23.14 23.14 0 0 1 3.71 1.47l.41.23a23.1 23.1 0 0 1 3.13 2.2 25.32 25.32 0 0 0 3.23 2.34 15.16 15.16 0 0 0 3.09 1.31c.83.22 2.9.61 4.59.86a37.21 37.21 0 0 0 4.63.44 28.58 28.58 0 0 0 3.1-.26c.85-.13 2.91-.59 4.56-1a20 20 0 0 1 4.57-.71 12.91 12.91 0 0 1 3.22.73 7.79 7.79 0 0 0 3.11.42 7.2 7.2 0 0 0 2.82-1.19 18.74 18.74 0 0 1 3-1.74 27 27 0 0 1 3.75-1.24 15.33 15.33 0 0 0 3.76-1.56 15.56 15.56 0 0 0 3.08-2.7c.75-.9 4.07-4.28 7.38-7.51a67.33 67.33 0 0 0 6.91-7.49 28.54 28.54 0 0 0 1.68-6.58 73.57 73.57 0 0 0 .83-8.25 100.59 100.59 0 0 0-1.85-13.16z" fill="#231f20"/></svg>