<svg xmlns="http://www.w3.org/2000/svg" width="112" height="200" viewBox="0 0 112 200"><title>_</title><path d="M7.2 117.86c.06.79.22 2.13.36 2.93a16.47 16.47 0 0 0 .73 2.66 17.18 17.18 0 0 0 1.27 2.47c.57.87 2.76 5 4.56 8.55a40.65 40.65 0 0 0 4.79 7.78 11.42 11.42 0 0 0 3.21 1.51 24.73 24.73 0 0 1 3.31 1.19c.38.17.73.33 1 .49a24.41 24.41 0 0 1 3.82 2.62 23.74 23.74 0 0 0 3 2.18 13.8 13.8 0 0 0 2.75 1.15c.77.2 2.8.58 4.44.83a33.69 33.69 0 0 0 4.38.43 27.33 27.33 0 0 0 2.9-.24c.79-.12 2.81-.57 4.41-1a23.21 23.21 0 0 1 5-.75 14.42 14.42 0 0 1 3.64.79 6.34 6.34 0 0 0 2.39.34 5.67 5.67 0 0 0 2.12-.9 20.22 20.22 0 0 1 3.35-1.89 28.92 28.92 0 0 1 4-1.32 13.94 13.94 0 0 0 3.37-1.4 14.17 14.17 0 0 0 2.72-2.39c.78-.94 4.14-4.35 7.48-7.62a69.64 69.64 0 0 0 6.65-7.15 28.14 28.14 0 0 0 1.46-6.12 71.35 71.35 0 0 0 .81-8 101.21 101.21 0 0 0-1.82-12.8l-1-5.19c-1.17-6-2.49-10.23-2.84-10.69a10.5 10.5 0 0 0-2.7-2.12 25.62 25.62 0 0 1-3.85-2.53 25.1 25.1 0 0 1-2.6-2.59c-.22-.25-.43-.5-.6-.72A20.28 20.28 0 0 0 77 75.58a43.21 43.21 0 0 0-6.6-3.38 58.46 58.46 0 0 0-6.59-2.5 21.13 21.13 0 0 0-3-.32c-.84 0-2.28 0-3.16.13s-2.28.32-3.12.51a29.89 29.89 0 0 1-3.46.52 26.81 26.81 0 0 1-3.41 0c-.63 0-1.63-.08-2.44-.08h-.56c-.8 0-3.59.34-6.1.69a43.39 43.39 0 0 0-6.1 1.22A28.47 28.47 0 0 0 29.13 74a36.86 36.86 0 0 0-3.32 2.2c-.75.58-3.81 3.52-7.15 7s-6.18 6.63-6.72 7.41-1.55 2.33-2 3.17-1.13 2.15-1.45 2.91-.79 2.07-1 2.87-.58 2.14-.75 3a19.48 19.48 0 0 0-.3 2.9 19.8 19.8 0 0 0 .24 2.93c.16.93.35 2.42.42 3.33s.12 2.37.1 3.27-.06 2.08 0 2.87z"/><path d="M104.48 108.87l-1-5.19c-1-5.4-2.45-10.5-3.14-11.34a11.91 11.91 0 0 0-3.19-2.52 23.87 23.87 0 0 1-3.58-2.35A20.46 20.46 0 0 1 92 86a21.28 21.28 0 0 1-1.45-1.64 19.83 19.83 0 0 0-1.48-1.65 18.46 18.46 0 0 0-1.5-1.38A25.85 25.85 0 0 0 84 79.3c-.82-.4-1.69-.82-2.57-1.21a19.14 19.14 0 0 0 6 4.78 11.91 11.91 0 0 1 3.19 2.52c.68.84 2.1 5.94 3.14 11.34l1 5.19A100.61 100.61 0 0 1 96.62 115a73.57 73.57 0 0 1-.83 8.25 28.53 28.53 0 0 1-1.68 6.58 67.33 67.33 0 0 1-6.91 7.49c-3.3 3.23-6.62 6.61-7.38 7.51a15.55 15.55 0 0 1-3.08 2.7 15.33 15.33 0 0 1-3.74 1.58 27 27 0 0 0-3.75 1.24 18.74 18.74 0 0 0-3 1.74 7.19 7.19 0 0 1-2.82 1.19 7.79 7.79 0 0 1-3.11-.42 12.91 12.91 0 0 0-3.19-.69 20 20 0 0 0-4.57.71c-1.66.43-3.71.89-4.56 1a28.58 28.58 0 0 1-3.1.26 37.21 37.21 0 0 1-4.63-.44c-1.69-.26-3.76-.65-4.59-.86a15.16 15.16 0 0 1-3.09-1.31 25.33 25.33 0 0 1-3.23-2.34 22.51 22.51 0 0 0-3.54-2.43c-.27-.14-.59-.29-.93-.44.36.6.7 1.15 1 1.65a11.85 11.85 0 0 0 1.86 2.42 12.89 12.89 0 0 0 3.73 1.76l.31.09a23.15 23.15 0 0 1 3.71 1.47l.41.23a23.1 23.1 0 0 1 3.13 2.2 25.33 25.33 0 0 0 3.23 2.34 15.16 15.16 0 0 0 3.09 1.31c.83.22 2.9.61 4.59.86a37.21 37.21 0 0 0 4.63.44 28.58 28.58 0 0 0 3.1-.26c.85-.13 2.91-.59 4.56-1a20 20 0 0 1 4.57-.71 12.91 12.91 0 0 1 3.19.69 7.79 7.79 0 0 0 3.11.42 7.19 7.19 0 0 0 2.81-1.23 18.74 18.74 0 0 1 3-1.74 27 27 0 0 1 3.75-1.24 15.33 15.33 0 0 0 3.76-1.56 15.55 15.55 0 0 0 3.08-2.7c.75-.9 4.07-4.28 7.38-7.51a67.33 67.33 0 0 0 6.91-7.49 28.53 28.53 0 0 0 1.68-6.58 73.57 73.57 0 0 0 .83-8.25 100.61 100.61 0 0 0-1.83-13.06z"/></svg>