<svg xmlns="http://www.w3.org/2000/svg" width="117" height="200" viewBox="0 0 117 200"><title>_</title><path d="M9.53 151.61a17.75 17.75 0 0 0 .31 3.06c.2 1 .45 2.56.55 3.54s.18 4.08.18 6.91.11 5.68.21 6.33a17.59 17.59 0 0 0 .62 2.55 3.64 3.64 0 0 0 1 1.36 6.31 6.31 0 0 0 2.08.79c.85.14 2.37.3 3.32.35h4.68a27.26 27.26 0 0 1 3.32.2 29.1 29.1 0 0 1 4.27 1 14.24 14.24 0 0 0 3.45.6 11.71 11.71 0 0 0 3.18-.52 5.21 5.21 0 0 0 2-1.4 5.93 5.93 0 0 0 .77-2.55c.05-1.05-.12-5.92-.38-10.63a83.25 83.25 0 0 1-.09-11.35 22.92 22.92 0 0 1 1.46-4.63 10.5 10.5 0 0 1 2.21-3.28 1.79 1.79 0 0 1 1.41-.33c1.44.25 3 2.32 3.77 3.53a24.44 24.44 0 0 0 3.07 4 8.91 8.91 0 0 0 1.85 1l.36.14a23.36 23.36 0 0 0 2.83.65c1.14.12 3.87.16 6.43.1a58.25 58.25 0 0 0 6.56-.43 25.82 25.82 0 0 0 3.15-.91 19.17 19.17 0 0 0 2.9-1.48 20.62 20.62 0 0 0 2.61-2 35.48 35.48 0 0 1 2.93-2.46 32.92 32.92 0 0 1 3.16-2 25.94 25.94 0 0 0 2.82-1.83 32.92 32.92 0 0 0 2.74-2.42 17 17 0 0 0 2.16-2.81 17.21 17.21 0 0 0 1.37-3.28 26.27 26.27 0 0 1 1.49-3.91 22.55 22.55 0 0 1 2.16-3.4 11.4 11.4 0 0 0 1.48-2.61 10.42 10.42 0 0 0 .48-2.85c0-.9-.09-2.42-.19-3.32s-.37-2.4-.58-3.28a34.75 34.75 0 0 1-.62-3.75c-.11-1.1-.07-4.69.1-8.18a34.29 34.29 0 0 0-.24-7.35A9.68 9.68 0 0 0 95.16 92c-.78-.84-2.42-2.89-3.67-4.56a56.49 56.49 0 0 1-3.2-4.74c-.5-.91-1.28-2.47-1.73-3.48-.15-.34-.36-.75-.59-1.17a17.8 17.8 0 0 0-1.13-1.8 19.28 19.28 0 0 0-2.35-2.52 9.4 9.4 0 0 0-2.74-1.51 12.21 12.21 0 0 0-3.52-.35C75 72 73 72 71.76 71.92a38.54 38.54 0 0 1-4.24-.5 34.38 34.38 0 0 0-3.6-.42 63 63 0 0 0-7.14.55A34 34 0 0 0 50 72.87a48.06 48.06 0 0 0-6 4.85l-.63.57c-4.41 3.93-4.83 3.87-5.48 3.78l-.68-.07-.39-.59a3.63 3.63 0 0 1-.37-2 4.78 4.78 0 0 1 1-2.32 1.7 1.7 0 0 0 .14-.23 2 2 0 0 0 .18-.45 2 2 0 0 0-.21-.55 8.38 8.38 0 0 1-.92-1.77 5.18 5.18 0 0 1-.24-1.45 10.87 10.87 0 0 0-2.11-.71 11.52 11.52 0 0 0-3-.2 14 14 0 0 0-3.15.8 20.17 20.17 0 0 1-4 1.09 40.64 40.64 0 0 1-7.55-.46 21.78 21.78 0 0 0-5.37-.16 3.2 3.2 0 0 0-.52 1.25 22.68 22.68 0 0 0-.2 3.06 24.06 24.06 0 0 0 .31 3.12 19.07 19.07 0 0 1 .19 3.69 19.66 19.66 0 0 1-.63 3.71 9.36 9.36 0 0 0-.26 2.81 10.66 10.66 0 0 0 .89 2.87 24.05 24.05 0 0 1 1.38 3.65 20.39 20.39 0 0 1 .56 3.71 35 35 0 0 1-.08 3.57c-.08 1-.55 4.05-1 6.89s-.88 5.78-.9 6.53 0 2.33.12 3.2a20.59 20.59 0 0 1 0 3.7 22 22 0 0 1-.82 3.68 8 8 0 0 0-.3 2.74 9.57 9.57 0 0 0 1 2.82 12.16 12.16 0 0 1 1.32 3.94c.16 1.45-.68 5.18-1.28 7.33a41 41 0 0 0-1.47 6.34z"/><path d="M107.95 101.2a11 11 0 0 0-2-3.27c-.75-.81-2.36-2.81-3.57-4.44s-2.6-3.69-3.09-4.57-1.24-2.4-1.67-3.36a17 17 0 0 0-4.46-6 10.78 10.78 0 0 0-3.29-1.81 9.59 9.59 0 0 0-1.42-.28c-.39-.05-.79-.09-1.2-.12.26.46.49.91.65 1.29.43 1 1.18 2.48 1.67 3.36s1.88 2.95 3.09 4.57 2.82 3.62 3.57 4.44a11 11 0 0 1 2 3.27 34 34 0 0 1 .32 7.9c-.16 3.36-.21 6.94-.1 8a33.18 33.18 0 0 0 .59 3.56c.22.94.49 2.5.61 3.45s.2 2.53.2 3.49a11.9 11.9 0 0 1-.57 3.35 12.81 12.81 0 0 1-1.72 3 21.26 21.26 0 0 0-2 3.13 24.57 24.57 0 0 0-1.38 3.64 15.17 15.17 0 0 1-3.91 6.74 34.06 34.06 0 0 1-2.89 2.55 27.65 27.65 0 0 1-3 2 31.1 31.1 0 0 0-3 1.88 33.94 33.94 0 0 0-2.78 2.33 22.16 22.16 0 0 1-2.84 2.23 20.7 20.7 0 0 1-3.16 1.57 27.25 27.25 0 0 1-3.37 1 58.25 58.25 0 0 1-6.83.46c-2.63.06-5.41 0-6.46-.1l.35.51.36.54a22.19 22.19 0 0 0 3 3.8 10.17 10.17 0 0 0 2.68 1.38 25 25 0 0 0 3.06.7 62.7 62.7 0 0 0 6.68.12 58.25 58.25 0 0 0 6.83-.46 27.25 27.25 0 0 0 3.37-1 20.7 20.7 0 0 0 3.16-1.57 22.16 22.16 0 0 0 2.84-2.23 33.94 33.94 0 0 1 2.78-2.33 31.1 31.1 0 0 1 3-1.88 27.65 27.65 0 0 0 3-2 34.05 34.05 0 0 0 2.89-2.55 15.17 15.17 0 0 0 3.91-6.74 24.57 24.57 0 0 1 1.38-3.64 21.26 21.26 0 0 1 2-3.13 12.81 12.81 0 0 0 1.72-3 11.9 11.9 0 0 0 .57-3.35c0-1-.09-2.54-.2-3.49s-.38-2.51-.61-3.45a33.18 33.18 0 0 1-.59-3.56c-.1-1-.05-4.6.1-8a34 34 0 0 0-.27-7.93zM51.52 154.78l.2-.4c.15-.3.31-.6.48-.88a10.19 10.19 0 0 1-2.21-1.2 24.36 24.36 0 0 1-3.42-4.3c-1.23-1.88-2.58-3.16-3-2.83a9.16 9.16 0 0 0-1.75 2.71 21.57 21.57 0 0 0-1.35 4.27 83.86 83.86 0 0 0 .09 10.85c.26 4.82.43 9.67.38 10.78a7.42 7.42 0 0 1-1 3.35 6.54 6.54 0 0 1-2.74 1.94 13.17 13.17 0 0 1-3.69.6 15.6 15.6 0 0 1-3.9-.67 27.47 27.47 0 0 0-4-.93 25.45 25.45 0 0 0-4-.16c-.72 0-1.72.06-2.6.05 0 .26 0 .48.06.62s0 .25.07.38a19.12 19.12 0 0 0 .61 2.41 5.13 5.13 0 0 0 1.51 2.08 7.55 7.55 0 0 0 2.73 1.07c.92.15 2.49.32 3.5.37s2.74 0 3.84 0a25.45 25.45 0 0 1 4 .16 27.47 27.47 0 0 1 4 .93 15.6 15.6 0 0 0 3.9.67 13.17 13.17 0 0 0 3.69-.6 6.54 6.54 0 0 0 2.74-1.94 7.42 7.42 0 0 0 1-3.35c.06-1.11-.11-6-.38-10.78a83.86 83.86 0 0 1-.09-10.92 21.57 21.57 0 0 1 1.33-4.28zM40.84 77.18c-.22 0-.48.06-.76.11s-.79.16-1.2.27a3.05 3.05 0 0 1-.29.46 3.33 3.33 0 0 0-.66 1.5 2.21 2.21 0 0 0 .14 1.05c.1.16 2-1.34 4.29-3.41a11 11 0 0 0-1.53 0z"/></svg>