<svg xmlns="http://www.w3.org/2000/svg" width="200" height="200" viewBox="0 0 200 200"><title>_</title><path d="M117.68 164.9v1.85c.09 5.4.28 10.88.4 12a32.37 32.37 0 0 0 .71 3.83 7.24 7.24 0 0 0 1.36 2.61 5.42 5.42 0 0 0 2.26 1.2c.88.18 2.44.42 3.42.52l1.38.11c.82.05 1.71.09 2.37.1 1.09 0 5.46-.27 9.59-.62a43.21 43.21 0 0 0 7.83-1.2 2.2 2.2 0 0 0 .11-1.26 11.7 11.7 0 0 1-.13-3.38 15.27 15.27 0 0 1 1-3.49c.38-.87.94-2.34 1.21-3.22s.65-2.37.82-3.25a13 13 0 0 0 .14-3.09 14.3 14.3 0 0 0-.77-3.11 18.71 18.71 0 0 1-1-3.61 16.89 16.89 0 0 1 0-3.63 27.55 27.55 0 0 0 .13-3.24 27.89 27.89 0 0 0-.34-3.24 20 20 0 0 1-.25-3.59 20.56 20.56 0 0 1 .52-3.59 13.92 13.92 0 0 0 .35-3.1 14.32 14.32 0 0 0-.52-3.11 12.24 12.24 0 0 1 0-7.34c.28-.9.66-2.37.85-3.29s.52-3.92.73-6.63c.24-3 .35-5.83.3-6.62s-.49-3.63-1.09-6.62-1-5.89-1.06-6.89.29-6.31.68-10.71c0-.49.08-1 .12-1.45a35.42 35.42 0 0 0 0-7.28 4.37 4.37 0 0 0-2 .12c-1.16.33-3 .78-4.08 1a69.38 69.38 0 0 1-7.49.58 49.37 49.37 0 0 1-7.48-.19 31.39 31.39 0 0 1-3.88-1.07 8.9 8.9 0 0 0-2-.48 7.09 7.09 0 0 1 .09 2.21 5.73 5.73 0 0 1-.82 2 3.68 3.68 0 0 0-.49 1.1 2.68 2.68 0 0 0 .09 1v.14a5.83 5.83 0 0 1 .28 1.26v.65l-.59.3c-.71.34-1.18-.07-2.74-1.44-.64-.57-1.43-1.28-2.27-2.08a30 30 0 0 0-5.29-4.18 11 11 0 0 0-3.35-.64 33.91 33.91 0 0 1-4.25-.38 37.09 37.09 0 0 1-4.28-1 14.07 14.07 0 0 0-3.72-.58 12.11 12.11 0 0 0-3.48.71 31.58 31.58 0 0 1-3.94 1.22 31.77 31.77 0 0 1-4.08.58 17.82 17.82 0 0 0-3.53.65 15.56 15.56 0 0 0-3.08 1.46 19 19 0 0 0-2.63 2.16 61.27 61.27 0 0 0-4.2 5.73c-1.64 2.46-3.37 5.25-3.79 6.1a25.8 25.8 0 0 0-1.28 3.23c-.28.93-.86 3.38-1.27 5.35s-1 4.6-1.38 5.67a40.08 40.08 0 0 1-1.54 3.89 11.59 11.59 0 0 0-.92 3.27 7.9 7.9 0 0 0 .44 2.86A33.21 33.21 0 0 1 61 125a30.07 30.07 0 0 1 .65 3.26c.11.9.23 3.12.25 5a22.91 22.91 0 0 0 .51 4.71 16.67 16.67 0 0 0 1.44 3.18c.58 1 1.87 3.43 2.86 5.48a40.32 40.32 0 0 0 2.8 5 15.92 15.92 0 0 0 2.42 2.37c.76.59 2.74 1.91 4.41 2.94.86.53 1.88 1.1 2.81 1.57a14.48 14.48 0 0 0 1.68.75 48.6 48.6 0 0 0 6.48 1 61.26 61.26 0 0 0 6.55.4 53.57 53.57 0 0 0 6.21-1.29c2.61-.67 6.18-1.43 7.95-1.71a16.17 16.17 0 0 0 4.06-1.11 7.27 7.27 0 0 0 1.84-1.75 3 3 0 0 1 1.83-1.37h.15a1.24 1.24 0 0 1 .86.34c.24.23.74.71.92 11.13z" fill="#231f20"/><path d="M158.65 184.51c.4-.91 1-2.41 1.25-3.32s.67-2.43.85-3.36a14.05 14.05 0 0 0 .16-3.38 15.28 15.28 0 0 0-.83-3.38 17.87 17.87 0 0 1-.9-3.38 16.19 16.19 0 0 1 0-3.38 28.21 28.21 0 0 0 .14-3.38 28.65 28.65 0 0 0-.35-3.38 19.22 19.22 0 0 1-.23-3.38 19.65 19.65 0 0 1 .49-3.38 14.94 14.94 0 0 0 .38-3.38A15.27 15.27 0 0 0 159 144a11.24 11.24 0 0 1 0-6.76c.29-.93.68-2.45.87-3.38s.53-4 .75-6.76.36-5.83.3-6.76-.55-4-1.1-6.76-1.05-5.83-1.11-6.76.25-5.68.68-10.56.37-9.18-.13-9.56a4.16 4.16 0 0 0-3-.09c-1.14.33-2.94.76-4 1-.31.06-.83.12-1.46.19l-1 .09c0 .48-.07 1-.12 1.46-.43 4.88-.74 9.63-.68 10.56s.56 4 1.11 6.76 1 5.83 1.1 6.76-.08 4-.3 6.76-.56 5.83-.75 6.76-.58 2.45-.87 3.38a11.24 11.24 0 0 0 0 6.76 15.27 15.27 0 0 1 .56 3.38 14.94 14.94 0 0 1-.38 3.38 19.65 19.65 0 0 0-.49 3.38 19.22 19.22 0 0 0 .23 3.38 28.65 28.65 0 0 1 .35 3.38 28.21 28.21 0 0 1-.14 3.38 16.19 16.19 0 0 0 0 3.38 17.87 17.87 0 0 0 .9 3.38 15.28 15.28 0 0 1 .83 3.38 14.05 14.05 0 0 1-.16 3.38c-.18.93-.56 2.44-.85 3.36s-.85 2.42-1.25 3.32a14.27 14.27 0 0 0-.93 3.22 10.69 10.69 0 0 0 .12 3 2.77 2.77 0 0 1-.41 2.23c-.4.42-4.19 1-8.42 1.4s-8.59.64-9.69.62c-.68 0-1.59 0-2.43-.1.07.35.14.7.21 1s.12.53.18.75a8.2 8.2 0 0 0 1.6 3 6.32 6.32 0 0 0 2.78 1.48c.93.19 2.51.44 3.52.54s2.74.2 3.84.21 5.46-.27 9.69-.62 8-1 8.42-1.4a2.77 2.77 0 0 0 .41-2.23 10.69 10.69 0 0 1-.12-3 14.27 14.27 0 0 1 .99-3.16zM120.09 88.28a4.81 4.81 0 0 0-.22-.92 11.79 11.79 0 0 0-1.43-.36 6.3 6.3 0 0 0 1.65 1.28zM116.68 164.92c-.09-5.5-.37-10.19-.62-10.42s-.85.16-1.34.88a8.25 8.25 0 0 1-2.15 2 16.51 16.51 0 0 1-4.41 1.24c-1.73.27-5.27 1-7.86 1.69a54.39 54.39 0 0 1-6.39 1.31 61.23 61.23 0 0 1-6.72-.41 49.22 49.22 0 0 1-6.68-1.05 15 15 0 0 1-1.82-.81 18.41 18.41 0 0 0 1.74 1.83c.21.19.41.36.59.5.79.61 2.81 2 4.5 3a29.83 29.83 0 0 0 4.7 2.42 49.22 49.22 0 0 0 6.68 1.05 61.23 61.23 0 0 0 6.72.41 54.39 54.39 0 0 0 6.38-1.26c1.75-.45 3.92-.93 5.68-1.29l1-.2z" fill="#231f20"/></svg>