<svg xmlns="http://www.w3.org/2000/svg" width="116" height="200" viewBox="0 0 116 200"><title>_</title><path d="M8.41 112.38a34.06 34.06 0 0 1 1.12 3.32 30.76 30.76 0 0 1 .66 3.32c.12.91.23 3.16.26 5a22.74 22.74 0 0 0 .49 4.57 16.29 16.29 0 0 0 1.39 3.06c.59 1 1.88 3.46 2.88 5.52a39.89 39.89 0 0 0 2.75 4.92 15.65 15.65 0 0 0 2.3 2.33c.74.58 2.74 1.91 4.35 2.94.84.52 1.85 1.08 2.77 1.55a14.41 14.41 0 0 0 1.6.72 49.29 49.29 0 0 0 6.37 1 63 63 0 0 0 6.47.4 54.14 54.14 0 0 0 6.12-1.27c2.62-.67 6.21-1.44 8-1.72a15.89 15.89 0 0 0 3.88-1 6.79 6.79 0 0 0 1.68-1.6 3.42 3.42 0 0 1 2.19-1.58h.2a1.74 1.74 0 0 1 1.21.47c.42.4.9.85 1.09 11.48v1.85c.09 5.38.27 10.84.39 11.92a31.75 31.75 0 0 0 .7 3.75 6.74 6.74 0 0 0 1.23 2.39 5 5 0 0 0 2 1.06c.86.18 2.41.42 3.37.51l1.36.11c.81.05 1.69.09 2.35.1h.11c1.18 0 5.45-.28 9.47-.62a50.35 50.35 0 0 0 7.48-1.07 1.85 1.85 0 0 0 0-.76 12.12 12.12 0 0 1-.14-3.55 15.86 15.86 0 0 1 1-3.63c.38-.85.92-2.31 1.2-3.17s.64-2.33.81-3.19a12.59 12.59 0 0 0 .14-2.94 14 14 0 0 0-.74-3 19.22 19.22 0 0 1-1-3.72 17.49 17.49 0 0 1 0-3.75 26.78 26.78 0 0 0 .13-3.16 27.19 27.19 0 0 0-.33-3.17 20.6 20.6 0 0 1-.26-3.7 21.2 21.2 0 0 1 .54-3.69 13.52 13.52 0 0 0 .34-3 13.87 13.87 0 0 0-.5-3 12.74 12.74 0 0 1 0-7.64c.27-.89.65-2.34.83-3.24s.51-3.88.72-6.57c.23-3 .34-5.78.3-6.55s-.49-3.59-1.08-6.55-1.08-6-1.14-7c-.07-1.17.3-6.43.68-10.79 0-.49.08-1 .11-1.44a41.49 41.49 0 0 0 .06-6.8A4.31 4.31 0 0 0 95 72c-1.17.34-3 .79-4.13 1a70 70 0 0 1-7.57.59 49.86 49.86 0 0 1-7.59-.2 32.21 32.21 0 0 1-4-1.11 9.12 9.12 0 0 0-1.23-.35 7 7 0 0 1 0 1.68 6.21 6.21 0 0 1-.9 2.24 3.33 3.33 0 0 0-.41.91 2.27 2.27 0 0 0 .07.76v.15a5.75 5.75 0 0 1 .31 1.4v1l-.88.44c-1 .49-1.67-.09-3.27-1.5-.67-.59-1.46-1.3-2.31-2.11A29.94 29.94 0 0 0 58 72.8a10.6 10.6 0 0 0-3.17-.61 34.4 34.4 0 0 1-4.33-.39 37.8 37.8 0 0 1-4.35-1.05 13.11 13.11 0 0 0-3.56-.55 11.71 11.71 0 0 0-3.3.67 32.3 32.3 0 0 1-4 1.24 32.3 32.3 0 0 1-4.16.59 17.2 17.2 0 0 0-3.41.63 15.18 15.18 0 0 0-3 1.4 18.33 18.33 0 0 0-2.55 2.09 62.24 62.24 0 0 0-4.14 5.66c-1.63 2.44-3.35 5.21-3.76 6a25.15 25.15 0 0 0-1.25 3.15c-.28.91-.85 3.34-1.25 5.31s-1 4.63-1.4 5.72a40.84 40.84 0 0 1-1.56 3.95 11.14 11.14 0 0 0-.81 3.13 7.39 7.39 0 0 0 .41 2.64z"/><path d="M106.66 175.36c.4-.91 1-2.41 1.25-3.32s.67-2.43.85-3.36a14.05 14.05 0 0 0 .16-3.38 15.28 15.28 0 0 0-.83-3.38 17.87 17.87 0 0 1-.9-3.38 16.19 16.19 0 0 1 0-3.38 28.21 28.21 0 0 0 .14-3.38 28.65 28.65 0 0 0-.35-3.38 19.22 19.22 0 0 1-.23-3.38 19.65 19.65 0 0 1 .49-3.38 14.94 14.94 0 0 0 .38-3.38 15.27 15.27 0 0 0-.56-3.38 11.24 11.24 0 0 1 0-6.76c.29-.93.68-2.45.87-3.38s.53-4 .75-6.76.36-5.83.3-6.76-.55-4-1.1-6.76-1.05-5.83-1.11-6.76.23-5.7.63-10.54.37-9.18-.13-9.56a4.16 4.16 0 0 0-3-.09c-1.14.33-2.94.76-4 1-.31.06-.83.12-1.46.19l-1 .09c0 .48-.07 1-.12 1.46-.43 4.88-.74 9.63-.68 10.56s.56 4 1.11 6.76 1 5.83 1.1 6.76-.08 4-.3 6.76-.56 5.83-.75 6.76-.58 2.45-.87 3.38a11.24 11.24 0 0 0 0 6.76 15.27 15.27 0 0 1 .56 3.38 14.94 14.94 0 0 1-.38 3.38 19.65 19.65 0 0 0-.49 3.38 19.22 19.22 0 0 0 .23 3.38 28.65 28.65 0 0 1 .35 3.38 28.21 28.21 0 0 1-.14 3.38 16.19 16.19 0 0 0 0 3.38 17.87 17.87 0 0 0 .9 3.38 15.28 15.28 0 0 1 .83 3.38 14.05 14.05 0 0 1-.16 3.38c-.18.93-.56 2.44-.85 3.36s-.85 2.42-1.25 3.32a14.27 14.27 0 0 0-.93 3.22 10.69 10.69 0 0 0 .12 3 2.77 2.77 0 0 1-.41 2.23c-.4.42-4.19 1-8.42 1.4s-8.59.64-9.69.62c-.68 0-1.59 0-2.43-.1.07.35.14.7.21 1s.12.53.18.75a8.2 8.2 0 0 0 1.6 3 6.32 6.32 0 0 0 2.87 1.52c.93.19 2.51.44 3.52.54s2.74.2 3.84.21 5.46-.27 9.69-.62 8-1 8.42-1.4a2.77 2.77 0 0 0 .41-2.23 10.69 10.69 0 0 1-.12-3 14.27 14.27 0 0 1 .9-3.25zM66.45 77.85a6.3 6.3 0 0 0 1.65 1.28 4.81 4.81 0 0 0-.22-.92 11.79 11.79 0 0 0-1.43-.36zM28.44 152.07c.21.19.41.36.59.5.79.61 2.81 2 4.5 3a29.83 29.83 0 0 0 4.7 2.42 49.22 49.22 0 0 0 6.68 1.01 61.23 61.23 0 0 0 6.72.41 54.39 54.39 0 0 0 6.37-1.27c1.75-.45 3.92-.93 5.68-1.29l1-.2v-.89c-.09-5.5-.37-10.19-.62-10.42s-.85.16-1.34.88a8.25 8.25 0 0 1-2.15 2 16.51 16.51 0 0 1-4.41 1.24c-1.73.27-5.27 1-7.86 1.69a54.39 54.39 0 0 1-6.39 1.31 61.23 61.23 0 0 1-6.72-.41 49.22 49.22 0 0 1-6.68-1.05 15 15 0 0 1-1.82-.81 18.41 18.41 0 0 0 1.75 1.88z"/></svg>