<svg xmlns="http://www.w3.org/2000/svg" width="200" height="200" viewBox="0 0 200 200"><title>_</title><path d="M107.1 87.89v-.83c0-.84.1-2 .19-3.1a5.81 5.81 0 0 0-.15-2.18 7.64 7.64 0 0 0-1.91-.15c-1 0-2.59 0-3.59-.05s-2.66-.29-3.69-.49a25.15 25.15 0 0 0-3.47-.36c-1 0-3.36.15-5.25.37s-4.4.38-5.35.37a4.21 4.21 0 0 0-2.08.5 3.57 3.57 0 0 0-1 1.66 10.74 10.74 0 0 0-.25 2.77 13.79 13.79 0 0 0 .66 3 24.46 24.46 0 0 1 .91 3.6 49.77 49.77 0 0 1 0 6.94c-.14 2.86-.4 5.88-.6 6.87a34.39 34.39 0 0 1-.93 3.48 11.29 11.29 0 0 0-.48 3 11.41 11.41 0 0 0 .57 3 14.35 14.35 0 0 1 .73 3.66 13.94 13.94 0 0 1-.45 3.67 14.94 14.94 0 0 0-.46 3.11 14.74 14.74 0 0 0 .36 3.1 20.11 20.11 0 0 1 .51 3.57 58.29 58.29 0 0 1-.71 6.91 53.36 53.36 0 0 0-.67 6.53 25.16 25.16 0 0 0 .4 3.21c.2 1 .42 2.52.51 3.48s.12 2.53.09 3.49a2.64 2.64 0 0 0 .49 1.6 38.56 38.56 0 0 0 8.05.38h.33c4.75-.14 8.94-.4 9.88-.56a20.44 20.44 0 0 1 3.18-.23h1.19a26.08 26.08 0 0 1 4.58.89 4.62 4.62 0 0 0 2.09.19 3 3 0 0 0-.1-1.61 15.27 15.27 0 0 1-.6-4.23 13 13 0 0 1 .88-4 14.49 14.49 0 0 0 .88-3.21 12.92 12.92 0 0 0-.1-3.18 34 34 0 0 1-.43-3.61c-.05-1 0-3.91.08-6.51a57.54 57.54 0 0 0-.19-7.43 16.91 16.91 0 0 1 .06-5 18.75 18.75 0 0 1 1.58-3.89 25.07 25.07 0 0 1 2.56-3.66 21.6 21.6 0 0 1 3.2-2.88 16.9 16.9 0 0 1 3.9-1.93 20.17 20.17 0 0 1 4.52-.76 25.88 25.88 0 0 1 3.8.12 4.29 4.29 0 0 1 2.35 1l.09.08.18-.13a5.43 5.43 0 0 1 1.2-.83 3.38 3.38 0 0 1 1.36-.28 4.79 4.79 0 0 1 1.22.27 7.1 7.1 0 0 1 .7.32 14.69 14.69 0 0 0 .15-2.18c0-1.07-.39-5.62-.85-9.93a77.83 77.83 0 0 1-.59-10.25c0-.24.07-.52.13-.82a30.09 30.09 0 0 1 .79-3.38 16.69 16.69 0 0 0 .51-2.12h-.09c-1.39.45-2.32.38-2.75-.2a4.58 4.58 0 0 1-.58-1.33 4.18 4.18 0 0 0-.19-.55c-.92.24-3.42.95-7 2a45.33 45.33 0 0 0-8.36 3.1 36.92 36.92 0 0 0-4.2 5.7l-.61 1c-1.4 2.26-3.35 4.92-4.87 4.77a1.33 1.33 0 0 1-1.12-.9 29.1 29.1 0 0 1-.9-2.87 16.13 16.13 0 0 1-.29-2.09z" fill="#231f20"/><path d="M137.69 85.83a77.54 77.54 0 0 0 .6 10c.47 4.41.85 8.92.85 10a12.08 12.08 0 0 1-.28 2.85.61.61 0 0 1-.85.48 7.57 7.57 0 0 0-1.07-.54 3.82 3.82 0 0 0-.93-.21 2.26 2.26 0 0 0-.89.19 4.58 4.58 0 0 0-.95.65 1.61 1.61 0 0 1-.92.43 1.33 1.33 0 0 1-.81-.49 3.31 3.31 0 0 0-1.71-.67 25.25 25.25 0 0 0-3.61-.11 19.28 19.28 0 0 0-4.25.71 16 16 0 0 0-3.63 1.8 20.93 20.93 0 0 0-3 2.72 23.93 23.93 0 0 0-2.44 3.49 17.9 17.9 0 0 0-1.49 3.64 16.11 16.11 0 0 0 0 4.63 58 58 0 0 1 .2 7.6c-.1 2.58-.14 5.47-.09 6.42a33 33 0 0 0 .41 3.48 13.91 13.91 0 0 1 .11 3.48 15.48 15.48 0 0 1-1 3.48 12.06 12.06 0 0 0-.81 3.62 14.38 14.38 0 0 0 .56 3.9c.34 1.11.26 2.32-.19 2.69s-1.82.36-3.05 0a24.91 24.91 0 0 0-4.36-.85 20 20 0 0 0-4.12.18c-1.1.19-5.61.45-10 .58h-.37c0 .2 0 .4.06.56s0 .29 0 .44c.06.92.08 2.13.06 2.93a3.36 3.36 0 0 0 .91 2.46c.54.43 4.58.67 9 .54s8.92-.39 10-.58a20 20 0 0 1 4.12-.18 24.91 24.91 0 0 1 4.36.85c1.23.37 2.61.38 3.05 0s.53-1.58.19-2.69a14.38 14.38 0 0 1-.56-3.9 12.06 12.06 0 0 1 .81-3.62 15.48 15.48 0 0 0 1-3.48 13.91 13.91 0 0 0-.11-3.48 33 33 0 0 1-.41-3.48c-.05-1 0-3.85.09-6.42a58 58 0 0 0-.2-7.6 16.11 16.11 0 0 1 0-4.62 17.9 17.9 0 0 1 1.49-3.64 23.93 23.93 0 0 1 2.44-3.49 20.93 20.93 0 0 1 3-2.72 16 16 0 0 1 3.63-1.8 19.28 19.28 0 0 1 4.25-.71 25.25 25.25 0 0 1 3.61.11 3.31 3.31 0 0 1 1.71.67 1.33 1.33 0 0 0 .81.49 1.61 1.61 0 0 0 .92-.43 4.58 4.58 0 0 1 .95-.65 2.26 2.26 0 0 1 .89-.19 3.82 3.82 0 0 1 .93.21 7.57 7.57 0 0 1 1.07.54.61.61 0 0 0 .85-.48 12.08 12.08 0 0 0 .28-2.85c0-1.11-.39-5.62-.85-10a77.54 77.54 0 0 1-.6-10 28.47 28.47 0 0 1 .88-4 12.78 12.78 0 0 0 .6-2.91c0-.49-.66-.68-1.44-.43a2.38 2.38 0 0 1-1.65.15 3.71 3.71 0 0 1-.41-1 4.18 4.18 0 0 0-.42-1 .78.78 0 0 0-.52-.34c-.13 0-2.48.66-5.55 1.55l-1.08.31c0 .23-.05.5-.07.73zM108.1 87.84a15.6 15.6 0 0 0 .29 2 28.36 28.36 0 0 0 .86 2.74c.35.95 2.24-.88 4.21-4.05l.62-1h-1.18c-.54 0-1.06 0-1.47-.06-.62 0-1.51-.15-2.33-.27l-1-.16c-.01.37-.01.63 0 .8z" fill="#231f20"/></svg>