<svg xmlns="http://www.w3.org/2000/svg" width="103.77" height="200" viewBox="0 0 103.77 200"><title>_</title><path d="M57.44 93.34h-.01.01zM12.3 127.66a32.22 32.22 0 0 1-4.14-.25 3.38 3.38 0 0 0-.91 0 24.11 24.11 0 0 0 1.37 4.34 65.35 65.35 0 0 0 2.8 6.2 18.16 18.16 0 0 0 1.73 2.23 23.56 23.56 0 0 0 2.07 1.9c.52.41 2.75 1.81 5.11 3.17l1.56.88c1.73 1 3.33 1.8 3.89 2 .77.33 2.11.8 2.92 1a28.57 28.57 0 0 0 3 .67 30.39 30.39 0 0 0 3.19.27 26.32 26.32 0 0 1 3.7.4 28.53 28.53 0 0 1 3.67 1 11.07 11.07 0 0 0 2.88.58 9.47 9.47 0 0 0 2.72-.43 20 20 0 0 1 3.52-.82 19.17 19.17 0 0 1 3.57 0 19.73 19.73 0 0 0 2.95 0 19.55 19.55 0 0 0 2.88-.51c.71-.19 4.12-1.45 8.05-3a63.37 63.37 0 0 0 7.58-3.42 12.61 12.61 0 0 0 1.9-1.86 20.11 20.11 0 0 1 2.25-2.38 23.56 23.56 0 0 1 2.75-2 8.39 8.39 0 0 0 1.86-1.64 7.48 7.48 0 0 0 1-2.12 17.13 17.13 0 0 0 .43-2.69 16.94 16.94 0 0 0-.11-2.7 21.79 21.79 0 0 1-.16-3.35 25.66 25.66 0 0 1 .44-3.47 5.31 5.31 0 0 0-.08-2.21 5.55 5.55 0 0 0-1.35-1.81 17.25 17.25 0 0 1-2.49-2.64c-.19-.26-.39-.58-.59-.93a16.77 16.77 0 0 1-1.15-2.33 5.51 5.51 0 0 0-1.28-1.85 5.84 5.84 0 0 0-2.15-.86 20.35 20.35 0 0 1-3.54-.9 18.2 18.2 0 0 1-3.14-1.62 19.21 19.21 0 0 0-2.53-1.37c-.64-.27-5.27-1.65-10.9-3.2l-.48-.13c-3.35-.92-6.8-2-9.24-2.78a23.22 23.22 0 0 1-2.75-1 46.82 46.82 0 0 1-4.21-2.54 19 19 0 0 1-3.05-2.56 2.52 2.52 0 0 1-.23-3.39 2.12 2.12 0 0 0 .32-.55 4.49 4.49 0 0 0 .07-1.11 3 3 0 0 1 1.06-2.44 3.33 3.33 0 0 1 2.6-.34c.44.11 1.62.31 2.53.42a21 21 0 0 0 2.21.2 5.17 5.17 0 0 0 .77-.08c.21-.05.75-.23 1.2-.38a6.16 6.16 0 0 1 1.89-.38 3.5 3.5 0 0 1 1.47.44 3.23 3.23 0 0 0 .48.22 4.22 4.22 0 0 0 .6.13A2.36 2.36 0 0 1 54.65 87a3.66 3.66 0 0 1 .14 2 4.11 4.11 0 0 0-.06.56h.06a6.72 6.72 0 0 0 .88.27 3.13 3.13 0 0 1 1.94 1.36 3.63 3.63 0 0 1 .35 2 7.51 7.51 0 0 0 2 .34c.17 0 .83 0 3.1-.05s5.48-.2 8.6-.34l1.89-.14a64.24 64.24 0 0 0 9.39-1 22.42 22.42 0 0 0-.84-4.67 57 57 0 0 0-1.86-5.73 5.3 5.3 0 0 0-.24-.53 11.55 11.55 0 0 0-1.73-2.15A15 15 0 0 0 76 77.27c-.52-.29-3.49-1.45-7.15-2.67a81.24 81.24 0 0 0-10.64-2.72 123.52 123.52 0 0 0-14.43-.75c-5.73 0-10.49.13-11.19.24S29 72.23 26.46 73s-5.34 1.63-6.12 1.94a27.49 27.49 0 0 0-2.73 1.29 14.19 14.19 0 0 0-2.25 1.63 41.92 41.92 0 0 0-3.62 5 34.68 34.68 0 0 0-3 5.48 12.78 12.78 0 0 0-.36 2.95c0 1-.07 3.38-.2 5.29a18.39 18.39 0 0 0 .14 4.4 8.9 8.9 0 0 0 1.21 2.36c.53.69 1.47 1.77 2.05 2.37s3.41 2.76 7.26 5.51c1.48 1.06 3 2.13 4.4 3a26.45 26.45 0 0 0 3 1.8 11.06 11.06 0 0 0 2.6.49 21.07 21.07 0 0 1 3.73.59 33.94 33.94 0 0 1 4.07 1.43 26 26 0 0 0 3.89 1.25 25.74 25.74 0 0 0 4.06.47 14.07 14.07 0 0 1 4.74 1.06 15.5 15.5 0 0 1 4 2.92 20.63 20.63 0 0 1 2.54 3.22 5.42 5.42 0 0 1 .35.75 3.67 3.67 0 0 1 .16 2.43 9 9 0 0 1-.79 1.55 7.16 7.16 0 0 1-1.11 1.26 10.83 10.83 0 0 0-.85.86c-.26.3-.74.91-1 1.32a4.84 4.84 0 0 1-2.09 1.62 6.85 6.85 0 0 1-3.42-.29c-.62-.21-1.26-.44-1.72-.62s-.57-.24-.7-.31a1.69 1.69 0 0 0-.34-.07 3.39 3.39 0 0 0-.45.16 5.91 5.91 0 0 1-1.6.53 4.51 4.51 0 0 1-1.67-.09 5.15 5.15 0 0 1-1.36-.63 5 5 0 0 1-1.07-1 1.6 1.6 0 0 0-.19-.13 3 3 0 0 0-.73-.12 3.14 3.14 0 0 1-2.16-.86 2.75 2.75 0 0 1-.55-2 10.46 10.46 0 0 1 .11-1.43 13.67 13.67 0 0 0 .16-1.78 1.5 1.5 0 0 0-.14-.23 8.11 8.11 0 0 0-.91-.45c-.56-.23-1.85-.63-2.82-.89a26.91 26.91 0 0 0-3.54-.64 52.65 52.65 0 0 0-7.3.53c-3.21.37-6.72.72-7.84.74z"/><path d="M96.06 123.5a15.69 15.69 0 0 1-2.28-2.43 15.36 15.36 0 0 1-1.56-2.92 6.83 6.83 0 0 0-1.75-2.5 7.11 7.11 0 0 0-2.87-1.17 19.51 19.51 0 0 1-2.42-.56 10.944 10.944 0 0 1-1.63-.62c.18.3.35.59.52.81a15.69 15.69 0 0 0 2.28 2.43 6.84 6.84 0 0 1 1.8 2.46 6.64 6.64 0 0 1 .14 3 23.94 23.94 0 0 0-.41 3.23 20.34 20.34 0 0 0 .15 3.08 18.3 18.3 0 0 1 .13 3 18.7 18.7 0 0 1-.47 3A8.92 8.92 0 0 1 86.4 137a9.8 9.8 0 0 1-2.28 2 21.82 21.82 0 0 0-2.54 1.85 18.78 18.78 0 0 0-2.05 2.15 14 14 0 0 1-2.18 2.13 61.29 61.29 0 0 1-7.93 3.62c-3.66 1.46-7.36 2.84-8.21 3.08a21 21 0 0 1-3.15.55 21.44 21.44 0 0 1-3.22 0 17.74 17.74 0 0 0-3.24 0 18.64 18.64 0 0 0-3.21.75 11.08 11.08 0 0 1-3.25.52 12.54 12.54 0 0 1-3.37-.67 26.55 26.55 0 0 0-3.43-1 24.4 24.4 0 0 0-3.45-.37 32 32 0 0 1-3.38-.28 29.83 29.83 0 0 1-3.24-.71c-.87-.25-2.26-.75-3.08-1.1-.63-.27-2.28-1.13-4-2.11.22.27.43.52.61.71a25.43 25.43 0 0 0 1.92 1.79l.28.3c.65.51 3 2 5.29 3.3s4.78 2.65 5.6 3 2.21.85 3.08 1.1a29.83 29.83 0 0 0 3.24.71 32 32 0 0 0 3.38.28 24.4 24.4 0 0 1 3.41.4 26.55 26.55 0 0 1 3.43 1 12.54 12.54 0 0 0 3.37.67 11.08 11.08 0 0 0 3.25-.52 18.64 18.64 0 0 1 3.21-.75 17.74 17.74 0 0 1 3.24 0 21.44 21.44 0 0 0 3.22 0 21 21 0 0 0 3.15-.55c.86-.23 4.55-1.62 8.21-3.08a61.29 61.29 0 0 0 7.93-3.62 14 14 0 0 0 2.23-2.15 18.78 18.78 0 0 1 2.05-2.17 21.82 21.82 0 0 1 2.54-1.85 9.8 9.8 0 0 0 2.28-2 8.92 8.92 0 0 0 1.27-2.65 18.7 18.7 0 0 0 .47-3 18.3 18.3 0 0 0-.13-3 20.34 20.34 0 0 1-.15-3.08A23.94 23.94 0 0 1 98 129a6.64 6.64 0 0 0-.14-3 6.84 6.84 0 0 0-1.8-2.5z"/><path d="M44.22 133.51l-.15-.07c-.61-.25-2-.68-3-1a28.43 28.43 0 0 0-3.78-.68h-1.21a2 2 0 0 0 .15 1 1.72 1.72 0 0 0 1.08.37 4.27 4.27 0 0 1 1.28.23 2.28 2.28 0 0 1 .83.63 3.58 3.58 0 0 0 .71.7 3.63 3.63 0 0 0 .91.42 3 3 0 0 0 1.05.06 4.49 4.49 0 0 0 1.14-.38 3.25 3.25 0 0 1 1.14-.32 2.47 2.47 0 0 1 1 .25l.63.28a2.76 2.76 0 0 0-.41-.68 4.74 4.74 0 0 0-1.37-.81zM53.29 87.59a.87.87 0 0 0-.63-.42 5.57 5.57 0 0 1-.89-.17 4.72 4.72 0 0 1-.77-.38 2 2 0 0 0-.78-.24 4.93 4.93 0 0 0-1.32.3c-.5.17-1.1.36-1.33.42a6.14 6.14 0 0 1-1.08.12c-.36.01-1.49-.08-2.49-.22s-2.2-.33-2.7-.45a2 2 0 0 0-1.36.1 1.65 1.65 0 0 0-.44 1.21 5.74 5.74 0 0 1-.21 1.55 3.45 3.45 0 0 1-.68 1.13 1.18 1.18 0 0 0 .39 1.38 17.79 17.79 0 0 0 2.75 2.29 44.7 44.7 0 0 0 4 2.44 23.49 23.49 0 0 0 2.54 1 .42.42 0 0 1 .06-.12 3.27 3.27 0 0 0 .51-.74 2.82 2.82 0 0 0 .14-.43 5.74 5.74 0 0 0 .21-1.55 1.65 1.65 0 0 1 .44-1.21 2 2 0 0 1 1.35-.1c.5.12 1.72.33 2.7.45.67.08 1.38.15 1.89.19h1.15a1.22 1.22 0 0 1-.35-1 2.34 2.34 0 0 0-.14-1.29 1.66 1.66 0 0 0-1-.64 8.23 8.23 0 0 1-1.15-.35 2.55 2.55 0 0 1-.69-.43 1.36 1.36 0 0 1-.28-.69 4.74 4.74 0 0 1 .09-1.13 2.12 2.12 0 0 0 .07-1.02zM66.87 101.37a8.27 8.27 0 0 0 2.7.53c1 0 6.34-.13 11.83-.4l1.93-.09c5.49-.26 10.29-.91 10.66-1.43s0-3.28-.74-6.13A43.2 43.2 0 0 0 91 87.26a12.91 12.91 0 0 0-2-2.5 16.38 16.38 0 0 0-2.55-1.85 36.92 36.92 0 0 0-3.59-1.45L81.63 81a57.6 57.6 0 0 1 1.92 5.91c.78 2.85 1.11 5.61.74 6.13s-5.17 1.16-10.66 1.43l-1.93.09c-3.21.15-6.36.28-8.62.35a2.64 2.64 0 0 1 0 .67c0 .1 0 .22-.05.33a4.12 4.12 0 0 0 0 .8 1.36 1.36 0 0 0 .28.69 2.55 2.55 0 0 0 .69.43 8.23 8.23 0 0 0 1.15.35 1.66 1.66 0 0 1 1 .64 2.34 2.34 0 0 1 .14 1.29 1.33 1.33 0 0 0 .58 1.26zM53.72 128.7h1.13a3.8 3.8 0 0 0-.25-.54 19.34 19.34 0 0 0-2.32-2.92 14 14 0 0 0-3.57-2.59 12.56 12.56 0 0 0-4.15-.93 27.33 27.33 0 0 1-4.35-.51 27.34 27.34 0 0 1-4.16-1.34 32.42 32.42 0 0 0-3.85-1.35 19.61 19.61 0 0 0-3.41-.54 12.57 12.57 0 0 1-3-.57 25.78 25.78 0 0 1-3.31-2c1.21.93 2.78 2.1 4.43 3.29l.83.6a66.51 66.51 0 0 0 7.76 5 12.57 12.57 0 0 0 3 .57 19.61 19.61 0 0 1 3.41.54 32.42 32.42 0 0 1 3.85 1.35 27.34 27.34 0 0 0 4.16 1.34 27.85 27.85 0 0 0 3.8.6z"/></svg>