<svg xmlns="http://www.w3.org/2000/svg" width="89.46" height="200" viewBox="0 0 89.46 200"><title>_</title><path d="M22.44 89.58a63.52 63.52 0 0 1 .56 7.67c.05 1.2.1 2.49.15 3.8l.85 26.06a101.17 101.17 0 0 0 .77 11.17 10.05 10.05 0 0 0 1.09 2.26 27.87 27.87 0 0 1 1.6 2.54c.4.73 1 2 1.33 2.84a3.27 3.27 0 0 0 1.14 1.3 6.66 6.66 0 0 0 2.49.39h2.46c.59 0 1.15 0 1.58.07a32.15 32.15 0 0 1 3.83.58c.81.18 4.92.74 9.76 1.28a115.91 115.91 0 0 0 12.39.79 16.36 16.36 0 0 0 4.36-.58 1.75 1.75 0 0 0 0-.71 18.49 18.49 0 0 1-.7-3.29 79.67 79.67 0 0 1 .78-9.1c.13-1 .24-2 .35-2.89.14-1.19.24-2.13.3-2.85a2.52 2.52 0 0 1-2-.82 2 2 0 0 0-.27-.25 2.86 2.86 0 0 1-1-.21l-.22-.1a5.07 5.07 0 0 1-.72-.42 3.55 3.55 0 0 0-.54-.15 17.92 17.92 0 0 0-1.9-.17 9.14 9.14 0 0 1-2.64-.5 4.48 4.48 0 0 1-2-1.56c-.17-.27-.67-1-1.13-1.54a9.28 9.28 0 0 1-1.33-2.29 12.54 12.54 0 0 1-.46-2.22 40.11 40.11 0 0 0-1.06-4.15c-.55-1.85-1.18-4.21-1.39-5.26a64 64 0 0 1-.51-7.58 71 71 0 0 1 .15-7.54c.14-1 .47-2.74.73-3.79A11.49 11.49 0 0 1 52.56 89a4.42 4.42 0 0 1 2.61-1.75c.46-.07 1.25-.24 1.73-.37s1.29-.39 1.78-.57a13.16 13.16 0 0 1 2.22-.58 9.8 9.8 0 0 1 4.67.41c.33.11.77.28 1.21.47a11.94 11.94 0 0 1-.52-1.91 9.47 9.47 0 0 1 0-3c.12-.58.27-1.56.32-2.14s.08-1.37.07-2v-.34a17.68 17.68 0 0 1 .2-2.44 23.91 23.91 0 0 1 .71-2.87 2.81 2.81 0 0 0 .13-.69.84.84 0 0 0-.22 0 19.09 19.09 0 0 1-2.58-.1 14.33 14.33 0 0 1-2.36-.53 2.52 2.52 0 0 0-1 0h-.14a4.78 4.78 0 0 0-1.27.76 8.58 8.58 0 0 1-2.65 1.51 9.48 9.48 0 0 1-3.08.35 4.65 4.65 0 0 1-3.17-1.64c-.9-1.21-1.1-7.41-1.15-10a88.42 88.42 0 0 1 .22-10.21c.05-.27.13-.59.22-.93.24-.94.57-2 .84-2.77a2.71 2.71 0 0 0 .13-1.23 25.11 25.11 0 0 0-5.85-.92 50.3 50.3 0 0 0-7.78 0 21.1 21.1 0 0 0-3.63 1.15 26.12 26.12 0 0 1-4.11 1.35 17.61 17.61 0 0 1-4 .36 6.1 6.1 0 0 0-2.24.38 4 4 0 0 0-1.31 1.27 6 6 0 0 0-.63 2 7.91 7.91 0 0 0 .35 2.41A13.81 13.81 0 0 1 23 58a13.71 13.71 0 0 1-.55 3.6 8.8 8.8 0 0 0-.31 2.64 11 11 0 0 0 .73 2.76 7.39 7.39 0 0 1 .71 3.39c-.18 1.06-.93 2.14-7.65 1.63a35.89 35.89 0 0 0-5.14-.1 22 22 0 0 0-.35 3.08 25.41 25.41 0 0 0 .07 4.36 9.87 9.87 0 0 0 .81 1.93 6.85 6.85 0 0 1 .84 3.22 8.69 8.69 0 0 1-.94 3.33 4.07 4.07 0 0 0-.35.94 7.47 7.47 0 0 0 1.58 0 4.06 4.06 0 0 0 1.08-.34 11.42 11.42 0 0 1 1.68-.76 9.62 9.62 0 0 1 1.74-.4c.44-.05 1.14-.09 1.6-.09s.81 0 1.21.05h.38a3 3 0 0 1 2.3 2.34z"/><path d="M78.79 77.26a2 2 0 0 0-1.63-.62 17.2 17.2 0 0 1-2.34-.09 12.7 12.7 0 0 1-2.06-.47 3.92 3.92 0 0 0-1.93-.08 5.69 5.69 0 0 0-1.63.87l-.29.22a5.74 5.74 0 0 1-.66.48h-.05v.33c0 .6 0 1.31-.07 1.8s-.21 1.67-.34 2.31a8 8 0 0 0 0 2.42 12.08 12.08 0 0 0 .86 2.65 2.57 2.57 0 0 1 .35 1.81 1.71 1.71 0 0 1-1.52-.28 18.37 18.37 0 0 0-2.33-1 10.48 10.48 0 0 0-2.15-.44 10.6 10.6 0 0 0-1.93.08 11.67 11.67 0 0 0-1.93.5c-.53.2-1.39.47-1.91.61s-1.37.32-1.88.4a3 3 0 0 0-1.62 1.13 10.26 10.26 0 0 0-1.14 2.79c-.25 1-.57 2.63-.7 3.63a71.34 71.34 0 0 0-.14 7.31 62.61 62.61 0 0 0 .48 7.32c.2 1 .81 3.31 1.36 5.13a40.05 40.05 0 0 1 1.11 4.41 11.23 11.23 0 0 0 .4 1.91 7.91 7.91 0 0 0 1.09 1.84c.45.57 1 1.32 1.22 1.67a3 3 0 0 0 1.24 1 7.87 7.87 0 0 0 2.14.39 19.3 19.3 0 0 1 2.1.2 3.42 3.42 0 0 1 1.12.38 3.24 3.24 0 0 0 .51.3c0-.25-.09-.5-.11-.71s-.05-.33-.1-.56c-.18-.88-.58-2.41-1-3.85-.54-1.81-1.15-4.12-1.36-5.13a62.61 62.61 0 0 1-.48-7.32 71.34 71.34 0 0 1 .14-7.31c.14-1 .46-2.64.7-3.63a10.26 10.26 0 0 1 1.14-2.79 3 3 0 0 1 1.62-1.13c.51-.08 1.36-.26 1.88-.4s1.38-.41 1.91-.61a11.67 11.67 0 0 1 1.93-.5 10.6 10.6 0 0 1 1.93-.08 10.48 10.48 0 0 1 2.06.43 18.37 18.37 0 0 1 2.33 1 1.71 1.71 0 0 0 1.52.28 2.57 2.57 0 0 0-.36-1.75 12.08 12.08 0 0 1-.86-2.65 8 8 0 0 1 0-2.42c.13-.64.29-1.67.34-2.31s.09-1.67.07-2.31a15.54 15.54 0 0 1 .26-2.42 22.09 22.09 0 0 1 .66-2.65 3.12 3.12 0 0 0 .05-2.09zM19.6 94.11a4.11 4.11 0 0 0-.6 2.18 1.58 1.58 0 0 0 1.29.94h.17a9.47 9.47 0 0 0 1 .06c-.12-3.81-.32-6.82-.46-7.29a1.62 1.62 0 0 0-1-1.18h-.34l.08.18a5.46 5.46 0 0 1 .63 2.43 4.84 4.84 0 0 1-.14.88 7.84 7.84 0 0 1-.63 1.8zM78.84 135.94c-.07-.29-.39-.33-.71-.09a2.58 2.58 0 0 1-1 .48 1 1 0 0 1-.77-.32 3.15 3.15 0 0 0-.64-.54 1.58 1.58 0 0 0-.64-.19 2.25 2.25 0 0 1-.64-.13 3.21 3.21 0 0 1-.64-.36 3.42 3.42 0 0 0-1.12-.38 19.3 19.3 0 0 0-2.1-.2 8.86 8.86 0 0 1-1.86-.3c-.1.91-.22 1.89-.35 2.91a79.19 79.19 0 0 0-.77 8.76 17 17 0 0 0 .63 3 2.43 2.43 0 0 1-.4 2.32c-.49.45-2.88.87-5.31.93a121.16 121.16 0 0 1-12.6-.8c-4.49-.5-9-1.09-9.92-1.31a30.47 30.47 0 0 0-3.62-.54c-.41 0-.94-.05-1.49-.06.22.33.44.68.64 1s.26.45.37.64c.38.7.95 1.9 1.26 2.69A4.64 4.64 0 0 0 39 155.5a7.62 7.62 0 0 0 3.25.55 35.27 35.27 0 0 1 3.84 0 30.47 30.47 0 0 1 3.62.54c1 .22 5.43.81 9.92 1.31a121.16 121.16 0 0 0 12.6.8c2.44-.06 4.83-.48 5.31-.93a2.43 2.43 0 0 0 .4-2.32 17 17 0 0 1-.63-3 79.19 79.19 0 0 1 .77-8.76c.48-3.94.83-7.46.76-7.75zM62.54 55a3.38 3.38 0 0 0-.09-2.78c-.41-.54-3.53-1.17-6.94-1.39-.82-.05-1.64-.09-2.45-.12h-1c-.08.31-.15.6-.2.85a89.54 89.54 0 0 0-.19 9.89c.08 4.51.47 8.63.85 9.16a3.16 3.16 0 0 0 2.06 1 8.06 8.06 0 0 0 2.52-.28 7.27 7.27 0 0 0 2.12-1.21 6.43 6.43 0 0 1 1.5-.94 3.07 3.07 0 0 1 .42-.16h.25V69v-.56-.37a86.28 86.28 0 0 1 .2-9.51 29.11 29.11 0 0 1 .95-3.56z"/></svg>