<svg xmlns="http://www.w3.org/2000/svg" width="105.68" height="200" viewBox="0 0 105.68 200"><title>_</title><path d="M4.88 114.7c.4 1.75 1.05 6.46 1.45 10.5.41 4.2.9 7.9 1.09 8.59a19.13 19.13 0 0 0 .95 2.67c.36.77 1.13 2.75 1.72 4.39a35.62 35.62 0 0 0 1.66 4 15.08 15.08 0 0 0 1.51 2.15 6.65 6.65 0 0 0 1.74 1.29 7.5 7.5 0 0 0 2.25.5c.55 0 1.32.08 2.12.18.41 0 .81.1 1.12.16a25.61 25.61 0 0 1 3.08.79 20.72 20.72 0 0 0 2.6.66 20.79 20.79 0 0 0 2.69.24 53.63 53.63 0 0 1 6 .8 34.93 34.93 0 0 0 6 .6 14 14 0 0 0 3.53-.8 19.21 19.21 0 0 0 3.2-1.74 18.8 18.8 0 0 0 2.67-2.42c.76-.86 2.09-2.22 3-3s2.38-2 3.37-2.78a17.69 17.69 0 0 1 3-1.83 2 2 0 0 1 1.74.13 3.5 3.5 0 0 1 1.48 2.64 15 15 0 0 1 .16 3.12 8.09 8.09 0 0 1-.56 1.88 6.6 6.6 0 0 0-.38 1.29 11.67 11.67 0 0 0-.11 1.74 1 1 0 0 0 .09.1 7.65 7.65 0 0 0 2.16-.12c1.16-.23 3.83-.59 6-.8l.94-.09a43 43 0 0 1 4.94-.19 38.22 38.22 0 0 1 3.9.47 31.06 31.06 0 0 0 3.5.39 30.68 30.68 0 0 0 3.49-.11 4.7 4.7 0 0 0 1.79-.6 55.34 55.34 0 0 0 1-10l.12-3.53c.21-6.1.2-10.74.1-11.38-.14-.86-.47-2.32-.72-3.18a18.79 18.79 0 0 1-.63-3.71 18.26 18.26 0 0 1 .29-3.72 23.05 23.05 0 0 0 .36-3.11 61.82 61.82 0 0 0-.64-6.47c-.4-2.82-.75-5.91-.79-6.88s0-2.54 0-3.51a27.53 27.53 0 0 1 .52-3.6 30.36 30.36 0 0 1 1.1-3.58 14.58 14.58 0 0 0 .75-3 13.2 13.2 0 0 0-.23-2.97c-.17-1-.36-2.55-.44-3.55 0-.36-.05-.81-.07-1.27 0-.82-.05-1.71 0-2.36a3.21 3.21 0 0 0-.58-1.76 5.27 5.27 0 0 0-2.27-1c-1.08-.18-2.89-.38-4-.44s-6 .23-11.8.71A46.92 46.92 0 0 0 61 72.78a5.86 5.86 0 0 0-.15 2.39c.2 1.43.26 6.86.12 12.36a140.2 140.2 0 0 1-1.06 14.76 50.34 50.34 0 0 0-.72 6.85 20.37 20.37 0 0 0 .61 4.06 18.69 18.69 0 0 1 .64 4.43 12.75 12.75 0 0 1-.78 4 16.2 16.2 0 0 1-1.75 3.14 12.27 12.27 0 0 1-2.43 2.34 13 13 0 0 1-2.89 1.42 34.33 34.33 0 0 1-5.78.75c-.83.05-1.67.09-2.43.1a15.73 15.73 0 0 1-3.2-.16c-1.37-.36-4.15-2.85-4.46-3.13-1.09-1-3.22-3.24-3.53-4.74a10.52 10.52 0 0 1 .17-3.91 13.91 13.91 0 0 0 .34-3 8.83 8.83 0 0 0-.52-2.44 8.56 8.56 0 0 1-.6-3.4 9.3 9.3 0 0 1 1-3.35 11 11 0 0 0 .89-2.32 8.76 8.76 0 0 0 .12-2.24c-.08-.71-.51-3.14-.95-5.32a70 70 0 0 1-1.06-8.39c-.12-2.3-.1-6 .05-8.21l.06-1c.12-2.14.14-3.53.11-3.83a1.37 1.37 0 0 0-.35-.58 89.28 89.28 0 0 0-10.23-1.11l-8.19-.56a63.7 63.7 0 0 0-9.78-.1 2.35 2.35 0 0 0 0 1.05c.25 1.05.56 2.69.7 3.66s.43 6.89.6 11.84l.05 1.51c.14 4.11.23 10.68-.11 12A18.28 18.28 0 0 1 4.17 105a8.58 8.58 0 0 0-.82 2.51 7.33 7.33 0 0 0 .28 2.49c.29.84.85 3 1.25 4.7z"/><path d="M45.67 110.15a10.17 10.17 0 0 0 .15-2.72c-.08-.75-.52-3.2-1-5.45a68.35 68.35 0 0 1-1-8.17c-.12-2.25-.09-5.86.05-8s.22-4.43.17-5A2.68 2.68 0 0 0 43 79c-.42-.29-3.67-.73-7.78-1.08l-1-.08c0 .32 0 .65-.06 1-.16 2.16-.16 5.77-.05 8.02a68.35 68.35 0 0 0 1 8.17c.45 2.25.89 4.7 1 5.45a10.17 10.17 0 0 1-.11 2.72 12.4 12.4 0 0 1-1 2.72 7.85 7.85 0 0 0-.83 2.72 7.21 7.21 0 0 0 .49 2.72 10.2 10.2 0 0 1 .64 3 15.27 15.27 0 0 1-.38 3.45 9.13 9.13 0 0 0-.16 3.26c.16.78 1.54 2.54 3.06 3.92a16.27 16.27 0 0 0 3.83 2.79 15.35 15.35 0 0 0 2.8.11 6.42 6.42 0 0 1-.06-1 9.88 9.88 0 0 1 .23-2.14 15.27 15.27 0 0 0 .38-3.45 10.2 10.2 0 0 0-.64-3 7.21 7.21 0 0 1-.49-2.72 7.85 7.85 0 0 1 .83-2.72 12.4 12.4 0 0 0 .97-2.71zM99.39 97.63a28.6 28.6 0 0 1 1-3.36 15.93 15.93 0 0 0 .84-3.36 14.58 14.58 0 0 0-.11-3.36c-.16-.92-.35-2.46-.42-3.41s-.12-2.52-.11-3.5a4.56 4.56 0 0 0-1-2.83 6.57 6.57 0 0 0-3.1-1.4c-1.14-.19-3-.39-4.12-.45H91c0 .45 0 .88.07 1.22.07.95.26 2.48.42 3.41a14.58 14.58 0 0 1 .07 3.41 15.93 15.93 0 0 1-.84 3.36 28.6 28.6 0 0 0-1 3.36 25.73 25.73 0 0 0-.49 3.36c-.06.92-.08 2.44 0 3.36s.39 4 .78 6.73a61.62 61.62 0 0 1 .66 6.73 24.65 24.65 0 0 1-.39 3.36 16.78 16.78 0 0 0-.26 3.36 17.37 17.37 0 0 0 .57 3.36 34.11 34.11 0 0 1 .76 3.36c.15.92.11 6.18-.08 11.68l-.12 3.53c-.19 5.5-.79 10.41-1.32 10.93a5.53 5.53 0 0 1-2.82 1.12 31.65 31.65 0 0 1-3.71.11 32.37 32.37 0 0 1-3.71-.41 36.91 36.91 0 0 0-3.72-.45 43.31 43.31 0 0 0-4.73.19v1a2.12 2.12 0 0 1 0 .22 6.71 6.71 0 0 1-.45 1.48 8.07 8.07 0 0 0-.49 1.66 12.89 12.89 0 0 0-.13 2 1.7 1.7 0 0 0 1 1.45 7.45 7.45 0 0 0 3 0c1.1-.22 3.71-.57 5.79-.78a48 48 0 0 1 5.64-.28 36.91 36.91 0 0 1 3.72.45 32.37 32.37 0 0 0 3.71.41 31.65 31.65 0 0 0 3.71-.11 5.53 5.53 0 0 0 2.82-1.12c.53-.51 1.12-5.43 1.32-10.93l.12-3.53c.19-5.5.23-10.75.08-11.68a34.11 34.11 0 0 0-.76-3.36 17.37 17.37 0 0 1-.57-3.36 16.78 16.78 0 0 1 .26-3.36 24.65 24.65 0 0 0 .39-3.36 61.62 61.62 0 0 0-.66-6.73c-.39-2.77-.74-5.8-.78-6.73s0-2.44 0-3.36a25.73 25.73 0 0 1 .53-3.39zM20.14 152.52a16.51 16.51 0 0 0 1.71 2.4 8.12 8.12 0 0 0 2.25 1.68 8.91 8.91 0 0 0 2.82.63 26 26 0 0 1 3 .32 23.92 23.92 0 0 1 2.87.73 22.29 22.29 0 0 0 2.83.72 22.59 22.59 0 0 0 2.92.26 52.23 52.23 0 0 1 5.7.77 35.26 35.26 0 0 0 6.32.62 15.37 15.37 0 0 0 4-.9 20.91 20.91 0 0 0 3.5-1.91A20.38 20.38 0 0 0 61 155.2c.53-.6 1.35-1.45 2.08-2.17l.77-.74.46-.41a7.42 7.42 0 0 1-3 0 1.7 1.7 0 0 1-1-1.45 12.89 12.89 0 0 1 .13-2 8.07 8.07 0 0 1 .49-1.66 6.71 6.71 0 0 0 .45-1.48 13.78 13.78 0 0 0-.16-2.69c-.15-1.07-.68-1.78-1.17-1.59a16.8 16.8 0 0 0-2.62 1.65c-.95.71-2.41 1.91-3.25 2.68s-2.12 2.08-2.85 2.91a20.38 20.38 0 0 1-2.93 2.65 20.91 20.91 0 0 1-3.5 1.91 15.37 15.37 0 0 1-4 .9 35.26 35.26 0 0 1-6.32-.62 52.23 52.23 0 0 0-5.7-.77 22.59 22.59 0 0 1-2.92-.26 22.29 22.29 0 0 1-2.83-.72 23.92 23.92 0 0 0-2.87-.73c-.29-.05-.66-.1-1-.15.16.39.31.75.46 1.07s.28.77.42.99z"/></svg>