<svg xmlns="http://www.w3.org/2000/svg" width="91.11" height="200" viewBox="0 0 91.11 200"><title>_</title><path d="M17.24 124.2a10.43 10.43 0 0 0 1.54 2.65 13.52 13.52 0 0 1 2.1 3.6 13.5 13.5 0 0 1 .63 4.12 13.37 13.37 0 0 0 .38 3.18 12.54 12.54 0 0 0 1.3 2.83 25.6 25.6 0 0 1 1.86 3.5 28.17 28.17 0 0 1 1.22 3.92 2.67 2.67 0 0 0 1 1.5 5.74 5.74 0 0 0 2.75-.12 22.84 22.84 0 0 1 2.51-.53 21.2 21.2 0 0 1 2.53-.27h.34a22.46 22.46 0 0 1 4.57.51c1.17.28 4.16.77 6.54 1.07a48.78 48.78 0 0 0 6.38.43A33.43 33.43 0 0 0 57 150a12.3 12.3 0 0 0 3.17-1.21 7.61 7.61 0 0 0 1.94-1.91 14.14 14.14 0 0 0 1.24-2.72 16.07 16.07 0 0 0 .54-3.12 14.75 14.75 0 0 1 .87-4 15.41 15.41 0 0 1 2.13-3.51 17 17 0 0 0 1.82-2.76 35.42 35.42 0 0 0 1.43-6.52A52.56 52.56 0 0 1 71.6 117a17.82 17.82 0 0 1 1.9-3.52 20.31 20.31 0 0 0 1.67-2.87 96.91 96.91 0 0 0 2.34-10.08A95.61 95.61 0 0 1 80 89.75a22.16 22.16 0 0 1 2-3.41 23.81 23.81 0 0 0 1.74-2.89c.32-.67 1.2-3.1 2-5.54l.39-1.22a24.26 24.26 0 0 0 1-4.32 5 5 0 0 0-1 .17 25 25 0 0 1-4.44.72 56.57 56.57 0 0 1-8.11-.87 52.08 52.08 0 0 0-7.23-.8 17.69 17.69 0 0 0-3.19.6 8.23 8.23 0 0 0-2.28 1.16 18 18 0 0 0-2 4.59c-.75 2.45-1.68 5.17-2.06 6.05a29.78 29.78 0 0 1-1.66 3.19A29.37 29.37 0 0 0 53.68 90c-.31.69-1.64 4.66-3.06 9.26-.9 2.92-1.77 6-2.2 7.89a10.22 10.22 0 0 0-.26 1.32 20.75 20.75 0 0 0 .16 3.19 17.07 17.07 0 0 1 0 4 18.65 18.65 0 0 1-1.08 3.93c-.81 1.95-1.74 2.79-2.84 2.59s-1.66-1.3-1.82-3.38c-.08-1-.29-2.63-.46-3.54a31.88 31.88 0 0 0-.79-3.15 30.79 30.79 0 0 0-1.15-2.92c-.36-.78-1.07-2.07-1.54-2.82s-1.3-2.26-1.72-3.13-1.45-3.71-2.34-6.4a148.9 148.9 0 0 1-3.43-14.75v-.26c-.21-1.12-.43-2.21-.66-3.24a38.22 38.22 0 0 0-1.77-6.27 5.18 5.18 0 0 0-2 0 20.69 20.69 0 0 1-4.53.45 20.07 20.07 0 0 1-4.44-.75 19.52 19.52 0 0 0-3.66-.68 18.5 18.5 0 0 0-3.64.22c-1.13.21-3.76.51-5.87.68a11.92 11.92 0 0 0-3.75.79 2.93 2.93 0 0 0-.33 1.38 10.55 10.55 0 0 0 .5 2.72 13.43 13.43 0 0 0 1.47 2.71 26.31 26.31 0 0 1 2 3.37 24.4 24.4 0 0 1 1.34 3.61c.26 1 .75 3.42 1.09 5.42a45.63 45.63 0 0 0 1.11 5 21.63 21.63 0 0 0 1.33 3 29.39 29.39 0 0 1 1.66 3.5 29.11 29.11 0 0 1 1 3.66 18.41 18.41 0 0 0 1 3.09 19.43 19.43 0 0 0 1.63 2.88 14.46 14.46 0 0 1 1.78 3.68 15.1 15.1 0 0 1 .47 4.1 10.31 10.31 0 0 0 .36 3.05z"/><path d="M84.42 121.26a21.85 21.85 0 0 0 1.82-3.13 93.42 93.42 0 0 0 2.44-10.41 97.12 97.12 0 0 1 2.43-10.42 20.72 20.72 0 0 1 1.81-3.14A25.14 25.14 0 0 0 94.79 91c.43-.89 1.54-4 2.48-7s1.37-5.64 1-6a3.87 3.87 0 0 0-2.85 0 23.24 23.24 0 0 1-4.11.67 25.49 25.49 0 0 1-3.14-.21l-1-.12c-.83 2.54-1.71 5-2.08 5.72a25.14 25.14 0 0 1-1.87 3.12 20.72 20.72 0 0 0-1.81 3.14A97.12 97.12 0 0 0 79 100.77a93.42 93.42 0 0 1-2.44 10.41 21.85 21.85 0 0 1-1.82 3.13 16.34 16.34 0 0 0-1.74 3.17 52.08 52.08 0 0 0-1.4 7 35.36 35.36 0 0 1-1.57 7 18.51 18.51 0 0 1-2 3.06 13.92 13.92 0 0 0-1.88 3.11 13.2 13.2 0 0 0-.76 3.49 17.66 17.66 0 0 1-.6 3.48 15.55 15.55 0 0 1-1.4 3.08 9 9 0 0 1-2.42 2.38 13.69 13.69 0 0 1-3.65 1.4 34.92 34.92 0 0 1-4.32.58 48.66 48.66 0 0 1-6.65-.44c-2.46-.31-5.47-.81-6.7-1.1a20.74 20.74 0 0 0-4.53-.47 19.6 19.6 0 0 0-2.34.25c.17.33.32.65.46.94l.17.37a26.51 26.51 0 0 1 1.15 3.64 4 4 0 0 0 1.83 2.54 6.79 6.79 0 0 0 3.77-.05 23.17 23.17 0 0 1 4.67-.74 20.74 20.74 0 0 1 4.53.47c1.23.29 4.24.79 6.7 1.1a48.66 48.66 0 0 0 6.65.44 34.92 34.92 0 0 0 4.32-.58 13.69 13.69 0 0 0 3.65-1.4 9 9 0 0 0 2.42-2.38 15.55 15.55 0 0 0 1.4-3.08 17.66 17.66 0 0 0 .6-3.48 13.2 13.2 0 0 1 .76-3.49 13.92 13.92 0 0 1 1.88-3.11 18.51 18.51 0 0 0 2-3.06 35.36 35.36 0 0 0 1.57-7 52.08 52.08 0 0 1 1.4-7 16.34 16.34 0 0 1 1.71-3.17zM47 106.82c-.2-.54-.4-1.12-.61-1.72s-.41-1.2-.61-1.8a147.35 147.35 0 0 1-3.38-14.55v-.26c-1-5.41-2.34-10.13-3-10.48a5.44 5.44 0 0 0-3.24-.17 19.94 19.94 0 0 1-3.16.4h-1c.23 1 .46 2.15.67 3.29v.26A147.35 147.35 0 0 0 36 96.36c.86 2.59 1.88 5.4 2.27 6.23s1.13 2.17 1.63 3a33.81 33.81 0 0 1 1.62 3 31.74 31.74 0 0 1 1.22 3.09 33.16 33.16 0 0 1 .83 3.33c.18 1 .4 2.63.48 3.7s.35 2 .6 2 .78-.72 1.18-1.69a17.24 17.24 0 0 0 1-3.55 15.57 15.57 0 0 0 0-3.56 22.33 22.33 0 0 1-.17-3.47 11.7 11.7 0 0 1 .34-1.62z"/></svg>