<svg xmlns="http://www.w3.org/2000/svg" width="133.35" height="200" viewBox="0 0 133.35 200"><title>_</title><path d="M11.81 133.47a87.43 87.43 0 0 0 2.67 10.85 11.34 11.34 0 0 0 1.9 2.31 24 24 0 0 0 2.73 2 26.33 26.33 0 0 0 3.13 1.58 9.3 9.3 0 0 0 1 .33 11.54 11.54 0 0 0 2.12.38 13.22 13.22 0 0 0 3.35-.38 27.25 27.25 0 0 1 4.19-.72 26.44 26.44 0 0 1 4.2.09 35.35 35.35 0 0 0 3.68.2 33.39 33.39 0 0 0 3.6-.29 7.7 7.7 0 0 0 2.49-.85 4.14 4.14 0 0 0 1.2-1.46 9.25 9.25 0 0 0 .53-2.35 12.17 12.17 0 0 0-.25-2.72 7.43 7.43 0 0 1 .28-4 9.27 9.27 0 0 1 2.58-3.24 11.82 11.82 0 0 0 2.1-2.19 7.41 7.41 0 0 0 .92-2.27c.13-.78.29-2.1.35-2.89s.09-2.15.07-3-.13-2.18-.25-3-.4-2.26-.61-3.12a7.67 7.67 0 0 1 .14-4 9 9 0 0 1 2.4-3.3 6.17 6.17 0 0 0 1.5-2 5 5 0 0 0 0-2.24 16.16 16.16 0 0 1-.5-2.31v-1.14l1.12-.4a1.68 1.68 0 0 1 2 1 20.19 20.19 0 0 0 1.21 1.63 31.81 31.81 0 0 1 2 2.81 28.6 28.6 0 0 1 1.55 3 12.08 12.08 0 0 1 .84 3.47 14.49 14.49 0 0 1-.34 3.69 15.4 15.4 0 0 0-.36 2.91 12.34 12.34 0 0 0 .36 2.65 11.62 11.62 0 0 0 1 2.27l.07.23a14.81 14.81 0 0 0 1.94 2.36 10.17 10.17 0 0 1 2.21 3.23 9 9 0 0 1 .41 3.8 18.68 18.68 0 0 0-.11 2.91 16.41 16.41 0 0 0 .45 2.72 51.08 51.08 0 0 1 .9 5.21 7.93 7.93 0 0 0 1 3.25 5.35 5.35 0 0 0 2.26.1 39.76 39.76 0 0 1 4.48-.48h.25a75.31 75.31 0 0 1 7.95.76 67.36 67.36 0 0 0 7.6.74 26.29 26.29 0 0 0 3.79-.45 6.44 6.44 0 0 0 2.52-1.18 32.43 32.43 0 0 0 2.26-7.44c.87-4.1 1.49-7.85 1.51-8.65a22.39 22.39 0 0 1 .49-3.87c.33-1.4 2.92-6.76 4.59-10a87.68 87.68 0 0 0 4.31-9.34 16.6 16.6 0 0 0 .29-3.24 11.82 11.82 0 0 1 .72-4.11 13 13 0 0 1 2.4-3.59 16.68 16.68 0 0 0 2-2.73 14 14 0 0 0 1.17-2.9 18.32 18.32 0 0 0 .43-3.23 22.32 22.32 0 0 0-.26-3.51 19.47 19.47 0 0 1-.2-4.14 16.59 16.59 0 0 1 .88-3.87c.19-.48.46-1.12.74-1.75s.57-1.22.8-1.67c.47-.91 1.34-2.38 1.95-3.3h-.18a30.16 30.16 0 0 1-4.12.64 28.64 28.64 0 0 1-4.08-.08c-1.09-.12-3.71-.59-5.84-1a44 44 0 0 0-5.41-.86 18.56 18.56 0 0 0-3.39.24 7.67 7.67 0 0 0-2.47 1 20.09 20.09 0 0 0-2.79 4.66 37.07 37.07 0 0 0-2.23 5.6 12.93 12.93 0 0 0 0 2.88 16.78 16.78 0 0 1-.07 3.69 15.72 15.72 0 0 1-1 3.48 9 9 0 0 0-.63 2.58 11.21 11.21 0 0 0 .37 2.93 14.08 14.08 0 0 1 .47 3.91 11.61 11.61 0 0 1-.92 3.67c-.28.59-.89 1.7-1.65 3-.32.53-.64 1.06-1 1.56a26.46 26.46 0 0 0-2.18 4.06 11.45 11.45 0 0 0-.47 2.73c0 .84-.07 2-.13 2.48a2.21 2.21 0 0 1-.53 1.29 1.51 1.51 0 0 1-1.49 1.35 1.39 1.39 0 0 1-1.45-1.24 1.77 1.77 0 0 1-1.12-.6c-.22-.25-.63-.71-1.88-7.44-.7-3.73-1.4-7-1.61-7.69a18.22 18.22 0 0 1-.64-3.51 20.29 20.29 0 0 1 .16-3.67 16.18 16.18 0 0 0 .11-3 14.15 14.15 0 0 0-.59-2.78c-.31-.88-.87-3.05-1.26-4.84a28 28 0 0 0-1.26-4.31 15.8 15.8 0 0 0-1.6-2.56c-.17-.22-.35-.46-.54-.73a17.3 17.3 0 0 1-1.4-2.41 14.06 14.06 0 0 1-1-3.35 2.48 2.48 0 0 0-.38-1 20.59 20.59 0 0 0-4.78.32 35.08 35.08 0 0 1-7.05.54 17.22 17.22 0 0 1-3.77-1.07 32.18 32.18 0 0 0-3.32-1.17 35.41 35.41 0 0 0-3.59-.74 2.87 2.87 0 0 0-1.35.13 3.91 3.91 0 0 0 0 1.62A27.6 27.6 0 0 1 49 77a18.56 18.56 0 0 1-.3 3.75c-.19.91-.58 2.37-.86 3.26s-.82 2.31-1.2 3.17c-.25.57-1.35 4.89-2.59 10.64-.55 2.54-1.27 5.57-2 8.53s-1.49 5.53-2 7.19c-2.11 6.51-2.64 7-2.84 7.19a2.07 2.07 0 0 1-1.74.6 1.64 1.64 0 0 1-1.19-.85 1.77 1.77 0 0 1-.2-1.24c-.09-.29-.34-1-.66-1.67a17.58 17.58 0 0 1-1.05-3.41 18.5 18.5 0 0 1-.22-3.61 19.27 19.27 0 0 0-.12-3 72 72 0 0 0-2.3-7.39c-1.25-3.52-2.51-6.69-2.86-7.33a15.22 15.22 0 0 1-1.28-3.43 15.55 15.55 0 0 1-.26-3.67c.06-.87.08-2.31 0-3.16s-.17-2.25-.3-3.06c0-.09 0-.19-.06-.29a16 16 0 0 0-.71-2.47 17.17 17.17 0 0 0-1.44-2.65 3.92 3.92 0 0 0-1.64-1.26 6.22 6.22 0 0 0-2.6.15 14.88 14.88 0 0 1-4.46.5 15.66 15.66 0 0 1-4.42-1.08 10.66 10.66 0 0 0-3.29-.7 10.06 10.06 0 0 0-3.28.81 21.12 21.12 0 0 1-4 1.38 12.23 12.23 0 0 1-3.74.1 2.85 2.85 0 0 0-1.39.2 3 3 0 0 0-.75 1.23A9 9 0 0 0-7 77.92a11.91 11.91 0 0 0 .64 2.78 18.83 18.83 0 0 0 1.47 2.9 22.51 22.51 0 0 0 2.2 2.72 12.72 12.72 0 0 1 2.34 3.55A11.82 11.82 0 0 1 .34 94a24.52 24.52 0 0 0 .16 3.43c.09.67 1.55 5.11 3.71 10.8l1.71 4.5a148.83 148.83 0 0 1 5.61 19.38z"/><path d="M35.53 119.62c-.07 0-.06 0 0 .19s.35.09.59-.14a47.68 47.68 0 0 0 2.43-6.55c.55-1.69 1.27-4.28 2-7.1l-.55-1.67c-.92-2.48-1.78-4.62-2.11-5.24a13.71 13.71 0 0 1-1.13-3 14.05 14.05 0 0 1-.23-3.25c.06-.93.08-2.42 0-3.32s-.18-2.35-.32-3.23a16.75 16.75 0 0 0-.86-3.1 18.75 18.75 0 0 0-1.6-2.94 5.34 5.34 0 0 0-2.46-1.85 7.41 7.41 0 0 0-3.44.16l-.46.11c-.31.07-.63.14-1 .19 0 .17.07.35.1.49.14.88.28 2.33.32 3.23s0 2.39 0 3.32a14.05 14.05 0 0 0 .19 3.22 13.71 13.71 0 0 0 1.13 3c.44.8 1.76 4.2 3 7.54a70 70 0 0 1 2.38 7.68 20.82 20.82 0 0 1 .13 3.28 17 17 0 0 0 .2 3.26 16.16 16.16 0 0 0 .95 3.07 15.17 15.17 0 0 1 .79 2.1c.02.36.02.59-.05.55zM49.48 148.1a5.57 5.57 0 0 1-1.76 2.14 9.11 9.11 0 0 1-3.1 1.09 34.43 34.43 0 0 1-3.8.3 36.21 36.21 0 0 1-3.87-.21 24.48 24.48 0 0 0-3.91-.08 25.59 25.59 0 0 0-3.91.68 14.7 14.7 0 0 1-3.82.43 13 13 0 0 1-2.43-.43 10.46 10.46 0 0 0 .86 1.22 12.22 12.22 0 0 0 1.34 1.46 25.47 25.47 0 0 0 2.92 2.17 27.56 27.56 0 0 0 3.35 1.69 13.51 13.51 0 0 0 3.65.82 14.7 14.7 0 0 0 3.82-.43 25.59 25.59 0 0 1 3.91-.68 24.48 24.48 0 0 1 3.91.08 36.21 36.21 0 0 0 3.87.21 34.43 34.43 0 0 0 3.8-.3 9.11 9.11 0 0 0 3.1-1.09 5.57 5.57 0 0 0 1.78-2.17 10.58 10.58 0 0 0 .64-2.83 13.61 13.61 0 0 0-.29-3.14 6.05 6.05 0 0 1 .21-3.07 7.83 7.83 0 0 1 2.11-2.62 13.24 13.24 0 0 0 2.42-2.55 8.87 8.87 0 0 0 1.15-2.79c.14-.83.3-2.19.36-3s.09-2.24.07-3.1c0-.56-.07-1.36-.14-2.1 0-.39-.08-.77-.12-1.08s-.1-.66-.17-1a13 13 0 0 1-1.15-2.72 13.72 13.72 0 0 1-.41-3.05 16.78 16.78 0 0 1 .41-3.27 13 13 0 0 0 .3-3.24 10.75 10.75 0 0 0-.72-3 26.94 26.94 0 0 0-1.45-2.78 30.29 30.29 0 0 0-1.89-2.66 19.51 19.51 0 0 1-1.35-1.84c-.17-.3-.3-.41-.3-.25a19.34 19.34 0 0 0 .45 2 6.3 6.3 0 0 1-.06 3.11 7.44 7.44 0 0 1-1.95 2.66 7.58 7.58 0 0 0-2 2.66 6.31 6.31 0 0 0-.1 3.1c.23.91.52 2.39.64 3.27s.24 2.32.26 3.18 0 2.26-.07 3.1-.22 2.21-.36 3a8.87 8.87 0 0 1-1.15 2.85 13.24 13.24 0 0 1-2.42 2.55 7.83 7.83 0 0 0-2.11 2.66 6.05 6.05 0 0 0-.21 3.07 13.61 13.61 0 0 1 .29 3.14 10.58 10.58 0 0 1-.6 2.84zM135.71 78.22a28.29 28.29 0 0 1-3.87.6 26.21 26.21 0 0 1-3.82-.07c-.42 0-1.08-.15-1.85-.28l-1-.18c-.27.6-.53 1.2-.71 1.66a15.1 15.1 0 0 0-.79 3.45 18.12 18.12 0 0 0 .18 3.76 23.79 23.79 0 0 1 .28 3.79 19.9 19.9 0 0 1-.47 3.55 15.38 15.38 0 0 1-1.33 3.28 18.26 18.26 0 0 1-2.27 3 11.45 11.45 0 0 0-2 3.06 10.48 10.48 0 0 0-.61 3.51 18.16 18.16 0 0 1-.33 3.6 84.32 84.32 0 0 1-4.44 9.7 89.88 89.88 0 0 0-4.46 9.69 21.08 21.08 0 0 0-.45 3.56 86.5 86.5 0 0 1-1.54 8.92c-.82 3.9-2 7.6-2.7 8.22a7.9 7.9 0 0 1-3.24 1.56 28 28 0 0 1-4 .48 72.75 72.75 0 0 1-7.86-.76 69.3 69.3 0 0 0-7.94-.74c.05.32.11.66.16 1 .09.59.18 1.19.25 1.77.25 1.94 1 3.87 1.64 4.27a5.8 5.8 0 0 0 3.39.36 38.29 38.29 0 0 1 4.28-.46 69.3 69.3 0 0 1 7.94.74 72.75 72.75 0 0 0 7.86.76 28 28 0 0 0 4-.48 7.9 7.9 0 0 0 3.24-1.56c.66-.62 1.88-4.32 2.7-8.22a86.5 86.5 0 0 0 1.54-8.92 21.08 21.08 0 0 1 .45-3.56 89.88 89.88 0 0 1 4.46-9.69 84.32 84.32 0 0 0 4.44-9.7 18.16 18.16 0 0 0 .33-3.6 10.48 10.48 0 0 1 .61-3.51 11.45 11.45 0 0 1 2-3.06 18.26 18.26 0 0 0 2.27-3 15.38 15.38 0 0 0 1.33-3.28 19.9 19.9 0 0 0 .47-3.55 23.79 23.79 0 0 0-.28-3.79 18.12 18.12 0 0 1-.18-3.76 15.1 15.1 0 0 1 .79-3.45c.35-.91 1-2.38 1.48-3.26s1.31-2.32 1.89-3.19.84-1.83.6-2.13-1.37-.31-2.44-.09zM81.52 101.81a16.75 16.75 0 0 0 .58 3.19c.26.85 1 4.38 1.66 7.85a48.89 48.89 0 0 0 1.54 6.73c.2.23.51.07.69-.36s.41-.69.5-.6a4.23 4.23 0 0 1 .21 1.49c0 .73 0 1 .06.63a4.14 4.14 0 0 1 .1-.88c0-.11.14-.06.21.1s.17 0 .22-.38.1-1.42.12-2.33a12.92 12.92 0 0 1 .54-3.18 27.32 27.32 0 0 1 2.33-4.39c.31-.49.63-1 .94-1.52a21 21 0 0 1 .1-2.16c0-.21 0-.4.07-.58a17.41 17.41 0 0 0 .12-3.34 15.49 15.49 0 0 0-.67-3.14c-.3-.86-.84-2.94-1.21-4.68a29 29 0 0 0-1.36-4.63 17.18 17.18 0 0 0-1.79-2.87 16.12 16.12 0 0 1-1.74-2.82A12.5 12.5 0 0 1 83.9 81a3.42 3.42 0 0 0-1.08-2.11c-.46-.32-2.85-.27-5.41.1l-.4.06-.72.11c.16.24.33.46.48.65a17.18 17.18 0 0 1 1.79 2.87 29 29 0 0 1 1.36 4.63c.37 1.73.92 3.83 1.21 4.67a15.49 15.49 0 0 1 .67 3.14 17.41 17.41 0 0 1-.12 3.34 18.89 18.89 0 0 0-.16 3.35z"/></svg>