<svg xmlns="http://www.w3.org/2000/svg" width="113" height="200" viewBox="0 0 113 200"><title>_</title><path d="M7.59 150.5c1.35-.12 4.46-.63 6.94-1.14 1.53-.31 3.34-.61 4.84-.79a21.1 21.1 0 0 1 2.26-.18 24 24 0 0 1 4.79.59 31.75 31.75 0 0 0 4.16.68 29.87 29.87 0 0 0 4.09 0 8.48 8.48 0 0 0 2.86-.81 3.89 3.89 0 0 0 1.27-1.52 15.86 15.86 0 0 1 1.67-3.09 19 19 0 0 1 2.49-2.7 12.68 12.68 0 0 0 1.92-2.19 11.53 11.53 0 0 0 1.12-2.57c.25-.93 1-3.08 1.73-4.81s1.89-3.91 3.33-4h.19a4.3 4.3 0 0 1 3 1.84c.58.77 1.82 2.67 2.77 4.23s2.13 3.75 2.94 5.42l.2.4a49.46 49.46 0 0 1 2 4.68c.29.91.69 2.45.9 3.43a3.85 3.85 0 0 0 1.11 1.81 7.71 7.71 0 0 0 2.89 1 34 34 0 0 0 3.57.24h.67a31.79 31.79 0 0 0 4.25-.46c1.29-.25 3.37-.52 4.64-.62s5.42 0 9.43.19a50.13 50.13 0 0 0 5.59 0 66.52 66.52 0 0 0-4.54-6.56c-2.48-3.23-6.37-8.45-6.94-9.59a24.54 24.54 0 0 0-1.5-2.54 24.87 24.87 0 0 0-1.86-2.31 15.83 15.83 0 0 1-2.07-2.91 16.87 16.87 0 0 1-1.25-3.41 10.19 10.19 0 0 0-1-2.52 10 10 0 0 0-1.83-2 12.78 12.78 0 0 1-2.49-2.68 11.76 11.76 0 0 1-1.39-3.31 11.61 11.61 0 0 1-.2-3.42 9.51 9.51 0 0 1 1-3.11c.49-.84 2.74-3.66 4.61-5.88a62 62 0 0 0 4.29-5.54 17.9 17.9 0 0 0 1-2.55 21.74 21.74 0 0 1 1.24-3.07A20.17 20.17 0 0 1 84.09 86c.54-.69 2.79-3.14 5.12-5.58 1-1 1.88-2 2.66-2.88a29.27 29.27 0 0 0 1.92-2.26 9.92 9.92 0 0 0 .83-1.78.46.46 0 0 0 0-.16 7.35 7.35 0 0 0-1.89-.54 29.91 29.91 0 0 0-3.73-.24 37.43 37.43 0 0 0-4 .35 26.24 26.24 0 0 1-4.71.21 27.43 27.43 0 0 1-4.7-.81 36.13 36.13 0 0 0-4.21-.85 36.2 36.2 0 0 0-4.38-.23 10.85 10.85 0 0 0-3.25.6 4.83 4.83 0 0 0-1.71 1.42 11.38 11.38 0 0 0-1.72 5.06 9.31 9.31 0 0 1-1.08 3.4 9.8 9.8 0 0 1-2.48 2.61l-.22.17A8.9 8.9 0 0 0 55 86a7.65 7.65 0 0 0-.92 2.12c-.25 1.11-.8 2.48-2 2.69-1 .18-2-.58-2.67-2.08-.3-.67-.87-1.76-1.23-2.39s-1-1.66-1.48-2.25a12.37 12.37 0 0 1-1.51-2.92 14.12 14.12 0 0 1-.59-3.32v-.05a10.87 10.87 0 0 0-.47-2.43 11.08 11.08 0 0 0-1.24-2.31A3.77 3.77 0 0 0 41.17 72a9.7 9.7 0 0 0-3.29.12 28.49 28.49 0 0 1-4.91.55 30.12 30.12 0 0 1-4.82-.5 21.42 21.42 0 0 0-4.1-.42 22.48 22.48 0 0 0-4.12.54 34.8 34.8 0 0 1-4.63.71 31.23 31.23 0 0 1-4.53 0 8.07 8.07 0 0 0-1.37 0 11.39 11.39 0 0 0 1.14 1.54 15.1 15.1 0 0 0 2 1.7A12.79 12.79 0 0 1 15 78.62a12.27 12.27 0 0 1 1.56 3.07 22.15 22.15 0 0 0 1 2.57c.25.49 2.3 3.3 5.09 6.76a68.28 68.28 0 0 1 5.42 7.39 19.6 19.6 0 0 1 1 3.19 7.93 7.93 0 0 0 1 2.28 10.08 10.08 0 0 0 2 1.92 5.83 5.83 0 0 1 2.39 3.2 6 6 0 0 1-1 3.87 22.77 22.77 0 0 1-2.39 3 20.8 20.8 0 0 1-2.88 2.35 11.19 11.19 0 0 0-2.08 1.85 10.5 10.5 0 0 0-1.35 2.36 29.31 29.31 0 0 1-1.45 3.14 66.17 66.17 0 0 1-3.8 5.43 52.2 52.2 0 0 0-3.5 5 20.14 20.14 0 0 0-1.09 2.8 11.16 11.16 0 0 1-1.75 3.39 12.24 12.24 0 0 1-3 2.49 12.15 12.15 0 0 0-2.41 1.93 15.64 15.64 0 0 0-1.92 2.85 2.33 2.33 0 0 0-.25.93 6.77 6.77 0 0 0 2 .11z"/><path d="M107 158.18c.38-.39-2-4.26-5.39-8.62s-6.39-8.55-6.78-9.34a26.15 26.15 0 0 0-1.61-2.73 26.44 26.44 0 0 0-2-2.48 14.28 14.28 0 0 1-1.84-2.58 15.43 15.43 0 0 1-1.12-3.06 11.5 11.5 0 0 0-1.23-3 11.32 11.32 0 0 0-2.21-2.37 11.46 11.46 0 0 1-2.15-2.31 10.44 10.44 0 0 1-1.18-2.82 10.2 10.2 0 0 1-.18-2.9 8 8 0 0 1 .85-2.55c.38-.65 2.38-3.2 4.46-5.67a60.52 60.52 0 0 0 4.47-5.8 19.4 19.4 0 0 0 1.15-2.81 20.46 20.46 0 0 1 1.14-2.82A18.83 18.83 0 0 1 95 93.85c.5-.64 2.76-3.1 5-5.48a67.37 67.37 0 0 0 4.78-5.37 11 11 0 0 0 1-2.12 1.74 1.74 0 0 0-.47-1.71 6.67 6.67 0 0 0-2.69-.92 30.85 30.85 0 0 0-3.97-.25 38.53 38.53 0 0 0-4.19.36h-.05c-.41.06-.9.11-1.42.15-.79.88-1.73 1.9-2.69 2.91-2.26 2.37-4.52 4.84-5 5.48a18.83 18.83 0 0 0-1.6 2.49 20.46 20.46 0 0 0-1.14 2.82A19.4 19.4 0 0 1 81.38 95a60.52 60.52 0 0 1-4.47 5.8c-2.08 2.47-4.08 5-4.46 5.67a8 8 0 0 0-.85 2.55 10.2 10.2 0 0 0 .18 2.9 10.44 10.44 0 0 0 1.22 2.85 11.46 11.46 0 0 0 2.15 2.31 11.32 11.32 0 0 1 2.17 2.36 11.5 11.5 0 0 1 1.23 3 15.43 15.43 0 0 0 1.12 3.06 14.28 14.28 0 0 0 1.84 2.58 26.44 26.44 0 0 1 2 2.48 26.15 26.15 0 0 1 1.61 2.73c.39.79 3.44 5 6.78 9.34s5.76 8.23 5.39 8.62-3.84.55-7.7.35-8-.28-9.24-.19-3.24.36-4.47.59a33.5 33.5 0 0 1-4.49.49h-.82c.09.31.18.66.28 1 .16.6.31 1.21.41 1.68a5.28 5.28 0 0 0 1.67 2.7 9.12 9.12 0 0 0 3.6 1.31 34.17 34.17 0 0 0 4.54.25 33.5 33.5 0 0 0 4.49-.49c1.23-.24 3.24-.5 4.47-.59s5.39 0 9.24.19 7.31.02 7.73-.36zM53.81 79.11a5.21 5.21 0 0 0-2.58-1.67 10.93 10.93 0 0 0-4 .12h-.18l-1 .17v.07a12.52 12.52 0 0 0 .51 2.9 11 11 0 0 0 1.3 2.51c.47.63 1.17 1.71 1.56 2.38s1 1.81 1.31 2.53a1.89 1.89 0 0 0 1 1.22 2.34 2.34 0 0 0 .79-1.54 9 9 0 0 1 1.15-2.65 10.1 10.1 0 0 1 1.86-1.88c-.07-.38-.16-.74-.25-1.07 0-.15-.08-.3-.12-.42a12.55 12.55 0 0 0-1.35-2.67zM17.44 158.94c1.39-.12 4.59-.65 7.11-1.16a46.43 46.43 0 0 1 6.8-.94 22.27 22.27 0 0 1 4.43.54 33.22 33.22 0 0 0 4.4.72 30.66 30.66 0 0 0 4.34 0 9.85 9.85 0 0 0 3.51-1 5.33 5.33 0 0 0 1.9-2.27 14.32 14.32 0 0 1 1.46-2.83 17.3 17.3 0 0 1 2.25-2.44 14.09 14.09 0 0 0 2.2-2.51 12.88 12.88 0 0 0 1.31-3c.15-.57.52-1.64.95-2.77.16-.43.33-.86.5-1.29-.78-1.6-2-3.89-2.87-5.29s-2.13-3.37-2.68-4.1a2.81 2.81 0 0 0-1.84-1.24c-.46 0-1.4 1.45-2.08 3.12s-1.44 3.76-1.68 4.63a12.88 12.88 0 0 1-1.31 3 14.09 14.09 0 0 1-2.2 2.51 17.3 17.3 0 0 0-2.25 2.44 14.32 14.32 0 0 0-1.48 2.75 5.33 5.33 0 0 1-1.9 2.27 9.85 9.85 0 0 1-3.51 1 30.66 30.66 0 0 1-4.34 0 33.22 33.22 0 0 1-4.4-.72 22.27 22.27 0 0 0-4.43-.54 19.76 19.76 0 0 0-2.08.17l-.39.25a11.84 11.84 0 0 0-1.47 1 12.21 12.21 0 0 0-1.32 1.21 17 17 0 0 0-2.15 3.18c-.51 1-.56 2.19-.12 2.63a5.25 5.25 0 0 0 3.34.68z"/></svg>