<svg xmlns="http://www.w3.org/2000/svg" width="93.3" height="200" viewBox="0 0 93.3 200"><title>_</title><path d="M4.8 82.88a10.48 10.48 0 0 0 .88 2.61c.46.84 1.12 2.23 1.47 3.09s1.25 3.69 2 6.39a40.58 40.58 0 0 0 2 5.8A15.39 15.39 0 0 0 13 103.2a21.28 21.28 0 0 1 2.31 2.94 18.77 18.77 0 0 1 1.56 3.26 32.19 32.19 0 0 1 .91 3.34 33.78 33.78 0 0 1 .48 3.48 19.48 19.48 0 0 0 .5 3 47.19 47.19 0 0 0 2.59 5.63 39.74 39.74 0 0 1 2.78 6.32 17 17 0 0 1 .34 3.74 12 12 0 0 0 .31 2.88 11 11 0 0 0 1.16 2.54 19 19 0 0 1 1.61 3.09 15.3 15.3 0 0 1 .79 3.2 14.21 14.21 0 0 1 0 2.81 6.32 6.32 0 0 1-.77 2.31c-.27.42-.95 1.3-1.57 2a6.33 6.33 0 0 1-2.86 2 11.06 11.06 0 0 1-3 .18 16.5 16.5 0 0 0-2.18 0 2.87 2.87 0 0 0-.71.16 3 3 0 0 1-1.56.5 2.59 2.59 0 0 1-1.08-.22l-.11.17a3.56 3.56 0 0 1-2 1.62 3.55 3.55 0 0 1-2-.2 4.52 4.52 0 0 0-.07.54 8.9 8.9 0 0 0 .26 2.35 11.28 11.28 0 0 0 1.11 2.41 7.86 7.86 0 0 1 1.2 3.56 7.65 7.65 0 0 1-1 3.59 11 11 0 0 0-1 2.39 8.71 8.71 0 0 0-.16 2.33 5.18 5.18 0 0 0 .43 1.58 1.2 1.2 0 0 0 .42.32 10.79 10.79 0 0 0 1.46.18 10.28 10.28 0 0 0 1.46-.07c.41-.05 1.16-.2 1.62-.32s1.31-.38 1.83-.57 1.07-.34 1.66-.48l.64-.14a16.91 16.91 0 0 1 2.36-.24 41.77 41.77 0 0 1 5.17.77 40.81 40.81 0 0 0 5.62.71 51.92 51.92 0 0 0 7.2-1.22 46.55 46.55 0 0 0 6.29-1.77 9.55 9.55 0 0 0 1.94-1.51c.62-.66 2.2-2.08 3.6-3.24a40.22 40.22 0 0 0 3.28-3 17.52 17.52 0 0 0 1.65-2.26c.42-.71 1.53-2.9 2.44-4.8s2-4.36 2.3-5.39.84-2.81 1.09-3.91a37.43 37.43 0 0 0 .62-3.79 28.67 28.67 0 0 0 .08-3.47 9.8 9.8 0 0 1 .74-4 11 11 0 0 1 2.59-3.28 16.93 16.93 0 0 0 2.27-2.38 13.1 13.1 0 0 0 1.4-2.59c.26-.71 1.17-4 2.11-7.86s1.67-7.21 1.77-8 .24-2.36.27-3.27.18-2.58.33-3.56.45-2.49.69-3.44a14 14 0 0 1 1.54-3.49 17.07 17.07 0 0 1 2.65-3 6.82 6.82 0 0 0 1.64-2.2 6.57 6.57 0 0 0 .19-2.66 15.12 15.12 0 0 1-.07-4 12.89 12.89 0 0 1 1.23-3.64 20.31 20.31 0 0 0 2.12-5.81 19.65 19.65 0 0 1 1.24-3.7c.07-.16.16-.33.26-.52a30.32 30.32 0 0 1 1.93-3.22 3.43 3.43 0 0 0 .55-1.21 5.07 5.07 0 0 0-1.53-.36c-1.25-.09-4-.13-6.23-.1a44.19 44.19 0 0 0-5.7.42 34.13 34.13 0 0 0-3.65 1 24.68 24.68 0 0 1-4.13 1 21.92 21.92 0 0 1-4.12.06 6.14 6.14 0 0 0-2.44.29 4.07 4.07 0 0 0-1.43 1.38 8.46 8.46 0 0 0-.81 2.45 10.67 10.67 0 0 0 .15 2.87 9.54 9.54 0 0 1-.11 4.07 9.66 9.66 0 0 1-2.12 3.49 11.22 11.22 0 0 0-1.72 2.39 24.77 24.77 0 0 0-.71 5.86c-.08 2.79-.25 5.83-.38 6.77a49 49 0 0 1-1.63 5.37c-.47 1.37-1 2.9-1.58 4.43-3.27 8.86-3.63 9.07-5 8.72-.69-.17-1.5-.71-1.55-3.39 0-1-.13-2.54-.25-3.42-.08-.66-1.39-5.13-3.33-10.92l-4-11.76C35.61 86.63 33.87 81 33.73 79.9a12.22 12.22 0 0 0-.34-1.6 9 9 0 0 0-.32-1 10.19 10.19 0 0 0-1.25-2.08A7.86 7.86 0 0 0 30 73.73a12 12 0 0 0-2.69-.93 31.54 31.54 0 0 0-3.46-.45c-1-.06-2.69-.06-3.72 0s-3 .07-4.2 0-3-.28-4.19-.48a26.51 26.51 0 0 0-3.66-.32 23.05 23.05 0 0 0-3.53.33 4.37 4.37 0 0 0-1.29.46 1.33 1.33 0 0 0 .18.4 10.23 10.23 0 0 1 1.32 3.31 14.24 14.24 0 0 1 0 3.82 12.68 12.68 0 0 0 .04 3.01z"/><path d="M99.82 79.68c.7-1 1-2.24.74-2.78s-1.56-1.06-2.84-1.15-4.13-.14-6.36-.1c-.62 0-1.27 0-1.91.07l-1.17.07-.23.47a18.24 18.24 0 0 0-1.13 3.36 26.44 26.44 0 0 1-.9 3.2 26.68 26.68 0 0 1-1.38 3A11.32 11.32 0 0 0 83.59 89a13.6 13.6 0 0 0 .06 3.53 8 8 0 0 1-.26 3.42 8.25 8.25 0 0 1-2 2.82 15.57 15.57 0 0 0-2.39 2.68 12.45 12.45 0 0 0-1.35 3c-.23.89-.53 2.36-.66 3.28s-.27 2.45-.31 3.4-.17 2.49-.29 3.41-.93 4.59-1.8 8.15-1.84 7.17-2.16 8a14.47 14.47 0 0 1-1.61 3 18.49 18.49 0 0 1-2.52 2.64 9.58 9.58 0 0 0-2.19 2.76 8.34 8.34 0 0 0-.6 3.3 30.23 30.23 0 0 1-.09 3.71 38.84 38.84 0 0 1-.65 4c-.26 1.13-.77 3-1.13 4.05s-1.43 3.6-2.37 5.57-2.06 4.18-2.5 4.92a19.14 19.14 0 0 1-1.83 2.5 41 41 0 0 1-3.44 3.13c-1.33 1.09-2.89 2.49-3.46 3.1a10.92 10.92 0 0 1-2.33 1.81 45 45 0 0 1-6.71 1.93 52.7 52.7 0 0 1-7.54 1.26 36.75 36.75 0 0 1-5.91-.74 38.19 38.19 0 0 0-4.85-.74 15.58 15.58 0 0 0-2.11.21l-.56.12c-.18.37-.36.78-.5 1.17a8.67 8.67 0 0 0-.32 1 10.11 10.11 0 0 0-.19 2.84 6.32 6.32 0 0 0 .65 2.23 2.5 2.5 0 0 0 1.37 1 12.42 12.42 0 0 0 1.72.22 12 12 0 0 0 1.72-.08c.47-.06 1.28-.22 1.79-.36s1.4-.41 2-.61a16 16 0 0 1 2.07-.56 15.58 15.58 0 0 1 2.11-.21 38.19 38.19 0 0 1 4.85.74 36.75 36.75 0 0 0 5.91.74 52.7 52.7 0 0 0 7.54-1.26 45 45 0 0 0 6.69-1.92 10.92 10.92 0 0 0 2.33-1.81c.58-.62 2.13-2 3.46-3.1a41 41 0 0 0 3.44-3.13 19.14 19.14 0 0 0 1.83-2.5c.44-.74 1.57-3 2.5-4.92s2-4.47 2.37-5.57.88-2.92 1.13-4.05a38.84 38.84 0 0 0 .65-4 30.23 30.23 0 0 0 .09-3.71 8.34 8.34 0 0 1 .6-3.3 9.58 9.58 0 0 1 2.16-2.76 18.49 18.49 0 0 0 2.52-2.64 14.47 14.47 0 0 0 1.61-3c.32-.86 1.29-4.47 2.16-8s1.68-7.23 1.8-8.15.25-2.46.29-3.41.18-2.48.31-3.4.43-2.4.66-3.28a12.45 12.45 0 0 1 1.35-3 15.57 15.57 0 0 1 2.38-2.69 8.25 8.25 0 0 0 2-2.82 8 8 0 0 0 .26-3.42 13.6 13.6 0 0 1-.06-3.53 11.32 11.32 0 0 1 1.06-3.14 21.8 21.8 0 0 0 2.28-6.24 18.24 18.24 0 0 1 1.13-3.36 27.69 27.69 0 0 1 2.07-3.55zM42.53 102.55c1.75 5.21 3.28 10.26 3.4 11.2s.24 2.56.26 3.58a3.17 3.17 0 0 0 .41 2c.21.05 1.68-3.45 3.28-7.78.56-1.52 1.1-3 1.56-4.4l-.53-1.57-2.61-7.79c-1.75-5.21-3.27-10.21-3.38-11.1a14.12 14.12 0 0 0-.77-3 11.51 11.51 0 0 0-1.48-2.47 9.26 9.26 0 0 0-2.26-1.84 13.36 13.36 0 0 0-3.11-1.09c-.39-.08-.88-.16-1.4-.23l-1.07-.14a14 14 0 0 1 .38 1.81c.11.89 1.64 5.89 3.38 11.1z"/></svg>