<svg xmlns="http://www.w3.org/2000/svg" width="200" height="200" viewBox="0 0 200 200"><title>_</title><path d="M93.7 115.29a14.68 14.68 0 0 1-2.25 2.71 15.25 15.25 0 0 1-2.94 2 13.9 13.9 0 0 0-2.5 1.65 13.2 13.2 0 0 0-1.92 2.22 17.64 17.64 0 0 1-2.21 2.65 17.88 17.88 0 0 1-2.77 2.07 16.28 16.28 0 0 0-2.41 1.79 16 16 0 0 0-1.93 2.28c-.51.77-1.39 2-2 2.67s-1.53 1.79-2.14 2.42a8.36 8.36 0 0 0-1.39 2 5.8 5.8 0 0 0-.37 2c0 .86-.28 5.66-.6 9.72a38.74 38.74 0 0 0-.05 8 4.21 4.21 0 0 0 1.66-.06 20.87 20.87 0 0 1 3.72-.43 16.53 16.53 0 0 1 3.5.48h.1a11.37 11.37 0 0 0 2.94.34 11.82 11.82 0 0 0 2.94-.62 11.55 11.55 0 0 1 3.61-.61 11.58 11.58 0 0 1 3.6.84 7.07 7.07 0 0 0 5.7.08 11 11 0 0 1 3.54-.7h.08a11.09 11.09 0 0 1 3.62.82 9.56 9.56 0 0 0 2.86.67 8.45 8.45 0 0 0 2.85-.49 10.63 10.63 0 0 1 7.12-.2 12.07 12.07 0 0 0 2.94.47 12 12 0 0 0 2.91-.45 16.17 16.17 0 0 1 3.49-.6 15.25 15.25 0 0 1 3.5.33 23.84 23.84 0 0 0 3.08.45 23 23 0 0 0 3.07-.05c.91-.09 3.16-.18 5-.19a9.72 9.72 0 0 0 3.49-.53 2.67 2.67 0 0 0 .45-1.47c0-.78-.18-2.78-.37-4.35a29.58 29.58 0 0 1-.25-4.62 16.36 16.36 0 0 1 .64-3.15c.06-.19.12-.42.18-.66a15 15 0 0 0 .38-2.08 15.53 15.53 0 0 0-.08-2.82 2 2 0 0 0-.92-1.33 7.23 7.23 0 0 0-3.08-.09c-1.32.23-3.47.5-4.78.61s-6.89.09-12.44 0l-3.51-.08c-4.76-.11-10.6-.42-11.39-1.32-.4-.47-1.25-1.44 4.94-7.94a103 103 0 0 1 10.81-9.72 60.22 60.22 0 0 0 5.87-4.77 16.29 16.29 0 0 0 1.63-2.46c.43-.83 1.18-2.11 1.68-2.86s1.39-1.92 2-2.59 1.56-1.71 2.2-2.31 1.72-1.53 2.42-2.06a9 9 0 0 0 1.72-1.82 7.41 7.41 0 0 0 .85-2.15 13.56 13.56 0 0 0 .18-2.51 14.59 14.59 0 0 0-.4-2.56 11.82 11.82 0 0 1-.33-3.1 12.44 12.44 0 0 1 .66-3.09l.08-.25a9.31 9.31 0 0 0 .42-2.16 7.75 7.75 0 0 0-.35-2.25 2.79 2.79 0 0 0-.9-1.23 3.23 3.23 0 0 0-1.66-.14 28.59 28.59 0 0 1-3 .36c-1 .06-6.27-.49-10.72-1-5.3-.65-9.75-1.08-10.43-1s-3.51.4-5.95.79a63.54 63.54 0 0 1-10.81.44c-3.59-.18-6.75-.25-7.46-.2a25.43 25.43 0 0 1-3.18 0 26 26 0 0 1-3.18-.53 14 14 0 0 0-2.75-.33 27.75 27.75 0 0 0-4.22.62 42 42 0 0 1-4.34.74 4.15 4.15 0 0 0-1.69.56 4.58 4.58 0 0 0-1.14 1.48 10 10 0 0 0-.64 2.28 11.68 11.68 0 0 0 0 2.54 24.24 24.24 0 0 1 .11 6.1c-.08.76-.15 2.07-.14 2.86s.1 2.15.2 3a2 2 0 0 0 .79 1.32 5.8 5.8 0 0 0 2.69 0 22.17 22.17 0 0 1 4.52-.46h.66a21.59 21.59 0 0 1 3.79.66 27.25 27.25 0 0 0 4 .78 53.44 53.44 0 0 0 6 0c2.27-.11 5-.13 6 0 .23 0 2.27.21 3 1 .35.41 1.09 1.26-2.69 5-.88.86-1.8 1.79-2.56 2.58s-1.25 1.33-1.5 1.63a31 31 0 0 0-1.85 2.38z" fill="#231f20"/><path d="M154.75 152.68a16.1 16.1 0 0 0 .6-3 16.38 16.38 0 0 0-.09-3 3 3 0 0 0-1.5-2.11 7.92 7.92 0 0 0-3.65-.16c-1 .18-2.59.38-3.83.51l-.87.08h-.18c-.07.27-.14.52-.2.73a15.46 15.46 0 0 0-.59 2.93 29.09 29.09 0 0 0 .25 4.41c.2 1.62.37 3.63.38 4.46a3.39 3.39 0 0 1-.81 2.25c-.45.41-2.31.75-4.12.77s-4 .1-4.92.19a23.83 23.83 0 0 1-3.23.06 24.62 24.62 0 0 1-3.23-.48 14.83 14.83 0 0 0-3.23-.31 15.27 15.27 0 0 0-3.23.56 10.6 10.6 0 0 1-6.47 0 11.74 11.74 0 0 0-3.23-.47 12.08 12.08 0 0 0-3.23.65 10.15 10.15 0 0 1-3.23.56 10.51 10.51 0 0 1-3.23-.76 10.09 10.09 0 0 0-3.23-.73 9.91 9.91 0 0 0-3.23.63 10 10 0 0 1-3.23.63 10.13 10.13 0 0 1-3.23-.73 10.6 10.6 0 0 0-3.23-.75 10.21 10.21 0 0 0-3.23.55 12.92 12.92 0 0 1-3.24.68 12.52 12.52 0 0 1-3.25-.37h-.09v1c-.11 3.14 0 5.51.38 5.75a4.13 4.13 0 0 0 2.64.14 17.65 17.65 0 0 1 3.48-.41 15.62 15.62 0 0 1 3.34.46 12.52 12.52 0 0 0 3.25.37 12.92 12.92 0 0 0 3.24-.68 10.21 10.21 0 0 1 3.23-.55 10.6 10.6 0 0 1 3.23.75 10.13 10.13 0 0 0 3.23.73 10 10 0 0 0 3.23-.63 9.91 9.91 0 0 1 3.23-.63 10.09 10.09 0 0 1 3.23.73 10.51 10.51 0 0 0 3.23.76 10.15 10.15 0 0 0 3.23-.56 12.08 12.08 0 0 1 3.23-.65 11.74 11.74 0 0 1 3.23.47 10.6 10.6 0 0 0 6.47 0 15.27 15.27 0 0 1 3.23-.56 14.83 14.83 0 0 1 3.23.31 24.62 24.62 0 0 0 3.23.48 23.83 23.83 0 0 0 3.23-.06c.89-.09 3.1-.17 4.92-.19s3.67-.36 4.12-.77a3.39 3.39 0 0 0 .81-2.25c0-.83-.18-2.84-.38-4.46a29.09 29.09 0 0 1-.25-4.41 15.46 15.46 0 0 1 .56-2.92zM143.5 88a11.38 11.38 0 0 0-.59 2.79 10.84 10.84 0 0 0 .3 2.79 15.65 15.65 0 0 1 .43 2.77 14.66 14.66 0 0 1-.2 2.74 8.39 8.39 0 0 1-1 2.51 9.93 9.93 0 0 1-2 2.08c-.67.51-1.72 1.41-2.34 2s-1.52 1.62-2.1 2.32-1.41 1.78-1.89 2.5-1.22 2-1.63 2.77a17.29 17.29 0 0 1-1.75 2.64 59.31 59.31 0 0 1-6 4.93 102.21 102.21 0 0 0-10.59 9.58c-3.06 3.21-5.26 6.18-4.9 6.6s5.15.86 10.65 1l3.3.07.66-.7.27-.28a102 102 0 0 1 10.32-9.3 59.31 59.31 0 0 0 6-4.93 17.29 17.29 0 0 0 1.75-2.64c.41-.8 1.14-2 1.63-2.77s1.34-1.85 1.89-2.5 1.51-1.66 2.13-2.24 1.66-1.48 2.34-2a9.93 9.93 0 0 0 2-2.08 8.39 8.39 0 0 0 1-2.51 14.66 14.66 0 0 0 .2-2.74 15.65 15.65 0 0 0-.43-2.77 10.84 10.84 0 0 1-.3-2.79 11.38 11.38 0 0 1 .59-2.79 10.3 10.3 0 0 0 .56-2.73 8.73 8.73 0 0 0-.4-2.6 3.66 3.66 0 0 0-1.4-1.84 4.13 4.13 0 0 0-2.32-.24 27.57 27.57 0 0 1-2.86.35c-.29 0-1.09 0-2.23-.13l-1-.09c-.03.09-.06.23-.09.23zM98.88 107.84c1.71-1.68 2.89-3.29 2.63-3.59a4.51 4.51 0 0 0-2.32-.7c-1-.08-3.67-.07-5.89 0a54 54 0 0 1-6.12 0 28.14 28.14 0 0 1-4.16-.82 20.46 20.46 0 0 0-3.59-.63c0 .32 0 .67-.05 1s0 .79 0 1.1c0 .83.1 2.22.21 3.09a2.9 2.9 0 0 0 1.36 2.11 6.44 6.44 0 0 0 3.33 0 20.6 20.6 0 0 1 4.27-.44 19.94 19.94 0 0 1 4.2.66c.65.19 1.53.39 2.39.55.41.08.82.15 1.19.2.74-.73 1.67-1.66 2.55-2.53z" fill="#231f20"/></svg>