<svg xmlns="http://www.w3.org/2000/svg" width="200" height="200" viewBox="0 0 200 200"><title>_</title><path d="M93.7,115.29A14.68,14.68,0,0,1,91.45,118a15.25,15.25,0,0,1-2.94,2,13.9,13.9,0,0,0-2.5,1.65,13.2,13.2,0,0,0-1.92,2.22,17.64,17.64,0,0,1-2.21,2.65,17.88,17.88,0,0,1-2.77,2.07,16.28,16.28,0,0,0-2.41,1.79,16,16,0,0,0-1.93,2.28c-0.51.77-1.39,2-2,2.67s-1.53,1.79-2.14,2.42a8.36,8.36,0,0,0-1.39,2,5.8,5.8,0,0,0-.37,2c0,0.86-.28,5.66-0.6,9.72a38.74,38.74,0,0,0-.05,8,4.21,4.21,0,0,0,1.66-.06,20.87,20.87,0,0,1,3.72-.43,16.53,16.53,0,0,1,3.5.48l0.1,0a11.37,11.37,0,0,0,2.94.34,11.82,11.82,0,0,0,2.94-.62,11.55,11.55,0,0,1,3.61-.61,11.58,11.58,0,0,1,3.6.84,7.07,7.07,0,0,0,5.7.08,11,11,0,0,1,3.54-.7h0.08a11.09,11.09,0,0,1,3.62.82,9.56,9.56,0,0,0,2.86.67,8.45,8.45,0,0,0,2.85-.49,10.63,10.63,0,0,1,7.12-.2,12.07,12.07,0,0,0,2.94.47h0a12,12,0,0,0,2.91-.45,16.17,16.17,0,0,1,3.49-.6,15.25,15.25,0,0,1,3.5.33,23.84,23.84,0,0,0,3.08.45,23,23,0,0,0,3.07-.05c0.91-.09,3.16-0.18,5-0.19a9.72,9.72,0,0,0,3.49-.53,2.67,2.67,0,0,0,.45-1.47c0-.78-0.18-2.78-0.37-4.35a29.58,29.58,0,0,1-.25-4.62,16.36,16.36,0,0,1,.64-3.15c0.06-.19.12-0.42,0.18-0.66a15,15,0,0,0,.38-2.08,15.53,15.53,0,0,0-.08-2.82,2,2,0,0,0-.92-1.33,7.23,7.23,0,0,0-3.08-.09c-1.32.23-3.47,0.5-4.78,0.61s-6.89.09-12.44,0l-3.51-.08c-4.76-.11-10.6-0.42-11.39-1.32-0.4-.47-1.25-1.44,4.94-7.94A103,103,0,0,1,124.12,120a60.22,60.22,0,0,0,5.87-4.77,16.29,16.29,0,0,0,1.63-2.46c0.43-.83,1.18-2.11,1.68-2.86s1.39-1.92,2-2.59,1.56-1.71,2.2-2.31,1.72-1.53,2.42-2.06a9,9,0,0,0,1.72-1.82,7.41,7.41,0,0,0,.85-2.15,13.56,13.56,0,0,0,.18-2.51,14.59,14.59,0,0,0-.4-2.56,11.82,11.82,0,0,1-.33-3.1,12.44,12.44,0,0,1,.66-3.09l0.08-.25a9.31,9.31,0,0,0,.42-2.16,7.75,7.75,0,0,0-.35-2.25,2.79,2.79,0,0,0-.9-1.23,3.23,3.23,0,0,0-1.66-.14,28.59,28.59,0,0,1-3,.36c-1,.06-6.27-0.49-10.72-1-5.3-.65-9.75-1.08-10.43-1s-3.51.4-5.95,0.79a63.54,63.54,0,0,1-10.81.44c-3.59-.18-6.75-0.25-7.46-0.2a25.43,25.43,0,0,1-3.18,0,26,26,0,0,1-3.18-.53,14,14,0,0,0-2.75-.33h0a27.75,27.75,0,0,0-4.22.62,42,42,0,0,1-4.34.74,4.15,4.15,0,0,0-1.69.56,4.58,4.58,0,0,0-1.14,1.48,10,10,0,0,0-.64,2.28,11.68,11.68,0,0,0,0,2.54,24.24,24.24,0,0,1,.11,6.1c-0.08.76-.15,2.07-0.14,2.86s0.1,2.15.2,3a2,2,0,0,0,.79,1.32,5.8,5.8,0,0,0,2.69,0,22.17,22.17,0,0,1,4.52-.46l0.66,0a21.59,21.59,0,0,1,3.79.66,27.25,27.25,0,0,0,4,.78,53.44,53.44,0,0,0,6,0c2.27-.11,5-0.13,6,0,0.23,0,2.27.21,3,1,0.35,0.41,1.09,1.26-2.69,5-0.88.86-1.8,1.79-2.56,2.58s-1.25,1.33-1.5,1.63A31,31,0,0,0,93.7,115.29Z" fill="#231f20"/><path d="M154.75,152.68a16.1,16.1,0,0,0,.6-3,16.38,16.38,0,0,0-.09-3,3,3,0,0,0-1.5-2.11,7.92,7.92,0,0,0-3.65-.16c-1,.18-2.59.38-3.83,0.51l-0.87.08h-0.18c-0.07.27-.14,0.52-0.2,0.73a15.46,15.46,0,0,0-.59,2.93,29.09,29.09,0,0,0,.25,4.41c0.2,1.62.37,3.63,0.38,4.46a3.39,3.39,0,0,1-.81,2.25c-0.45.41-2.31,0.75-4.12,0.77s-4,.1-4.92.19a23.83,23.83,0,0,1-3.23.06,24.62,24.62,0,0,1-3.23-.48,14.83,14.83,0,0,0-3.23-.31,15.27,15.27,0,0,0-3.23.56,10.6,10.6,0,0,1-6.47,0,11.74,11.74,0,0,0-3.23-.47,12.08,12.08,0,0,0-3.23.65,10.15,10.15,0,0,1-3.23.56,10.51,10.51,0,0,1-3.23-.76,10.09,10.09,0,0,0-3.23-.73,9.91,9.91,0,0,0-3.23.63,10,10,0,0,1-3.23.63,10.13,10.13,0,0,1-3.23-.73,10.6,10.6,0,0,0-3.23-.75,10.21,10.21,0,0,0-3.23.55,12.92,12.92,0,0,1-3.24.68,12.52,12.52,0,0,1-3.25-.37l-0.09,0c0,0.35,0,.68,0,1-0.11,3.14,0,5.51.38,5.75a4.13,4.13,0,0,0,2.64.14,17.65,17.65,0,0,1,3.48-.41,15.62,15.62,0,0,1,3.34.46,12.52,12.52,0,0,0,3.25.37,12.92,12.92,0,0,0,3.24-.68,10.21,10.21,0,0,1,3.23-.55,10.6,10.6,0,0,1,3.23.75,10.13,10.13,0,0,0,3.23.73,10,10,0,0,0,3.23-.63,9.91,9.91,0,0,1,3.23-.63,10.09,10.09,0,0,1,3.23.73,10.51,10.51,0,0,0,3.23.76,10.15,10.15,0,0,0,3.23-.56,12.08,12.08,0,0,1,3.23-.65,11.74,11.74,0,0,1,3.23.47,10.6,10.6,0,0,0,6.47,0,15.27,15.27,0,0,1,3.23-.56,14.83,14.83,0,0,1,3.23.31,24.62,24.62,0,0,0,3.23.48,23.83,23.83,0,0,0,3.23-.06c0.89-.09,3.1-0.17,4.92-0.19s3.67-.36,4.12-0.77a3.39,3.39,0,0,0,.81-2.25c0-.83-0.18-2.84-0.38-4.46a29.09,29.09,0,0,1-.25-4.41A15.46,15.46,0,0,1,154.75,152.68Z" fill="#231f20"/><path d="M143.5,88a11.38,11.38,0,0,0-.59,2.79,10.84,10.84,0,0,0,.3,2.79,15.65,15.65,0,0,1,.43,2.77,14.66,14.66,0,0,1-.2,2.74,8.39,8.39,0,0,1-1,2.51,9.93,9.93,0,0,1-2,2.08c-0.67.51-1.72,1.41-2.34,2S136.58,107.3,136,108s-1.41,1.78-1.89,2.5-1.22,2-1.63,2.77a17.29,17.29,0,0,1-1.75,2.64,59.31,59.31,0,0,1-6,4.93,102.21,102.21,0,0,0-10.59,9.58c-3.06,3.21-5.26,6.18-4.9,6.6s5.15,0.86,10.65,1l3.3,0.07,0.66-.7,0.27-.28a102,102,0,0,1,10.32-9.3,59.31,59.31,0,0,0,6-4.93,17.29,17.29,0,0,0,1.75-2.64c0.41-.8,1.14-2,1.63-2.77s1.34-1.85,1.89-2.5,1.51-1.66,2.13-2.24,1.66-1.48,2.34-2a9.93,9.93,0,0,0,2-2.08,8.39,8.39,0,0,0,1-2.51,14.66,14.66,0,0,0,.2-2.74,15.65,15.65,0,0,0-.43-2.77,10.84,10.84,0,0,1-.3-2.79,11.38,11.38,0,0,1,.59-2.79,10.3,10.3,0,0,0,.56-2.73,8.73,8.73,0,0,0-.4-2.6A3.66,3.66,0,0,0,152,87.88a4.13,4.13,0,0,0-2.32-.24,27.57,27.57,0,0,1-2.86.35c-0.29,0-1.09,0-2.23-.13l-1-.09C143.56,87.86,143.53,88,143.5,88Z" fill="#231f20"/><path d="M98.88,107.84c1.71-1.68,2.89-3.29,2.63-3.59a4.51,4.51,0,0,0-2.32-.7c-1-.08-3.67-0.07-5.89,0a54,54,0,0,1-6.12,0,28.14,28.14,0,0,1-4.16-.82,20.46,20.46,0,0,0-3.59-.63c0,0.32,0,.67-0.05,1s0,0.79,0,1.1c0,0.83.1,2.22,0.21,3.09a2.9,2.9,0,0,0,1.36,2.11,6.44,6.44,0,0,0,3.33,0,20.6,20.6,0,0,1,4.27-.44,19.94,19.94,0,0,1,4.2.66c0.65,0.19,1.53.39,2.39,0.55,0.41,0.08.82,0.15,1.19,0.2C97.07,109.64,98,108.71,98.88,107.84Z" fill="#231f20"/></svg>