<svg xmlns="http://www.w3.org/2000/svg" width="100.52" height="200" viewBox="0 0 100.52 200"><title>_</title><path d="M8.79 149.76a21.27 21.27 0 0 1 3.83-.45 17.08 17.08 0 0 1 3.63.5h.09a11.15 11.15 0 0 0 2.8.33 11.4 11.4 0 0 0 2.79-.58 11.82 11.82 0 0 1 3.8-.64 12 12 0 0 1 3.79.88 8.77 8.77 0 0 0 2.66.6 9.54 9.54 0 0 0 2.65-.52 11.52 11.52 0 0 1 3.73-.74 11.53 11.53 0 0 1 3.9.86 9.09 9.09 0 0 0 2.68.63 7.91 7.91 0 0 0 2.66-.46 13.62 13.62 0 0 1 3.72-.75 14 14 0 0 1 3.73.54 11.69 11.69 0 0 0 2.79.45 11.47 11.47 0 0 0 2.79-.42 16.77 16.77 0 0 1 3.62-.62 15.58 15.58 0 0 1 3.63.35 23.27 23.27 0 0 0 3 .44 22.06 22.06 0 0 0 3-.05c.93-.09 3.2-.18 5.06-.2a11 11 0 0 0 3.17-.43 2.52 2.52 0 0 0 .28-1.08c0-.77-.18-2.73-.37-4.29a30 30 0 0 1-.26-4.72 17 17 0 0 1 .66-3.27c.06-.18.12-.4.17-.63a14.39 14.39 0 0 0 .36-2 15.18 15.18 0 0 0-.08-2.71 1.58 1.58 0 0 0-.62-.94 6.87 6.87 0 0 0-2.79-.05c-1.33.23-3.5.5-4.83.61s-7 .1-12.49 0l-3.51-.08c-10.66-.24-11.46-1.15-11.75-1.5-.78-.9-1-2.31 5-8.61a103.68 103.68 0 0 1 10.79-9.75 60.71 60.71 0 0 0 5.78-4.69 15.92 15.92 0 0 0 1.57-2.37c.43-.84 1.2-2.15 1.71-2.91s1.41-2 2-2.64 1.58-1.74 2.24-2.35 1.75-1.55 2.46-2.09a8.61 8.61 0 0 0 1.6-1.7 7 7 0 0 0 .78-2 13.12 13.12 0 0 0 .17-2.4 14.16 14.16 0 0 0-.38-2.45 12.18 12.18 0 0 1-.34-3.25 13 13 0 0 1 .69-3.23l.07-.23a8.83 8.83 0 0 0 .39-2 7.23 7.23 0 0 0-.4-2.15 2.43 2.43 0 0 0-.67-1 2.87 2.87 0 0 0-1.32 0 29 29 0 0 1-3 .37c-1.17.06-7.12-.59-10.81-1-5.32-.66-9.73-1-10.34-1-.78 0-3.48.4-5.89.79a63.53 63.53 0 0 1-10.91.45c-3.59-.18-6.73-.25-7.4-.2a25.92 25.92 0 0 1-3.26 0 26.51 26.51 0 0 1-3.25-.54 13.5 13.5 0 0 0-2.63-.32 27.43 27.43 0 0 0-4.16.61 42.54 42.54 0 0 1-4.41.75 3.71 3.71 0 0 0-1.43.47 4.12 4.12 0 0 0-1 1.28 9.56 9.56 0 0 0-.6 2.14 11.25 11.25 0 0 0 0 2.4 30.07 30.07 0 0 1 .25 3.11 29.94 29.94 0 0 1-.14 3.11c-.08.75-.14 2-.13 2.8s.1 2.11.2 2.93a1.61 1.61 0 0 0 .51.93 5.65 5.65 0 0 0 2.36-.06 23.64 23.64 0 0 1 4.64-.48h.69a22.06 22.06 0 0 1 3.89.68 26.81 26.81 0 0 0 3.89.77 53.58 53.58 0 0 0 5.9 0c2.28-.11 5-.13 6.09 0 .41 0 2.49.25 3.33 1.21s.9 2.1-2.71 5.65c-.88.86-1.79 1.79-2.55 2.57s-1.24 1.32-1.48 1.6a30.45 30.45 0 0 0-1.79 2.48 15.29 15.29 0 0 1-2.34 2.77 15.84 15.84 0 0 1-3.05 2 13.52 13.52 0 0 0-2.39 1.57 12.85 12.85 0 0 0-1.84 2.12 18.22 18.22 0 0 1-2.28 2.74 18.59 18.59 0 0 1-2.86 2.14A15.88 15.88 0 0 0 16 121.5a15.46 15.46 0 0 0-1.85 2.19c-.52.78-1.41 2-2 2.7s-1.54 1.81-2.17 2.46a7.89 7.89 0 0 0-1.29 1.86 5.36 5.36 0 0 0-.33 1.82c0 1-.33 6.4-.6 9.79a44.81 44.81 0 0 0-.11 7.54 3.9 3.9 0 0 0 1.14-.1z"/><path d="M18.85 158.16a17.65 17.65 0 0 1 3.48-.41 15.62 15.62 0 0 1 3.34.46 12.52 12.52 0 0 0 3.25.37 12.92 12.92 0 0 0 3.24-.68 10.21 10.21 0 0 1 3.23-.55 10.6 10.6 0 0 1 3.23.75 10.13 10.13 0 0 0 3.23.73 10 10 0 0 0 3.23-.63 9.91 9.91 0 0 1 3.23-.63 10.09 10.09 0 0 1 3.23.73 10.51 10.51 0 0 0 3.23.76 10.15 10.15 0 0 0 3.23-.56 12.08 12.08 0 0 1 3.23-.65 11.74 11.74 0 0 1 3.23.47 13.09 13.09 0 0 0 3.23.52 13 13 0 0 0 3.23-.49 15.27 15.27 0 0 1 3.23-.56 14.83 14.83 0 0 1 3.23.31 24.62 24.62 0 0 0 3.23.48 23.83 23.83 0 0 0 3.23-.06c.89-.09 3.1-.17 4.92-.19s3.74-.33 4.24-.75a3.39 3.39 0 0 0 .81-2.25c0-.83-.18-2.84-.38-4.46a29.09 29.09 0 0 1-.25-4.41 15.46 15.46 0 0 1 .59-2.93 16.09 16.09 0 0 0 .6-3 16.38 16.38 0 0 0-.09-3 3 3 0 0 0-1.5-2.11 7.92 7.92 0 0 0-3.65-.16c-1 .18-2.59.38-3.83.51l-.87.08h-.22c-.07.27-.14.52-.2.73a15.46 15.46 0 0 0-.59 2.93 29.09 29.09 0 0 0 .25 4.41c.2 1.62.37 3.63.38 4.46a3.39 3.39 0 0 1-.81 2.25c-.45.41-2.31.75-4.12.77s-4 .1-4.92.19a23.83 23.83 0 0 1-3.23.06 24.62 24.62 0 0 1-3.23-.48 14.83 14.83 0 0 0-3.23-.31 15.27 15.27 0 0 0-3.23.56 13 13 0 0 1-3.23.49 13.09 13.09 0 0 1-3.23-.52 11.74 11.74 0 0 0-3.23-.47 12.08 12.08 0 0 0-3.23.65 10.15 10.15 0 0 1-3.23.56 10.51 10.51 0 0 1-3.23-.76 10.09 10.09 0 0 0-3.23-.73 9.91 9.91 0 0 0-3.23.63 10 10 0 0 1-3.23.63 10.13 10.13 0 0 1-3.23-.73 10.6 10.6 0 0 0-3.23-.75 10.21 10.21 0 0 0-3.23.55 12.92 12.92 0 0 1-3.24.68 12.52 12.52 0 0 1-3.25-.37h-.09v1c-.11 3.14 0 5.51.38 5.75a4.13 4.13 0 0 0 2.53.13zM92.74 83.1a8.72 8.72 0 0 0-.4-2.6A3.66 3.66 0 0 0 91 78.73a4.13 4.13 0 0 0-2.32-.24 27.58 27.58 0 0 1-2.86.35c-.29 0-1.09 0-2.23-.13l-1-.09c0 .1-.06.2-.09.29a11.39 11.39 0 0 0-.59 2.79 10.83 10.83 0 0 0 .3 2.79 15.65 15.65 0 0 1 .43 2.77A14.67 14.67 0 0 1 82.4 90a8.39 8.39 0 0 1-1 2.51 9.93 9.93 0 0 1-2 2.08c-.67.51-1.72 1.41-2.34 2S75.55 98.15 75 98.8s-1.41 1.78-1.89 2.5-1.22 2-1.63 2.77a17.29 17.29 0 0 1-1.75 2.64 59.32 59.32 0 0 1-6 4.93 102.2 102.2 0 0 0-10.59 9.58c-3.06 3.21-5.26 6.18-4.9 6.6s5.15.86 10.65 1l3.3.07.66-.7.27-.28a102 102 0 0 1 10.32-9.3 59.32 59.32 0 0 0 6-4.93 17.29 17.29 0 0 0 1.74-2.68c.41-.8 1.14-2 1.63-2.77s1.34-1.85 1.89-2.5 1.51-1.66 2.13-2.24 1.66-1.48 2.34-2a9.93 9.93 0 0 0 2-2.08 8.39 8.39 0 0 0 1-2.51 14.67 14.67 0 0 0 .2-2.74 15.65 15.65 0 0 0-.43-2.77 10.83 10.83 0 0 1-.3-2.79 11.39 11.39 0 0 1 .59-2.79 10.29 10.29 0 0 0 .51-2.71zM19.9 100.27a6.44 6.44 0 0 0 3.33 0 20.6 20.6 0 0 1 4.27-.44 19.94 19.94 0 0 1 4.2.66c.65.19 1.53.39 2.39.55.41.08.82.15 1.19.2.77-.8 1.69-1.73 2.58-2.6 1.71-1.68 2.89-3.29 2.63-3.59a4.51 4.51 0 0 0-2.32-.7c-1-.08-3.67-.07-5.89 0a54 54 0 0 1-6.12 0 28.14 28.14 0 0 1-4.16-.76 20.46 20.46 0 0 0-3.6-.59c0 .32 0 .67-.05 1s0 .79 0 1.1c0 .83.1 2.22.21 3.09a2.9 2.9 0 0 0 1.34 2.08z"/></svg>