<svg xmlns="http://www.w3.org/2000/svg" width="200" height="200" viewBox="0 0 200 200"><title>_</title><path d="M127.32 49.92c.24-.3.49-.62.69-.91a23.43 23.43 0 0 0-3.42-.92c-2.64-.53-5.69-1.06-6.66-1.15s-2.59-.15-3.55-.12a13.8 13.8 0 0 0-3.2.53 12.84 12.84 0 0 0-2.82 1.4c-.83.58-2.15 1.39-2.94 1.81a25.35 25.35 0 0 1-2.87 1.28 13.39 13.39 0 0 0-2.46 1.27 31 31 0 0 0-3.67 3.46 50.27 50.27 0 0 0-3.31 3.9 7.13 7.13 0 0 0-1 2.33 6.85 6.85 0 0 0 .19 2.48 29.4 29.4 0 0 1 .74 3.36c.17 1.13.24 4.77.22 7.65a64.71 64.71 0 0 1-.43 7.88 37.42 37.42 0 0 1-1 4 9 9 0 0 0-.32 3.39A11.22 11.22 0 0 0 92.84 95a8.75 8.75 0 0 1 1.28 4.28c-.06 1.36-1.39 3.75-2.61 5.3a45.16 45.16 0 0 0-2.78 3.84 11.3 11.3 0 0 0-.78 2.11 18.78 18.78 0 0 0-.39 2.73 5.12 5.12 0 0 1-1.27 3.09 4.52 4.52 0 0 1-1.58.91 15 15 0 0 0 1.52 1.59c1.64 1.51 3.68 3.5 4.26 4.19a24.13 24.13 0 0 1 1.73 2.46 7.54 7.54 0 0 1 .92 3.33 11.73 11.73 0 0 1-.8 3.76 8.94 8.94 0 0 0-.56 3.15 8.71 8.71 0 0 0 .94 3 19.16 19.16 0 0 1 1.53 3.61 15.72 15.72 0 0 1 .51 3.66 18.38 18.38 0 0 1-.45 3.62 21.34 21.34 0 0 1-1.31 3.63 9.1 9.1 0 0 0-.77 3 8.7 8.7 0 0 0 .59 3 18.4 18.4 0 0 1 1.05 3.48 33.58 33.58 0 0 1-.16 6.14 20.32 20.32 0 0 0 .08 5.64 21.77 21.77 0 0 0 1.67 3.48 20 20 0 0 0 2.39 3.18 10.38 10.38 0 0 0 2.49 1.79c.78.35 2.08.86 2.9 1.14.38.13.88.29 1.39.44s1.17.33 1.61.45c.74.18 4.58.83 9.12 1.51s8.51 1.1 9.42 1.08a18.14 18.14 0 0 0 3.66-.55c.56-.16 1.19-.31 1.77-.45l-2.11-1.12c-1.61-.84-4.83-2.69-5.52-3.64s-1.8-5.55-2.31-7.86c-.79-3.61-1.67-9-2-12a62.43 62.43 0 0 1-.41-7.32c.08-1 .31-2.66.52-3.68s.73-5.43 1.19-9.8c.5-4.8.78-9.07.73-10a28.43 28.43 0 0 0-.49-3.73 18 18 0 0 0-1.05-3.12l-.09-.17c-.15-.29-.32-.6-.53-.93a13.86 13.86 0 0 0-1-1.5 10.9 10.9 0 0 0-2.21-1.91 12.5 12.5 0 0 0-2.88-1.16l-1.75-.42a1 1 0 0 1-.7-.48l-.42-.25a1.78 1.78 0 0 1-1-1.25 1.36 1.36 0 0 1 .35-1.16A7.08 7.08 0 0 1 111 114a9 9 0 0 0 2.34-1.12 22.53 22.53 0 0 0 3-4.21 47 47 0 0 0 2.65-5.13c.26-.72 1.16-5.45 2-11.08s1.5-10.56 1.51-11.46-.17-3.63-.38-5.69-.39-4.83-.36-5.94a22.22 22.22 0 0 0-.26-3.62 22.91 22.91 0 0 0-1-3.54 9.6 9.6 0 0 1-.61-3.79 6.36 6.36 0 0 1 1.45-3.18c.59-.65 1.55-1.59 2.14-2.09.39-.34 1-.78 1.49-1.16l.65-.44a9 9 0 0 0 1.7-1.63z" fill="#231f20"/><path d="M120.1 124.12a1.87 1.87 0 0 0-.54-.38l.1.19a18.94 18.94 0 0 1 1.13 3.33 29.21 29.21 0 0 1 .52 3.9c.06 1.16-.26 5.75-.73 10.2s-1 8.9-1.2 9.89-.42 2.59-.5 3.56a61.34 61.34 0 0 0 .41 7.14c.3 3 1.19 8.28 2 11.84a39.94 39.94 0 0 0 2.14 7.48 23.78 23.78 0 0 0 5.17 3.34c1.71.9 3.19 1.69 3.95 2.11-.13-.4-.26-.86-.4-1.36-.37-1.32-.78-3-1.15-4.63-.78-3.56-1.66-8.89-2-11.84a61.34 61.34 0 0 1-.41-7.14c.08-1 .3-2.58.5-3.56s.74-5.43 1.2-9.89.79-9 .73-10.2a29.21 29.21 0 0 0-.52-3.9 18.94 18.94 0 0 0-1.13-3.33 16.13 16.13 0 0 0-1.79-2.81 11.78 11.78 0 0 0-2.46-2.13 13.51 13.51 0 0 0-3.16-1.28l-1-.25-.79-.19a.12.12 0 0 1-.07-.09zM138.42 195a31.7 31.7 0 0 1 3.17-.72 3.61 3.61 0 0 0 1.18-.27c0-.05-2-1.14-4.49-2.42a33.43 33.43 0 0 1-4.71-2.9 2.9 2.9 0 0 1-.47-.44 3.08 3.08 0 0 1-.28-.61c-.06 0-.08 0 0 0l-.15-.41-.78.14a31.7 31.7 0 0 0-3.17.72 19.07 19.07 0 0 1-3.91.59c-1.08 0-5.39-.47-9.59-1.1s-8.34-1.31-9.21-1.53c-.46-.11-1.06-.28-1.66-.46.24.4.53.84.84 1.28a18.15 18.15 0 0 0 1.66 2 11.28 11.28 0 0 0 2.8 2c.8.36 2.15.89 3 1.17s2.22.69 3.09.91 5 .9 9.21 1.53 8.52 1.12 9.59 1.1a19.07 19.07 0 0 0 3.88-.58zM124.12 53.87c-.56.48-1.48 1.39-2.05 2a5.43 5.43 0 0 0-1.2 2.62 8.62 8.62 0 0 0 .55 3.32 23.89 23.89 0 0 1 1 3.73 23.22 23.22 0 0 1 .28 3.82c0 1.06.13 3.68.36 5.8s.4 4.74.39 5.8-.7 6.28-1.53 11.6-1.77 10.39-2.09 11.27a47.61 47.61 0 0 1-2.73 5.29 21.94 21.94 0 0 1-3.24 4.51 9.91 9.91 0 0 1-2.67 1.28 6.06 6.06 0 0 0-2 .89c-.22.24-.06.62.36.84a2.82 2.82 0 0 1 .77.51.12.12 0 0 0 .06.11l1.81.43a13.51 13.51 0 0 1 3.16 1.28 11.78 11.78 0 0 1 2.46 2.13 15 15 0 0 1 1.12 1.62 3.56 3.56 0 0 1 .88-.48 9.72 9.72 0 0 1 1.08-.39 9.91 9.91 0 0 0 2.67-1.28 21.94 21.94 0 0 0 3.24-4.51 47.61 47.61 0 0 0 2.73-5.29c.32-.88 1.26-6 2.09-11.27s1.51-10.54 1.53-11.6-.16-3.68-.39-5.8-.39-4.74-.36-5.8a23.22 23.22 0 0 0-.28-3.82 23.89 23.89 0 0 0-1-3.73 8.62 8.62 0 0 1-.55-3.32 5.43 5.43 0 0 1 1.2-2.62c.57-.62 1.49-1.53 2.05-2a20.31 20.31 0 0 1 2-1.51 9.91 9.91 0 0 0 2-1.81 15.22 15.22 0 0 0 1.28-1.81c.18-.35-1.88-1.08-4.59-1.63s-5.75-1.07-6.76-1.17h-.56c-.5 0-1.07-.06-1.63-.08-.5.32-1.05.74-1.44 1.07zM88.45 124.47h-.62a1.71 1.71 0 0 0 .46 0 2.18 2.18 0 0 0 .62 0 .82.82 0 0 0-.46 0zM140.9 53.68h-.06c-.06 0-.06 0 0 0a.08.08 0 0 0 .06 0zM143.83 194.55a.86.86 0 0 0-.48-.28l-.53-.19a.32.32 0 0 0 0 .11.24.24 0 0 1 0 .22.52.52 0 0 1-.33.13c-.14 0 .09 0 .52.06a2.09 2.09 0 0 0 .82-.05z" fill="#231f20"/><path d="M140.9 52.35c-.19.3-.6 1-.91 1.62s-.34 1.13-.06 1.18a4.77 4.77 0 0 0 1.22 0c.39 0 .49-.4.22-.78a3.35 3.35 0 0 0-.56-.69.34.34 0 0 1 0-.3 9.48 9.48 0 0 1 .26-1c.08-.28.02-.33-.17-.03zM89.68 123.92a3.08 3.08 0 0 1-.36.29c-.19.14-.26.25-.16.25a1.76 1.76 0 0 0 .47-.12c.16-.06.24-.19.17-.28a.22.22 0 0 0-.12-.14zM89.69 123.78v.06h.06c.06 0-.03-.07-.06-.06z" fill="#231f20"/></svg>