<svg xmlns="http://www.w3.org/2000/svg" width="67.04" height="200" viewBox="0 0 67.04 200"><title>_</title><path d="M15.61 116.09a8 8 0 0 1 1 3.59 12.15 12.15 0 0 1-.84 4 8.47 8.47 0 0 0-.52 2.94 8.23 8.23 0 0 0 .88 2.81 19.74 19.74 0 0 1 1.58 3.72 16.32 16.32 0 0 1 .53 3.8 18.93 18.93 0 0 1-.46 3.74 21.94 21.94 0 0 1-1.34 3.69 8.62 8.62 0 0 0-.72 2.78 8.21 8.21 0 0 0 .55 2.75 19 19 0 0 1 1.08 3.59 33.54 33.54 0 0 1-.15 6.27 20.07 20.07 0 0 0 .06 5.44 21.17 21.17 0 0 0 1.62 3.46 19.35 19.35 0 0 0 2.31 3.09 9.91 9.91 0 0 0 2.34 1.68c.77.35 2.05.85 2.85 1.12.38.13.87.28 1.37.43s1.15.33 1.59.44c.72.18 4.54.82 9.07 1.5s8.46 1.1 9.34 1.08a17.51 17.51 0 0 0 3.53-.53l.52-.14-1-.5c-.49-.25-4.78-2.53-5.69-3.79s-2.24-7.35-2.39-8c-.79-3.63-1.68-9-2-12a61.87 61.87 0 0 1-.41-7.41c.08-1 .32-2.7.52-3.74s.73-5.4 1.18-9.75c.49-4.7.77-9 .72-10a27.81 27.81 0 0 0-.48-3.65 17.43 17.43 0 0 0-1-3l-.08-.15c-.15-.29-.32-.59-.51-.9a13.26 13.26 0 0 0-1-1.44 10.45 10.45 0 0 0-2.09-1.8 12.15 12.15 0 0 0-2.7-1.21l-1.74-.42a1.51 1.51 0 0 1-.94-.6l-.31-.17a2.27 2.27 0 0 1-1.22-1.6 1.86 1.86 0 0 1 .48-1.59 7.11 7.11 0 0 1 2.66-1.31 8.57 8.57 0 0 0 2.18-1 23.08 23.08 0 0 0 2.84-4.06 46.74 46.74 0 0 0 2.62-5c.22-.61 1.1-5.09 2-11 .89-5.72 1.5-10.5 1.51-11.39s-.17-3.58-.38-5.63-.4-4.88-.37-6a21.63 21.63 0 0 0-.2-3.57 22.35 22.35 0 0 0-1-3.44 10 10 0 0 1-.64-4 6.82 6.82 0 0 1 1.58-3.47c.6-.66 1.58-1.62 2.18-2.13.4-.35 1-.79 1.53-1.19.24-.17.48-.34.67-.46a8.6 8.6 0 0 0 1.58-1.48l.27-.35a26.64 26.64 0 0 0-2.71-.68c-2.63-.53-5.65-1.05-6.61-1.15s-2.55-.15-3.49-.12a13.38 13.38 0 0 0-3.06.5A12.46 12.46 0 0 0 31.61 40c-.85.59-2.19 1.42-3 1.85a26.05 26.05 0 0 1-2.94 1.31 13 13 0 0 0-2.35 1.22 31.06 31.06 0 0 0-3.58 3.38 49.81 49.81 0 0 0-3.26 3.85 6.65 6.65 0 0 0-.89 2.13 6.35 6.35 0 0 0 .19 2.26 30.09 30.09 0 0 1 .75 3.43c.18 1.19.25 4.87.23 7.73a65 65 0 0 1-.44 8 38.21 38.21 0 0 1-1.06 4 8.56 8.56 0 0 0-.3 3.16 10.79 10.79 0 0 0 1.27 3.27 9.17 9.17 0 0 1 1.35 4.56c-.07 1.48-1.42 3.93-2.72 5.59a45.2 45.2 0 0 0-2.73 3.77 10.86 10.86 0 0 0-.74 2 18.28 18.28 0 0 0-.37 2.64 5.58 5.58 0 0 1-1.42 3.42 4.54 4.54 0 0 1-1.1.74c.25.28.59.62 1 1 1.65 1.52 3.71 3.53 4.31 4.24a24.55 24.55 0 0 1 1.8 2.54z"/><path d="M42.35 142.09c-.2 1-.42 2.59-.5 3.56a61.34 61.34 0 0 0 .41 7.14c.3 3 1.19 8.28 2 11.84a39.94 39.94 0 0 0 2.14 7.48 23.78 23.78 0 0 0 5.17 3.34c1.71.9 3.19 1.69 3.95 2.11-.13-.4-.26-.86-.4-1.36-.37-1.32-.78-3-1.15-4.63-.78-3.56-1.66-8.89-2-11.84a61.34 61.34 0 0 1-.41-7.14c.08-1 .3-2.58.5-3.56s.74-5.43 1.2-9.89.79-9 .73-10.2a29.21 29.21 0 0 0-.52-3.9 18.94 18.94 0 0 0-1.13-3.33 16.13 16.13 0 0 0-1.79-2.81 11.78 11.78 0 0 0-2.46-2.13 13.51 13.51 0 0 0-3.16-1.28l-1-.25-.79-.19a.12.12 0 0 1-.06-.11 1.87 1.87 0 0 0-.54-.38l.1.19a18.94 18.94 0 0 1 1.13 3.33 29.21 29.21 0 0 1 .52 3.9c.06 1.16-.26 5.75-.73 10.2s-1.02 8.93-1.21 9.91zM61.39 185.82a31.7 31.7 0 0 1 3.17-.72 3.61 3.61 0 0 0 1.18-.27c0-.05-2-1.14-4.49-2.42a33.43 33.43 0 0 1-4.71-2.9 2.9 2.9 0 0 1-.47-.44 3.08 3.08 0 0 1-.28-.61c-.06 0-.08 0 0 0l-.16-.46-.78.14a31.7 31.7 0 0 0-3.17.72 19.07 19.07 0 0 1-3.91.59c-1.08 0-5.39-.47-9.59-1.1s-8.34-1.31-9.21-1.53c-.46-.11-1.06-.28-1.66-.46.24.4.53.84.84 1.28a18.15 18.15 0 0 0 1.66 2 11.28 11.28 0 0 0 2.8 2c.8.36 2.15.89 3 1.17s2.22.69 3.09.91 5 .9 9.21 1.53 8.52 1.12 9.59 1.1a19.07 19.07 0 0 0 3.89-.53zM54.75 53.67c.57-.62 1.49-1.53 2.05-2a20.31 20.31 0 0 1 2-1.51 9.91 9.91 0 0 0 2-1.81 15.22 15.22 0 0 0 1.28-1.81c.18-.35-1.88-1.08-4.59-1.63s-5.75-1.07-6.76-1.17h-.56c-.5 0-1.07-.06-1.63-.08-.49.35-1 .77-1.42 1.1-.56.48-1.48 1.39-2.05 2a5.43 5.43 0 0 0-1.2 2.62 8.62 8.62 0 0 0 .55 3.32 23.89 23.89 0 0 1 1 3.73 23.22 23.22 0 0 1 .28 3.82c0 1.06.13 3.68.36 5.8s.4 4.74.39 5.8-.7 6.28-1.53 11.6-1.76 10.37-2.07 11.25a47.61 47.61 0 0 1-2.73 5.3 21.94 21.94 0 0 1-3.24 4.51 9.91 9.91 0 0 1-2.67 1.28 6.06 6.06 0 0 0-2 .89c-.22.24-.06.62.36.84a2.82 2.82 0 0 1 .77.51.12.12 0 0 0 .06.11l1.81.43a13.51 13.51 0 0 1 3.16 1.28 11.78 11.78 0 0 1 2.48 2.15 15 15 0 0 1 1.15 1.58 3.56 3.56 0 0 1 .88-.48 9.72 9.72 0 0 1 1.08-.39 9.91 9.91 0 0 0 2.67-1.28 21.94 21.94 0 0 0 3.24-4.51 47.61 47.61 0 0 0 2.73-5.29c.32-.88 1.26-6 2.09-11.27s1.51-10.54 1.53-11.6-.22-3.67-.44-5.76-.39-4.74-.36-5.8a23.22 23.22 0 0 0-.28-3.82 23.89 23.89 0 0 0-1-3.73 8.62 8.62 0 0 1-.55-3.32 5.43 5.43 0 0 1 1.16-2.66zM11.42 115.31h-.62a1.71 1.71 0 0 0 .46 0 2.18 2.18 0 0 0 .62 0 .82.82 0 0 0-.46 0zM63.87 44.53h-.06c-.06 0-.06 0 0 0a.08.08 0 0 0 .06 0zM66.8 185.39a.86.86 0 0 0-.48-.28l-.53-.19a.32.32 0 0 0 0 .11.24.24 0 0 1 0 .22.52.52 0 0 1-.33.13c-.14 0 .09 0 .52.06a2.09 2.09 0 0 0 .82-.05z"/><path d="M63.87 43.19c-.19.3-.6 1-.91 1.62s-.34 1.13-.06 1.19a4.77 4.77 0 0 0 1.22 0c.39 0 .49-.4.22-.78a3.35 3.35 0 0 0-.56-.69.34.34 0 0 1 0-.3 9.48 9.48 0 0 1 .26-1c.09-.29.02-.33-.17-.04zM12.29 115c-.19.14-.26.25-.16.25a1.76 1.76 0 0 0 .47-.12c.16-.06.24-.19.17-.28a.22.22 0 0 0-.13-.13 3.08 3.08 0 0 1-.35.28zM12.66 114.62v.06h.06c.06 0-.03-.06-.06-.06z"/></svg>