<svg xmlns="http://www.w3.org/2000/svg" width="91.65" height="200" viewBox="0 0 91.65 200"><title>_</title><path d="M47.22 55.58c.14-.93.42-4.21.61-7.18v-.58a27.82 27.82 0 0 0-.07-4.75 1.06 1.06 0 0 0-.38 0 15.76 15.76 0 0 1-2.93.26 12.91 12.91 0 0 1-2.78-.43 16.56 16.56 0 0 0-2.07-.44 14.93 14.93 0 0 0-2.05-.11c-.59 0-1.56.09-2.12.15s-1.49.22-2 .33a2.45 2.45 0 0 0-1 .66 7.87 7.87 0 0 0-1 2.16 8.79 8.79 0 0 0-.21 2.85 11.19 11.19 0 0 0 1 3 16.2 16.2 0 0 1 1.44 4 13.69 13.69 0 0 1 0 4.09c-.18 1-.56 2.68-.85 3.71S32 66 31.64 67a21.26 21.26 0 0 0-1 3.27 18.88 18.88 0 0 0-.25 3.24c0 1 0 3.47-.17 5.47s-.17 4.25-.13 5.18a31.65 31.65 0 0 0 .38 3.36c.17.92.8 3.27 1.4 5.14A21.2 21.2 0 0 1 33 98.59a12.78 12.78 0 0 1-1.1 4.12 10.07 10.07 0 0 0-.81 3 9.33 9.33 0 0 0 .46 3 16.09 16.09 0 0 1 .83 4 43.71 43.71 0 0 1-1.08 7.5 29.45 29.45 0 0 0-.83 6.55 14.14 14.14 0 0 0 1 3.14 13 13 0 0 1 1.19 4.1 12 12 0 0 1-.58 4.16c-.33.93-.79 2.49-1 3.41s-.51 2.47-.63 3.4a31.39 31.39 0 0 0-.2 3.45c0 1 .12 2.64.25 3.65a5.09 5.09 0 0 0 .53 1.66 11.36 11.36 0 0 0 3.4-.49 36.7 36.7 0 0 1 3.84-.85 9.49 9.49 0 0 1 1.4-.14h.36a10.14 10.14 0 0 1 2.77.85 10.5 10.5 0 0 0 1.91.69 7.48 7.48 0 0 0 1.74.12 1.22 1.22 0 0 0 .58-.35 5.85 5.85 0 0 0 .53-1.94 30.77 30.77 0 0 0 .1-3.29 32.43 32.43 0 0 0-.33-3.34c-.2-1.2-.31-7.05-.31-12v-1.34c0-4.92.15-10.83.4-12.08.21-1 .65-2.7 1-3.72a9.92 9.92 0 0 0 0-6.2 18.21 18.21 0 0 1-.71-3.94 17.69 17.69 0 0 1 .35-4c.21-.92.57-3.3.8-5.18a34.89 34.89 0 0 0 .28-5 25.75 25.75 0 0 0-.54-3.32 30.65 30.65 0 0 1-.6-3.81 53.06 53.06 0 0 1 .44-7.4 37 37 0 0 0 .34-6.67 13.15 13.15 0 0 0-1.12-3.11 14.49 14.49 0 0 1-1.37-4.06 12.46 12.46 0 0 1 .24-4.16c.23-.95.55-2.48.69-3.42z"/><path d="M49.55 160.66a8.66 8.66 0 0 1 2.29.71 11.79 11.79 0 0 0 2.25.81 9 9 0 0 0 2.18.15 2.59 2.59 0 0 0 1.69-1 6.9 6.9 0 0 0 .79-2.64 32.05 32.05 0 0 0 .1-3.49 33.8 33.8 0 0 0-.35-3.54c-.16-1-.29-6.28-.29-11.78v-1.34c0-5.5.17-10.8.37-11.78s.62-2.58.94-3.56a11.41 11.41 0 0 0 0-7.11 16.79 16.79 0 0 1-.64-3.56 16.19 16.19 0 0 1 .32-3.55c.22-1 .59-3.38.82-5.33a35.84 35.84 0 0 0 .28-5.34 27.16 27.16 0 0 0-.58-3.56 28.86 28.86 0 0 1-.6-3.56 52.46 52.46 0 0 1 .49-7.11A36.74 36.74 0 0 0 60 77a14.58 14.58 0 0 0-1.27-3.56 13 13 0 0 1-1.2-3.56 11.09 11.09 0 0 1 .2-3.56c.25-1 .57-2.58.72-3.56s.43-4.27.63-7.31.08-5.9-.25-6.35a2.12 2.12 0 0 0-2-.55 14.22 14.22 0 0 1-2.6.24 11.39 11.39 0 0 1-2.39-.37c-.4-.12-1-.25-1.48-.35l-.81-.14h-.19v.6c-.19 3-.48 6.33-.63 7.31s-.48 2.58-.72 3.56a11.09 11.09 0 0 0-.2 3.56A13 13 0 0 0 49 66.49 14.58 14.58 0 0 1 50.26 70a36.74 36.74 0 0 1-.33 7.11 52.46 52.46 0 0 0-.49 7.11 28.86 28.86 0 0 0 .6 3.56 27.16 27.16 0 0 1 .58 3.56 35.84 35.84 0 0 1-.28 5.34c-.23 2-.6 4.36-.82 5.33a16.19 16.19 0 0 0-.32 3.55 16.79 16.79 0 0 0 .64 3.56 11.41 11.41 0 0 1 0 7.11c-.32 1-.74 2.58-.94 3.56s-.37 6.28-.37 11.78v1.34c0 5.5.12 10.8.29 11.78a33.8 33.8 0 0 1 .35 3.54 32.05 32.05 0 0 1-.1 3.49 6.9 6.9 0 0 1-.79 2.64 2.59 2.59 0 0 1-1.69 1 9 9 0 0 1-2.18-.15 11.79 11.79 0 0 1-2.25-.81 8.66 8.66 0 0 0-2.29-.71 6 6 0 0 0-1.34.11v1.48a38.33 38.33 0 0 0 .27 3.83 5.29 5.29 0 0 0 1.1 2.73c.46.42 2.59.28 4.71-.3a21.46 21.46 0 0 1 4.94-.88z"/></svg>