<svg xmlns="http://www.w3.org/2000/svg" width="77.36" height="200" viewBox="0 0 77.36 200"><title>_</title><path d="M54.92 111.77s.01.01 0 0zM55.54 112a.35.35 0 0 1-.08-.11.42.42 0 0 1 0-.16c-.25.06-.35.16-.21.24a.48.48 0 0 0 .29.03zM55.65 111.93a.67.67 0 0 0 .2-.09l-.14-.18h-.09a.43.43 0 0 1 0 .21.33.33 0 0 1 .03.06zM55.72 111.67l.14.18c.14-.12.08-.19-.14-.18zM55.51 112.12a1.93 1.93 0 0 0 .35.2h.09c.08 0 .09 0 0 0h-.08a2.17 2.17 0 0 0-.36-.2z" fill="none"/><path d="M11.51 181.27h1c1.79 0 4.6.19 6.6.38.68.07 1.38.12 2 .16a26.3 26.3 0 0 0 4.64 0 35 35 0 0 0 5.45-2.58 48.17 48.17 0 0 0 5.13-3.2 18.92 18.92 0 0 0 2.11-2.26c.63-.82 2.26-2.67 3.63-4.12a15.46 15.46 0 0 0 2.54-3.39 5 5 0 0 0 .06-2.09 24.82 24.82 0 0 1-.49-3.49 33.74 33.74 0 0 1 .06-3.85c.08-1 .09-4.46 0-7.54s.08-8.48.35-11.71c.28-3.38.41-6.55.35-7.39a33.39 33.39 0 0 0-.45-3.42 25.34 25.34 0 0 1-.42-3.64 19.79 19.79 0 0 1 .27-3.42 9.54 9.54 0 0 1 1.27-3.16c.76-1.12 3.73-2.88 5.19-3.65l1.36-.72a13.44 13.44 0 0 1-2-1.48 10.42 10.42 0 0 1-1.93-2.54 14.35 14.35 0 0 1-1-2.71 14.07 14.07 0 0 1-.3-2.85 6.25 6.25 0 0 0-.52-2.07 16.32 16.32 0 0 0-1.86-2.77 12.28 12.28 0 0 1-2.16-3.87c-.41-1.43.19-4.92.92-7.56a65.16 65.16 0 0 0 1.53-6.53 19.4 19.4 0 0 0 0-3.1 21.86 21.86 0 0 1 0-3.69 23.09 23.09 0 0 1 .77-3.67 7.19 7.19 0 0 0 .23-2.58 7 7 0 0 0-1-2.35 9.1 9.1 0 0 1-1.46-3.6 8.4 8.4 0 0 1 .68-3.81 5.38 5.38 0 0 0 .16-2.51 13.54 13.54 0 0 0-1.65-3.56l-.3-.43a30.21 30.21 0 0 0-2.48-3.1 16 16 0 0 0-2.68-2.19 9.43 9.43 0 0 0-2.63-1 10.15 10.15 0 0 0-2.89.1 57.71 57.71 0 0 1-5.75.67 56.28 56.28 0 0 1-7.9-.11c-1.25-.12-3-.39-4.75-.72a23.6 23.6 0 0 1 1.7 3.1l.39.88.34.87.23.56c.79 2 1.51 3.93 1.88 5.18A40.36 40.36 0 0 1 19 60.07a29.74 29.74 0 0 1 .16 3.79c0 1-.17 2.68-.3 3.71s-.41 2.69-.64 3.71a14.24 14.24 0 0 0-.22 3.17 15.12 15.12 0 0 0 .66 3.18 11.31 11.31 0 0 1 .52 4.22A12.65 12.65 0 0 1 17.82 86a11.12 11.12 0 0 0-1 3.32 15.33 15.33 0 0 0 .25 4c.27 1.26.77 3.12 1.1 4.14a27.62 27.62 0 0 0 1.3 3.19c.4.78 1.39 2.47 2.21 3.76a13.76 13.76 0 0 0 2.27 2.8 11.39 11.39 0 0 0 2.29 1.17c.88.31 2 .75 2.47 1a3.58 3.58 0 0 1 1.47 1.11h.17a2.23 2.23 0 0 1 1.58 1.1 2.06 2.06 0 0 1 0 1.68 3.59 3.59 0 0 1-.49.87 6.38 6.38 0 0 1-2.08 1.59 15.45 15.45 0 0 1-2.93.94 16.84 16.84 0 0 0-2.6.82 13.16 13.16 0 0 0-2.13 1.24 8.1 8.1 0 0 0-1.51 1.62 10.29 10.29 0 0 0-1 2.26 18 18 0 0 0-.48 2.92 25.56 25.56 0 0 0 .07 3.4 15.57 15.57 0 0 1-.32 4.36 19 19 0 0 1-1.75 4.27 14.88 14.88 0 0 0-1.43 3.44 11.58 11.58 0 0 0-.12 3.33 28.88 28.88 0 0 0 .84 3.64 33.63 33.63 0 0 0 1.46 3.67A14.7 14.7 0 0 1 18.7 156c.12 1.46-.71 5.09-1.58 7.92-.94 3-2.17 6.63-2.74 8a36.07 36.07 0 0 0-1.28 3.58 22.69 22.69 0 0 0-.45 2.66 7.23 7.23 0 0 1-1.14 3.11z"/><path d="M30.53 112.21a.94.94 0 0 0-.57-.28l.12.2.38.58a.72.72 0 0 0 .07-.5z"/><path d="M55.39 61.13a14.83 14.83 0 0 0-1.87-4.07 32.39 32.39 0 0 0-2.95-3.74 17.3 17.3 0 0 0-3-2.44 11 11 0 0 0-2.78-1.07l-.38-.09a7.66 7.66 0 0 0-.93-.08l.32.47a14.83 14.83 0 0 1 1.87 4.07 6.7 6.7 0 0 1-.24 3.41 7.07 7.07 0 0 0-.46 3 7.68 7.68 0 0 0 1.2 2.91 8.44 8.44 0 0 1 1.26 3 8.64 8.64 0 0 1-.28 3.25 21.72 21.72 0 0 0-.71 3.39 20.37 20.37 0 0 0 0 3.39 21.1 21.1 0 0 1 0 3.39 65.06 65.06 0 0 1-1.57 6.78c-.77 2.79-1.19 5.83-.92 6.75a10.94 10.94 0 0 0 1.87 3.31 17.53 17.53 0 0 1 2.07 3.1 7.52 7.52 0 0 1 .67 2.73 12.46 12.46 0 0 0 .26 2.49 12.92 12.92 0 0 0 .87 2.38 9 9 0 0 0 1.61 2.11 11.75 11.75 0 0 0 2.3 1.58l1.15.56.16.07a1.19 1.19 0 0 0 .29.17l.33.16-.47.25-3.43 1.82a18.86 18.86 0 0 0-4.66 3.18 8.09 8.09 0 0 0-1 2.59 18.27 18.27 0 0 0-.24 3.11 23.8 23.8 0 0 0 .39 3.38 34.45 34.45 0 0 1 .48 3.6c.07 1-.09 4.44-.35 7.62s-.42 8.37-.34 11.55.07 6.64 0 7.7a32.14 32.14 0 0 0-.06 3.65 23.16 23.16 0 0 0 .45 3.23 6.38 6.38 0 0 1-.09 2.89 15.72 15.72 0 0 1-2.87 4c-1.33 1.42-2.92 3.22-3.53 4a20.44 20.44 0 0 1-2.31 2.47 48.61 48.61 0 0 1-5.5 3.37 35 35 0 0 1-5.83 2.73 25.73 25.73 0 0 1-5.07 0c-.06.33-.11.67-.16 1s-.07.5-.09.71a5.58 5.58 0 0 1-1 2.58 6.17 6.17 0 0 1-2.43 1.53c-.86.28-2 .58-2.51.68a3 3 0 0 1-1.25 0 3.38 3.38 0 0 0-.64-.2 3.44 3.44 0 0 0-.68 0h-.44.08a1.16 1.16 0 0 1 .45.28 8.32 8.32 0 0 1 .68.76 2.14 2.14 0 0 0 1.53.45 14.84 14.84 0 0 0 3-.65 21.76 21.76 0 0 1 3.72-.78 58.86 58.86 0 0 1 7.36.35 34.91 34.91 0 0 0 7.18.13 35 35 0 0 0 5.83-2.73 48.61 48.61 0 0 0 5.37-3.37 20.44 20.44 0 0 0 2.31-2.47c.61-.79 2.2-2.59 3.53-4a15.72 15.72 0 0 0 2.87-4 6.38 6.38 0 0 0 .09-2.89 23.16 23.16 0 0 1-.45-3.23 32.14 32.14 0 0 1 .06-3.65c.08-1.06.09-4.52 0-7.7s.08-8.37.34-11.55.42-6.6.35-7.62a34.45 34.45 0 0 0-.48-3.6 23.8 23.8 0 0 1-.39-3.38 18.27 18.27 0 0 1 .24-3.11 8.09 8.09 0 0 1 1-2.59 18.86 18.86 0 0 1 4.66-3.18l3.9-2.07-.33-.16a1.19 1.19 0 0 1-.29-.17s-.62-.28-1.32-.63a11.75 11.75 0 0 1-2.3-1.58 9 9 0 0 1-1.61-2.11 12.92 12.92 0 0 1-.87-2.38 12.46 12.46 0 0 1-.26-2.49 7.52 7.52 0 0 0-.67-2.73 17.53 17.53 0 0 0-2.07-3.1 10.94 10.94 0 0 1-1.87-3.31c-.26-.92.15-4 .92-6.75a65.06 65.06 0 0 0 1.57-6.78 21.1 21.1 0 0 0 0-3.39 20.37 20.37 0 0 1 0-3.39 21.72 21.72 0 0 1 .71-3.39 8.64 8.64 0 0 0 .28-3.25 8.44 8.44 0 0 0-1.26-3 7.68 7.68 0 0 1-1.2-2.91 7.07 7.07 0 0 1 .46-3 6.7 6.7 0 0 0 .37-3.3zm.55 51.23h-.09a1.93 1.93 0 0 1-.35-.2 2.17 2.17 0 0 1 .37.18h.08c.05.06.05.06-.01.02zm-.22-.69l.14.18-.14-.18c.22 0 .29.06.14.18a.67.67 0 0 1-.2.09.43.43 0 0 0 0-.21h.09zm-.27 0a.42.42 0 0 0 0 .16.35.35 0 0 0 .08.11.48.48 0 0 1-.3 0c-.13-.07-.03-.17.22-.23zm-.53.06zM14.24 49.6v.06c-.17.22 0 .42.27.51zM13.89 48.78l-.09-.21a2.89 2.89 0 0 1-.57.08h-.48.67a2.46 2.46 0 0 1 .47.13zM65.57 119.26c.2.1.21.09 0 0a2.17 2.17 0 0 0-.37-.18 1.93 1.93 0 0 0 .37.18zM64.63 118.72s.01 0 0 0z"/><path d="M65.28 118.63c-.34.06-.49.17-.33.26a.62.62 0 0 0 .62-.1c.18-.14.05-.22-.29-.16z"/></svg>