<svg xmlns="http://www.w3.org/2000/svg" width="200" height="200" viewBox="0 0 200 200"><title>_</title><path d="M142.25 114.31a5.28 5.28 0 0 0-.26-.7 6.94 6.94 0 0 0-.89-1.28 7.65 7.65 0 0 0-1.29-1.06 9.4 9.4 0 0 0-1.66-.76 5.2 5.2 0 0 1-2.13-1.4 6 6 0 0 1-1.05-2.37l-.17.23c-.44.64-1.18 1.59-1.65 2.12s-2.92 2.88-4.93 4.73c-1.61 1.48-4.44 4-5.42 4.06a3 3 0 0 1-2.27-1 6.52 6.52 0 0 0-1.2-1 5.35 5.35 0 0 0-1.34-.53c-.46-.1-1.78-.29-2.9-.41a32.47 32.47 0 0 1-3.31-.54 18.94 18.94 0 0 1-2.28-.77 21.87 21.87 0 0 1-2.19-1.11 25.21 25.21 0 0 1-2.11-1.44 6.57 6.57 0 0 0-1.79-.92 7.08 7.08 0 0 0-2.08-.18 13.46 13.46 0 0 1-2.71-.08 11.11 11.11 0 0 1-2.46-.73 13.08 13.08 0 0 0-1.9-.67 49.76 49.76 0 0 0-5.49-.33h-.67a20.07 20.07 0 0 0-5.29.54 10.1 10.1 0 0 0-2.81 1.88c-.64.67-3.14 3.88-5.83 7.58a76.32 76.32 0 0 0-4.82 7.19 2.83 2.83 0 0 0-.09 1.42 9.73 9.73 0 0 0 .72 1.5 9.47 9.47 0 0 0 1 1.3 12.66 12.66 0 0 0 1.31 1.14 14.47 14.47 0 0 0 1.55.95 11.43 11.43 0 0 1 1.81 1.19 9.67 9.67 0 0 1 1.41 1.52.87.87 0 0 0 .29.25 2.29 2.29 0 0 0 .46-.31 2.21 2.21 0 0 0 .22-.21 10.83 10.83 0 0 0 1.17-1.67 13.71 13.71 0 0 0 .86-2.08 14.92 14.92 0 0 1 1.08-2.53 14.45 14.45 0 0 1 1.6-2.21 10.64 10.64 0 0 1 2.26-1.79 11.7 11.7 0 0 1 2.68-1 8.76 8.76 0 0 1 2.78-.18 5.94 5.94 0 0 1 2.37.94 7.5 7.5 0 0 0 1.48.8 6.36 6.36 0 0 0 1.54.3 6.44 6.44 0 0 1 2.18.53 7.45 7.45 0 0 1 1.86 1.37 8.43 8.43 0 0 0 1.4 1.12 47.12 47.12 0 0 0 6 1.54c2.7.56 5.92 1.28 6.64 1.5s2.92 1.22 4.63 2a11.8 11.8 0 0 0 4.33 1.35 33.63 33.63 0 0 0 6.15-2.9c2.68-1.51 5.6-3.26 6.37-3.83s2-1.61 2.81-2.3a15.94 15.94 0 0 0 2.2-2.56 13.55 13.55 0 0 0 1.32-2.87 24.31 24.31 0 0 0 .64-2.78 8.47 8.47 0 0 0 0-1.86 4.92 4.92 0 0 0-.13-.69z" fill="#231f20"/><path d="M151 130a14.51 14.51 0 0 0 1.44-3.13 25.1 25.1 0 0 0 .67-2.93 9.26 9.26 0 0 0 0-2.15 6.9 6.9 0 0 0-.53-1.68 7.83 7.83 0 0 0-1-1.51 8.55 8.55 0 0 0-1.5-1.24 10.3 10.3 0 0 0-1.88-.86 4.2 4.2 0 0 1-1.66-1.09 5 5 0 0 1-.84-1.93 1.46 1.46 0 0 0-.71-1.21 1.91 1.91 0 0 0-1 .78c-.08.1-.16.19-.23.3l-.48.66a6.1 6.1 0 0 1 .2.84 9.26 9.26 0 0 1 0 2.15 25.1 25.1 0 0 1-.67 2.93 14.51 14.51 0 0 1-1.44 3.13 17 17 0 0 1-2.36 2.75c-.78.71-2.08 1.77-2.89 2.37s-3.72 2.35-6.47 3.9a32.86 32.86 0 0 1-6.5 3 12.43 12.43 0 0 1-4.91-1.44c-1.87-.91-3.9-1.8-4.5-2s-3.55-.85-6.54-1.48a41.81 41.81 0 0 1-6.33-1.66 9.38 9.38 0 0 1-1.61-1.28 6.54 6.54 0 0 0-1.57-1.16 5.49 5.49 0 0 0-1.79-.44 7.32 7.32 0 0 1-1.84-.36 8.41 8.41 0 0 1-1.73-.93 5 5 0 0 0-1.92-.76 8 8 0 0 0-2.41.17 10.81 10.81 0 0 0-2.42.94 9.67 9.67 0 0 0-1.94 1.57 13.66 13.66 0 0 0-1.47 2 14 14 0 0 0-1 2.32 14.73 14.73 0 0 1-.94 2.27 11.72 11.72 0 0 1-1.31 1.86 3.31 3.31 0 0 1-.32.31c.13.26.26.5.37.68l.03.25a10.63 10.63 0 0 0 1 1.27 13.61 13.61 0 0 0 1.44 1.25 15.27 15.27 0 0 0 1.69 1 10.39 10.39 0 0 1 1.62 1.06 8.61 8.61 0 0 1 1.25 1.36 1.57 1.57 0 0 0 1.16.69 2.72 2.72 0 0 0 1.38-.88 11.72 11.72 0 0 0 1.31-1.86 14.73 14.73 0 0 0 .94-2.27 14 14 0 0 1 1-2.32 13.66 13.66 0 0 1 1.47-2 9.67 9.67 0 0 1 1.94-1.57 10.81 10.81 0 0 1 2.42-.94 8 8 0 0 1 2.41-.17 5 5 0 0 1 1.92.76 8.41 8.41 0 0 0 1.73.93 7.32 7.32 0 0 0 1.84.36 5.49 5.49 0 0 1 1.79.44 6.54 6.54 0 0 1 1.57 1.16 9.38 9.38 0 0 0 1.61 1.28 41.81 41.81 0 0 0 6.33 1.66c3 .63 5.94 1.29 6.54 1.48s2.63 1.08 4.5 2a12.43 12.43 0 0 0 4.91 1.44 32.86 32.86 0 0 0 6.5-3c2.75-1.55 5.66-3.3 6.47-3.9s2.11-1.66 2.89-2.37A17 17 0 0 0 151 130z" fill="#231f20"/></svg>