<svg xmlns="http://www.w3.org/2000/svg" width="99.59" height="200" viewBox="0 0 99.59 200"><title>_</title><path d="M8.76 118.85a9 9 0 0 0 1 1.21 12.11 12.11 0 0 0 1.24 1.09 14 14 0 0 0 1.48.91 11.86 11.86 0 0 1 1.9 1.25 10.22 10.22 0 0 1 1.43 1.53l.08-.07.17-.17a10.42 10.42 0 0 0 1.08-1.6 13.31 13.31 0 0 0 .82-2 15.49 15.49 0 0 1 1.12-2.63 15.1 15.1 0 0 1 1.66-2.3 11.07 11.07 0 0 1 2.26-1.83 12.1 12.1 0 0 1 2.82-1.1 9 9 0 0 1 3-.19 6.41 6.41 0 0 1 2.6 1 7 7 0 0 0 1.35.74 5.91 5.91 0 0 0 1.38.27 6.91 6.91 0 0 1 2.37.58 7.88 7.88 0 0 1 2 1.47 7.91 7.91 0 0 0 1.3 1 50.48 50.48 0 0 0 5.86 1.48c2.71.56 6 1.29 6.69 1.52s3 1.25 4.7 2.07a12.14 12.14 0 0 0 4 1.31 34.23 34.23 0 0 0 6-2.84c2.67-1.5 5.57-3.24 6.32-3.8s2-1.59 2.77-2.27a15.58 15.58 0 0 0 2.11-2.46 13.11 13.11 0 0 0 1.26-2.74 23.77 23.77 0 0 0 .62-2.71 8.1 8.1 0 0 0 0-1.72 4.3 4.3 0 0 0-.15-.62 4.64 4.64 0 0 0-.24-.62 6.37 6.37 0 0 0-.81-1.16 7.21 7.21 0 0 0-1.18-1 9 9 0 0 0-1.55-.71 5.67 5.67 0 0 1-2.36-1.56 5.82 5.82 0 0 1-.86-1.57c-.42.56-.91 1.18-1.25 1.57-.56.64-3 2.94-5 4.77-4.42 4.08-5.39 4.16-5.71 4.19a3.5 3.5 0 0 1-2.69-1.19 6.1 6.1 0 0 0-1.08-.92 4.92 4.92 0 0 0-1.18-.47c-.44-.09-1.75-.28-2.85-.41a33.13 33.13 0 0 1-3.37-.55 19.45 19.45 0 0 1-2.35-.79 22.23 22.23 0 0 1-2.25-1.14 25.43 25.43 0 0 1-2.16-1.48 6.18 6.18 0 0 0-1.62-.83 6.64 6.64 0 0 0-1.9-.16 14.15 14.15 0 0 1-2.83-.08 11.53 11.53 0 0 1-2.59-.77 12.65 12.65 0 0 0-1.82-.64 50.68 50.68 0 0 0-5.38-.32h-.57a19.74 19.74 0 0 0-5.1.5 9.64 9.64 0 0 0-2.59 1.8c-.63.66-3.11 3.84-5.79 7.53a77.84 77.84 0 0 0-4.75 7.07 2.48 2.48 0 0 0-.09 1.07 9.24 9.24 0 0 0 .68 1.49z"/><path d="M89.28 120.85a14.51 14.51 0 0 0 1.44-3.13 25.1 25.1 0 0 0 .67-2.93 9.26 9.26 0 0 0 0-2.15 6.9 6.9 0 0 0-.49-1.64 7.83 7.83 0 0 0-1-1.51 8.55 8.55 0 0 0-1.5-1.24 10.3 10.3 0 0 0-1.88-.86 4.2 4.2 0 0 1-1.66-1.09 5 5 0 0 1-.84-1.93 1.46 1.46 0 0 0-.71-1.21 1.91 1.91 0 0 0-1 .78c-.08.1-.16.19-.23.3l-.48.66a6.1 6.1 0 0 1 .2.84 9.26 9.26 0 0 1 0 2.15 25.1 25.1 0 0 1-.67 2.93 14.51 14.51 0 0 1-1.44 3.13 17 17 0 0 1-2.36 2.75c-.78.71-2.08 1.77-2.89 2.37s-3.72 2.35-6.47 3.9a32.86 32.86 0 0 1-6.5 3 12.43 12.43 0 0 1-4.91-1.44c-1.87-.91-3.9-1.8-4.5-2s-3.55-.85-6.54-1.48a41.81 41.81 0 0 1-6.33-1.66 9.38 9.38 0 0 1-1.61-1.28 6.54 6.54 0 0 0-1.57-1.16 5.49 5.49 0 0 0-1.79-.44 7.32 7.32 0 0 1-1.84-.36 8.41 8.41 0 0 1-1.73-.93 5 5 0 0 0-1.92-.76 8 8 0 0 0-2.41.17 10.81 10.81 0 0 0-2.42.94 9.67 9.67 0 0 0-1.94 1.57 13.66 13.66 0 0 0-1.47 2 14 14 0 0 0-1 2.32 14.73 14.73 0 0 1-.94 2.27 11.72 11.72 0 0 1-1.31 1.86 3.31 3.31 0 0 1-.32.31c.13.26.26.5.37.68l.13.19a10.63 10.63 0 0 0 1 1.27 13.61 13.61 0 0 0 1.44 1.25 15.27 15.27 0 0 0 1.69 1 10.39 10.39 0 0 1 1.62 1.06 8.61 8.61 0 0 1 1.24 1.33 1.57 1.57 0 0 0 1.16.69 2.72 2.72 0 0 0 1.38-.88 11.72 11.72 0 0 0 1.31-1.86 14.73 14.73 0 0 0 .94-2.27 14 14 0 0 1 1-2.32 13.66 13.66 0 0 1 1.47-2 9.67 9.67 0 0 1 1.94-1.57 10.81 10.81 0 0 1 2.42-.94 8 8 0 0 1 2.41-.17 5 5 0 0 1 1.92.76 8.41 8.41 0 0 0 1.73.93 7.32 7.32 0 0 0 1.84.36 5.49 5.49 0 0 1 1.79.44 6.54 6.54 0 0 1 1.45 1.15 9.38 9.38 0 0 0 1.61 1.28 41.81 41.81 0 0 0 6.33 1.72c3 .63 5.94 1.29 6.54 1.48s2.63 1.08 4.5 2a12.43 12.43 0 0 0 4.91 1.44 32.86 32.86 0 0 0 6.5-3c2.75-1.55 5.66-3.3 6.47-3.9s2.11-1.66 2.89-2.37a17 17 0 0 0 2.36-2.8z"/></svg>