<svg xmlns="http://www.w3.org/2000/svg" width="200" height="200" viewBox="0 0 200 200"><title>_</title><path d="M110.31,76.83a6.43,6.43,0,0,0-1.4-2.55,7.38,7.38,0,0,0-2.75-1.42,19.56,19.56,0,0,0-3.74-.49,21,21,0,0,0-3.75.41c-1.13.26-3,.56-4.1,0.68s-4.82.12-8.35,0a22.14,22.14,0,0,0-6.46.48,18,18,0,0,0,0,6,66.78,66.78,0,0,1,.64,7.91,20.31,20.31,0,0,1-.71,4h0a38.49,38.49,0,0,0-.88,3.81c-0.19,1.1-.4,3-0.48,4.21a3.38,3.38,0,0,0,.57,2.22,4.19,4.19,0,0,0,2.58.06,28.67,28.67,0,0,1,4.71-.74h0.3c0.3,0,.67,0,1.11,0,1.78,0.13,4.52.49,7,.92a47.07,47.07,0,0,0,7.64.87,16.11,16.11,0,0,0,3.44-.81,5,5,0,0,0,2-1.46,3.59,3.59,0,0,0,.24-2.12c-0.21-1-.46-2.55-0.56-3.55s-0.18-2.67-.18-3.74a18.52,18.52,0,0,1,.53-4,22.16,22.16,0,0,1,1.57-3.95,12.76,12.76,0,0,0,1.15-3.4,9.41,9.41,0,0,0,0-1.77A9.1,9.1,0,0,0,110.31,76.83Z" fill="#231f20"/><path d="M103,119.71c0-.4,0-0.8.06-1.2a19.07,19.07,0,0,0-.09-4.43,2.62,2.62,0,0,0-.95.15,11.77,11.77,0,0,1-2.94.67,17.64,17.64,0,0,1-4.85-1.06A14.58,14.58,0,0,0,90.5,113a4.16,4.16,0,0,0-1.4.67,3.82,3.82,0,0,0-1,1.26,5,5,0,0,0-.22,1.81,24.63,24.63,0,0,1,0,2.73,27.21,27.21,0,0,1-.33,2.81,10.82,10.82,0,0,1-1.11,3,14.63,14.63,0,0,1-2.15,2.69,7.54,7.54,0,0,0-1.51,2.15,5.52,5.52,0,0,0-.23,2.26,10.94,10.94,0,0,1-.05,3.15,11.07,11.07,0,0,1-1.13,3,9.33,9.33,0,0,0-.9,2.33,9.12,9.12,0,0,0-.05,2.47,21.47,21.47,0,0,1,.18,3A39.07,39.07,0,0,1,79.56,152a44.6,44.6,0,0,0-1.11,5.4,44.35,44.35,0,0,0,.76,6.17A42.93,42.93,0,0,1,80,170.3a15.78,15.78,0,0,1-.74,3.52,27,27,0,0,0-.87,3.31,35.71,35.71,0,0,0-.43,3.76,3.1,3.1,0,0,0,.67,2.13,13.59,13.59,0,0,0,5.1.46c1.08-.06,2.23-0.09,3.3-0.11h1.15c1,0,1.86,0,2.35.07a37.18,37.18,0,0,0,3.94.12,38.71,38.71,0,0,0,4-.4c1.17-.19,4-0.41,6.37-0.49a15,15,0,0,0,4.48-.7,34.38,34.38,0,0,0,.47-8.33,93.11,93.11,0,0,1,.07-10.1,28.54,28.54,0,0,1,.91-3.46h0a13.78,13.78,0,0,0,.62-2.93,9.88,9.88,0,0,0-.24-2.59,16.13,16.13,0,0,0-1-2.52,18.42,18.42,0,0,0-1.52-2.4,15.35,15.35,0,0,1-1.64-2.77,29.48,29.48,0,0,1-1.11-5.74,38.08,38.08,0,0,1-.31-5.81,19.59,19.59,0,0,1,.67-3.12,5.35,5.35,0,0,0,.12-2.3,6.05,6.05,0,0,0-1.22-2.11,10.31,10.31,0,0,1-1.84-2.86C102.86,123.77,103,120.38,103,119.71Z" fill="#231f20"/><path d="M111.51,78.33a10.46,10.46,0,0,1,0,2A13.78,13.78,0,0,1,110.21,84a21.36,21.36,0,0,0-1.49,3.73,17.63,17.63,0,0,0-.5,3.73c0,1,.08,2.66.18,3.64s0.34,2.52.54,3.44a4.5,4.5,0,0,1-.36,2.85,5.85,5.85,0,0,1-2.53,1.87,17.08,17.08,0,0,1-3.71.87,46.7,46.7,0,0,1-7.91-.88c-2.49-.44-5.2-0.79-6.89-0.91,0,0.29-.1.63-0.15,1-0.15,1.08-.28,2.39-0.34,3.32a4,4,0,0,0,1,3.08,4.84,4.84,0,0,0,3.44.23,27.46,27.46,0,0,1,4.51-.71,55,55,0,0,1,8.18,1,46.7,46.7,0,0,0,7.91.88,17.08,17.08,0,0,0,3.71-.87,5.85,5.85,0,0,0,2.53-1.87,4.5,4.5,0,0,0,.36-2.85c-0.2-.92-0.44-2.46-0.54-3.44s-0.18-2.61-.18-3.64a17.63,17.63,0,0,1,.5-3.73A21.36,21.36,0,0,1,119.92,91a13.78,13.78,0,0,0,1.26-3.73,11.67,11.67,0,0,0-.19-3.71,7.4,7.4,0,0,0-1.68-3,8.35,8.35,0,0,0-3.2-1.67,21.13,21.13,0,0,0-3.6-.5h-1Z" fill="#231f20"/><path d="M121.37,167.34a14.87,14.87,0,0,0,.68-3.19,10.79,10.79,0,0,0-.27-2.92,17.14,17.14,0,0,0-1-2.71,19.5,19.5,0,0,0-1.62-2.56,14.43,14.43,0,0,1-1.52-2.55,29.09,29.09,0,0,1-1-5.45,37.47,37.47,0,0,1-.31-5.58,19,19,0,0,1,.63-2.93,6.27,6.27,0,0,0,.14-2.84,7,7,0,0,0-1.46-2.56,9.32,9.32,0,0,1-1.63-2.53,22.47,22.47,0,0,1-.17-6c0.18-2.57,0-4.93-.33-5.24a2.37,2.37,0,0,0-2.06,0,10.81,10.81,0,0,1-2.64.6,15.65,15.65,0,0,1-3.75-.78l-0.73-.23-0.26-.08a18.59,18.59,0,0,0,.23,4.82,9.32,9.32,0,0,0,1.63,2.53,7,7,0,0,1,1.46,2.56,6.27,6.27,0,0,1-.14,2.84,19,19,0,0,0-.63,2.93,37.47,37.47,0,0,0,.31,5.58,29.09,29.09,0,0,0,1,5.45,14.43,14.43,0,0,0,1.52,2.55,19.5,19.5,0,0,1,1.62,2.56,17.14,17.14,0,0,1,1,2.71,10.79,10.79,0,0,1,.27,2.92,14.87,14.87,0,0,1-.68,3.19,27.49,27.49,0,0,0-.88,3.31,94,94,0,0,0-.06,9.89c0.13,4.54-.2,8.62-0.74,9.09s-2.87.9-5.17,1-5.11.29-6.24,0.47a39,39,0,0,1-4.09.41,37.89,37.89,0,0,1-4.07-.12c-0.65-.06-1.93-0.08-3.39-0.06,0,0.31-.09.65-0.14,1-0.1.83-.19,1.73-0.23,2.41a4,4,0,0,0,1,3c0.63,0.5,3.23.81,5.77,0.67a63.35,63.35,0,0,1,6.65,0,37.89,37.89,0,0,0,4.07.12,39,39,0,0,0,4.09-.41c1.13-.19,3.94-0.4,6.24-0.47s4.63-.51,5.17-1,0.87-4.55.74-9.09a94,94,0,0,1,.06-9.89A27.49,27.49,0,0,1,121.37,167.34Z" fill="#231f20"/></svg>