<svg xmlns="http://www.w3.org/2000/svg" width="81.62" height="200" viewBox="0 0 81.62 200"><title>_</title><path d="M50.33 76.51a6.88 6.88 0 0 0-2.52-1.29 19 19 0 0 0-3.62-.47 20.65 20.65 0 0 0-3.63.39c-1.16.26-3 .57-4.16.69s-4.87.13-8.42 0a24.92 24.92 0 0 0-6 .37 20.52 20.52 0 0 0 .02 5.53 66.9 66.9 0 0 1 .64 8 20.85 20.85 0 0 1-.64 4.08 38.09 38.09 0 0 0-.87 3.75c-.18 1.09-.4 3-.47 4.16a3.27 3.27 0 0 0 .39 1.81 4.53 4.53 0 0 0 2.13-.05 29.3 29.3 0 0 1 4.81-.75h1.48c1.79.13 4.56.49 7 .93a47.2 47.2 0 0 0 7.5.86 15.75 15.75 0 0 0 3.31-.78 4.68 4.68 0 0 0 1.79-1.25 3.16 3.16 0 0 0 .17-1.75c-.21-1-.46-2.59-.56-3.6s-.19-2.71-.19-3.79a19.11 19.11 0 0 1 .51-4.09 22.67 22.67 0 0 1 1.61-4.05A12.37 12.37 0 0 0 51.75 82a8.86 8.86 0 0 0 0-1.67 8.6 8.6 0 0 0-.2-1.47 5.93 5.93 0 0 0-1.22-2.35zM25.44 184.85c1.09-.06 2.25-.09 3.32-.11h1.16c1.06 0 1.89 0 2.4.07a35.73 35.73 0 0 0 3.88.11 37.94 37.94 0 0 0 3.9-.39c1.18-.2 4.07-.42 6.44-.49a16.71 16.71 0 0 0 4.08-.57 38.91 38.91 0 0 0 .38-7.94 95 95 0 0 1 .08-10.21 29.26 29.26 0 0 1 .93-3.53 13.42 13.42 0 0 0 .6-2.8 9.48 9.48 0 0 0-.22-2.43 15.92 15.92 0 0 0-.93-2.42 17.88 17.88 0 0 0-1.46-2.32 16 16 0 0 1-1.7-2.87 30.2 30.2 0 0 1-1.15-5.88 38.15 38.15 0 0 1-.31-5.92 20.18 20.18 0 0 1 .7-3.21 4.92 4.92 0 0 0 .11-2 5.64 5.64 0 0 0-1.1-1.89 10.73 10.73 0 0 1-1.94-3c-.46-1.22-.37-4.45-.33-5.41 0-.4 0-.81.07-1.21a22.54 22.54 0 0 0 0-3.87 1.72 1.72 0 0 0-.35.09 12.14 12.14 0 0 1-3.09.7 18.18 18.18 0 0 1-5-1.08 16.29 16.29 0 0 0-3.51-.84 3.85 3.85 0 0 0-1.15.57 3.39 3.39 0 0 0-.8 1.05 4.62 4.62 0 0 0-.19 1.58 25.16 25.16 0 0 1 0 2.8 27.81 27.81 0 0 1-.34 2.87 11.25 11.25 0 0 1-1.17 3.13 15.22 15.22 0 0 1-2.24 2.8 7.06 7.06 0 0 0-1.39 2 5.08 5.08 0 0 0-.21 2 11.35 11.35 0 0 1-.06 3.32 11.49 11.49 0 0 1-1.19 3.11 8.89 8.89 0 0 0-.84 2.17 8.68 8.68 0 0 0 0 2.3 22 22 0 0 1 .19 3.11 38.91 38.91 0 0 1-1.2 5.76 45.13 45.13 0 0 0-1.1 5.3 44.58 44.58 0 0 0 .75 6.06 42.82 42.82 0 0 1 .78 6.9 16.38 16.38 0 0 1-.77 3.65 26.19 26.19 0 0 0-.85 3.24 35 35 0 0 0-.42 3.69 2.79 2.79 0 0 0 .48 1.71 15.25 15.25 0 0 0 4.76.3z"/><path d="M52 85.91a21.37 21.37 0 0 0-1.49 3.73 17.63 17.63 0 0 0-.5 3.73c0 1 .08 2.66.18 3.64s.34 2.52.54 3.44a4.5 4.5 0 0 1-.36 2.85 5.85 5.85 0 0 1-2.53 1.87 17.09 17.09 0 0 1-3.71.87 46.72 46.72 0 0 1-7.91-.88c-2.49-.44-5.2-.79-6.89-.91 0 .29-.1.63-.15 1-.15 1.08-.28 2.39-.34 3.31a4 4 0 0 0 1 3.08 4.84 4.84 0 0 0 3.44.23 27.46 27.46 0 0 1 4.51-.71 55 55 0 0 1 8.18 1 46.72 46.72 0 0 0 7.91.88 17.09 17.09 0 0 0 3.71-.87 5.85 5.85 0 0 0 2.53-1.87 4.5 4.5 0 0 0 .36-2.85c-.2-.92-.44-2.46-.54-3.44s-.18-2.61-.18-3.64a17.63 17.63 0 0 1 .5-3.73 21.37 21.37 0 0 1 1.49-3.73 13.77 13.77 0 0 0 1.26-3.73 11.67 11.67 0 0 0-.19-3.71 7.4 7.4 0 0 0-1.68-3 8.35 8.35 0 0 0-3.2-1.67 21.15 21.15 0 0 0-3.6-.5h-1a10.46 10.46 0 0 1 0 2A13.77 13.77 0 0 1 52 85.91zM63.13 169.22a14.86 14.86 0 0 0 .68-3.19 10.79 10.79 0 0 0-.27-2.92 17.14 17.14 0 0 0-1-2.71 19.5 19.5 0 0 0-1.62-2.56 14.42 14.42 0 0 1-1.52-2.55 29.09 29.09 0 0 1-1-5.45 37.47 37.47 0 0 1-.31-5.58 19 19 0 0 1 .63-2.93 6.27 6.27 0 0 0 .14-2.84 7 7 0 0 0-1.46-2.56 9.33 9.33 0 0 1-1.63-2.53 22.47 22.47 0 0 1-.17-6c.18-2.57 0-4.93-.33-5.24a2.37 2.37 0 0 0-2.06 0 10.83 10.83 0 0 1-2.64.6 15.64 15.64 0 0 1-3.75-.78l-.82-.27-.26-.08a18.59 18.59 0 0 0 .23 4.82 9.33 9.33 0 0 0 1.66 2.55 7 7 0 0 1 1.46 2.56 6.27 6.27 0 0 1-.14 2.84 19 19 0 0 0-.63 2.93 37.47 37.47 0 0 0 .31 5.58 29.09 29.09 0 0 0 1 5.45 14.42 14.42 0 0 0 1.52 2.55 19.5 19.5 0 0 1 1.62 2.56 17.14 17.14 0 0 1 1 2.71 10.79 10.79 0 0 1 .27 2.92 14.86 14.86 0 0 1-.68 3.19 27.49 27.49 0 0 0-.88 3.31 94 94 0 0 0-.06 9.89c.13 4.54-.2 8.62-.74 9.09s-2.87.9-5.17 1-5.11.29-6.24.47a39 39 0 0 1-4.09.41 37.89 37.89 0 0 1-4.07-.12c-.65-.06-1.93-.08-3.39-.06 0 .31-.09.65-.14 1-.1.83-.19 1.73-.23 2.41a4 4 0 0 0 1 3c.63.5 3.23.81 5.77.67a63.36 63.36 0 0 1 6.65 0 37.89 37.89 0 0 0 4.07.12 39 39 0 0 0 4.09-.41c1.13-.19 3.94-.4 6.24-.47s4.63-.51 5.17-1 .87-4.55.74-9.09a94 94 0 0 1 .06-9.89 27.49 27.49 0 0 1 .99-3.4z"/></svg>