<svg xmlns="http://www.w3.org/2000/svg" width="126" height="200" viewBox="0 0 126 200"><title>_</title><path d="M21 90.68a3.79 3.79 0 0 1-2-.25 3.8 3.8 0 0 0-.75-.21 3.18 3.18 0 0 0-.71 0 5.78 5.78 0 0 1-2-.1 11.69 11.69 0 0 1-1.5-.5c.16 1.42.3 4.48.37 6.45.06 1.76.17 3 .26 3.75a5.44 5.44 0 0 1 2.49-.82 4.78 4.78 0 0 1 2.77 1 3.93 3.93 0 0 0 1.12.61 2.18 2.18 0 0 0 .88 0l.18-.06c.6-.19 1.31-.37 1.82-.47s1.54-.26 2.17-.32a3 3 0 0 1 3 2c.28.76.22 2.78-.18 6-.08.61-.16 1.24-.26 1.87a50.7 50.7 0 0 1-1.74 8.06 24.74 24.74 0 0 1-1.9 3.44 16.25 16.25 0 0 1-2.95 3.1 21.72 21.72 0 0 1-4 2.32 5 5 0 0 0-1.61 1.09 2.4 2.4 0 0 0 .56.86 11.83 11.83 0 0 1 2.38 3.43 12.66 12.66 0 0 1 .8 4.16 7.41 7.41 0 0 0 .64 2.78 7.5 7.5 0 0 0 2 2.1 10.68 10.68 0 0 1 2.94 3.17 11.07 11.07 0 0 1 1.13 4.21 4.08 4.08 0 0 0 .29 1.33 2.68 2.68 0 0 0 .76-.27 18.9 18.9 0 0 0 2.45-1.66 12.85 12.85 0 0 0 1.8-1.91 11.61 11.61 0 0 1 2.2-2.25 10.67 10.67 0 0 1 2.76-1.37 14.65 14.65 0 0 1 3-.5 32.91 32.91 0 0 1 4.5.34c1.7.23 3.28.36 3.73.36a7.88 7.88 0 0 1 2.66.46 9.17 9.17 0 0 1 2.35 1.43 4.71 4.71 0 0 0 1.42.76 5.87 5.87 0 0 0 1.82.08 15.15 15.15 0 0 1 3 0 18.21 18.21 0 0 1 3.1.66 13.79 13.79 0 0 1 3 1.47 14.51 14.51 0 0 1 2.51 2.3 5.06 5.06 0 0 0 1.55 1.2 3.88 3.88 0 0 0 1.67.08 15.41 15.41 0 0 1 2.88-.33 12.24 12.24 0 0 1 2.87.4 6.54 6.54 0 0 0 1.8.18 8.12 8.12 0 0 0 1.95-.49 9.73 9.73 0 0 1 3.19-.63 13.6 13.6 0 0 1 3.42.57 9.64 9.64 0 0 0 2.67.36 11.24 11.24 0 0 0 2.83-.61c.9-.34 2.31-1 3.15-1.38s3.21-1.94 5.75-3.72a17.9 17.9 0 0 0 4-3.52 4.52 4.52 0 0 0-.48-1.84c-.45-.83-1.28-2.2-1.8-3s-1.47-2.06-2.09-2.82a14.55 14.55 0 0 1-2-3.53A14.34 14.34 0 0 1 99 128a13.62 13.62 0 0 1-.18-1.6 15.46 15.46 0 0 0-.56-3.27 13.89 13.89 0 0 0-1.39-2.86 5.81 5.81 0 0 0-1.1-1.2 8.62 8.62 0 0 0-2.18 1.4 26.21 26.21 0 0 1-3.83 2.81 10.8 10.8 0 0 1-2.36.71 11.68 11.68 0 0 0-1.8.48 14.3 14.3 0 0 0-1.82.88 6.73 6.73 0 0 1-2.65.88 5.44 5.44 0 0 1-2.66-.62A8.9 8.9 0 0 0 77 125a28.1 28.1 0 0 0-3.35-.4 19.26 19.26 0 0 1-4.08-.66 11.89 11.89 0 0 1-2-1.1 10.48 10.48 0 0 0-1.47-.84 20 20 0 0 0-3.06-.62l-.59-.08a17.16 17.16 0 0 0-2.32-.17 6.33 6.33 0 0 0-1.15.31 8.59 8.59 0 0 1-1.79.49 6.85 6.85 0 0 1-1.79 0 2.8 2.8 0 0 0-.66 0 1.34 1.34 0 0 0-.29.12 3.65 3.65 0 0 1-1.49.64 3.76 3.76 0 0 1-1.62-.15 5.1 5.1 0 0 1-1.49-.89 7 7 0 0 1-.84-.82 2 2 0 0 1-.06-2.07c0-.16.14-.72.22-1.49a10.61 10.61 0 0 1 1-3.36 7.52 7.52 0 0 1 2.19-2.44 6.87 6.87 0 0 0 1.39-1.3 6.28 6.28 0 0 0 .78-1.65c.19-.71.56-1.81.82-2.46a23.44 23.44 0 0 1 1.09-2.27 6.35 6.35 0 0 1 1.76-2 4.26 4.26 0 0 1 2.52-.59 5.48 5.48 0 0 0 1.25-.06 7.17 7.17 0 0 0 1.38-.49 8.89 8.89 0 0 1 2.19-.72 18.31 18.31 0 0 1 4.14.33 12 12 0 0 0 2.35.2 1.36 1.36 0 0 0 .16-.34 4 4 0 0 0 .08-1.24 4.42 4.42 0 0 0-.45-1.22 8.23 8.23 0 0 1-.86-2.19 3.75 3.75 0 0 1-.06-.62 22.18 22.18 0 0 1 .34-3.61c.07-.43.11-.8.14-1.1-.66.26-1.5.56-2.06.71a17.28 17.28 0 0 1-2.3.45 6.05 6.05 0 0 1-2.78-.46 9.52 9.52 0 0 1-2.45-1.78l-.15-.06a2.76 2.76 0 0 0-.93-.52 2.68 2.68 0 0 0-1 .52 8.28 8.28 0 0 1-2 1.37A1.68 1.68 0 0 1 56 90a1.7 1.7 0 0 1-.48-.86A1.67 1.67 0 0 1 53.65 88a1.58 1.58 0 0 1 .13-1.19c-.24-.12-.47-.25-.67-.37a4.55 4.55 0 0 1-1.52-1.62 10 10 0 0 1-.31-3.82 16.22 16.22 0 0 0 0-2.57 2.84 2.84 0 0 0-.28-.6A8.41 8.41 0 0 1 50 76a21.18 21.18 0 0 1-.72-2.48 10 10 0 0 1-.14-3.09 9.16 9.16 0 0 1 1-2.86 8.86 8.86 0 0 1 2-2.26c1.14-.88 6.51-2.32 7.12-2.48 6.2-1.64 7.07-1.2 7.4-1a4.77 4.77 0 0 1 1.85 2 6.31 6.31 0 0 0 .68 1.17 1.41 1.41 0 0 0 .37.25 4.55 4.55 0 0 0 .92.07 14.74 14.74 0 0 0 1.52-.13 6.17 6.17 0 0 1 2.27.13 4.48 4.48 0 0 1 1.89 1.21 4.83 4.83 0 0 1 1 1.9 5.88 5.88 0 0 1 .06 1.85v.31c-.1.52-.4 1.67-.68 2.61a6.34 6.34 0 0 0-.28 1.72 4 4 0 0 0 .5 1.06 2.28 2.28 0 0 0 .93.54 35.72 35.72 0 0 0 6.11-.67l1.4-.23c2.33-.37 5.12-.74 6.17-.76a24 24 0 0 1 3.94.32c.94.17 2.52.37 3.46.44s2.46.09 3.36.06a4.57 4.57 0 0 0 1.36-.27 1 1 0 0 0 0-.26 22.26 22.26 0 0 1-.68-2.75c-.16-.94-.32-3.93-.38-6.27a35.22 35.22 0 0 0-.57-6 17.93 17.93 0 0 0-1.49-3.13 9.82 9.82 0 0 0-.69-1 12 12 0 0 0-1.45-1.6 13.77 13.77 0 0 0-3-1.81 19.62 19.62 0 0 1-2.34-1.21 16.4 16.4 0 0 1-1.47-1 20.28 20.28 0 0 1-3.11-3.09 9.19 9.19 0 0 0-2.41-2 9.16 9.16 0 0 0-3.06-.75 23.45 23.45 0 0 1-4-.54 16 16 0 0 1-3.43-1.35c-.7-.4-1.9-1-2.62-1.32s-2-.8-2.75-1a12.07 12.07 0 0 0-2.58-.46 12.5 12.5 0 0 0-2.63.26 24.91 24.91 0 0 1-3.55.5 34.49 34.49 0 0 1-4-.06c-1.07-.08-2.8-.13-3.86-.11s-4.56.45-7.72.93A40.83 40.83 0 0 0 38.54 43a15.79 15.79 0 0 0-2.89 2 30.82 30.82 0 0 1-3.34 2.51 29.53 29.53 0 0 1-3.67 1.89A8.51 8.51 0 0 0 26.2 51a8.78 8.78 0 0 0-1.46 2.63c-.34 1.08-1.36 3.64-2.28 5.71a40.65 40.65 0 0 0-2 5.31 32.62 32.62 0 0 0-.24 6 55.33 55.33 0 0 0 .56 6.28c.24 1.19.53 3.24.65 4.58a16.56 16.56 0 0 0 .48 2.86 4.07 4.07 0 0 0 .67 1.05 4 4 0 0 1 1.14 2.07 2.74 2.74 0 0 1-1 2.31 4.21 4.21 0 0 1-1.72.88z"/><path d="M61.11 75.23a7.56 7.56 0 0 1 1.59-1.83 35 35 0 0 1 6.59-2.21 44.8 44.8 0 0 1 5.4-1.19 2.4 2.4 0 0 1 .93 0h.07a4.45 4.45 0 0 0 0-1.33 3.4 3.4 0 0 0-.69-1.16 3 3 0 0 0-1.19-.76 4.68 4.68 0 0 0-1.63-.08 15.72 15.72 0 0 1-1.68.13 7.72 7.72 0 0 1-1.32-.12A2.58 2.58 0 0 1 68.1 66a7.53 7.53 0 0 1-1-1.56 3.33 3.33 0 0 0-1.17-1.35c-.38-.19-3.23.32-6.34 1.14A35 35 0 0 0 53 66.46a7.56 7.56 0 0 0-1.58 1.83 7.72 7.72 0 0 0-.82 2.32 8.56 8.56 0 0 0 .12 2.55 19.62 19.62 0 0 0 .65 2.27 7 7 0 0 0 .78 1.48 4.14 4.14 0 0 1 .61 1.2 14.85 14.85 0 0 1 0 3 9.31 9.31 0 0 0 .15 3 3.07 3.07 0 0 0 1 1 7.41 7.41 0 0 0 1.21.6 3.06 3.06 0 0 0 1 .16c.24 0 .4.08.34.21a3.41 3.41 0 0 1-.76.76 1.57 1.57 0 0 0-.6.69 1 1 0 0 0 .8 0 1.5 1.5 0 0 1 1 0 .91.91 0 0 1 .08.85c-.11.35 0 .56.24.48a7.44 7.44 0 0 0 1.48-1.08 3.58 3.58 0 0 1 2.08-.89 3.48 3.48 0 0 1 1.72.79v-1.19a7.68 7.68 0 0 0-.08-1.5 4.14 4.14 0 0 0-.61-1.2 7 7 0 0 1-.78-1.48 19.62 19.62 0 0 1-.65-2.27 8.56 8.56 0 0 1-.12-2.55 7.72 7.72 0 0 1 .85-2.26zM72.75 101.81a8.07 8.07 0 0 1-3.36-.09 17.23 17.23 0 0 0-3.64-.33A7.59 7.59 0 0 0 64 102a8.61 8.61 0 0 1-1.75.61 6.75 6.75 0 0 1-1.71.08A2.78 2.78 0 0 0 59 103a4.88 4.88 0 0 0-1.27 1.45 21.65 21.65 0 0 0-1 2.1c-.24.6-.59 1.63-.77 2.29a7.78 7.78 0 0 1-1 2.15 8.34 8.34 0 0 1-1.77 1.67 6.1 6.1 0 0 0-1.69 1.89 9.23 9.23 0 0 0-.79 2.81 8.94 8.94 0 0 1-.37 2 .6.6 0 0 0-.09.5 6.8 6.8 0 0 0 .62.59 3.62 3.62 0 0 0 1 .6 2.33 2.33 0 0 0 .91.09 2.24 2.24 0 0 0 .83-.36 2.55 2.55 0 0 1 .91-.39 4.14 4.14 0 0 1 1.17 0 5.34 5.34 0 0 0 1.34 0 7.17 7.17 0 0 0 1.43-.39 7.83 7.83 0 0 1 1.5-.41 16.19 16.19 0 0 1 2.71.17l.23-.18a7.53 7.53 0 0 0 .8-.58 7.34 7.34 0 0 0 .93-1 7.78 7.78 0 0 0 1-2.15c.18-.66.52-1.69.77-2.29a21.65 21.65 0 0 1 1-2.1 4.88 4.88 0 0 1 1.28-1.46 2.78 2.78 0 0 1 1.55-.36 6.75 6.75 0 0 0 1.71-.08 8.61 8.61 0 0 0 1.75-.61 7.59 7.59 0 0 1 1.77-.59 17.23 17.23 0 0 1 3.64.33 8.07 8.07 0 0 0 3.36.09 2.56 2.56 0 0 0 .85-1.32 5.49 5.49 0 0 0 .12-1.84 5.84 5.84 0 0 0-.64-1.77 6.89 6.89 0 0 1-.69-1.73 16 16 0 0 1 .29-3.68c.26-1.55.25-2.93 0-3.08a2.42 2.42 0 0 0-1.6.22 21.29 21.29 0 0 1-2.19.78 15.85 15.85 0 0 1-2.06.41 4.57 4.57 0 0 1-2-.34 5.65 5.65 0 0 1-.82-.49 8.81 8.81 0 0 1-1.18-1l-.16-.14a2.3 2.3 0 0 0 0 .35 6.89 6.89 0 0 0 .69 1.73 5.84 5.84 0 0 1 .64 1.77 5.49 5.49 0 0 1-.12 1.84 2.56 2.56 0 0 1-.84 1.32zM23.38 108.81a2.54 2.54 0 0 0 1.56-.58 4.69 4.69 0 0 1 1.49-.68 2.17 2.17 0 0 1 .47-.07 2.15 2.15 0 0 1 .54.08 21.44 21.44 0 0 0 .27-5.31 1.53 1.53 0 0 0-1.46-1c-.58.06-1.49.19-2 .3s-1.12.27-1.6.42v1c.11 3.17.43 5.76.73 5.84zM113.88 79.07c-.13-.74-.29-3.46-.36-6.05a35.37 35.37 0 0 0-.63-6.38 19.39 19.39 0 0 0-1.51-3.4 14.16 14.16 0 0 0-2.45-3 14.94 14.94 0 0 0-3.35-2.05 19 19 0 0 1-2.46-1.31c-.38-.24-.74-.48-1-.69a15.25 15.25 0 0 1-1.22-1.07 11.4 11.4 0 0 1 .8 1.16 19.39 19.39 0 0 1 1.51 3.4 35.37 35.37 0 0 1 .63 6.38c.07 2.59.23 5.31.36 6.05a20.87 20.87 0 0 0 .63 2.53 1.89 1.89 0 0 1-.28 1.81 4.6 4.6 0 0 1-2.41.7c-1 0-2.54 0-3.53-.06S96 76.83 95 76.65a23.33 23.33 0 0 0-3.66-.3c-.85 0-3.33.33-5.91.73v.17c0 .06-.11.52-.21.89s-.28 1.06-.44 1.57a6.7 6.7 0 0 0-.32 2.42 5.27 5.27 0 0 0 .75 1.65A3.54 3.54 0 0 0 87 84.91a31.48 31.48 0 0 0 6.72-.65c3-.52 6.33-1 7.33-1a23.33 23.33 0 0 1 3.66.3c1 .18 2.63.38 3.61.46s2.57.1 3.53.06a4.6 4.6 0 0 0 2.41-.7 1.89 1.89 0 0 0 .28-1.81 20.87 20.87 0 0 1-.66-2.5zM93.71 50.14a18.3 18.3 0 0 0 2.15 1.12 15.1 15.1 0 0 1 3.27 2 10.57 10.57 0 0 0-2.79-2.31 10.13 10.13 0 0 0-2.63-.81zM114.71 142.91c-.56-.83-1.54-2.15-2.18-2.93a13 13 0 0 1-1.78-3.1 14.22 14.22 0 0 1-.7-3.62 16.79 16.79 0 0 0-.63-3.66 15.31 15.31 0 0 0-1.58-3.24 5.82 5.82 0 0 0-2-1.89c-.53-.21-2.11.6-3.51 1.79l-.94.77-.91.71a10.44 10.44 0 0 0 2.33 5.3c.64.78 1.62 2.1 2.18 2.93s1.4 2.23 1.88 3.12a5.37 5.37 0 0 1 .62 2.94c-.14.73-2.2 2.7-4.58 4.36s-5.05 3.39-5.94 3.83-2.36 1.09-3.29 1.44a12.73 12.73 0 0 1-3.3.71 11 11 0 0 1-3.19-.43 11.68 11.68 0 0 0-3-.5 8.27 8.27 0 0 0-2.62.51 9.48 9.48 0 0 1-2.41.6 7.94 7.94 0 0 1-2.33-.24 10.81 10.81 0 0 0-2.39-.34 13.85 13.85 0 0 0-2.61.29 5.23 5.23 0 0 1-2.53-.14 6.4 6.4 0 0 1-2.17-1.64 12.94 12.94 0 0 0-2.2-2 12.22 12.22 0 0 0-2.64-1.28 16.67 16.67 0 0 0-2.8-.59 13.76 13.76 0 0 0-2.68 0 7.33 7.33 0 0 1-2.42-.12 6.12 6.12 0 0 1-2-1.08 7.71 7.71 0 0 0-1.91-1.16 6.86 6.86 0 0 0-2.11-.37 38.79 38.79 0 0 1-3.94-.37 32.11 32.11 0 0 0-4.23-.33 13 13 0 0 0-2.66.44 9.19 9.19 0 0 0-2.31 1.15 10.22 10.22 0 0 0-1.87 1.91 14.42 14.42 0 0 1-2 2.15l.34.25c.15.1.32.23.48.37a9.26 9.26 0 0 1 2 2.29 9.68 9.68 0 0 1 .95 3.56 3.92 3.92 0 0 0 .91 2.58 2.66 2.66 0 0 0 2.36-.28 20.4 20.4 0 0 0 2.73-1.85 14.42 14.42 0 0 0 2-2.15 10.22 10.22 0 0 1 1.87-1.87 9.19 9.19 0 0 1 2.31-1.15 13 13 0 0 1 2.66-.44 32.11 32.11 0 0 1 4.23.33 38.79 38.79 0 0 0 3.94.37 6.86 6.86 0 0 1 2.11.37 7.71 7.71 0 0 1 1.91 1.16 6.12 6.12 0 0 0 2 1.08 7.33 7.33 0 0 0 2.42.12 13.76 13.76 0 0 1 2.68 0 16.67 16.67 0 0 1 2.8.59 12.22 12.22 0 0 1 2.64 1.28 12.94 12.94 0 0 1 2.2 2 6.4 6.4 0 0 0 2.1 1.61 5.23 5.23 0 0 0 2.53.14 13.85 13.85 0 0 1 2.61-.29 10.81 10.81 0 0 1 2.39.34 7.94 7.94 0 0 0 2.33.24 9.48 9.48 0 0 0 2.41-.6 8.27 8.27 0 0 1 2.62-.51 11.68 11.68 0 0 1 3 .5 11 11 0 0 0 3.19.43 12.73 12.73 0 0 0 3.3-.71c.92-.35 2.4-1 3.29-1.44s3.55-2.16 5.94-3.83 4.44-3.63 4.58-4.36a5.37 5.37 0 0 0-.62-2.94c-.46-.88-1.31-2.28-1.86-3.11z"/></svg>