<svg xmlns="http://www.w3.org/2000/svg" width="200" height="200" viewBox="0 0 200 200"><title>_</title><path d="M144.55,63.23a14.3,14.3,0,0,0-3.08-1.89,19.16,19.16,0,0,1-2.28-1.18,15.79,15.79,0,0,1-1.42-.94,19.67,19.67,0,0,1-3-3,7.39,7.39,0,0,0-5.85-3,22.81,22.81,0,0,1-3.94-.52,15.36,15.36,0,0,1-3.3-1.3c-0.71-.4-1.93-1-2.67-1.35s-2-.81-2.79-1.06a12.5,12.5,0,0,0-2.71-.48,13.22,13.22,0,0,0-2.77.28,24.31,24.31,0,0,1-3.47.49,34.13,34.13,0,0,1-3.91-.06c-1.08-.08-2.83-0.13-3.91-0.11s-4.61.45-7.78,0.94a40.79,40.79,0,0,0-7.33,1.66,16.39,16.39,0,0,0-3,2A30.28,30.28,0,0,1,78,56.21a29,29,0,0,1-3.59,1.86,9,9,0,0,0-2.63,1.8,9.23,9.23,0,0,0-1.56,2.82c-0.33,1.07-1.35,3.6-2.26,5.65a41.15,41.15,0,0,0-2,5.4,32.49,32.49,0,0,0-.25,6.09,55.72,55.72,0,0,0,.56,6.36c0.23,1.17.52,3.2,0.64,4.52a16.5,16.5,0,0,0,.51,3,4.5,4.5,0,0,0,.78,1.23,3.53,3.53,0,0,1,1,1.78,2.25,2.25,0,0,1-.79,1.87,3.69,3.69,0,0,1-1.54.75h0a3.3,3.3,0,0,1-1.69-.22,4.2,4.2,0,0,0-.88-0.25,3.66,3.66,0,0,0-.86,0,5.26,5.26,0,0,1-1.78-.1,12.64,12.64,0,0,1-2-.73L59.47,98a2.31,2.31,0,0,0,0,.35c0.16,0.81.35,4.17,0.44,6.92a38,38,0,0,0,.37,4.58l0.32-.2a5.15,5.15,0,0,1,2.53-.93,4.29,4.29,0,0,1,2.45.91,4.34,4.34,0,0,0,1.32.71,2.68,2.68,0,0,0,1.16-.06l0.17-.05c0.59-.18,1.29-0.36,1.77-0.46s1.51-.25,2.12-0.31a2.5,2.5,0,0,1,2.5,1.63c0.33,0.9,0,4-.21,5.78-0.08.6-.16,1.23-0.26,1.85a51.06,51.06,0,0,1-1.7,7.93A24.12,24.12,0,0,1,70.61,130a15.63,15.63,0,0,1-2.84,3,21.18,21.18,0,0,1-3.9,2.26,4.59,4.59,0,0,0-1.93,1.42,2.24,2.24,0,0,0,.73,1.35,11.44,11.44,0,0,1,2.27,3.26,12.08,12.08,0,0,1,.76,4,7.89,7.89,0,0,0,.7,3,8,8,0,0,0,2.11,2.27,10.27,10.27,0,0,1,2.79,3,10.67,10.67,0,0,1,1.07,4,3.62,3.62,0,0,0,.51,1.83,2.79,2.79,0,0,0,1.28-.36,19.44,19.44,0,0,0,2.53-1.71,13.29,13.29,0,0,0,1.88-2,11.19,11.19,0,0,1,2.09-2.13,10.26,10.26,0,0,1,2.61-1.3,14,14,0,0,1,2.91-.48,31.75,31.75,0,0,1,4.41.33c1.66,0.23,3.3.36,3.8,0.36a7.56,7.56,0,0,1,2.48.43,8.72,8.72,0,0,1,2.2,1.34,5.17,5.17,0,0,0,1.62.87,6.28,6.28,0,0,0,2,.09,14.68,14.68,0,0,1,2.92,0,17.61,17.61,0,0,1,3,.63,13.2,13.2,0,0,1,2.9,1.41,13.93,13.93,0,0,1,2.41,2.21,5.49,5.49,0,0,0,1.76,1.35,4.28,4.28,0,0,0,2,.1,14.85,14.85,0,0,1,2.77-.31h0.07a11.75,11.75,0,0,1,2.66.38,7.11,7.11,0,0,0,2,.2,8.6,8.6,0,0,0,2.1-.53,9.32,9.32,0,0,1,3-.59,13.11,13.11,0,0,1,3.27.54,10.26,10.26,0,0,0,2.84.38,11.68,11.68,0,0,0,3-.65c0.9-.34,2.34-1,3.19-1.4s3.25-2,5.81-3.76a16.31,16.31,0,0,0,4.18-3.78,4.62,4.62,0,0,0-.53-2.22c-0.46-.85-1.29-2.24-1.83-3s-1.49-2.09-2.12-2.86a11.42,11.42,0,0,1-2.54-5.77,13.13,13.13,0,0,1-.17-1.54,15.79,15.79,0,0,0-.59-3.4,14.24,14.24,0,0,0-1.45-3,5.8,5.8,0,0,0-1.43-1.47,7.71,7.71,0,0,0-2.59,1.57,25.56,25.56,0,0,1-3.71,2.74,10.42,10.42,0,0,1-2.23.67,12,12,0,0,0-1.89.51,14.61,14.61,0,0,0-1.9.92,6.26,6.26,0,0,1-2.43.81,5,5,0,0,1-2.39-.55,9.3,9.3,0,0,0-1.57-.65,28.22,28.22,0,0,0-3.45-.42,18.81,18.81,0,0,1-3.93-.62,11.5,11.5,0,0,1-1.92-1.05,10.83,10.83,0,0,0-1.54-.87,19.65,19.65,0,0,0-3.19-.66L108.5,130a15.89,15.89,0,0,0-2.45-.17,6.77,6.77,0,0,0-1.27.34,8.15,8.15,0,0,1-1.67.45,6.34,6.34,0,0,1-1.64,0,3.22,3.22,0,0,0-.83,0,1.66,1.66,0,0,0-.49.2,3.18,3.18,0,0,1-1.28.55,3.29,3.29,0,0,1-1.38-.13,4.61,4.61,0,0,1-1.32-.79,7.17,7.17,0,0,1-.77-0.74,1.49,1.49,0,0,1,0-1.59,14.81,14.81,0,0,0,.25-1.61,10.21,10.21,0,0,1,.9-3.17,7.06,7.06,0,0,1,2-2.25,7.35,7.35,0,0,0,1.52-1.42,6.8,6.8,0,0,0,.86-1.82c0.19-.69.55-1.77,0.8-2.4a22.83,22.83,0,0,1,1.06-2.21,5.9,5.9,0,0,1,1.59-1.8,3.76,3.76,0,0,1,2.2-.52,5.91,5.91,0,0,0,1.4-.07,7.66,7.66,0,0,0,1.5-.53,8.47,8.47,0,0,1,2.05-.68,17.88,17.88,0,0,1,4,.33,10.81,10.81,0,0,0,2.7.19,1.93,1.93,0,0,0,.37-0.69,4.52,4.52,0,0,0,.1-1.44,4.91,4.91,0,0,0-.51-1.4,7.79,7.79,0,0,1-.8-2,3.21,3.21,0,0,1,0-.53,21.64,21.64,0,0,1,.33-3.51,11.77,11.77,0,0,0,.18-1.91,2.79,2.79,0,0,0-.41.14,22,22,0,0,1-2.31.82,16.64,16.64,0,0,1-2.22.44,5.58,5.58,0,0,1-2.52-.42,9.11,9.11,0,0,1-2.3-1.68l-0.16-.13a2.85,2.85,0,0,0-1.2-.63,2.77,2.77,0,0,0-1.38.64A8.46,8.46,0,0,1,103.55,99a1.18,1.18,0,0,1-1.24-.25,1.28,1.28,0,0,1-.37-1.06c-1.33.27-1.71-.33-1.83-0.72a1.28,1.28,0,0,1,.4-1.25,9.18,9.18,0,0,1-1.15-.59A4.05,4.05,0,0,1,98,93.72a10.33,10.33,0,0,1-.26-3.5,15.87,15.87,0,0,0,0-2.71,3.22,3.22,0,0,0-.43-0.84,8,8,0,0,1-.93-1.74,20.5,20.5,0,0,1-.7-2.41,9.54,9.54,0,0,1-.13-2.91,8.75,8.75,0,0,1,.94-2.68,8.44,8.44,0,0,1,1.84-2.12c0.87-.67,4.92-1.86,6.94-2.39,2.74-.72,6.19-1.5,7-1.07A4.29,4.29,0,0,1,114,73.17a6.7,6.7,0,0,0,.84,1.31,1.77,1.77,0,0,0,.58.39,4.78,4.78,0,0,0,1.11.09,14.71,14.71,0,0,0,1.55-.12,5.7,5.7,0,0,1,2.06.12A4,4,0,0,1,121.77,76a4.35,4.35,0,0,1,.87,1.68,5.44,5.44,0,0,1,0,1.68c0,0.13,0,.21,0,0.28-0.1.51-.39,1.63-0.67,2.56a6.26,6.26,0,0,0-.3,1.94,4.35,4.35,0,0,0,.59,1.27,2.64,2.64,0,0,0,1.22.73,34.55,34.55,0,0,0,6.32-.66l1.43-.24c2.28-.36,5-0.73,6.05-0.75a23.44,23.44,0,0,1,3.85.32c1,0.17,2.56.37,3.51,0.44s2.5,0.09,3.42.06a4.17,4.17,0,0,0,1.78-.44,1.24,1.24,0,0,0,0-.75,21.65,21.65,0,0,1-.67-2.68c-0.15-.89-0.31-3.85-0.37-6.2a35.26,35.26,0,0,0-.59-6.12A18.49,18.49,0,0,0,146.8,66a10.3,10.3,0,0,0-.73-1.05A12.53,12.53,0,0,0,144.55,63.23Z" fill="#231f20"/><path d="M121.62,79.2l0.07,0a4.45,4.45,0,0,0,0-1.33,3.4,3.4,0,0,0-.64-1.25,3,3,0,0,0-1.19-.76,4.68,4.68,0,0,0-1.63-.08,15.72,15.72,0,0,1-1.68.13,7.72,7.72,0,0,1-1.32-.12,2.58,2.58,0,0,1-1.1-.68,7.53,7.53,0,0,1-1-1.56,3.33,3.33,0,0,0-1.17-1.35c-0.38-.19-3.23.32-6.34,1.14A34.93,34.93,0,0,0,99,75.61a7.56,7.56,0,0,0-1.58,1.83,7.72,7.72,0,0,0-.82,2.32,8.57,8.57,0,0,0,.12,2.55,19.62,19.62,0,0,0,.65,2.27,7,7,0,0,0,.78,1.48,4.15,4.15,0,0,1,.61,1.2,14.85,14.85,0,0,1,0,3,9.31,9.31,0,0,0,.15,3,3.07,3.07,0,0,0,1,1,7.41,7.41,0,0,0,1.21.6,3.07,3.07,0,0,0,1,.16c0.24,0,.4.08,0.34,0.21a3.41,3.41,0,0,1-.76.76,1.57,1.57,0,0,0-.6.69,1,1,0,0,0,.8,0,1.5,1.5,0,0,1,1,0,0.91,0.91,0,0,1,.08.85c-0.11.35,0,.56,0.24,0.48A7.43,7.43,0,0,0,104.7,97a3.58,3.58,0,0,1,2.08-.89,3.47,3.47,0,0,1,1.72.79c0-.41,0-0.81,0-1.19a7.69,7.69,0,0,0-.08-1.5,4.15,4.15,0,0,0-.61-1.2,7,7,0,0,1-.78-1.48,19.62,19.62,0,0,1-.65-2.27,8.57,8.57,0,0,1-.12-2.55,7.72,7.72,0,0,1,.82-2.32,7.56,7.56,0,0,1,1.58-1.83,34.93,34.93,0,0,1,6.59-2.21,44.8,44.8,0,0,1,5.41-1.14A2.41,2.41,0,0,1,121.62,79.2Z" fill="#231f20"/><path d="M118.36,104a2.29,2.29,0,0,0,0,.35,6.88,6.88,0,0,0,.69,1.73,5.84,5.84,0,0,1,.64,1.77,5.49,5.49,0,0,1-.12,1.84,2.56,2.56,0,0,1-.85,1.32,8.06,8.06,0,0,1-3.36-.09,17.23,17.23,0,0,0-3.64-.33,7.6,7.6,0,0,0-1.77.59,8.6,8.6,0,0,1-1.75.61,6.73,6.73,0,0,1-1.71.08,2.78,2.78,0,0,0-1.55.36,4.89,4.89,0,0,0-1.27,1.45,21.67,21.67,0,0,0-1,2.1c-0.24.6-.59,1.63-0.77,2.29a7.78,7.78,0,0,1-1,2.15,8.33,8.33,0,0,1-1.77,1.67,6.1,6.1,0,0,0-1.69,1.89,9.22,9.22,0,0,0-.79,2.81,8.94,8.94,0,0,1-.37,2,0.6,0.6,0,0,0-.09.5,6.79,6.79,0,0,0,.62.59,3.63,3.63,0,0,0,1,.6,2.33,2.33,0,0,0,.91.09,2.23,2.23,0,0,0,.83-0.36,2.55,2.55,0,0,1,.91-0.39,4.14,4.14,0,0,1,1.17,0,5.36,5.36,0,0,0,1.34,0,7.19,7.19,0,0,0,1.43-.39,7.81,7.81,0,0,1,1.5-.41,16.14,16.14,0,0,1,2.71.17l0.23-.18a7.5,7.5,0,0,0,.85-0.68,7.32,7.32,0,0,0,.93-1,7.78,7.78,0,0,0,1-2.15c0.18-.66.52-1.69,0.77-2.29a21.67,21.67,0,0,1,1-2.1,4.89,4.89,0,0,1,1.27-1.45,2.78,2.78,0,0,1,1.55-.36,6.73,6.73,0,0,0,1.71-.08,8.6,8.6,0,0,0,1.75-.61,7.6,7.6,0,0,1,1.77-.59,17.23,17.23,0,0,1,3.64.33,8.06,8.06,0,0,0,3.36.09,2.56,2.56,0,0,0,.85-1.32,5.49,5.49,0,0,0,.12-1.84,5.84,5.84,0,0,0-.64-1.77,6.88,6.88,0,0,1-.69-1.73,16,16,0,0,1,.29-3.68c0.26-1.55.25-2.93,0-3.08a2.43,2.43,0,0,0-1.6.22,21.23,21.23,0,0,1-2.19.78,15.85,15.85,0,0,1-2.06.41,4.56,4.56,0,0,1-2-.34,5.67,5.67,0,0,1-.82-0.49,8.83,8.83,0,0,1-1.18-1Z" fill="#231f20"/><path d="M73.43,116.72a21.44,21.44,0,0,0,.27-5.31,1.53,1.53,0,0,0-1.46-1c-0.58.06-1.49,0.19-2,.3s-1.12.27-1.6,0.42c0,0.34,0,.69,0,1v0c0.1,3.08.42,5.66,0.71,5.74a2.54,2.54,0,0,0,1.56-.58,4.69,4.69,0,0,1,1.49-.68,2.19,2.19,0,0,1,.47-0.07A2.15,2.15,0,0,1,73.43,116.72Z" fill="#231f20"/><path d="M146.87,64.29a11.4,11.4,0,0,1,.8,1.16,19.39,19.39,0,0,1,1.51,3.4,35.37,35.37,0,0,1,.63,6.38c0.07,2.59.23,5.31,0.36,6.05a20.89,20.89,0,0,0,.63,2.53,1.89,1.89,0,0,1-.28,1.81,4.6,4.6,0,0,1-2.41.7c-1,0-2.54,0-3.53-.06S142,86,141,85.81a23.31,23.31,0,0,0-3.66-.3c-0.85,0-3.33.33-5.91,0.73,0,0.05,0,.11,0,0.16s-0.11.52-.21,0.89-0.28,1.06-.44,1.57a6.7,6.7,0,0,0-.32,2.42,5.27,5.27,0,0,0,.75,1.65,3.54,3.54,0,0,0,1.8,1.13,31.44,31.44,0,0,0,6.72-.65c3-.52,6.33-1,7.33-1a23.31,23.31,0,0,1,3.66.3c1,0.18,2.63.38,3.61,0.46s2.57,0.1,3.53.06a4.6,4.6,0,0,0,2.41-.7,1.89,1.89,0,0,0,.28-1.81,20.89,20.89,0,0,1-.63-2.53c-0.13-.74-0.29-3.46-0.36-6.05a35.37,35.37,0,0,0-.63-6.38,19.39,19.39,0,0,0-1.51-3.4,14.16,14.16,0,0,0-2.45-3,14.94,14.94,0,0,0-3.35-2.05,19,19,0,0,1-2.46-1.31c-0.38-.24-0.74-0.48-1-0.69A15.29,15.29,0,0,1,146.87,64.29Z" fill="#231f20"/><path d="M145.12,62.4a10.57,10.57,0,0,0-2.79-2.31,10.11,10.11,0,0,0-2.63-.8,18.33,18.33,0,0,0,2.15,1.12A15.1,15.1,0,0,1,145.12,62.4Z" fill="#231f20"/><path d="M147,139.09a13,13,0,0,0,1.78,3.1c0.64,0.78,1.62,2.1,2.18,2.93s1.4,2.23,1.88,3.11a5.37,5.37,0,0,1,.62,2.94c-0.14.73-2.2,2.7-4.58,4.36s-5.05,3.39-5.94,3.83-2.36,1.09-3.29,1.44a12.74,12.74,0,0,1-3.3.71,11,11,0,0,1-3.19-.43,11.67,11.67,0,0,0-3-.5,8.26,8.26,0,0,0-2.62.51,9.49,9.49,0,0,1-2.41.6,7.94,7.94,0,0,1-2.33-.24,10.81,10.81,0,0,0-2.39-.34,13.83,13.83,0,0,0-2.61.29,5.23,5.23,0,0,1-2.53-.14,6.4,6.4,0,0,1-2.17-1.64,13,13,0,0,0-2.2-2,12.25,12.25,0,0,0-2.64-1.28,16.69,16.69,0,0,0-2.8-.59,13.78,13.78,0,0,0-2.68,0,7.33,7.33,0,0,1-2.42-.12,6.12,6.12,0,0,1-2-1.08,7.72,7.72,0,0,0-1.91-1.16,6.87,6.87,0,0,0-2.11-.37,38.77,38.77,0,0,1-3.94-.37,32.07,32.07,0,0,0-4.23-.33,13,13,0,0,0-2.66.44,9.19,9.19,0,0,0-2.31,1.15,10.22,10.22,0,0,0-1.87,1.91,14.43,14.43,0,0,1-2,2.15l0,0,0.34,0.25c0.15,0.1.32,0.23,0.48,0.37a9.27,9.27,0,0,1,2,2.29,9.68,9.68,0,0,1,.95,3.56,3.92,3.92,0,0,0,.91,2.58,2.66,2.66,0,0,0,2.36-.28,20.4,20.4,0,0,0,2.73-1.85,14.43,14.43,0,0,0,2-2.15A10.22,10.22,0,0,1,91,160.88a9.19,9.19,0,0,1,2.31-1.15,13,13,0,0,1,2.66-.44,32.07,32.07,0,0,1,4.23.33,38.77,38.77,0,0,0,3.94.37,6.87,6.87,0,0,1,2.11.37,7.72,7.72,0,0,1,1.91,1.16,6.12,6.12,0,0,0,2,1.08,7.33,7.33,0,0,0,2.42.12,13.78,13.78,0,0,1,2.68,0,16.69,16.69,0,0,1,2.8.59,12.25,12.25,0,0,1,2.64,1.28,13,13,0,0,1,2.2,2,6.4,6.4,0,0,0,2.17,1.64,5.23,5.23,0,0,0,2.53.14,13.83,13.83,0,0,1,2.61-.29,10.81,10.81,0,0,1,2.39.34,7.94,7.94,0,0,0,2.33.24,9.49,9.49,0,0,0,2.41-.6,8.26,8.26,0,0,1,2.62-.51,11.67,11.67,0,0,1,3,.5,11,11,0,0,0,3.19.43,12.74,12.74,0,0,0,3.3-.71c0.92-.35,2.4-1,3.29-1.44s3.55-2.16,5.94-3.83,4.44-3.63,4.58-4.36a5.37,5.37,0,0,0-.62-2.94c-0.48-.88-1.32-2.28-1.88-3.11s-1.54-2.15-2.18-2.93a13,13,0,0,1-1.78-3.1,14.22,14.22,0,0,1-.7-3.62,16.79,16.79,0,0,0-.63-3.66,15.3,15.3,0,0,0-1.58-3.24,5.82,5.82,0,0,0-2-1.89c-0.53-.21-2.11.6-3.51,1.79l-0.94.77-0.91.71A13,13,0,0,0,147,139.09Z" fill="#231f20"/></svg>