<svg xmlns="http://www.w3.org/2000/svg" width="131" height="200" viewBox="0 0 131 200"><title>_</title><path d="M13.16 121.07a15.73 15.73 0 0 0 4.05 0l.57-.11a18.21 18.21 0 0 0 3.47-1.15 21.93 21.93 0 0 1 4.82-1.56 19 19 0 0 1 4.88-.11c1.18.15 3.17.3 4.44.34s3.4 0 4.81-.1c1.57-.1 3.72.28 4.74 1.37s1.14 3.25.76 4.73c-.18.7-.38 1.69-.54 2.64-.1.56-.17 1.1-.22 1.51a25 25 0 0 0-.07 3.68c.08 1.08.13 2.83.1 3.91s-.17 2.83-.3 3.91a15.89 15.89 0 0 0 0 3.2 12.71 12.71 0 0 0 .77 2.82 4.13 4.13 0 0 0 1.23 1.53 4.2 4.2 0 0 0 2 .35 22.57 22.57 0 0 1 3.81.08l.52.09a32.84 32.84 0 0 1 3.44.74 32 32 0 0 0 3.79.79 29.11 29.11 0 0 0 3.77.2h.23c1.32 0 4.13.21 6.55.49a12.61 12.61 0 0 0 4.76-.15 3.9 3.9 0 0 0 .7-2.07 22.75 22.75 0 0 0-.26-4 19.15 19.15 0 0 0-1.1-3.61 20.63 20.63 0 0 1-1.27-4.11 39.83 39.83 0 0 1 .31-7.83c.17-1.46.86-6.3 2.52-7.39a7.53 7.53 0 0 1 4.34-.81c1.14.12 4.09.24 6.44.26a60 60 0 0 0 6.42-.24c1.17-.16 3.09-.53 4.28-.83a21.1 21.1 0 0 1 5-.51 23.9 23.9 0 0 1 5.08.87 8.51 8.51 0 0 0 3 .41 1.11 1.11 0 0 0 .62-.58 9.2 9.2 0 0 0 .28-2.06 4.76 4.76 0 0 0-.32-1.46c-.26-.56-.62-1.43-.81-2s-.33-1.08-.46-1.64l-.08-.36a12.17 12.17 0 0 1-.19-2.39 20.36 20.36 0 0 1 .31-2.68.66.66 0 0 0-.09-.39 40.12 40.12 0 0 0-6.83-.05 85.11 85.11 0 0 0-10.71 1.3l-1.45.3a50.63 50.63 0 0 1-5.22.82 30.51 30.51 0 0 1-4.66-.14 9 9 0 0 1-3.79-1.25c-1.72-1.36-.1-4.52.43-5.45a50.55 50.55 0 0 1 3-4.7 20.08 20.08 0 0 0 1.57-2.3 9 9 0 0 0 .56-1.56 3.34 3.34 0 0 1 2.19-2.37 7.22 7.22 0 0 1 3.38.13 8.05 8.05 0 0 0 2.66.13 10.4 10.4 0 0 0 2.8-1.06 11.22 11.22 0 0 1 3.94-1.33 10.05 10.05 0 0 1 4 .59 21.57 21.57 0 0 0 3.11.9 16.73 16.73 0 0 0 3.17.3 5.39 5.39 0 0 0 1.38-.18 10.51 10.51 0 0 1-.51-2.52 8.07 8.07 0 0 1 .3-2.44c.1-.31.3-.88.55-1.52.17-.45.36-.92.54-1.36a8.06 8.06 0 0 0 .46-1.48 11.46 11.46 0 0 0-1.81-1.33 18.29 18.29 0 0 0-2.32-1.19 3.55 3.55 0 0 0-.49-.18 27.3 27.3 0 0 0-4 .56 27.52 27.52 0 0 1-5 .66 8.66 8.66 0 0 1-2.51-.62 3.06 3.06 0 0 1-1.62-3.31 12.9 12.9 0 0 1 1.84-3.92 34.84 34.84 0 0 0 2.31-4.19 37.94 37.94 0 0 0 1.64-4.66 45 45 0 0 1 1.83-5.16c.58-1.35 2.79-5.61 4.94-9.5.26-.47.51-.93.74-1.39a34.77 34.77 0 0 0 2.23-5 3.91 3.91 0 0 0-1 .05 39 39 0 0 1-4.83.53 87.86 87.86 0 0 1-9.08-.81c-3.49-.44-7.43-.77-8.51-.79a36.88 36.88 0 0 0-4 .32 9.24 9.24 0 0 0-3.17 1.26 12.67 12.67 0 0 0-2.67 2.9c-.7 1.1-3.25 6.13-5.55 11l-.18.37c-2.31 4.85-4.66 10.12-5.13 11.51-.11.32-.23.7-.35 1.11-.44 1.41-.94 3.17-1.19 4.33-.8 3.75-1.9 4.2-2.76 4.15s-1.89-.54-2.57-4.31a23.51 23.51 0 0 0-1.67-5.12 19.31 19.31 0 0 0-2.91-4.05 18.79 18.79 0 0 1-3.28-4.74 18.65 18.65 0 0 1-1.31-5.6 25 25 0 0 0-.84-4.87c-.11-.37-.27-.81-.46-1.26a23.72 23.72 0 0 0-1.52-3.15 8.5 8.5 0 0 0-2.6-2.62 6.22 6.22 0 0 0-3.18-.37c-1.32.24-4.42.59-6.92.78a37.82 37.82 0 0 1-7.06 0 30.62 30.62 0 0 1-4.73-1.27 16.88 16.88 0 0 0-3.85-.87 11.91 11.91 0 0 0-3.42.38A2.67 2.67 0 0 0 13 42a33.64 33.64 0 0 0 2.94 6.72c1.94 3.6 5.26 10.71 7.39 15.85l.25.59c.66 1.59 4 9.6 3.92 11.13a3.05 3.05 0 0 1-2.28 2.92 8.14 8.14 0 0 1-2.73 0 11.16 11.16 0 0 1-2.72-1 6.36 6.36 0 0 0-1.82-.57 12.46 12.46 0 0 0-2.94.49 34.57 34.57 0 0 1-3.61.85 2.17 2.17 0 0 0-.4.1c.13.52.29 1.19.37 1.65s.26 2.38.36 3.75a25.73 25.73 0 0 1 0 3.89 7.76 7.76 0 0 1-.31 1.16c1.35.29 4.17.76 7.56 1.22l1.17.15c4.59.59 7.82.87 8.37.84a15.23 15.23 0 0 0 3-.58 6 6 0 0 1 3.61-.16 3.18 3.18 0 0 1 1.78 3 5.9 5.9 0 0 0 .28 1.68A4.35 4.35 0 0 0 38 96.9a16.26 16.26 0 0 1 1.58 1.78c.12.16.28.4.45.67.4.62.87 1.43 1.24 2.11.54 1 1.18 2 1.42 2.37a2.33 2.33 0 0 1 .41 2 2.14 2.14 0 0 1-1.19 1.41c-.9.4-6.71.31-11.43.16l-10.26-.4a95.81 95.81 0 0 0-9.72.06 6.37 6.37 0 0 1 .44 3.19 5.88 5.88 0 0 1-1.59 2.83 1.82 1.82 0 0 0-.41.65 2.6 2.6 0 0 0 .6.78 6 6 0 0 1 1.82 2.69 4.73 4.73 0 0 1-.48 3.13 8.7 8.7 0 0 0 2.28.74z"/><path d="M116.93 56.44c2.12-3.84 3.59-7.44 3.27-8s-1.63-.81-2.91-.57a36.79 36.79 0 0 1-4.6.5c-.64 0-2-.06-3.63-.21l-1.07-.1c-.24.47-.5.94-.76 1.43-2.12 3.84-4.31 8.06-4.87 9.37a43.3 43.3 0 0 0-1.71 4.95 39.31 39.31 0 0 1-1.72 4.89 36.25 36.25 0 0 1-2.43 4.42 11.8 11.8 0 0 0-1.61 3.35 1.59 1.59 0 0 0 .74 1.68 7.36 7.36 0 0 0 2 .5 27.77 27.77 0 0 0 4.59-.63 22.59 22.59 0 0 1 4.53-.57 4 4 0 0 1 .83.27c.16-.3.32-.6.47-.89s.42-.83.57-1.17a39.31 39.31 0 0 0 1.72-4.89 43.3 43.3 0 0 1 1.71-4.95c.57-1.32 2.77-5.54 4.88-9.38zM121.82 90.64a6.11 6.11 0 0 0 .59-2.53 7.47 7.47 0 0 0-2.55-2.11 13.59 13.59 0 0 0-3.38-1.59 19 19 0 0 0-3.74.42l-.79.15-.38.07c-.23.59-.42 1.13-.51 1.42a6.69 6.69 0 0 0-.23 1.92 9.07 9.07 0 0 0 .43 2.1 1.57 1.57 0 0 1-.31 1.64 5 5 0 0 1-2.45.55 22.39 22.39 0 0 1-3.48-.32 22.88 22.88 0 0 1-3.38-1 8.64 8.64 0 0 0-3.33-.49A9.82 9.82 0 0 0 95 92a11.76 11.76 0 0 1-3.32 1.24 9.46 9.46 0 0 1-3.29-.16 6 6 0 0 0-2.57-.15 1.89 1.89 0 0 0-1.16 1.27 10.35 10.35 0 0 1-.66 1.86 21.07 21.07 0 0 1-1.73 2.55 48.78 48.78 0 0 0-2.92 4.53c-.9 1.58-1.26 3.17-.8 3.53a7.87 7.87 0 0 0 3 .94 28.12 28.12 0 0 0 4.38.13 49.76 49.76 0 0 0 5-.79c.31-.46.59-.87.83-1.19l.15-.21A21.07 21.07 0 0 0 93.7 103a10.35 10.35 0 0 0 .67-1.89 1.89 1.89 0 0 1 1.16-1.27 6 6 0 0 1 2.57.15 9.46 9.46 0 0 0 3.29.16 11.76 11.76 0 0 0 3.32-1.24 9.82 9.82 0 0 1 3.29-1.12 8.64 8.64 0 0 1 3.33.49 22.88 22.88 0 0 0 3.38 1 22.39 22.39 0 0 0 3.48.32 5 5 0 0 0 2.45-.55 1.57 1.57 0 0 0 .36-1.65 9.07 9.07 0 0 1-.43-2.1 6.69 6.69 0 0 1 .23-1.92c.13-.5.6-1.74 1.02-2.74zM121.06 128.85a2.55 2.55 0 0 0 1.75-1.66 10.51 10.51 0 0 0 .33-2.49 6.17 6.17 0 0 0-.47-2.05c-.24-.5-.57-1.33-.74-1.83a18.4 18.4 0 0 1-.5-1.83 10.79 10.79 0 0 1-.16-2 19 19 0 0 1 .28-2.45 2 2 0 0 0-.78-2c-.57-.35-4-.47-7.71-.25h-.26l-1 .07c.12.49.29 1.1.42 1.5s.5 1.33.74 1.83a6.17 6.17 0 0 1 .47 2.05 10.51 10.51 0 0 1-.33 2.49 2.55 2.55 0 0 1-1.75 1.66 9.47 9.47 0 0 1-3.79-.45 22.22 22.22 0 0 0-4.72-.85 19.17 19.17 0 0 0-4.54.46c-1.22.31-3.22.7-4.45.86a60.85 60.85 0 0 1-6.64.25c-2.43 0-5.39-.15-6.58-.27a6.17 6.17 0 0 0-3.36.57c-.66.44-1.49 3.28-1.85 6.31a39.19 39.19 0 0 0-.32 7.4 19.24 19.24 0 0 0 1.16 3.83 20.66 20.66 0 0 1 1.21 4 24.27 24.27 0 0 1 .28 4.35 4.86 4.86 0 0 1-1.33 3.23c-.68.52-3.29.71-5.8.42a65.42 65.42 0 0 0-6.57-.48 31.35 31.35 0 0 1-4-.21 33.35 33.35 0 0 1-4-.83 30.81 30.81 0 0 0-3.27-.7c0 .29 0 .56.06.79v.24a14.25 14.25 0 0 0 .84 3 5.55 5.55 0 0 0 1.84 2.22 5.64 5.64 0 0 0 2.85.55 21.14 21.14 0 0 1 3.51.07 29.33 29.33 0 0 1 3.84.79 33.35 33.35 0 0 0 4 .83 31.35 31.35 0 0 0 4 .21 65.42 65.42 0 0 1 6.57.48c2.51.29 5.12.1 5.8-.42a4.86 4.86 0 0 0 1.33-3.23 24.27 24.27 0 0 0-.28-4.35 20.66 20.66 0 0 0-1.21-4 19.24 19.24 0 0 1-1.16-3.75 39.19 39.19 0 0 1 .32-7.4c.36-3 1.19-5.88 1.85-6.31a6.17 6.17 0 0 1 3.36-.57c1.19.12 4.15.24 6.58.27a60.85 60.85 0 0 0 6.64-.25c1.22-.17 3.22-.55 4.45-.86a19.17 19.17 0 0 1 4.54-.46 22.22 22.22 0 0 1 4.72.85 9.47 9.47 0 0 0 3.83.37zM50.24 54.45a17.21 17.21 0 0 0 1.19 5.07 17.37 17.37 0 0 0 3 4.29 20.8 20.8 0 0 1 3.18 4.44 24.92 24.92 0 0 1 1.8 5.51c.31 1.66.83 3 1.16 3s.89-1.32 1.24-3c.27-1.26.74-3 1.17-4.46-.25-.33-.49-.68-.73-1a13.75 13.75 0 0 1-1.09-1.9A17.21 17.21 0 0 1 60 61.39a26.48 26.48 0 0 0-1-5.22 25.16 25.16 0 0 0-2.13-4.75 9.83 9.83 0 0 0-3.21-3.18 7.71 7.71 0 0 0-3.86-.54h-.27l-.75.12c.2.5.38 1 .5 1.39a26.48 26.48 0 0 1 .96 5.24zM19.5 96.56a.92.92 0 0 0 .27 1.11 64.6 64.6 0 0 0 8.73 1.53c3.74.5 7.44.9 9.09 1h1.18c-.15-.24-.29-.45-.4-.59A14.91 14.91 0 0 0 37 98a5.81 5.81 0 0 1-1.18-1.75 7.23 7.23 0 0 1-.41-2.25 1.77 1.77 0 0 0-.84-1.59 4.82 4.82 0 0 0-2.56.2 16.55 16.55 0 0 1-3.4.65c-.85 0-4.6-.32-8.64-.84v1a12.14 12.14 0 0 1 0 1.66 6.49 6.49 0 0 1-.47 1.48zM19.5 128.39a8.15 8.15 0 0 0 3.12 1.1 17.36 17.36 0 0 0 4.52 0 19.15 19.15 0 0 0 4.46-1.39 20.59 20.59 0 0 1 4.4-1.4 17.76 17.76 0 0 1 4.43-.1c.59.08 1.39.15 2.21.22l1 .07c.16-1 .37-2 .57-2.76a4.14 4.14 0 0 0-.41-3.34 5.23 5.23 0 0 0-3.54-.89c-1.41.09-3.63.14-4.94.11s-3.38-.19-4.6-.35a17.76 17.76 0 0 0-4.43.1 20.59 20.59 0 0 0-4.43 1.44 19.85 19.85 0 0 1-3.79 1.27c.06.06.12.13.18.18a4.73 4.73 0 0 1 .61.65 3.76 3.76 0 0 1 .72 1.25 3.32 3.32 0 0 1-.35 2.06 1.5 1.5 0 0 0 .27 1.78z"/></svg>