<svg xmlns="http://www.w3.org/2000/svg" width="82.55" height="200" viewBox="0 0 82.55 200"><title>_</title><path d="M40.29 61.18a4.55 4.55 0 0 0 1.29.34c.71.07 2 .13 2.84.11s2.17-.1 3-.2h1.85a16.15 16.15 0 0 1 1.75.08 19.85 19.85 0 0 1 3.57.82 10.84 10.84 0 0 0 2.69.5 8.59 8.59 0 0 0 2.45-.42 6.55 6.55 0 0 0 1.74-1 2.45 2.45 0 0 0 .55-1 14.91 14.91 0 0 0 .17-1.91 20.4 20.4 0 0 0-.13-2.19 15.82 15.82 0 0 1 0-2.82 16.61 16.61 0 0 1 .55-2.8v-.19a10.4 10.4 0 0 0 .3-1.87 8.38 8.38 0 0 0-.22-1.92 2 2 0 0 0-.53-.8 43.51 43.51 0 0 0-6.61-.58c-3.76-.12-7-.1-7.77 0a28 28 0 0 1-3.53.18 31.2 31.2 0 0 1-3.62-.35 3.93 3.93 0 0 0-1.21 0 1.44 1.44 0 0 0 0 .42 22.88 22.88 0 0 1 .34 2.92 19.7 19.7 0 0 1-.13 2.83c0 .33-.08.83-.1 1.37v.9a17 17 0 0 0 .26 2.26c.1.51.21 1.23.28 1.87 0 .26.06.51.07.71a19.46 19.46 0 0 1 0 2.4.88.88 0 0 0 .15.34zM4.33 62.09a4.44 4.44 0 0 0 1.18 0 32.64 32.64 0 0 1 3.6-.38 29.71 29.71 0 0 1 3.52.11h.19c.88.08 2.12.13 2.88.11s2.95-.2 4.67-.39a46.77 46.77 0 0 1 4.83-.35 3.39 3.39 0 0 0 1.39-.24 1.11 1.11 0 0 0 .18-.4 18.9 18.9 0 0 0 0-2c0-.57-.13-1.59-.22-2.23a11.35 11.35 0 0 1 0-3 12.73 12.73 0 0 1 .88-2.9l.07-.19a6.27 6.27 0 0 0 .41-1.63 4 4 0 0 0-.29-1.44 3.35 3.35 0 0 0-.91-1 6.32 6.32 0 0 0-1.83-.64 25 25 0 0 0-2.78-.26c-.77 0-2.14 0-3 .11a26.2 26.2 0 0 1-3.5 0 26.66 26.66 0 0 1-3.49-.53 16.76 16.76 0 0 0-2.89-.37 15.51 15.51 0 0 0-2.78.28 4.42 4.42 0 0 0-1.57.68 1.5 1.5 0 0 0-.28.77c0 .69-.07 2.35-.2 3.77s-.21 2.9-.2 3.53a19 19 0 0 0 .22 2.28 17.83 17.83 0 0 1 .21 2.85 20.77 20.77 0 0 1-.32 3 1.24 1.24 0 0 0 .03.46z"/><path d="M73.73 58a11.43 11.43 0 0 0 .41-2.45 9.83 9.83 0 0 0-.27-2.35 3.3 3.3 0 0 0-1.23-1.72c-.51-.31-3.8-.66-7.31-.78h-1.2c0 .13-.06.27-.1.38a15.17 15.17 0 0 0-.49 2.5 14.38 14.38 0 0 0 0 2.5 21.72 21.72 0 0 1 .14 2.39 16.06 16.06 0 0 1-.19 2.15 3.84 3.84 0 0 1-1 1.79 7.82 7.82 0 0 1-2.26 1.3 10.11 10.11 0 0 1-3 .51 12.1 12.1 0 0 1-3.16-.58 18.53 18.53 0 0 0-3.25-.75 17.28 17.28 0 0 0-2.84 0L48 63c0 .24.09.53.14.83a26 26 0 0 1 .19 1.56 17.78 17.78 0 0 1 0 2.17 2.16 2.16 0 0 0 .67 1.67 4.68 4.68 0 0 0 2.15.73c.8.08 2.15.13 3 .12s2.27-.11 3.17-.21a17.16 17.16 0 0 1 3.25 0 18.53 18.53 0 0 1 3.25.75 12.1 12.1 0 0 0 3.16.58 10.11 10.11 0 0 0 3-.51 7.82 7.82 0 0 0 2.26-1.3 3.84 3.84 0 0 0 1-1.79 16.06 16.06 0 0 0 .19-2.15 21.72 21.72 0 0 0-.15-2.45 14.38 14.38 0 0 1 0-2.5 15.17 15.17 0 0 1 .45-2.5zM37.77 60.55a11.41 11.41 0 0 1 .76-2.5l.07-.19c-.07-.58-.17-1.26-.27-1.75A18.74 18.74 0 0 1 38 53.6v-1a4.24 4.24 0 0 0-.8-.72l-.16-.08a7.75 7.75 0 0 0-2.19-.8 26.65 26.65 0 0 0-3-.28h-1.87l-1.08.06c0 .09-.07.19-.11.27a11.41 11.41 0 0 0-.76 2.5 10 10 0 0 0 0 2.5c.1.69.21 1.76.24 2.39a20.11 20.11 0 0 1 0 2.17 2.28 2.28 0 0 1-.86 1.53 4.8 4.8 0 0 1-2.23.48c-.8 0-2.88.14-4.62.34s-3.9.38-4.8.4-2.13 0-3-.11c0 .3.08.65.1 1s.06.94 0 1.31a19.32 19.32 0 0 1-.29 2.7 2.13 2.13 0 0 0 .43 1.98 3.94 3.94 0 0 0 2.45.24 31.12 31.12 0 0 1 3.4-.36 28.24 28.24 0 0 1 3.31.1 30.92 30.92 0 0 0 3.26.13c.9 0 3.06-.2 4.8-.4s3.82-.35 4.62-.34a4.8 4.8 0 0 0 2.23-.48 2.28 2.28 0 0 0 .93-1.52 20.11 20.11 0 0 0 0-2.17c0-.63-.14-1.7-.24-2.39a10 10 0 0 1-.06-1.86c.02-.19.04-.46.07-.64z"/></svg>