<svg xmlns="http://www.w3.org/2000/svg" width="200" height="200" viewBox="0 0 200 200"><title>_</title><path d="M124,43.56a39.52,39.52,0,0,0-6.82-.63c-3.77-.12-7.11-0.1-7.85,0a28.08,28.08,0,0,1-3.45.18,30.45,30.45,0,0,1-3.54-.34,3.56,3.56,0,0,0-1.71.08,1.9,1.9,0,0,0-.06.91,22.25,22.25,0,0,1,.33,2.84,19,19,0,0,1-.13,2.74c0,0.35-.08.86-0.11,1.41,0,0.34,0,.67,0,0.94a17.68,17.68,0,0,0,.27,2.34c0.1,0.5.2,1.19,0.28,1.83,0,0.25.05,0.49,0.07,0.69a18.65,18.65,0,0,1,0,2.32,1.25,1.25,0,0,0,.26.78,4,4,0,0,0,1.6.49c0.76,0.07,2.08.12,2.89,0.11s2.22-.11,3.07-0.21l0.35,0h0.1c0.42,0,.88,0,1.34,0a15.53,15.53,0,0,1,1.69.08,19.21,19.21,0,0,1,3.46.8,11.3,11.3,0,0,0,2.85.52,8.79,8.79,0,0,0,2.63-.45,6.94,6.94,0,0,0,1.91-1.09,2.91,2.91,0,0,0,.7-1.24,15.2,15.2,0,0,0,.18-2,21,21,0,0,0-.13-2.25,15.28,15.28,0,0,1,0-2.71,16.13,16.13,0,0,1,.53-2.7h0c0-.08,0-0.16.06-0.25a10.67,10.67,0,0,0,.31-1.94,8.92,8.92,0,0,0-.24-2.06A2.38,2.38,0,0,0,124,43.56Z" fill="#231f20"/><path d="M88.64,43.89a6.72,6.72,0,0,0-2-.71,25.75,25.75,0,0,0-2.84-.26c-0.79,0-2.19,0-3,.11a25.25,25.25,0,0,1-3.42,0,26,26,0,0,1-3.41-.52,17.29,17.29,0,0,0-3-.38H70.8a15.94,15.94,0,0,0-2.8.29,4.75,4.75,0,0,0-1.81.81,1.94,1.94,0,0,0-.43,1.14c0,0.67-.07,2.31-0.2,3.71s-0.21,2.94-.2,3.59a19.56,19.56,0,0,0,.22,2.36,17.27,17.27,0,0,1,.2,2.76,20.2,20.2,0,0,1-.31,2.87,1.49,1.49,0,0,0,.12,1,4.28,4.28,0,0,0,1.64,0,32,32,0,0,1,3.53-.38,28.89,28.89,0,0,1,3.45.11h0.2c0.9,0.08,2.15.13,2.93,0.11s3-.2,4.71-0.39a46.59,46.59,0,0,1,4.76-.34,3.72,3.72,0,0,0,1.67-.32,1.34,1.34,0,0,0,.41-0.78,19.34,19.34,0,0,0,0-2c0-.59-0.13-1.63-0.23-2.29a11,11,0,0,1,0-2.8,12.37,12.37,0,0,1,.84-2.76l0.08-.22a6.75,6.75,0,0,0,.44-1.79,4.49,4.49,0,0,0-.34-1.68A3.8,3.8,0,0,0,88.64,43.89Z" fill="#231f20"/><path d="M135.36,56.17a11.43,11.43,0,0,0,.41-2.45,9.83,9.83,0,0,0-.27-2.35,3.3,3.3,0,0,0-1.23-1.72c-0.51-.31-3.8-0.66-7.31-0.78h-0.2l-1,0c0,0.13-.06.27-0.1,0.38a15.17,15.17,0,0,0-.49,2.5,14.38,14.38,0,0,0,0,2.5,21.72,21.72,0,0,1,.14,2.39,16.07,16.07,0,0,1-.19,2.15,3.84,3.84,0,0,1-1,1.79,7.82,7.82,0,0,1-2.26,1.3,10.11,10.11,0,0,1-3,.51,12.11,12.11,0,0,1-3.16-.58,18.51,18.51,0,0,0-3.25-.75,17.34,17.34,0,0,0-2.84,0l0,0.16c0,0.24.09,0.53,0.14,0.83,0.08,0.56.16,1.15,0.19,1.56a17.79,17.79,0,0,1,0,2.17,2.16,2.16,0,0,0,.61,1.62,4.68,4.68,0,0,0,2.15.73c0.8,0.08,2.15.13,3,.12s2.27-.11,3.17-0.21a17.16,17.16,0,0,1,3.25,0,18.51,18.51,0,0,1,3.25.75,12.11,12.11,0,0,0,3.16.58,10.11,10.11,0,0,0,3-.51,7.82,7.82,0,0,0,2.26-1.3,3.84,3.84,0,0,0,1-1.79,16.07,16.07,0,0,0,.19-2.15,21.72,21.72,0,0,0-.14-2.39,14.38,14.38,0,0,1,0-2.5A15.17,15.17,0,0,1,135.36,56.17Z" fill="#231f20"/><path d="M100.16,56.17l0.07-.19c-0.07-.58-0.17-1.26-0.27-1.75a18.74,18.74,0,0,1-.29-2.51c0-.28,0-0.64,0-1a4.24,4.24,0,0,0-.8-0.72l-0.16-.08a7.76,7.76,0,0,0-2.25-.78,26.59,26.59,0,0,0-3-.28c-0.5,0-1.2,0-1.87,0L90.55,49c0,0.09-.07.19-0.11,0.27a11.42,11.42,0,0,0-.76,2.5,10,10,0,0,0,0,2.5c0.1,0.69.21,1.76,0.24,2.39a20.12,20.12,0,0,1,0,2.17A2.28,2.28,0,0,1,89,60.32a4.8,4.8,0,0,1-2.23.48c-0.8,0-2.88.14-4.62,0.34s-3.9.38-4.8,0.4-2.13,0-3-.11c0,0.3.08,0.65,0.1,1s0.06,0.94,0,1.31a19.32,19.32,0,0,1-.29,2.7,2.13,2.13,0,0,0,.46,1.92,3.94,3.94,0,0,0,2.45.24,31.06,31.06,0,0,1,3.4-.36,28.24,28.24,0,0,1,3.31.1,30.92,30.92,0,0,0,3.26.13c0.9,0,3.06-.2,4.8-0.4s3.82-.35,4.62-0.34a4.8,4.8,0,0,0,2.23-.48,2.28,2.28,0,0,0,.86-1.53,20.12,20.12,0,0,0,0-2.17c0-.63-0.14-1.7-0.24-2.39a10,10,0,0,1-.06-1.86c0-.23,0-0.45.06-0.64A11.42,11.42,0,0,1,100.16,56.17Z" fill="#231f20"/></svg>