<svg xmlns="http://www.w3.org/2000/svg" width="66.07" height="200" viewBox="0 0 66.07 200"><title>_</title><path d="M19.17 49.52c-1.67 3.1-3.79 6.86-4.46 7.79s-2.17 2.69-3.53 4.26c-.43.48-.77.91-1 1.26.48 0 1.08 0 1.78-.1 2.41-.23 4.85-.4 5.67-.4a25.06 25.06 0 0 1 2.87.21c.58.08 1.46.17 2.16.22h2.73a6.38 6.38 0 0 0 2.05-.66c.54-.29 4.19-3.09 8.9-7l8.26-6.81 1.35-1.13c1.94-1.64 3.27-2.84 4.11-3.62-1.14.06-2.53.09-3.44.06a41.46 41.46 0 0 1-4.24-.4c-.92-.15-5.16-.37-10-.47h-1.75a38.22 38.22 0 0 0-7.26.45 31.31 31.31 0 0 0-4.2 6.34z"/><path d="M62.76 49.43c-.1-.35-1.13-.56-2.27-.46s-3 .15-4.14.11a40.06 40.06 0 0 1-4.06-.39c-.56-.09-2-.19-3.94-.28l-1.47-.06-1.36 1.14-8.26 6.81C33 59.8 28.9 63 28.12 63.44a7.65 7.65 0 0 1-2.69.84H22.52l-.77.94c-.62.75-1.32 1.58-2 2.33-1.33 1.52-2.38 3-2.32 3.4s2 .46 4.33.24 4.82-.4 5.54-.4A23 23 0 0 1 30 71c.73.1 1.9.22 2.61.25s1.87 0 2.57 0a7.65 7.65 0 0 0 2.69-.84c.78-.43 4.89-3.64 9.14-7.14l8.26-6.81c4.2-3.52 7.59-6.67 7.49-7.03z"/></svg>