<svg xmlns="http://www.w3.org/2000/svg" width="200" height="200" viewBox="0 0 200 200"><title>_</title><path d="M106.44 187.3a1.32 1.32 0 0 0-.3.07 1.46 1.46 0 0 0-.27.33 3.3 3.3 0 0 1-.94 1.05 2.51 2.51 0 0 1-1.37.37 4.92 4.92 0 0 1-1.11-.21 5.64 5.64 0 0 1-1-.49 3.92 3.92 0 0 0-.76-.31c-.25-.06-1.81-.25-3.76-.41a42.12 42.12 0 0 1-5.81-.9 18.48 18.48 0 0 0-2.2-.45 4.05 4.05 0 0 0-.49.79c-.31.63-.74 1.47-.94 1.77a9.74 9.74 0 0 1-.69.9 3.28 3.28 0 0 0-.38.56 2.47 2.47 0 0 0-.14.41.58.58 0 0 0 .11.12 7.48 7.48 0 0 0 1.46.75c.6.24 1.64.57 2.27.73s1.71.37 2.37.46a21.85 21.85 0 0 1 2.65.56c.47.14 1.13.37 1.78.63l.78.33a13.38 13.38 0 0 0 2.25.75 37.08 37.08 0 0 0 5.33.12 29.84 29.84 0 0 0 5.44-.55A8.11 8.11 0 0 0 112 194c1-.61 2.37-1.47 3.53-2.31.74-.54 1.49-1.1 2.17-1.63a23.55 23.55 0 0 0 2.27-1.93 20 20 0 0 0 1.63-2.18 18.55 18.55 0 0 0 1.22-2.38 16.5 16.5 0 0 0 .73-2.45 5.49 5.49 0 0 0 0-2 8.77 8.77 0 0 0-1-1.65c-.49-.67-1-1.36-1.6-2a26.81 26.81 0 0 0-3.32-3.32 12 12 0 0 0-2.74-.9c-.86-.18-2.27-.49-2.62-.61a3.35 3.35 0 0 0-.59-.08 4.47 4.47 0 0 0-.85.14l-.64.15c-.39.08-.85.17-1.28.24a19.13 19.13 0 0 1-2.66.21c-.56 0-1.91-.09-2.38-.85a2.58 2.58 0 0 1-.15-1.89 5.84 5.84 0 0 1 .78-1.62 6.28 6.28 0 0 1 1.31-1.27 10.26 10.26 0 0 0 1-.86 8.61 8.61 0 0 0 .83-1c.21-.3.54-.83.73-1.17s.49-.95.66-1.32a1.53 1.53 0 0 0 .11-.38h-.09a10.19 10.19 0 0 0-1.14-.19c-.24 0-1.57.09-3.15.3a11.3 11.3 0 0 0-2.69.62 5.57 5.57 0 0 0-.63 1.11 12 12 0 0 1-1.11 2 12.84 12.84 0 0 1-1.54 1.72 10.68 10.68 0 0 0-1.26 1.4 10.08 10.08 0 0 0-.89 1.61 20.66 20.66 0 0 1-1 2 21.6 21.6 0 0 1-1.23 1.87 5.23 5.23 0 0 0-.41.64l.51.24a4.59 4.59 0 0 1 .8.56 2.65 2.65 0 0 1 .64 1 4 4 0 0 1 .19 1.15c.42 0 1.42 0 2.78-.12a41.41 41.41 0 0 1 4.29 0c.4 0 .91.1 1.43.19a12.6 12.6 0 0 1 1.31.3 7.1 7.1 0 0 1 2.23 1.17 5.68 5.68 0 0 1 1.39 2 6.46 6.46 0 0 1 .39 2.28 6.79 6.79 0 0 1-.59 2.26l-.13.25a6.66 6.66 0 0 1-1 1.43 2.57 2.57 0 0 1-1.8.57z" fill="#231f20"/><path d="M109.81 169.85l.58-.13a5.34 5.34 0 0 1 1.1-.17 3.27 3.27 0 0 1 .93.14c.23.08 1.36.34 2.5.58a12.38 12.38 0 0 1 3.1 1.05c.15-.22.36-.54.54-.84l.24-.4c.2-.37.52-1 .7-1.4a2 2 0 0 0 .16-1.19 1.26 1.26 0 0 0-.83-.61 11.13 11.13 0 0 0-1.27-.22 28.73 28.73 0 0 0-3.38.31 8.73 8.73 0 0 0-3.24.87 4.84 4.84 0 0 0-.57.86 6.45 6.45 0 0 0-.3.6c-.07.16-.16.35-.26.55zM108.35 184.47a5.84 5.84 0 0 0 .49-1.87 5.5 5.5 0 0 0-.32-1.87 4.68 4.68 0 0 0-1.11-1.57 6.14 6.14 0 0 0-1.87-1 11.55 11.55 0 0 0-1.2-.27c-.15.26-.36.59-.57.92s-.41.6-.57.83a4.55 4.55 0 0 0-.73 1.36.59.59 0 0 0 .36.66 6.27 6.27 0 0 1 .8.34 3.61 3.61 0 0 1 .6.41 1.7 1.7 0 0 1 .37.57 3.06 3.06 0 0 1 .13.82 1.51 1.51 0 0 0 .19.73.83.83 0 0 0 .54.28h1.55l1.2-.06zM134.2 188.28a6.4 6.4 0 0 0-.05-2.47 17.76 17.76 0 0 0-2.86-4 26.31 26.31 0 0 0-3.56-3.52 12.32 12.32 0 0 0-3.06-1l-1.4-.3a8.82 8.82 0 0 1 1.2 2 6.4 6.4 0 0 1 .05 2.47 17.52 17.52 0 0 1-.79 2.63 19.58 19.58 0 0 1-1.3 2.53 20.93 20.93 0 0 1-1.73 2.31 24.49 24.49 0 0 1-2.4 2.05 4.71 4.71 0 0 1-.21.54 6 6 0 0 1-.91 1.4 1.53 1.53 0 0 1-.95.44 1.78 1.78 0 0 0-.86.21 2.2 2.2 0 0 0-.63.7 2.33 2.33 0 0 1-.61.7 1.52 1.52 0 0 1-.78.2 3.92 3.92 0 0 1-.85-.16 9.6 9.6 0 0 1-1.46.74 30 30 0 0 1-5.73.6 37.43 37.43 0 0 1-5.57-.15 14.5 14.5 0 0 1-2.46-.82l-.76-.38-.19.34c-.1.14-.24.33-.38.51l-.22.28a4.17 4.17 0 0 0-.53.79 3.38 3.38 0 0 0-.25.85 1.23 1.23 0 0 0 .5.89 8.18 8.18 0 0 0 1.72.9 25.06 25.06 0 0 0 2.39.77c.67.17 1.79.39 2.49.48a20.74 20.74 0 0 1 2.5.53 21.48 21.48 0 0 1 2.42.9 14.5 14.5 0 0 0 2.46.82 37.43 37.43 0 0 0 5.57.15 30 30 0 0 0 5.73-.6 30.13 30.13 0 0 0 5.07-3.11 42.89 42.89 0 0 0 4.6-3.7 20.93 20.93 0 0 0 1.73-2.31 19.58 19.58 0 0 0 1.3-2.53 17.52 17.52 0 0 0 .77-2.68z" fill="#231f20"/></svg>