<svg xmlns="http://www.w3.org/2000/svg" width="200" height="200" viewBox="0 0 200 200"><title>_</title><path d="M108.6,117.41a8,8,0,0,0-2.4-1,20.8,20.8,0,0,0-3.15-.36c-0.79,0-3.73.22-6.85,0.6a35.34,35.34,0,0,1-7.43.27,21,21,0,0,1-3.94-1.28,4.12,4.12,0,0,0-1.75-.39,2.74,2.74,0,0,0-.15,1.39,13.36,13.36,0,0,1-.12,3.77,10,10,0,0,1-1.41,3.2,24.42,24.42,0,0,1-2.1,2.47,25,25,0,0,1-2.49,2.12c-0.67.48-2.29,1.88-3.55,3a36.45,36.45,0,0,1-3.89,3.18A20.65,20.65,0,0,1,66.2,136a19.59,19.59,0,0,0-2.84,1.42,18.71,18.71,0,0,0-2.46,1.93c-0.63.6-2.21,2.46-3.46,4a17.07,17.07,0,0,0-2.61,4.41,11.18,11.18,0,0,0-.17,3.42c0.15,1.12.3,2.89,0.34,3.93s0,2.69,0,3.66a24.23,24.23,0,0,0,0,3.23,24.8,24.8,0,0,0,.58,3.21c0.24,0.9.69,2.33,1,3.2s0.88,2.23,1.27,3.06a19.74,19.74,0,0,0,1.61,2.71,20,20,0,0,0,2.12,2.35,14,14,0,0,0,2.59,1.78,28.39,28.39,0,0,0,3.65,1.2c1,0.27,2,.54,3,0.79,2.91,0.71,7,1.54,9.08,1.85a46,46,0,0,1,6,1.29,30.62,30.62,0,0,1,4.17,1.84,9.32,9.32,0,0,0,3.53,1h0a9.08,9.08,0,0,0,3.47-.92,17.3,17.3,0,0,1,4.35-1.52,16.47,16.47,0,0,1,4.54,0,10.63,10.63,0,0,0,3.56-.14,9.17,9.17,0,0,0,3-1.61,34.93,34.93,0,0,1,3.23-2.45c0.91-.59,3.92-2.21,6.73-3.61a33.73,33.73,0,0,0,6-3.62,38.79,38.79,0,0,0,3.63-6.43,65.78,65.78,0,0,0,2.94-6.94,17,17,0,0,0,.42-2.62c0-.16,0-0.31,0-0.43a4.56,4.56,0,0,0-.67-2.22,8,8,0,0,0-2.33-1.88,16.44,16.44,0,0,0-3.44-1.25,38.28,38.28,0,0,0-7.55.29c-3.31.38-6.95,0.7-8.09,0.71a36.91,36.91,0,0,1-4.21-.23,4.31,4.31,0,0,0-2.19.24,2,2,0,0,0-.22,1.36,18.45,18.45,0,0,1,.25,3.26,12.58,12.58,0,0,1-.5,2.89,5.38,5.38,0,0,1-1.58,2.33c-1.09.83-4.78,0.91-4.94,0.91-2,0-3.95.15-4.41,0.22-0.31,0-.73.15-1.14,0.26s-0.55.15-.76,0.23a18,18,0,0,1-2.29.61,19.83,19.83,0,0,1-2.43.27,4.69,4.69,0,0,1-2.55-.63c-1-.69-2.07-3.85-2.18-4.21a13.38,13.38,0,0,1-.69-5.31,26.52,26.52,0,0,1,1.36-4.1,15.39,15.39,0,0,1,2.91-4.26,25.89,25.89,0,0,1,6.58-3.72c2.58-1,5.34-2.06,6.3-2.32a8.71,8.71,0,0,0,2.51-1.2,8.34,8.34,0,0,0,1.76-2.09,22.65,22.65,0,0,0,1.28-2.84,22.39,22.39,0,0,0,.78-3A23.69,23.69,0,0,1,108,127a26.77,26.77,0,0,1,1.52-3.3,8.82,8.82,0,0,0,.74-1.87,4.6,4.6,0,0,0,.15-0.69,4.79,4.79,0,0,0-.38-2.09A5.45,5.45,0,0,0,108.6,117.41Z" fill="#231f20"/><path d="M109.47,80.33a18.88,18.88,0,0,1,.47-4,3.06,3.06,0,0,0-.1-1.93,3.16,3.16,0,0,0-2-.52c-1.06,0-4.58.33-7.85,0.69a70.81,70.81,0,0,1-8.11.53c-1.13-.08-4-0.5-6.41-0.95a12.68,12.68,0,0,0-4.46-.2,18.14,18.14,0,0,0,0,5.91,60.2,60.2,0,0,1,.5,8.08,19.87,19.87,0,0,1-.9,4h0A11.22,11.22,0,0,0,80,95.16,8.49,8.49,0,0,0,80.72,98a8.89,8.89,0,0,0,1.71,2.29,9.14,9.14,0,0,0,2.51,1.42,10.69,10.69,0,0,0,3.15.5l0.68,0a16.94,16.94,0,0,0,2.88-.51c1.14-.33,3-0.76,4.1-1s3-.41,4.09-0.48a26.49,26.49,0,0,1,4.27.18,32.64,32.64,0,0,1,4.45,1,4.52,4.52,0,0,0,2.67.07,3.49,3.49,0,0,0,1.08-2.09,25.09,25.09,0,0,0,.23-3.9A53.73,53.73,0,0,0,111,88.1a51,51,0,0,1-1.54-7.64V80.33Z" fill="#231f20"/><path d="M110.37,124.2a25.54,25.54,0,0,0-1.46,3.15,22.53,22.53,0,0,0-.85,3.22,19.33,19.33,0,0,1-2.16,6.16,9.29,9.29,0,0,1-2,2.4A9.63,9.63,0,0,1,101,140.5c-0.9.24-3.68,1.26-6.18,2.28a25,25,0,0,0-6.26,3.51,14.47,14.47,0,0,0-2.69,3.94,25.79,25.79,0,0,0-1.3,3.91,12.57,12.57,0,0,0,.66,4.8A10,10,0,0,0,87,162.61a3.9,3.9,0,0,0,2,.47,19.34,19.34,0,0,0,2.29-.26,17.27,17.27,0,0,0,2.14-.57c0.23-.08.53-0.17,0.83-0.25a4.16,4.16,0,0,1,.05-0.92l0-.13a26.58,26.58,0,0,1,1.27-3.77,14.47,14.47,0,0,1,2.69-3.94,25,25,0,0,1,6.26-3.51c2.5-1,5.27-2,6.18-2.28a9.63,9.63,0,0,0,2.86-1.38,9.29,9.29,0,0,0,2-2.4,19.33,19.33,0,0,0,2.16-6.16,22.53,22.53,0,0,1,.85-3.22,25.54,25.54,0,0,1,1.46-3.15,9.13,9.13,0,0,0,1-3,5.75,5.75,0,0,0-.48-2.63,6.4,6.4,0,0,0-1.73-2,9,9,0,0,0-2.76-1.13,21.65,21.65,0,0,0-3.34-.38h-0.53l-1,.06A9.89,9.89,0,0,1,110.37,124.2Z" fill="#231f20"/><path d="M136.5,156.58a18.09,18.09,0,0,1-.45,2.8,66.41,66.41,0,0,1-3,7.11,38.61,38.61,0,0,1-3.81,6.69,33.7,33.7,0,0,1-6.28,3.82c-2.77,1.38-5.75,3-6.63,3.55a33.75,33.75,0,0,0-3.12,2.36,10.1,10.1,0,0,1-3.35,1.82,11.5,11.5,0,0,1-4,.16,15.5,15.5,0,0,0-4.21,0,16.43,16.43,0,0,0-4.06,1.42,9.9,9.9,0,0,1-4,1,10.19,10.19,0,0,1-4-1.13,29.49,29.49,0,0,0-4-1.77,45,45,0,0,0-5.84-1.25c-2.11-.32-6.24-1.16-9.16-1.87-1-.25-2.08-0.53-3-0.8,0.28,0.46.57,0.91,0.81,1.24l0,0a20.91,20.91,0,0,0,2.24,2.48,15.06,15.06,0,0,0,2.82,1.93,49.78,49.78,0,0,0,6.88,2.07c2.93,0.71,7.05,1.55,9.16,1.87a45,45,0,0,1,5.84,1.25,29.49,29.49,0,0,1,4,1.77,10.19,10.19,0,0,0,4,1.13,9.9,9.9,0,0,0,4-1,16.43,16.43,0,0,1,4.06-1.42,15.5,15.5,0,0,1,4.21,0,11.5,11.5,0,0,0,4-.16,10.1,10.1,0,0,0,3.35-1.82A33.75,33.75,0,0,1,126,187.5c0.88-.57,3.86-2.17,6.63-3.55a33.7,33.7,0,0,0,6.28-3.82,38.61,38.61,0,0,0,3.81-6.69,66.41,66.41,0,0,0,3-7.11,17.22,17.22,0,0,0,.48-3.29,5.52,5.52,0,0,0-.85-2.81,8.92,8.92,0,0,0-2.68-2.19,17.48,17.48,0,0,0-3.7-1.34,9,9,0,0,0-1.51-.11h-1Z" fill="#231f20"/><path d="M112,87.84a54.47,54.47,0,0,1,1.57,7.62,25.9,25.9,0,0,1-.24,4.1,4.31,4.31,0,0,1-1.58,2.81,5.25,5.25,0,0,1-3.46,0,31.75,31.75,0,0,0-4.29-1,25.26,25.26,0,0,0-4.07-.17c-1.09.06-2.88,0.27-4,.46s-2.89.61-4,.93a17.89,17.89,0,0,1-3.07.55c0.06,0.32.14,0.66,0.23,1a7.64,7.64,0,0,0,.44,1.24,9.83,9.83,0,0,0,2,2.6,10,10,0,0,0,2.85,1.61,12.76,12.76,0,0,0,3.48.55,17,17,0,0,0,3.83-.59c1.1-.32,2.9-0.74,4-0.93s2.89-.4,4-0.46a25.26,25.26,0,0,1,4.07.17,31.75,31.75,0,0,1,4.29,1,5.25,5.25,0,0,0,3.46,0A4.31,4.31,0,0,0,123,106.5a25.9,25.9,0,0,0,.24-4.1,54.47,54.47,0,0,0-1.57-7.62,48.91,48.91,0,0,1-1.51-7.51,18.07,18.07,0,0,1,.44-3.77,3.74,3.74,0,0,0-.3-2.81,4,4,0,0,0-2.75-.89c-0.89,0-3.42.23-6.09,0.5l-1,.1A50.64,50.64,0,0,0,112,87.84Z" fill="#231f20"/></svg>