<svg xmlns="http://www.w3.org/2000/svg" width="103.21" height="200" viewBox="0 0 103.21 200"><title>_</title><path d="M82.38 154.29a16.1 16.1 0 0 0-3.31-1.2 38.29 38.29 0 0 0-7.39.29c-3.32.38-7 .7-8.14.72a38.85 38.85 0 0 1-4.28-.23 4.61 4.61 0 0 0-1.78.13 1.77 1.77 0 0 0-.08.89 19 19 0 0 1 .25 3.36 13.18 13.18 0 0 1-.52 3 5.85 5.85 0 0 1-1.76 2.57c-1.17.89-4.56 1-5.23 1-2.11 0-3.95.15-4.34.21s-.7.14-1.09.25l-.72.22a18.59 18.59 0 0 1-2.36.63 20.39 20.39 0 0 1-2.51.28 5.23 5.23 0 0 1-2.85-.71c-1.14-.75-2.11-3.61-2.38-4.47a13.66 13.66 0 0 1-.7-5.56 27.09 27.09 0 0 1 1.39-4.19 16 16 0 0 1 3-4.42 26.06 26.06 0 0 1 6.74-3.83c2.59-1.05 5.39-2.08 6.36-2.34a8.22 8.22 0 0 0 2.32-1.08 7.85 7.85 0 0 0 1.63-1.94 17.83 17.83 0 0 0 2-5.68 24.32 24.32 0 0 1 .92-3.48 27.46 27.46 0 0 1 1.56-3.38 8.29 8.29 0 0 0 .69-1.75 4.16 4.16 0 0 0 .2-.58 4.32 4.32 0 0 0-.33-1.82 5 5 0 0 0-1.25-1.46 7.56 7.56 0 0 0-2.21-.89 20.1 20.1 0 0 0-3.06-.34 67 67 0 0 0-6.78.6 35.4 35.4 0 0 1-7.59.27 21.61 21.61 0 0 1-4-1.31 4.21 4.21 0 0 0-1.18-.33 2.66 2.66 0 0 0 0 .82 13.94 13.94 0 0 1-.13 3.93 10.42 10.42 0 0 1-1.49 3.38 25 25 0 0 1-2.15 2.53 25.64 25.64 0 0 1-2.55 2.17c-.66.47-2.26 1.85-3.5 3a36.92 36.92 0 0 1-4 3.23 21.17 21.17 0 0 1-3.27 1.63 19 19 0 0 0-2.76 1.37 18.12 18.12 0 0 0-2.37 1.86c-.61.59-2.18 2.42-3.41 4a16.76 16.76 0 0 0-2.52 4.22 10.76 10.76 0 0 0-.16 3.23c.15 1.14.3 2.92.34 4s0 2.74 0 3.72a23.56 23.56 0 0 0 0 3.15 24.16 24.16 0 0 0 .51 3.04c.23.88.68 2.3 1 3.16s.87 2.2 1.25 3a19.12 19.12 0 0 0 1.56 2.63 19.32 19.32 0 0 0 2.05 2.34 13.74 13.74 0 0 0 2.48 1.7A28.1 28.1 0 0 0 18 181c1 .27 2 .54 3 .79 2.9.7 7 1.53 9 1.84a46.65 46.65 0 0 1 6.09 1.31 31.46 31.46 0 0 1 4.25 1.88 8.85 8.85 0 0 0 3.3.94 8.69 8.69 0 0 0 3.36-.86 17.87 17.87 0 0 1 4.5-1.57 17.08 17.08 0 0 1 4.7 0 10.2 10.2 0 0 0 3.36-.12 8.7 8.7 0 0 0 2.75-1.5 35.57 35.57 0 0 1 3.28-2.49c.92-.6 4-2.23 6.78-3.64a33.71 33.71 0 0 0 5.86-3.58 38.88 38.88 0 0 0 3.54-6.3 66.83 66.83 0 0 0 2.91-6.85 16.46 16.46 0 0 0 .41-2.54v-.41a4.08 4.08 0 0 0-.58-1.92 7.49 7.49 0 0 0-2.13-1.69zM31.15 94a10.77 10.77 0 0 0-.54 3 8 8 0 0 0 .64 2.64 8.42 8.42 0 0 0 1.59 2.13 8.68 8.68 0 0 0 2.34 1.32 10.13 10.13 0 0 0 3 .47h.65a16.45 16.45 0 0 0 2.78-.5c1.16-.33 3-.77 4.16-1s3-.42 4.15-.48a27.21 27.21 0 0 1 4.37.19 33.14 33.14 0 0 1 4.54 1 4.28 4.28 0 0 0 2.28.11 3.24 3.24 0 0 0 .83-1.73 24.45 24.45 0 0 0 .23-3.81 54.43 54.43 0 0 0-1.52-7.3 51.45 51.45 0 0 1-1.56-7.75v-.08a19.41 19.41 0 0 1 .48-4.13 2.88 2.88 0 0 0 0-1.53 3.52 3.52 0 0 0-1.57-.3c-1.07 0-4.57.33-7.82.69a71.36 71.36 0 0 1-8.2.53c-1.14-.08-4-.5-6.47-1a14.27 14.27 0 0 0-4-.25 20.67 20.67 0 0 0 .05 5.42 59.76 59.76 0 0 1 .5 8.18 20.47 20.47 0 0 1-.91 4.18z"/><path d="M69 125.41a9 9 0 0 0-2.76-1.13 21.59 21.59 0 0 0-3.34-.38h-.58l-1 .06a9.89 9.89 0 0 1-.83 2.09 25.54 25.54 0 0 0-1.49 3.18 22.54 22.54 0 0 0-.85 3.22 23.42 23.42 0 0 1-.82 3.17 23.69 23.69 0 0 1-1.35 3 9.29 9.29 0 0 1-2 2.4 9.63 9.63 0 0 1-2.86 1.38c-.9.24-3.68 1.26-6.18 2.28a25 25 0 0 0-6.26 3.51 14.48 14.48 0 0 0-2.68 3.92 25.78 25.78 0 0 0-1.3 3.91 12.57 12.57 0 0 0 .66 4.8 10 10 0 0 0 1.78 3.67 3.9 3.9 0 0 0 2 .47 19.34 19.34 0 0 0 2.29-.26 17.23 17.23 0 0 0 2.14-.57c.23-.08.53-.17.83-.25a4.16 4.16 0 0 1 .05-.92v-.13a26.58 26.58 0 0 1 1.23-3.83 14.48 14.48 0 0 1 2.69-3.94 25 25 0 0 1 6.26-3.51c2.5-1 5.27-2 6.18-2.28a9.63 9.63 0 0 0 2.86-1.38 9.29 9.29 0 0 0 2-2.4 23.69 23.69 0 0 0 1.35-3 23.42 23.42 0 0 0 .82-3.17 22.54 22.54 0 0 1 .85-3.22 25.54 25.54 0 0 1 1.47-3.1 9.13 9.13 0 0 0 1-3 5.75 5.75 0 0 0-.48-2.63 6.39 6.39 0 0 0-1.68-1.96zM92.79 159.9a17.48 17.48 0 0 0-3.7-1.34 9 9 0 0 0-1.51-.11h-1a18.1 18.1 0 0 1-.45 2.8 66.43 66.43 0 0 1-3 7.11 38.61 38.61 0 0 1-3.81 6.69 33.73 33.73 0 0 1-6.32 3.83c-2.77 1.38-5.75 3-6.63 3.55a33.7 33.7 0 0 0-3.12 2.36 10.11 10.11 0 0 1-3.35 1.82 11.5 11.5 0 0 1-4 .16 15.52 15.52 0 0 0-4.21 0 16.44 16.44 0 0 0-4.06 1.42 9.91 9.91 0 0 1-4 1 10.19 10.19 0 0 1-4-1.13 29.49 29.49 0 0 0-4-1.77 44.87 44.87 0 0 0-5.84-1.25c-2.11-.32-6.24-1.16-9.16-1.87-1-.25-2.08-.53-3-.8.28.46.57.91.81 1.24a20.9 20.9 0 0 0 2.24 2.48 15 15 0 0 0 2.82 1.93 49.78 49.78 0 0 0 6.88 2.07c2.93.71 7.05 1.55 9.16 1.87a44.87 44.87 0 0 1 5.84 1.25 29.49 29.49 0 0 1 4 1.77 10.19 10.19 0 0 0 4 1.13 9.91 9.91 0 0 0 4-1 16.44 16.44 0 0 1 4.06-1.42 15.52 15.52 0 0 1 4.21 0 11.5 11.5 0 0 0 4-.16 10.11 10.11 0 0 0 3.35-1.79 33.7 33.7 0 0 1 3.12-2.36c.88-.57 3.86-2.17 6.63-3.55A33.73 33.73 0 0 0 89 182a38.61 38.61 0 0 0 3.81-6.69 66.43 66.43 0 0 0 3-7.11 17.22 17.22 0 0 0 .48-3.29 5.52 5.52 0 0 0-.85-2.81 8.92 8.92 0 0 0-2.65-2.2zM70.39 82.58a4 4 0 0 0-2.75-.89c-.89 0-3.42.23-6.09.5l-1 .1a50.64 50.64 0 0 0 1.51 7.43 54.46 54.46 0 0 1 1.57 7.62 25.9 25.9 0 0 1-.24 4.1 4.31 4.31 0 0 1-1.58 2.81 5.26 5.26 0 0 1-3.46 0 31.71 31.71 0 0 0-4.29-1 25.29 25.29 0 0 0-4.06-.15c-1.09.06-2.88.27-4 .46s-2.89.61-4 .93a17.89 17.89 0 0 1-3.07.55c.06.32.14.66.23 1a7.64 7.64 0 0 0 .44 1.24 9.83 9.83 0 0 0 2 2.6 10 10 0 0 0 2.85 1.61 12.75 12.75 0 0 0 3.48.55 17 17 0 0 0 3.83-.59c1.1-.32 2.9-.74 4-.93s2.89-.4 4-.46a25.29 25.29 0 0 1 4.07.17 31.71 31.71 0 0 1 4.29 1 5.26 5.26 0 0 0 3.46 0 4.31 4.31 0 0 0 1.58-2.81 25.9 25.9 0 0 0 .24-4.1 54.46 54.46 0 0 0-1.57-7.62 48.92 48.92 0 0 1-1.51-7.51 18.06 18.06 0 0 1 .44-3.77 3.74 3.74 0 0 0-.37-2.84z"/></svg>