<svg xmlns="http://www.w3.org/2000/svg" width="126.55" height="200" viewBox="0 0 126.55 200"><title>_</title><path d="M52.22 31.93l.32.15a11.32 11.32 0 0 0 2 .73 23.69 23.69 0 0 0 2.35.32c.65 0 1.76.06 2.42 0h.43a15.82 15.82 0 0 1 2.55.21 17.15 17.15 0 0 1 2.95.89 4.92 4.92 0 0 0 1.68.35 2.21 2.21 0 0 0 .92-.42 1.06 1.06 0 0 0 .22-.36 3.13 3.13 0 0 0-.55-.8 12.32 12.32 0 0 1-1.9-2.69 19.42 19.42 0 0 1-1.25-3.46 33.52 33.52 0 0 0-1-3.25 30.55 30.55 0 0 0-1.38-3c-.31-.57-.84-1.43-1.3-2.14l-.42-.61c-.51-.71-1.43-1.86-2-2.5a11.36 11.36 0 0 0-2.32-1.82 15.69 15.69 0 0 0-3.14-1.2 12.91 12.91 0 0 0-3.45-.26 14.93 14.93 0 0 0-3.55.92 18.52 18.52 0 0 1-4.44 1.16 17 17 0 0 1-4.47-.24c-1.06-.22-2.72-.49-3.7-.58a31.65 31.65 0 0 0-3.4-.12 1.94 1.94 0 0 0-.79.2 5.13 5.13 0 0 0 .43 1.59 12.49 12.49 0 0 0 2.08 2.88 14.37 14.37 0 0 0 3.13 2.1c1.17.55 3 1.53 4.08 2.2l.65.43c1.43 1 4.1 2.94 6.48 4.78l1.33 1c2.82 2.07 4.62 3.32 5.04 3.54zM3 154.76a25.46 25.46 0 0 0 4.06.56c.24 0 .78 0 2.14-.16 2.44-.25 6.13-.76 9.64-1.32l4.82-.77c6-1 10.22-1.68 10.6-1.79a3.29 3.29 0 0 0-.21-.71 6.78 6.78 0 0 1-.58-2.82 5.28 5.28 0 0 1 1-2.61 9.86 9.86 0 0 0 .89-1.41 9.05 9.05 0 0 0 .53-1.51 4.92 4.92 0 0 1 2.11-2.66 17.17 17.17 0 0 1 3.91-1.56 28.91 28.91 0 0 1 4.84-.77 27.67 27.67 0 0 1 4.84.25c1.19.19 3.15.38 4.35.43s3.15 0 4.35-.08a21.57 21.57 0 0 1 4.82.27 21.73 21.73 0 0 1 4.59 1.55 31.62 31.62 0 0 1 3.3 1.88 4.1 4.1 0 0 1 1.77 2.2s.31.72 1 2.14l.59 1.13a33.53 33.53 0 0 1 2 4.7 25.14 25.14 0 0 1 .44 2.7.38.38 0 0 0 .17.23 9.72 9.72 0 0 0 2.91-.76c.77-.33 1.67-.64 2.29-.84a28.68 28.68 0 0 1 2.76-.77 25.74 25.74 0 0 1 5-.5 31.78 31.78 0 0 1 4.79.52 35.38 35.38 0 0 1 4.77 1.39 14 14 0 0 0 3.79.81 9.16 9.16 0 0 0 3.21-.62 7.67 7.67 0 0 0 2.21-1.48 3.43 3.43 0 0 0 .65-1.57 9 9 0 0 0-.31-2.38 15.31 15.31 0 0 0-1.25-2.77c-.55-.93-1.37-2.47-1.81-3.43s-1.09-2.56-1.43-3.57-1-3.51-1.38-5.57a23 23 0 0 0-1.48-4.84 13.51 13.51 0 0 0-2.14-2.67 16.43 16.43 0 0 1-2.72-3.41c-.75-1.34-2-6.31-2.61-9.32-.77-3.62-1.62-8.12-1.7-9.39-.07-1-.39-3.45-.73-5.45a91.26 91.26 0 0 0-2.9-10.44c-1.38-4.12-2.7-7.72-3.07-8.48s-1.18-2.31-1.69-3.16-1.35-2.48-1.78-3.46-1-2.6-1.34-3.62-.82-2.42-1.19-3.33-1.82-3.5-3.54-6.31a65.48 65.48 0 0 1-3.71-6.75v-.11a19.6 19.6 0 0 1-.92-3.75 2.87 2.87 0 0 0-.93-1.6 5.59 5.59 0 0 0-2.59-.46c-1.34.08-6.48-.25-11.71-.75-4.78-.45-8.71-.66-10.34-.66h-.74a16.8 16.8 0 0 0-3.78 1 35 35 0 0 0-3.5 1.73 23.62 23.62 0 0 0-2.75 1.93 6 6 0 0 0-1.42 2 8.78 8.78 0 0 0-.29 2.95 16 16 0 0 1-.27 4.3A14.42 14.42 0 0 1 33.68 63a22.41 22.41 0 0 0-1.59 3 21.88 21.88 0 0 0-1 3.26 14.52 14.52 0 0 1-1.5 3.91 17.18 17.18 0 0 1-2.8 3.36 10.38 10.38 0 0 0-2 2.6 9.1 9.1 0 0 0-.68 3 35.55 35.55 0 0 1-.34 4c-.17 1.08-1 4.37-1.84 7.35s-1.84 6.18-2.23 7.17-1.12 2.57-1.62 3.52-1.15 2.32-1.53 3.22-.93 2.4-1.23 3.33a28.39 28.39 0 0 1-1.51 3.64 30 30 0 0 1-2.13 3.4 8.35 8.35 0 0 0-1.21 2.76 10.67 10.67 0 0 0 .12 3.36 21.86 21.86 0 0 1 .46 4.42 17.25 17.25 0 0 1-.68 4.12 25.26 25.26 0 0 1-1.56 3.65 27.43 27.43 0 0 1-2.26 3.38c-.64.79-1.6 2.15-2.12 3a34.41 34.41 0 0 0-1.69 3.11c-.4.87-1 2.36-1.3 3.24s-.7 2.35-.91 3.2a2.53 2.53 0 0 0 .21 1.61A5.31 5.31 0 0 0 3 154.76zM38.53 23.81a13.29 13.29 0 0 0 1.66 2.05 15.72 15.72 0 0 0 3.53 2.38c.71.33 1.68.84 2.56 1.32l-1.35-1c-2.4-1.88-5.04-3.82-6.4-4.75z"/><path d="M54.64 35.48a78.25 78.25 0 0 0 6.61 4.73 12.81 12.81 0 0 0 2.73 1 24.86 24.86 0 0 0 2.53.34c.71.05 1.88.07 2.6 0a13.89 13.89 0 0 1 2.64.18 15.67 15.67 0 0 1 2.64.8 6.16 6.16 0 0 0 2.37.46 3.59 3.59 0 0 0 1.83-.82 2.23 2.23 0 0 0 .71-1.57 3.71 3.71 0 0 0-1-1.78 10.94 10.94 0 0 1-1.63-2.31 18 18 0 0 1-1.13-3.14A34.81 34.81 0 0 0 74.46 30 31.83 31.83 0 0 0 73 26.83c-.46-.83-1.27-2.14-1.81-2.9s-1.5-2-2.13-2.64a12.85 12.85 0 0 0-2.7-2.12 16.94 16.94 0 0 0-3.06-1.23l-.45-.12c-.27-.07-.59-.12-.93-.17.48.73 1 1.62 1.37 2.24a31.83 31.83 0 0 1 1.46 3.16 34.81 34.81 0 0 1 1.07 3.42A18 18 0 0 0 67 29.62a10.94 10.94 0 0 0 1.63 2.31 3.71 3.71 0 0 1 1 1.78 2.23 2.23 0 0 1-.71 1.57 3.59 3.59 0 0 1-1.83.82 6.16 6.16 0 0 1-2.37-.46 15.67 15.67 0 0 0-2.64-.8 13.89 13.89 0 0 0-2.64-.18h-2.6a24.86 24.86 0 0 1-2.53-.34A12.21 12.21 0 0 1 52 33.5l2.4 1.83zM34.61 152.74c-.49.14-5.33 1-10.76 1.82l-4.82.77c-3.68.58-7.35 1.08-9.72 1.33-.1.35-.2.7-.29 1s-.18.69-.24 1a3.89 3.89 0 0 0 .49 2.87 6.4 6.4 0 0 0 3 1.64 26.93 26.93 0 0 0 4.36.6 119.58 119.58 0 0 0 12.07-1.49l4.82-.77c5.43-.86 10.28-1.68 10.76-1.82a1.65 1.65 0 0 0 1.08-.95 3.42 3.42 0 0 0-.32-1.83 5.37 5.37 0 0 1-.45-2.1 3.79 3.79 0 0 1 .7-1.78 11.18 11.18 0 0 0 1.06-1.69 10.34 10.34 0 0 0 .64-1.83 3.51 3.51 0 0 1 1.46-1.73A16 16 0 0 1 52 146.4a27.19 27.19 0 0 1 4.54-.72 26.07 26.07 0 0 1 4.53.24c1.24.2 3.28.4 4.52.45s3.28 0 4.52-.08a19.93 19.93 0 0 1 3.14.07c.43 0 .84.09 1.18.16a23.09 23.09 0 0 1-1.12-2.52 3 3 0 0 0-1.14-1.2A31 31 0 0 0 69 141a20.38 20.38 0 0 0-4.22-1.42 20 20 0 0 0-4.42-.25c-1.24.09-3.28.13-4.52.08s-3.28-.25-4.52-.45a26.07 26.07 0 0 0-4.53-.24 27.19 27.19 0 0 0-4.54.72 16 16 0 0 0-3.52 1.38 3.51 3.51 0 0 0-1.46 1.73 10.34 10.34 0 0 1-.64 1.83 11.18 11.18 0 0 1-1.06 1.69 3.79 3.79 0 0 0-.7 1.78 5.37 5.37 0 0 0 .45 2.1 3.42 3.42 0 0 1 .32 1.83 1.65 1.65 0 0 1-1.03.96zM121.5 160.31a4.8 4.8 0 0 0 1-2.47 10.35 10.35 0 0 0-.37-2.88 16.71 16.71 0 0 0-1.4-3.11c-.53-.89-1.31-2.37-1.74-3.29s-1-2.46-1.37-3.42-.92-3.38-1.33-5.39a23.83 23.83 0 0 0-1.64-5.27 14.93 14.93 0 0 0-2.43-3 15 15 0 0 1-2.43-3 54.8 54.8 0 0 1-2.45-8.9c-.85-4-1.6-8.13-1.67-9.17s-.4-3.57-.74-5.6a93 93 0 0 0-3-10.67c-1.29-3.84-2.7-7.73-3.14-8.65S97.6 83 97.08 82.13s-1.29-2.37-1.7-3.3-1-2.48-1.28-3.45-.85-2.53-1.24-3.47-2-3.87-3.65-6.52a64.32 64.32 0 0 1-3.59-6.51 17.84 17.84 0 0 1-.87-3.51 4.24 4.24 0 0 0-1.47-2.67 6.8 6.8 0 0 0-3.52-.7c-.46 0-1.45 0-2.77-.08l-1.12-.06v.09a64.32 64.32 0 0 0 3.59 6.51c1.65 2.64 3.3 5.54 3.68 6.54s.95 2.5 1.24 3.47.87 2.52 1.28 3.45 1.17 2.41 1.7 3.3 1.31 2.36 1.75 3.28 1.85 4.81 3.14 8.65a93 93 0 0 1 3 10.67c.34 2 .67 4.55.74 5.6s.82 5.18 1.67 9.17a54.8 54.8 0 0 0 2.45 8.9 15 15 0 0 0 2.43 3 14.93 14.93 0 0 1 2.43 3 23.83 23.83 0 0 1 1.64 5.27c.4 2 1 4.43 1.33 5.39s.94 2.5 1.37 3.42 1.21 2.4 1.74 3.29a16.71 16.71 0 0 1 1.4 3.11 10.35 10.35 0 0 1 .37 2.88 4.8 4.8 0 0 1-1 2.47 9.11 9.11 0 0 1-2.74 1.87 10.88 10.88 0 0 1-3.84.74 15.36 15.36 0 0 1-4.29-.91 33.59 33.59 0 0 0-4.52-1.32 30.22 30.22 0 0 0-4.52-.49 25.05 25.05 0 0 0-4.61.46c-.7.15-1.66.42-2.61.73l.08.16.37.75a27.77 27.77 0 0 1 1.48 3.69 23.41 23.41 0 0 1 .38 2.5 1.8 1.8 0 0 0 1.43 1.55 9.53 9.53 0 0 0 3.72-.86 31.79 31.79 0 0 1 4.85-1.52 25.05 25.05 0 0 1 4.61-.46 30.22 30.22 0 0 1 4.52.49 33.59 33.59 0 0 1 4.52 1.32 15.36 15.36 0 0 0 4.29.91 10.88 10.88 0 0 0 3.84-.74 9.11 9.11 0 0 0 2.72-1.88z"/></svg>