<svg xmlns="http://www.w3.org/2000/svg" width="128.68" height="200" viewBox="0 0 128.68 200"><title>_</title><path d="M53.51 33.81a4.11 4.11 0 0 0 1.79-.24 11.29 11.29 0 0 1 3.19-.78 9.38 9.38 0 0 1 1.33 0 11.77 11.77 0 0 1 2 .31 2.58 2.58 0 0 0 1.55-.28 8.66 8.66 0 0 0 2-2.4 15.43 15.43 0 0 1 3.34-3.87 15.63 15.63 0 0 1 4.61-2.25A15.51 15.51 0 0 0 77 22.65a32 32 0 0 0 4.09-4.24c.38-.44.75-.89 1.1-1.34a28.12 28.12 0 0 0 3.13-4.65 2.87 2.87 0 0 0-.83-.73A6 6 0 0 0 82 11.1a10.27 10.27 0 0 0-3.17.88 28.32 28.32 0 0 1-4.3 1.58 24.48 24.48 0 0 1-4.35.63 23.11 23.11 0 0 1-4.51-.38A32 32 0 0 1 61 12.4a6.68 6.68 0 0 0-3.16-.4 4.76 4.76 0 0 0-2.12 1.58 16 16 0 0 0-1.72 3.2 13.44 13.44 0 0 0-.58 3.33 20.66 20.66 0 0 1-.51 4 17.46 17.46 0 0 1-1.43 3.59A16.85 16.85 0 0 1 49 30.92c-.16.16-.35.34-.57.52a8.24 8.24 0 0 1 3.06 1.4 6 6 0 0 0 2.02.97zM1.86 154.12c.25-.07.55-.16.86-.28a21 21 0 0 1 5.62-1.15h.26a16.45 16.45 0 0 1 5.05.88l.2.07c1.23.45 3.07 1 4.19 1.35s3.15.75 4.33 1a27 27 0 0 0 4.21.31 30.2 30.2 0 0 0 4.32-.47 7.08 7.08 0 0 0 2.48-1 .91.91 0 0 0 .08-.64 5.05 5.05 0 0 1 0-3.4 5.41 5.41 0 0 1 2.54-2.36 2.62 2.62 0 0 0 .92-.71 3.07 3.07 0 0 0-.23-.76 6.87 6.87 0 0 1-.82-3 4.93 4.93 0 0 1 4-4.79c1.37-.35 8.41 0 11.95.29l2.86.2c5.8.42 11 .62 12 .55 1.21-.08 3.19-.33 4.42-.56a15 15 0 0 1 4.28-.18 5 5 0 0 1 3.08 1.79 10.17 10.17 0 0 1 1.12 2.25 8.8 8.8 0 0 1 .37 2.42 16 16 0 0 0 .1 1.75c0 .11 0 .26.08.44.15.74.43 1.91.71 2.92a4.32 4.32 0 0 0 .85 1.7 14.38 14.38 0 0 0 2.73-.33c.94-.21 2.34-.43 3.57-.58l1.11-.11a106.87 106.87 0 0 1 12.44 1.28l4 .56a56.06 56.06 0 0 0 9.6.72A3.21 3.21 0 0 0 115 153c-.42-1.25-1-3.21-1.27-4.37s-.62-3-.75-4.08a22.77 22.77 0 0 0-.73-3.36 64.85 64.85 0 0 0-3.06-6.44 53 53 0 0 1-3.21-7 24.36 24.36 0 0 1-.67-4 9.33 9.33 0 0 0-.83-3 11.2 11.2 0 0 0-2.12-2.59 13.49 13.49 0 0 1-2.8-3.5 11.64 11.64 0 0 1-1.06-4.21A20.53 20.53 0 0 0 98 107a51.63 51.63 0 0 0-2.8-6.46 90.35 90.35 0 0 1-4.62-12.31 82.84 82.84 0 0 0-2.81-8.45 24.18 24.18 0 0 0-1.91-2.95 13.54 13.54 0 0 1-2-3.79 14.3 14.3 0 0 1-.44-4.31 10.21 10.21 0 0 0-.37-3.17 9.94 9.94 0 0 0-1.61-2.71A11.05 11.05 0 0 1 79.36 59a12.13 12.13 0 0 1-.15-4.51 10.1 10.1 0 0 0 .11-1.82 8.26 8.26 0 0 0-.15-1.49 9 9 0 0 0-1.34-2.78 5.24 5.24 0 0 0-2.17-1.5 8.43 8.43 0 0 0-3.33.09 17 17 0 0 1-5.18.31 18.87 18.87 0 0 1-5.11-1.57 12.2 12.2 0 0 0-4-1.06 11.84 11.84 0 0 0-4 .78 30 30 0 0 1-4.8 1.55 23.73 23.73 0 0 1-4.72.38 11.94 11.94 0 0 0-3.37.41 9.21 9.21 0 0 0-2.61 1.49 5.89 5.89 0 0 0-1.43 2.19 8.19 8.19 0 0 0 0 3.06 25.15 25.15 0 0 1 .4 4.36 20.05 20.05 0 0 1-.63 4.11 15 15 0 0 1-1.75 3.8 18.43 18.43 0 0 1-3 3.25 7.21 7.21 0 0 0-1.81 2.45 7.22 7.22 0 0 0-.16 3 10.26 10.26 0 0 1-.25 4.62 10.11 10.11 0 0 1-2.65 3.77 10.59 10.59 0 0 0-2.09 2.57 8.94 8.94 0 0 0-.75 3 18.69 18.69 0 0 1-.68 4.07A18.07 18.07 0 0 1 22 97.21a12 12 0 0 0-1.25 2.93 13.53 13.53 0 0 0-.25 3.35 10.74 10.74 0 0 1-.7 4.41 11.59 11.59 0 0 1-2.8 3.62 11 11 0 0 0-2.12 2.58 28.18 28.18 0 0 0-1.07 6.77c-.16 2.45-.71 6.61-1.56 8a13.68 13.68 0 0 1-3.2 3.35A7.69 7.69 0 0 0 7 134.63a6.53 6.53 0 0 0-.34 2.92 24.54 24.54 0 0 1 .19 4.29 20.22 20.22 0 0 1-.75 4 30.27 30.27 0 0 1-1.64 3.91A47.62 47.62 0 0 1 2 153.92z"/><path d="M54.13 40.33a8.45 8.45 0 0 1 3.32-.55A6.64 6.64 0 0 1 60.32 41 7.23 7.23 0 0 0 63 42.23a5.49 5.49 0 0 0 2.64-.34 9.83 9.83 0 0 1 2.7-.66 10.4 10.4 0 0 1 2.81.29 4 4 0 0 0 2.75-.46 10.05 10.05 0 0 0 2.51-2.92 13.91 13.91 0 0 1 3-3.43 14.16 14.16 0 0 1 4.09-2 16.84 16.84 0 0 0 4.15-1.87 39.4 39.4 0 0 0 5.52-5.89c2-2.56 3.63-5.13 3.53-5.72a3.48 3.48 0 0 0-1.67-1.9 7.32 7.32 0 0 0-3.25-.78 11.53 11.53 0 0 0-3.77 1 26.62 26.62 0 0 1-4 1.48h-.12c-.45.11-1 .22-1.55.31a32.56 32.56 0 0 1-4.39 4.52 16.84 16.84 0 0 1-4.15 1.87 14.16 14.16 0 0 0-4.09 2 13.91 13.91 0 0 0-3 3.43 10.05 10.05 0 0 1-2.51 2.92 4 4 0 0 1-2.75.46 10.18 10.18 0 0 0-1.7-.26c-.19.3-.43.64-.69 1a14.54 14.54 0 0 1-1.3 1.51 23.52 23.52 0 0 1-3.3 2.56 10.31 10.31 0 0 0-2 1.45 3.41 3.41 0 0 0 1.67-.47zM13 162.19a19.46 19.46 0 0 1 5.14-1.06 15 15 0 0 1 4.74.78c1.25.47 3.28 1.12 4.52 1.46s3.25.78 4.47 1a29.46 29.46 0 0 0 4.49.33 31.45 31.45 0 0 0 4.57-.5 7.91 7.91 0 0 0 3.23-1.35 2.3 2.3 0 0 0 .46-2.22 3.64 3.64 0 0 1 0-2.29 4 4 0 0 1 1.77-1.58 3.59 3.59 0 0 0 1.68-1.5 2.88 2.88 0 0 0-.3-2.06 5.48 5.48 0 0 1-.63-2.23 4.26 4.26 0 0 1 .68-2 4.31 4.31 0 0 1 2.16-1.33c.82-.21 6-.06 11.47.33l2.86.2c5.49.39 11 .64 12.26.56l1.16-.1 1-.11c0-.23-.08-.42-.1-.55a17.36 17.36 0 0 1-.11-2 7.44 7.44 0 0 0-.3-2 8.74 8.74 0 0 0-.93-1.87 3.56 3.56 0 0 0-2.16-1.1 13.68 13.68 0 0 0-3.77.18c-1.27.23-3.33.49-4.59.58s-6.77-.16-12.26-.56l-2.86-.2c-5.49-.39-10.65-.54-11.47-.33A4.31 4.31 0 0 0 38 142a4.26 4.26 0 0 0-.68 2 5.48 5.48 0 0 0 .63 2.23 2.88 2.88 0 0 1 .3 2.06 3.59 3.59 0 0 1-1.68 1.5 4 4 0 0 0-1.77 1.58 3.64 3.64 0 0 0 0 2.29 2.3 2.3 0 0 1-.46 2.22 7.91 7.91 0 0 1-3.23 1.35 31.45 31.45 0 0 1-4.57.5 29.46 29.46 0 0 1-4.49-.33c-1.22-.2-3.24-.65-4.47-1s-3.05-.92-4.31-1.38c-.15.33-.29.63-.43.91v.07a45.83 45.83 0 0 1-2.4 4c-.78 1.14-1.14 2.32-.79 2.62s1.84.11 3.35-.43zM125.89 162.51c.52-.49.62-1.87.21-3.08s-1-3.12-1.24-4.24-.59-2.88-.72-3.91a24.21 24.21 0 0 0-.79-3.63 64.7 64.7 0 0 0-3.16-6.68 52.58 52.58 0 0 1-3.09-6.71 22.57 22.57 0 0 1-.62-3.69 10.66 10.66 0 0 0-1-3.56 12.6 12.6 0 0 0-2.47-3 12 12 0 0 1-2.44-3 10.29 10.29 0 0 1-.9-3.59 22 22 0 0 0-.5-3.73 51.59 51.59 0 0 0-2.91-6.77 88.88 88.88 0 0 1-4.53-12.06 81 81 0 0 0-2.92-8.73 25.67 25.67 0 0 0-2.05-3.17 12 12 0 0 1-1.71-3.29 12.77 12.77 0 0 1-.38-3.77 11.52 11.52 0 0 0-.45-3.75 11.27 11.27 0 0 0-1.91-3.23 9.65 9.65 0 0 1-1.8-3.27 10.77 10.77 0 0 1-.12-3.87 11.86 11.86 0 0 0-.05-3.9 10.37 10.37 0 0 0-1.61-3.36 6.67 6.67 0 0 0-3-2 9.71 9.71 0 0 0-4 .05h-.12c-.26.06-.56.12-.88.17a11.56 11.56 0 0 1-.13 2.11 10.77 10.77 0 0 0 .12 3.87 9.65 9.65 0 0 0 1.8 3.27 11.27 11.27 0 0 1 1.91 3.23 11.52 11.52 0 0 1 .57 3.66 12.77 12.77 0 0 0 .38 3.77 12 12 0 0 0 1.71 3.29 25.67 25.67 0 0 1 2.05 3.17A81 81 0 0 1 92 87.85a88.88 88.88 0 0 0 4.53 12.06 51.59 51.59 0 0 1 2.91 6.77 22 22 0 0 1 .5 3.73 10.29 10.29 0 0 0 .9 3.59 12 12 0 0 0 2.44 3 12.6 12.6 0 0 1 2.47 3 10.66 10.66 0 0 1 1 3.56 22.57 22.57 0 0 0 .62 3.69 52.58 52.58 0 0 0 3.09 6.71 64.7 64.7 0 0 1 3.16 6.68 24.21 24.21 0 0 1 .79 3.63c.13 1 .45 2.79.72 3.91s.82 3 1.24 4.24.32 2.6-.21 3.08-5.41.26-10.86-.51l-4-.56a109.9 109.9 0 0 0-12.14-1.23l-1 .1c0 .32 0 .68.06 1s0 .35 0 .49c.07.53.44 2.13.83 3.56s1.25 2.68 1.92 2.77a12.81 12.81 0 0 0 3.43-.33 36.51 36.51 0 0 1 4.46-.65 109.9 109.9 0 0 1 12.14 1.3l4 .56c5.48.77 10.37 1 10.89.51z"/></svg>