<svg xmlns="http://www.w3.org/2000/svg" width="200" height="200" viewBox="0 0 200 200"><title>_</title><path d="M107.75 13.27a55.76 55.76 0 0 0-6.9-4.27 13 13 0 0 0-2.8-.49 16.8 16.8 0 0 0-2.94.2 43.64 43.64 0 0 0-5.63 2 32.47 32.47 0 0 0-5.16 2.55 16.19 16.19 0 0 0-2 2.12c-.59.76-1.61 1.95-2.27 2.65s-1.79 1.81-2.53 2.46a55.23 55.23 0 0 1-4.55 3.34 54.51 54.51 0 0 0-4.52 3.35 28.62 28.62 0 0 0-2.69 2.85 3.91 3.91 0 0 0-.94 1.97 2.47 2.47 0 0 0 1.29.86 16.8 16.8 0 0 0 3.11.6 35.86 35.86 0 0 0 5.59-.63c.82-.15 1.67-.27 2.47-.38a26 26 0 0 1 3.52-.28 24.64 24.64 0 0 1 3.26.5 4.85 4.85 0 0 0 2.07 0 2.15 2.15 0 0 0 1-.94 9.58 9.58 0 0 1 1.37-2.16 7.41 7.41 0 0 1 1.92-1.46 3 3 0 0 0 1-.85 3.69 3.69 0 0 0 .35-1.4 10 10 0 0 1 .35-2.3 7.44 7.44 0 0 1 1-2 2.43 2.43 0 0 1 1.75-1.06H95a2.42 2.42 0 0 1 1.58 1.54 6.92 6.92 0 0 0 .78 1.33 23 23 0 0 0 2.64 2.31c1.15.85 2.58 2 3 2.35a12.3 12.3 0 0 1 1 1.1l.11.14a4.07 4.07 0 0 0 1 .79c.22.13 1.23.58 2.93 1.25l1.78.69a31.8 31.8 0 0 0 5.22 1.6 9.51 9.51 0 0 0 2.52-.21c.84-.21 3.19-.58 5.37-.83a9.56 9.56 0 0 0 3.28-.88 13.62 13.62 0 0 0-2.11-3.61 69 69 0 0 0-6.67-7.2c-.86-.79-2.09-1.84-3.56-3a100.72 100.72 0 0 0-6.12-4.6zM85.37 43.33a41.08 41.08 0 0 1-4.72.33h-.06a9.06 9.06 0 0 0-3.4.7 5.67 5.67 0 0 0-2 2 30.67 30.67 0 0 0-1.37 3.27c-.31.92-1.52 5.81-2.64 10.68a98.92 98.92 0 0 1-3 10.91A69.5 69.5 0 0 1 64 77.73a54 54 0 0 0-4 6.16 16.27 16.27 0 0 0-1 3.31 19.66 19.66 0 0 1-2.62 7.29c-.51.85-1.28 2.31-1.69 3.19s-1 2.4-1.31 3.32c-.31.92-1.31 5-2.2 8.89a107.57 107.57 0 0 0-2 10.89 21.46 21.46 0 0 1-1.23 5.8 13.67 13.67 0 0 1-2.53 3.37 22.34 22.34 0 0 0-2.42 2.82 18.41 18.41 0 0 0-1.67 3.07 22.77 22.77 0 0 0-1 3.36c-.18 1-.47 3.92-.62 6.48a16.25 16.25 0 0 0 .3 5.21 7.31 7.31 0 0 0 2 1.56 21.58 21.58 0 0 0 3.44 1.31 28.31 28.31 0 0 0 3 .59l1 .13a22.69 22.69 0 0 0 4.29-.09 24.61 24.61 0 0 0 4.26-1.08 36.14 36.14 0 0 1 4.7-1.31 30.86 30.86 0 0 1 4.47-.5 24.9 24.9 0 0 0 3.4-.31 6.82 6.82 0 0 0 1.87-.65 1.68 1.68 0 0 0 .55-.73 3.27 3.27 0 0 0-.19-1.35c-.24-.63-.56-1.65-.72-2.27s-.36-1.61-.44-2.21a7.67 7.67 0 0 1 .17-2.55 12.42 12.42 0 0 1 1.12-2.63 5.93 5.93 0 0 1 2.84-2.24c1.29-.45 7.84-.54 11.93-.49h3.18c5.55.07 12.13.41 14.65.76a38.3 38.3 0 0 1 6.21 1.27 6.73 6.73 0 0 1 2.48 1.73 16.5 16.5 0 0 1 1.16 1.82 14.83 14.83 0 0 1 .83 1.92c.09.27.2.64.29 1s.17.71.22 1a17.7 17.7 0 0 1 .22 2.07 12.46 12.46 0 0 0 .17 1.59 5.93 5.93 0 0 0 .3 1 2.18 2.18 0 0 0 .78.31 63 63 0 0 0 6.9-.13h.61a52.25 52.25 0 0 1 9.09.11 25 25 0 0 1 4.75 1.62 24.66 24.66 0 0 0 4.51 1.53 25 25 0 0 0 4.92.47 5.39 5.39 0 0 0 2.82-.74 16.44 16.44 0 0 0-1.44-6 123.62 123.62 0 0 0-5.85-12.25c-1.79-3.23-3.83-7.36-4.08-8.64a22.32 22.32 0 0 1-.34-4 14 14 0 0 0-.44-3.44 13.17 13.17 0 0 0-1.46-3.06c-.7-1-3.33-6.25-5.47-10.72l-.95-2a93.42 93.42 0 0 1-5.23-12.84 55.55 55.55 0 0 1-1-5.64c-.1-1.06-.18-2.83-.18-3.94a32.25 32.25 0 0 0-.26-3.67c-.14-1-.87-4.24-1.6-7.13s-1.63-6.08-2-7-1.81-3.91-3.19-6.56a67.25 67.25 0 0 1-3.26-7c-.07-.2-.14-.43-.21-.68-.33-1.11-.69-2.5-.89-3.47a4.43 4.43 0 0 0-1.51-2.43 6.9 6.9 0 0 0-3.46-.51 42.12 42.12 0 0 1-5.17.19 36.52 36.52 0 0 1-4.91-.61 21.9 21.9 0 0 0-3-.35h-1.77a23.81 23.81 0 0 0-4 .67 43.07 43.07 0 0 1-4.75 1.01z" fill="#231f20"/><path d="M94 40.66h1.9l.27-.07a2.86 2.86 0 0 0 1.09-.83 2.76 2.76 0 0 0 .44-.66 8.58 8.58 0 0 1 1.2-1.9 6.47 6.47 0 0 1 1.64-1.2 3.92 3.92 0 0 0 1.39-1.24 4.55 4.55 0 0 0 .5-1.89 9 9 0 0 1 .31-2v-.07a6.61 6.61 0 0 1 .45-1 11.22 11.22 0 0 0-.89-1c-.32-.31-1.61-1.33-2.88-2.26a22.59 22.59 0 0 1-2.86-2.4 7.84 7.84 0 0 1-.93-1.58 1.58 1.58 0 0 0-.81-.93 1.43 1.43 0 0 0-1 .66 6.53 6.53 0 0 0-.82 1.58 9 9 0 0 0-.31 2 4.55 4.55 0 0 1-.5 1.89A3.92 3.92 0 0 1 90.83 29a6.47 6.47 0 0 0-1.62 1.24 8.58 8.58 0 0 0-1.2 1.9 3.09 3.09 0 0 1-1.53 1.48 5.71 5.71 0 0 1-2.64 0 23.31 23.31 0 0 0-3.1-.48 22.68 22.68 0 0 0-3.32.27c-.35.31-.78.74-1.21 1.19-.58.6-1.16 1.25-1.57 1.76a4.33 4.33 0 0 0-1.09 2.73 2.94 2.94 0 0 0 2 1.63 17.8 17.8 0 0 0 3.34.65 36.09 36.09 0 0 0 5.83-.64 36.09 36.09 0 0 1 5.75-.64h.29a23.78 23.78 0 0 1 2.8.45zM114.49 17.07c1.41 1.13 2.69 2.21 3.62 3.07a70.42 70.42 0 0 1 6.79 7.33c1.48 1.94 2.53 4 2.33 4.59s-2.08 1.26-4.18 1.5-4.46.61-5.24.81a10.5 10.5 0 0 1-2.85.24 31.82 31.82 0 0 1-5.49-1.61l-1.84-.72c.47.38 1 .8 1.53 1.19l1.22.92c.79.6 1.44 1.13 1.66 1.34a10.88 10.88 0 0 1 1 1.12 4.94 4.94 0 0 0 1.25 1.05c.47.27 2.67 1.19 4.91 2a31.82 31.82 0 0 0 5.49 1.66 10.5 10.5 0 0 0 2.85-.24c.78-.2 3.14-.56 5.24-.81s4-.92 4.18-1.5-.85-2.64-2.33-4.59a70.42 70.42 0 0 0-6.79-7.33c-1.63-1.51-4.39-3.74-7-5.66-1-.74-2-1.43-2.82-2-1.21-.87-2.43-1.67-3.53-2.36zM115.54 144.88c-.09-.34-.18-.68-.27-.94a13.85 13.85 0 0 0-.76-1.77 15.55 15.55 0 0 0-1.08-1.69 5.75 5.75 0 0 0-2.06-1.41 37.39 37.39 0 0 0-6-1.21c-2.49-.34-9-.68-14.53-.75h-3.18c-5.5-.07-10.71.12-11.59.43a5 5 0 0 0-2.31 1.8 11.42 11.42 0 0 0-1 2.38 6.76 6.76 0 0 0-.15 2.16c.08.57.27 1.51.42 2.1s.46 1.56.69 2.17a4.09 4.09 0 0 1 .23 1.92 2.58 2.58 0 0 1-1 1.34 7.53 7.53 0 0 1-2.23.81 26 26 0 0 1-3.57.33 29.7 29.7 0 0 0-4.3.48 35.16 35.16 0 0 0-4.4 1.26 25.39 25.39 0 0 1-4.45 1.1 23.89 23.89 0 0 1-4.52.09l-1.07-.13c0 .36 0 .7.06 1a5.18 5.18 0 0 0 .43 2 8 8 0 0 0 2.42 1.9 22.53 22.53 0 0 0 3.68 1.43 30.48 30.48 0 0 0 4.24.75 23.89 23.89 0 0 0 4.52-.09 25.39 25.39 0 0 0 4.47-1.13 35.16 35.16 0 0 1 4.4-1.26 29.7 29.7 0 0 1 4.3-.48 26 26 0 0 0 3.57-.33 7.53 7.53 0 0 0 2.23-.81 2.58 2.58 0 0 0 1-1.34 4.09 4.09 0 0 0-.23-1.92c-.23-.61-.53-1.58-.69-2.17s-.34-1.53-.42-2.1a6.76 6.76 0 0 1 .15-2.16 11.42 11.42 0 0 1 1-2.38 5 5 0 0 1 2.31-1.8c.87-.31 6.09-.5 11.59-.43h3.18c5.08.07 11 .36 13.89.67l.64.08zM116 49.19a67.68 67.68 0 0 0 3.2 6.85c1.42 2.72 2.87 5.72 3.24 6.66s1.27 4.14 2 7.1 1.47 6.2 1.62 7.2a33.1 33.1 0 0 1 .27 3.81c0 1.07.08 2.81.18 3.85a54.69 54.69 0 0 0 1 5.5 92.89 92.89 0 0 0 5.16 12.63l.95 2c2.37 5 4.8 9.73 5.39 10.59a14.14 14.14 0 0 1 1.59 3.34 14.94 14.94 0 0 1 .48 3.74 21.51 21.51 0 0 0 .32 3.8 52.68 52.68 0 0 0 4 8.35 125.11 125.11 0 0 1 5.9 12.37c1.26 3.22 1.85 6.35 1.33 7a5.69 5.69 0 0 1-3.63 1.15 28.33 28.33 0 0 1-5.14-.49 25.68 25.68 0 0 1-4.73-1.6 23.82 23.82 0 0 0-4.52-1.54 51.61 51.61 0 0 0-8.82-.09h-.62c.09.33.17.68.24 1 0 .11.05.22.07.32a16.79 16.79 0 0 1 .21 1.93 13.49 13.49 0 0 0 .19 1.75 6.49 6.49 0 0 0 .42 1.31 2.32 2.32 0 0 0 1.46.77 67.65 67.65 0 0 0 7.75-.15 51.61 51.61 0 0 1 8.82.09 23.82 23.82 0 0 1 4.52 1.54 25.68 25.68 0 0 0 4.73 1.6 28.33 28.33 0 0 0 5.14.49 5.69 5.69 0 0 0 3.63-1.15c.53-.62-.07-3.76-1.33-7a125.11 125.11 0 0 0-5.9-12.37 52.68 52.68 0 0 1-4-8.35 21.51 21.51 0 0 1-.32-3.8 14.94 14.94 0 0 0-.48-3.74 14.14 14.14 0 0 0-1.59-3.34c-.59-.86-3-5.63-5.39-10.59l-.95-2a92.89 92.89 0 0 1-5.16-12.63 54.69 54.69 0 0 1-1-5.5c-.1-1-.18-2.77-.18-3.85a33.1 33.1 0 0 0-.27-3.81c-.15-1-.87-4.28-1.62-7.24s-1.65-6.15-2-7.1-1.84-3.89-3.26-6.59a67.68 67.68 0 0 1-3.2-6.85c-.34-1-.82-2.87-1.07-4.05a5.37 5.37 0 0 0-2-3.07 7.71 7.71 0 0 0-4.09-.65c-.5.05-1.11.1-1.75.13h-1c.07.26.14.49.21.68z" fill="#231f20"/></svg>