<svg xmlns="http://www.w3.org/2000/svg" width="122.81" height="200" viewBox="0 0 122.81 200"><title>_</title><path d="M64.19 30.69l.11.14a3.71 3.71 0 0 0 .82.66c.16.09 1.08.51 2.86 1.22l1.82.71A31.89 31.89 0 0 0 74.88 35a9.12 9.12 0 0 0 2.36-.2c.85-.22 3.24-.59 5.43-.84a10.79 10.79 0 0 0 2.71-.64 15.42 15.42 0 0 0-1.88-3.06 68.33 68.33 0 0 0-6.62-7.14c-.85-.79-2.07-1.82-3.53-3-2.12-1.7-4.34-3.36-6.08-4.55a56.48 56.48 0 0 0-6.77-4.17 12.56 12.56 0 0 0-2.67-.47 16.15 16.15 0 0 0-2.83.2 43.86 43.86 0 0 0-5.53 2 32.47 32.47 0 0 0-5 2.48 15.82 15.82 0 0 0-2 2c-.59.76-1.62 2-2.3 2.69s-1.82 1.83-2.56 2.5A55.65 55.65 0 0 1 33 26.16a54 54 0 0 0-4.47 3.3 28 28 0 0 0-2.63 2.79 4.23 4.23 0 0 0-.77 1.47 2.61 2.61 0 0 0 .92.52 16.51 16.51 0 0 0 3 .58 36.93 36.93 0 0 0 5.47-.62c.83-.15 1.68-.28 2.49-.38a26.34 26.34 0 0 1 3.62-.28 25.19 25.19 0 0 1 3.34.52 4.5 4.5 0 0 0 1.79.05 1.71 1.71 0 0 0 .66-.67 10 10 0 0 1 1.45-2.29A7.86 7.86 0 0 1 50 29.56a2.54 2.54 0 0 0 .77-.67 3.29 3.29 0 0 0 .23-1.15 10.49 10.49 0 0 1 .38-2.44 7.91 7.91 0 0 1 1.06-2.1 2.91 2.91 0 0 1 2.15-1.26h.27a2.86 2.86 0 0 1 2 1.84 6.43 6.43 0 0 0 .69 1.22 23.44 23.44 0 0 0 2.58 2.13c1.15.85 2.6 2 3 2.39a13 13 0 0 1 1.06 1.17zM9.44 155.86a22.15 22.15 0 0 0 4.17-.08 24 24 0 0 0 4.15-1 36.59 36.59 0 0 1 4.62-1.32 31.54 31.54 0 0 1 4.62-.56 24.13 24.13 0 0 0 3.32-.3A6.45 6.45 0 0 0 32 152a1.32 1.32 0 0 0 .34-.44 3.11 3.11 0 0 0-.17-1c-.24-.65-.57-1.69-.73-2.32s-.37-1.65-.45-2.27a8.11 8.11 0 0 1 .18-2.74 12.79 12.79 0 0 1 1.17-2.76 6.39 6.39 0 0 1 3.07-2.47c1.45-.51 8.55-.56 12.1-.52h3.18c5.57.07 12.17.41 14.71.76a38.2 38.2 0 0 1 6.33 1.3 7.16 7.16 0 0 1 2.69 1.9 17.1 17.1 0 0 1 1.2 1.88 15.37 15.37 0 0 1 .86 2c.09.28.2.66.3 1s.17.73.23 1a18.21 18.21 0 0 1 .23 2.14 12.08 12.08 0 0 0 .16 1.51 5.61 5.61 0 0 0 .21.74 1.93 1.93 0 0 0 .47.16 66.32 66.32 0 0 0 6.78-.14h.61a51.64 51.64 0 0 1 9.22.12 25.5 25.5 0 0 1 4.87 1.65A24.07 24.07 0 0 0 104 155a24.89 24.89 0 0 0 4.8.46 5.6 5.6 0 0 0 2.36-.53 18.93 18.93 0 0 0-1.42-5.55 122.85 122.85 0 0 0-5.82-12.19c-1.5-2.71-3.84-7.28-4.13-8.79a22.93 22.93 0 0 1-.35-4.12A13.56 13.56 0 0 0 99 121a12.77 12.77 0 0 0-1.39-2.92c-.74-1.08-3.39-6.36-5.51-10.79l-.95-2a93.74 93.74 0 0 1-5.26-12.94 56.1 56.1 0 0 1-1.05-5.7c-.1-1.08-.18-2.86-.19-4a31.63 31.63 0 0 0-.25-3.6c-.14-1-.86-4.2-1.59-7.08s-1.62-6-2-6.93-1.79-3.87-3.16-6.5a67.69 67.69 0 0 1-3.29-7.08c-.07-.21-.14-.44-.21-.69-.33-1.12-.69-2.54-.9-3.51A4 4 0 0 0 72 45.22a6.55 6.55 0 0 0-3.14-.44 42.54 42.54 0 0 1-5.24.19 37 37 0 0 1-5-.6 21.47 21.47 0 0 0-3-.34h-1.71a23.3 23.3 0 0 0-3.87.65 43.64 43.64 0 0 1-4.82 1 42 42 0 0 1-4.79.33 8.73 8.73 0 0 0-3.23.65 5.24 5.24 0 0 0-1.77 1.83 30.14 30.14 0 0 0-1.34 3.2c-.3.91-1.51 5.78-2.63 10.63a97.45 97.45 0 0 1-3 11 69.78 69.78 0 0 1-4.32 6.55A54.63 54.63 0 0 0 20.22 86a15.89 15.89 0 0 0-.9 3.17 24.58 24.58 0 0 1-1 3.87 24.47 24.47 0 0 1-1.71 3.6c-.5.83-1.26 2.27-1.66 3.14s-1 2.36-1.29 3.27-1.3 5-2.19 8.84a107.21 107.21 0 0 0-1.94 10.82 21.67 21.67 0 0 1-1.28 6 14.24 14.24 0 0 1-2.64 3.52 21.75 21.75 0 0 0-2.4 2.75 17.8 17.8 0 0 0-1.61 3 22.12 22.12 0 0 0-1 3.27c-.18.93-.46 3.87-.61 6.41a16.83 16.83 0 0 0 .25 5 7.46 7.46 0 0 0 1.82 1.35 20.94 20.94 0 0 0 3.34 1.28 27.71 27.71 0 0 0 3 .58z"/><path d="M56.38 26a7.85 7.85 0 0 1-.93-1.58 1.58 1.58 0 0 0-.81-.93 1.43 1.43 0 0 0-1 .66 6.53 6.53 0 0 0-.83 1.65 9 9 0 0 0-.31 2 4.55 4.55 0 0 1-.5 1.89 3.92 3.92 0 0 1-1.39 1.24A6.46 6.46 0 0 0 49 32.14a8.58 8.58 0 0 0-1.2 1.9 3.09 3.09 0 0 1-1.53 1.48 5.71 5.71 0 0 1-2.64 0 23.31 23.31 0 0 0-3.1-.48 22.7 22.7 0 0 0-3.32.27c-.35.31-.78.74-1.21 1.19-.58.6-1.16 1.25-1.57 1.76A4.34 4.34 0 0 0 33.35 41a2.94 2.94 0 0 0 2 1.63 17.78 17.78 0 0 0 3.34.65 36.06 36.06 0 0 0 5.83-.64 36.12 36.12 0 0 1 5.73-.64h.29a23.78 23.78 0 0 1 2.8.45l.46.08h1.9l.3-.07a2.86 2.86 0 0 0 1.09-.83 2.76 2.76 0 0 0 .43-.63 8.58 8.58 0 0 1 1.2-1.9 6.46 6.46 0 0 1 1.62-1.24 3.92 3.92 0 0 0 1.39-1.24 4.55 4.55 0 0 0 .5-1.89 9 9 0 0 1 .31-2v-.07a6.61 6.61 0 0 1 .45-1 11.23 11.23 0 0 0-.89-1c-.32-.31-1.61-1.33-2.88-2.26a22.6 22.6 0 0 1-2.84-2.4zM70.17 36.22c.79.6 1.44 1.13 1.66 1.34a10.91 10.91 0 0 1 1 1.12 5 5 0 0 0 1.25 1.05c.47.27 2.67 1.19 4.91 2a31.84 31.84 0 0 0 5.49 1.66 10.5 10.5 0 0 0 2.85-.24c.78-.2 3.14-.56 5.24-.81s4-.92 4.18-1.5-.85-2.64-2.33-4.59A70.43 70.43 0 0 0 87.61 29c-1.63-1.51-4.39-3.73-7-5.66-1-.74-2-1.43-2.82-2-1.22-.83-2.44-1.63-3.54-2.32C75.69 20.07 77 21.16 77.9 22a70.43 70.43 0 0 1 6.79 7.33c1.48 1.94 2.53 4 2.33 4.59s-2.08 1.26-4.18 1.5-4.46.61-5.24.81a10.5 10.5 0 0 1-2.85.24 31.84 31.84 0 0 1-5.49-1.66l-1.84-.72c.47.38 1 .8 1.53 1.19zM32.79 153.27a7.53 7.53 0 0 1-2.23.81 26 26 0 0 1-3.57.33 29.64 29.64 0 0 0-4.3.48 35.08 35.08 0 0 0-4.4 1.26 25.39 25.39 0 0 1-4.47 1.13 23.89 23.89 0 0 1-4.52.09l-1.07-.13c0 .36 0 .7.06 1a5.19 5.19 0 0 0 .43 2 8 8 0 0 0 2.42 1.9 22.53 22.53 0 0 0 3.63 1.39 30.45 30.45 0 0 0 4.24.75 23.89 23.89 0 0 0 4.52-.09 25.39 25.39 0 0 0 4.47-1.11 35.08 35.08 0 0 1 4.4-1.26 29.64 29.64 0 0 1 4.3-.48 26 26 0 0 0 3.57-.33 7.53 7.53 0 0 0 2.23-.81 2.58 2.58 0 0 0 1-1.34 4.09 4.09 0 0 0-.23-1.92c-.23-.61-.53-1.58-.69-2.17s-.34-1.53-.42-2.1a6.76 6.76 0 0 1 .15-2.16 11.41 11.41 0 0 1 1-2.38 5 5 0 0 1 2.31-1.8c.87-.31 6.09-.5 11.59-.43h3.18c5.08.06 11 .36 13.89.67l.64.08.43.06c-.09-.34-.18-.68-.27-.94a13.88 13.88 0 0 0-.76-1.77 15.57 15.57 0 0 0-1.08-1.69 5.75 5.75 0 0 0-2.07-1.31 37.39 37.39 0 0 0-6-1.21c-2.49-.34-9-.68-14.53-.75h-3.18c-5.5-.07-10.71.12-11.59.43a5 5 0 0 0-2.31 1.8 11.41 11.41 0 0 0-1 2.38 6.76 6.76 0 0 0-.15 2.16c.08.57.27 1.51.42 2.1s.46 1.56.69 2.17a4.09 4.09 0 0 1 .23 1.92 2.58 2.58 0 0 1-.96 1.27zM114.89 143.45a52.67 52.67 0 0 1-4-8.35 21.51 21.51 0 0 1-.32-3.8 14.94 14.94 0 0 0-.48-3.74 14.14 14.14 0 0 0-1.59-3.34c-.59-.86-3-5.63-5.39-10.59l-.95-2A92.87 92.87 0 0 1 97 99a54.65 54.65 0 0 1-1-5.5c-.1-1-.18-2.77-.18-3.85a33.13 33.13 0 0 0-.27-3.81c-.15-1-.87-4.28-1.62-7.24s-1.65-6.15-2-7.1-1.82-3.94-3.24-6.66A67.72 67.72 0 0 1 85.5 58c-.34-1-.82-2.87-1.07-4.05a5.37 5.37 0 0 0-2-3.07 7.7 7.7 0 0 0-4.09-.65c-.5.06-1.11.1-1.75.13h-1c.07.24.14.46.2.65A67.72 67.72 0 0 0 79 57.92c1.42 2.72 2.87 5.72 3.24 6.66s1.27 4.14 2 7.1 1.48 6.21 1.62 7.24a33.13 33.13 0 0 1 .27 3.81c0 1.07.08 2.81.18 3.85a54.65 54.65 0 0 0 1 5.5 92.87 92.87 0 0 0 5.16 12.63l.95 2c2.37 5 4.8 9.73 5.39 10.59a14.14 14.14 0 0 1 1.59 3.34 14.94 14.94 0 0 1 .48 3.74 21.51 21.51 0 0 0 .32 3.8 52.67 52.67 0 0 0 4 8.35 125.08 125.08 0 0 1 5.9 12.37c1.26 3.22 1.85 6.35 1.33 7a5.68 5.68 0 0 1-3.63 1.15 28.31 28.31 0 0 1-5.14-.5 25.65 25.65 0 0 1-4.73-1.6 23.82 23.82 0 0 0-4.52-1.54 51.58 51.58 0 0 0-8.82-.09h-.62c.09.33.17.68.24 1 0 .11.05.22.07.32a16.78 16.78 0 0 1 .21 1.93 13.45 13.45 0 0 0 .19 1.75 6.5 6.5 0 0 0 .42 1.31 2.32 2.32 0 0 0 1.46.77 67.69 67.69 0 0 0 7.75-.15 51.58 51.58 0 0 1 8.82.09 23.82 23.82 0 0 1 4.52 1.54 25.65 25.65 0 0 0 4.73 1.6 28.31 28.31 0 0 0 5.14.5 5.68 5.68 0 0 0 3.63-1.15c.53-.62-.07-3.76-1.33-7a125.08 125.08 0 0 0-5.93-12.38z"/></svg>