<svg xmlns="http://www.w3.org/2000/svg" width="123.06" height="200" viewBox="0 0 123.06 200"><title>_</title><path d="M6 155.75a20.48 20.48 0 0 0 4.12-.63c.32-.09.69-.18 1.08-.27a27.36 27.36 0 0 1 3.66-.55 74 74 0 0 1 9.48.74 37.9 37.9 0 0 0 7.86.41 3 3 0 0 0 1.35-1.09 7 7 0 0 0 .61-2 4.6 4.6 0 0 0-.24-1.63 10.75 10.75 0 0 1-.64-2.54 7.78 7.78 0 0 1 .21-2.47c.13-.45.44-1.9.68-3.17.32-1.68 1.42-3.57 3.09-3.73a11.29 11.29 0 0 1 4.45 1A16.68 16.68 0 0 0 46 141a13.73 13.73 0 0 0 4.05-.42c1.29-.38 6.62-1.35 11.86-2.17 1-.16 9.84-1.5 11.69-.84a5.5 5.5 0 0 1 3 2.83 12.79 12.79 0 0 1 .79 3.11 8.51 8.51 0 0 1-.3 2.94v.12a3.84 3.84 0 0 0-.1 1.19 2.94 2.94 0 0 0 .52 1 8.24 8.24 0 0 1 1.3 2 6.54 6.54 0 0 1 .42 2.11.85.85 0 0 0 .2.14 11.25 11.25 0 0 0 2.77.54c.95.07 2.57.32 3.46.46 1.11.18 2.31.38 3.41.6a52.65 52.65 0 0 0 6.5.89 24.75 24.75 0 0 0 4.21-.36 45.3 45.3 0 0 1 4.85-.59c1.39-.08 3.68-.07 5.1 0a5.82 5.82 0 0 0 1.57-.11 3.51 3.51 0 0 0-.46-.87 25.7 25.7 0 0 1-2.28-4 19.38 19.38 0 0 1-1.19-4.07 16.23 16.23 0 0 0-.9-3.18 16.87 16.87 0 0 0-1.71-2.91 21.34 21.34 0 0 1-2.16-3.41 63.25 63.25 0 0 1-2.11-9.43 85.51 85.51 0 0 0-3-12.3c-1.05-2.9-2.13-6.09-2.4-7.11a33.33 33.33 0 0 1-.73-3.87 13.5 13.5 0 0 0-.84-3.13 14.55 14.55 0 0 0-1.78-2.83 12.24 12.24 0 0 1-2.08-3.82 13.13 13.13 0 0 1-.32-4.41 6.78 6.78 0 0 0-.4-2.92 8 8 0 0 0-2.08-2.41 16.9 16.9 0 0 1-3.22-3.22 13 13 0 0 1-1.76-3.89c-.24-1-.54-2.75-.68-3.83s-.26-2.85-.29-4-.15-2.67-.28-3.65-.43-2.58-.66-3.5a13 13 0 0 0-1.26-3 15.93 15.93 0 0 0-2.26-2.69 14.15 14.15 0 0 1-2.68-3.52 12.37 12.37 0 0 1-.91-2.92 9.85 9.85 0 0 1-.17-1.27 4.39 4.39 0 0 0-.91-2.24 7.32 7.32 0 0 0-2.83-1.43 41.08 41.08 0 0 0-4.45-.79c-.51-.06-1.62-.09-3.12-.09-1.81 0-4 0-5.9.12-2.15.09-4.88.28-7.29.5l-1 .09c-1.28.13-2.36.26-3.12.38a24.23 24.23 0 0 0-5.81 1.51 9.74 9.74 0 0 0-2.39 2.12 27.64 27.64 0 0 0-1.86 3 25.73 25.73 0 0 0-1.32 3.17c-.29.91-.85 3.3-1.22 5.23a35.59 35.59 0 0 1-1.51 5.66 19.64 19.64 0 0 1-2.07 3.55A13.69 13.69 0 0 0 26.27 72a13.75 13.75 0 0 0-.64 3.21c-.06 1.11-.24 2.87-.41 3.93s-.92 4.37-1.67 7.36a58.07 58.07 0 0 1-2.25 7.33 23.24 23.24 0 0 1-2.16 3.47 33.18 33.18 0 0 0-2 3 30.84 30.84 0 0 0-1.54 3.14c-.36.88-1.13 3.22-1.67 5.1a31 31 0 0 0-1.07 5.12 25.71 25.71 0 0 0 .16 3.7 12.69 12.69 0 0 1-.3 4.43 11.69 11.69 0 0 1-2.13 3.82 17.27 17.27 0 0 0-1.95 2.83 85 85 0 0 0-2.58 10.38c-.77 3.75-2.17 9.83-2.9 11.22a21.93 21.93 0 0 1-2.51 3.58 2.79 2.79 0 0 0-.65 1.07 5.47 5.47 0 0 0 1.68.66 21.77 21.77 0 0 0 4.32.4zM28.06 34.2a5.29 5.29 0 0 0 1.08.56 3.37 3.37 0 0 0 .95.12 8.35 8.35 0 0 0 1.24-.22 10 10 0 0 0 1.27-.48 5 5 0 0 1 2.4-.41 5.39 5.39 0 0 1 1.05.24 7.71 7.71 0 0 1 1.37.56 3.22 3.22 0 0 0 .2-.71 23.5 23.5 0 0 1 .6-2.68 10.46 10.46 0 0 1 .9-2.09 6.9 6.9 0 0 1 1.51-1.64 10.23 10.23 0 0 1 2.07-1.15 5.77 5.77 0 0 1 3.18-.13 20.1 20.1 0 0 1 4.36 2.32c1.6 1.08 3 2 3.37 2.13a13.3 13.3 0 0 0 1.61.64 13.86 13.86 0 0 0 1.73.37 5 5 0 0 0 1.49-.11 8.26 8.26 0 0 0 1.77-.82 5.75 5.75 0 0 1 3-.92A4.85 4.85 0 0 1 66 31a2.85 2.85 0 0 0 1.32.47 9.09 9.09 0 0 0 2.81-.47 18 18 0 0 0 3.13-1.43 13.31 13.31 0 0 0 2.33-1.94 21.06 21.06 0 0 0 1.84-2.47 21.34 21.34 0 0 0 1.37-2.76l.2-.47c.43-1 1-2.2 1.45-3 .53-1 1.55-2.6 2.27-3.63.27-.39.49-.75.67-1.05H83c-.51 0-1.28-.05-1.76-.11a10.71 10.71 0 0 0-1.34-.07 13 13 0 0 0-1.35.1 7.4 7.4 0 0 1-2.08-.05 9.39 9.39 0 0 1-1.5-.44 3.7 3.7 0 0 1-.87 2.58 3.49 3.49 0 0 1-2.86.72 1.19 1.19 0 0 0-.56.1 4 4 0 0 0-.5 1.17A5.14 5.14 0 0 1 68.51 21a4 4 0 0 1-3.19.42 12.22 12.22 0 0 1-2.64-1.17 16.21 16.21 0 0 1-2.41-1.91c-.54-.53-1.44-1.32-2-1.73a20.67 20.67 0 0 0-1.95-1.31 4.1 4.1 0 0 0-1.56-.42 7.08 7.08 0 0 0-2 .46 8.65 8.65 0 0 1-3.34.67 7.88 7.88 0 0 1-3.17-.9 10.75 10.75 0 0 0-2.48-.85 23.57 23.57 0 0 0-3.64-.26 12.1 12.1 0 0 0-3.57.64 11.22 11.22 0 0 0-2.95 1.91 26.08 26.08 0 0 0-2.59 3 25.71 25.71 0 0 0-2 3.38 23.4 23.4 0 0 0-1.27 3.63 22.35 22.35 0 0 0-.49 3.74 13.31 13.31 0 0 0 .24 2.93 2.83 2.83 0 0 0 .56.97z"/><path d="M34.87 155a4.42 4.42 0 0 1-2.21 1.83c-.85.29-4.69.14-8.53-.34a77.48 77.48 0 0 0-9.2-.73 25.74 25.74 0 0 0-3.43.52c-.19.35-.46.78-.75 1.21a20.4 20.4 0 0 1-1.53 2c-.77.88-1.19 2.06-.94 2.64a4.54 4.54 0 0 0 2.82 1.55 23.73 23.73 0 0 0 4.63.44 22.11 22.11 0 0 0 4.49-.69 25.64 25.64 0 0 1 4.43-.77 77.48 77.48 0 0 1 9.2.73c3.84.48 7.68.64 8.53.34a4.42 4.42 0 0 0 2.2-1.73 8.41 8.41 0 0 0 .77-2.51 6 6 0 0 0-.34-2.32 9.29 9.29 0 0 1-.54-2.13 6.4 6.4 0 0 1 .16-1.93c.14-.5.46-2 .71-3.3s1-2.44 1.76-2.51a10.11 10.11 0 0 1 3.72.91 18.2 18.2 0 0 0 4.74 1.23 15.29 15.29 0 0 0 4.6-.47c1.24-.36 6.5-1.32 11.67-2.13.91-.14 1.81-.27 2.68-.38l1-.14c0-.11 0-.23.08-.32a7.19 7.19 0 0 0 .24-2.36 11.45 11.45 0 0 0-.69-2.68 4.05 4.05 0 0 0-2.11-2c-.85-.3-5.77.11-10.95.91s-10.39 1.77-11.63 2.13a15.29 15.29 0 0 1-4.6.47 18.2 18.2 0 0 1-4.74-1.23 10.11 10.11 0 0 0-3.72-.91c-.72.07-1.51 1.2-1.76 2.51s-.56 2.8-.71 3.3a6.4 6.4 0 0 0-.16 1.93 9.29 9.29 0 0 0 .54 2.13 6 6 0 0 1 .34 2.32 8.41 8.41 0 0 1-.77 2.48zM105.19 164a26.3 26.3 0 0 0 4.52-.38 43.5 43.5 0 0 1 4.66-.57c1.32-.08 3.53-.07 4.92 0s2.8-.22 3.13-.68 0-1.66-.71-2.67a23.94 23.94 0 0 1-2.11-3.7 18 18 0 0 1-1.08-3.7 17.53 17.53 0 0 0-1-3.55 18.31 18.31 0 0 0-1.9-3.23 20.1 20.1 0 0 1-1.93-3.22 63.83 63.83 0 0 1-2-9.06 87.45 87.45 0 0 0-3.12-12.57c-1-2.85-2.1-6-2.36-7a31.79 31.79 0 0 1-.69-3.66 14.91 14.91 0 0 0-1-3.56 15.9 15.9 0 0 0-2-3.19 10.71 10.71 0 0 1-1.78-3.27 11.55 11.55 0 0 1-.27-3.81 8.22 8.22 0 0 0-.53-3.72 9.43 9.43 0 0 0-2.56-3 15.4 15.4 0 0 1-2.89-2.87A11.47 11.47 0 0 1 93 83.27c-.23-1-.52-2.65-.65-3.67s-.25-2.74-.28-3.81-.17-2.79-.3-3.79-.45-2.68-.69-3.66a14.43 14.43 0 0 0-1.43-3.4 17.34 17.34 0 0 0-2.52-3 12.59 12.59 0 0 1-2.35-3.08 11.27 11.27 0 0 1-.93-3.61A5.78 5.78 0 0 0 82.52 52 8.76 8.76 0 0 0 79 50.17c-1-.24-2.43-.52-3.63-.7l-1-.13a11 11 0 0 0 .79 2.54A12.59 12.59 0 0 0 77.41 55a17.34 17.34 0 0 1 2.52 3 14.43 14.43 0 0 1 1.43 3.4c.25 1 .56 2.64.69 3.66s.27 2.74.29 3.81.15 2.78.28 3.81.42 2.68.65 3.67a11.47 11.47 0 0 0 1.52 3.36 15.4 15.4 0 0 0 2.89 2.87 9.43 9.43 0 0 1 2.56 3 8.22 8.22 0 0 1 .53 3.72 11.55 11.55 0 0 0 .23 3.79 10.71 10.71 0 0 0 1.78 3.27 15.9 15.9 0 0 1 2 3.19 14.91 14.91 0 0 1 1 3.56 31.79 31.79 0 0 0 .69 3.66c.26 1 1.32 4.12 2.36 7a87.45 87.45 0 0 1 3.17 12.55 63.83 63.83 0 0 0 2 9.06 20.1 20.1 0 0 0 1.93 3.22 18.31 18.31 0 0 1 1.9 3.23 17.53 17.53 0 0 1 1 3.55 18 18 0 0 0 1.08 3.7 23.94 23.94 0 0 0 2.12 3.68c.73 1 1 2.21.71 2.67s-1.74.77-3.13.68-3.61-.09-4.92 0a43.5 43.5 0 0 0-4.66.57 26.3 26.3 0 0 1-4.52.38 53.78 53.78 0 0 1-6.76-.92 94.88 94.88 0 0 0-3.37-.59 4.45 4.45 0 0 0 .66 1.12 6.88 6.88 0 0 1 1 1.61 4.92 4.92 0 0 1 .31 1.68 1.76 1.76 0 0 0 1.06 1.37 12 12 0 0 0 3.29.68c1.21.09 4.23.56 6.7 1a53.78 53.78 0 0 0 6.79.99zM36.88 42.35a6.58 6.58 0 0 0 1.51.78 4.87 4.87 0 0 0 1.13.19h.38a9.68 9.68 0 0 0 1.52-.27 11.25 11.25 0 0 0 1.27-.46l.31-.11a3.65 3.65 0 0 1 1.63-.27l.3.05a6.36 6.36 0 0 1 1.55.57A2.05 2.05 0 0 0 47 43l1-.09a2.45 2.45 0 0 0 .61-1 4.63 4.63 0 0 0 .22-.82 22.27 22.27 0 0 1 .55-2.48 9.33 9.33 0 0 1 .75-1.74 5.48 5.48 0 0 1 1.14-1.23 8.78 8.78 0 0 1 1.73-.99 4.26 4.26 0 0 1 2.25-.08 18.87 18.87 0 0 1 3.9 2.12c1.46 1 3.06 2 3.55 2.23a14.51 14.51 0 0 0 1.84.72 15.32 15.32 0 0 0 2 .42 6.31 6.31 0 0 0 2.08-.15 9.66 9.66 0 0 0 2.19-1 4.48 4.48 0 0 1 2.11-.68 3.43 3.43 0 0 1 1.85.82 4.21 4.21 0 0 0 2.25.86 11.21 11.21 0 0 0 3.32-.56 19.41 19.41 0 0 0 3.45-1.58 14.68 14.68 0 0 0 2.65-2.21 22.6 22.6 0 0 0 2-2.68 22.7 22.7 0 0 0 1.49-3 33.18 33.18 0 0 1 1.55-3.28c.51-.93 1.5-2.51 2.19-3.5a11 11 0 0 0 1.44-2.68.62.62 0 0 0-.69-.79c-.48 0-1.25.07-1.7.06s-1.17-.05-1.59-.1a11.78 11.78 0 0 0-3.08 0 6 6 0 0 1-1.59 0 8.38 8.38 0 0 1-1.73-.59 1.33 1.33 0 0 0-1.27 0 2.31 2.31 0 0 0-.32 1.51 2.42 2.42 0 0 1-.42 1.63 1.89 1.89 0 0 1-1.24.33 2.44 2.44 0 0 1-.32 0 2.4 2.4 0 0 0-.77 0l-.2.48a22.7 22.7 0 0 1-1.49 3 22.6 22.6 0 0 1-2 2.68 14.68 14.68 0 0 1-2.65 2.21 19.41 19.41 0 0 1-3.45 1.58 11.21 11.21 0 0 1-3.32.56 4.21 4.21 0 0 1-2.28-.87 3.43 3.43 0 0 0-1.85-.82 4.48 4.48 0 0 0-2.11.68 9.66 9.66 0 0 1-2.19 1 6.31 6.31 0 0 1-2.08.15 15.32 15.32 0 0 1-2-.42A14.51 14.51 0 0 1 53 32c-.49-.24-2.09-1.24-3.55-2.23a18.87 18.87 0 0 0-3.9-2.12 4.26 4.26 0 0 0-2.25.08 8.78 8.78 0 0 0-1.72.94 5.48 5.48 0 0 0-1.14 1.23 9.33 9.33 0 0 0-.75 1.74 22.27 22.27 0 0 0-.55 2.48A3.42 3.42 0 0 1 38.3 36a1.68 1.68 0 0 1-1.58-.09 6.31 6.31 0 0 0-1.09-.45c0 .36-.07.7-.1 1s0 .48 0 .68a14.6 14.6 0 0 0 .29 3.36 3.83 3.83 0 0 0 1.06 1.85z"/></svg>