<svg xmlns="http://www.w3.org/2000/svg" width="123.4" height="200" viewBox="0 0 123.4 200"><title>_</title><path d="M27.61 31.64a4.56 4.56 0 0 0 1.84.33c.87 0 2.31-.16 3.17-.27.61-.08 1.52-.24 2.31-.39l.83-.17c.94-.21 2.46-.49 3.39-.61s2.46-.26 3.39-.3h.31a16.83 16.83 0 0 1 3.58.44A26.35 26.35 0 0 1 50.1 32a7.65 7.65 0 0 1-.79-3.41 6.45 6.45 0 0 1 1.86-3.74 3.94 3.94 0 0 0 1-1.61 2.69 2.69 0 0 0-.53-1.38l-.09-.13a8.53 8.53 0 0 1-1.45-3.12 7.72 7.72 0 0 1 .32-3.52 4.45 4.45 0 0 0-.67.14 16.5 16.5 0 0 1-3.86.57 15 15 0 0 1-3.76-.57 13.12 13.12 0 0 0-2.85-.48 12.09 12.09 0 0 0-2.84.33 30.15 30.15 0 0 1-3.39.63 25 25 0 0 1-3.27.11h-.36a6.49 6.49 0 0 1 .52 2.81 8.29 8.29 0 0 1-1 3c-.36.64-.91 1.72-1.19 2.36s-.67 1.71-.87 2.34a9.21 9.21 0 0 0-.32 2.09 9.74 9.74 0 0 0 .31 2.15 2.38 2.38 0 0 0 .74 1.07zM64.31 28.79c0 .12 0 .2-.06.27a22.08 22.08 0 0 1-.95 2.66 10.35 10.35 0 0 1 4.38-1.26h.05a8.35 8.35 0 0 1 4.39 1.65 6.14 6.14 0 0 0 1.26.73 4.39 4.39 0 0 0 1.21.39 4.91 4.91 0 0 0 2.34-.62 11.74 11.74 0 0 1 3.89-1.41 11.17 11.17 0 0 1 4.07.36 4.48 4.48 0 0 0 .71.15 11.56 11.56 0 0 1-.52-3.23 10.19 10.19 0 0 1 .62-3.12 7.58 7.58 0 0 0 .43-2A7 7 0 0 0 86 22a5.42 5.42 0 0 0-.15-.61 17.24 17.24 0 0 1-.63-2.69 13.36 13.36 0 0 1-.06-2.31 4.36 4.36 0 0 0-.75.18 11 11 0 0 1-3.61.46 24.27 24.27 0 0 1-5.24-1.44c-1.71-.65-3.86-1.37-4.69-1.56a16.62 16.62 0 0 0-2.94-.35 15.64 15.64 0 0 0-3 .31 4.55 4.55 0 0 0-1.7.76 1.89 1.89 0 0 0-.32 1c0 .65.14 1.74.25 2.39s.35 1.72.54 2.35.5 1.93.62 2.67.26 1.94.3 2.68a12.19 12.19 0 0 1-.3 2.85zM6.93 154.85c.42 0 1-.09 1.66-.19.94-.14 1.88-.32 2.51-.49a19.2 19.2 0 0 1 4.33-.53h.58a19.61 19.61 0 0 1 4.88 1 11.12 11.12 0 0 0 3.74.6 10.7 10.7 0 0 0 3.55-1.06c1.16-.62 2.84-1.44 3.74-1.82a19.23 19.23 0 0 1 2.95-1 3.45 3.45 0 0 0-.3-.58 11.23 11.23 0 0 1-1.28-2.71 6.37 6.37 0 0 1-.09-2.72 5.91 5.91 0 0 1 1.05-2.19c.71-.85 4.14-2.24 5.58-2.8a38.07 38.07 0 0 1 7-2.06 24.07 24.07 0 0 1 4.81 0 26.55 26.55 0 0 0 4.23.11 27.62 27.62 0 0 0 4.24-.73 41.3 41.3 0 0 1 4.85-.94 46.11 46.11 0 0 1 5.08-.26 12.48 12.48 0 0 1 4.62.94 5.7 5.7 0 0 1 2.68 3.08 14.87 14.87 0 0 1 .58 3.07 9.91 9.91 0 0 1-.08 1.66 8.12 8.12 0 0 1-.23 1.19 16.3 16.3 0 0 0-.41 1.9 12.54 12.54 0 0 0-.08 1.75 7.49 7.49 0 0 0 .29 1.58 10.41 10.41 0 0 0 .78 1.69 2.08 2.08 0 0 0 1 .53 11.33 11.33 0 0 0 3.23-.27 19 19 0 0 1 3-.36 15.93 15.93 0 0 1 2.13 0 20.24 20.24 0 0 1 5 1.24 10.3 10.3 0 0 0 3.83.63 11.65 11.65 0 0 0 3.9-1.29 17.32 17.32 0 0 1 5-1.83 13.87 13.87 0 0 1 5 .29 6.24 6.24 0 0 0 1.39.22 1.82 1.82 0 0 0-.08-.28c-.32-.85-1.28-3-2.14-4.78a39.76 39.76 0 0 1-2.16-5.33 23.17 23.17 0 0 1-.64-4 23.72 23.72 0 0 0-.5-3.45 22.22 22.22 0 0 0-1.1-3.21c-.41-.9-1.14-2.31-1.63-3.16s-1.39-2.23-2-3a11.85 11.85 0 0 1-1.75-4 13.91 13.91 0 0 1 0-4.49 16.82 16.82 0 0 0 .2-3.59 13 13 0 0 0-.77-3.14 33.9 33.9 0 0 0-1.55-3.07c-.49-.83-1.4-2.21-2-3s-1.66-2.36-2.21-3.3a38.81 38.81 0 0 1-1.77-3.47 23.42 23.42 0 0 1-1.2-3.81A25.17 25.17 0 0 1 90 89.4a8.2 8.2 0 0 0-.69-2.94 10 10 0 0 0-2.11-2.53 11.63 11.63 0 0 1-2.84-3.58 10.49 10.49 0 0 1-.77-4.4c.07-1 0-3.62-.08-5.66a23.84 23.84 0 0 0-.77-5.1 15.72 15.72 0 0 0-1.6-2.92c-.65-.9-2-3.12-3-5a28 28 0 0 1-2.44-5.67c-.06-.27-.13-.6-.19-1A32.1 32.1 0 0 1 75 47a3.81 3.81 0 0 0-.89-2.27 5.41 5.41 0 0 0-3-.39c-1.43.19-4.71.84-7.32 1.46a64.57 64.57 0 0 1-7.34 1.34 79.88 79.88 0 0 1-9.61-.57 28.68 28.68 0 0 0-7.64-.08A3.79 3.79 0 0 0 38 48.2c-.28 1-.81 3.4-1.18 5.41S35.69 59 35.14 61a21.65 21.65 0 0 1-2.32 5.59 19.64 19.64 0 0 1-3.07 3.2 6.06 6.06 0 0 0-1.69 2.38 7 7 0 0 0 .13 3.11 9.08 9.08 0 0 1 0 4.84 8.92 8.92 0 0 1-3 3.78 7.59 7.59 0 0 0-2.11 2.37 6.39 6.39 0 0 0-.33 2.9 13.64 13.64 0 0 1-.13 4.44 12.19 12.19 0 0 1-1.86 3.9 10.77 10.77 0 0 0-2.24 6.08 17.69 17.69 0 0 1-.78 4.07 17.59 17.59 0 0 1-1.88 3.68 17 17 0 0 0-1.58 3 16.56 16.56 0 0 0-.8 3.23c-.13 1.08-.44 2.8-.69 3.84s-.75 2.69-1.13 3.69a33.88 33.88 0 0 0-1 3.35c-.21.92-.49 2.53-.59 3.51A15.89 15.89 0 0 1 9 136a16.89 16.89 0 0 1-2.27 3.56c-.66.77-2.17 2.83-3.29 4.5a29.76 29.76 0 0 0-2.58 4.58A21.35 21.35 0 0 0 0 152a2.92 2.92 0 0 0 .35 1.79 5.15 5.15 0 0 0 2.35.93 26.82 26.82 0 0 0 4.23.13z"/><path d="M62.8 28.68c0-.09 0-.21.07-.31a3.61 3.61 0 0 0-.33-.51 6.07 6.07 0 0 1-.48-.73 6.59 6.59 0 0 1-.76-1.86 6.33 6.33 0 0 1 .26-2.75v-.19a1.72 1.72 0 0 0-.17-1.68.86.86 0 0 0-.3-.12 4.7 4.7 0 0 0-2.07.17 15 15 0 0 1-3.44.51 11.05 11.05 0 0 1-1.5-.13c-.46-.07-.93-.15-1.34-.25v.07a4 4 0 0 1 .84 2.5 5.18 5.18 0 0 1-1.45 2.5 5 5 0 0 0-1.41 2.76 6.76 6.76 0 0 0 1 3.29c.6 1 .87 2 .62 2.17s-1.39 0-2.5-.59A24.46 24.46 0 0 0 46 32.11a14.71 14.71 0 0 0-3.45-.39c-.89 0-2.36.16-3.25.28s-2.36.39-3.25.59l-.87.18v.09a8.79 8.79 0 0 0-.22 1 9.91 9.91 0 0 0-.17 1.55 11.06 11.06 0 0 0 .37 2.59 3.75 3.75 0 0 0 1.39 1.91 5.73 5.73 0 0 0 2.68.55c.91 0 2.4-.17 3.3-.29s2.38-.39 3.27-.59 2.36-.47 3.25-.59 2.36-.25 3.25-.28a14.71 14.71 0 0 1 3.45.39 24.46 24.46 0 0 1 3.86 1.44c1.12.54 2.24.81 2.5.59s0-1.19-.62-2.17a6.76 6.76 0 0 1-1-3.29 3 3 0 0 1 .19-.8 5.9 5.9 0 0 1 .45-.94 2.84 2.84 0 0 1 .42-1.93 22.13 22.13 0 0 0 1.25-3.32zM97.35 30.36a8.66 8.66 0 0 0-.37-2.5 15.81 15.81 0 0 1-.56-2.41 11.46 11.46 0 0 1 0-2.22 1.35 1.35 0 0 0-.57-1.35 4.07 4.07 0 0 0-2.17.21 9.53 9.53 0 0 1-3 .39 12.26 12.26 0 0 1-2.15-.48l-1.07-.32a8.33 8.33 0 0 1 .18 1.71 9 9 0 0 1-.54 2.5 8.7 8.7 0 0 0-.51 2.58 10.2 10.2 0 0 0 .41 2.78 1.82 1.82 0 0 1-.18 1.85 3.7 3.7 0 0 1-2.36-.1 9.71 9.71 0 0 0-3.46-.31 10.37 10.37 0 0 0-3.31 1.21 6.33 6.33 0 0 1-3.25.83 5.78 5.78 0 0 1-1.68-.51c0 .35-.1.69-.17 1 0 .13-.05.27-.08.39a22.13 22.13 0 0 1-1.25 3.28c-.47 1-.59 1.9-.27 2.06a4.72 4.72 0 0 0 2.61-.91 8.74 8.74 0 0 1 3.85-1.15 6.88 6.88 0 0 1 3.45 1.33 7.47 7.47 0 0 0 3.25 1.44 6.33 6.33 0 0 0 3.25-.83 10.37 10.37 0 0 1 3.31-1.21 9.71 9.71 0 0 1 3.44.31 3.7 3.7 0 0 0 2.39.09 1.82 1.82 0 0 0 .18-1.85 10.2 10.2 0 0 1-.45-2.74 8.7 8.7 0 0 1 .51-2.58 9 9 0 0 0 .57-2.49zM35.2 152.94a17.47 17.47 0 0 0-2.69.88c-.87.36-2.49 1.15-3.61 1.75a12.16 12.16 0 0 1-4.17 1.23 12.69 12.69 0 0 1-4.35-.69 18.21 18.21 0 0 0-4.45-.95 17.29 17.29 0 0 0-4.44.46 26.73 26.73 0 0 1-2.68.52c-.09.34-.18.69-.27 1-.13.54-.23 1.07-.3 1.49a4.21 4.21 0 0 0 .71 3 6.25 6.25 0 0 0 3.26 1.42 27.78 27.78 0 0 0 4.51.17 27.93 27.93 0 0 0 4.46-.72 17.29 17.29 0 0 1 4.44-.46 18.21 18.21 0 0 1 4.45.95 12.69 12.69 0 0 0 4.35.69 12.16 12.16 0 0 0 4.17-1.23c1.12-.6 2.75-1.39 3.61-1.75a17.47 17.47 0 0 1 2.69-.87 1.64 1.64 0 0 0 1.27-.93 3.33 3.33 0 0 0-.63-1.93 9.89 9.89 0 0 1-1.08-2.28 4.94 4.94 0 0 1-.08-2 4.45 4.45 0 0 1 .74-1.57 23.9 23.9 0 0 1 5-2.36 37.29 37.29 0 0 1 6.62-2 22.37 22.37 0 0 1 4.44 0 27.69 27.69 0 0 0 4.52.12 29 29 0 0 0 4.52-.78 39.54 39.54 0 0 1 4.64-.9h.46l1-.09a8.4 8.4 0 0 0 .07-1.39 13.41 13.41 0 0 0-.51-2.7 4.27 4.27 0 0 0-1.87-2.14 11.19 11.19 0 0 0-4-.78 43.49 43.49 0 0 0-4.87.25 39.54 39.54 0 0 0-4.64.9A29 29 0 0 1 56 140a27.69 27.69 0 0 1-4.52-.12 22.37 22.37 0 0 0-4.44 0 37.29 37.29 0 0 0-6.62 2 23.9 23.9 0 0 0-5 2.36 4.45 4.45 0 0 0-.74 1.57 4.94 4.94 0 0 0 .08 2 9.89 9.89 0 0 0 1.08 2.28 3.33 3.33 0 0 1 .63 1.93 1.64 1.64 0 0 1-1.27.92zM120.5 153.86a39.15 39.15 0 0 1-2.06-5.07 22 22 0 0 1-.59-3.7 25.23 25.23 0 0 0-.54-3.71 23.76 23.76 0 0 0-1.19-3.48c-.42-.92-1.18-2.41-1.7-3.3s-1.45-2.32-2.06-3.17a10.44 10.44 0 0 1-1.49-3.38 12.42 12.42 0 0 1 0-3.92 18.08 18.08 0 0 0 .22-4 14.41 14.41 0 0 0-.88-3.6 34.77 34.77 0 0 0-1.65-3.32 37.26 37.26 0 0 0-2.1-3.15c-.64-.84-1.59-2.26-2.11-3.15a36.68 36.68 0 0 1-1.68-3.31 21.57 21.57 0 0 1-1.11-3.52 23.5 23.5 0 0 1-.39-3.77 9.64 9.64 0 0 0-.85-3.61 11.35 11.35 0 0 0-2.5-3 10.28 10.28 0 0 1-2.43-3 9.1 9.1 0 0 1-.64-3.7c.07-1.1 0-3.73-.08-5.83a24.53 24.53 0 0 0-.87-5.56 17 17 0 0 0-1.8-3.28c-.62-.85-1.95-3-2.95-4.81a26.76 26.76 0 0 1-2.29-5.28 29.49 29.49 0 0 1-.58-4.41 5 5 0 0 0-1.5-3.41 6.66 6.66 0 0 0-4.05-.67c-.63.08-1.63.25-2.75.48l-1 .19c.12.32.12.58.19.87a26.76 26.76 0 0 0 2.29 5.28c1 1.79 2.33 4 2.95 4.81a17 17 0 0 1 1.79 3.27 24.53 24.53 0 0 1 .9 5.56c.12 2.11.15 4.74.08 5.83a9.1 9.1 0 0 0 .64 3.68 10.28 10.28 0 0 0 2.43 3 11.35 11.35 0 0 1 2.5 3 9.64 9.64 0 0 1 .85 3.61 23.5 23.5 0 0 0 .39 3.77A21.57 21.57 0 0 0 93 96.68a36.68 36.68 0 0 0 1.63 3.32c.52.89 1.47 2.31 2.11 3.15a37.26 37.26 0 0 1 2.1 3.15 34.77 34.77 0 0 1 1.65 3.32 14.41 14.41 0 0 1 .88 3.6 18.08 18.08 0 0 1-.22 4 12.42 12.42 0 0 0 0 3.92 10.44 10.44 0 0 0 1.49 3.38c.62.85 1.55 2.28 2.06 3.17s1.3 2.31 1.7 3.31a23.76 23.76 0 0 1 1.19 3.48 25.23 25.23 0 0 1 .54 3.71 22 22 0 0 0 .59 3.7 39.15 39.15 0 0 0 2.06 5.07c.87 1.81 1.86 4 2.19 4.9a2 2 0 0 1-.17 2.12 4.89 4.89 0 0 1-2.95-.1 12.36 12.36 0 0 0-4.39-.25 15.8 15.8 0 0 0-4.48 1.65 13.09 13.09 0 0 1-4.52 1.49A11.69 11.69 0 0 1 92 156a18.84 18.84 0 0 0-4.56-1.13 14.59 14.59 0 0 0-1.93 0c0 .12 0 .23-.05.33s0 .43-.06.68v1.34a9 9 0 0 0 .36 2 11.73 11.73 0 0 0 .92 2 3.31 3.31 0 0 0 2.07 1.24 12.62 12.62 0 0 0 3.8-.28 18.25 18.25 0 0 1 4.64-.32 18.84 18.84 0 0 1 4.56 1.13 11.69 11.69 0 0 0 4.52.74 13.09 13.09 0 0 0 4.52-1.49 15.8 15.8 0 0 1 4.48-1.65 12.36 12.36 0 0 1 4.39.25 4.89 4.89 0 0 0 2.95.1 2 2 0 0 0 .17-2.12c-.42-.95-1.41-3.15-2.28-4.96z"/></svg>