<svg xmlns="http://www.w3.org/2000/svg" width="132.46" height="200" viewBox="0 0 132.46 200"><title>_</title><path d="M6.17 154.49a18.89 18.89 0 0 0 2.23-.42 18.74 18.74 0 0 0 1.85-.54 22.6 22.6 0 0 1 4.83-1.08 54 54 0 0 1 9.48 1.1 48.54 48.54 0 0 0 7 .9 6.86 6.86 0 0 0 .29-2.4 28.91 28.91 0 0 1 .13-4.77 8.65 8.65 0 0 1 .91-2.21c.3-.5 1-1.55 1.67-2.41a5.42 5.42 0 0 1 3.55-2.14 16.78 16.78 0 0 1 4 .44 16.44 16.44 0 0 0 4 .3 18.44 18.44 0 0 0 4.09-.91 18.74 18.74 0 0 1 5-1 18 18 0 0 1 5 .68 24.91 24.91 0 0 0 4.18.82 22.22 22.22 0 0 0 4.07-.11 19.66 19.66 0 0 1 4-.16 5.48 5.48 0 0 1 2.92 1.2 4.61 4.61 0 0 1 1.19 2.31 6.55 6.55 0 0 1-.27 2.66 3.15 3.15 0 0 0-.1 1.21 2.3 2.3 0 0 0 .29.54 2.57 2.57 0 0 0 .32.4 12.16 12.16 0 0 1 1.52 1.72 7 7 0 0 1 .86 1.77 3.27 3.27 0 0 0 .67.54 19.27 19.27 0 0 0 3 1.22 23 23 0 0 0 2.3.56c.69.14 1.3.23 1.76.28a25.74 25.74 0 0 0 4.17 0c1.3-.13 4.43-.19 7-.12s5.39 0 6.52-.05a30.65 30.65 0 0 0 4-.65 5.7 5.7 0 0 0 2.24-1.12 2.67 2.67 0 0 0 .42-1.55 9.56 9.56 0 0 0-.76-2.65 13.84 13.84 0 0 0-1.87-2.65 12.09 12.09 0 0 1-2.28-3.75 12.51 12.51 0 0 1-.48-4.38 11 11 0 0 0-.27-3.24 10.26 10.26 0 0 0-1.44-2.78 23.42 23.42 0 0 1-2.19-3.45c-.56-1.14-2.29-6.36-3.63-10.68-1.59-5.12-3.08-9.54-3.43-10.3a23.48 23.48 0 0 0-1.72-3 13.55 13.55 0 0 1-1.76-3.86 15 15 0 0 1-.26-4.34 7.41 7.41 0 0 0-.41-3 8.34 8.34 0 0 0-2-2.48 17.78 17.78 0 0 1-3-3.25 14.28 14.28 0 0 1-1.73-3.84c-.26-1-.7-3.58-1-5.69a57.43 57.43 0 0 1-.36-7.95 29.93 29.93 0 0 0-.22-5.39 36.64 36.64 0 0 0-3.08-6.22c-1.53-2.59-3.25-5.38-3.76-6.09l-.61-.76c-.48-.62-1-1.22-1.32-1.59a19.8 19.8 0 0 0-2.3-2 37.26 37.26 0 0 0-3.28-2.07 9.9 9.9 0 0 0-3.44-1 11.22 11.22 0 0 0-3.84.68 15.27 15.27 0 0 1-5.21.9 16.34 16.34 0 0 1-5.18-1.24A26.84 26.84 0 0 0 45.91 44a29.61 29.61 0 0 0-4.84-.47 5.16 5.16 0 0 0-2.83.81 4.39 4.39 0 0 0-.53 2.63 15.5 15.5 0 0 1-.37 5.13 10.9 10.9 0 0 1-2.43 4.07 12.34 12.34 0 0 0-2 2.69 10.84 10.84 0 0 0-.85 3 18.8 18.8 0 0 1-.9 4 18.91 18.91 0 0 1-1.91 3.63c-.58.82-1.45 2.2-1.94 3.06s-1.21 2.28-1.61 3.18A31.17 31.17 0 0 0 24.52 79c-.23.79-.76 3.92-1.15 7.15a48.24 48.24 0 0 1-1.43 7.69 48.22 48.22 0 0 1-4.12 6.73 48.08 48.08 0 0 0-3.82 6.08 17.91 17.91 0 0 0-.82 3.25 23.18 23.18 0 0 1-.95 3.91 22.63 22.63 0 0 1-1.75 3.62 13 13 0 0 0-1.26 3 14.3 14.3 0 0 0-.22 3.31 25.77 25.77 0 0 1-.19 4.13 22.71 22.71 0 0 1-1 3.89 27.18 27.18 0 0 1-1.71 3.58 29.64 29.64 0 0 1-2.36 3.32A13.86 13.86 0 0 0 2 141.48a13.08 13.08 0 0 0-.78 3.14c-.1 1.1-.52 3.62-.94 5.62a8.24 8.24 0 0 0-.12 3.43 6 6 0 0 0 2.05.74 19.08 19.08 0 0 0 3.96.08zM62.77.57h-.3a65 65 0 0 0-9.55 1.33 50.88 50.88 0 0 0-9.56 2.59 7 7 0 0 0-1.42 2.2 33.49 33.49 0 0 0-1 3.32 30.19 30.19 0 0 0-.52 3.29 12.61 12.61 0 0 0 .14 2.91 11.58 11.58 0 0 0 1 2.64A21.4 21.4 0 0 1 43 22.23a25.12 25.12 0 0 1 .72 3.77 5.73 5.73 0 0 0 .84 2.26 5.17 5.17 0 0 0 1.91 1.26c1 .32 3.24 1.29 5.08 2.14l1 .46a21.94 21.94 0 0 0 3.57 1.23 13.31 13.31 0 0 0 3.16 0 11.79 11.79 0 0 0 3-.87 11.06 11.06 0 0 0 2.43-1.77 17.84 17.84 0 0 0 2-2.48l.12-.23.1-.17a16 16 0 0 0 1-2.3c.31-.92.88-2.4 1.28-3.3s1.13-2.35 1.62-3.23c.07-.12.13-.25.2-.39a16.11 16.11 0 0 0 1-2.53 18.24 18.24 0 0 0 .48-3.33 9.16 9.16 0 0 0-.47-2.95A16.37 16.37 0 0 0 70 7c-.71-.81-1.47-1.63-2.21-2.36A25.26 25.26 0 0 0 62.77.57z"/><path d="M32.31 155.88c-.64.24-4.26-.15-8-.85a53.3 53.3 0 0 0-9.08-1.08 21.22 21.22 0 0 0-4.45 1 20.41 20.41 0 0 1-2 .58c-.07.37-.14.72-.21 1.07l-.06.28c-.41 2-.35 4 .13 4.59a5.78 5.78 0 0 0 3 1.36 20.64 20.64 0 0 0 4.38.09 23.07 23.07 0 0 0 4.43-1 21.22 21.22 0 0 1 4.45-1A53.3 53.3 0 0 1 34 162c3.77.7 7.38 1.08 8 .85s1.12-2 1-3.88a27.86 27.86 0 0 1 .09-4.38 7.34 7.34 0 0 1 .73-1.77c.28-.46 1-1.5 1.59-2.29a4 4 0 0 1 2.52-1.53 15.72 15.72 0 0 1 3.58.41 18 18 0 0 0 4.43.33 20 20 0 0 0 4.49-1 17.36 17.36 0 0 1 4.57-.94 16.81 16.81 0 0 1 4.52.61 26.35 26.35 0 0 0 4.49.88H74h1.19a3.55 3.55 0 0 1-.5-1 4.43 4.43 0 0 1 .13-2 5.11 5.11 0 0 0 .22-2 3.14 3.14 0 0 0-.77-1.48 4.08 4.08 0 0 0-2-.78 18.06 18.06 0 0 0-3.59.15 23.7 23.7 0 0 1-4.41.12 26.35 26.35 0 0 1-4.49-.88 16.81 16.81 0 0 0-4.52-.61 17.36 17.36 0 0 0-4.52.91 20 20 0 0 1-4.49 1 18 18 0 0 1-4.43-.33 15.72 15.72 0 0 0-3.58-.41 4 4 0 0 0-2.45 1.54c-.59.8-1.31 1.83-1.59 2.29a7.34 7.34 0 0 0-.73 1.77 27.86 27.86 0 0 0-.09 4.38c.05 1.94-.38 3.69-1.07 3.92zM121.5 155.12a15.22 15.22 0 0 0-2.12-3 10.72 10.72 0 0 1-2-3.21 10.94 10.94 0 0 1-.41-3.76 12.44 12.44 0 0 0-.33-3.79A11.55 11.55 0 0 0 115 138a21.87 21.87 0 0 1-2-3.18c-.45-.91-2-5.62-3.55-10.46s-3.07-9.56-3.5-10.48a25 25 0 0 0-1.86-3.24 12 12 0 0 1-1.53-3.36 13.48 13.48 0 0 1-.23-3.83 8.82 8.82 0 0 0-.52-3.73 9.7 9.7 0 0 0-2.41-3 16.39 16.39 0 0 1-2.74-2.93 12.79 12.79 0 0 1-1.52-3.37c-.25-1-.67-3.47-.94-5.52a55.67 55.67 0 0 1-.35-7.69 30.86 30.86 0 0 0-.26-5.77 36.61 36.61 0 0 0-3.26-6.66c-1.57-2.66-3.3-5.46-3.84-6.21s-1.44-1.87-2-2.48a21.14 21.14 0 0 0-2.51-2.21 38.23 38.23 0 0 0-3.48-2.18 7.63 7.63 0 0 0-.7-.33 12.42 12.42 0 0 0-1.65-.55c.22.28.44.56.61.8.54.75 2.27 3.54 3.84 6.21a36.61 36.61 0 0 1 3.26 6.66 30.86 30.86 0 0 1 .26 5.77 55.67 55.67 0 0 0 .34 7.74c.27 2.05.7 4.54.94 5.52a12.79 12.79 0 0 0 1.52 3.37 16.39 16.39 0 0 0 2.74 2.93 9.7 9.7 0 0 1 2.41 3 8.82 8.82 0 0 1 .52 3.73 13.48 13.48 0 0 0 .23 3.83 12 12 0 0 0 1.53 3.36 25 25 0 0 1 1.86 3.26c.42.92 2 5.64 3.5 10.48s3.1 9.55 3.55 10.46a21.87 21.87 0 0 0 2 3.18 11.55 11.55 0 0 1 1.71 3.3 12.44 12.44 0 0 1 .33 3.79 10.94 10.94 0 0 0 .41 3.76 10.72 10.72 0 0 0 2 3.21 15.22 15.22 0 0 1 2.12 3 10.93 10.93 0 0 1 .91 3.17 4.05 4.05 0 0 1-.8 2.69 7 7 0 0 1-3 1.57 32 32 0 0 1-4.2.68c-1.19.1-4.19.12-6.68.06s-5.54 0-6.79.11a26.81 26.81 0 0 1-4.47 0c-.53-.05-1.21-.16-1.9-.3a4 4 0 0 0 .61.77l.43.43a10 10 0 0 1 .88 1 5.39 5.39 0 0 1 .67 1.4 3.13 3.13 0 0 0 1.34 1.36 20.49 20.49 0 0 0 3.32 1.35 21.87 21.87 0 0 0 8.84.89c1.24-.13 4.3-.18 6.79-.11s5.49 0 6.68-.06a32 32 0 0 0 4.2-.68 7 7 0 0 0 3-1.57 4.05 4.05 0 0 0 .8-2.69 10.93 10.93 0 0 0-.96-3.13zM53.09 36.09a6.51 6.51 0 0 0 2.61 1.75c.92.31 3.14 1.25 4.93 2.08a26.33 26.33 0 0 0 5 1.81 14.64 14.64 0 0 0 3.6 0 13.26 13.26 0 0 0 3.43-1 12.55 12.55 0 0 0 2.84-2.06A19.41 19.41 0 0 0 77.67 36a17.29 17.29 0 0 0 1.44-3c.29-.88.85-2.3 1.23-3.16s1.08-2.26 1.55-3.1a17.11 17.11 0 0 0 1.32-3.27 19.84 19.84 0 0 0 .53-3.67 10.55 10.55 0 0 0-.58-3.55 28.53 28.53 0 0 0-4.63-5.61c-2.19-2.19-4.72-4.21-5.61-4.49a2.38 2.38 0 0 0-.55-.15 12.54 12.54 0 0 0-1.28 0 16.33 16.33 0 0 1 2.36 3.17 10.55 10.55 0 0 1 .55 3.61 19.84 19.84 0 0 1-.53 3.67 17.55 17.55 0 0 1-1.08 2.8 2.71 2.71 0 0 1 .79.65 1.49 1.49 0 0 1 .26.4 2.53 2.53 0 0 1-.11 1.53 9.94 9.94 0 0 1-.81 1.56 6.8 6.8 0 0 1-1 1.16 4.06 4.06 0 0 0-.86 1.07 3.74 3.74 0 0 0-.31 1.3A1.84 1.84 0 0 1 70 28a1.32 1.32 0 0 1-.46.26 2.06 2.06 0 0 1-.62.13 2.37 2.37 0 0 0-.65.14c-.13.18-.27.35-.27.47a19.41 19.41 0 0 1-2.18 2.74 12.55 12.55 0 0 1-2.84 2.06 13.26 13.26 0 0 1-3.43 1 14.64 14.64 0 0 1-3.6 0A22.63 22.63 0 0 1 52 33.47a7.74 7.74 0 0 0 .36 1.23 5.59 5.59 0 0 0 .73 1.39z"/></svg>