<svg xmlns="http://www.w3.org/2000/svg" width="200" height="200" viewBox="0 0 200 200"><title>_</title><path d="M88.56 144.46a3.66 3.66 0 0 1 .24 1 4.68 4.68 0 0 1-.8 2.64 5.12 5.12 0 0 0-.73 1.79 7.31 7.31 0 0 0 .15 2.27 1.35 1.35 0 0 0 .69.88 5.7 5.7 0 0 0 2.44-.75 10.31 10.31 0 0 1 4.2-1.16 8.57 8.57 0 0 1 3.16.8 6.73 6.73 0 0 1 .86.46 21.85 21.85 0 0 0 3.17 1.64 16.5 16.5 0 0 0 3.12.82c.88.12 2.37.26 3.26.3s2.38 0 3.26 0a14.17 14.17 0 0 0 3.08-.57 18.49 18.49 0 0 0 3.14-1.47 11.53 11.53 0 0 1 3.73-1.39 9.84 9.84 0 0 1 3.8.37 10.52 10.52 0 0 0 3 .44 11 11 0 0 0 3-.69A12.73 12.73 0 0 1 135 151c1.17-.08 4.54.82 7.06 1.66a22.1 22.1 0 0 0 6.21 1.36 9.43 9.43 0 0 0 3-1.27 11.73 11.73 0 0 1 3.73-1.62c1.23-.23 4.9.41 7.72 1.14a19.28 19.28 0 0 0 5.58.81 3.49 3.49 0 0 0 .12-1.8 17.77 17.77 0 0 1-.21-4.11 14.23 14.23 0 0 1 1-3.75 9.64 9.64 0 0 0 .68-2.86 9.18 9.18 0 0 0-.49-2.85c-.22-.59-.58-1.69-.95-2.93-.17-.58-.35-1.17-.5-1.72a9.55 9.55 0 0 0-1.25-3 2.25 2.25 0 0 0-1.21-.06 7.19 7.19 0 0 1-3.13-.05 11.84 11.84 0 0 1-3.16-1.55 6 6 0 0 0-2.43-.95 5.26 5.26 0 0 0-2.38.63 21.68 21.68 0 0 1-3.12 1.46 17.6 17.6 0 0 1-3.16.75 16.45 16.45 0 0 1-3.17 0 17.69 17.69 0 0 1-3.16-.7 12.34 12.34 0 0 0-2.68-.52 11.44 11.44 0 0 0-2.67.23 16 16 0 0 1-3.2.32h-.41a16.17 16.17 0 0 1-2.78-.47 11.42 11.42 0 0 0-2.81-.34 16 16 0 0 0-3.16.49c-.24.07-2.34.61-3.28-.25-.75-.69-.6-2.08-.11-3.16a27.69 27.69 0 0 0 1-2.68 14.33 14.33 0 0 0 .47-2.19 3.81 3.81 0 0 0-.33-1.63 8.25 8.25 0 0 0-1.5-1.88 5.6 5.6 0 0 1-1.65-2.57 3.08 3.08 0 0 1 1-2.61 8.42 8.42 0 0 1 2.74-1.44 63.56 63.56 0 0 1 8.48-.89c3.61-.21 7.71-.55 8.95-.76s3.27-.66 4.53-1a21.63 21.63 0 0 1 4.92-.72h.06a22 22 0 0 1 4.88.65 6.17 6.17 0 0 0 2.85.18 1.56 1.56 0 0 0 .55-1.24 20.43 20.43 0 0 1 .32-3.49 22.22 22.22 0 0 1 1-3.44 6.25 6.25 0 0 0 .34-2.71 8.23 8.23 0 0 0-1.23-2.81 10.77 10.77 0 0 1-.7-1.16 11 11 0 0 1-1-2.4 8.5 8.5 0 0 1 .11-3.63 1.31 1.31 0 0 0-.06-1 6.35 6.35 0 0 0-2.43.05 35.92 35.92 0 0 1-4.72.55 89.62 89.62 0 0 1-9.42-.83c-3.61-.47-8.49-.94-11.11-1.07h-.34a38.18 38.18 0 0 1-6.33-.69 6.63 6.63 0 0 1-2.76-1.64 7.49 7.49 0 0 1-1.3-2.16 6 6 0 0 1-.22-2.39 10.62 10.62 0 0 1 .62-2.23 14.09 14.09 0 0 1 1.21-2.17 6.9 6.9 0 0 0 .83-1.7 5.21 5.21 0 0 0 .11-1.64 2.8 2.8 0 0 1 .89-2.46 4.91 4.91 0 0 1 2.71-.69c.76 0 2.66-.1 4.15-.24a41.81 41.81 0 0 0 5.47-1 12 12 0 0 1 4.71-.38 9.88 9.88 0 0 1 3.2 1.69 6 6 0 0 0 2.32 1.14 4.47 4.47 0 0 0 2.2-.45 9.2 9.2 0 0 1 3.22-1 8.43 8.43 0 0 1 3.25.57 6.46 6.46 0 0 0 2.36.41 7.2 7.2 0 0 0 2.4-.75 11.73 11.73 0 0 1 3-1.12 8.54 8.54 0 0 1 3 .08 1.62 1.62 0 0 0 1-.06 3.21 3.21 0 0 0 .27-1.32 19.63 19.63 0 0 1 .3-3.23 25 25 0 0 1 .94-3.33 11.47 11.47 0 0 0 .59-2.92 11 11 0 0 0-.39-2.91 21.32 21.32 0 0 1-.68-3.49c-.05-.55-.06-1.19-.07-1.63 0-.73 0-1.45.08-2a3.75 3.75 0 0 0-.47-2.14 4.79 4.79 0 0 0-2.15-1.2 28.11 28.11 0 0 0-3.51-.59 24.61 24.61 0 0 0-3.37 0c-1 .09-2.61.13-3.6.1s-2.61-.17-3.6-.32a22.66 22.66 0 0 0-3.31-.2c-.78 0-5.19.8-10.27 1.89-3.58.77-9.43 1.82-10.86 1.52a12.83 12.83 0 0 1-3.84-1.65 15.67 15.67 0 0 0-3.23-1.57 11.61 11.61 0 0 0-3.14-.43 26 26 0 0 0-3.32.4 28.76 28.76 0 0 0-3.34.94 18 18 0 0 1-3.73.85A17 17 0 0 1 100 43a26.8 26.8 0 0 0-3.33-.3c-.92 0-4 .21-6.85.48a39.18 39.18 0 0 1-7.24.18 21 21 0 0 1-3.69-1.12 7.49 7.49 0 0 0-3-.48 8.88 8.88 0 0 0-3.06 1.15 16 16 0 0 1-3.76 1.71 12.63 12.63 0 0 1-3.84.32c-.91-.09-2.37-.16-3.21-.16a26.59 26.59 0 0 0-2.86.2 7.53 7.53 0 0 0-2.27.79 9.63 9.63 0 0 0-2 1.76 22.25 22.25 0 0 0-1.77 2.59c-.37.67-1.75 4.21-3.11 8.23a91.32 91.32 0 0 1-3.32 8.7 10.48 10.48 0 0 0-1 3.11 13.19 13.19 0 0 0 .22 3.59 10.54 10.54 0 0 1 0 4.32 9.82 9.82 0 0 1-2.16 3.65c-.75.76-1.92 2.09-2.55 2.89a35.87 35.87 0 0 0-2.08 3A9.86 9.86 0 0 0 38 90.73a12.41 12.41 0 0 0 .22 3.57 15.79 15.79 0 0 1 .32 4.27c-.1 1.33-2.36 6.43-4.41 10.43-2.47 4.9-4.45 9.05-4.74 9.85s-.8 2.43-1 3.39a26.19 26.19 0 0 0-.57 3.48 29.51 29.51 0 0 0 0 3.7 17.55 17.55 0 0 1-.24 4 16 16 0 0 1-1.34 3.71 33.59 33.59 0 0 1-2.08 3.3 37.65 37.65 0 0 1-2.61 3.11 10.94 10.94 0 0 0-1.84 2.79 9.11 9.11 0 0 0-.51 3.06 3 3 0 0 0 .77 1.88 4.79 4.79 0 0 0 2.55.41 23.78 23.78 0 0 1 4.54.08c.44.06 1 .16 1.6.29a27.34 27.34 0 0 1 3 .83 12.31 12.31 0 0 0 4 .57 13.31 13.31 0 0 0 4.07-1.16 12.43 12.43 0 0 1 5-1.16 14.69 14.69 0 0 1 5.27 1.42 8 8 0 0 0 3.07.91.93.93 0 0 0 .37-.82 20.93 20.93 0 0 1 .21-3.06 22.91 22.91 0 0 1 1.68-4.41 18.11 18.11 0 0 0 1.42-3.82 14.56 14.56 0 0 0-.06-2.68 3 3 0 0 1 1.31-3.09 6.17 6.17 0 0 1 3.83.29 25.51 25.51 0 0 0 3.93 1 92.48 92.48 0 0 0 9.34.07c4.45-.13 8.43-.39 9.36-.55.4-.07 2.44-.4 3.3.23a1.56 1.56 0 0 1 .53 1.63 3.46 3.46 0 0 1-.62 1.35 3.82 3.82 0 0 0-.67 1.7 3.08 3.08 0 0 0 .63 1.5 5.81 5.81 0 0 1 .93 1.66z" fill="#231f20"/><path d="M86.87 143.44a4 4 0 0 1-.87-2.14 4.68 4.68 0 0 1 .86-2.28c.47-.64.61-1.36.3-1.58a4.75 4.75 0 0 0-2.54-.06c-1.09.19-5.37.45-9.5.57a93.08 93.08 0 0 1-9.52-.08 26.36 26.36 0 0 1-4.12-1.05 5.44 5.44 0 0 0-3.09-.32 2.07 2.07 0 0 0-.77 2.06 15.62 15.62 0 0 1 .06 2.91 18.47 18.47 0 0 1-1.52 4.15 22.35 22.35 0 0 0-1.59 4.14 20.28 20.28 0 0 0-.2 2.89 1.77 1.77 0 0 1-1.21 1.81 8.38 8.38 0 0 1-3.67-1 13.78 13.78 0 0 0-4.79-1.24 11.7 11.7 0 0 0-4.56 1.06 14.32 14.32 0 0 1-4.45 1.26 13.15 13.15 0 0 1-4.45-.63 26.31 26.31 0 0 0-2.89-.8 8 8 0 0 0-.27 1 9.9 9.9 0 0 0-.26 2.38A3.87 3.87 0 0 0 29 159.1a5.58 5.58 0 0 0 3.24.6 22.65 22.65 0 0 1 4.31.08 26.32 26.32 0 0 1 4.4 1.07 13.15 13.15 0 0 0 4.45.63 14.32 14.32 0 0 0 4.45-1.26 11.7 11.7 0 0 1 4.56-1.06 13.78 13.78 0 0 1 4.79 1.24 8.38 8.38 0 0 0 3.67 1 1.77 1.77 0 0 0 1.21-1.81 20.28 20.28 0 0 1 .2-2.89 22.35 22.35 0 0 1 1.59-4.14 18.47 18.47 0 0 0 1.52-4.15 15.62 15.62 0 0 0-.06-2.91 2.07 2.07 0 0 1 .77-2.06 5.44 5.44 0 0 1 3.09.32 26.36 26.36 0 0 0 4.12 1.05 93.08 93.08 0 0 0 9.52.08l1.69-.06h1.08a4.83 4.83 0 0 0-.73-1.39zM158.24 93a9.8 9.8 0 0 0 .63 1.05 9.17 9.17 0 0 1 1.41 3.23 7.26 7.26 0 0 1-.4 3.23 21.48 21.48 0 0 0-1 3.25 19.78 19.78 0 0 0-.3 3.29 2.45 2.45 0 0 1-1.15 2.16 6.76 6.76 0 0 1-3.51-.13 21.08 21.08 0 0 0-4.68-.62 20.86 20.86 0 0 0-4.65.68c-1.28.36-3.36.84-4.64 1s-5.35.56-9.05.77a64.11 64.11 0 0 0-8.24.85 7.55 7.55 0 0 0-2.37 1.23 2.11 2.11 0 0 0-.69 1.69 4.71 4.71 0 0 0 1.35 2 9.21 9.21 0 0 1 1.72 2.18 4.75 4.75 0 0 1 .43 2.18 15.44 15.44 0 0 1-.5 2.38 28.61 28.61 0 0 1-1.07 2.8 2.14 2.14 0 0 0-.12 2 3.24 3.24 0 0 0 2.33 0 17 17 0 0 1 3.41-.53 12.65 12.65 0 0 1 3.1.38 14.76 14.76 0 0 0 2.49.43c0-.21.06-.4.08-.56a2.89 2.89 0 0 0 0-.44 4.94 4.94 0 0 0-.43-1.74 9.21 9.21 0 0 0-1.72-2.18 4.71 4.71 0 0 1-1.35-2A2.11 2.11 0 0 1 130 120a7.55 7.55 0 0 1 2.37-1.23 64.11 64.11 0 0 1 8.24-.85c3.7-.21 7.78-.56 9.05-.77s3.36-.68 4.64-1a20.86 20.86 0 0 1 4.65-.68 21.08 21.08 0 0 1 4.68.62 6.76 6.76 0 0 0 3.51.13 2.45 2.45 0 0 0 1.15-2.16 19.78 19.78 0 0 1 .3-3.29 21.48 21.48 0 0 1 1-3.25 7.26 7.26 0 0 0 .4-3.23 9.17 9.17 0 0 0-1.41-3.23 10.74 10.74 0 0 1-1.51-3.2 7.48 7.48 0 0 1 .09-3.13 1.94 1.94 0 0 0-.46-2.09 5.85 5.85 0 0 0-3.18-.1 35.6 35.6 0 0 1-4.14.51h-1.13zM166.45 47.51c0 .57 0 1.12.06 1.54a20.59 20.59 0 0 0 .64 3.3 12.05 12.05 0 0 1 .43 3.23 12.47 12.47 0 0 1-.66 3.23A23.74 23.74 0 0 0 166 62a18.84 18.84 0 0 0-.28 3 3.33 3.33 0 0 1-.61 2.07 2.29 2.29 0 0 1-1.87.29 7.52 7.52 0 0 0-2.58-.07 10.79 10.79 0 0 0-2.73 1 8.15 8.15 0 0 1-2.81.87 7.44 7.44 0 0 1-2.81-.49 7.54 7.54 0 0 0-2.81-.5 8.18 8.18 0 0 0-2.81.84 5.45 5.45 0 0 1-2.81.56 6.91 6.91 0 0 1-2.81-1.33 8.91 8.91 0 0 0-2.81-1.5 11.17 11.17 0 0 0-4.22.38 42.43 42.43 0 0 1-5.64 1c-1.55.15-3.47.25-4.26.24a4 4 0 0 0-2.08.48 1.83 1.83 0 0 0-.51 1.54 6.15 6.15 0 0 1-.14 2 7.89 7.89 0 0 1-1 2 13 13 0 0 0-1.11 2 9.65 9.65 0 0 0-.56 2 5 5 0 0 0 .18 1.93 6.59 6.59 0 0 0 1.08 1.83 5.72 5.72 0 0 0 2.29 1.34 37.57 37.57 0 0 0 6.09.64h.35a8.36 8.36 0 0 1 .28-.8l.08-.18a13.23 13.23 0 0 1 1-1.8 7.89 7.89 0 0 0 1-2 6.15 6.15 0 0 0 .14-2 1.83 1.83 0 0 1 .51-1.54 4 4 0 0 1 2.08-.48c.79 0 2.7-.1 4.26-.24a42.43 42.43 0 0 0 5.64-1 11.17 11.17 0 0 1 4.22-.38 8.91 8.91 0 0 1 2.81 1.5 6.91 6.91 0 0 0 2.81 1.33 5.45 5.45 0 0 0 2.81-.56 8.18 8.18 0 0 1 2.81-.84 7.54 7.54 0 0 1 2.81.5 7.44 7.44 0 0 0 2.81.49 8.15 8.15 0 0 0 2.81-.87 10.79 10.79 0 0 1 2.73-1 7.52 7.52 0 0 1 2.58.07 2.29 2.29 0 0 0 1.87-.29 3.33 3.33 0 0 0 .61-2.07 18.84 18.84 0 0 1 .28-3 23.74 23.74 0 0 1 .89-3.17 12.47 12.47 0 0 0 .66-3.23 12.05 12.05 0 0 0-.43-3.23 20.59 20.59 0 0 1-.64-3.3 21.7 21.7 0 0 1 0-3.42 4.66 4.66 0 0 0-.68-2.84 5.64 5.64 0 0 0-2.7-1.56 28.78 28.78 0 0 0-3.66-.61c-.49 0-1.12-.06-1.74-.06h-1zM178.56 139.74a8.72 8.72 0 0 0-1.61-3.5 2.93 2.93 0 0 0-2.06-.24 6.27 6.27 0 0 1-2.63 0 9 9 0 0 1-1.65-.7 10.75 10.75 0 0 1-1.19-.71l-.09-.05c.35 1.16.7 2.27.93 2.87a10.12 10.12 0 0 1 .55 3.23 10.51 10.51 0 0 1-.76 3.23 13.38 13.38 0 0 0-.88 3.44 17 17 0 0 0 .2 3.84 3.55 3.55 0 0 1-.48 2.8c-.47.43-3.37.13-6.46-.67s-6.36-1.3-7.28-1.12a10.8 10.8 0 0 0-3.35 1.47 10.29 10.29 0 0 1-3.35 1.43c-.92.16-3.94-.47-6.7-1.4a29.76 29.76 0 0 0-6.7-1.61 11.78 11.78 0 0 0-3.35.77 11.78 11.78 0 0 1-3.35.77 11.23 11.23 0 0 1-3.35-.48 8.83 8.83 0 0 0-3.35-.32 10.56 10.56 0 0 0-3.35 1.25 19.31 19.31 0 0 1-3.35 1.56 15.12 15.12 0 0 1-3.35.62h-3.35c-.92 0-2.43-.18-3.35-.31a17.63 17.63 0 0 1-3.35-.88 22.81 22.81 0 0 1-3.35-1.74 5.82 5.82 0 0 0-.73-.39 4 4 0 0 1-.28 1 3.35 3.35 0 0 1-.34.64 6.08 6.08 0 0 0-.9 2.22 8.29 8.29 0 0 0 .17 2.66 2.22 2.22 0 0 0 1.5 1.63 6.27 6.27 0 0 0 3.08-.86 9.28 9.28 0 0 1 3.74-1 7.74 7.74 0 0 1 3.48 1.1 22.81 22.81 0 0 0 3.35 1.74 17.63 17.63 0 0 0 3.35.88c.92.13 2.43.26 3.35.31s2.43 0 3.35 0a15.12 15.12 0 0 0 3.35-.62 19.31 19.31 0 0 0 3.35-1.56 10.56 10.56 0 0 1 3.35-1.25 8.83 8.83 0 0 1 3.35.32 11.23 11.23 0 0 0 3.35.48 11.78 11.78 0 0 0 3.35-.77 11.78 11.78 0 0 1 3.35-.77 29.76 29.76 0 0 1 6.7 1.61c2.76.93 5.78 1.55 6.7 1.4a10.29 10.29 0 0 0 3.35-1.43 10.8 10.8 0 0 1 3.35-1.47c.92-.18 4.2.33 7.28 1.12s6 1.09 6.46.67a3.55 3.55 0 0 0 .48-2.8 17 17 0 0 1-.2-3.84 13.38 13.38 0 0 1 .88-3.44 10.51 10.51 0 0 0 .76-3.23 10.12 10.12 0 0 0-.55-3.23c-.33-1-.98-3.05-1.42-4.67z" fill="#231f20"/></svg>