<svg xmlns="http://www.w3.org/2000/svg" width="186" height="200" viewBox="0 0 186 200"><title>_</title><path d="M22.16 154.37a11.94 11.94 0 0 0 3.84.54 12.91 12.91 0 0 0 3.88-1.11 13.07 13.07 0 0 1 5.26-1.22 15.27 15.27 0 0 1 5.42 1.4 9.22 9.22 0 0 0 2.65.86.64.64 0 0 0 .08-.31 21.61 21.61 0 0 1 .22-3.15 23 23 0 0 1 1.72-4.54 18.23 18.23 0 0 0 1.38-3.66 14.27 14.27 0 0 0-.05-2.57 3.45 3.45 0 0 1 1.63-3.61 6.56 6.56 0 0 1 4.21.28 24.93 24.93 0 0 0 3.83 1c.89.13 4.91.19 9.26.06s8.38-.38 9.28-.54 2.72-.39 3.69.32a2 2 0 0 1 .73 2.13 4 4 0 0 1-.71 1.55 3.48 3.48 0 0 0-.57 1.39 2.66 2.66 0 0 0 .51 1.19 6.32 6.32 0 0 1 1 1.8 4.12 4.12 0 0 1 .27 1.11 5.17 5.17 0 0 1-.93 3 4.69 4.69 0 0 0-.64 1.57 6.85 6.85 0 0 0 .14 2.08 1 1 0 0 0 .37.53 7.27 7.27 0 0 0 2-.72 10.76 10.76 0 0 1 4.44-1.22 9.12 9.12 0 0 1 3.4.84 7.24 7.24 0 0 1 .92.5 21.26 21.26 0 0 0 3.08 1.6 16 16 0 0 0 3 .79c.87.12 2.34.25 3.22.3s2.32 0 3.22 0a13.72 13.72 0 0 0 2.95-.54 18 18 0 0 0 3-1.42 11.92 11.92 0 0 1 3.92-1.46 10.26 10.26 0 0 1 4 .39 10.15 10.15 0 0 0 2.81.41 10.52 10.52 0 0 0 2.83-.66 13.36 13.36 0 0 1 3.86-.89c1.41-.11 5.37 1.06 7.24 1.69a23.17 23.17 0 0 0 6 1.34 9 9 0 0 0 2.76-1.19 12.12 12.12 0 0 1 3.92-1.7c1.47-.28 5.56.53 7.94 1.14a22.52 22.52 0 0 0 5 .82 3.45 3.45 0 0 0 0-1.23 18.42 18.42 0 0 1-.21-4.25 14.85 14.85 0 0 1 1-3.9 9.16 9.16 0 0 0 .64-2.68 8.73 8.73 0 0 0-.46-2.66c-.23-.6-.58-1.71-1-3-.17-.59-.35-1.18-.5-1.73a10.8 10.8 0 0 0-1.08-2.7 2.38 2.38 0 0 0-.78 0 7.65 7.65 0 0 1-3.38-.06 12.23 12.23 0 0 1-3.32-1.63 5.56 5.56 0 0 0-2.17-.86 4.93 4.93 0 0 0-2.1.57 22.34 22.34 0 0 1-3.21 1.5 18.15 18.15 0 0 1-3.26.77 17.16 17.16 0 0 1-3.28 0A18.22 18.22 0 0 1 132 132a12 12 0 0 0-2.55-.5 10.91 10.91 0 0 0-2.53.22 16.81 16.81 0 0 1-3.31.33h-.45a16.48 16.48 0 0 1-2.87-.49 11.24 11.24 0 0 0-2.66-.33 15.6 15.6 0 0 0-3 .47c-.43.12-2.64.66-3.75-.36s-.75-2.58-.23-3.73a27 27 0 0 0 1-2.62 14 14 0 0 0 .45-2.1 3.36 3.36 0 0 0-.28-1.36 7.8 7.8 0 0 0-1.39-1.73 6 6 0 0 1-1.81-2.85 3.56 3.56 0 0 1 1.17-3.07 8.84 8.84 0 0 1 2.93-1.54 64.68 64.68 0 0 1 8.6-.91c3.6-.21 7.67-.55 8.89-.75s3.24-.66 4.47-1a22.17 22.17 0 0 1 5.05-.74 22.43 22.43 0 0 1 5.08.67 6.17 6.17 0 0 0 2.53.2 1.53 1.53 0 0 0 .24-.77 21.1 21.1 0 0 1 .33-3.59 22.84 22.84 0 0 1 1.05-3.53 5.73 5.73 0 0 0 .31-2.44 7.75 7.75 0 0 0-1.27-2.65 11.21 11.21 0 0 1-.74-1.22 11.33 11.33 0 0 1-1-2.53 9 9 0 0 1 .12-3.87 1.12 1.12 0 0 0 0-.42 7.18 7.18 0 0 0-2 .11 36.57 36.57 0 0 1-4.8.56 89.89 89.89 0 0 1-9.5-.83c-3.61-.47-8.47-.94-11.07-1.07h-.34a38.1 38.1 0 0 1-6.45-.71 7.08 7.08 0 0 1-3-1.8 7.93 7.93 0 0 1-1.37-2.33 6.47 6.47 0 0 1-.24-2.62 11.08 11.08 0 0 1 .66-2.35 14.73 14.73 0 0 1 1.26-2.26 6.4 6.4 0 0 0 .76-1.54 4.74 4.74 0 0 0 .1-1.45 3.28 3.28 0 0 1 1.08-2.92 5.37 5.37 0 0 1 3-.8 39.43 39.43 0 0 0 4.1-.24 41.19 41.19 0 0 0 5.39-1 12.38 12.38 0 0 1 5-.39 10.29 10.29 0 0 1 3.47 1.85 5.59 5.59 0 0 0 2.07 1 4.09 4.09 0 0 0 1.9-.4 9.65 9.65 0 0 1 3.43-1 8.87 8.87 0 0 1 3.48.61 5.77 5.77 0 0 0 2.13.38 6.69 6.69 0 0 0 2.19-.69 12.07 12.07 0 0 1 3.2-1.17 9 9 0 0 1 3.19.09 1.35 1.35 0 0 0 .48 0 3.19 3.19 0 0 0 .14-.9 20.28 20.28 0 0 1 .31-3.33 25.56 25.56 0 0 1 1-3.41 11 11 0 0 0 .56-2.77 10.62 10.62 0 0 0-.37-2.75 21.9 21.9 0 0 1-.7-3.59c0-.45-.06-1-.07-1.68s0-1.48.08-2a3.32 3.32 0 0 0-.37-1.79 4.43 4.43 0 0 0-1.87-1 27.57 27.57 0 0 0-3.43-.58 23.84 23.84 0 0 0-3.29 0c-1 .09-2.65.13-3.66.1s-2.65-.18-3.66-.33a21.89 21.89 0 0 0-3.22-.19c-.67 0-4.87.74-10.18 1.88-.37.08-9.05 1.93-11.07 1.52a13.43 13.43 0 0 1-4-1.72 15.32 15.32 0 0 0-3.1-1.51 11 11 0 0 0-3-.41 25.36 25.36 0 0 0-3.24.39 28.1 28.1 0 0 0-3.27.92 18.63 18.63 0 0 1-3.85.88 17.59 17.59 0 0 1-3.88-.14 26.29 26.29 0 0 0-3.26-.29c-.89 0-4 .21-6.79.48a39.25 39.25 0 0 1-7.38.17 21.62 21.62 0 0 1-3.8-1.16 7.1 7.1 0 0 0-2.75-.44 8.44 8.44 0 0 0-2.84 1.07A16.63 16.63 0 0 1 59.6 47a13 13 0 0 1-4 .34c-.85-.09-2.31-.14-3.16-.16a26 26 0 0 0-2.79.19 7.06 7.06 0 0 0-2.08.73 9.18 9.18 0 0 0-1.86 1.64A21.75 21.75 0 0 0 44 52.25c-.32.57-1.65 4-3.07 8.14a90.34 90.34 0 0 1-3.36 8.79 10.06 10.06 0 0 0-.95 2.93 12.8 12.8 0 0 0 .21 3.43 10.94 10.94 0 0 1 0 4.56 10.23 10.23 0 0 1-2.37 3.9c-.74.75-1.89 2.06-2.51 2.85a35.25 35.25 0 0 0-2 3 9.42 9.42 0 0 0-1 2.88 12 12 0 0 0 .21 3.4 16.4 16.4 0 0 1 .33 4.43c-.15 1.58-2.77 7.23-4.49 10.64-2.47 4.89-4.43 9-4.72 9.8s-.79 2.4-1 3.34a25.75 25.75 0 0 0-.56 3.4 28.85 28.85 0 0 0 0 3.62 18.18 18.18 0 0 1-.25 4.19 16.6 16.6 0 0 1-1.47 3.77 34.1 34.1 0 0 1-2.12 3.36 38.13 38.13 0 0 1-2.65 3.16 10.52 10.52 0 0 0-1.74 2.63 8.62 8.62 0 0 0-.47 2.86 2.62 2.62 0 0 0 .57 1.5 4.5 4.5 0 0 0 2.21.31 24.7 24.7 0 0 1 4.65.08c.46.06 1 .16 1.64.3a27.87 27.87 0 0 1 3.07.85z"/><path d="M35.82 163.35a14.33 14.33 0 0 0 4.45-1.26 11.69 11.69 0 0 1 4.56-1.09 13.78 13.78 0 0 1 4.79 1.24 8.38 8.38 0 0 0 3.67 1 1.77 1.77 0 0 0 1.21-1.81 20.28 20.28 0 0 1 .2-2.89 22.35 22.35 0 0 1 1.59-4.14 18.47 18.47 0 0 0 1.52-4.15 15.62 15.62 0 0 0-.06-2.91 2.07 2.07 0 0 1 .77-2.06 5.45 5.45 0 0 1 3.09.32 26.36 26.36 0 0 0 4.12 1.05 93.23 93.23 0 0 0 9.52.08l1.69-.06h1.08a4.83 4.83 0 0 0-.75-1.36 4 4 0 0 1-.85-2.14 4.68 4.68 0 0 1 .86-2.28c.47-.64.61-1.36.3-1.58a4.75 4.75 0 0 0-2.54-.06c-1.09.19-5.37.45-9.5.57a93.23 93.23 0 0 1-9.52-.08 26.36 26.36 0 0 1-4.12-1.05 5.45 5.45 0 0 0-3.09-.32 2.07 2.07 0 0 0-.77 2.06 15.62 15.62 0 0 1 .06 2.91 18.47 18.47 0 0 1-1.52 4.15 22.35 22.35 0 0 0-1.58 4.14 20.28 20.28 0 0 0-.2 2.89 1.77 1.77 0 0 1-1.21 1.81 8.38 8.38 0 0 1-3.67-1 13.78 13.78 0 0 0-4.79-1.24 11.69 11.69 0 0 0-4.56 1.06 14.33 14.33 0 0 1-4.45 1.26 13.15 13.15 0 0 1-4.45-.63 26.26 26.26 0 0 0-2.89-.8 8 8 0 0 0-.27 1 9.91 9.91 0 0 0-.26 2.38 3.87 3.87 0 0 0 1.18 2.64 5.58 5.58 0 0 0 3.24.6 22.65 22.65 0 0 1 4.31.08 26.35 26.35 0 0 1 4.4 1.07 13.15 13.15 0 0 0 4.44.6zM122.79 120.66a64.12 64.12 0 0 1 8.24-.85c3.7-.21 7.78-.56 9.05-.77s3.36-.68 4.64-1a20.89 20.89 0 0 1 4.65-.68 21.11 21.11 0 0 1 4.68.62 6.76 6.76 0 0 0 3.51.13 2.45 2.45 0 0 0 1.15-2.16 19.77 19.77 0 0 1 .3-3.29 21.48 21.48 0 0 1 1-3.25 7.26 7.26 0 0 0 .4-3.23 9.17 9.17 0 0 0-1.41-3.28 10.73 10.73 0 0 1-1.51-3.2 7.48 7.48 0 0 1 .09-3.13 1.94 1.94 0 0 0-.46-2.1 5.85 5.85 0 0 0-3.18-.1 35.6 35.6 0 0 1-4.14.51h-1.13a9.77 9.77 0 0 0 .63 1.05 9.17 9.17 0 0 1 1.41 3.23 7.26 7.26 0 0 1-.4 3.23 21.48 21.48 0 0 0-1 3.25A19.77 19.77 0 0 0 149 109a2.45 2.45 0 0 1-1.15 2.16 6.76 6.76 0 0 1-3.51-.13 21.11 21.11 0 0 0-4.68-.62 20.89 20.89 0 0 0-4.65.68c-1.28.37-3.36.84-4.64 1s-5.35.56-9.05.77a64.12 64.12 0 0 0-8.24.85 7.55 7.55 0 0 0-2.37 1.23 2.11 2.11 0 0 0-.69 1.69 4.71 4.71 0 0 0 1.35 2 9.21 9.21 0 0 1 1.72 2.18 4.75 4.75 0 0 1 .43 2.18 15.44 15.44 0 0 1-.5 2.38 28.63 28.63 0 0 1-1.07 2.8 2.14 2.14 0 0 0-.12 2 3.24 3.24 0 0 0 2.33 0 17 17 0 0 1 3.41-.52 12.65 12.65 0 0 1 3.1.38 14.74 14.74 0 0 0 2.49.43c0-.21.06-.4.08-.56a2.89 2.89 0 0 0 0-.44 4.94 4.94 0 0 0-.43-1.74 9.21 9.21 0 0 0-1.72-2.18 4.71 4.71 0 0 1-1.35-2 2.11 2.11 0 0 1 .69-1.69 7.55 7.55 0 0 1 2.36-1.19zM157.54 54.22a12.05 12.05 0 0 1 .43 3.23 12.47 12.47 0 0 1-.66 3.23 23.75 23.75 0 0 0-.89 3.17 18.84 18.84 0 0 0-.28 3 3.33 3.33 0 0 1-.61 2.07 2.3 2.3 0 0 1-1.87.29 7.5 7.5 0 0 0-2.58-.07 10.79 10.79 0 0 0-2.73 1 8.15 8.15 0 0 1-2.81.87 7.45 7.45 0 0 1-2.81-.49 7.54 7.54 0 0 0-2.81-.5 8.18 8.18 0 0 0-2.81.84 5.44 5.44 0 0 1-2.81.56 6.91 6.91 0 0 1-2.81-1.33 8.91 8.91 0 0 0-2.81-1.5 11.17 11.17 0 0 0-4.22.38 42.43 42.43 0 0 1-5.64 1c-1.55.15-3.47.25-4.26.24a4 4 0 0 0-2.08.48 1.83 1.83 0 0 0-.51 1.54 6.15 6.15 0 0 1-.14 2 7.89 7.89 0 0 1-1 2 13 13 0 0 0-1.11 2 9.65 9.65 0 0 0-.56 2 5 5 0 0 0 .18 1.93 6.59 6.59 0 0 0 1.08 1.83 5.72 5.72 0 0 0 2.29 1.34 37.57 37.57 0 0 0 6.09.64h.35a8.36 8.36 0 0 1 .28-.8l.08-.18a13.23 13.23 0 0 1 1-1.8 7.89 7.89 0 0 0 1-2 6.15 6.15 0 0 0 .14-2 1.83 1.83 0 0 1 .51-1.54 4 4 0 0 1 2.08-.48c.79 0 2.7-.1 4.26-.24a42.43 42.43 0 0 0 5.64-1 11.17 11.17 0 0 1 4.22-.38 8.91 8.91 0 0 1 2.81 1.5 6.91 6.91 0 0 0 2.83 1.38 5.44 5.44 0 0 0 2.81-.56 8.18 8.18 0 0 1 2.81-.84 7.54 7.54 0 0 1 2.81.5 7.45 7.45 0 0 0 2.81.49 8.15 8.15 0 0 0 2.81-.87 10.79 10.79 0 0 1 2.73-1 7.5 7.5 0 0 1 2.58.07 2.3 2.3 0 0 0 1.87-.29 3.33 3.33 0 0 0 .61-2.07 18.84 18.84 0 0 1 .28-3 23.75 23.75 0 0 1 .89-3.17 12.47 12.47 0 0 0 .66-3.23 12.05 12.05 0 0 0-.43-3.23 20.58 20.58 0 0 1-.64-3.3 21.7 21.7 0 0 1 0-3.42 4.66 4.66 0 0 0-.68-2.84 5.64 5.64 0 0 0-2.7-1.56 28.73 28.73 0 0 0-3.66-.61c-.49 0-1.12-.06-1.74-.06h-1c0 .57 0 1.12.06 1.54a20.58 20.58 0 0 0 .66 3.24zM169 141.61a8.71 8.71 0 0 0-1.61-3.5 2.92 2.92 0 0 0-2.06-.24 6.27 6.27 0 0 1-2.63 0 9 9 0 0 1-1.65-.7 10.79 10.79 0 0 1-1.19-.71l-.09-.05c.35 1.16.7 2.27.93 2.87a10.12 10.12 0 0 1 .55 3.23 10.51 10.51 0 0 1-.76 3.23 13.38 13.38 0 0 0-.88 3.44 17 17 0 0 0 .2 3.84 3.55 3.55 0 0 1-.48 2.8c-.47.43-3.37.13-6.46-.67s-6.36-1.3-7.28-1.12a10.8 10.8 0 0 0-3.35 1.47 10.3 10.3 0 0 1-3.35 1.43c-.92.16-3.94-.47-6.7-1.4a29.74 29.74 0 0 0-6.7-1.61 11.78 11.78 0 0 0-3.35.77 11.78 11.78 0 0 1-3.35.77 11.25 11.25 0 0 1-3.35-.48 8.82 8.82 0 0 0-3.35-.32 10.56 10.56 0 0 0-3.35 1.25 19.33 19.33 0 0 1-3.35 1.56 15.13 15.13 0 0 1-3.39.53h-3.35c-.92 0-2.43-.18-3.35-.31a17.65 17.65 0 0 1-3.35-.88 22.81 22.81 0 0 1-3.35-1.74 5.82 5.82 0 0 0-.73-.39 4 4 0 0 1-.28 1 3.34 3.34 0 0 1-.34.64 6.08 6.08 0 0 0-.9 2.22 8.29 8.29 0 0 0 .17 2.66 2.22 2.22 0 0 0 1.5 1.63 6.27 6.27 0 0 0 3.08-.86 9.28 9.28 0 0 1 3.74-1 7.74 7.74 0 0 1 3.48 1.1 22.81 22.81 0 0 0 3.35 1.74 17.65 17.65 0 0 0 3.35.88c.92.13 2.43.26 3.35.31s2.43 0 3.35 0a15.13 15.13 0 0 0 3.35-.62 19.33 19.33 0 0 0 3.35-1.56 10.56 10.56 0 0 1 3.35-1.25 8.82 8.82 0 0 1 3.35.32 11.25 11.25 0 0 0 3.35.48 11.78 11.78 0 0 0 3.35-.77 11.78 11.78 0 0 1 3.35-.77 29.74 29.74 0 0 1 6.7 1.61c2.76.93 5.78 1.55 6.7 1.4a10.3 10.3 0 0 0 3.35-1.43 10.8 10.8 0 0 1 3.35-1.47c.92-.18 4.2.33 7.28 1.12s6 1.09 6.46.67a3.55 3.55 0 0 0 .48-2.8 17 17 0 0 1-.2-3.84 13.38 13.38 0 0 1 .88-3.44 10.51 10.51 0 0 0 .76-3.23 10.12 10.12 0 0 0-.55-3.23c-.38-.91-.98-2.96-1.38-4.58z"/></svg>