<svg xmlns="http://www.w3.org/2000/svg" width="117.76" height="200" viewBox="0 0 117.76 200"><title>_</title><path d="M.88 107.52a23.93 23.93 0 0 0 1.49 3.58 16.18 16.18 0 0 1 1.48 4.42 17.66 17.66 0 0 1-.07 4.76 11.08 11.08 0 0 0 0 3.47 7.77 7.77 0 0 0 1.35 2.64 17 17 0 0 1 2.25 3.53 18.36 18.36 0 0 1 1.2 4.08 13.51 13.51 0 0 0 1 3.23 30.39 30.39 0 0 0 4.68 5 44.55 44.55 0 0 0 5.55 4.43 20.28 20.28 0 0 0 2.32 1c.33.11.64.21.91.29a20 20 0 0 1 3.84 1.56 20.31 20.31 0 0 1 3.33 2.49 19.82 19.82 0 0 0 2.89 2.15 23.15 23.15 0 0 0 3.5 1.58 18.67 18.67 0 0 0 3.79.77 19.75 19.75 0 0 0 3.95-.21c1.25-.22 3.09-.45 4.11-.52a3.32 3.32 0 0 1 2.67.87 2 2 0 0 1 .54 1.68 14.82 14.82 0 0 1-1.33 4.31 7.48 7.48 0 0 1-1.65 2.12 8.9 8.9 0 0 1-1.3.88 9.71 9.71 0 0 1-1.14.57 3.05 3.05 0 0 0-1 .7 1.89 1.89 0 0 0-.1.84 7 7 0 0 1 0 2.33 2.69 2.69 0 0 1-1.56 1.93h-.06v.09l.35-.06c.15 0 1.47-.68 3.23-1.64a15.5 15.5 0 0 1 5.22-1.87 7.51 7.51 0 0 1 3.82 1.09 6.86 6.86 0 0 1 .92.76 6.07 6.07 0 0 1 1.41 1.89c.65 1.61-.6 4.68-.65 4.81a30.36 30.36 0 0 0-1.09 3 9.52 9.52 0 0 0-.07 1.22 7 7 0 0 1-.23 1.87 4.24 4.24 0 0 1-.92 1.59 2.33 2.33 0 0 1-2.45.53 6.77 6.77 0 0 1-2.09-2c-.3-.39-.6-.77-.84-1.06a7.39 7.39 0 0 0-.81.79 4.31 4.31 0 0 1-2.82 1.57 3.41 3.41 0 0 1-2.68-1.83 8.65 8.65 0 0 0-1.06-1.44 4 4 0 0 0-1-.67 12.93 12.93 0 0 0-1.58-.47c-.52-.12-1.52-.28-2.18-.35a3.57 3.57 0 0 0-.51 0c.1.37.24.83.34 1.1a11.63 11.63 0 0 0 .63 1.34 2.53 2.53 0 0 1-.08 2.86 3.17 3.17 0 0 1-1.87.88l.26.36a13.42 13.42 0 0 0 2.29 2.43 22.69 22.69 0 0 0 4.42 1c.58.09 1.17.17 1.74.24a20.82 20.82 0 0 0 3.09.21 13.18 13.18 0 0 0 2.35-.54 12 12 0 0 1 3.31-.58 14.46 14.46 0 0 1 3.49.48 12.48 12.48 0 0 0 2.75.35 11.75 11.75 0 0 0 2.72-.48l.16-.06.38-.15a8 8 0 0 0 1.68-1 44.9 44.9 0 0 0 3.77-7.21 45.91 45.91 0 0 0 2.73-7.21 4.39 4.39 0 0 0-.61-1.18 5.94 5.94 0 0 0-.44-.47 7.47 7.47 0 0 0-1-.85 7.34 7.34 0 0 0-1.75-.75A8.17 8.17 0 0 1 65 169.2a11.58 11.58 0 0 1-1.82-2c-.14-.2-.28-.39-.4-.57a5.49 5.49 0 0 0-.54-.72 5.75 5.75 0 0 1-1.18 1.18 3.37 3.37 0 0 1-1 .45 2.93 2.93 0 0 1-1.08.09 4.24 4.24 0 0 1-2-1 10.69 10.69 0 0 1-1.28-1.41l-.3-.4a3.09 3.09 0 0 0-.46-.52 2 2 0 0 1-1.14-.82 1.68 1.68 0 0 1-.26-1 6.34 6.34 0 0 0-.24-.78 4.42 4.42 0 0 1-.12-2.83 3.5 3.5 0 0 1 2.17-1.85 4.41 4.41 0 0 0 1-.49 4.78 4.78 0 0 0 .39-.32 1.86 1.86 0 0 1 1.84-.62c.47 0 1.79.38 2.43.55a15.09 15.09 0 0 0 3 .39 13 13 0 0 0 2.91-.47A29.45 29.45 0 0 0 70 155a30.07 30.07 0 0 0 2.85-1.56 11.08 11.08 0 0 1 3.7-1.41 12.42 12.42 0 0 1 4.06.19 5.15 5.15 0 0 0 2.33 0 4.36 4.36 0 0 0 1.59-1.44 24.44 24.44 0 0 1 2.16-2.91 19.17 19.17 0 0 1 2.51-2.29 17 17 0 0 1 3-1.68 23 23 0 0 1 3.62-1.06 5.27 5.27 0 0 0 2.12-1 4.64 4.64 0 0 0 .94-2 14.15 14.15 0 0 1 1.21-3.61 12.26 12.26 0 0 1 2.29-2.9 5.73 5.73 0 0 0 1.29-1.93 8 8 0 0 0 .24-2.72 13 13 0 0 1 .29-4.07A11.86 11.86 0 0 1 106 121a14.72 14.72 0 0 0 1.52-2.58 10 10 0 0 0 .35-1 11.67 11.67 0 0 0 .38-1.68 2.2 2.2 0 0 0-.38-1.39 32.76 32.76 0 0 0-6.69-1.68 82 82 0 0 0-8.46-1.07 69.88 69.88 0 0 0-8.38 1.24 24.53 24.53 0 0 0-6.74 2 4 4 0 0 0-.61 2 18.74 18.74 0 0 1-.48 4.09 19.57 19.57 0 0 1-1.51 3.94 11.78 11.78 0 0 1-2.79 3.28 11.9 11.9 0 0 1-3.93 1.79 28.5 28.5 0 0 0-3.59 1.14 33.28 33.28 0 0 0-3.57 1.78 10.78 10.78 0 0 1-4.19 1.4 5.75 5.75 0 0 1-2.78-.76 23.33 23.33 0 0 1-3.59-2.07 77.94 77.94 0 0 1-6.75-5.35 46.08 46.08 0 0 1-4.35-4.57c-.78-1-2.85-4.27-4.62-7.22-1.32-2.21-3.37-5.93-3.64-7.13a11 11 0 0 1-.14-3.41 17.64 17.64 0 0 1 .93-3.4 27.8 27.8 0 0 1 1.81-3.55 21.1 21.1 0 0 0 1.55-3.15 16 16 0 0 0 .72-3.06 27.3 27.3 0 0 0 .12-3.09 22.65 22.65 0 0 0-.32-2.87 16.44 16.44 0 0 1-.24-3.32 15.27 15.27 0 0 1 .58-3.23 8.39 8.39 0 0 1 2.18-3.25 17.4 17.4 0 0 1 3.9-2.41 33.71 33.71 0 0 1 4.52-1.57 25.91 25.91 0 0 1 4.39-.63 25.42 25.42 0 0 0 3.8-.47 30.74 30.74 0 0 0 3.88-1.21 8.37 8.37 0 0 1 4.57-.49c2.07.53 4.95 5 5.27 5.45.55.86 1.12 1.77 1.63 2.62.61 1 1.7 2.83 2.11 3.72s1.22 2.84 1.68 4.11a4.85 4.85 0 0 0 1.63 2.2 18.2 18.2 0 0 0 4.73-.36c.85-.14 1.7-.3 2.53-.49a74.12 74.12 0 0 1 9.17-1.61c1.31 0 5.19.27 8.83.68a41.19 41.19 0 0 0 5.3.32 16.44 16.44 0 0 1-1.61-3.41 15 15 0 0 1-.57-3.64c0-.83-.21-3-.45-4.75a60.28 60.28 0 0 0-1.24-6.21 28.31 28.31 0 0 0-1.46-4.19c-.14-.27-.35-.61-.56-1a17 17 0 0 0-1-1.4 12 12 0 0 0-1.94-1.84A13.27 13.27 0 0 0 95 57c-.33-.12-.74-.29-1.15-.48-.78-.35-1.51-.71-2-1-.27-.16-.68-.44-1.26-.86-1.11-.8-2.65-2-4-3.16a30.62 30.62 0 0 0-4.75-3.4 11.21 11.21 0 0 0-2.68-.59 14.71 14.71 0 0 1-3.78-.89 20.13 20.13 0 0 1-3.67-2.08 8.11 8.11 0 0 0-2.85-1.23 8.46 8.46 0 0 0-3.16.33 30.23 30.23 0 0 1-4.21 1 25.11 25.11 0 0 1-4.1.22 35.5 35.5 0 0 1-4-.46 38.37 38.37 0 0 1-3.95-1 15.77 15.77 0 0 0-3.34-.61 13.87 13.87 0 0 0-3.27.33 27.91 27.91 0 0 0-3.33 1.1 27.68 27.68 0 0 0-3.13 1.62 32.41 32.41 0 0 1-3.49 1.82 29.45 29.45 0 0 1-3.63 1.24 17.56 17.56 0 0 0-3 1.12 17.53 17.53 0 0 0-2.62 1.75 26.83 26.83 0 0 0-2.36 2.3 26.81 26.81 0 0 0-2 2.64 12 12 0 0 1-2.93 3 16.47 16.47 0 0 1-4.11 1.83 10.18 10.18 0 0 0-3 1.48A25.32 25.32 0 0 0 6 68.85a61.93 61.93 0 0 0-2.65 6.83 25.26 25.26 0 0 0-.5 3.77 33.2 33.2 0 0 1-.56 4.42A32.3 32.3 0 0 1 1 88.12a23.85 23.85 0 0 0-1 3.69 55.36 55.36 0 0 0 0 7.88 54.2 54.2 0 0 0 .88 7.83z"/><path d="M66.13 189.42a9.34 9.34 0 0 1-2 1.25.86.86 0 0 1-.46.18l-.23.09a13.22 13.22 0 0 1-3.16.55 13.21 13.21 0 0 1-3.18-.41 13.36 13.36 0 0 0-3.07-.43 10.63 10.63 0 0 0-2.83.49 14.59 14.59 0 0 1-2.68.62 21.48 21.48 0 0 1-3.43-.22 3.24 3.24 0 0 0-1 .24.68.68 0 0 0 .13.65 11.1 11.1 0 0 0 1.14 1.78A13.93 13.93 0 0 0 48 197a21.54 21.54 0 0 0 5 1.22 30.72 30.72 0 0 0 5.22.46 14.59 14.59 0 0 0 2.68-.62 10.63 10.63 0 0 1 2.83-.49 13.36 13.36 0 0 1 3.07.43 13.21 13.21 0 0 0 3.18.41 13.22 13.22 0 0 0 3.16-.55 9.43 9.43 0 0 0 2.74-1.53c.64-.56 2.51-4 4.15-7.73s2.93-7.22 2.86-7.84a4.87 4.87 0 0 0-.94-2.11A9.34 9.34 0 0 0 80.1 177a8.81 8.81 0 0 0-2.2-.94 6.87 6.87 0 0 1-2.23-1.06 10.44 10.44 0 0 1-1.67-1.91l-.22-.31a5 5 0 0 0-1.55-1.65.83.83 0 0 0-.59 0 7.56 7.56 0 0 1 .56.59 4.87 4.87 0 0 1 .94 2.11c.07.61-1.21 4.14-2.86 7.84s-3.51 7.19-4.15 7.75zM47.36 85.48a7.07 7.07 0 0 1 1.75-2.58 15.93 15.93 0 0 1 3.5-2.15 31.64 31.64 0 0 1 4.28-1.48 24 24 0 0 1 4.11-.59 26.91 26.91 0 0 0 4-.52 31.23 31.23 0 0 0 3.08-.9l1-.35c-.51-.85-1.07-1.74-1.61-2.59-1.6-2.42-3.57-4.59-4.47-4.81a7.06 7.06 0 0 0-3.63.43 32 32 0 0 1-4.11 1.28 26.91 26.91 0 0 1-4 .52 24 24 0 0 0-4.09.59 31.64 31.64 0 0 0-4.28 1.48A15.93 15.93 0 0 0 39.4 76a7.07 7.07 0 0 0-1.75 2.58 13.8 13.8 0 0 0-.51 2.85 14.82 14.82 0 0 0 .22 3 24.22 24.22 0 0 1 .35 3.11 28.56 28.56 0 0 1-.12 3.3 17.47 17.47 0 0 1-.8 3.41 22.7 22.7 0 0 1-1.68 3.43 26.06 26.06 0 0 0-1.69 3.31 16.07 16.07 0 0 0-.84 3.05 9.58 9.58 0 0 0 .12 2.87 44 44 0 0 0 3.47 6.69c1.73 2.9 3.77 6.09 4.52 7.08a44.35 44.35 0 0 0 4.15 4.32 76.42 76.42 0 0 0 6.59 5.23 22.08 22.08 0 0 0 3.36 1.93l-.24-.21c-.84-.78-1.78-1.71-2.59-2.57s-1.24-1.36-1.59-1.81c-.76-1-2.79-4.18-4.52-7.08a44 44 0 0 1-3.47-6.69 9.58 9.58 0 0 1-.12-2.87 16.07 16.07 0 0 1 .84-3.05 26.06 26.06 0 0 1 1.69-3.31 22.7 22.7 0 0 0 1.68-3.43 17.47 17.47 0 0 0 .8-3.41 28.56 28.56 0 0 0 .12-3.3 24.22 24.22 0 0 0-.35-3.11 14.82 14.82 0 0 1-.22-3 13.8 13.8 0 0 1 .54-2.84zM52.76 177.52a1.92 1.92 0 0 0-.74.54 2 2 0 0 0-.3.88 2.73 2.73 0 0 0 .08.88 1.24 1.24 0 0 0 .4.55 1.64 1.64 0 0 0 .71.21 4.31 4.31 0 0 0 1-.13l.25-.09c.24-.1.6-.27 1.05-.49a27 27 0 0 1 1.18-3.3 6.86 6.86 0 0 0 .65-3.68 4.62 4.62 0 0 0-1.04-1.42c-.22.11-.43.22-.63.3s-.23.11-.35.17a4 4 0 0 0-1.34 1.06 3.14 3.14 0 0 0-.32 1.9 5.68 5.68 0 0 1 0 1.75 1.25 1.25 0 0 1-.6.87zM91.5 53.45c.49.36.89.63 1.13.77.48.28 1.19.63 1.87.93a15 15 0 0 0-2.39-1.5c-.18-.06-.39-.13-.61-.2zM100.84 85.88c-3.56-.4-7.44-.71-8.63-.67a73.42 73.42 0 0 0-8.88 1.58c-.88.2-1.77.37-2.62.51l.07.14c.1.23.23.5.35.79.42 1 .93 2.25 1.27 3.19a6.19 6.19 0 0 0 2.36 3c.86.44 4.58.12 8.27-.72a73.42 73.42 0 0 1 8.88-1.58c1.19 0 5.07.27 8.63.67s6.73.45 7.06.1.17-1.3-.35-2.12a15.06 15.06 0 0 1-1.44-3 13.51 13.51 0 0 1-.5-3.21c0-.91-.22-3.13-.47-4.94a62.2 62.2 0 0 0-1.28-6.39 29.09 29.09 0 0 0-1.56-4.49 19.63 19.63 0 0 0-1.69-2.6 13.36 13.36 0 0 0-2.22-2.14 14.57 14.57 0 0 0-2.82-1.48c-.53-.2-1.24-.51-1.89-.83-.39-.19-.76-.38-1-.54s-.39-.24-.65-.43c.24.38.47.76.63 1.06a29.09 29.09 0 0 1 1.55 4.47 62.2 62.2 0 0 1 1.28 6.39c.25 1.81.46 4 .47 4.94a13.51 13.51 0 0 0 .5 3.21 15.06 15.06 0 0 0 1.44 3c.52.82.68 1.77.35 2.12s-3.56.37-7.11-.03zM38.9 160a21.32 21.32 0 0 0 3.16 2.35 25 25 0 0 0 3.22 1.51l.55.2c.24.08.51.16.8.24a7.35 7.35 0 0 0 1.07-.72A6.13 6.13 0 0 0 49 162a16 16 0 0 0 .75-1.92 15.73 15.73 0 0 0 .44-1.94c.08-.53-.65-.91-1.62-.84s-2.74.29-4 .5a21.35 21.35 0 0 1-4.32.23 20.23 20.23 0 0 1-4.16-.85 24.83 24.83 0 0 1-3.77-1.71 21.32 21.32 0 0 1-3.16-2.35 19 19 0 0 0-3.07-2.26 18.6 18.6 0 0 0-3.5-1.42c-.3-.08-.65-.19-1-.32.43.42.88.84 1.32 1.25l.39.35a41.83 41.83 0 0 0 5.5 4.28 22 22 0 0 0 2.71 1.1l.81.25a18.6 18.6 0 0 1 3.5 1.42c.28.16.62.38 1 .61A19 19 0 0 1 38.9 160zM60.24 165.85a5.07 5.07 0 0 0 1.06-1.16 1.11 1.11 0 0 1 1.22-.51 5 5 0 0 1 1.55 1.65c.1.15.21.32.34.48a2 2 0 0 1 .75-.67 1.92 1.92 0 0 1 .36-.15 5.69 5.69 0 0 0 1.53-.73 3.67 3.67 0 0 0 .65-.57.71.71 0 0 1 .52-.07c.26 0 1.25.26 2.19.51a15.07 15.07 0 0 0 3.41.44 14.37 14.37 0 0 0 3.34-.53 30.85 30.85 0 0 0 3.21-1.23 31.22 31.22 0 0 0 3-1.66 9.7 9.7 0 0 1 3.12-1.19 11.05 11.05 0 0 1 3.49.17 6.49 6.49 0 0 0 3.22-.11 5.77 5.77 0 0 0 2.32-2 23.12 23.12 0 0 1 2-2.7 17.77 17.77 0 0 1 2.28-2.07 15.48 15.48 0 0 1 2.72-1.5 21.64 21.64 0 0 1 3.34-1 6.61 6.61 0 0 0 2.89-1.41 6 6 0 0 0 1.36-2.8 12.57 12.57 0 0 1 1.05-3.16 10.89 10.89 0 0 1 2-2.49 7.22 7.22 0 0 0 1.71-2.56 9.47 9.47 0 0 0 .31-3.37 11.71 11.71 0 0 1 .25-3.53 10.48 10.48 0 0 1 1.52-3.05 16 16 0 0 0 1.71-2.91 13.93 13.93 0 0 0 .83-3.12 3.62 3.62 0 0 0-.79-2.62c-.54-.56-3.93-1.5-7.52-2.11l-.83-.13-1-.16A11.43 11.43 0 0 1 109 119a16 16 0 0 1-1.71 2.91 10.48 10.48 0 0 0-1.52 3.05 11.71 11.71 0 0 0-.25 3.53 9.47 9.47 0 0 1-.31 3.37 7.22 7.22 0 0 1-1.71 2.56 10.89 10.89 0 0 0-2 2.49 12.57 12.57 0 0 0-1.05 3.16 6 6 0 0 1-1.36 2.8 6.61 6.61 0 0 1-2.89 1.41 21.64 21.64 0 0 0-3.34 1 15.48 15.48 0 0 0-2.72 1.5 17.77 17.77 0 0 0-2.28 2.07 23.12 23.12 0 0 0-2 2.7 5.77 5.77 0 0 1-2.32 2 6.49 6.49 0 0 1-3.22.11 11.05 11.05 0 0 0-3.49-.17 9.7 9.7 0 0 0-3.12 1.19 31.22 31.22 0 0 1-3 1.66 30.85 30.85 0 0 1-3.21 1.23 14.37 14.37 0 0 1-3.34.53 15.07 15.07 0 0 1-3.41-.44c-.95-.25-1.93-.48-2.19-.51a.71.71 0 0 0-.52.07 3.67 3.67 0 0 1-.65.57 5.69 5.69 0 0 1-1.53.73 2 2 0 0 0-1.2 1 3 3 0 0 0 .13 1.77 4.23 4.23 0 0 1 .33 1.33c0 .13.14.28.4.32a2.9 2.9 0 0 1 1.14 1.06l.26.34 1.2-.12h.14a1.48 1.48 0 0 1 1.6.64.5.5 0 0 1 0 .2c0 .28-.11.66-.2 1a1.87 1.87 0 0 0 .58-.21z"/></svg>