<svg xmlns="http://www.w3.org/2000/svg" width="200" height="200" viewBox="0 0 200 200"><title>_</title><path d="M97.78,162.35H97.64a6.17,6.17,0,0,0,.52.55,2.16,2.16,0,0,0,.66.37l0.13,0a0.91,0.91,0,0,0,.25-0.1l0.19-.16A1.48,1.48,0,0,0,97.78,162.35Z" fill="none"/><path d="M140.37,59.4a17.27,17.27,0,0,0-1-1.45,12.33,12.33,0,0,0-2-1.94,13.62,13.62,0,0,0-2.59-1.35c-0.32-.12-0.72-0.29-1.12-0.47-0.76-.34-1.48-0.7-2-1-0.26-.15-0.65-0.42-1.21-0.83-1.1-.8-2.63-2-4-3.14a30.59,30.59,0,0,0-4.89-3.48,11.66,11.66,0,0,0-2.83-.62,14.1,14.1,0,0,1-3.63-.86,19.52,19.52,0,0,1-3.56-2,8.59,8.59,0,0,0-3.08-1.32,9,9,0,0,0-3.4.35,29.55,29.55,0,0,1-4.13,1,24.75,24.75,0,0,1-4,.22,35,35,0,0,1-3.88-.45,37.71,37.71,0,0,1-3.88-1,16.12,16.12,0,0,0-3.48-.64,14.79,14.79,0,0,0-3.41.34,23,23,0,0,0-6.61,2.78,31.84,31.84,0,0,1-3.42,1.79,29,29,0,0,1-3.55,1.21,18.16,18.16,0,0,0-3.07,1.16,17.83,17.83,0,0,0-2.72,1.81,22.21,22.21,0,0,0-4.45,5.06,11.58,11.58,0,0,1-2.79,2.83,15.86,15.86,0,0,1-4,1.77,10.6,10.6,0,0,0-3.19,1.57,24.79,24.79,0,0,0-3.45,6,61,61,0,0,0-2.68,6.92,26.09,26.09,0,0,0-.51,3.86,32.56,32.56,0,0,1-.55,4.34,31.64,31.64,0,0,1-1.25,4.16A24.51,24.51,0,0,0,39,89.85a54.64,54.64,0,0,0,0,8,53.4,53.4,0,0,0,.9,7.95h0a24.38,24.38,0,0,0,1.52,3.67,15.62,15.62,0,0,1,1.43,4.26,17,17,0,0,1-.07,4.6,11.48,11.48,0,0,0,0,3.67,8.25,8.25,0,0,0,1.46,2.85,16.34,16.34,0,0,1,2.17,3.41,17.79,17.79,0,0,1,1.13,4,13.89,13.89,0,0,0,1,3.38,30.3,30.3,0,0,0,4.8,5.18,44.51,44.51,0,0,0,5.66,4.51,20.65,20.65,0,0,0,2.38,1c0.34,0.12.67,0.22,0.95,0.3a19.39,19.39,0,0,1,3.73,1.51,19.79,19.79,0,0,1,3.26,2.4,20.4,20.4,0,0,0,3,2.22A23.83,23.83,0,0,0,76,154.34a19.34,19.34,0,0,0,3.91.8,20.36,20.36,0,0,0,4.07-.21c1.23-.21,3.05-0.44,4.05-0.51a2.84,2.84,0,0,1,2.27.71,1.52,1.52,0,0,1,.41,1.27,14.37,14.37,0,0,1-1.28,4.16,7,7,0,0,1-1.53,2,8.36,8.36,0,0,1-1.22.82,9.14,9.14,0,0,1-1.08.54,3.39,3.39,0,0,0-1.24.89,2.24,2.24,0,0,0-.18,1.2,6.51,6.51,0,0,1,0,2.14,2.21,2.21,0,0,1-1.25,1.53,1.06,1.06,0,0,0-.3.21,1.27,1.27,0,0,0-.1.35,2,2,0,0,0,0,.5l0.05,0.06s0.1,0,.16,0a3.21,3.21,0,0,0,.73-0.1c0.25-.08,1.65-0.76,3.35-1.68a15.25,15.25,0,0,1,5-1.81,6.73,6.73,0,0,1,3.52,1,6.37,6.37,0,0,1,.85.7,5.61,5.61,0,0,1,1.29,1.71c0.46,1.13-.22,3.4-0.65,4.44a29.51,29.51,0,0,0-1.12,3.08,10.08,10.08,0,0,0-.08,1.32,6.54,6.54,0,0,1-.21,1.72,3.75,3.75,0,0,1-.8,1.39,1.85,1.85,0,0,1-1.91.42,6.82,6.82,0,0,1-1.88-1.81c-0.45-.59-0.9-1.15-1.15-1.44a6.41,6.41,0,0,0-1.27,1.15,3.86,3.86,0,0,1-2.45,1.4h0a3,3,0,0,1-2.24-1.58,9.13,9.13,0,0,0-1.14-1.54,4.43,4.43,0,0,0-1.13-.78,13.25,13.25,0,0,0-1.65-.49c-0.53-.12-1.55-0.28-2.23-0.36a3.66,3.66,0,0,0-1.13,0,0.46,0.46,0,0,0,0,.19,12.68,12.68,0,0,0,.44,1.53,12,12,0,0,0,.66,1.41,2.07,2.07,0,0,1,0,2.29,3.41,3.41,0,0,1-2.17.77H75.16a13,13,0,0,0,.75,1.08,13.42,13.42,0,0,0,2.44,2.56,22.13,22.13,0,0,0,4.6,1.1c0.58,0.09,1.18.17,1.76,0.24a20.84,20.84,0,0,0,3.2.21,13.53,13.53,0,0,0,2.46-.57,11.6,11.6,0,0,1,3.15-.55,13.8,13.8,0,0,1,3.35.46,12.48,12.48,0,0,0,2.89.37,12.17,12.17,0,0,0,2.87-.5l0.19-.08,0.4-.16a8.37,8.37,0,0,0,1.8-1.1,42.63,42.63,0,0,0,3.9-7.39,43.86,43.86,0,0,0,2.77-7.38,4.09,4.09,0,0,0-.72-1.52,6.59,6.59,0,0,0-.48-0.51,6,6,0,0,0-3-1.73,7.73,7.73,0,0,1-2.62-1.32,11.09,11.09,0,0,1-1.73-1.9c-0.14-.19-0.27-0.37-0.38-0.54a5.43,5.43,0,0,0-1-1.2,0.31,0.31,0,0,0-.08.08,5.93,5.93,0,0,1-1.33,1.43,2.87,2.87,0,0,1-.87.38,2.41,2.41,0,0,1-.89.08,3.75,3.75,0,0,1-1.69-.83,10.3,10.3,0,0,1-1.21-1.34l-0.29-.38a3.21,3.21,0,0,0-.65-0.69,1.5,1.5,0,0,1-.94-0.63,1.16,1.16,0,0,1-.18-0.73,6.26,6.26,0,0,0-.27-0.92,4,4,0,0,1-.13-2.48,3,3,0,0,1,1.84-1.55,4.81,4.81,0,0,0,1.21-.57,5.36,5.36,0,0,0,.44-0.36,1.42,1.42,0,0,1,1.44-.48c0.4,0,1.63.35,2.35,0.54a15.46,15.46,0,0,0,3.14.41,13.39,13.39,0,0,0,3.06-.49,30.12,30.12,0,0,0,3.09-1.18,30.72,30.72,0,0,0,2.91-1.6,10.69,10.69,0,0,1,3.5-1.34,12,12,0,0,1,3.87.19,5.58,5.58,0,0,0,2.63-.07,4.82,4.82,0,0,0,1.83-1.64,24,24,0,0,1,2.11-2.84,18.66,18.66,0,0,1,2.43-2.22,16.3,16.3,0,0,1,2.94-1.62,22.39,22.39,0,0,1,3.53-1,5.71,5.71,0,0,0,2.38-1.14A5.09,5.09,0,0,0,139,138a13.54,13.54,0,0,1,1.16-3.46,11.85,11.85,0,0,1,2.18-2.77,6.24,6.24,0,0,0,1.43-2.14,8.52,8.52,0,0,0,.26-2.94,12.67,12.67,0,0,1,.28-3.89,11.49,11.49,0,0,1,1.69-3.4,15,15,0,0,0,1.59-2.69,10.64,10.64,0,0,0,.37-1.08,12.12,12.12,0,0,0,.39-1.76,2.64,2.64,0,0,0-.52-1.8,28.24,28.24,0,0,0-7-1.82,82.22,82.22,0,0,0-8.54-1.08h0a70.26,70.26,0,0,0-8.47,1.25c-3.92.77-6.59,1.8-7,2.17a4.38,4.38,0,0,0-.77,2.42,18.17,18.17,0,0,1-.46,4,19,19,0,0,1-1.49,3.77,9.37,9.37,0,0,1-6.39,4.82,29.1,29.1,0,0,0-3.67,1.16,33.87,33.87,0,0,0-3.63,1.81,10.38,10.38,0,0,1-4,1.33,5.43,5.43,0,0,1-2.55-.72,22.77,22.77,0,0,1-3.51-2,77.39,77.39,0,0,1-6.7-5.31,45.38,45.38,0,0,1-4.29-4.5c-0.78-1-2.83-4.24-4.59-7.18a43.89,43.89,0,0,1-3.59-7,10.6,10.6,0,0,1-.13-3.23,17,17,0,0,1,.9-3.28,27.1,27.1,0,0,1,1.77-3.47,21.72,21.72,0,0,0,1.59-3.25,16.59,16.59,0,0,0,.75-3.17,28.06,28.06,0,0,0,.12-3.16,23.4,23.4,0,0,0-.33-3,15.82,15.82,0,0,1-.24-3.2,14.78,14.78,0,0,1,.56-3.1,8,8,0,0,1,2-3A16.81,16.81,0,0,1,82,71a33,33,0,0,1,4.44-1.54,25.25,25.25,0,0,1,4.29-.61,26.12,26.12,0,0,0,3.85-.5,31.24,31.24,0,0,0,4-1.23,7.91,7.91,0,0,1,4.26-.47c1.53,0.39,3.92,3.6,5,5.24,0.55,0.86,1.11,1.76,1.63,2.61s1.66,2.77,2.08,3.67,1.21,2.81,1.66,4.07A5.29,5.29,0,0,0,115,84.73a15.62,15.62,0,0,0,5-.31c0.85-.14,1.71-0.3,2.56-0.5a74,74,0,0,1,9.07-1.6c1.25,0,5.1.26,8.76,0.68a35.61,35.61,0,0,0,6.09.29,2.5,2.5,0,0,0-.34-0.78,15.87,15.87,0,0,1-1.55-3.29,14.46,14.46,0,0,1-.55-3.5c0-.86-0.22-3.06-0.46-4.82a61,61,0,0,0-1.25-6.27A28.25,28.25,0,0,0,141,60.39C140.8,60.1,140.59,59.75,140.37,59.4Z" fill="#231f20"/><path d="M111.76,169.25a0.83,0.83,0,0,0-.59,0,7.6,7.6,0,0,1,.56.59,4.87,4.87,0,0,1,.94,2.11c0.07,0.61-1.21,4.14-2.86,7.84s-3.51,7.18-4.15,7.73a9.32,9.32,0,0,1-2,1.25,0.86,0.86,0,0,1-.46.18l-0.23.09a10.74,10.74,0,0,1-6.34.14,13.35,13.35,0,0,0-3.07-.43,10.62,10.62,0,0,0-2.83.49,14.59,14.59,0,0,1-2.68.62,21.54,21.54,0,0,1-3.43-.22,3.23,3.23,0,0,0-1,.24,0.68,0.68,0,0,0,.13.65,11.09,11.09,0,0,0,1.14,1.78,13.92,13.92,0,0,0,2.73,2.81,21.54,21.54,0,0,0,5,1.22,30.76,30.76,0,0,0,5.22.46,14.59,14.59,0,0,0,2.68-.62,10.62,10.62,0,0,1,2.83-.49,13.35,13.35,0,0,1,3.07.43,10.74,10.74,0,0,0,6.34-.14,9.43,9.43,0,0,0,2.74-1.53c0.64-.56,2.51-4,4.15-7.73s2.93-7.22,2.86-7.84a4.87,4.87,0,0,0-.94-2.11,9.34,9.34,0,0,0-1.82-1.63,8.81,8.81,0,0,0-2.2-.94,6.86,6.86,0,0,1-2.23-1.13,10.44,10.44,0,0,1-1.67-1.89l-0.22-.31A5,5,0,0,0,111.76,169.25Z" fill="#231f20"/><path d="M107,72.44c-1.55-2.42-3.53-4.59-4.38-4.81a7.05,7.05,0,0,0-3.63.43,32,32,0,0,1-4.11,1.28,26.91,26.91,0,0,1-4,.52,24,24,0,0,0-4.09.59,31.71,31.71,0,0,0-4.28,1.48,15.94,15.94,0,0,0-3.5,2.15,7.07,7.07,0,0,0-1.75,2.58,13.8,13.8,0,0,0-.51,2.85,14.81,14.81,0,0,0,.22,3,24.23,24.23,0,0,1,.35,3.11,28.56,28.56,0,0,1-.12,3.3,17.47,17.47,0,0,1-.8,3.41,22.7,22.7,0,0,1-1.68,3.43A26.06,26.06,0,0,0,72.92,99a16.08,16.08,0,0,0-.84,3.05A9.58,9.58,0,0,0,72.2,105a44,44,0,0,0,3.47,6.69c1.73,2.9,3.77,6.09,4.52,7.08a44.32,44.32,0,0,0,4.17,4.38A76.42,76.42,0,0,0,91,128.33a22,22,0,0,0,3.36,1.93L94.08,130c-0.84-.78-1.78-1.71-2.59-2.57s-1.24-1.36-1.59-1.81c-0.76-1-2.79-4.18-4.52-7.08a44,44,0,0,1-3.47-6.69A9.58,9.58,0,0,1,81.8,109a16.08,16.08,0,0,1,.84-3.05,26.06,26.06,0,0,1,1.69-3.31A22.7,22.7,0,0,0,86,99.23a17.47,17.47,0,0,0,.8-3.41,28.56,28.56,0,0,0,.12-3.3,24.23,24.23,0,0,0-.35-3.11,14.81,14.81,0,0,1-.22-3,13.8,13.8,0,0,1,.51-2.85A7.07,7.07,0,0,1,88.64,81a15.94,15.94,0,0,1,3.5-2.15,31.71,31.71,0,0,1,4.28-1.48,24,24,0,0,1,4.09-.59,26.91,26.91,0,0,0,4-.52,31.23,31.23,0,0,0,3.08-.9l1-.35C108.05,74.19,107.5,73.3,107,72.44Z" fill="#231f20"/><path d="M94.76,177.94a27,27,0,0,1,1.18-3.3,6.86,6.86,0,0,0,.65-3.68,4.61,4.61,0,0,0-1.06-1.36c-0.22.11-.43,0.22-0.63,0.3s-0.23.11-.35,0.17a4,4,0,0,0-1.36,1.11,3.14,3.14,0,0,0-.32,1.9,5.68,5.68,0,0,1,0,1.75,1.25,1.25,0,0,1-.63.82,1.92,1.92,0,0,0-.74.54,2,2,0,0,0-.3.88,2.73,2.73,0,0,0,.08.88,1.24,1.24,0,0,0,.4.55,1.64,1.64,0,0,0,.71.21,4.3,4.3,0,0,0,1-.13l0.25-.09c0.24-.1.6-0.27,1.05-0.49v0Z" fill="#231f20"/><path d="M134,53.28a15,15,0,0,0-2.39-1.5c-0.17-.07-0.39-0.14-0.61-0.2,0.49,0.36.89,0.63,1.13,0.77C132.64,52.63,133.35,53,134,53.28Z" fill="#231f20"/><path d="M141.21,58.86c0.24,0.38.47,0.76,0.63,1.06a29.1,29.1,0,0,1,1.55,4.47,62.2,62.2,0,0,1,1.28,6.39c0.25,1.81.46,4,.47,4.94a13.51,13.51,0,0,0,.5,3.21,15.05,15.05,0,0,0,1.44,3c0.52,0.82.68,1.77,0.35,2.12s-3.51.3-7.06-.1-7.44-.71-8.63-0.67a73.42,73.42,0,0,0-8.88,1.58c-0.88.2-1.77,0.37-2.62,0.51l0.07,0.14c0.1,0.23.23,0.5,0.35,0.79,0.42,1,.93,2.25,1.27,3.19a6.19,6.19,0,0,0,2.36,3c0.86,0.44,4.58.12,8.27-.72a73.42,73.42,0,0,1,8.88-1.58c1.19,0,5.07.27,8.63,0.67s6.73,0.45,7.06.1,0.17-1.3-.35-2.12a15.05,15.05,0,0,1-1.44-3,13.51,13.51,0,0,1-.5-3.21c0-.91-0.22-3.13-0.47-4.94a62.2,62.2,0,0,0-1.28-6.39,29.1,29.1,0,0,0-1.55-4.47,19.66,19.66,0,0,0-1.69-2.6,13.37,13.37,0,0,0-2.24-2.13,14.59,14.59,0,0,0-2.82-1.48c-0.53-.2-1.24-0.51-1.89-0.83-0.39-.19-0.76-0.38-1-0.54S141.48,59,141.21,58.86Z" fill="#231f20"/><path d="M86.15,162.47a7.37,7.37,0,0,0,1.07-.72,6.13,6.13,0,0,0,1.28-1.64,16,16,0,0,0,.75-1.92,15.73,15.73,0,0,0,.44-1.95c0.08-.53-0.65-0.91-1.62-0.84s-2.74.29-4,.5a21.35,21.35,0,0,1-4.32.23,20.2,20.2,0,0,1-4.16-.85,24.8,24.8,0,0,1-3.77-1.71,21.3,21.3,0,0,1-3.16-2.35A19,19,0,0,0,65.64,149a18.6,18.6,0,0,0-3.5-1.42c-0.3-.08-0.65-0.19-1-0.32,0.43,0.42.88,0.84,1.32,1.25l0.39,0.35a41.81,41.81,0,0,0,5.48,4.31,22.08,22.08,0,0,0,2.71,1.1l0.81,0.25a18.6,18.6,0,0,1,3.5,1.42c0.28,0.16.62,0.38,1,.61a19,19,0,0,1,2.1,1.64,21.3,21.3,0,0,0,3.16,2.35A25,25,0,0,0,84.8,162l0.55,0.2C85.59,162.31,85.87,162.39,86.15,162.47Z" fill="#231f20"/><path d="M148.48,117.13a16,16,0,0,1-1.71,2.91,10.48,10.48,0,0,0-1.52,3.05,11.71,11.71,0,0,0-.25,3.53,9.47,9.47,0,0,1-.31,3.37,7.21,7.21,0,0,1-1.71,2.56,10.89,10.89,0,0,0-2,2.49A12.57,12.57,0,0,0,140,138.2a6,6,0,0,1-1.36,2.8,6.61,6.61,0,0,1-2.89,1.41,21.7,21.7,0,0,0-3.34,1,15.51,15.51,0,0,0-2.72,1.5,17.78,17.78,0,0,0-2.28,2.07,23.12,23.12,0,0,0-2,2.7,5.76,5.76,0,0,1-2.32,2,6.48,6.48,0,0,1-3.22.11,11.06,11.06,0,0,0-3.49-.17,9.7,9.7,0,0,0-3.12,1.19,31.17,31.17,0,0,1-3,1.66,30.85,30.85,0,0,1-3.21,1.23,14.37,14.37,0,0,1-3.34.53,15.06,15.06,0,0,1-3.41-.44c-0.95-.25-1.93-0.48-2.19-0.51a0.71,0.71,0,0,0-.52.07,3.66,3.66,0,0,1-.65.57,5.7,5.7,0,0,1-1.53.73,2,2,0,0,0-1.2,1,3,3,0,0,0,.13,1.77,4.23,4.23,0,0,1,.33,1.33c0,0.13.14,0.28,0.4,0.32a2.9,2.9,0,0,1,1.18,1.08l0.26,0.34,1.2-.12h0.14a1.48,1.48,0,0,1,1.6.64,0.5,0.5,0,0,1,0,.2c0,0.28-.11.66-0.2,1a1.88,1.88,0,0,0,.56-0.24,5.06,5.06,0,0,0,1.06-1.16,1.1,1.1,0,0,1,1.22-.51A5,5,0,0,1,103.6,164c0.1,0.15.21,0.32,0.34,0.48a2,2,0,0,1,.75-0.67,1.91,1.91,0,0,1,.36-0.15,5.7,5.7,0,0,0,1.53-.73,3.66,3.66,0,0,0,.65-0.57,0.71,0.71,0,0,1,.52-0.07c0.26,0,1.25.26,2.19,0.51a15.06,15.06,0,0,0,3.41.44,14.37,14.37,0,0,0,3.34-.53,30.85,30.85,0,0,0,3.21-1.23,31.17,31.17,0,0,0,3-1.66,9.7,9.7,0,0,1,3.12-1.19,11.06,11.06,0,0,1,3.49.17,6.48,6.48,0,0,0,3.22-.11,5.76,5.76,0,0,0,2.32-2,23.12,23.12,0,0,1,2-2.7,17.78,17.78,0,0,1,2.28-2.07,15.51,15.51,0,0,1,2.72-1.5,21.7,21.7,0,0,1,3.34-1,6.61,6.61,0,0,0,2.89-1.41,6,6,0,0,0,1.36-2.8,12.57,12.57,0,0,1,1.05-3.16,10.89,10.89,0,0,1,2-2.49,7.21,7.21,0,0,0,1.71-2.56,9.47,9.47,0,0,0,.31-3.37A11.71,11.71,0,0,1,155,130a10.48,10.48,0,0,1,1.52-3.05,16,16,0,0,0,1.71-2.91A13.93,13.93,0,0,0,159,121a3.62,3.62,0,0,0-.79-2.62c-0.54-.56-3.93-1.51-7.52-2.11l-0.83-.13-1-.16A11.44,11.44,0,0,1,148.48,117.13Z" fill="#231f20"/></svg>