<svg xmlns="http://www.w3.org/2000/svg" width="127" height="200" viewBox="0 0 127 200"><title>_</title><path d="M34.66 15.71a39.16 39.16 0 0 1 3.06 3.38c.72.91 2.7 3.07 4.33 4.72s4.52 4.25 6.38 5.73a28.57 28.57 0 0 0 4.62 3.12 5.22 5.22 0 0 0 .62.19 6.13 6.13 0 0 0 1.66.2h.85a13.53 13.53 0 0 1 2.26.18 14.77 14.77 0 0 1 3 1 4.15 4.15 0 0 0 1.8.31 5.65 5.65 0 0 0 1.95-.87 9.14 9.14 0 0 1 3.65-1.46c.2 0 .43 0 .68-.05A17.92 17.92 0 0 1 68 30.74c-1.14-1.18-3.5-5.52-4.8-8.16-.6-1.2-1.19-2.43-1.72-3.58a53.68 53.68 0 0 1-2.12-5 3.46 3.46 0 0 0-1.21-1.73 5 5 0 0 0-2.55.11 18.3 18.3 0 0 1-4.76.74 16.34 16.34 0 0 1-4.65-.87 21 21 0 0 0-3.71-.94 43.88 43.88 0 0 0-7.49.58 34.29 34.29 0 0 0-3.93.78l.22.17a36.57 36.57 0 0 1 3.38 2.87zM15 154.43a5 5 0 0 0 1.44-.23 23.28 23.28 0 0 1 4.75-.91 15.5 15.5 0 0 1 2.65.17c1.72.21 3.79.55 5.69.95a32.78 32.78 0 0 0 7.21.89 14.88 14.88 0 0 0 3.43-1.14 22.39 22.39 0 0 1 4.19-1.53 19.21 19.21 0 0 1 4.25-.41 25.94 25.94 0 0 1 4.15.57 29.25 29.25 0 0 1 4.11 1.39 16 16 0 0 0 3.45 1 14 14 0 0 0 3.41-.06 24.87 24.87 0 0 1 3.67-.29h.5a25 25 0 0 1 4.16.59 23.5 23.5 0 0 0 3.58.53 23.1 23.1 0 0 0 3.57-.16c1.11-.16 2.92-.31 4-.34s2.93 0 4 .13a31 31 0 0 0 3.64.06 58.2 58.2 0 0 0 7-1.39 27 27 0 0 0 5.08-1.69 1.51 1.51 0 0 0 0-.69 7.24 7.24 0 0 1-.05-3.47 13.1 13.1 0 0 1 1.67-3.52 10.06 10.06 0 0 0 1.23-2.72 11.91 11.91 0 0 0-.43-3.9l-.26-1c-.37-1.3-.76-2.57-.94-3a6.49 6.49 0 0 0-1-1.6 9.92 9.92 0 0 0-1.84-1.4 4.48 4.48 0 0 0-2-.45 8.54 8.54 0 0 0-2.68.85 8.38 8.38 0 0 1-4.41.86 10.08 10.08 0 0 1-4.25-1.94 15.17 15.17 0 0 0-3.12-1.86 9 9 0 0 0-2.92-.55 16.55 16.55 0 0 0-3.17.45 19.89 19.89 0 0 0-3.21 1.25 20.3 20.3 0 0 1-3.85 1.44 84.69 84.69 0 0 1-11 .34h-2.05c-3.41-.09-7.68-.3-8.65-.81a4.84 4.84 0 0 1-2.2-2.75 15.13 15.13 0 0 1-.46-2.73 12.1 12.1 0 0 1 .2-2.64 7.47 7.47 0 0 0 .1-1.73 8.16 8.16 0 0 0-.64-1.79 6.13 6.13 0 0 1-.34-2.89 6.37 6.37 0 0 1 1.34-2.64 6.76 6.76 0 0 1 2.41-1.77c1.4-.55 7 .12 7.29.15 3.31.39 6.13.64 6.72.6a11.18 11.18 0 0 0 2.47-.42 14.73 14.73 0 0 0 2.54-1.16 10 10 0 0 1 3.46-1.22c1.74-.19 6.18 1.29 6.36 1.35a35.46 35.46 0 0 0 5.33 1.45 51.53 51.53 0 0 0 5.67-.57 16.5 16.5 0 0 0 4.75-1.25 5.32 5.32 0 0 0 1-2 12.94 12.94 0 0 0 .27-3 11.9 11.9 0 0 0-.63-2.86 13.7 13.7 0 0 1-.79-3.71 13.23 13.23 0 0 1 .49-3.73 7.61 7.61 0 0 0 .27-2.45 3.66 3.66 0 0 0-.1-.49 6.33 6.33 0 0 0-.75-1.59c-.43-.65-1.19-1.69-1.67-2.26a26.36 26.36 0 0 0-1.85-2 3.28 3.28 0 0 0-1.41-.7 4.49 4.49 0 0 0-1.84.44 26.52 26.52 0 0 1-3.07 1.28 52.67 52.67 0 0 1-6 1.15c-2.14.31-4.95.64-5.93.64a26 26 0 0 1-3.08-.23c-.74-.11-2-.23-2.71-.26s-2 0-2.71 0a14.2 14.2 0 0 1-3.25-.25 15.63 15.63 0 0 1-2-.61c-.43-.16-.85-.32-1.18-.48a7.54 7.54 0 0 0-2.36-.51 9.43 9.43 0 0 0-2.7.69 5.46 5.46 0 0 1-3.72.39A3.27 3.27 0 0 1 47.63 85c0-.82.18-2.06.29-2.77a39.61 39.61 0 0 1 1.22-4.42 27.41 27.41 0 0 0 .94-3.44 3.23 3.23 0 0 0-.14-1 2.39 2.39 0 0 1 1-2.92 6.53 6.53 0 0 1 2.91-.5c.89 0 3.14.25 5 .51a28.36 28.36 0 0 0 4.65.32 15.19 15.19 0 0 0 3-.67 12.79 12.79 0 0 1 3.92-.63 13.09 13.09 0 0 1 3.91.87 19.08 19.08 0 0 0 3.08.93 16.65 16.65 0 0 0 3 .23c.86 0 2.33-.18 3.2-.32s2.34-.47 3.21-.71a32.15 32.15 0 0 1 3.58-.75 66.25 66.25 0 0 1 7.45 0 22.16 22.16 0 0 0 5.35-.34 19.16 19.16 0 0 0 .49-5c0-2.84-.14-5.94-.22-6.78s-.3-2.26-.47-3.1a18.65 18.65 0 0 1-.27-2.38v-1.39a28.49 28.49 0 0 1 .52-4.12 2.92 2.92 0 0 0 0-1.27 5 5 0 0 0-1.77.13c-1.3.34-5.85 1-10.15 1.57-3.19.39-8.5.89-10 .62a20.73 20.73 0 0 1-4.12-1.27 32.09 32.09 0 0 0-3.56-1.29 27.79 27.79 0 0 0-3.53-.7 19.93 19.93 0 0 0-3.45 0 21.23 21.23 0 0 0-3.46.72 17.36 17.36 0 0 1-4.19.69 16.21 16.21 0 0 1-4.2-.56 30.64 30.64 0 0 0-3.55-.74 27.5 27.5 0 0 0-3.54-.2c-1.15 0-3.74-.09-5.79-.25a42.54 42.54 0 0 0-5.39-.09 22.17 22.17 0 0 0-3.48.71 35.91 35.91 0 0 1-4 .93c-1.09.17-4.46.43-7.52.57a21.86 21.86 0 0 0-5.38.76 3.06 3.06 0 0 0-.17 1.22 17.1 17.1 0 0 1-.29 3.64 21.68 21.68 0 0 1-1.2 3.71 15.52 15.52 0 0 0-.92 3.09 70.34 70.34 0 0 0 1.14 9.92c.58 3.55 1.4 9.35 1.29 10.75a27.46 27.46 0 0 1-.6 3.71c-.23.91-.52 2.41-.66 3.33s-.29 2.42-.33 3.32.09 4.4.36 8.48a74 74 0 0 1 .2 9 22.56 22.56 0 0 1-.94 3.77 8 8 0 0 0-.37 2.81 9.39 9.39 0 0 0 1 2.88 9.51 9.51 0 0 1 1.14 4.23 9.75 9.75 0 0 1-1.35 4.19 5.81 5.81 0 0 0-.75 2.62 6.49 6.49 0 0 0 1 2.68 15 15 0 0 1 1.9 3.94c.43 1.61-.41 8.31-.92 11.63a52.3 52.3 0 0 0-.7 8.56z"/><path d="M57.21 37.66a29 29 0 0 0 5 3.35 8 8 0 0 0 2.94.49 12.21 12.21 0 0 1 2.72.13c.23 0 .5.11.79.19a13.46 13.46 0 0 1 1.87.67 5.64 5.64 0 0 0 2.64.44 4.83 4.83 0 0 0 1-.28 7.34 7.34 0 0 0 1.65-.86 7.68 7.68 0 0 1 3-1.19 11.16 11.16 0 0 1 3.61.3c1.08.29 1.95.35 1.93.14a7.14 7.14 0 0 0-2.09-1.67 22.37 22.37 0 0 1-3.44-2.73 48.63 48.63 0 0 1-4.53-7.78 90.79 90.79 0 0 1-3.75-8.34 4.75 4.75 0 0 0-2-2.65 6.05 6.05 0 0 0-3.63 0c-.3.09-.64.18-1 .26l-1 .19c.53 1.14 1.11 2.36 1.7 3.55a48.63 48.63 0 0 0 4.53 7.78 22.37 22.37 0 0 0 3.44 2.73 7.14 7.14 0 0 1 2.09 1.67c0 .21-.84.15-1.93-.14a11.16 11.16 0 0 0-3.61-.3 7.68 7.68 0 0 0-3 1.19 7 7 0 0 1-2.66 1.2 5.64 5.64 0 0 1-2.64-.44 13.32 13.32 0 0 0-2.66-.86 12.21 12.21 0 0 0-2.72-.13 7.39 7.39 0 0 1-2.14-.24l1.38 1.23c.9.77 1.78 1.52 2.51 2.1zM115.21 140.67a8 8 0 0 0-1.34-2.07 11.17 11.17 0 0 0-2.2-1.68 6.06 6.06 0 0 0-2.85-.65 6.9 6.9 0 0 0-1.39.28c-.32.09-.64.2-.95.32.09.33.18.65.27 1a12.62 12.62 0 0 1 .44 4.61 11.37 11.37 0 0 1-1.45 3.23 11.78 11.78 0 0 0-1.45 3 5.86 5.86 0 0 0 0 2.66 2.72 2.72 0 0 1-.23 2.1c-.34.47-3 1.46-5.92 2.19a59.39 59.39 0 0 1-7.23 1.44 31.79 31.79 0 0 1-3.86-.06c-1.06-.1-2.8-.15-3.86-.12s-2.8.18-3.86.33a24.22 24.22 0 0 1-3.86.18 25 25 0 0 1-3.86-.57 23.24 23.24 0 0 0-3.86-.54 22.71 22.71 0 0 0-3.86.26 15.48 15.48 0 0 1-3.86.07 17.36 17.36 0 0 1-3.86-1.1 27.58 27.58 0 0 0-3.86-1.3 24.27 24.27 0 0 0-3.86-.53 17.63 17.63 0 0 0-3.86.37 21 21 0 0 0-3.86 1.41 16.22 16.22 0 0 1-3.86 1.28 33.19 33.19 0 0 1-7.76-.9c-1.92-.4-4-.74-5.56-.93 0 .34-.08.67-.12 1-.4 3.58-.47 6.32-.09 6.62s1.9.39 3.15 0a22 22 0 0 1 4.39-.84 45.7 45.7 0 0 1 7.94 1.09 33.19 33.19 0 0 0 7.76.9 16.22 16.22 0 0 0 3.86-1.28 21 21 0 0 1 3.93-1.44 17.63 17.63 0 0 1 3.86-.37 24.27 24.27 0 0 1 3.86.53 27.58 27.58 0 0 1 3.86 1.3 17.36 17.36 0 0 0 3.86 1.1 15.48 15.48 0 0 0 3.86-.07 22.71 22.71 0 0 1 3.86-.26 23.24 23.24 0 0 1 3.86.54 25 25 0 0 0 3.86.57 24.22 24.22 0 0 0 3.86-.18c1.06-.15 2.79-.3 3.86-.33s2.8 0 3.86.12a31.79 31.79 0 0 0 3.86.06 59.39 59.39 0 0 0 7.23-1.44c2.92-.73 5.58-1.71 5.92-2.19a2.72 2.72 0 0 0 .23-2.1 5.86 5.86 0 0 1 0-2.66 11.78 11.78 0 0 1 1.45-3 11.37 11.37 0 0 0 1.45-3.23 12.62 12.62 0 0 0-.44-4.61c-.53-1.63-1.07-3.48-1.32-4.11zM114.07 77.51c.54-.49.95-3.28.92-6.2s-.14-6-.23-6.92-.31-2.34-.49-3.23a18.62 18.62 0 0 1-.26-3.44 26.62 26.62 0 0 1 .49-3.86 3.18 3.18 0 0 0-.5-2.76 4.42 4.42 0 0 0-3.15-.14c-.8.21-3 .57-5.55.95l-1 .14a17.1 17.1 0 0 0 .24 2.17c.17.89.39 2.34.49 3.23s.2 4 .23 6.92-.38 5.7-.92 6.2-3.45.81-6.48.69a65.85 65.85 0 0 0-7.19 0 30.37 30.37 0 0 0-3.38.71c-.93.26-2.45.6-3.38.75s-2.45.3-3.38.34a18.14 18.14 0 0 1-3.38-.25 20.55 20.55 0 0 1-3.38-1 11.49 11.49 0 0 0-3.38-.76 11.11 11.11 0 0 0-3.38.55 16.49 16.49 0 0 1-3.38.75 29.07 29.07 0 0 1-5-.32c-1.81-.26-4-.48-4.83-.5a5.65 5.65 0 0 0-2.16.32.88.88 0 0 0-.35 1.07 4.62 4.62 0 0 1 .23 1.57 25.1 25.1 0 0 1-1 3.83 38.77 38.77 0 0 0-1.12 4.18c-.1.66-.23 1.85-.27 2.63a1.88 1.88 0 0 0 .74 1.77 4.31 4.31 0 0 0 2.55-.39 10.72 10.72 0 0 1 3.31-.76 8 8 0 0 1 3 .65c.3.14.67.29 1.05.43.09-.32.2-.64.3-1s.13-.42.19-.62a25.1 25.1 0 0 0 1-3.83 4.62 4.62 0 0 0-.23-1.57.88.88 0 0 1 .35-1.07 5.65 5.65 0 0 1 2.16-.32c.84 0 3 .24 4.83.5a29.07 29.07 0 0 0 5 .32 16.49 16.49 0 0 0 3.38-.75 11.11 11.11 0 0 1 3.38-.49 11.49 11.49 0 0 1 3.38.76 20.55 20.55 0 0 0 3.38 1 18.14 18.14 0 0 0 3.38.25c.93 0 2.45-.19 3.38-.34S96.1 79.21 97 79a30.37 30.37 0 0 1 3.38-.71 65.85 65.85 0 0 1 7.19 0c3.05.03 5.96-.29 6.5-.78zM58.83 121.57a5.33 5.33 0 0 1 1.8-1.33 27.25 27.25 0 0 1 6.56.24c3 .36 6.17.63 7 .61a12.7 12.7 0 0 0 2.86-.49 16.13 16.13 0 0 0 2.86-1.3 8.55 8.55 0 0 1 2.86-1 21.21 21.21 0 0 1 5.72 1.28 35.08 35.08 0 0 0 5.72 1.53 46.9 46.9 0 0 0 6-.58c2.5-.37 5-1.11 5.55-1.64a6.57 6.57 0 0 0 1.42-2.74 14.36 14.36 0 0 0 .31-3.46 13.36 13.36 0 0 0-.73-3.31 12.17 12.17 0 0 1-.69-3.23 11.68 11.68 0 0 1 .43-3.23 9 9 0 0 0 .32-3.06 7.57 7.57 0 0 0-1-2.72c-.46-.7-1.26-1.78-1.77-2.4a27.85 27.85 0 0 0-2-2.1 4.67 4.67 0 0 0-2.28-1.1 5.27 5.27 0 0 0-1.89.29 5.45 5.45 0 0 0-.78.31l-.15.07a5.06 5.06 0 0 1 .15.71 9 9 0 0 1-.4 3.08 11.68 11.68 0 0 0-.43 3.23 12.17 12.17 0 0 0 .69 3.23 13.36 13.36 0 0 1 .73 3.31 14.36 14.36 0 0 1-.31 3.46 6.57 6.57 0 0 1-1.38 2.7c-.55.54-3 1.28-5.55 1.64a46.9 46.9 0 0 1-6 .58 35.08 35.08 0 0 1-5.72-1.53 21.21 21.21 0 0 0-5.73-1.27 8.55 8.55 0 0 0-2.86 1 16.13 16.13 0 0 1-2.86 1.3 12.7 12.7 0 0 1-2.86.49c-.79 0-3.92-.25-7-.61a27.25 27.25 0 0 0-6.56-.24 5.33 5.33 0 0 0-1.8 1.33 4.92 4.92 0 0 0-.94 1.93 4.68 4.68 0 0 0 .25 2.09 9.61 9.61 0 0 1 .53 2.18 8.88 8.88 0 0 1-.13 2.18 10.68 10.68 0 0 0-.17 2.25 13.52 13.52 0 0 0 .4 2.41 3.35 3.35 0 0 0 1.44 1.82c.52.27 3.93.54 8 .64v-.19a7.27 7.27 0 0 0 .11-.81 8.42 8.42 0 0 0 0-1.36 9.61 9.61 0 0 0-.53-2.18 4.68 4.68 0 0 1-.25-2.09 4.92 4.92 0 0 1 1.06-1.92z"/></svg>