<svg xmlns="http://www.w3.org/2000/svg" width="117.53" height="200" viewBox="0 0 117.53 200"><title>_</title><path d="M13.71 134.95a31.73 31.73 0 0 0-.53 3.28 22.27 22.27 0 0 0 0 3.2 23.28 23.28 0 0 0 .54 3.21c.26 1 .58 2.63.71 3.62a34 34 0 0 1 .25 3.58 2.43 2.43 0 0 0 .41 1.3 3.69 3.69 0 0 0 1.77.29 18.88 18.88 0 0 1 4.2.24 18.92 18.92 0 0 1 2.09.56 20.7 20.7 0 0 1 2.09.79 10.23 10.23 0 0 0 3.25.77 10.76 10.76 0 0 0 3.24-.67c1.1-.47 3.76-1.4 5.93-2.08a22.28 22.28 0 0 1 5.66-1 5.4 5.4 0 0 1 .8.05 14.82 14.82 0 0 1 4.38 1.61 25 25 0 0 0 3.59 1.66 19.6 19.6 0 0 0 3.52.79 16 16 0 0 0 3.45-.11 18.11 18.11 0 0 0 3.5-1.07 45.61 45.61 0 0 1 4-1.5 39.33 39.33 0 0 1 4-1 16.13 16.13 0 0 1 4.33 0 18.24 18.24 0 0 1 4.27 1.33 21.54 21.54 0 0 0 3.55 1.25 20.86 20.86 0 0 0 3.52.39c1 0 2.69-.11 3.7-.22s2.7-.36 3.72-.57a25.91 25.91 0 0 1 4.28-.41 32.37 32.37 0 0 1 4.65.43 4.53 4.53 0 0 0 1.51 0 21.09 21.09 0 0 0-.81-4.79c-.62-2.31-1.46-6.25-1.25-7.67a14.47 14.47 0 0 1 1.21-3.69 18 18 0 0 0 .82-2c.13-.39.25-.76.33-1.07a19.79 19.79 0 0 0 .48-3.33 2.5 2.5 0 0 0-.2-1.07 4.58 4.58 0 0 0-1.62.31 15.7 15.7 0 0 1-4.46.83 11.71 11.71 0 0 1-4.28-1.1 11.11 11.11 0 0 0-3-.93 9.66 9.66 0 0 0-2.94.24 30.51 30.51 0 0 1-3.73.74 30.5 30.5 0 0 1-3.75.16c-.92 0-3.3.05-5.11.18a53.91 53.91 0 0 1-5.47.14 71 71 0 0 1-7.26-1.33 49.83 49.83 0 0 0-5.13-.88 8.37 8.37 0 0 0-1.47-.09 15.27 15.27 0 0 0-3.27.82c-.24.1-2.42.93-3.67.49a2.63 2.63 0 0 1-1.33-3.36 6.65 6.65 0 0 0 .21-1.9 5.71 5.71 0 0 0-.51-1.7 16.27 16.27 0 0 1-1-2.44 35 35 0 0 1-.52-5.52c0-1.47 0-5 1.42-6a5.67 5.67 0 0 1 3.89-.5 15.29 15.29 0 0 0 3.09.25 10.9 10.9 0 0 0 2.62-.53 15 15 0 0 1 3.25-.75 77 77 0 0 1 8.93.9c4.11.59 7.7.93 8.27.91a15.68 15.68 0 0 0 2.54-.46 10 10 0 0 1 3.45-.29 11.34 11.34 0 0 1 3.38 1.09 9.79 9.79 0 0 0 2.38.83 7.63 7.63 0 0 0 2.25-.06 1.87 1.87 0 0 0 .85-.47 3.85 3.85 0 0 0-.11-1.42 15.66 15.66 0 0 1-.54-3.6 15.93 15.93 0 0 1 .47-3.62c.19-.71.72-4.25 1.18-8.2a29.31 29.31 0 0 0 .2-7 3.65 3.65 0 0 0-1.46-.74 7.09 7.09 0 0 0-2.55 0 8.11 8.11 0 0 0-2.42 1.25 16.71 16.71 0 0 1-3.2 2 11.79 11.79 0 0 1-3.35.83 10.33 10.33 0 0 1-3.45-.48 14 14 0 0 1-3.27-1.79 10 10 0 0 0-2.4-1.28 6.48 6.48 0 0 0-2.21-.19 19.05 19.05 0 0 0-2.6.61 22.37 22.37 0 0 0-2.64 1.1 7.62 7.62 0 0 1-3.67.77 8.38 8.38 0 0 1-2.66-.75 7.47 7.47 0 0 1-.88-.5 5.25 5.25 0 0 0-2.2-.74 7.3 7.3 0 0 0-2.61.71 6 6 0 0 1-3.81.76 3.51 3.51 0 0 1-2.24-3 11.53 11.53 0 0 1 .05-3.14 8.73 8.73 0 0 1 1.1-2.76c.33-.5 1.06-1.8 1.59-2.84a5.91 5.91 0 0 0 .67-2.27 8 8 0 0 0-.89-2.15c-.69-1.14-1-2.78-.28-3.86.24-.33 1-1.36 7.18-1.61 2.73-.11 6.24-.15 7.39 0a69.8 69.8 0 0 1 7 1.61c2.71.74 5.72 1.47 6.58 1.59a29.82 29.82 0 0 0 3.18.25c.83 0 2.31 0 3.23-.12s3.9-.58 6.6-1.11c2.55-.5 5.82-1 6.89-1.1a24.34 24.34 0 0 1 3.41.1 2.84 2.84 0 0 0 1-.07 19.17 19.17 0 0 0 .33-4.16 63 63 0 0 1 .47-8.1c.14-.91.26-1.92.36-2.79s.13-1.44.14-1.78a17 17 0 0 0-.23-2.71 2.08 2.08 0 0 0-.55-1 3.89 3.89 0 0 0-1.75-.09 32.09 32.09 0 0 1-3.78.4 69.32 69.32 0 0 1-7.74-.78 65 65 0 0 0-7.27-.77 20.81 20.81 0 0 0-3.48.43 18.55 18.55 0 0 1-4.17.38 18.87 18.87 0 0 1-4.16-.76 15.46 15.46 0 0 0-3.36-.6 14.92 14.92 0 0 0-3.35.37 20.71 20.71 0 0 1-4.12.54 22.1 22.1 0 0 1-4.2-.45 12.35 12.35 0 0 0-3.27-.21 13.73 13.73 0 0 0-3.31.92 10 10 0 0 1-4.55.74 11.53 11.53 0 0 1-4.44-1.74 14.92 14.92 0 0 0-3.34-1.62 10.7 10.7 0 0 0-3.19-.34c-1.07.1-3.69.14-5.83.08a41.33 41.33 0 0 0-5.37.17 20.22 20.22 0 0 0-3.36.88 7.38 7.38 0 0 0-2.3 1.46 5.38 5.38 0 0 0-1 2.1 10 10 0 0 0 0 2.82 12.8 12.8 0 0 0 1 3A21.78 21.78 0 0 1 16.58 58a18.35 18.35 0 0 1 .51 3.83c0 1.13-.39 5.38-.78 8.84-.44 3.94-1 7.82-1.22 8.84s-.71 2.63-1.09 3.63a17 17 0 0 0-.72 3.13 15.89 15.89 0 0 0 .05 3.1 35.38 35.38 0 0 1 .31 3.63 35.39 35.39 0 0 1-.18 3.65 26.65 26.65 0 0 0-.12 3.24 27.35 27.35 0 0 0 .37 3.25 28.81 28.81 0 0 1 .41 3.7 28.43 28.43 0 0 1-.17 3.7c-.12 1-.61 3.4-1.08 5.36a16 16 0 0 0-.51 4.59 10.38 10.38 0 0 0 1.19 2.92 11.85 11.85 0 0 1 1.55 4.06 10.15 10.15 0 0 1-.46 4.17c-.29.91-.73 2.42-.93 3.31zM58.42 33.7c.75 0 1.48.06 2 .12a4.85 4.85 0 0 0 2.11-.46 12 12 0 0 0 2.59-2.17c.87-1 2.35-2.48 3.3-3.34S71 25.71 72 25s3.61-2.32 5.75-3.56A30 30 0 0 0 82.68 18a11.68 11.68 0 0 0 1.21-1.61 10.47 10.47 0 0 0 .73-1.31 4.41 4.41 0 0 0 .38-1.85 2 2 0 0 0-1-.51c-.87-.18-3.27-.5-5.37-.73a41.94 41.94 0 0 0-5.59-.27 32 32 0 0 0-3.81.55c-1.14.25-3 .57-4.16.7s-3 .25-4.14.27a10.88 10.88 0 0 0-3 .54 8.07 8.07 0 0 0-2.26 1.5 10.28 10.28 0 0 0-1.62 2.37 13 13 0 0 0-.82 3.06 21.66 21.66 0 0 1-.9 3.92 18.3 18.3 0 0 1-1.72 3.44c-.55.82-1.48 2.06-2.08 2.76-.39.46-.94 1-1.46 1.55h.21a16.7 16.7 0 0 1 2.73 1 10.13 10.13 0 0 0 2.22.66 8.62 8.62 0 0 0 2.16 0 24.08 24.08 0 0 1 2.94-.3h1.06z"/><path d="M109.46 76.38a3.43 3.43 0 0 0 2.27-.47c.4-.35.71-2.73.69-5.27a61.47 61.47 0 0 1 .45-7.86 47 47 0 0 0 .51-4.77 18.7 18.7 0 0 0-.25-3 3.29 3.29 0 0 0-1.28-2 5 5 0 0 0-2.76-.26 30.29 30.29 0 0 1-3.57.38h-1l-1-.08c-.09.9-.22 1.93-.36 2.86a61.47 61.47 0 0 0-.45 7.86c0 2.54-.29 4.92-.69 5.27a3.43 3.43 0 0 1-2.27.47 23 23 0 0 0-3.16-.09c-.89 0-3.9.53-6.69 1.08s-5.83 1.05-6.76 1.13-2.45.13-3.38.12a31.35 31.35 0 0 1-3.38-.27c-.93-.13-4-.87-6.76-1.63a68.84 68.84 0 0 0-6.76-1.57c-.93-.1-4.15-.08-7.16 0s-5.72.56-6 1a2.41 2.41 0 0 0 .3 2.17 9.47 9.47 0 0 1 1.09 2.68 6.59 6.59 0 0 1-.81 3.21c-.56 1.09-1.31 2.43-1.67 3a7.26 7.26 0 0 0-.88 2.21 10.16 10.16 0 0 0 0 2.66 2.11 2.11 0 0 0 1.16 1.71 4.86 4.86 0 0 0 2.71-.64 8.36 8.36 0 0 1 3.33-.88 6.59 6.59 0 0 1 3 1 6.14 6.14 0 0 0 .7.4l.5-.87c.29-.52.61-1.1.88-1.63a6.59 6.59 0 0 0 .81-3.21 9.47 9.47 0 0 0-1.09-2.68 2.41 2.41 0 0 1-.34-2.21c.3-.42 3-.86 6-1s6.24-.14 7.16 0a68.84 68.84 0 0 1 6.76 1.57c2.79.76 5.83 1.49 6.76 1.63a31.35 31.35 0 0 0 3.38.27c.93 0 2.45 0 3.38-.12s4-.59 6.76-1.13 5.8-1 6.69-1.08a23 23 0 0 1 3.18.04zM114.34 146.17a20 20 0 0 0 1.27-3.37 21.34 21.34 0 0 0 .53-3.64 3 3 0 0 0-.89-2.45 4.33 4.33 0 0 0-3 .22 12 12 0 0 1-3.89.72 9 9 0 0 1-1.9-.32c-.33-.09-.65-.18-1-.29a19.32 19.32 0 0 1-.9 2.18 13 13 0 0 0-1.06 3.23 28.6 28.6 0 0 0 1.21 7.05c.8 3 1.1 5.8.65 6.24a4.21 4.21 0 0 1-3.06.41 30.79 30.79 0 0 0-4.35-.4 24.38 24.38 0 0 0-4 .38c-1.06.21-2.8.48-3.86.59s-2.8.21-3.86.22a19.81 19.81 0 0 1-3.86-.42 23.09 23.09 0 0 1-3.86-1.35 16.78 16.78 0 0 0-3.86-1.2 14.64 14.64 0 0 0-3.86 0 37.8 37.8 0 0 0-3.86.92c-1.06.32-2.8 1-3.86 1.44a19.67 19.67 0 0 1-3.86 1.17 17.25 17.25 0 0 1-3.86.12 21.14 21.14 0 0 1-3.86-.87 26.23 26.23 0 0 1-3.77-1.75 13.34 13.34 0 0 0-3.86-1.42 17.29 17.29 0 0 0-5.79.9c-2.12.66-4.72 1.57-5.78 2a11.33 11.33 0 0 1-3.85.79 11.53 11.53 0 0 1-3.85-.91 19 19 0 0 0-1.92-.73c0 .33.07.71.1 1.09.06.73.1 1.48.1 2a3.58 3.58 0 0 0 1 2.45 4.73 4.73 0 0 0 2.84.62 17.14 17.14 0 0 1 3.8.22 20.42 20.42 0 0 1 3.83 1.25 11.53 11.53 0 0 0 3.85.91 11.33 11.33 0 0 0 3.85-.79c1.06-.45 3.66-1.36 5.78-2a17.29 17.29 0 0 1 5.79-.9 13.34 13.34 0 0 1 3.82 1.52 26.23 26.23 0 0 0 3.86 1.79 21.14 21.14 0 0 0 3.86.87 17.25 17.25 0 0 0 3.86-.12 19.67 19.67 0 0 0 3.86-1.17c1.06-.47 2.8-1.11 3.86-1.44a37.8 37.8 0 0 1 3.86-.92 14.64 14.64 0 0 1 3.86 0 16.78 16.78 0 0 1 3.86 1.2 23.09 23.09 0 0 0 3.86 1.35 19.81 19.81 0 0 0 3.86.42c1.06 0 2.8-.11 3.86-.22s2.8-.38 3.86-.59a24.38 24.38 0 0 1 4-.38 30.79 30.79 0 0 1 4.35.4 4.21 4.21 0 0 0 3.06-.41c.44-.44.15-3.25-.65-6.24a28.6 28.6 0 0 1-1.21-7.05 13 13 0 0 1 1.04-3.32zM104.89 101c.43-3.74.44-7.29 0-7.89a4.57 4.57 0 0 0-2.45-1.45 8.55 8.55 0 0 0-3.23 0 9.54 9.54 0 0 0-2.94 1.51c-.29.23-.66.49-1 .74V94c-.43 3.74-1 7.52-1.22 8.41a14.42 14.42 0 0 0-.42 3.22 14.16 14.16 0 0 0 .48 3.19 4.23 4.23 0 0 1 0 2.53 3 3 0 0 1-1.86 1.25 9.1 9.1 0 0 1-2.81.08 11.13 11.13 0 0 1-2.84-1 9.94 9.94 0 0 0-2.86-.92 8.65 8.65 0 0 0-2.86.24 17 17 0 0 1-2.86.52 81.52 81.52 0 0 1-8.58-.92 74.35 74.35 0 0 0-8.58-.89 13.43 13.43 0 0 0-2.86.67 12.35 12.35 0 0 1-3.06.62 17 17 0 0 1-3.46-.28 4.33 4.33 0 0 0-2.74.26c-.5.34-.85 2.45-.77 4.69a34.26 34.26 0 0 0 .46 5.15 14.69 14.69 0 0 0 .89 2.18 7.22 7.22 0 0 1 .67 2.26 8.12 8.12 0 0 1-.26 2.44 1.25 1.25 0 0 0 .39 1.53 5.33 5.33 0 0 0 2.62-.47 16.63 16.63 0 0 1 3.68-.92 10.2 10.2 0 0 1 1.78.09l-.06-.17a6.53 6.53 0 0 1-.15-.86c-.13-1-.25-2.67-.31-4.29-.07-2.23.27-4.34.77-4.69a4.33 4.33 0 0 1 2.74-.26 17 17 0 0 0 3.46.28 12.35 12.35 0 0 0 3.06-.62 13.43 13.43 0 0 1 2.86-.67 74.35 74.35 0 0 1 8.58.89 81.52 81.52 0 0 0 8.58.92 17 17 0 0 0 2.86-.52 8.65 8.65 0 0 1 2.86-.24 9.94 9.94 0 0 1 2.86.92 11.13 11.13 0 0 0 2.84 1 9.1 9.1 0 0 0 2.81-.08 3 3 0 0 0 1.86-1.25 4.23 4.23 0 0 0 0-2.53 14.16 14.16 0 0 1-.48-3.19 14.42 14.42 0 0 1 .42-3.22c.15-.87.7-4.66 1.13-8.35zM54.67 40.69a7.48 7.48 0 0 1 2 .15 15.24 15.24 0 0 1 2.43.85 11.44 11.44 0 0 0 2.64.78 10.07 10.07 0 0 0 2.64-.06 22.14 22.14 0 0 1 2.71-.28 25.72 25.72 0 0 1 2.87.11 6.18 6.18 0 0 0 3-.63 13.21 13.21 0 0 0 3-2.51c.84-.95 2.27-2.39 3.18-3.21s2.47-2.06 3.45-2.75 3.53-2.26 5.64-3.49A30.83 30.83 0 0 0 93.48 26a14.16 14.16 0 0 0 2.23-3.35 4.94 4.94 0 0 0 .42-3 3 3 0 0 0-2.07-1.44c-.91-.18-3.39-.52-5.5-.75-.73-.08-1.51-.14-2.27-.19l-1.13-.07a13.07 13.07 0 0 1-1.39 1.8 30.83 30.83 0 0 1-5.25 3.7c-2.12 1.22-4.65 2.79-5.64 3.49s-2.54 1.95-3.45 2.81-2.34 2.27-3.18 3.21a13.21 13.21 0 0 1-3 2.51 6.18 6.18 0 0 1-3 .63c-.52-.06-1.24-.09-1.89-.11-.25.34-.51.68-.76 1l-.5.61A26.35 26.35 0 0 1 55 39a4.55 4.55 0 0 0-1.18 1.39c-.03.2.34.35.85.3z"/></svg>