<svg xmlns="http://www.w3.org/2000/svg" width="200" height="200" viewBox="0 0 200 200"><title>_</title><path d="M139.22,45a4.13,4.13,0,0,0-2.09-.14,31.44,31.44,0,0,1-3.71.39,65.64,65.64,0,0,1-7.65-.77,63,63,0,0,0-7.37-.78,21.39,21.39,0,0,0-3.56.44,17.94,17.94,0,0,1-4,.37,18.33,18.33,0,0,1-4-.74,12.43,12.43,0,0,0-7-.24,16.7,16.7,0,0,1-8,.08,12.65,12.65,0,0,0-3.44-.22,14.07,14.07,0,0,0-3.47,1,9.55,9.55,0,0,1-4.29.7,11.12,11.12,0,0,1-4.21-1.66,15.31,15.31,0,0,0-3.48-1.69,11.1,11.1,0,0,0-3.39-.34c-1.06.1-3.66,0.13-5.77,0.08a41.39,41.39,0,0,0-5.44.16,20.78,20.78,0,0,0-3.46.9,7.85,7.85,0,0,0-2.49,1.59,5.89,5.89,0,0,0-1.15,2.35,10.42,10.42,0,0,0,0,3,13.19,13.19,0,0,0,1.08,3.14,21.19,21.19,0,0,1,1.43,3.67A17.76,17.76,0,0,1,54.16,60c0,1.12-.39,5.34-0.77,8.78-0.44,3.92-1,7.78-1.21,8.78s-0.71,2.58-1.05,3.57a17.59,17.59,0,0,0-.74,3.24,16.23,16.23,0,0,0,.05,3.22,28.71,28.71,0,0,1,.1,7.17A27.21,27.21,0,0,0,50.42,98a27.85,27.85,0,0,0,.38,3.32,28.26,28.26,0,0,1,.4,3.62,27.92,27.92,0,0,1-.17,3.63c-0.12,1-.6,3.37-1.07,5.31a16.34,16.34,0,0,0-.51,4.79,10.79,10.79,0,0,0,1.26,3.1,11.47,11.47,0,0,1,1.48,3.86,9.73,9.73,0,0,1-.43,3.94c-0.33.91-.77,2.45-1,3.35a32.34,32.34,0,0,0-.54,3.34,22.85,22.85,0,0,0,0,3.29,23.91,23.91,0,0,0,.56,3.3c0.26,1,.57,2.59.7,3.56a33.38,33.38,0,0,1,.25,3.52,2.72,2.72,0,0,0,.59,1.68,3.91,3.91,0,0,0,2.13.4,18.07,18.07,0,0,1,4.06.23,18.23,18.23,0,0,1,2,.55,20,20,0,0,1,2,.77,10.68,10.68,0,0,0,3.45.82,11.27,11.27,0,0,0,3.45-.71c1.09-.46,3.73-1.39,5.88-2.06a21.66,21.66,0,0,1,5.51-1,4.83,4.83,0,0,1,.72,0,14.23,14.23,0,0,1,4.21,1.55,25.6,25.6,0,0,0,3.68,1.7,20.17,20.17,0,0,0,3.64.82,16.4,16.4,0,0,0,3.59-.11,18.74,18.74,0,0,0,3.62-1.1c1.1-.48,2.88-1.14,4-1.48a38.8,38.8,0,0,1,4-.95,15.6,15.6,0,0,1,4.17,0,17.64,17.64,0,0,1,4.13,1.29,22.1,22.1,0,0,0,3.65,1.29,21.45,21.45,0,0,0,3.62.4c1,0,2.73-.11,3.76-0.22s2.73-.37,3.77-0.58a25.56,25.56,0,0,1,4.18-.4h0a31.86,31.86,0,0,1,4.52.42,4.56,4.56,0,0,0,2.08-.09,18.26,18.26,0,0,0-.81-5.32c-0.73-2.73-1.42-6.28-1.24-7.46a13.89,13.89,0,0,1,1.16-3.54,18.62,18.62,0,0,0,.85-2.06c0.14-.4.26-0.79,0.34-1.11a20.41,20.41,0,0,0,.49-3.44,2.43,2.43,0,0,0-.41-1.55,4.18,4.18,0,0,0-2.09.3,13.65,13.65,0,0,1-4.28.79,11.32,11.32,0,0,1-4.06-1,11.51,11.51,0,0,0-3.18-1,10.12,10.12,0,0,0-3.13.26,30.06,30.06,0,0,1-3.66.73,28.94,28.94,0,0,1-3.67.15c-0.92,0-3.29,0-5.16.18a53.27,53.27,0,0,1-5.41.14,70.53,70.53,0,0,1-7.18-1.32,50.39,50.39,0,0,0-5.19-.89A8.75,8.75,0,0,0,94,127a15.63,15.63,0,0,0-3.41.85,6,6,0,0,1-3.32.49,2.15,2.15,0,0,1-1-2.75,7.15,7.15,0,0,0,.23-2.08,6.23,6.23,0,0,0-.56-1.89,15.66,15.66,0,0,1-1-2.35,34.25,34.25,0,0,1-.5-5.4c0-.77-0.09-4.65,1.21-5.54a5.22,5.22,0,0,1,3.51-.42,15.91,15.91,0,0,0,3.22.26,11.29,11.29,0,0,0,2.76-.56,14.38,14.38,0,0,1,3.12-.72,72,72,0,0,1,8.81.9c4.15,0.59,7.74.94,8.36,0.91a16,16,0,0,0,2.66-.48,9.67,9.67,0,0,1,3.25-.27,11,11,0,0,1,3.21,1,10.29,10.29,0,0,0,2.53.88,8.13,8.13,0,0,0,2.44-.07,2.15,2.15,0,0,0,1.17-.71,3.52,3.52,0,0,0-.06-1.81,15.08,15.08,0,0,1-.52-3.46,15.36,15.36,0,0,1,.45-3.49c0.2-.74.73-4.25,1.19-8.27s0.36-6.74.15-7.27a3.82,3.82,0,0,0-1.8-1,7.58,7.58,0,0,0-2.78,0,8.59,8.59,0,0,0-2.6,1.35A16.16,16.16,0,0,1,121.63,87a11.38,11.38,0,0,1-3.19.79,9.81,9.81,0,0,1-3.25-.45,13.47,13.47,0,0,1-3.14-1.72,10.41,10.41,0,0,0-2.55-1.36,6.93,6.93,0,0,0-2.43-.21,19.59,19.59,0,0,0-2.69.63,23,23,0,0,0-2.71,1.13,7.1,7.1,0,0,1-3.4.71,7.84,7.84,0,0,1-2.51-.79,7.08,7.08,0,0,1-.82-0.47,5.69,5.69,0,0,0-2.47-.83,7.81,7.81,0,0,0-2.85.77,5.62,5.62,0,0,1-3.44.72,3,3,0,0,1-1.88-2.54,11.14,11.14,0,0,1,0-3,8.29,8.29,0,0,1,1-2.57C85.7,77.37,86.45,76,87,75a6,6,0,0,0,.72-2.58,8.52,8.52,0,0,0-1-2.33c-0.59-1-.93-2.42-0.3-3.31s4.56-1.31,6.79-1.4c2.73-.11,6.21-0.15,7.31,0a69.31,69.31,0,0,1,6.91,1.59c2.72,0.74,5.76,1.48,6.64,1.6a30.37,30.37,0,0,0,3.25.25c0.89,0,2.39,0,3.28-.12s3.93-.59,6.65-1.12c2.53-.49,5.78-1,6.82-1.09a23.83,23.83,0,0,1,3.33.1,3.13,3.13,0,0,0,1.43-.18,16.94,16.94,0,0,0,.43-4.55,62.39,62.39,0,0,1,.46-8c0.14-.92.27-1.93,0.36-2.81s0.13-1.47.14-1.82a17.68,17.68,0,0,0-.24-2.81A2.39,2.39,0,0,0,139.22,45Z" fill="#231f20"/><path d="M123.06,11.16a2.16,2.16,0,0,0-1.33-.81h0c-0.88-.18-3.31-0.51-5.41-0.73a42.87,42.87,0,0,0-5.68-.27,32.62,32.62,0,0,0-3.88.56c-1.14.25-3,.56-4.11,0.69s-3,.25-4.09.26a11.3,11.3,0,0,0-3.22.58,8.55,8.55,0,0,0-2.44,1.62,10.7,10.7,0,0,0-1.71,2.51,13.35,13.35,0,0,0-.86,3.21,21.07,21.07,0,0,1-.87,3.81,17.71,17.71,0,0,1-1.66,3.33c-0.54.81-1.46,2-2,2.72a27.6,27.6,0,0,1-2.19,2.24,8.57,8.57,0,0,1,1.21.17A16,16,0,0,1,87.4,32a10.59,10.59,0,0,0,2.36.7,9.16,9.16,0,0,0,2.32-.05,23.25,23.25,0,0,1,2.86-.3h1c0.73,0,1.45.06,2,.12a5.27,5.27,0,0,0,2.4-.52,12.42,12.42,0,0,0,2.73-2.28c0.86-1,2.32-2.45,3.26-3.29s2.53-2.11,3.55-2.83,3.58-2.3,5.72-3.54a29.94,29.94,0,0,0,5-3.52,12.21,12.21,0,0,0,1.27-1.69,10.93,10.93,0,0,0,.77-1.38A4.3,4.3,0,0,0,123.06,11.16Z" fill="#231f20"/><path d="M140.74,54a61.47,61.47,0,0,0-.45,7.86c0,2.54-.29,4.92-0.69,5.27a3.43,3.43,0,0,1-2.27.47,23,23,0,0,0-3.16-.09c-0.89,0-3.9.53-6.69,1.08s-5.83,1.05-6.76,1.13-2.45.14-3.38,0.12a31.29,31.29,0,0,1-3.38-.27c-0.93-.13-4-0.87-6.76-1.63a68.84,68.84,0,0,0-6.76-1.57c-0.93-.1-4.15-0.08-7.16,0s-5.72.56-6,1a2.41,2.41,0,0,0,.34,2.21,9.47,9.47,0,0,1,1.09,2.68,6.59,6.59,0,0,1-.81,3.21c-0.56,1.09-1.31,2.43-1.67,3a7.26,7.26,0,0,0-.88,2.21,10.16,10.16,0,0,0,0,2.66A2.11,2.11,0,0,0,86.44,85a4.86,4.86,0,0,0,2.71-.64,8.36,8.36,0,0,1,3.33-.88,6.59,6.59,0,0,1,3,1,6.07,6.07,0,0,0,.7.4l0.5-.87c0.29-.52.61-1.1,0.88-1.63a6.59,6.59,0,0,0,.81-3.21,9.47,9.47,0,0,0-1.09-2.68A2.41,2.41,0,0,1,97,74.3c0.3-.42,3-0.86,6-1s6.24-.14,7.16,0a68.84,68.84,0,0,1,6.76,1.57c2.79,0.76,5.83,1.49,6.76,1.63a31.29,31.29,0,0,0,3.38.27c0.93,0,2.45,0,3.38-.12s4-.59,6.76-1.13,5.8-1,6.69-1.08a23,23,0,0,1,3.16.09A3.43,3.43,0,0,0,149.3,74c0.4-.35.71-2.73,0.69-5.27a61.47,61.47,0,0,1,.45-7.86,47,47,0,0,0,.51-4.77,18.7,18.7,0,0,0-.25-3,3.29,3.29,0,0,0-1.28-2,5,5,0,0,0-2.76-.26,30.29,30.29,0,0,1-3.57.38c-0.22,0-.57,0-1,0l-1-.08C141,52,140.88,53,140.74,54Z" fill="#231f20"/><path d="M151.91,144.3a20,20,0,0,0,1.27-3.37,21.33,21.33,0,0,0,.53-3.64,3,3,0,0,0-.89-2.45,4.33,4.33,0,0,0-3,.22,12,12,0,0,1-3.89.72,9,9,0,0,1-1.9-.32c-0.33-.09-0.65-0.18-1-0.29a19.36,19.36,0,0,1-.9,2.18,13,13,0,0,0-1.06,3.23,28.6,28.6,0,0,0,1.21,7.05c0.8,3,1.1,5.8.65,6.24a4.21,4.21,0,0,1-3.06.41,30.79,30.79,0,0,0-4.35-.4,24.41,24.41,0,0,0-4,.38c-1.06.21-2.8,0.48-3.86,0.59s-2.8.21-3.86,0.22a19.79,19.79,0,0,1-3.86-.42,23.09,23.09,0,0,1-3.86-1.35,16.77,16.77,0,0,0-3.86-1.2,14.62,14.62,0,0,0-3.86,0,37.73,37.73,0,0,0-3.86.92c-1.06.32-2.8,1-3.86,1.44a19.63,19.63,0,0,1-3.86,1.17,17.24,17.24,0,0,1-3.86.12,21.12,21.12,0,0,1-3.86-.87,26.25,26.25,0,0,1-3.86-1.79,13.33,13.33,0,0,0-3.86-1.42,17.28,17.28,0,0,0-5.79.9c-2.12.66-4.72,1.57-5.78,2a11.33,11.33,0,0,1-3.85.79,11.53,11.53,0,0,1-3.85-.91,19,19,0,0,0-1.92-.73c0,0.33.07,0.71,0.1,1.09,0.06,0.73.1,1.48,0.1,2a3.58,3.58,0,0,0,1,2.45,4.74,4.74,0,0,0,2.84.62,17.14,17.14,0,0,1,3.8.22,20.43,20.43,0,0,1,3.83,1.25,11.53,11.53,0,0,0,3.85.91,11.33,11.33,0,0,0,3.85-.79c1.06-.45,3.66-1.36,5.78-2a17.28,17.28,0,0,1,5.79-.9A13.33,13.33,0,0,1,95,160.07a26.25,26.25,0,0,0,3.86,1.79,21.12,21.12,0,0,0,3.86.87,17.24,17.24,0,0,0,3.86-.12,19.63,19.63,0,0,0,3.86-1.17c1.06-.47,2.8-1.11,3.86-1.44a37.73,37.73,0,0,1,3.86-.92,14.62,14.62,0,0,1,3.86,0,16.77,16.77,0,0,1,3.86,1.2,23.09,23.09,0,0,0,3.86,1.35,19.79,19.79,0,0,0,3.86.42c1.06,0,2.8-.11,3.86-0.22s2.8-.38,3.86-0.59a24.41,24.41,0,0,1,4-.38,30.79,30.79,0,0,1,4.35.4,4.21,4.21,0,0,0,3.06-.41c0.44-.44.15-3.25-0.65-6.24a28.6,28.6,0,0,1-1.21-7.05A13,13,0,0,1,151.91,144.3Z" fill="#231f20"/><path d="M132.76,92.05v0.08c-0.43,3.74-1,7.52-1.22,8.41a14.42,14.42,0,0,0-.42,3.22,14.15,14.15,0,0,0,.48,3.19,4.23,4.23,0,0,1,0,2.53,3,3,0,0,1-1.86,1.25,9.11,9.11,0,0,1-2.81.08,11.14,11.14,0,0,1-2.84-1,9.94,9.94,0,0,0-2.86-.92,8.66,8.66,0,0,0-2.86.24,17,17,0,0,1-2.86.52,81.38,81.38,0,0,1-8.58-.92,74.35,74.35,0,0,0-8.58-.89,13.43,13.43,0,0,0-2.86.67,12.36,12.36,0,0,1-3.06.62,17,17,0,0,1-3.46-.28,4.33,4.33,0,0,0-2.74.26c-0.5.34-.85,2.45-0.77,4.69a34.26,34.26,0,0,0,.46,5.15,14.69,14.69,0,0,0,.89,2.18,7.22,7.22,0,0,1,.67,2.26,8.12,8.12,0,0,1-.26,2.44,1.25,1.25,0,0,0,.39,1.53,5.33,5.33,0,0,0,2.62-.47A16.62,16.62,0,0,1,93.9,126a10.22,10.22,0,0,1,1.78.09l-0.06-.17a6.53,6.53,0,0,1-.15-0.86c-0.13-1-.25-2.67-0.31-4.29-0.07-2.23.27-4.34,0.77-4.69a4.33,4.33,0,0,1,2.74-.26,17,17,0,0,0,3.46.28,12.36,12.36,0,0,0,3.06-.62,13.43,13.43,0,0,1,2.86-.67,74.35,74.35,0,0,1,8.58.89,81.38,81.38,0,0,0,8.58.92,17,17,0,0,0,2.86-.52,8.66,8.66,0,0,1,2.86-.24,9.94,9.94,0,0,1,2.86.92,11.14,11.14,0,0,0,2.84,1,9.11,9.11,0,0,0,2.81-.08,3,3,0,0,0,1.86-1.25,4.23,4.23,0,0,0,0-2.53,14.15,14.15,0,0,1-.48-3.19,14.42,14.42,0,0,1,.42-3.22c0.24-.89.79-4.68,1.22-8.41s0.44-7.29,0-7.89A4.57,4.57,0,0,0,140,89.74a8.55,8.55,0,0,0-3.23,0,9.54,9.54,0,0,0-2.94,1.51l0,0C133.51,91.55,133.14,91.81,132.76,92.05Z" fill="#231f20"/><path d="M92.59,37.09a4.56,4.56,0,0,0-1.18,1.39c0,0.24.32,0.39,0.82,0.33a7.48,7.48,0,0,1,2,.15,15.26,15.26,0,0,1,2.43.85,11.42,11.42,0,0,0,2.64.78,10.07,10.07,0,0,0,2.64-.06,22.09,22.09,0,0,1,2.71-.28,25.66,25.66,0,0,1,2.87.11,6.19,6.19,0,0,0,3-.63,13.2,13.2,0,0,0,3-2.51c0.84-.95,2.27-2.39,3.18-3.21s2.47-2.06,3.45-2.75,3.53-2.26,5.64-3.49a30.83,30.83,0,0,0,5.25-3.7,14.16,14.16,0,0,0,2.23-3.35,4.94,4.94,0,0,0,.42-3,3,3,0,0,0-2.07-1.44c-0.91-.18-3.39-0.52-5.5-0.75-0.73-.08-1.51-0.14-2.27-0.19l-1.13-.07a13.06,13.06,0,0,1-1.39,1.83,30.83,30.83,0,0,1-5.25,3.7c-2.12,1.22-4.65,2.79-5.64,3.49s-2.54,1.93-3.45,2.75-2.34,2.27-3.18,3.21a13.2,13.2,0,0,1-3,2.51,6.19,6.19,0,0,1-3,.63c-0.52-.06-1.24-0.09-1.89-0.11-0.25.34-.51,0.68-0.76,1l-0.5.61A26.27,26.27,0,0,1,92.59,37.09Z" fill="#231f20"/></svg>