<svg xmlns="http://www.w3.org/2000/svg" width="122.52" height="200" viewBox="0 0 122.52 200"><title>_</title><path d="M66.37 30.86A30.39 30.39 0 0 0 71.1 34h.14a8.82 8.82 0 0 0 2.14.28A21 21 0 0 0 76 34a23.4 23.4 0 0 0 2.64-.67 15.41 15.41 0 0 1 5.25-.73 14.51 14.51 0 0 1-2.49-2.73 13.67 13.67 0 0 1-1.68-4.33 7 7 0 0 0-1.24-2.74 7.4 7.4 0 0 0-2.64-1.64 13.82 13.82 0 0 1-2.91-1.43 9 9 0 0 1-1.1-.73 11.46 11.46 0 0 1-2.57-3.63 6.09 6.09 0 0 0-1.46-2 16.3 16.3 0 0 0-5-.13 33.65 33.65 0 0 1-6.85.1 15.67 15.67 0 0 1-3.56-1.32 6.5 6.5 0 0 0-2.39-.77 5.82 5.82 0 0 0-2.28.64 17.61 17.61 0 0 0-2.5 1.78A18.74 18.74 0 0 0 43.07 16a25.06 25.06 0 0 1-2.58 2.87 27.92 27.92 0 0 1-3.15 2.44 33.12 33.12 0 0 0-2.87 2.13A30.71 30.71 0 0 0 32 25.89c-.62.7-2.12 2.75-3.28 4.47a16.11 16.11 0 0 0-1.5 2.71h.29c.92 0 3 .25 4.67.49a41.17 41.17 0 0 0 4.12.4c.37 0 .9 0 1.47-.09.4 0 .8-.09 1.1-.14a20.63 20.63 0 0 0 2.51-.65 19.06 19.06 0 0 0 2.3-1c.71-.38 1.77-.88 2.36-1.11a13.44 13.44 0 0 1 2.05-.63 8.63 8.63 0 0 0 1.3-.4 12.51 12.51 0 0 0 1.42-.74 6.44 6.44 0 0 0 1.11-.93 19.41 19.41 0 0 0 1.51-2.58c.65-1.27 1.63-2.86 2.65-3.17a4.6 4.6 0 0 1 2.36.07 5.14 5.14 0 0 1 2.11 1.28 5.71 5.71 0 0 1 1.16 2.19 6 6 0 0 0 .55 1.31 44.86 44.86 0 0 0 4 3.34zM12.26 145.68a8.09 8.09 0 0 0-.74 2.75 6.72 6.72 0 0 0 .62 2.53 7.56 7.56 0 0 0 1.68 2.04 8 8 0 0 0 2.5 1.12 14.45 14.45 0 0 0 3.14.27h.21a17.57 17.57 0 0 0 3.33-.63 13.11 13.11 0 0 1 4.46-.47 14.54 14.54 0 0 1 4.39 1.33 7.94 7.94 0 0 0 3.14.78 8.69 8.69 0 0 0 3.17-.91 20 20 0 0 1 4.23-1.65 16.51 16.51 0 0 1 4.32-.34c1 .08 2.68.1 3.67.06s2.68-.22 3.68-.38A19.21 19.21 0 0 1 57 152c.48 0 .95 0 1.33.05a58.45 58.45 0 0 1 8 2.1 48.17 48.17 0 0 0 7.34 1.85 110.36 110.36 0 0 0 11.23-1.6c4-.71 10.44-1.71 12.09-1.54a29.55 29.55 0 0 1 4.45.88 5.15 5.15 0 0 0 1.35.2 2.76 2.76 0 0 0-.14-.79 11.58 11.58 0 0 1-.48-4.25 11 11 0 0 1 1.43-4 14 14 0 0 0 1.3-2.85 10.56 10.56 0 0 0 .32-2.74v-.26a10.17 10.17 0 0 0-.49-2.25 8.69 8.69 0 0 0-1.25-2 5.85 5.85 0 0 0-1.58-1.2 4.25 4.25 0 0 0-1.67-.22 24.73 24.73 0 0 1-3 .13c-.89 0-2.43-.16-3.45-.3a32.88 32.88 0 0 0-3.33-.25c-.86 0-2.41.06-3.33.16a15.85 15.85 0 0 1-4-.15 18.41 18.41 0 0 1-3.89-1.29 11.09 11.09 0 0 0-3-.87 10.06 10.06 0 0 0-3 .29 31.4 31.4 0 0 1-3.73.8 31.59 31.59 0 0 1-3.74.23c-.77 0-4.17.17-9.12.55-3.06.24-8.39.48-9.67-.47-1.47-1.09-1.65-6.14-1.66-8.26 0-2.58 0-6.76.16-7.67.1-.65.33-1.73.5-2.41a6.63 6.63 0 0 1 1.58-2.72 10.05 10.05 0 0 1 2.85-1.8 7.13 7.13 0 0 1 3.84-.34 9.44 9.44 0 0 1 3.54 2 4.7 4.7 0 0 0 2 1 3.76 3.76 0 0 0 1.85-.62 14.14 14.14 0 0 1 3.27-1.68 10.54 10.54 0 0 1 3.43-.42 23.4 23.4 0 0 0 2.64 0 23.14 23.14 0 0 0 2.65-.37 10.2 10.2 0 0 1 3.45 0 12.09 12.09 0 0 1 3.34 1.28 8 8 0 0 0 2.31.84 6.41 6.41 0 0 0 2.21-.2 11.59 11.59 0 0 1 3.66-.4 18.48 18.48 0 0 1 4 .86H93a6 6 0 0 0-.33-.84 11.75 11.75 0 0 1-1.12-4.6 9.11 9.11 0 0 1 1.37-4.26A8.55 8.55 0 0 0 94 98.95a6.48 6.48 0 0 0-.23-2.51c-.28-.82-.64-2.1-.85-3l-.07-.33a29.78 29.78 0 0 1-.46-3.36A3.73 3.73 0 0 0 92 88.3a16.59 16.59 0 0 0-3.9-.52c-2.45-.08-4.95-.25-5.82-.39a25.81 25.81 0 0 1-3.07-.75 5.48 5.48 0 0 0-2.11-.14 7.53 7.53 0 0 0-2.27 1.05 9.5 9.5 0 0 1-3.5 1.51 7.77 7.77 0 0 1-3.65-.45 6.91 6.91 0 0 0-2.21-.39 7.08 7.08 0 0 0-2.25.66 6.68 6.68 0 0 1-3.82.63 8.53 8.53 0 0 1-3.59-1.87 5.39 5.39 0 0 0-2.16-1.1 5 5 0 0 0-2.27.5c-.36.19-2.22 1.12-3.48.76a2.7 2.7 0 0 1-1.57-3.17 10.14 10.14 0 0 0 .07-2 7.07 7.07 0 0 0-.4-1.72 8.06 8.06 0 0 1-.6-2.52 7.75 7.75 0 0 1 .38-2.54 8 8 0 0 0 .28-1.85 16.79 16.79 0 0 0-.19-2.58A4.38 4.38 0 0 1 47 67.7a6.63 6.63 0 0 1 3.91-1.21 16.58 16.58 0 0 1 4.39.69 16.61 16.61 0 0 1 4 2.13 9.77 9.77 0 0 0 2.82 1.42 6.55 6.55 0 0 0 2.63 0c.87-.24 3.12-1 4.92-1.74a30.68 30.68 0 0 1 5.42-1.64 15.41 15.41 0 0 1 3.82.07c1 .17 3.34.78 5.26 1.37a33.14 33.14 0 0 0 4.76 1.13 14.37 14.37 0 0 0 3-.12 33.47 33.47 0 0 1 3.69-.37 38.21 38.21 0 0 1 3.89.11 4.09 4.09 0 0 0 2.06-.4 3.92 3.92 0 0 0 1-1.8 11.78 11.78 0 0 0 .19-3.09 10.75 10.75 0 0 0-.84-2.85 35.83 35.83 0 0 1-1.42-3.41 31.54 31.54 0 0 1-.93-3.43 25.32 25.32 0 0 1-.39-3.1v-.2a18.47 18.47 0 0 1 .18-3.08 1.46 1.46 0 0 0-.07-.67 3.61 3.61 0 0 0-1.29-.34 28.54 28.54 0 0 1-3.6-.38 37.7 37.7 0 0 1-3.82-1 34.71 34.71 0 0 0-3.58-.85 32.24 32.24 0 0 0-3.56-.38c-1 0-5.32.17-9.25.45-4.39.31-8.51.5-9.59.44s-2.82-.2-3.9-.35a32 32 0 0 0-3.56-.25 32.14 32.14 0 0 0-3.56.25c-1 .14-2.64.46-3.6.7s-2.62.76-3.62 1.12a15.18 15.18 0 0 1-4.27.81 15.49 15.49 0 0 1-4.32-.73c-1-.34-3.46-1-5.5-1.48a41.28 41.28 0 0 0-5.38-.92c-.95 0-4.43.08-7.61.28a23 23 0 0 0-5.52.88 3.35 3.35 0 0 0 .1 1.41 20.58 20.58 0 0 1 .75 4.07 17.45 17.45 0 0 1-.3 4 23.6 23.6 0 0 0-.41 3.22 62.67 62.67 0 0 0 .6 6.67 33.09 33.09 0 0 1 .34 7.41 16.87 16.87 0 0 1-1.38 3.87 17.69 17.69 0 0 0-1.21 3.14 14.57 14.57 0 0 0-.36 3.07 31.52 31.52 0 0 0 .27 3.28 33.38 33.38 0 0 0 .7 3.29 16.3 16.3 0 0 1 .51 3.89 16.46 16.46 0 0 1-.62 3.88 10.41 10.41 0 0 0-.36 2.93 11.07 11.07 0 0 0 .73 3 9.91 9.91 0 0 1 .7 4.2 11.06 11.06 0 0 1-1.44 4.12 5.93 5.93 0 0 0-.78 2.63 6.42 6.42 0 0 0 1 2.67 11.92 11.92 0 0 1 1.72 4.06 9.78 9.78 0 0 1-.36 4.2 20.55 20.55 0 0 0-.76 3.18 46.83 46.83 0 0 0 .25 6.59 38.38 38.38 0 0 1 .13 7.35 17.67 17.67 0 0 1-1.32 3.79z"/><path d="M61 28.2a7.44 7.44 0 0 1-.73-1.72 4.26 4.26 0 0 0-.81-1.55 3.76 3.76 0 0 0-1.46-.86 3.17 3.17 0 0 0-1.5-.07 6.42 6.42 0 0 0-1.75 2.41 19.49 19.49 0 0 1-1.75 2.9 7.94 7.94 0 0 1-1.43 1.2 13.6 13.6 0 0 1-1.64.85 10 10 0 0 1-1.59.49 12.22 12.22 0 0 0-1.78.55c-.55.22-1.54.69-2.21 1a20.81 20.81 0 0 1-2.52 1.09 22.4 22.4 0 0 1-2.73.7c-.34.06-.78.11-1.22.16l-.73 1.06c-1.2 1.79-2.05 3.65-1.9 4.13a2.11 2.11 0 0 0 1.88.95c.88 0 2.92.25 4.52.47a42 42 0 0 0 4.34.41 19.37 19.37 0 0 0 2.83-.25 22.4 22.4 0 0 0 2.73-.7 20.81 20.81 0 0 0 2.52-1.09c.66-.35 1.66-.82 2.21-1a12.22 12.22 0 0 1 1.78-.55 10 10 0 0 0 1.59-.49 13.6 13.6 0 0 0 1.64-.85 7.94 7.94 0 0 0 1.43-1.2 19.49 19.49 0 0 0 1.73-2.9c.1-.19.2-.38.31-.56s.34-.58.51-.83l-.27-.26a31.76 31.76 0 0 1-4-3.49zM75.1 38.94a38.35 38.35 0 0 0 4.79 3.22 3.51 3.51 0 0 0 .48.21 10.48 10.48 0 0 0 2.76.38 22.8 22.8 0 0 0 2.87-.28l.58-.12c.75-.16 1.66-.4 2.27-.61a16.05 16.05 0 0 1 3-.61 21.73 21.73 0 0 1 3.44.05c1 .11 1.81-.05 1.81-.35A4.94 4.94 0 0 0 95.29 39a13.16 13.16 0 0 1-2.92-3 12.13 12.13 0 0 1-1.46-3.77 8.4 8.4 0 0 0-1.59-3.48A8.84 8.84 0 0 0 86 26.72a11.89 11.89 0 0 1-3.49-1.94 6.53 6.53 0 0 1-.61-.63 10.34 10.34 0 0 1-1.57-2.45 7.28 7.28 0 0 0-.57-1.06A6.31 6.31 0 0 0 78.39 19a6 6 0 0 0-2.52-.49h-2.12a12.44 12.44 0 0 0 2.57 1.27 8.84 8.84 0 0 1 3.29 2.07 8.4 8.4 0 0 1 1.59 3.48 12.13 12.13 0 0 0 1.46 3.77 13.16 13.16 0 0 0 2.92 3 4.94 4.94 0 0 1 1.83 1.83c0 .3-.81.46-1.81.35a21.73 21.73 0 0 0-3.44-.05 16.05 16.05 0 0 0-3 .61 24.76 24.76 0 0 1-2.85.72 22.8 22.8 0 0 1-2.85.29 10.62 10.62 0 0 1-2.46-.32c.3.3.79.74 1.37 1.23.79.65 1.73 1.42 2.73 2.18zM110 53.33a4.12 4.12 0 0 0-2.32-.71 26.46 26.46 0 0 1-3.37-.36c-.69-.13-1.74-.38-2.65-.63l-1-.29a24.06 24.06 0 0 0 .36 2.89 30 30 0 0 0 .87 3.23 34.21 34.21 0 0 0 1.35 3.23 12.18 12.18 0 0 1 1 3.35 13.2 13.2 0 0 1-.22 3.58 5.19 5.19 0 0 1-1.57 2.69 5.33 5.33 0 0 1-3.07.68c-1-.09-2.72-.14-3.71-.1a31.44 31.44 0 0 0-3.49.35 15.7 15.7 0 0 1-3.38.13 34 34 0 0 1-5.07-1.19c-1.86-.57-4.14-1.17-5.07-1.32a13.75 13.75 0 0 0-3.38-.06 29.65 29.65 0 0 0-5.07 1.55c-1.86.73-4.14 1.54-5.07 1.79a8 8 0 0 1-3.38.06 11.13 11.13 0 0 1-3.38-1.68 15.12 15.12 0 0 0-3.55-1.9 14.19 14.19 0 0 0-3.9-.61 5.32 5.32 0 0 0-2.93.82 2.94 2.94 0 0 0-.64 2.38 18.05 18.05 0 0 1 .21 2.87 9.41 9.41 0 0 1-.39 2.28 6.36 6.36 0 0 0-.3 2 6.68 6.68 0 0 0 .48 2 8.56 8.56 0 0 1 .55 2.13 11.46 11.46 0 0 1-.08 2.43 1.34 1.34 0 0 0 .52 1.5 4.46 4.46 0 0 0 2.35-.65 6.32 6.32 0 0 1 3.17-.66 6.72 6.72 0 0 1 3 1.46 6.16 6.16 0 0 1-.23-1.26v-.15a6.43 6.43 0 0 1 .3-1.84 9.41 9.41 0 0 0 .33-2.32 18.05 18.05 0 0 0-.21-2.87 2.94 2.94 0 0 1 .64-2.38 5.32 5.32 0 0 1 2.93-.82 14.19 14.19 0 0 1 3.9.61 15.12 15.12 0 0 1 3.55 1.9 11.13 11.13 0 0 0 3.38 1.68 8 8 0 0 0 3.38-.06c.93-.26 3.21-1.06 5.07-1.79A29.65 29.65 0 0 1 85 75.72a13.75 13.75 0 0 1 3.38.06c.93.16 3.21.75 5.07 1.32a34 34 0 0 0 5.07 1.19 15.7 15.7 0 0 0 3.38-.13 31.44 31.44 0 0 1 3.49-.35c1 0 2.66 0 3.71.1a5.33 5.33 0 0 0 3.07-.68 5.19 5.19 0 0 0 1.57-2.69 13.2 13.2 0 0 0 .22-3.58 12.18 12.18 0 0 0-1-3.35 34.21 34.21 0 0 1-1.35-3.23 30 30 0 0 1-.87-3.23 23.67 23.67 0 0 1-.37-3.08 17 17 0 0 1 .16-2.77 2.52 2.52 0 0 0-.53-1.97zM114.58 152.64a15.38 15.38 0 0 0 1.47-3.23 11.86 11.86 0 0 0 .38-3.23 11.54 11.54 0 0 0-.62-3 10.05 10.05 0 0 0-1.52-2.48 7.12 7.12 0 0 0-2.12-1.6 5.67 5.67 0 0 0-2.44-.32c-.51.06-1.32.11-2 .12h-1v.34a11.86 11.86 0 0 1-.37 3.23 15.38 15.38 0 0 1-1.47 3.23 9.66 9.66 0 0 0-1.21 3.36 10.21 10.21 0 0 0 .42 3.62c.34 1 .27 2.15-.15 2.5a4.08 4.08 0 0 1-2.9 0 28 28 0 0 0-4.18-.83c-1.12-.11-6.37.57-11.68 1.52a106.62 106.62 0 0 1-11.57 1.64 47.64 47.64 0 0 1-7.71-1.94 58.06 58.06 0 0 0-7.71-2 18.24 18.24 0 0 0-3.86.14c-1.06.17-2.8.35-3.86.4s-2.8 0-3.86-.07a15.18 15.18 0 0 0-3.86.3 18.61 18.61 0 0 0-3.86 1.51 10 10 0 0 1-3.9 1.07 9.75 9.75 0 0 1-3.86-.94 13.07 13.07 0 0 0-3.86-1.17 11.76 11.76 0 0 0-3.87.41 19.43 19.43 0 0 1-3.17.64l-.5.05a8.59 8.59 0 0 0 .17 1 7.55 7.55 0 0 0 .57 1.7 9 9 0 0 0 2.11 2.58 9.45 9.45 0 0 0 3.08 1.39 16.12 16.12 0 0 0 3.65.3 18.93 18.93 0 0 0 3.8-.7 11.76 11.76 0 0 1 3.87-.41 13.07 13.07 0 0 1 3.86 1.17 9.75 9.75 0 0 0 3.86.94 10 10 0 0 0 3.86-1.09 18.61 18.61 0 0 1 3.86-1.51 15.18 15.18 0 0 1 3.86-.3c1.06.08 2.8.11 3.86.07s2.8-.23 3.86-.4a18.24 18.24 0 0 1 3.86-.14 58.06 58.06 0 0 1 7.71 2 47.64 47.64 0 0 0 7.71 1.94 106.62 106.62 0 0 0 11.57-1.64c5.3-.95 10.56-1.64 11.68-1.52a28 28 0 0 1 4.18.83 4.08 4.08 0 0 0 2.9 0c.42-.34.49-1.47.15-2.5a10.21 10.21 0 0 1-.42-3.62 9.66 9.66 0 0 1 1.23-3.36zM105.23 106.13a8 8 0 0 0-.29-3.23 32.18 32.18 0 0 1-.88-3.2 28.12 28.12 0 0 1-.43-3.15 4.63 4.63 0 0 0-.84-2.37c-.4-.45-2.62-.87-4.92-.95l-2.4-.11-1-.06c.2.88.54 2.1.81 2.9a8 8 0 0 1 .29 3.23 9.93 9.93 0 0 1-1.34 3.23 7.67 7.67 0 0 0-1.12 3.46 10.38 10.38 0 0 0 1 3.92c.55 1.14.79 2.39.53 2.77s-1.34.4-2.41 0a17 17 0 0 0-3.63-.78 10.27 10.27 0 0 0-3.12.33 7.87 7.87 0 0 1-2.86.25 9.35 9.35 0 0 1-2.86-1 10.75 10.75 0 0 0-2.86-1.1 8.75 8.75 0 0 0-2.86 0 25 25 0 0 1-2.86.4 24.49 24.49 0 0 1-2.86 0 9.1 9.1 0 0 0-2.86.35 12.61 12.61 0 0 0-2.86 1.47 5.07 5.07 0 0 1-2.86.89 6.06 6.06 0 0 1-2.86-1.4 8 8 0 0 0-2.88-1.61 5.72 5.72 0 0 0-2.93.27 8.65 8.65 0 0 0-2.36 1.48 5.2 5.2 0 0 0-1.18 2c-.16.63-.38 1.65-.47 2.27s-.16 4-.14 7.42.5 6.65 1.06 7.07 4.43.5 8.59.18h.07v-.31-.7c0-3.21.06-6.15.15-6.73s.31-1.64.47-2.27a5.2 5.2 0 0 1 1.18-2 8.65 8.65 0 0 1 2.36-1.48 5.72 5.72 0 0 1 2.93-.27 8 8 0 0 1 2.79 1.7 6.06 6.06 0 0 0 2.86 1.4 5.07 5.07 0 0 0 2.86-.89A12.61 12.61 0 0 1 75.1 118a9.1 9.1 0 0 1 2.86-.35 24.49 24.49 0 0 0 2.86 0 25 25 0 0 0 2.86-.4 8.75 8.75 0 0 1 2.86 0 10.75 10.75 0 0 1 2.86 1.1 9.35 9.35 0 0 0 2.86 1 7.87 7.87 0 0 0 2.86-.25 10.27 10.27 0 0 1 3.12-.33 17 17 0 0 1 3.63.78c1.07.37 2.16.36 2.41 0s0-1.63-.53-2.77a10.38 10.38 0 0 1-1-3.92 7.67 7.67 0 0 1 1.12-3.46 9.93 9.93 0 0 0 1.36-3.27z"/></svg>