<svg xmlns="http://www.w3.org/2000/svg" width="116.51" height="200" viewBox="0 0 116.51 200"><title>_</title><path d="M15.21 154.06a4.5 4.5 0 0 0 1.86 1.17 11.42 11.42 0 0 0 3.32.44 12 12 0 0 0 2.72-.6c.23-.08.44-.16.63-.24a30.47 30.47 0 0 1 4.09-1.4 27 27 0 0 1 4.13-.62c1-.05 3.58-.38 5.62-.71s4.84-.69 5.94-.75h1.34c1 0 2 0 2.73.1a26.7 26.7 0 0 1 4.14.78 31.05 31.05 0 0 1 4.09 1.58 27.63 27.63 0 0 0 3.62 1.39 23.48 23.48 0 0 0 3.57.67 12.87 12.87 0 0 0 3.36-.28 16.13 16.13 0 0 0 3.46-1.46 10.59 10.59 0 0 1 4.61-1.35 10.56 10.56 0 0 1 4.61 1.31 9.4 9.4 0 0 0 3.21 1.05 8.34 8.34 0 0 0 3.15-.59c1.11-.49 2.92-1.16 4-1.49a39.91 39.91 0 0 1 4-1 18.48 18.48 0 0 1 4.34-.11 21.74 21.74 0 0 1 4.41 1.09 5.55 5.55 0 0 0 1 .28 2.73 2.73 0 0 0-.1-.35 17.33 17.33 0 0 1-.84-3.86 32.18 32.18 0 0 1 1.13-7c.33-1.32.64-2.72.89-4a21 21 0 0 0 .36-2.25 18.37 18.37 0 0 0-.16-3 2.26 2.26 0 0 0-.53-1.12 3.86 3.86 0 0 0-1.64.16 26.77 26.77 0 0 1-3.85.89 23.91 23.91 0 0 1-3.82.16 25.71 25.71 0 0 1-3.78-.55 28.85 28.85 0 0 1-3.75-1.24 9.42 9.42 0 0 0-2.91-.62 9.48 9.48 0 0 0-2.94.64 13.09 13.09 0 0 1-4.06.93 13.2 13.2 0 0 1-4.08-.7 32 32 0 0 0-3.32-1 28.65 28.65 0 0 0-3.3-.5 12.91 12.91 0 0 0-3.08.21 16 16 0 0 0-2.83 1l-.32.16a16.62 16.62 0 0 1-4 1.37 16.39 16.39 0 0 1-4.25.07 5.23 5.23 0 0 1-3.47-1.72 3.81 3.81 0 0 1 .4-3.83 5.12 5.12 0 0 0 .72-1.88 2.89 2.89 0 0 0-.44-1.38 14.69 14.69 0 0 1-1.4-2.48 11 11 0 0 1-.68-2.59c-.11-.68-.11-2.31-.11-3.74 0-.8.12-3.48 1.68-4.2a5.29 5.29 0 0 1 3.49.11 11 11 0 0 0 2.63.49 8.72 8.72 0 0 0 2.43-.36 24.41 24.41 0 0 1 3.09-.74 21.74 21.74 0 0 1 3.11-.23c.84 0 2.81.19 4.47.42a21.26 21.26 0 0 0 3.9.21 11.48 11.48 0 0 0 2.46-.67 10.53 10.53 0 0 1 3.42-.74 10.75 10.75 0 0 1 3.43.66c.75.3 2 .72 2.72.93s2 .5 2.71.63 2 .29 2.86.34 2.35.08 3.25 0a2.28 2.28 0 0 0 1.13-.34 4 4 0 0 0-.15-1.68c-.35-1.11-.79-2.85-1-3.88s-.5-5.15-.65-8.31c-.1-2.14-.17-4.37-.18-6a18.08 18.08 0 0 1 0-1.94 2.08 2.08 0 0 0 0-.23 5.59 5.59 0 0 1-3.35 0 10.85 10.85 0 0 1-3.24-2 9.2 9.2 0 0 0-2.36-1.5 5.21 5.21 0 0 0-2.03-.07 24.66 24.66 0 0 0-2.66.69 28.6 28.6 0 0 0-2.68 1.1 8.05 8.05 0 0 1-3.58.77 9.05 9.05 0 0 1-3.53-1.08 14.56 14.56 0 0 0-2.53-1.1 42.15 42.15 0 0 0-5.05-.47l-2.57-.11c-4.55-.15-7.14-.37-7.71-.63A2.78 2.78 0 0 1 49 83.51a5.8 5.8 0 0 1-.1-1.62c0-.52.36-2.37.64-3.84a12.32 12.32 0 0 0 .25-3.42 10.74 10.74 0 0 0-1-2.08 3.26 3.26 0 0 1-.62-2.66 1.7 1.7 0 0 1 1-1.06c.73-.27 1.93 0 3.57.83a7.49 7.49 0 0 0 2.93.75 6.92 6.92 0 0 0 2.76-.84A15.59 15.59 0 0 1 62.28 68c1.6-.37 7.75.74 10.78 1.38 4.52.95 9.85 1.88 11.64 2a13.38 13.38 0 0 0 4.39-.29 13.54 13.54 0 0 0 3-1.84 9.66 9.66 0 0 1 4.25-2 9.15 9.15 0 0 1 4.57.83 3.94 3.94 0 0 0 1.91.42 2.82 2.82 0 0 0 .72-1.26 10.26 10.26 0 0 0 .21-3 9.74 9.74 0 0 0-1-2.8 12.79 12.79 0 0 1-1.33-3.75 11 11 0 0 1 .21-3.83c.14-.53.29-1.34.41-2.12 0-.33.09-.64.11-.89a22.28 22.28 0 0 0 0-3.07 2.43 2.43 0 0 0-.54-1.28 4.06 4.06 0 0 0-1.92-.2 38 38 0 0 1-4 .28 36.72 36.72 0 0 1-4-.25 18.45 18.45 0 0 0-3.43-.06 20.32 20.32 0 0 0-3.45.71 25 25 0 0 1-4.06.86 23.33 23.33 0 0 1-4.08 0 36.18 36.18 0 0 1-4-.67 39.84 39.84 0 0 1-3.95-1.2 37.38 37.38 0 0 0-3.59-1.1 73 73 0 0 0-7.3-.84c-3.24-.25-6.45-.34-7.31-.28s-4.32.7-7.32 1.36a74.35 74.35 0 0 1-7.77 1.39 26.94 26.94 0 0 1-4-.13c-.86-.11-4.72-.17-9.08-.08a36.67 36.67 0 0 0-7.92.74 5.25 5.25 0 0 0-1.32 1.75 9.3 9.3 0 0 0-.61 2.76 10 10 0 0 0 .5 2.86 23.38 23.38 0 0 1 1 3.75 21.37 21.37 0 0 1 .19 3.78 15.55 15.55 0 0 0 .17 3.07 17.78 17.78 0 0 0 1 3.14 9.2 9.2 0 0 1 .64 4.28 10.75 10.75 0 0 1-1.67 4.13 12.79 12.79 0 0 0-1.48 3 9.08 9.08 0 0 0-.23 2.87 29.53 29.53 0 0 0 .65 3.26A33 33 0 0 0 14.45 89a13.78 13.78 0 0 1 .91 4 13.23 13.23 0 0 1-.57 4 20.17 20.17 0 0 0-.71 3.17 56.12 56.12 0 0 0 .17 6.65 43.54 43.54 0 0 1 0 7.3 21.86 21.86 0 0 1-1.11 3.77 9.17 9.17 0 0 0-.58 2.87 9.36 9.36 0 0 0 .66 2.88 31.41 31.41 0 0 1 1.3 3.68 28 28 0 0 1 .69 3.7 14.44 14.44 0 0 1-.25 4 17.32 17.32 0 0 1-1.52 3.86 6.52 6.52 0 0 0-.72 2.69 7 7 0 0 0 .91 2.72 13.51 13.51 0 0 1 1.59 4 11 11 0 0 1-.16 4.11 3 3 0 0 0 .15 1.66zM28.92 32.33a4.33 4.33 0 0 0 1.47.93 9.66 9.66 0 0 0 2.7.5 9.6 9.6 0 0 0 2.74-.54l.65-.22a21 21 0 0 1 2.9-.75A18.87 18.87 0 0 1 43 32a13.39 13.39 0 0 0 2.67-.14 14.48 14.48 0 0 0 3.21-1.39c1.16-.66 2.58-1.54 3-1.88a3 3 0 0 0 .77-1 3.87 3.87 0 0 0 .07-1.46 15.82 15.82 0 0 0-.62-2.23 19.18 19.18 0 0 0-1.1-2.24c-.08-.14-.15-.29-.22-.44a8.79 8.79 0 0 1-.78-2.75 8.68 8.68 0 0 1 .51-3.31 1.51 1.51 0 0 0 .06-.22 26.37 26.37 0 0 0-4.24 0 41 41 0 0 1-7 0 19.81 19.81 0 0 1-3.58-1.12 8.16 8.16 0 0 0-2.59-.58 7.27 7.27 0 0 0-2.48.59A5.43 5.43 0 0 0 29.12 15a1.63 1.63 0 0 0-.17.88 6.88 6.88 0 0 1-.16 3.06 10.83 10.83 0 0 1-1.58 2.92 3.2 3.2 0 0 0-.6 1.52 3.67 3.67 0 0 0 .77 1.59 8.81 8.81 0 0 1 1.71 3.12 6.51 6.51 0 0 1-.18 3.38 1.6 1.6 0 0 0 .01.86zM86.37 16a4.74 4.74 0 0 0-1.86-.15 11.54 11.54 0 0 1-3.65-.19 15.65 15.65 0 0 1-3.62-1.49 6.32 6.32 0 0 0-2.47-.69 6.22 6.22 0 0 0-2.46.87 12.29 12.29 0 0 1-3.79 1.58 10.08 10.08 0 0 1-3.93-.16 4.76 4.76 0 0 0-1.18-.14 2.37 2.37 0 0 0-.66.07 2.33 2.33 0 0 0-.88.9 5.49 5.49 0 0 0-.44 1.85 5.32 5.32 0 0 0 .32 1.47 3.49 3.49 0 0 0 .15.37 14.17 14.17 0 0 1 1 2.78 12 12 0 0 1 .22 3v.78a7 7 0 0 0 .09 1 4.09 4.09 0 0 0 .44 1.15 13.46 13.46 0 0 0 .95 1.13l.24.25c.43.45 1.33 1.28 2 1.82a7 7 0 0 0 2.07 1.14 7.37 7.37 0 0 0 2.38.15h.12a27.51 27.51 0 0 0 3-.63 29.83 29.83 0 0 0 3.06-1.1 13 13 0 0 1 3.81-.91 13.1 13.1 0 0 1 3.9.51 4.54 4.54 0 0 0 1 .19 13.14 13.14 0 0 0 .06-2.85 26.84 26.84 0 0 1 .05-5.62 13.27 13.27 0 0 1 1.15-2.88 3.43 3.43 0 0 0 .17-.36 4.48 4.48 0 0 0 .35-1.36 3.76 3.76 0 0 0-.46-1.52 3.16 3.16 0 0 0-1.13-.96z"/><path d="M115.9 142.91a19.8 19.8 0 0 0-.17-3.31 3.3 3.3 0 0 0-1.29-2.21 4.43 4.43 0 0 0-2.83 0 25 25 0 0 1-3.58.83c-.34 0-.76.08-1.2.11h-1c-.24 1.2-.56 2.65-.9 4a32 32 0 0 0-1.09 6.54 15.89 15.89 0 0 0 .76 3.46c.35 1 .31 2-.08 2.27a4.08 4.08 0 0 1-2.77-.28 20.27 20.27 0 0 0-4-1 16.9 16.9 0 0 0-3.92.1 37.76 37.76 0 0 0-3.86.91c-1.06.32-2.8 1-3.86 1.43a9.79 9.79 0 0 1-3.86.71 10.76 10.76 0 0 1-3.86-1.25 9.11 9.11 0 0 0-3.86-1.1 9.2 9.2 0 0 0-3.86 1.15 17.68 17.68 0 0 1-3.92 1.73 14 14 0 0 1-3.86.31 24.83 24.83 0 0 1-3.86-.72 29 29 0 0 1-3.86-1.48 29.14 29.14 0 0 0-3.86-1.49 25 25 0 0 0-3.86-.73 32.5 32.5 0 0 0-3.86-.07c-1.06.06-3.66.39-5.79.73s-4.72.67-5.78.73a25.19 25.19 0 0 0-3.86.58 28.83 28.83 0 0 0-3.86 1.32c-.22.1-.48.19-.74.28v1.05a7.87 7.87 0 0 1-.2 1.35 4.29 4.29 0 0 0 .29 2.91 5.66 5.66 0 0 0 2.67 1.8 12.76 12.76 0 0 0 3.86.51 13.56 13.56 0 0 0 3.86-1 28.83 28.83 0 0 1 3.86-1.32 25.19 25.19 0 0 1 3.86-.58c1.06-.06 3.66-.38 5.78-.73s4.72-.67 5.79-.73a32.5 32.5 0 0 1 3.86.07 25 25 0 0 1 3.86.73 29.14 29.14 0 0 1 3.86 1.49 29 29 0 0 0 3.86 1.48 24.83 24.83 0 0 0 3.86.72 14 14 0 0 0 3.86-.31 17.68 17.68 0 0 0 3.86-1.62 9.2 9.2 0 0 1 3.86-1.15A9.11 9.11 0 0 1 88 162.3a10.76 10.76 0 0 0 3.86 1.25 9.79 9.79 0 0 0 3.86-.71c1.06-.46 2.8-1.11 3.86-1.43a37.76 37.76 0 0 1 3.86-.91 16.9 16.9 0 0 1 3.92-.1 20.27 20.27 0 0 1 4 1 4.08 4.08 0 0 0 2.77.28c.39-.27.43-1.29.08-2.27a15.89 15.89 0 0 1-.76-3.46 32 32 0 0 1 1.09-6.54 53.09 53.09 0 0 0 1.36-6.5zM113.36 57.9a23.8 23.8 0 0 0 0-3.32 3.59 3.59 0 0 0-1.18-2.38 5.09 5.09 0 0 0-3-.45 36 36 0 0 1-3.84.26h-1.83c-.11.79-.28 1.67-.44 2.28a9.65 9.65 0 0 0-.18 3.23 11.47 11.47 0 0 0 1.15 3.23 11.1 11.1 0 0 1 1.15 3.25 11.57 11.57 0 0 1-.24 3.58 3.58 3.58 0 0 1-1.65 2.3 4.77 4.77 0 0 1-3.09-.48 7.65 7.65 0 0 0-3.7-.69A8.24 8.24 0 0 0 93 70.4a14.85 14.85 0 0 1-3.38 2.09 14.44 14.44 0 0 1-5.07.38c-1.86-.16-7.18-1.08-11.82-2.06s-9.21-1.6-10.14-1.38a14.05 14.05 0 0 0-3.38 1.41 8.36 8.36 0 0 1-3.47 1.05A9.37 9.37 0 0 1 52.1 71a5.42 5.42 0 0 0-2.39-.76c-.28.1-.13.78.33 1.5a11.94 11.94 0 0 1 1.2 2.47 12.4 12.4 0 0 1-.24 4.11c-.29 1.68-.57 3.29-.6 3.68a4.37 4.37 0 0 0 .05 1.13 1.33 1.33 0 0 0 .68.69 60.21 60.21 0 0 0 7.13.49l2.6.12c0-.34.09-.67.11-1a7.76 7.76 0 0 0 0-2.3 11.94 11.94 0 0 0-1.2-2.47c-.47-.72-.62-1.4-.33-1.5a5.42 5.42 0 0 1 2.39.76 9.37 9.37 0 0 0 3.66.91 8.36 8.36 0 0 0 3.47-1.05 14.05 14.05 0 0 1 3.38-1.41c.93-.21 5.49.41 10.14 1.38s10 1.9 11.82 2.06a14.44 14.44 0 0 0 5.07-.38 14.85 14.85 0 0 0 3.38-2.09 8.24 8.24 0 0 1 3.49-1.67 7.65 7.65 0 0 1 3.7.69 4.77 4.77 0 0 0 3.09.48 3.58 3.58 0 0 0 1.65-2.3 11.57 11.57 0 0 0 .22-3.54 11.1 11.1 0 0 0-1.13-3.35 11.47 11.47 0 0 1-1.15-3.23 9.65 9.65 0 0 1 .18-3.23 23.56 23.56 0 0 0 .56-3.29zM59 119.21a4.06 4.06 0 0 1 2.38.16 12.48 12.48 0 0 0 3.08.57 10.59 10.59 0 0 0 2.93-.43 22.51 22.51 0 0 1 2.86-.69 20.85 20.85 0 0 1 2.86-.21c.79 0 2.72.19 4.29.4a22.29 22.29 0 0 0 4.29.21 12.91 12.91 0 0 0 2.86-.78 9.11 9.11 0 0 1 2.86-.62 9 9 0 0 1 2.86.55c.79.31 2.07.75 2.86 1s2.07.53 2.86.67 2.15.3 3 .36 2.41.08 3.39 0a3.15 3.15 0 0 0 2.38-1 4.4 4.4 0 0 0 0-2.92c-.33-1.06-.75-2.73-.94-3.71s-.46-4.62-.62-8.11-.2-6.94-.2-7.66a2.57 2.57 0 0 0-.36-1.79 1.81 1.81 0 0 0-1.61 0 4.09 4.09 0 0 1-2.39 0 9.53 9.53 0 0 1-2.7-1.7 10.82 10.82 0 0 0-1.66-1.18 8.46 8.46 0 0 0-1-.52c0 1.5.08 3.69.18 5.9.16 3.48.44 7.13.62 8.11s.61 2.64.94 3.71a4.4 4.4 0 0 1 0 2.92 3.15 3.15 0 0 1-2.38 1h-3.39c-.88 0-2.25-.22-3-.36s-2.07-.44-2.86-.67-2.07-.67-2.86-1a9 9 0 0 0-2.86-.55 9.11 9.11 0 0 0-2.86.62 12.91 12.91 0 0 1-2.86.78 22.29 22.29 0 0 1-4.29-.21c-1.57-.21-3.5-.4-4.29-.4a20.85 20.85 0 0 0-2.86.21 22.51 22.51 0 0 0-2.86.69 10.59 10.59 0 0 1-2.93.43 12.48 12.48 0 0 1-3.08-.57 4.06 4.06 0 0 0-2.38-.16c-.44.2-.81 1.48-.81 2.84s.05 3 .12 3.55a9.57 9.57 0 0 0 .57 2.18A13.14 13.14 0 0 0 50.4 123a4.31 4.31 0 0 1 .72 2.33 6.48 6.48 0 0 1-1 2.63 2.44 2.44 0 0 0-.38 2.22 4 4 0 0 0 2.46 1.09 15 15 0 0 0 3.79-.06 15.18 15.18 0 0 0 3.65-1.21l.36-.2c-.17-.25-.36-.55-.53-.85a10.92 10.92 0 0 1-.6-1.17 9.57 9.57 0 0 1-.57-2.18c-.07-.6-.12-2.2-.12-3.55s.37-2.64.82-2.84zM37.36 40.06a5.2 5.2 0 0 0 2.22 1.54 10.94 10.94 0 0 0 3.26.6 11 11 0 0 0 3.25-.65 19.67 19.67 0 0 1 3.25-.9 17.64 17.64 0 0 1 3.25-.17 15 15 0 0 0 3-.17 15.62 15.62 0 0 0 3.68-1.56c1.25-.71 2.68-1.61 3.19-2a4.39 4.39 0 0 0 1.28-1.67 5.14 5.14 0 0 0 .2-2.08v-.12a16.38 16.38 0 0 0-.43-1.73 14.65 14.65 0 0 1-1.07-1.29 5.4 5.4 0 0 1-.69-1.69 8.33 8.33 0 0 1-.12-1.3 6.55 6.55 0 0 1-.38-1.55 7.1 7.1 0 0 1 .21-2 12.7 12.7 0 0 0-.87-2.43 5.17 5.17 0 0 1-.22-.54c-.31 0-.68 0-1.07-.06-1 0-2.1 0-3.31.07-.91.06-1.84.1-2.72.12h-1.11c.06.14.12.28.19.39a20.62 20.62 0 0 1 1.19 2.5 17 17 0 0 1 .69 2.5 5.17 5.17 0 0 1-.13 2.23 4.39 4.39 0 0 1-1.28 1.67c-.51.38-1.95 1.28-3.19 2a15.62 15.62 0 0 1-3.68 1.56 15 15 0 0 1-3 .17 17.64 17.64 0 0 0-3.25.17 19.56 19.56 0 0 0-2.67.7 5.21 5.21 0 0 1 .38.93 5.09 5.09 0 0 1-.13 2.51 2.85 2.85 0 0 0 .08 2.25zM98.42 27.86a6.1 6.1 0 0 0 .71-2.44 5.22 5.22 0 0 0-.68-2.31 4.54 4.54 0 0 0-1.79-1.59 6.1 6.1 0 0 0-2.66-.25 10.26 10.26 0 0 1-3.11-.17 9.07 9.07 0 0 1-1-.33c-.3-.11-.62-.24-.93-.38a5 5 0 0 1-.25.52 12 12 0 0 0-1 2.5 25.76 25.76 0 0 0 0 5.16c.16 2.15-.07 4.09-.52 4.32a4.25 4.25 0 0 1-2.51-.12 11.59 11.59 0 0 0-3.37-.44 11.43 11.43 0 0 0-3.29.79 31.41 31.41 0 0 1-3.25 1.17 27.92 27.92 0 0 1-3.25.68h-.1v.12a5.19 5.19 0 0 0 .27.85 4.45 4.45 0 0 0 .42.83 15.57 15.57 0 0 0 1.34 1.58c.47.48 1.39 1.34 2.06 1.91a8.46 8.46 0 0 0 2.63 1.45 8.9 8.9 0 0 0 3 .19 27.92 27.92 0 0 0 3.25-.68 31.41 31.41 0 0 0 3.25-1.17 11.43 11.43 0 0 1 3.36-.77 11.59 11.59 0 0 1 3.37.44 4.25 4.25 0 0 0 2.51.12c.44-.23.67-2.17.52-4.32a25.76 25.76 0 0 1 0-5.16 12 12 0 0 1 1.02-2.5z"/></svg>