<svg xmlns="http://www.w3.org/2000/svg" width="200" height="200" viewBox="0 0 200 200"><title>_</title><path d="M111 45a7.24 7.24 0 0 0-3.07-.39 21.22 21.22 0 0 1-4.66-.18A25.63 25.63 0 0 1 98.55 43a11.84 11.84 0 0 0-4.13-.83 12.51 12.51 0 0 0-4.14 1 19.67 19.67 0 0 1-4.83 1.47 17.48 17.48 0 0 1-4.87-.14 6.51 6.51 0 0 0-1.25-.12 3.15 3.15 0 0 0-1.17.16 2.05 2.05 0 0 0-.05 1.3 12.46 12.46 0 0 1 .29 3.83 13.78 13.78 0 0 1-1.11 3.79 7.53 7.53 0 0 0-.64 3 8.25 8.25 0 0 0 1 3 15.08 15.08 0 0 1 1.52 3.76 12.25 12.25 0 0 1 .12 3.83c-.15 1-.48 2.58-.73 3.55s-.73 2.57-1.08 3.55a12.88 12.88 0 0 0-.61 3.17 12.47 12.47 0 0 0 .4 3.16c.28 1 .78 3.37 1.12 5.31a108.29 108.29 0 0 1 .41 13.65l-.08 4.26c-.11 5.49 0 12.25.26 15.08.23 2.62.27 6.07-.12 7.32a17.25 17.25 0 0 1-1.86 3.73 14.58 14.58 0 0 0-1.55 3.2 10.72 10.72 0 0 0-.35 3.11c.06.8.71 4.17 1.58 7.9a26.8 26.8 0 0 0 2.32 6.87 10.3 10.3 0 0 0 2.7 1.56 33.64 33.64 0 0 0 3.91 1.17c.22 0 .54.1.94.16 1.79.25 5 .54 7.89.72 3.68.23 7.83.34 9.08.26s3.36-.36 4.67-.59a6.17 6.17 0 0 0 2.81-1.29 3.27 3.27 0 0 0 .45-2.27 32.42 32.42 0 0 1-.43-3.91 27.39 27.39 0 0 1 .18-3.73c.1-.8.15-4.41 0-8.5a67 67 0 0 1 .19-8.89 22.93 22.93 0 0 1 1.15-3.66 10.68 10.68 0 0 0 .71-3.11 10.26 10.26 0 0 0-.52-3.09 23.17 23.17 0 0 1-.95-3.66 20.86 20.86 0 0 1-.18-3.67 16 16 0 0 0-.22-3.22 18.42 18.42 0 0 0-1-3.25 8.81 8.81 0 0 1-.64-4 10.38 10.38 0 0 1 1.62-3.94 13.21 13.21 0 0 0 1.54-3.17 9.58 9.58 0 0 0 .24-3.07 30.22 30.22 0 0 0-.66-3.33 33.64 33.64 0 0 0-1.14-3.34 13.25 13.25 0 0 1-.86-3.8 12.71 12.71 0 0 1 .54-3.82 20.9 20.9 0 0 0 .73-3.27 55.45 55.45 0 0 0-.17-6.74 44.08 44.08 0 0 1-.05-7.18 21.25 21.25 0 0 1 1.08-3.67 10.45 10.45 0 0 0 .58-2.31 5.72 5.72 0 0 0 .06-.72 8.81 8.81 0 0 0-.6-2.87A4.29 4.29 0 0 0 111 45zM98.76 16.46a27.4 27.4 0 0 0-5-3.49 12 12 0 0 0-3-.45 21.44 21.44 0 0 1-3.94-.45 26.88 26.88 0 0 1-4-1.33 9.17 9.17 0 0 0-3.47-.66 10.78 10.78 0 0 0-3.57 1 14.94 14.94 0 0 1-4.15 1.38 10 10 0 0 1-3.91-.37l-.18-.06c.08.13.18.28.29.42a18.15 18.15 0 0 0 2.5 2.62 24.06 24.06 0 0 0 3.36 2.21c.78.41 2.31 1.32 4 2.36l1.76 1.12c2.06 1.34 4.49 3.06 5.42 3.84.47.39 1.06.92 1.65 1.46s1.12 1 1.52 1.46a13.64 13.64 0 0 0 2.54 2 4.82 4.82 0 0 0 1.7.48H95c.72 0 1.9.1 2.65.18a20.84 20.84 0 0 0 2.49.1 21.07 21.07 0 0 0 2.49-.27 14 14 0 0 1 2.26-.21h.34a6.87 6.87 0 0 1 2.15.5 6.41 6.41 0 0 0 .32-1.67 9.2 9.2 0 0 0-.34-2.75 10.2 10.2 0 0 0-1.36-2.55c-.56-.71-1.58-1.86-2.22-2.51-.26-.27-.78-.74-1.44-1.32-1.09-.93-2.34-2.04-3.58-3.04z" fill="#231f20"/><path d="M123.24 60a10.93 10.93 0 0 0 .72-3.4 9.74 9.74 0 0 0-.68-3.27 5.25 5.25 0 0 0-2.13-2.3 8.12 8.12 0 0 0-3.61-.49 18 18 0 0 1-2.36 0l-1-.07a11.42 11.42 0 0 1-.65 2.56 20.47 20.47 0 0 0-1 3.47 43.25 43.25 0 0 0 .06 6.93 56.29 56.29 0 0 1 .16 6.93 21.85 21.85 0 0 1-.77 3.46 11.75 11.75 0 0 0-.49 3.46 12.32 12.32 0 0 0 .79 3.46 34.56 34.56 0 0 1 1.18 3.47 31.07 31.07 0 0 1 .69 3.47 10.49 10.49 0 0 1-.27 3.47 14.21 14.21 0 0 1-1.68 3.47 9.41 9.41 0 0 0-1.41 3.47 7.79 7.79 0 0 0 .56 3.46 19.42 19.42 0 0 1 1.11 3.46 17 17 0 0 1 .24 3.46 20.07 20.07 0 0 0 .17 3.47 22.07 22.07 0 0 0 .9 3.47 11.16 11.16 0 0 1 .58 3.47 11.55 11.55 0 0 1-.79 3.47 22.06 22.06 0 0 0-1.09 3.47 66.49 66.49 0 0 0-.17 8.66c.1 3.81.08 7.71 0 8.66a26.28 26.28 0 0 0-.17 3.57 31.27 31.27 0 0 0 .41 3.76 4.2 4.2 0 0 1-.68 3.11 7 7 0 0 1-3.46 1.61c-1.33.24-3.48.51-4.77.6s-5.43 0-9.21-.25c-3-.19-6.21-.48-8-.73.12.37.23.72.35 1.05a9.15 9.15 0 0 0 1.23 2.71 11.15 11.15 0 0 0 3 1.78 34.4 34.4 0 0 0 4.05 1.21c1.17.26 5.21.66 9 .89s7.92.35 9.21.25 3.44-.36 4.77-.6a7 7 0 0 0 3.46-1.61 4.2 4.2 0 0 0 .68-3.11 31.27 31.27 0 0 1-.41-3.76 26.28 26.28 0 0 1 .17-3.57c.13-1 .15-4.85 0-8.66a66.49 66.49 0 0 1 .17-8.66 22.06 22.06 0 0 1 1.09-3.47 11.55 11.55 0 0 0 .79-3.47 11.16 11.16 0 0 0-.58-3.47 22.07 22.07 0 0 1-.9-3.47 20.07 20.07 0 0 1-.17-3.47 17 17 0 0 0-.24-3.46 19.42 19.42 0 0 0-1.11-3.46 7.79 7.79 0 0 1-.56-3.46 9.41 9.41 0 0 1 1.41-3.47 14.21 14.21 0 0 0 1.68-3.47 10.49 10.49 0 0 0 .27-3.47 31.07 31.07 0 0 0-.69-3.47 34.56 34.56 0 0 0-1.09-3.43 12.32 12.32 0 0 1-.79-3.46 11.75 11.75 0 0 1 .49-3.46 21.85 21.85 0 0 0 .77-3.46 56.29 56.29 0 0 0-.16-6.93 43.25 43.25 0 0 1-.06-6.93 20.47 20.47 0 0 1 .99-3.45zM116.45 29.66c-.59-.74-1.62-1.91-2.3-2.6s-2.95-2.67-5-4.42a50.64 50.64 0 0 0-3.23-2.46A11.06 11.06 0 0 0 103.8 19a7.87 7.87 0 0 0-.84-.21c.67.6 1.21 1.09 1.48 1.37.68.68 1.71 1.85 2.3 2.6a11.08 11.08 0 0 1 1.56 2.84 10.09 10.09 0 0 1 .39 3.11 5.84 5.84 0 0 1-.53 2.26 1 1 0 0 1-1.19.27 5.86 5.86 0 0 0-1.8-.42 12.22 12.22 0 0 0-2.36.18 22 22 0 0 1-2.64.29 21.65 21.65 0 0 1-2.64-.1c-.72-.12-1.87-.19-2.53-.19s-1.77 0-2.41.07a2.86 2.86 0 0 1-.39 0c.5.36.95.69 1.3 1l.42.34c.9.75 2.29 2 3.1 2.86a14.32 14.32 0 0 0 2.79 2.19 5.46 5.46 0 0 0 2.49.6c.64-.05 1.73-.08 2.41-.07s1.84.09 2.56.18a21.65 21.65 0 0 0 2.64.1 22 22 0 0 0 2.64-.29 12.22 12.22 0 0 1 2.36-.18 5.86 5.86 0 0 1 1.8.42 1 1 0 0 0 1.19-.27 5.84 5.84 0 0 0 .53-2.26 10.09 10.09 0 0 0-.43-3.19 11.08 11.08 0 0 0-1.55-2.84zM78.86 21.63l-1.75-1.11a19.59 19.59 0 0 0 2.27 2.3 24.93 24.93 0 0 0 3.53 2.32c.61.32 1.7 1 2.89 1.69-.57-.53-1.16-1-1.61-1.43-.91-.76-3.3-2.45-5.33-3.77z" fill="#231f20"/></svg>