<svg xmlns="http://www.w3.org/2000/svg" width="72.07" height="200" viewBox="0 0 72.07 200"><title>_</title><path d="M11.77 145.8a27.67 27.67 0 0 0 2.23 6.66 10 10 0 0 0 2.5 1.43 33 33 0 0 0 3.8 1.11c.21 0 .52.1.9.15 1.77.25 4.93.53 7.85.71 3.65.23 7.77.35 9 .26s3.33-.35 4.61-.58a5.8 5.8 0 0 0 2.59-1.12 2.83 2.83 0 0 0 .34-1.85 32.91 32.91 0 0 1-.44-4 27.94 27.94 0 0 1 .18-3.81c.1-.76.14-4.41 0-8.42a66.34 66.34 0 0 1 .2-9 23.51 23.51 0 0 1 1.18-3.75 10.24 10.24 0 0 0 .67-2.93 9.82 9.82 0 0 0-.49-2.91A23.79 23.79 0 0 1 46 114a21.44 21.44 0 0 1-.18-3.78 15.68 15.68 0 0 0-.21-3.09 17.8 17.8 0 0 0-1-3.14 9.24 9.24 0 0 1-.68-4.25 10.77 10.77 0 0 1 1.66-4.13 12.86 12.86 0 0 0 1.47-3 9.11 9.11 0 0 0 .22-2.87 29.62 29.62 0 0 0-.65-3.26 33.14 33.14 0 0 0-1.12-3.28 13.85 13.85 0 0 1-.9-4 13.29 13.29 0 0 1 .56-4 20.26 20.26 0 0 0 .71-3.18 56.17 56.17 0 0 0-.17-6.65 43.85 43.85 0 0 1 0-7.3 21.79 21.79 0 0 1 1.11-3.77 9.9 9.9 0 0 0 .55-2.19 5.24 5.24 0 0 0 .06-.65 8.34 8.34 0 0 0-.56-2.67 3.82 3.82 0 0 0-1.41-1.55 6.91 6.91 0 0 0-2.81-.34 21.7 21.7 0 0 1-4.79-.18 26.26 26.26 0 0 1-4.86-1.4 11 11 0 0 0-4-.79 12.12 12.12 0 0 0-3.94 1 20.23 20.23 0 0 1-5 1.51 18 18 0 0 1-5-.15 6.5 6.5 0 0 0-1.94 0 2.2 2.2 0 0 0 0 .77 12.83 12.83 0 0 1 .31 4 14.37 14.37 0 0 1-1.16 4 7 7 0 0 0-.59 2.73 7.77 7.77 0 0 0 .91 2.78A15.68 15.68 0 0 1 14.23 65a12.86 12.86 0 0 1 .12 4c-.16 1-.49 2.61-.74 3.6s-.74 2.61-1.09 3.59a12.5 12.5 0 0 0-.58 3 12.07 12.07 0 0 0 .38 3c.29 1 .79 3.4 1.13 5.36a108.65 108.65 0 0 1 .41 13.75l-.08 4.26c-.11 5.47 0 12.21.26 15 .2 2.21.32 6-.14 7.51A17.82 17.82 0 0 1 12 132a14.24 14.24 0 0 0-1.47 3 10.31 10.31 0 0 0-.33 3c.05.74.71 4.14 1.57 7.8zM23 29.08A13.27 13.27 0 0 0 25.38 31a4.34 4.34 0 0 0 1.5.42h.2c.53 0 1.44-.07 2.18-.07h.35c.72 0 1.93.1 2.7.18a19.63 19.63 0 0 0 2.42.09 20.36 20.36 0 0 0 2.42-.26 13.55 13.55 0 0 1 2.72-.2 7.82 7.82 0 0 1 1.79.34 6.69 6.69 0 0 0 .15-1 8.74 8.74 0 0 0-.32-2.56 9.78 9.78 0 0 0-1.31-2.38c-.55-.7-1.56-1.83-2.19-2.47-.26-.26-.77-.73-1.41-1.3-1-.92-2.33-2-3.52-3a28.07 28.07 0 0 0-4.82-3.4 11.57 11.57 0 0 0-2.86-.42 22 22 0 0 1-4.05-.47 27.49 27.49 0 0 1-4.1-1.35 8.58 8.58 0 0 0-3.23-.69 10.35 10.35 0 0 0-3.37 1 15.52 15.52 0 0 1-4.31 1.44 10.53 10.53 0 0 1-2.89-.09 18 18 0 0 0 1.84 1.82 23.47 23.47 0 0 0 3.23 2.11c.8.42 2.34 1.33 4 2.38l1.77 1.13c2.08 1.35 4.53 3.09 5.47 3.87.47.39 1.08.93 1.67 1.48L23 29.08z"/><path d="M57.85 61.85a10.94 10.94 0 0 0 .72-3.4 9.74 9.74 0 0 0-.68-3.27 5.26 5.26 0 0 0-2.13-2.3 8.12 8.12 0 0 0-3.61-.49 18.07 18.07 0 0 1-2.36 0l-1-.07a11.42 11.42 0 0 1-.65 2.56 20.47 20.47 0 0 0-1 3.47 43.25 43.25 0 0 0 .06 6.93 56.24 56.24 0 0 1 .16 6.93 21.83 21.83 0 0 1-.77 3.46 11.75 11.75 0 0 0-.49 3.46 12.32 12.32 0 0 0 .79 3.46 34.57 34.57 0 0 1 1.18 3.47 31.09 31.09 0 0 1 .69 3.47 10.48 10.48 0 0 1-.29 3.47 14.21 14.21 0 0 1-1.68 3.47 9.41 9.41 0 0 0-1.41 3.53 7.79 7.79 0 0 0 .56 3.46 19.43 19.43 0 0 1 1.06 3.42 16.94 16.94 0 0 1 .24 3.46 20.06 20.06 0 0 0 .17 3.47 22.08 22.08 0 0 0 .9 3.47 11.16 11.16 0 0 1 .58 3.47 11.55 11.55 0 0 1-.79 3.47 22.08 22.08 0 0 0-1.1 3.46 66.49 66.49 0 0 0-.17 8.66c.1 3.81.08 7.71 0 8.66a26.28 26.28 0 0 0-.17 3.57 31.3 31.3 0 0 0 .41 3.76 4.2 4.2 0 0 1-.68 3.11 7 7 0 0 1-3.46 1.56c-1.33.24-3.48.51-4.77.6s-5.43 0-9.21-.25c-3-.19-6.21-.48-8-.73.12.37.23.72.35 1.05a9.14 9.14 0 0 0 1.26 2.73 11.14 11.14 0 0 0 3 1.78 34.35 34.35 0 0 0 4.05 1.21c1.17.26 5.21.66 9 .89s7.92.35 9.21.25 3.44-.36 4.77-.6a7 7 0 0 0 3.46-1.61 4.2 4.2 0 0 0 .68-3.11 31.3 31.3 0 0 1-.41-3.76 26.28 26.28 0 0 1 .17-3.57c.13-1 .15-4.85 0-8.66a66.49 66.49 0 0 1 .17-8.66 22.08 22.08 0 0 1 1.09-3.47 11.55 11.55 0 0 0 .79-3.47 11.16 11.16 0 0 0-.58-3.47 22.08 22.08 0 0 1-.9-3.47 20.06 20.06 0 0 1-.17-3.47 16.94 16.94 0 0 0-.24-3.46 19.43 19.43 0 0 0-1.11-3.46 7.79 7.79 0 0 1-.56-3.46 9.41 9.41 0 0 1 1.41-3.47 14.21 14.21 0 0 0 1.79-3.36 10.48 10.48 0 0 0 .27-3.47 31.09 31.09 0 0 0-.68-3.53 34.57 34.57 0 0 0-1.18-3.47 12.32 12.32 0 0 1-.79-3.46 11.75 11.75 0 0 1 .49-3.46 21.83 21.83 0 0 0 .77-3.46 56.24 56.24 0 0 0-.16-6.93 43.25 43.25 0 0 1-.06-6.93 20.47 20.47 0 0 1 1.01-3.44zM51.06 31.53c-.59-.74-1.62-1.91-2.3-2.6s-2.95-2.67-5-4.42a50.64 50.64 0 0 0-3.23-2.46 11.06 11.06 0 0 0-2.08-1.22 7.87 7.87 0 0 0-.84-.21c.67.6 1.21 1.09 1.48 1.37.68.68 1.71 1.85 2.3 2.6a11.08 11.08 0 0 1 1.56 2.84 10.09 10.09 0 0 1 .39 3.11 5.84 5.84 0 0 1-.53 2.26 1 1 0 0 1-1.19.27 5.86 5.86 0 0 0-1.8-.42 12.22 12.22 0 0 0-2.36.18 22.09 22.09 0 0 1-2.64.29 21.65 21.65 0 0 1-2.64-.1c-.73-.08-1.88-.16-2.56-.18s-1.77 0-2.41.07a2.79 2.79 0 0 1-.39 0c.5.36.95.69 1.3 1l.42.34c.9.75 2.29 2 3.1 2.86a14.32 14.32 0 0 0 2.79 2.19 5.46 5.46 0 0 0 2.49.6c.64-.05 1.73-.08 2.41-.07s1.84.09 2.56.18a21.65 21.65 0 0 0 2.64.1 22.09 22.09 0 0 0 2.64-.29 12.22 12.22 0 0 1 2.36-.18 5.86 5.86 0 0 1 1.8.42 1 1 0 0 0 1.19-.27 5.84 5.84 0 0 0 .48-2.3 10.09 10.09 0 0 0-.39-3.11 11.08 11.08 0 0 0-1.55-2.85zM13.47 23.51l-1.75-1.11A19.62 19.62 0 0 0 14 24.69 25 25 0 0 0 17.51 27c.61.32 1.7 1 2.89 1.69-.57-.53-1.16-1-1.61-1.43-.9-.74-3.3-2.44-5.32-3.75z"/></svg>