<svg xmlns="http://www.w3.org/2000/svg" width="74.95" height="200" viewBox="0 0 74.95 200"><title>_</title><path d="M17.51 141.78c-.15 1-.48 2.6-.72 3.59a16.71 16.71 0 0 0-.4 3 13.66 13.66 0 0 0 .32 2.8 2 2 0 0 0 .77 1 6 6 0 0 0 2.52 0 37.3 37.3 0 0 1 4.58-.67h.99c1.87 0 5.16.16 8.2.4 3.77.29 9 .91 11.65 1.37a19.33 19.33 0 0 0 4.13.34 2.94 2.94 0 0 0-.2-.79 12.16 12.16 0 0 1-.83-4.34 11.3 11.3 0 0 1 1.13-4.2 28.25 28.25 0 0 0 1.41-3.28 47.27 47.27 0 0 0 1.07-6.6 27.43 27.43 0 0 0 .11-6.36 15.34 15.34 0 0 0-1.4-3.09 11.23 11.23 0 0 1-1.47-4.1 10 10 0 0 1 .64-4.19 8.69 8.69 0 0 0 .55-2.85 9.12 9.12 0 0 0-.73-2.87 16.88 16.88 0 0 1-1.22-3.87 14.8 14.8 0 0 1 0-3.93c.16-1 .5-2.61.75-3.6S50.1 97 50.45 96a10.38 10.38 0 0 0 .49-2.93 10.67 10.67 0 0 0-.62-2.94 23.42 23.42 0 0 1-1.09-3.75 21 21 0 0 1-.23-3.81 21.71 21.71 0 0 1 .54-3.78 25.17 25.17 0 0 1 1.34-3.73 9.57 9.57 0 0 0 .74-2.89 9 9 0 0 0-.5-2.87 22.79 22.79 0 0 1-1-3.76 20.71 20.71 0 0 1-.2-3.79 26.79 26.79 0 0 1 .45-3.75 30 30 0 0 1 1.16-3.69 11.33 11.33 0 0 0 .66-3 8.79 8.79 0 0 0-.06-1.24 11.45 11.45 0 0 0-.35-1.9A5.18 5.18 0 0 0 50.32 46a8.67 8.67 0 0 0-3.13-1.17c-1.26-.19-3.28-.38-4.5-.43s-3.22 0-4.41.09-3.44.15-4.72.1-3.41-.25-4.72-.46a17.33 17.33 0 0 0-4-.07 16.68 16.68 0 0 0-3.84 1.1A13 13 0 0 0 18.12 47a6 6 0 0 0-1.33 2 16.81 16.81 0 0 0-.56 2.74 20.48 20.48 0 0 0 0 3.05c.08 1 .14 2.62.13 3.6S16.25 61 16.15 62a12.18 12.18 0 0 0 .18 3 15.08 15.08 0 0 0 1.15 3.08 18.19 18.19 0 0 1 1.45 3.84 59.46 59.46 0 0 1 .16 9.08c-.13 3.46-.41 7.74-.65 8.91-.2 1-.9 3.42-1.55 5.37a36.4 36.4 0 0 0-1.31 4.91 15.35 15.35 0 0 0 0 3.09c.13 1 .27 3.4.32 5.35a36.19 36.19 0 0 0 .43 4.93 20.51 20.51 0 0 0 1 3.18 10.86 10.86 0 0 1 .82 4.12 11.31 11.31 0 0 1-1.11 4.09 9.34 9.34 0 0 0-.83 2.88 8.46 8.46 0 0 0 .46 2.83 22.51 22.51 0 0 1 1 3.77 20.45 20.45 0 0 1 .18 3.8c-.01.94-.19 2.56-.34 3.55zM47.44 13.2a39.14 39.14 0 0 0-5.71-.65 19.54 19.54 0 0 0-3.55.42 19.72 19.72 0 0 0-3.18 1.1 14.71 14.71 0 0 0-2.53 1.61 20.32 20.32 0 0 0-2.13 2.15 21.91 21.91 0 0 0-1.77 2.59c-.49.87-1.34 2.23-1.9 3.05s-1.53 2.1-2.16 2.86A12.72 12.72 0 0 0 23 28.69a9.17 9.17 0 0 0-.6 2.32v.32a10.48 10.48 0 0 1 1.1-.33 20.51 20.51 0 0 1 2.55-.28h.65c.75 0 1.63 0 2.23.11a23.61 23.61 0 0 1 2.86.53l1.12.34c1 .32 2.23.75 3.26 1.14a7.78 7.78 0 0 0 3.49.54 38 38 0 0 0 5.92-4.8c2.63-2.46 5.46-5.29 6.2-6.17a32 32 0 0 0 2.44-3.5 14.11 14.11 0 0 1 .91-1.34 18.73 18.73 0 0 1 2.3-2.57 16.25 16.25 0 0 1 1.4-1.09L58 14c-1.25.08-3.21.09-4.37 0s-3.92-.41-6.19-.8z"/><path d="M62.19 148.48a47.51 47.51 0 0 0 1.14-6.93 27.6 27.6 0 0 0 .06-6.93 16.62 16.62 0 0 0-1.57-3.47 9.89 9.89 0 0 1-1.25-3.47 8.54 8.54 0 0 1 .53-3.47 10.09 10.09 0 0 0 .66-3.47 10.48 10.48 0 0 0-.87-3.47 15.33 15.33 0 0 1-1.09-3.46 13.28 13.28 0 0 1 0-3.46c.15-1 .48-2.51.72-3.46s.72-2.51 1.06-3.47a11.7 11.7 0 0 0 .58-3.47 12 12 0 0 0-.73-3.47 22 22 0 0 1-1-3.47 19.58 19.58 0 0 1-.25-3.47 20.15 20.15 0 0 1 .5-3.46 23.38 23.38 0 0 1 1.24-3.46 10.9 10.9 0 0 0 .88-3.46 10.4 10.4 0 0 0-.6-3.47 21.32 21.32 0 0 1-1-3.47 19.23 19.23 0 0 1-.2-3.44 25.1 25.1 0 0 1 .49-3.47 28 28 0 0 1 1.09-3.47 12.79 12.79 0 0 0 .77-3.52 13.39 13.39 0 0 0-.47-3.63 6.7 6.7 0 0 0-2-2.94 10 10 0 0 0-3.81-1.46c-.69-.1-1.6-.21-2.49-.29l-1-.09a10.4 10.4 0 0 1 .07 1.47 12.79 12.79 0 0 1-.77 3.52 28 28 0 0 0-1.09 3.47 25.1 25.1 0 0 0-.49 3.47 19.23 19.23 0 0 0 .19 3.47 21.32 21.32 0 0 0 1 3.47 10.4 10.4 0 0 1 .6 3.47 10.9 10.9 0 0 1-.88 3.46A23.38 23.38 0 0 0 51 79.16a20.15 20.15 0 0 0-.5 3.46 19.58 19.58 0 0 0 .25 3.47 22 22 0 0 0 1 3.47 12 12 0 0 1 .69 3.44 11.7 11.7 0 0 1-.58 3.47c-.34 1-.81 2.51-1.06 3.47s-.57 2.51-.72 3.46a13.28 13.28 0 0 0 0 3.46 15.33 15.33 0 0 0 1.09 3.46 10.48 10.48 0 0 1 .88 3.47 10.09 10.09 0 0 1-.66 3.47 8.54 8.54 0 0 0-.53 3.47 9.89 9.89 0 0 0 1.25 3.47 16.62 16.62 0 0 1 1.57 3.47 27.6 27.6 0 0 1-.06 6.93 47.51 47.51 0 0 1-1.14 6.93A30 30 0 0 1 51 145a9.89 9.89 0 0 0-1 3.55 10.79 10.79 0 0 0 .72 3.72c.43 1 .42 2.22 0 2.61s-2.94.34-5.55-.12-7.78-1.06-11.51-1.35-7.47-.41-8.83-.41c0 .14 0 .28-.06.43V154.02c-.05.47-.09.93-.1 1.28a15.07 15.07 0 0 0 .36 3.18 3.35 3.35 0 0 0 1.65 2.07 7 7 0 0 0 3.43 0 35.69 35.69 0 0 1 4.29-.55c1.21-.09 5.25.08 9 .37s8.9.9 11.51 1.35 5.1.51 5.55.12.46-1.56 0-2.61a10.79 10.79 0 0 1-.72-3.72 9.89 9.89 0 0 1 1-3.55 30 30 0 0 0 1.45-3.48zM68.14 23.08a21.28 21.28 0 0 1 4.1-2.68 6.48 6.48 0 0 0 2.33-1.49c0-.2-1.07-.2-2.37 0s-3.35.44-4.55.52-3.09.09-4.2 0-3.79-.42-6-.79l-1.08-.17a13 13 0 0 0-.82 1.2 33.28 33.28 0 0 1-2.58 3.7c-.78.94-3.63 3.78-6.33 6.31s-5.64 4.85-6.51 5.14a8.66 8.66 0 0 1-4.48-.56c-1.08-.4-2.3-.82-3.2-1.11-.19.28-.38.58-.56.87a9.71 9.71 0 0 0-.54 1 10.47 10.47 0 0 0-.72 2.8 4.76 4.76 0 0 0 .18 2 .75.75 0 0 0 1 .2 8.52 8.52 0 0 1 1.71-.54 19 19 0 0 1 2.33-.26 20.88 20.88 0 0 1 2.64.09 22 22 0 0 1 2.64.49c.73.19 2.64.84 4.24 1.43a8.66 8.66 0 0 0 4.48.56c.86-.29 3.77-2.6 6.47-5.13s5.55-5.37 6.33-6.31a33.28 33.28 0 0 0 2.58-3.7 17.62 17.62 0 0 1 2.91-3.57z"/></svg>