<svg xmlns="http://www.w3.org/2000/svg" width="77.17" height="200" viewBox="0 0 77.17 200"><title>_</title><path d="M48.18 70.33c.23-1.87.44-4.92.48-6.79a49.6 49.6 0 0 1 .34-5.42 29.39 29.39 0 0 1 1-3.69 8.92 8.92 0 0 0 .38-2.78v-.25a8.27 8.27 0 0 0-.73-2.32 6.62 6.62 0 0 0-1.79-1.94 10.39 10.39 0 0 0-3-1.11 24.8 24.8 0 0 0-4-.34 30.88 30.88 0 0 0-4.22.38c-1.3.23-4.43.53-7 .67a90.74 90.74 0 0 1-9.22 0 18.33 18.33 0 0 0-4.2.13 1.87 1.87 0 0 0 .07.79 30.6 30.6 0 0 1 .71 3.57 30 30 0 0 1 .32 3.67 15.56 15.56 0 0 1-.55 3.91 19.34 19.34 0 0 1-1.73 3.82 6.1 6.1 0 0 0-.79 2.65 6.43 6.43 0 0 0 .95 2.67 19.29 19.29 0 0 1 1.9 3.82 14.92 14.92 0 0 1 .67 3.93 16.15 16.15 0 0 1-.56 3.9 19.83 19.83 0 0 1-1.68 3.81 7.69 7.69 0 0 0-.9 2.78 7 7 0 0 0 .61 2.73 9.12 9.12 0 0 1 .82 4.27 10.33 10.33 0 0 1-1.61 4.16 5.76 5.76 0 0 0-.9 2.59 6 6 0 0 0 1 2.62 14.24 14.24 0 0 1 1.91 4 10.74 10.74 0 0 1 .12 4.13c-.2 1-.62 2.64-.94 3.63s-.94 2.62-1.38 3.61a7.19 7.19 0 0 0-.51 2.74 8.18 8.18 0 0 0 .95 2.81 15.89 15.89 0 0 1 1.58 3.9 13.06 13.06 0 0 1 .15 4 19.33 19.33 0 0 0-.14 3.17 19.9 19.9 0 0 0 .5 3.17 32.07 32.07 0 0 1 .68 3.68 36.32 36.32 0 0 1 0 5.26 45.32 45.32 0 0 1-.57 4.78.73.73 0 0 0 0 .31 37.22 37.22 0 0 0 6.21.21l2.54-.06h3.4c1.26 0 2.24 0 2.77.05 1.29.08 5.62.77 9.65 1.53a34.07 34.07 0 0 0 7.29.75 17.37 17.37 0 0 0 .6-5.16 59.75 59.75 0 0 0-.38-7.16 20.56 20.56 0 0 0-1-3.18 11 11 0 0 1-.81-4.12 11.38 11.38 0 0 1 1.1-4.09 9.36 9.36 0 0 0 .83-2.88 8.52 8.52 0 0 0-.45-2.84 22.61 22.61 0 0 1-1-3.77 20.55 20.55 0 0 1-.18-3.79c.06-1 .43-3.43.83-5.4a32.41 32.41 0 0 0 .64-4.88 15.49 15.49 0 0 0-.45-3.09 12.47 12.47 0 0 1-.33-4 14.07 14.07 0 0 1 1.2-4 9.93 9.93 0 0 0 .83-2.91 30.37 30.37 0 0 0-1.41-6.38A41.32 41.32 0 0 1 47 79.19a19 19 0 0 1 .38-3.82c.22-.9.62-3.21.8-5.04zM47.12 30.67a15.64 15.64 0 0 1 3.09 1.71 5.21 5.21 0 0 0 2.06.84 4.63 4.63 0 0 0 2-.55 9.83 9.83 0 0 1 3.21-1.1c-.28-.2-.48-.39-.7-.57A15.46 15.46 0 0 1 54 27.56c-.56-.94-1.33-2.56-1.76-3.56-.36-.85-.85-2.22-1.21-3.32l-.17-.53a8.19 8.19 0 0 0-1.43-2.6 12.8 12.8 0 0 0-4-1.94 45.57 45.57 0 0 0-4.53-1.21 13.46 13.46 0 0 0-2.47-.06 18 18 0 0 0-2.76.53 26.54 26.54 0 0 1-3.38.7 45.75 45.75 0 0 1-6.23-.11 50.86 50.86 0 0 0-5.68-.15 27.29 27.29 0 0 0-3.2.61 7.43 7.43 0 0 0-2.5 1.32 29.93 29.93 0 0 0-3.27 6.05 47.36 47.36 0 0 1-3.67 7.15A20.31 20.31 0 0 1 5.26 33c.4 0 .88.07 1.43.09a52 52 0 0 1 5.82.48 20.47 20.47 0 0 1 3.1 1 4.93 4.93 0 0 0 1 .27 4.09 4.09 0 0 0 1 0 11.18 11.18 0 0 0 3.1-1.49c1.19-.79 2.76-1.77 3.3-2a2.82 2.82 0 0 0 .73-.61 4 4 0 0 0 .46-1.09 14.5 14.5 0 0 1 .66-2.08 12.83 12.83 0 0 1 1-1.87 17.44 17.44 0 0 1 1.31-1.7 18.91 18.91 0 0 1 1.52-1.47 5 5 0 0 1 2.43-1.07 5.81 5.81 0 0 1 2.64.48 12.55 12.55 0 0 1 2.07 1.2 9.86 9.86 0 0 1 1.62 1.58 5.62 5.62 0 0 1 1 2.51 9.83 9.83 0 0 1-.23 2.91 2.71 2.71 0 0 0-.07.52c.67-.11 2.27-.29 3.65-.39a12.58 12.58 0 0 1 4.12.35z"/><path d="M59.38 77.45c.23-1.91.45-5 .49-6.93a48.17 48.17 0 0 1 .36-5.2 27.52 27.52 0 0 1 .87-3.47 10.32 10.32 0 0 0 .46-3.36 9.49 9.49 0 0 0-.95-3.16 8.09 8.09 0 0 0-2.3-2.49 11.65 11.65 0 0 0-3.59-1.33c-.52-.09-1.21-.18-1.91-.24l-1-.08c0 .12 0 .25.05.36a10.32 10.32 0 0 1-.46 3.36 27.52 27.52 0 0 0-.87 3.47 48.17 48.17 0 0 0-.36 5.2c0 1.91-.26 5-.49 6.93s-.59 4.24-.8 5.2a17.56 17.56 0 0 0-.35 3.46 40.7 40.7 0 0 0 1.63 6.93 30.14 30.14 0 0 1 1.46 6.9 11.27 11.27 0 0 1-1 3.47 12.55 12.55 0 0 0-1 3.47 11.09 11.09 0 0 0 .28 3.46 16.75 16.75 0 0 1 .5 3.46 33.39 33.39 0 0 1-.66 5.2c-.38 1.91-.74 4.25-.8 5.2a19.1 19.1 0 0 0 .17 3.47 21.14 21.14 0 0 0 .93 3.47 9.92 9.92 0 0 1 .55 3.47 10.71 10.71 0 0 1-1 3.46 10 10 0 0 0-.94 3.46 9.54 9.54 0 0 0 .69 3.46 22.14 22.14 0 0 1 1.12 3.47 59.56 59.56 0 0 1 .42 7.46c0 3.15-.51 6.07-1.2 6.49s-4.5.15-8.47-.6-8.23-1.42-9.46-1.5c-.94-.06-3.4-.06-6 0v.1c0 .3 0 .6-.07.9-.14 1.53-.33 3.05-.46 3.65a2 2 0 0 0 .55 1.92c.47.34 3.7.53 7.17.43s7.34-.12 8.57 0 5.49.76 9.46 1.5 7.78 1 8.47.6 1.23-3.34 1.2-6.49a59.56 59.56 0 0 0-.42-7.46A22.14 22.14 0 0 0 59 145a9.54 9.54 0 0 1-.69-3.46 10 10 0 0 1 .94-3.46 10.71 10.71 0 0 0 1-3.46 9.92 9.92 0 0 0-.55-3.47 21.14 21.14 0 0 1-.93-3.47 19.1 19.1 0 0 1-.17-3.47c.06-1 .42-3.29.8-5.2a33.39 33.39 0 0 0 .66-5.2 16.75 16.75 0 0 0-.5-3.46 11.09 11.09 0 0 1-.28-3.46 12.55 12.55 0 0 1 1-3.47 11.27 11.27 0 0 0 1-3.47A30.14 30.14 0 0 0 59.86 93a40.7 40.7 0 0 1-1.63-6.93 17.56 17.56 0 0 1 .35-3.46c.21-.92.57-3.26.8-5.16zM37.95 27.41a4.16 4.16 0 0 0-.68-1.76 8.4 8.4 0 0 0-1.34-1.3 11.26 11.26 0 0 0-1.78-1 4.39 4.39 0 0 0-1.87-.35 3.57 3.57 0 0 0-1.62.73A17.41 17.41 0 0 0 29.28 25a15.51 15.51 0 0 0-1.13 1.45 11.47 11.47 0 0 0-.87 1.62 13.18 13.18 0 0 0-.58 1.83 5.31 5.31 0 0 1-.7 1.66 4.19 4.19 0 0 1-1.27 1.07c-.42.21-1.84 1.09-3.15 2a12 12 0 0 1-3.75 1.73 5.49 5.49 0 0 1-1.39-.06l-.12.17c-.17.21-.38.45-.61.7a18.53 18.53 0 0 1-2 1.86 4.24 4.24 0 0 0-1.5 1.75c0 .34 1.82.69 4.11.77a50.9 50.9 0 0 1 5.57.45 19 19 0 0 1 2.83.88 6.61 6.61 0 0 0 2.79.42 12 12 0 0 0 3.75-1.73c1.31-.86 2.72-1.74 3.15-2a4.19 4.19 0 0 0 1.27-1.07 5.31 5.31 0 0 0 .71-1.65A13.18 13.18 0 0 1 37 35a11.47 11.47 0 0 1 .87-1.62l.26-.38c.22-.29.47-.61.69-.87a1.4 1.4 0 0 1-1-.4 3 3 0 0 1-.1-1.95 8.61 8.61 0 0 0 .23-2.37zM64.73 40.9a8.32 8.32 0 0 1 3.18-1 13.13 13.13 0 0 1 3.84.54c1.15.35 2 .52 2 .38a11.74 11.74 0 0 0-2.38-1.44 22.74 22.74 0 0 1-3.87-2.58 14.34 14.34 0 0 1-2.36-2.8l-.14-.22-.37-.69c-.45-.88-1-2-1.28-2.73-.41-1-1-2.64-1.32-3.7a9.59 9.59 0 0 0-1.78-3.2 13.39 13.39 0 0 0-4.6-2.34c-.67-.21-1.36-.41-2-.59l-1.16-.31c.33 1 .81 2.36 1.16 3.2s1.15 2.52 1.65 3.43a13.91 13.91 0 0 0 2.5 3.05 22.74 22.74 0 0 0 3.87 2.58A11.74 11.74 0 0 1 64 33.91c.05.15-.84 0-2-.38a13.13 13.13 0 0 0-3.8-.53 8.32 8.32 0 0 0-3.2 1 5.88 5.88 0 0 1-2.85.77 6.56 6.56 0 0 1-2.85-1.12 14.21 14.21 0 0 0-2.73-1.52h-.11a6.57 6.57 0 0 1 .49.55 3.7 3.7 0 0 1 .5 1 3.79 3.79 0 0 1 .18.73 8.61 8.61 0 0 1-.2 2.4 3 3 0 0 0 .1 1.95 1.78 1.78 0 0 0 1.58.39c.64-.11 2.22-.28 3.51-.38a10.75 10.75 0 0 1 3.66.31A14.21 14.21 0 0 1 59 40.54a6.56 6.56 0 0 0 2.85 1.12 5.88 5.88 0 0 0 2.88-.76z"/></svg>