<svg xmlns="http://www.w3.org/2000/svg" width="200" height="200" viewBox="0 0 200 200"><title>_</title><path d="M113.54 49.6v-.15a8.73 8.73 0 0 0-.78-2.48 7.12 7.12 0 0 0-2-2.12 10.82 10.82 0 0 0-3.22-1.19 25.55 25.55 0 0 0-4.14-.35 31.45 31.45 0 0 0-4.3.39c-1.29.22-4.4.52-6.93.67a89.79 89.79 0 0 1-9.16 0 15.61 15.61 0 0 0-4.63.22 2.05 2.05 0 0 0 0 1.35 30.18 30.18 0 0 1 .85 3.54 29.51 29.51 0 0 1 .31 3.52 15 15 0 0 1-.54 3.79 18.77 18.77 0 0 1-1.67 3.7 6.6 6.6 0 0 0-.86 2.92 7 7 0 0 0 1 2.93A18.72 18.72 0 0 1 79.35 70a14.35 14.35 0 0 1 .65 3.82 15.53 15.53 0 0 1-.54 3.75 19.25 19.25 0 0 1-1.63 3.7 8.15 8.15 0 0 0-1 3 7.49 7.49 0 0 0 .66 3 8.68 8.68 0 0 1 .77 4 9.92 9.92 0 0 1-1.52 3.93 6.16 6.16 0 0 0-1 2.88 6.38 6.38 0 0 0 1.08 2.9 13.65 13.65 0 0 1 1.84 3.8 10.32 10.32 0 0 1 .11 3.91c-.2 1-.61 2.59-.93 3.58s-.92 2.58-1.36 3.56a7.67 7.67 0 0 0-.55 3 8.66 8.66 0 0 0 1 3 15.27 15.27 0 0 1 1.53 3.76 12.46 12.46 0 0 1 .14 3.83 19.91 19.91 0 0 0-.15 3.27A20.58 20.58 0 0 0 79 136a31.31 31.31 0 0 1 .67 3.61 35.81 35.81 0 0 1 0 5.17 44.64 44.64 0 0 1-.56 4.7 1.23 1.23 0 0 0 .14.86 32.72 32.72 0 0 0 6.59.27l2.54-.06h3.39c1.24 0 2.21 0 2.74.05 1.27.08 5.57.76 9.59 1.52a30.07 30.07 0 0 0 7.72.72 15.06 15.06 0 0 0 .76-5.63 58.92 58.92 0 0 0-.4-7.26 21.25 21.25 0 0 0-1.06-3.28 10.54 10.54 0 0 1-.77-3.9 11 11 0 0 1 1-3.88 9.84 9.84 0 0 0 .88-3.07 9 9 0 0 0-.49-3 21.92 21.92 0 0 1-1-3.67 20 20 0 0 1-.18-3.68c.06-1 .43-3.39.82-5.33a32.3 32.3 0 0 0 .65-5 15.85 15.85 0 0 0-.46-3.21 12.07 12.07 0 0 1-.27-3.93 13.48 13.48 0 0 1 1.15-3.8 10.38 10.38 0 0 0 .88-3.1 30.41 30.41 0 0 0-1.43-6.57 41.43 41.43 0 0 1-1.68-7.2 18.42 18.42 0 0 1 .37-3.7c.2-.91.56-3.25.78-5.1s.44-4.95.48-6.84a49.22 49.22 0 0 1 .38-5.34 28.65 28.65 0 0 1 .91-3.62 9.41 9.41 0 0 0 .41-3s-.01-.08-.01-.13zM102 29.28c.66-.11 2.24-.28 3.6-.39a12.25 12.25 0 0 1 3.93.32h.15a15.08 15.08 0 0 1 3 1.65 5.64 5.64 0 0 0 2.33.93 5 5 0 0 0 2.27-.62 9.34 9.34 0 0 1 3.63-1.1h.77a18.4 18.4 0 0 1-1.8-1.36 14.85 14.85 0 0 1-2.71-3.32c-.51-.92-1.27-2.5-1.7-3.52-.35-.84-.84-2.19-1.19-3.28l-.16-.52a8.64 8.64 0 0 0-1.55-2.8 12.9 12.9 0 0 0-4.17-2.07 45.71 45.71 0 0 0-4.67-1.2 13.72 13.72 0 0 0-2.58-.07 18.54 18.54 0 0 0-2.86.54 26 26 0 0 1-3.31.68 46 46 0 0 1-6.13-.11 50.12 50.12 0 0 0-5.77-.15 27.85 27.85 0 0 0-3.28.62A7.92 7.92 0 0 0 77.09 15a29.16 29.16 0 0 0-3.39 6.2 47.7 47.7 0 0 1-3.6 7 19.29 19.29 0 0 1-2.76 2.8 6.75 6.75 0 0 0-.57.49 20.5 20.5 0 0 0 2.6.24 51.78 51.78 0 0 1 5.74.47 19.91 19.91 0 0 1 3 .93 5.33 5.33 0 0 0 1.16.3 4.59 4.59 0 0 0 1.12.05 11.29 11.29 0 0 0 3.32-1.57c1.2-.79 2.74-1.76 3.25-2a3.25 3.25 0 0 0 .91-.76 4.42 4.42 0 0 0 .54-1.27 14.17 14.17 0 0 1 .63-2A12.44 12.44 0 0 1 90 24a16.7 16.7 0 0 1 1.22-1.56 18.17 18.17 0 0 1 1.47-1.42 4.5 4.5 0 0 1 2.16-1 5.37 5.37 0 0 1 2.39.43 12.18 12.18 0 0 1 2 1.14 9.44 9.44 0 0 1 1.53 1.49 5.15 5.15 0 0 1 .88 2.26 9.42 9.42 0 0 1-.22 2.74 3.05 3.05 0 0 0-.05 1.08h.25a1.34 1.34 0 0 0 .37.12z" fill="#231f20"/><path d="M122.08 75.57c.23-1.91.45-5 .49-6.93a48.14 48.14 0 0 1 .36-5.2 27.51 27.51 0 0 1 .87-3.47 10.32 10.32 0 0 0 .46-3.36 9.49 9.49 0 0 0-.95-3.16A8.09 8.09 0 0 0 121 51a11.65 11.65 0 0 0-3.59-1.33c-.52-.09-1.21-.18-1.91-.24l-1-.08c0 .12 0 .25.05.36a10.32 10.32 0 0 1-.45 3.29 27.51 27.51 0 0 0-.87 3.47 48.14 48.14 0 0 0-.36 5.2c0 1.91-.26 5-.49 6.93s-.59 4.24-.8 5.2a17.56 17.56 0 0 0-.35 3.46 40.71 40.71 0 0 0 1.63 6.93 30.14 30.14 0 0 1 1.47 6.93 11.26 11.26 0 0 1-1 3.47 12.55 12.55 0 0 0-1 3.47 11.09 11.09 0 0 0 .28 3.46 16.75 16.75 0 0 1 .5 3.46 33.38 33.38 0 0 1-.66 5.2c-.38 1.91-.74 4.25-.8 5.2a19.1 19.1 0 0 0 .17 3.47 21.12 21.12 0 0 0 .93 3.47 9.92 9.92 0 0 1 .55 3.47 10.71 10.71 0 0 1-1 3.46 10 10 0 0 0-.94 3.46 9.55 9.55 0 0 0 .69 3.46 22.13 22.13 0 0 1 1.12 3.47 59.54 59.54 0 0 1 .42 7.46c0 3.15-.51 6.07-1.2 6.49s-4.5.15-8.47-.6-8.23-1.43-9.46-1.5c-.94-.06-3.4-.06-6 0v.1c0 .3 0 .6-.07.9-.14 1.53-.33 3.05-.46 3.65a2 2 0 0 0 .55 1.92c.47.34 3.7.53 7.17.43s7.34-.12 8.57 0 5.49.76 9.46 1.5 7.78 1 8.47.6 1.23-3.34 1.2-6.49a59.54 59.54 0 0 0-.42-7.46 22.13 22.13 0 0 0-1.12-3.47 9.55 9.55 0 0 1-.69-3.46 10 10 0 0 1 .94-3.46 10.71 10.71 0 0 0 1-3.46 9.92 9.92 0 0 0-.55-3.47 21.12 21.12 0 0 1-.93-3.47 19.1 19.1 0 0 1-.17-3.47c.06-1 .42-3.29.8-5.2a33.38 33.38 0 0 0 .66-5.2 16.75 16.75 0 0 0-.5-3.46A11.09 11.09 0 0 1 122 105a12.55 12.55 0 0 1 1-3.47 11.26 11.26 0 0 0 1-3.47 30.14 30.14 0 0 0-1.47-6.93 40.71 40.71 0 0 1-1.63-6.93 17.56 17.56 0 0 1 .35-3.46c.24-.93.6-3.26.83-5.17zM100.56 29.88a3 3 0 0 1-.1-1.95 8.61 8.61 0 0 0 .2-2.4 4.16 4.16 0 0 0-.68-1.76 8.41 8.41 0 0 0-1.34-1.3 11.27 11.27 0 0 0-1.78-1 4.39 4.39 0 0 0-1.86-.38 3.57 3.57 0 0 0-1.62.73A17.43 17.43 0 0 0 92 23.14a15.49 15.49 0 0 0-1.13 1.45 11.5 11.5 0 0 0-.87 1.62 13.19 13.19 0 0 0-.6 1.79 5.31 5.31 0 0 1-.71 1.65 4.19 4.19 0 0 1-1.27 1.07c-.42.21-1.84 1.09-3.15 2a12 12 0 0 1-3.75 1.73 5.48 5.48 0 0 1-1.39-.06l-.13.17c-.17.21-.38.45-.61.7a18.55 18.55 0 0 1-2 1.86 4.24 4.24 0 0 0-1.5 1.75c0 .34 1.82.69 4.11.77a51 51 0 0 1 5.57.45 19 19 0 0 1 2.83.88 6.61 6.61 0 0 0 2.79.42A12 12 0 0 0 94 39.65c1.31-.86 2.72-1.74 3.15-2a4.19 4.19 0 0 0 1.27-1.07 5.31 5.31 0 0 0 .7-1.58 13.19 13.19 0 0 1 .58-1.83 11.5 11.5 0 0 1 .87-1.62l.27-.38c.22-.29.47-.61.69-.87a1.4 1.4 0 0 1-.97-.42zM127.44 39a8.32 8.32 0 0 1 3.18-1 13.14 13.14 0 0 1 3.84.54c1.15.35 2 .52 2 .38a11.73 11.73 0 0 0-2.38-1.44 22.74 22.74 0 0 1-3.89-2.48 14.35 14.35 0 0 1-2.35-2.8l-.15-.25-.37-.69c-.45-.88-1-2-1.28-2.73-.41-1-1-2.64-1.32-3.7a9.59 9.59 0 0 0-1.78-3.2 13.38 13.38 0 0 0-4.6-2.34c-.67-.21-1.36-.41-2-.59l-1.16-.31c.33 1 .81 2.36 1.16 3.2s1.14 2.46 1.66 3.41a13.91 13.91 0 0 0 2.5 3.05 22.74 22.74 0 0 0 3.87 2.58 11.73 11.73 0 0 1 2.36 1.37c.05.15-.84 0-2-.38a13.14 13.14 0 0 0-3.84-.54 8.32 8.32 0 0 0-3.18 1 5.88 5.88 0 0 1-2.85.76 6.56 6.56 0 0 1-2.86-1.12 14.22 14.22 0 0 0-2.73-1.52h-.11a6.61 6.61 0 0 1 .49.55 3.7 3.7 0 0 1 .5 1 3.8 3.8 0 0 1 .18.73 8.61 8.61 0 0 1-.2 2.4 3 3 0 0 0 .1 1.95 1.78 1.78 0 0 0 1.58.39c.64-.11 2.22-.28 3.51-.38a10.75 10.75 0 0 1 3.66.31 14.22 14.22 0 0 1 2.73 1.52 6.56 6.56 0 0 0 2.85 1.12 5.88 5.88 0 0 0 2.88-.79z" fill="#231f20"/></svg>