<svg xmlns="http://www.w3.org/2000/svg" width="72.22" height="200" viewBox="0 0 72.22 200"><title>_</title><path d="M11.2 141c.86 2.2 2.13 6 2.12 7.53a13 13 0 0 1-.89 4.16 2.46 2.46 0 0 0-.18 1 32.53 32.53 0 0 0 6.54.52h2.74c3 0 5.64.16 6.64.28a46.92 46.92 0 0 1 4.73.91 15.55 15.55 0 0 0 4 .39 15.1 15.1 0 0 0 3.84-.91 11.35 11.35 0 0 0 2.87-1.76 5.15 5.15 0 0 0 1.14-2 15.25 15.25 0 0 0 .25-2.72 18.48 18.48 0 0 0-.39-3.06c-.23-1-.51-2.61-.64-3.61s-.25-2.64-.27-3.62.09-3.4.25-5.35a39.21 39.21 0 0 0 .13-4.94 19.81 19.81 0 0 0-.62-3.17 33.73 33.73 0 0 1-.83-3.66 32 32 0 0 1-.31-3.68 15.37 15.37 0 0 1 .56-3.92 19.32 19.32 0 0 1 1.73-3.82 6 6 0 0 0 .79-2.64 6.4 6.4 0 0 0-1-2.67 19.31 19.31 0 0 1-1.91-3.82 14.84 14.84 0 0 1-.67-3.94 16.06 16.06 0 0 1 .56-3.9 19.83 19.83 0 0 1 1.69-3.81A7.68 7.68 0 0 0 45 86a7 7 0 0 0-.61-2.73 9.08 9.08 0 0 1-.8-4.27 10.31 10.31 0 0 1 1.62-4.17 5.75 5.75 0 0 0 .9-2.59 5.83 5.83 0 0 0-1-2.61 14.19 14.19 0 0 1-1.92-4 10.68 10.68 0 0 1-.12-4.13c.2-1 .62-2.62.95-3.63s.98-2.57 1.39-3.57a8.38 8.38 0 0 0 .53-1.87 4.48 4.48 0 0 0 .06-.76 5.38 5.38 0 0 0-.64-2.12A5.6 5.6 0 0 0 43.7 48a9 9 0 0 0-2.79-.73 32.44 32.44 0 0 0-3.87 0 41.47 41.47 0 0 0-4.21.57c-1.29.26-3.41.56-4.71.67s-5.26 0-8.81-.19a44.38 44.38 0 0 0-6 0 16.06 16.06 0 0 0 0 3.65 30.73 30.73 0 0 1 .15 6.75 19.78 19.78 0 0 1-1.26 3.81 12.43 12.43 0 0 0-.88 3 10.79 10.79 0 0 0 .16 3 17.88 17.88 0 0 1 .38 3.84 18.29 18.29 0 0 1-.61 3.84 24.16 24.16 0 0 0-.65 3.22 22.75 22.75 0 0 0-.09 3.21A26.61 26.61 0 0 0 11 85.8a29.23 29.23 0 0 0 .94 3.26 11.53 11.53 0 0 1 .61 4.08 12.53 12.53 0 0 1-1.13 4 13.73 13.73 0 0 0-1 3 11.51 11.51 0 0 0 0 3c.14.88.7 3.18 1.24 5s1.17 4.36 1.35 5.36a27.69 27.69 0 0 1 .34 3.71 15.12 15.12 0 0 1-.59 3.92A19 19 0 0 1 10.9 125a18.06 18.06 0 0 0-1.52 3.14 13.75 13.75 0 0 0-.58 3.05 19.32 19.32 0 0 0 .2 3.19 53.45 53.45 0 0 0 2.2 6.62zM52.94 12.68a39.34 39.34 0 0 0-6.29 2.11c-2 .8-5.69 2.13-7.14 2.08a11.6 11.6 0 0 1-3.72-.87c.26.66.5 1.37.65 1.88a18.89 18.89 0 0 1 .56 2.87 10.12 10.12 0 0 1-.26 3.05 12.32 12.32 0 0 1-1.31 2.92 8 8 0 0 0-.81 1.83v.13a4 4 0 0 0 0 1.45 2.81 2.81 0 0 0 .69 1 6.77 6.77 0 0 0 1.77.87 19.1 19.1 0 0 0 2.75.56 21.3 21.3 0 0 0 2.92.07h.3a23.86 23.86 0 0 0 2.72-.4 26.59 26.59 0 0 0 3-.92 11.47 11.47 0 0 1 4-.65 14.18 14.18 0 0 1 4.1 1 5 5 0 0 0 1.35.35 1.34 1.34 0 0 0 0-.39 20.17 20.17 0 0 0-.43-2.69 16.75 16.75 0 0 0-.79-2.39 17.49 17.49 0 0 1-1-2.78 15.38 15.38 0 0 1-.35-2.83 10.14 10.14 0 0 1 .1-1.37 13.46 13.46 0 0 1 .35-1.79 23.64 23.64 0 0 1 1.36-3.45 2.87 2.87 0 0 0 .3-1.23 3.55 3.55 0 0 0-1.37-.43 19.9 19.9 0 0 0-3.45.02zM4 30a27.79 27.79 0 0 1 3.54-.54h.76a15.51 15.51 0 0 1 3 .27A17.76 17.76 0 0 1 14.9 31a11.4 11.4 0 0 0 2.72.91 8.1 8.1 0 0 0 2.44-.09 6.66 6.66 0 0 0 1.86-.82 3.3 3.3 0 0 0 .84-1 10.05 10.05 0 0 0 .47-1.84 12.21 12.21 0 0 0 0-2.08 13.5 13.5 0 0 0-.42-2.19 16.14 16.14 0 0 0-.76-1.92l-.05-.15-.1-.21a7.83 7.83 0 0 1-.77-3.38 10.45 10.45 0 0 1 .92-3.55 2.32 2.32 0 0 0 .18-.55 3.66 3.66 0 0 0-.92 0c-1 .1-2.52.36-3.42.56a32 32 0 0 0-3.18.93 26.44 26.44 0 0 1-3.49 1 24.36 24.36 0 0 1-3.51.35 18.7 18.7 0 0 1-3.84-.52 26.77 26.77 0 0 1-4.06-1.64 4.63 4.63 0 0 0-2-.52 2.51 2.51 0 0 0-.43.93A12.24 12.24 0 0 0-2.8 18a22.15 22.15 0 0 0 2.06 4.69c.74 1.42 2.26 4.45 2.24 5.79a7.43 7.43 0 0 1-.5 2.44c.93-.35 2.21-.74 3-.92z"/><path d="M55.17 65.31c.31-1 .9-2.51 1.33-3.47a9.25 9.25 0 0 0 .74-3.27 6.71 6.71 0 0 0-.87-2.88 7 7 0 0 0-2.24-2.09 10.36 10.36 0 0 0-3.38-.9c-.61 0-1.47-.07-2.3-.06h-1a9.9 9.9 0 0 1-.64 2.24c-.42 1-1 2.51-1.33 3.47s-.71 2.51-.9 3.47a9.27 9.27 0 0 0 .1 3.47 12.69 12.69 0 0 0 1.69 3.47 7.33 7.33 0 0 1 1.27 3.47 7.12 7.12 0 0 1-1.16 3.46 8.91 8.91 0 0 0-1.36 3.46 7.64 7.64 0 0 0 .68 3.46 8.4 8.4 0 0 1 .76 3.47 9.08 9.08 0 0 1-1.12 3.47A18.41 18.41 0 0 0 43.88 93a14.52 14.52 0 0 0-.5 3.47A13.33 13.33 0 0 0 44 100a17.82 17.82 0 0 0 1.74 3.46 7.87 7.87 0 0 1 1.2 3.46 7.52 7.52 0 0 1-1 3.46 17.87 17.87 0 0 0-1.58 3.47 13.91 13.91 0 0 0-.49 3.47 29.92 29.92 0 0 0 .29 3.47 32 32 0 0 0 .78 3.47 21.48 21.48 0 0 1 .67 3.47 40.38 40.38 0 0 1-.13 5.19c-.16 1.9-.27 4.24-.24 5.19s.14 2.51.26 3.47.4 2.51.62 3.47a20 20 0 0 1 .43 3.37 16.51 16.51 0 0 1-.3 3.17 6.5 6.5 0 0 1-1.56 2.74 12.55 12.55 0 0 1-3.34 2.08 16.46 16.46 0 0 1-4.31 1 17.07 17.07 0 0 1-4.47-.44 45.14 45.14 0 0 0-4.54-.87c-1-.12-3.59-.23-6.47-.27a9.84 9.84 0 0 1-.13 1 11.55 11.55 0 0 1-.62 2.27 3 3 0 0 0 0 2.73c.44.5 3.91.91 7.71.91s7.94.13 9.19.29a45.14 45.14 0 0 1 4.54.87 17.07 17.07 0 0 0 4.47.44 16.46 16.46 0 0 0 4.31-1 12.55 12.55 0 0 0 3.34-2.08 6.5 6.5 0 0 0 1.56-2.74 16.51 16.51 0 0 0 .3-3.17 20 20 0 0 0-.43-3.37c-.22-1-.5-2.51-.62-3.47s-.24-2.51-.26-3.51.09-3.29.24-5.19a40.38 40.38 0 0 0 .13-5.19 21.48 21.48 0 0 0-.67-3.47 32 32 0 0 1-.78-3.47 29.92 29.92 0 0 1-.29-3.47 13.91 13.91 0 0 1 .49-3.47 17.87 17.87 0 0 1 1.58-3.47 7.52 7.52 0 0 0 1-3.46 7.87 7.87 0 0 0-1.2-3.46 17.82 17.82 0 0 1-1.74-3.46 13.33 13.33 0 0 1-.59-3.47 14.52 14.52 0 0 1 .5-3.47 18.41 18.41 0 0 1 1.54-3.47A9.08 9.08 0 0 0 56.24 93a8.4 8.4 0 0 0-.76-3.47 7.64 7.64 0 0 1-.68-3.46 8.91 8.91 0 0 1 1.36-3.46 7.12 7.12 0 0 0 1.16-3.46 7.33 7.33 0 0 0-1.27-3.47 12.69 12.69 0 0 1-1.69-3.47 9.27 9.27 0 0 1-.1-3.47c.19-.91.6-2.47.91-3.43zM68.54 21.93a3.36 3.36 0 0 0 .28-2.67 3.78 3.78 0 0 0-2.55-1.15 21.45 21.45 0 0 0-3.79 0 26 26 0 0 0-4.14 1.23l-1.08.4a8.64 8.64 0 0 0-.09 1.16 14 14 0 0 0 .31 2.5 16.24 16.24 0 0 0 .87 2.5 18.37 18.37 0 0 1 .92 2.65 21.88 21.88 0 0 1 .47 2.94 2 2 0 0 1-.74 1.94 4.5 4.5 0 0 1-2.71-.43 12.66 12.66 0 0 0-3.59-.84 10.05 10.05 0 0 0-3.36.55 27.94 27.94 0 0 1-3.25 1 25.59 25.59 0 0 1-2.91.43 7.08 7.08 0 0 0-.36 1v.08a5.49 5.49 0 0 0 0 2.2A4.26 4.26 0 0 0 44 39.26a7.83 7.83 0 0 0 2.35 1.19 20.73 20.73 0 0 0 3 .61 22.62 22.62 0 0 0 3.18.07 25.25 25.25 0 0 0 3.25-.46 27.94 27.94 0 0 0 3.25-1 10.05 10.05 0 0 1 3.36-.55A12.66 12.66 0 0 1 66 40a4.5 4.5 0 0 0 2.71.39 2 2 0 0 0 .74-1.92 21.88 21.88 0 0 0-.45-2.96 18.37 18.37 0 0 0-.92-2.65 16.24 16.24 0 0 1-.87-2.5 14 14 0 0 1-.31-2.5 11.78 11.78 0 0 1 .4-2.73 22.58 22.58 0 0 1 1.24-3.2zM8.61 39.74a3.34 3.34 0 0 0 2.14-.31 30.06 30.06 0 0 1 3.34-1 26.06 26.06 0 0 1 3.3-.51 14 14 0 0 1 3.28.23 16.33 16.33 0 0 1 3.26 1.17 12.88 12.88 0 0 0 3.17 1.06 9.47 9.47 0 0 0 3-.11 7.89 7.89 0 0 0 2.4-1 4.7 4.7 0 0 0 1.35-1.74 11.35 11.35 0 0 0 .56-2.19 12.82 12.82 0 0 0 .08-1.61v-.79c0-.23 0-.29-.05-.45l-.14-.1a4.26 4.26 0 0 1-1.17-1.79 5.49 5.49 0 0 1 0-2.2v-.16l-.13-.38a5.54 5.54 0 0 1-.4-1.13 6 6 0 0 1-.21-1.52 9 9 0 0 1 .77-3 2.53 2.53 0 0 0 .16-2.21 3.34 3.34 0 0 0-2.42-.48c-1 .11-2.64.37-3.6.59-.81.18-2 .53-2.9.83l-.47.16-.48.16a17.52 17.52 0 0 1 .84 2.13 14.76 14.76 0 0 1 .48 2.5 13.57 13.57 0 0 1-.05 2.4 11.35 11.35 0 0 1-.56 2.19 4.7 4.7 0 0 1-1.35 1.74 7.89 7.89 0 0 1-2.4 1 9.47 9.47 0 0 1-3 .11 12.88 12.88 0 0 1-3.17-1.06 16.33 16.33 0 0 0-3.24-1.1 14.11 14.11 0 0 0-3-.23c.18.33.34.67.5 1a12 12 0 0 1 1.25 3.48 6.51 6.51 0 0 1-.79 2.64c-.45.73-.6 1.49-.35 1.68z"/></svg>