<svg xmlns="http://www.w3.org/2000/svg" width="200" height="200" viewBox="0 0 200 200"><title>_</title><path d="M110.34,45.68a9.44,9.44,0,0,0-3-.79,33.26,33.26,0,0,0-3.95,0,42.28,42.28,0,0,0-4.27.58c-1.28.25-3.37,0.55-4.65,0.66h0c-1.3.11-5.22,0-8.74-.19a38.79,38.79,0,0,0-6.45,0,14,14,0,0,0,0,4.16,30.72,30.72,0,0,1,.16,6.59,19.23,19.23,0,0,1-1.22,3.69,12.79,12.79,0,0,0-.92,3.16,11.18,11.18,0,0,0,.17,3.12,17.3,17.3,0,0,1,.36,3.72,17.66,17.66,0,0,1-.59,3.71,24.92,24.92,0,0,0-.67,3.3,23.38,23.38,0,0,0-.1,3.29A27.15,27.15,0,0,0,76.9,84a30,30,0,0,0,1,3.33,11.13,11.13,0,0,1,.58,3.87,12,12,0,0,1-1.08,3.84,14.08,14.08,0,0,0-1.07,3.19,11.94,11.94,0,0,0,0,3.14c0.14,0.91.71,3.23,1.25,5.07s1.17,4.33,1.33,5.31a27.12,27.12,0,0,1,.33,3.63,14.5,14.5,0,0,1-.56,3.77,18.5,18.5,0,0,1-1.74,3.7,18.66,18.66,0,0,0-1.57,3.25,14.13,14.13,0,0,0-.61,3.19,20,20,0,0,0,.19,3.27,52.82,52.82,0,0,0,2.25,6.72c1,2.61,2.1,6.07,2.09,7.35a12.44,12.44,0,0,1-.85,4,2.65,2.65,0,0,0-.16,1.63,28,28,0,0,0,7,.63l2.73,0c3,0,5.61.16,6.58,0.28a46.29,46.29,0,0,1,4.66.9,16,16,0,0,0,4.15.41,15.43,15.43,0,0,0,4-.95,11.74,11.74,0,0,0,3-1.87,5.58,5.58,0,0,0,1.28-2.24,15.55,15.55,0,0,0,.28-2.94,19.15,19.15,0,0,0-.41-3.16c-0.22-1-.51-2.57-0.63-3.56s-0.24-2.6-.27-3.57,0.09-3.37.25-5.3a39.77,39.77,0,0,0,.13-5,20.53,20.53,0,0,0-.63-3.27,33.14,33.14,0,0,1-.81-3.6,31.29,31.29,0,0,1-.3-3.61,14.85,14.85,0,0,1,.54-3.77,18.74,18.74,0,0,1,1.68-3.7,6.55,6.55,0,0,0,.87-2.92,6.92,6.92,0,0,0-1-2.93,18.66,18.66,0,0,1-1.86-3.7,14.26,14.26,0,0,1-.65-3.78,15.46,15.46,0,0,1,.54-3.75,19.26,19.26,0,0,1,1.64-3.7,8.14,8.14,0,0,0,1-3,7.45,7.45,0,0,0-.66-3,8.64,8.64,0,0,1-.78-4A9.89,9.89,0,0,1,112,73.26a6.14,6.14,0,0,0,1-2.88,6.34,6.34,0,0,0-1.08-2.9,13.59,13.59,0,0,1-1.85-3.8,10.27,10.27,0,0,1-.12-3.91c0.2-1,.62-2.59.93-3.58s0.93-2.58,1.37-3.56a8.91,8.91,0,0,0,.57-2,4.88,4.88,0,0,0,.08-0.84,5.8,5.8,0,0,0-.72-2.37A6,6,0,0,0,110.34,45.68Z" fill="#231f20"/><path d="M124.65,10.94a3.43,3.43,0,0,0-1.78-.65,20.64,20.64,0,0,0-3.57,0,39.37,39.37,0,0,0-6.42,2.14c-2.46,1-5.7,2.09-6.93,2a11.17,11.17,0,0,1-3.75-.87,6.24,6.24,0,0,0-.91-0.33l0.05,0.13a22.1,22.1,0,0,1,1,2.77,18.31,18.31,0,0,1,.51,2.74,9.66,9.66,0,0,1-.25,2.87,11.89,11.89,0,0,1-1.25,2.79,8.47,8.47,0,0,0-.87,2l0,0.12a4.48,4.48,0,0,0,0,1.72,3.3,3.3,0,0,0,.85,1.3l0.09,0.06a7.15,7.15,0,0,0,1.9.93,19.81,19.81,0,0,0,2.84.57,21.61,21.61,0,0,0,3,.07l0.32,0a24.47,24.47,0,0,0,2.78-.41,27,27,0,0,0,3.11-.94,10.83,10.83,0,0,1,3.76-.61,13.6,13.6,0,0,1,3.93.92,4.63,4.63,0,0,0,1.88.4,1.62,1.62,0,0,0,.19-0.93,20.73,20.73,0,0,0-.44-2.77,17.36,17.36,0,0,0-.86-2.47,17,17,0,0,1-.93-2.69,14.9,14.9,0,0,1-.34-2.72,9.47,9.47,0,0,1,.1-1.3A13,13,0,0,1,123,16a23.19,23.19,0,0,1,1.32-3.37A2.8,2.8,0,0,0,124.65,10.94Z" fill="#231f20"/><path d="M89,19.84l0-.11-0.11-.23a7.37,7.37,0,0,1-.72-3.14A10,10,0,0,1,88.95,13a2.56,2.56,0,0,0,.26-1.15,3.62,3.62,0,0,0-1.5-.14c-1,.1-2.57.37-3.48,0.57a32.63,32.63,0,0,0-3.25,1,25.89,25.89,0,0,1-3.41.94,23.9,23.9,0,0,1-3.43.34,18.31,18.31,0,0,1-3.71-.5,26.11,26.11,0,0,1-4-1.54,4.82,4.82,0,0,0-2.4-.56,2.06,2.06,0,0,0-.79,1.33,12.61,12.61,0,0,0-.14,2.93,21.73,21.73,0,0,0,2.12,4.87c0.88,1.6,2.19,4.4,2.18,5.54a7.44,7.44,0,0,1-.92,3.13l-0.09.17a5.8,5.8,0,0,0,.68-0.22,31,31,0,0,1,3.48-1.08A27.11,27.11,0,0,1,74,28.07h0.69a15.1,15.1,0,0,1,2.87.26,17.14,17.14,0,0,1,3.5,1.25,11.82,11.82,0,0,0,2.87,1,8.57,8.57,0,0,0,2.63-.09,7,7,0,0,0,2-.87,3.76,3.76,0,0,0,1-1.3,10.49,10.49,0,0,0,.5-2,12.54,12.54,0,0,0,0-2.19,13.86,13.86,0,0,0-.44-2.3A16.75,16.75,0,0,0,89,19.84Z" fill="#231f20"/><path d="M113.83,50.79a9.9,9.9,0,0,1-.64,2.24c-0.42,1-1,2.51-1.33,3.47S111.15,59,111,60a9.27,9.27,0,0,0,.1,3.47,12.68,12.68,0,0,0,1.69,3.47A7.33,7.33,0,0,1,114,70.36a7.12,7.12,0,0,1-1.16,3.46,8.91,8.91,0,0,0-1.36,3.46,7.64,7.64,0,0,0,.68,3.46,8.41,8.41,0,0,1,.76,3.47,9.08,9.08,0,0,1-1.12,3.47,18.41,18.41,0,0,0-1.54,3.47,14.52,14.52,0,0,0-.5,3.47,13.32,13.32,0,0,0,.59,3.47,17.8,17.8,0,0,0,1.74,3.46,7.87,7.87,0,0,1,1.2,3.46,7.52,7.52,0,0,1-1,3.46,17.86,17.86,0,0,0-1.58,3.47,13.91,13.91,0,0,0-.49,3.47,29.92,29.92,0,0,0,.29,3.47,32,32,0,0,0,.78,3.47,21.49,21.49,0,0,1,.67,3.47,40.43,40.43,0,0,1-.13,5.19c-0.16,1.9-.27,4.24-0.24,5.19s0.14,2.51.26,3.47,0.4,2.51.62,3.47a20,20,0,0,1,.43,3.37,16.5,16.5,0,0,1-.3,3.17,6.5,6.5,0,0,1-1.56,2.74,12.55,12.55,0,0,1-3.34,2.08,16.45,16.45,0,0,1-4.31,1,17.06,17.06,0,0,1-4.47-.44,45.2,45.2,0,0,0-4.54-.87c-1-.12-3.59-0.23-6.47-0.27a9.83,9.83,0,0,1-.13,1,11.55,11.55,0,0,1-.62,2.27,3,3,0,0,0,0,2.73c0.44,0.5,3.91.91,7.71,0.91s7.94,0.13,9.19.29a45.2,45.2,0,0,1,4.54.87,17.06,17.06,0,0,0,4.47.44,16.45,16.45,0,0,0,4.31-1,12.55,12.55,0,0,0,3.34-2.08,6.5,6.5,0,0,0,1.56-2.74,16.5,16.5,0,0,0,.3-3.17,20,20,0,0,0-.43-3.37c-0.22-1-.5-2.51-0.62-3.47s-0.24-2.51-.26-3.47,0.09-3.29.24-5.19a40.43,40.43,0,0,0,.13-5.19,21.49,21.49,0,0,0-.67-3.47,32,32,0,0,1-.78-3.47,29.92,29.92,0,0,1-.29-3.47,13.91,13.91,0,0,1,.49-3.47,17.86,17.86,0,0,1,1.58-3.47,7.52,7.52,0,0,0,1-3.46,7.87,7.87,0,0,0-1.2-3.46,17.8,17.8,0,0,1-1.74-3.46,13.32,13.32,0,0,1-.59-3.47,14.52,14.52,0,0,1,.5-3.47,18.41,18.41,0,0,1,1.54-3.47,9.08,9.08,0,0,0,1.12-3.47,8.41,8.41,0,0,0-.76-3.47,7.64,7.64,0,0,1-.68-3.46,8.91,8.91,0,0,1,1.36-3.46,7.12,7.12,0,0,0,1.16-3.46,7.33,7.33,0,0,0-1.27-3.47,12.68,12.68,0,0,1-1.69-3.47,9.27,9.27,0,0,1-.1-3.47c0.19-1,.6-2.51.9-3.47s0.9-2.51,1.33-3.47a9.25,9.25,0,0,0,.74-3.27,6.71,6.71,0,0,0-.87-2.88,7,7,0,0,0-2.24-2.09,10.36,10.36,0,0,0-3.38-.9c-0.61,0-1.47-.07-2.3-0.06Z" fill="#231f20"/><path d="M123.58,19a14,14,0,0,0,.31,2.5,16.22,16.22,0,0,0,.87,2.5,18.37,18.37,0,0,1,.92,2.65,21.86,21.86,0,0,1,.47,2.94,2,2,0,0,1-.74,1.92,4.5,4.5,0,0,1-2.71-.39,12.66,12.66,0,0,0-3.59-.84,10.06,10.06,0,0,0-3.36.55,27.9,27.9,0,0,1-3.25,1,25.59,25.59,0,0,1-2.91.43,7.09,7.09,0,0,0-.36,1l0,0.08a5.49,5.49,0,0,0,0,2.2,4.26,4.26,0,0,0,1.17,1.79,7.83,7.83,0,0,0,2.35,1.19,20.66,20.66,0,0,0,3,.61,22.62,22.62,0,0,0,3.18.07,25.25,25.25,0,0,0,3.25-.46,27.9,27.9,0,0,0,3.25-1,10.06,10.06,0,0,1,3.36-.55,12.66,12.66,0,0,1,3.59.84,4.5,4.5,0,0,0,2.71.39,2,2,0,0,0,.74-1.92,21.86,21.86,0,0,0-.47-2.94,18.37,18.37,0,0,0-.92-2.65,16.22,16.22,0,0,1-.87-2.5,14,14,0,0,1-.31-2.5,11.79,11.79,0,0,1,.4-2.73,22.57,22.57,0,0,1,1.26-3.19,3.36,3.36,0,0,0,.28-2.67,3.79,3.79,0,0,0-2.55-1.15,21.45,21.45,0,0,0-3.79,0,26,26,0,0,0-4.14,1.23l-1.08.4A8.68,8.68,0,0,0,123.58,19Z" fill="#231f20"/><path d="M89.86,19.41a17.56,17.56,0,0,1,.84,2.13,14.75,14.75,0,0,1,.48,2.5,13.57,13.57,0,0,1-.05,2.4,11.34,11.34,0,0,1-.56,2.19,4.7,4.7,0,0,1-1.35,1.74,7.88,7.88,0,0,1-2.4,1,9.46,9.46,0,0,1-3,.11,12.87,12.87,0,0,1-3.17-1.06,16.35,16.35,0,0,0-3.26-1.17,14.09,14.09,0,0,0-3-.23c0.18,0.33.34,0.67,0.5,1a12,12,0,0,1,1.25,3.48,6.51,6.51,0,0,1-.79,2.64c-0.42.74-.57,1.5-0.32,1.69a3.34,3.34,0,0,0,2.14-.31,30.06,30.06,0,0,1,3.34-1,26.11,26.11,0,0,1,3.3-.51,14,14,0,0,1,3.28.23,16.35,16.35,0,0,1,3.26,1.17,12.87,12.87,0,0,0,3.17,1.06,9.46,9.46,0,0,0,3-.11,7.88,7.88,0,0,0,2.4-1,4.7,4.7,0,0,0,1.35-1.74,11.34,11.34,0,0,0,.56-2.19,12.82,12.82,0,0,0,.08-1.61c0-.28,0-0.56,0-0.79s0-.29-0.05-0.45l-0.14-.1a4.26,4.26,0,0,1-1.17-1.79,5.49,5.49,0,0,1,0-2.2s0-.11,0-0.16L99.39,26a5.54,5.54,0,0,1-.4-1.13,6,6,0,0,1-.21-1.52,9,9,0,0,1,.77-3,2.53,2.53,0,0,0,.17-2.23,3.34,3.34,0,0,0-2.42-.48c-1,.11-2.64.37-3.6,0.59-0.81.18-2,.53-2.9,0.83l-0.47.16Z" fill="#231f20"/></svg>