<svg xmlns="http://www.w3.org/2000/svg" width="138.28" height="200" viewBox="0 0 138.28 200"><title>_</title><path d="M1.37 111.79a1.68 1.68 0 0 0 .55-.12 1.92 1.92 0 0 1 1.68 0 2.69 2.69 0 0 1 1.4 1.9c.31 1.38-.25 11.48-.25 11.58L4 137.6c-.3 5.37-.46 11.16-.35 12.64a8.22 8.22 0 0 0 .88 3.29 1.72 1.72 0 0 0 1.33.39 21 21 0 0 1 3.27-.28h.49a16.32 16.32 0 0 1 2.54.36c.36.08.69.16 1 .25a25.2 25.2 0 0 0 2.78.67 23.26 23.26 0 0 0 2.76.25c.87 0 2.91.19 4.63.4a13.6 13.6 0 0 0 3.88 0 10.23 10.23 0 0 0 2.51-1.28 17.56 17.56 0 0 1 3.28-1.83 25.43 25.43 0 0 1 6.51-.65 26.17 26.17 0 0 1 6.5.7 18 18 0 0 1 3.31 1.81 7 7 0 0 0 2.57 1 32.4 32.4 0 0 0 7.18-1.51c3.37-1 7.08-1.94 8.27-2.1a38.9 38.9 0 0 1 4.31-.3 26.51 26.51 0 0 0 3.7-.32 51.29 51.29 0 0 0 6.56-2.31 81 81 0 0 0 8-3.8 31.46 31.46 0 0 0 4.21-2.88 23.11 23.11 0 0 0 2.26-2.55 19.49 19.49 0 0 0 1.71-2.92 20.16 20.16 0 0 0 1.08-3.26 33.8 33.8 0 0 1 1.1-3.77 30.26 30.26 0 0 1 1.59-3.44c.5-.89 1.39-2.3 2-3.13s1.64-2.17 2.35-3a6.47 6.47 0 0 0 1.21-2.33 6.92 6.92 0 0 0-.2-2.71 10.68 10.68 0 0 1-.32-4.22 10.87 10.87 0 0 1 1.67-3.92A13.6 13.6 0 0 0 110 104a10.93 10.93 0 0 0 .46-2.89c0-.91-.19-3.43-.4-5.51s-.59-4.69-.84-5.71a95.73 95.73 0 0 0-3.56-9c-1.58-3.58-3.4-7.92-3.73-9a13.93 13.93 0 0 0-2.85-5.1A24.44 24.44 0 0 1 97 64a28 28 0 0 1-1.66-3.37v-.11a9.4 9.4 0 0 0-1.47-2.3 28.12 28.12 0 0 0-5.47-3c-2.69-1.18-6.26-2.9-8-3.83a28.57 28.57 0 0 0-4.49-2 111.93 111.93 0 0 0-11.43-.74h-.16c-4.1-.12-10.73-.49-12.18-1a15.68 15.68 0 0 1-3.69-2A8.64 8.64 0 0 0 46 44.44a5.68 5.68 0 0 0-2.29 0 18.35 18.35 0 0 1-3.41.56 17.59 17.59 0 0 1-3.38-.22c-.77-.14-2.78-.33-4.38-.42s-3.61-.11-4.36 0-2.12.23-2.91.36-2.79.65-4.39 1.12a40.46 40.46 0 0 1-4.8 1.16 43 43 0 0 1-6.24-.18 11.36 11.36 0 0 0-3.72.18 7.55 7.55 0 0 0-.22 2.28c.1 1.28.1 3.4.04 4.72s-.24 3.45-.42 4.78-.33 3.22-.37 4.5 0 3.28.08 4.52.12 3.51.05 4.81-.28 3.45-.51 4.74-.56 3-.76 3.74a8.44 8.44 0 0 1-.94 2.3 5.41 5.41 0 0 1-1.16 1.08 7 7 0 0 1-1.46.7 3.12 3.12 0 0 1-2.53-.34 5.35 5.35 0 0 1-1.15-1.09c-.05.36-.11.78-.16 1.25a89.49 89.49 0 0 0 .06 10.27c.22 4.22.33 8.55.24 9.65s-.32 2.82-.51 3.89a13.56 13.56 0 0 0-.24 2.53.92.92 0 0 0 0 .11 2.49 2.49 0 0 0 .6-.19 4.19 4.19 0 0 1 2.06-.42 4.66 4.66 0 0 1 2 .72 1.93 1.93 0 0 0 .55.24z"/><path d="M120.42 96.49a96.22 96.22 0 0 0-3.65-9.21c-1.75-4-3.4-7.94-3.67-8.81a15.4 15.4 0 0 0-3.1-5.64 22.59 22.59 0 0 1-2-2.7 26.24 26.24 0 0 1-1.56-3.13 10.68 10.68 0 0 0-1.82-2.89 27.31 27.31 0 0 0-5.95-3.3L98 60.5l-1.36-.61.09.11a26.24 26.24 0 0 0 1.55 3.15 22.59 22.59 0 0 0 2 2.7 15.4 15.4 0 0 1 3.16 5.64c.27.87 1.92 4.83 3.67 8.81a96.22 96.22 0 0 1 3.65 9.21 59.1 59.1 0 0 1 .87 5.91c.22 2.16.4 4.7.41 5.65a12.39 12.39 0 0 1-.54 3.38 15 15 0 0 1-1.69 3.24 9.49 9.49 0 0 0-1.41 3.29 9.26 9.26 0 0 0 .28 3.54 8.37 8.37 0 0 1 .23 3.45 7.91 7.91 0 0 1-1.55 3c-.67.77-1.69 2.06-2.26 2.87s-1.42 2.16-1.89 3a28.18 28.18 0 0 0-1.49 3.23 32 32 0 0 0-1 3.56 21.81 21.81 0 0 1-1.17 3.55 21.14 21.14 0 0 1-1.87 3.19 24.53 24.53 0 0 1-2.44 2.75 32.21 32.21 0 0 1-4.48 3.08 82.9 82.9 0 0 1-8.14 3.9 51.41 51.41 0 0 1-6.87 2.4 27.87 27.87 0 0 1-4 .35 37.39 37.39 0 0 0-4.11.29c-1.12.15-4.74 1.08-8 2.06s-6.81 1.68-7.79 1.56a8.47 8.47 0 0 1-3.26-1.27 16.47 16.47 0 0 0-3-1.63 25 25 0 0 0-6-.6 24 24 0 0 0-6 .55 16 16 0 0 0-3 1.66 11.55 11.55 0 0 1-3 1.51 14.81 14.81 0 0 1-4.48.06c-1.64-.2-3.66-.38-4.48-.39a24.74 24.74 0 0 1-3-.27 26.58 26.58 0 0 1-3-.72c-.24-.07-.53-.15-.84-.21v1.78a9.22 9.22 0 0 0 1.19 4.11 3.14 3.14 0 0 0 2.77.94 18.6 18.6 0 0 1 3.42-.25 14.74 14.74 0 0 1 3.13.54 26.58 26.58 0 0 0 3 .72 24.74 24.74 0 0 0 3 .27c.82 0 2.83.19 4.48.39a14.81 14.81 0 0 0 4.48-.06 11.55 11.55 0 0 0 3-1.51 16 16 0 0 1 3-1.66 24 24 0 0 1 6-.55 25 25 0 0 1 6 .6 16.47 16.47 0 0 1 3 1.63 8.47 8.47 0 0 0 3.26 1.27c1 .12 4.47-.58 7.79-1.56s6.93-1.9 8-2.06a37.39 37.39 0 0 1 4.11-.29 27.87 27.87 0 0 0 4-.35 51.41 51.41 0 0 0 6.87-2.4 82.9 82.9 0 0 0 8.14-3.9 32.21 32.21 0 0 0 4.48-3.08 24.53 24.53 0 0 0 2.44-2.75 21.14 21.14 0 0 0 1.87-3.19 21.81 21.81 0 0 0 1.17-3.55 32 32 0 0 1 1-3.56 28.18 28.18 0 0 1 1.49-3.23c.47-.84 1.32-2.19 1.89-3s1.59-2.1 2.26-2.87a7.91 7.91 0 0 0 1.55-3 8.37 8.37 0 0 0-.23-3.45 9.26 9.26 0 0 1-.28-3.54 9.49 9.49 0 0 1 1.41-3.29 15 15 0 0 0 1.69-3.24 12.39 12.39 0 0 0 .54-3.38c0-.95-.19-3.49-.41-5.65a59.1 59.1 0 0 0-.88-5.84z"/></svg>