<svg xmlns="http://www.w3.org/2000/svg" width="200" height="200" viewBox="0 0 200 200"><title>_</title><path d="M136.6 58.41A9.81 9.81 0 0 0 135 56a27.51 27.51 0 0 0-5.63-3.08c-2.67-1.17-6.23-2.88-7.92-3.81a28.57 28.57 0 0 0-4.6-2.07 110.31 110.31 0 0 0-11.54-.75h-.14c-4.91-.15-10.8-.54-12-1a15.09 15.09 0 0 1-3.57-1.89 9.07 9.07 0 0 0-2.67-1.33 6.21 6.21 0 0 0-2.54.05 17.83 17.83 0 0 1-3.26.53 17.27 17.27 0 0 1-3.27-.21c-.79-.13-2.86-.32-4.44-.44s-3.64-.11-4.43 0-2.15.23-3 .37-2.83.65-4.45 1.13a40 40 0 0 1-4.72 1.12 43 43 0 0 1-6.14-.18 10.24 10.24 0 0 0-4.15.3 7.21 7.21 0 0 0-.33 2.69c.07 1.29.09 3.39 0 4.68s-.24 3.42-.41 4.73-.34 3.31-.38 4.57 0 3.31.09 4.57.12 3.46.05 4.75-.29 3.4-.5 4.68-.55 2.92-.75 3.69a7.68 7.68 0 0 1-.86 2.13 5 5 0 0 1-1 1 6.58 6.58 0 0 1-1.34.65 2.64 2.64 0 0 1-2.1-.34 6.15 6.15 0 0 1-1.56-1.72l-.15-.23c-.1.58-.24 1.45-.36 2.48A89.68 89.68 0 0 0 37 93.41c.22 4.2.33 8.5.24 9.58s-.32 2.79-.51 3.84a14.1 14.1 0 0 0-.24 2.66 1.53 1.53 0 0 0 .13.51 1.73 1.73 0 0 0 .44.06 2.76 2.76 0 0 0 .8-.25 3.75 3.75 0 0 1 1.79-.37 4.17 4.17 0 0 1 1.72.64 2.27 2.27 0 0 0 .8.31 2.07 2.07 0 0 0 .81-.17 1.43 1.43 0 0 1 1.25 0 2.2 2.2 0 0 1 1.09 1.55c.22 1 0 7.38-.26 11.45l-.69 12.48c-.3 5.38-.46 11.2-.35 12.71A8.48 8.48 0 0 0 45 152a2.17 2.17 0 0 0 1.81.57 20.26 20.26 0 0 1 3.18-.27h.46a15.8 15.8 0 0 1 2.46.35c.34.07.66.15.92.24a25.86 25.86 0 0 0 2.85.68 23.84 23.84 0 0 0 2.84.26c.85 0 2.87.19 4.58.4a14 14 0 0 0 4.08 0 10.65 10.65 0 0 0 2.67-1.36 16.92 16.92 0 0 1 3.2-1.87 25.27 25.27 0 0 1 6.33-.62 25.47 25.47 0 0 1 6.32.66 17.44 17.44 0 0 1 3.2 1.75 7.5 7.5 0 0 0 2.8 1.1 31.94 31.94 0 0 0 7.38-1.52c3.35-1 7-1.92 8.19-2.09a38.34 38.34 0 0 1 4.25-.3 27.14 27.14 0 0 0 3.79-.33 50.66 50.66 0 0 0 6.66-2.34 81.52 81.52 0 0 0 8-3.83 31.35 31.35 0 0 0 4.3-2.95 23.87 23.87 0 0 0 2.32-2.62 20.15 20.15 0 0 0 1.76-3 20.79 20.79 0 0 0 1.11-3.36 33.34 33.34 0 0 1 1.08-3.7 29.5 29.5 0 0 1 1.55-3.37c.49-.87 1.37-2.26 2-3.09s1.62-2.15 2.32-2.94a7 7 0 0 0 1.33-2.56 7.42 7.42 0 0 0-.21-3 10.27 10.27 0 0 1-.31-4 10.48 10.48 0 0 1 1.58-3.71 14 14 0 0 0 1.55-3 11.35 11.35 0 0 0 .49-3.05c0-.92-.2-3.46-.41-5.55s-.6-4.74-.85-5.77a95.7 95.7 0 0 0-3.59-9c-1.57-3.57-3.39-7.88-3.71-8.91a14.42 14.42 0 0 0-3-5.28 23.83 23.83 0 0 1-2.07-2.85 27.35 27.35 0 0 1-1.62-3.3z" fill="#231f20"/><path d="M161.27 94.61a96.24 96.24 0 0 0-3.65-9.21c-1.75-4-3.4-7.94-3.67-8.81A15.4 15.4 0 0 0 150.8 71a22.62 22.62 0 0 1-2-2.7 26.24 26.24 0 0 1-1.55-3.15 10.68 10.68 0 0 0-1.82-2.89 27.33 27.33 0 0 0-5.95-3.3l-.65-.29-1.32-.67.07.15a26.24 26.24 0 0 0 1.55 3.15 22.62 22.62 0 0 0 2 2.7 15.4 15.4 0 0 1 3.16 5.64c.27.87 1.92 4.83 3.67 8.81a96.24 96.24 0 0 1 3.65 9.21 59.11 59.11 0 0 1 .87 5.91c.22 2.16.4 4.7.41 5.65a12.4 12.4 0 0 1-.54 3.38 15 15 0 0 1-1.69 3.24 9.49 9.49 0 0 0-1.41 3.29 9.26 9.26 0 0 0 .28 3.54 8.37 8.37 0 0 1 .23 3.45 7.91 7.91 0 0 1-1.55 3c-.67.77-1.69 2.06-2.26 2.87s-1.42 2.16-1.89 3a28.14 28.14 0 0 0-1.49 3.23 32 32 0 0 0-1 3.56 21.81 21.81 0 0 1-1.17 3.55 21.16 21.16 0 0 1-1.87 3.19 24.55 24.55 0 0 1-2.53 2.78 32.2 32.2 0 0 1-4.48 3.08 83 83 0 0 1-8.14 3.9 51.33 51.33 0 0 1-6.87 2.4 27.83 27.83 0 0 1-4 .35 37.45 37.45 0 0 0-4.11.29c-1.12.15-4.74 1.08-8 2.06s-6.81 1.68-7.79 1.56a8.47 8.47 0 0 1-3.26-1.27 16.47 16.47 0 0 0-3-1.63 25 25 0 0 0-6-.6 24 24 0 0 0-6 .55 16 16 0 0 0-3 1.66 11.55 11.55 0 0 1-3 1.51 14.8 14.8 0 0 1-4.48.06c-1.64-.2-3.66-.38-4.48-.39a24.69 24.69 0 0 1-3-.27 26.58 26.58 0 0 1-3-.72c-.24-.07-.53-.15-.84-.21v1.78a9.22 9.22 0 0 0 1.19 4.11 3.14 3.14 0 0 0 2.77.94 18.6 18.6 0 0 1 3.42-.25 14.76 14.76 0 0 1 3.13.54 26.58 26.58 0 0 0 3 .72 24.69 24.69 0 0 0 3 .27c.82 0 2.83.19 4.48.39a14.8 14.8 0 0 0 4.48-.06 11.55 11.55 0 0 0 3-1.51 16 16 0 0 1 3-1.66 24 24 0 0 1 6-.55 25 25 0 0 1 6 .6 16.47 16.47 0 0 1 3 1.63 8.47 8.47 0 0 0 3.26 1.27c1 .12 4.47-.58 7.79-1.56s6.93-1.9 8-2.06a37.45 37.45 0 0 1 4.11-.29 27.83 27.83 0 0 0 4-.35 51.33 51.33 0 0 0 6.87-2.4 83 83 0 0 0 8.14-3.9 32.2 32.2 0 0 0 4.48-3.08 24.55 24.55 0 0 0 2.44-2.75 21.16 21.16 0 0 0 1.89-3.16 21.81 21.81 0 0 0 1.17-3.55 32 32 0 0 1 1-3.56 28.14 28.14 0 0 1 1.49-3.23c.47-.84 1.32-2.19 1.89-3s1.59-2.1 2.26-2.87a7.91 7.91 0 0 0 1.55-3 8.37 8.37 0 0 0-.23-3.45 9.26 9.26 0 0 1-.28-3.54 9.49 9.49 0 0 1 1.41-3.29 15 15 0 0 0 1.69-3.24 12.4 12.4 0 0 0 .54-3.38c0-.95-.19-3.49-.41-5.65a59.11 59.11 0 0 0-.81-5.93z" fill="#231f20"/></svg>