<svg xmlns="http://www.w3.org/2000/svg" width="118.01" height="200" viewBox="0 0 118.01 200"><title>_</title><path d="M38.42 13.67A14.14 14.14 0 0 0 35 14.9a12.68 12.68 0 0 0-2.7 2.21c-.7.81-2.35 3-3.59 4.81a28.42 28.42 0 0 0-2.82 4.94 20 20 0 0 0-.78 3.72A11.58 11.58 0 0 0 25 31.8a3.77 3.77 0 0 1 1.08-.16 2.77 2.77 0 0 1 .87.13 5.37 5.37 0 0 1 2.33 2 4.32 4.32 0 0 0 .75.82 7 7 0 0 0 1.77-.7c.4-.22.86-.45 1.34-.68 1.09-.53 2.22-1 2.94-1.27a7.57 7.57 0 0 0 1.67-.82 1.49 1.49 0 0 0 .09-.49 3.16 3.16 0 0 1 .88-2.54 3.27 3.27 0 0 1 2.63-.51 16.26 16.26 0 0 0 2 .2c.72 0 2.08 0 3-.05a10.62 10.62 0 0 1 3.65.37 5.89 5.89 0 0 1 2.6 2 5.27 5.27 0 0 0 1.08 1.11 3.82 3.82 0 0 0 1.23.46 6 6 0 0 0 1.57-.06 8.69 8.69 0 0 0 1.76-.64 6.31 6.31 0 0 1 2.88-.66 5.5 5.5 0 0 1 2.7 1.09 3.23 3.23 0 0 0 1.43.43 11.29 11.29 0 0 0 2.9-.49A32.1 32.1 0 0 0 71.61 30a26 26 0 0 0 3-1.72 27.63 27.63 0 0 0 2.66-2.16 31.59 31.59 0 0 0 2.42-2.66 11 11 0 0 0 1.51-2.74 9.69 9.69 0 0 0 .35-2.36v-.56a12.64 12.64 0 0 0-.38-2.39v-.08h-.28a5.67 5.67 0 0 0-1 .37 3.35 3.35 0 0 1-2.82 0 6.62 6.62 0 0 1-2.09-2 3.75 3.75 0 0 0-.98-.91 1.6 1.6 0 0 0-.26.05 1.63 1.63 0 0 0-.44.44 2.39 2.39 0 0 0 0 .8 3.61 3.61 0 0 1-.42 2.75 3.66 3.66 0 0 1-2.49 1.24 2.87 2.87 0 0 0-1.06.4 4.42 4.42 0 0 0-.94 1.16 3 3 0 0 1-2.85 1.76c-1.34-.18-2.53-1.82-2.66-2a4.55 4.55 0 0 0-1.46-1.26 4.18 4.18 0 0 0-1.78-.13 9 9 0 0 1-3.36 0 7.21 7.21 0 0 1-2.83-1.55A4.14 4.14 0 0 0 52 15.6a4.55 4.55 0 0 0-1.71.05 8.21 8.21 0 0 1-3.26.08 9.52 9.52 0 0 1-3-1.38 6.28 6.28 0 0 0-2.24-.83 13.11 13.11 0 0 0-3.37.15zM2.25 86.5a31.43 31.43 0 0 1-1.31 3.68 15.77 15.77 0 0 0-.94 3.1 34.19 34.19 0 0 0 .5 6.46 78.72 78.72 0 0 0 1.78 8.46c.58 2 1.2 4.36 1.38 5.36a30.37 30.37 0 0 1 .4 3.68 23.62 23.62 0 0 1-.24 3.76 25.67 25.67 0 0 1-1 3.73 23.29 23.29 0 0 0-.82 3.2 57.82 57.82 0 0 0-.19 6.66c0 2.79.17 5.9.27 6.8s.33 2.41.51 3.33a15.69 15.69 0 0 1 .15 4.09 21.35 21.35 0 0 1-1.07 4.3 3.41 3.41 0 0 0-.16.59 7.41 7.41 0 0 0 1.5-.46 14 14 0 0 1 5.41-1 12 12 0 0 1 3.11.72 12 12 0 0 1 2.05.94 13.34 13.34 0 0 0 3.82 1.46 20.86 20.86 0 0 0 5.83-.65c2.4-.58 5.27-1.14 6.4-1.25a3.35 3.35 0 0 0 1.72-.69 3.6 3.6 0 0 0 .19-1.92c-.2-1.14-.42-3-.5-4.23s-.04-3.19-.04-4.43a24.05 24.05 0 0 1 .73-4.75 28.5 28.5 0 0 1 1.88-4.69 20 20 0 0 0 1.51-4 23.73 23.73 0 0 0 0-5.8c-.24-2.21-.88-6.1-1.43-8.67a66.18 66.18 0 0 1-1.13-6.52c-.05-.91 0-3.39.06-5.52.18-4.32.22-4.73 1.17-5.16l.61-.27.63.28a2.39 2.39 0 0 1 1.18 1.7 3 3 0 0 0 .71.85 12.59 12.59 0 0 0 2.28 1.26 14.23 14.23 0 0 1 3.26 2 10.89 10.89 0 0 1 2.22 2.82 12.3 12.3 0 0 1 .64 1.58 13.77 13.77 0 0 1 .48 1.78 19.52 19.52 0 0 1 .23 3.81 8.21 8.21 0 0 0 .36 2.68 19 19 0 0 0 3.81 3.76c1.92 1.53 4.24 3.68 4.8 4.81a10.67 10.67 0 0 1 .93 3.69 6.6 6.6 0 0 0 .64 2.37 5.93 5.93 0 0 0 1.66 1.65 23.82 23.82 0 0 1 2.77 2.01 83.1 83.1 0 0 1 5.81 7.37c2.17 3 4.74 6.64 5.23 7.51a28.75 28.75 0 0 1 1.32 2.77 3.08 3.08 0 0 0 1.12 1.21 7.44 7.44 0 0 0 2.65.49 12.64 12.64 0 0 0 1.59-.08h.41c1.31-.11 2.8-.26 4.09-.43a36.83 36.83 0 0 1 4.58-.3 14.19 14.19 0 0 1 2.23.14 18.91 18.91 0 0 1 4.69 1.66 14.67 14.67 0 0 0 3.81 1.29 13.16 13.16 0 0 0 3.83-.15 4.63 4.63 0 0 0 2.11-1 2.69 2.69 0 0 0 0-1.67 14.56 14.56 0 0 1-.63-4.12 13.89 13.89 0 0 1 .84-4 8.67 8.67 0 0 0 .5-2.84 9.25 9.25 0 0 0-.78-2.88 9 9 0 0 1-.8-4.28 10.3 10.3 0 0 1 1.68-4.17 7.88 7.88 0 0 0 1.18-2.78 6.13 6.13 0 0 0-.45-2.66 14.25 14.25 0 0 1-1.07-4 13.13 13.13 0 0 1 .39-4 11.15 11.15 0 0 0 .34-3 12 12 0 0 0-.69-3 12 12 0 0 1-.77-4 12.38 12.38 0 0 1 .92-4 26.38 26.38 0 0 0 1.13-3.24 22.83 22.83 0 0 0 .55-3.21c.07-.88.11-2.39.07-3.29s-.18-2.4-.32-3.29a35.61 35.61 0 0 1-.33-3.66 34.73 34.73 0 0 1 .13-3.65c.09-.89.15-2.4.13-3.28s-.14-2.39-.27-3.28-.43-2.41-.65-3.31-.69-2.41-1-3.32a9.9 9.9 0 0 1-.45-4.2 11.73 11.73 0 0 1 1.67-4.21 10.47 10.47 0 0 0 1.21-2.92 24.57 24.57 0 0 0-.77-6.09c-.16-.7-.35-1.44-.59-2.21a12.94 12.94 0 0 0-1.32-3.29 10.34 10.34 0 0 0-2.73-1.75 13.11 13.11 0 0 0-3.59-.83 13.16 13.16 0 0 0-3.77.53 24.62 24.62 0 0 1-4.69.91 23.3 23.3 0 0 1-4.71-.23 22.36 22.36 0 0 0-4-.26 21.34 21.34 0 0 0-3.8.59 7.48 7.48 0 0 0-2.68 1.47 7.84 7.84 0 0 0-1.53 2.72 26.94 26.94 0 0 0-.76 3.92 28.09 28.09 0 0 0 0 4.07 38 38 0 0 0 .62 4.21 41.15 41.15 0 0 0 1.22 4.22 18.91 18.91 0 0 1 1 4.87 18.42 18.42 0 0 1-.62 4.88 25.25 25.25 0 0 0-.77 3.82 14.05 14.05 0 0 0 .09 3.05c.17.92.36 2.4.43 3.3s.12 2.39.1 3.31-.2 3.12-.41 4.91a32.28 32.28 0 0 0-.22 4v.3c.17 1.58-.63 2.1-1.13 2.26a1.8 1.8 0 0 1-2.19-1.05A8.66 8.66 0 0 0 68.57 98c-.64-.52-2.39-1.79-3.83-2.77a26 26 0 0 1-4-3.25 35.27 35.27 0 0 1-3.18-5.6c-1.1-2.3-2.24-4.87-2.55-5.71a30.51 30.51 0 0 1-.92-3.22 5.5 5.5 0 0 0-1-2A7.37 7.37 0 0 0 50.88 74a15 15 0 0 1-3.36-1.89 11 11 0 0 1-2.35-2.74A13.56 13.56 0 0 1 43.93 66a18.13 18.13 0 0 1-.27-3.81 11.19 11.19 0 0 0-.29-2.89 7.64 7.64 0 0 0-1.11-2.16c-.49-.6-1.38-1.58-1.95-2.14-.29-.29-.69-.66-1.1-1s-.8-.7-1.12-1a26.47 26.47 0 0 1-2.4-2.23 21.58 21.58 0 0 1-1.92-2.45 2.8 2.8 0 0 0-1.28-.9 7.78 7.78 0 0 0-2.76.1 25.18 25.18 0 0 1-4.44.46 25.61 25.61 0 0 1-4.54-.55 26.42 26.42 0 0 0-4-.54 25.75 25.75 0 0 0-4 .21 22.68 22.68 0 0 1-4.75.16 29.06 29.06 0 0 1-5-1.08 5.14 5.14 0 0 0-2.39-.24 3.06 3.06 0 0 0-.29 1.33A30.18 30.18 0 0 0 .77 51a25.34 25.34 0 0 0 .95 3.39 19 19 0 0 1 .94 3.82 17.61 17.61 0 0 1-.06 3.85c-.13.91-.28 2.4-.33 3.33s.1 4.39.39 8.48c.24 3.42.42 7.71.29 8.92a27.9 27.9 0 0 1-.7 3.71z"/><path d="M74.87 40.23a12.87 12.87 0 0 0 3.39-.56A33.49 33.49 0 0 0 82 38.25a27.49 27.49 0 0 0 3.21-1.84A28.68 28.68 0 0 0 88 34.1a32.54 32.54 0 0 0 2.57-2.82 12.39 12.39 0 0 0 1.76-3.21 11 11 0 0 0 .41-3.49 13.92 13.92 0 0 0-.46-2.77 1.66 1.66 0 0 0-.87-1.06 3.59 3.59 0 0 0-1.17 0 7 7 0 0 0-1.37.5 1.88 1.88 0 0 1-1.49 0 5.31 5.31 0 0 1-1.52-1.49 4.67 4.67 0 0 0-1.56-1.44 1.26 1.26 0 0 0-.27-.08 2.21 2.21 0 0 0-1 .08 11 11 0 0 1-.42 2.78 12.39 12.39 0 0 1-1.76 3.21 32.54 32.54 0 0 1-2.57 2.82 28.68 28.68 0 0 1-2.84 2.31 27.49 27.49 0 0 1-3.21 1.84 33.49 33.49 0 0 1-3.7 1.42 12.87 12.87 0 0 1-3.39.56 4.6 4.6 0 0 1-2.31-.75 4 4 0 0 0-1.83-.75 4.78 4.78 0 0 0-2.09.5 10 10 0 0 1-2.15.78 7.41 7.41 0 0 1-2.07.07 5.34 5.34 0 0 1-1.85-.69 6.67 6.67 0 0 1-1.49-1.51 4.44 4.44 0 0 0-1.87-1.39 9.25 9.25 0 0 0-3-.33c-1 .05-2.37.08-3.11.06a17.29 17.29 0 0 1-2.28-.25 1.9 1.9 0 0 0-1.36.18 1.77 1.77 0 0 0-.36 1.29A2.64 2.64 0 0 1 39 32a6.63 6.63 0 0 1-2.35 1.29c-.71.25-1.79.72-2.79 1.21-.1.4-.19.83-.27 1.25-.11.58-.2 1.14-.24 1.6a8.6 8.6 0 0 0 .12 2.9.73.73 0 0 0 1.16.18 2.11 2.11 0 0 1 1.64-.32 4 4 0 0 1 1.56 1.39 4.73 4.73 0 0 0 1.46 1.5 5.19 5.19 0 0 0 3-.86 34.74 34.74 0 0 1 4.07-1.86A6.63 6.63 0 0 0 48.67 39a2.64 2.64 0 0 0 .41-1.55 1.77 1.77 0 0 1 .36-1.29A1.9 1.9 0 0 1 50.8 36a17.29 17.29 0 0 0 2.28.23c.74 0 2.14 0 3.11-.06a9.25 9.25 0 0 1 3 .33A4.44 4.44 0 0 1 61 37.85a6.67 6.67 0 0 0 1.49 1.51 5.34 5.34 0 0 0 1.85.69 7.41 7.41 0 0 0 2.11-.05 10 10 0 0 0 2.15-.78 4.78 4.78 0 0 1 2.09-.5 4 4 0 0 1 1.87.77 4.6 4.6 0 0 0 2.31.74zM29.81 155c-1.08.11-3.87.66-6.21 1.22a21.71 21.71 0 0 1-6.42.67 14.71 14.71 0 0 1-4.35-1.66 10.46 10.46 0 0 0-1.79-.82v1.21a20 20 0 0 1-1 3.95c-.42 1.13-.39 2.28.06 2.56s1.93 0 3.26-.52a12.59 12.59 0 0 1 4.74-.89 11.75 11.75 0 0 1 4.48 1.45 14.71 14.71 0 0 0 4.35 1.66 21.71 21.71 0 0 0 6.42-.67c2.33-.56 5.13-1.11 6.21-1.22a4.48 4.48 0 0 0 2.77-1.29 4.7 4.7 0 0 0 .47-3.07c-.19-1.09-.4-2.92-.48-4.07s-.11-3.08-.07-4.28a22.26 22.26 0 0 1 .68-4.39 26.85 26.85 0 0 1 1.77-4.39 21.53 21.53 0 0 0 1.6-4.45 24.88 24.88 0 0 0 0-6.3c-.25-2.25-.9-6.22-1.46-8.82-.36-1.69-.69-3.46-.9-4.75-.11-.69-.18-1.25-.2-1.55-.05-.87 0-3.28.06-5.37 0-.53 0-1 .07-1.5a10.85 10.85 0 0 0-.55-1.37A9.48 9.48 0 0 0 41.5 104a12.74 12.74 0 0 0-2.85-1.73 13.79 13.79 0 0 1-2.65-1.48 4 4 0 0 1-1.21-1.59 1.36 1.36 0 0 0-.38-.77 30.55 30.55 0 0 0-.28 3.85c-.08 2.08-.11 4.5-.06 5.37s.55 3.7 1.1 6.3 1.21 6.56 1.46 8.82a24.88 24.88 0 0 1 0 6.3 21.53 21.53 0 0 1-1.65 4.4 26.85 26.85 0 0 0-1.77 4.39 22.26 22.26 0 0 0-.68 4.39c0 1.21 0 3.13.07 4.28s.29 3 .48 4.07a4.7 4.7 0 0 1-.47 3.07 4.48 4.48 0 0 1-2.8 1.33zM45.4 65.74a12 12 0 0 0 1.07 2.9 9.66 9.66 0 0 0 2 2.3 13.45 13.45 0 0 0 3 1.66 8.75 8.75 0 0 1 2.77 1.79 6.83 6.83 0 0 1 1.38 2.7 28.7 28.7 0 0 0 .87 3c.29.8 1.41 3.31 2.49 5.57a34.77 34.77 0 0 0 3 5.27 24.88 24.88 0 0 0 3.7 3c1.49 1 3.26 2.29 3.94 2.85A10.07 10.07 0 0 1 71.44 99c.38.63.62.5.53-.3v-.4c0-.16-.26-.25-.35-.35a11.37 11.37 0 0 1-.94-1.43c-.61-1-1.36-2.46-2-3.84-1.08-2.27-2.2-4.77-2.49-5.57a28.7 28.7 0 0 1-.87-3 6.83 6.83 0 0 0-1.38-2.7 8.75 8.75 0 0 0-2.77-1.79 13.45 13.45 0 0 1-3-1.66 9.66 9.66 0 0 1-2-2.3 12 12 0 0 1-1.07-2.9 16.68 16.68 0 0 1-.24-3.44 12.61 12.61 0 0 0-.35-3.37 9 9 0 0 0-1.39-2.69c-.53-.65-1.45-1.66-2.05-2.26s-1.65-1.53-2.34-2.07a24.59 24.59 0 0 1-2.24-2.07 20.29 20.29 0 0 1-1.76-2.25A4.24 4.24 0 0 0 42.58 53a4.78 4.78 0 0 0-.93-.11 10.58 10.58 0 0 0-1.44 0c.43.38.85.77 1.16 1.07.6.6 1.53 1.61 2.05 2.26a9 9 0 0 1 1.39 2.69 12.61 12.61 0 0 1 .35 3.37 16.68 16.68 0 0 0 .24 3.46zM116.76 68.78a11.77 11.77 0 0 0 1.48-3.47 24.75 24.75 0 0 0-.78-6.71c-.61-2.73-1.64-5.52-2.29-6.2a11.55 11.55 0 0 0-3.23-2.1 14.87 14.87 0 0 0-3.76-.93h-1.05c.23.74.44 1.53.61 2.31a24.75 24.75 0 0 1 .78 6.71 11.77 11.77 0 0 1-1.52 3.45 10.38 10.38 0 0 0-1.39 3.47 8.47 8.47 0 0 0 .38 3.47c.35 1 .83 2.51 1.07 3.47s.55 2.51.68 3.46.26 2.51.28 3.46 0 2.51-.14 3.46a33 33 0 0 0-.13 3.47 33.46 33.46 0 0 0 .32 3.47c.15 1 .3 2.51.33 3.47s0 2.51-.08 3.47a24.53 24.53 0 0 1-.59 3.47 27.92 27.92 0 0 1-1.21 3.46 10.86 10.86 0 0 0-.79 3.46 10.64 10.64 0 0 0 .66 3.46 13.31 13.31 0 0 1 .79 3.47 12.6 12.6 0 0 1-.39 3.47 11.6 11.6 0 0 0-.34 3.47 12.7 12.7 0 0 0 .94 3.47 7.62 7.62 0 0 1 .57 3.47 9.24 9.24 0 0 1-1.44 3.46 8.91 8.91 0 0 0-1.42 3.46 7.5 7.5 0 0 0 .66 3.46 10.59 10.59 0 0 1 .93 3.47 10 10 0 0 1-.61 3.47 12.32 12.32 0 0 0-.73 3.52 13 13 0 0 0 .55 3.62 3.91 3.91 0 0 1-.21 3 5.73 5.73 0 0 1-3 1.65 14.48 14.48 0 0 1-4.38.17 16 16 0 0 1-4.3-1.45A17.56 17.56 0 0 0 89.8 154a27.35 27.35 0 0 0-6.35.17c-1.37.18-2.9.34-4.17.44l.64.95c.27.4.46.71.55.86a26.94 26.94 0 0 1 1.24 2.6 4.47 4.47 0 0 0 1.82 2 8.85 8.85 0 0 0 3.35.66c1.13 0 4-.25 6.27-.56a27.35 27.35 0 0 1 6.35-.17 17.56 17.56 0 0 1 4.25 1.51 16 16 0 0 0 4.3 1.45 14.48 14.48 0 0 0 4.38-.17 5.73 5.73 0 0 0 3-1.65 3.91 3.91 0 0 0 .21-3 13 13 0 0 1-.55-3.62 12.32 12.32 0 0 1 .73-3.52 10 10 0 0 0 .61-3.47 10.59 10.59 0 0 0-.93-3.47 7.5 7.5 0 0 1-.66-3.46 8.91 8.91 0 0 1 1.42-3.46 9.24 9.24 0 0 0 1.44-3.46 7.62 7.62 0 0 0-.57-3.47 12.7 12.7 0 0 1-.94-3.47 11.6 11.6 0 0 1 .34-3.47 12.6 12.6 0 0 0 .39-3.47 13.31 13.31 0 0 0-.79-3.47 10.64 10.64 0 0 1-.66-3.46 10.86 10.86 0 0 1 .79-3.46 27.92 27.92 0 0 0 1.21-3.46 24.53 24.53 0 0 0 .59-3.47c.08-1 .11-2.51.08-3.47s-.19-2.51-.33-3.47a33.46 33.46 0 0 1-.32-3.47 33 33 0 0 1 .13-3.47c.09-1 .16-2.51.14-3.46s-.15-2.51-.28-3.46-.44-2.51-.68-3.46-.72-2.51-1.07-3.47a8.47 8.47 0 0 1-.38-3.47 10.38 10.38 0 0 1 1.41-3.45z"/></svg>