<svg xmlns="http://www.w3.org/2000/svg" width="122.19" height="200" viewBox="0 0 122.19 200"><title>_</title><path d="M0 98.4a22.9 22.9 0 0 1 .63 3.67 31.9 31.9 0 0 1 0 3.35c-.06.93-.25 2.46-.43 3.41s-.36 2.29-.44 3.14-.16 2.28-.16 3.17.05 2.3.13 3.15.28 2.28.44 3.12a27 27 0 0 0 .83 3.1 33.93 33.93 0 0 0 1.37 3.21 21.12 21.12 0 0 0 1.87 3 21.81 21.81 0 0 0 2.46 2.55c.86.73 2.73 2.53 4.19 4s3.2 3.42 3.85 4.28 1.64 2.28 2.23 3.21a17.92 17.92 0 0 0 2.12 2.64 17.18 17.18 0 0 0 2.64 2c.86.51 2.28 1.27 3.16 1.69.43.21 1 .46 1.59.71s1.22.51 1.69.68a17.06 17.06 0 0 0 3.33.78 22 22 0 0 0 3.76 0c.43 0 1-.07 1.51-.07a18.56 18.56 0 0 1 3 .23 56.73 56.73 0 0 1 8.15 3 30.74 30.74 0 0 0 7.14 2.36 32.27 32.27 0 0 0 7-2.42c3.13-1.39 6.52-2.8 7.56-3.15s2.75-.84 3.79-1.08a27.38 27.38 0 0 0 3.28-1 24.45 24.45 0 0 0 3-1.49 24.4 24.4 0 0 1 3.44-1.69 27.18 27.18 0 0 1 3.8-1.07 9.47 9.47 0 0 0 2.76-1.09 9.1 9.1 0 0 0 2-2.09c.6-.91 3.09-4.1 5.68-7.25a97.14 97.14 0 0 0 8.46-12.83 83 83 0 0 0 5.34-11.91 27.32 27.32 0 0 0 1.23-5.74 12 12 0 0 0-.66-2.8 26.27 26.27 0 0 1-1.06-3.58 26.78 26.78 0 0 1-.43-3.73 33.5 33.5 0 0 1 .16-3.83 38.79 38.79 0 0 1 .69-4 6.09 6.09 0 0 0-.08-2.74 7.39 7.39 0 0 0-1.76-2.44 10.15 10.15 0 0 1-2.63-3.82 10.27 10.27 0 0 1-.2-4.64 8.23 8.23 0 0 0 0-3.09 21.68 21.68 0 0 0-4.09-4.8 38.11 38.11 0 0 1-5.25-5.81 22.64 22.64 0 0 1-1.7-4.09 12.69 12.69 0 0 0-.86-2.06 9 9 0 0 0-.68-1.14 10.5 10.5 0 0 0-2.41-2.22c-.88-.54-2.4-1.37-3.31-1.8S85.7 48.31 84.72 48s-4.78-1.22-8.37-2a58.51 58.51 0 0 0-8-1.23 18 18 0 0 0-3 .53 9.19 9.19 0 0 1-4.1.08 11.47 11.47 0 0 1-3.81-2 5.76 5.76 0 0 0-2.53-1.09A7 7 0 0 0 52 43a18.55 18.55 0 0 1-4.39 1.54 17.18 17.18 0 0 1-4.55.11 15.53 15.53 0 0 0-3.59 0 41.12 41.12 0 0 0-6.74 2.64c-2.79 1.32-5.82 2.83-6.63 3.3S24 52 23.2 52.53s-2.56 2.09-3.95 3.35a52.74 52.74 0 0 1-4.32 3.57 31 31 0 0 1-3.52 2 14.91 14.91 0 0 0-2.8 1.85 13.52 13.52 0 0 0-2.07 2.47 19.45 19.45 0 0 0-1.45 3 20.22 20.22 0 0 0-.78 3.34c-.13 1.14-.64 3.77-1.12 5.89a38.64 38.64 0 0 1-1.82 6 34.75 34.75 0 0 1-2.2 3.92A8.48 8.48 0 0 0-2 91a8.76 8.76 0 0 0 .57 3.31A38.74 38.74 0 0 1 0 98.4zM61 30.9c2 .1 4.48.28 5.27.43l.54.11C66.18 30 65.24 28 64.22 26a144.7 144.7 0 0 0-2.7-5.08 29.14 29.14 0 0 0-1.89-3.12 13.89 13.89 0 0 0-2.19-1.89 8.91 8.91 0 0 0-2.51-1 11.44 11.44 0 0 0-3-.06 21.81 21.81 0 0 1-4.16.08 61.13 61.13 0 0 1-8.17-2.14A39.82 39.82 0 0 0 32.15 11a13.05 13.05 0 0 0-3.43.64 3.86 3.86 0 0 0-.5.22 4.86 4.86 0 0 0 .68.42 38.24 38.24 0 0 1 3.88 2.36 38 38 0 0 1 3.5 2.89c.82.78 3.07 2.62 4.93 4a53.85 53.85 0 0 1 5.17 4.38 29 29 0 0 1 2.89 3.75 7.82 7.82 0 0 0 1.92 2.1 2 2 0 0 0 1.29.08c.29-.12.65-.24 1-.37A17.35 17.35 0 0 1 55.4 31a32.81 32.81 0 0 1 5.6-.1z"/><path d="M113.13 72.37a37.46 37.46 0 0 1-5-5.46 21.31 21.31 0 0 1-1.56-3.77 14.18 14.18 0 0 0-1.76-3.67 12 12 0 0 0-2.81-2.61c-.93-.57-2.48-1.42-3.45-1.88-.35-.17-.79-.36-1.26-.56l-1.36-.55a14.26 14.26 0 0 1 1 2.33 21.31 21.31 0 0 0 1.52 3.8 37.46 37.46 0 0 0 5 5.46c2.21 2.08 4.24 4.55 4.51 5.49a9.6 9.6 0 0 1 .05 3.81 8.86 8.86 0 0 0 .16 3.87 8.77 8.77 0 0 0 2.2 3.17 8.79 8.79 0 0 1 2.19 3.07 7.57 7.57 0 0 1 .12 3.58 37 37 0 0 0-.66 3.76 31.58 31.58 0 0 0-.15 3.62 24.87 24.87 0 0 0 .4 3.48 24.34 24.34 0 0 0 1 3.33 13.44 13.44 0 0 1 .76 3.24 27.23 27.23 0 0 1-1.29 6.28 84.89 84.89 0 0 1-5.46 12.19 99.21 99.21 0 0 1-8.62 13.07c-2.51 3.06-5 6.26-5.58 7.12a10.46 10.46 0 0 1-2.53 2.46 10.78 10.78 0 0 1-3.31 1.31 25.51 25.51 0 0 0-3.55 1 22.78 22.78 0 0 0-3.19 1.56 26.08 26.08 0 0 1-3.17 1.6 28.81 28.81 0 0 1-3.51 1.11c-1 .24-2.66.71-3.66 1s-4.35 1.73-7.43 3.1-6.5 2.52-7.59 2.55-4.59-1.09-7.79-2.48a56.46 56.46 0 0 0-7.81-2.9 17.9 17.9 0 0 0-4.14-.15 23.44 23.44 0 0 1-4.08 0 18.67 18.67 0 0 1-3.68-.87c-.49-.18-1.13-.44-1.76-.71.39.54.86 1.11 1.29 1.6.2.22.39.43.56.6a18.7 18.7 0 0 0 2.92 2.24c.88.53 2.36 1.32 3.28 1.76s2.46 1.09 3.42 1.45a18.67 18.67 0 0 0 3.68.87 23.44 23.44 0 0 0 4.08 0 17.9 17.9 0 0 1 4.14.15 56.46 56.46 0 0 1 7.81 2.9c3.2 1.4 6.7 2.51 7.79 2.48s4.5-1.18 7.59-2.55 6.43-2.77 7.43-3.1 2.65-.81 3.66-1a28.81 28.81 0 0 0 3.47-1.08 26.08 26.08 0 0 0 3.17-1.6 22.78 22.78 0 0 1 3.19-1.56 25.51 25.51 0 0 1 3.55-1 10.78 10.78 0 0 0 3.31-1.31 10.46 10.46 0 0 0 2.46-2.52c.56-.86 3.07-4.06 5.58-7.12a99.21 99.21 0 0 0 8.62-13.07 84.89 84.89 0 0 0 5.46-12.19 27.23 27.23 0 0 0 1.29-6.28 13.44 13.44 0 0 0-.76-3.24 24.34 24.34 0 0 1-1-3.33 24.87 24.87 0 0 1-.4-3.48 31.58 31.58 0 0 1 .15-3.62 37 37 0 0 1 .66-3.76 7.57 7.57 0 0 0-.12-3.58A8.79 8.79 0 0 0 120 88.7a8.77 8.77 0 0 1-2.2-3.17 8.86 8.86 0 0 1-.16-3.87 9.6 9.6 0 0 0-.05-3.81c-.22-.93-2.25-3.4-4.46-5.48zM55 33.91a27.25 27.25 0 0 1 2.71 3.52A8.89 8.89 0 0 0 60.18 40a3.4 3.4 0 0 0 2.58.15 17 17 0 0 1 2.63-.8 33.18 33.18 0 0 1 5.27-.06c2.18.11 4.46.29 5.07.41a17.62 17.62 0 0 1 2 .52.83.83 0 0 0 1.06-.18c.09-.27-1.51-3.77-3.55-7.79a75.88 75.88 0 0 0-4.8-8.52 15.29 15.29 0 0 0-2.44-2.1 10.32 10.32 0 0 0-3-1.25 8.12 8.12 0 0 0-1-.11h-1.16c.83 1.48 1.79 3.28 2.72 5.13 2 4 3.64 7.52 3.55 7.79a.83.83 0 0 1-1.06.18 17.62 17.62 0 0 0-2-.52c-.61-.11-2.89-.3-5.07-.41a33.18 33.18 0 0 0-5.27.06 15.88 15.88 0 0 0-1.72.47c.34.3.61.56.84.79z"/></svg>