<svg xmlns="http://www.w3.org/2000/svg" width="200" height="200" viewBox="0 0 200 200"><title>_</title><path d="M133.53,51.24A10.93,10.93,0,0,0,131,48.89c-0.89-.55-2.43-1.39-3.36-1.83s-2.52-1.09-3.52-1.44-4.83-1.24-8.43-2a59.41,59.41,0,0,0-8.11-1.24,18.59,18.59,0,0,0-3.15.54,8.77,8.77,0,0,1-3.84.08,11.07,11.07,0,0,1-3.62-1.89,6.26,6.26,0,0,0-2.81-1.2,7.63,7.63,0,0,0-3.2.77,18,18,0,0,1-4.25,1.49,16.57,16.57,0,0,1-4.39.11,15.9,15.9,0,0,0-3.73,0A41,41,0,0,0,71.69,45c-2.8,1.32-5.85,2.84-6.67,3.32s-2.14,1.35-2.9,1.91-2.59,2.11-4,3.39a52,52,0,0,1-4.26,3.53,30.41,30.41,0,0,1-3.45,2A15.26,15.26,0,0,0,47.49,61a13.89,13.89,0,0,0-2.16,2.59,20,20,0,0,0-1.49,3.15,20.85,20.85,0,0,0-.8,3.44C42.9,71.3,42.39,73.9,41.91,76a38,38,0,0,1-1.79,5.88A34.08,34.08,0,0,1,38,85.76a9,9,0,0,0-1.24,3.33,9.22,9.22,0,0,0,.61,3.55,38.07,38.07,0,0,1,1.38,4,22.31,22.31,0,0,1,.61,3.58,31.22,31.22,0,0,1,0,3.29c-0.06.92-.25,2.42-0.42,3.35s-0.37,2.32-.45,3.18-0.16,2.32-.17,3.21,0.05,2.34.13,3.2,0.29,2.32.45,3.17a27.47,27.47,0,0,0,.86,3.16,34.42,34.42,0,0,0,1.39,3.27,21.81,21.81,0,0,0,1.92,3,22.51,22.51,0,0,0,2.53,2.63c0.84,0.72,2.71,2.51,4.15,4s3.17,3.39,3.81,4.23,1.62,2.26,2.2,3.17a18.57,18.57,0,0,0,2.19,2.73,17.8,17.8,0,0,0,2.73,2.1c0.86,0.51,2.3,1.28,3.2,1.72,0.44,0.21,1,.47,1.61.72s1.24,0.52,1.72.69a17.69,17.69,0,0,0,3.44.81,22.42,22.42,0,0,0,3.87,0c0.43,0,.93-0.06,1.46-0.06a18.1,18.1,0,0,1,3,.22,57.21,57.21,0,0,1,8,3,30.39,30.39,0,0,0,7.34,2.4h0a32.34,32.34,0,0,0,7.22-2.46c3.11-1.38,6.48-2.79,7.52-3.14s2.71-.83,3.75-1.07a27.85,27.85,0,0,0,3.36-1.06,24.91,24.91,0,0,0,3-1.53,23.89,23.89,0,0,1,3.36-1.65,26.59,26.59,0,0,1,3.72-1,9.92,9.92,0,0,0,2.94-1.16,9.57,9.57,0,0,0,2.18-2.23c0.59-.9,3.07-4.06,5.65-7.21A97.76,97.76,0,0,0,145.55,122a83.59,83.59,0,0,0,5.38-12,27.3,27.3,0,0,0,1.25-5.92,12.39,12.39,0,0,0-.69-2.95,25.57,25.57,0,0,1-1-3.5,26.13,26.13,0,0,1-.42-3.65,32.78,32.78,0,0,1,.16-3.76,38.26,38.26,0,0,1,.68-3.89,6.59,6.59,0,0,0-.09-3,7.87,7.87,0,0,0-1.9-2.65A9.75,9.75,0,0,1,146.4,77a9.85,9.85,0,0,1-.19-4.38,8.69,8.69,0,0,0,0-3.33,21.25,21.25,0,0,0-4.23-5,38.21,38.21,0,0,1-5.16-5.69,22,22,0,0,1-1.65-4,13.25,13.25,0,0,0-.89-2.15A9.51,9.51,0,0,0,133.53,51.24Z" fill="#231f20"/><path d="M99.22,15.62h0a14.24,14.24,0,0,0-2.29-2,9.36,9.36,0,0,0-2.68-1.1A11.92,11.92,0,0,0,91,12.48a21,21,0,0,1-4,.07,61.4,61.4,0,0,1-8.07-2.12,38.7,38.7,0,0,0-7.58-1.81,13.38,13.38,0,0,0-3.58.67,3.82,3.82,0,0,0-1.15.64,4.74,4.74,0,0,0,1.27.92,37.44,37.44,0,0,1,3.81,2.32A37.24,37.24,0,0,1,75.15,16c0.83,0.79,3.11,2.65,5,4.06a53.28,53.28,0,0,1,5.11,4.33,28.37,28.37,0,0,1,2.83,3.67,8.13,8.13,0,0,0,2.11,2.28,2.47,2.47,0,0,0,1.72.1c0.28-.11.62-0.24,1-0.35a16.55,16.55,0,0,1,1.84-.5,33.24,33.24,0,0,1,5.52-.08c2,0.1,4.46.29,5.2,0.42,0.44,0.08,1,.22,1.5.35-0.54-1.26-1.59-3.51-3-6.37-0.89-1.75-1.85-3.56-2.71-5.09A28.54,28.54,0,0,0,99.22,15.62Z" fill="#231f20"/><path d="M136.1,54.32a21.31,21.31,0,0,0,1.56,3.77,37.45,37.45,0,0,0,5,5.46c2.21,2.08,4.24,4.55,4.51,5.49a9.6,9.6,0,0,1,.05,3.81,8.86,8.86,0,0,0,.16,3.87,8.77,8.77,0,0,0,2.2,3.17,8.79,8.79,0,0,1,2.19,3.07,7.57,7.57,0,0,1,.12,3.58,37,37,0,0,0-.66,3.76,31.58,31.58,0,0,0-.15,3.62,24.87,24.87,0,0,0,.4,3.48,24.35,24.35,0,0,0,1,3.33,13.44,13.44,0,0,1,.76,3.24,27.23,27.23,0,0,1-1.29,6.28,84.9,84.9,0,0,1-5.46,12.19,99.23,99.23,0,0,1-8.62,13.07c-2.51,3.06-5,6.26-5.58,7.12a10.46,10.46,0,0,1-2.46,2.52,10.79,10.79,0,0,1-3.31,1.31,25.51,25.51,0,0,0-3.55,1,22.8,22.8,0,0,0-3.19,1.56,26,26,0,0,1-3.17,1.6,28.72,28.72,0,0,1-3.51,1.11c-1,.24-2.66.71-3.66,1s-4.35,1.73-7.43,3.1-6.5,2.52-7.59,2.55-4.59-1.09-7.79-2.48a56.49,56.49,0,0,0-7.81-2.9,17.92,17.92,0,0,0-4.14-.15,23.41,23.41,0,0,1-4.08,0,18.67,18.67,0,0,1-3.68-.87c-0.49-.18-1.13-0.44-1.76-0.71,0.39,0.54.86,1.11,1.29,1.6,0.2,0.22.39,0.43,0.56,0.6a18.7,18.7,0,0,0,2.92,2.24c0.88,0.53,2.36,1.32,3.28,1.76s2.46,1.09,3.42,1.45a18.67,18.67,0,0,0,3.68.87,23.41,23.41,0,0,0,4.08,0,17.92,17.92,0,0,1,4.14.15,56.49,56.49,0,0,1,7.81,2.9c3.2,1.4,6.7,2.51,7.79,2.48s4.5-1.18,7.59-2.55,6.43-2.77,7.43-3.1,2.65-.81,3.66-1a28.72,28.72,0,0,0,3.51-1.11,26,26,0,0,0,3.17-1.6,22.8,22.8,0,0,1,3.19-1.56,25.51,25.51,0,0,1,3.55-1,10.79,10.79,0,0,0,3.31-1.31,10.46,10.46,0,0,0,2.46-2.52c0.56-.86,3.07-4.06,5.58-7.12a99.23,99.23,0,0,0,8.62-13.07,84.9,84.9,0,0,0,5.46-12.19,27.23,27.23,0,0,0,1.29-6.28,13.44,13.44,0,0,0-.76-3.24,24.35,24.35,0,0,1-1-3.33,24.87,24.87,0,0,1-.4-3.48,31.58,31.58,0,0,1,.15-3.62,37,37,0,0,1,.66-3.76,7.57,7.57,0,0,0-.12-3.58,8.79,8.79,0,0,0-2.19-3.07,8.77,8.77,0,0,1-2.2-3.17,8.86,8.86,0,0,1-.16-3.87,9.6,9.6,0,0,0-.05-3.81c-0.27-.93-2.3-3.4-4.51-5.49a37.45,37.45,0,0,1-5-5.46,21.31,21.31,0,0,1-1.56-3.77A14.18,14.18,0,0,0,144,57.59,12,12,0,0,0,141.21,55c-0.93-.57-2.48-1.42-3.45-1.88-0.35-.17-0.79-0.36-1.26-0.56L135.13,52A14.26,14.26,0,0,1,136.1,54.32Z" fill="#231f20"/><path d="M107.19,19.76a10.32,10.32,0,0,0-3-1.25,8.08,8.08,0,0,0-.95-0.12c-0.37,0-.77,0-1.16,0,0.83,1.48,1.79,3.28,2.72,5.13,2,4,3.64,7.52,3.55,7.79a0.83,0.83,0,0,1-1.06.18,17.61,17.61,0,0,0-2-.52c-0.61-.11-2.89-0.3-5.07-0.41a33.24,33.24,0,0,0-5.27.06,15.93,15.93,0,0,0-1.72.47c0.34,0.3.61,0.56,0.84,0.79L94.21,32a27.25,27.25,0,0,1,2.71,3.52,8.89,8.89,0,0,0,2.47,2.62,3.4,3.4,0,0,0,2.58.15,16.93,16.93,0,0,1,2.63-.8,33.24,33.24,0,0,1,5.27-.06c2.18,0.11,4.46.29,5.07,0.41a17.61,17.61,0,0,1,2,.52,0.83,0.83,0,0,0,1.06-.18c0.09-.27-1.51-3.77-3.55-7.79a75.91,75.91,0,0,0-4.8-8.52A15.29,15.29,0,0,0,107.19,19.76Z" fill="#231f20"/></svg>