<svg xmlns="http://www.w3.org/2000/svg" width="123.6" height="200" viewBox="0 0 123.6 200"><title>_</title><path d="M21.52 151.66c1 .46 3.85 2.15 6.4 3.75a57 57 0 0 0 6.08 3.41 28.12 28.12 0 0 0 3.49 1c1.12.24 3.81 1 6 1.73a41.46 41.46 0 0 0 5.57 1.45 19.61 19.61 0 0 0 3.68 0c.37 0 1-.06 1.88-.06 2 0 5.35.1 8.41.27a44.76 44.76 0 0 0 9.21-.18 10.22 10.22 0 0 0 2.84-2 17.57 17.57 0 0 1 3.65-2.82 13.64 13.64 0 0 1 4.11-1.21 8.17 8.17 0 0 0 2.72-.94 8.94 8.94 0 0 0 2.09-2.14 34.34 34.34 0 0 1 2.4-3.18 28.21 28.21 0 0 1 2.7-2.63c.75-.62 3.45-2.56 6-4.32s5.14-3.66 5.88-4.32 2-1.85 2.68-2.62 1.8-2.05 2.45-2.89a8.65 8.65 0 0 0 1.32-2.69 8.09 8.09 0 0 0-.06-2.91 12.32 12.32 0 0 1-.21-4.09 10.54 10.54 0 0 1 1.45-3.69 10 10 0 0 0 1.12-2.49 9.28 9.28 0 0 0 .13-2.66 16.15 16.15 0 0 1 .7-7.16 8.86 8.86 0 0 0 .33-2.71 11.51 11.51 0 0 0-.77-3 29.53 29.53 0 0 1-1.29-3.8 26.67 26.67 0 0 1-.6-3.84 16.32 16.32 0 0 0-.59-3.12 17 17 0 0 0-1.29-2.91 15.76 15.76 0 0 1-1.55-3.75A17.32 17.32 0 0 1 108 81a17.4 17.4 0 0 0-.24-3.4 15.74 15.74 0 0 0-1-3.1A11 11 0 0 0 105 72a12.74 12.74 0 0 0-2.68-1.86 12.29 12.29 0 0 1-3.49-2.72 13.85 13.85 0 0 1-2.12-4A6.32 6.32 0 0 0 95.15 61a6.39 6.39 0 0 0-2.73-1 14.67 14.67 0 0 1-2-.37 11.64 11.64 0 0 1-5.89-3.31c-.75-.77-1.94-1.91-2.67-2.53s-2-1.59-2.71-2.11a19.56 19.56 0 0 0-2.7-1.68 18.73 18.73 0 0 0-2.94-1 9.17 9.17 0 0 0-2.83 0 12.65 12.65 0 0 0-3.06 1.09 9 9 0 0 1-4.3 1 8.88 8.88 0 0 1-4.08-1.62 7.43 7.43 0 0 0-.65-.43 11 11 0 0 0-2.27-1 11.69 11.69 0 0 0-3.32-.28l-.5.06a16.57 16.57 0 0 0-3.06.77A18.32 18.32 0 0 0 46 50.45a26.67 26.67 0 0 1-3.93 2.3 21.59 21.59 0 0 1-4.07 1.3 31 31 0 0 0-3.46.9 26.32 26.32 0 0 0-3.08 1.33c-.9.48-2.43 1.17-3.4 1.55s-2.61.92-3.64 1.2a16.19 16.19 0 0 0-3 1.23 15.51 15.51 0 0 0-2.58 1.91 19.35 19.35 0 0 0-2.13 2.51 20.18 20.18 0 0 0-1.58 2.95 11.86 11.86 0 0 1-2.43 3.53 15 15 0 0 1-3.82 2.43 8 8 0 0 0-2.54 1.8A6.21 6.21 0 0 0 5.3 78a18.3 18.3 0 0 1-1.1 4.15 21.42 21.42 0 0 1-2.27 3.91 12.2 12.2 0 0 0-1.62 3.19 11.72 11.72 0 0 0-.31 3.5 31.75 31.75 0 0 1 0 4.46 30.75 30.75 0 0 1-.72 4.35 11.21 11.21 0 0 0-.28 3.28 8.85 8.85 0 0 0 1 2.78 16 16 0 0 1 1.51 3.57 13.39 13.39 0 0 1 .32 3.7 27.48 27.48 0 0 0 0 3 26.79 26.79 0 0 0 .37 3 17.42 17.42 0 0 0 .8 2.7 18.05 18.05 0 0 0 1.39 2.57A14.43 14.43 0 0 1 6 129.63a18.92 18.92 0 0 1 .57 4.06 20.52 20.52 0 0 0 .43 3.54 19.15 19.15 0 0 0 1.17 3.27 25.89 25.89 0 0 0 4 6 16 16 0 0 0 2.56 2.21 16.41 16.41 0 0 0 3.11 1.48 38.38 38.38 0 0 1 3.68 1.47zM56.38 38.77a3.59 3.59 0 0 0 .73.06 25.85 25.85 0 0 0 4.08-2.88c2.1-1.75 4.63-3.71 5.63-4.38s4.53-2.63 7.86-4.36 6.79-3.7 7.87-4.45 3-2.2 4.11-3.18l.11-.09a32.23 32.23 0 0 1-5.35.41 21.5 21.5 0 0 1-4.76-.76 18.47 18.47 0 0 0-3.66-.67 18.26 18.26 0 0 0-3.65.28 26.36 26.36 0 0 1-4.4.44 29.31 29.31 0 0 1-4.55-.45 5.4 5.4 0 0 0-1-.09 4.35 4.35 0 0 0-1.61.25 3.7 3.7 0 0 0-1.32 1.72 21.22 21.22 0 0 1-1.77 3.69 18.56 18.56 0 0 1-2.5 3 19.86 19.86 0 0 0-2.1 2.4 19.13 19.13 0 0 0-1.56 2.74 32.89 32.89 0 0 1-1.74 3.28 34.8 34.8 0 0 1-2.2 3.06 3.63 3.63 0 0 0-.66 1.24 2.18 2.18 0 0 0 .67.49 4.4 4.4 0 0 0 2 .29 5.6 5.6 0 0 0 2-1 8.68 8.68 0 0 1 3.29-1.7 6.67 6.67 0 0 1 3.52.36 5.09 5.09 0 0 0 .96.3z"/><path d="M124.87 108.93a27.83 27.83 0 0 1-1.21-3.56 24.83 24.83 0 0 1-.56-3.58 17.68 17.68 0 0 0-.65-3.48 18.26 18.26 0 0 0-1.45-3.25 14.27 14.27 0 0 1-1.38-3.33 15.81 15.81 0 0 1-.34-3.72 19 19 0 0 0-.26-3.76 17.22 17.22 0 0 0-1.15-3.46 12.44 12.44 0 0 0-2.09-2.92 14.11 14.11 0 0 0-3.08-2.13 10.75 10.75 0 0 1-3-2.33 12.17 12.17 0 0 1-1.84-3.5 7.77 7.77 0 0 0-2-3.18 7.85 7.85 0 0 0-3.52-1.37 14.26 14.26 0 0 1-2.18-.46 13.42 13.42 0 0 1-1.38-.46A8.59 8.59 0 0 0 103 68.8a14.11 14.11 0 0 1 3 2.13 12.44 12.44 0 0 1 2.09 2.92 17.22 17.22 0 0 1 1.15 3.46 19 19 0 0 1 .26 3.76 15.81 15.81 0 0 0 .34 3.72 14.27 14.27 0 0 0 1.38 3.33 18.26 18.26 0 0 1 1.49 3.25 17.68 17.68 0 0 1 .65 3.48 24.83 24.83 0 0 0 .56 3.58 27.83 27.83 0 0 0 1.21 3.56 12.92 12.92 0 0 1 .89 3.47 10.24 10.24 0 0 1-.41 3.29A18 18 0 0 0 115 112a17.81 17.81 0 0 0 .05 3.28 10.62 10.62 0 0 1-.16 3.2 11.18 11.18 0 0 1-1.33 3 9.15 9.15 0 0 0-1.21 3.08 11 11 0 0 0 .19 3.51 9.49 9.49 0 0 1 .06 3.58 10 10 0 0 1-1.59 3.28c-.67.86-1.81 2.21-2.54 3s-2 2-2.78 2.72-3.51 2.71-6 4.44-5.18 3.64-5.91 4.24a26.58 26.58 0 0 0-2.52 2.46 32.58 32.58 0 0 0-2.27 3 10.26 10.26 0 0 1-2.55 2.58 9.55 9.55 0 0 1-3.44 1.11 12.13 12.13 0 0 0-3.59 1.15 16.2 16.2 0 0 0-3.28 2.54 11.49 11.49 0 0 1-3.37 2.33c-1 .39-5.42.52-9.83.28s-8.94-.33-10.06-.21a21.32 21.32 0 0 1-4 0A42.48 42.48 0 0 1 43 163c-2.13-.7-4.76-1.46-5.84-1.69a29.38 29.38 0 0 1-3.72-1.1 57.13 57.13 0 0 1-6.32-3.54c-2.51-1.58-5.32-3.22-6.24-3.66-.51-.24-1.23-.55-1.95-.83.39.53.84 1.11 1.26 1.61l.53.62a17.31 17.31 0 0 0 2.86 2.46 18.05 18.05 0 0 0 3.42 1.67c1 .34 2.63 1 3.56 1.42s3.74 2.09 6.24 3.66a57.13 57.13 0 0 0 6.32 3.54 29.38 29.38 0 0 0 3.72 1.1c1.08.23 3.71 1 5.84 1.69a42.48 42.48 0 0 0 5.86 1.53 21.32 21.32 0 0 0 4 0c1.12-.11 5.65 0 10.06.21s8.83.1 9.83-.28a11.49 11.49 0 0 0 3.37-2.33 16.2 16.2 0 0 1 3.28-2.54 12.13 12.13 0 0 1 3.59-1.15 9.55 9.55 0 0 0 3.34-1.16 10.26 10.26 0 0 0 2.55-2.58 32.58 32.58 0 0 1 2.27-3 26.58 26.58 0 0 1 2.52-2.46c.73-.6 3.39-2.51 5.91-4.24s5.24-3.73 6-4.44 2-1.93 2.78-2.72 1.87-2.13 2.54-3a10 10 0 0 0 1.59-3.28 9.49 9.49 0 0 0-.06-3.58 11 11 0 0 1-.19-3.51 9.15 9.15 0 0 1 1.21-3.08 11.18 11.18 0 0 0 1.33-3 10.62 10.62 0 0 0 .16-3.2 17.81 17.81 0 0 1-.05-3.28 18 18 0 0 1 .68-3.22 10.24 10.24 0 0 0 .41-3.29 12.92 12.92 0 0 0-.79-3.42zM85.63 55.18a12.57 12.57 0 0 0 3.07 2.2 12.8 12.8 0 0 0 2.11.71c-.39-.3-.77-.58-1.07-.79a21.3 21.3 0 0 0-3-1.68c-.29-.14-.74-.29-1.11-.44zM97.33 27.66c1.19-1 2-2.13 1.88-2.5s-1.49-.47-3-.21a30.48 30.48 0 0 1-5.06.39 20.19 20.19 0 0 1-4.37-.7 17.88 17.88 0 0 0-2-.45c-.49-.09-1-.17-1.41-.21-1.14.79-4.75 2.84-8 4.55s-6.75 3.64-7.72 4.28-3.44 2.57-5.5 4.29-4.28 3.16-4.91 3.22a4.71 4.71 0 0 1-1.09-.07c-.16.31-.33.62-.5.92s-.3.53-.44.75a32.66 32.66 0 0 1-2.08 2.9 4.65 4.65 0 0 0-.31.46 5.28 5.28 0 0 0-.55 1.07l.59-.07a13 13 0 0 1 3.87.33 12.22 12.22 0 0 1 2.63 1.19 8.07 8.07 0 0 1 .93-.6 6 6 0 0 1 1.52-.65 5.27 5.27 0 0 1 2.64.27 6.28 6.28 0 0 0 2.48.44c.64-.06 2.85-1.51 4.91-3.22s4.54-3.64 5.5-4.29 4.44-2.57 7.72-4.28 6.9-3.76 8-4.55 3.08-2.26 4.27-3.26z"/></svg>