<svg xmlns="http://www.w3.org/2000/svg" width="124.25" height="200" viewBox="0 0 124.25 200"><title>_</title><path d="M66.63 29.75c0 .08.06.18.08.29a10.28 10.28 0 0 1 .35 2.24 2 2 0 0 0 .35.92 4.25 4.25 0 0 0 1.48.72 7.39 7.39 0 0 0 2.3.13 8.09 8.09 0 0 0 1.57-.48 7.29 7.29 0 0 0 .79-.36 14.33 14.33 0 0 1 3.25-1.26 25.61 25.61 0 0 1 6 .16 15.83 15.83 0 0 0 2.64.13 5.3 5.3 0 0 0-.25-.73 9.33 9.33 0 0 0-1.69-2.44 11.71 11.71 0 0 0-2.77-1.79 13.12 13.12 0 0 1-3.66-2.51A12 12 0 0 1 74.85 21a9.75 9.75 0 0 0-1.49-2.63 19.3 19.3 0 0 0-4.89-2.52A43.62 43.62 0 0 0 63 14.1c-.54-.08-3.63-.09-7.42.07a67.26 67.26 0 0 1-8.09 0 4.27 4.27 0 0 0-1.94.21 6.23 6.23 0 0 0-1.82 1.53c-.64.81-1.74 2.08-2.47 2.83s-2 1.91-2.81 2.6a27.76 27.76 0 0 0-2.45 2.4c-.62.7-2.39 3.23-3.87 5.53A40.54 40.54 0 0 0 30 33c.67.13 1.5.31 2.08.47s2 .6 2.78.91a4.08 4.08 0 0 0 1.92.11A7 7 0 0 0 39 33.17a17 17 0 0 1 2.9-2.07l.1-.1a11.69 11.69 0 0 1 4-.93 42.51 42.51 0 0 0 4.71-.64 10.36 10.36 0 0 0 2.55-.8 2.51 2.51 0 0 0 .07-.79 10.18 10.18 0 0 1 .11-2.84 10.31 10.31 0 0 1 1.08-2.68c.28-.46 1.3-2 2.74-1.66 1.27.27 1.83 1.8 2 2.45a4.48 4.48 0 0 0 .74 1.46 3.25 3.25 0 0 0 1.17.66 11.55 11.55 0 0 1 2.36.93 8.21 8.21 0 0 1 1.86 1.48 7.08 7.08 0 0 1 1.24 2.11zM15.66 140.38a38.42 38.42 0 0 0 4.25 7.45 7.32 7.32 0 0 0 2.74 1.06c.67.09 1.85.31 3.15.57.88.18 1.8.38 2.63.57a35.81 35.81 0 0 1 5.67 1.76 33.24 33.24 0 0 1 3.68 2.11 10.67 10.67 0 0 0 3.11 1.33 11 11 0 0 0 3.43 0c1.19-.23 3.1-.51 4.26-.62s2.83-.19 4-.19h.18a35.39 35.39 0 0 1 4.13.33 37.11 37.11 0 0 1 4.11.91 35.36 35.36 0 0 0 3.74.82 34.72 34.72 0 0 0 3.79.31 11 11 0 0 0 3.32-.53 13 13 0 0 0 3-1.71 32.24 32.24 0 0 1 3.52-2.39 25.66 25.66 0 0 1 3.63-1.64c.78-.26 4.24-1.81 8.17-3.7a41.07 41.07 0 0 0 7.3-4.19 9.3 9.3 0 0 0 1.41-2.82 16.08 16.08 0 0 1 1.82-4 14.8 14.8 0 0 1 3-3.12 7.76 7.76 0 0 0 1.92-2.21 8.34 8.34 0 0 0 .64-3 17.8 17.8 0 0 1 .54-4.11 13 13 0 0 1 1.66-3.46 17.57 17.57 0 0 0 1.45-2.49 16.68 16.68 0 0 0 .88-2.68c.17-.8.4-2.16.49-3s.17-2.18.18-3 .09-2.39.18-3.3.51-3.19.93-5.05 1-4.22 1.39-5.29a9.94 9.94 0 0 0 .39-3.07 72.63 72.63 0 0 0-4.51-10.16l-2.35-4.64c-2.22-4.37-4.79-9.67-5.2-10.88a27.92 27.92 0 0 1-.88-3.6c0-.16-.05-.32-.08-.47a5.46 5.46 0 0 0-1.11-2.45 6.37 6.37 0 0 0-2.62-1.23 30.61 30.61 0 0 1-4.23-1.25c-1.25-.5-5.81-3.14-9.45-5.37a87.21 87.21 0 0 0-8.56-4.81 10.44 10.44 0 0 0-2.68-.3 14.18 14.18 0 0 1-3.71-.4A15.65 15.65 0 0 1 65.48 45c-.78-.48-2.89-1.57-4.6-2.39a15.15 15.15 0 0 0-4.44-1.41 37.19 37.19 0 0 0-6.31 1.5l-1 .3c-1.37.44-2.78.91-4 1.33-1.69.58-3.05 1.08-3.57 1.31a37.41 37.41 0 0 0-3.39 1.76A13.74 13.74 0 0 1 34 48.91a16.08 16.08 0 0 1-4.67-.13 6.3 6.3 0 0 0-2.94.16 5.47 5.47 0 0 0-2 1.85 18.21 18.21 0 0 1-2.68 3.42 15.72 15.72 0 0 1-3.45 2.36 10.62 10.62 0 0 0-2.48 1.75 10.78 10.78 0 0 0-1.69 2.55 15.36 15.36 0 0 1-2.28 3.51 17 17 0 0 1-3.34 2.7 17.84 17.84 0 0 0-2.81 2.15 16.22 16.22 0 0 0-2.08 2.67A13.69 13.69 0 0 0 2.35 75 17.18 17.18 0 0 0 2 78.72c.05 1.25 0 4.13-.22 6.42a80.56 80.56 0 0 1-1.09 8.23 54.06 54.06 0 0 0-.87 5.55A17 17 0 0 0 0 102c.14.83.64 2.92 1.09 4.58a43.54 43.54 0 0 1 1.06 4.93c.12 1.1.09 4.36 0 6.87a16.69 16.69 0 0 0 .51 5.62A9.43 9.43 0 0 0 5 126.13a29.19 29.19 0 0 1 3.58 2.64 20 20 0 0 1 2.67 3c.75 1.03 2.8 5.23 4.41 8.61z"/><path d="M74 35.58l.1.13a5.76 5.76 0 0 1 .82 1.47 8.35 8.35 0 0 1 .35 2.08 3.3 3.3 0 0 0 .73 1.93 5.49 5.49 0 0 0 2.19 1.13 8.83 8.83 0 0 0 2.89.16 10.15 10.15 0 0 0 2.86-1 12.74 12.74 0 0 1 2.85-1.11 24.49 24.49 0 0 1 5.51.18c2.25.27 4.22.16 4.38-.25a4.37 4.37 0 0 0-.43-2.43 10.68 10.68 0 0 0-2-2.93 13.14 13.14 0 0 0-3.21-2.08 11.58 11.58 0 0 1-3.17-2.17A10.64 10.64 0 0 1 86 27.47a11.06 11.06 0 0 0-1.79-3.13 19.24 19.24 0 0 0-5.47-2.93L77.55 21l-1.28-.45a10.64 10.64 0 0 0 1.92 3.2 11.58 11.58 0 0 0 3.17 2.17 13.14 13.14 0 0 1 3.2 2.08 10.68 10.68 0 0 1 2 2.93 4.37 4.37 0 0 1 .44 2.41c-.16.41-2.13.53-4.38.25a24.49 24.49 0 0 0-5.51-.18 12.74 12.74 0 0 0-2.85 1.11 8.7 8.7 0 0 1-1 .44 5.69 5.69 0 0 1 .74.62zM64.62 32.28a8.85 8.85 0 0 1 .66-1.78c0-.09 0-.18-.07-.25a5.67 5.67 0 0 0-.92-1.6 6.83 6.83 0 0 0-1.47-1.17 10.15 10.15 0 0 0-2-.78 4.66 4.66 0 0 1-1.88-1.08 5.89 5.89 0 0 1-1.11-2.07 2.14 2.14 0 0 0-.83-1.41 1.69 1.69 0 0 0-1.15 1 8.89 8.89 0 0 0-.9 2.22 8.74 8.74 0 0 0-.11 2.38 3.12 3.12 0 0 1-.42 1.95A8 8 0 0 1 51 30.95a43.7 43.7 0 0 1-4.92.67 10.36 10.36 0 0 0-3.36.75l-.1.06c-.49.7-1 1.48-1.51 2.25l-.48.73c-1.54 2.38-2.75 4.66-2.69 5.07a1.34 1.34 0 0 0 1.17.89 23.28 23.28 0 0 1 2.31.49c.43.12 1.06.32 1.67.52l1 .35a3.91 3.91 0 0 0 .6.16c1.26-.43 2.68-.9 4.06-1.35l1-.31a16.17 16.17 0 0 1 2.25-1.7l.39-.22a10.36 10.36 0 0 1 3.36-.75 43.7 43.7 0 0 0 4.92-.67 8 8 0 0 0 3.41-1.28 3.12 3.12 0 0 0 .42-1.95 8.87 8.87 0 0 1 .08-2.16c.01-.07.02-.16.04-.22zM120.9 88.18l-2.35-4.64c-2.49-4.91-4.79-9.71-5.12-10.68a26 26 0 0 1-.9-3.8 6.87 6.87 0 0 0-1.53-3.29 7.83 7.83 0 0 0-3.39-1.7A30.28 30.28 0 0 1 104 63l-.37-.14c-.16-.07-.42-.19-.74-.35a26.19 26.19 0 0 0 .83 3.37c.33 1 2.63 5.78 5.12 10.68l2.35 4.64c2.49 4.91 4.58 9.73 4.66 10.71a11.27 11.27 0 0 1-.46 3.66c-.33 1-.94 3.35-1.35 5.16s-.82 4-.9 4.87-.16 2.29-.17 3.17-.09 2.29-.19 3.15-.33 2.26-.51 3.11a18.15 18.15 0 0 1-1 3 19 19 0 0 1-1.6 2.75 11.51 11.51 0 0 0-1.43 3 16.33 16.33 0 0 0-.48 3.7 9.72 9.72 0 0 1-.79 3.62 9.19 9.19 0 0 1-2.37 2.75 13.33 13.33 0 0 0-2.65 2.74 14.64 14.64 0 0 0-1.62 3.59 10.62 10.62 0 0 1-1.71 3.39c-.64.76-4.15 2.82-7.8 4.57s-7.4 3.45-8.34 3.77a24.08 24.08 0 0 0-3.37 1.52 30.67 30.67 0 0 0-3.32 2.25 14.38 14.38 0 0 1-3.48 2 13.32 13.32 0 0 1-3.84.61 36 36 0 0 1-4-.33 36.76 36.76 0 0 1-3.94-.87 35.85 35.85 0 0 0-3.91-.86 33.91 33.91 0 0 0-3.92-.31c-1.08 0-2.87.07-4 .18s-3 .38-4.12.6a12.41 12.41 0 0 1-4 0 12.13 12.13 0 0 1-3.66-1.56 31.68 31.68 0 0 0-3.48-2 34.83 34.83 0 0 0-5.37-1.66c-.82-.19-1.73-.38-2.59-.56.21.4.42.78.63 1.15a17.46 17.46 0 0 0 2.61 3.93 8.76 8.76 0 0 0 3.45 1.35c1.11.15 3.65.65 5.64 1.11a34.83 34.83 0 0 1 5.37 1.66 31.68 31.68 0 0 1 3.48 2 12.13 12.13 0 0 0 3.66 1.56 12.41 12.41 0 0 0 4 0c1.15-.22 3-.49 4.12-.6s2.91-.19 4-.18a33.91 33.91 0 0 1 3.92.31 35.85 35.85 0 0 1 3.91.86 36.76 36.76 0 0 0 3.94.87 36 36 0 0 0 4 .33 13.32 13.32 0 0 0 3.84-.61 14.38 14.38 0 0 0 3.48-2 30.67 30.67 0 0 1 3.32-2.25 24.08 24.08 0 0 1 3.37-1.52c.93-.32 4.69-2 8.34-3.77s7.16-3.81 7.8-4.57a10.62 10.62 0 0 0 1.71-3.39 14.64 14.64 0 0 1 1.62-3.59 13.33 13.33 0 0 1 2.65-2.74 9.19 9.19 0 0 0 2.37-2.75 9.72 9.72 0 0 0 .79-3.62 16.33 16.33 0 0 1 .48-3.7 11.51 11.51 0 0 1 1.43-3A19 19 0 0 0 121 125a18.15 18.15 0 0 0 1-3c.18-.85.41-2.25.51-3.11s.18-2.28.19-3.15.09-2.3.17-3.17.49-3.06.9-4.87 1-4.13 1.35-5.16a11.27 11.27 0 0 0 .46-3.66c-.1-.97-2.2-5.79-4.68-10.7z"/></svg>