<svg xmlns="http://www.w3.org/2000/svg" width="116.84" height="200" viewBox="0 0 116.84 200"><title>_</title><path d="M60.69 18.89A12.24 12.24 0 0 0 59 17a6.9 6.9 0 0 0-1.71-1 21.28 21.28 0 0 1-2.46-1 24.37 24.37 0 0 1-2.37-1.44 5.19 5.19 0 0 0-1.7-.69 6.6 6.6 0 0 0-2.08.15c-.84.22-3.25.65-5.49 1a36.56 36.56 0 0 0-5.54 1.2 20.11 20.11 0 0 0-3.42 1.75 19.64 19.64 0 0 0-2.93 2.51 20.25 20.25 0 0 0-2.3 3.09 18.75 18.75 0 0 0-1.46 3.73 22.68 22.68 0 0 0-.54 4.27 11.55 11.55 0 0 0 .06 1.27 5 5 0 0 1 2.1-1 3.69 3.69 0 0 1 2.9 1 3.41 3.41 0 0 0 .91.62 1.47 1.47 0 0 0 .57 0 3.47 3.47 0 0 1 1.18-.19 4.58 4.58 0 0 1 1.27.18l.21.06a6.39 6.39 0 0 1 1.31.72 6.35 6.35 0 0 1 .38-2.8c.56-1.17 2.25-1.79 3.68-1.88.85-.06 2.33-.12 2.93-.07a13.43 13.43 0 0 1 2.08.39c.63.17 1.81.56 2.63.87a13.47 13.47 0 0 0 2.37.62 23.13 23.13 0 0 0 4.16-.36c.15 0 3.82-.68 5.24.16a7.41 7.41 0 0 1 2.18 2.33 2 2 0 0 0 .48.54 3 3 0 0 0 .73-.56 11.09 11.09 0 0 1 3-2.18 14.21 14.21 0 0 1 3.74-1 13.09 13.09 0 0 0 2.89-.78A10.37 10.37 0 0 0 76.27 27c.29-.26.82-.8 1.46-1.46s1.33-1.41 2-2.1a37.75 37.75 0 0 0 3.27-4.2c.61-1 1.59-2.84 2.2-4.11a13.45 13.45 0 0 0 .69-1.75 14.23 14.23 0 0 1-1.85.3 7.55 7.55 0 0 1-2.29-.22 10.66 10.66 0 0 0-1.28-.29 7.45 7.45 0 0 0-1.28-.09 2 2 0 0 0-.72.22 4.89 4.89 0 0 0-.93.92 11.86 11.86 0 0 1-1.37 1.55 3.62 3.62 0 0 1-1.63.85l-.08.05a4.2 4.2 0 0 0-.51.63 12.4 12.4 0 0 1-1.15 1.44 17.71 17.71 0 0 1-1.49 1.36 9.12 9.12 0 0 1-2.18 1.22 13.1 13.1 0 0 1-2.62.6 6 6 0 0 1-2.31-.26 4.75 4.75 0 0 1-.93-.37 7 7 0 0 1-1.33-1 9.43 9.43 0 0 1-1.25-1.4zM15.54 144.41a41.15 41.15 0 0 0 3.61 4.07 30.2 30.2 0 0 0 2.85 2.18 25 25 0 0 0 3.12 1.67c.27.11.6.24 1 .37a25.19 25.19 0 0 0 2.42.74 20.42 20.42 0 0 0 3.56.37 24.08 24.08 0 0 0 4-.49 15.79 15.79 0 0 1 4.78-.23 14.21 14.21 0 0 1 4.4 1.53 15 15 0 0 0 3.27 1.38 13.93 13.93 0 0 0 3.47.23h1.28a20.25 20.25 0 0 1 3.14.23 23.35 23.35 0 0 1 4.38 1.32 7.23 7.23 0 0 0 3.11.5 7.63 7.63 0 0 0 2.92-1.37 15.19 15.19 0 0 1 4.15-2.38 13.73 13.73 0 0 1 4.61-.47 23 23 0 0 0 3.74 0 19.55 19.55 0 0 0 3.42-.73c1-.32 2.49-.91 3.42-1.31s2.41-1.13 3.3-1.61a16.16 16.16 0 0 0 2.73-2 40.32 40.32 0 0 0 4-6 40.77 40.77 0 0 1 4.55-6.74 17.82 17.82 0 0 1 3.73-2.55 5.75 5.75 0 0 0 2.1-1.9 6.1 6.1 0 0 0 .35-2.93 22.64 22.64 0 0 1-.16-4.4 13.29 13.29 0 0 1 .94-3.73 20.31 20.31 0 0 0 1.63-5.52c.13-.88.41-2.33.64-3.23s.66-2.32 1-3.19a49.53 49.53 0 0 1 2.29-4.86 14.74 14.74 0 0 0 1.57-4.21 67.4 67.4 0 0 0-2.9-9.87c-1.51-4.3-3.21-9.57-3.39-10.84a33.16 33.16 0 0 1-.28-4 6.18 6.18 0 0 0-.69-2.64 7.21 7.21 0 0 0-2.19-1.94 14.92 14.92 0 0 1-3.46-2.69 12.3 12.3 0 0 1-2.11-3.63 9.51 9.51 0 0 0-1.22-2.24c-.08-.1-.15-.2-.23-.28a9.92 9.92 0 0 0-2.42-1.79 36.08 36.08 0 0 1-3.43-2 32.74 32.74 0 0 1-3.05-2.36c-.32-.29-.79-.67-1.28-1s-1-.75-1.38-1a25.73 25.73 0 0 0-3-1.57 11.47 11.47 0 0 1-1.09-.56 15.69 15.69 0 0 1-2.34-1.64 18.92 18.92 0 0 1-2.8-3.29 5.42 5.42 0 0 0-1.91-1.73 4.59 4.59 0 0 0-2.37.06 11.68 11.68 0 0 1-4.19.48 10.54 10.54 0 0 1-3.89-1.39 6.16 6.16 0 0 0-2.42-.82 6.49 6.49 0 0 0-2.58.62A10.83 10.83 0 0 1 56 44a13.91 13.91 0 0 1-4.53-1.11 10.62 10.62 0 0 0-2.81-.73h-.63a7.94 7.94 0 0 0-1.9.35 7.79 7.79 0 0 0-1.3.5 31.55 31.55 0 0 1-4.1 1.71 29.5 29.5 0 0 1-4.26.95 10.35 10.35 0 0 0-3.1 1 10.3 10.3 0 0 0-2.41 2.18 13.15 13.15 0 0 1-3.26 3 12.48 12.48 0 0 1-4.13 1.36 9.4 9.4 0 0 0-2.89.92 8.42 8.42 0 0 0-2.1 2 26.09 26.09 0 0 1-2.54 3 26.12 26.12 0 0 1-3.06 2.51 30.81 30.81 0 0 0-2.75 2.15A31 31 0 0 0 7.8 66.3a33 33 0 0 0-2.08 2.83 32.92 32.92 0 0 0-1.72 3 13.91 13.91 0 0 0-.93 3.19 18.11 18.11 0 0 0 0 3.73 19.66 19.66 0 0 1-.07 4.6 18.12 18.12 0 0 1-1.38 4.28 19.07 19.07 0 0 0-1.26 3.46A18.27 18.27 0 0 0 0 95c0 1.08.13 2.72.24 3.66s.76 3.75 1.42 6.2a31.45 31.45 0 0 1 1.22 6.72 15.84 15.84 0 0 1-.77 3.79 11.81 11.81 0 0 0-.56 2.92 9.43 9.43 0 0 0 .45 2.62c.31.89.95 3.28 1.42 5.33A24.72 24.72 0 0 0 5 131.1a13.13 13.13 0 0 0 2.08 2.59 36.47 36.47 0 0 1 2.82 3 35.16 35.16 0 0 1 2.36 3.26c.53.8 2.03 2.86 3.28 4.46z"/><path d="M64.61 20.22c-.55-.31-1.17-.71-1.6-1h-.06A5.49 5.49 0 0 0 64 20a3.5 3.5 0 0 0 .61.22zM94 27c.63-1 1.65-2.94 2.27-4.25a9.86 9.86 0 0 0 1-3.38 1 1 0 0 0-1.37-.64 13.86 13.86 0 0 1-2.3.43 5.94 5.94 0 0 1-1.73-.16 12.35 12.35 0 0 0-1.5-.34 12.22 12.22 0 0 0-1.53-.11 3.4 3.4 0 0 0-1.48.44A6 6 0 0 0 86 20.25a10.68 10.68 0 0 1-1.16 1.32 2.44 2.44 0 0 1-.78.47h-.12a1.81 1.81 0 0 0-.78.38 5.31 5.31 0 0 0-.8 1 10.75 10.75 0 0 1-1 1.24 16.31 16.31 0 0 1-1.34 1.23 7.33 7.33 0 0 1-1.24.75c-.64.67-1.2 1.23-1.53 1.53a11.69 11.69 0 0 1-2.7 1.73 14.45 14.45 0 0 1-3.34.86 12.61 12.61 0 0 0-3.27.9 9.66 9.66 0 0 0-2.5 1.84 3.17 3.17 0 0 1-2 1.1 2.67 2.67 0 0 1-1.65-1.32 6 6 0 0 0-1.66-1.8c-.5-.3-2.4-.29-4.21 0a22.37 22.37 0 0 1-4.59.4 14.83 14.83 0 0 1-2.71-.7c-.78-.29-1.91-.67-2.5-.83a11.88 11.88 0 0 0-1.8-.35c-.4 0-1.62 0-2.72.07a3.21 3.21 0 0 0-2.42 1 5.67 5.67 0 0 0-.19 2.58 3.56 3.56 0 0 1-.14 2.07 1.34 1.34 0 0 1-1.37-.55A7 7 0 0 0 35.71 34h-.12c-.05.32-.1.66-.15 1a23.13 23.13 0 0 0-.21 2.57 7.86 7.86 0 0 0 .47 3.17c.27.4.95.28 1.5-.26a4.3 4.3 0 0 1 1.9-1.11 2.28 2.28 0 0 1 1.65.62 4.64 4.64 0 0 0 1.52 1 2.65 2.65 0 0 0 .95.07 2.34 2.34 0 0 0 .57-.11 2.76 2.76 0 0 1 1.64.05h.25a9.4 9.4 0 0 1 2.32-.39 6.46 6.46 0 0 1 .8 0 6.85 6.85 0 0 1-.06-1 4.36 4.36 0 0 1 .25-1.6 3.21 3.21 0 0 1 2.42-1c1.1-.07 2.32-.1 2.72-.07a11.88 11.88 0 0 1 1.8.35c.59.16 1.71.53 2.5.83a14.83 14.83 0 0 0 2.71.7 22.37 22.37 0 0 0 4.59-.4c1.82-.31 3.72-.33 4.21 0a6 6 0 0 1 1.66 1.8 2.67 2.67 0 0 0 1.65 1.32 3.17 3.17 0 0 0 2-1.1 9.66 9.66 0 0 1 2.5-1.84 12.61 12.61 0 0 1 3.27-.9 14.45 14.45 0 0 0 3.34-.86A11.69 11.69 0 0 0 87 35.09c.66-.6 2.24-2.25 3.52-3.67A38.82 38.82 0 0 0 94 27zM119.75 85.18a31.49 31.49 0 0 1-.26-3.78 7.64 7.64 0 0 0-.91-3.43 8.61 8.61 0 0 0-2.75-2.47 13.39 13.39 0 0 1-3.05-2.37A10.94 10.94 0 0 1 111 70a10.54 10.54 0 0 0-1.75-3 11.23 11.23 0 0 0-2.88-2.14 34.24 34.24 0 0 1-3.31-1.86c-.32-.21-.71-.5-1.1-.79-.65-.49-1.32-1-1.78-1.44l-.38-.32a10.89 10.89 0 0 1 1.44 2.66 10.94 10.94 0 0 0 1.81 3.12 13.39 13.39 0 0 0 3.05 2.37 8.61 8.61 0 0 1 2.76 2.4 7.64 7.64 0 0 1 .91 3.43 31.49 31.49 0 0 0 .26 3.78c.15 1 1.64 5.76 3.32 10.56s3 9.5 3 10.44a15.73 15.73 0 0 1-1.74 4.85 49.25 49.25 0 0 0-2.21 4.66c-.3.83-.71 2.21-.93 3.05s-.49 2.23-.61 3.08a21.81 21.81 0 0 1-1.75 5.93 12 12 0 0 0-.81 3.24 21.33 21.33 0 0 0 .15 4.05 7.57 7.57 0 0 1-.5 3.83 7.11 7.11 0 0 1-2.77 2.56 16.45 16.45 0 0 0-3.36 2.3 40.14 40.14 0 0 0-4.28 6.39 40.17 40.17 0 0 1-4.24 6.35 17.51 17.51 0 0 1-3 2.21c-.92.5-2.46 1.25-3.42 1.67s-2.55 1-3.54 1.36a21.08 21.08 0 0 1-3.74.8 24.74 24.74 0 0 1-4 0 12.17 12.17 0 0 0-4 .41 13.65 13.65 0 0 0-3.68 2 9.06 9.06 0 0 1-3.65 1.68 8.67 8.67 0 0 1-3.91-.6 21.54 21.54 0 0 0-4-1.22 18.87 18.87 0 0 0-4-.17 15.21 15.21 0 0 1-3.94-.26 16.29 16.29 0 0 1-3.75-1.5 12.74 12.74 0 0 0-3.85-1.34 14.39 14.39 0 0 0-4.25.21 25.4 25.4 0 0 1-4.27.52 19.57 19.57 0 0 1-3.92-.41 26.51 26.51 0 0 1-2.58-.79c.47.54.92 1.05 1.32 1.48s.72.75 1 1a31.67 31.67 0 0 0 3 2.31 26.48 26.48 0 0 0 3.35 1.79 26.66 26.66 0 0 0 3.62 1.19 19.57 19.57 0 0 0 3.92.41 25.4 25.4 0 0 0 4.27-.52 14.39 14.39 0 0 1 4.25-.21 12.74 12.74 0 0 1 3.85 1.34 16.29 16.29 0 0 0 3.75 1.5 15.21 15.21 0 0 0 3.94.26 18.87 18.87 0 0 1 4 .17 21.54 21.54 0 0 1 4 1.22 8.67 8.67 0 0 0 3.91.6 9.06 9.06 0 0 0 3.65-1.68 13.65 13.65 0 0 1 3.68-2 12.17 12.17 0 0 1 4-.41 24.74 24.74 0 0 0 4 0 21.08 21.08 0 0 0 3.74-.8c1-.33 2.58-.94 3.54-1.36s2.5-1.17 3.42-1.67a17.51 17.51 0 0 0 3-2.21 40.17 40.17 0 0 0 4.24-6.35 40.14 40.14 0 0 1 4.28-6.39 16.45 16.45 0 0 1 3.36-2.3 7.11 7.11 0 0 0 2.77-2.56 7.57 7.57 0 0 0 .5-3.83A21.33 21.33 0 0 1 118 131a12 12 0 0 1 .81-3.24 21.81 21.81 0 0 0 1.75-5.93c.12-.85.4-2.24.61-3.08s.63-2.22.93-3.05a49.25 49.25 0 0 1 2.2-4.7 15.73 15.73 0 0 0 1.74-4.85c0-.94-1.3-5.63-3-10.44s-3.15-9.53-3.29-10.53zM85.94 49.62a5.53 5.53 0 0 0-2.42-.17 9.87 9.87 0 0 0 .94.48 27.2 27.2 0 0 1 3.16 1.69c.42.27 1 .65 1.48 1-.19-.26-.37-.5-.52-.73a6.74 6.74 0 0 0-2.64-2.27z"/></svg>