<svg xmlns="http://www.w3.org/2000/svg" width="200" height="200" viewBox="0 0 200 200"><title>_</title><path d="M121.62,17.62c0.62-1,1.61-2.87,2.22-4.15a12,12,0,0,0,.93-2.65l-0.07,0a14.93,14.93,0,0,1-2.51.47,7.06,7.06,0,0,1-2.11-.2,11.31,11.31,0,0,0-1.35-.3,9.48,9.48,0,0,0-1.37-.1,2.49,2.49,0,0,0-1,.29,5.22,5.22,0,0,0-1.07,1A11.47,11.47,0,0,1,114,13.5a3,3,0,0,1-1.45.74,1.56,1.56,0,0,0-.25.15,4.5,4.5,0,0,0-.61.74,11.79,11.79,0,0,1-1.1,1.37,17,17,0,0,1-1.44,1.32,8.67,8.67,0,0,1-2,1.14,12.47,12.47,0,0,1-2.5.57,5.52,5.52,0,0,1-2.11-.24,4.32,4.32,0,0,1-.83-0.33,6.5,6.5,0,0,1-1.23-.94,8.91,8.91,0,0,1-1.15-1.31,12.65,12.65,0,0,0-1.81-2,7.4,7.4,0,0,0-1.87-1.08,20.74,20.74,0,0,1-2.39-1,23.85,23.85,0,0,1-2.31-1.4A5.65,5.65,0,0,0,89,10.44a7.07,7.07,0,0,0-2.28.16c-0.82.22-3.21,0.64-5.44,1a37,37,0,0,0-5.64,1.23,20.66,20.66,0,0,0-3.53,1.81,20.3,20.3,0,0,0-3,2.59,20.88,20.88,0,0,0-2.34,3.27,19.4,19.4,0,0,0-1.5,3.85,23.33,23.33,0,0,0-.54,4.39,10.8,10.8,0,0,0,.2,2.24L65,30.86a5.2,5.2,0,0,1,2.46-1.39,3.23,3.23,0,0,1,2.48.9,3.75,3.75,0,0,0,1.12.74,1.87,1.87,0,0,0,.88,0,3,3,0,0,1,1-.16,4.07,4.07,0,0,1,1.13.16l0.18,0.05a7.87,7.87,0,0,1,2.09,1.36c0-.17,0-0.35-0.05-0.54a6.52,6.52,0,0,1,.28-3.15c0.47-1,2-1.51,3.26-1.59a28.34,28.34,0,0,1,2.85-.07,13,13,0,0,1,2,.38c0.62,0.17,1.78.55,2.59,0.86a13.83,13.83,0,0,0,2.48.65,22.76,22.76,0,0,0,4.29-.4c0.15,0,3.69-.62,4.9.1a7,7,0,0,1,2,2.15,2.08,2.08,0,0,0,.88.83,3,3,0,0,0,1.13-.78,10.69,10.69,0,0,1,2.81-2.06,13.65,13.65,0,0,1,3.58-1,13.46,13.46,0,0,0,3.06-.79,10.84,10.84,0,0,0,2.42-1.55c0.3-.27.84-0.81,1.48-1.49s1.33-1.41,2-2.12A38.19,38.19,0,0,0,121.62,17.62Z" fill="#231f20"/><path d="M78.75,42.31a28.88,28.88,0,0,1-4.17.93,10.8,10.8,0,0,0-3.29,1.08,10.74,10.74,0,0,0-2.56,2.32,12.57,12.57,0,0,1-3.11,2.83,11.89,11.89,0,0,1-3.94,1.29,9.83,9.83,0,0,0-3.08,1,8.88,8.88,0,0,0-2.26,2.12,25.49,25.49,0,0,1-2.49,3,25.48,25.48,0,0,1-3,2.45,31.32,31.32,0,0,0-2.8,2.19A31.56,31.56,0,0,0,45.6,64a27.22,27.22,0,0,0-3.84,6,14.28,14.28,0,0,0-1,3.33,18.72,18.72,0,0,0,0,3.85,19.1,19.1,0,0,1-.09,4.46,17.52,17.52,0,0,1-1.33,4.14,19.72,19.72,0,0,0-1.27,3.56,18.9,18.9,0,0,0-.37,3.71c0,1.09.13,2.75,0.24,3.71s0.76,3.8,1.43,6.27a31.65,31.65,0,0,1,1.21,6.56,15.28,15.28,0,0,1-.74,3.65,12.21,12.21,0,0,0-.59,3.07,9.89,9.89,0,0,0,.44,2.82c0.31,0.88.94,3.24,1.41,5.28a24.75,24.75,0,0,0,1.66,5,13.53,13.53,0,0,0,2.18,2.71,35.8,35.8,0,0,1,2.78,2.9A34.52,34.52,0,0,1,50,138.29c0.53,0.85,2.05,2.94,3.31,4.54A41.75,41.75,0,0,0,57,147a31,31,0,0,0,2.92,2.22,25.6,25.6,0,0,0,3.2,1.71c0.28,0.12.62,0.25,1,.38a25.52,25.52,0,0,0,2.47.75,19,19,0,0,0,3.68.39,24.61,24.61,0,0,0,4.07-.5,15.2,15.2,0,0,1,4.6-.23,13.64,13.64,0,0,1,4.22,1.47,15.34,15.34,0,0,0,3.47,1.39,14.23,14.23,0,0,0,3.63.24c0.36,0,.79,0,1.24,0a19.67,19.67,0,0,1,3.06.23,22.69,22.69,0,0,1,4.27,1.29,7.7,7.7,0,0,0,3.38.53,8.12,8.12,0,0,0,3.16-1.47,14.6,14.6,0,0,1,4-2.19,13.06,13.06,0,0,1,4.42-.45,23.6,23.6,0,0,0,3.84,0,20.16,20.16,0,0,0,3.53-.75c1-.32,2.52-0.92,3.46-1.33s2.43-1.14,3.34-1.63a16.51,16.51,0,0,0,2.84-2.05,40.27,40.27,0,0,0,4.05-6.12,40.9,40.9,0,0,1,4.46-6.63,17.25,17.25,0,0,1,3.6-2.47,6.14,6.14,0,0,0,2.32-2.12,6.59,6.59,0,0,0,.4-3.23,22,22,0,0,1-.16-4.28,12.93,12.93,0,0,1,.9-3.57,20.8,20.8,0,0,0,1.67-5.66c0.13-.87.41-2.3,0.63-3.18s0.65-2.28,1-3.14a49,49,0,0,1,2.27-4.79,15.06,15.06,0,0,0,1.63-4.42,64.2,64.2,0,0,0-2.92-10.06c-1.52-4.34-3.19-9.55-3.37-10.75a32.58,32.58,0,0,1-.27-3.93,6.67,6.67,0,0,0-.76-2.9,7.68,7.68,0,0,0-2.38-2.12A14.32,14.32,0,0,1,140.51,65a11.91,11.91,0,0,1-2-3.46,9.9,9.9,0,0,0-1.3-2.38C137.12,59,137,58.91,137,58.81a10.35,10.35,0,0,0-2.58-1.91A35.56,35.56,0,0,1,131,55a32.3,32.3,0,0,1-3-2.32c-0.33-.3-0.81-0.69-1.31-1.07s-1-.76-1.41-1a26.38,26.38,0,0,0-3-1.61,10.73,10.73,0,0,1-1-.53,15.16,15.16,0,0,1-2.28-1.59,18.36,18.36,0,0,1-2.71-3.19,5.85,5.85,0,0,0-2.15-1.93,5,5,0,0,0-2.7.05,11.29,11.29,0,0,1-4,.46,10.13,10.13,0,0,1-3.68-1.32A6.68,6.68,0,0,0,101,40a7.41,7.41,0,0,0-2.82.67,10,10,0,0,1-4,.9,13.31,13.31,0,0,1-4.34-1.06,11.17,11.17,0,0,0-3-.77c-0.24,0-.47,0-0.67,0a8.41,8.41,0,0,0-2.05.37,8.28,8.28,0,0,0-1.39.53A30.85,30.85,0,0,1,78.75,42.31Z" fill="#231f20"/><path d="M102.81,18.34c-0.55-.31-1.17-0.71-1.6-1l-0.06,0a5.5,5.5,0,0,0,1,.79A3.48,3.48,0,0,0,102.81,18.34Z" fill="#231f20"/><path d="M83.63,39l0.26,0.13a9.39,9.39,0,0,1,2.32-.41,6.5,6.5,0,0,1,.8,0v0a6.85,6.85,0,0,1-.06-1,4.36,4.36,0,0,1,.25-1.59,3.21,3.21,0,0,1,2.42-1c1.1-.07,2.32-0.1,2.72-0.07a11.91,11.91,0,0,1,1.8.35c0.59,0.16,1.71.53,2.5,0.83a14.83,14.83,0,0,0,2.71.7,22.37,22.37,0,0,0,4.59-.4c1.82-.31,3.72-0.33,4.21,0a6,6,0,0,1,1.66,1.8,2.67,2.67,0,0,0,1.65,1.32,3.17,3.17,0,0,0,2-1.1,9.67,9.67,0,0,1,2.5-1.84,12.61,12.61,0,0,1,3.27-.9A14.44,14.44,0,0,0,122.5,35a11.69,11.69,0,0,0,2.7-1.73c0.66-.6,2.24-2.25,3.52-3.67a38.82,38.82,0,0,0,3.47-4.46c0.63-1,1.65-2.94,2.27-4.25a9.86,9.86,0,0,0,1-3.38,1,1,0,0,0-1.37-.64,13.91,13.91,0,0,1-2.3.43,6,6,0,0,1-1.76-.16,12.35,12.35,0,0,0-1.5-.34,12.22,12.22,0,0,0-1.53-.11,3.39,3.39,0,0,0-1.48.44,6,6,0,0,0-1.35,1.3,10.72,10.72,0,0,1-1.16,1.32,2.45,2.45,0,0,1-.78.47l-0.12,0a1.81,1.81,0,0,0-.78.38,5.3,5.3,0,0,0-.8,1,10.77,10.77,0,0,1-1,1.24A16.31,16.31,0,0,1,118.26,24a7.33,7.33,0,0,1-1.24.75c-0.64.67-1.2,1.23-1.53,1.53a11.69,11.69,0,0,1-2.7,1.73,14.44,14.44,0,0,1-3.34.86,12.61,12.61,0,0,0-3.27.9,9.67,9.67,0,0,0-2.5,1.84,3.17,3.17,0,0,1-2,1.1,2.67,2.67,0,0,1-1.65-1.32,6,6,0,0,0-1.66-1.8c-0.5-.3-2.4-0.29-4.21,0a22.37,22.37,0,0,1-4.59.4,14.83,14.83,0,0,1-2.71-.7c-0.78-.29-1.91-0.67-2.5-0.83a11.91,11.91,0,0,0-1.8-.35c-0.4,0-1.62,0-2.72.07a3.21,3.21,0,0,0-2.42,1,5.67,5.67,0,0,0-.19,2.58,3.56,3.56,0,0,1-.14,2.07,1.34,1.34,0,0,1-1.37-.55,7,7,0,0,0-1.86-1.26l-0.12,0c-0.05.32-.1,0.66-0.15,1a23.14,23.14,0,0,0-.21,2.57,7.86,7.86,0,0,0,.47,3.17c0.27,0.4.95,0.28,1.5-.26a4.31,4.31,0,0,1,1.9-1.11,2.28,2.28,0,0,1,1.65.62,4.65,4.65,0,0,0,1.52,1,2.65,2.65,0,0,0,.95.07A2.34,2.34,0,0,0,82,39,2.77,2.77,0,0,1,83.63,39Z" fill="#231f20"/><path d="M158,83.3a31.5,31.5,0,0,1-.26-3.78,7.64,7.64,0,0,0-.91-3.43A8.62,8.62,0,0,0,154,73.62,13.39,13.39,0,0,1,151,71.25a10.93,10.93,0,0,1-1.81-3.12,10.54,10.54,0,0,0-1.75-3A11.24,11.24,0,0,0,144.52,63a34.24,34.24,0,0,1-3.26-1.87c-0.32-.21-0.71-0.5-1.1-0.79-0.65-.49-1.32-1-1.78-1.44L138,58.53a10.89,10.89,0,0,1,1.44,2.66,10.93,10.93,0,0,0,1.81,3.12,13.39,13.39,0,0,0,3.05,2.37,8.62,8.62,0,0,1,2.75,2.47,7.64,7.64,0,0,1,.91,3.43,31.5,31.5,0,0,0,.26,3.78c0.15,1,1.64,5.76,3.32,10.56s3,9.5,3,10.44a15.73,15.73,0,0,1-1.74,4.85,49.19,49.19,0,0,0-2.21,4.66c-0.3.83-.71,2.21-0.93,3.05s-0.49,2.23-.61,3.08a21.81,21.81,0,0,1-1.75,5.93,12,12,0,0,0-.81,3.24,21.32,21.32,0,0,0,.15,4.05,7.57,7.57,0,0,1-.5,3.83,7.11,7.11,0,0,1-2.77,2.56,16.45,16.45,0,0,0-3.36,2.3,40.14,40.14,0,0,0-4.28,6.39,40.19,40.19,0,0,1-4.24,6.35,17.51,17.51,0,0,1-3,2.21c-0.92.5-2.46,1.25-3.42,1.67s-2.55,1-3.54,1.36a21.08,21.08,0,0,1-3.74.8,24.77,24.77,0,0,1-4,0,12.17,12.17,0,0,0-4,.41,13.66,13.66,0,0,0-3.68,2,9.06,9.06,0,0,1-3.65,1.68,8.67,8.67,0,0,1-3.91-.6,21.54,21.54,0,0,0-4-1.22,18.87,18.87,0,0,0-4-.17,15.2,15.2,0,0,1-3.94-.26,16.29,16.29,0,0,1-3.75-1.5,12.73,12.73,0,0,0-3.85-1.34,14.39,14.39,0,0,0-4.25.21,25.35,25.35,0,0,1-4.27.52,19.58,19.58,0,0,1-3.92-.41,26.58,26.58,0,0,1-2.58-.79c0.47,0.54.92,1.05,1.32,1.48s0.72,0.75,1,1a31.71,31.71,0,0,0,3,2.31,21.8,21.8,0,0,0,7,3,19.58,19.58,0,0,0,3.92.41,25.35,25.35,0,0,0,4.27-.52,14.39,14.39,0,0,1,4.25-.21A12.73,12.73,0,0,1,92.38,161a16.29,16.29,0,0,0,3.75,1.5,15.2,15.2,0,0,0,3.94.26,18.87,18.87,0,0,1,4,.17,21.54,21.54,0,0,1,4,1.22,8.67,8.67,0,0,0,3.91.6,9.06,9.06,0,0,0,3.65-1.68,13.66,13.66,0,0,1,3.68-2,12.17,12.17,0,0,1,4-.41,24.77,24.77,0,0,0,4,0,21.08,21.08,0,0,0,3.74-.8c1-.33,2.58-0.94,3.54-1.36s2.5-1.17,3.42-1.67a17.51,17.51,0,0,0,3-2.21,40.19,40.19,0,0,0,4.24-6.35,40.14,40.14,0,0,1,4.28-6.39,16.45,16.45,0,0,1,3.36-2.3,7.11,7.11,0,0,0,2.77-2.56,7.57,7.57,0,0,0,.5-3.83,21.32,21.32,0,0,1-.15-4.05,12,12,0,0,1,.81-3.24,21.81,21.81,0,0,0,1.75-5.93c0.12-.85.4-2.24,0.61-3.08s0.63-2.22.93-3.05a49.19,49.19,0,0,1,2.21-4.66,15.73,15.73,0,0,0,1.74-4.85c0-.94-1.3-5.63-3-10.44S158.1,84.31,158,83.3Z" fill="#231f20"/><path d="M125.82,49.74c0.42,0.27,1,.65,1.48,1-0.19-.26-0.37-0.5-0.52-0.73a6.74,6.74,0,0,0-2.64-2.32,5.53,5.53,0,0,0-2.42-.17,9.87,9.87,0,0,0,.94.48A27.2,27.2,0,0,1,125.82,49.74Z" fill="#231f20"/></svg>