<svg xmlns="http://www.w3.org/2000/svg" width="200" height="200" viewBox="0 0 200 200"><title>_</title><path d="M99.25 19.12l-.14.05z" fill="none"/><path d="M91.56 19.26c0-.16-.09-.38-.16-.64-.23-.83-.58-2-.89-2.95a6.45 6.45 0 0 0-1.37-2.48 5.23 5.23 0 0 0-2.14-.47c-.9 0-3.11-.17-4.91-.35a53.21 53.21 0 0 1-6.64-1.21 20.24 20.24 0 0 0-4.21-.67H71a9 9 0 0 0-2.7.87A12.34 12.34 0 0 0 66.09 13a6.24 6.24 0 0 0-1.16 1.71 4.12 4.12 0 0 0-.17 1.74 6.78 6.78 0 0 0 .89 2 6.06 6.06 0 0 1 1 3.08 6.32 6.32 0 0 1-1.13 3.06 10.09 10.09 0 0 0-1.2 2.44 12 12 0 0 0-.43 2.97 2.69 2.69 0 0 0 .64 1.71 4.57 4.57 0 0 0 2.36.41c1.08-.09 2.76-.31 3.74-.49.82-.15 2-.43 2.93-.68l.36-.1a28.42 28.42 0 0 1 3.33-.76 27.77 27.77 0 0 1 3.38-.26 24.68 24.68 0 0 1 3.61.33 35.12 35.12 0 0 1 3.91 1 4.81 4.81 0 0 0 2.29.19 11.2 11.2 0 0 0 1.12-4.2 48.73 48.73 0 0 0 .38-5.49 21.81 21.81 0 0 0-.38-2.4zM107.88 40.92a15.93 15.93 0 0 0-3.21.78 13.37 13.37 0 0 1-3.75.76 11.67 11.67 0 0 1-3.65-.62 25.5 25.5 0 0 0-3.27-.9 33.47 33.47 0 0 0-3.71-.43 16.72 16.72 0 0 0-3.71.31A17.74 17.74 0 0 0 83 42.13a14.72 14.72 0 0 1-4.26 1.32 17 17 0 0 1-4.64-.24 11.77 11.77 0 0 0-3.75-.11 23.73 23.73 0 0 0-5.91 3.67c-2.39 1.88-5 4-5.65 4.72s-1.74 1.89-2.34 2.65a17.86 17.86 0 0 1-2.8 2.75 20.62 20.62 0 0 1-3.54 2 14.63 14.63 0 0 0-3 1.86 13 13 0 0 0-2.19 2.58c-.52.85-2.44 4.79-4.19 8.62-1.94 4.21-3.53 8-3.8 9a36.88 36.88 0 0 0-.87 3.92 22.36 22.36 0 0 0-.17 3.92 23.47 23.47 0 0 0 .68 3.94 19 19 0 0 1 .63 4.2 13.8 13.8 0 0 1-.6 3.83 5.55 5.55 0 0 0-.12 2.6 7.48 7.48 0 0 0 1.52 2.56 10 10 0 0 1 2.09 3.43 8.18 8.18 0 0 1 0 3.82 19.77 19.77 0 0 0-.53 3.17 17.72 17.72 0 0 0 .14 3.07 10.9 10.9 0 0 0 .95 2.83 15 15 0 0 0 2 2.71 30.93 30.93 0 0 1 2.6 3.05 53.82 53.82 0 0 1 3.36 7.09c1.26 3.11 2.79 5.61 3.29 6a7.65 7.65 0 0 0 3.19 1 14.91 14.91 0 0 1 3.15.64 8.62 8.62 0 0 1 1.15.44 10.61 10.61 0 0 1 3.21 2.58A13.64 13.64 0 0 0 65 148a12.79 12.79 0 0 0 2.89 1.41 33.11 33.11 0 0 1 3.61 1.42 41 41 0 0 1 3.63 2 14.27 14.27 0 0 0 3.4 1.48 13.9 13.9 0 0 0 3.68.3c.9-.07 2.76-.11 4.59-.11h1.61a47.86 47.86 0 0 1 6.2.46 38.69 38.69 0 0 1 4.14 1.07 21 21 0 0 0 3.79.8 41.69 41.69 0 0 0 7.65-1 60.17 60.17 0 0 0 7.54-1.93 28.19 28.19 0 0 0 3.27-1.7c.75-.47 4.53-3.62 9-7.55l7.68-6.78c4.49-4 7.69-7.33 8-8a10.87 10.87 0 0 0 .71-3.41 18.17 18.17 0 0 1 .59-4.08 13.29 13.29 0 0 1 1.64-3.4 7.34 7.34 0 0 0 1.07-2.5 8.36 8.36 0 0 0-.19-2.87 9.78 9.78 0 0 1-.17-3.8 10.1 10.1 0 0 1 1.6-3.48 18 18 0 0 0 1.68-2.83 15.28 15.28 0 0 0 .9-3c.15-.85.31-2.35.36-3.27s0-2.54 0-3.52a27.14 27.14 0 0 0-1.34-7.07 31.71 31.71 0 0 0-1.37-3.35 32.21 32.21 0 0 0-1.84-3.14 31.77 31.77 0 0 1-1.94-3.35 28.59 28.59 0 0 1-1.38-3.41 17.42 17.42 0 0 0-1.28-3 17.74 17.74 0 0 0-2-2.64 12.69 12.69 0 0 1-2.11-3.36 16.72 16.72 0 0 1-.92-4.19 7 7 0 0 0-1-3 6.59 6.59 0 0 0-2.59-1.77 14.39 14.39 0 0 1-2.85-1.45 9.63 9.63 0 0 1-1-.7 14.17 14.17 0 0 1-2.75-3.42 6.26 6.26 0 0 0-2.22-2.23 7.39 7.39 0 0 0-3.35-.41 11.32 11.32 0 0 1-4.46-.38 8.77 8.77 0 0 1-3.38-2.46 11.85 11.85 0 0 0-2.38-2.21 8.23 8.23 0 0 0-1.28-.62A8.32 8.32 0 0 0 111 41a10.77 10.77 0 0 0-1.28-.13 12.63 12.63 0 0 0-1.84.05zM105.53 32.84c1.42.09 2.88.15 4.11.19s2.38.05 2.79 0c.75-.05 3.46-.53 6.29-1.17a21.48 21.48 0 0 0 5.14-1.65 2.41 2.41 0 0 0 .48-1.29c0-.71.15-2.38.33-3.8a34.88 34.88 0 0 1 .7-3.87c.2-.72.59-1.88.87-2.6a4.29 4.29 0 0 0 .18-.69 4.61 4.61 0 0 0 .1-1.26 5.08 5.08 0 0 0-.75-1.82 8.09 8.09 0 0 0-1.66-1.62 10.72 10.72 0 0 0-2.38-1.1 8.1 8.1 0 0 0-2.67-.23 10.69 10.69 0 0 0-2.86.91 7.58 7.58 0 0 1-7.44-.16 17.93 17.93 0 0 0-3.21-1.3 20.13 20.13 0 0 0-3.57-.55 4.13 4.13 0 0 0-2.25.5 2.84 2.84 0 0 0-.55 1.79 26.71 26.71 0 0 0 .31 3.09 16.56 16.56 0 0 0 .69 2.51v.12a18.29 18.29 0 0 1 .73 2.5 17 17 0 0 1 .27 2.67 19.21 19.21 0 0 1-.27 2.91 32.54 32.54 0 0 1-.83 3.3 2.81 2.81 0 0 0 0 1.66 9.59 9.59 0 0 0 2.39.6c.97.18 2.02.3 3.06.36z" fill="#231f20"/><path d="M102.33 33.5a6.7 6.7 0 0 1-3-.92 3.33 3.33 0 0 1-.19-2.63 31.45 31.45 0 0 0 .8-3.18 18.4 18.4 0 0 0 .26-2.73 16.06 16.06 0 0 0-.25-2.48 17.21 17.21 0 0 0-.67-2.31l-.16-.07a5.25 5.25 0 0 0-1-.34 6.49 6.49 0 0 0-1.32-.17c-.64 0-2-.09-3.34-.21l-1.06-.1c.07.27.13.51.17.68a22.75 22.75 0 0 1 .39 2.5 48.17 48.17 0 0 1-.38 5.69c-.27 2.44-1 4.68-1.61 5a5.14 5.14 0 0 1-3.1-.11 33.85 33.85 0 0 0-3.78-1 23.34 23.34 0 0 0-3.43-.31 26.68 26.68 0 0 0-3.23.25 27.6 27.6 0 0 0-3.19.73l-.38.11a12.76 12.76 0 0 0-.56 1.18c-.09.23-.18.45-.24.65a13 13 0 0 0-.43 3.21 3.55 3.55 0 0 0 1 2.5 5.27 5.27 0 0 0 3 .6c1.12-.09 2.84-.32 3.84-.5s2.53-.54 3.45-.81a27.6 27.6 0 0 1 3.19-.73 26.68 26.68 0 0 1 3.23-.25 23.34 23.34 0 0 1 3.43.31 33.85 33.85 0 0 1 3.78 1 5.14 5.14 0 0 0 3.1.11c.59-.28 1.27-2.34 1.57-4.65v-.31c0-.1.09-.49.11-.71zM164.06 97a34.38 34.38 0 0 0-.94-3.62 32.44 32.44 0 0 0-1.42-3.47 33.13 33.13 0 0 0-1.91-3.26 30.53 30.53 0 0 1-1.87-3.22 27.36 27.36 0 0 1-1.3-3.34 18.4 18.4 0 0 0-1.37-3.21 18.71 18.71 0 0 0-2.08-2.88 11.74 11.74 0 0 1-1.91-3 15.87 15.87 0 0 1-.85-3.89 8 8 0 0 0-1.23-3.58 7.57 7.57 0 0 0-3.06-2.11 13.05 13.05 0 0 1-3.49-2 11.28 11.28 0 0 1-1.39-1.48 12.2 12.2 0 0 1-1.13-1.66 7.42 7.42 0 0 0-1.44-1.77 5.38 5.38 0 0 0-1.22-.89 5.57 5.57 0 0 0-1.37-.4 9.25 9.25 0 0 0-2.3-.12 13.34 13.34 0 0 0 2.63 1.34 7.57 7.57 0 0 1 3.06 2.11 8 8 0 0 1 1.23 3.58 15.87 15.87 0 0 0 .85 3.89 11.74 11.74 0 0 0 1.91 3.05 18.71 18.71 0 0 1 2.08 2.82 18.4 18.4 0 0 1 1.37 3.21 27.36 27.36 0 0 0 1.3 3.34 30.53 30.53 0 0 0 1.87 3.22 33.13 33.13 0 0 1 1.92 3.26 32.44 32.44 0 0 1 1.42 3.47 28.18 28.18 0 0 1 1.39 7.33c.06 1 .06 2.66 0 3.63s-.22 2.49-.37 3.39a16.22 16.22 0 0 1-1 3.19 19 19 0 0 1-1.79 3 9.1 9.1 0 0 0-1.42 3.08 8.78 8.78 0 0 0 .16 3.34 9.29 9.29 0 0 1 .21 3.29 8.3 8.3 0 0 1-1.24 2.92 12.34 12.34 0 0 0-1.5 3.09 17.31 17.31 0 0 0-.55 3.81 11.72 11.72 0 0 1-.79 3.8c-.42.94-4.13 4.69-8.25 8.33l-7.68 6.78c-4.12 3.64-8.22 7.08-9.11 7.65a29.25 29.25 0 0 1-3.4 1.8 61 61 0 0 1-7.73 2 42.3 42.3 0 0 1-7.95 1 21.86 21.86 0 0 1-4-.85 38 38 0 0 0-4-1 47 47 0 0 0-6-.44c-2.22 0-5 0-6.11.1a15.06 15.06 0 0 1-4-.32 15.24 15.24 0 0 1-3.7-1.61 40 40 0 0 0-3.52-2 32 32 0 0 0-3.48-1.37 13.82 13.82 0 0 1-3.17-1.54 14.62 14.62 0 0 1-2.6-2.48 9.63 9.63 0 0 0-2.82-2.24 8 8 0 0 0-1-.39c.2.45.41.88.62 1.31a13.5 13.5 0 0 0 2.38 3.84 8.47 8.47 0 0 0 3.34 1.17h.37a13.12 13.12 0 0 1 3.94 1 9.85 9.85 0 0 1 2.54 1.93c.12.12.22.25.32.36a14.62 14.62 0 0 0 2.6 2.48 13.82 13.82 0 0 0 3.17 1.54 32 32 0 0 1 3.48 1.37 40 40 0 0 1 3.52 2 15.24 15.24 0 0 0 3.7 1.61 15.06 15.06 0 0 0 4 .32c1.14-.09 3.89-.13 6.11-.1a47 47 0 0 1 6 .44 38 38 0 0 1 4 1 21.86 21.86 0 0 0 4 .85 42.3 42.3 0 0 0 7.95-1 61 61 0 0 0 7.73-2 29.25 29.25 0 0 0 3.4-1.8c.89-.57 5-4 9.11-7.65l7.68-6.78c4.12-3.64 7.84-7.39 8.25-8.33a11.72 11.72 0 0 0 .79-3.8 17.31 17.31 0 0 1 .55-3.81 12.34 12.34 0 0 1 1.5-3.09 8.3 8.3 0 0 0 1.24-2.92 9.29 9.29 0 0 0-.21-3.29A8.78 8.78 0 0 1 160 117a9.1 9.1 0 0 1 1.42-3.08 19 19 0 0 0 1.79-3 16.22 16.22 0 0 0 1-3.19c.15-.9.32-2.42.37-3.39s0-2.6 0-3.63a34.13 34.13 0 0 0-.52-3.71zM109.75 39.9a12 12 0 0 1 1.4.14 9.27 9.27 0 0 1 1.65.5c.75.1 1.55.18 2.37.23h.13c2.93.18 6 .27 6.9.21s3.79-.6 6.44-1.19 5.17-1.45 5.61-1.9a3.34 3.34 0 0 0 .79-2c0-.66.14-2.31.32-3.67a34.63 34.63 0 0 1 .67-3.73c.19-.69.57-1.81.84-2.5a6 6 0 0 0 .34-2.43 6 6 0 0 0-.92-2.28 9 9 0 0 0-1.92-1.88 11.62 11.62 0 0 0-2.65-1.23 9.1 9.1 0 0 0-3.08-.27h-.2a9.51 9.51 0 0 0-1.05.24 5.25 5.25 0 0 1-.23.85c-.27.69-.65 1.81-.84 2.5a34.63 34.63 0 0 0-.67 3.73c-.18 1.36-.32 3-.32 3.67a3.34 3.34 0 0 1-.79 2c-.44.45-3 1.31-5.61 1.9s-5.55 1.13-6.44 1.19h-2.89c-.06.29-.14.64-.23 1-.16.65-.34 1.34-.51 1.87a4 4 0 0 0-.08 2 1.7 1.7 0 0 0 .27.64 1.65 1.65 0 0 0 .7.41z" fill="#231f20"/></svg>