<svg xmlns="http://www.w3.org/2000/svg" width="128.03" height="200" viewBox="0 0 128.03 200"><title>_</title><path d="M27.77 29.09a11.61 11.61 0 0 0-.37 2.76 2.39 2.39 0 0 0 .45 1.32 4.42 4.42 0 0 0 2 .3c1.08-.09 2.73-.31 3.69-.48.8-.14 2-.42 2.88-.67l.35-.1a28.93 28.93 0 0 1 3.4-.77 28.22 28.22 0 0 1 3.45-.27 25.36 25.36 0 0 1 3.69.34 35.77 35.77 0 0 1 4 1 4.78 4.78 0 0 0 1.82.21 12.78 12.78 0 0 0 .93-3.8 48.89 48.89 0 0 0 .38-5.39 21.17 21.17 0 0 0-.36-2.3c0-.16-.09-.37-.16-.62-.23-.83-.57-2-.88-2.92a6.49 6.49 0 0 0-1.19-2.23 5 5 0 0 0-1.8-.38c-.91 0-3.13-.17-5-.35a53.69 53.69 0 0 1-6.71-1.22 20 20 0 0 0-4.08-.65h-.16a8.51 8.51 0 0 0-2.51.81 12 12 0 0 0-2.13 1.53 5.83 5.83 0 0 0-1 1.53 3.68 3.68 0 0 0-.14 1.47 6.28 6.28 0 0 0 .81 1.86 6.52 6.52 0 0 1 1 3.38 6.78 6.78 0 0 1-1.23 3.35 9.64 9.64 0 0 0-1.13 2.29zM15.2 142.54a7.17 7.17 0 0 0 2.93.93 15.42 15.42 0 0 1 3.27.66 9.05 9.05 0 0 1 1.22.47 11 11 0 0 1 3.38 2.72 13.21 13.21 0 0 0 2.28 2.17 12.38 12.38 0 0 0 2.72 1.34 33.75 33.75 0 0 1 3.67 1.44 41.94 41.94 0 0 1 3.68 2 13.86 13.86 0 0 0 3.26 1.42 13.44 13.44 0 0 0 3.52.29c.9-.07 2.71-.11 4.63-.11h1.61a48.24 48.24 0 0 1 6.29.47 39 39 0 0 1 4.2 1.09 20.38 20.38 0 0 0 3.68.78 40.66 40.66 0 0 0 7.51-1 61.22 61.22 0 0 0 7.44-1.9 27.57 27.57 0 0 0 3.19-1.69c.71-.45 4.55-3.65 8.92-7.51l7.68-6.78c4.64-4.1 7.64-7.32 7.88-7.83a10.42 10.42 0 0 0 .66-3.2 18.78 18.78 0 0 1 .61-4.21 13.88 13.88 0 0 1 1.72-3.55 6.84 6.84 0 0 0 1-2.29 7.89 7.89 0 0 0-.18-2.65 10.19 10.19 0 0 1-.18-4 10.52 10.52 0 0 1 1.69-3.69 17.71 17.71 0 0 0 1.63-2.74 14.94 14.94 0 0 0 .87-2.83c.14-.83.3-2.3.35-3.21s0-2.5 0-3.47a26.64 26.64 0 0 0-1.33-6.92 31.09 31.09 0 0 0-1.34-3.28 31.54 31.54 0 0 0-1.8-3.08 32.31 32.31 0 0 1-2-3.41 29.11 29.11 0 0 1-1.39-3.56 16.8 16.8 0 0 0-1.24-2.89 17.13 17.13 0 0 0-1.86-2.52 13.27 13.27 0 0 1-2.2-3.52 17.29 17.29 0 0 1-1-4.34 6.52 6.52 0 0 0-.93-2.79 6.08 6.08 0 0 0-2.36-1.6 14.92 14.92 0 0 1-3-1.5 10.05 10.05 0 0 1-1-.74 14.75 14.75 0 0 1-2.87-3.57 5.76 5.76 0 0 0-2-2 6.91 6.91 0 0 0-3.01-.41 11.7 11.7 0 0 1-4.69-.41 9.19 9.19 0 0 1-3.61-2.62 11.44 11.44 0 0 0-2.26-2.1 7.76 7.76 0 0 0-1.2-.58 7.92 7.92 0 0 0-1.37-.42 10.47 10.47 0 0 0-1.21-.12 12.75 12.75 0 0 0-1.74 0 15.66 15.66 0 0 0-3.08.75 14 14 0 0 1-3.92.79 11.87 11.87 0 0 1-3.83-.65 24.9 24.9 0 0 0-3.19-.87 32.92 32.92 0 0 0-3.64-.42 16.08 16.08 0 0 0-3.57.3 17.11 17.11 0 0 0-3.44 1.26 15.32 15.32 0 0 1-4.43 1.37 17.45 17.45 0 0 1-4.8-.25 11.34 11.34 0 0 0-3.56-.1A24.19 24.19 0 0 0 27.8 49c-2.37 1.87-4.94 4-5.6 4.68s-1.71 1.86-2.3 2.6a18.46 18.46 0 0 1-2.9 2.89 21.18 21.18 0 0 1-3.64 2.11 14.3 14.3 0 0 0-2.89 1.78 12.65 12.65 0 0 0-2.09 2.46c-.51.83-2.42 4.76-4.17 8.57C2.28 78.27.7 82.06.44 83a36.28 36.28 0 0 0-.85 3.86 21.79 21.79 0 0 0-.17 3.81 22.88 22.88 0 0 0 .66 3.84 19.6 19.6 0 0 1 .65 4.33 14.37 14.37 0 0 1-.62 4 5.12 5.12 0 0 0-.11 2.27 7 7 0 0 0 1.44 2.34 10.42 10.42 0 0 1 2.21 3.63 8.62 8.62 0 0 1 0 4.09 19.19 19.19 0 0 0-.51 3.07 17.14 17.14 0 0 0 .13 3 10.48 10.48 0 0 0 .9 2.67 14.6 14.6 0 0 0 1.92 2.6 31.62 31.62 0 0 1 2.58 3.13 53.52 53.52 0 0 1 3.41 7.19 22 22 0 0 0 3.12 5.71zM68.57 34.22c1.41.09 2.87.15 4.1.19s2.35.06 2.73 0c.72 0 3.45-.54 6.22-1.16a22.21 22.21 0 0 0 4.95-1.56 2.28 2.28 0 0 0 .29-.9c0-.72.15-2.42.33-3.86a35.45 35.45 0 0 1 .72-3.93c.2-.73.6-1.92.88-2.64a3.72 3.72 0 0 0 .16-.6 4.16 4.16 0 0 0 .1-1.1 4.62 4.62 0 0 0-.66-1.59 7.61 7.61 0 0 0-1.54-1.5 10.3 10.3 0 0 0-2.24-1 7.7 7.7 0 0 0-2.47-.22 10.25 10.25 0 0 0-2.69.86 9.87 9.87 0 0 1-4 1A9.92 9.92 0 0 1 71.53 15a17.29 17.29 0 0 0-3.1-1.25 19.56 19.56 0 0 0-3.43-.52 4 4 0 0 0-1.9.38 2.6 2.6 0 0 0-.41 1.39 26.08 26.08 0 0 0 .31 3 16.23 16.23 0 0 0 .67 2.42v.13a18.72 18.72 0 0 1 .75 2.58 17.54 17.54 0 0 1 .28 2.76 19.82 19.82 0 0 1-.28 3 33.1 33.1 0 0 1-.84 3.36 2.61 2.61 0 0 0-.07 1.14 11.69 11.69 0 0 0 2.05.48c.95.13 1.98.28 3.01.35z"/><path d="M36.65 41.31a5.27 5.27 0 0 0 3 .6c1.12-.09 2.84-.32 3.84-.5s2.52-.54 3.4-.81a27.65 27.65 0 0 1 3.19-.73 26.73 26.73 0 0 1 3.23-.25 23.37 23.37 0 0 1 3.43.31 34 34 0 0 1 3.78 1 5.14 5.14 0 0 0 3.1.11c.59-.28 1.27-2.34 1.57-4.65v-.31c0-.1 0-.45.07-.68a6.7 6.7 0 0 1-3-.92 3.33 3.33 0 0 1-.19-2.63 31.43 31.43 0 0 0 .8-3.18 18.4 18.4 0 0 0 .26-2.73 16.07 16.07 0 0 0-.13-2.5 17.2 17.2 0 0 0-.67-2.31l-.16-.07a5.26 5.26 0 0 0-1-.34 6.51 6.51 0 0 0-1.32-.17c-.64 0-2-.09-3.34-.21l-1.06-.1c.07.27.13.5.17.68a22.74 22.74 0 0 1 .39 2.5 48.17 48.17 0 0 1-.38 5.69c-.27 2.44-1 4.68-1.61 5a5.14 5.14 0 0 1-3.1-.11 34 34 0 0 0-3.78-1 23.37 23.37 0 0 0-3.43-.31 26.73 26.73 0 0 0-3.23.25 27.65 27.65 0 0 0-3.19.73l-.38.11a12.73 12.73 0 0 0-.63 1.22c-.09.23-.18.45-.24.65a13 13 0 0 0-.43 3.21 3.55 3.55 0 0 0 1.04 2.45zM127.07 98.84a34.38 34.38 0 0 0-.94-3.62 32.46 32.46 0 0 0-1.42-3.47 33.1 33.1 0 0 0-1.91-3.26 30.53 30.53 0 0 1-1.87-3.22 27.38 27.38 0 0 1-1.3-3.34 18.4 18.4 0 0 0-1.37-3.21 18.69 18.69 0 0 0-2.08-2.82 11.74 11.74 0 0 1-1.91-3.05 15.87 15.87 0 0 1-.85-3.89 8 8 0 0 0-1.23-3.58 7.58 7.58 0 0 0-3.06-2.11 13 13 0 0 1-3.49-2 11.28 11.28 0 0 1-1.39-1.48 12.19 12.19 0 0 1-1.13-1.66 7.43 7.43 0 0 0-1.44-1.77 5.38 5.38 0 0 0-1.22-.89 5.56 5.56 0 0 0-1.37-.4 9.23 9.23 0 0 0-2.3-.12 13.34 13.34 0 0 0 2.63 1.34 7.58 7.58 0 0 1 3.06 2.11 8 8 0 0 1 1.23 3.6 15.87 15.87 0 0 0 .85 3.89 11.74 11.74 0 0 0 1.91 3.05 18.69 18.69 0 0 1 2.08 2.82 18.4 18.4 0 0 1 1.38 3.24 27.38 27.38 0 0 0 1.3 3.34 30.53 30.53 0 0 0 1.87 3.22 33.1 33.1 0 0 1 1.9 3.24 32.46 32.46 0 0 1 1.42 3.47 28.19 28.19 0 0 1 1.39 7.33c.06 1 .06 2.66 0 3.63s-.22 2.49-.37 3.39a16.22 16.22 0 0 1-1 3.19 19 19 0 0 1-1.79 3 9.1 9.1 0 0 0-1.42 3.08 8.78 8.78 0 0 0 .16 3.34 9.29 9.29 0 0 1 .21 3.29 8.3 8.3 0 0 1-1.24 2.92 12.34 12.34 0 0 0-1.5 3.09 17.31 17.31 0 0 0-.55 3.81 11.73 11.73 0 0 1-.79 3.8c-.42.94-4.13 4.69-8.25 8.33l-7.68 6.78c-4.12 3.64-8.22 7.08-9.11 7.65a29.25 29.25 0 0 1-3.4 1.8 60.94 60.94 0 0 1-7.73 2 42.3 42.3 0 0 1-7.95 1 21.84 21.84 0 0 1-4-.85 37.92 37.92 0 0 0-4-1 47 47 0 0 0-6-.44c-2.22 0-5 0-6.11.1a15.05 15.05 0 0 1-4-.32 15.23 15.23 0 0 1-3.7-1.61 40 40 0 0 0-3.52-2 31.9 31.9 0 0 0-3.48-1.37 13.82 13.82 0 0 1-3.17-1.54 14.62 14.62 0 0 1-2.6-2.48 9.63 9.63 0 0 0-2.82-2.24 8.05 8.05 0 0 0-1-.39c.2.45.41.88.62 1.31A13.5 13.5 0 0 0 24 150.7a8.48 8.48 0 0 0 3.33 1.16h.37a13.11 13.11 0 0 1 3.94 1 9.85 9.85 0 0 1 2.54 1.93c.12.12.22.25.32.36a14.62 14.62 0 0 0 2.6 2.48 13.82 13.82 0 0 0 3.17 1.54 31.9 31.9 0 0 1 3.48 1.37 40 40 0 0 1 3.52 2 15.23 15.23 0 0 0 3.7 1.61 15.05 15.05 0 0 0 4 .32c1.14-.09 3.89-.13 6.11-.1a47 47 0 0 1 6 .44 37.92 37.92 0 0 1 4 1 21.84 21.84 0 0 0 4 .85 42.3 42.3 0 0 0 7.95-1 60.94 60.94 0 0 0 7.73-2 29.25 29.25 0 0 0 3.4-1.8c.89-.57 5-4 9.11-7.65l7.68-6.78c4.12-3.64 7.84-7.39 8.25-8.33a11.73 11.73 0 0 0 .79-3.8 17.31 17.31 0 0 1 .55-3.81 12.34 12.34 0 0 1 1.5-3.09 8.3 8.3 0 0 0 1.24-2.92 9.29 9.29 0 0 0-.21-3.29 8.78 8.78 0 0 1-.16-3.34 9.1 9.1 0 0 1 1.42-3.08 19 19 0 0 0 1.79-3 16.22 16.22 0 0 0 1-3.19c.15-.9.32-2.42.37-3.39s0-2.6 0-3.63a34.13 34.13 0 0 0-.42-3.72zM72.07 41.4a1.65 1.65 0 0 0 .69.38 12 12 0 0 1 1.4.14 9.3 9.3 0 0 1 1.65.5c.75.1 1.55.18 2.37.23h.13c2.93.18 6 .27 6.9.21s3.79-.6 6.44-1.19 5.17-1.45 5.61-1.9a3.35 3.35 0 0 0 .79-2c0-.66.14-2.31.32-3.67a34.62 34.62 0 0 1 .67-3.73c.19-.69.57-1.81.84-2.5a6 6 0 0 0 .34-2.43 6 6 0 0 0-.92-2.28 9 9 0 0 0-1.92-1.88A11.62 11.62 0 0 0 94.75 20a9.1 9.1 0 0 0-3.08-.27h-.2a9.45 9.45 0 0 0-1.05.24 5.25 5.25 0 0 1-.23.85c-.27.69-.65 1.81-.84 2.5a34.62 34.62 0 0 0-.67 3.73c-.18 1.36-.32 3-.32 3.67a3.35 3.35 0 0 1-.79 2c-.44.45-3 1.31-5.61 1.9s-5.55 1.13-6.44 1.19h-2.89c-.06.29-.14.64-.23 1-.16.65-.34 1.34-.51 1.87a4 4 0 0 0-.08 2 1.71 1.71 0 0 0 .26.72z"/></svg>