<svg xmlns="http://www.w3.org/2000/svg" width="82.85" height="200" viewBox="0 0 82.85 200"><title>_</title><path d="M69.49 87.26a26.15 26.15 0 0 0-2-2.27A13.63 13.63 0 0 0 66 83.78a21.54 21.54 0 0 1-1.89-1.4 16 16 0 0 1-1.47-1.46h-.37a11 11 0 0 0-2.5 1.38 40.83 40.83 0 0 0-3.31 2.74 42.91 42.91 0 0 0-3 3.2c-.87 1-4.47 4.52-8.2 7.9a49.8 49.8 0 0 1-7.37 5.75 3.26 3.26 0 0 1-1.71.55c-1.8-.07-7.28-5.27-9.55-7.5l-5-4.93c-1-1-2.09-2-3.09-3-2.77-2.65-5.08-4.77-5.75-5.26a8.94 8.94 0 0 0-2.46-1.33.29.29 0 0 0-.29.08 9.66 9.66 0 0 1-1.62 1.94 11.29 11.29 0 0 1-2.22 1.49c-.53.26-1.4.73-1.89 1S3 85.82 2.6 86.16a14.35 14.35 0 0 0-1.44 1.35 15.44 15.44 0 0 0-1.22 1.63 1.59 1.59 0 0 0 0 .94 77.49 77.49 0 0 0 7.58 7.42l2.38 2.15C14 103.36 18.87 108 20.7 110c.15.17 3.71 4.09 3.44 6.42a7.11 7.11 0 0 1-2.75 4.18c-.91.68-4.43 4.08-8.23 8.06-3.58 3.75-8.22 8.23-10.34 10a23.84 23.84 0 0 0-3.64 3.55.63.63 0 0 0 .21.26 18.12 18.12 0 0 1 2.38 1.86 31.64 31.64 0 0 1 3 3.93 32.41 32.41 0 0 0 2.53 3.42 21.39 21.39 0 0 0 1.82 1.54 1.85 1.85 0 0 0 1.15.17c.08-.05.27-.19.64-.49a87.72 87.72 0 0 0 7-6.84l8.83-9.41c1.21-1.29 7.33-7.7 9.45-8a7.25 7.25 0 0 1 4.67 1.6c1.08.85 2.72 2.31 3.67 3.26.67.67 1.63 1.73 2.44 2.69.28.34.54.66.75.93.75 1 4.26 4.8 7.67 8.38a72 72 0 0 0 7.11 6.82 1 1 0 0 0 .5 0 19.16 19.16 0 0 0 1.43-1.33c.28-.31 1.37-1.77 2.51-3.45a27.33 27.33 0 0 1 3-3.86 13.21 13.21 0 0 1 2.07-1.4 10.79 10.79 0 0 0-1.64-1.37 45.61 45.61 0 0 1-3.9-3c-1-.9-4.72-5-8.41-9.28l-1.88-2.19c-.7-.81-6.84-8-7-10.12a7.78 7.78 0 0 1 1.38-4.52 33.26 33.26 0 0 1 3-3.65 35.58 35.58 0 0 1 3.69-3.16 32.2 32.2 0 0 0 3.31-2.86 32.54 32.54 0 0 0 2.8-3.38c.77-1.1 2.08-2.78 2.92-3.75s2.29-2.44 3.22-3.28a10.63 10.63 0 0 0 1.79-2.06.4.4 0 0 0 0-.13c-.42-.46-1.16-1.38-1.57-1.9z"/><path d="M64.37 116.09a33.63 33.63 0 0 1 3.47-3 33.66 33.66 0 0 0 3.5-3 33.92 33.92 0 0 0 3-3.57c.74-1.06 2-2.68 2.82-3.62s2.21-2.35 3.1-3.16a11.46 11.46 0 0 0 2.13-2.51 1.59 1.59 0 0 0-.08-1.66c-.32-.34-1.17-1.37-1.89-2.29a27.11 27.11 0 0 0-2.11-2.44 15 15 0 0 0-1.77-1.39 19.92 19.92 0 0 1-1.73-1.28 14.27 14.27 0 0 1-1.37-1.36 1.8 1.8 0 0 0-1.44-.43 2.09 2.09 0 0 0-.36 0 4.51 4.51 0 0 0-.68.25c.65.82 1.34 1.66 1.62 2a1.59 1.59 0 0 1 .08 1.66 11.46 11.46 0 0 1-2.13 2.51c-.89.81-2.28 2.23-3.1 3.16s-2.08 2.56-2.82 3.62a33.92 33.92 0 0 1-3 3.57 33.66 33.66 0 0 1-3.5 3 33.63 33.63 0 0 0-3.47 3 31.51 31.51 0 0 0-2.85 3.45 6.45 6.45 0 0 0-1.12 3.53c.08.93 3.09 5.11 6.67 9.28l1.88 2.19c3.59 4.17 7.31 8.28 8.27 9.14a44.2 44.2 0 0 0 3.74 2.9 8.34 8.34 0 0 1 2.42 2.3 1.24 1.24 0 0 1-.7 1.52 11.77 11.77 0 0 0-2 1.32 26.29 26.29 0 0 0-2.78 3.56c-1 1.54-2.24 3.17-2.65 3.62a19.42 19.42 0 0 1-1.52 1.49v.05l.64.67c3.26 3.38 6.29 6.22 6.91 6.47a2.26 2.26 0 0 0 2.06-.22 19.36 19.36 0 0 0 1.6-1.51c.41-.45 1.6-2.08 2.65-3.62a26.29 26.29 0 0 1 2.78-3.56 11.77 11.77 0 0 1 2-1.32 1.24 1.24 0 0 0 .7-1.52 8.34 8.34 0 0 0-2.42-2.3 44.2 44.2 0 0 1-3.74-2.9c-1-.85-4.69-5-8.27-9.14l-1.88-2.19c-3.59-4.17-6.59-8.34-6.67-9.28a6.45 6.45 0 0 1 1.12-3.53 31.51 31.51 0 0 1 2.89-3.46zM27.68 93.89c3.92 3.86 7.77 7 8.56 7.07a2.27 2.27 0 0 0 .91-.36l-.75-.74-4-4c-3.92-3.86-8-7.63-9-8.39a12.81 12.81 0 0 0-2-1.21 4.76 4.76 0 0 0-1.06-.39 1.8 1.8 0 0 0-.74 0c1 1 2.06 2 3.1 3zM28.73 154l8.83-9.41a60 60 0 0 1 7.44-6.88 5.34 5.34 0 0 1 .87-.52c-.75-.9-1.68-1.93-2.35-2.6-.91-.91-2.5-2.32-3.53-3.14a5.88 5.88 0 0 0-3.57-1.28c-.93.11-4.77 3.48-8.53 7.49L19 147a89.26 89.26 0 0 1-7.18 7l.58.81c.27.38.54.77.8 1.16a32.5 32.5 0 0 0 2.73 3.66 23 23 0 0 0 2 1.68 3.22 3.22 0 0 0 2.53.38c.77-.21 4.54-3.69 8.27-7.69z"/></svg>