<svg xmlns="http://www.w3.org/2000/svg" width="124.45" height="200" viewBox="0 0 124.45 200"><title>_</title><path d="M1.42 109.25a14.35 14.35 0 0 1 2.11 3.92 10.26 10.26 0 0 1 .26 4.13 20.26 20.26 0 0 0-.26 3.11 18.64 18.64 0 0 0 .34 3 7 7 0 0 0 1 2.25 8 8 0 0 0 2 1.66A8.51 8.51 0 0 1 9.86 130a8 8 0 0 1 1 3.76 9 9 0 0 0 .4 2.52 6.06 6.06 0 0 0 1.15 1.72 28.35 28.35 0 0 0 2.18 1.85c.69.52 2 1.4 2.83 1.92.23.14 2.27 1.44 2.4 3 .11 1.32-1.1 2.42-2.35 2.93a9 9 0 0 0-2 1.21 5.12 5.12 0 0 0-1 1.44c-.28.67-.77 1.71-1.11 2.32s-.95 1.58-1.36 2.15a13.42 13.42 0 0 0-1 1.68 10.18 10.18 0 0 0-.57 1.63c-.11.47-.24 1.26-.29 1.69a13.39 13.39 0 0 0-.06 1.49 2.46 2.46 0 0 0 .2.75 2.68 2.68 0 0 0 .59.6 4.1 4.1 0 0 0 1.07.44 6.55 6.55 0 0 0 1.51.07 10.67 10.67 0 0 1 2.18.05 4.93 4.93 0 0 1 1.79.67 1 1 0 0 0 .23 0 3.14 3.14 0 0 0 .48-.12 6.14 6.14 0 0 0 .76-.28 6.43 6.43 0 0 0 1.39-.93 7.32 7.32 0 0 0 1.08-1.4 15.3 15.3 0 0 1 3.27-4 9.26 9.26 0 0 0 1.28-1.46 9.49 9.49 0 0 0 .85-1.77 4.41 4.41 0 0 1 2.12-2.47 6.18 6.18 0 0 1 3.34-.24 12.13 12.13 0 0 1 3.41 1.35 17.93 17.93 0 0 1 3.1 2.56 8.33 8.33 0 0 0 2.51 1.7 9.07 9.07 0 0 0 3.14.38c1.22-.1 6 0 10.9.22 5.1.23 9.47.28 10.35.18a21.82 21.82 0 0 0 3.57-.78c.88-.29 4.52-1.92 8.56-3.89 3.81-1.86 7.71-3.68 8.7-4a31.54 31.54 0 0 1 3.83-1.08A23.68 23.68 0 0 0 97 145.4a19.4 19.4 0 0 0 2.83-2 19.88 19.88 0 0 0 2.36-2.57 16 16 0 0 0 1.67-3 17.85 17.85 0 0 0 .87-3.51 22.83 22.83 0 0 1 1-4.17 18.85 18.85 0 0 1 1.87-3.64 26.28 26.28 0 0 0 1.67-2.83 46.24 46.24 0 0 0 1.78-5.83 51.5 51.5 0 0 0 1.19-5.9 22.67 22.67 0 0 0-.08-2.93c-.1-.93-.18-2.42-.19-3.32s0-2.39.12-3.28a18 18 0 0 1 .73-3.49 23 23 0 0 1 1.58-3.48 6.21 6.21 0 0 0 .73-2.42 5.36 5.36 0 0 0-.69-2.21 16.55 16.55 0 0 1-1.56-3.35 14.69 14.69 0 0 1-.55-3.55A20 20 0 0 0 112 81a19.18 19.18 0 0 0-.78-2.72c-.29-.75-1.13-2.58-1.83-4s-1.63-3.1-2-3.72-2.41-3.12-4.76-6c-1.7-2-4.38-5.57-4.81-6.9-.51-1.56.58-4 1.81-5.69a40.43 40.43 0 0 1 3.08-3.76 15.18 15.18 0 0 1 2.07-1.56A6.22 6.22 0 0 0 106 45.6a5.08 5.08 0 0 0 .67-1.36v-.13a6.68 6.68 0 0 1-1.25-.13 5.48 5.48 0 0 1-.89-.23 6.44 6.44 0 0 1-1.95-1.23 6.35 6.35 0 0 1-1.37-2.24 12.17 12.17 0 0 1-.51-2.89 3.74 3.74 0 0 0-.39-1.44 1.92 1.92 0 0 0-.85-.45 3 3 0 0 0-1.27.1 3.57 3.57 0 0 0-1.05.92c-.38.52-1.19 1.82-1.78 2.84s-1.46 2.76-1.92 3.84a33 33 0 0 1-1.55 3.18 18.65 18.65 0 0 1-1.47 2 3.66 3.66 0 0 1-3.37 1.13 9.47 9.47 0 0 1-3.44-1.94A10.3 10.3 0 0 0 80.72 46a10.09 10.09 0 0 0-3.3-.27 27 27 0 0 1-4.33.09A24 24 0 0 1 69 45c-1-.29-3.53-.87-5.59-1.26a28.06 28.06 0 0 0-5.46-.56 19.48 19.48 0 0 0-3.59.72c-1.34.43-7.21 1.49-12.05 2.27l-3.55.57A92.85 92.85 0 0 0 27.62 49a40.48 40.48 0 0 0-5.47 4.24 44.57 44.57 0 0 0-4.92 4.92 18.87 18.87 0 0 0-1.54 3 13.14 13.14 0 0 1-2.26 3.61 15 15 0 0 1-3.55 2.61 6.92 6.92 0 0 0-2.21 1.89 6.29 6.29 0 0 0-.73 2.69c0 1.15-.13 3-.26 4.12-.15 1.28-1.5 7-2.72 11.84L2 95.48c-1.51 6-2.14 10.31-2 10.86a9.12 9.12 0 0 0 1.42 2.91z"/><path d="M123.95 93.88a13.17 13.17 0 0 1-.48-3.12 21.2 21.2 0 0 0-.3-3.11 20.63 20.63 0 0 0-.85-3c-.31-.8-1.16-2.66-1.89-4.12s-1.69-3.21-2.14-3.88-2.63-3.4-4.85-6.08a36.36 36.36 0 0 1-4.53-6.4c-.27-.85.44-2.79 1.58-4.33a39.89 39.89 0 0 1 2.9-3.56 13.77 13.77 0 0 1 1.83-1.38 7.44 7.44 0 0 0 1.66-1.45 6.4 6.4 0 0 0 .94-1.88 2.36 2.36 0 0 0 0-1.56 1.6 1.6 0 0 0-1.27-.48 5.51 5.51 0 0 1-1.73-.26 3.94 3.94 0 0 1-2.42-2.54 10.9 10.9 0 0 1-.43-2.47 4.89 4.89 0 0 0-.69-2.27 3.26 3.26 0 0 0-1.79-1 4.44 4.44 0 0 0-2.12.2 3.41 3.41 0 0 0-.68.43 5.3 5.3 0 0 0-.93.91 5.52 5.52 0 0 0 1.09.1 1.6 1.6 0 0 1 1.27.48 2.36 2.36 0 0 1 0 1.56 6.4 6.4 0 0 1-.94 1.88 7.44 7.44 0 0 1-1.67 1.45 13.77 13.77 0 0 0-1.83 1.38 39.89 39.89 0 0 0-2.9 3.56c-1.14 1.54-1.86 3.49-1.58 4.33a36.36 36.36 0 0 0 4.53 6.4c2.22 2.68 4.4 5.41 4.85 6.08s1.41 2.41 2.14 3.88 1.58 3.32 1.89 4.13a20.63 20.63 0 0 1 .85 3 21.2 21.2 0 0 1 .3 3.11 13.17 13.17 0 0 0 .48 3.12 15.08 15.08 0 0 0 1.39 3 6.7 6.7 0 0 1 .92 3 7.69 7.69 0 0 1-.93 3.16 21.67 21.67 0 0 0-1.45 3.21 16.48 16.48 0 0 0-.66 3.15c-.07.86-.12 2.27-.12 3.14s.09 2.3.19 3.18a24.07 24.07 0 0 1 .08 3.17 51.51 51.51 0 0 1-1.23 6.18 46.6 46.6 0 0 1-1.88 6.13 27.62 27.62 0 0 1-1.78 3 17.47 17.47 0 0 0-1.7 3.3 21.08 21.08 0 0 0-.9 3.84 19.39 19.39 0 0 1-1 3.87 17.6 17.6 0 0 1-1.86 3.38 21.52 21.52 0 0 1-2.58 2.81 21 21 0 0 1-3.1 2.17 25.17 25.17 0 0 1-7.13 2.61 30 30 0 0 0-3.61 1c-.95.35-4.8 2.14-8.56 4s-7.7 3.63-8.75 4a23.6 23.6 0 0 1-3.86.84c-1.07.12-5.84 0-10.59-.17s-9.57-.31-10.7-.22a10.52 10.52 0 0 1-3.78-.47 9.75 9.75 0 0 1-3.08-2.08 16.43 16.43 0 0 0-2.79-2.31 10.78 10.78 0 0 0-2.92-1.16 4.83 4.83 0 0 0-2.43.14 3 3 0 0 0-1.32 1.58 10.87 10.87 0 0 1-1 2.12 10.59 10.59 0 0 1-1.54 1.76 17.05 17.05 0 0 0-1.64 1.68 16.55 16.55 0 0 0-1.31 1.93 8.85 8.85 0 0 1-1.36 1.76 8 8 0 0 1-1.79 1.2 7.61 7.61 0 0 1-1 .35c-.07.36-.13.75-.18 1.08v.29a14.44 14.44 0 0 0-.07 1.7 3.72 3.72 0 0 0 .4 1.45 4 4 0 0 0 1.07 1.1 5.53 5.53 0 0 0 1.58.65 8.16 8.16 0 0 0 1.95.1 9.39 9.39 0 0 1 1.82 0 3.37 3.37 0 0 1 1.21.45 2 2 0 0 0 1.18.26 6.67 6.67 0 0 0 1.73-.53 8 8 0 0 0 1.79-1.2 8.85 8.85 0 0 0 1.36-1.76 16.55 16.55 0 0 1 1.31-1.93 17.05 17.05 0 0 1 1.63-1.69 10.59 10.59 0 0 0 1.54-1.76 10.87 10.87 0 0 0 1-2.12 3 3 0 0 1 1.32-1.58 4.83 4.83 0 0 1 2.43-.14 10.78 10.78 0 0 1 2.92 1.16 16.43 16.43 0 0 1 2.79 2.31 9.75 9.75 0 0 0 3.08 2.08 10.52 10.52 0 0 0 3.78.47c1.14-.09 6 0 10.7.22s9.52.29 10.59.17a23.6 23.6 0 0 0 3.86-.84c1.05-.34 5-2.13 8.75-4s7.62-3.63 8.56-4a30 30 0 0 1 3.61-1 25.17 25.17 0 0 0 7.13-2.61 21 21 0 0 0 3.1-2.17 21.52 21.52 0 0 0 2.58-2.81 17.6 17.6 0 0 0 1.86-3.38 19.39 19.39 0 0 0 1-3.87 21.08 21.08 0 0 1 .9-3.84 17.47 17.47 0 0 1 1.7-3.3 27.62 27.62 0 0 0 1.78-3 46.6 46.6 0 0 0 1.88-6.13 51.51 51.51 0 0 0 1.23-6.18 24.07 24.07 0 0 0-.08-3.17c-.09-.88-.18-2.31-.19-3.18s0-2.28.12-3.14a16.48 16.48 0 0 1 .66-3.15 21.67 21.67 0 0 1 1.45-3.21 7.69 7.69 0 0 0 .93-3.16 6.7 6.7 0 0 0-.92-3 15.08 15.08 0 0 1-1.36-3z"/></svg>