<svg xmlns="http://www.w3.org/2000/svg" width="114.85" height="200" viewBox="0 0 114.85 200"><title>_</title><path d="M29.6 20a12.29 12.29 0 0 0 2.4 3 12.45 12.45 0 0 0 3.39 1.87 22.84 22.84 0 0 1 3.4 1.5c.39.21.74.42 1 .61a20.2 20.2 0 0 1 3.6 3.18 7.06 7.06 0 0 0 2.17 1.71 2.49 2.49 0 0 0 1.52-.17 7.79 7.79 0 0 1 3.34-.9h.1a7.74 7.74 0 0 1 3.4 1.08 10.29 10.29 0 0 0 2.22 1 7.42 7.42 0 0 0 2.11.18C59 33 61.07 33 62.78 33a8.35 8.35 0 0 0 1.62-.11 5 5 0 0 0-.4-.69c-.54-.84-2-2.79-3.17-4.27a44.62 44.62 0 0 1-3.2-4.48 23.5 23.5 0 0 1-1.5-3.45l-.06-.16a15.77 15.77 0 0 0-1.29-2.67 16.06 16.06 0 0 0-2-2.43 5.33 5.33 0 0 0-2.21-1.12 7.71 7.71 0 0 0-3 .4 15.85 15.85 0 0 1-4.57.82 15.68 15.68 0 0 1-4.58-.84 26.68 26.68 0 0 0-3.77-1c-.91-.16-4.6-.35-8.64-.38-1.48 0-2.65 0-3.52.07a25.69 25.69 0 0 1 4 3.12A19.85 19.85 0 0 1 29.6 20zM5.12 135.91a25.85 25.85 0 0 1 1.14 3.31 10.13 10.13 0 0 0 1.06 2.45 9.68 9.68 0 0 0 1.8 1.89 23.79 23.79 0 0 1 2.62 2.36 26 26 0 0 1 2.26 2.85 14.24 14.24 0 0 0 1.88 2.23 13.19 13.19 0 0 0 2.37 1.6 28 28 0 0 0 2.85 1.19c.29.1.65.21 1 .31.73.2 1.46.38 1.95.47.83.16 3.21.42 5.2.56s4.73.46 5.85.69a32.73 32.73 0 0 1 4 1.13c1 .36 3.51 1.05 5.55 1.52a48.91 48.91 0 0 0 5.63 1c1.06.07 2.81.09 3.9 0A26.61 26.61 0 0 0 58 159a28.14 28.14 0 0 0 3.73-1.19c1-.42 3.52-1.7 5.46-2.79a41.39 41.39 0 0 1 5.66-2.71 14.88 14.88 0 0 1 3.83-.61 9.61 9.61 0 0 0 2.62-.43 25.42 25.42 0 0 0 4.44-3.38 45.57 45.57 0 0 1 5.17-4.16 22.41 22.41 0 0 1 3.42-1.51 5.86 5.86 0 0 0 2.08-1.22 5.27 5.27 0 0 0 .9-2.08 18.77 18.77 0 0 1 1-3.54 17.24 17.24 0 0 1 1.69-3.17 14.35 14.35 0 0 0 1.41-2.59 19.7 19.7 0 0 0 .88-3.26 61.06 61.06 0 0 1 1.53-6 34.94 34.94 0 0 0 1.25-5.44 16.32 16.32 0 0 0-.21-3.52 19 19 0 0 1 .3-8.54 26.34 26.34 0 0 0 .65-3.66 25 25 0 0 0 0-3.65 30.47 30.47 0 0 0-.63-3.7 34.06 34.06 0 0 0-1.18-3.68 25.34 25.34 0 0 1-1.24-4.17 22.53 22.53 0 0 1-.25-4.26 25.75 25.75 0 0 1 .66-4.21 29.74 29.74 0 0 1 1.51-4.17 12.53 12.53 0 0 0 .94-3.41 11.31 11.31 0 0 0-.37-3.36c-.33-1.11-1-3.81-1.38-6a46.72 46.72 0 0 1-.81-6.12c0-.6 0-1.45.07-2.33 0-.64.1-1.26.16-1.75a3.38 3.38 0 0 0-.42-2 5.55 5.55 0 0 0-2.4-1.23 22.7 22.7 0 0 0-4.14-.47 22.23 22.23 0 0 0-4.18.53 26.68 26.68 0 0 1-4.87.63 26.9 26.9 0 0 1-4.88-.48 21.37 21.37 0 0 0-4.11-.39 19.27 19.27 0 0 0-3.91.6A9.34 9.34 0 0 0 69.47 47a7.88 7.88 0 0 0-1.69 2.53 8.17 8.17 0 0 0-.36 3.14 11.56 11.56 0 0 0 1.29 3.49 15.27 15.27 0 0 1 1.72 4.7c.26 1.75-.76 6.29-1.5 8.92a40.32 40.32 0 0 0-1.59 7.8 15.4 15.4 0 0 0 .81 3.7 42.47 42.47 0 0 1 1.34 4.34 38.48 38.48 0 0 1 .72 4.38 21.61 21.61 0 0 1-.13 4.52A24.31 24.31 0 0 1 68.84 99a12 12 0 0 0-.72 3.59 11.92 11.92 0 0 0 .73 3.59 16.07 16.07 0 0 1 1 4.66 15.45 15.45 0 0 1-.72 4.66c-.37 1.07-1 3.7-1.48 5.74a22 22 0 0 1-2 5.8 11.36 11.36 0 0 1-3 2.88 12.38 12.38 0 0 1-4 1.51 15.53 15.53 0 0 1-4.51-.1 20 20 0 0 0-4.09-.22 27.24 27.24 0 0 0-4 .66l-.56.15a10.58 10.58 0 0 1-5.07.18c-2.34-.7-4.88-6.06-5-6.28-1-2.1-2.49-5.77-2.59-7.26a18.42 18.42 0 0 1 .29-4.08 14 14 0 0 0 .13-3.48 17.32 17.32 0 0 0-1-3.68 14.4 14.4 0 0 1-.94-4.73 14.52 14.52 0 0 1 1-4.72 11.05 11.05 0 0 0 .75-3.55 11.11 11.11 0 0 0-.8-3.55 20.34 20.34 0 0 1-1.31-4.54 18.24 18.24 0 0 1 .05-4.6 17.79 17.79 0 0 0 .11-3.76 19.23 19.23 0 0 0-.88-3.79 15.39 15.39 0 0 1-.81-4.69 15.65 15.65 0 0 1 1-4.68 23 23 0 0 0 1.09-3.84 20.64 20.64 0 0 0 .2-3.81c-.07-1.1 0-3.76.07-6.19v-.5a11.85 11.85 0 0 0-.48-4.44 26.31 26.31 0 0 0-7.1-.46c-4 .15-8.22.21-9.51.13a39.27 39.27 0 0 1-4.69-.66 27.18 27.18 0 0 0-4.29-.49h-.16a29 29 0 0 0-4.19.36 5.27 5.27 0 0 0-2.42 1.1 3.29 3.29 0 0 0-.3 2 38.34 38.34 0 0 1 .52 4.23 35.68 35.68 0 0 1-.06 4.22c-.1 1.11-.34 2.93-.56 4.06s-.64 2.94-1 4.05a9.66 9.66 0 0 0-.23 3.27 11.74 11.74 0 0 0 1.29 3.37 10.31 10.31 0 0 1 1.32 4.7 10.57 10.57 0 0 1-1.49 4.67 9.28 9.28 0 0 0-1.17 3.24 8 8 0 0 0 .59 3.16 22.29 22.29 0 0 1 1.36 4.25 19.55 19.55 0 0 1 .25 4.3 31.21 31.21 0 0 0 0 3.69 32.42 32.42 0 0 0 .54 3.7A30.41 30.41 0 0 1 .54 107a72 72 0 0 1-.74 8.41 49.45 49.45 0 0 0-.57 7.77A23.12 23.12 0 0 0 1 128.24c.87 1.82 2 4 2.45 4.65a24.22 24.22 0 0 1 1.67 3.02z"/><path d="M48.68 35.23A18.74 18.74 0 0 1 52 38.12a8.21 8.21 0 0 0 2.83 2.15 3.89 3.89 0 0 0 2.69-.27 6.22 6.22 0 0 1 2.67-.71 6.35 6.35 0 0 1 2.65.86 11.66 11.66 0 0 0 2.64 1.17 9 9 0 0 0 2.64.22c.73-.07 2.68-.11 4.35-.09s3.15-.3 3.3-.73a3.81 3.81 0 0 0-.77-2.39c-.57-.89-2-2.86-3.26-4.39a43.77 43.77 0 0 1-3.06-4.28 21.94 21.94 0 0 1-1.41-3.2 16.86 16.86 0 0 0-1.5-3.17 17.43 17.43 0 0 0-2.27-2.72 6.68 6.68 0 0 0-3-1.5 7.31 7.31 0 0 0-2 .07c-.34.05-.67.11-1 .19l.07.19a21.94 21.94 0 0 0 1.43 3.2A43.77 43.77 0 0 0 62 27c1.22 1.53 2.69 3.5 3.26 4.39a3.81 3.81 0 0 1 .77 2.39c-.15.42-1.63.75-3.3.73s-3.63 0-4.35.09a9 9 0 0 1-2.64-.22 11.66 11.66 0 0 1-2.64-1.17 6.35 6.35 0 0 0-2.65-.86 6.22 6.22 0 0 0-2.67.71 3.89 3.89 0 0 1-2.73.28 8.21 8.21 0 0 1-2.83-2.15 18.74 18.74 0 0 0-3.22-2.9c-.26-.17-.58-.36-.93-.55a14.19 14.19 0 0 0 1.66 2.36 9.75 9.75 0 0 0 1 1c.15.12.32.25.5.38a14.32 14.32 0 0 0 3.4 1.77 20.1 20.1 0 0 1 2.49 1.06 16.06 16.06 0 0 1 1.56.92zM34.4 118.45a30.16 30.16 0 0 0 2.45 6.72c1.28 2.73 3.11 5.2 4.06 5.48a9.21 9.21 0 0 0 4.23-.19l.62-.16-.38-.93a18.69 18.69 0 0 1-1.26-4 17.07 17.07 0 0 1 .27-3.69 15.31 15.31 0 0 0 .15-3.94 18.72 18.72 0 0 0-1.08-4.08 12.88 12.88 0 0 1-.83-4.15 13 13 0 0 1 .9-4.15 12.48 12.48 0 0 0 .87-4.15 12.58 12.58 0 0 0-.93-4.15 18.93 18.93 0 0 1-1.2-4.15 16.8 16.8 0 0 1 0-4.15 19.25 19.25 0 0 0 .12-4.15 20.77 20.77 0 0 0-1-4.15 13.91 13.91 0 0 1-.72-4.15 14.16 14.16 0 0 1 .86-4.15 24.62 24.62 0 0 0 1.17-4.15 22 22 0 0 0 .3-4.1c-.07-1.14 0-4.08.09-6.52s-.29-5-.91-5.6-4.07-1-7.82-.89h-.96c-.1 2.34-.13 5-.07 6a22 22 0 0 1-.22 4.15 24.62 24.62 0 0 1-1.17 4.15 14.16 14.16 0 0 0-.94 4.21 13.91 13.91 0 0 0 .72 4.15 20.77 20.77 0 0 1 1 4.15 19.25 19.25 0 0 1-.12 4.15 16.8 16.8 0 0 0 0 4.15 18.93 18.93 0 0 0 1.2 4.15 12.58 12.58 0 0 1 .93 4.15 12.48 12.48 0 0 1-.87 4.15 13 13 0 0 0-.9 4.15 12.88 12.88 0 0 0 .83 4.15 18.72 18.72 0 0 1 1.08 4.08 15.31 15.31 0 0 1-.15 3.94 17.07 17.07 0 0 0-.32 3.67z"/><path d="M114.35 98.47a35.75 35.75 0 0 0-1.28-3.92 23.43 23.43 0 0 1-1.13-3.92 20.9 20.9 0 0 1-.23-3.92 24 24 0 0 1 .62-3.92 27.86 27.86 0 0 1 1.42-3.92 13.94 13.94 0 0 0 1.07-3.87 12.74 12.74 0 0 0-.42-4c-.32-1.08-.93-3.72-1.34-5.88a45.24 45.24 0 0 1-.79-5.85 32 32 0 0 1 .22-3.85 4.72 4.72 0 0 0-.74-3.13 6.83 6.83 0 0 0-3.23-1.74 23.11 23.11 0 0 0-4.49-.5h-.4l-1 .07c-.05.79-.08 1.6-.07 2.21a45.24 45.24 0 0 0 .79 5.85c.42 2.15 1 4.8 1.34 5.88a12.74 12.74 0 0 1 .42 3.92 13.94 13.94 0 0 1-1.11 3.96 27.86 27.86 0 0 0-1.42 3.92 24 24 0 0 0-.62 3.92 20.9 20.9 0 0 0 .23 3.92 23.43 23.43 0 0 0 1.13 3.92 35.75 35.75 0 0 1 1.28 3.92 32.08 32.08 0 0 1 .67 3.92 26.46 26.46 0 0 1 0 3.92 27.74 27.74 0 0 1-.69 3.92 17.46 17.46 0 0 0-.28 7.88 17.94 17.94 0 0 1 .23 3.92 35.92 35.92 0 0 1-1.31 5.76c-.64 2.1-1.31 4.69-1.49 5.76a21.24 21.24 0 0 1-1 3.56 15.7 15.7 0 0 1-1.59 2.93 15.77 15.77 0 0 0-1.57 2.81 17.35 17.35 0 0 0-.87 3.21 6.6 6.6 0 0 1-1.26 2.84 7.32 7.32 0 0 1-2.72 1.71 20.84 20.84 0 0 0-3.15 1.39 45.06 45.06 0 0 0-4.91 4 24.81 24.81 0 0 1-4.94 3.68 10.9 10.9 0 0 1-3.11.52 13.49 13.49 0 0 0-3.39.54 40.62 40.62 0 0 0-5.38 2.59c-2 1.12-4.54 2.41-5.62 2.86a29.37 29.37 0 0 1-4 1.27 28 28 0 0 1-4.07.55c-1.13.05-3 0-4.06 0a50 50 0 0 1-5.86-1c-2.12-.49-4.7-1.2-5.73-1.58a31.07 31.07 0 0 0-3.79-1.07c-1.05-.21-3.6-.51-5.66-.66s-4.48-.42-5.37-.59c-.57-.11-1.35-.3-2.07-.5.26.35.51.69.69 1l.21.3a15.58 15.58 0 0 0 1.95 2.24 14.64 14.64 0 0 0 2.7 1.83 29.52 29.52 0 0 0 3 1.27 29 29 0 0 0 3.17.84c.89.17 3.31.43 5.37.59s4.61.45 5.66.66a31.07 31.07 0 0 1 3.79 1.07c1 .38 3.61 1.09 5.73 1.58a50 50 0 0 0 5.86 1C61 168 62.84 168 64 168a28 28 0 0 0 4.07-.55 29.37 29.37 0 0 0 4-1.27c1.08-.45 3.61-1.74 5.62-2.86A40.62 40.62 0 0 1 83 160.7a13.49 13.49 0 0 1 3.39-.54 10.9 10.9 0 0 0 3.11-.52 24.81 24.81 0 0 0 4.96-3.64 45.06 45.06 0 0 1 4.91-4 20.84 20.84 0 0 1 3.15-1.39 7.32 7.32 0 0 0 2.72-1.71 6.6 6.6 0 0 0 1.26-2.84 17.35 17.35 0 0 1 .87-3.21 15.77 15.77 0 0 1 1.57-2.81 15.7 15.7 0 0 0 1.59-2.93 21.24 21.24 0 0 0 1-3.56c.18-1.07.85-3.66 1.49-5.76a35.92 35.92 0 0 0 1.28-5.79 17.94 17.94 0 0 0-.23-3.92 17.46 17.46 0 0 1 .28-7.88 27.74 27.74 0 0 0 .69-3.92 26.46 26.46 0 0 0 0-3.92 32.08 32.08 0 0 0-.69-3.89z"/></svg>