<svg xmlns="http://www.w3.org/2000/svg" width="115.83" height="200" viewBox="0 0 115.83 200"><title>_</title><path d="M9.85 141.58a10.86 10.86 0 0 0 2.63 1.22 35.17 35.17 0 0 1 3.44 1.2l.08.06c1.09.52 4.45 2.63 8 5a48.63 48.63 0 0 0 7.44 4.41 11.52 11.52 0 0 0 3.11 0 22.46 22.46 0 0 1 2.89-.18h1.31a52.8 52.8 0 0 1 7.83 2 29.94 29.94 0 0 0 6.95 1.71 12.1 12.1 0 0 0 3.38-.95 14.41 14.41 0 0 1 4.56-1.18 14.61 14.61 0 0 1 4.68.67 27.42 27.42 0 0 0 3.93 1 25.71 25.71 0 0 0 3.92.2 18.58 18.58 0 0 0 3.53-.55 12.94 12.94 0 0 0 2.8-1.25c.84-.54 3.54-2 6-3.28s5-2.7 5.67-3.14 1.86-1.41 2.5-2 1.67-1.6 2.24-2.24a29.16 29.16 0 0 0 1.92-2.46c.48-.7 1.93-3.27 3.18-5.63a21.2 21.2 0 0 0 2.19-5.55 13.12 13.12 0 0 0-.63-3.51 33.5 33.5 0 0 1-1.13-4.48 24.76 24.76 0 0 1-.26-4.23 18 18 0 0 1 .8-4.17 22.92 22.92 0 0 1 2-4.09 8.41 8.41 0 0 0 1.09-3.11 8 8 0 0 0-.66-3.14 21.35 21.35 0 0 1-1.43-4.27 18.57 18.57 0 0 1-.23-4.33c.1-1.12.34-2.94.55-4.06s.63-2.93 1-4.05a27.1 27.1 0 0 0 .72-3.67 56.29 56.29 0 0 0-.45-7.53 51.86 51.86 0 0 1-.38-8.19 20.37 20.37 0 0 1 1.15-4.29 24.66 24.66 0 0 0 1.11-3.64 21.79 21.79 0 0 0 .34-3.61c0-.61-.09-1.95-.24-3.49-.08-.86-.17-1.76-.27-2.61a9 9 0 0 0-1.19-3.91 6.08 6.08 0 0 0-2.66.24 17.2 17.2 0 0 1-5.44.7 16.31 16.31 0 0 1-5.22-1.46 12.13 12.13 0 0 0-3.94-1.08 11.17 11.17 0 0 0-3.91.72 17.75 17.75 0 0 1-5.27 1.12 22.34 22.34 0 0 1-5.62-.77 5 5 0 0 0-2.7-.11 3.58 3.58 0 0 0-.48 2.06 35.79 35.79 0 0 0 .59 4.58 29.54 29.54 0 0 0 1.27 4.11 24.82 24.82 0 0 1 1.29 4.47 21.84 21.84 0 0 1 .17 4.54c-.09 1.08-.13 2.9-.09 4s.2 2.91.36 4a34.76 34.76 0 0 1 .31 4.38 34.76 34.76 0 0 1-.36 4.38 37.38 37.38 0 0 1-1 4.36 42.31 42.31 0 0 1-1.7 4.34 10.55 10.55 0 0 0-.85 3.53 10.37 10.37 0 0 0 .78 3.52 32.41 32.41 0 0 1 1.54 4.4 28.25 28.25 0 0 1 .68 4.43 25.82 25.82 0 0 1-.21 4.44 27.53 27.53 0 0 1-1.13 4.39 53.36 53.36 0 0 1-1.62 3.9 36.68 36.68 0 0 1-1.82 3.3 17.69 17.69 0 0 1-2.22 2.72 14.14 14.14 0 0 1-2.69 2 20.88 20.88 0 0 1-3 1.25 29.83 29.83 0 0 1-3.52.8 62.39 62.39 0 0 0-6.25 1.74l-.87.26c-.77.22-4.69 1.28-6.33.62a5.41 5.41 0 0 1-2.83-3.8 11.65 11.65 0 0 0-1.33-3.34 10.53 10.53 0 0 0-2.35-2.37 9.77 9.77 0 0 1-3-3.36 9.79 9.79 0 0 1-.7-4.42 38.19 38.19 0 0 1 .71-4.31 43 43 0 0 1 1.31-4.32 35.55 35.55 0 0 0 1.18-3.94 32.34 32.34 0 0 0 .56-3.92c.07-1.11.09-2.9 0-4s-.21-2.89-.37-4-.34-3.13-.37-4.32 0-3.12.13-4.32a18.7 18.7 0 0 0-.14-3.78 21.11 21.11 0 0 0-1.1-3.82 14.06 14.06 0 0 1-.94-4.75 14.26 14.26 0 0 1 1.09-4.74 14.7 14.7 0 0 0 1-3.68 13.21 13.21 0 0 0-.29-3.64 35.6 35.6 0 0 1-.77-4.52c-.08-.83-.12-2.05-.12-3.25v-1.53a4.43 4.43 0 0 0-.69-2.58 5.57 5.57 0 0 0-2.78-1.1C31 44.21 25.68 44 20.73 44c-5.45-.09-10.2 0-11.22.13A27.59 27.59 0 0 0 5.4 45a5.56 5.56 0 0 0-2.28 1.41 3.23 3.23 0 0 0-.24 1.95 14.7 14.7 0 0 1 .2 4.26 17.37 17.37 0 0 1-1.24 4.27A19.46 19.46 0 0 0 .7 60.44 16.79 16.79 0 0 0 .47 64a36.82 36.82 0 0 0 .48 3.72c.2 1 .63 2.73 1 3.73a24.44 24.44 0 0 1 .87 4.22 23.12 23.12 0 0 1-.07 4.24 21.07 21.07 0 0 0-.08 3.6 22.33 22.33 0 0 0 .68 3.61 11.38 11.38 0 0 1 .24 4.61 14.32 14.32 0 0 1-1.9 4.47A15 15 0 0 0 0 99.63 10.79 10.79 0 0 0-.29 103a37.75 37.75 0 0 0 .68 3.75c.26 1 .79 2.76 1.19 3.84a16.83 16.83 0 0 1 .9 4.59 18 18 0 0 1-.65 4.72 14 14 0 0 0-.48 3.73 42.61 42.61 0 0 0 2.92 8.2C6 135.67 7.62 139 8 139.65a8.89 8.89 0 0 0 1.85 1.93zM71.71 11.12c-1.86-.06-3.76-.12-5.51-.12-2.65 0-4 .06-4.42.12a22.45 22.45 0 0 0-3.63.93 9 9 0 0 0-2.61 1.58 6.32 6.32 0 0 0-1.29 2.24 8.67 8.67 0 0 1-2.17 3.57 11.76 11.76 0 0 1-3.91 2.14 5.8 5.8 0 0 0-2.33 1.48 5.33 5.33 0 0 0-.69 2.55 13.7 13.7 0 0 1-.66 4.22 9.37 9.37 0 0 1-2.21 3.26 3.66 3.66 0 0 0-.66.79 1.12 1.12 0 0 0 .21.16 13.7 13.7 0 0 0 2.07.87 14.73 14.73 0 0 0 2.25.45 18.2 18.2 0 0 0 2.39 0 18.8 18.8 0 0 0 2.41-.34c.42-.09 1-.19 1.65-.28.48-.06 1-.11 1.35-.14a28.72 28.72 0 0 1 3.21 0 3.75 3.75 0 0 0 2-.61 10.7 10.7 0 0 0 2.21-2.69 17.16 17.16 0 0 1 3.32-4 16 16 0 0 1 4.45-2.3 16.32 16.32 0 0 0 3.63-1.81 15.1 15.1 0 0 0 2.76-2.75 44.39 44.39 0 0 1 3.07-3.68c.34-.36.79-.8 1.26-1.26.83-.8 1.74-1.62 2.42-2.19a5.08 5.08 0 0 0 1-1.09 4.3 4.3 0 0 0-1.19-.4c-1.22-.27-6.09-.58-10.38-.7z"/><path d="M38.51 102.6a36.82 36.82 0 0 1-1.23 4.15 41 41 0 0 0-1.28 4.13 36.52 36.52 0 0 0-.67 4.1 8.36 8.36 0 0 0 .56 3.64 8.34 8.34 0 0 0 2.44 2.76 12 12 0 0 1 2.76 2.79 13.08 13.08 0 0 1 1.5 3.75 4 4 0 0 0 1.92 2.71c.73.29 3 0 5.36-.67-.26-.28-.54-.56-.82-.82a9.47 9.47 0 0 0-1-.82 6.53 6.53 0 0 1-3-6.4 36.52 36.52 0 0 1 .67-4.1 41 41 0 0 1 1.28-4.13 36.82 36.82 0 0 0 1.23-4.15 33.41 33.41 0 0 0 .59-4.15c.07-1.14.1-3 .05-4.15s-.22-3-.38-4.15-.32-3-.36-4.15 0-3 .12-4.15a20.23 20.23 0 0 0-.16-4.15 22.72 22.72 0 0 0-1.19-4.15 12.51 12.51 0 0 1-.82-4.15 12.76 12.76 0 0 1 1-4.15 16.07 16.07 0 0 0 1.12-4.15 14.6 14.6 0 0 0-.32-4.15 33.53 33.53 0 0 1-.73-4.29A38.89 38.89 0 0 1 47 55a5.79 5.79 0 0 0-1.08-3.66 6.84 6.84 0 0 0-3.73-1.58c-.63-.07-2.08-.14-3.94-.21h-1c0 1.09 0 2.29.11 3.11a33.53 33.53 0 0 0 .75 4.34 14.6 14.6 0 0 1 .32 4.15 16.07 16.07 0 0 1-1.12 4.15 12.76 12.76 0 0 0-1 4.15 12.51 12.51 0 0 0 .82 4.15 22.72 22.72 0 0 1 1.19 4.15 20.23 20.23 0 0 1 .16 4.15c-.1 1.14-.15 3-.12 4.15s.19 3 .36 4.15.34 3 .38 4.15 0 3-.05 4.15a33.41 33.41 0 0 1-.54 4.1z"/><path d="M116.42 51.94a6.3 6.3 0 0 0-3.9.09 14.93 14.93 0 0 1-2.64.53c-.34 0-.68.07-1 .09.14 1.53.24 2.93.24 3.62a23.12 23.12 0 0 1-.37 3.92 26 26 0 0 1-1.19 3.92A18.93 18.93 0 0 0 106.5 68a51.23 51.23 0 0 0 .38 7.84 56.09 56.09 0 0 1 .42 7.83 28.58 28.58 0 0 1-.77 3.92c-.31 1.08-.72 2.84-.92 3.92s-.44 2.84-.53 3.92a17.07 17.07 0 0 0 .21 3.92 19.91 19.91 0 0 0 1.31 3.92 9.34 9.34 0 0 1 .8 3.88 9.81 9.81 0 0 1-1.3 3.85 21.55 21.55 0 0 0-1.82 3.77 16.55 16.55 0 0 0-.73 3.76 23.07 23.07 0 0 0 .24 3.92 31.79 31.79 0 0 0 1.07 4.24 14.5 14.5 0 0 1 .71 4c0 1-1.08 3.81-2.36 6.23s-2.75 5-3.26 5.77a30.6 30.6 0 0 1-2 2.61c-.61.69-1.68 1.75-2.37 2.36s-1.87 1.55-2.64 2.09-3.4 2-5.85 3.25-5.11 2.69-5.9 3.2a14.41 14.41 0 0 1-3.2 1.44 20.12 20.12 0 0 1-3.88.6 27 27 0 0 1-4.21-.21 28.94 28.94 0 0 1-4.19-1 13.2 13.2 0 0 0-4.12-.6 12.86 12.86 0 0 0-4 1 13.58 13.58 0 0 1-3.9 1.08 30.41 30.41 0 0 1-7.52-1.65 52.38 52.38 0 0 0-7.49-2 21.34 21.34 0 0 0-3.88.12 12.85 12.85 0 0 1-3.62-.06c-.91-.19-4.49-2.28-8-4.64s-6.77-4.44-7.74-4.9c.34.69.62 1.24.82 1.61l.21.37a10.26 10.26 0 0 0 2.23 2.33 12.12 12.12 0 0 0 3.09 1.45c.48.14 1.09.33 1.68.54s1.17.42 1.58.6a68.5 68.5 0 0 1 5.84 3.61l2 1.34c3.48 2.37 7.07 4.45 8 4.64a12.85 12.85 0 0 0 3.62.06 21.34 21.34 0 0 1 3.88-.12 52.38 52.38 0 0 1 7.49 2 30.41 30.41 0 0 0 7.52 1.65 13.58 13.58 0 0 0 3.9-1.08 12.86 12.86 0 0 1 4-1 13.2 13.2 0 0 1 4.12.6 28.94 28.94 0 0 0 4.19 1 27 27 0 0 0 4.21.21 20.12 20.12 0 0 0 3.88-.6 14.41 14.41 0 0 0 3.2-1.44c.79-.51 3.44-2 5.9-3.2s5.09-2.72 5.85-3.25 1.95-1.48 2.64-2.09 1.75-1.67 2.37-2.36a30.6 30.6 0 0 0 2-2.61c.51-.75 2-3.35 3.26-5.77s2.35-5.22 2.36-6.23a14.5 14.5 0 0 0-.71-4 31.79 31.79 0 0 1-1.07-4.24 23.07 23.07 0 0 1-.24-3.92 16.55 16.55 0 0 1 .73-3.76 21.55 21.55 0 0 1 1.82-3.77 9.81 9.81 0 0 0 1.32-3.81 9.34 9.34 0 0 0-.8-3.88 19.91 19.91 0 0 1-1.31-3.92 17.07 17.07 0 0 1-.21-3.92c.09-1.08.33-2.84.53-3.92s.61-2.84.92-3.92a28.58 28.58 0 0 0 .77-3.92 56.09 56.09 0 0 0-.42-7.83 51.23 51.23 0 0 1-.38-7.84 18.93 18.93 0 0 1 1.04-3.99 26 26 0 0 0 1.19-3.92 23.12 23.12 0 0 0 .37-3.92c0-1.08-.24-3.89-.51-6.26s-1.13-4.57-1.9-4.96zM50.81 42.33a15.19 15.19 0 0 0 2.35 1 16 16 0 0 0 2.54.5 19.9 19.9 0 0 0 2.64.05 20.41 20.41 0 0 0 2.66-.39 21.25 21.25 0 0 1 2.76-.38 26.81 26.81 0 0 1 3 0 5.26 5.26 0 0 0 3-.89 12 12 0 0 0 2.64-3.16 15.72 15.72 0 0 1 3-3.59 14.6 14.6 0 0 1 4-2.18 17.86 17.86 0 0 0 4-2 16.43 16.43 0 0 0 3.1-3.09 42.67 42.67 0 0 1 2.9-3.5c.89-.94 2.49-2.44 3.56-3.33s1.83-2.08 1.71-2.65-1.29-1.23-2.59-1.48-5.5-.52-9.76-.66h-1.41c-.46.44-.88.86-1.21 1.21a42.67 42.67 0 0 0-2.94 3.53 16.43 16.43 0 0 1-3.1 3.09 17.86 17.86 0 0 1-4 2 14.6 14.6 0 0 0-4 2.18 15.72 15.72 0 0 0-3 3.59A12 12 0 0 1 60 35.31a5.26 5.26 0 0 1-3 .89 26.81 26.81 0 0 0-3 0c-.35 0-.8.07-1.24.13a6.75 6.75 0 0 1-.57 1.09A7.41 7.41 0 0 1 51 38.95a3.76 3.76 0 0 0-1.26 1.92 1.94 1.94 0 0 0 1.07 1.46z"/></svg>