<svg xmlns="http://www.w3.org/2000/svg" width="128.8" height="200" viewBox="0 0 128.8 200"><title>_</title><path d="M22.38 135.51a26.8 26.8 0 0 1 .72 3.49 13.86 13.86 0 0 0 .73 2.79 12.73 12.73 0 0 0 1.4 2.41 9.92 9.92 0 0 0 1.95 1.79A10.69 10.69 0 0 0 29.7 147a14.08 14.08 0 0 1 3.44 1.46l.13.09a14.14 14.14 0 0 1 2.68 2.45 5.39 5.39 0 0 0 1.85 1.33 5.91 5.91 0 0 0 2.43.07 14.63 14.63 0 0 1 4-.16 15.77 15.77 0 0 1 3.93 1.14 24.82 24.82 0 0 0 3.31 1.18 24.3 24.3 0 0 0 3.45.57 34.14 34.14 0 0 0 3.59 0 34.64 34.64 0 0 0 3.6-.44 15.12 15.12 0 0 1 2.62-.21 13.56 13.56 0 0 1 1.71.1 19.62 19.62 0 0 1 4.38 1.24 16 16 0 0 0 3.62 1 14.14 14.14 0 0 0 3.53-.13 34.55 34.55 0 0 1 4.29-.51 38.18 38.18 0 0 1 4.45.12 9.58 9.58 0 0 0 3.21-.31 6.79 6.79 0 0 0 2.29-1.57 12.54 12.54 0 0 1 3.18-2.52 11.73 11.73 0 0 1 3.87-1.05 4.22 4.22 0 0 0 2-.78 5.73 5.73 0 0 0 1.17-2.25 9.12 9.12 0 0 1 2.09-3.84 8.82 8.82 0 0 1 3.88-2 6.18 6.18 0 0 0 2.32-1.06 18.52 18.52 0 0 0 1.8-5.07 45.51 45.51 0 0 1 2-6.71 38.92 38.92 0 0 1 2-3.51 11.88 11.88 0 0 0 1.35-3.12 11.54 11.54 0 0 0 .11-3.35 19.71 19.71 0 0 1 0-4.39 20.37 20.37 0 0 1 1.11-4.29 9.49 9.49 0 0 0 .56-3.24 10.56 10.56 0 0 0-1-3.31 19.15 19.15 0 0 1-1.51-4.32 16.35 16.35 0 0 1-.13-4.39 20.22 20.22 0 0 0 .08-3.59 21.37 21.37 0 0 0-.72-3.61 13.36 13.36 0 0 1-.47-4.51 14.77 14.77 0 0 1 1.35-4.45 13 13 0 0 0 1.1-3.43 11.08 11.08 0 0 0-.21-3.36 41.41 41.41 0 0 1-.79-4.09 39.69 39.69 0 0 1-.27-4.11 40.52 40.52 0 0 1 .24-4.1c.13-1.12.47-3 .75-4.09a27.65 27.65 0 0 0 .58-3.71c0-.69.06-1.73 0-2.71 0-.4 0-.77-.07-1.09a5.07 5.07 0 0 0-1-2.43 7.31 7.31 0 0 0-2.89-1.44 24.77 24.77 0 0 0-4.33-.54 22.67 22.67 0 0 0-4.25.42 32 32 0 0 1-4.82.58 33.6 33.6 0 0 1-4.82-.32c-1.21-.19-3.26-.4-4.55-.46s-3.52-.05-4.92 0a4 4 0 0 0-2.18.71 4.64 4.64 0 0 0 .42 2.36 14.84 14.84 0 0 1 1.17 5.36 12.43 12.43 0 0 1-1.41 5.1 19 19 0 0 0-1.58 3.78A48.19 48.19 0 0 0 83 69.4c0 3.47-.19 9.11-.47 12.58s-.43 8.89-.34 12.28.29 7.06.43 8.13a36.8 36.8 0 0 0 .81 4 24.85 24.85 0 0 1 .73 4.45 23.1 23.1 0 0 1-.28 4.42c-.19 1.08-.42 2.84-.51 3.92s-.14 2.86-.12 3.95a8.39 8.39 0 0 1-1.12 4.28c-1.17 1.77-7.25 4-7.51 4.07-3 1.08-7 2.18-8.61 2a14.78 14.78 0 0 1-4.74-1.52c-.82-.45-2.06-1.06-3.08-1.53l-.83-.43c-1-.43-2.68-1-3.63-1.3a10.13 10.13 0 0 1-3.67-2.05 10 10 0 0 1-2.2-3.58 31.5 31.5 0 0 1-1-3.94 73.12 73.12 0 0 1-.24-8.32 104.09 104.09 0 0 1 1.72-14.7c1-5.24 1.26-9.12 1.11-9.73a15.19 15.19 0 0 0-1.64-3.69 12.76 12.76 0 0 1-1.76-4.82 11.11 11.11 0 0 1 .95-4.93 24.6 24.6 0 0 0 1.31-3.86 21 21 0 0 0 .43-3.81 30.61 30.61 0 0 0-.31-3.92 33.06 33.06 0 0 0-.93-3.93 18.48 18.48 0 0 1-.72-4.77 18.18 18.18 0 0 1 .2-2.32 21.7 21.7 0 0 1 .54-2.71 4 4 0 0 0 0-2.38 4.46 4.46 0 0 0-2.4-.85 20.36 20.36 0 0 0-4.58.29 20.58 20.58 0 0 0-4.3 1.53 17.21 17.21 0 0 1-5.06 1.58 15.37 15.37 0 0 1-5.18-.47 24.27 24.27 0 0 0-4.08-.77 18.05 18.05 0 0 0-3.7.18 9.26 9.26 0 0 0-2.81 1.07 7.22 7.22 0 0 0-1.81 2 8.45 8.45 0 0 0-.84 2.71 41.88 41.88 0 0 0 1.16 7.25c.7 3.07 1.31 6.95 1.14 8.4a19.39 19.39 0 0 1-1.16 4.3 13.74 13.74 0 0 0-.9 3.43 12.64 12.64 0 0 0 .34 3.41 21.44 21.44 0 0 1 .66 4.26 21 21 0 0 1-.42 4.27c-.22 1-.59 3.62-.8 5.69a48.14 48.14 0 0 0-.27 5.62c.06 1 .27 2.72.45 3.73s.43 3 .51 4.13.09 3.06 0 4.24 0 3.81.12 6.07a21.7 21.7 0 0 0 .92 5.5 15.65 15.65 0 0 0 2.07 3.2c.85 1 2 2.47 2.66 3.33a28.17 28.17 0 0 1 1.88 3.06 22 22 0 0 1 1.26 3.11zM82 18.62c-.15-.19-.31-.42-.46-.67a16.87 16.87 0 0 1-1.64-3.34 7 7 0 0 0-1.49-2.47 4.49 4.49 0 0 0-2.11-.82 10.29 10.29 0 0 0-2.91.35 12.08 12.08 0 0 0-2.82 1.46 10.2 10.2 0 0 1-3.81 1.68 8.44 8.44 0 0 1-4-.51 11.13 11.13 0 0 0-2.6-.67 7.91 7.91 0 0 0-2.27.23A6.6 6.6 0 0 0 56 14.92 10.22 10.22 0 0 0 54.3 17a11.58 11.58 0 0 1-2.72 3.07A15.07 15.07 0 0 1 47.67 22a14.58 14.58 0 0 0-3.15 1.48A37.64 37.64 0 0 0 39.74 29a24.94 24.94 0 0 0-3 4.79 2.64 2.64 0 0 0 1 .59 23.68 23.68 0 0 0 3.18.78 43.92 43.92 0 0 0 5.58.06h.5c2.35-.1 4.39-.29 4.93-.39a17.76 17.76 0 0 0 2.56-.76A21.71 21.71 0 0 0 56.76 33a9.66 9.66 0 0 0 1.43-1 2.66 2.66 0 0 0 .52-.88 5.52 5.52 0 0 0 .07-1.59 5.35 5.35 0 0 1 .49-3 4.53 4.53 0 0 1 2.33-1.83A5.09 5.09 0 0 0 63 24a6.31 6.31 0 0 0 1-1.45c.27-.51 1.26-2.15 2.74-1.72 1.08.31 1.54 1.59 1.74 2.62a3.86 3.86 0 0 0 .62 1.41 2.84 2.84 0 0 0 1.12.59 9.08 9.08 0 0 1 2.5.94 6.23 6.23 0 0 1 1.82 1.77c.28.44.82 1.44 1.25 2.28a4 4 0 0 0 .91 1.23 6.19 6.19 0 0 0 1.55.3l.63.03a22.75 22.75 0 0 1 2.32.35 26.72 26.72 0 0 1 3 .88c.73.27 2.63.83 4.14 1.23a12.65 12.65 0 0 0 3.27.5 2.94 2.94 0 0 0 1.12-.59 3 3 0 0 0 .6-1.14 6.52 6.52 0 0 0-.08-2 12.93 12.93 0 0 0-.93-2.57 17.76 17.76 0 0 0-1.75-2.61 24.32 24.32 0 0 0-2.42-2.46 27 27 0 0 0-2.9-2.09A14 14 0 0 1 82 18.62z"/><path d="M59.57 103.32c.88-4.56 1.37-9.23 1.1-10.37a16.52 16.52 0 0 0-1.83-4.15 11.21 11.21 0 0 1-1.53-4.15A9.73 9.73 0 0 1 58 80.5a26.06 26.06 0 0 0 1.41-4.15 22.55 22.55 0 0 0 .47-4.15 32.26 32.26 0 0 0-.33-4.15 34.68 34.68 0 0 0-1-4.15 17 17 0 0 1-.55-4.3 20.94 20.94 0 0 1 .64-4.6 5 5 0 0 0-.27-3.68 5.42 5.42 0 0 0-3.51-1.46 22.17 22.17 0 0 0-5 .32l-.39.1c-.33.08-.68.18-1.06.29a16.78 16.78 0 0 0-.18 2.12 17 17 0 0 0 .66 4.31 34.68 34.68 0 0 1 1 4.15 32.26 32.26 0 0 1 .33 4.15 22.55 22.55 0 0 1-.47 4.15 26.06 26.06 0 0 1-1.41 4.15 9.73 9.73 0 0 0-.75 4.15 11.21 11.21 0 0 0 1.53 4.15A16.52 16.52 0 0 1 51 86c.28 1.14-.22 5.81-1.1 10.37a102.69 102.69 0 0 0-1.69 14.44 72 72 0 0 0 .22 8.05 29.49 29.49 0 0 0 .91 3.71 8.59 8.59 0 0 0 1.81 3 8.68 8.68 0 0 0 3.05 1.69c1 .29 2.72.9 3.8 1.36l.89.4c-.11-.38-.22-.81-.33-1.24-.17-.7-.33-1.4-.42-1.95a72 72 0 0 1-.22-8.05 102.69 102.69 0 0 1 1.65-14.46z"/><path d="M129.78 110.22a17.65 17.65 0 0 1-1.37-3.92 14.88 14.88 0 0 1-.11-3.92 21.57 21.57 0 0 0 .08-3.92 22.87 22.87 0 0 0-.78-3.92 11.83 11.83 0 0 1-.41-3.92 13.3 13.3 0 0 1 1.2-3.92 14.43 14.43 0 0 0 1.25-3.92 12.54 12.54 0 0 0-.25-3.92 39.9 39.9 0 0 1-.75-3.92 38.09 38.09 0 0 1-.26-3.92 38.6 38.6 0 0 1 .23-3.92c.13-1.08.45-2.84.71-3.92a28.76 28.76 0 0 0 .62-4 29.57 29.57 0 0 0-.05-4 6.41 6.41 0 0 0-1.46-3.34A8.75 8.75 0 0 0 124.8 50a26.66 26.66 0 0 0-3.56-.52l-1-.06v2.88a28.76 28.76 0 0 1-.62 4c-.26 1.08-.58 2.84-.71 3.92a38.6 38.6 0 0 0-.23 3.92 38.09 38.09 0 0 0 .26 3.92 39.9 39.9 0 0 0 .75 3.92 12.54 12.54 0 0 1 .25 3.92 14.43 14.43 0 0 1-1.25 3.92 13.3 13.3 0 0 0-1.2 3.92 11.83 11.83 0 0 0 .41 3.92 22.87 22.87 0 0 1 .78 3.92 21.57 21.57 0 0 1-.08 3.92 14.88 14.88 0 0 0 .11 3.92 17.65 17.65 0 0 0 1.37 3.92 11.85 11.85 0 0 1 1.11 3.91 10.83 10.83 0 0 1-.66 3.88 19 19 0 0 0-1 3.91 18.3 18.3 0 0 0 0 4 12.92 12.92 0 0 1-.14 3.89 13.27 13.27 0 0 1-1.56 3.61 36.78 36.78 0 0 0-1.92 3.35 44.81 44.81 0 0 0-1.91 6.4c-.62 2.63-1.63 5.25-2.24 5.82a7.45 7.45 0 0 1-3 1.43 7.35 7.35 0 0 0-3.13 1.56 7.67 7.67 0 0 0-1.68 3.12 7 7 0 0 1-1.62 3 5.63 5.63 0 0 1-2.93 1.17 10.34 10.34 0 0 0-3.3.89 11 11 0 0 0-2.73 2.17 8.26 8.26 0 0 1-2.92 2 10.81 10.81 0 0 1-3.85.39 36.73 36.73 0 0 0-4.24-.11 33.09 33.09 0 0 0-4.07.48 15.4 15.4 0 0 1-4 .15 17.6 17.6 0 0 1-4-1.11 18.2 18.2 0 0 0-4-1.13 14.74 14.74 0 0 0-3.86.1 35.9 35.9 0 0 1-3.8.46 34.91 34.91 0 0 1-3.79 0 25.8 25.8 0 0 1-3.71-.61 26 26 0 0 1-3.55-1.26 14.42 14.42 0 0 0-3.49-1 13.19 13.19 0 0 0-3.53.14 7.45 7.45 0 0 1-3.21-.12 6.71 6.71 0 0 1-2.53-1.79 12.81 12.81 0 0 0-2.39-2.12 14.3 14.3 0 0 0 1.33 2.08 11.29 11.29 0 0 0 2.32 2.12 9.07 9.07 0 0 0 1 .53 12 12 0 0 0 2 .73 12.55 12.55 0 0 1 3 1.28 12.76 12.76 0 0 1 2.46 2.17 6.71 6.71 0 0 0 2.46 1.82 7.45 7.45 0 0 0 3.21.12 13.19 13.19 0 0 1 3.53-.14 14.42 14.42 0 0 1 3.49 1 26 26 0 0 0 3.55 1.26 25.8 25.8 0 0 0 3.71.61 34.91 34.91 0 0 0 3.79 0 35.9 35.9 0 0 0 3.8-.46A14.74 14.74 0 0 1 76 163a18.2 18.2 0 0 1 4 1.13 17.6 17.6 0 0 0 4 1.11 15.4 15.4 0 0 0 4-.15 33.09 33.09 0 0 1 4.07-.48 36.73 36.73 0 0 1 4.24.11 10.81 10.81 0 0 0 3.85-.39 8.26 8.26 0 0 0 2.92-2 11 11 0 0 1 2.73-2.17 10.34 10.34 0 0 1 3.3-.89 5.63 5.63 0 0 0 2.89-1.17 7 7 0 0 0 1.62-3 7.67 7.67 0 0 1 1.68-3.12 7.35 7.35 0 0 1 3.13-1.56 7.45 7.45 0 0 0 3-1.43c.62-.57 1.63-3.19 2.24-5.82a44.81 44.81 0 0 1 1.91-6.4 36.78 36.78 0 0 1 1.92-3.35 13.27 13.27 0 0 0 1.56-3.61 12.92 12.92 0 0 0 .14-3.89 18.3 18.3 0 0 1 0-4 19 19 0 0 1 1-3.91 10.83 10.83 0 0 0 .66-3.88 11.85 11.85 0 0 0-1.08-3.91zM93.79 35.45a4.4 4.4 0 0 1-1.88 1 12.69 12.69 0 0 1-4-.52c-1.57-.41-3.49-1-4.27-1.27a25.38 25.38 0 0 0-2.8-.82 21.22 21.22 0 0 0-2.15-.33 3.91 3.91 0 0 0 .91.34 7.77 7.77 0 0 1 2 .76 4.68 4.68 0 0 1 .86.72 3.75 3.75 0 0 1 .47.57c.27.42.81 1.42 1.2 2.22a4.59 4.59 0 0 0 1.54 1.83 7.05 7.05 0 0 0 2.15.46 20.76 20.76 0 0 1 2.7.37 25.38 25.38 0 0 1 2.8.82l.82.27c.94.3 2.3.69 3.46 1a12.69 12.69 0 0 0 4 .52 4.4 4.4 0 0 0 1.88-1l.08-.1a4.42 4.42 0 0 0 .93-1.81 7.76 7.76 0 0 0-.09-2.62 14.35 14.35 0 0 0-1.07-2.94 19.38 19.38 0 0 0-1.92-2.88 25.93 25.93 0 0 0-2.6-2.64 28.41 28.41 0 0 0-3.1-2.23 12.49 12.49 0 0 1-2.86-2.54A14.63 14.63 0 0 1 91 21.08 8.46 8.46 0 0 0 89.09 18a5.88 5.88 0 0 0-3-1.19 11.07 11.07 0 0 0-2.24.15 9.67 9.67 0 0 0-1.06.22c.13.21.27.4.39.56a12.49 12.49 0 0 0 2.82 2.5 28.41 28.41 0 0 1 3.1 2.23 25.93 25.93 0 0 1 2.6 2.64A19.38 19.38 0 0 1 93.65 28a14.35 14.35 0 0 1 1.07 2.94 7.76 7.76 0 0 1 .09 2.62 4.39 4.39 0 0 1-1.02 1.89zM71.79 33.1a6.46 6.46 0 0 0 1.87-1.1l.1-.1a7 7 0 0 0 .7-.81c-.39-.79-.91-1.75-1.17-2.16A4.78 4.78 0 0 0 72 27.66a7.77 7.77 0 0 0-2-.76 4.18 4.18 0 0 1-1.92-1 5.17 5.17 0 0 1-1-2.13 2.29 2.29 0 0 0-.68-1.46 1.53 1.53 0 0 0-1 1 7.81 7.81 0 0 1-1.4 1.83 6.46 6.46 0 0 1-1.87 1.08 3.11 3.11 0 0 0-1.5 1.15 3.94 3.94 0 0 0-.3 2 6.79 6.79 0 0 1-.11 2.17 4 4 0 0 1-.93 1.57 11 11 0 0 1-1.71 1.23 23.56 23.56 0 0 1-2.46 1.16 19.23 19.23 0 0 1-2.83.84c-.72.14-3 .32-5.15.42-.24.35-.45.69-.66 1-1 1.57-1.59 2.85-1.5 3.26a1.92 1.92 0 0 0 .61.9 4.16 4.16 0 0 0 1.46.86c.6.2 1.39.41 2.12.58.49.11 1 .21 1.32.26a45.78 45.78 0 0 0 5.86.08 56.21 56.21 0 0 0 5.66-.44 19.23 19.23 0 0 0 2.83-.84 23.56 23.56 0 0 0 2.46-1.16A11 11 0 0 0 68.93 40a4 4 0 0 0 .93-1.57 6.79 6.79 0 0 0 .14-2.15 3.94 3.94 0 0 1 .3-2 3.11 3.11 0 0 1 1.49-1.18z"/></svg>