<svg xmlns="http://www.w3.org/2000/svg" width="114.97" height="200" viewBox="0 0 114.97 200"><title>_</title><path d="M56.29 31.85a5.43 5.43 0 0 0 1.85-.54A25.94 25.94 0 0 1 62 29.79a18.91 18.91 0 0 1 3.28-.56H66a20.2 20.2 0 0 1 3.28.29 22 22 0 0 1 3.54 1.05c.85.35 2.33.86 3.23 1.12s2.49.64 3.48.83a4.42 4.42 0 0 0 .8.07 2.5 2.5 0 0 0-.14-.39 8.59 8.59 0 0 1-.75-3.72A7.44 7.44 0 0 1 80.76 25a10.71 10.71 0 0 0 1.18-2.12 6.8 6.8 0 0 0 .27-1.2 5.13 5.13 0 0 0 .07-.77A8.61 8.61 0 0 0 82 19a7.43 7.43 0 0 0-.81-1.63 2.47 2.47 0 0 0-.92-.7 4.46 4.46 0 0 0-1.65 0 11.1 11.1 0 0 1-3.45.1 15.39 15.39 0 0 1-3.55-1.11 17.1 17.1 0 0 0-2.94-1 13 13 0 0 0-2.88-.27 34 34 0 0 1-3.68-.16 46.36 46.36 0 0 1-4-.67 4.29 4.29 0 0 0-1.43-.07 9 9 0 0 0 .14 2.57c.17 1.38.46 2.94.59 3.94 0 .36.07.66.08.85a11.85 11.85 0 0 1-.28 2.94 14.29 14.29 0 0 1-1.11 2.85 6.76 6.76 0 0 0-.62 2.06 7.63 7.63 0 0 0 .09 1.52 7 7 0 0 0 .16.85 1.58 1.58 0 0 0 .54.79zM-.47 123.4c.09 1.11.32 2.89.53 4a23.18 23.18 0 0 0 1 3.5 15.88 15.88 0 0 0 1.48 2.75c.51.7 1.41 1.84 2 2.47s1.56 1.66 2.17 2.23 1.75 1.73 2.35 2.41 2.36 3.09 4 5.42a43 43 0 0 0 3.78 4.91 14 14 0 0 0 2.38 1.65 11.6 11.6 0 0 0 2.67.9c.19 0 .4.06.64.08a12.88 12.88 0 0 0 2.32 0c1-.11 3.56-.23 5.66-.25h.29a22.86 22.86 0 0 1 5.8.65 19.83 19.83 0 0 1 4 2 21.08 21.08 0 0 0 3.37 1.77 18 18 0 0 0 3.46.88 21.79 21.79 0 0 0 3.62.08 24.54 24.54 0 0 0 3.72-.66c1.07-.3 2.79-.86 3.84-1.26s2.71-1.12 3.71-1.62a17.31 17.31 0 0 1 4.34-1.36 17.65 17.65 0 0 1 4.57.05c1.13.18 2.88.38 3.9.45s2.6.08 3.49 0a5.31 5.31 0 0 0 2.23-.74 7.11 7.11 0 0 0 1.69-2.17 14.86 14.86 0 0 1 2.33-3.4A11 11 0 0 1 88 146a6.48 6.48 0 0 0 1.93-1.32 6.75 6.75 0 0 0 1.07-2.12 15.5 15.5 0 0 1 1.45-3.29 14.27 14.27 0 0 1 2.28-2.68 18.92 18.92 0 0 0 1.95-2 51.69 51.69 0 0 0 3.08-5.71 81.9 81.9 0 0 0 3.45-8.41 17 17 0 0 0 .92-5.12 12.65 12.65 0 0 0-1.12-3.44 10.63 10.63 0 0 1-1.12-4.73 11.11 11.11 0 0 1 1.55-4.66 6.57 6.57 0 0 0 .9-3 7.37 7.37 0 0 0-1.25-3.11 18 18 0 0 1-2.22-4.41 13.29 13.29 0 0 1-.5-4.52 28.91 28.91 0 0 1 .79-4.18 33.07 33.07 0 0 1 1.55-4.15 32.22 32.22 0 0 0 1.41-3.7 28 28 0 0 0 .76-3.67 17.66 17.66 0 0 0 0-3.55 19.62 19.62 0 0 0-.9-3.58 18.74 18.74 0 0 1-1-4.33 17.57 17.57 0 0 1 .31-4.36 31 31 0 0 0 .53-3.78c0-.68.06-1.72 0-2.71 0-.46 0-.9-.06-1.27a5.13 5.13 0 0 0-1-2.54 7.17 7.17 0 0 0-3-1.43 16.06 16.06 0 0 0-4.25-.23 16.19 16.19 0 0 0-4.15 1.24 23.43 23.43 0 0 1-4.92 1.63 20.12 20.12 0 0 1-5 .16 34.68 34.68 0 0 0-4.1-.2 24.89 24.89 0 0 0-3.59.41 6.11 6.11 0 0 0-2.11.94 56.15 56.15 0 0 0-2 9.76 98.73 98.73 0 0 0-1.15 11.34 23.83 23.83 0 0 0 .79 3.85 15.91 15.91 0 0 1 .61 4.66 16.6 16.6 0 0 1-1.05 4.64 28.74 28.74 0 0 0-1.21 3.9 25.19 25.19 0 0 0-.46 3.87 15.37 15.37 0 0 0 .49 3.7 19.75 19.75 0 0 0 1.67 3.8 11 11 0 0 1 1.43 4.92 11.09 11.09 0 0 1-1.48 4.92 21.44 21.44 0 0 0-1.74 3.76 37.67 37.67 0 0 0-.54 7.36c0 .64 0 6.32-1.08 7.88s-6.44 3.37-7 3.57a45.48 45.48 0 0 1-7.88 2 23.65 23.65 0 0 1-4.46-.27h-.19a25.49 25.49 0 0 1-4.39-1.3 16.8 16.8 0 0 1-3.49-2 9.39 9.39 0 0 1-2.41-3 9.75 9.75 0 0 1-.69-3.84 29.35 29.35 0 0 0-.1-3.34 32.9 32.9 0 0 0-.58-3.43 37.68 37.68 0 0 0-1.1-3.61c-.38-1-1.14-2.79-1.67-3.89a27.88 27.88 0 0 1-1.64-4.43 24 24 0 0 1-.62-4.49 30.86 30.86 0 0 1 .3-4.43c.18-1.18 1.09-5 2-8.46a35.86 35.86 0 0 0 1.41-7.75 16.09 16.09 0 0 0-1-3.71 13.72 13.72 0 0 1-1-4.76 13.93 13.93 0 0 1 1.11-4.75 23.8 23.8 0 0 0 1.31-3.85 20.33 20.33 0 0 0 .43-3.8 27.37 27.37 0 0 0-.28-3.3l-.07-.45a23.4 23.4 0 0 0-1-3.44 4.14 4.14 0 0 0-1.37-1.74 4.92 4.92 0 0 0-2.41-.24 20.19 20.19 0 0 1-4.55.13 26 26 0 0 1-4.74-1.07 32 32 0 0 0-4.3-1.07 29.79 29.79 0 0 0-4.28-.29 76.23 76.23 0 0 1-7.71-.58 16.49 16.49 0 0 0-5.16.05 21.8 21.8 0 0 0-.14 6.42 64.16 64.16 0 0 1 .38 8.94 32.77 32.77 0 0 1-.86 4.13 10.2 10.2 0 0 0-.28 3.31 12.09 12.09 0 0 0 1.12 3.38 31.26 31.26 0 0 1 1.8 4.13 26.14 26.14 0 0 1 .94 4.2 25.74 25.74 0 0 1 .09 4.2 26.93 26.93 0 0 1-.75 4.19A28 28 0 0 0 0 91.57a26.57 26.57 0 0 0-.07 3.65 24.86 24.86 0 0 1-.16 4.21 27 27 0 0 1-1 4.19 15.18 15.18 0 0 0-.67 3.52 15.59 15.59 0 0 0 .4 3.6 37.44 37.44 0 0 1 .79 4.31 37 37 0 0 1 .17 4.36c-.06 1.1-.02 2.89.07 3.99zM22.9 33.15c1.18-.3 3-.69 4-.86.86-.14 2.08-.28 3-.35H31a19 19 0 0 1 3.14.28 21 21 0 0 1 3.55 1.08 12.3 12.3 0 0 0 2.91.72 13.8 13.8 0 0 0 3.14-.19 3.28 3.28 0 0 0 1.26-.58 2.75 2.75 0 0 0-.33-1A20.89 20.89 0 0 1 43.22 29a12.73 12.73 0 0 1-.59-3 12.14 12.14 0 0 1 .31-2.92 14.73 14.73 0 0 1 1.12-2.84c.13-.25.29-.58.44-.92.25-.57.48-1.12.61-1.51a24.36 24.36 0 0 0 .72-2.81 1.57 1.57 0 0 0 0-.23 5.63 5.63 0 0 0-1.12.35 11.36 11.36 0 0 1-4.28.86 10.11 10.11 0 0 1-4.07-1.22 15.88 15.88 0 0 0-2.91-1.26 12.26 12.26 0 0 0-2.83-.38 14.73 14.73 0 0 0-2.78.36 14 14 0 0 0-2.56 1 4.78 4.78 0 0 0-1.31 1A1 1 0 0 0 24 16a5.83 5.83 0 0 1 .28 2.87 9.49 9.49 0 0 1-1.17 2.87 10.92 10.92 0 0 0-1 2.13 8.1 8.1 0 0 0-.25 2 27.79 27.79 0 0 1-.09 3c-.08.88-.3 2.44-.48 3.47a2.28 2.28 0 0 0 0 1 4.8 4.8 0 0 0 1.61-.19z"/><path d="M93.06 30.36a8.37 8.37 0 0 0 .43-2.5 10 10 0 0 0-.37-2.35 8.88 8.88 0 0 0-1-2 3.85 3.85 0 0 0-1.7-1.27 5.7 5.7 0 0 0-2.42 0 9.56 9.56 0 0 1-2.9.08l-.42-.09c-.3-.07-.63-.15-1-.25a8.14 8.14 0 0 1-.35 1.5A11.93 11.93 0 0 1 82 25.92a6.05 6.05 0 0 0-1 2.66 7.28 7.28 0 0 0 .62 3 2.39 2.39 0 0 1 .15 2.17 3.35 3.35 0 0 1-2.45.25c-1-.2-2.66-.59-3.62-.87s-2.48-.81-3.38-1.17A20.71 20.71 0 0 0 69 31a18.46 18.46 0 0 0-3.25-.26h-.37c-.1.32-.23.69-.37 1a11.22 11.22 0 0 1-.5 1.09 8.21 8.21 0 0 0-.79 2.64 9.78 9.78 0 0 0 .3 2.91 2.73 2.73 0 0 0 1.56 1.82 5.32 5.32 0 0 0 3-.63 24 24 0 0 1 3.56-1.41 16.71 16.71 0 0 1 3.36-.53 18.46 18.46 0 0 1 3.25.26 20.71 20.71 0 0 1 3.25 1c.89.36 2.41.89 3.38 1.17s2.59.67 3.62.87a3.35 3.35 0 0 0 2.45-.25 2.39 2.39 0 0 0-.15-2.17 7.28 7.28 0 0 1-.62-3 6.05 6.05 0 0 1 1-2.66 11.93 11.93 0 0 0 1.38-2.49zM37.48 124.9a8 8 0 0 0 2 2.47 15.42 15.42 0 0 0 3.12 1.79 23.87 23.87 0 0 0 4 1.12h.17a9.08 9.08 0 0 1-.12-1v-.59a30.62 30.62 0 0 0-.11-3.55 34.09 34.09 0 0 0-.61-3.63 39 39 0 0 0-1.15-3.79c-.4-1.07-1.18-2.89-1.73-4a26.24 26.24 0 0 1-1.54-4.15 22.22 22.22 0 0 1-.57-4.15 29.37 29.37 0 0 1 .27-4.15c.17-1.14 1.07-4.87 2-8.3s1.58-7.16 1.46-8.3a17.36 17.36 0 0 0-1.11-4.15 12.19 12.19 0 0 1-.86-4.15 12.4 12.4 0 0 1 1-4.15 25.45 25.45 0 0 0 1.3-4.17 22 22 0 0 0 .44-4.15 27.81 27.81 0 0 0-.38-4A24.68 24.68 0 0 0 44 56.18a5.54 5.54 0 0 0-2-2.51 6.25 6.25 0 0 0-3.36-.39 16.34 16.34 0 0 1-2.13.17h-1a28.72 28.72 0 0 1 .3 3.51 22 22 0 0 1-.44 4.15 25.45 25.45 0 0 1-1.41 4.15 12.4 12.4 0 0 0-1 4.15 12.19 12.19 0 0 0 .86 4.15 17.36 17.36 0 0 1 1.11 4.15c.12 1.14-.53 4.87-1.46 8.3s-1.82 7.16-2 8.3a29.37 29.37 0 0 0-.27 4.15 22.22 22.22 0 0 0 .57 4.15 26.24 26.24 0 0 0 1.54 4.15c.56 1.14 1.34 3 1.73 4a39 39 0 0 1 1.15 3.79 34.09 34.09 0 0 1 .61 3.63 30.62 30.62 0 0 1 .11 3.55 8.35 8.35 0 0 0 .57 3.17z"/><path d="M112.32 90.64a31.23 31.23 0 0 1 1.46-3.92 33.67 33.67 0 0 0 1.49-3.92 29.25 29.25 0 0 0 .81-3.92 19.23 19.23 0 0 0 0-3.92 21.07 21.07 0 0 0-1-3.92 17.25 17.25 0 0 1-.89-3.92 16.13 16.13 0 0 1 .28-3.92 32.45 32.45 0 0 0 .57-4A36 36 0 0 0 115 55a6.46 6.46 0 0 0-1.46-3.47 8.63 8.63 0 0 0-3.73-1.86 17.52 17.52 0 0 0-3.47-.31h-1v2.85a32.45 32.45 0 0 1-.57 4 16.13 16.13 0 0 0-.28 3.92 17.25 17.25 0 0 0 .89 3.92 21.07 21.07 0 0 1 1 3.92 19.23 19.23 0 0 1 0 3.92 29.25 29.25 0 0 1-.81 3.92 33.67 33.67 0 0 1-1.49 3.92 31.23 31.23 0 0 0-1.46 3.92 27.1 27.1 0 0 0-.74 3.92 11.76 11.76 0 0 0 .43 3.92 16.57 16.57 0 0 0 2.05 3.92 8.77 8.77 0 0 1 1.53 3.92 8 8 0 0 1-1.13 3.92 9.75 9.75 0 0 0-1.32 3.93 9.24 9.24 0 0 0 .95 4 14 14 0 0 1 1.29 3.95 17.93 17.93 0 0 1-1 5.77 83.75 83.75 0 0 1-3.53 8.6 50.77 50.77 0 0 1-3.26 6 20.67 20.67 0 0 1-2.13 2.24 12.76 12.76 0 0 0-2 2.35 14 14 0 0 0-1.27 2.91 8.27 8.27 0 0 1-1.45 2.7 8 8 0 0 1-2.49 1.71 9.58 9.58 0 0 0-2.69 1.81 13.35 13.35 0 0 0-2 3 8.52 8.52 0 0 1-2.16 2.73 6.67 6.67 0 0 1-3 1h-3.66c-1.06 0-2.88-.28-4-.47a16.29 16.29 0 0 0-4.12 0 15.84 15.84 0 0 0-3.89 1.22c-1 .51-2.77 1.26-3.84 1.67s-2.86 1-4 1.3a25.88 25.88 0 0 1-4 .71 23.44 23.44 0 0 1-3.93-.09 19.49 19.49 0 0 1-3.82-1 22.57 22.57 0 0 1-3.66-1.92 18.43 18.43 0 0 0-3.78-1.86 22.1 22.1 0 0 0-5.59-.57c-2.06 0-4.54.14-5.51.24a14.9 14.9 0 0 1-2.61 0l.76 1a26.39 26.39 0 0 0 2.38 2.9 15.36 15.36 0 0 0 2.7 1.86 13 13 0 0 0 3.1 1 14.43 14.43 0 0 0 3.39.08c1-.11 3.45-.22 5.51-.24a22.1 22.1 0 0 1 5.59.57 18.43 18.43 0 0 1 3.64 1.82 22.57 22.57 0 0 0 3.66 1.92 19.49 19.49 0 0 0 3.82 1 23.44 23.44 0 0 0 3.93.09 25.88 25.88 0 0 0 4-.71c1.11-.31 2.9-.89 4-1.3s2.8-1.16 3.84-1.67a15.84 15.84 0 0 1 3.89-1.22 16.29 16.29 0 0 1 4.12 0c1.16.19 3 .4 4 .47s2.71.09 3.66 0a6.67 6.67 0 0 0 3-1 8.52 8.52 0 0 0 2.16-2.73 13.35 13.35 0 0 1 2-3 9.58 9.58 0 0 1 2.69-1.81 8 8 0 0 0 2.49-1.71 8.27 8.27 0 0 0 1.45-2.7 14 14 0 0 1 1.28-2.91 12.76 12.76 0 0 1 2-2.35 20.67 20.67 0 0 0 2.13-2.24 50.77 50.77 0 0 0 3.26-6 83.75 83.75 0 0 0 3.53-8.6 17.93 17.93 0 0 0 1-5.77 14 14 0 0 0-1.29-3.95 9.24 9.24 0 0 1-.95-4 9.75 9.75 0 0 1 1.32-3.93 8 8 0 0 0 1.13-3.92 8.77 8.77 0 0 0-1.53-3.92 16.57 16.57 0 0 1-1.95-3.74 11.76 11.76 0 0 1-.43-3.92 27.1 27.1 0 0 1 .75-3.91zM50.2 42.42a15 15 0 0 0 3.57-.21 3.72 3.72 0 0 0 2.32-1.32 3.12 3.12 0 0 0-.4-2.47 19.38 19.38 0 0 1-1.34-2.91 11.43 11.43 0 0 1-.51-2.64 10.9 10.9 0 0 1 .25-2.39 9 9 0 0 1-.1-1.87 8.21 8.21 0 0 1 .79-2.64 12.78 12.78 0 0 0 1-2.5 10.46 10.46 0 0 0 .24-2.5c0-.17 0-.43-.07-.75a4.88 4.88 0 0 0-1 .14 6.83 6.83 0 0 0-1.09.36 10 10 0 0 1-3.62.74 8.7 8.7 0 0 1-3.38-1h-.08c-.28-.26-.58-.46-.91-.56-.17.38-.34.74-.49 1a13.17 13.17 0 0 0-1 2.5 10.83 10.83 0 0 0-.27 2.5 11.43 11.43 0 0 0 .51 2.64A19.38 19.38 0 0 0 46 31.47a3.12 3.12 0 0 1 .4 2.47 3.72 3.72 0 0 1-2.32 1.32 15 15 0 0 1-3.57.21 13.63 13.63 0 0 1-3.36-.84 19.69 19.69 0 0 0-3.25-1 17.29 17.29 0 0 0-3.25-.24h-.56v1c0 .34 0 .85-.07 1.2-.08.84-.29 2.34-.47 3.34a2.78 2.78 0 0 0 .54 2.45 4.3 4.3 0 0 0 2.93.11c1.13-.29 2.89-.67 3.9-.83s2.57-.33 3.46-.36a17.29 17.29 0 0 1 3.25.24 19.69 19.69 0 0 1 3.25 1 13.63 13.63 0 0 0 3.32.88z"/></svg>