<svg xmlns="http://www.w3.org/2000/svg" width="94.78" height="200" viewBox="0 0 94.78 200"><title>_</title><path d="M43.33 33.47a3.71 3.71 0 0 0 1.55 0 7.45 7.45 0 0 0 2-1 13.21 13.21 0 0 1 3-1.6 19.47 19.47 0 0 1 5.48-.3h1.41a17.37 17.37 0 0 0 3.24-.19 27.08 27.08 0 0 0 3.23-1.19 23.38 23.38 0 0 0 3.4-2c.79-.57 4.51-3.93 8.79-8l.67-.64c2.7-2.6 4.69-4.69 5.7-5.86a13.2 13.2 0 0 0-2.7-.27c-.78 0-4 .45-7.54 1.09s-7 1.15-8.17 1.19-2.88 0-3.95-.06h-.31a7.12 7.12 0 0 0-2.17.32 4.94 4.94 0 0 0-1.65 1.3 25.57 25.57 0 0 0-1.58 2.5 30.84 30.84 0 0 0-1.31 2.88A9.69 9.69 0 0 1 50 25.12a13.61 13.61 0 0 1-3.9 2.13 7.81 7.81 0 0 0-2.59 1.51 4.91 4.91 0 0 0-1 2.13 5.4 5.4 0 0 0 .1 2 1.53 1.53 0 0 0 .72.58zM16.38 73.57a15.53 15.53 0 0 1 3.1 4.91 13.17 13.17 0 0 1 .21 4.43 7.31 7.31 0 0 0 .27 3 5.37 5.37 0 0 0 1.68 1.95 13.14 13.14 0 0 1 3 2.8 11.93 11.93 0 0 1 1.66 3.64 8.33 8.33 0 0 0 1.2 2.52 10.07 10.07 0 0 0 2.31 2 18.7 18.7 0 0 1 3.19 2.4 39.21 39.21 0 0 1 4.06 6.31c1.32 2.43 2.78 5.87 2.89 7.47a21 21 0 0 1-.51 5.22 38.83 38.83 0 0 0-.77 5c-.1 1.34.11 7 .46 12.35l.27 4.12c.39 5.94 1.15 10.14 1.44 10.63a5.57 5.57 0 0 0 2.1 1.39 16.27 16.27 0 0 0 3.5.63 14.51 14.51 0 0 0 1.74-.1c1.83-.17 4.45-.5 6.83-.89 3.81-.61 7.92-1.13 9.15-1.15a40.3 40.3 0 0 1 4.3.21 3.26 3.26 0 0 0 1.94-.42 5.29 5.29 0 0 0 1-2.41 30.72 30.72 0 0 0 .19-4.46 37.59 37.59 0 0 0-.6-4.76 37.64 37.64 0 0 1-.63-5.38 83.59 83.59 0 0 1 1.16-10.43c.6-3.79 1.48-8.47 1.91-9.75a19.56 19.56 0 0 1 1.65-3.6c.5-.78 1.37-2 2-2.77s1.61-1.94 2.29-2.67a14.59 14.59 0 0 0 1.77-2.44 15.13 15.13 0 0 0 1.09-2.85c.22-.88.63-3.26.91-5.19a38.05 38.05 0 0 1 1.16-5.54 17.89 17.89 0 0 1 1.67-3.37c.49-.73 1.24-2 1.66-2.78s1-2.13 1.38-2.94c.45-1.1 3.39-6.15 5.92-10.35L95 70c2.52-4.19 5.6-9.14 6.32-10.06a34.79 34.79 0 0 1 2.42-2.72 22.86 22.86 0 0 0 2.07-2.42 21.85 21.85 0 0 0 1.59-2.69 29.69 29.69 0 0 1 1.68-2.92l.07-.11.23-.36c.66-1 1.91-2.57 2.8-3.59a2.93 2.93 0 0 0 .59-1 7.36 7.36 0 0 0-2.34-.55 33.32 33.32 0 0 0-5.36.09 28.07 28.07 0 0 0-4.9 1.13 21.92 21.92 0 0 1-5.45 1.06 21.16 21.16 0 0 1-5.46-.64 18.12 18.12 0 0 0-4.45-.55 16.36 16.36 0 0 0-4.22.84 16.53 16.53 0 0 0-3.69 2.09c-.67.53-3.46 4.47-6.48 9.68l-7.5 12.94c-.72 1.24-1.45 2.45-2.18 3.6-3.43 5.43-4.24 5.8-5.15 5.74-.66 0-1.89-.1-5-7.69-1.45-3.58-3.27-7.6-4-8.77a39.73 39.73 0 0 0-2.94-4.16c-.77-.93-2.28-2.95-3.75-5l-1-1.38A18.27 18.27 0 0 0 34.8 48a7.35 7.35 0 0 0-3.43-.34 31.5 31.5 0 0 1-5.18.34 34.77 34.77 0 0 1-5.29-.68c-1.35-.3-3.55-.65-4.9-.79a47.85 47.85 0 0 0-4.9-.18c-1.52 0-5.21-.21-8.24-.55a23.72 23.72 0 0 0-5.3-.09 2.15 2.15 0 0 0 .17.94 23.83 23.83 0 0 0 1.74 3.29 17.49 17.49 0 0 0 2.13 2.54A13.08 13.08 0 0 1 4 55.65a13.94 13.94 0 0 1 1.12 3.86A9.24 9.24 0 0 0 6 62.27a9.05 9.05 0 0 0 1.91 2.15 34.26 34.26 0 0 1 2.85 2.5 31 31 0 0 1 2.41 2.78c.49.72 1.98 2.49 3.21 3.87z"/><path d="M65 39.05a22.48 22.48 0 0 0 5.12-.19 28.54 28.54 0 0 0 3.46-1.27 25 25 0 0 0 3.67-2.11c.95-.68 5-4.35 9-8.15l.25-.24c4-3.8 7.18-7.25 7.12-7.66A2.11 2.11 0 0 0 92 18.32a14.9 14.9 0 0 0-3.2-.34c-1 0-4.45.52-7.77 1.12l-2.14.37-1.72.28-.42.41-.25.24c-4 3.8-8 7.47-9 8.15a25 25 0 0 1-3.67 2.11 28.54 28.54 0 0 1-3.46 1.27 17.71 17.71 0 0 1-3.64.24 11.32 11.32 0 0 1-1.43.61 8.06 8.06 0 0 0-.77.31 8.69 8.69 0 0 0-2.43 1.59 6.28 6.28 0 0 0-1.39 3 6.49 6.49 0 0 0 .29 2.74 2.91 2.91 0 0 0 1.58 1.42 5.17 5.17 0 0 0 2.36.07 8.86 8.86 0 0 0 2.54-1.24 11.85 11.85 0 0 1 2.64-1.39 19 19 0 0 1 4.88-.23zM120.28 49a34.67 34.67 0 0 0-5.66.1 27 27 0 0 0-2.79.53c-.51.12-1 .25-1.47.38a28.68 28.68 0 0 0-1.59 2.75 23.5 23.5 0 0 1-1.77 2.95 24.6 24.6 0 0 1-2.23 2.61 32.76 32.76 0 0 0-2.29 2.57c-.58.74-3.37 5.2-6.21 9.91l-.15.26c-2.84 4.71-5.46 9.27-5.81 10.14s-1 2.25-1.44 3.07-1.22 2.13-1.73 2.91a16.42 16.42 0 0 0-1.51 3 37.26 37.26 0 0 0-1.09 5.25c-.28 2-.71 4.4-.94 5.34a16.39 16.39 0 0 1-1.2 3.23 15.94 15.94 0 0 1-2 2.75c-.65.7-1.64 1.85-2.21 2.57s-1.4 1.91-1.87 2.66a18.16 18.16 0 0 0-1.5 3.27c-.35 1.06-1.19 5.34-1.85 9.51a84.45 84.45 0 0 0-1.14 10.15 36 36 0 0 0 .6 5.12 38.61 38.61 0 0 1 .63 5 32.16 32.16 0 0 1-.2 4.73 6.36 6.36 0 0 1-1.45 3.33 4.51 4.51 0 0 1-3.12.79 36.54 36.54 0 0 0-4.1-.2c-1.17 0-5.19.53-8.94 1.13-2.52.4-5.14.74-6.93.9 0 .35.1.67.15 1a11.4 11.4 0 0 0 .83 3.36 6.91 6.91 0 0 0 2.88 2 17.47 17.47 0 0 0 3.91.71 70.71 70.71 0 0 0 8.87-1c3.75-.6 7.77-1.11 8.94-1.13a36.54 36.54 0 0 1 4.1.2 4.51 4.51 0 0 0 3.12-.79 6.36 6.36 0 0 0 1.45-3.33 32.16 32.16 0 0 0 .2-4.73 38.61 38.61 0 0 0-.63-5 36 36 0 0 1-.6-5.12 84.45 84.45 0 0 1 1.14-10.15c.67-4.17 1.5-8.45 1.85-9.51a18.16 18.16 0 0 1 1.5-3.27c.47-.74 1.31-1.94 1.87-2.66s1.55-1.88 2.21-2.57a15.94 15.94 0 0 0 2-2.75 16.39 16.39 0 0 0 1.23-3.2c.23-.94.66-3.34.94-5.34a37.26 37.26 0 0 1 1.09-5.25 16.42 16.42 0 0 1 1.51-3c.52-.78 1.3-2.08 1.73-2.91S99.69 89 100 88.14s3-5.43 5.81-10.14l.15-.26c2.84-4.71 5.64-9.17 6.21-9.91a32.76 32.76 0 0 1 2.29-2.57 24.6 24.6 0 0 0 2.23-2.61 23.5 23.5 0 0 0 1.72-2.91 29.1 29.1 0 0 1 1.88-3.19c.63-.91 1.84-2.47 2.69-3.46s1.24-2.25.86-2.81-1.94-1.11-3.56-1.28zM41.17 53.05c1.4 2 2.91 4 3.68 4.94a41 41 0 0 1 3.08 4.35 97.33 97.33 0 0 1 4.07 9c1.5 3.66 3.15 6.66 3.66 6.73s1.92-2.06 3.81-5L59 71.93c-.56-1.2-1-2.15-1.33-2.65a41 41 0 0 0-3.08-4.35c-1-1.14-3-4-4.63-6.3s-3.78-4.63-4.82-5.08a7.89 7.89 0 0 0-2.76-.55 8.56 8.56 0 0 0-1.21.05z"/></svg>