<svg xmlns="http://www.w3.org/2000/svg" width="200" height="200" viewBox="0 0 200 200"><title>_</title><path d="M79.54 42.42a38.28 38.28 0 0 0-4.54-.07 37 37 0 0 0-4.44.6 33.39 33.39 0 0 1-4.71.58 32.78 32.78 0 0 1-4.72-.25 32.12 32.12 0 0 0-4.3-.24 28.58 28.58 0 0 0-4.13.49 9.8 9.8 0 0 0-3.07 1.26 5.55 5.55 0 0 0-1.56 2.06 19 19 0 0 0-.76 3 21 21 0 0 0-.17 3.15c0 .91.16 2.46.28 3.37s.41 2.46.63 3.37.84 4.84 1.38 8.76a58.75 58.75 0 0 1 .74 8.92 19.37 19.37 0 0 1-.92 3.69c-.35.93-.84 2.45-1.1 3.38s-.59 2.45-.75 3.37a13.82 13.82 0 0 0-.1 3.14 15.27 15.27 0 0 0 .82 3.21 10 10 0 0 1 0 7.67 9 9 0 0 0-.54 3 9.64 9.64 0 0 0 .84 3.07 11.74 11.74 0 0 1 1.07 3.85 11 11 0 0 1-.63 3.88 10 10 0 0 0-.55 3.08 10.32 10.32 0 0 0 .71 3.09 10.69 10.69 0 0 1 .77 3.89 11.09 11.09 0 0 1-1 3.88 21.91 21.91 0 0 0-1.27 3.38 18.31 18.31 0 0 0-.5 3.25 27.85 27.85 0 0 0 .11 3.32 29.1 29.1 0 0 0 .6 3.32 27.1 27.1 0 0 1 .84 7.29 3.22 3.22 0 0 0 .77 2 6.6 6.6 0 0 0 2.9 1.06 26.38 26.38 0 0 0 4.4.08h.42a27.73 27.73 0 0 0 3.94-.78 21.42 21.42 0 0 1 4.8-.75h.2a21.48 21.48 0 0 1 4.64.58 42.4 42.4 0 0 0 4.48.85c1.23.15 3.33.25 4.6.27a6.38 6.38 0 0 0 2.7-.52 1.14 1.14 0 0 0 0-1 9.08 9.08 0 0 1-.58-3.15 7.54 7.54 0 0 1 .86-3 7.13 7.13 0 0 0 .72-2 6 6 0 0 0-.15-2 10.68 10.68 0 0 1-.38-2.55 8 8 0 0 1 .43-2.38 4.94 4.94 0 0 1 1.3-1.9 4.13 4.13 0 0 1 2.1-.78 15 15 0 0 0 1.78-.21c.52-.11 1.46-.36 2.06-.56a8.93 8.93 0 0 1 2.63-.38 9.25 9.25 0 0 1 2.62.56 13.42 13.42 0 0 0 2.1.6 11.64 11.64 0 0 0 2.07.13 12.82 12.82 0 0 0 2.34-.42 27.93 27.93 0 0 0 3-1.11 22.29 22.29 0 0 1 3.61-1.19A62.92 62.92 0 0 1 116 131a32.72 32.72 0 0 0 6.59-.81c.77-.29 5.11-2.74 10.09-5.77a110.72 110.72 0 0 0 9.74-6.41 18.56 18.56 0 0 0 2.27-2.84 19.13 19.13 0 0 0 1.57-3.38 55.43 55.43 0 0 0 1.1-8 49.8 49.8 0 0 0 .17-8.05 18.54 18.54 0 0 0-1.16-3.61 15.34 15.34 0 0 1-1.16-4.23 17.46 17.46 0 0 1 .3-4.54 11.76 11.76 0 0 0 .13-3.71 9.25 9.25 0 0 0-1.31-3.08 33.47 33.47 0 0 0-2.39-2.87 31.8 31.8 0 0 0-2.73-2.47c-.59-.46-1.79-1.51-3.12-2.73l-1.53-1.42a39.58 39.58 0 0 0-4.73-3.87 20.47 20.47 0 0 0-3.66-1.64 28.71 28.71 0 0 0-3.85-.88 66.15 66.15 0 0 0-7.16-.12 46.33 46.33 0 0 1-7.35-.26 24.28 24.28 0 0 1-3.65-1.19 15.77 15.77 0 0 0-2.9-.92 6.24 6.24 0 0 0-2 0c-.49.13-1.85.6-3.08 1.09a20.46 20.46 0 0 1-3.43 1.07h-.5a37.27 37.27 0 0 1-4.25-.21c-.15 0-3.7-.44-4.7-1.21a5.27 5.27 0 0 1-1.52-2.19 10.25 10.25 0 0 1-.48-2.44 8.08 8.08 0 0 1 .25-2.31 8.86 8.86 0 0 0 .3-1.69 8.46 8.46 0 0 0-.11-1.62 8.26 8.26 0 0 1 0-2.42 11.77 11.77 0 0 1 .73-2.48.63.63 0 0 0-.1-.65 7.85 7.85 0 0 0-2.83-.72z" fill="#231f20"/><path d="M157 98.66a14.43 14.43 0 0 1-1.07-3.91 16.6 16.6 0 0 1 .28-4.24 12.77 12.77 0 0 0 .14-4.1 10.14 10.14 0 0 0-1.49-3.49 34 34 0 0 0-2.48-3 32.75 32.75 0 0 0-2.83-2.57c-.83-.65-2.89-2.49-4.59-4.08a40 40 0 0 0-4.89-4l-.11-.06a22.13 22.13 0 0 0-3.19-1.48c1.26 1.15 2.48 2.21 3.07 2.68a32.75 32.75 0 0 1 2.82 2.59 34 34 0 0 1 2.48 3 10.14 10.14 0 0 1 1.49 3.49 12.77 12.77 0 0 1-.14 4.1 16.6 16.6 0 0 0-.28 4.24 14.43 14.43 0 0 0 1.07 3.91 19.45 19.45 0 0 1 1.24 3.85 49.51 49.51 0 0 1-.16 8.32 56.17 56.17 0 0 1-1.15 8.25 20.1 20.1 0 0 1-1.67 3.59 19.45 19.45 0 0 1-2.42 3 108.12 108.12 0 0 1-9.91 6.55c-4.7 2.86-9.31 5.49-10.26 5.85a32.77 32.77 0 0 1-6.9.88 62.07 62.07 0 0 0-6.89.6 21.53 21.53 0 0 0-3.42 1.13 28.88 28.88 0 0 1-3.13 1.16 13.82 13.82 0 0 1-2.57.45 12.77 12.77 0 0 1-2.29-.15 14.26 14.26 0 0 1-2.29-.65 8.28 8.28 0 0 0-2.29-.49 8 8 0 0 0-2.29.33c-.63.2-1.61.47-2.17.58a16.15 16.15 0 0 1-1.93.26 3.15 3.15 0 0 0-1.53.56 4 4 0 0 0-1 1.47 7.11 7.11 0 0 0-.36 2 9.68 9.68 0 0 0 .34 2.27 6.88 6.88 0 0 1 .18 2.39 8.1 8.1 0 0 1-.84 2.39 6.62 6.62 0 0 0-.73 2.5 8.05 8.05 0 0 0 .51 2.74 2 2 0 0 1-.35 2.15 6.82 6.82 0 0 1-3.31.73 44.68 44.68 0 0 1-4.73-.27 43.27 43.27 0 0 1-4.6-.88 20.37 20.37 0 0 0-4.54-.55 20.61 20.61 0 0 0-4.54.71 28.65 28.65 0 0 1-4.1.82c0 .32 0 .66.06 1v1.8a4.17 4.17 0 0 0 1.1 2.81 7.43 7.43 0 0 0 3.45 1.31 27.27 27.27 0 0 0 4.6.08 27.89 27.89 0 0 0 4.56-.86 20.61 20.61 0 0 1 4.54-.71 20.37 20.37 0 0 1 4.54.55 43.27 43.27 0 0 0 4.6.88 44.68 44.68 0 0 0 4.73.27 6.82 6.82 0 0 0 3.31-.73 2 2 0 0 0 .35-2.15 8.05 8.05 0 0 1-.51-2.74 6.62 6.62 0 0 1 .73-2.5 8.1 8.1 0 0 0 .84-2.39 6.88 6.88 0 0 0-.18-2.39 9.68 9.68 0 0 1-.34-2.27 7.11 7.11 0 0 1 .36-2 4 4 0 0 1 1-1.47 3.15 3.15 0 0 1 1.53-.56 16.15 16.15 0 0 0 1.93-.26c.56-.12 1.54-.38 2.17-.58a8 8 0 0 1 2.29-.33 8.28 8.28 0 0 1 2.29.49 14.26 14.26 0 0 0 2.29.65 12.77 12.77 0 0 0 2.29.15 13.82 13.82 0 0 0 2.57-.45 28.88 28.88 0 0 0 3.13-1.16 21.53 21.53 0 0 1 3.42-1.13 62.07 62.07 0 0 1 6.89-.6 32.77 32.77 0 0 0 6.9-.88c.94-.36 5.56-3 10.26-5.85a108.12 108.12 0 0 0 9.91-6.55 19.45 19.45 0 0 0 2.42-3 20.1 20.1 0 0 0 1.67-3.59 56.17 56.17 0 0 0 1.15-8.25 49.51 49.51 0 0 0 .16-8.32 19.45 19.45 0 0 0-1.19-3.89zM82.85 50.34a9.82 9.82 0 0 1-.35 1.93 7.18 7.18 0 0 0-.25 2 9.26 9.26 0 0 0 .43 2.15 4.29 4.29 0 0 0 1.18 1.72 13.25 13.25 0 0 0 4.21 1 34.61 34.61 0 0 0 4.09.27c0-.07 0-.16.05-.22.07-.22.13-.51.19-.8a9 9 0 0 0 .16-1.13 9.44 9.44 0 0 0-.14-1.93 7.21 7.21 0 0 1 0-2 10.8 10.8 0 0 1 .58-2.22 1.61 1.61 0 0 0-.43-1.85 8.29 8.29 0 0 0-3.28-.89 38.59 38.59 0 0 0-4.67-.07l-1 .08-1 .11a9.47 9.47 0 0 1 .23 1.85z" fill="#231f20"/></svg>