<svg xmlns="http://www.w3.org/2000/svg" width="119.91" height="200" viewBox="0 0 119.91 200"><title>_</title><path d="M31.63 144.64a33.55 33.55 0 0 1 .68 3.69 33.42 33.42 0 0 1 .18 3.74 2.76 2.76 0 0 0 .61 1.66 6.22 6.22 0 0 0 2.62.93 25.9 25.9 0 0 0 4.3.08h.4a27.21 27.21 0 0 0 3.86-.77 22 22 0 0 1 4.94-.77h.18a22.08 22.08 0 0 1 4.76.6 41.77 41.77 0 0 0 4.41.84c1.17.14 3.23.25 4.54.26a7 7 0 0 0 2.31-.38.84.84 0 0 0 0-.45 9.52 9.52 0 0 1-.62-3.35 8 8 0 0 1 .92-3.18 6.64 6.64 0 0 0 .66-1.85 5.54 5.54 0 0 0-.14-1.76 11.06 11.06 0 0 1-.4-2.7 8.48 8.48 0 0 1 .46-2.55 5.42 5.42 0 0 1 1.46-2.11 4.61 4.61 0 0 1 2.38-.89 14.63 14.63 0 0 0 1.71-.23c.51-.11 1.43-.35 2-.54a9.51 9.51 0 0 1 2.81-.4 9.68 9.68 0 0 1 2.79.6 13 13 0 0 0 2 .57 11 11 0 0 0 2 .13 12.49 12.49 0 0 0 2.23-.4 27.29 27.29 0 0 0 2.93-1.09 22.89 22.89 0 0 1 3.7-1.22 63.21 63.21 0 0 1 7.15-.63 32.61 32.61 0 0 0 6.43-.78c.66-.25 4.79-2.56 10-5.73a112 112 0 0 0 9.65-6.34 17.91 17.91 0 0 0 2.19-2.74 18.52 18.52 0 0 0 1.52-3.27 56.3 56.3 0 0 0 1.08-7.91 49.93 49.93 0 0 0 .18-7.92 17.92 17.92 0 0 0-1.12-3.49 15.94 15.94 0 0 1-1.2-4.4 18 18 0 0 1 .31-4.7 11.35 11.35 0 0 0 .13-3.52 8.79 8.79 0 0 0-1.23-2.87 32.84 32.84 0 0 0-2.4-2.88 31.35 31.35 0 0 0-2.68-2.43c-.6-.47-1.81-1.53-3.15-2.75l-1.54-1.42a39 39 0 0 0-4.64-3.8 19.83 19.83 0 0 0-3.55-1.59 28.1 28.1 0 0 0-3.77-.86 67 67 0 0 0-7.1-.07 46.59 46.59 0 0 1-7.47-.27 24.86 24.86 0 0 1-3.74-1.22 15.4 15.4 0 0 0-2.78-.88 5.78 5.78 0 0 0-1.84 0c-.47.12-1.83.59-3 1.07a20.75 20.75 0 0 1-3.55 1.1h-.56a37.73 37.73 0 0 1-4.32-.28c-.64-.07-3.87-.49-4.94-1.31a5.75 5.75 0 0 1-1.68-2.43 10.69 10.69 0 0 1-.51-2.58 8.53 8.53 0 0 1 .31-2.5 8.33 8.33 0 0 0 .28-1.57 8 8 0 0 0-.1-1.51A8.7 8.7 0 0 1 64.6 48a12.13 12.13 0 0 1 .77-2.6.2.2 0 0 0 0-.08 8.56 8.56 0 0 0-2.46-.57 37.48 37.48 0 0 0-4.45-.07 36.46 36.46 0 0 0-4.36.59 34 34 0 0 1-4.8.59 33.77 33.77 0 0 1-4.81-.25 31.38 31.38 0 0 0-4.22-.24 28 28 0 0 0-4 .48 9.36 9.36 0 0 0-2.88 1.18A5.12 5.12 0 0 0 32 48.9a18.38 18.38 0 0 0-.74 2.88 20.36 20.36 0 0 0-.26 3.09c0 .9.16 2.42.28 3.32s.4 2.42.62 3.32.85 4.88 1.39 8.8a59.88 59.88 0 0 1 .74 9.05 20 20 0 0 1-1 3.81c-.34.91-.83 2.41-1.08 3.33s-.58 2.41-.74 3.32a13.45 13.45 0 0 0-.09 3 14.94 14.94 0 0 0 .88 3.12 10.54 10.54 0 0 1 0 8 8.5 8.5 0 0 0-.5 2.84 9.18 9.18 0 0 0 .79 2.87 12.13 12.13 0 0 1 1.12 4 11.39 11.39 0 0 1-.66 4.09 9.54 9.54 0 0 0-.52 2.89 9.86 9.86 0 0 0 .67 2.91 11.09 11.09 0 0 1 .81 4.11 11.48 11.48 0 0 1-1.07 4.08 21.3 21.3 0 0 0-1.23 3.27 17.69 17.69 0 0 0-.48 3.14 27.34 27.34 0 0 0 .11 3.25 28.48 28.48 0 0 0 .59 3.25z"/><path d="M140.39 100.54a14.43 14.43 0 0 1-1.07-3.91 16.6 16.6 0 0 1 .28-4.24 12.77 12.77 0 0 0 .14-4.1 10.14 10.14 0 0 0-1.49-3.49 34 34 0 0 0-2.48-3 32.71 32.71 0 0 0-2.83-2.57c-.83-.65-2.89-2.49-4.59-4.08a40 40 0 0 0-4.89-4l-.11-.06a22.13 22.13 0 0 0-3.19-1.48c1.26 1.15 2.48 2.21 3.07 2.68a32.71 32.71 0 0 1 2.83 2.57 34 34 0 0 1 2.48 3 10.14 10.14 0 0 1 1.46 3.49 12.77 12.77 0 0 1-.14 4.1 16.6 16.6 0 0 0-.28 4.24 14.43 14.43 0 0 0 1.07 3.91 19.44 19.44 0 0 1 1.24 3.85 49.51 49.51 0 0 1-.16 8.32 56.16 56.16 0 0 1-1.15 8.25 20.11 20.11 0 0 1-1.67 3.59 19.46 19.46 0 0 1-2.42 3 108.17 108.17 0 0 1-9.91 6.55c-4.7 2.86-9.31 5.49-10.26 5.85a32.77 32.77 0 0 1-6.9.88 62 62 0 0 0-6.89.6 21.52 21.52 0 0 0-3.42 1.13A28.83 28.83 0 0 1 86 136.8a13.82 13.82 0 0 1-2.57.45 12.81 12.81 0 0 1-2.29-.15 14.26 14.26 0 0 1-2.29-.65 8.29 8.29 0 0 0-2.29-.49 8 8 0 0 0-2.29.33c-.63.2-1.61.47-2.17.58a16.15 16.15 0 0 1-1.93.26 3.15 3.15 0 0 0-1.53.56 4 4 0 0 0-1 1.47 7.11 7.11 0 0 0-.36 2 9.68 9.68 0 0 0 .34 2.27 6.88 6.88 0 0 1 .18 2.39 8.11 8.11 0 0 1-.84 2.39 6.62 6.62 0 0 0-.73 2.5 8.05 8.05 0 0 0 .51 2.74 2 2 0 0 1-.35 2.15 6.82 6.82 0 0 1-3.31.73 44.74 44.74 0 0 1-4.73-.27 43.27 43.27 0 0 1-4.6-.88 20.37 20.37 0 0 0-4.54-.55 20.61 20.61 0 0 0-4.54.71 28.65 28.65 0 0 1-4.1.82c0 .32 0 .66.06 1v1.8a4.17 4.17 0 0 0 1.1 2.81 7.44 7.44 0 0 0 3.45 1.31 27.27 27.27 0 0 0 4.6.08 27.91 27.91 0 0 0 4.56-.86 20.61 20.61 0 0 1 4.54-.71 20.37 20.37 0 0 1 4.54.55 43.27 43.27 0 0 0 4.6.88 44.74 44.74 0 0 0 4.73.27 6.82 6.82 0 0 0 3.31-.73 2 2 0 0 0 .35-2.15 8.05 8.05 0 0 1-.51-2.74 6.62 6.62 0 0 1 .73-2.5 8.11 8.11 0 0 0 .84-2.39 6.88 6.88 0 0 0-.18-2.39 9.68 9.68 0 0 1-.34-2.27 7.11 7.11 0 0 1 .36-2 4 4 0 0 1 1-1.47 3.15 3.15 0 0 1 1.53-.56 16.15 16.15 0 0 0 1.93-.26c.56-.12 1.54-.38 2.17-.58a8 8 0 0 1 2.29-.33 8.29 8.29 0 0 1 2.29.49 14.26 14.26 0 0 0 2.29.65 12.81 12.81 0 0 0 2.29.15 13.82 13.82 0 0 0 2.57-.45 28.83 28.83 0 0 0 3.13-1.16 21.52 21.52 0 0 1 3.42-1.13 62 62 0 0 1 6.89-.6 32.77 32.77 0 0 0 6.9-.88c.94-.36 5.56-3 10.26-5.85a108.17 108.17 0 0 0 9.91-6.55 19.46 19.46 0 0 0 2.42-3 20.11 20.11 0 0 0 1.67-3.59 56.16 56.16 0 0 0 1.15-8.25 49.51 49.51 0 0 0 .16-8.32 19.44 19.44 0 0 0-1.19-3.89zM65.91 54.14a7.18 7.18 0 0 0-.25 2 9.26 9.26 0 0 0 .43 2.15A4.29 4.29 0 0 0 67.27 60a13.24 13.24 0 0 0 4.21 1 34.66 34.66 0 0 0 4.09.27c0-.07 0-.16.05-.22.07-.22.13-.5.19-.79a9 9 0 0 0 .19-1.1 9.44 9.44 0 0 0-.14-1.93 7.21 7.21 0 0 1 0-2 10.8 10.8 0 0 1 .6-2.23 1.61 1.61 0 0 0-.46-1.86 8.29 8.29 0 0 0-3.28-.89 38.59 38.59 0 0 0-4.67-.07l-1 .08-1 .11a9.48 9.48 0 0 1 .12 1.85 9.81 9.81 0 0 1-.26 1.92z"/></svg>