<svg xmlns="http://www.w3.org/2000/svg" width="200" height="200" viewBox="0 0 200 200"><title>_</title><path d="M92.85 106.36a15.29 15.29 0 0 1-.2 3.18 17.57 17.57 0 0 1-1 3.18 8 8 0 0 0-.6 3.18 8.8 8.8 0 0 0 1 3.18 13.87 13.87 0 0 1 1.29 3.18 24.68 24.68 0 0 1-.45 6.36c-.29 1.67-.53 3.42-.66 4.71a10.85 10.85 0 0 1 2.12 0 12.6 12.6 0 0 0 3.54-.14 12.38 12.38 0 0 0 3.72-3.3 26 26 0 0 0 3-4.43 51.87 51.87 0 0 0 1.24-7 38.51 38.51 0 0 0 .4-7.16 11.11 11.11 0 0 0-1-2.72c-.1-.17-.22-.36-.34-.55a10.43 10.43 0 0 1-3.07-.5 4.34 4.34 0 0 1-1.85-1.5 6.19 6.19 0 0 1-.71-2.05 5.21 5.21 0 0 1 0-1.12l-.19-.08c-.2-.08-.39-.16-.56-.22a13.23 13.23 0 0 0-3.24-.46 11.56 11.56 0 0 1-3.51-.56c.2.59.38 1.19.49 1.64a22 22 0 0 1 .58 3.18zM97.11 69.92c-.5.44-2 4.16-3.23 8.27-.56 1.81-1.14 3.89-1.64 5.88a5.6 5.6 0 0 1 1.86-1 6 6 0 0 0 1.43-.66 7.4 7.4 0 0 0 1.27-1.2 8.75 8.75 0 0 1 2-1.69 12.63 12.63 0 0 1 2.63-1.1 4.23 4.23 0 0 0 1.66-1 4.61 4.61 0 0 0 .78-1.88 9.47 9.47 0 0 0 0-2.44 14.37 14.37 0 0 0-1.36-3.1c-.33-.61-.68-1.27-1-1.86l-.1-.19c-.67.19-1.42.43-2 .63a9.48 9.48 0 0 0-2.3 1.34z" fill="none"/><path d="M121.18 47.32a29.48 29.48 0 0 0-2.58-2.12 17.15 17.15 0 0 0-2.89-1.59 43.81 43.81 0 0 0-7.07-1.22c-3-.34-6.52-.62-7.59-.57s-2.84.17-3.92.3a32 32 0 0 1-4.28.2 38.09 38.09 0 0 1-4.49-.48 27.16 27.16 0 0 0-4.25-.34 55.88 55.88 0 0 0-8 1.48 79 79 0 0 0-7.6 2.16 34.34 34.34 0 0 0-3.28 1.66 25 25 0 0 0-2.93 2.09 69.15 69.15 0 0 0-5 5.53 51 51 0 0 0-4.28 5.77 11.63 11.63 0 0 0-.84 2.81 18 18 0 0 0-.12 2.95 19 19 0 0 0 .47 3c.23.9.54 2.33.68 3.2s.29 2.26.34 3.1-.16 4.75-.39 7.75-.63 6.92-.87 8c-.21.89-.64 2.34-1 3.24s-.72 2.22-.93 3.05-.5 2.23-.63 3-.18 5.31-.11 10.81.32 10.07.49 10.76a20.24 20.24 0 0 0 1 3 10.61 10.61 0 0 1 .86 3.53 10.3 10.3 0 0 1-.67 3.54 7.25 7.25 0 0 0-.44 2.68 8.24 8.24 0 0 0 .89 2.72 8.91 8.91 0 0 1 1 3.62 8.73 8.73 0 0 1-.93 3.63 10.31 10.31 0 0 0-.82 2.72 7 7 0 0 0 .18 2.43 3.05 3.05 0 0 0 1.1 1.46 5.88 5.88 0 0 0 2.46.43h3.89c.33 0 .84.08 1.57.18 1.71.24 4.2.68 6.5 1.14 3.22.64 6.9 1.25 8 1.34a33.71 33.71 0 0 0 4.26 0 5.56 5.56 0 0 0 2.75-1 3.55 3.55 0 0 0 .71-2.23 31.1 31.1 0 0 0-.39-3.55 25.14 25.14 0 0 0-.86-3.2 11 11 0 0 1-.56-3.56 11.48 11.48 0 0 1 .86-3.54 11 11 0 0 0 .75-2.86 10 10 0 0 0-.29-2.83 16.65 16.65 0 0 1-.53-3.43 50.77 50.77 0 0 1 .79-6.56 24.68 24.68 0 0 0 .46-6 12.85 12.85 0 0 0-1.19-2.91 9.8 9.8 0 0 1-1.14-3.61 9 9 0 0 1 .69-3.66 16.58 16.58 0 0 0 .95-3 14.31 14.31 0 0 0 .19-2.93 21.09 21.09 0 0 0-.46-3 24.08 24.08 0 0 0-1-3 15.64 15.64 0 0 1-1-3.44 36.5 36.5 0 0 1 .48-6.64 102.77 102.77 0 0 1 3-12.41c.25-.79 2.43-7.78 3.52-8.73a10.45 10.45 0 0 1 2.68-1.54 26 26 0 0 1 3-.92 21.59 21.59 0 0 1 3-.41 7.3 7.3 0 0 1 2.9.5 6 6 0 0 1 2.14 1.87c.39.59 1 1.55 1.27 2.13s.75 1.53 1 2.1c.1.26.33.73.6 1.28s.62 1.2.94 1.79a16.07 16.07 0 0 1 1.54 3.8 11.32 11.32 0 0 1 0 3.08 6.51 6.51 0 0 1-1.24 2.88 6.1 6.1 0 0 1-2.64 1.61 10.83 10.83 0 0 0-2.13.89 6.75 6.75 0 0 0-1.44 1.23 9.4 9.4 0 0 1-1.7 1.6 7.81 7.81 0 0 1-2 .94 3.59 3.59 0 0 0-1.17.62 4 4 0 0 0-.77 1.15c-.06.16-.14.36-.21.58-.14.42-.28.88-.36 1.22a17.82 17.82 0 0 0-.32 2c-.06.64-.22 1.67-.35 2.31s-.41 1.67-.62 2.3a5.16 5.16 0 0 0-.2 1.73 5.24 5.24 0 0 0 .58 1.65 2.83 2.83 0 0 0 .71.69 3 3 0 0 0 .65.39 9.63 9.63 0 0 0 2.81.43 15.12 15.12 0 0 1 3.84.55c.23.07.48.17.74.28a12.25 12.25 0 0 1 2.5 1.41 21.8 21.8 0 0 1 2.56 2.37 21.37 21.37 0 0 1 2 2.79l.06.12a13.1 13.1 0 0 1 1.22 3.3 38.36 38.36 0 0 1-.38 7.8 51.75 51.75 0 0 1-1.36 7.5 26.85 26.85 0 0 1-3.37 5c-1.41 1.73-3.51 3.64-4.78 4a14.19 14.19 0 0 1-4.26.19 8.86 8.86 0 0 0-1.88 0 3.76 3.76 0 0 0-1.06.23 1.75 1.75 0 0 0-.75 1.2 8.18 8.18 0 0 0 .24 2.4 9.34 9.34 0 0 0 1.14 2.27 9.64 9.64 0 0 1 1.31 2.67l.05.16a7.21 7.21 0 0 1 0 3 16.18 16.18 0 0 0-.36 2.27v1.3c0 .32 0 .63.06.88a5 5 0 0 0 .22 1 2.49 2.49 0 0 1 1.8.26 6.68 6.68 0 0 1 1.63 1.59 3.94 3.94 0 0 0 1.1 1 1.82 1.82 0 0 0 1 .06c.39-.11 1.45-.52 2.42-.95l.25-.1a8.51 8.51 0 0 1 2.79-.56 3.81 3.81 0 0 1 .52 0 16.24 16.24 0 0 1 3.41 1 13.37 13.37 0 0 0 3.32.87 11.71 11.71 0 0 0 3.24-.26 23.44 23.44 0 0 0 3.22-1.14 21.92 21.92 0 0 0 2.9-1.67 18.89 18.89 0 0 0 2.46-2.16 19.18 19.18 0 0 0 2-2.65 12.81 12.81 0 0 1 2.5-2.91 14.57 14.57 0 0 1 3.47-2 7.88 7.88 0 0 0 2.54-1.65c.42-.54 1.9-4.69 3.33-10.18s2.32-10.3 2.25-11.29a54 54 0 0 0-2.59-8.77 53.69 53.69 0 0 0-3.58-8.19 57.33 57.33 0 0 0-6.61-5.85c-.24-.19-5.82-4.61-6.31-6.35s4.28-6.87 5.76-8.36c3.36-3.37 5.71-6.35 5.91-7a7.14 7.14 0 0 0-.4-2.89 14.94 14.94 0 0 1-.83-4 12.19 12.19 0 0 1 .57-3.78 7.86 7.86 0 0 0 .36-2.74 41.33 41.33 0 0 0-4.58-7.42c-1.25-1.74-2.56-3.49-3.68-4.94a28.12 28.12 0 0 0-2.09-2.43z" fill="#231f20"/><path d="M99.35 104a6.19 6.19 0 0 0 .71 2.05 4.34 4.34 0 0 0 1.85 1.5 10.43 10.43 0 0 0 3.07.5h.12c.33 0 .71 0 1.1.06l-.05-.1a20.59 20.59 0 0 0-1.9-2.63 21 21 0 0 0-2.38-2.24 11.24 11.24 0 0 0-2.27-1.28 5.69 5.69 0 0 0-.2 1 5.21 5.21 0 0 0-.05 1.14zM127.69 54.13c2.53 3.51 4.67 7.07 4.76 7.9a8.79 8.79 0 0 1-.41 3.17 11.23 11.23 0 0 0-.51 3.42 14 14 0 0 0 .76 3.64 8.05 8.05 0 0 1 .44 3.44c-.14.86-2.92 4.24-6.18 7.5s-5.73 6.6-5.55 7.4 3 3.4 6 5.83a56.87 56.87 0 0 1 6.79 6 53.18 53.18 0 0 1 3.72 8.45 53.68 53.68 0 0 1 2.65 9c.09 1.24-.94 6.46-2.28 11.61s-2.94 9.92-3.55 10.6a8.83 8.83 0 0 1-2.93 1.91 13.62 13.62 0 0 0-3.19 1.79 11.85 11.85 0 0 0-2.27 2.65 20.19 20.19 0 0 1-2.08 2.82 19.94 19.94 0 0 1-2.62 2.3 23 23 0 0 1-3.06 1.76 24.33 24.33 0 0 1-3.39 1.2 12.68 12.68 0 0 1-3.58.29 14.35 14.35 0 0 1-3.62-.95 15.45 15.45 0 0 0-3.15-1 6.64 6.64 0 0 0-2.78.46c-.05.35-.09.69-.11 1v.18a15.08 15.08 0 0 0 .07 2.19 4.44 4.44 0 0 0 .48 1.62.75.75 0 0 0 .87.22 1.43 1.43 0 0 1 1.15.12 5.83 5.83 0 0 1 1.33 1.32 4.79 4.79 0 0 0 1.49 1.32 2.76 2.76 0 0 0 1.65.1c.47-.14 1.62-.58 2.54-1a6.76 6.76 0 0 1 3-.55 15.45 15.45 0 0 1 3.15 1 14.35 14.35 0 0 0 3.62.95 12.68 12.68 0 0 0 3.58-.29 24.33 24.33 0 0 0 3.39-1.2 23 23 0 0 0 3.06-1.76 19.94 19.94 0 0 0 2.62-2.3 20.19 20.19 0 0 0 2.08-2.82 11.85 11.85 0 0 1 2.27-2.65 13.62 13.62 0 0 1 3.19-1.79 8.83 8.83 0 0 0 2.93-1.91c.61-.68 2.21-5.45 3.55-10.6s2.37-10.38 2.28-11.61a53.68 53.68 0 0 0-2.65-9 53.18 53.18 0 0 0-3.72-8.45 56.87 56.87 0 0 0-6.79-6c-3.06-2.41-5.74-5-6-5.84s2.26-4.12 5.51-7.38 6-6.64 6.18-7.5a8.05 8.05 0 0 0-.44-3.44 14 14 0 0 1-.76-3.64 11.23 11.23 0 0 1 .51-3.42 8.79 8.79 0 0 0 .41-3.17c-.09-.84-2.23-4.39-4.76-7.9s-5.15-6.9-5.82-7.54a30.36 30.36 0 0 0-2.68-2.2 18.1 18.1 0 0 0-3.09-1.71l-.28-.09c-.36-.11-.89-.24-1.54-.37 1.13 1.34 2.45 3.11 3.76 4.92zM92.62 153.61a.65.65 0 0 1-.23-.18 4.44 4.44 0 0 1-.48-1.62c0-.26-.06-.61-.07-1a10 10 0 0 1-.49-3.11 10.52 10.52 0 0 1 .77-3.18l.06-.17A8.69 8.69 0 0 0 91 142a10.23 10.23 0 0 1-1.29-2.58 9.15 9.15 0 0 1-.28-2.76 2.7 2.7 0 0 1 1.31-2 4.62 4.62 0 0 1 1.39-.33c0-.28 0-.63.09-1 .13-1.29.37-3 .66-4.71a24.68 24.68 0 0 0 .45-6.36 13.87 13.87 0 0 0-1.29-3.18 8.8 8.8 0 0 1-1-3.18 8 8 0 0 1 .6-3.18 17.57 17.57 0 0 0 1-3.18 15.29 15.29 0 0 0 .2-3.18 22 22 0 0 0-.49-3.18c-.11-.45-.29-1-.49-1.64s-.37-1-.54-1.46a3.78 3.78 0 0 1-1-1 6.19 6.19 0 0 1-.68-2.08 6.09 6.09 0 0 1 .24-2.15c.2-.6.46-1.59.59-2.19s.28-1.59.33-2.19a18.74 18.74 0 0 1 .34-2.11c.09-.37.24-.86.39-1.31.21-.94.45-2 .72-3 .5-2 1.08-4.07 1.64-5.88 1.27-4.11 2.73-7.84 3.23-8.27a9.48 9.48 0 0 1 2.37-1.36c.53-.2 1.28-.44 2-.63.34-.1.68-.19.94-.25-.29-.58-.53-1.08-.64-1.36-.22-.54-.64-1.44-.93-2s-.85-1.48-1.23-2a5 5 0 0 0-1.72-1.52 6.11 6.11 0 0 0-2.42-.41 20.75 20.75 0 0 0-2.81.39 25 25 0 0 0-2.89.88A9.48 9.48 0 0 0 87.4 63c-.5.44-2 4.16-3.23 8.27a102 102 0 0 0-3 12.25 35.82 35.82 0 0 0-.48 6.37 14.77 14.77 0 0 0 .89 3.18 24.93 24.93 0 0 1 1.07 3.18 22 22 0 0 1 .49 3.18 15.29 15.29 0 0 1-.2 3.18 17.57 17.57 0 0 1-1 3.18 8 8 0 0 0-.6 3.18 8.8 8.8 0 0 0 1 3.18 13.87 13.87 0 0 1 1.29 3.18 24.68 24.68 0 0 1-.45 6.36 50 50 0 0 0-.77 6.37 15.84 15.84 0 0 0 .5 3.18 10.85 10.85 0 0 1 .32 3.18 11.78 11.78 0 0 1-.83 3.18 10.52 10.52 0 0 0-.77 3.18 10 10 0 0 0 .51 3.18 26 26 0 0 1 .9 3.35 31.92 31.92 0 0 1 .41 3.7 4.46 4.46 0 0 1-1 3 6.44 6.44 0 0 1-3.37 1.24 34.3 34.3 0 0 1-4.41 0c-1.18-.09-4.84-.7-8.14-1.35-2.35-.47-4.83-.9-6.45-1.13a9.86 9.86 0 0 0-.26 1c0 .11-.05.23-.07.32A7.94 7.94 0 0 0 60 157a4 4 0 0 0 1.56 2 6.64 6.64 0 0 0 3 .56h3.79c1.06 0 4.63.64 7.94 1.3s7 1.27 8.14 1.35a34.3 34.3 0 0 0 4.41 0 6.44 6.44 0 0 0 3.32-1.21 4.46 4.46 0 0 0 1-3c0-.92-.18-2.3-.34-3.28 0-.15 0-.29-.07-.42s-.08-.45-.13-.69z" fill="#231f20"/></svg>