<svg xmlns="http://www.w3.org/2000/svg" width="115.84" height="200" viewBox="0 0 115.84 200"><title>_</title><path d="M82.63 49.56a28.74 28.74 0 0 0-2.52-2.07A16.49 16.49 0 0 0 77.32 46a43.9 43.9 0 0 0-6.93-1.19c-3.34-.37-6.56-.6-7.51-.57s-2.81.16-3.88.3a32.65 32.65 0 0 1-4.36.2 38.7 38.7 0 0 1-4.56-.48 27.23 27.23 0 0 0-4.15-.33A56.62 56.62 0 0 0 38 45.35c-3.53.86-6.74 1.8-7.53 2.13a33.64 33.64 0 0 0-3.23 1.63 24.31 24.31 0 0 0-2.86 2 70.06 70.06 0 0 0-4.91 5.47 51.26 51.26 0 0 0-4.21 5.67 11.19 11.19 0 0 0-.83 2.66 17.39 17.39 0 0 0-.12 2.85 18.4 18.4 0 0 0 .46 2.88c.24.91.54 2.37.69 3.25s.3 2.29.35 3.15-.15 4.79-.39 7.9-.63 7-.89 8c-.22.91-.65 2.38-1 3.29s-.7 2.19-.91 3-.49 2.19-.62 3c-.1.6-.18 5-.1 10.73s.33 10.06.48 10.64a19.58 19.58 0 0 0 1 2.87 11 11 0 0 1 .91 3.72 10.71 10.71 0 0 1-.7 3.74 6.76 6.76 0 0 0-.41 2.45 7.76 7.76 0 0 0 .83 2.52 9.33 9.33 0 0 1 1.11 3.85 9.17 9.17 0 0 1-1 3.87 9.84 9.84 0 0 0-.88 2.55 6.45 6.45 0 0 0 .16 2.22 2.63 2.63 0 0 0 .87 1.17 5.42 5.42 0 0 0 2.19.37h3.93c.35 0 .87.08 1.62.18 1.71.24 4.22.68 6.53 1.14 3.21.64 6.86 1.25 8 1.33a33 33 0 0 0 4.18 0 5.15 5.15 0 0 0 2.45-.83 3.12 3.12 0 0 0 .56-1.85 30.4 30.4 0 0 0-.39-3.48 24.54 24.54 0 0 0-.84-3.12 11.4 11.4 0 0 1-.59-3.75 11.87 11.87 0 0 1 .9-3.73 10.49 10.49 0 0 0 .71-2.69 9.51 9.51 0 0 0-.27-2.66 17.24 17.24 0 0 1-.55-3.55 50.48 50.48 0 0 1 .79-6.66 25.19 25.19 0 0 0 .47-5.77 12.45 12.45 0 0 0-1.13-2.77 10.21 10.21 0 0 1-1.24-3.84 9.43 9.43 0 0 1 .73-3.9 16 16 0 0 0 .91-2.85 13.94 13.94 0 0 0 .18-2.81 20.45 20.45 0 0 0-.41-2.85 23.41 23.41 0 0 0-1-3 16.25 16.25 0 0 1-1-3.57 36.42 36.42 0 0 1 .48-6.78 103.42 103.42 0 0 1 3.06-12.48c.57-1.85 2.53-8 3.67-9A10.84 10.84 0 0 1 51 62.09a26.68 26.68 0 0 1 3.1-.94 22.09 22.09 0 0 1 3.06-.42 7.65 7.65 0 0 1 3.13.54 6.42 6.42 0 0 1 2.34 2c.4.6 1 1.58 1.3 2.17s.77 1.56 1 2.15c.1.25.32.71.59 1.24s.61 1.19.93 1.77a16.38 16.38 0 0 1 1.6 4 11.73 11.73 0 0 1 0 3.24 7 7 0 0 1-1.3 3.16 6.55 6.55 0 0 1-2.88 1.77 10.41 10.41 0 0 0-2 .83 6.26 6.26 0 0 0-1.31 1.12 9.82 9.82 0 0 1-1.81 1.69 8.26 8.26 0 0 1-2.19 1 3.14 3.14 0 0 0-1 .5 3.52 3.52 0 0 0-.64 1c-.06.15-.13.35-.2.55-.14.4-.27.85-.35 1.18a17.17 17.17 0 0 0-.31 1.91c-.06.65-.22 1.71-.36 2.36s-.42 1.71-.63 2.35a4.69 4.69 0 0 0-.18 1.52 4.79 4.79 0 0 0 .51 1.45 2.47 2.47 0 0 0 .58.55 2.56 2.56 0 0 0 .54.33 9.16 9.16 0 0 0 2.62.39 15.72 15.72 0 0 1 4 .58c.24.07.51.18.79.3a12.79 12.79 0 0 1 2.61 1.48 22.32 22.32 0 0 1 2.59 2.43 22 22 0 0 1 2.07 2.87l.07.13a13.66 13.66 0 0 1 1.27 3.44c.28 1.42-.07 5.54-.37 8a51.29 51.29 0 0 1-1.39 7.62 26.79 26.79 0 0 1-3.45 5.11c-1.42 1.74-3.6 3.77-5 4.14a14.78 14.78 0 0 1-4.44.2 8.4 8.4 0 0 0-1.77 0 3.46 3.46 0 0 0-.9.18 1.3 1.3 0 0 0-.48.79 7.71 7.71 0 0 0 .22 2.22A8.91 8.91 0 0 0 54 143a10.05 10.05 0 0 1 1.39 2.82 1.72 1.72 0 0 1 .05.18 7.68 7.68 0 0 1 0 3.2 15.75 15.75 0 0 0-.34 2.18v1.25c0 .3 0 .6.06.83a4.39 4.39 0 0 0 .08.46 3 3 0 0 1 1.69.39 7.13 7.13 0 0 1 1.78 1.73 3.67 3.67 0 0 0 .91.84 1.47 1.47 0 0 0 .61 0c.36-.11 1.42-.51 2.36-.92l.21-.09a9.06 9.06 0 0 1 3-.61 4.32 4.32 0 0 1 .59 0 16.83 16.83 0 0 1 3.61 1.18 13 13 0 0 0 3.16.83 11.24 11.24 0 0 0 3.07-.25 22.84 22.84 0 0 0 3.14-1.11 21.34 21.34 0 0 0 2.82-1.62 18.27 18.27 0 0 0 2.38-2.09 18.57 18.57 0 0 0 1.9-2.56 13.39 13.39 0 0 1 2.62-3 15.15 15.15 0 0 1 3.61-2A7.42 7.42 0 0 0 95 143a62.67 62.67 0 0 0 3.21-10 69.06 69.06 0 0 0 2.23-11.13 54.34 54.34 0 0 0-2.56-8.63 53.93 53.93 0 0 0-3.51-8.07 57.64 57.64 0 0 0-6.52-5.76c-1-.78-6-4.78-6.48-6.61-.56-2 3.45-6.4 5.89-8.85 3.46-3.47 5.63-6.3 5.78-6.79a6.9 6.9 0 0 0-.39-2.57 15.54 15.54 0 0 1-.86-4.11 12.56 12.56 0 0 1 .59-4 7.38 7.38 0 0 0 .34-2.53 44.68 44.68 0 0 0-4.49-7.18C87 55.15 85.71 53.4 84.6 52a28.17 28.17 0 0 0-1.97-2.44z"/><path d="M63.71 109.41a10.44 10.44 0 0 0 3.07.5h.12c.33 0 .71 0 1.1.06l-.05-.1a20.62 20.62 0 0 0-1.9-2.63 21 21 0 0 0-2.39-2.24 11.25 11.25 0 0 0-2.27-1.28 5.7 5.7 0 0 0-.2 1 5.21 5.21 0 0 0 0 1.13 6.19 6.19 0 0 0 .71 2.05 4.34 4.34 0 0 0 1.81 1.51zM104 70.86c-.09-.84-2.23-4.39-4.76-7.9S94 56 93.38 55.41a30.4 30.4 0 0 0-2.68-2.2 18.11 18.11 0 0 0-3.1-1.71l-.28-.1c-.32-.1-.89-.23-1.54-.4 1.07 1.38 2.4 3.16 3.7 5 2.53 3.51 4.67 7.07 4.76 7.9a8.79 8.79 0 0 1-.41 3.17 11.23 11.23 0 0 0-.51 3.42 14 14 0 0 0 .76 3.64 8.05 8.05 0 0 1 .44 3.44c-.14.86-2.92 4.24-6.18 7.5s-5.73 6.59-5.51 7.38 2.91 3.42 6 5.84a56.9 56.9 0 0 1 6.79 6 53.2 53.2 0 0 1 3.72 8.45 53.68 53.68 0 0 1 2.65 9c.09 1.24-.94 6.46-2.28 11.61s-2.94 9.92-3.55 10.6A8.83 8.83 0 0 1 93.2 146a13.62 13.62 0 0 0-3.2 1.75 11.85 11.85 0 0 0-2.27 2.65 20.19 20.19 0 0 1-2.08 2.82 19.94 19.94 0 0 1-2.62 2.3 23 23 0 0 1-3.03 1.76 24.33 24.33 0 0 1-3.39 1.2 12.67 12.67 0 0 1-3.58.29 14.35 14.35 0 0 1-3.62-.95 15.45 15.45 0 0 0-3.15-1 6.63 6.63 0 0 0-2.78.46c-.05.35-.09.69-.11 1v.18a15.07 15.07 0 0 0 .07 2.19 4.45 4.45 0 0 0 .48 1.62.75.75 0 0 0 .87.22 1.43 1.43 0 0 1 1.15.12 5.83 5.83 0 0 1 1.33 1.32 4.79 4.79 0 0 0 1.49 1.32 2.76 2.76 0 0 0 1.65.1c.47-.14 1.62-.58 2.54-1a6.75 6.75 0 0 1 3-.55 15.45 15.45 0 0 1 3.15 1 14.35 14.35 0 0 0 3.62.95 12.67 12.67 0 0 0 3.58-.29 24.33 24.33 0 0 0 3.39-1.2 23 23 0 0 0 3.06-1.76 19.94 19.94 0 0 0 2.62-2.3 20.19 20.19 0 0 0 2.08-2.82 11.85 11.85 0 0 1 2.27-2.65 13.62 13.62 0 0 1 3.19-1.79 8.83 8.83 0 0 0 2.93-1.92c.61-.68 2.21-5.45 3.55-10.6s2.37-10.38 2.28-11.61a53.68 53.68 0 0 0-2.65-9 53.2 53.2 0 0 0-3.72-8.45 56.9 56.9 0 0 0-6.79-6c-3.06-2.41-5.74-5-6-5.84s2.29-4.23 5.55-7.52 6-6.64 6.18-7.5a8.05 8.05 0 0 0-.44-3.44 14 14 0 0 1-.76-3.64 11.23 11.23 0 0 1 .51-3.42 8.79 8.79 0 0 0 .45-3.14zM40.87 157.14a34.26 34.26 0 0 1-4.41 0c-1.18-.09-4.84-.7-8.14-1.35-2.35-.47-4.83-.9-6.45-1.13a9.84 9.84 0 0 0-.26 1c0 .11-.05.23-.07.32a7.94 7.94 0 0 0 .21 2.86 4 4 0 0 0 1.56 2 6.64 6.64 0 0 0 3 .56h3.79c1.06 0 4.63.64 7.94 1.3s7 1.27 8.14 1.35a34.26 34.26 0 0 0 4.41 0 6.44 6.44 0 0 0 3.41-1.21 4.46 4.46 0 0 0 1-3c0-.92-.18-2.3-.34-3.28 0-.15 0-.29-.07-.42s-.09-.43-.14-.66a.65.65 0 0 1-.23-.18 4.45 4.45 0 0 1-.48-1.62c0-.26-.06-.61-.07-1a10 10 0 0 1-.49-3.11 10.52 10.52 0 0 1 .77-3.18l.06-.17a8.69 8.69 0 0 0-1.16-2.35 10.23 10.23 0 0 1-1.29-2.58 9.15 9.15 0 0 1-.28-2.76 2.7 2.7 0 0 1 1.31-2 4.63 4.63 0 0 1 1.39-.33c0-.28 0-.63.09-1 .13-1.29.37-3 .66-4.71a24.68 24.68 0 0 0 .45-6.36 13.87 13.87 0 0 0-1.32-3.13 8.8 8.8 0 0 1-1-3.18 8 8 0 0 1 .6-3.18 17.57 17.57 0 0 0 1-3.18 15.29 15.29 0 0 0 .2-3.18 22 22 0 0 0-.49-3.18c-.11-.45-.29-1-.49-1.64s-.37-1-.54-1.46a3.79 3.79 0 0 1-1-1 6.19 6.19 0 0 1-.71-2.05 6.09 6.09 0 0 1 .24-2.15c.2-.6.46-1.59.59-2.19s.28-1.59.33-2.19a18.74 18.74 0 0 1 .34-2.11c.09-.37.24-.86.39-1.31.21-.94.45-2 .72-3 .5-2 1.08-4.07 1.64-5.88C57 76 58.4 72.23 58.9 71.79a9.48 9.48 0 0 1 2.37-1.36c.53-.2 1.28-.44 2-.63.34-.1.68-.19.94-.25-.29-.58-.53-1.08-.64-1.36-.22-.54-.64-1.44-.93-2s-.85-1.48-1.23-2a5 5 0 0 0-1.72-1.52 6.11 6.11 0 0 0-2.42-.41 20.71 20.71 0 0 0-2.81.39 24.92 24.92 0 0 0-2.89.88 9.48 9.48 0 0 0-2.37 1.36c-.5.44-2 4.16-3.23 8.27a102 102 0 0 0-3 12.25 35.81 35.81 0 0 0-.48 6.37 14.77 14.77 0 0 0 .89 3.18 24.92 24.92 0 0 1 1.07 3.18 22 22 0 0 1 .49 3.18 15.29 15.29 0 0 1-.2 3.18 17.57 17.57 0 0 1-1 3.18 8 8 0 0 0-.6 3.18 8.8 8.8 0 0 0 1 3.18 13.87 13.87 0 0 1 1.29 3.18 24.68 24.68 0 0 1-.45 6.36 50 50 0 0 0-.77 6.37 15.84 15.84 0 0 0 .5 3.18 10.85 10.85 0 0 1 .29 3.17 11.78 11.78 0 0 1-.83 3.18 10.52 10.52 0 0 0-.77 3.18 10 10 0 0 0 .51 3.18 26 26 0 0 1 .9 3.35 31.92 31.92 0 0 1 .41 3.7 4.46 4.46 0 0 1-1 3 6.44 6.44 0 0 1-3.35 1.25z"/></svg>