<svg xmlns="http://www.w3.org/2000/svg" width="128.64" height="200" viewBox="0 0 128.64 200"><title>_</title><path d="M63.36 49.83a8 8 0 0 0-.77-2.25 6.44 6.44 0 0 0-1.85-1.77 17.89 17.89 0 0 0-2.92-1.28 48.91 48.91 0 0 0-7.15-.79c-3.1-.17-6.59-.23-7.61-.14s-2.8.33-3.87.52a29.93 29.93 0 0 1-4 .42 19.65 19.65 0 0 1-2.22-.11c1.16 1 3.24 2.83 5.24 4.48A115.57 115.57 0 0 1 47.74 58a38.23 38.23 0 0 0 5.51 5.21 6.73 6.73 0 0 0 1.79 0 19.08 19.08 0 0 0 2.91-.49 39.6 39.6 0 0 1 5.83-1.11 49.69 49.69 0 0 1 6 .74h.21c-.66-.57-1.31-1.17-1.75-1.63a22.73 22.73 0 0 1-2.39-3.05 18.75 18.75 0 0 1-1.62-3.49 22.44 22.44 0 0 1-.82-4c.01-.02-.02-.18-.05-.35zM17.4 145.26a21.83 21.83 0 0 0 3.47 4.74 37.22 37.22 0 0 0 6.39 3c1 .4 2 .8 3.09 1.19a58.21 58.21 0 0 0 9.33 2.81 98.39 98.39 0 0 0 10.74-3.35l9.9-3.5c9.85-3.48 10.46-3.34 10.82-3.26a3.31 3.31 0 0 1 1.64.94 3.24 3.24 0 0 1 .7 1.78 3.85 3.85 0 0 1-.57 2.06 7.1 7.1 0 0 1-.84 1.05H84c5.66-.08 11-.08 12.21 0a52.27 52.27 0 0 1 5.17.79l.44.09a6.38 6.38 0 0 1-.13-.75 6.94 6.94 0 0 0-.3-1.33 11.73 11.73 0 0 0-1.51-1.62 11.52 11.52 0 0 1-2.28-2.69c-.33-.8-.34-6.57-.3-11.27l.23-25.13c0-4.9.19-10.74.35-11.92a26.82 26.82 0 0 1 .88-3.77 4.81 4.81 0 0 0 .12-2.29 4.59 4.59 0 0 0-1.41-1.73 12.8 12.8 0 0 1-2.76-2.73A9.77 9.77 0 0 1 93.35 85a9.92 9.92 0 0 0-.86-2.45l-.09-.14-.1-.15a14.16 14.16 0 0 0-1.63-2.11A17.94 17.94 0 0 0 88.15 78a54.37 54.37 0 0 0-6.55-2.81 42.8 42.8 0 0 0-6.84-2.05 15.42 15.42 0 0 0-3.44.21 27.38 27.38 0 0 1-4.18.4 71.25 71.25 0 0 1-7.6-.94 31.25 31.25 0 0 0-6.54-.53 13.44 13.44 0 0 0-3 1.09 13.37 13.37 0 0 1-3.89 1.28 13.28 13.28 0 0 1-4.09-.23 7.27 7.27 0 0 0-2.78 0 8.7 8.7 0 0 0-2.66 1.44 21.16 21.16 0 0 1-3.56 2.33 19.31 19.31 0 0 1-3.93 1.34 25.31 25.31 0 0 0-3.22.91 18 18 0 0 0-2.62 1.29 14 14 0 0 0-2.08 1.68 14.23 14.23 0 0 0-1.63 2.14c-.41.69-1 1.88-1.35 2.6s-.81 2-1 2.74a20.16 20.16 0 0 0-.63 3 32.13 32.13 0 0 0-.17 3.64 3 3 0 0 0 .46 1.59 4.39 4.39 0 0 0 1.79-.17 36.82 36.82 0 0 1 4.28-1c.55-.09 1.25-.17 2-.24h.37a11.27 11.27 0 0 1 1.87-.08 30.51 30.51 0 0 1 4 .33 33 33 0 0 1 4.07 1 14.5 14.5 0 0 0 3.33.5 12.2 12.2 0 0 0 3.27-.67 9.57 9.57 0 0 0 2.38-1.32 2.24 2.24 0 0 0 .56-.95 5.25 5.25 0 0 1 .93-2.58 5.55 5.55 0 0 1 2.3-1.7c.51-.19 1.34-.54 1.81-.77s1.2-.64 1.61-.9a5.77 5.77 0 0 1 2.43-.81 6.31 6.31 0 0 1 2.52.51c.46.21 1.2.5 1.6.64a11.67 11.67 0 0 0 1.33.34 5.32 5.32 0 0 0 1.16 0 10.85 10.85 0 0 0 1.61-.4 3.73 3.73 0 0 1 2.9.15 3.84 3.84 0 0 1 1.53 2.46 5.89 5.89 0 0 0 .5 1.45 4.38 4.38 0 0 0 .89 1 3.84 3.84 0 0 1 1.41 2.82 4.78 4.78 0 0 1-.11 1 10.23 10.23 0 0 1-.74 2.3 11.74 11.74 0 0 1-2.2 3.09 11 11 0 0 1-3.18 2 15.74 15.74 0 0 1-3.59.82 17.38 17.38 0 0 1-3.78-.18 14.29 14.29 0 0 0-1.74-.16 12.88 12.88 0 0 0-1.31 0 44.82 44.82 0 0 0-5.88 1.5l-.28.09a31.24 31.24 0 0 1-7.09 1.49 18.72 18.72 0 0 1-4.08-.8 10.34 10.34 0 0 0-2.75-.42h-.33a24.64 24.64 0 0 0-5.74 2.74c-2.71 1.63-5.19 3.28-5.81 3.78a31.22 31.22 0 0 0-2.44 2.29 26.16 26.16 0 0 0-2.07 2.58 25.81 25.81 0 0 0-1.63 2.86 25.52 25.52 0 0 0-1.17 3.08 25.94 25.94 0 0 0-.67 3.24 17.51 17.51 0 0 0-.08 3 30.49 30.49 0 0 0 1.44 5 62.1 62.1 0 0 0 3.33 7.23z"/><path d="M69.56 63.88a53.9 53.9 0 0 0-5.76-.71 38.47 38.47 0 0 0-5.48 1.06 20.54 20.54 0 0 1-3.15.53l.83.89.35.35a58.07 58.07 0 0 0 4.6 4.53 7.5 7.5 0 0 0 1.42 1c.77.33 3 .18 5.2-.31l.45-.1a38.47 38.47 0 0 1 5.48-1.06 53.9 53.9 0 0 1 5.76.71c2.44.4 4.44.51 4.43.24a4.94 4.94 0 0 0-1.69-1.7 28.58 28.58 0 0 1-3-2.6 21.35 21.35 0 0 1-2.2-2.81 17.39 17.39 0 0 1-1.47-3.16 21.12 21.12 0 0 1-.76-3.64 9.54 9.54 0 0 0-1.06-3.35 7.94 7.94 0 0 0-2.38-2.29A19.6 19.6 0 0 0 68 50a15.06 15.06 0 0 0-2.12-.38l-1-.12c0 .21.07.41.09.6a21.12 21.12 0 0 0 .76 3.64A17.39 17.39 0 0 0 67.15 57a21.35 21.35 0 0 0 2.2 2.81 28.58 28.58 0 0 0 3 2.6 4.94 4.94 0 0 1 1.65 1.7c0 .27-2 .17-4.44-.23zM113.33 161.07a3.91 3.91 0 0 1-.43-1.44 8.18 8.18 0 0 0-.4-1.71 9.57 9.57 0 0 0-1.9-2.18 10 10 0 0 1-1.9-2.15c-.15-.37-.24-5.18-.19-10.68l.23-25.13c.05-5.5.2-10.78.34-11.72a25 25 0 0 1 .82-3.51 6.18 6.18 0 0 0 .12-3.22 6 6 0 0 0-2-2.5 11.46 11.46 0 0 1-2.39-2.35 8.35 8.35 0 0 1-1.13-2.79 11.23 11.23 0 0 0-1-2.92 15.15 15.15 0 0 0-2.04-2.77 19.47 19.47 0 0 0-2.79-2.29A31.31 31.31 0 0 0 95 82l-1.43-.58c.08.13.17.26.23.37a11.23 11.23 0 0 1 1 2.92 8.35 8.35 0 0 0 1.2 2.81 11.46 11.46 0 0 0 2.39 2.35 6 6 0 0 1 2 2.5 6.18 6.18 0 0 1-.12 3.22 25 25 0 0 0-.82 3.51c-.13.95-.28 6.22-.34 11.72l-.3 25.18c-.05 5.5 0 10.31.19 10.68a10 10 0 0 0 1.9 2.15 9.57 9.57 0 0 1 1.9 2.18 8.18 8.18 0 0 1 .4 1.71 3.91 3.91 0 0 0 .43 1.44.89.89 0 0 0 .83.34l.56-.11-.71.19c-.42.11-.87.24-1 .29a.2.2 0 0 0-.17.24 1.35 1.35 0 0 0 .47.33 11.41 11.41 0 0 1-2.51-.41c-1.6-.33-3.84-.68-5-.77s-6.57-.1-12.07 0h-.47c-5.5.08-10.61.1-11.35 0a16.38 16.38 0 0 1-2-.29.7.7 0 0 1-.61-.61 2.85 2.85 0 0 1 .87-1.14 7.33 7.33 0 0 0 1.19-1.33 2.41 2.41 0 0 0 .35-1.17 1.74 1.74 0 0 0-.33-.89 1.84 1.84 0 0 0-.85-.46 99.72 99.72 0 0 0-10 3.21l-9.9 3.5a91.24 91.24 0 0 1-11.18 3.44c-1 .06-5.42-1.23-9.91-2.87-1.06-.39-2.12-.79-3.14-1.2.33.51.67 1 1 1.47a14 14 0 0 0 1.9 2.21c1 .82 5.45 2.83 9.94 4.47s8.95 2.92 9.91 2.87A91.24 91.24 0 0 0 60.64 162l9.9-3.5a99.72 99.72 0 0 1 10-3.21 1.84 1.84 0 0 1 .85.46 1.74 1.74 0 0 1 .33.89 2.41 2.41 0 0 1-.35 1.17 7.33 7.33 0 0 1-1.19 1.33 2.85 2.85 0 0 0-.87 1.14.7.7 0 0 0 .61.61 16.38 16.38 0 0 0 2 .29c.74.06 5.85 0 11.35 0h.48c5.5-.08 10.93-.08 12.07 0s3.38.44 5 .77a11.41 11.41 0 0 0 2.51.41 1.35 1.35 0 0 1-.47-.33.2.2 0 0 1 .17-.24c.13-.05.58-.18 1-.29l.71-.19-.56.11a.89.89 0 0 1-.85-.35zM25.66 107.25a4.35 4.35 0 0 0 3.12 0 35.21 35.21 0 0 1 4.07-1 29.2 29.2 0 0 1 3.92-.33 28.9 28.9 0 0 1 3.85.31 31.33 31.33 0 0 1 3.72.9h.13a12.51 12.51 0 0 0 1.85.42 44 44 0 0 1 6.21-1.56 13.51 13.51 0 0 1 1.49 0 6.27 6.27 0 0 0 .92-.65 3.1 3.1 0 0 0 .24-.27 3.36 3.36 0 0 0 .81-1.68 3.87 3.87 0 0 1 .62-1.78 4.07 4.07 0 0 1 1.57-1.09c.56-.21 1.44-.58 2-.83s1.3-.69 1.76-1a4.29 4.29 0 0 1 1.71-.58 4.57 4.57 0 0 1 1.81.37c.38.17.9.39 1.34.55l.42.15.54.16a3.57 3.57 0 0 0 .08-.69A2.39 2.39 0 0 0 67 97.1a5.83 5.83 0 0 1-1.28-1.42 7.21 7.21 0 0 1-.72-1.93 2.45 2.45 0 0 0-.83-1.46 2.31 2.31 0 0 0-1.64 0 12 12 0 0 1-1.9.47 6.54 6.54 0 0 1-1.6 0 12.72 12.72 0 0 1-1.55-.4c-.45-.15-1.24-.46-1.75-.7a4.57 4.57 0 0 0-1.81-.37 4.29 4.29 0 0 0-1.71.58c-.46.29-1.25.73-1.76 1s-1.39.62-2 .83a4.07 4.07 0 0 0-1.57 1.09 3.87 3.87 0 0 0-.62 1.78 3.48 3.48 0 0 1-1 2 11 11 0 0 1-2.85 1.61 13.65 13.65 0 0 1-3.78.77 13.78 13.78 0 0 1-3.83-.58 31.2 31.2 0 0 0-3.85-.94 28.9 28.9 0 0 0-3.88-.43c-.56 0-1.31 0-2.06.11-.07.35-.13.7-.18 1 0 .16-.05.32-.07.46a33.58 33.58 0 0 0-.18 3.85 3.83 3.83 0 0 0 1.08 2.83z"/></svg>