<svg xmlns="http://www.w3.org/2000/svg" width="132" height="200" viewBox="0 0 132 200"><title>_</title><path d="M105.62 154.27a.27.27 0 0 1 0 .13.25.25 0 0 0 .19.19 4.72 4.72 0 0 0 .71.19.57.57 0 0 0 .43 0 3.18 3.18 0 0 0-.64-.33 5.81 5.81 0 0 0-.69-.18z" fill="none"/><path d="M50.77 62.22a8.37 8.37 0 0 1 2.73-.47 5.43 5.43 0 0 1 .61 0 9.27 9.27 0 0 1 3.24 1.16 4.8 4.8 0 0 0 .92.4 4.24 4.24 0 0 0 .72.18 63.8 63.8 0 0 0 8.27-5c4.34-3 9.63-6.37 11.81-7.58a46.88 46.88 0 0 0 3.53-2.19 12.46 12.46 0 0 0 1.46-1.11A11.52 11.52 0 0 0 86 45a4.26 4.26 0 0 0 .39-1.35 1.82 1.82 0 0 0-.56-.16 27.65 27.65 0 0 0-3.07-.05c-.92 0-4.42.46-7.66.92a47.23 47.23 0 0 1-8.51.59A24.43 24.43 0 0 1 62 43.76a7.31 7.31 0 0 0-3-.42 4.84 4.84 0 0 0-2.11 1.26 13.73 13.73 0 0 0-1.79 2.7 13.38 13.38 0 0 0-.89 3.08A14.2 14.2 0 0 1 53 54.26a13 13 0 0 1-2.42 3.15c-.68.62-2.43 2.46-3.84 4a19.77 19.77 0 0 0-1.47 1.84 26.79 26.79 0 0 0 2.85-.34 19.28 19.28 0 0 0 2.65-.69zM13.79 133a14.11 14.11 0 0 1-.14 3.52 22.5 22.5 0 0 0-.33 2.65 24.25 24.25 0 0 0 .05 2.75 6.81 6.81 0 0 0 .94 2.43 18.62 18.62 0 0 0 2.74 3 25.17 25.17 0 0 0 3.88 2.7 22.75 22.75 0 0 0 2.73 1.17c.61.22 1.15.39 1.57.5a31.38 31.38 0 0 1 4.51 1.56 16.07 16.07 0 0 1 3.36 2.15 4 4 0 0 0 1.66.85 4.24 4.24 0 0 0 1.84-.42 14.4 14.4 0 0 1 3.63-1.18 21.55 21.55 0 0 1 4.22-.16c1.14.08 2.94.13 4 .11s4.66-.45 7.88-.95a24.63 24.63 0 0 0 7.13-2 15.31 15.31 0 0 0 2.86-3.23 17.08 17.08 0 0 1 2.55-3.26 2 2 0 0 1 2.08-.33 2.07 2.07 0 0 1 1.19 1.84 8.74 8.74 0 0 0 .25 1.5 10.18 10.18 0 0 0 1.15 1.8c.25.32 1.5 2 1.36 3.25a6 6 0 0 1-.54 1.7 9.13 9.13 0 0 0 1.8.26h.8c.88 0 2.29-.1 4.07-.23 2.13-.15 4.63-.35 7-.57l7.41-.68c3.14-.29 5.82-.55 7.58-.72a7.12 7.12 0 0 0-.67-1 4.1 4.1 0 0 0-.83-.6 3.82 3.82 0 0 1-1.64-1.56 3.5 3.5 0 0 1-.17-2.28 1.9 1.9 0 0 0 0-.64 3.91 3.91 0 0 0-.53-1 7 7 0 0 1-1.08-3.06 77 77 0 0 1 .5-9c.37-3.77.62-8 .56-9.21a36.88 36.88 0 0 0-.58-4.49c-.28-1.34-.62-3.52-.76-4.86s-.28-3.53-.29-4.86a39.14 39.14 0 0 1 .25-4.59 25.91 25.91 0 0 1 .89-4 9.24 9.24 0 0 0 .39-2.74 8.88 8.88 0 0 0-.71-2.63c-.44-.92-1.64-4.08-2.73-7.2a49.09 49.09 0 0 0-2.24-5.48 4.68 4.68 0 0 0-.38-.52 38.63 38.63 0 0 0-5-3.59 34.15 34.15 0 0 0-5.72-3 11.69 11.69 0 0 0-3.14-.21c-1.11.1-2.88.19-4 .19s-2.78-.07-3.86-.17-2.79-.35-3.84-.57-2.79-.66-3.85-1a22.7 22.7 0 0 0-3.36-.73 18 18 0 0 0-3.16 0 30.19 30.19 0 0 1-3.63.1 33.11 33.11 0 0 1-3.66-.4 15 15 0 0 0-3-.15 14.17 14.17 0 0 0-2.95.66 26.42 26.42 0 0 1-3.7 1 30.71 30.71 0 0 1-4 .37 17.69 17.69 0 0 0-3.43.46 17.83 17.83 0 0 0-3.22 1.27 20.11 20.11 0 0 0-2.77 1.85 59.89 59.89 0 0 0-5.1 7.15 58.4 58.4 0 0 0-4.27 7.47 10.67 10.67 0 0 0-.16 2.8 2.81 2.81 0 0 0 .64 1.48 4.19 4.19 0 0 0 2 .28c1-.12 3.63-.64 5.69-1.13l.49-.18c2.2-.51 4.47-.95 5.51-1.06a27.11 27.11 0 0 1 4.12-.06 29.33 29.33 0 0 1 4.16.69A35.23 35.23 0 0 1 44 98.26a6.79 6.79 0 0 0 2.14.51 9.78 9.78 0 0 0 1.38-3c.58-2 1.49-4.55 2.55-5.12a4.25 4.25 0 0 1 3-.13 14.94 14.94 0 0 0 1.88.46 8.58 8.58 0 0 0 1.51.07 5.81 5.81 0 0 0 1.26-.29 8.05 8.05 0 0 0 1.4-.76 3.61 3.61 0 0 1 2.88-.62 4.56 4.56 0 0 1 2.24 1.89 6.11 6.11 0 0 0 1.05 1.22 3 3 0 0 0 .95.43 4.61 4.61 0 0 1 2.21 1 4.9 4.9 0 0 1 1.21 2.13 7.33 7.33 0 0 1 .07 2.7c0 .17-.08.37-.13.58a16.67 16.67 0 0 1-.81 2.4 6.83 6.83 0 0 1-5.6 4.23c-.91.13-3.83.18-5 .2h-3.45c-2.41 0-4.9.09-6.56.25a7.8 7.8 0 0 0-1.25.18 13.48 13.48 0 0 0-2.76 1.41 14.43 14.43 0 0 1-3.67 1.7 14.12 14.12 0 0 1-4 .36h-1.51c-.51 0-1.37 0-1.84.07a24.61 24.61 0 0 0-3.27.57c-.91.24-2.42.71-3.29 1s-2.34.94-3.22 1.36a20.23 20.23 0 0 0-2.86 1.75 21.71 21.71 0 0 0-2.51 2.35c-.67.76-1.71 2.05-2.33 2.88s-1.54 2.22-2.08 3.11a8.78 8.78 0 0 0-1 2.84 9.41 9.41 0 0 0 .35 3.09 22.66 22.66 0 0 1 .85 3.92zM115.33 161.22a.27.27 0 0 1 0 .13.25.25 0 0 0 .19.19 4.72 4.72 0 0 0 .71.19.57.57 0 0 0 .43 0 3.18 3.18 0 0 0-.64-.33 5.81 5.81 0 0 0-.69-.18zM54.89 71.73a28.43 28.43 0 0 0 3.27-.38 20.66 20.66 0 0 0 2.84-.79 6.72 6.72 0 0 1 2.64-.35 7.85 7.85 0 0 1 2.64.95 6.05 6.05 0 0 0 2.53.81c.67 0 4.72-2.39 9-5.32s9.55-6.31 11.69-7.51a34.35 34.35 0 0 0 5.31-3.53 13 13 0 0 0 2.23-3 4.22 4.22 0 0 0 .49-2.61 2.31 2.31 0 0 0-1.86-1.05 29.15 29.15 0 0 0-3.28-.06c-.88 0-3.86.39-6.89.81l-.91.13-1.14.15c-1.05.72-2.39 1.56-3.65 2.26-2.14 1.19-7.4 4.57-11.69 7.51S59.77 65 59.1 65a4.69 4.69 0 0 1-1.3-.27l-.8.83c-.56.59-1.13 1.22-1.67 1.82-1.45 1.62-2.54 3.29-2.43 3.69s1.04.71 1.99.66z"/><path d="M73.41 153.06a4.53 4.53 0 0 0-1.06-2.16 10.07 10.07 0 0 1-1.35-2.24 10.12 10.12 0 0 1-.31-1.83c0-.58-.42-.78-.84-.45a16.56 16.56 0 0 0-2.22 2.89 16.61 16.61 0 0 1-3.22 3.61c-1 .73-4.49 1.75-7.81 2.26s-7 .94-8.08 1-3 0-4.13-.11a19.78 19.78 0 0 0-3.86.14 12.86 12.86 0 0 0-3.18 1 5.57 5.57 0 0 1-2.72.58 5.46 5.46 0 0 1-2.48-1.22 14.64 14.64 0 0 0-3-1.9 29.84 29.84 0 0 0-4.25-1.47c-.5-.13-1.09-.32-1.71-.54.34.44.78.95 1.24 1.45s.94 1 1.38 1.35a26.65 26.65 0 0 0 4.16 2.89 25.29 25.29 0 0 0 4.64 1.8 29.84 29.84 0 0 1 4.25 1.47 14.64 14.64 0 0 1 3 1.9 5.46 5.46 0 0 0 2.48 1.22 5.57 5.57 0 0 0 2.72-.58 12.86 12.86 0 0 1 3.18-1 19.78 19.78 0 0 1 3.86-.14c1.16.08 3 .14 4.13.11s4.75-.46 8.08-1 6.84-1.53 7.81-2.26a14.54 14.54 0 0 0 2.12-2.14c.28-.34.55-.68.78-1h-.91a8.31 8.31 0 0 1-3-.61 1 1 0 0 1-.3-1.41 5.22 5.22 0 0 0 .6-1.61zM26.64 106.38a5.22 5.22 0 0 0 3.07.55c1.09-.13 3.73-.65 5.87-1.17s4.75-1 5.81-1.14a25.79 25.79 0 0 1 3.85-.05h.1c.74.06 1.78.22 2.7.4 1.63-.16 4.18-.26 6.7-.26h3.39c.13-.32.26-.66.37-1s.14-.4.19-.61c.6-2.1 1.42-4 1.82-4.21a2.8 2.8 0 0 1 1.85 0 16.28 16.28 0 0 0 2.12.52 9.89 9.89 0 0 0 1.84.09 5.61 5.61 0 0 0 .68-.15 6.9 6.9 0 0 0 1-.29h.11c0-.17.08-.33.1-.47a5.94 5.94 0 0 0 0-2.07 3.47 3.47 0 0 0-.79-1.41 3.17 3.17 0 0 0-1.42-.7 4.3 4.3 0 0 1-1.63-.72A7.41 7.41 0 0 1 63 92.07a3.22 3.22 0 0 0-1.39-1.25 2.13 2.13 0 0 0-1.61.38 9.38 9.38 0 0 1-1.68.92 7.09 7.09 0 0 1-1.7.39 9.89 9.89 0 0 1-1.84-.09 16.28 16.28 0 0 1-2.12-.52 2.8 2.8 0 0 0-1.85 0c-.4.21-1.22 2.11-1.82 4.21s-1.64 3.94-2.31 4.09a6.79 6.79 0 0 1-3.24-.59 33.71 33.71 0 0 0-4-1.37 27.56 27.56 0 0 0-3.9-.65 25.79 25.79 0 0 0-3.85.05c-1 .1-3.24.54-5.26 1-.24.46-.44.85-.58 1.17a4.25 4.25 0 0 0-.26.67 11.94 11.94 0 0 0-.19 3.31 4 4 0 0 0 1.24 2.59zM109.82 109.39a10.59 10.59 0 0 0 .46-3.31 10.27 10.27 0 0 0-.85-3.2c-.42-.86-1.61-4-2.66-7a33.43 33.43 0 0 0-2.87-6.58 37.59 37.59 0 0 0-5.42-3.89c-.75-.51-1.48-.96-2.27-1.41-.52-.29-1-.56-1.49-.81a50.64 50.64 0 0 1 2.32 5.68c1 3 2.25 6.18 2.66 7a10.27 10.27 0 0 1 .85 3.2 10.59 10.59 0 0 1-.46 3.31 24.19 24.19 0 0 0-.83 3.7 37.33 37.33 0 0 0-.24 4.38c0 1.3.14 3.42.29 4.72s.48 3.42.74 4.72a38.09 38.09 0 0 1 .61 4.72c.07 1.3-.19 5.54-.57 9.43a76.31 76.31 0 0 0-.5 8.63 5.66 5.66 0 0 0 .78 2.31 5.21 5.21 0 0 1 .79 1.49 3.24 3.24 0 0 1 0 1.43 2.05 2.05 0 0 0 .07 1.23 2.38 2.38 0 0 0 1 .87 5.43 5.43 0 0 1 1.25.9 9.53 9.53 0 0 1 1.18 1.76 12.35 12.35 0 0 0 .75 1.31.66.66 0 0 1 .14.17s-4.45.48-9.93 1l-7.41.68c-2.5.23-5 .43-7.08.58.18.3.4.63.63 1l.31.42a4.53 4.53 0 0 1 1.05 2.17 5.22 5.22 0 0 1-.6 1.6 1 1 0 0 0 .3 1.41 8.31 8.31 0 0 0 3 .61c1.19.06 6.64-.31 12.12-.81l7.41-.68c5.48-.51 9.94-.95 9.93-1a.66.66 0 0 0-.14-.17 12.35 12.35 0 0 1-.75-1.31 9.53 9.53 0 0 0-1.18-1.76 5.43 5.43 0 0 0-1.25-.9 2.38 2.38 0 0 1-1-.87 2.05 2.05 0 0 1-.07-1.23 3.24 3.24 0 0 0 0-1.43 5.21 5.21 0 0 0-.79-1.49 5.66 5.66 0 0 1-.78-2.31 76.31 76.31 0 0 1 .5-8.63c.38-3.89.63-8.14.57-9.43a38.09 38.09 0 0 0-.61-4.72c-.27-1.3-.6-3.42-.74-4.72s-.27-3.42-.29-4.72a37.33 37.33 0 0 1 .24-4.38 24.19 24.19 0 0 1 .83-3.67zm-3.35 45.43a4.72 4.72 0 0 1-.71-.19.25.25 0 0 1-.19-.19.27.27 0 0 0 0-.13 5.81 5.81 0 0 1 .64.24 3.18 3.18 0 0 1 .64.33.57.57 0 0 1-.38-.06z"/></svg>