<svg xmlns="http://www.w3.org/2000/svg" width="130.6" height="200" viewBox="0 0 130.6 200"><title>_</title><path d="M79.91 51.36a27.49 27.49 0 0 1-2.48-1.82 22.08 22.08 0 0 1-2.6-2.7A8 8 0 0 0 73 45.22a5.37 5.37 0 0 0-1.91-.55 79 79 0 0 1-7.88-1.56 34.93 34.93 0 0 0-7-1.13 17 17 0 0 0-3.61 2c-1.54 1.07-3.46 2.33-4.29 2.82A13.59 13.59 0 0 0 46 48.64a16.08 16.08 0 0 0-1.9 2.59 15.94 15.94 0 0 1-2.57 3.27A17.65 17.65 0 0 1 38 56.92a11.74 11.74 0 0 0-2.67 1.94 11.08 11.08 0 0 0-1.74 2.7 5.33 5.33 0 0 0-.26.77 16.6 16.6 0 0 1 3.18-.33 13.74 13.74 0 0 1 3.28.57 13.08 13.08 0 0 0 2.47.49 12.33 12.33 0 0 0 1.85-.06l.61-.08a14.68 14.68 0 0 1 3.28-.18 17.36 17.36 0 0 1 3.37.71 7 7 0 0 0 2.13.33 2.93 2.93 0 0 0 1.25-.5 2.78 2.78 0 0 0 .67-1 4.66 4.66 0 0 0 0-1.68 6.88 6.88 0 0 1 0-3 4.29 4.29 0 0 1 1.82-2.29 6.11 6.11 0 0 0 1.21-1 10.77 10.77 0 0 0 1.14-1.73c.24-.47 1.08-1.9 2.33-1.9a1.77 1.77 0 0 1 .42.05c1.13.29 1.63 1.62 1.85 2.69a4.91 4.91 0 0 0 .66 1.58 2.8 2.8 0 0 0 1.06.67 4.85 4.85 0 0 1 2.48 1.62 5 5 0 0 1 .74 2.87 6.58 6.58 0 0 0 .18 1.72 4.89 4.89 0 0 0 .25.63 5.85 5.85 0 0 0 .48.86A2.6 2.6 0 0 0 71 64a25 25 0 0 0 5-.46l.54-.09a38.84 38.84 0 0 1 5.72-.64 15.9 15.9 0 0 1 3.2.58 14.06 14.06 0 0 0 2.63.47 18.32 18.32 0 0 0 2.63-.09l-.4-.31a19.51 19.51 0 0 1-3.24-3 17.09 17.09 0 0 1-2.16-3.7 12.22 12.22 0 0 0-1.67-2.78 12.47 12.47 0 0 0-2.52-2.09zM25.7 84.2a26.11 26.11 0 0 0-3.35 4.14 34.05 34.05 0 0 0-1 5.45 13.94 13.94 0 0 0 0 4.45 6 6 0 0 0 1.94.95 9.88 9.88 0 0 0 3.24.19 11.24 11.24 0 0 0 2.47-.8 9.32 9.32 0 0 0 .87-.43 21.41 21.41 0 0 1 4.2-1.8 17.4 17.4 0 0 1 4.28-.55c1.11 0 3.73.25 5.84.5a26.67 26.67 0 0 0 4.5.23 1.82 1.82 0 0 0 .74-.36 15.38 15.38 0 0 1 1.19-1.51 15.85 15.85 0 0 1 1.41-1.33 6.67 6.67 0 0 1 2-1.06 6.8 6.8 0 0 1 2.22-.27 2.72 2.72 0 0 0 1-.19 5.42 5.42 0 0 0 1.21-.89A4.73 4.73 0 0 1 61 89.59a3.75 3.75 0 0 1 2.66.94 5.22 5.22 0 0 0 1.11.73 4 4 0 0 0 1.13.24 17.14 17.14 0 0 1 2 .19 20.37 20.37 0 0 1 2 .46A3.27 3.27 0 0 1 72 94a4.15 4.15 0 0 1-.35 2.81 20.6 20.6 0 0 0-.79 2c-.05.16-.11.35-.17.55-.15.54-.31 1.14-.39 1.54a7.73 7.73 0 0 1-1.31 2.8 10.73 10.73 0 0 1-5.87 3.68 13.53 13.53 0 0 1-3.76.18 20.33 20.33 0 0 0-3.11-.06 18.89 18.89 0 0 0-3 .54 18.78 18.78 0 0 1-3.63.59 20 20 0 0 1-3.74-.26 31.22 31.22 0 0 0-3.3-.37h-2.42l-1 .06a8.91 8.91 0 0 0-2.79.82l-.38.23a11.77 11.77 0 0 0-2.07 1.89 18.47 18.47 0 0 1-3.17 2.81 14.6 14.6 0 0 1-3.63 1.64 8.9 8.9 0 0 0-2.45 1.16 9 9 0 0 0-1.82 2 27.75 27.75 0 0 1-2.24 3.08 32.11 32.11 0 0 1-2.82 2.8 5.91 5.91 0 0 0-1.5 2.14 6 6 0 0 0 0 2.61 16 16 0 0 1 .5 4 12 12 0 0 1-.79 3.67 9.58 9.58 0 0 0-.61 2.43 8.51 8.51 0 0 0 .26 2.37 11.6 11.6 0 0 0 1.35 2.61 28.49 28.49 0 0 0 2.83 3.23 27.49 27.49 0 0 0 3.76 3 35.88 35.88 0 0 0 3.83 1.89c.78.34 1.58.68 2.32 1 2.14.82 4.86 2 5.73 2.44a13.65 13.65 0 0 0 2.31 1 13.07 13.07 0 0 0 2.42.4 14.92 14.92 0 0 0 2.8-.26 29.85 29.85 0 0 0 3.61-1.06 27 27 0 0 1 4.45-1.16 24.5 24.5 0 0 1 4.46-.19 9.88 9.88 0 0 0 3.21-.42 9.9 9.9 0 0 0 2.74-1.76c.86-.83 3.24-2.78 5.31-4.35.16-.12 4-3 5.5-3.3a3 3 0 0 1 3.26 1.54 6.66 6.66 0 0 1 .57 2.29 4.45 4.45 0 0 1-.61 2.23c-.19.3-.47.81-.62 1.11a10.46 10.46 0 0 1 1.5.25 34.22 34.22 0 0 1 3.37 1.12l.17.06a20.61 20.61 0 0 0 3.45.92c.22 0 .57.06 1 .08 1.67.07 4.46 0 6.94-.07 3.57-.16 7.3-.22 8.5-.13s3.1.31 4.3.5l.79.12a4.22 4.22 0 0 1-.42-.76 6.35 6.35 0 0 0-.65-1.15 5.67 5.67 0 0 0-.83-.89 6.89 6.89 0 0 1-1.44-1.48 6.27 6.27 0 0 1-.81-1.88 12.84 12.84 0 0 1-.25-1.77 14.37 14.37 0 0 1 0-1.82 42.27 42.27 0 0 1 1.61-5.14 31.68 31.68 0 0 0 1.59-5.93 17.49 17.49 0 0 0-.23-4.27c-.28-1.34-.62-3.52-.78-4.85s-.23-6.58-.17-11.65c.05-4.47.24-9.87.47-11.07a22 22 0 0 0 .3-6.41 22.54 22.54 0 0 0-.55-3 19.06 19.06 0 0 0-1-2.71 17.19 17.19 0 0 0-1.45-2.36c-.39-.51-2.15-2.35-4.15-4.29l-.14-.21a63.59 63.59 0 0 0-4.8-4.26 61.46 61.46 0 0 0-6.32-3.14 26.83 26.83 0 0 0-6.4-2.13 10.77 10.77 0 0 0-3.31.75 13 13 0 0 1-4.53.92 12.14 12.14 0 0 1-4.42-1.15 10.07 10.07 0 0 0-2.16-.74 5.44 5.44 0 0 0-.87-.14 6.71 6.71 0 0 0-1.63.18 6.29 6.29 0 0 0-1.14.35c-1 .43-2.56 1-3.53 1.33a33.24 33.24 0 0 1-3.52.84 17.45 17.45 0 0 1-3.78.15 21 21 0 0 1-3.89-.81 10.55 10.55 0 0 0-3.09-.47 29.7 29.7 0 0 0-6.4 2.23 64.29 64.29 0 0 0-6.29 3.12 43.67 43.67 0 0 0-4.22 4.01z"/><path d="M100.86 69.19a18.09 18.09 0 0 1-2.94-2.76A15.68 15.68 0 0 1 96 63.1a13.63 13.63 0 0 0-1.92-3.2 13.92 13.92 0 0 0-2.89-2.4 26.66 26.66 0 0 1-3.05-2.16 20.87 20.87 0 0 1-2.4-2.48A10.06 10.06 0 0 0 84 51.2a5.08 5.08 0 0 0-.51-.34 6.77 6.77 0 0 0-2.59-.74h-.17l.72.45A13.92 13.92 0 0 1 84.34 53a13.63 13.63 0 0 1 1.92 3.2 15.68 15.68 0 0 0 1.94 3.32 18.09 18.09 0 0 0 2.94 2.76 4.28 4.28 0 0 1 1.74 2c0 .41-.75.85-1.68 1a19.18 19.18 0 0 1-3.25.15 15.5 15.5 0 0 1-3-.54 14.41 14.41 0 0 0-2.85-.52 38.12 38.12 0 0 0-5.38.62 1.73 1.73 0 0 1 .14.15 2.55 2.55 0 0 1 .33.79 3.79 3.79 0 0 1 .15 1.07 8 8 0 0 0 .23 2.22 7.51 7.51 0 0 0 .94 1.92 4 4 0 0 0 1.78 1.24 10.63 10.63 0 0 0 2.79-.06c.92-.06 1.92-.19 2.84-.32a41.15 41.15 0 0 1 5.91-.71 14.41 14.41 0 0 1 2.85.52 15.5 15.5 0 0 0 3 .54 19.18 19.18 0 0 0 3.25-.15c.93-.14 1.69-.58 1.68-1a4.28 4.28 0 0 0-1.75-2.01zM67.37 63.7a2.07 2.07 0 0 1 .29-.21 5.36 5.36 0 0 0 .54-.37 6.1 6.1 0 0 1-.34-.85 8 8 0 0 1-.23-2.27 3.53 3.53 0 0 0-.46-1.92 3.41 3.41 0 0 0-1.65-1 4.18 4.18 0 0 1-1.83-1.16 6.29 6.29 0 0 1-1-2.28 2.39 2.39 0 0 0-.75-1.53 1.67 1.67 0 0 0-1.06 1.07 12.13 12.13 0 0 1-1.34 2 7.61 7.61 0 0 1-1.59 1.34A2.84 2.84 0 0 0 56.81 58a5.49 5.49 0 0 0 0 2.28 6 6 0 0 1 0 2.4 4.19 4.19 0 0 1-1.15 1.78 4.37 4.37 0 0 1-2.07.85 8.24 8.24 0 0 1-2.75-.4 15.91 15.91 0 0 0-3-.64 13.12 13.12 0 0 0-2.89.13l-.72.1-.32.31a8.43 8.43 0 0 0-.62.75 12.74 12.74 0 0 0-1.42 2.39 4.19 4.19 0 0 0-.41 2.51 1.68 1.68 0 0 0 1.8.33 12.45 12.45 0 0 1 2.89-.34 12.25 12.25 0 0 1 2.85.5 14.46 14.46 0 0 0 2.83.56 13.7 13.7 0 0 0 2.83-.16 13.12 13.12 0 0 1 2.89-.13 14.48 14.48 0 0 1 1.85.33c.43.1.84.21 1.17.32s.4.12.62.17a8.22 8.22 0 0 1 2-.21 7.2 7.2 0 0 1 1.13.18 3.85 3.85 0 0 0 1-.58l.13-.14a4.2 4.2 0 0 0 1-1.65 6 6 0 0 0 0-2.4 5.49 5.49 0 0 1 0-2.28 2.84 2.84 0 0 1 .92-1.26zM114.19 109.36a23.56 23.56 0 0 0 .32-6.85 24.12 24.12 0 0 0-.6-3.29 20.63 20.63 0 0 0-1.11-3 18.8 18.8 0 0 0-1.6-2.61c-.51-.66-2.51-2.74-4.46-4.62a64.53 64.53 0 0 0-5-4.41 18.71 18.71 0 0 0-1.79-1c-.8-.41-1.77-.89-2.8-1.37 1.89 1.83 3.8 3.81 4.3 4.46a18.8 18.8 0 0 1 1.6 2.61 20.63 20.63 0 0 1 1.11 3 24.12 24.12 0 0 1 .6 3.29 23.56 23.56 0 0 1-.32 6.85c-.18.93-.38 5.79-.44 10.8s0 10.16.16 11.46.49 3.42.76 4.72a19 19 0 0 1 .26 4.72 33 33 0 0 1-1.68 6.3 39.38 39.38 0 0 0-1.52 4.76 12.75 12.75 0 0 0 0 1.59 11.59 11.59 0 0 0 .22 1.53 4.83 4.83 0 0 0 .59 1.37 5.51 5.51 0 0 0 1.09 1.11 7 7 0 0 1 1.17 1.15 7.88 7.88 0 0 1 .84 1.49 2.57 2.57 0 0 0 .92 1.14 2.33 2.33 0 0 0 1.41.11c.46-.11 1-.23 1.27-.26a.77.77 0 0 1 .5 0c0 .05-.07.14-.23.19a7.49 7.49 0 0 1-.92.19 1.86 1.86 0 0 0-.89.37.89.89 0 0 0-.13.71.2.2 0 0 1 0 .08.84.84 0 0 1-.85.41 19.7 19.7 0 0 1-3.07-.29c-1.15-.19-3-.41-4.16-.49s-4.89 0-8.33.13c-2.63.12-5.41.14-7.07.07a3.14 3.14 0 0 1-.3 1l-.05.1c-.22.34-.53.9-.69 1.24s-.4.88-.52 1.2a.94.94 0 0 0 0 .84 1.35 1.35 0 0 0 .95.15 6.86 6.86 0 0 1 2 .22 32.56 32.56 0 0 1 3.27 1.08 22 22 0 0 0 3.9 1.05 66 66 0 0 0 8.25 0c3.44-.15 7.18-.21 8.33-.13s3 .3 4.16.49a19.7 19.7 0 0 0 3.07.29c.54 0 .93-.25.86-.49a.83.83 0 0 1 .13-.71 1.86 1.86 0 0 1 .89-.37 7.49 7.49 0 0 0 .92-.19c.16-.05.26-.14.23-.19a.77.77 0 0 0-.5 0c-.24 0-.82.15-1.27.26a2.33 2.33 0 0 1-1.41-.11 2.57 2.57 0 0 1-.92-1.14 7.88 7.88 0 0 0-.84-1.49 7 7 0 0 0-1.17-1.15 5.51 5.51 0 0 1-1.09-1.11 4.83 4.83 0 0 1-.59-1.37 11.59 11.59 0 0 1-.22-1.53 12.75 12.75 0 0 1 0-1.59 39.38 39.38 0 0 1 1.52-4.76 33 33 0 0 0 1.68-6.3 19 19 0 0 0-.26-4.72c-.27-1.3-.61-3.42-.76-4.72s-.22-6.45-.16-11.46.25-9.88.44-10.81zM32.68 107.57a8.13 8.13 0 0 0 1 .19 12.78 12.78 0 0 0 1.53.11c.17-.11.34-.22.49-.3a10.3 10.3 0 0 1 3.38-1l1.06-.06.24-.13a18.5 18.5 0 0 1 1.8-.89 17 17 0 0 1 2-.76 16 16 0 0 1 3.85-.5c1.06 0 3.62.24 5.69.49 1.06.13 2.16.21 3.07.25h1.41a3.79 3.79 0 0 0 .48 0 3 3 0 0 0 1.68-1 14.76 14.76 0 0 1 1.08-1.37 14.2 14.2 0 0 1 1.25-1.19 5.19 5.19 0 0 1 1.45-.79 5.45 5.45 0 0 1 1.66-.19 4.35 4.35 0 0 0 1.74-.32l.46-.18a7.31 7.31 0 0 0 1.29-1c.06-.22.13-.43.18-.6a22.25 22.25 0 0 1 .86-2.13 2.8 2.8 0 0 0 .28-1.69 1.83 1.83 0 0 0-1.15-.93 18.48 18.48 0 0 0-1.83-.42 15.74 15.74 0 0 0-1.8-.16 5.5 5.5 0 0 1-1.67-.36 6.64 6.64 0 0 1-1.53-1 2.27 2.27 0 0 0-1.5-.57 3.29 3.29 0 0 0-1.58.9 6.79 6.79 0 0 1-1.66 1.2 4.35 4.35 0 0 1-1.74.32 5.45 5.45 0 0 0-1.66.19 5.19 5.19 0 0 0-1.45.79 14.2 14.2 0 0 0-1.25 1.19A14.76 14.76 0 0 0 50.71 97 3 3 0 0 1 49 98a25.67 25.67 0 0 1-5-.22c-2.07-.25-4.63-.46-5.69-.49a16 16 0 0 0-3.85.5 20.08 20.08 0 0 0-3.85 1.65 10.72 10.72 0 0 1-1 .5c0 .2-.05.41-.08.61s0 .35 0 .52c-.21 2.3-.07 4.48.36 5a6.47 6.47 0 0 0 2.79 1.5zM73.57 151.19c.17-.34.48-.89.69-1.24a3 3 0 0 0 .38-1.4 5.23 5.23 0 0 0-.43-1.69 1.5 1.5 0 0 0-1.61-.69 21.76 21.76 0 0 0-4.87 3c-2 1.54-4.36 3.44-5.18 4.23a11.19 11.19 0 0 1-3.26 2.09 11.11 11.11 0 0 1-3.83.51 22.77 22.77 0 0 0-4.13.17 25.54 25.54 0 0 0-4.15 1.09 31.31 31.31 0 0 1-3.83 1.12 15.81 15.81 0 0 1-3.17.28 14.47 14.47 0 0 1-2.76-.46 15.1 15.1 0 0 1-2.62-1.1c-.7-.39-3.19-1.45-5.54-2.35-.76-.29-1.59-.64-2.39-1 .55.63 1.15 1.27 1.67 1.78a28.91 28.91 0 0 0 4 3.16 48.3 48.3 0 0 0 6.41 3c2.34.9 4.84 2 5.54 2.35a15.1 15.1 0 0 0 2.62 1.1 14.47 14.47 0 0 0 2.76.46 15.81 15.81 0 0 0 3.17-.28 31.31 31.31 0 0 0 3.83-1.12 25.54 25.54 0 0 1 4.13-1.06 22.77 22.77 0 0 1 4.13-.17 11.11 11.11 0 0 0 3.83-.51 11.19 11.19 0 0 0 3.26-2.09c.82-.79 3.15-2.7 5.18-4.23l1-.71 1-.66-.16-.06-.32-.12c-1-.38-2.24-.79-2.89-.95a6.86 6.86 0 0 0-2-.22 1.35 1.35 0 0 1-.95-.15.94.94 0 0 1 0-.84c.09-.37.33-.91.49-1.24z"/></svg>