<svg xmlns="http://www.w3.org/2000/svg" width="117.6" height="200" viewBox="0 0 117.6 200"><title>_</title><path d="M97.88 153.79l-1-.17a5.48 5.48 0 0 0 .71.33 4.17 4.17 0 0 1 .74.36.34.34 0 0 0 0 .13 1.52 1.52 0 0 1 0 .19 1.72 1.72 0 0 1-.07.19 2.26 2.26 0 0 0 .27-.39c.12-.26-.15-.55-.65-.64z" fill="none"/><path d="M16.15 148.93a37.87 37.87 0 0 0 3.85 2.32l1.18.58c1 .46 2 .89 2.54 1.13a76.91 76.91 0 0 0 9.18 1.67 116.78 116.78 0 0 0 11.79 1.08 23.82 23.82 0 0 0 5.53-.57 40.13 40.13 0 0 0 6.48-4.55c1.81-1.48 5.52-4.4 6.58-4.8a3.33 3.33 0 0 1 3.74 1.3 19.32 19.32 0 0 1 1.27 1.91 3.79 3.79 0 0 1 .36 1.9 4.94 4.94 0 0 1-.62 1.8c-.08.13-.16.29-.23.44.67 0 2.16 0 5-.08l2.29-.07 3-.11 8.7-.34c2.44-.1 4.67-.21 6.39-.31a4.39 4.39 0 0 1-.19-.46 4.68 4.68 0 0 1-.1-2.44 6.42 6.42 0 0 1 1.19-2.19 1.22 1.22 0 0 0 .2-.4 2.37 2.37 0 0 0-.47-.54 4.62 4.62 0 0 1-1.46-3.48 15 15 0 0 1 1.11-4.45 17.71 17.71 0 0 0 1.08-4.27 16.23 16.23 0 0 0-.33-4.24c-.37-1.55-.9-7.63-1.19-12.6l-.17-2.9c-.34-5.81-.75-10.67-.91-11.4a15.64 15.64 0 0 1-.26-3.78 18 18 0 0 1 .81-3.83 8.55 8.55 0 0 0 .41-2.69 5.78 5.78 0 0 0-.71-2.15 21.24 21.24 0 0 1-1.54-3 23 23 0 0 1-.7-2.23c-.11-.41-.21-.81-.27-1.14a4.88 4.88 0 0 0-1-2 25.63 25.63 0 0 0-5.78-2.29c-3-.89-6.17-1.93-7.16-2.36s-2.54-1.2-3.54-1.77a11.48 11.48 0 0 0-3-1.1 11.48 11.48 0 0 0-3.23.06c-1.32.25-7.25.54-12.16.69h-1.22c-5.84.17-10.73.42-11.46.53a65.8 65.8 0 0 0-6.34 1.8 63 63 0 0 1-7 1.93 28.71 28.71 0 0 1-4.2.23 6.54 6.54 0 0 0-2.6.5 3.58 3.58 0 0 0-1.21 1.52 32.47 32.47 0 0 1-1.31 3.06c-.4.78-1.73 3-3 4.95a38.57 38.57 0 0 0-2.55 4.32 9.38 9.38 0 0 0-.57 1.89.61.61 0 0 0 .09.22 65.73 65.73 0 0 0 7.71 1l2 .16c3.44.26 6.5.41 7.29.36 1.11-.07 2.91-.1 4-.06s2.92.2 4 .35a8.53 8.53 0 0 0 2.62 0 2.28 2.28 0 0 0 1-.67 13 13 0 0 1 1.41-1.9 7.41 7.41 0 0 1 1.68-1.3 3.71 3.71 0 0 0 .85-.82 11.1 11.1 0 0 0 1-1.63 3.86 3.86 0 0 1 2.41-2.11 3.84 3.84 0 0 1 3 1.1 2.23 2.23 0 0 0 .84.45 3 3 0 0 0 .63-.46 4.19 4.19 0 0 1 2.7-1.42 3.73 3.73 0 0 1 2.66 1.46 6.62 6.62 0 0 0 1.19 1.14 4.6 4.6 0 0 0 1.23.53 4 4 0 0 1 2.27 1.41 4.28 4.28 0 0 1 .58 2.6A14.16 14.16 0 0 1 63 98.8c-.1.32-.25.75-.43 1.18s-.39.94-.57 1.3a8.3 8.3 0 0 1-2 2.5 10.11 10.11 0 0 1-3 1.49c-.84.25-3.72.8-4.58 1l-3.48.64c-1.53.27-3.09.53-4.43.74-2 .31-3.3.49-3.86.52-1 .06-2.55.08-3.52 0h-.2a12.48 12.48 0 0 0-2.66.32 29.78 29.78 0 0 0-4.51 2c-1.85 1-4 2.06-5 2.42s-3.24 1-5.16 1.54a32.72 32.72 0 0 0-4.7 1.56 16.83 16.83 0 0 0-2.71 1.8 11.43 11.43 0 0 0-2 2.34 11.41 11.41 0 0 0-1.08 2.87c-.21 1-.64 2.73-1 3.77s-1 2.68-1.4 3.68a21.64 21.64 0 0 0-1.06 3.1 14.43 14.43 0 0 0-.32 2.76 7.48 7.48 0 0 0 .46 2.25 36.14 36.14 0 0 0 4.4 5 70 70 0 0 0 5.96 5.35zM80.68 43.46a3.42 3.42 0 0 0-.71.61 4 4 0 0 1-2.72 1.46 3.91 3.91 0 0 1-2.71-1.46 1.6 1.6 0 0 0-.28-.26 1.14 1.14 0 0 0-.18.2 9.85 9.85 0 0 1-1.52 1.74 3.71 3.71 0 0 1-1.86.81 2.81 2.81 0 0 0-.21.49A3.66 3.66 0 0 1 69 49a4.11 4.11 0 0 1-2.4.42c-.42-.05-1.18-.1-1.63-.1h-.1c-.44 0-1.15 0-1.57.09a10.12 10.12 0 0 1-2.47-.11 40.36 40.36 0 0 1-4.9-1.7c-1.9-.77-5.58-2-8.22-2.75a23.15 23.15 0 0 0-5.69-1A12 12 0 0 0 39.17 45c-.92.55-2.37 1.52-3.15 2.12a70 70 0 0 0-5.18 5.07 40.86 40.86 0 0 0-4.55 5.54 20.64 20.64 0 0 0-1.35 3.59 12.2 12.2 0 0 0-.28 1.45 6 6 0 0 1 1.1-.11h.39a5.52 5.52 0 0 1 2.32.92 9 9 0 0 0 1.25.74 6.34 6.34 0 0 0 1.16.36 2.09 2.09 0 0 0 .74-.07 3.76 3.76 0 0 0 .92-.6 4.1 4.1 0 0 0 .71-.94 3.19 3.19 0 0 0 .21-1 6.23 6.23 0 0 1 .49-2.3 8.06 8.06 0 0 1 1.39-2 9.15 9.15 0 0 1 2.11-1.54 11.31 11.31 0 0 1 2.6-.85h.45a13.07 13.07 0 0 1 2.7 0 21.52 21.52 0 0 1 3.51.81 27 27 0 0 1 3.2 1.3 26.93 26.93 0 0 1 3.92 2.9 14.76 14.76 0 0 0 2.73 2 19.79 19.79 0 0 0 3.37-.3A56.32 56.32 0 0 0 66 60.64a28.06 28.06 0 0 0 4.39-1.7 40.37 40.37 0 0 0 4.79-4.26l.82-.82a31.48 31.48 0 0 0 3.42-4 16.05 16.05 0 0 0 1.2-3 10.51 10.51 0 0 0 .35-2.53 1.9 1.9 0 0 0-.29-.87zM108 161.57a1.72 1.72 0 0 1-.07.19 2.26 2.26 0 0 0 .27-.39c.17-.27-.1-.56-.6-.65l-1-.17a5.48 5.48 0 0 0 .71.33 4.17 4.17 0 0 1 .74.36.34.34 0 0 0 0 .13 1.52 1.52 0 0 1-.05.2z"/><path d="M29.73 105.61c1.54.13 3.09.25 4.49.33 2.38.15 4.32.23 5 .18 1.06-.07 2.8-.1 3.86-.06l1.25.07c1.34-.21 2.88-.47 4.41-.74l3.46-.64a13 13 0 0 1 .87-1.19l.22-.26a6 6 0 0 1 1.28-1 5.1 5.1 0 0 0 1.27-1.09A12.21 12.21 0 0 0 57 99.32 2.51 2.51 0 0 1 58.36 98a2.52 2.52 0 0 1 1.72.73c.07.06.16.11.24.17a3.92 3.92 0 0 0 .88.5c.16-.39.3-.78.39-1.07a12.68 12.68 0 0 0 .41-2.06 2.81 2.81 0 0 0-.32-1.6 2.5 2.5 0 0 0-1.35-.8 6 6 0 0 1-1.75-.75 8.23 8.23 0 0 1-1.54-1.46 2.31 2.31 0 0 0-1.49-.89 2.82 2.82 0 0 0-1.61.93 3 3 0 0 1-1.74.95 3.24 3.24 0 0 1-1.85-.85 2.52 2.52 0 0 0-1.72-.73 2.51 2.51 0 0 0-1.34 1.3 12.21 12.21 0 0 1-1.19 1.91 5.1 5.1 0 0 1-1.27 1.09 6 6 0 0 0-1.28 1A11.76 11.76 0 0 0 42.34 98a3.64 3.64 0 0 1-1.87 1.34 9.82 9.82 0 0 1-3.23.09c-1.07-.15-2.82-.3-3.89-.33s-2.8 0-3.86.06c-.89.06-4.05-.1-7.5-.36-.21.36-.39.68-.54 1a7.07 7.07 0 0 0-.36.75 10.81 10.81 0 0 0-.52 2.22 1.94 1.94 0 0 0 .76 1.64c.47.3 4.25.85 8.4 1.2zM103.61 102.66a9.93 9.93 0 0 0 .49-3.29 7.33 7.33 0 0 0-.94-2.85 19.75 19.75 0 0 1-1.41-2.79 22 22 0 0 1-.9-3.11 6.23 6.23 0 0 0-1.43-2.74c-.61-.6-3.49-1.81-6.41-2.67l-.49-.15-1.13-.34A21 21 0 0 0 92 86.8a19.75 19.75 0 0 0 1.41 2.79 7.33 7.33 0 0 1 .94 2.85 9.93 9.93 0 0 1-.49 3.29 16.44 16.44 0 0 0-.73 3.45 14.12 14.12 0 0 0 .23 3.35c.2.91.62 6.14.94 11.63l.17 2.9c.32 5.49.84 11 1.15 12.34a17.77 17.77 0 0 1 .37 4.72 19.26 19.26 0 0 1-1.17 4.72 13.7 13.7 0 0 0-1 3.9 3.2 3.2 0 0 0 .89 2.28 3 3 0 0 1 1 1.5 2.35 2.35 0 0 1-.56 1.57 5 5 0 0 0-.89 1.6 3.2 3.2 0 0 0 .07 1.57 4.27 4.27 0 0 0 .85 1.36 4.41 4.41 0 0 0 1.08.79 89.15 89.15 0 0 1-9.49.61l-8.7.35-3 .11a2.08 2.08 0 0 1 .41.42l.39.55c.34.49.64 1 .74 1.16a2.33 2.33 0 0 1 .2 1.08 3.52 3.52 0 0 1-.42 1.19 7.06 7.06 0 0 0-.53 1.14 3 3 0 0 0-.14.94 1.26 1.26 0 0 0 1.07.58c.57.09 5.53 0 11-.23l8.7-.35a89.15 89.15 0 0 0 9.49-.61 4.41 4.41 0 0 1-1.08-.79 4.27 4.27 0 0 1-.85-1.36 3.2 3.2 0 0 1-.07-1.57 5 5 0 0 1 .89-1.6 2.35 2.35 0 0 0 .56-1.57 3 3 0 0 0-1-1.5 3.2 3.2 0 0 1-.89-2.28 13.7 13.7 0 0 1 1-3.9 19.26 19.26 0 0 0 1.17-4.72 17.77 17.77 0 0 0-.37-4.72c-.31-1.3-.83-6.85-1.15-12.34l-.17-2.9c-.32-5.49-.75-10.72-.94-11.63a14.12 14.12 0 0 1-.23-3.35 16.44 16.44 0 0 1 .76-3.46zm-5.13 51.78a2.26 2.26 0 0 1-.27.39 1.72 1.72 0 0 0 .07-.19 1.52 1.52 0 0 0 0-.19.34.34 0 0 1 0-.13 4.17 4.17 0 0 0-.74-.36 5.48 5.48 0 0 1-.71-.33l1 .17c.55.08.82.37.65.64zM66.74 151.93a3.52 3.52 0 0 0 .42-1.19 2.33 2.33 0 0 0-.2-1.08 19.06 19.06 0 0 0-1.13-1.72 1.86 1.86 0 0 0-2-.78 52.29 52.29 0 0 0-6.17 4.57 40 40 0 0 1-6.93 4.81 23.66 23.66 0 0 1-6 .65 118.68 118.68 0 0 1-12-1.09 74.6 74.6 0 0 1-9.53-1.76c-.65-.26-1.68-.71-2.64-1.17.79.75 1.57 1.47 2.27 2.1.93.83 1.71 1.49 2.17 1.81a38.94 38.94 0 0 0 4 2.43c1.18.6 2.91 1.39 3.85 1.76a74.6 74.6 0 0 0 9.58 1.73 118.68 118.68 0 0 0 12 1.09 23.66 23.66 0 0 0 6-.65 40 40 0 0 0 6.93-4.81c1.43-1.17 2.84-2.27 4-3.1.57-.42 1.08-.78 1.47-1-3.06.09-5.32.11-5.69.05a1.26 1.26 0 0 1-1.07-.58 3 3 0 0 1 .14-.94 7.06 7.06 0 0 1 .53-1.13zM91.43 49.32a1.7 1.7 0 0 0-1.36-.39A3.86 3.86 0 0 0 88.55 50 2.65 2.65 0 0 1 87 51a2.52 2.52 0 0 1-1.6-1 2.43 2.43 0 0 0-1.48-.92 2.17 2.17 0 0 0-1.37 1 8.47 8.47 0 0 1-1.23 1.43l-.14.1a2 2 0 0 1-.94.38 1.4 1.4 0 0 0-.87.39 3.46 3.46 0 0 0-.6 1.16 2.17 2.17 0 0 1-.77 1.13 2.32 2.32 0 0 1-.93.23l-.83.85a39.91 39.91 0 0 1-5.11 4.5 28.9 28.9 0 0 1-4.71 1.83 58 58 0 0 1-6.26 1.46 16.24 16.24 0 0 1-4 .26 13.26 13.26 0 0 1-3.32-2.28 25.9 25.9 0 0 0-3.62-2.7 25.28 25.28 0 0 0-3-1.21 20.1 20.1 0 0 0-3.22-.74 11.5 11.5 0 0 0-2.35 0l-1.2 1.25-.07.08a57.893 57.893 0 0 0-3.44 4 14.42 14.42 0 0 0-1.28 1.8 20.09 20.09 0 0 0-1 2.31c-.2.57-.38 1.13-.5 1.6a9.25 9.25 0 0 0-.35 3 .77.77 0 0 0 1.1.51 4.36 4.36 0 0 1 1.75-.27 4 4 0 0 1 1.6.65 10.31 10.31 0 0 0 1.52.89 7.58 7.58 0 0 0 1.52.47 3.51 3.51 0 0 0 1.53-.16 5.12 5.12 0 0 0 1.43-.92 5.44 5.44 0 0 0 1.05-1.41 4.58 4.58 0 0 0 .34-1.62 4.81 4.81 0 0 1 .35-1.66 6.64 6.64 0 0 1 1.1-1.56 7.62 7.62 0 0 1 1.71-1.24 9.93 9.93 0 0 1 2.2-.71 11 11 0 0 1 2.7-.05 17.79 17.79 0 0 1 2.06.41c.41.1.82.22 1.16.33l.82.29a23.3 23.3 0 0 1 2.17.92 25.9 25.9 0 0 1 3.62 2.7 13.26 13.26 0 0 0 3.32 2.28 16.24 16.24 0 0 0 4-.26 58 58 0 0 0 6.25-1.5 28.9 28.9 0 0 0 4.71-1.83 39.91 39.91 0 0 0 5.11-4.5 37.54 37.54 0 0 0 4.48-5.2 17.64 17.64 0 0 0 1.34-3.38 11.84 11.84 0 0 0 .4-3 3 3 0 0 0-.72-1.77z"/></svg>