<svg xmlns="http://www.w3.org/2000/svg" width="119.66" height="200" viewBox="0 0 119.66 200"><title>_</title><path d="M24.53 52a5.38 5.38 0 0 0-.76 1.83 4.16 4.16 0 0 0 .3 1.71 26.18 26.18 0 0 1 1 2.58 17.91 17.91 0 0 1 .55 2.43 1.42 1.42 0 0 0 .35.62 31.56 31.56 0 0 0 4.76 1l2.21.29c1.81.22 3.34.38 3.9.39a25.31 25.31 0 0 0 3-.12c.93-.11 3.21-.22 5.09-.25a13.14 13.14 0 0 0 3.67-.49 3.08 3.08 0 0 0 .95-1.19 8.71 8.71 0 0 0 .45-2.24 26.15 26.15 0 0 0-.83-4.56c-.08-.3-.16-.61-.23-.92a31.27 31.27 0 0 1-.85-4.48 19.25 19.25 0 0 1 .18-3 5.11 5.11 0 0 0-1 .28A24.84 24.84 0 0 1 43.61 47a21.41 21.41 0 0 1-3.61.32 24.48 24.48 0 0 1-3.52-.39 26.66 26.66 0 0 1-3.49-1 22.29 22.29 0 0 0-3-.87 21.71 21.71 0 0 0-3.12-.32 3.76 3.76 0 0 0-1.22.2 1.72 1.72 0 0 0 .05.56 8.33 8.33 0 0 1 .21 3.36A9.28 9.28 0 0 1 24.53 52zM15.3 151.69a15.41 15.41 0 0 0 4 2.16c.61.2 1.34.42 2.05.62.95.27 1.81.48 2.36.6a18.84 18.84 0 0 0 3.09.38 28.36 28.36 0 0 1 3 .17 27.83 27.83 0 0 1 2.94.56 8.08 8.08 0 0 0 2.49.07 40.6 40.6 0 0 0 5.42-1.62 70.68 70.68 0 0 1 10-2.49 53.18 53.18 0 0 0 7.3-1.64 17.63 17.63 0 0 0 3.19-1.83 19.48 19.48 0 0 1 3-1.88 3 3 0 0 1 3 .1 2.33 2.33 0 0 1 .7 2.48 5.22 5.22 0 0 1-1.34 1.84l-.1.1c.36.26.73.55.95.75a5 5 0 0 1 .69.79 4.39 4.39 0 0 0 .61.3c.53.21 1.86.65 2.9 1a10.91 10.91 0 0 0 1.68.31 11.51 11.51 0 0 0 1.83.08c.24 0 .51 0 .81-.1a15.49 15.49 0 0 0 2.86-.76 19.69 19.69 0 0 1 4.58-1.13c1.54-.14 5.7.66 8.85 1.48s5.38 1.3 6.44 1.49a2.23 2.23 0 0 1-.62-.83 6.44 6.44 0 0 1-.31-2.24 3 3 0 0 0-.16-1 1.23 1.23 0 0 0-.31-.2 5.65 5.65 0 0 1-1.88-1 4 4 0 0 1-1.36-3.88 6.65 6.65 0 0 1 .87-2 4.7 4.7 0 0 0 .31-1.58c0-.68-.34-4.3-.88-8.41a80 80 0 0 1-.83-9.7 44.27 44.27 0 0 1 .58-4.92c.23-1.22.63-6.07.88-10.6a77.6 77.6 0 0 0 .13-9.67 18.16 18.16 0 0 0-1-3c-.38-.83-2-3.76-3.51-6.4A61.11 61.11 0 0 0 85.9 83c-.27-.32-.56-.65-.86-1a31.36 31.36 0 0 0-2.31-2.33c-.68-.57-1.9-1.47-2.66-2s-2.15-1.29-3-1.71-2.38-1.08-3.32-1.42a14.62 14.62 0 0 0-3.28-.7 32.9 32.9 0 0 0-5.39.52 86.67 86.67 0 0 1-9.4.88c-3 .11-8.54 0-12.36-.19a51.63 51.63 0 0 0-8.14 0c-.65.16-4.53 1.8-9.35 4.1a51.88 51.88 0 0 0-8.17 4.51 6.59 6.59 0 0 0-.66 2 11 11 0 0 1-1.15 3.52 12.26 12.26 0 0 1-2.46 2.89 5.47 5.47 0 0 0-1.33 1.67 2.69 2.69 0 0 0 0 1.4 4.13 4.13 0 0 0 1.12 1.43 8.8 8.8 0 0 0 2.46 1.06A14.32 14.32 0 0 0 19 98a13.12 13.12 0 0 0 1.66-.21 14.57 14.57 0 0 0 1.75-.42 21.44 21.44 0 0 1 4.2-.82 20.09 20.09 0 0 1 4.22.22 22 22 0 0 0 3.51.28 20.59 20.59 0 0 0 3.37-.4 9.71 9.71 0 0 0 2.29-.8 1.24 1.24 0 0 0 .35-.36 4.88 4.88 0 0 1 .9-2.1 7.73 7.73 0 0 1 1.9-1.62 20 20 0 0 1 2.12-1.07 16.75 16.75 0 0 1 2.16-.7 12.85 12.85 0 0 1 2.21-.29 22.23 22.23 0 0 1 3.79.54 20 20 0 0 1 3.57 1.1 10.74 10.74 0 0 1 1.65 1.14 3.68 3.68 0 0 0 1 .54 5.15 5.15 0 0 0 1.27.13 5.46 5.46 0 0 1 2.6.54 6.85 6.85 0 0 1 2 1.81 4.39 4.39 0 0 1 .67 3.28 4.54 4.54 0 0 1-.36 1 9.72 9.72 0 0 1-1.44 2.16 11.54 11.54 0 0 1-3 2.34c-1.31.63-7.14 1.15-10 1.33l-.78.05a56.57 56.57 0 0 0-8.44 1l-.16.08a15.49 15.49 0 0 0-2.61 1.54 13.68 13.68 0 0 1-3.66 1.9 12.42 12.42 0 0 1-4 .41c-.92-.08-2.5-.13-3.47-.11s-2.51.12-3.48.23a10.87 10.87 0 0 0-2.88.84 11.36 11.36 0 0 0-2.46 1.81 31.34 31.34 0 0 1-3 2.62 33.16 33.16 0 0 1-3.45 2.16 8.21 8.21 0 0 0-2.24 1.85 30.32 30.32 0 0 0-2 6.38c-.73 3.18-1.28 6.16-1.32 6.85a26.4 26.4 0 0 0 1 5.24 46.76 46.76 0 0 0 3.18 7.95 21.54 21.54 0 0 0 3.68 5.27zM82.18 45.44a12.59 12.59 0 0 1-3.93.24 13.39 13.39 0 0 1-3.8-1.22 9.15 9.15 0 0 0-2.69-.83h-.33a8.29 8.29 0 0 0-2.31.35c-.94.32-2.42.76-3.31 1s-2.33.48-3.18.59a4.3 4.3 0 0 0-1.5.49 1.36 1.36 0 0 0-.3.61c-.05.65-.3 2.21-.58 3.62-.06.32-.13.67-.18 1-.17 1-.3 2-.32 2.41a14.7 14.7 0 0 0 .12 2.22c.11.75.23 2.51.27 4a6.43 6.43 0 0 0 .52 2.53 4.61 4.61 0 0 0 1.11.67 5.15 5.15 0 0 0 .68.26 15 15 0 0 0 3 .49 17.8 17.8 0 0 0 2.64-.27c1.15-.17 2.41-.38 3.54-.61a57.71 57.71 0 0 1 6.82-1 28.12 28.12 0 0 1 3.61.21 3.63 3.63 0 0 0 .67 0 1.55 1.55 0 0 0-.11-.2 17.91 17.91 0 0 1-1.05-3 13.77 13.77 0 0 1-.31-2.94 15.15 15.15 0 0 1 .4-2.83 17.76 17.76 0 0 1 1-2.78c.13-.28.28-.65.42-1a11.41 11.41 0 0 0 .38-1.21 12.7 12.7 0 0 0 .26-2.33 1.19 1.19 0 0 0-.14-.53 4.37 4.37 0 0 0-1.4.06z"/><path d="M49.38 63.17a12.62 12.62 0 0 1-4.4.7c-1.82 0-4 .14-4.94.24a26.72 26.72 0 0 1-3.25.13c-.63 0-2.24-.19-4-.41.14.35.28.72.4 1.06s.14.4.19.56a16.54 16.54 0 0 1 .5 2.19 2.77 2.77 0 0 0 .95 1.63 22.13 22.13 0 0 0 5.44 1.23c2.55.35 5.37.66 6.26.69a26.72 26.72 0 0 0 3.25-.13c.89-.1 3.12-.21 4.94-.24a12.62 12.62 0 0 0 4.4-.7 4.49 4.49 0 0 0 1.59-1.95 10.13 10.13 0 0 0 .57-2.58 6.86 6.86 0 0 0-.1-1.12 5.53 5.53 0 0 1-1.6-1 6.72 6.72 0 0 1-.9-3.48c0-1.42-.16-3.15-.26-3.83a16.14 16.14 0 0 1-.13-2.5A26 26 0 0 1 58.6 51a3.84 3.84 0 0 0-1 .08 6.36 6.36 0 0 0-1.14.33 22.89 22.89 0 0 1-3.39 1c-.46.09-1 .16-1.63.21l-1 .07c.07.3.15.6.23.9a25.58 25.58 0 0 1 .92 5 10.13 10.13 0 0 1-.59 2.63 4.49 4.49 0 0 1-1.62 1.95zM66.54 148.89a.85.85 0 0 0-.24-.85 1.74 1.74 0 0 0-1.45.12 18.23 18.23 0 0 0-2.71 1.71 19.36 19.36 0 0 1-3.51 2 53.46 53.46 0 0 1-7.63 1.74 68.85 68.85 0 0 0-9.78 2.39 41.5 41.5 0 0 1-5.72 1.7 9.5 9.5 0 0 1-3.08-.11 26.34 26.34 0 0 0-2.76-.52 26.57 26.57 0 0 0-2.81-.16 20.19 20.19 0 0 1-3.41-.41c-.61-.13-1.53-.36-2.46-.62.27.43.56.86.84 1.26a14.42 14.42 0 0 0 2.23 2.63 17 17 0 0 0 4.52 2.41c1.42.46 3.48 1 4.57 1.26a20.19 20.19 0 0 0 3.41.41 26.57 26.57 0 0 1 2.81.16 26.34 26.34 0 0 1 2.76.52 9.5 9.5 0 0 0 3.08.11 41.5 41.5 0 0 0 5.72-1.7 68.85 68.85 0 0 1 9.79-2.43 53.46 53.46 0 0 0 7.62-1.73 19.36 19.36 0 0 0 3.51-2l.13-.09c.38-.28.8-.57 1.21-.83a12.45 12.45 0 0 1-1.93-.36c-1.09-.32-2.46-.77-3-1a3.26 3.26 0 0 1-1.25-.7 2.89 2.89 0 0 0-.54-.65 11.23 11.23 0 0 0-1.05-.8 1.31 1.31 0 0 1-.61-1 2.57 2.57 0 0 1 .8-1.26 3.93 3.93 0 0 0 .94-1.2zM110.38 161.77a.31.31 0 0 1-.19-.19.35.35 0 0 1 .21-.19c.11-.05.14-.1.07-.1a5 5 0 0 0-.59.09.66.66 0 0 1-.68-.41 5.06 5.06 0 0 1-.19-1.62 4 4 0 0 0-.36-1.78 2.32 2.32 0 0 0-1.2-.9 4.27 4.27 0 0 1-1.33-.67 3 3 0 0 1-.75-1.08 3 3 0 0 1-.09-1.36 5.21 5.21 0 0 1 .65-1.5 5.61 5.61 0 0 0 .56-2.36c0-.86-.38-4.76-.9-8.65a80.63 80.63 0 0 1-.82-9.43 42.52 42.52 0 0 1 .56-4.72c.24-1.3.65-6.15.9-10.79a74.66 74.66 0 0 0 .1-10.08 19.77 19.77 0 0 0-1.1-3.25c-.4-.88-2-3.82-3.58-6.53a62.06 62.06 0 0 0-4.89-7.31 38.43 38.43 0 0 0-3.35-3.48c-.72-.6-2-1.54-2.8-2.08-.57-.37-1.43-.88-2.21-1.3l-.94-.5c-.36-.18-.82-.39-1.3-.6.31.34.61.68.89 1a62.06 62.06 0 0 1 4.89 7.31C93.5 92 95.11 95 95.51 95.84a19.77 19.77 0 0 1 1.1 3.25 74.66 74.66 0 0 1-.1 10.08c-.25 4.64-.66 9.5-.9 10.79a42.52 42.52 0 0 0-.56 4.72 80.63 80.63 0 0 0 .82 9.43c.52 3.89.92 7.78.9 8.65a5.61 5.61 0 0 1-.56 2.36 5.21 5.21 0 0 0-.65 1.5 3 3 0 0 0 .09 1.36 3 3 0 0 0 .75 1.08 4.27 4.27 0 0 0 1.33.67 2.32 2.32 0 0 1 1.2.9 4 4 0 0 1 .36 1.78 5.06 5.06 0 0 0 .19 1.62.66.66 0 0 0 .68.41 5 5 0 0 1 .59-.09c.07 0 0 0-.07.1a.35.35 0 0 0-.21.19.31.31 0 0 0 .19.19.58.58 0 0 1 .19.48 5 5 0 0 1-.2 1 1.44 1.44 0 0 1-1.35.68 62.14 62.14 0 0 1-7.4-1.62 38 38 0 0 0-8.32-1.37 18.19 18.19 0 0 0-4.17 1 16.86 16.86 0 0 1-3.17.85 3.87 3.87 0 0 1-.84 1.15l-.08.08a2.57 2.57 0 0 0-.8 1.26 1.31 1.31 0 0 0 .61 1 11.23 11.23 0 0 1 1.05.8 2.89 2.89 0 0 1 .54.65 3.26 3.26 0 0 0 1.21.72c.58.24 2 .69 3 1a14.15 14.15 0 0 0 4 .44 16.21 16.21 0 0 0 4.13-1 18.19 18.19 0 0 1 4.17-1 38 38 0 0 1 8.33 1.43A62.14 62.14 0 0 0 109 164a1.44 1.44 0 0 0 1.35-.68 5 5 0 0 0 .2-1 .58.58 0 0 0-.17-.55zM22 104.79a10.11 10.11 0 0 0 3 1.31 15.93 15.93 0 0 0 3.72.37 17.61 17.61 0 0 0 3.81-.7 20 20 0 0 1 3.87-.77 19.26 19.26 0 0 1 3.17.11l.68.09c.3.05.66.1 1 .14l.21-.1a53.69 53.69 0 0 1 8.91-1.12h.07a2.61 2.61 0 0 0 .93-1 1.11 1.11 0 0 0 .1-.33 3.44 3.44 0 0 1 .61-1.45A6.36 6.36 0 0 1 53.6 100a18.22 18.22 0 0 1 1.92-1 15.15 15.15 0 0 1 1.93-.63 11.23 11.23 0 0 1 1.9-.25 21.61 21.61 0 0 1 3.43.51l.68.16 1 .25a3.36 3.36 0 0 0 .25-.65 2.89 2.89 0 0 0-.42-2.06A5.41 5.41 0 0 0 62.77 95a4.09 4.09 0 0 0-1.77-.34 6.06 6.06 0 0 1-1.81-.2 5.07 5.07 0 0 1-1.5-.84 9.18 9.18 0 0 0-1.38-1 18.85 18.85 0 0 0-3.2-.91 21.61 21.61 0 0 0-3.43-.51 11.23 11.23 0 0 0-1.9.25 15.15 15.15 0 0 0-1.93.63 18.22 18.22 0 0 0-1.92 1 6.36 6.36 0 0 0-1.48 1.25 3.44 3.44 0 0 0-.61 1.45 2.29 2.29 0 0 1-1 1.37 11 11 0 0 1-2.75 1 22.17 22.17 0 0 1-3.67.43 24.16 24.16 0 0 1-3.79-.31 19 19 0 0 0-3.85-.2 20 20 0 0 0-3.85.75 16.23 16.23 0 0 1-1.94.46 4.44 4.44 0 0 0-.54.94v.17a4.14 4.14 0 0 0 .07 2.28 5.55 5.55 0 0 0 1.48 2.12zM93.76 58a14.64 14.64 0 0 0 .91-2.56 14.18 14.18 0 0 0 .3-2.67A2.26 2.26 0 0 0 94.1 51a4.43 4.43 0 0 0-2.57 0 11.08 11.08 0 0 1-3.38.21 11.73 11.73 0 0 1-2.71-.8 8.42 8.42 0 0 1-.59-.27l-.33-.15c-.16.43-.33.85-.48 1.17a16.13 16.13 0 0 0-.93 2.5 13.71 13.71 0 0 0-.36 2.5 12.14 12.14 0 0 0 .25 2.51 16.33 16.33 0 0 0 1 2.68 2.07 2.07 0 0 1 .11 1.94 3.25 3.25 0 0 1-2.26.34 27.52 27.52 0 0 0-3.39-.2 56.75 56.75 0 0 0-6.55 1c-1.23.24-2.5.46-3.61.62 0 .33 0 .67.05 1s0 .56 0 .83a6.72 6.72 0 0 0 .9 3.48 5.52 5.52 0 0 0 1.59 1 6.63 6.63 0 0 0 .91.35 16.89 16.89 0 0 0 2.94.51h.38a43.87 43.87 0 0 0 6.53-.91 56.75 56.75 0 0 1 6.55-1 27.52 27.52 0 0 1 3.39.2 3.25 3.25 0 0 0 2.26-.34 2.07 2.07 0 0 0-.11-1.94 16.33 16.33 0 0 1-.95-2.68 12.14 12.14 0 0 1-.27-2.55 13.71 13.71 0 0 1 .36-2.5 16.13 16.13 0 0 1 .93-2.5z"/></svg>