<svg xmlns="http://www.w3.org/2000/svg" width="118.9" height="200" viewBox="0 0 118.9 200"><title>_</title><path d="M67.4 38.88c-.18-.27-.36-.53-.52-.73A15.83 15.83 0 0 0 64.82 36a51.58 51.58 0 0 0-5.61-3.14 32.87 32.87 0 0 0-5.82-2.39 7.22 7.22 0 0 0-1-.06 10.53 10.53 0 0 0-1.94.17 19.25 19.25 0 0 0-3.1 1 18.27 18.27 0 0 0-2.76 1.56c-.76.54-2 1.49-2.68 2.11S40 37 39.36 37.66A8.44 8.44 0 0 0 37.83 40a18.62 18.62 0 0 0-.35 4.83c.08 2.11.1 4.71.05 5.79a5.15 5.15 0 0 0 .52 2.38 5.61 5.61 0 0 0 2 1.56 14 14 0 0 1 3.52 2.37A14 14 0 0 1 46 60.42 3.82 3.82 0 0 0 47.33 62a4 4 0 0 0 2.07-.13h.12c1-.37 2.66-.89 3.62-1.14a33.91 33.91 0 0 1 3.33-.73 12.21 12.21 0 0 0 2.44-.66 10.46 10.46 0 0 0 1.16-.61 10.34 10.34 0 0 0 1-.65 26.21 26.21 0 0 1 2.86-1.87c.88-.48 2.45-1.23 3.51-1.67a6.72 6.72 0 0 0 1.86-1.25 2.43 2.43 0 0 0 .27-.29 5.44 5.44 0 0 0 .71-2.38 33.87 33.87 0 0 0-.14-3.51 30.87 30.87 0 0 0-.58-3.34 18.74 18.74 0 0 0-1.06-3 17.38 17.38 0 0 0-1.1-1.89zM14.36 145.93a18.77 18.77 0 0 0 2.84 2.86 20.7 20.7 0 0 0 3.62 2.11 27.55 27.55 0 0 1 2.58 1.31c.61.34 1.13.67 1.51.94A18.09 18.09 0 0 1 28 156a6.48 6.48 0 0 0 1.86 1.52 43.92 43.92 0 0 0 7.93-.61c4.4-.63 8.29-1.33 9.17-1.58a31.42 31.42 0 0 0 3.52-1.33 31.14 31.14 0 0 0 3.26-1.8c1-.62 3.38-2 5.4-3 1.48-.74 3.94-1.92 4.63-2.14a1.93 1.93 0 0 1 2.29.44l.63.8-.53 1a4.5 4.5 0 0 0 .09.48 5.32 5.32 0 0 1 .18 1.59 6.38 6.38 0 0 1-.33 1.59v.09a1.82 1.82 0 0 0 .31.32 3.51 3.51 0 0 0 1 .1 17.85 17.85 0 0 0 3.08-.62 42.9 42.9 0 0 1 4.33-1 40.85 40.85 0 0 1 4.34-.41 40.78 40.78 0 0 1 4.34.16 41 41 0 0 1 4.33.73c1.18.28 4 1.15 6.39 2 .72.24 1.44.48 2.11.69a1.45 1.45 0 0 1 .37-1.37 2.65 2.65 0 0 1 1.14-.64 10.61 10.61 0 0 0-.7-1.12 6.5 6.5 0 0 0-.71-.77 5.71 5.71 0 0 1-1.81-2.79 4.22 4.22 0 0 1 0-2.16 7 7 0 0 1 1.06-1.95 3.52 3.52 0 0 0 .24-1.37 82.93 82.93 0 0 0-1.71-8.33c-.86-3.55-1.69-8.23-1.54-9.91a23.66 23.66 0 0 1 1.16-5.11 14.54 14.54 0 0 0 .75-4.18 14.78 14.78 0 0 0-.84-4.19 20.15 20.15 0 0 1-1.17-4.8 12.2 12.2 0 0 1 .53-4.32 8.76 8.76 0 0 0 .43-2.71 8.31 8.31 0 0 0-.71-2.58A13.48 13.48 0 0 1 91.71 93a12.93 12.93 0 0 1 .17-3.76 6.24 6.24 0 0 0 0-2.29l-.07-.16a5.16 5.16 0 0 0-1-1.61 18.53 18.53 0 0 0-2.26-1.79c-.53-.34-3.62-1.85-7.46-3.53a108.92 108.92 0 0 0-15.25-4.83 69.93 69.93 0 0 0-10.43-1.9 12.17 12.17 0 0 0-3 .93 11.82 11.82 0 0 1-4 1.06 11.91 11.91 0 0 1-4.08-.66 20.06 20.06 0 0 0-3.22-.85 17.92 17.92 0 0 0-3.17-.14 21 21 0 0 0-3.21.53A71 71 0 0 0 28 76.78c-3.07 1.39-5.82 2.76-6.47 3.16a22 22 0 0 0-2.38 1.74 14 14 0 0 0-1.76 1.94 13.85 13.85 0 0 0-1.25 2.29 15.49 15.49 0 0 0-.72 2.54 15.09 15.09 0 0 0-.15 2.55 15.24 15.24 0 0 1-.35 3.55 23 23 0 0 1-1.33 3.76l.41-.12a24.11 24.11 0 0 1 4.36-1.36 31.52 31.52 0 0 1 5.16 0c1 .05 2 .13 3 .23 3.1.31 6.52.54 7.51.54a33 33 0 0 0 3.54-.28 11.69 11.69 0 0 0 2.54-.67 2.4 2.4 0 0 0 .76-.6 7.46 7.46 0 0 1 1.21-1.77 8.44 8.44 0 0 1 1.76-1.34c.46-.24 1.16-.67 1.54-.94s1.07-.8 1.46-1.13a14.54 14.54 0 0 1 1.85-1.3 13.75 13.75 0 0 1 2-.92 6.2 6.2 0 0 1 2.46-.27c1.12.15 4.2 2.19 5.11 2.82a63.38 63.38 0 0 1 5.23 3.91 6.68 6.68 0 0 1 .9 1 4.51 4.51 0 0 1 1 2.65 9.41 9.41 0 0 1-1.12 3.42 14.68 14.68 0 0 1-2.38 3.1 12.94 12.94 0 0 1-3.18 2.07 13.91 13.91 0 0 1-3.66.91 15.43 15.43 0 0 1-3.87-.28 11 11 0 0 0-2.94-.16 10.35 10.35 0 0 0-2.75.85 16.82 16.82 0 0 1-3.59 1.26 15.7 15.7 0 0 1-3.74.21h-1.39c-.51 0-1.27 0-1.71.07a22.18 22.18 0 0 0-3.1.58c-1 .27-2.59.62-3.6.77s-2.68.31-3.73.36a15.35 15.35 0 0 0-3.11.51 15.29 15.29 0 0 0-2.85 1.27 12.06 12.06 0 0 0-2.3 1.94 12.83 12.83 0 0 0-1.62 2.62 16.26 16.26 0 0 1-2.2 3.5 19.51 19.51 0 0 1-3.25 2.87 4.76 4.76 0 0 0-1.59 1.9 4.77 4.77 0 0 0 .3 2.46 12 12 0 0 1 .88 4.26 9.26 9.26 0 0 1-1.15 3.94 3.31 3.31 0 0 0-.44 1.64 3.29 3.29 0 0 0 1.1 1.3 26.29 26.29 0 0 1 3.06 2.53 37.36 37.36 0 0 1 2.9 3.27z"/><path d="M70.25 55.72c-.06.28-.12.58-.19.79a11 11 0 0 1-.52 1.35c-.18.37-.51 1-.74 1.35s-.65 1-.93 1.37a2.61 2.61 0 0 1-1.2.86 5.63 5.63 0 0 1-2.31-.39c-.87-.3-1.87-.61-2.25-.69a10.5 10.5 0 0 1-1.28-.36 11.75 11.75 0 0 1-1.35.7 13.54 13.54 0 0 1-2.81.76c-.82.11-2.24.4-3.16.65S51 62.85 50 63.23h-.1c.36.2.73.44 1.08.69a10 10 0 0 1 1.25 1 12.45 12.45 0 0 1 2.12 3 5.08 5.08 0 0 0 2.16 2.31 5.31 5.31 0 0 0 3.21-.13c1-.37 2.62-.87 3.54-1.12s2.35-.53 3.16-.65a13.54 13.54 0 0 0 2.81-.76 13.17 13.17 0 0 0 2.49-1.46 24.6 24.6 0 0 1 2.67-1.74c.83-.46 2.34-1.17 3.35-1.59a7.5 7.5 0 0 0 2.79-2.08 6.77 6.77 0 0 0 1-3.22 35 35 0 0 0-.15-3.7 32 32 0 0 0-.61-3.54 20.32 20.32 0 0 0-1.16-3.26 19 19 0 0 0-1.78-2.88 17.05 17.05 0 0 0-2.32-2.36 45.54 45.54 0 0 0-5.13-2.93l-.75-.38-.94-.46a18.75 18.75 0 0 1 1.2 2.06A20.32 20.32 0 0 1 71 43.37a32 32 0 0 1 .61 3.54 35 35 0 0 1 .15 3.7 6.77 6.77 0 0 1-1 3.22 4 4 0 0 1-.46.52 3.68 3.68 0 0 1 0 .8c.02.15-.01.36-.05.57zM24.35 106.51a22.37 22.37 0 0 1 4-1.26 41.9 41.9 0 0 1 7.76.21c3.18.32 6.63.56 7.67.55.52 0 1.21 0 1.89-.1s1.35-.12 1.85-.2a15.18 15.18 0 0 0 1.91-.42 7.64 7.64 0 0 0 1.05-.37 3.43 3.43 0 0 0 1.46-1.3 6.12 6.12 0 0 1 .94-1.39 7.08 7.08 0 0 1 1.4-1.07c.45-.25 1.17-.7 1.61-1s1.14-.85 1.57-1.21a13 13 0 0 1 1.63-1.14 12.33 12.33 0 0 1 1.79-.8 4.4 4.4 0 0 1 .8-.17 4.06 4.06 0 0 1 1 0 2.26 2.26 0 0 1 .51.19 5.11 5.11 0 0 0-.69-.79 61.74 61.74 0 0 0-5.07-3.78 22.67 22.67 0 0 0-4.43-2.6 4.72 4.72 0 0 0-1.79.2 12.33 12.33 0 0 0-1.79.8A13 13 0 0 0 47.81 92c-.43.36-1.13.91-1.57 1.21s-1.16.76-1.61 1a7.08 7.08 0 0 0-1.4 1.07 6.12 6.12 0 0 0-.94 1.39A3.43 3.43 0 0 1 40.81 98a13 13 0 0 1-3 .79 34.55 34.55 0 0 1-3.75.3c-1 0-4.49-.23-7.67-.55-1-.1-2-.17-3-.23v1a13.41 13.41 0 0 1-.27 1.9 21.75 21.75 0 0 1-1.23 3.47c-.46 1-.57 2-.24 2.28s1.58.04 2.7-.45zM108 157.88a7.69 7.69 0 0 0-.94-1 5.22 5.22 0 0 1-.83-.94 5.15 5.15 0 0 1-.51-1.13 2.72 2.72 0 0 1 0-1.31 5.63 5.63 0 0 1 .81-1.46 4.36 4.36 0 0 0 .56-2.34 80.71 80.71 0 0 0-1.75-8.64c-.94-3.89-1.62-8.14-1.51-9.43a22 22 0 0 1 1.17-4.73 15.94 15.94 0 0 0 .85-4.72 16.11 16.11 0 0 0-.94-4.72 18.79 18.79 0 0 1-1.07-4.38 10.67 10.67 0 0 1 .44-3.7 10.09 10.09 0 0 0 .51-3.3 9.68 9.68 0 0 0-.87-3.17 12 12 0 0 1-1-3.16 11.35 11.35 0 0 1 .15-3.25 7.46 7.46 0 0 0 0-3 6.5 6.5 0 0 0-1.5-2.45 19.84 19.84 0 0 0-2.48-2c-.53-.34-2.39-1.25-4.66-2.29l-1.18-.54c0 .1.09.21.12.3a7.46 7.46 0 0 1 0 3 11.35 11.35 0 0 0-.15 3.25 12 12 0 0 0 1 3.16 9.68 9.68 0 0 1 .87 3.17 10.09 10.09 0 0 1-.51 3.3 10.67 10.67 0 0 0-.44 3.7 18.79 18.79 0 0 0 1.07 4.38 16.11 16.11 0 0 1 .94 4.72 15.94 15.94 0 0 1-.85 4.72 22 22 0 0 0-1.07 4.72c-.11 1.3.57 5.54 1.51 9.43a80.71 80.71 0 0 1 1.75 8.64 4.36 4.36 0 0 1-.56 2.34 5.63 5.63 0 0 0-.81 1.46 2.72 2.72 0 0 0 0 1.31 5.15 5.15 0 0 0 .51 1.13 5.22 5.22 0 0 0 .83.94 7.69 7.69 0 0 1 .94 1 11.88 11.88 0 0 1 .84 1.35 4.08 4.08 0 0 1 .43 1.19 1.13 1.13 0 0 1-.84.74 5.47 5.47 0 0 0-1 .4 4.93 4.93 0 0 0 .8 1.33c.49.68.54 1.22.11 1.21a38.74 38.74 0 0 1-5-1.45c-2.3-.78-5.11-1.64-6.25-1.91a39.38 39.38 0 0 0-4.14-.7 37.92 37.92 0 0 0-4.15-.05 38.88 38.88 0 0 0-4.15.4 41.32 41.32 0 0 0-4.14.94 18.91 18.91 0 0 1-3.42.68 3.7 3.7 0 0 1-2-.4 2.84 2.84 0 0 1-.83-1 1.87 1.87 0 0 1 0-1.13 4.87 4.87 0 0 0 .25-1.16 3.91 3.91 0 0 0-.12-1.09 3.69 3.69 0 0 1-.14-.94 1.73 1.73 0 0 1 .2-.71c.1-.16-.19-.18-.65 0s-2.44 1.07-4.42 2.05-4.33 2.27-5.25 2.87a32.24 32.24 0 0 1-3.46 1.9 32.73 32.73 0 0 1-3.72 1.38c-1.06.31-5.28 1-9.38 1.63s-8 .81-8.74.5a7.94 7.94 0 0 1-2.42-1.94 16.68 16.68 0 0 0-2.78-2.54c-.36-.25-.86-.56-1.39-.86l.22.28a20.24 20.24 0 0 0 3.14 3.06 22.19 22.19 0 0 0 3.94 2.3c.47.2 1 .47 1.57.76a22.68 22.68 0 0 1 2.26 1.34 16.68 16.68 0 0 1 2.78 2.54 7.94 7.94 0 0 0 2.45 1.93c.71.31 4.64.08 8.74-.5s8.26-1.29 9.35-1.63a32.73 32.73 0 0 0 3.72-1.38 32.24 32.24 0 0 0 3.46-1.9c.91-.6 3.28-1.89 5.25-2.87s4-1.91 4.42-2.05.75-.13.65 0a1.73 1.73 0 0 0-.2.71 3.69 3.69 0 0 0 .14.94 3.91 3.91 0 0 1 .12 1.09 4.87 4.87 0 0 1-.25 1.16 1.87 1.87 0 0 0 0 1.13 2.84 2.84 0 0 0 .83 1 3.7 3.7 0 0 0 2 .4 18.91 18.91 0 0 0 3.42-.68 41.32 41.32 0 0 1 4.14-.94 38.88 38.88 0 0 1 4.15-.4 37.92 37.92 0 0 1 4.14.15 39.38 39.38 0 0 1 4.14.7c1.14.27 4 1.13 6.25 1.91a38.74 38.74 0 0 0 5 1.45c.43 0 .38-.53-.11-1.21a4.93 4.93 0 0 1-.8-1.33 5.47 5.47 0 0 1 1-.4 1.13 1.13 0 0 0 .84-.74 4.08 4.08 0 0 0-.43-1.19 11.88 11.88 0 0 0-.97-1.33z"/></svg>