<svg xmlns="http://www.w3.org/2000/svg" width="142.33" height="200" viewBox="0 0 142.33 200"><title>_</title><path d="M24.32 156.27c5.11-.41 11.18-1.14 13.52-1.61s8.27-2.05 13.23-3.52c3.69-1.09 9.65-2.76 10.94-2.87a8 8 0 0 1 3.29.4c.69.29 4.26 2.24 7.27 3.92a37.9 37.9 0 0 0 7.66 3.49 15.86 15.86 0 0 0 3.9-.2 35.79 35.79 0 0 1 4.67-.56 27.78 27.78 0 0 1 4.38.24c1 .15 3.66.35 5.78.44s4.7.07 5.63 0 2.51-.31 3.38-.49a8.07 8.07 0 0 0 2.49-1.08 10.5 10.5 0 0 0 2.07-2.24 12.49 12.49 0 0 1 2.84-3 10 10 0 0 1 3.66-1.45 8.94 8.94 0 0 0 2.46-.82 7.82 7.82 0 0 0 1.84-1.61c.56-.73 2.18-2.48 3.62-3.91a23.7 23.7 0 0 0 2.89-3.5 5.05 5.05 0 0 0 .27-.45 18.46 18.46 0 0 0 1.26-3.86 5.61 5.61 0 0 0 0-1.89 26.66 26.66 0 0 0-4.13.42c-1.45.23-3 .54-4.6.9-3.89.89-10.23 2.13-11.8 1.91a15.64 15.64 0 0 1-4.17-1.39 7.5 7.5 0 0 0-1.5-.58 5.41 5.41 0 0 1-.72 2.56 4.13 4.13 0 0 1-2.38 1.56 4.75 4.75 0 0 0-1.3.57 7.06 7.06 0 0 0-1.25 1.23 4 4 0 0 1-3 1.52 7 7 0 0 1-3.38-1.4 5.54 5.54 0 0 0-2.26-.85 7 7 0 0 0-2.45.47l-.26.11a10.59 10.59 0 0 1-4.09.88 8.19 8.19 0 0 1-3.78-1.25 9.1 9.1 0 0 1-2.59-2.8 9.32 9.32 0 0 1-.92-3.71c0-.88-.25-3.14-.51-4.94-.3-2-.36-4.62 1-5.38s3.73.29 4 .41a11.84 11.84 0 0 0 3.2.9 10.21 10.21 0 0 0 3.09-.34 14.72 14.72 0 0 1 8.06-.22 14.69 14.69 0 0 0 3.23.38 15.4 15.4 0 0 0 3.24-.51 37.54 37.54 0 0 1 3.81-.87 35.38 35.38 0 0 1 3.83-.36 25 25 0 0 1 3.91.26 27.53 27.53 0 0 1 3.88 1 12 12 0 0 0 3.14.55 35.66 35.66 0 0 0 6.58-1.63 39.8 39.8 0 0 0 5.6-2.18 14.3 14.3 0 0 0 .92-3.8c.26-2.1.49-4.56.5-5.37s-.05-2.2-.13-3a9.35 9.35 0 0 0-.88-2.72 19.09 19.09 0 0 0-2.29-3.15 22.49 22.49 0 0 1-2.9-4.15 21.63 21.63 0 0 1-1.6-4.73 8.71 8.71 0 0 0-.68-1.89 6.89 6.89 0 0 0-.8-1.34 9.38 9.38 0 0 0-3-2.06c-.47-.19-1-.44-1.6-.72-1-.49-2-1-2.72-1.46-.95-.59-2.92-2.11-4.45-3.34-.66-.53-1.33-1.08-2-1.62a58.44 58.44 0 0 0-5.59-4.27 27.64 27.64 0 0 0-2.83-1.3 8.46 8.46 0 0 0-2.69-.45 10.52 10.52 0 0 0-2.84.6 11.19 11.19 0 0 1-4 .71 13.13 13.13 0 0 1-4.08-1 10.86 10.86 0 0 0-3-.74 9.53 9.53 0 0 0-2.9.45A17.26 17.26 0 0 0 80.3 75a18.11 18.11 0 0 0-2.55 2.12 13.44 13.44 0 0 1-3.19 2.37c-1.22.6-4.72.88-7.46.89s-6.37-.28-7.7-.85a16.32 16.32 0 0 1-3.78-2.45 12.22 12.22 0 0 0-3-1.87 11.57 11.57 0 0 0-3.39-.62c-1.11 0-3.79.18-6 .39a30.64 30.64 0 0 1-6.35 0 18 18 0 0 1-4.2-1.41 10.77 10.77 0 0 0-3.14-.94 9.15 9.15 0 0 0-3 .39c-.83.29-4.75 2.07-9.28 4.26-3.77 1.82-8.38 3.94-9.52 4.27a10.52 10.52 0 0 0-2.49 1.19 10.06 10.06 0 0 0-1.9 1.92 20.34 20.34 0 0 0-1.45 2.72 21.35 21.35 0 0 0-1 2.9c-.22.85-.64 3.16-.92 5a9.76 9.76 0 0 0 0 2.94 3.91 3.91 0 0 0 1.42 0c1.11-.22 2.91-.49 4-.6.62-.06 2-.07 3.13-.07h.2c1.87 0 4.15.05 6.26.12 4.42.15 8.26.15 9.09 0a25.9 25.9 0 0 0 3-.54 10.43 10.43 0 0 0 1.93-.75c.45-.26 1.14-.7 1.47-.94a8.9 8.9 0 0 0 .92-.79 7 7 0 0 0 .71-1c.24-.44.68-1.37 1-2a4.94 4.94 0 0 1 1.95-2.41 3.16 3.16 0 0 1 3.08.41 17.4 17.4 0 0 0 1.67 1c.5.27 1.42.7 2 .93a4.17 4.17 0 0 0 1.61.21 6.05 6.05 0 0 0 1.84-.74 6.69 6.69 0 0 1 3.06-1 4.34 4.34 0 0 1 2.86 1.3A5.66 5.66 0 0 1 52.41 94a6.41 6.41 0 0 1-.33 2.93 5.83 5.83 0 0 0-.29 1.73 4.66 4.66 0 0 0 .14.82 5.42 5.42 0 0 0 .3.91 2.75 2.75 0 0 1-2.9 4.27 9.24 9.24 0 0 0-1.89.13 5.48 5.48 0 0 0-1.37.56 6.71 6.71 0 0 1-2.35.9 12.67 12.67 0 0 1-3.38-.26l-.64-.12c-.88-.16-1.44-.23-1.64-.25a3.51 3.51 0 0 0-.22.59c0 .09-.05.19-.07.29a4.73 4.73 0 0 1-1 2.23 2.26 2.26 0 0 1-2.78.19 11.6 11.6 0 0 1-1.29-1c-.16-.15-.38-.37-.6-.6s-.47-.51-.66-.72a1.49 1.49 0 0 0-.5-.13 7.53 7.53 0 0 0-2.11.6c-.42.19-1 .4-1.52.61-.73.27-1.4.5-1.9.64-1 .28-3.91.86-6.71 1.32a26.15 26.15 0 0 0-5.7 1.42 10.72 10.72 0 0 0-2.11 1.94 23.61 23.61 0 0 1-2.49 2.64 15.7 15.7 0 0 1-2.7 1.85 18.09 18.09 0 0 0-2.08 1.28 17.52 17.52 0 0 0-1.81 1.6c-.55.57-2.21 2.06-3.71 3.3a14.66 14.66 0 0 0-2.92 3.14 6.27 6.27 0 0 0-.4 2.47 28.47 28.47 0 0 0 .44 3.12 21.3 21.3 0 0 0 .78 2.73c.32.81.9 2.73 1.31 4.29a14 14 0 0 0 1.54 3.69A42.87 42.87 0 0 0 3 147.28a56.47 56.47 0 0 1 4.38 4.31 25.79 25.79 0 0 0 1.93 2.1 27.26 27.26 0 0 0 2.25 1.87 8.59 8.59 0 0 0 2.33 1.1 7.69 7.69 0 0 0 .88 0c1.94.1 5.78-.09 9.55-.39zM114.19 80c1.82 1.46 3.54 2.76 4.3 3.23s1.64.93 2.58 1.38a50 50 0 0 0-5-3.72c-.47-.27-1.19-.61-1.88-.89z"/><path d="M50.93 94.25a4.19 4.19 0 0 0-.93-1.81 2.9 2.9 0 0 0-1.78-.83 5 5 0 0 0-2.25.78 7.35 7.35 0 0 1-2.45 1 5.57 5.57 0 0 1-2.37-.3c-.64-.26-1.62-.71-2.17-1a19.14 19.14 0 0 1-1.85-1.15 1.69 1.69 0 0 0-1.53-.27 3.66 3.66 0 0 0-1.23 1.64c-.3.71-.76 1.7-1 2.18a8.17 8.17 0 0 1-.93 1.35 10.19 10.19 0 0 1-1.13 1c-.37.27-1.1.74-1.6 1a11.69 11.69 0 0 1-2.29.9 26.89 26.89 0 0 1-3.2.58c-1 .12-5.2.1-9.31 0-2.21-.07-4.45-.12-6.21-.12-.06.32-.12.66-.17 1-.11.65-.22 1.31-.31 1.95-.29 2-.13 3.9.35 4.29a4 4 0 0 0 2.81.34c1.07-.21 2.8-.47 3.85-.58s4.66-.08 8.47 0h.92l2.24.06c.53-.2 1-.4 1.44-.57a8.74 8.74 0 0 1 2.69-.72 2.42 2.42 0 0 1 1.67.66c.17.19.38.43.6.66h.69l.62-.08.81-.13 1.07-.2a3.66 3.66 0 0 1 .52-1.17 1.6 1.6 0 0 1 1.11-.52 17.15 17.15 0 0 1 1.93.27c.39-.24.79-.51 1-.69l.14-.11a10 10 0 0 0 1-.86 8.17 8.17 0 0 0 .93-1.35c.27-.49.73-1.47 1-2.18a3.66 3.66 0 0 1 1.23-1.64 1.69 1.69 0 0 1 1.53.27 19.14 19.14 0 0 0 1.84 1.1l.67.34 1.12.51a6 6 0 0 1-.18-1.11 7.15 7.15 0 0 1 .38-2.31 5 5 0 0 0 .26-2.18zM145.38 113.52a10.72 10.72 0 0 0-1-3.28 20.54 20.54 0 0 0-2.51-3.46 21.08 21.08 0 0 1-2.67-3.82 20.24 20.24 0 0 1-1.51-4.34 10.38 10.38 0 0 0-1.8-3.9 10.68 10.68 0 0 0-3.55-2.49 33.4 33.4 0 0 1-3.68-1.81l-.42-.25c-.26-.16-.62-.41-1.06-.73a10.19 10.19 0 0 1 .79 2.25 20.24 20.24 0 0 0 1.48 4.31 21.08 21.08 0 0 0 2.67 3.82 20.54 20.54 0 0 1 2.51 3.46 10.72 10.72 0 0 1 1 3.28c.08.88.15 2.31.14 3.18s-.24 3.37-.51 5.54-.9 4.3-1.41 4.73a32.33 32.33 0 0 1-6.15 2.48 35.6 35.6 0 0 1-7 1.7 13.44 13.44 0 0 1-3.63-.63 25.85 25.85 0 0 0-3.63-.92 23.66 23.66 0 0 0-3.63-.24 33.52 33.52 0 0 0-3.63.34 35.66 35.66 0 0 0-3.63.82 16.76 16.76 0 0 1-3.63.57 16.49 16.49 0 0 1-3.63-.42 16.1 16.1 0 0 0-3.63-.41 16.43 16.43 0 0 0-3.63.6 11.58 11.58 0 0 1-3.66.4 13.28 13.28 0 0 1-3.71-1 4 4 0 0 0-2.64-.45c-.42.23-.55 2-.27 3.85s.51 4.19.53 5.13a7.87 7.87 0 0 0 .74 3 7.66 7.66 0 0 0 2.11 2.26 6.84 6.84 0 0 0 3 1 9.19 9.19 0 0 0 3.41-.75l.35-.14c0-.32-.06-.66-.1-1-.09-.84-.2-1.74-.32-2.57-.28-1.88-.15-3.62.27-3.85a4 4 0 0 1 2.64.45 13.28 13.28 0 0 0 3.71 1 11.58 11.58 0 0 0 3.66-.4 16.43 16.43 0 0 1 3.63-.6 15.77 15.77 0 0 1 2.61.21c.37.06.73.13 1 .2a16.1 16.1 0 0 0 2.33.37 12.53 12.53 0 0 0 1.3.06 16.76 16.76 0 0 0 3.63-.57 35.66 35.66 0 0 1 3.63-.82 33.52 33.52 0 0 1 3.63-.34 23.66 23.66 0 0 1 3.63.24c.47.07 1.08.21 1.7.36s1.4.37 1.93.56l.23.1c3-.48 5.2-.59 5.49-.2a1.56 1.56 0 0 1 .19.39l1-.23c1.18-.3 2.51-.67 3.8-1.09a32.33 32.33 0 0 0 6.15-2.48c.5-.43 1.13-2.56 1.41-4.73s.5-4.67.51-5.54-.08-2.32-.17-3.2zM132.39 138.39l-.37.08-.94.21a25.28 25.28 0 0 1-3.09 3.75c-1.39 1.38-3 3.07-3.49 3.76a9.26 9.26 0 0 1-2.28 2 10.31 10.31 0 0 1-3 1 8.61 8.61 0 0 0-3 1.2 11.16 11.16 0 0 0-2.44 2.6 11.77 11.77 0 0 1-2.45 2.64 9.48 9.48 0 0 1-3.07 1.33c-.93.19-2.52.42-3.54.51s-3.64.1-5.83 0-4.89-.27-5.95-.47a26.49 26.49 0 0 0-4.1-.22 34.2 34.2 0 0 0-4.44.53 17.06 17.06 0 0 1-4.36.22c-1.13-.13-4.83-1.78-8.22-3.67s-6.6-3.62-7.13-3.85a6.65 6.65 0 0 0-2.58-.28c-.88.07-5.67 1.34-10.63 2.81s-11 3.07-13.36 3.55-8.54 1.22-13.69 1.63c-3.94.32-7.74.49-9.69.45.4.4.73.74 1 1l.22.26a27.44 27.44 0 0 0 2.04 2.3 29.08 29.08 0 0 0 2.39 2 10 10 0 0 0 2.83 1.34c.85.22 5.77.06 10.92-.36s11.31-1.15 13.69-1.63 8.39-2.08 13.36-3.55 9.75-2.74 10.63-2.81a6.65 6.65 0 0 1 2.58.28c.53.23 3.74 2 7.13 3.85s7.08 3.54 8.22 3.67a17.06 17.06 0 0 0 4.36-.22 34.2 34.2 0 0 1 4.44-.53 26.49 26.49 0 0 1 4.1.22c1.08.17 3.76.37 5.94.45s4.81.08 5.83 0 2.61-.32 3.54-.51a9.48 9.48 0 0 0 3.07-1.33 11.77 11.77 0 0 0 2.45-2.64 11.16 11.16 0 0 1 2.44-2.6 8.61 8.61 0 0 1 3-1.2 10.31 10.31 0 0 0 3-1 9.26 9.26 0 0 0 2.28-2c.53-.69 2.1-2.38 3.49-3.76a22 22 0 0 0 3.44-4.35 20.06 20.06 0 0 0 1.39-4.24 5.32 5.32 0 0 0-.31-3.44c-.42-.58-4.8-.11-9.82 1.02z"/></svg>