<svg xmlns="http://www.w3.org/2000/svg" width="200" height="200" viewBox="0 0 200 200"><title>_</title><path d="M64.63,104.77a4.18,4.18,0,0,0,.15-0.6v-0.05l-0.81.13C64.18,104.42,64.42,104.62,64.63,104.77Z" fill="none"/><path d="M76.32,96a1.69,1.69,0,0,0-1.53-.27,3.66,3.66,0,0,0-1.23,1.64c-0.3.71-.76,1.7-1,2.18a8.17,8.17,0,0,1-.93,1.35,10,10,0,0,1-1,.86,10.18,10.18,0,0,0,2.22.19,4.38,4.38,0,0,0,1.36-.52,7.73,7.73,0,0,1,2.18-.9,11.43,11.43,0,0,1,2.56-.19,2,2,0,0,0,.68-0.08,2.07,2.07,0,0,0-.18-0.66A8,8,0,0,1,79,98.19c0-.21-0.11-0.47-0.15-0.75l-0.67-.34A19.14,19.14,0,0,1,76.32,96Z" fill="none"/><path d="M124.09,135.12A5,5,0,0,0,126,136h0a1.59,1.59,0,0,0,1-.54,9.49,9.49,0,0,1,1.82-1.77,7.1,7.1,0,0,1,2.18-1,1.76,1.76,0,0,0,.83-0.51,3.27,3.27,0,0,0,.3-1.38,2.39,2.39,0,0,1,1.31-2.22,15.77,15.77,0,0,0-2.61-.21,16.44,16.44,0,0,0-3.63.6,11.58,11.58,0,0,1-3.66.4,13.27,13.27,0,0,1-3.71-1,4,4,0,0,0-2.64-.45c-0.42.23-.55,2-0.27,3.85,0.12,0.83.23,1.73,0.32,2.57a9.43,9.43,0,0,1,3.25-.55A8,8,0,0,1,124.09,135.12Z" fill="none"/><path d="M140.69,130.55c0.69,0.1,5.17-.56,10.88-1.87,0.92-.21,1.85-0.4,2.76-0.58-0.62-.15-1.23-0.28-1.7-0.36a23.66,23.66,0,0,0-3.63-.24,33.52,33.52,0,0,0-3.63.34,35.73,35.73,0,0,0-3.63.82,16.74,16.74,0,0,1-3.63.57,12.47,12.47,0,0,1-1.3-.06l0.48,0.23A13.16,13.16,0,0,0,140.69,130.55Z" fill="none"/><path d="M161.26,129.31a21.25,21.25,0,0,0-4.61.4c-1.46.23-3.06,0.55-4.64,0.91-4.65,1.07-10.3,2.09-11.62,1.9a15,15,0,0,1-4-1.34,6.64,6.64,0,0,0-2.19-.73,1.18,1.18,0,0,1,0,.36,5,5,0,0,1-.64,2.51,3.64,3.64,0,0,1-2.07,1.35,5.22,5.22,0,0,0-1.47.65,7.52,7.52,0,0,0-1.36,1.34A3.53,3.53,0,0,1,126,138a6.58,6.58,0,0,1-3.06-1.25,6,6,0,0,0-2.52-.95,7.49,7.49,0,0,0-2.66.5l-0.29.12a10,10,0,0,1-3.87.84,7.75,7.75,0,0,1-3.52-1.17,8.66,8.66,0,0,1-2.43-2.62,8.89,8.89,0,0,1-.86-3.49c0-.9-0.25-3.19-0.52-5-0.18-1.24-.47-4.19.78-4.87,1-.52,2.68,0,3.54.42a12.25,12.25,0,0,0,3.37.94,10.69,10.69,0,0,0,3.28-.36,17.37,17.37,0,0,1,3.89-.65,16.82,16.82,0,0,1,3.9.44,12.55,12.55,0,0,0,6.73-.14,36.89,36.89,0,0,1,3.75-.85,34.62,34.62,0,0,1,3.76-.35,25.1,25.1,0,0,1,3.81.25,26.83,26.83,0,0,1,3.8,1,12.38,12.38,0,0,0,3.3.58h0a35.67,35.67,0,0,0,6.74-1.65,35.1,35.1,0,0,0,5.81-2.3,12.59,12.59,0,0,0,1.06-4.09c0.26-2.12.49-4.6,0.5-5.43s-0.05-2.24-.13-3.08a9.82,9.82,0,0,0-.93-2.91,19.68,19.68,0,0,0-2.37-3.26,21.92,21.92,0,0,1-2.82-4,21.05,21.05,0,0,1-1.59-4.6,9.21,9.21,0,0,0-.71-2,7.31,7.31,0,0,0-.87-1.44,9.82,9.82,0,0,0-3.16-2.21c-0.46-.19-1-0.43-1.57-0.71-1-.49-2-1-2.67-1.44-0.93-.58-2.88-2.09-4.4-3.3-0.66-.53-1.32-1.07-2-1.61a58.31,58.31,0,0,0-5.68-4.33,28.42,28.42,0,0,0-3-1.32,9.16,9.16,0,0,0-2.88-.48,11,11,0,0,0-3,.64,10.89,10.89,0,0,1-3.84.68,12.56,12.56,0,0,1-3.91-.93,11.26,11.26,0,0,0-3.2-.78,9.88,9.88,0,0,0-3.09.48,17.82,17.82,0,0,0-3,1.51,18.76,18.76,0,0,0-2.64,2.19,12.86,12.86,0,0,1-3,2.27c-1.1.54-4.47,0.83-7.24,0.84s-6.23-.27-7.5-0.81a15.76,15.76,0,0,1-3.64-2.36,12.6,12.6,0,0,0-3.15-2,12,12,0,0,0-3.57-.65h0c-1.12,0-3.82.18-6,.39a30.55,30.55,0,0,1-6.21,0,17.46,17.46,0,0,1-4.06-1.36,11.18,11.18,0,0,0-3.32-1,9.63,9.63,0,0,0-3.18.42c-0.83.29-4.78,2.09-9.33,4.29-3.8,1.84-8.37,3.93-9.45,4.24a11,11,0,0,0-2.64,1.26,10.52,10.52,0,0,0-2,2,21,21,0,0,0-1.56,2.7,21.9,21.9,0,0,0-1.07,3c-0.23.86-.65,3.2-0.93,5.1A8.53,8.53,0,0,0,29,96.79a3.82,3.82,0,0,0,1.92.1c1.1-.22,2.87-0.48,3.95-0.59,0.64-.06,2.14-0.07,3.28-0.07,1.86,0,4.14.05,6.25,0.12,4.43,0.15,8.32.14,9.16,0a26.36,26.36,0,0,0,3.06-.55,10.84,10.84,0,0,0,2.05-.8c0.47-.27,1.17-0.72,1.51-1a9.32,9.32,0,0,0,1-.85,7.32,7.32,0,0,0,.78-1.14c0.25-.45.7-1.4,1-2.08a4.5,4.5,0,0,1,1.71-2.16,2.67,2.67,0,0,1,2.56.36,18.12,18.12,0,0,0,1.73,1.08c0.52,0.28,1.46.72,2.07,1a4.61,4.61,0,0,0,1.87.24,6.44,6.44,0,0,0,2-.81,6.16,6.16,0,0,1,2.8-.94,3.86,3.86,0,0,1,2.5,1.15,5.17,5.17,0,0,1,1.2,2.33,5.94,5.94,0,0,1-.31,2.67,6.26,6.26,0,0,0-.32,1.92,5.14,5.14,0,0,0,.15.92,6,6,0,0,0,.33,1,2.94,2.94,0,0,1,.08,2.66,3,3,0,0,1-2.5.91,9.35,9.35,0,0,0-2,.15,5.91,5.91,0,0,0-1.53.63,6.23,6.23,0,0,1-2.16.82,12,12,0,0,1-3.21-.26l-0.66-.12a16.7,16.7,0,0,0-1.78-.26,0.71,0.71,0,0,0-.33.15,3.16,3.16,0,0,0-.33.8c0,0.11-.06.22-0.08,0.33a4.34,4.34,0,0,1-.83,2,1.75,1.75,0,0,1-2.15.13,11.24,11.24,0,0,1-1.23-1c-0.16-.14-0.37-0.35-0.58-0.58s-0.46-.49-0.64-0.7a1.55,1.55,0,0,0-.88-0.31h0a7.91,7.91,0,0,0-2.3.64c-0.41.18-.95,0.39-1.49,0.6-0.71.26-1.37,0.49-1.86,0.63-0.94.27-3.87,0.85-6.65,1.31a25.6,25.6,0,0,0-5.91,1.52A11.18,11.18,0,0,0,40,110.81a23,23,0,0,1-2.43,2.58,15.13,15.13,0,0,1-2.6,1.78,18.68,18.68,0,0,0-2.15,1.33,18,18,0,0,0-1.88,1.66c-0.54.56-2.18,2-3.67,3.26a14.73,14.73,0,0,0-3.06,3.32,6.78,6.78,0,0,0-.44,2.72,29.26,29.26,0,0,0,.45,3.19,21.85,21.85,0,0,0,.83,2.79c0.31,0.79.89,2.69,1.29,4.23A14.38,14.38,0,0,0,28,141.52a42.53,42.53,0,0,0,4.2,4.26A56.16,56.16,0,0,1,36.49,150a26.39,26.39,0,0,0,2,2.15,28,28,0,0,0,2.29,1.91,9.1,9.1,0,0,0,2.49,1.18,6.07,6.07,0,0,0,1,.06c2,0,5.83-.14,9.59-0.45,5.13-.42,11.22-1.14,13.58-1.62s8.3-2.06,13.27-3.53c4.43-1.31,9.73-2.76,10.84-2.85a7.66,7.66,0,0,1,3.05.36c0.64,0.27,4.18,2.19,7.22,3.89a37.74,37.74,0,0,0,7.84,3.55,16.23,16.23,0,0,0,4.05-.21,35.13,35.13,0,0,1,4.6-.55,27.3,27.3,0,0,1,4.29.23c1,0.16,3.71.36,5.83,0.44s4.73,0.08,5.7,0,2.55-.31,3.43-0.49a8.54,8.54,0,0,0,2.69-1.16,10.92,10.92,0,0,0,2.2-2.37,12.12,12.12,0,0,1,2.71-2.87,9.62,9.62,0,0,1,3.45-1.37,9.37,9.37,0,0,0,2.63-.88,8.31,8.31,0,0,0,2-1.74c0.55-.72,2.16-2.45,3.57-3.86a24.23,24.23,0,0,0,3-3.58,5.57,5.57,0,0,0,.3-0.5,19.06,19.06,0,0,0,1.3-4A5.55,5.55,0,0,0,161.26,129.31Z" fill="#231f20"/><path d="M150.56,82.73a50,50,0,0,0-5-3.72c-0.5-.27-1.22-0.6-1.91-0.9,1.82,1.46,3.54,2.76,4.3,3.23S149.62,82.28,150.56,82.73Z" fill="#231f20"/><path d="M56.3,104.36c0.53-.2,1-0.4,1.44-0.57a8.74,8.74,0,0,1,2.69-.72,2.42,2.42,0,0,1,1.67.66c0.17,0.19.38,0.43,0.6,0.66l0.69,0,0.62-.08,0.81-.13,1.07-.2a3.66,3.66,0,0,1,.52-1.17,1.6,1.6,0,0,1,1.11-.52,17.27,17.27,0,0,1,1.93.27c0.39-.24.79-0.51,1-0.69l0.14-.11a10,10,0,0,0,1-.86,8.17,8.17,0,0,0,.93-1.35c0.27-.49.73-1.47,1-2.18a3.66,3.66,0,0,1,1.23-1.64,1.69,1.69,0,0,1,1.53.27,19.14,19.14,0,0,0,1.85,1.16l0.67,0.34L80,98a6,6,0,0,1-.18-1.11,7.15,7.15,0,0,1,.38-2.31,5,5,0,0,0,.26-2.15,4.19,4.19,0,0,0-.94-1.81,2.9,2.9,0,0,0-1.78-.83,5,5,0,0,0-2.25.78,7.35,7.35,0,0,1-2.45,1,5.57,5.57,0,0,1-2.37-.3c-0.64-.26-1.62-0.71-2.17-1A19.14,19.14,0,0,1,66.61,89a1.69,1.69,0,0,0-1.53-.27,3.66,3.66,0,0,0-1.23,1.64c-0.3.71-.76,1.7-1,2.18a8.17,8.17,0,0,1-.93,1.35,10.21,10.21,0,0,1-1.13,1c-0.37.27-1.1,0.74-1.6,1a11.69,11.69,0,0,1-2.29.9,26.84,26.84,0,0,1-3.2.58c-1,.12-5.2.1-9.31,0-2.21-.07-4.45-0.12-6.21-0.12-0.06.32-.12,0.66-0.17,1-0.11.65-.22,1.31-0.31,1.95-0.29,2-.13,3.9.35,4.29a4,4,0,0,0,2.81.34c1.07-.21,2.8-0.47,3.85-0.58s4.66-.08,8.47,0l0.92,0Z" fill="#231f20"/><path d="M174.87,111.65a10.71,10.71,0,0,0-1-3.28,20.54,20.54,0,0,0-2.51-3.46,21.07,21.07,0,0,1-2.67-3.82,20.24,20.24,0,0,1-1.51-4.34,10.37,10.37,0,0,0-1.8-3.9,10.67,10.67,0,0,0-3.55-2.49,33.4,33.4,0,0,1-3.68-1.81l-0.42-.25c-0.26-.16-0.62-0.41-1.06-0.73a10.19,10.19,0,0,1,.79,2.25,20.24,20.24,0,0,0,1.51,4.34A21.07,21.07,0,0,0,161.6,98a20.54,20.54,0,0,1,2.51,3.46,10.71,10.71,0,0,1,1,3.28c0.08,0.88.15,2.31,0.14,3.18s-0.24,3.37-.51,5.54-0.9,4.3-1.41,4.73a32.33,32.33,0,0,1-6.15,2.48,35.6,35.6,0,0,1-7,1.7,13.43,13.43,0,0,1-3.63-.63,25.85,25.85,0,0,0-3.63-.92,23.66,23.66,0,0,0-3.63-.24,33.52,33.52,0,0,0-3.63.34,35.73,35.73,0,0,0-3.63.82,16.74,16.74,0,0,1-3.63.57,16.49,16.49,0,0,1-3.63-.42,16.08,16.08,0,0,0-3.63-.41,16.44,16.44,0,0,0-3.63.6,11.58,11.58,0,0,1-3.66.4,13.27,13.27,0,0,1-3.71-1,4,4,0,0,0-2.64-.45c-0.42.23-.55,2-0.27,3.85s0.51,4.19.53,5.13a7.87,7.87,0,0,0,.74,3,7.66,7.66,0,0,0,2.11,2.26,6.85,6.85,0,0,0,3,1,9.19,9.19,0,0,0,3.41-.75l0.35-.14c0-.32-0.06-0.66-0.1-1-0.09-.84-0.2-1.74-0.32-2.57-0.28-1.88-.15-3.62.27-3.85a4,4,0,0,1,2.64.45,13.27,13.27,0,0,0,3.71,1,11.58,11.58,0,0,0,3.66-.4,16.44,16.44,0,0,1,3.63-.6,15.77,15.77,0,0,1,2.61.21c0.37,0.06.73,0.13,1,.2a16.13,16.13,0,0,0,2.33.37,12.47,12.47,0,0,0,1.3.06,16.74,16.74,0,0,0,3.63-.57,35.73,35.73,0,0,1,3.63-.82,33.52,33.52,0,0,1,3.63-.34,23.66,23.66,0,0,1,3.63.24c0.47,0.07,1.08.21,1.7,0.36s1.4,0.37,1.93.56l0.23,0.07c3-.48,5.2-0.59,5.49-0.2a1.57,1.57,0,0,1,.19.39l1-.23c1.18-.3,2.51-0.67,3.8-1.09a32.33,32.33,0,0,0,6.15-2.48c0.5-.43,1.13-2.56,1.41-4.73s0.5-4.67.51-5.54S175,112.52,174.87,111.65Z" fill="#231f20"/><path d="M160.56,136.81a25.27,25.27,0,0,1-3.09,3.75c-1.39,1.38-3,3.07-3.49,3.76a9.26,9.26,0,0,1-2.28,2,10.31,10.31,0,0,1-3,1,8.6,8.6,0,0,0-3,1.2,11.16,11.16,0,0,0-2.44,2.6,11.77,11.77,0,0,1-2.45,2.64,9.49,9.49,0,0,1-3.07,1.33c-0.93.19-2.52,0.42-3.54,0.51s-3.64.1-5.83,0-4.86-.29-5.94-0.45a26.45,26.45,0,0,0-4.1-.22,34.15,34.15,0,0,0-4.44.53,17.06,17.06,0,0,1-4.36.22c-1.13-.13-4.83-1.78-8.22-3.67s-6.6-3.62-7.13-3.85a6.65,6.65,0,0,0-2.58-.28c-0.88.07-5.67,1.34-10.63,2.81s-11,3.07-13.36,3.55-8.54,1.22-13.69,1.63c-3.94.32-7.74,0.49-9.69,0.45,0.4,0.4.73,0.74,1,1l0.22,0.26a27.4,27.4,0,0,0,2.07,2.25,29,29,0,0,0,2.39,2,10,10,0,0,0,2.83,1.34c0.85,0.22,5.77.06,10.92-.36S75,161.68,77.33,161.2s8.39-2.08,13.36-3.55,9.75-2.74,10.63-2.81a6.65,6.65,0,0,1,2.58.28c0.53,0.23,3.74,2,7.13,3.85s7.08,3.54,8.22,3.67a17.06,17.06,0,0,0,4.36-.22,34.15,34.15,0,0,1,4.44-.53,26.45,26.45,0,0,1,4.1.22c1.08,0.16,3.76.37,5.94,0.45s4.81,0.08,5.83,0,2.61-.32,3.54-0.51a9.49,9.49,0,0,0,3.07-1.33,11.77,11.77,0,0,0,2.45-2.64,11.16,11.16,0,0,1,2.44-2.6,8.6,8.6,0,0,1,3-1.2,10.31,10.31,0,0,0,3-1,9.26,9.26,0,0,0,2.28-2c0.53-.69,2.1-2.38,3.49-3.76a22,22,0,0,0,3.44-4.35,20.05,20.05,0,0,0,1.39-4.24,5.32,5.32,0,0,0-.31-3.44c-0.42-.56-4.8-0.08-9.82,1l-0.37.08Z" fill="#231f20"/></svg>