<svg xmlns="http://www.w3.org/2000/svg" width="200" height="200" viewBox="0 0 200 200"><title>_</title><path d="M103.12 162.57a.7.7 0 0 0-.31-.05c-.19 0-.21 0 0 0a1 1 0 0 0 .31.05zM95.41 161.36l-.33.43-.25.32a8.22 8.22 0 0 0-.69 1 1.25 1.25 0 0 0 .21.15 1.19 1.19 0 0 0 .6.11 2.32 2.32 0 0 0 .71-.6 4.15 4.15 0 0 1 1.62-1.3 1.82 1.82 0 0 1 .32-.08 1 1 0 0 0-.42-.14 11.38 11.38 0 0 0-1.77.11z" fill="none"/><path d="M106.66 97.73a4.76 4.76 0 0 1 1 1.38 3.88 3.88 0 0 1 .32 1.6 2.55 2.55 0 0 1-.12.59c.51 0 1.29.06 2.08 0s1.61 0 2.57 0c.58 0 1.12 0 1.56.06 1.14.07 3 .28 4.12.47a31.23 31.23 0 0 0 3.87.33 35 35 0 0 0 3.9-.26 35.11 35.11 0 0 1 4.23-.26 32.63 32.63 0 0 1 4.24.41 3.58 3.58 0 0 0 1.75-.09 3.39 3.39 0 0 0-.23-1.68 36.84 36.84 0 0 1-1.23-4.07A39.19 39.19 0 0 1 134 92a9.63 9.63 0 0 0-1-3.27l-.12-.16a16.83 16.83 0 0 0-2.65-2.25c-.81-.59-1.68-1.17-2.49-1.67-1.47-.89-3-1.91-4.28-2.78a20.86 20.86 0 0 1-1.92-1.45 29.17 29.17 0 0 1-2.69-2.95 7.68 7.68 0 0 0-2.45-2 7.87 7.87 0 0 0-3.13-.4 13.22 13.22 0 0 1-4.27-.36 15 15 0 0 1-4-2 13.17 13.17 0 0 0-3.35-1.68 11.49 11.49 0 0 0-3.54-.32c-1.09.11-2.74.34-3.7.52s-2.38.54-3.19.8a13.92 13.92 0 0 1-3.41.56 15.7 15.7 0 0 1-3.51-.45 15.65 15.65 0 0 0-3-.44 14.08 14.08 0 0 0-2.92.31c-.82.2-3.26 1-5.33 1.74a35.64 35.64 0 0 0-5.49 2.48 25.58 25.58 0 0 0-3.26 2.6A42 42 0 0 0 61.55 82a39.13 39.13 0 0 0-2.38 3.41c-.6 1-1.48 2.61-2 3.62s-1.21 2.67-1.59 3.7-1.09 2.76-1.58 3.68a31 31 0 0 1-1.79 3A12 12 0 0 0 51 102a40.73 40.73 0 0 0-.8 5.87 55.64 55.64 0 0 0-.23 6 15.25 15.25 0 0 0 .58 2.76 15.56 15.56 0 0 1 .72 6.47 17.23 17.23 0 0 0 0 2.85c.07.68.75 3.54 1.64 6.7a26.44 26.44 0 0 0 2.6 6.54 10.67 10.67 0 0 0 3 2.23c1.14.54 3.69 1.94 5.67 3.11s4.33 2.46 5.3 2.9a35.53 35.53 0 0 0 3.62 1.38 29.07 29.07 0 0 1 3.69 1.46 21 21 0 0 1 3.07 1.94 8.24 8.24 0 0 0 2.37 1.23 7.78 7.78 0 0 0 2.59.12 14.52 14.52 0 0 1 2.76-.17 2.2 2.2 0 0 1 1.94 2 11.55 11.55 0 0 1-.12 2.42 8.69 8.69 0 0 1-.55 1.82 5.39 5.39 0 0 1-.29.59 6.71 6.71 0 0 1-1.79 1.78 10.72 10.72 0 0 1-2.58 1.17 3.4 3.4 0 0 0-1.41.83 2.3 2.3 0 0 0-.23 1.31 11 11 0 0 0 .29 1.37 1.21 1.21 0 0 1 1 1.13 4.91 4.91 0 0 1-.28 1.44 9 9 0 0 0-.31 1.16v.11a8.68 8.68 0 0 1 2-.53 29.77 29.77 0 0 1 3-.2 23 23 0 0 1 3.23.2h.1a11.78 11.78 0 0 1 2.49.72 9.35 9.35 0 0 1 1.88 1.29 7.21 7.21 0 0 1 1.36 1.69 4.28 4.28 0 0 1 .5 2.09 4.19 4.19 0 0 1-.81 2 6.11 6.11 0 0 0-.41.62 5.09 5.09 0 0 0-.31.59 5 5 0 0 0-.29 1.19 3.66 3.66 0 0 1-.53 1.65 2.06 2.06 0 0 1-1.57.79 7 7 0 0 1-1.16-.12 6.88 6.88 0 0 1-1.12-.34 2.18 2.18 0 0 0-.54-.13 1.76 1.76 0 0 0-.43.07 3.45 3.45 0 0 1-1.5.14 8.73 8.73 0 0 1-1.67-.45 5.31 5.31 0 0 0-1.39-.27 6 6 0 0 0-1.53.21 11 11 0 0 1-2.06.35 9.33 9.33 0 0 1-2-.16 9.21 9.21 0 0 1-1.71-.57 6.38 6.38 0 0 1-1.39-.93 2.65 2.65 0 0 0-.65-.42 1.8 1.8 0 0 0-.53-.06 10.21 10.21 0 0 0 .12 1.51 5.46 5.46 0 0 1-.14 2.9c.75.12 1.8.32 2.45.49s1.86.55 2.54.81a10.88 10.88 0 0 0 2.17.53 10.5 10.5 0 0 0 1.53 0c.27 0 .53 0 .74-.06a11.28 11.28 0 0 1 1.45-.08 10.91 10.91 0 0 1 1.38.08h.17a13.47 13.47 0 0 1 2.59.73l.44.15a12 12 0 0 0 1.93.48 53.85 53.85 0 0 0 6-.08c.72 0 1.48-.11 2.26-.2a20.14 20.14 0 0 0 2.51-.45 3.2 3.2 0 0 0 .7-.24 17.89 17.89 0 0 0 2.74-4.63 43 43 0 0 0 2-5.16 6.73 6.73 0 0 0 0-1.87c-.1-.62-.22-1.67-.26-2.35s-.05-1.75 0-2.5a3.26 3.26 0 0 0-.37-1.59 3.14 3.14 0 0 0-1.31-.84 18.85 18.85 0 0 1-2.51-1l-.26-.14a18.54 18.54 0 0 1-2-1.28 9.9 9.9 0 0 0-1.52-.95 1.41 1.41 0 0 0-.59-.13 3.14 3.14 0 0 1-1.4 0 5 5 0 0 1-1.38-.64H97.9a3.11 3.11 0 0 0-.66.62 4 4 0 0 1-1.75 1.3 3.07 3.07 0 0 1-2.11-.28 2.71 2.71 0 0 1-1.31-1.49c-.06-.25-.21-.85 1.15-2.65l.3-.38a7.93 7.93 0 0 0 1.25-2 5.2 5.2 0 0 0-.15-1.4 4.1 4.1 0 0 1-.28-1.44 1.16 1.16 0 0 1 1.44-1c.12 0 1-.09 2.17-.26s3.9-.38 6.17-.49a26 26 0 0 0 5.56-.79 12.28 12.28 0 0 0 3-1.76 19.07 19.07 0 0 1 3.42-2.22 18.11 18.11 0 0 1 3.82-1.24 19.53 19.53 0 0 0 3.34-1 18.33 18.33 0 0 0 3-1.68c.78-.56 2-1.6 2.73-2.26s1.83-1.84 2.45-2.59a12.16 12.16 0 0 0 1.7-2.92 15.74 15.74 0 0 0 .76-3.65 27.6 27.6 0 0 1 .63-4.11l.1-.36a18.09 18.09 0 0 1 1.22-3.08 2.42 2.42 0 0 0 .2-1.71 5.19 5.19 0 0 0-2-1.66 8.49 8.49 0 0 0-3.32-.78 10.1 10.1 0 0 0-3.53 1 21.82 21.82 0 0 1-4.28 1.64 18.35 18.35 0 0 1-4.32.42 26 26 0 0 1-4.29-.64 31.69 31.69 0 0 1-4.35-1.53 5.06 5.06 0 0 0-2.32-.53 2.49 2.49 0 0 0-.18 1.15 16 16 0 0 1-.08 3.45 9.71 9.71 0 0 1-1 2.85 5.55 5.55 0 0 1-2.12 2 6.83 6.83 0 0 1-3 .45 7.07 7.07 0 0 0-2.31.27A7.51 7.51 0 0 0 97 134a8.47 8.47 0 0 1-2.26 1.36 5.76 5.76 0 0 1-.68.24 10.52 10.52 0 0 1-3.55.16 8.5 8.5 0 0 1-3.38-1.33 7.83 7.83 0 0 1-2.13-2.88c-.37-.88-1.07-3-1.56-4.76s-1.54-4.68-2.36-6.68a29.49 29.49 0 0 1-1.81-5.85c-.16-1.35.51-4.93 1.21-7.61a68.22 68.22 0 0 1 2.17-7.05 24.37 24.37 0 0 1 1.72-3 10.51 10.51 0 0 1 2.57-2.5 12.13 12.13 0 0 1 3.46-1.37 23.58 23.58 0 0 0 2.86-.79 7.67 7.67 0 0 0 1.59-.94 4.7 4.7 0 0 1 1.78-.9 3 3 0 0 1 1.9.31 9.08 9.08 0 0 1 1.22.84 8.48 8.48 0 0 1 1 1 5.89 5.89 0 0 0 .69.72 5 5 0 0 0 .77.5 4.08 4.08 0 0 1 1.17.92 4.19 4.19 0 0 1 .62 1.41 1.69 1.69 0 0 0 .33.54 3.22 3.22 0 0 0 .8.48 5.82 5.82 0 0 1 1.26.72z" fill="#231f20"/><path d="M95.72 177.86a7.28 7.28 0 0 1 .48-.73 3.24 3.24 0 0 0 .6-1.45 3.33 3.33 0 0 0-.38-1.54 6.27 6.27 0 0 0-1.14-1.42 8.33 8.33 0 0 0-1.69-1.07 10.69 10.69 0 0 0-2.19-.65 3.7 3.7 0 0 0-.13 1 2.76 2.76 0 0 0 0 .4 9.73 9.73 0 0 0 .42 1.79.54.54 0 0 0 .53.44.21.21 0 0 1 .31.19 4 4 0 0 1-.23 1.06 10 10 0 0 0-.35 1.32 3.8 3.8 0 0 0 0 1 .57.57 0 0 0 .41.46 2.13 2.13 0 0 0 1-.25 6.14 6.14 0 0 1 1.23-.37l.55-.1zM116.81 109.16a16.29 16.29 0 0 0 2.87.11c1.11 0 2.93 0 4 .06s2.92.28 4 .46a32.11 32.11 0 0 0 4 .35 32.59 32.59 0 0 0 4-.27 31 31 0 0 1 4.07-.25 31.53 31.53 0 0 1 4.08.4 3.43 3.43 0 0 0 2.7-.41 3.28 3.28 0 0 0-.07-2.69 35.86 35.86 0 0 1-1.19-3.93 38 38 0 0 1-.66-4.14 10.52 10.52 0 0 0-1.12-3.68c-.51-.86-3-2.85-5.61-4.42-.89-.55-1.79-1.12-2.63-1.67-.61-.4-1.19-.79-1.69-1.14a2.57 2.57 0 0 1 .22.29 10.52 10.52 0 0 1 1.22 3.66 38 38 0 0 0 .7 4.11 35.86 35.86 0 0 0 1.19 3.93 3.28 3.28 0 0 1 .07 2.69 3.43 3.43 0 0 1-2.7.41 31.53 31.53 0 0 0-4.08-.4 31 31 0 0 0-4.07.25 32.59 32.59 0 0 1-4 .27 32.11 32.11 0 0 1-4-.35c-1.1-.18-2.91-.38-4-.46-.43 0-1 0-1.52-.06a3.26 3.26 0 0 1 .31.69 2 2 0 0 0 .14.33 2.62 2.62 0 0 0 .45.65 4.11 4.11 0 0 0 1.13.7 4.64 4.64 0 0 1 1.18.72 3.78 3.78 0 0 1 .75 1 2.87 2.87 0 0 1 .23 1.13 2.05 2.05 0 0 1-.38 1c-.27.28-.05.56.41.66zM88.38 157.58a10.58 10.58 0 0 0 .11-2.17 1.2 1.2 0 0 0-1-1.07 13.53 13.53 0 0 0-2.52.16 8.66 8.66 0 0 1-3-.15 9.17 9.17 0 0 1-2.76-1.35 20.37 20.37 0 0 0-2.9-1.83 27.86 27.86 0 0 0-3.54-1.4 36.15 36.15 0 0 1-3.77-1.48c-1-.46-3.39-1.77-5.35-2.93a7.24 7.24 0 0 0 .77 1.35 6.58 6.58 0 0 0 .53.55 12 12 0 0 0 2.78 2c1.11.53 3.63 1.91 5.59 3.07s4.39 2.49 5.39 2.95a36.15 36.15 0 0 0 3.75 1.43 27.86 27.86 0 0 1 3.54 1.4c.3.15.65.35 1 .57l.86.54a7.73 7.73 0 0 0 .52-1.64zM124.09 81c1.18.82 2.72 1.83 4.23 2.74.89.54 1.77 1.13 2.56 1.71-.54-.58-1.08-1.2-1.47-1.7a8.65 8.65 0 0 0-1.56-1.48 7.24 7.24 0 0 0-1.06-.68l-.23-.11a8.13 8.13 0 0 0-2.47-.48zM105.82 98.34a4.83 4.83 0 0 0-1-.59 4.11 4.11 0 0 1-1.13-.7 2.63 2.63 0 0 1-.59-1 3.19 3.19 0 0 0-.49-1 3.1 3.1 0 0 0-.84-.66 6 6 0 0 1-1-.63A7 7 0 0 1 100 93a7.49 7.49 0 0 0-.87-.9 8.13 8.13 0 0 0-1.13-.79 2.08 2.08 0 0 0-1.21-.2 3.73 3.73 0 0 0-1.33.69 8.47 8.47 0 0 1-1.93 1 24.42 24.42 0 0 1-3 .84 11.18 11.18 0 0 0-3.12 1.23 9.52 9.52 0 0 0-2.28 2.22 23.26 23.26 0 0 0-1.63 2.9 67.5 67.5 0 0 0-2.11 6.89 30.1 30.1 0 0 0-1.19 7.24 28.57 28.57 0 0 0 1.8 5.61c.84 2 1.92 5.08 2.4 6.79s1.17 3.79 1.52 4.64a6.94 6.94 0 0 0 1.84 2.44 7.47 7.47 0 0 0 2.92 1.14 9.57 9.57 0 0 0 3.15-.13 4.91 4.91 0 0 0 .56-.2c-.1-.32-.19-.64-.28-.94-.49-1.71-1.56-4.74-2.39-6.76a28.57 28.57 0 0 1-1.74-5.58 30.1 30.1 0 0 1 1.19-7.24 67.5 67.5 0 0 1 2.05-6.89 23.26 23.26 0 0 1 1.63-2.9 9.52 9.52 0 0 1 2.28-2.22 11.18 11.18 0 0 1 3.12-1.23 24.42 24.42 0 0 0 3-.84 9.33 9.33 0 0 0 1.66-.85l.27-.19a4 4 0 0 1 .64-.43zM110.51 170.05v2.41c0 .63.15 1.66.25 2.24a7.74 7.74 0 0 1 0 2.21 42.08 42.08 0 0 1-2.11 5.4c-1 2.34-2.44 4.61-3.1 5.05a3.71 3.71 0 0 1-1 .37 1.61 1.61 0 0 1-.19.41 1.06 1.06 0 0 1-.77.38 4.86 4.86 0 0 1-1.69-.31c-.75.09-1.54.17-2.33.21a54 54 0 0 1-6.14.07 12.8 12.8 0 0 1-2.11-.52 7.07 7.07 0 0 1-.91-.12 8.25 8.25 0 0 1-1.49-.49 4.54 4.54 0 0 1-.41-.23h-.19a11.4 11.4 0 0 0-2.55 0c-.24 0-.53.05-.83.07 0 .29 0 .64.08 1v.34a5.2 5.2 0 0 1 0 2.23 2.21 2.21 0 0 1-.89.64c-.34.13-.46.33-.26.45a6.72 6.72 0 0 0 1.66.39c.72.1 1.87.33 2.55.5s1.78.52 2.43.77a11.79 11.79 0 0 0 2.42.59 12.26 12.26 0 0 0 2.52 0A11.4 11.4 0 0 1 98 194a12.11 12.11 0 0 1 2.51.69 12.59 12.59 0 0 0 2.61.7 54 54 0 0 0 6.14-.07c2.63-.14 5.31-.62 6-1.06s2-2.72 3.1-5.05a42.08 42.08 0 0 0 2.11-5.4 7.74 7.74 0 0 0 0-2.21c-.1-.59-.21-1.59-.25-2.24s-.05-1.76 0-2.47a3.09 3.09 0 0 0-2.38-3.35 18 18 0 0 1-2.35-.95 17.28 17.28 0 0 1-2.12-1.32 10.71 10.71 0 0 0-1.73-1.07h-.13a2.24 2.24 0 0 0-1-.15zM135.58 129.72l-.09.33a26.48 26.48 0 0 0-.61 3.93 16.69 16.69 0 0 1-.82 3.93 13.19 13.19 0 0 1-1.87 3.21c-.66.78-1.8 2-2.54 2.67a36.56 36.56 0 0 1-2.83 2.33 19.34 19.34 0 0 1-3.16 1.79 20.45 20.45 0 0 1-3.55 1.06 17.18 17.18 0 0 0-3.57 1.16 18.28 18.28 0 0 0-3.21 2.09 13.29 13.29 0 0 1-3.3 1.93 26.5 26.5 0 0 1-5.86.85c-2.24.11-5 .32-6.08.48s-2.17.28-2.38.26a.53.53 0 0 0-.38.06s.11.53.26 1.08a6 6 0 0 1 .17 1.8 7.51 7.51 0 0 1-1.46 2.48l-.28.35a6.25 6.25 0 0 0 .63-.06l.75-.09a11.38 11.38 0 0 1 1.77-.07 1 1 0 0 1 .42.14 1.21 1.21 0 0 1 .61.92v.08a1.38 1.38 0 0 1 .52.19 4 4 0 0 0 1.05.49 2.26 2.26 0 0 0 1 0 2.24 2.24 0 0 1 1.19.18 10.71 10.71 0 0 1 1.73 1.07 17.44 17.44 0 0 0 1.82 1.16 5.79 5.79 0 0 0-.08-1.2c0-.18-.06-.35-.1-.5-.15-.55-.26-1-.26-1.08a.53.53 0 0 1 .38-.06c.21 0 1.28-.11 2.38-.26s3.84-.37 6.08-.48a26.5 26.5 0 0 0 5.86-.85 13.29 13.29 0 0 0 3.3-1.93 18.28 18.28 0 0 1 3.21-2.09 17.18 17.18 0 0 1 3.57-1.16 20.45 20.45 0 0 0 3.55-1.06 19.34 19.34 0 0 0 3.16-1.79 36.56 36.56 0 0 0 2.83-2.33c.74-.69 1.88-1.89 2.54-2.67a13.19 13.19 0 0 0 1.87-3.21 16.69 16.69 0 0 0 .82-3.93 26.48 26.48 0 0 1 .61-3.93 17.06 17.06 0 0 1 1.23-3.21 3.34 3.34 0 0 0 .22-2.61 6 6 0 0 0-2.4-2.13 9.34 9.34 0 0 0-3.8-.89 10.93 10.93 0 0 0-3.61 1l-.35.17c-.3.11-.61.25-.94.4zm-32.78 32.8a.7.7 0 0 1 .31.05 1 1 0 0 1-.35 0c-.16-.05-.14-.06.05-.05zm-.72-.08a.57.57 0 0 1-.18-.06h.12c.12 0 .14.07.07.06z" fill="#231f20"/></svg>