<svg xmlns="http://www.w3.org/2000/svg" width="91.4" height="200" viewBox="0 0 91.4 200"><title>_</title><path d="M49.17 164.25a.57.57 0 0 0 .18.06h-.06c-.06 0-.16-.08-.12-.06zM50 164.42a1 1 0 0 0 .35 0 .7.7 0 0 0-.31-.05c-.16.01-.18.03-.04.05z" fill="none"/><path d="M68.53 82.66a29.72 29.72 0 0 1-2.75-3 7.2 7.2 0 0 0-2.25-1.81 7.3 7.3 0 0 0-2.88-.36 13.76 13.76 0 0 1-4.45-.37A15.51 15.51 0 0 1 52.07 75a12.77 12.77 0 0 0-3.19-1.6 11 11 0 0 0-3.35-.3c-1.07.1-2.71.34-3.65.52s-2.34.53-3.13.79a14.53 14.53 0 0 1-3.55.59 17.26 17.26 0 0 1-3.65-.47 15.3 15.3 0 0 0-2.9-.42 13.53 13.53 0 0 0-2.8.3c-.8.19-3.22 1-5.28 1.72a35.06 35.06 0 0 0-5.39 2.43A25 25 0 0 0 12 81.14a41.35 41.35 0 0 0-2.81 3.1 38.25 38.25 0 0 0-2.34 3.36c-.59 1-1.46 2.58-2 3.58s-1.19 2.64-1.57 3.66-1.13 2.75-1.6 3.68a31.7 31.7 0 0 1-1.83 3.11A11.54 11.54 0 0 0-1.28 104a40.79 40.79 0 0 0-.77 5.76 56.39 56.39 0 0 0-.23 5.91 14.9 14.9 0 0 0 .56 2.65A19.19 19.19 0 0 1-1 121.6a19.34 19.34 0 0 1 0 3.4 16.91 16.91 0 0 0 0 2.75c.07.65.75 3.52 1.63 6.62a26.34 26.34 0 0 0 2.51 6.35 10.23 10.23 0 0 0 2.79 2.1c1.16.55 3.72 2 5.71 3.13s4.31 2.44 5.25 2.88a34.86 34.86 0 0 0 3.56 1.36 29.73 29.73 0 0 1 3.77 1.49 21.52 21.52 0 0 1 3.16 2 7.76 7.76 0 0 0 2.19 1.14 7.3 7.3 0 0 0 2.38.11 15 15 0 0 1 2.88-.17 2.71 2.71 0 0 1 2.4 2.43 11.92 11.92 0 0 1-.13 2.54 9.25 9.25 0 0 1-.58 1.93 5.88 5.88 0 0 1-.32.65 7.18 7.18 0 0 1-1.91 2 11.17 11.17 0 0 1-2.73 1.24 3.13 3.13 0 0 0-1.15.64 2 2 0 0 0-.13.94c.06.38.14.76.21 1l.25.13a1.71 1.71 0 0 1 .8 1.37 5.16 5.16 0 0 1-.31 1.63l-.11.35a10.62 10.62 0 0 1 1.25-.26 30.44 30.44 0 0 1 3.06-.21 21.55 21.55 0 0 1 3.31.21h.11a12.25 12.25 0 0 1 2.61.76 9.76 9.76 0 0 1 2 1.31A7.66 7.66 0 0 1 45 175.3a4.76 4.76 0 0 1 .56 2.37 4.67 4.67 0 0 1-.91 2.26 5.65 5.65 0 0 0-.37.57 4.58 4.58 0 0 0-.28.5 4.51 4.51 0 0 0-.26 1 4.13 4.13 0 0 1-.62 1.9 2.55 2.55 0 0 1-2 1 6.51 6.51 0 0 1-2.48-.51 1.89 1.89 0 0 0-.37-.09h-.23a3.91 3.91 0 0 1-1.75.17 9.14 9.14 0 0 1-1.78-.48 4.82 4.82 0 0 0-1.22-.24 6.13 6.13 0 0 0-1.38.19 11.36 11.36 0 0 1-2.17.37 10 10 0 0 1-2.12-.17 9.65 9.65 0 0 1-1.82-.6 6.84 6.84 0 0 1-1.52-1 2.09 2.09 0 0 0-.31-.23c0 .22 0 .49.09.81a7.55 7.55 0 0 1 0 2.57c.67.12 1.4.27 1.9.4.74.19 1.91.56 2.6.83a10.43 10.43 0 0 0 2 .5 10.41 10.41 0 0 0 1.45 0c.25 0 .5 0 .7-.05a11.65 11.65 0 0 1 1.51-.09 11.3 11.3 0 0 1 1.45.08h.19a14 14 0 0 1 2.69.76l.4.15a11.48 11.48 0 0 0 1.83.46 54 54 0 0 0 5.86-.08c.72 0 1.46-.11 2.22-.2a19.57 19.57 0 0 0 2.45-.44A3.41 3.41 0 0 0 52 188a20.07 20.07 0 0 0 2.53-4.4 44.42 44.42 0 0 0 2-5 6.22 6.22 0 0 0 0-1.7c-.11-.63-.23-1.71-.27-2.41s-.05-1.78 0-2.54a2.9 2.9 0 0 0-.26-1.35 2.76 2.76 0 0 0-1-.66 19.41 19.41 0 0 1-2.58-1l-.28-.15a18.84 18.84 0 0 1-2.14-1.35 9.36 9.36 0 0 0-1.42-.89 1.22 1.22 0 0 0-.34-.09 3.42 3.42 0 0 1-1.56 0 5.42 5.42 0 0 1-1.42-.63 2.62 2.62 0 0 0-.37.38 4.49 4.49 0 0 1-2 1.48 3.56 3.56 0 0 1-2.49-.32 3.21 3.21 0 0 1-1.56-1.81c-.13-.53-.09-1.32 1.24-3.07l.31-.4a8.15 8.15 0 0 0 1.15-1.8 5.63 5.63 0 0 0-.15-1.15 4.35 4.35 0 0 1-.3-1.62 1.68 1.68 0 0 1 2-1.4c.05 0 .84-.07 2.07-.25s3.93-.38 6.22-.49a25.83 25.83 0 0 0 5.41-.76 11.86 11.86 0 0 0 2.85-1.67 19.68 19.68 0 0 1 3.53-2.29 18.67 18.67 0 0 1 3.94-1.28 19 19 0 0 0 3.24-1 17.73 17.73 0 0 0 2.87-1.63c.76-.55 2-1.57 2.69-2.22s1.79-1.81 2.41-2.54a11.78 11.78 0 0 0 1.61-2.77 15.42 15.42 0 0 0 .73-3.51 28.25 28.25 0 0 1 .65-4.2l.1-.37a18.65 18.65 0 0 1 1.25-3.14 2.05 2.05 0 0 0 .18-1.27 4.92 4.92 0 0 0-1.72-1.42 7.83 7.83 0 0 0-3.08-.72 9.64 9.64 0 0 0-3.31 1 22.44 22.44 0 0 1-4.39 1.69 18.78 18.78 0 0 1-4.46.44 26.74 26.74 0 0 1-4.38-.72 32.32 32.32 0 0 1-4.43-1.56 5.82 5.82 0 0 0-1.74-.49 1.88 1.88 0 0 0 0 .61 16.57 16.57 0 0 1-.08 3.58 10.13 10.13 0 0 1-1.06 3 6 6 0 0 1-2.34 2.16 7.22 7.22 0 0 1-3.23.5 6.65 6.65 0 0 0-2.11.25 7 7 0 0 0-1.88 1.14 9 9 0 0 1-2.41 1.45 6.23 6.23 0 0 1-.74.26 10.94 10.94 0 0 1-3.74.17 8.93 8.93 0 0 1-3.61-1.42 8.26 8.26 0 0 1-2.32-3.06c-.37-.89-1.09-3.05-1.58-4.81s-1.53-4.64-2.35-6.62a30 30 0 0 1-1.85-6c-.16-1.43.49-5 1.23-7.79a67.55 67.55 0 0 1 2.19-7.13 25 25 0 0 1 1.76-3.12 10.93 10.93 0 0 1 2.71-2.63 12.53 12.53 0 0 1 3.63-1.43 22.9 22.9 0 0 0 2.78-.77 7.33 7.33 0 0 0 1.51-.8 5.19 5.19 0 0 1 2-1 3.55 3.55 0 0 1 2.24.37 9.55 9.55 0 0 1 1.29.9 8.88 8.88 0 0 1 1.03 1.14 5.49 5.49 0 0 0 .62.64 4.42 4.42 0 0 0 .67.44A4.59 4.59 0 0 1 51 96a4.7 4.7 0 0 1 .78 1.5 1.36 1.36 0 0 0 .19.32 2.86 2.86 0 0 0 .63.38 6.23 6.23 0 0 1 1.4.8l.26.21a5.25 5.25 0 0 1 1.12 1.55 4.39 4.39 0 0 1 .36 1.84v.08h4.05c.58 0 1.14 0 1.58.06 1.15.07 3 .29 4.17.47a30.74 30.74 0 0 0 3.8.33 34.83 34.83 0 0 0 3.82-.26 36.1 36.1 0 0 1 4.3-.27 33.26 33.26 0 0 1 4.33.42 3.63 3.63 0 0 0 1.19 0 3.44 3.44 0 0 0-.22-1.11 37.41 37.41 0 0 1-1.25-4.13 39.81 39.81 0 0 1-.69-4.34 9.15 9.15 0 0 0-.91-3.06l-.08-.09a16.62 16.62 0 0 0-2.56-2.17c-.8-.58-1.65-1.15-2.46-1.64-1.47-.9-3-1.92-4.3-2.79a21.37 21.37 0 0 1-1.98-1.44z"/><path d="M39.2 179.09a3.8 3.8 0 0 0 0 1 .57.57 0 0 0 .41.46 2.13 2.13 0 0 0 1-.25 6.14 6.14 0 0 1 1.23-.37l.55-.1.67-.07a7.28 7.28 0 0 1 .48-.73 3.24 3.24 0 0 0 .6-1.45 3.33 3.33 0 0 0-.38-1.54 6.26 6.26 0 0 0-1.14-1.42 8.33 8.33 0 0 0-1.69-1.07 10.67 10.67 0 0 0-2.21-.64 3.7 3.7 0 0 0-.13 1 2.76 2.76 0 0 0 0 .4 9.72 9.72 0 0 0 .42 1.79.54.54 0 0 0 .53.44.21.21 0 0 1 .31.19 4 4 0 0 1-.23 1.06 10 10 0 0 0-.42 1.3zM92.67 104.84a38 38 0 0 1-.67-4.14 10.52 10.52 0 0 0-1.1-3.7c-.51-.86-3-2.85-5.61-4.42-.89-.55-1.79-1.12-2.63-1.67-.61-.4-1.19-.79-1.69-1.14a2.57 2.57 0 0 1 .22.29 10.52 10.52 0 0 1 1.12 3.68A38 38 0 0 0 83 97.9a35.87 35.87 0 0 0 1.19 3.93 3.28 3.28 0 0 1 .07 2.69 3.43 3.43 0 0 1-2.7.41 31.49 31.49 0 0 0-4.08-.4 31 31 0 0 0-4.07.25 32.59 32.59 0 0 1-4 .27 32.11 32.11 0 0 1-4-.35c-1.1-.18-2.91-.38-4-.46-.43 0-1 0-1.52-.06a3.27 3.27 0 0 1 .31.69 2 2 0 0 0 .14.33 2.62 2.62 0 0 0 .45.65 4.11 4.11 0 0 0 1.13.7 4.63 4.63 0 0 1 1.18.72 3.78 3.78 0 0 1 .75 1 2.87 2.87 0 0 1 .23 1.13 2.05 2.05 0 0 1-.38 1c-.19.24 0 .52.5.62a16.29 16.29 0 0 0 2.87.11c1.11 0 2.93 0 4 .06s2.92.28 4 .46a32.11 32.11 0 0 0 4 .35 32.59 32.59 0 0 0 4-.27 31 31 0 0 1 4.07-.25 31.49 31.49 0 0 1 4.08.4 3.43 3.43 0 0 0 2.7-.41 3.28 3.28 0 0 0-.07-2.69 35.87 35.87 0 0 1-1.18-3.94zM29.74 158.55a27.86 27.86 0 0 1 3.54 1.4c.3.15.65.35 1 .57l.86.54a7.73 7.73 0 0 0 .48-1.59 10.58 10.58 0 0 0 .11-2.17 1.2 1.2 0 0 0-1-1.07 13.49 13.49 0 0 0-2.52.16 8.66 8.66 0 0 1-3-.15 9.18 9.18 0 0 1-2.72-1.41 20.35 20.35 0 0 0-2.9-1.83 27.86 27.86 0 0 0-3.59-1.4 36.21 36.21 0 0 1-3.75-1.43c-1-.46-3.39-1.77-5.35-2.93a7.25 7.25 0 0 0 .77 1.35 6.58 6.58 0 0 0 .53.55 12 12 0 0 0 2.78 2c1.11.53 3.63 1.91 5.59 3.07s4.43 2.44 5.43 2.9a36.21 36.21 0 0 0 3.74 1.44zM78.14 87.37c-.54-.58-1.08-1.2-1.47-1.7a8.65 8.65 0 0 0-1.56-1.48 7.22 7.22 0 0 0-1.06-.68l-.23-.11a8.14 8.14 0 0 0-2.47-.49c1.18.82 2.72 1.83 4.23 2.74.89.55 1.76 1.14 2.56 1.72zM40.48 108.84a23.27 23.27 0 0 1 1.63-2.9 9.52 9.52 0 0 1 2.28-2.22 11.17 11.17 0 0 1 3.12-1.23 24.46 24.46 0 0 0 3-.84 9.37 9.37 0 0 0 1.66-.85l.27-.19a4.06 4.06 0 0 1 .63-.41 4.83 4.83 0 0 0-1-.59 4.11 4.11 0 0 1-1.13-.7 2.63 2.63 0 0 1-.59-1 3.19 3.19 0 0 0-.49-1 3.1 3.1 0 0 0-.86-.58 6 6 0 0 1-1-.63 7 7 0 0 1-.83-.87 7.47 7.47 0 0 0-.87-.9 8.16 8.16 0 0 0-1.06-.73 2.08 2.08 0 0 0-1.21-.2 3.73 3.73 0 0 0-1.33.69 8.46 8.46 0 0 1-1.93 1 24.46 24.46 0 0 1-3 .84 11.17 11.17 0 0 0-3.12 1.23A9.52 9.52 0 0 0 32.4 99a23.27 23.27 0 0 0-1.63 2.9 67.5 67.5 0 0 0-2.11 6.89 30.1 30.1 0 0 0-1.19 7.21 28.56 28.56 0 0 0 1.74 5.58c.84 2 1.92 5.08 2.4 6.79s1.17 3.79 1.52 4.64a6.94 6.94 0 0 0 1.87 2.47 7.48 7.48 0 0 0 2.92 1.14 9.58 9.58 0 0 0 3.15-.13 5 5 0 0 0 .56-.2c-.1-.32-.19-.64-.28-.94-.49-1.71-1.56-4.74-2.39-6.76a28.56 28.56 0 0 1-1.78-5.59 30.1 30.1 0 0 1 1.19-7.24 67.5 67.5 0 0 1 2.11-6.92zM31.42 193.26c-.34.13-.46.33-.26.45a6.72 6.72 0 0 0 1.66.39c.72.1 1.87.33 2.55.5s1.78.52 2.43.77a11.83 11.83 0 0 0 2.42.59 12.26 12.26 0 0 0 2.52 0 11.39 11.39 0 0 1 2.55 0 12.12 12.12 0 0 1 2.51.69 12.58 12.58 0 0 0 2.61.7 54 54 0 0 0 6.14-.07c2.63-.14 5.31-.62 6-1.06s2-2.72 3.1-5.05a42.11 42.11 0 0 0 2.11-5.4 7.74 7.74 0 0 0 0-2.21c-.1-.59-.21-1.59-.25-2.24s-.05-1.76 0-2.47a3.09 3.09 0 0 0-2.38-3.35 18 18 0 0 1-2.35-.95 17.28 17.28 0 0 1-2.12-1.32 10.74 10.74 0 0 0-1.73-1.07h-.13a2.23 2.23 0 0 0-1-.14v2.41c0 .63.15 1.66.25 2.24a7.74 7.74 0 0 1 0 2.21 42.11 42.11 0 0 1-2.11 5.4c-1 2.34-2.44 4.61-3.1 5.05a3.72 3.72 0 0 1-1 .37 1.61 1.61 0 0 1-.19.41 1.06 1.06 0 0 1-.77.38 4.86 4.86 0 0 1-1.69-.31c-.75.09-1.54.17-2.33.21a54 54 0 0 1-6.14.07 12.8 12.8 0 0 1-2.11-.52 7.07 7.07 0 0 1-.91-.12 8.25 8.25 0 0 1-1.49-.49 4.59 4.59 0 0 1-.41-.23h-.19A11.39 11.39 0 0 0 33 189c-.24 0-.53.05-.83.07 0 .29 0 .64.08 1v.34a5.2 5.2 0 0 1 0 2.23 2.21 2.21 0 0 1-.83.62zM52.69 164.56c.21 0 1.28-.11 2.38-.26s3.84-.37 6.08-.48A26.49 26.49 0 0 0 67 163a13.3 13.3 0 0 0 3.3-1.93 18.28 18.28 0 0 1 3.21-2.09 17.2 17.2 0 0 1 3.57-1.16 20.43 20.43 0 0 0 3.55-1.06 19.36 19.36 0 0 0 3.16-1.79c.82-.6 2.09-1.65 2.83-2.33s1.88-1.89 2.54-2.67a13.19 13.19 0 0 0 1.84-3.24 16.69 16.69 0 0 0 .82-3.93 26.48 26.48 0 0 1 .61-3.93 17.05 17.05 0 0 1 1.23-3.21 3.34 3.34 0 0 0 .22-2.61 6 6 0 0 0-2.4-2.13 9.34 9.34 0 0 0-3.8-.89 10.94 10.94 0 0 0-3.61 1l-.35.17c-.27.14-.58.29-.9.43l-.09.33a26.48 26.48 0 0 0-.61 3.93 16.69 16.69 0 0 1-.82 3.93 13.19 13.19 0 0 1-1.84 3.18c-.66.78-1.8 2-2.54 2.67s-2 1.74-2.83 2.33a19.36 19.36 0 0 1-3.16 1.79 20.43 20.43 0 0 1-3.55 1.06 17.2 17.2 0 0 0-3.57 1.15 18.28 18.28 0 0 0-3.21 2.09 13.3 13.3 0 0 1-3.3 1.91 26.49 26.49 0 0 1-5.86.85c-2.24.11-5 .32-6.08.48s-2.17.28-2.38.26a.53.53 0 0 0-.38.06s.11.53.26 1.08a6 6 0 0 1 .17 1.8 7.51 7.51 0 0 1-1.47 2.47l-.28.35a6.32 6.32 0 0 0 .63-.06l.75-.09a11.35 11.35 0 0 1 1.77-.07 1 1 0 0 1 .42.14 1.21 1.21 0 0 1 .61.92v.08a1.38 1.38 0 0 1 .52.19A4 4 0 0 0 47 165a2.27 2.27 0 0 0 1 0 2.24 2.24 0 0 1 1.19.18 10.74 10.74 0 0 1 1.73 1.07 17.4 17.4 0 0 0 1.82 1.16 5.79 5.79 0 0 0-.08-1.2c0-.18-.06-.35-.1-.5-.15-.55-.26-1-.26-1.08a.53.53 0 0 1 .39-.07zm-3.34-.25a.57.57 0 0 1-.18-.06h.12c.12 0 .13.07.06.06zm.65.11c-.17 0-.16 0 0 0a.7.7 0 0 1 .31.05 1 1 0 0 1-.31-.05z"/></svg>