<svg xmlns="http://www.w3.org/2000/svg" width="104.61" height="200" viewBox="0 0 104.61 200"><title>_</title><path d="M46.15 49.22a14.53 14.53 0 0 1-1.75-3.5 3 3 0 0 0-1-1.42 4.75 4.75 0 0 0-2.26-.07 19.16 19.16 0 0 1-4.4.33 19.69 19.69 0 0 1-4.39-.93c-1-.37-2.79-.87-3.82-1.1a36.83 36.83 0 0 0-3.81-.59c-1-.09-2.86-.14-4.07-.11s-3.24.19-4.56.35a4.25 4.25 0 0 0-1.4.41 5.24 5.24 0 0 0 1 1.43 24.72 24.72 0 0 0 3.57 3 20.77 20.77 0 0 0 3.92 1.88l.49.1a26.55 26.55 0 0 1 3.92 1.83 23.32 23.32 0 0 1 3.72 2.91 48.968 48.968 0 0 1 3.06 3.48c.8 1 2 2.83 2.75 4a9.75 9.75 0 0 0 2.18 2.5 3.42 3.42 0 0 0 1.85.44c.44-.07 1-.19 1.62-.31s.85-.19 1.17-.27c.73-.19 1.91-.56 2.59-.82a14.15 14.15 0 0 1 3-.72 39.54 39.54 0 0 1 6 .46l1.22.14a23.05 23.05 0 0 1-2.18-2.49 19.38 19.38 0 0 1-1.87-3.35 13.63 13.63 0 0 0-1.52-2.62A14.47 14.47 0 0 0 48.94 52a13 13 0 0 1-1.15-1 14.35 14.35 0 0 1-1.64-1.78zM-.07 123.93a10.69 10.69 0 0 1 1.56 3.47 11.51 11.51 0 0 1 0 3.87 7.08 7.08 0 0 0 .17 2.73 10.55 10.55 0 0 0 1.61 2.82c.77.93 2 2.51 2.67 3.53S7.7 143 8.3 144.13a19.14 19.14 0 0 0 2.32 3.14 19.42 19.42 0 0 0 3 2.47 18.72 18.72 0 0 0 3.57 1.64l.56.15a19.94 19.94 0 0 0 3.37.52 23.49 23.49 0 0 1 4.37.66 14.62 14.62 0 0 1 3.56 1.59 6.73 6.73 0 0 0 2.19.87 7.16 7.16 0 0 0 2.43-.21 15.1 15.1 0 0 1 3.56-.53 38 38 0 0 1 7 1.57 51.82 51.82 0 0 0 6.48 1.6 20.23 20.23 0 0 0 3.34 0 11.35 11.35 0 0 0 3-.85 13.31 13.31 0 0 0 2.7-1.9 13.27 13.27 0 0 1 3.62-2.34 12.26 12.26 0 0 1 4.19-.71 6.26 6.26 0 0 0 2.59-.55 6.18 6.18 0 0 0 1.85-1.94 14.4 14.4 0 0 1 2.62-3.16 13.46 13.46 0 0 1 3.5-2 14.71 14.71 0 0 0 2.8-1.46 12.28 12.28 0 0 0 4.17-5.18l.06-.13a23.24 23.24 0 0 0 1.12-3.76 4.66 4.66 0 0 0-.12-2.34 2.81 2.81 0 0 0-1.66-.53 20.19 20.19 0 0 0-3.73.42 21 21 0 0 0-3.6 1.28 20.73 20.73 0 0 1-4.19 1.43 17.8 17.8 0 0 1-4.25.24 33.5 33.5 0 0 1-4.08-.66 38.64 38.64 0 0 1-4.12-1.28 7.83 7.83 0 0 0-2.44-.5 8.39 8.39 0 0 0-1.75 2.47c-.28.57-1.73 3.47-2.64 4.19a5.64 5.64 0 0 1-2.39 1 12.16 12.16 0 0 1-2.25.08 12.54 12.54 0 0 1-2.21-.4 11.48 11.48 0 0 0-1.84-.21 20.45 20.45 0 0 0-2.62.27 9.4 9.4 0 0 1-2.21.06 7.2 7.2 0 0 1-1.48-.25 8.46 8.46 0 0 1-3.1-1.94c-.57-.58-1.61-1.54-2.26-2.09s-1.82-1.44-2.57-2a8.22 8.22 0 0 1-2.56-3.05 9.54 9.54 0 0 1-.58-4 5.2 5.2 0 0 1 1.88-3.69 5.69 5.69 0 0 1 4.17-.36 17.85 17.85 0 0 0 3.48.5 104.44 104.44 0 0 0 11.19-1.61 112.64 112.64 0 0 1 13.6-1.67c2.2 0 8.44.48 14 1l3.06.32a49.11 49.11 0 0 0 10.08.31 4.31 4.31 0 0 0 .8-1.77 21.38 21.38 0 0 0 .23-3.37 18.57 18.57 0 0 0-.44-3.17 17.29 17.29 0 0 0-1.09-3 18.87 18.87 0 0 0-1.76-2.74 19.82 19.82 0 0 1-2-3.2 15.33 15.33 0 0 1-1.14-3.36 10.58 10.58 0 0 0-.79-2.4 10.79 10.79 0 0 0-1.47-2 14.84 14.84 0 0 1-2-2.8 16.75 16.75 0 0 1-1.25-3.35 8.09 8.09 0 0 0-.6-1.57 5.3 5.3 0 0 0-.42-.72A24.22 24.22 0 0 0 72.71 84c-2.27-1.36-4.54-2.59-5.14-2.86a21 21 0 0 0-2.6-.87 32.29 32.29 0 0 1-3.12-1c-1-.38-4-2-6.27-3.28-1.38-.79-2.9-1.57-4.16-2.15a10.53 10.53 0 0 0-1.68-.67 9.61 9.61 0 0 0-2.1-.15 7 7 0 0 0-.78.06c-.89.13-3.05.6-4.71 1s-3.91 1-4.79 1.09a26.58 26.58 0 0 1-3.27.27 16.44 16.44 0 0 0-2.68.3 50 50 0 0 0-6 2.56c-2.71 1.31-5.86 2.74-7 3.17s-3.15 1.1-4.41 1.43a8.28 8.28 0 0 0-3 1.63 8.48 8.48 0 0 0-1.68 3A31.76 31.76 0 0 1 7.63 92a73 73 0 0 1-4.17 6.59A50.52 50.52 0 0 0 0 104.15c-.29.74-1.08 3.43-1.73 5.88A41.65 41.65 0 0 0-3 115.86a12 12 0 0 0 .33 2.71 19.67 19.67 0 0 0 1 2.77 20.85 20.85 0 0 0 1.6 2.59z"/><path d="M26.81 52.16a24.66 24.66 0 0 0-3.66-1.71A7 7 0 0 0 24.28 52a26.2 26.2 0 0 0 3.84 3.19 20.32 20.32 0 0 0 2.2 1.19 19 19 0 0 0 2.07.85c-.71-.85-1.55-1.78-2.16-2.39a21.58 21.58 0 0 0-3.42-2.68zM55.37 64.06a39.57 39.57 0 0 0-5.69-.46 12.62 12.62 0 0 0-2.64.63c-.73.27-2 .66-2.74.86l-1.23.28.64.88c.65.91 1.35 2 1.82 2.74a12.2 12.2 0 0 0 1.16 1.57 11.32 11.32 0 0 0 .9.94 11.35 11.35 0 0 1 2.47.19 12.45 12.45 0 0 1 2 .77c.55-.11 1.12-.23 1.6-.34L54 72c.78-.2 2-.59 2.74-.86a12.62 12.62 0 0 1 2.64-.63 39.57 39.57 0 0 1 5.69.46c2.4.32 4.4.33 4.43 0a4.17 4.17 0 0 0-1.42-1.91 21.69 21.69 0 0 1-2.55-2.81 17.89 17.89 0 0 1-1.73-3.11 15 15 0 0 0-1.73-3 15.84 15.84 0 0 0-2.53-2.44 13.69 13.69 0 0 1-2.47-2.47 13.06 13.06 0 0 1-1.54-3.07 4.37 4.37 0 0 0-1.8-2.32 5.91 5.91 0 0 0-3.25-.2l-.37.06c-.4.07-.84.13-1.31.17a11.63 11.63 0 0 0 1 .88 15.84 15.84 0 0 1 2.53 2.44 15 15 0 0 1 1.73 3 17.89 17.89 0 0 0 1.73 3.11 21.69 21.69 0 0 0 2.55 2.81 4.17 4.17 0 0 1 1.42 1.91c.01.37-1.98.37-4.39.04zM100.83 118.88a19 19 0 0 0-1.21-3.27 20.49 20.49 0 0 0-1.93-3 18.31 18.31 0 0 1-1.85-2.91 13.82 13.82 0 0 1-1-3 9.79 9.79 0 0 0-2.65-5.23A13.32 13.32 0 0 1 90.42 99a15.23 15.23 0 0 1-1.12-3 9.38 9.38 0 0 0-1.3-2.8 23.66 23.66 0 0 0-4.84-3.56c-1-.59-2-1.17-2.9-1.67l-1.42-.77a9.57 9.57 0 0 1 .72 1.89 15.23 15.23 0 0 0 1.12 3 13.32 13.32 0 0 0 1.79 2.47 9.79 9.79 0 0 1 2.65 5.23 13.82 13.82 0 0 0 1 3 18.31 18.31 0 0 0 1.88 2.88 20.49 20.49 0 0 1 1.93 3 19 19 0 0 1 1.21 3.27 20.18 20.18 0 0 1 .48 3.49 22.9 22.9 0 0 1-.25 3.66 5.28 5.28 0 0 1-1.44 2.81c-.62.51-5.61.47-11.08-.09l-3.15-.32c-5.47-.56-11.67-1-13.77-1a109.84 109.84 0 0 0-13.38 1.65c-5.26.92-10.42 1.65-11.48 1.63a19.41 19.41 0 0 1-3.84-.55 4.36 4.36 0 0 0-3 .17 3.83 3.83 0 0 0-1.23 2.5 8.1 8.1 0 0 0 .46 3.31 6.89 6.89 0 0 0 2 2.42c.78.54 2 1.46 2.68 2s1.76 1.57 2.37 2.19a7.1 7.1 0 0 0 2.47 1.56 5.7 5.7 0 0 0 1.15.19 7 7 0 0 1-.84-1.14 3.36 3.36 0 0 1-.16-.32 8.1 8.1 0 0 1-.46-3.31 3.83 3.83 0 0 1 1.33-2.52 4.36 4.36 0 0 1 3-.17 19.41 19.41 0 0 0 3.84.55c1.05 0 6.22-.71 11.48-1.63a109.84 109.84 0 0 1 13.38-1.65c1.89 0 7.09.39 12.1.87l1.67.17.53.07 2.5.26c5.47.56 10.46.6 11.08.09a5.28 5.28 0 0 0 1.44-2.81 22.9 22.9 0 0 0 .25-3.66 20.18 20.18 0 0 0-.44-3.48zM73.62 160.78a10.89 10.89 0 0 1 3.6-.6 7.75 7.75 0 0 0 3.35-.74A7.65 7.65 0 0 0 83 157a12.85 12.85 0 0 1 2.3-2.77 11.92 11.92 0 0 1 3-1.75 16 16 0 0 0 3.16-1.65 13.79 13.79 0 0 0 4.68-5.83 24.06 24.06 0 0 0 1.27-4.21 5.49 5.49 0 0 0-.37-3.49 3.92 3.92 0 0 0-2.89-1.16 21.66 21.66 0 0 0-4.07.46 20.57 20.57 0 0 0-2.31.73c-.44.16-.88.33-1.25.5l-.1.23a13.79 13.79 0 0 1-4.68 5.81 16 16 0 0 1-3.16 1.65 11.92 11.92 0 0 0-3 1.75 12.85 12.85 0 0 0-2.3 2.77 7.65 7.65 0 0 1-2.4 2.43 7.75 7.75 0 0 1-3.35.74 10.89 10.89 0 0 0-3.6.6 11.69 11.69 0 0 0-3.13 2 14.73 14.73 0 0 1-3.11 2.19 12.86 12.86 0 0 1-3.46 1 21.86 21.86 0 0 1-3.65 0 52 52 0 0 1-6.78-1.66 36.89 36.89 0 0 0-6.5-1.49 13.65 13.65 0 0 0-3.14.47 8.69 8.69 0 0 1-3.07.25 8.18 8.18 0 0 1-2.81-1.11 13.09 13.09 0 0 0-3.13-1.39 22.16 22.16 0 0 0-4-.6 21.54 21.54 0 0 1-3.65-.56c.28.41.59.83.9 1.21s.63.77.9 1.05a20.85 20.85 0 0 0 3.34 2.7 20.21 20.21 0 0 0 3.93 1.8 20.92 20.92 0 0 0 4.31.74 22.16 22.16 0 0 1 4 .6 13.09 13.09 0 0 1 3.12 1.48 8.18 8.18 0 0 0 2.81 1.11 8.69 8.69 0 0 0 3.07-.25 13.65 13.65 0 0 1 3.14-.47 36.89 36.89 0 0 1 6.5 1.49 52 52 0 0 0 6.77 1.63 21.86 21.86 0 0 0 3.65 0 12.86 12.86 0 0 0 3.46-1 14.73 14.73 0 0 0 3.09-2.17 11.69 11.69 0 0 1 3.13-2.05z"/></svg>