<svg xmlns="http://www.w3.org/2000/svg" width="105.67" height="200" viewBox="0 0 105.67 200"><title>_</title><path d="M33.32 120.6a16.91 16.91 0 0 1 4.07-1.07 17.62 17.62 0 0 1 4.24.17c.87.16 5.88.37 11.69.43l6.79.07c4.1 0 10.74.24 12.27.63a13.9 13.9 0 0 0 3.36.33 14.53 14.53 0 0 0 3.38-.74 30.63 30.63 0 0 1 4-1.15 24.59 24.59 0 0 1 3.88-.41 5.66 5.66 0 0 0 2.11-.44 2.5 2.5 0 0 0 .83-1 11.93 11.93 0 0 0 .44-2.36 19.27 19.27 0 0 0-.1-2.94c-.11-.9-.54-3.19-.94-5a18.75 18.75 0 0 0-1.45-4.33A11.19 11.19 0 0 0 86 100.6a13.06 13.06 0 0 1-2.51-2.82 11.88 11.88 0 0 1-1.32-3.43 10.67 10.67 0 0 0-.86-2.46 32.46 32.46 0 0 0-3.73-4.21c-1.22-1.21-3.35-3.13-5.56-5a54.89 54.89 0 0 0-2.44-2 52.84 52.84 0 0 0-6-4.39 57.26 57.26 0 0 0-8-1.49c-3.46-.47-7.71-1.14-8.84-1.46a9.19 9.19 0 0 0-2.8-.34 17.46 17.46 0 0 0-4.05 1.46 46.19 46.19 0 0 1-4.58 2c-.83.27-2.19.63-3 .81s-2.26.4-3.11.49c-.66.07-2.91.54-5.09 1.1a77.47 77.47 0 0 0-7.74 2.56 23.37 23.37 0 0 0-5.22 2.78A75 75 0 0 0 5 94a109 109 0 0 0-5 9.82 9 9 0 0 0-.12 2.55c.12.94.22 2.46.22 3.37A30.86 30.86 0 0 1-.1 113c-.08.67-.15 3.92-.12 7.52a42.52 42.52 0 0 0 .49 7.12 9.26 9.26 0 0 0 1.33 2.22 15.46 15.46 0 0 1 2 3.33 23.21 23.21 0 0 1 1.24 4.18A16.67 16.67 0 0 0 6.09 141a16.05 16.05 0 0 0 2.16 3 19.81 19.81 0 0 0 3 2.48 35.82 35.82 0 0 0 4.54 1.95c1.49.57 3.09 1.14 4.62 1.67a93.82 93.82 0 0 1 9.36 3.56 7.83 7.83 0 0 0 2.26.83 8.19 8.19 0 0 0 2.46-.12 9.06 9.06 0 0 1 2-.2 8.51 8.51 0 0 1 1.81.17 11.42 11.42 0 0 1 3.46 1.66 5 5 0 0 0 2.21.79 6.28 6.28 0 0 0 2.54-.8 12.1 12.1 0 0 1 4.11-1.44 11.72 11.72 0 0 1 4.3.45 9.52 9.52 0 0 0 3 .38 26.1 26.1 0 0 0 5.74-2.56c2.51-1.42 5.75-3.38 7.22-4.39a35.13 35.13 0 0 1 4.59-2.7 26 26 0 0 1 3.82-1.21 8.87 8.87 0 0 0 2.75-1.23 8.22 8.22 0 0 0 1.85-2.29c.28-.54.63-1.3.93-2 .16-.37.29-.71.39-1a17 17 0 0 0 .66-2.48 1.5 1.5 0 0 0-.18-.83A4.67 4.67 0 0 0 84 134a23.6 23.6 0 0 0-3.26-.31 22.84 22.84 0 0 0-3.44.35 22.88 22.88 0 0 1-4.16.34 22.54 22.54 0 0 1-4.16-.61c-1-.26-2.66-.61-3.69-.77s-2.67-.33-3.68-.38a8.63 8.63 0 0 0-2.51.23 1.81 1.81 0 0 0-.72.54 13.82 13.82 0 0 1-1.12 2 12.64 12.64 0 0 1-1.48 1.61 6.65 6.65 0 0 1-2.09 1.27 7.07 7.07 0 0 1-2.44.3c-.6 0-1.91-.21-3-.4a37.74 37.74 0 0 0-4-.35h-.49a14.15 14.15 0 0 1-4-.69 8.93 8.93 0 0 1-2.65-1.91c-.64-.7-2.61-3.34-4.13-5.46-2.41-3.36-3.3-5.66-2.65-6.83a6.81 6.81 0 0 1 2.99-2.33zM39.22 51.47a13.75 13.75 0 0 0-2.71 1.87 10.41 10.41 0 0 0-1.74 2.37 24 24 0 0 0-1.14 2.84 18.09 18.09 0 0 0-.57 2.69 5.64 5.64 0 0 0 0 1.11c.45-.08 1.41-.27 2.52-.54a19.87 19.87 0 0 1 3.89-.56h.22a12 12 0 0 1 3.09.64L43 62a22.26 22.26 0 0 0 2.2.64 21.29 21.29 0 0 0 2.45.36 5.24 5.24 0 0 0 2-.48 50.92 50.92 0 0 0 5.79-5.07c2.64-2.57 5.62-5.27 6.64-6s2.73-1.85 3.84-2.49c.8-.46 2.75-1.82 4.63-3.24l1.07-.82a23.26 23.26 0 0 0 2.46-2.19 5.48 5.48 0 0 0-.59-.05c-1.41 0-5.38-.43-8.87-.85-3.28-.4-7-.71-8.11-.74s-3.83.19-6.08.41a13.34 13.34 0 0 0-4.69 1.16 5.17 5.17 0 0 0-1.24 2.21 11.32 11.32 0 0 1-1.85 3.94 11.58 11.58 0 0 1-3.43 2.68z"/><path d="M94 139.47a20.84 20.84 0 0 0-3.55-.34 24.32 24.32 0 0 0-3.08.27l-.65.11-.51.09c-.3.72-.67 1.53-1 2.13a9.61 9.61 0 0 1-2.21 2.76 10.21 10.21 0 0 1-3.33 1.5 24.23 24.23 0 0 0-3.55 1.13 34.08 34.08 0 0 0-4.34 2.56c-1.49 1-4.79 3-7.33 4.46a25.42 25.42 0 0 1-6.34 2.75 11 11 0 0 1-3.59-.45 10.39 10.39 0 0 0-3.67-.38 10.75 10.75 0 0 0-3.52 1.24 7.7 7.7 0 0 1-3.32 1 6.37 6.37 0 0 1-3.07-1.07 10 10 0 0 0-3-1.4 8.23 8.23 0 0 0-3.09 0 9.67 9.67 0 0 1-3 .15 9.24 9.24 0 0 1-2.8-1 95.16 95.16 0 0 0-9.07-3.43c-1.62-.55-3.23-1.13-4.67-1.68.33.5.71 1 1.07 1.46.2.25.4.48.58.68a21.23 21.23 0 0 0 3.24 2.71 72 72 0 0 0 9.5 3.77 95.16 95.16 0 0 1 9.07 3.43 9.24 9.24 0 0 0 2.8 1 9.67 9.67 0 0 0 3-.15 8.23 8.23 0 0 1 3.09 0 10 10 0 0 1 3 1.4 6.37 6.37 0 0 0 3.07 1.07 7.7 7.7 0 0 0 3.32-1 10.75 10.75 0 0 1 3.46-1.24 10.39 10.39 0 0 1 3.67.38 11 11 0 0 0 3.59.45 25.42 25.42 0 0 0 6.34-2.75c2.54-1.43 5.84-3.44 7.33-4.46a34.08 34.08 0 0 1 4.34-2.56 24.23 24.23 0 0 1 3.55-1.13 10.21 10.21 0 0 0 3.33-1.5 9.61 9.61 0 0 0 2.27-2.76 33.13 33.13 0 0 0 1.4-3.19 18.24 18.24 0 0 0 .73-2.76 2.8 2.8 0 0 0-.57-2.08 5.6 5.6 0 0 0-2.49-1.17zM100.5 113.69a19.68 19.68 0 0 0-1.65-4.81 12.66 12.66 0 0 0-2.24-2.5 11.77 11.77 0 0 1-2.18-2.44 10.36 10.36 0 0 1-1.12-2.94 11.93 11.93 0 0 0-1-2.9 32.46 32.46 0 0 0-4-4.56c-1.8-1.78-5.45-5-8.11-7.17-.75-.61-1.52-1.21-2.25-1.78a33.44 33.44 0 0 0-4.07-2.82 6.47 6.47 0 0 0-.92-.28c2.13 1.83 4.35 3.83 5.64 5.1a32.46 32.46 0 0 1 4 4.56 11.93 11.93 0 0 1 1 2.9A10.36 10.36 0 0 0 84.72 97a11.77 11.77 0 0 0 2.18 2.44 12.66 12.66 0 0 1 2.24 2.5 19.68 19.68 0 0 1 1.65 4.81c.42 1.88.85 4.19 1 5.15a20.81 20.81 0 0 1 .11 3.22 13.38 13.38 0 0 1-.52 2.73 3.92 3.92 0 0 1-1.5 1.87 7 7 0 0 1-2.85.64 23.06 23.06 0 0 0-3.6.38 28.86 28.86 0 0 0-3.75 1.08 15.82 15.82 0 0 1-3.82.83 15 15 0 0 1-3.82-.37 101.4 101.4 0 0 0-11.91-.58l-6.79-.07c-5.5-.05-10.88-.26-11.95-.45a16 16 0 0 0-3.81-.16 15.38 15.38 0 0 0-3.64 1 5.56 5.56 0 0 0-2.3 1.69c-.29.51.87 2.86 2.56 5.22s3.5 4.76 4 5.32a7.46 7.46 0 0 0 2.14 1.54 12.85 12.85 0 0 0 3.4.56h.52l-.34-.47-.36-.53c-1.49-2.17-2.46-4.22-2.19-4.7a5.56 5.56 0 0 1 2.3-1.69 15.38 15.38 0 0 1 3.64-1 16 16 0 0 1 3.81.16c1.07.2 6.45.4 11.95.45l6.79.07a101.4 101.4 0 0 1 11.91.58 15 15 0 0 0 3.82.37 15.82 15.82 0 0 0 3.82-.83 28.86 28.86 0 0 1 3.75-1.08 23.06 23.06 0 0 1 3.6-.38 7 7 0 0 0 2.85-.64 3.92 3.92 0 0 0 1.5-1.87 13.38 13.38 0 0 0 .52-2.73 20.81 20.81 0 0 0-.11-3.22c-.17-.96-.6-3.27-1.02-5.15zM82.24 53c2.17-1.69 3.84-3.47 3.71-4s-1.35-.92-2.71-1-5.29-.42-8.73-.84L72.88 47l-1.44-.16c-1.9 1.44-3.9 2.84-4.79 3.35-1.06.61-2.73 1.68-3.7 2.4s-3.89 3.41-6.49 5.92a49.18 49.18 0 0 1-6.15 5.33 6.28 6.28 0 0 1-2.77.64 22.56 22.56 0 0 1-2.66-.39 24.32 24.32 0 0 1-2.37-.69c-.13.32-.25.64-.36.93s-.18.51-.24.72a19.71 19.71 0 0 0-.63 3 5.46 5.46 0 0 0 .14 2.16 1.17 1.17 0 0 0 1 .64h.13a18.74 18.74 0 0 0 1.91-.34l1.22-.28a17.09 17.09 0 0 1 3.68-.51 10.54 10.54 0 0 1 2.64.55 24.23 24.23 0 0 0 2.65.78 22.56 22.56 0 0 0 2.66.39 6.28 6.28 0 0 0 2.69-.66 49.18 49.18 0 0 0 6.15-5.33c2.59-2.52 5.51-5.17 6.48-5.88s2.64-1.79 3.7-2.4A69.63 69.63 0 0 0 82.24 53z"/></svg>