<svg xmlns="http://www.w3.org/2000/svg" width="200" height="200" viewBox="0 0 200 200"><title>_</title><path d="M136,132.51a4.89,4.89,0,0,0-2-.87,24.22,24.22,0,0,0-3.34-.32,23.48,23.48,0,0,0-3.55.36,21.69,21.69,0,0,1-4.05.33,22,22,0,0,1-4-.59c-1-.27-2.7-0.61-3.74-0.78s-2.71-.34-3.74-0.39a9.05,9.05,0,0,0-2.7.25,2.15,2.15,0,0,0-1,.8,13.28,13.28,0,0,1-1.07,1.88,12.25,12.25,0,0,1-1.4,1.6,6.2,6.2,0,0,1-1.91,1.16,6.54,6.54,0,0,1-2.25.28c-0.59,0-1.87-.21-2.92-0.39a38.46,38.46,0,0,0-4.15-.36l-0.1-1,0,1a14.47,14.47,0,0,1-4.15-.66A8.48,8.48,0,0,1,87.4,133c-0.61-.67-2.56-3.28-4.09-5.42-1.29-1.8-3.34-5-2.62-6.29a6.37,6.37,0,0,1,2.78-2.12,16.3,16.3,0,0,1,3.93-1,17,17,0,0,1,4.1.17c0.9,0.17,5.85.38,11.78,0.44l6.79,0.07c4.91,0,10.84.28,12.15,0.62a14.35,14.35,0,0,0,3.51.34,14.86,14.86,0,0,0,3.53-.77,30,30,0,0,1,3.9-1.13,24.07,24.07,0,0,1,3.79-.4,6.07,6.07,0,0,0,2.36-.5,3,3,0,0,0,1.05-1.32,12.35,12.35,0,0,0,.47-2.49,19.93,19.93,0,0,0-.1-3c-0.11-.91-0.54-3.22-0.95-5.05a19.06,19.06,0,0,0-1.52-4.49,11.6,11.6,0,0,0-2-2.26,12.7,12.7,0,0,1-2.4-2.69,11.31,11.31,0,0,1-1.26-3.26,11.09,11.09,0,0,0-.92-2.61,32.45,32.45,0,0,0-3.82-4.33c-1.23-1.22-3.37-3.15-5.58-5-0.85-.73-1.69-1.44-2.45-2.05a52.42,52.42,0,0,0-6.1-4.45,56.42,56.42,0,0,0-8.15-1.53c-3.44-.46-7.66-1.13-8.77-1.44a9.74,9.74,0,0,0-2.94-.28,17.76,17.76,0,0,0-4.22,1.51,46,46,0,0,1-4.51,2c-0.81.26-2.15,0.62-3,.79s-2.22.39-3.06,0.48a52.54,52.54,0,0,0-5.16,1.11,78.13,78.13,0,0,0-7.8,2.58,23.65,23.65,0,0,0-5.37,2.88c-0.68.62-3.39,4.84-6.2,9.89a107.17,107.17,0,0,0-5.09,9.94,9.48,9.48,0,0,0-.13,2.74,33.12,33.12,0,0,1,.22,3.31,30.26,30.26,0,0,1-.19,3.21c-0.09.7-.16,3.91-0.13,7.59a41.07,41.07,0,0,0,.52,7.29,9.71,9.71,0,0,0,1.42,2.37,14.89,14.89,0,0,1,2,3.21,22.65,22.65,0,0,1,1.21,4.07,17.21,17.21,0,0,0,1.25,3.75,16.64,16.64,0,0,0,2.24,3.19,20.39,20.39,0,0,0,3.06,2.56,36.15,36.15,0,0,0,4.64,2c1.49,0.57,3.1,1.15,4.64,1.67a95.14,95.14,0,0,1,9.26,3.52,8.31,8.31,0,0,0,2.44.89,8.69,8.69,0,0,0,2.65-.13,8.58,8.58,0,0,1,1.85-.18,8,8,0,0,1,1.69.16,11,11,0,0,1,3.36,1.56,5.44,5.44,0,0,0,2.5.88h0a6.75,6.75,0,0,0,2.79-.87,11.74,11.74,0,0,1,3.92-1.37,11.36,11.36,0,0,1,4.09.43,10,10,0,0,0,3.2.4,25.53,25.53,0,0,0,5.94-2.63c2.52-1.42,5.78-3.4,7.26-4.41a34.57,34.57,0,0,1,4.51-2.65,25.44,25.44,0,0,1,3.73-1.19,9.34,9.34,0,0,0,2.94-1.32,8.68,8.68,0,0,0,2-2.42c0.29-.56.64-1.33,0.95-2.06,0.16-.38.3-0.73,0.4-1a17.28,17.28,0,0,0,.68-2.57A1.89,1.89,0,0,0,136,132.51Z" fill="#231f20"/><path d="M124.95,40.5a5.26,5.26,0,0,0-1.5-.25c-1.4,0-5.35-.43-8.82-0.85s-7.06-.71-8.15-0.75-3.88.2-6.14,0.42a13.29,13.29,0,0,0-5,1.27A5.6,5.6,0,0,0,94,42.83a10.93,10.93,0,0,1-1.75,3.74,11.21,11.21,0,0,1-3.26,2.58,14.08,14.08,0,0,0-2.84,2,10.83,10.83,0,0,0-1.84,2.5,24.63,24.63,0,0,0-1.17,2.92,18.75,18.75,0,0,0-.59,2.79A5,5,0,0,0,82.57,61a0.42,0.42,0,0,0,.11,0c0.27,0,1.53-.25,2.95-0.6a19.49,19.49,0,0,1,3.77-.54h0.19a11.61,11.61,0,0,1,2.94.61l0.26,0.09a23,23,0,0,0,2.25.65,22,22,0,0,0,2.52.37,5.46,5.46,0,0,0,2.24-.54,50.41,50.41,0,0,0,5.91-5.15c2.63-2.56,5.58-5.24,6.59-6s2.7-1.83,3.8-2.46c0.82-.47,2.79-1.84,4.69-3.27l1.08-.83A19.46,19.46,0,0,0,124.95,40.5Z" fill="#231f20"/><path d="M136.15,137.72c-0.3.72-.67,1.53-1,2.13a9.61,9.61,0,0,1-2.27,2.76,10.22,10.22,0,0,1-3.33,1.5,24.2,24.2,0,0,0-3.55,1.13,34.11,34.11,0,0,0-4.34,2.56c-1.49,1-4.79,3-7.33,4.46A25.41,25.41,0,0,1,108,155a11,11,0,0,1-3.59-.45,10.39,10.39,0,0,0-3.67-.38,10.75,10.75,0,0,0-3.52,1.24,7.7,7.7,0,0,1-3.32,1,6.37,6.37,0,0,1-3.07-1.07,10,10,0,0,0-3-1.4,8.23,8.23,0,0,0-3.09,0,9.68,9.68,0,0,1-3,.15,9.23,9.23,0,0,1-2.8-1,95.11,95.11,0,0,0-9.07-3.43c-1.62-.55-3.23-1.13-4.67-1.68,0.33,0.5.71,1,1.07,1.46,0.2,0.25.4,0.48,0.58,0.68a21.23,21.23,0,0,0,3.24,2.71,72.05,72.05,0,0,0,9.5,3.77A95.11,95.11,0,0,1,88.62,160a9.23,9.23,0,0,0,2.8,1,9.68,9.68,0,0,0,3-.15,8.23,8.23,0,0,1,3.09,0,10,10,0,0,1,3,1.4,6.37,6.37,0,0,0,3.07,1.07,7.7,7.7,0,0,0,3.32-1,10.75,10.75,0,0,1,3.52-1.24,10.39,10.39,0,0,1,3.67.38,11,11,0,0,0,3.59.45,25.41,25.41,0,0,0,6.34-2.75c2.54-1.43,5.84-3.44,7.33-4.46a34.11,34.11,0,0,1,4.34-2.56,24.2,24.2,0,0,1,3.55-1.13,10.22,10.22,0,0,0,3.33-1.5,9.61,9.61,0,0,0,2.27-2.76,33.08,33.08,0,0,0,1.4-3.19,18.23,18.23,0,0,0,.73-2.76,2.8,2.8,0,0,0-.57-2.08,5.61,5.61,0,0,0-2.49-1.17,20.87,20.87,0,0,0-3.55-.34,24.41,24.41,0,0,0-3.08.27l-0.65.11Z" fill="#231f20"/><path d="M150.45,111.81A19.68,19.68,0,0,0,148.8,107a12.66,12.66,0,0,0-2.24-2.5,11.76,11.76,0,0,1-2.18-2.44,10.35,10.35,0,0,1-1.13-2.92,11.94,11.94,0,0,0-1-2.9,32.46,32.46,0,0,0-4-4.56c-1.8-1.78-5.45-5-8.11-7.17-0.75-.61-1.52-1.21-2.25-1.78a33.42,33.42,0,0,0-4.07-2.82,6.5,6.5,0,0,0-.92-0.28c2.13,1.83,4.35,3.83,5.64,5.1a32.46,32.46,0,0,1,4,4.56,11.94,11.94,0,0,1,1,2.9,10.35,10.35,0,0,0,1.13,2.92,11.76,11.76,0,0,0,2.18,2.44,12.66,12.66,0,0,1,2.24,2.5,19.68,19.68,0,0,1,1.65,4.81c0.42,1.88.85,4.2,1,5.15a20.81,20.81,0,0,1,.11,3.22,13.38,13.38,0,0,1-.52,2.73,3.92,3.92,0,0,1-1.5,1.87,7,7,0,0,1-2.85.64,23.12,23.12,0,0,0-3.6.38,28.9,28.9,0,0,0-3.75,1.08,15.82,15.82,0,0,1-3.82.83,15,15,0,0,1-3.82-.37,101.4,101.4,0,0,0-11.91-.58l-6.79-.07c-5.5-.05-10.88-0.26-11.95-0.45a16,16,0,0,0-3.81-.16,15.39,15.39,0,0,0-3.64,1,5.56,5.56,0,0,0-2.3,1.69c-0.29.51,0.87,2.86,2.56,5.22s3.5,4.76,4,5.32a7.45,7.45,0,0,0,2.14,1.54,13.63,13.63,0,0,0,3.79.58h0.13L93.83,134l-0.36-.53c-1.49-2.17-2.46-4.22-2.19-4.7a5.56,5.56,0,0,1,2.3-1.69,15.39,15.39,0,0,1,3.64-1,16,16,0,0,1,3.81.16c1.07,0.2,6.45.4,11.95,0.45l6.79,0.07a101.4,101.4,0,0,1,11.91.58,15,15,0,0,0,3.82.37,15.82,15.82,0,0,0,3.82-.83,28.9,28.9,0,0,1,3.75-1.08,23.12,23.12,0,0,1,3.6-.38,7,7,0,0,0,2.85-.64,3.92,3.92,0,0,0,1.5-1.87,13.38,13.38,0,0,0,.52-2.73,20.81,20.81,0,0,0-.11-3.22C151.3,116,150.86,113.69,150.45,111.81Z" fill="#231f20"/><path d="M94.35,68.62l1.22-.28a17.09,17.09,0,0,1,3.68-.51,10.56,10.56,0,0,1,2.64.55,24.17,24.17,0,0,0,2.65.78,22.46,22.46,0,0,0,2.66.39A6.28,6.28,0,0,0,110,68.9a49.18,49.18,0,0,0,6.15-5.33c2.59-2.52,5.51-5.17,6.48-5.88s2.64-1.79,3.7-2.4a69.67,69.67,0,0,0,5.88-4.18c2.17-1.69,3.84-3.47,3.71-4s-1.35-.92-2.71-1-5.29-.42-8.73-0.84l-1.62-.19L121.39,45c-1.9,1.44-3.9,2.84-4.79,3.35-1.06.61-2.73,1.68-3.7,2.4s-3.89,3.36-6.48,5.88A49.18,49.18,0,0,1,100.26,62a6.28,6.28,0,0,1-2.77.64,22.46,22.46,0,0,1-2.66-.39,24.32,24.32,0,0,1-2.37-.69c-0.13.32-.25,0.64-0.36,0.93s-0.18.51-.24,0.72a19.71,19.71,0,0,0-.63,3,5.47,5.47,0,0,0,.14,2.16,1.17,1.17,0,0,0,1,.64h0.13A18.77,18.77,0,0,0,94.35,68.62Z" fill="#231f20"/></svg>