<svg xmlns="http://www.w3.org/2000/svg" width="128.64" height="200" viewBox="0 0 128.64 200"><title>_</title><path d="M22.19 87.7c-.78.81-2.6 3.07-4 4.93A41.06 41.06 0 0 0 15 97.57a34 34 0 0 0-1.37 6 38.62 38.62 0 0 0-.54 5.88 17.5 17.5 0 0 0 .59 2.81 12.8 12.8 0 0 1 .52 3.6 13.44 13.44 0 0 1-.7 3.59 12.73 12.73 0 0 0-.6 2.71 11.42 11.42 0 0 0 .19 2.65 12.75 12.75 0 0 0 .91 2.54 14 14 0 0 0 1.59 2.3 23.85 23.85 0 0 1 2.18 3 31.88 31.88 0 0 1 1.78 3.61c.39 1 1.15 2.55 1.66 3.47s1.46 2.42 2.09 3.3a23 23 0 0 0 2.5 2.83 66.13 66.13 0 0 0 6.69 4.5l1.42.85c2.45 1.46 4.81 2.78 5.5 3.07a20 20 0 0 0 2.92 1c.87.19 3 .8 4.69 1.37a16 16 0 0 0 4 .83 9 9 0 0 0 2.58-.7 19.06 19.06 0 0 1 3.59-1.19 39.62 39.62 0 0 1 7.52.12 38.5 38.5 0 0 0 6.68.15 10.71 10.71 0 0 0 2.78-1.13 17.3 17.3 0 0 1 7.42-2.53 18.7 18.7 0 0 0 3.19-.67 17.44 17.44 0 0 0 2.88-1.32 18.87 18.87 0 0 0 2.54-1.91 57 57 0 0 0 4.25-5.3c1.38-1.9 2.82-4 3.51-5.09.12-.19.22-.35.27-.45a15.37 15.37 0 0 0 1-2.29 1.17 1.17 0 0 0-.05-.68 4.94 4.94 0 0 0-1.6-.7 28.13 28.13 0 0 0-3.35-.51 31.07 31.07 0 0 0-3.54 0c-1.07.07-5.34 0-9.73-.21a69.22 69.22 0 0 0-8.43 0 2.85 2.85 0 0 0-1 .56 8.84 8.84 0 0 1-1.53 1.48 19.23 19.23 0 0 1-3.46 1.65 27 27 0 0 0-3 1.3c-.39.24-1.08.74-1.51 1.08a6.11 6.11 0 0 1-2.85 1.14 10.38 10.38 0 0 1-2.88-.28l-.43-.1a14.49 14.49 0 0 1-3.26-1.41 13.27 13.27 0 0 1-2.61-2.24 20.6 20.6 0 0 0-2-2 24 24 0 0 0-2.49-1.76 8.38 8.38 0 0 1-2.81-3.08 13.06 13.06 0 0 1-1-4.48c-.06-1.46.35-3.44 1.41-4.33s3.08-.87 4.45-.42a15.54 15.54 0 0 0 3.6.64 13 13 0 0 0 3.45-.48 28.73 28.73 0 0 1 4.11-.87 27.06 27.06 0 0 1 4.11-.1c1.1.08 3.75.46 5.9.87s7.13 1 11.3 1.28 11 .55 15.28.48a38.9 38.9 0 0 0 7.28-.63 20.62 20.62 0 0 0-.77-4.87 46.51 46.51 0 0 1-1.52-7.5 18.82 18.82 0 0 1 .51-4 13.1 13.1 0 0 0 .35-3.11 9 9 0 0 0-.61-2.58c-.34-.75-1-2-1.36-2.7s-1.89-2.77-3.56-4.91a45 45 0 0 0-3.87-4.47 21.77 21.77 0 0 0-2.36-1.63 18.43 18.43 0 0 1-2.6-1.92l-.15-.13a20 20 0 0 1-2.32-2.67 10.84 10.84 0 0 0-1.85-2 10.22 10.22 0 0 0-2.3-1.22 22.57 22.57 0 0 0-2.9-.72 27.37 27.37 0 0 0-3.2-.28 33.87 33.87 0 0 1-3.68-.31 31.6 31.6 0 0 1-3.53-.78c-.93-.28-3.23-1.13-5.12-1.91-1.24-.51-2.73-1-3.81-1.37-.37-.11-.69-.21-.91-.25a13.61 13.61 0 0 0-2.84-.2 10.42 10.42 0 0 0-2.6.59 12.24 12.24 0 0 0-2.22 1.29l-.27.2c-.82.68-2.1 1.61-2.92 2.08a30.48 30.48 0 0 1-2.91 1.58c-.81.37-3.09 1.19-5.2 1.87s-5.36 1.91-7.49 2.82a37.37 37.37 0 0 0-5.38 2.77 26.93 26.93 0 0 0-3.01 2.66zM75.53 48.06a27 27 0 0 0-2.71-2 17.36 17.36 0 0 0-2.72-1.37 11.46 11.46 0 0 0-2.52-.55c-.85-.06-2.25-.24-3.12-.4s-2.32-.51-3.24-.78a9.29 9.29 0 0 0-2.62-.28 10.18 10.18 0 0 0-2.66.7 25.79 25.79 0 0 1-3.27 1.17 17.48 17.48 0 0 1-3.11.49 5.61 5.61 0 0 0-1.91.54 9 9 0 0 0-1.92 1.61c-.65.74-3.51 3.52-6.5 6.32-2.78 2.6-5.77 5.5-6.4 6.21s-1.63 2-2.19 2.74a4.42 4.42 0 0 0-.57 1.08 1.15 1.15 0 0 0 .31.11A26.36 26.36 0 0 0 33 64a26.39 26.39 0 0 0 2.64 0h.84c.77 0 1.62 0 2.19.09s1.88.25 2.74.42l.28.06a6.94 6.94 0 0 0 2.21.08 8 8 0 0 0 2.17-.83c.68-.41 1.66-1 2.13-1.39a11.72 11.72 0 0 0 1.25-1.05A10.29 10.29 0 0 1 51 60.13a15.57 15.57 0 0 1 1.92-1 3 3 0 0 0 .89-.67 3.08 3.08 0 0 0 .37-1.06 6.61 6.61 0 0 1 .69-2.29 4 4 0 0 1 1.77-1.55 3.2 3.2 0 0 1 2.18-.1 2.8 2.8 0 0 1 1.51 1.67 2.63 2.63 0 0 0 .4.61 6.6 6.6 0 0 0 1 .83 12 12 0 0 1 1.73 1.37 10.92 10.92 0 0 1 1.36 1.68 3.84 3.84 0 0 0 .74.81 3.12 3.12 0 0 0 .9.37h.14c.49.11 1.54.38 2.61.69l.47.14a25.83 25.83 0 0 0 3.38.77 16.52 16.52 0 0 0 2.48 0c1-.08 4.46.06 7.3.23a34.3 34.3 0 0 0 3.46.05c-.82-1.32-2.25-3.47-4.24-6.22-1.46-2-3-4.13-4.33-5.78a31.21 31.21 0 0 0-2.2-2.62z"/><path d="M112.36 108.78a10.43 10.43 0 0 0-.74-3.12c-.36-.8-1-2.07-1.43-2.82s-2.09-3.05-3.69-5.1a44.81 44.81 0 0 0-4.1-4.71 23.38 23.38 0 0 0-2.54-1.78 17.06 17.06 0 0 1-2.5-1.86A18.57 18.57 0 0 1 95.27 87a12.32 12.32 0 0 0-2.17-2.28 11.55 11.55 0 0 0-2.73-1.44h-.06a24.32 24.32 0 0 0-2.51-.65 17.18 17.18 0 0 0 2.36 1.74 23.38 23.38 0 0 1 2.54 1.78 44.81 44.81 0 0 1 4.1 4.71c1.6 2 3.26 4.34 3.69 5.1s1.07 2 1.43 2.82a10.43 10.43 0 0 1 .74 3.12 14.51 14.51 0 0 1-.39 3.56 17.39 17.39 0 0 0-.47 3.63 46.05 46.05 0 0 0 1.41 7.09c.77 2.94 1 5.78.61 6.31s-4.28 1-8.55 1.07-11.21-.17-15.41-.49-9.36-.91-11.46-1.3-4.68-.77-5.73-.84a24.89 24.89 0 0 0-3.83.1 27 27 0 0 0-3.85.81 15.13 15.13 0 0 1-3.92.54 16.8 16.8 0 0 1-4-.71 3.71 3.71 0 0 0-3 .14 4.47 4.47 0 0 0-.87 3.11 11.77 11.77 0 0 0 .88 3.88 6.91 6.91 0 0 0 2.23 2.46 25.4 25.4 0 0 1 2.68 1.89 21.92 21.92 0 0 1 2.22 2.2 11.79 11.79 0 0 0 2.28 2 12.92 12.92 0 0 0 2.86 1.23l.36.08-.69-.44a6.64 6.64 0 0 1-1.62-1.51 5.55 5.55 0 0 1-.61-.94 11.77 11.77 0 0 1-.88-3.88 4.47 4.47 0 0 1 .87-3.11 3.71 3.71 0 0 1 3-.14 16.8 16.8 0 0 0 4 .71 15.13 15.13 0 0 0 3.92-.54 27 27 0 0 1 3.85-.81 24.89 24.89 0 0 1 3.83-.1c1.05.07 3.63.45 5.73.84s7.26 1 11.46 1.3 11.14.54 15.41.49 8.12-.54 8.55-1.07.16-3.38-.61-6.31a46.05 46.05 0 0 1-1.41-7.09 17.39 17.39 0 0 1 .47-3.63 14.51 14.51 0 0 0 .38-3.65zM105.38 150.78c1.74-2.4 3.49-5 3.89-5.72a16.69 16.69 0 0 0 1.09-2.57 2.46 2.46 0 0 0-.32-2 5.33 5.33 0 0 0-2.43-1.22 29.65 29.65 0 0 0-3.57-.55 33.31 33.31 0 0 0-3.62 0H99.24c-.68 1.08-2.12 3.18-3.56 5.17a57 57 0 0 1-4.44 5.55 20.4 20.4 0 0 1-2.79 2.09 19 19 0 0 1-3.19 1.46 20.2 20.2 0 0 1-3.5.74A15.83 15.83 0 0 0 75 156a12.18 12.18 0 0 1-3.27 1.32 38.28 38.28 0 0 1-7.12-.13 38.9 38.9 0 0 0-7.11-.19 17.48 17.48 0 0 0-3.25 1.08 10.36 10.36 0 0 1-3.12.83 16.48 16.48 0 0 1-4.56-.9c-1.66-.55-3.71-1.14-4.54-1.33a21.4 21.4 0 0 1-3.2-1.06c-.77-.33-3.16-1.67-5.67-3.16.47.53 1 1 1.35 1.4a34.86 34.86 0 0 0 3.31 2.38c1.12.74 2.38 1.54 3.62 2.3 3 1.82 6.19 3.63 7.11 4a21.4 21.4 0 0 0 3.2 1.06c.84.18 2.88.78 4.54 1.33a16.48 16.48 0 0 0 4.56.9 10.36 10.36 0 0 0 3.12-.83 17.48 17.48 0 0 1 3.24-1 38.9 38.9 0 0 1 7.09.14 38.28 38.28 0 0 0 7.12.13 12.18 12.18 0 0 0 3.27-1.32 15.83 15.83 0 0 1 6.79-2.31 20.2 20.2 0 0 0 3.5-.74 19 19 0 0 0 3.19-1.46 20.4 20.4 0 0 0 2.79-2.09 57 57 0 0 0 4.42-5.57zM86.23 53.87a28.46 28.46 0 0 0-2.89-2.18 19 19 0 0 0-2.78-1.42l-.24-.1a12 12 0 0 0-1.4-.39c1.25 1.6 2.82 3.68 4.36 5.82 3 4.11 5.34 7.8 5.27 8.18s-2.69.55-5.8.36-6.31-.3-7.1-.24a18.29 18.29 0 0 1-2.76 0 26.62 26.62 0 0 1-3.61-.81l-.5-.14a4.14 4.14 0 0 0 .52.74 6.69 6.69 0 0 0 .75.65c.2.16.41.31.59.42a10.65 10.65 0 0 1 1.48 1.17 9.53 9.53 0 0 1 1.14 1.42 5.18 5.18 0 0 0 1.14 1.24 4.56 4.56 0 0 0 1.49.62c.46.09 1.85.46 3.1.83a26.62 26.62 0 0 0 3.61.81 18.29 18.29 0 0 0 2.76 0c.78-.06 4 0 7.1.24s5.73 0 5.8-.36S96 66.67 93 62.55a101.05 101.05 0 0 0-6.77-8.68zM63.56 60.38A9.53 9.53 0 0 0 62.42 59a10.65 10.65 0 0 0-1.48-1.17 8 8 0 0 1-1.34-1.08 3.94 3.94 0 0 1-.71-1.15 1.36 1.36 0 0 0-.63-.76 1.77 1.77 0 0 0-1.08.1 2.49 2.49 0 0 0-1 .91 5.17 5.17 0 0 0-.49 1.7A4.38 4.38 0 0 1 55 59.3a4.33 4.33 0 0 1-1.49 1.16 14.14 14.14 0 0 0-1.7.91 8.83 8.83 0 0 0-1.27 1 13.12 13.12 0 0 1-1.46 1.23c-.51.37-1.52 1-2.25 1.46a9.41 9.41 0 0 1-2.69 1 8.55 8.55 0 0 1-2.77-.06h-.26l-.73.88c-.46.57-.92 1.17-1.25 1.62a4.15 4.15 0 0 0-.9 2.37A2 2 0 0 0 39.79 72a28.22 28.22 0 0 0 2.81.39 27.89 27.89 0 0 0 2.82 0h1.5c.5 0 1 0 1.33.07h.21A13.85 13.85 0 0 1 51 71.09a11.76 11.76 0 0 1 3.07-.7 15.08 15.08 0 0 1 3.23.23c.26.05.63.15 1.06.28l.44-.31.55-.43a11 11 0 0 0 .91-.8 8.83 8.83 0 0 1 1.27-1 14.14 14.14 0 0 1 1.7-.91 4.33 4.33 0 0 0 1.49-1.16 4.38 4.38 0 0 0 .65-1.78 5.8 5.8 0 0 1 .32-1.32 2.64 2.64 0 0 1 .17-.38 2.3 2.3 0 0 1 .43-.5h-.1a4.56 4.56 0 0 1-1.49-.62 5.18 5.18 0 0 1-1.14-1.31z"/></svg>