<svg xmlns="http://www.w3.org/2000/svg" width="200" height="200" viewBox="0 0 200 200"><title>_</title><path d="M79.44,75.29c-0.79.36-3.06,1.17-5.15,1.85S68.9,79.05,66.76,80a37.89,37.89,0,0,0-5.47,2.82,27.48,27.48,0,0,0-3.08,2.69c-0.79.83-2.63,3.11-4,5a40.7,40.7,0,0,0-3.27,5,34.09,34.09,0,0,0-1.41,6.14,38.58,38.58,0,0,0-.55,6,18.15,18.15,0,0,0,.61,2.91,12.41,12.41,0,0,1,.5,3.43,12.82,12.82,0,0,1-.67,3.44,13.14,13.14,0,0,0-.63,2.84A11.86,11.86,0,0,0,49,123a13.17,13.17,0,0,0,1,2.66,14.28,14.28,0,0,0,1.66,2.4A23.24,23.24,0,0,1,53.71,131a31.24,31.24,0,0,1,1.75,3.54c0.4,1,1.17,2.59,1.68,3.52s1.48,2.45,2.12,3.35a23.56,23.56,0,0,0,2.57,2.91,65.26,65.26,0,0,0,6.77,4.57L70,149.77c2.51,1.49,4.85,2.8,5.56,3.1a20.56,20.56,0,0,0,3,1c0.87,0.19,3,.8,4.64,1.35a15.84,15.84,0,0,0,4.19.85,9.45,9.45,0,0,0,2.76-.74,18.41,18.41,0,0,1,3.48-1.15,39.69,39.69,0,0,1,7.37.13,38.47,38.47,0,0,0,6.83.14,11.15,11.15,0,0,0,2.94-1.19A16.82,16.82,0,0,1,118,150.8a19.28,19.28,0,0,0,3.29-.69,18,18,0,0,0,3-1.37,19.5,19.5,0,0,0,2.62-2,56.14,56.14,0,0,0,4.31-5.4c1.39-1.91,2.83-4,3.52-5.12,0.12-.2.23-0.37,0.29-0.48a15.68,15.68,0,0,0,1-2.39,1.54,1.54,0,0,0-.13-1.11,4.67,4.67,0,0,0-1.89-.89,28.73,28.73,0,0,0-3.42-.52,31.62,31.62,0,0,0-3.61,0c-1.09.07-5.43,0-9.67-.21a66,66,0,0,0-8.57,0,3.13,3.13,0,0,0-1.26.75,8.39,8.39,0,0,1-1.45,1.48,19,19,0,0,1-3.34,1.58,27.24,27.24,0,0,0-3,1.34c-0.41.25-1.12,0.76-1.56,1.12a5.64,5.64,0,0,1-2.59,1,10,10,0,0,1-2.75-.24l-0.1,0-0.31-.07a13.91,13.91,0,0,1-3.12-1.35A12.69,12.69,0,0,1,86.74,134a21.14,21.14,0,0,0-2.1-2.08,24.56,24.56,0,0,0-2.55-1.8,7.93,7.93,0,0,1-2.62-2.87,12.69,12.69,0,0,1-1-4.28c-0.06-1.39.34-3.18,1.23-3.92s2.69-.74,4-0.32a15.83,15.83,0,0,0,3.75.66,14.16,14.16,0,0,0,3.61-.5,28.3,28.3,0,0,1,4-.85,26.44,26.44,0,0,1,4-.1c1.08,0.08,3.71.46,5.85,0.86s7.17,1,11.36,1.29,11.07,0.54,15.32.49a34,34,0,0,0,7.75-.75,18,18,0,0,0-.76-5.38,46.76,46.76,0,0,1-1.44-7.33,18.24,18.24,0,0,1,.5-3.89A13.51,13.51,0,0,0,138,100a9.51,9.51,0,0,0-.65-2.76c-0.34-.76-1-2-1.39-2.74s-1.89-2.78-3.6-5a44.91,44.91,0,0,0-4-4.55A22.43,22.43,0,0,0,126,83.3a17.91,17.91,0,0,1-2.52-1.86l-0.15-.13a19.4,19.4,0,0,1-2.24-2.58,11.28,11.28,0,0,0-2-2.06,10.71,10.71,0,0,0-2.44-1.29,23.3,23.3,0,0,0-3-.74,28.05,28.05,0,0,0-3.28-.29,33.1,33.1,0,0,1-3.61-.3,30.82,30.82,0,0,1-3.46-.77c-0.92-.27-3.2-1.12-5.08-1.89-1.24-.51-2.76-1.05-3.85-1.39-0.39-.12-0.73-0.21-1-0.26a13.88,13.88,0,0,0-3-.21,10.84,10.84,0,0,0-2.76.63,12.79,12.79,0,0,0-2.33,1.35l-0.14.1-0.16.12c-0.78.62-2.05,1.54-2.84,2A29.56,29.56,0,0,1,79.44,75.29Z" fill="#231f20"/><path d="M112.24,45.8a27.58,27.58,0,0,0-2.77-2.08,17.62,17.62,0,0,0-2.82-1.42,11.88,11.88,0,0,0-2.66-.58c-0.83-.06-2.2-0.24-3.07-0.4s-2.29-.5-3.19-0.76a9.72,9.72,0,0,0-2.8-.3,10.62,10.62,0,0,0-2.82.75,25.14,25.14,0,0,1-3.19,1.15,16.85,16.85,0,0,1-3,.47,6,6,0,0,0-2.13.6,9.51,9.51,0,0,0-2.06,1.72c-0.64.73-3.48,3.49-6.46,6.29s-5.79,5.52-6.43,6.25-1.66,2-2.22,2.78a4.19,4.19,0,0,0-.72,1.58,1.53,1.53,0,0,0,.77.4c0.73,0.15,2,.32,2.69.38s2,0.08,2.7,0l0.82,0c0.73,0,1.57,0,2.15.08s1.84,0.24,2.68.42L78,63.19a7.47,7.47,0,0,0,2.39.08,8.45,8.45,0,0,0,2.34-.89C83.4,62,84.4,61.32,84.88,61a12.21,12.21,0,0,0,1.32-1.11,9.84,9.84,0,0,1,1.45-1.19,15.12,15.12,0,0,1,1.84-1,3.43,3.43,0,0,0,1.09-.83,3.48,3.48,0,0,0,.46-1.3,6.17,6.17,0,0,1,.63-2.1,3.47,3.47,0,0,1,1.52-1.34A2.71,2.71,0,0,1,95,52a2.31,2.31,0,0,1,1.21,1.37,3,3,0,0,0,.5.79,7,7,0,0,0,1.14.91,11.65,11.65,0,0,1,1.65,1.3,10.6,10.6,0,0,1,1.28,1.6,4.25,4.25,0,0,0,.87,1,3.58,3.58,0,0,0,1.1.46l0.12,0c0.48,0.1,1.52.38,2.58,0.68l0.47,0.14a26.15,26.15,0,0,0,3.46.79A17.33,17.33,0,0,0,112,61c0.93-.07,4.41.06,7.23,0.24a30.83,30.83,0,0,0,4.35,0c-0.73-1.25-2.37-3.75-4.69-7-1.48-2-3.06-4.16-4.34-5.79A30.82,30.82,0,0,0,112.24,45.8Z" fill="#231f20"/><path d="M126.53,82.43a23.34,23.34,0,0,1,2.54,1.78,44.79,44.79,0,0,1,4.1,4.71c1.6,2,3.26,4.34,3.69,5.1s1.07,2,1.43,2.82A10.43,10.43,0,0,1,139,100a14.51,14.51,0,0,1-.39,3.56,17.39,17.39,0,0,0-.47,3.63,46.05,46.05,0,0,0,1.41,7.09c0.77,2.94,1,5.78.61,6.31s-4.28,1-8.55,1.07-11.21-.17-15.41-0.49-9.36-.91-11.46-1.3-4.68-.77-5.73-0.84a24.92,24.92,0,0,0-3.83.1,27,27,0,0,0-3.85.81,15.12,15.12,0,0,1-3.92.54,16.79,16.79,0,0,1-4-.71,3.72,3.72,0,0,0-3,.14,4.47,4.47,0,0,0-.87,3.11,11.77,11.77,0,0,0,.88,3.88,6.9,6.9,0,0,0,2.23,2.46,25.43,25.43,0,0,1,2.68,1.89,22,22,0,0,1,2.22,2.2,11.79,11.79,0,0,0,2.28,2,12.92,12.92,0,0,0,2.86,1.23L93,136.69l-0.69-.44a6.64,6.64,0,0,1-1.62-1.51,5.54,5.54,0,0,1-.61-0.94,11.77,11.77,0,0,1-.88-3.88,4.47,4.47,0,0,1,.87-3.11,3.72,3.72,0,0,1,3-.14,16.79,16.79,0,0,0,4,.71,15.12,15.12,0,0,0,3.92-.54,27,27,0,0,1,3.85-.81,24.92,24.92,0,0,1,3.83-.1c1.05,0.07,3.63.45,5.73,0.84s7.26,1,11.46,1.3,11.14,0.54,15.41.49,8.12-.54,8.55-1.07,0.16-3.38-.61-6.31a46.05,46.05,0,0,1-1.41-7.09,17.39,17.39,0,0,1,.47-3.63,14.51,14.51,0,0,0,.39-3.56,10.43,10.43,0,0,0-.74-3.12c-0.36-.8-1-2.07-1.43-2.82s-2.09-3.05-3.69-5.1a44.79,44.79,0,0,0-4.1-4.71,23.34,23.34,0,0,0-2.54-1.78,17.08,17.08,0,0,1-2.5-1.86,18.56,18.56,0,0,1-2.1-2.42,12.32,12.32,0,0,0-2.17-2.28,11.55,11.55,0,0,0-2.73-1.44l-0.06,0a24.32,24.32,0,0,0-2.51-.65A17.18,17.18,0,0,0,126.53,82.43Z" fill="#231f20"/><path d="M135.6,136.78c-0.68,1.08-2.12,3.18-3.56,5.17a57,57,0,0,1-4.44,5.55,20.41,20.41,0,0,1-2.79,2.09,18.93,18.93,0,0,1-3.19,1.46,20.2,20.2,0,0,1-3.5.74,15.83,15.83,0,0,0-6.79,2.31,12.17,12.17,0,0,1-3.27,1.32,38.25,38.25,0,0,1-7.12-.13,39,39,0,0,0-7.09-.14,17.46,17.46,0,0,0-3.25,1.08,10.37,10.37,0,0,1-3.12.83,16.49,16.49,0,0,1-4.56-.9c-1.66-.55-3.71-1.14-4.54-1.33a21.4,21.4,0,0,1-3.2-1.06c-0.77-.33-3.16-1.67-5.67-3.16,0.47,0.53,1,1,1.35,1.4a34.86,34.86,0,0,0,3.31,2.38c1.12,0.74,2.38,1.54,3.62,2.3,3,1.82,6.19,3.63,7.11,4a21.4,21.4,0,0,0,3.2,1.06c0.84,0.18,2.88.78,4.54,1.33a16.49,16.49,0,0,0,4.56.9,10.37,10.37,0,0,0,3.12-.83,17.46,17.46,0,0,1,3.25-1.08,39,39,0,0,1,7.09.14,38.25,38.25,0,0,0,7.12.13,12.17,12.17,0,0,0,3.27-1.32,15.83,15.83,0,0,1,6.79-2.31,20.2,20.2,0,0,0,3.5-.74,18.93,18.93,0,0,0,3.19-1.46,20.41,20.41,0,0,0,2.79-2.09,57,57,0,0,0,4.44-5.55c1.74-2.4,3.49-5,3.89-5.72a16.68,16.68,0,0,0,1.09-2.57,2.46,2.46,0,0,0-.32-2,5.34,5.34,0,0,0-2.43-1.22,29.65,29.65,0,0,0-3.57-.55,33.25,33.25,0,0,0-3.62,0h-0.12Z" fill="#231f20"/><path d="M115.3,47.91c1.25,1.6,2.82,3.68,4.36,5.82,3,4.11,5.34,7.8,5.27,8.18s-2.69.55-5.8,0.36S112.81,62,112,62a18.25,18.25,0,0,1-2.76,0,26.62,26.62,0,0,1-3.61-.81l-0.5-.14a4.13,4.13,0,0,0,.52.74,6.69,6.69,0,0,0,.75.65c0.2,0.16.41,0.31,0.59,0.42A10.63,10.63,0,0,1,108.5,64a9.56,9.56,0,0,1,1.14,1.42,5.17,5.17,0,0,0,1.14,1.24,4.56,4.56,0,0,0,1.49.62c0.46,0.09,1.85.46,3.1,0.83a26.62,26.62,0,0,0,3.61.81,18.25,18.25,0,0,0,2.76,0c0.78-.06,4,0,7.1.24s5.73,0,5.8-.36-2.3-4.07-5.27-8.18A101,101,0,0,0,122.61,52a28.42,28.42,0,0,0-2.89-2.18,19,19,0,0,0-2.78-1.42l-0.24-.1A12,12,0,0,0,115.3,47.91Z" fill="#231f20"/><path d="M84.83,70.68a13.87,13.87,0,0,1,2.54-1.47,11.76,11.76,0,0,1,3.07-.7,15.1,15.1,0,0,1,3.23.23c0.26,0.05.63,0.15,1.06,0.28l0.44-.31,0.55-.43a10.91,10.91,0,0,0,.91-0.8,8.82,8.82,0,0,1,1.27-1,14.18,14.18,0,0,1,1.7-.91,4.33,4.33,0,0,0,1.49-1.16,4.38,4.38,0,0,0,.65-1.78,5.8,5.8,0,0,1,.32-1.32,2.64,2.64,0,0,1,.17-0.38,2.3,2.3,0,0,1,.43-0.5l-0.1,0a4.56,4.56,0,0,1-1.49-.62,5.17,5.17,0,0,1-1.14-1.24,9.56,9.56,0,0,0-1.14-1.42,10.63,10.63,0,0,0-1.48-1.17A8,8,0,0,1,96,54.84a3.94,3.94,0,0,1-.71-1.15,1.36,1.36,0,0,0-.63-0.76,1.77,1.77,0,0,0-1.08.1,2.49,2.49,0,0,0-1,.91,5.17,5.17,0,0,0-.49,1.7,4.38,4.38,0,0,1-.65,1.78,4.33,4.33,0,0,1-1.49,1.16,14.18,14.18,0,0,0-1.7.91,8.82,8.82,0,0,0-1.27,1,13.14,13.14,0,0,1-1.46,1.23c-0.51.37-1.52,1-2.25,1.46a9.4,9.4,0,0,1-2.69,1,8.55,8.55,0,0,1-2.78-.09l-0.26-.05L76.76,65c-0.46.57-.92,1.17-1.25,1.62A4.15,4.15,0,0,0,74.6,69a2,2,0,0,0,1.56,1.17,28.22,28.22,0,0,0,2.81.39,27.89,27.89,0,0,0,2.82,0c0.41,0,1,0,1.5,0s1,0,1.33.07Z" fill="#231f20"/></svg>