<svg xmlns="http://www.w3.org/2000/svg" width="117.11" height="200" viewBox="0 0 117.11 200"><title>_</title><path d="M88.6 44.27a3.86 3.86 0 0 0-1.5-.31 17.71 17.71 0 0 0-3.26.37 17.28 17.28 0 0 0-3 1.09 15.81 15.81 0 0 1-3.67 1.21c-1.39.24-5.07-.3-7.19-.71a31.72 31.72 0 0 0-4.27-.58v.06a22 22 0 0 1 .59 2.93c.05.46.09 1.1.09 1.76v1.09a16 16 0 0 1-.56 2.82 18.41 18.41 0 0 1-1.11 2.78A9.47 9.47 0 0 0 64 59a11.81 11.81 0 0 0 0 2.6 3.1 3.1 0 0 0 .71 1.53 4.63 4.63 0 0 0 1.58.66 4.3 4.3 0 0 0 .52.1 11.68 11.68 0 0 0 3.14-.15 11.14 11.14 0 0 0 2-.75 9.11 9.11 0 0 0 .9-.47 8.78 8.78 0 0 1 4-1.23 8.81 8.81 0 0 1 4.07 1.27 12.16 12.16 0 0 0 2.95 1.26 12.47 12.47 0 0 0 3.23.18 3.57 3.57 0 0 0 1.59-.53 3 3 0 0 0-.09-1.15 11.67 11.67 0 0 1-.52-3.63 9 9 0 0 1 .92-3.31 5.6 5.6 0 0 0 .56-1.85 5.11 5.11 0 0 0-.37-1.81c0-.11-.1-.24-.15-.37a11.49 11.49 0 0 1-.67-2.77 13.54 13.54 0 0 1 .24-3.37 1.94 1.94 0 0 0-.01-.94zM101 102.52a23.31 23.31 0 0 0-2.79-4.74 75 75 0 0 0-6.72-7.7 84.77 84.77 0 0 0-6.35-5.74 29.82 29.82 0 0 1-3.26-2.82c-.14-.14-.26-.28-.36-.39a22.47 22.47 0 0 1-2.1-3.13 7.13 7.13 0 0 0-1.76-2 6.51 6.51 0 0 0-2.45-.82 31.32 31.32 0 0 0-3.39-.09 31.29 31.29 0 0 0-3.37.36 17.93 17.93 0 0 1-3.88.18 17.33 17.33 0 0 1-3.76-.83 13.49 13.49 0 0 0-2.81-.68 10.66 10.66 0 0 0-2.63.2 18.28 18.28 0 0 1-3.4.42 21.15 21.15 0 0 1-3.49-.34 12.1 12.1 0 0 0-2.73-.17 46.82 46.82 0 0 0-6.47 2 37.19 37.19 0 0 0-6.59 3 81.3 81.3 0 0 0-7.11 9.16l-.58.9c-3.51 5-6 8.92-6.32 9.53a23.9 23.9 0 0 0-1 2.81c-.23.83-.67 2.17-1 3s-.89 2.14-1.29 2.94a9.82 9.82 0 0 0-.79 2.43 66.44 66.44 0 0 0 1 8.44 83.82 83.82 0 0 1 1.18 9.34 25.1 25.1 0 0 1-.52 3.64 4.88 4.88 0 0 0 .19 2.39 7.81 7.81 0 0 0 2 2.33 30.39 30.39 0 0 1 3.4 3.11 27 27 0 0 1 2.65 3.58 23.89 23.89 0 0 0 2.25 3.06 60.37 60.37 0 0 0 6.39 5c1.41 1 2.93 2 4.28 2.81a13.66 13.66 0 0 0 2.29 1.23 24.45 24.45 0 0 0 6 0c2.58-.23 5.3-.41 6.33-.41h.16c1 0 4.19.47 6.66.88a47.48 47.48 0 0 0 6.38.76 17.21 17.21 0 0 0 3.17-.45 32.54 32.54 0 0 1 3.74-.69 34.55 34.55 0 0 1 3.85-.16 8.41 8.41 0 0 0 2.83-.49 9.28 9.28 0 0 0 2.44-1.68c.89-.9 5.49-4.57 9.43-7.58l.67-.51c5-3.82 8.25-6.86 8.53-7.35l.15-.28a14 14 0 0 0 1.06-3.23 4.57 4.57 0 0 0-.19-2.4 2.3 2.3 0 0 0-.91-.53 3.17 3.17 0 0 0-.84-.19 15.05 15.05 0 0 0-3.61.25 16.86 16.86 0 0 0-3 1.08l-.56.25a11.74 11.74 0 0 1-4.54 1.2 11.05 11.05 0 0 1-4.46-1.23 18 18 0 0 0-3.51-1.39l-.46-.1a15.76 15.76 0 0 0-3.05-.26 6.72 6.72 0 0 0-2.17.5l-.19.1a2.57 2.57 0 0 0-.79 1.24 6.5 6.5 0 0 1-1.39 2.89 4.2 4.2 0 0 1-2.9 1.14 4.53 4.53 0 0 0-1.27.25 3.08 3.08 0 0 0-.85.76 3.84 3.84 0 0 1-4.84 1.5 17.94 17.94 0 0 0-1.93-.58c-.4-.09-2.4-.38-5.11-.68l-.61-.07c-1.76-.19-5.4-.77-6.63-1.6a8.65 8.65 0 0 1-2.5-2.95 20.11 20.11 0 0 1-1.25-3.37 18 18 0 0 1-.46-3.46 6 6 0 0 1 1.25-3.63 8.19 8.19 0 0 1 3.46-2.09 16.78 16.78 0 0 1 4.15-.62 17.78 17.78 0 0 1 4.25.63 26.27 26.27 0 0 0 3.6.74 60.77 60.77 0 0 0 7.37-.21 62.84 62.84 0 0 1 7.92-.21 26.59 26.59 0 0 1 4.1.87 16 16 0 0 0 3.42.6 16.27 16.27 0 0 0 3.41-.36c1.11-.27 5.35-1 9.46-1.58a45.24 45.24 0 0 0 7.87-1.65 3.29 3.29 0 0 0 .82-1.2 4.68 4.68 0 0 0 0-1.85 10.19 10.19 0 0 0-1.13-2.48 14.43 14.43 0 0 1-1.62-3.69 13.81 13.81 0 0 1-.27-4 11.32 11.32 0 0 0-.15-2.84zM30.68 62a4.31 4.31 0 0 0 .74-.11 31.62 31.62 0 0 1 3.6-.63c.68-.07 1.66-.11 2.56-.11h1c.43 0 1 .08 1.55.16.75.1 1.45.22 2 .33a27.61 27.61 0 0 1 3.49 1.09 17.31 17.31 0 0 0 3.06.83 19.86 19.86 0 0 0 3.33.15 5 5 0 0 0 2.1-.71 3.24 3.24 0 0 0 .83-1.53 6.89 6.89 0 0 0 0-2.36 6.89 6.89 0 0 0-1.09-2.1 6.12 6.12 0 0 1-1.35-3.46 6.18 6.18 0 0 1 1.39-3.45 5.31 5.31 0 0 0 .4-.58A6.74 6.74 0 0 0 55 48a7.39 7.39 0 0 0 0-2.44 2 2 0 0 0-.55-1 4.58 4.58 0 0 0-1.91.19 14.45 14.45 0 0 1-4.21.66 12.32 12.32 0 0 1-4-.85 9.62 9.62 0 0 0-2.72-.64 9 9 0 0 0-2.7.43 15.85 15.85 0 0 1-3.79.74 18 18 0 0 1-4-.34 3.93 3.93 0 0 0-1.74 0 2.21 2.21 0 0 0-.27.87 10.52 10.52 0 0 0 .26 2.49 9.92 9.92 0 0 0 1 2.22 10.65 10.65 0 0 1 1.29 3c.28 1.26-.32 4.39-.67 5.88a15.79 15.79 0 0 0-.31 2.79z"/><path d="M100.81 60.55a6.49 6.49 0 0 0-.51-2.5 9.69 9.69 0 0 1-.69-2.65 12 12 0 0 1 .21-2.93 2.85 2.85 0 0 0-.43-2.3 4.32 4.32 0 0 0-2.61-.76 19.43 19.43 0 0 0-3.58.41 16.72 16.72 0 0 0-1.82.57c-.32.12-.64.24-.93.36 0 .12.09.26.14.36a6.49 6.49 0 0 1 .51 2.5 6.94 6.94 0 0 1-.75 2.5 7.55 7.55 0 0 0-.77 2.7 10.3 10.3 0 0 0 .42 3.08 3.21 3.21 0 0 1-.17 2.55 4.33 4.33 0 0 1-2.62 1.09 11 11 0 0 1-7.1-1.7 7.36 7.36 0 0 0-3.25-1 7.3 7.3 0 0 0-3.25 1 10.56 10.56 0 0 1-1 .56 10 10 0 0 0-.32 1.23v.13a13.24 13.24 0 0 0 0 3 4.47 4.47 0 0 0 1.22 2.49 6.34 6.34 0 0 0 2.92 1.12 13.07 13.07 0 0 0 3.57-.21 13.26 13.26 0 0 0 3.38-1.41 7.3 7.3 0 0 1 3.25-1 7.36 7.36 0 0 1 3.25 1 11 11 0 0 0 7.1 1.7 4.33 4.33 0 0 0 2.62-1.09 3.21 3.21 0 0 0 .17-2.55 10.3 10.3 0 0 1-.45-3.08 7.55 7.55 0 0 1 .77-2.7 6.94 6.94 0 0 0 .72-2.47zM114 119.2a12.87 12.87 0 0 1-1.42-3.24 12.25 12.25 0 0 1-.23-3.47 12.76 12.76 0 0 0-.16-3.34 22.89 22.89 0 0 0-3-5.3 76.79 76.79 0 0 0-6.94-7.85 84.85 84.85 0 0 0-6.51-5.87 25.13 25.13 0 0 1-3.36-3 21.06 21.06 0 0 1-1.94-2.89 8.54 8.54 0 0 0-2.24-2.56 8 8 0 0 0-3.15-1.07h-.59c-.47 0-1 0-1.51-.06A28.48 28.48 0 0 0 86 83.14 84.85 84.85 0 0 1 92.54 89a76.79 76.79 0 0 1 6.88 7.89 22.89 22.89 0 0 1 3 5.3 12.76 12.76 0 0 1 .16 3.34 12.25 12.25 0 0 0 .23 3.47 12.87 12.87 0 0 0 1.42 3.24 11.43 11.43 0 0 1 1.33 3 6.07 6.07 0 0 1 0 2.62 4.62 4.62 0 0 1-1.43 2c-.58.44-4.4 1.28-8.48 1.88s-8.27 1.3-9.32 1.56a16.92 16.92 0 0 1-3.82.4 17.39 17.39 0 0 1-3.81-.7 24.82 24.82 0 0 0-3.82-.82 62.81 62.81 0 0 0-7.64.21 62 62 0 0 1-7.65.21 27.82 27.82 0 0 1-3.85-.79 16.35 16.35 0 0 0-3.81-.57 15.27 15.27 0 0 0-3.73.56 6.88 6.88 0 0 0-2.75 1.63 4.59 4.59 0 0 0-.89 2.64 16.56 16.56 0 0 0 .44 3.13 18.75 18.75 0 0 0 1.14 3.08 7.19 7.19 0 0 0 2 2.37 19.76 19.76 0 0 0 6 1.35l.61.07c-.07-.3-.13-.66-.19-1a15.66 15.66 0 0 1-.2-2 4.59 4.59 0 0 1 .89-2.64A6.88 6.88 0 0 1 58 128.8a15.27 15.27 0 0 1 3.73-.56 16.35 16.35 0 0 1 3.81.57 27.82 27.82 0 0 0 3.85.79 20.4 20.4 0 0 0 2.16 0h1.68a8.14 8.14 0 0 1 2.74-.64 17.18 17.18 0 0 1 3.39.28c1.09-.06 2.12-.09 3-.11a21.79 21.79 0 0 1 2.32 0 24.82 24.82 0 0 1 3.82.82 15 15 0 0 0 1.65.39 17.37 17.37 0 0 0 1.84.25 18.39 18.39 0 0 1 3.34-1.19 16.82 16.82 0 0 1 4-.28 4.73 4.73 0 0 1 1.25.28l1.65-.26 3.2-.49c4.08-.6 7.89-1.44 8.48-1.88a4.62 4.62 0 0 0 1.43-2 6.07 6.07 0 0 0 0-2.62 11.43 11.43 0 0 0-1.34-2.95zM102 152.75c4.37-3.35 8.38-6.85 8.92-7.8a14.8 14.8 0 0 0 1.38-4 5.69 5.69 0 0 0-.43-3.51 4.28 4.28 0 0 0-2.88-1.37 16.82 16.82 0 0 0-4 .28 16.22 16.22 0 0 0-2.22.72c-.47.18-.94.38-1.33.57-.06.13-.13.25-.19.36-.54.94-4.55 4.45-8.92 7.8l-.66.51c-4.37 3.35-8.54 6.7-9.28 7.45a10.63 10.63 0 0 1-2.93 2 10.06 10.06 0 0 1-3.44.6 31.46 31.46 0 0 0-3.64.15 30.17 30.17 0 0 0-3.53.65 18.72 18.72 0 0 1-3.5.5 52.28 52.28 0 0 1-6.69-.78c-2.71-.46-5.61-.85-6.44-.86s-3.68.16-6.32.4a25 25 0 0 1-6.54-.09 16.09 16.09 0 0 1-2.67-1.33c.84.7 2 1.58 3.17 2.49.71.51 1.44 1.04 2.14 1.51a42.43 42.43 0 0 0 7 4.25 25 25 0 0 0 6.54.09c2.64-.24 5.48-.42 6.32-.4s3.73.41 6.44.86a52.28 52.28 0 0 0 6.69.78 18.72 18.72 0 0 0 3.5-.5 30.17 30.17 0 0 1 3.53-.65 31.46 31.46 0 0 1 3.64-.15 10.06 10.06 0 0 0 3.44-.6 10.63 10.63 0 0 0 2.93-2c.74-.75 4.91-4.1 9.28-7.45zM41.49 70.24a29.52 29.52 0 0 1 3.4-.59 26.22 26.22 0 0 1 3.32-.08 23.66 23.66 0 0 1 3.27.45 26.15 26.15 0 0 1 3.26 1 17.29 17.29 0 0 0 1.91.6c.53.14 1.06.25 1.48.32a20.91 20.91 0 0 0 2.73.18h.92a6.32 6.32 0 0 0 3-1 4.61 4.61 0 0 0 1.39-2.44 8.67 8.67 0 0 0 0-2.41 5.1 5.1 0 0 0-.1-.6c0-.14-.1-.3-.16-.46a5.85 5.85 0 0 1-2.22-1 4.47 4.47 0 0 1-1.22-2.49 13.24 13.24 0 0 1 0-3 10.83 10.83 0 0 1 .87-2.67 17 17 0 0 0 1-2.51 14.48 14.48 0 0 0 .45-2.52v-1a2.71 2.71 0 0 0-1-.18 6.38 6.38 0 0 0-2 .29 13.66 13.66 0 0 1-3.71.59 9.49 9.49 0 0 1-1.61-.21 9.13 9.13 0 0 1-1-.25 6.78 6.78 0 0 1-.52.75 4.77 4.77 0 0 0-1 2.5 4.71 4.71 0 0 0 1 2.5 8.34 8.34 0 0 1 1.39 2.67 8.35 8.35 0 0 1 .07 3A4.61 4.61 0 0 1 55 64.23a6.32 6.32 0 0 1-3 1 21.16 21.16 0 0 1-3.6-.23 18.75 18.75 0 0 1-3.4-.9 26.15 26.15 0 0 0-3.26-1c-.5-.11-1.18-.22-1.84-.31 0 .31-.1.65-.16 1-.11.65-.24 1.32-.4 2-.52 2.17-.64 4.17-.27 4.44a3.72 3.72 0 0 0 2.42.01z"/></svg>