<svg xmlns="http://www.w3.org/2000/svg" width="73.15" height="200" viewBox="0 0 73.15 200"><title>_</title><path d="M45.35 81a19.65 19.65 0 0 0 .36-4.39 5 5 0 0 0-1.43.14 28.27 28.27 0 0 1-4.45.7 25.08 25.08 0 0 1-4.37-.2 28.24 28.24 0 0 0-3.75-.25 29.08 29.08 0 0 0-3.77.34 26.36 26.36 0 0 1-4.26.34 27.36 27.36 0 0 1-4.2-.45 4.3 4.3 0 0 0-1.29-.06 2 2 0 0 0 .08.63 16.33 16.33 0 0 1 .56 3.68 36.22 36.22 0 0 1-1.58 7.16 64.87 64.87 0 0 0-1.7 6.48 16.6 16.6 0 0 0-.05 3 23.87 23.87 0 0 0 .56 3.12 27.22 27.22 0 0 0 1.1 3.15 12.92 12.92 0 0 1 .93 3.89 12.32 12.32 0 0 1-.57 3.92A10.89 10.89 0 0 0 17 115a11.08 11.08 0 0 0 .51 2.88 17.6 17.6 0 0 1 .79 3.74 35 35 0 0 1-1.05 7.17 54.5 54.5 0 0 0-1.16 6.43 49.58 49.58 0 0 0 .88 6.41c.53 2.82 1.08 6.38 1.21 7.95a7.34 7.34 0 0 0 .59 2.4 33.46 33.46 0 0 0 5.5.69l1.94.12c2.58.18 4.83.4 5.73.57a40.19 40.19 0 0 1 4.18 1 26 26 0 0 0 3.86.84 30.36 30.36 0 0 0 4.15.14 5.82 5.82 0 0 0 2.67-.83 4.17 4.17 0 0 0 1-2.12 12.59 12.59 0 0 0-.07-3.35 11.86 11.86 0 0 0-1.19-3 7.56 7.56 0 0 1 0-8.28 15 15 0 0 0 1.33-3 11.37 11.37 0 0 0 .34-2.89 20.71 20.71 0 0 0-.44-3.09 24 24 0 0 0-1-3.12 9.92 9.92 0 0 1-.07-7.88 10.33 10.33 0 0 0 .63-2.85 10 10 0 0 0-.43-2.83 15.53 15.53 0 0 1-.69-3.8 15.15 15.15 0 0 1 .48-3.81 25.29 25.29 0 0 0 .62-3.13 23.42 23.42 0 0 0 .11-3.12 18.25 18.25 0 0 0-.42-2.98 21.69 21.69 0 0 0-1.14-3.1 16.55 16.55 0 0 1-1.19-3.77 28.57 28.57 0 0 1 .41-5.8c.09-.59.17-1.08.27-1.59zM32 62.09a8.55 8.55 0 0 1 3.38.64 6.32 6.32 0 0 0 2 .45 6.29 6.29 0 0 0 2-.47 10.88 10.88 0 0 1 3.1-.82 9.32 9.32 0 0 1 2.66.24c0-.12-.07-.25-.12-.39A16.4 16.4 0 0 0 43.78 59c-.35-.55-3-3.55-6.48-7.21l-.3-.24a54.65 54.65 0 0 0-6.39-6A9.86 9.86 0 0 0 28 45c-1 0-3.64-.3-5.79-.57S17.55 44 16.57 44a28.56 28.56 0 0 0-3.73.35 29.89 29.89 0 0 1-4.05.33l.45.36a55.9 55.9 0 0 1 5.81 7.11c2.09 2.91 4.53 6.07 5.32 6.91a30 30 0 0 0 3.17 2.79 9.34 9.34 0 0 0 2.88 1.41 3.18 3.18 0 0 0 .67 0A4.31 4.31 0 0 0 28.6 63a10.27 10.27 0 0 1 3.4-.91z"/><path d="M56.6 82.31a4.45 4.45 0 0 0-3-.1 26.71 26.71 0 0 1-4.16.66h-1.89l-1-.06a26 26 0 0 0-.41 5.34 15.13 15.13 0 0 0 1.07 3.36 23.17 23.17 0 0 1 1.24 3.36 19.84 19.84 0 0 1 .55 3.37 25.07 25.07 0 0 1-.11 3.36 26.52 26.52 0 0 1-.66 3.36 13.63 13.63 0 0 0-.42 3.36 14 14 0 0 0 .61 3.36 11.4 11.4 0 0 1 .5 3.36 11.84 11.84 0 0 1-.75 3.36 10.43 10.43 0 0 0-.67 3.36 10.56 10.56 0 0 0 .73 3.36 25.13 25.13 0 0 1 1.11 3.36 22.19 22.19 0 0 1 .48 3.36 12.74 12.74 0 0 1-.39 3.36 16.34 16.34 0 0 1-1.5 3.36 6.07 6.07 0 0 0 0 6.72 13.25 13.25 0 0 1 1.37 3.52 13.94 13.94 0 0 1 .09 3.85 5.56 5.56 0 0 1-1.55 3.06 7.09 7.09 0 0 1-3.55 1.18 30.9 30.9 0 0 1-4.41-.15 27.4 27.4 0 0 1-4.14-.9 38.72 38.72 0 0 0-4-1c-.86-.16-3.15-.38-5.56-.55.05.36.1.7.14 1 .07.53.12 1 .15 1.35a6.31 6.31 0 0 0 1.12 3.45c.48.38 3.35.84 6.38 1s6.39.47 7.48.67a38.72 38.72 0 0 1 4 1 27.4 27.4 0 0 0 4.14.9 30.9 30.9 0 0 0 4.41.15 7.09 7.09 0 0 0 3.55-1.18 5.56 5.56 0 0 0 1.55-3.06 13.94 13.94 0 0 0-.09-3.85 13.25 13.25 0 0 0-1.37-3.52 6.07 6.07 0 0 1 0-6.72 16.34 16.34 0 0 0 1.5-3.36 12.74 12.74 0 0 0 .39-3.36 22.19 22.19 0 0 0-.48-3.36 25.13 25.13 0 0 0-1.11-3.36 10.56 10.56 0 0 1-.73-3.36 10.43 10.43 0 0 1 .67-3.36 11.84 11.84 0 0 0 .75-3.36 11.4 11.4 0 0 0-.5-3.36 14 14 0 0 1-.61-3.36 13.63 13.63 0 0 1 .42-3.36 26.52 26.52 0 0 0 .66-3.36 25.07 25.07 0 0 0 .11-3.36 19.84 19.84 0 0 0-.52-3.36 23.17 23.17 0 0 0-1.24-3.36 15.13 15.13 0 0 1-1.07-3.36 32.4 32.4 0 0 1 .66-6.92c.51-2.86.54-5.5.06-5.85zM54.75 65.15c-.5-.78-3.5-4.12-6.65-7.43s-6.37-6.27-7.1-6.59a7.87 7.87 0 0 0-1.22-.36 12.41 12.41 0 0 0-1.63-.27l.27.28c3.15 3.31 6.15 6.65 6.65 7.43a17.72 17.72 0 0 1 1.49 3 3.75 3.75 0 0 1 .25 2.22 1.43 1.43 0 0 1-1.57.22 7.94 7.94 0 0 0-2.52-.29 9.5 9.5 0 0 0-2.6.69 7.82 7.82 0 0 1-2.64.6 7.78 7.78 0 0 1-2.64-.57 7.21 7.21 0 0 0-2.71-.52 8.89 8.89 0 0 0-2.86.77 5.65 5.65 0 0 1-2.1.44l.75.94c.47.58.86 1 1.1 1.31a31.25 31.25 0 0 0 3.37 3 10.67 10.67 0 0 0 3.48 1.67A5.84 5.84 0 0 0 39 71.3a8.89 8.89 0 0 1 2.86-.77 7.21 7.21 0 0 1 2.71.52 7.78 7.78 0 0 0 2.64.57 7.82 7.82 0 0 0 2.64-.6 9.5 9.5 0 0 1 2.6-.69 7.94 7.94 0 0 1 2.52.29 1.43 1.43 0 0 0 1.57-.22 3.75 3.75 0 0 0-.25-2.22 17.72 17.72 0 0 0-1.54-3.03z"/></svg>