<svg xmlns="http://www.w3.org/2000/svg" width="200" height="200" viewBox="0 0 200 200"><title>_</title><path d="M106.87 74.36a27.72 27.72 0 0 1-4.35.68 24.54 24.54 0 0 1-4.26-.19 28 28 0 0 0-3.84-.27 29.76 29.76 0 0 0-3.85.35 26 26 0 0 1-4.16.33 26.84 26.84 0 0 1-4.12-.44 4.09 4.09 0 0 0-1.83 0 2.18 2.18 0 0 0 0 1.19 15.72 15.72 0 0 1 .54 3.56 35.39 35.39 0 0 1-1.56 7 64 64 0 0 0-1.72 6.56 17.2 17.2 0 0 0-.05 3.14 24.48 24.48 0 0 0 .58 3.2 27.84 27.84 0 0 0 1.13 3.22 12.53 12.53 0 0 1 .89 3.71 11.93 11.93 0 0 1-.54 3.73 11.35 11.35 0 0 0-.51 3 11.48 11.48 0 0 0 .53 3 17.08 17.08 0 0 1 .76 3.61 35.42 35.42 0 0 1-1 7 53.7 53.7 0 0 0-1.17 6.53 48.88 48.88 0 0 0 .89 6.51c.53 2.81 1.07 6.35 1.21 7.9a6.45 6.45 0 0 0 .77 2.78 28.41 28.41 0 0 0 5.79.77l1.93.12c2.56.18 4.79.4 5.67.56a39.42 39.42 0 0 1 4.11 1 26.61 26.61 0 0 0 4 .86 30.21 30.21 0 0 0 4.24.14 6.23 6.23 0 0 0 3-.95 4.63 4.63 0 0 0 1.2-2.43 13 13 0 0 0-.08-3.52 12.25 12.25 0 0 0-1.25-3.2 7.07 7.07 0 0 1 0-7.76 15.35 15.35 0 0 0 1.39-3.11 11.77 11.77 0 0 0 .36-3 21.32 21.32 0 0 0-.45-3.18 24.41 24.41 0 0 0-1.06-3.2 9.42 9.42 0 0 1-.07-7.49 10.79 10.79 0 0 0 .67-3 10.51 10.51 0 0 0-.45-3 14.92 14.92 0 0 1-.66-3.65 14.54 14.54 0 0 1 .46-3.66 26 26 0 0 0 .63-3.21 24 24 0 0 0 .11-3.2 18.77 18.77 0 0 0-.49-3.16 22.28 22.28 0 0 0-1.26-3.12 16 16 0 0 1-1.15-3.63 26.54 26.54 0 0 1 .41-5.65c.08-.53.16-1.07.26-1.6a16.83 16.83 0 0 0 .32-4.93 5 5 0 0 0-1.97.1zM100.11 49.32a52.21 52.21 0 0 0-6.54-6.09 10.28 10.28 0 0 0-2.86-.57c-1 0-3.6-.29-5.75-.57s-4.65-.44-5.67-.46a29.11 29.11 0 0 0-3.82.36 25.71 25.71 0 0 1-4.16.32c-.43 0-1 0-1.52-.11a22 22 0 0 1 1.85 1.36 56.26 56.26 0 0 1 5.73 7c2.1 2.93 4.56 6.12 5.37 7A30.62 30.62 0 0 0 86 60.39a9.78 9.78 0 0 0 3 1.5 3.7 3.7 0 0 0 .79 0 4.75 4.75 0 0 0 1.7-.34 9.88 9.88 0 0 1 3.25-.87 8.36 8.36 0 0 1 3.16.6 6.81 6.81 0 0 0 2.22.49 6.79 6.79 0 0 0 2.23-.51 10.48 10.48 0 0 1 2.93-.78 8.93 8.93 0 0 1 2.89.33 1.48 1.48 0 0 0 .35.07 4.94 4.94 0 0 0-.27-1.21 16.74 16.74 0 0 0-1.39-2.82c-.41-.63-3.2-3.78-6.54-7.28z" fill="#231f20"/><path d="M119.31 80.43a4.45 4.45 0 0 0-3-.1 26.65 26.65 0 0 1-4.16.66h-1.89l-1-.06a26 26 0 0 0-.41 5.34 15.13 15.13 0 0 0 1.07 3.36 23.15 23.15 0 0 1 1.25 3.37 19.84 19.84 0 0 1 .52 3.36 25.08 25.08 0 0 1-.11 3.36 26.53 26.53 0 0 1-.66 3.36 13.64 13.64 0 0 0-.42 3.36 14 14 0 0 0 .61 3.36 11.4 11.4 0 0 1 .5 3.36 11.84 11.84 0 0 1-.75 3.36 10.43 10.43 0 0 0-.67 3.36 10.56 10.56 0 0 0 .73 3.36 25.13 25.13 0 0 1 1.11 3.36 22.2 22.2 0 0 1 .48 3.36 12.75 12.75 0 0 1-.39 3.36 16.34 16.34 0 0 1-1.5 3.36 6.07 6.07 0 0 0 0 6.72A13.25 13.25 0 0 1 112 147a14 14 0 0 1 .09 3.85 5.56 5.56 0 0 1-1.55 3.06A7.09 7.09 0 0 1 107 155a31 31 0 0 1-4.41-.15 27.4 27.4 0 0 1-4.14-.9 38.65 38.65 0 0 0-4-1c-.86-.16-3.15-.38-5.56-.55.05.36.1.7.14 1 .07.53.12 1 .15 1.35a6.31 6.31 0 0 0 1.12 3.45c.48.38 3.35.84 6.38 1s6.39.47 7.48.67a38.65 38.65 0 0 1 4 1 27.4 27.4 0 0 0 4.14.9 31 31 0 0 0 4.41.15 7.09 7.09 0 0 0 3.55-1.18 5.56 5.56 0 0 0 1.55-3.06 14 14 0 0 0-.09-3.85 13.25 13.25 0 0 0-1.37-3.52 6.07 6.07 0 0 1 0-6.72 16.34 16.34 0 0 0 1.5-3.36 12.75 12.75 0 0 0 .39-3.36 22.2 22.2 0 0 0-.48-3.36 25.13 25.13 0 0 0-1.11-3.36 10.56 10.56 0 0 1-.73-3.36 10.43 10.43 0 0 1 .67-3.36 11.84 11.84 0 0 0 .75-3.36 11.4 11.4 0 0 0-.5-3.36 14 14 0 0 1-.61-3.36 13.64 13.64 0 0 1 .42-3.36 26.53 26.53 0 0 0 .66-3.36 25.08 25.08 0 0 0 .11-3.36 19.84 19.84 0 0 0-.52-3.36 23.15 23.15 0 0 0-1.24-3.36 15.13 15.13 0 0 1-1.07-3.36 32.4 32.4 0 0 1 .66-6.92c.51-2.85.54-5.49.06-5.84zM117.46 63.28c-.5-.78-3.5-4.12-6.65-7.43s-6.36-6.27-7.13-6.59a7.9 7.9 0 0 0-1.22-.36 12.45 12.45 0 0 0-1.63-.27l.27.28c3.15 3.31 6.15 6.65 6.65 7.43a17.72 17.72 0 0 1 1.49 3 3.75 3.75 0 0 1 .25 2.22 1.43 1.43 0 0 1-1.57.22 8 8 0 0 0-2.52-.29 9.5 9.5 0 0 0-2.6.69 6.24 6.24 0 0 1-5.27 0 7.22 7.22 0 0 0-2.71-.52 8.89 8.89 0 0 0-2.86.77 5.65 5.65 0 0 1-2.1.44l.75.94c.47.58.86 1 1.1 1.31a31.28 31.28 0 0 0 3.37 3 10.68 10.68 0 0 0 3.48 1.67 5.84 5.84 0 0 0 3.12-.38 8.89 8.89 0 0 1 2.86-.77 7.22 7.22 0 0 1 2.71.52 6.24 6.24 0 0 0 5.27 0 9.5 9.5 0 0 1 2.6-.69 8 8 0 0 1 2.52.29 1.43 1.43 0 0 0 1.57-.22 3.75 3.75 0 0 0-.21-2.24 17.72 17.72 0 0 0-1.54-3.02z" fill="#231f20"/></svg>