<svg xmlns="http://www.w3.org/2000/svg" width="200" height="200" viewBox="0 0 200 200"><title>_</title><path d="M122,40.53a2.77,2.77,0,0,0-.83-0.55,13.13,13.13,0,0,0-3-.79,18.86,18.86,0,0,0-3.54,0c-1.06.12-2.85,0.44-3.91,0.68s-2.84.77-3.92,1.14a21.64,21.64,0,0,1-4.23,1,19.44,19.44,0,0,1-4.2-.11,5.56,5.56,0,0,0-.85-0.06,5.36,5.36,0,0,0-1.88.29,4.09,4.09,0,0,0-1.58,1.66,28.34,28.34,0,0,1-1.74,3.06,29,29,0,0,1-2.2,2.79c-0.61.67-1.58,1.84-2.12,2.57s-1.38,2-1.84,2.77A26.85,26.85,0,0,1,83.92,58c-0.54.64-1.45,1.57-2.25,2.34a21.42,21.42,0,0,1,2.18-.56,63.61,63.61,0,0,1,8.09,0c1.13,0,2.3.06,3.39,0a17.76,17.76,0,0,0,3.9-.3,16.33,16.33,0,0,0,2.83-1.7c0.9-.68,2.31-1.86,3.16-2.63s2.19-2.12,3-3,2.26-2.32,3.18-3.15c0.51-.46,1.64-1.36,3.1-2.49,1-.8,2.21-1.68,3.34-2.51A28.26,28.26,0,0,0,122,40.53Z" fill="#231f20"/><path d="M111,81.17c-0.08-.45-0.17-0.88-0.25-1.21a19,19,0,0,0-1-2.71,4.24,4.24,0,0,0-1.41-1.57,6,6,0,0,0-2.42-.49c-1,0-4.45-.15-7.71-0.39s-6.7-.39-7.75-0.33a32.53,32.53,0,0,1-4.33-.14,41.64,41.64,0,0,1-4.62-.85,4.59,4.59,0,0,0-2-.11A3.61,3.61,0,0,0,79.81,75a26.09,26.09,0,0,1,1.34,4.12,104.82,104.82,0,0,1,.12,12.1l-0.2,6.91c-0.17,5.84-.16,10.74,0,11.49a27.09,27.09,0,0,1,.18,7c-0.09.88-.17,2.38-0.18,3.27s0.06,2.38.14,3.27a12.43,12.43,0,0,1-.34,3.71,15.76,15.76,0,0,1-1.64,3.64,12.67,12.67,0,0,0-1.35,3.06,9.72,9.72,0,0,0-.16,3,29.63,29.63,0,0,0,.69,3.23A33.37,33.37,0,0,0,79.53,143a15.33,15.33,0,0,1,1,3.6,12.87,12.87,0,0,1-.17,3.55,1.78,1.78,0,0,0,.1,1.16,5,5,0,0,0,1.88-.11,14.1,14.1,0,0,1,3.08-.33,10.23,10.23,0,0,1,1.18.06,15,15,0,0,1,2.75.67,14.15,14.15,0,0,1,1.51.59,19.34,19.34,0,0,0,3.75,1.25,16.71,16.71,0,0,0,3.72.21,33.48,33.48,0,0,0,3.69-.55,27.34,27.34,0,0,0,3.31-1,6.41,6.41,0,0,0,2-1.31,14.43,14.43,0,0,0,.46-4.67,55.37,55.37,0,0,1,.13-6.23,28.84,28.84,0,0,1,.75-3.51,26.07,26.07,0,0,0,.68-3.21,24.38,24.38,0,0,0,.16-3.2c0-.9-0.14-2.37-0.25-3.27s-0.36-2.37-.55-3.28a34.67,34.67,0,0,1-.53-3.48,33.25,33.25,0,0,1-.09-3.49,33.64,33.64,0,0,1,.35-3.49,35.5,35.5,0,0,1,.79-3.48,12,12,0,0,0,.39-3,12.33,12.33,0,0,0-.6-3.06,31.82,31.82,0,0,1-1-3.5,29,29,0,0,1-.46-3.51,13.44,13.44,0,0,1,.4-3.68,16.94,16.94,0,0,1,1.6-3.62h0A14.23,14.23,0,0,0,110.95,86a10.92,10.92,0,0,0,.27-3C111.17,82.52,111.08,81.86,111,81.17Z" fill="#231f20"/><path d="M132.84,47.49A2.55,2.55,0,0,0,131.27,46a14.16,14.16,0,0,0-3.27-.86,19.55,19.55,0,0,0-3.77,0c-1.11.13-2.92,0.44-4,.7-0.61.14-1.44,0.37-2.24,0.61-0.65.19-1.29,0.39-1.78,0.57-0.31.11-.67,0.22-1.05,0.32-1.38,1.06-2.54,2-3,2.44-0.89.8-2.3,2.19-3.11,3.08s-2.2,2.27-3.06,3.06-2.32,2-3.23,2.69a17.28,17.28,0,0,1-3.05,1.83,17.92,17.92,0,0,1-4.26.37L95,61.4l-0.26.41a26.47,26.47,0,0,1-1.85,2.52A35.89,35.89,0,0,1,90,67.22,4.86,4.86,0,0,0,88.52,69c0.05,0.21.9,0.07,1.88-.31a23.41,23.41,0,0,1,3.34-1,63.09,63.09,0,0,1,7.87,0c3.47,0.14,6.94,0,7.71-.33a17.28,17.28,0,0,0,3.05-1.83c0.91-.69,2.37-1.9,3.23-2.69s2.24-2.16,3.06-3.06,2.22-2.28,3.11-3.08,3.76-3,6.37-4.93S132.87,48,132.84,47.49Z" fill="#231f20"/><path d="M120.16,96.58a15.28,15.28,0,0,0,1.46-3.36,12,12,0,0,0,.3-3.36,23.63,23.63,0,0,0-.54-3.21,19.91,19.91,0,0,0-1-2.89,5.22,5.22,0,0,0-1.83-2,6.8,6.8,0,0,0-2.93-.61c-0.44,0-1.4,0-2.63-.08l-1-.05c0.12,0.67.22,1.38,0.27,1.92a12,12,0,0,1-.3,3.36,15.28,15.28,0,0,1-1.46,3.36A16.05,16.05,0,0,0,109,93a12.51,12.51,0,0,0-.37,3.36,27.89,27.89,0,0,0,.44,3.36,30.53,30.53,0,0,0,.95,3.36,13.36,13.36,0,0,1,.66,3.36,13,13,0,0,1-.43,3.36c-0.27.92-.61,2.44-0.76,3.36a26.78,26.78,0,0,0-.25,6.72,33.69,33.69,0,0,0,.51,3.36c0.2,0.92.45,2.44,0.57,3.36s0.23,2.44.26,3.36a25.42,25.42,0,0,1-.17,3.36,27,27,0,0,1-.71,3.36,27.7,27.7,0,0,0-.72,3.36,55.59,55.59,0,0,0-.12,6.08c0.06,2.42-.25,4.82-0.69,5.34a7.26,7.26,0,0,1-2.44,1.59,28.12,28.12,0,0,1-3.46,1,34.38,34.38,0,0,1-3.82.57,17.62,17.62,0,0,1-4-.22,20.34,20.34,0,0,1-4-1.33,13,13,0,0,0-1.4-.55,10.29,10.29,0,0,1,.21,1.11v0a11.94,11.94,0,0,1-.15,3.19,2.29,2.29,0,0,0,.46,2.15,4.26,4.26,0,0,0,2.74.08,13.15,13.15,0,0,1,3.9-.24,15.38,15.38,0,0,1,4,1.18,20.34,20.34,0,0,0,4,1.33,17.62,17.62,0,0,0,4,.22,34.38,34.38,0,0,0,3.82-.57,28.12,28.12,0,0,0,3.46-1,7.26,7.26,0,0,0,2.44-1.59c0.44-.52.75-2.92,0.69-5.34a55.59,55.59,0,0,1,.12-6.08,27.7,27.7,0,0,1,.72-3.36,27,27,0,0,0,.71-3.36,25.42,25.42,0,0,0,.17-3.36c0-.92-0.14-2.44-0.26-3.36s-0.37-2.44-.57-3.36a33.69,33.69,0,0,1-.51-3.36,26.78,26.78,0,0,1,.25-6.72c0.15-.92.49-2.44,0.76-3.36a13,13,0,0,0,.43-3.36,13.36,13.36,0,0,0-.66-3.36,30.53,30.53,0,0,1-.95-3.36,27.89,27.89,0,0,1-.44-3.36,12.51,12.51,0,0,1,.37-3.36A16.05,16.05,0,0,1,120.16,96.58Z" fill="#231f20"/></svg>