<svg xmlns="http://www.w3.org/2000/svg" width="68.46" height="200" viewBox="0 0 68.46 200"><title>_</title><path d="M41.12 43.39a22.18 22.18 0 0 1-4.34 1 20.23 20.23 0 0 1-4.33-.11 5.08 5.08 0 0 0-.78-.05 5 5 0 0 0-1.68.24 3.6 3.6 0 0 0-1.33 1.42A29.08 29.08 0 0 1 26.88 49a29.71 29.71 0 0 1-2.25 2.85c-.6.65-1.56 1.81-2.09 2.53s-1.36 2-1.81 2.73a27.39 27.39 0 0 1-2.27 3.14c-.26.3-.59.66-1 1l.41-.08a63.32 63.32 0 0 1 8.2-.06c1.11 0 2.27.06 3.37 0a19.45 19.45 0 0 0 3.73-.26 16.09 16.09 0 0 0 2.71-1.63c.88-.67 2.28-1.83 3.12-2.6s2.17-2.1 3-3 2.29-2.35 3.22-3.18c.52-.47 1.67-1.38 3.13-2.51 1-.81 2.22-1.69 3.35-2.51a33.11 33.11 0 0 0 3.7-3.07l-.29-.15a12.81 12.81 0 0 0-2.86-.75 18.21 18.21 0 0 0-3.42 0c-1 .12-2.81.43-3.85.67s-2.8.88-3.86 1.27zM15 152.77a5.65 5.65 0 0 0 1.39-.14 14.59 14.59 0 0 1 3.2-.34 10.54 10.54 0 0 1 1.23.06 15.52 15.52 0 0 1 2.85.69 14.37 14.37 0 0 1 1.57.62 18.71 18.71 0 0 0 3.63 1.21 16.45 16.45 0 0 0 3.59.2 32.91 32.91 0 0 0 3.62-.54 26.57 26.57 0 0 0 3.24-1 6 6 0 0 0 1.84-1.16 17.89 17.89 0 0 0 .34-4.33 55.91 55.91 0 0 1 .13-6.31 29.17 29.17 0 0 1 .77-3.58A25.34 25.34 0 0 0 43 135a23.67 23.67 0 0 0 .16-3.12c0-.89-.14-2.34-.25-3.23s-.35-2.33-.54-3.23a35.22 35.22 0 0 1-.54-3.54 28.26 28.26 0 0 1 .26-7.1 36.25 36.25 0 0 1 .8-3.54 11.52 11.52 0 0 0 .37-2.89 12 12 0 0 0-.57-2.91 32.37 32.37 0 0 1-1-3.56 29.67 29.67 0 0 1-.47-3.58 14 14 0 0 1 .42-3.84 17.54 17.54 0 0 1 1.65-3.74 13.94 13.94 0 0 0 1.29-3 10.5 10.5 0 0 0 .25-2.86c0-.46-.13-1.11-.25-1.78-.08-.43-.16-.85-.24-1.17a18.28 18.28 0 0 0-.94-2.63A3.76 3.76 0 0 0 42.24 78a5.88 5.88 0 0 0-2.17-.42c-1 0-4.41-.15-7.76-.39-3.13-.23-6.65-.38-7.69-.33a32.52 32.52 0 0 1-4.41-.14 42.14 42.14 0 0 1-4.68-.87 4.82 4.82 0 0 0-1.4-.15 3.73 3.73 0 0 0 .29 1 26.62 26.62 0 0 1 1.37 4.22c.28 1.33.28 7.29.13 12.22l-.2 6.91c-.18 6.11-.15 10.76 0 11.4A34 34 0 0 1 16 115a33.33 33.33 0 0 1-.14 3.56c-.09.87-.17 2.34-.18 3.22s.05 2.34.13 3.22a13 13 0 0 1-.35 3.89 16.32 16.32 0 0 1-1.7 3.77 12.33 12.33 0 0 0-1.29 2.92 9.3 9.3 0 0 0-.15 2.8 29 29 0 0 0 .67 3.16 32.93 32.93 0 0 0 1.13 3.18 16 16 0 0 1 1 3.74 13.47 13.47 0 0 1-.18 3.71 1.67 1.67 0 0 0 .06.6z"/><path d="M67 49.37a2.55 2.55 0 0 0-1.57-1.49 14.16 14.16 0 0 0-3.28-.88 19.57 19.57 0 0 0-3.77 0c-1.11.13-2.92.44-4 .7-.61.14-1.44.37-2.24.61-.65.19-1.29.39-1.78.57-.31.11-.67.22-1.05.32-1.38 1.06-2.54 2-3 2.44-.89.8-2.3 2.19-3.11 3.08s-2.2 2.27-3.06 3.06-2.32 2-3.23 2.69a17.31 17.31 0 0 1-3.05 1.83 17.93 17.93 0 0 1-4.26.37l-.36.58-.26.41A26.46 26.46 0 0 1 27 66.21a35.93 35.93 0 0 1-2.84 2.88 4.85 4.85 0 0 0-1.51 1.8c.05.21.9.07 1.88-.31a23.41 23.41 0 0 1 3.34-1 63.11 63.11 0 0 1 7.87 0c3.47.14 6.94 0 7.71-.33a17.31 17.31 0 0 0 3.05-1.83c.91-.69 2.37-1.9 3.23-2.69s2.24-2.16 3.06-3.06 2.22-2.28 3.11-3.08 3.76-3 6.37-4.93S67 49.83 67 49.37zM54.32 98.46a15.28 15.28 0 0 0 1.46-3.36 12 12 0 0 0 .3-3.36 23.64 23.64 0 0 0-.54-3.21 20 20 0 0 0-1-2.89 5.22 5.22 0 0 0-1.83-2 6.81 6.81 0 0 0-2.96-.64c-.44 0-1.4 0-2.63-.08l-1-.05c.12.67.22 1.38.27 1.92a12 12 0 0 1-.3 3.36 15.28 15.28 0 0 1-1.46 3.36 16 16 0 0 0-1.49 3.36 12.52 12.52 0 0 0-.37 3.36 27.9 27.9 0 0 0 .44 3.36 30.52 30.52 0 0 0 .95 3.36 13.36 13.36 0 0 1 .66 3.36 13 13 0 0 1-.43 3.36c-.27.92-.61 2.44-.76 3.36a26.79 26.79 0 0 0-.25 6.72 33.65 33.65 0 0 0 .51 3.36c.2.92.45 2.44.57 3.36s.23 2.44.26 3.36a25.44 25.44 0 0 1-.17 3.36 27 27 0 0 1-.71 3.36 27.71 27.71 0 0 0-.72 3.36A55.57 55.57 0 0 0 43 148c.06 2.42-.25 4.82-.69 5.34a7.26 7.26 0 0 1-2.47 1.66 28.08 28.08 0 0 1-3.46 1 34.32 34.32 0 0 1-3.82.57 17.64 17.64 0 0 1-4-.22 20.35 20.35 0 0 1-4-1.33 13 13 0 0 0-1.4-.55 10.31 10.31 0 0 1 .21 1.11 11.94 11.94 0 0 1-.15 3.19 2.29 2.29 0 0 0 .46 2.15 4.27 4.27 0 0 0 2.74.08 13.14 13.14 0 0 1 3.9-.24 15.36 15.36 0 0 1 4 1.18 20.35 20.35 0 0 0 4 1.33 17.64 17.64 0 0 0 4 .22 34.32 34.32 0 0 0 3.82-.57 28.08 28.08 0 0 0 3.46-1 7.26 7.26 0 0 0 2.4-1.61c.44-.52.75-2.92.69-5.34a55.57 55.57 0 0 1 .12-6.08 27.71 27.71 0 0 1 .72-3.36 27 27 0 0 0 .71-3.36 25.44 25.44 0 0 0 .17-3.36c0-.92-.14-2.44-.26-3.36s-.37-2.44-.57-3.36a33.65 33.65 0 0 1-.51-3.36 26.79 26.79 0 0 1 .25-6.72c.15-.92.49-2.44.76-3.36a13 13 0 0 0 .43-3.36 13.36 13.36 0 0 0-.66-3.36 30.52 30.52 0 0 1-.95-3.36 27.9 27.9 0 0 1-.44-3.36 12.52 12.52 0 0 1 .37-3.36 16 16 0 0 1 1.49-3.39z"/></svg>