<svg xmlns="http://www.w3.org/2000/svg" width="200" height="200" viewBox="0 0 200 200"><title>_</title><path d="M107.83 80.05v-.7a11.87 11.87 0 0 0-.37-4 5.86 5.86 0 0 0-2-1.1 21.44 21.44 0 0 0-3.34-.69 25.87 25.87 0 0 0-3.68-.06c-1.06.07-2.85.29-3.89.47s-2.85.61-3.9.91a15.26 15.26 0 0 1-4.46.49 19 19 0 0 1-4.65-1 6 6 0 0 0-2-.38 1.29 1.29 0 0 0-.42 0 2.56 2.56 0 0 0-.21 1.52c.15 1.12.29 2.87.3 3.91a32.25 32.25 0 0 1-.14 3.58 29.64 29.64 0 0 0-.18 3.23 30 30 0 0 0 .25 3.23 27.45 27.45 0 0 1 .24 3.54c0 1.08-.51 6-1 10.19-.56 4.9-.88 9.14-.81 9.89a16.29 16.29 0 0 0 .67 3.13 21.51 21.51 0 0 1 .83 3.56 20 20 0 0 1 .07 3.57c-.08 1-.44 3.26-.79 5.14a17.46 17.46 0 0 0-.32 4.67 11.5 11.5 0 0 0 1.2 3 9.88 9.88 0 0 1 1.24 3.85 9.16 9.16 0 0 1-.81 3.85 18.72 18.72 0 0 0-1.15 3.34 22.36 22.36 0 0 0-.41 3.81 4 4 0 0 0 .84 2.44 12.14 12.14 0 0 0 5.06.92h3c1.53 0 2.79-.07 3.37-.14 1-.12 2.78-.43 3.82-.68s2.8-.77 3.88-1.14a21.21 21.21 0 0 1 4.2-1 18.91 18.91 0 0 1 4.15.14 5.13 5.13 0 0 0 2.5-.21 3.3 3.3 0 0 0 1.2-1.64 10.15 10.15 0 0 0 .35-2.88 11.62 11.62 0 0 0-.71-3 12.26 12.26 0 0 1-.78-3.72 12.05 12.05 0 0 1 .66-3.73 13.16 13.16 0 0 0 .67-3.08 40.2 40.2 0 0 0-.9-6.46 28.36 28.36 0 0 1-.74-7.1 15.25 15.25 0 0 1 1.25-3.64 6 6 0 0 0 0-5.81 16.37 16.37 0 0 1-1.27-3.63 29 29 0 0 1 .54-7.09 37.6 37.6 0 0 0 .68-6.45A12.65 12.65 0 0 0 109 90a19.63 19.63 0 0 1-1.14-3.58 37.18 37.18 0 0 1-.03-6.37zM103.1 57.87a3.13 3.13 0 0 1 .4.57 6.48 6.48 0 0 1 .55 2.83 1.87 1.87 0 0 0 .3 1.1 3.24 3.24 0 0 0 1.48 0c.54-.13 1.29-.27 2.06-.37.43-.06.84-.1 1.17-.12a17.69 17.69 0 0 1 3.12.13 20.08 20.08 0 0 0 2.69.18 20.93 20.93 0 0 0 2.69-.25 29.78 29.78 0 0 1 3.08-.33h3.29a2.23 2.23 0 0 0 .7-.06 35 35 0 0 0-2.68-4.7 63.55 63.55 0 0 0-4.37-6.06 19.17 19.17 0 0 0-2.74-2.24 26.47 26.47 0 0 1-2.83-2.2l-.29-.29a25.14 25.14 0 0 1-2.57-3 11.71 11.71 0 0 0-2.24-2.29 9.57 9.57 0 0 0-2.67-1.22 8.2 8.2 0 0 0-2.82-.08 10.07 10.07 0 0 0-2.83 1.2A8.88 8.88 0 0 1 94.92 42a8.16 8.16 0 0 1-3.68-.84 20.25 20.25 0 0 0-3.09-1.24 21 21 0 0 0-3.32-.6 6.65 6.65 0 0 0-2.85.51A8.9 8.9 0 0 0 79.5 42a30 30 0 0 0-2.13 3.27 25.85 25.85 0 0 0-1.47 3.4 13.5 13.5 0 0 1-1.9 3.51 13.77 13.77 0 0 1-3 2.67A15.82 15.82 0 0 0 68.27 57a14.46 14.46 0 0 0-1.91 2.75 5.51 5.51 0 0 0-.45 1.25 1.32 1.32 0 0 0 .4 0 8 8 0 0 1 1.75-.17 7.56 7.56 0 0 1 1.42.12 11.23 11.23 0 0 1 3.13 1.29 5.53 5.53 0 0 0 2.31.73 5.33 5.33 0 0 0 1.84-.49 4.15 4.15 0 0 0 .46-.23 12.53 12.53 0 0 1 3.11-1.33 9.6 9.6 0 0 1 3.15-.13 10.08 10.08 0 0 0 2.19.09 4.77 4.77 0 0 0 1.49-.46 2.33 2.33 0 0 0 .74-.82 4.31 4.31 0 0 0 .21-1.54 8.29 8.29 0 0 1 .24-2.45A16.67 16.67 0 0 1 91 51.8c2.63-3 3.55-2.71 3.85-2.64a3.14 3.14 0 0 1 1.75 2.16 14.76 14.76 0 0 0 .87 2.13 7.46 7.46 0 0 0 1 1.41 8.83 8.83 0 0 0 1.3 1 11.53 11.53 0 0 0 1.67.81 4.34 4.34 0 0 1 1.66 1.2z" fill="#231f20"/><path d="M120.54 123.48a7 7 0 0 0 0-6.72 15.43 15.43 0 0 1-1.18-3.36 28.67 28.67 0 0 1 .55-6.72 37.49 37.49 0 0 0 .69-6.72 13.69 13.69 0 0 0-.93-3.36 18.87 18.87 0 0 1-1.07-3.36 36.44 36.44 0 0 1-.07-6.17c.14-2.47-.11-4.9-.55-5.4a6.51 6.51 0 0 0-2.5-1.45 22.31 22.31 0 0 0-3.54-.73c-.56-.06-1.33-.09-2.1-.1h-1v.73a36.44 36.44 0 0 0 .07 6.17 18.87 18.87 0 0 0 1.09 3.35 13.69 13.69 0 0 1 .93 3.36 37.49 37.49 0 0 1-.69 6.72 28.67 28.67 0 0 0-.55 6.72 15.43 15.43 0 0 0 1.18 3.36 7 7 0 0 1 0 6.72 14.32 14.32 0 0 0-1.16 3.36 28 28 0 0 0 .73 6.73 40.1 40.1 0 0 1 .92 6.73 14.22 14.22 0 0 1-.73 3.36 11.06 11.06 0 0 0-.6 3.36 11.28 11.28 0 0 0 .71 3.36 12.67 12.67 0 0 1 .78 3.32 11 11 0 0 1-.39 3.23 4.23 4.23 0 0 1-1.69 2.23 5.94 5.94 0 0 1-3.13.31 17.92 17.92 0 0 0-3.89-.13 20.4 20.4 0 0 0-4 .9c-1.1.39-2.89.92-4 1.17s-2.86.57-3.93.7c-.65.08-2 .13-3.47.15 0 .33-.08.67-.11 1-.05.57-.09 1.12-.09 1.57a4.88 4.88 0 0 0 1.18 3.2c.65.61 3.23 1.14 5.73 1.19s5.43 0 6.5-.14 2.84-.44 3.93-.7 2.88-.79 4-1.17a20.4 20.4 0 0 1 4-.9 17.92 17.92 0 0 1 3.89.13 5.94 5.94 0 0 0 3.13-.31 4.23 4.23 0 0 0 1.69-2.23 11 11 0 0 0 .39-3.23 12.67 12.67 0 0 0-.78-3.32 11.28 11.28 0 0 1-.71-3.36 11.06 11.06 0 0 1 .6-3.36 14.22 14.22 0 0 0 .73-3.36 40.1 40.1 0 0 0-.92-6.73 28 28 0 0 1-.73-6.73 14.32 14.32 0 0 1 1.09-3.37zM101.12 57.63a12.62 12.62 0 0 1-1.85-.9 9.75 9.75 0 0 1-1.48-1.17 8.49 8.49 0 0 1-1.18-1.64 16 16 0 0 1-.94-2.31 2.37 2.37 0 0 0-1-1.49c-.35-.09-1.63 1-2.85 2.33a15.94 15.94 0 0 0-2.49 3.43A7.42 7.42 0 0 0 89.1 58a5.2 5.2 0 0 1-.29 2 3.27 3.27 0 0 1-1.16 1.28 5.77 5.77 0 0 1-1.88.59 11.17 11.17 0 0 1-2.46-.09 8.62 8.62 0 0 0-2.77.11 11.53 11.53 0 0 0-2.81 1.2 5.16 5.16 0 0 1-.57.29 14.51 14.51 0 0 0-1.1 1.42 13.4 13.4 0 0 0-.89 1.47 4 4 0 0 0-.56 2.31 1.48 1.48 0 0 0 1.63.34 7.67 7.67 0 0 1 2.75 0A10.25 10.25 0 0 1 81.8 70a6.44 6.44 0 0 0 2.83.88 6.43 6.43 0 0 0 2.83-.88 11.53 11.53 0 0 1 2.81-1.2 8.62 8.62 0 0 1 2.73-.08 11.17 11.17 0 0 0 2.46.09 5.77 5.77 0 0 0 1.88-.59 3.27 3.27 0 0 0 1.16-1.28 5.2 5.2 0 0 0 .29-2 7.42 7.42 0 0 1 .2-2.11 15.94 15.94 0 0 1 2.49-3.43l.15-.15c.23-.26.47-.51.69-.73a3.34 3.34 0 0 0-1.2-.89zM124.59 70.1a21.83 21.83 0 0 0 2.85-.27 28.65 28.65 0 0 1 3-.32h3.18a1.92 1.92 0 0 0 1.88-.66c.13-.42-1.21-3-3-5.64A64.3 64.3 0 0 0 128 57a20.18 20.18 0 0 0-2.91-2.39 24.63 24.63 0 0 1-3-2.36 24 24 0 0 1-2.46-2.85 12.77 12.77 0 0 0-2.47-2.53 10.49 10.49 0 0 0-3-1.37 8.51 8.51 0 0 0-1.74-.18 24.63 24.63 0 0 0 3 2.36 20.18 20.18 0 0 1 2.91 2.39 64.3 64.3 0 0 1 4.48 6.2c1.76 2.68 3.09 5.22 3 5.64a1.92 1.92 0 0 1-1.88.66c-.9-.06-2.33-.07-3.18 0a28.65 28.65 0 0 0-3 .32A17.9 17.9 0 0 1 112 63a17.39 17.39 0 0 0-2.92-.12c-.3 0-.69.06-1.09.12a9.58 9.58 0 0 0 1 .71l.3.17a13.08 13.08 0 0 0 1.54.72 3.25 3.25 0 0 1 1.5 1.28 5.51 5.51 0 0 1 .43 2.32 2.52 2.52 0 0 0 .7 1.94 3.46 3.46 0 0 0 2.31.14 20.54 20.54 0 0 1 3-.47 17.39 17.39 0 0 1 2.92.12 21.77 21.77 0 0 0 2.9.17z" fill="#231f20"/></svg>