<svg xmlns="http://www.w3.org/2000/svg" width="69.28" height="200" viewBox="0 0 69.28 200"><title>_</title><path d="M45 95a12.26 12.26 0 0 0-.81-2.92 20.17 20.17 0 0 1-1.17-3.69A37.16 37.16 0 0 1 43 81.9v-.68a13.4 13.4 0 0 0-.29-3.74 5.93 5.93 0 0 0-1.71-.91 20.71 20.71 0 0 0-3.25-.67 25.37 25.37 0 0 0-3.59-.06c-1 .07-2.8.28-3.84.47s-2.81.6-3.85.9a15.75 15.75 0 0 1-4.64.51A19.59 19.59 0 0 1 17 76.65a5.41 5.41 0 0 0-1.88-.35 2.66 2.66 0 0 0-.06 1c.15 1.13.29 2.91.31 4a32.71 32.71 0 0 1-.17 3.7 29 29 0 0 0-.2 3.14 29.31 29.31 0 0 0 .25 3.17 28.19 28.19 0 0 1 .24 3.59c0 1.1-.51 6.07-1 10.24-.58 5.11-.87 9.15-.81 9.79a15.67 15.67 0 0 0 .64 3 22 22 0 0 1 .85 3.66 20.52 20.52 0 0 1 .07 3.68c-.08 1-.44 3.29-.8 5.19a17.15 17.15 0 0 0-.32 4.49 11.09 11.09 0 0 0 1.13 2.87 10.28 10.28 0 0 1 1.31 4 9.58 9.58 0 0 1-.86 4.1 18.14 18.14 0 0 0-1.11 3.23 21.83 21.83 0 0 0-.4 3.64 3.59 3.59 0 0 0 .69 2.07 13 13 0 0 0 4.73.78h3c1.51 0 2.75-.07 3.31-.14 1-.12 2.73-.42 3.77-.67s2.76-.76 3.83-1.13a21.81 21.81 0 0 1 4.32-1 19.37 19.37 0 0 1 4.29.14 4.81 4.81 0 0 0 2.19-.16 2.9 2.9 0 0 0 1-1.34 9.74 9.74 0 0 0 .33-2.7 11.21 11.21 0 0 0-.67-2.85 12.85 12.85 0 0 1-.82-3.9 12.44 12.44 0 0 1 .69-3.91 12.72 12.72 0 0 0 .64-2.93 40.36 40.36 0 0 0-.89-6.33c-.44-2.14-1-5.84-.74-7.28a15.86 15.86 0 0 1 1.3-3.79 5.51 5.51 0 0 0 0-5.36 17 17 0 0 1-1.32-3.76c-.28-1.44.17-5.14.54-7.27A37.71 37.71 0 0 0 45 95zM5.21 62.34a11.66 11.66 0 0 1 3.3 1.35 5.09 5.09 0 0 0 2 .66 4.82 4.82 0 0 0 1.63-.44 3.9 3.9 0 0 0 .4-.2 12.9 12.9 0 0 1 3.26-1.39 10 10 0 0 1 3.34-.14 9.62 9.62 0 0 0 2.05.08 4.28 4.28 0 0 0 1.3-.39 1.92 1.92 0 0 0 .54-.59 3.92 3.92 0 0 0 .21-1.28 8.7 8.7 0 0 1 .26-2.62c.36-1.21 2.55-3.71 2.8-4 2.5-2.82 3.63-3 4.34-2.79a3.56 3.56 0 0 1 2.1 2.49 14.31 14.31 0 0 0 .83 2 7 7 0 0 0 .92 1.29 8.38 8.38 0 0 0 1.21 1 11.08 11.08 0 0 0 1.58.77 4.85 4.85 0 0 1 1.83 1.31 3.64 3.64 0 0 1 .47.66 6.94 6.94 0 0 1 .61 3.09 1.68 1.68 0 0 0 .12.65 3.34 3.34 0 0 0 1-.07c.56-.14 1.33-.28 2.11-.38.44-.06.87-.11 1.21-.13a18.37 18.37 0 0 1 3.22.13 20.41 20.41 0 0 0 2.61.17 20.49 20.49 0 0 0 2.62-.25 30.25 30.25 0 0 1 3.17-.32h3.25a41.85 41.85 0 0 0-2.34-4 64.64 64.64 0 0 0-4.31-6 18.54 18.54 0 0 0-2.65-2.17 27.08 27.08 0 0 1-2.75-2.11l-.45-.43a25.61 25.61 0 0 1-2.63-3 11.3 11.3 0 0 0-2.12-2.17 9.1 9.1 0 0 0-2.5-1.14 7.65 7.65 0 0 0-2.61-.07A9.61 9.61 0 0 0 34.46 43a9.31 9.31 0 0 1-3.88 1.36 8.75 8.75 0 0 1-3.95-.89 19.67 19.67 0 0 0-3-1.2 20.52 20.52 0 0 0-3.23-.58 6.14 6.14 0 0 0-2.59.46 8.44 8.44 0 0 0-2.3 2 29.26 29.26 0 0 0-2.09 3.2A25.32 25.32 0 0 0 12 50.66a14 14 0 0 1-2 3.71 14.37 14.37 0 0 1-3.17 2.79 15.13 15.13 0 0 0-2.59 2.1 14.11 14.11 0 0 0-1.83 2.63c-.07.15-.14.29-.19.42a9.4 9.4 0 0 1 1.43-.1 8 8 0 0 1 1.56.13z"/><path d="M56.17 125.36a7 7 0 0 0 0-6.72 15.44 15.44 0 0 1-1.17-3.37 28.67 28.67 0 0 1 .55-6.72 37.48 37.48 0 0 0 .69-6.72 13.68 13.68 0 0 0-.93-3.36 18.87 18.87 0 0 1-1.07-3.36 36.44 36.44 0 0 1-.07-6.17c.14-2.47-.11-4.9-.55-5.4a6.51 6.51 0 0 0-2.5-1.45 22.28 22.28 0 0 0-3.54-.73c-.56-.06-1.33-.09-2.1-.1h-1v.73a36.44 36.44 0 0 0 .07 6.17 18.87 18.87 0 0 0 1.07 3.36 13.68 13.68 0 0 1 .93 3.36 37.48 37.48 0 0 1-.69 6.72 28.67 28.67 0 0 0-.55 6.72 15.44 15.44 0 0 0 1.18 3.36 7 7 0 0 1 0 6.72 14.33 14.33 0 0 0-1.16 3.36 28 28 0 0 0 .67 6.74 40.09 40.09 0 0 1 .92 6.73 14.23 14.23 0 0 1-.73 3.36 11.06 11.06 0 0 0-.6 3.36 11.27 11.27 0 0 0 .71 3.36 12.67 12.67 0 0 1 .78 3.32 11 11 0 0 1-.39 3.23 4.23 4.23 0 0 1-1.69 2.23 5.94 5.94 0 0 1-3.13.31 17.94 17.94 0 0 0-3.89-.13 20.38 20.38 0 0 0-4 .9c-1.1.39-2.89.92-4 1.17s-2.86.57-3.93.7c-.65.08-2 .13-3.47.15 0 .33-.08.67-.11 1-.05.57-.09 1.12-.09 1.57a4.89 4.89 0 0 0 1.16 3.18c.65.61 3.23 1.14 5.73 1.19s5.43 0 6.5-.14 2.84-.44 3.93-.7 2.88-.79 4-1.17a20.38 20.38 0 0 1 4-.9 17.94 17.94 0 0 1 3.89.13 5.94 5.94 0 0 0 3.13-.31 4.23 4.23 0 0 0 1.69-2.23 11 11 0 0 0 .39-3.23 12.67 12.67 0 0 0-.78-3.32 11.27 11.27 0 0 1-.71-3.36 11.06 11.06 0 0 1 .6-3.36 14.23 14.23 0 0 0 .73-3.36 40.09 40.09 0 0 0-.92-6.73 28 28 0 0 1-.73-6.73 14.33 14.33 0 0 1 1.18-3.36zM23.29 63.16a5.77 5.77 0 0 1-1.88.59 11.17 11.17 0 0 1-2.41-.09 8.62 8.62 0 0 0-2.77.11A11.54 11.54 0 0 0 13.38 65a5.2 5.2 0 0 1-.57.29 14.51 14.51 0 0 0-1.1 1.42 13.38 13.38 0 0 0-.89 1.47 4 4 0 0 0-.56 2.31 1.48 1.48 0 0 0 1.63.34 7.67 7.67 0 0 1 2.75 0 10.26 10.26 0 0 1 2.8 1.16 6.45 6.45 0 0 0 2.83.88A6.43 6.43 0 0 0 23.1 72a11.54 11.54 0 0 1 2.81-1.2 8.62 8.62 0 0 1 2.77-.11 11.17 11.17 0 0 0 2.46.09 5.77 5.77 0 0 0 1.86-.67 3.27 3.27 0 0 0 1.16-1.28 5.2 5.2 0 0 0 .29-2 7.43 7.43 0 0 1 .2-2.11 16 16 0 0 1 2.49-3.42l.15-.15c.23-.26.47-.51.69-.73a3.34 3.34 0 0 0-1.22-.89 12.62 12.62 0 0 1-1.85-.9 9.73 9.73 0 0 1-1.48-1.17 8.47 8.47 0 0 1-1.18-1.64 15.94 15.94 0 0 1-.94-2.31 2.37 2.37 0 0 0-1-1.49c-.35-.09-1.63 1-2.85 2.33a16 16 0 0 0-2.49 3.42 7.43 7.43 0 0 0-.2 2.11 5.2 5.2 0 0 1-.29 2 3.27 3.27 0 0 1-1.19 1.28zM60.23 72a21.88 21.88 0 0 0 2.85-.27 28.65 28.65 0 0 1 3-.32h3.18a1.92 1.92 0 0 0 1.88-.66c.13-.42-1.21-3-3-5.64a64.3 64.3 0 0 0-4.48-6.2 20.19 20.19 0 0 0-2.91-2.39 24.63 24.63 0 0 1-3-2.36 24 24 0 0 1-2.46-2.85 12.77 12.77 0 0 0-2.47-2.53 10.49 10.49 0 0 0-3-1.37 8.51 8.51 0 0 0-1.82-.18 24.63 24.63 0 0 0 3 2.36A20.19 20.19 0 0 1 53.93 52a64.3 64.3 0 0 1 4.48 6.2c1.76 2.68 3.09 5.22 3 5.64a1.92 1.92 0 0 1-1.88.66c-.9-.06-2.33-.07-3.18 0a28.65 28.65 0 0 0-3 .32 21.88 21.88 0 0 1-2.85.27 21.81 21.81 0 0 1-2.85-.19 17.39 17.39 0 0 0-2.92-.12c-.3 0-.69.06-1.09.12a9.67 9.67 0 0 0 1 .71l.3.17a13.12 13.12 0 0 0 1.54.72A3.25 3.25 0 0 1 48 67.73a5.51 5.51 0 0 1 .43 2.32A2.52 2.52 0 0 0 49.1 72a3.46 3.46 0 0 0 2.31.14 20.57 20.57 0 0 1 3-.47 17.39 17.39 0 0 1 2.92.12 21.81 21.81 0 0 0 2.9.21z"/></svg>