<svg xmlns="http://www.w3.org/2000/svg" width="70.34" height="200" viewBox="0 0 70.34 200"><title>_</title><path d="M17.68 152.54a6.11 6.11 0 0 0 1.77 1 19.46 19.46 0 0 0 3.2.68 24.46 24.46 0 0 0 2.82.1h.78c1.06-.07 2.8-.27 3.87-.46s2.8-.58 3.86-.89a16 16 0 0 1 4.63-.5 19.77 19.77 0 0 1 4.79 1 5.33 5.33 0 0 0 1.88.34 2.62 2.62 0 0 0 .06-1c-.15-1.13-.29-2.91-.3-4a33 33 0 0 1 .18-3.71 29.35 29.35 0 0 0 .17-3.17 29.86 29.86 0 0 0-.25-3.17 28.67 28.67 0 0 1-.24-3.59c0-1.13.51-6.12 1-10.24.58-5.11.85-9.15.8-9.79a15.84 15.84 0 0 0-.63-3 22.58 22.58 0 0 1-.84-3.65 20.76 20.76 0 0 1-.07-3.68c.08-1 .44-3.31.79-5.19a17.45 17.45 0 0 0 .32-4.5 11.1 11.1 0 0 0-1.12-2.87 10.36 10.36 0 0 1-1.29-4 9.65 9.65 0 0 1 .84-4.09 18.54 18.54 0 0 0 .91-2.52c.07-.26.14-.5.18-.71a21.87 21.87 0 0 0 .39-3.64 2.68 2.68 0 0 0-.42-1.46 4.87 4.87 0 0 0-2.27.15 21 21 0 0 1-4.92.73 16.6 16.6 0 0 1-4.67-.83 13 13 0 0 0-3.5-.65 12.94 12.94 0 0 0-3.5.6 17.14 17.14 0 0 1-4.65.8 21.28 21.28 0 0 1-4.9-.7 5 5 0 0 0-1.5-.2 3.42 3.42 0 0 0 .23 1 14 14 0 0 1 .83 4.52 11 11 0 0 1-1.12 4.22 9.11 9.11 0 0 0-.86 2.78 8 8 0 0 0 .35 2.75 21.51 21.51 0 0 1 .93 3.67 19.64 19.64 0 0 1 .11 3.7c-.07.88-.12 2.35-.1 3.21s.13 2.34.24 3.21a16.23 16.23 0 0 1 0 3.78 18.18 18.18 0 0 1-1.08 3.72 12.84 12.84 0 0 0-.79 2.94 11.46 11.46 0 0 0 .14 2.9c.2 1 .52 3.29.72 5.19s.36 5 .35 6.89.08 4 .18 4.86a27.22 27.22 0 0 0 .62 3.15 28 28 0 0 1 .68 3.6c.11 1 .13 3.78.06 6.34a14.71 14.71 0 0 0 .34 4.38zM24.44 45.7a4 4 0 0 0-1.17 0 14.62 14.62 0 0 1-3.65 0A16.83 16.83 0 0 1 16 44.55a12 12 0 0 0-2.81-.79 10.38 10.38 0 0 0-2.77.14c-.94.2-3.19.53-5 .73a12.54 12.54 0 0 0-3.42.74 1.88 1.88 0 0 0-.28.79 13.56 13.56 0 0 0 .14 2.2 15 15 0 0 0 .6 2.23 16.3 16.3 0 0 1 .72 2.81 33 33 0 0 1 0 4.69 10.14 10.14 0 0 0 .13 2.42 4.57 4.57 0 0 0 1 .22 19.25 19.25 0 0 1 3.11.58 27.68 27.68 0 0 1 3.27 1.23 6.91 6.91 0 0 0 1.07.35 7.13 7.13 0 0 0 1.51.25 8.33 8.33 0 0 0 2.73-.59 11.85 11.85 0 0 1 4-.84 14.55 14.55 0 0 1 4.23.75l.5.15v-.05a9.51 9.51 0 0 1-.86-3.81 7.34 7.34 0 0 1 1.24-3.52 5 5 0 0 0 .77-1.79 3.88 3.88 0 0 0-.33-1.67c-.15-.3-.3-.67-.45-1.06a12 12 0 0 1-.54-1.82 10.77 10.77 0 0 1-.1-2.89.79.79 0 0 0-.02-.3zM24.79 45.27zM60.22 46.25a1.68 1.68 0 0 0-.39-.83 4.13 4.13 0 0 0-1.64-.4 22.18 22.18 0 0 0-3 .15 25.24 25.24 0 0 0-3 .62 26.68 26.68 0 0 1-3.5.68c-1 .11-3.64.19-6.21.17a28.94 28.94 0 0 0-4.21.26.52.52 0 0 0 0 .12 8.86 8.86 0 0 1-.47 2.41A16.58 16.58 0 0 1 36.49 52l-.06.13a4.45 4.45 0 0 0-.43 1.51 4.6 4.6 0 0 0 .49 1.74 8.59 8.59 0 0 1 .94 3.37 11.52 11.52 0 0 1-.59 3.63 6 6 0 0 0 .68-.25 12.29 12.29 0 0 1 4.3-1 10.17 10.17 0 0 1 3.94 1l.23.11a8.52 8.52 0 0 0 2.65.84 7.33 7.33 0 0 0 2.59-.39 20.28 20.28 0 0 1 3.56-.93 18.11 18.11 0 0 1 3.56-.1 3.62 3.62 0 0 0 1.13-.07 1 1 0 0 0 0-.29 9.19 9.19 0 0 1 0-3 11.34 11.34 0 0 1 1.13-2.94 7.14 7.14 0 0 0 .72-2 9.87 9.87 0 0 0-.17-2.15c-.06-.35-.12-.71-.2-1a39.52 39.52 0 0 1-.74-3.96z"/><path d="M56.94 88.17a23.39 23.39 0 0 0 .43-3.94 3.48 3.48 0 0 0-1.13-2.76 5.37 5.37 0 0 0-3.48 0 18.63 18.63 0 0 1-4.49.67H48c-.31 0-.65 0-1-.08a20 20 0 0 1-1 2.75 8.26 8.26 0 0 0-.7 3.36 9 9 0 0 0 1.09 3.36 12.47 12.47 0 0 1 1.3 3.36 18.37 18.37 0 0 1-.32 5c-.34 1.85-.69 4.12-.77 5a19.5 19.5 0 0 0 .07 3.36 21.07 21.07 0 0 0 .77 3.36 17.45 17.45 0 0 1 .7 3.36c.08.92-.28 5.46-.8 10.09s-1 9.16-1 10.09a26.48 26.48 0 0 0 .22 3.36 25.69 25.69 0 0 1 .08 6.72 31.43 31.43 0 0 0-.17 3.5c0 1 .15 2.71.29 3.78a2.75 2.75 0 0 1-.73 2.53 4.92 4.92 0 0 1-3.23-.26 18.36 18.36 0 0 0-4.36-1 14.77 14.77 0 0 0-4.12.44c-1.1.31-2.91.73-4 .92s-2.92.41-4 .48h-.85v1a8.2 8.2 0 0 0 .68 3.62 6.87 6.87 0 0 0 2.49 1.46 21.18 21.18 0 0 0 3.5.75 26.62 26.62 0 0 0 3.86.08c1.11-.07 2.92-.29 4-.48s2.91-.61 4-.92a14.77 14.77 0 0 1 4.12-.44 18.36 18.36 0 0 1 4.36 1 4.92 4.92 0 0 0 3.23.26 2.75 2.75 0 0 0 .73-2.53c-.14-1.08-.27-2.78-.29-3.78a31.43 31.43 0 0 1 .17-3.5 25.69 25.69 0 0 0-.08-6.72 26.48 26.48 0 0 1-.22-3.36c0-.92.45-5.46 1-10.09s.88-9.16.8-10.09a17.45 17.45 0 0 0-.7-3.36 21.07 21.07 0 0 1-.77-3.36 19.5 19.5 0 0 1-.07-3.36c.08-.92.42-3.19.77-5a18.37 18.37 0 0 0 .32-5 12.47 12.47 0 0 0-1.3-3.36A9 9 0 0 1 55 95.09a8.26 8.26 0 0 1 .7-3.36 19.91 19.91 0 0 0 1.24-3.56zM26.32 56.11a5.91 5.91 0 0 0-1 2.71 8.08 8.08 0 0 0 .72 3.11c.43.91.51 1.88.2 2.15a3.56 3.56 0 0 1-2.52-.19 13.34 13.34 0 0 0-3.72-.67 10.47 10.47 0 0 0-3.41.71 9.61 9.61 0 0 1-3.23.69 8.41 8.41 0 0 1-1.88-.3v1.02c0 1.57.18 3 .53 3.22a5 5 0 0 0 2 .58 17.67 17.67 0 0 1 2.83.53 25.85 25.85 0 0 1 3.06 1.15 9.35 9.35 0 0 0 3.19.74 9.61 9.61 0 0 0 3.23-.69 10.47 10.47 0 0 1 3.41-.71 13.34 13.34 0 0 1 3.72.67A3.56 3.56 0 0 0 36 71c.32-.27.23-1.24-.2-2.15a8.08 8.08 0 0 1-.72-3.11 4 4 0 0 1 .14-.83 7.1 7.1 0 0 1 .31-.91h-.05c-.37-.22-.42-1.14-.1-2a10.16 10.16 0 0 0 .52-3.1 7.24 7.24 0 0 0-.75-2.7 6 6 0 0 1-.68-2.48 5.78 5.78 0 0 1 .62-2.22 2.35 2.35 0 0 0-1-.28 5.44 5.44 0 0 0-1.35 0 13.23 13.23 0 0 1-3.21 0 13.34 13.34 0 0 1-1.8-.46c-.45-.14-.9-.3-1.27-.46.12.33.25.65.38.91a5.34 5.34 0 0 1 .48 2.5 6.39 6.39 0 0 1-1 2.4zM61.89 56.11a9.93 9.93 0 0 0-1 2.48 7.71 7.71 0 0 0 0 2.45 2 2 0 0 1-.46 1.75 4 4 0 0 1-2.28.39 16.43 16.43 0 0 0-3.21.09 18.62 18.62 0 0 0-3.24.85 8.89 8.89 0 0 1-3.25.48 9.9 9.9 0 0 1-3.25-1l-.17-.08a8 8 0 0 1 .41 1.3 5.6 5.6 0 0 1 .15 1 10.16 10.16 0 0 1-.52 3.1c-.32.91-.27 1.83.1 2a4.1 4.1 0 0 0 2.61-.46 10.83 10.83 0 0 1 3.72-.85 8.6 8.6 0 0 1 3.41.9 9.9 9.9 0 0 0 3.25 1 8.89 8.89 0 0 0 3.28-.51 18.62 18.62 0 0 1 3.24-.85 16.43 16.43 0 0 1 3.21-.09 4 4 0 0 0 2.28-.39 2 2 0 0 0 .46-1.67 7.71 7.71 0 0 1 0-2.45 9.93 9.93 0 0 1 1-2.48 8.63 8.63 0 0 0 .9-2.5 13.47 13.47 0 0 0-.39-3.75c-.32-1.37-.63-3.06-.7-3.75a3 3 0 0 0-1-1.89 5.25 5.25 0 0 0-2.49-.69 25.67 25.67 0 0 0-3.25.16c-.31 0-.69.1-1.08.18l-1 .2a10.67 10.67 0 0 1 .17 2.61 8.63 8.63 0 0 1-.9 2.47z"/></svg>