<svg xmlns="http://www.w3.org/2000/svg" width="107.25" height="200" viewBox="0 0 107.25 200"><title>_</title><path d="M.35 130A15.75 15.75 0 0 1 3 133.15a18.94 18.94 0 0 1 1.75 3.94 16.61 16.61 0 0 0 1.48 3.31 16.61 16.61 0 0 0 2.32 2.77 35 35 0 0 0 3 2.42 34.61 34.61 0 0 0 3.35 2c.48.24 1.1.59 1.76 1s1.49.91 2 1.27a41.52 41.52 0 0 1 3.53 2.84 9 9 0 0 0 2.81 1.61 5.51 5.51 0 0 0 2.52 0 9.71 9.71 0 0 1 2.65-.36 7 7 0 0 1 1.33.11 9.44 9.44 0 0 1 3.58 1.77 9 9 0 0 0 2.35 1.34 33 33 0 0 0 6.93-.59c3.08-.51 6.88-1 7.92-1.06.79 0 2.81-.22 4.41-.45a27.06 27.06 0 0 0 4.42-1 34.42 34.42 0 0 0 3.37-1.57 33.61 33.61 0 0 0 3.34-2.13 70 70 0 0 0 5.63-5.54c2.27-2.43 5.16-5.84 6.45-7.6a36.11 36.11 0 0 0 2.95-4.6 15.32 15.32 0 0 0 .88-2.85c.16-.92.49-2.4.75-3.29s.76-2.35 1.12-3.22 1-2.88 1.52-4.57a18.87 18.87 0 0 0 .81-4.33 12.48 12.48 0 0 0-.57-2.84 32 32 0 0 1-1-3.49c-.19-.95-.6-3.95-.91-6.68a28.65 28.65 0 0 0-1.09-5.74 10.79 10.79 0 0 0-1.58-2.14A17.66 17.66 0 0 1 79 87.69a10.28 10.28 0 0 0-1.4-2.26 11 11 0 0 0-2.13-1.76 12.09 12.09 0 0 1-2.87-2.53 13.37 13.37 0 0 1-1.81-3.46A13.2 13.2 0 0 0 69.45 75a12.31 12.31 0 0 0-2-2.15A17.73 17.73 0 0 1 65 70.39a10.69 10.69 0 0 1-1.5-2.68 11.84 11.84 0 0 0-.86-1.85 11.64 11.64 0 0 0-1.23-1.61c-.41-.44-1.16-1.14-1.63-1.53s-1.32-1-1.85-1.38a41.35 41.35 0 0 1-3.59-3c-.84-.78-2.81-2.75-2.87-4.11a2.24 2.24 0 0 1 .11-.74 3.52 3.52 0 0 1 1.87-2.11 25.74 25.74 0 0 1 2.44-1 37.78 37.78 0 0 1 4.77-.88 27.77 27.77 0 0 0 4-.75 6 6 0 0 0 1.34-.84 9 9 0 0 0 1-1.08 2.24 2.24 0 0 0 .15-.25c-.33-.1-.68-.21-.92-.3a10.88 10.88 0 0 1-1.23-.54 5 5 0 0 1-1.26-1 7.45 7.45 0 0 1-.8-1.21 3.77 3.77 0 0 0-.69.29 11.51 11.51 0 0 0-1.62 1.15 11.94 11.94 0 0 0-1.36 1.49 7.65 7.65 0 0 1-2.1 1.89 7.07 7.07 0 0 1-2.69.77 11.15 11.15 0 0 0-1.85.3 10.65 10.65 0 0 0-1.69.68 5.5 5.5 0 0 1-1.05.41 4.63 4.63 0 0 1-1.57.21 4.8 4.8 0 0 1-2.47-1l-.33-.25a6.79 6.79 0 0 0-.95-.56 6.94 6.94 0 0 0-1.46-.42 4.63 4.63 0 0 1-2.49-1.26 6.08 6.08 0 0 1-1.24-2.56 4.39 4.39 0 0 0-.57-1.33 2.89 2.89 0 0 0-.91-.66 1.45 1.45 0 0 0-.75 0 5 5 0 0 0-1.3 1.17 7.15 7.15 0 0 1-2.83 2.14 7.46 7.46 0 0 1-3.57.18 11.19 11.19 0 0 0-2.45-.23 8 8 0 0 0-2 .49c-.58.25-2.12 1.05-3.36 1.75a11.37 11.37 0 0 0-1.39.92 8.06 8.06 0 0 1 1.63 1.77 7.54 7.54 0 0 1 .92 2.42 4.82 4.82 0 0 0 .41 1.25 2.5 2.5 0 0 0 .59.62c.32.2.89.5 1.21.65s.87.37 1.19.48a2.25 2.25 0 0 1 1.63 2.31 4.15 4.15 0 0 1-1.33 2.12 8.23 8.23 0 0 1-2.24 1.39 8.94 8.94 0 0 1-2.62.51 5.48 5.48 0 0 0-1.56.33 5.43 5.43 0 0 0-1.3.92 12.6 12.6 0 0 1-2 1.62c-.22.14-.5.29-.8.44a3.56 3.56 0 0 1 0 1.29c0 .22-.07.54-.09.81a4.59 4.59 0 0 1 1-.26 8.24 8.24 0 0 1 2.41.18 4.53 4.53 0 0 0 1.45 0A18.74 18.74 0 0 0 24 66.11c.12-.09 3-2.11 4.46-2.29a8.51 8.51 0 0 1 2.91.25 11.42 11.42 0 0 0 1.77.33 1.74 1.74 0 0 0 .54-.05 2.81 2.81 0 0 1 1.84-.27 3.36 3.36 0 0 1 1.14.53 3.87 3.87 0 0 1 .48.38 13.46 13.46 0 0 1 1 1.08 12.7 12.7 0 0 1 .83 1.19 5.11 5.11 0 0 1 .71 3.25 3.3 3.3 0 0 1-1.75 2.27 13.42 13.42 0 0 1-3.06 1c-.93.19-2.41.57-3.31.84s-3.9 1.47-6.61 2.64h-.09a77.38 77.38 0 0 0-8 4.08 27.45 27.45 0 0 0-4.28 3.22c-.58.61-3.21 4.44-6.3 9.53-2.7 4.44-5.6 9.55-6.28 11.17a14.23 14.23 0 0 0-1.23 4.06A9.22 9.22 0 0 0-.67 112a11.83 11.83 0 0 1 .82 3.87 11 11 0 0 1-.8 3.81 18.82 18.82 0 0 0-.93 2.9 17.34 17.34 0 0 0-.31 2.93 6.67 6.67 0 0 0 .54 2.37A8.38 8.38 0 0 0 .35 130z"/><path d="M24.13 74.87v1.09l.17-.08c2.79-1.21 5.84-2.42 6.77-2.7s2.48-.67 3.44-.87a12.23 12.23 0 0 0 2.65-.85 1.9 1.9 0 0 0 1-1.11 3.61 3.61 0 0 0-.54-2.35 11.12 11.12 0 0 0-.71-1 11.48 11.48 0 0 0-.85-.93 2.36 2.36 0 0 0-.3-.23 4.16 4.16 0 0 1-.6.68l-.08.07a6.86 6.86 0 0 1-1.68 1 7.64 7.64 0 0 1-2.12.41 6.83 6.83 0 0 0-2.13.46 6.78 6.78 0 0 0-1.77 1.25 11.25 11.25 0 0 1-1.7 1.39 9.88 9.88 0 0 1-1.91.89 7 7 0 0 0-1.17.45c-.09.07.14.1.51.07a1.26 1.26 0 0 1 1 .28 1.64 1.64 0 0 1 .17 1.08c-.09.32-.13.68-.15 1zM49.51 49a4.33 4.33 0 0 0-1.32-.88 2.89 2.89 0 0 0-1.77 0c.16.11.31.22.43.33a2.57 2.57 0 0 0 2.66.55zM97.59 114.66c-.19-.91-.58-3.86-.88-6.55a27.84 27.84 0 0 0-1.25-6.26 12.21 12.21 0 0 0-1.85-2.51 16.22 16.22 0 0 1-3.53-5.28 11.6 11.6 0 0 0-1.65-2.67 12.55 12.55 0 0 0-2.49-2.05 10.72 10.72 0 0 1-2.46-2.16 11.79 11.79 0 0 1-1.56-3 14.63 14.63 0 0 0-1.51-3.1 13.76 13.76 0 0 0-2.3-2.47 16.5 16.5 0 0 1-2.22-2.19 9.3 9.3 0 0 1-1.26-2.24 10.88 10.88 0 0 0-2.42-4c-.45-.48-1.24-1.22-1.76-1.65s-1.4-1.09-2-1.48a40.51 40.51 0 0 1-3.4-2.88c-1.3-1.2-2.37-2.59-2.39-3.07a1.84 1.84 0 0 1 1.11-1.43 23.86 23.86 0 0 1 2.28-.92 37 37 0 0 1 4.49-.82 27.1 27.1 0 0 0 4.34-.85A7.51 7.51 0 0 0 76.64 56a10.27 10.27 0 0 0 1.24-1.32 3.65 3.65 0 0 0 .55-1.15 1.34 1.34 0 0 0-.13-.87 1.55 1.55 0 0 0-.8-.48 11.25 11.25 0 0 1-1.07-.33 9.46 9.46 0 0 1-1-.44 3.6 3.6 0 0 1-.84-.69 6.18 6.18 0 0 1-.7-1.1 1.32 1.32 0 0 0-1-.69 4 4 0 0 0-1.69.53 13 13 0 0 0-1.88 1.33 13.42 13.42 0 0 0-1.57 1.72 6.23 6.23 0 0 1-1.63 1.47 5.68 5.68 0 0 1-2 .58 12.49 12.49 0 0 0-2.17.36 11.82 11.82 0 0 0-2 .8 4 4 0 0 1-1.81.45 3.35 3.35 0 0 1-1.61-.69 8.31 8.31 0 0 0-1.63-1 7.37 7.37 0 0 0-.9-.39 7.63 7.63 0 0 0-.92-.21h-.07a.92.92 0 0 0-.05.27c0 .49 1.1 1.87 2.39 3.07a40.51 40.51 0 0 0 3.4 2.88c.57.38 1.47 1 2 1.48s1.3 1.17 1.76 1.65a10.88 10.88 0 0 1 2.42 4 9.3 9.3 0 0 0 1.26 2.24 16.5 16.5 0 0 0 2.22 2.19 13.76 13.76 0 0 1 2.3 2.47 14.63 14.63 0 0 1 1.51 3.1 11.79 11.79 0 0 0 1.56 3 10.72 10.72 0 0 0 2.46 2.16 12.55 12.55 0 0 1 2.49 2.05 11.6 11.6 0 0 1 1.65 2.67 16.22 16.22 0 0 0 3.53 5.28 12.21 12.21 0 0 1 1.85 2.51 27.84 27.84 0 0 1 1.24 6.26c.3 2.69.7 5.64.88 6.55a30.26 30.26 0 0 0 .92 3.3 13.83 13.83 0 0 1 .65 3.27 19.7 19.7 0 0 1-.87 4.83c-.52 1.76-1.22 3.88-1.57 4.72s-.82 2.22-1.07 3.07-.57 2.26-.72 3.13a16.53 16.53 0 0 1-1 3.21 36.67 36.67 0 0 1-3.11 4.88c-1.32 1.79-4.27 5.27-6.56 7.73a69.53 69.53 0 0 1-5.83 5.71 34.9 34.9 0 0 1-3.52 2.25 36.21 36.21 0 0 1-3.55 1.65 28.11 28.11 0 0 1-4.74 1.08c-1.68.24-3.75.45-4.59.46s-4.31.48-7.7 1-6.82.8-7.63.54a10.34 10.34 0 0 1-2.84-1.54 8 8 0 0 0-2.92-1.46 7.94 7.94 0 0 0-3.25.21 7 7 0 0 1-3.38 0 10.31 10.31 0 0 1-3.31-2A39.54 39.54 0 0 0 17.9 151c-.51-.36-1.22-.8-1.92-1.21a15.68 15.68 0 0 0 1.31 1.39 36.28 36.28 0 0 0 3.21 2.55 36.31 36.31 0 0 0 3.5 2.12c.54.27 1.25.67 1.93 1.08s1.2.74 1.65 1.05A39.54 39.54 0 0 1 31 160.7a10.31 10.31 0 0 0 3.31 2 7 7 0 0 0 3.38 0 7.94 7.94 0 0 1 3.25-.21 8 8 0 0 1 2.92 1.46 10.34 10.34 0 0 0 2.85 1.61c.81.26 4.25 0 7.63-.54s6.85-1 7.7-1 2.91-.22 4.59-.46a28.11 28.11 0 0 0 4.74-1.08 36.21 36.21 0 0 0 3.55-1.65 34.9 34.9 0 0 0 3.52-2.25 69.53 69.53 0 0 0 5.83-5.71c2.29-2.46 5.24-5.94 6.56-7.73a36.67 36.67 0 0 0 3.17-4.97 16.53 16.53 0 0 0 1-3.21c.15-.87.47-2.28.72-3.13s.73-2.23 1.07-3.07 1-3 1.57-4.72a19.7 19.7 0 0 0 .87-4.83 13.83 13.83 0 0 0-.73-3.21 30.26 30.26 0 0 1-.91-3.34z"/></svg>