<svg xmlns="http://www.w3.org/2000/svg" width="96.42" height="200" viewBox="0 0 96.42 200"><title>_</title><path d="M.28 144a25.06 25.06 0 0 0-.76 4.6 11 11 0 0 0 .48 2.74 3.2 3.2 0 0 0 1.08 1.4 4.82 4.82 0 0 0 2.24.21 34.08 34.08 0 0 1 4.1-.3h.47c1.7.06 6.69.44 11.62.87l.83.07c5.28.47 8.82.23 9.76 0a6.76 6.76 0 0 0 .38-2.82c-.12-1.48-.63-5-1.14-7.85a80.07 80.07 0 0 1-1.07-8 38.16 38.16 0 0 1 .23-5.4c.17-1.33.2-6.61.07-11.53a110.14 110.14 0 0 1 .07-11.17 19.66 19.66 0 0 1 1-3.46 7.54 7.54 0 0 1 2.25-2.91 7.46 7.46 0 0 1 3.49-1.14A12.59 12.59 0 0 0 38 98.8a12.45 12.45 0 0 0 2.41-1.2 11.05 11.05 0 0 1 3.23-1.43 10.48 10.48 0 0 1 3.5-.08 7.3 7.3 0 0 1 3.14 1.36 6 6 0 0 1 1.72 2.86 5.91 5.91 0 0 0 .87 1.79 8.56 8.56 0 0 0 1.47 1.33l.33.23a5.27 5.27 0 0 1 2.28 3 6.17 6.17 0 0 1-.78 3.76 12.06 12.06 0 0 0-1.05 3.14 87.68 87.68 0 0 0-.09 9.79c.14 4.37.39 9.1.56 10.53s.58 3.75.91 5.17a49.81 49.81 0 0 1 .9 5.47 44.83 44.83 0 0 1 .12 5.37 6.75 6.75 0 0 0 .49 3 2.44 2.44 0 0 0 1.52.73 33.87 33.87 0 0 0 3.57-.05c.6 0 1.51-.16 2.44-.3l1.31-.23a18.6 18.6 0 0 1 3.34-.29h1.09a19.72 19.72 0 0 1 4.4 1 23.83 23.83 0 0 0 3.8 1 24.65 24.65 0 0 0 4 .21 4.32 4.32 0 0 0 1.94-.52 2.67 2.67 0 0 0-.07-1.18 19.12 19.12 0 0 1-.75-3.7 36.93 36.93 0 0 1 .73-6.54 29 29 0 0 0 .61-5.56 12.14 12.14 0 0 0-.78-2.62 11.45 11.45 0 0 1-.89-3.56 29 29 0 0 1 1.38-6.56 39.14 39.14 0 0 0 1.35-5.66 15.81 15.81 0 0 0-.17-2.7 23.64 23.64 0 0 1-.29-3.27 24.11 24.11 0 0 1 .26-3.27c.12-.76.26-3 .3-4.94a40.66 40.66 0 0 0-.21-5.26 32.73 32.73 0 0 0-.81-3.54 26.56 26.56 0 0 0-1.24-3.21c-.39-.8-1.9-3.21-3.31-5.27-1.53-2.27-3.05-4.32-3.53-4.8-.07-.08-.3-.31-.95-.89a80.89 80.89 0 0 0-3.37-2.84 40 40 0 0 0-4.66-3.33 16.54 16.54 0 0 0-2.87-1c-.91-.2-3.27-.59-5.15-.83a42.45 42.45 0 0 0-5.24-.41c-1 0-2.79.16-3.92.31a18.52 18.52 0 0 0-3.6.91 78.56 78.56 0 0 0-9.08 6.91l-.72.6-1.67 1.39c-6.49 5.33-7.35 5.51-7.67 5.58a2.29 2.29 0 0 1-1.88-.42 2.71 2.71 0 0 1-1-2 12.94 12.94 0 0 1 .1-2.65 8.16 8.16 0 0 1 .78-2.3 11.23 11.23 0 0 0 .62-1.35 9 9 0 0 0 .28-.92c0-.13.06-.25.07-.36a2.39 2.39 0 0 0 0-.46 24.34 24.34 0 0 0-2.73-1.94 23.26 23.26 0 0 0-4.47-2.25A87.3 87.3 0 0 0 10 74.49a50 50 0 0 0-9.48 1 55 55 0 0 0-.61 10L0 96.64c0 6.1.26 10.74.39 11.38a17.52 17.52 0 0 0 1 3 12.22 12.22 0 0 1 1 3.92 11.61 11.61 0 0 1-.61 4 10.76 10.76 0 0 0-.54 2.87 10.61 10.61 0 0 0 .48 2.86 18.47 18.47 0 0 1 .8 3.72 44.56 44.56 0 0 1-.64 7.08c-.39 2.81-1.13 6.64-1.6 8.53zM28.53 43.67A16.39 16.39 0 0 0 25 45a14.61 14.61 0 0 0-2.85 2.21 19.34 19.34 0 0 0-2.21 3 51.1 51.1 0 0 0-2.53 7.1c-.67 2.27-1.14 4.14-1.37 5.21h.06a5.47 5.47 0 0 1 .75 0 7.63 7.63 0 0 1 1.93.59 6.33 6.33 0 0 0 1.16.39 5.47 5.47 0 0 0 1.11.06c.47 0 1.55-.05 2.51 0a3.9 3.9 0 0 0 1.33-.16 3.26 3.26 0 0 0 .42-.68c.16-.4.56-1.61.87-2.73a8.4 8.4 0 0 1 1.7-3.37 7.27 7.27 0 0 1 2.57-1.41 10.86 10.86 0 0 1 3.27-.35 18.88 18.88 0 0 1 3.67.69c1 .31 2.49.83 3.25 1.15a23.33 23.33 0 0 1 4 2.65c1.42 1.13 2.75 2.1 3.07 2.29a10.59 10.59 0 0 0 1.55.71 3.11 3.11 0 0 0 1.17.09 4.87 4.87 0 0 0 1.39-.63 7.24 7.24 0 0 1 3.4-1 18.57 18.57 0 0 1 4.26.53 9.82 9.82 0 0 0 3.43.16 7.49 7.49 0 0 0 2.72-1.37 28 28 0 0 0 2.63-2.68 28.16 28.16 0 0 0 2.16-3.07A22 22 0 0 0 72 50.81c.17-.51.36-1.26.54-2.06s.32-1.56.4-2.15a12.06 12.06 0 0 0 .06-2.32 2.17 2.17 0 0 0-.5.11c-1.16.39-2.25.82-2.53 1a4.18 4.18 0 0 1-2.55.35 5.42 5.42 0 0 1-2.25-1.28 5.1 5.1 0 0 0-1.13-.78 3.31 3.31 0 0 0-.93-.18 2.47 2.47 0 0 0 0 .5 5.35 5.35 0 0 1-.26 2.6 4 4 0 0 1-1.82 1.84 12.07 12.07 0 0 1-1.84.67 11.43 11.43 0 0 1-1.9.3 8 8 0 0 0-1.43.28 16 16 0 0 0-1.87.75 5.65 5.65 0 0 1-3.15.46c-1.4-.3-4.5-2.9-4.84-3.2a27.71 27.71 0 0 0-3.82-2.83 8.06 8.06 0 0 0-1.92-.44c-.73-.06-1.94-.21-2.69-.35s-2-.42-2.77-.64a11.78 11.78 0 0 0-2.64-.27 24.12 24.12 0 0 0-3.63.5z"/><path d="M98.33 111.86a41.61 41.61 0 0 0-.23-5.52 34 34 0 0 0-.86-3.74 28.09 28.09 0 0 0-1.32-3.43c-.42-.87-2-3.32-3.42-5.46s-3.1-4.38-3.64-5-2.56-2.35-4.49-3.89c-1.27-1-2.66-2-3.69-2.74a12.11 12.11 0 0 0-1.25-.77 13.83 13.83 0 0 0-1.34-.54c.49.43.86.79 1.06 1 .54.59 2.18 2.83 3.64 5s3 4.6 3.42 5.46a28.09 28.09 0 0 1 1.32 3.43 34 34 0 0 1 .86 3.74 41.61 41.61 0 0 1 .23 5.52 51.17 51.17 0 0 1-.31 5.15 18.27 18.27 0 0 0 0 6 17.08 17.08 0 0 1 .19 3 39 39 0 0 1-1.46 6 28.06 28.06 0 0 0-1.31 6 10.07 10.07 0 0 0 .76 3 13.58 13.58 0 0 1 .9 3 29 29 0 0 1-.62 6 36.23 36.23 0 0 0-.71 6.16 17.72 17.72 0 0 0 .68 3.36 3.11 3.11 0 0 1-.25 2.65 5 5 0 0 1-3 1 26 26 0 0 1-4.26-.23 25.35 25.35 0 0 1-4.09-1.07 18.4 18.4 0 0 0-4-.92 17.16 17.16 0 0 0-4 .23c-.39.08-.88.16-1.38.24v2a7.89 7.89 0 0 0 .73 3.87 3.8 3.8 0 0 0 2.7 1.42A34.9 34.9 0 0 0 73 162c1.06-.08 2.82-.33 3.92-.55a17.16 17.16 0 0 1 4-.23 18.4 18.4 0 0 1 4 .92A25.35 25.35 0 0 0 89 163.2a26 26 0 0 0 4.26.23 5 5 0 0 0 3-1 3.11 3.11 0 0 0 .25-2.65 17.72 17.72 0 0 1-.68-3.36 36.23 36.23 0 0 1 .71-6.16 29 29 0 0 0 .62-6 13.58 13.58 0 0 0-.9-3 10.07 10.07 0 0 1-.76-3 28.06 28.06 0 0 1 1.31-6 39 39 0 0 0 1.46-6 17.08 17.08 0 0 0-.19-3 18.27 18.27 0 0 1 0-6 51.17 51.17 0 0 0 .25-5.4zM52.38 105.06a9.11 9.11 0 0 1 1.11-.41 9.83 9.83 0 0 1-1.78-1.65 7.44 7.44 0 0 1-1.15-2.36 4.58 4.58 0 0 0-1.22-2.07 5.91 5.91 0 0 0-2.41-1 9 9 0 0 0-2.91.07 9.66 9.66 0 0 0-2.73 1.21 13.79 13.79 0 0 1-2.77 1.38 13.94 13.94 0 0 1-3.05.57 6.08 6.08 0 0 0-2.7.87 6.14 6.14 0 0 0-1.77 2.26 18.19 18.19 0 0 0-.92 3.15c-.16.92-.19 5.8 0 10.86s.1 10.35-.08 11.76a36.4 36.4 0 0 0-.22 5.14c.06 1.41.53 4.93 1.05 7.8s1 6.48 1.16 8a7 7 0 0 1-.79 4c-.56.71-5.49.89-11 .41l-.82-.05c-5-.44-9.89-.81-11.53-.86-.05.38-.08.71-.1 1s0 .3 0 .42a12.46 12.46 0 0 0 .6 3.21 4.57 4.57 0 0 0 1.8 2.23 6.17 6.17 0 0 0 3.16.36 32.47 32.47 0 0 1 3.88-.29c1.08 0 6.44.39 11.92.87l.81.06c5.48.48 10.42.3 11-.41a7 7 0 0 0 .79-4c-.12-1.52-.65-5.12-1.16-8s-1-6.39-1.05-7.8a36.4 36.4 0 0 1 .22-5.14c.18-1.41.22-6.71.08-11.76s-.12-9.94 0-10.86a18.19 18.19 0 0 1 .92-3.15 6.14 6.14 0 0 1 1.73-2.27 6.08 6.08 0 0 1 2.7-.87 13.94 13.94 0 0 0 3.05-.57 13.79 13.79 0 0 0 2.8-1.38 9 9 0 0 1 1.38-.73zM31 80a3.93 3.93 0 0 0-.55 0l-1-.07a10.61 10.61 0 0 1-.32 1.07 12.7 12.7 0 0 1-.72 1.58 6.79 6.79 0 0 0-.61 1.82 11.61 11.61 0 0 0-.08 2.29 1 1 0 0 0 1.12 1.05c.49-.1 3.49-2.37 7-5.27l-.91-.55A21 21 0 0 0 31 80zM37.34 67.3a7.24 7.24 0 0 1 1.28-2.67 5.89 5.89 0 0 1 2-1.06 9.61 9.61 0 0 1 2.75-.28 17.42 17.42 0 0 1 3.32.63h.08c.88.27 2 .68 2.78 1l.22.08a22.19 22.19 0 0 1 3.67 2.44c1.31 1 2.77 2.13 3.25 2.41a11.92 11.92 0 0 0 1.83.84 4.52 4.52 0 0 0 1.93.14 6.23 6.23 0 0 0 2-.87 5.87 5.87 0 0 1 2.55-.75 16.7 16.7 0 0 1 3.83.49 11.12 11.12 0 0 0 4.1.17 8.93 8.93 0 0 0 3.4-1.71 29.77 29.77 0 0 0 2.8-2.86 29.61 29.61 0 0 0 2.32-3.3 23.43 23.43 0 0 0 1.7-3.81 31.07 31.07 0 0 0 1-4.47 10.05 10.05 0 0 0 0-3.45c-.2-.58-1.25-.75-2.33-.39A27.71 27.71 0 0 0 79 51a2.71 2.71 0 0 1-1.55.23 4 4 0 0 1-1.54-.9 6.83 6.83 0 0 0-1-.77 4.4 4.4 0 0 0-.56-.31l-.35-.17c-.18.82-.39 1.62-.58 2.2a23.43 23.43 0 0 1-1.7 3.81 29.61 29.61 0 0 1-2.3 3.27 29.77 29.77 0 0 1-2.8 2.86 8.93 8.93 0 0 1-3.4 1.71 11.12 11.12 0 0 1-4.1-.17 16.7 16.7 0 0 0-3.83-.49 5.87 5.87 0 0 0-2.59.73 6.23 6.23 0 0 1-2 .87 4.52 4.52 0 0 1-1.93-.14 11.92 11.92 0 0 1-1.77-.81c-.48-.28-1.94-1.37-3.25-2.41a22.19 22.19 0 0 0-3.67-2.44c-.71-.3-2.1-.8-3.1-1.1a17.42 17.42 0 0 0-3.32-.63 9.61 9.61 0 0 0-2.75.28 5.89 5.89 0 0 0-2 1.06 7.24 7.24 0 0 0-1.28 2.67c-.3 1.09-.72 2.4-.93 2.9a3.79 3.79 0 0 1-1 1.36 1.34 1.34 0 0 1-.34.16l-.31 1.11a27.52 27.52 0 0 0-1 4.41.71.71 0 0 0 .81.69 5 5 0 0 1 1.46 0 6.27 6.27 0 0 1 1.5.46 7.79 7.79 0 0 0 1.52.51 6.69 6.69 0 0 0 1.52.09h2.35a4.58 4.58 0 0 0 2.19-.41 3.79 3.79 0 0 0 1-1.36c.22-.58.6-1.88.94-2.97z"/></svg>