<svg xmlns="http://www.w3.org/2000/svg" width="93.87" height="200" viewBox="0 0 93.87 200"><title>_</title><path d="M32.52 56.86a35.77 35.77 0 0 1 2.63 4.28A6.77 6.77 0 0 0 37 63.43a2 2 0 0 0 1.45-.09c.42-.22 1-.46 1.5-.69s1.26-.5 1.7-.63a15.86 15.86 0 0 1 3.09-.57 13.76 13.76 0 0 1 3 .21 16 16 0 0 1 3 1 9.81 9.81 0 0 0 2 .66 4.44 4.44 0 0 0 1 0 3.89 3.89 0 0 0-.3-.44 19.32 19.32 0 0 1-1.74-2.76 27.56 27.56 0 0 1-1.34-3.33A10.94 10.94 0 0 0 49 54.12 11.61 11.61 0 0 0 46.77 52a11 11 0 0 1-1.54-1.32 10.83 10.83 0 0 1-1.37-1.65 13.57 13.57 0 0 1-1.56-4 3 3 0 0 0-.86-1.58 4.24 4.24 0 0 0-2.17.09 26.82 26.82 0 0 1-4.43.9 24.61 24.61 0 0 1-4.4-.06c-1.16-.14-3.94-.67-6.18-1.17a42 42 0 0 0-5.58-.91h-.22a14.87 14.87 0 0 0-2.95.32 2.3 2.3 0 0 0-.9.45 4.08 4.08 0 0 0 .58 1.35 11.81 11.81 0 0 0 2.39 2.43 16.43 16.43 0 0 0 3.51 1.72 27.27 27.27 0 0 1 2.57 1c.52.23 1.26.59 1.87.93a26.16 26.16 0 0 1 3.8 2.75A29.42 29.42 0 0 1 32 56.24zM4.06 140.24a15.65 15.65 0 0 0 3.11 2 31.18 31.18 0 0 1 3.89 2.23c.38.27.84.62 1.3 1a26.67 26.67 0 0 1 2 1.83 19.37 19.37 0 0 0 1.71 1.5c.43.34.82.62 1.13.82a22.47 22.47 0 0 0 2.61 1.23c1.21.51 2.56 1 3.79 1.45a57.45 57.45 0 0 0 6.22 1.88 18.09 18.09 0 0 0 2.73.11 23.43 23.43 0 0 1 3.28.11 24.24 24.24 0 0 1 3.24.66 11.8 11.8 0 0 0 2.55.36 11 11 0 0 0 2.53-.41 12.33 12.33 0 0 1 3.24-.46h.3a14.24 14.24 0 0 1 3.63.76 7.16 7.16 0 0 0 2.46.37 76.12 76.12 0 0 0 9.46-5l6.62-3.94c5.36-3.19 8.92-5.87 9.24-6.35a11.6 11.6 0 0 0 1.36-3.31 23.28 23.28 0 0 1 1.37-4.23 17.22 17.22 0 0 1 2.21-3.45 5.73 5.73 0 0 0 1.1-2.18 6.41 6.41 0 0 0-.28-2.57 24 24 0 0 1-.93-3.72 18.54 18.54 0 0 1-.12-3.6 31.57 31.57 0 0 1 .62-3.72c.26-1.1.83-3 1.26-4.33a9.58 9.58 0 0 0 .38-3.63 30.1 30.1 0 0 0-3.69-6.78 89.76 89.76 0 0 1-5.49-9.2c-.28-.59-.62-1.22-1-1.88a13.75 13.75 0 0 0-1.86-2.68 37.88 37.88 0 0 0-6.81-3.5 92.1 92.1 0 0 1-9-4.37 17.17 17.17 0 0 0-4-1.86 8.23 8.23 0 0 0-2.63.17 11.84 11.84 0 0 1-3.9.25 12.18 12.18 0 0 1-3.74-1.29 7.13 7.13 0 0 0-2.47-.78 6.45 6.45 0 0 0-2.38.5 12.61 12.61 0 0 1-3.65 1 12.92 12.92 0 0 1-3.77-.36 17.3 17.3 0 0 0-3-.48 16.16 16.16 0 0 0-2.9.18 25.33 25.33 0 0 0-3.16.84c-.92.32-2.55 1-3.58 1.5a34 34 0 0 0-3.55 2c-.93.63-4 3.08-6.65 5.35a55.65 55.65 0 0 0-6 5.67A39 39 0 0 0 0 96.69c-1.08 3.14-2 6.1-2.13 6.8s-.38 2.19-.45 3a26.46 26.46 0 0 0-.07 3 27 27 0 0 0 .35 3 13.85 13.85 0 0 1 .1 3.67 15.59 15.59 0 0 1-1 3.63 12.62 12.62 0 0 0-.81 2.81 10.86 10.86 0 0 0 .01 2.76 22.17 22.17 0 0 0 .79 2.88A69.35 69.35 0 0 0 0 134.37a36 36 0 0 0 4.06 5.87z"/><path d="M28.33 54.46a24.31 24.31 0 0 0-3.53-2.56c-.47-.27-1.09-.58-1.8-.9a5.54 5.54 0 0 0 .61 1.23l.19.27a13.53 13.53 0 0 0 2.58 2.55 16 16 0 0 0 2.44 1.34 15.31 15.31 0 0 0 1.47.59l.52.18a27.88 27.88 0 0 0-2.48-2.7zM41.14 64.86a34.46 34.46 0 0 1 2.39 3.9A7.94 7.94 0 0 0 46 71.69a3.44 3.44 0 0 0 2.85-.07 21.42 21.42 0 0 1 2.95-1.22 14.33 14.33 0 0 1 2.74-.51 12.43 12.43 0 0 1 2.64.18 14.43 14.43 0 0 1 2.64.87 11.13 11.13 0 0 0 2.43.77 5.54 5.54 0 0 0 2-.1 1.24 1.24 0 0 0 .92-1 3.81 3.81 0 0 0-.85-1.79 17.79 17.79 0 0 1-1.58-2.51 25.77 25.77 0 0 1-1.25-3.11 12.4 12.4 0 0 0-1.58-3.08 13 13 0 0 0-2.56-2.42 10.65 10.65 0 0 1-2.49-2.54 12 12 0 0 1-1.35-3.45 4.2 4.2 0 0 0-1.63-2.61 5.21 5.21 0 0 0-3.32 0c-.31.1-.67.19-1.06.28l-1.19.26a9.6 9.6 0 0 0 1.32 1.13 13 13 0 0 1 2.56 2.42 12.4 12.4 0 0 1 1.58 3.08A25.77 25.77 0 0 0 53 59.41a17.79 17.79 0 0 0 1.58 2.51 3.81 3.81 0 0 1 .85 1.79 1.24 1.24 0 0 1-.92 1 5.54 5.54 0 0 1-2 .1 11.13 11.13 0 0 1-2.44-.81 14.43 14.43 0 0 0-2.64-.87 12.43 12.43 0 0 0-2.64-.18 14.33 14.33 0 0 0-2.74.51c-.42.13-1 .34-1.56.58.19.23.37.46.53.67zM11.41 146.66a12.22 12.22 0 0 0 1.36 1.64 16.47 16.47 0 0 0 2.42 1.7 20.8 20.8 0 0 1-1.86-1.63 25.61 25.61 0 0 0-1.92-1.71zM93.37 105A88.25 88.25 0 0 1 88 96a21.19 21.19 0 0 0-3.2-5 32.6 32.6 0 0 0-6.06-3.27l-1.18-.51-.34-.22c.38.65.75 1.33 1.06 2a88.25 88.25 0 0 0 5.38 9c2 2.92 3.76 6.25 3.93 7.39a10.91 10.91 0 0 1-.45 4.34c-.42 1.25-1 3.13-1.22 4.19a29.83 29.83 0 0 0-.59 3.5 17.21 17.21 0 0 0 .11 3.25 22.25 22.25 0 0 0 .86 3.44 7.88 7.88 0 0 1 .34 3.32 7.21 7.21 0 0 1-1.44 2.9 15.8 15.8 0 0 0-2 3.1 21.92 21.92 0 0 0-1.26 3.9 13 13 0 0 1-1.58 3.84c-.62.93-5 4-9.72 6.8L64 151.94c-4.73 2.81-9.26 5.18-10.09 5.25a8.51 8.51 0 0 1-3.11-.46 12.74 12.74 0 0 0-3.17-.66 10.75 10.75 0 0 0-3 .39 12.52 12.52 0 0 1-3 .47 12.42 12.42 0 0 1-3-.42 22.56 22.56 0 0 0-3-.61 22 22 0 0 0-3-.1 20 20 0 0 1-3-.12 56.55 56.55 0 0 1-6.51-1.95c-1.32-.46-2.69-1-3.87-1.48l.63.42a26.33 26.33 0 0 1 2.16 1.73c.37.32.71.64 1 .91a21.65 21.65 0 0 0 3.11 2.53 45.53 45.53 0 0 0 6.71 2.83 56.55 56.55 0 0 0 6.51 1.95 20 20 0 0 0 3 .12 22 22 0 0 1 3 .1 22.56 22.56 0 0 1 3 .61 12.42 12.42 0 0 0 3 .42 12.52 12.52 0 0 0 3-.47 10.75 10.75 0 0 1 3-.39 12.74 12.74 0 0 1 3.17.66 8.51 8.51 0 0 0 3.11.46c.82-.08 5.36-2.44 10.09-5.25l6.62-3.94c4.73-2.81 9.1-5.87 9.72-6.8a13 13 0 0 0 1.58-3.84 21.92 21.92 0 0 1 1.26-3.9 15.8 15.8 0 0 1 2-3.1 7.21 7.21 0 0 0 1.44-2.9 7.88 7.88 0 0 0-.34-3.32 22.25 22.25 0 0 1-.86-3.44 17.21 17.21 0 0 1-.11-3.25 29.83 29.83 0 0 1 .59-3.5c.25-1.06.8-2.94 1.22-4.19a10.91 10.91 0 0 0 .45-4.34c-.19-1.15-1.96-4.47-3.94-7.36z"/></svg>