<svg xmlns="http://www.w3.org/2000/svg" width="95.15" height="200" viewBox="0 0 95.15 200"><title>_</title><path d="M59.84 42.11a25.64 25.64 0 0 0-3.75.58 25 25 0 0 1-4.41.6 27.6 27.6 0 0 1-4.52-.36 5.93 5.93 0 0 0-2.71.17 18.29 18.29 0 0 0-2.81 4.9 69.14 69.14 0 0 1-3.15 6.75 56.37 56.37 0 0 1-4.92 5.67c-.51.53-.94 1-1.31 1.4a9.49 9.49 0 0 1 1.15-.09 11 11 0 0 1 3.27.57c.67.25 2.4.74 3.8 1.08a14.36 14.36 0 0 0 2.75.4 2.71 2.71 0 0 0 .45 0c.4-.11 3.87-1.91 8.94-4.92A120.24 120.24 0 0 0 67.64 48c.61-.54 1.2-1.07 1.76-1.58 1.83-1.68 3-2.84 3.62-3.54a40.47 40.47 0 0 0-4.63-.51c-3.52-.19-7.51-.37-8.55-.26zM.31 124a19.41 19.41 0 0 0-.43 4.29 8.45 8.45 0 0 0 .8 2.41 22.16 22.16 0 0 0 1.78 2.61A34.17 34.17 0 0 0 5 136.05a19.93 19.93 0 0 1 2.87 3.55 23 23 0 0 1 1.92 4.31 8.64 8.64 0 0 0 1.7 2.92 8.24 8.24 0 0 0 2.91 1.59 43.36 43.36 0 0 1 4.22 1.43 39 39 0 0 1 4 2c.93.54 2.43 1.31 3.28 1.68a23.32 23.32 0 0 0 2.9 1c.76.19 2.75.54 4.36.76a52.61 52.61 0 0 0 5.87.41c1.73 0 3.85.07 4.73.16a32.91 32.91 0 0 1 3.27.52 20.86 20.86 0 0 0 2.85.39 20.84 20.84 0 0 0 2.84-.1c.81-.1 2.81-.47 4.46-.83a27.74 27.74 0 0 0 4.39-1.32 33.14 33.14 0 0 0 3.27-1.83c1-.62 2.43-1.69 3.28-2.39s4.88-4.5 8.7-8.3l.52-.52c4.38-4.32 7.19-7.68 7.4-8.19a8.33 8.33 0 0 0 .39-2.8 16.85 16.85 0 0 1 .19-3.79 15.78 15.78 0 0 1 1.2-3.53 25.05 25.05 0 0 0 2.11-5.94 9.79 9.79 0 0 0 0-2.94 16.91 16.91 0 0 0-1.18-3.57 32.4 32.4 0 0 1-1.66-4.48 29.55 29.55 0 0 1-.79-4.59c-.09-1.15-.33-3-.54-4.09s-.66-2.87-1-3.91A18.63 18.63 0 0 0 82 90.28a52.42 52.42 0 0 0-5.28-5.76l-.17-.16a52.3 52.3 0 0 0-6.17-5.3 19.46 19.46 0 0 0-3.63-1.5c-1.21-.34-3.73-1.22-5.62-2a28.8 28.8 0 0 0-4.62-1.45 12.86 12.86 0 0 0-2.9 0 19.79 19.79 0 0 1-3.69.14 19.38 19.38 0 0 1-3.6-.69 13.94 13.94 0 0 0-2.83-.5 12.47 12.47 0 0 0-2.77.26 32.2 32.2 0 0 1-3.37.55 31.06 31.06 0 0 1-3.42.11h-.2a15.19 15.19 0 0 0-2.62.24 66.09 66.09 0 0 0-6.47 2.39 43.61 43.61 0 0 0-6.49 3.19 15.71 15.71 0 0 0-2.59 2.68A22.35 22.35 0 0 1 12.41 86a23.83 23.83 0 0 1-3.93 2.57 12.38 12.38 0 0 0-2.94 2.13A32.18 32.18 0 0 0 2.3 97a54.93 54.93 0 0 0-2.3 6.46A52.45 52.45 0 0 0 .46 111a78.33 78.33 0 0 1 .62 8.14C1 120 .68 122.17.31 124zM70.42 47.54c-.57.52-1.17 1.06-1.79 1.61a122.36 122.36 0 0 1-15.24 11A85.59 85.59 0 0 1 44 65.28a3.84 3.84 0 0 1-.78 0l-.89.94-.1.11c-2.1 2.18-3.77 4.16-3.71 4.41s.8.22 1.65-.05a12 12 0 0 1 3-.5 9.47 9.47 0 0 1 2.75.48c.69.25 2.34.72 3.74 1.07l.21.05a12.15 12.15 0 0 0 3.85.4 9.1 9.1 0 0 0 1.46-.65c1.76-.89 4.79-2.57 8-4.45a122.36 122.36 0 0 0 15.24-11c3.87-3.4 6.93-6.56 6.8-7s-3.26-1-7-1.24c-2.25-.13-4.59-.23-6.32-.27z"/><path d="M97.57 130.82a26.49 26.49 0 0 0 2.24-6.3 11.09 11.09 0 0 0 0-3.51 18.49 18.49 0 0 0-1.31-4 30.68 30.68 0 0 1-1.5-4.2 27.9 27.9 0 0 1-.74-4.31c-.09-1.2-.34-3.11-.56-4.26s-.68-3-1-4.08a20.26 20.26 0 0 0-1.7-3.72 53.09 53.09 0 0 0-5.68-6.21 52.25 52.25 0 0 0-6.52-5.53c-.24-.14-.53-.28-.84-.43a23.54 23.54 0 0 0-2.4-1 53.09 53.09 0 0 1 5.68 6.21 20.26 20.26 0 0 1 1.69 3.73c.35 1.1.81 2.93 1 4.08s.47 3.06.56 4.26a27.9 27.9 0 0 0 .74 4.31 30.68 30.68 0 0 0 1.57 4.23 18.49 18.49 0 0 1 1.31 4 11.09 11.09 0 0 1 0 3.51 26.49 26.49 0 0 1-2.24 6.3 14.33 14.33 0 0 0-1.08 3.1 15.36 15.36 0 0 0-.17 3.39 9.74 9.74 0 0 1-.48 3.45c-.34.93-3.83 4.86-7.74 8.72l-.53.52c-3.92 3.86-7.85 7.62-8.74 8.35s-2.43 1.85-3.42 2.49a34.52 34.52 0 0 1-3.46 1.93 28.41 28.41 0 0 1-4.71 1.43c-1.68.36-3.74.74-4.59.85a21.85 21.85 0 0 1-3.09.11 22.53 22.53 0 0 1-3.1-.42 30.83 30.83 0 0 0-3.09-.49c-.85-.08-2.91-.15-4.59-.15a54.45 54.45 0 0 1-6.08-.42c-1.67-.23-3.7-.58-4.52-.79a24.6 24.6 0 0 1-3.13-1.08c-.9-.39-2.45-1.18-3.44-1.76a37.54 37.54 0 0 0-3.77-1.87h-.08v.06a8.6 8.6 0 0 0 .53 1.28 9.23 9.23 0 0 0 1.55 2.28 9.64 9.64 0 0 0 3.56 2 41.69 41.69 0 0 1 4.13 1.4 37.54 37.54 0 0 1 3.77 1.87c1 .58 2.54 1.37 3.44 1.76a24.6 24.6 0 0 0 3.13 1.08c.82.2 2.85.56 4.52.79a54.45 54.45 0 0 0 6.08.42c1.68 0 3.74.07 4.59.15a30.83 30.83 0 0 1 3.09.49 22.53 22.53 0 0 0 3.1.42 21.85 21.85 0 0 0 3.09-.11c.85-.1 2.92-.49 4.59-.85a28.41 28.41 0 0 0 4.77-1.5 34.52 34.52 0 0 0 3.46-1.93c1-.64 2.53-1.76 3.42-2.49s4.82-4.48 8.74-8.35l.53-.52c3.92-3.86 7.4-7.78 7.74-8.72a9.74 9.74 0 0 0 .48-3.45 15.36 15.36 0 0 1 .13-3.34 14.33 14.33 0 0 1 1.07-3.18z"/></svg>