<svg xmlns="http://www.w3.org/2000/svg" width="95.17" height="200" viewBox="0 0 95.17 200"><title>_</title><path d="M86.75 113.07a53.78 53.78 0 0 0 .81-7.66 30.2 30.2 0 0 0-.58-4.19 26.05 26.05 0 0 0-1.28-3.91 22.88 22.88 0 0 0-2-3.4c-.66-.91-1.79-2.3-2.53-3.1s-3.47-3.3-6-5.49c-.66-.57-1.39-1.18-2.14-1.8-2.26-1.85-4.62-3.66-6-4.59a46.46 46.46 0 0 0-5.05-3 21.55 21.55 0 0 0-3.09-1 13.46 13.46 0 0 0-2.9-.29A15.65 15.65 0 0 0 53 75c-1 .28-2.58.63-3.53.77a30.93 30.93 0 0 1-3.43.3 18 18 0 0 1-3.49-.32 21.84 21.84 0 0 1-3.47-1.08 8.34 8.34 0 0 0-2.49-.5 6.73 6.73 0 0 0-2.33.68 11.47 11.47 0 0 1-3.6 1.15 12.79 12.79 0 0 1-3.89-.28 10.41 10.41 0 0 0-2.2-.22 7.65 7.65 0 0 0-.9 0 15.37 15.37 0 0 0-3.47 1 41.2 41.2 0 0 0-3.72 1.92A41.42 41.42 0 0 0 13 80.88a26.39 26.39 0 0 0-2.95 2.77 25.51 25.51 0 0 0-2.34 3.26c-.57 1-1.41 2.65-1.84 3.66a38.79 38.79 0 0 0-1.34 3.77 29.45 29.45 0 0 1-1.47 3.91 21.11 21.11 0 0 1-2 3.25A6.7 6.7 0 0 0 0 103.69a7 7 0 0 0 .09 2.48 28.5 28.5 0 0 1 .6 3.48 56.64 56.64 0 0 1-.2 6.42c-.19 2.48-.29 5.83-.23 7.46a27.77 27.77 0 0 0 .44 4.21 19.47 19.47 0 0 0 .92 2.61c.36.8 1.24 3.14 2 5.22a49.75 49.75 0 0 0 2.15 5.32 27.71 27.71 0 0 0 2.14 3.3 16.72 16.72 0 0 0 2.68 2.63 47.16 47.16 0 0 0 5.78 2.93l1.44.63c3.45 1.48 6.6 2.71 7.39 2.94a16.18 16.18 0 0 0 2.91.51c1 .05 6.26.74 10.74 1.38a74.44 74.44 0 0 0 10 1 9.91 9.91 0 0 0 2.38-1 10.76 10.76 0 0 1 3.5-1.35 11.22 11.22 0 0 1 3.78.17 12.07 12.07 0 0 0 3 .2 17.6 17.6 0 0 0 3.52-.8 22 22 0 0 0 3.54-1.69 22.27 22.27 0 0 0 3.08-2.44c.88-.86 3.14-2.82 5-4.37a32.47 32.47 0 0 0 4.35-4.17 37.88 37.88 0 0 0 2.84-6.76 55.67 55.67 0 0 0 1.91-6.76 18.18 18.18 0 0 0 0-3 27.23 27.23 0 0 1-.09-3.55c.09-1.03.55-4.34 1.09-7.62zM50.06 61.57a3.68 3.68 0 0 0 .46.48 4 4 0 0 0 .53.42 6.51 6.51 0 0 0 1.57.61 11.53 11.53 0 0 0 2.26.21h.71c.7 0 1.47-.12 2-.2a23.19 23.19 0 0 0 2.65-.65 16.06 16.06 0 0 1 3.2-.63 48.8 48.8 0 0 1 6.5.61 22.5 22.5 0 0 0 3.07.24 5.43 5.43 0 0 0-.38-.66 38.12 38.12 0 0 0-2.29-3.13c-.65-.77-3.07-3.1-5.3-5.08s-4.69-4.3-5.47-5.17l-.08-.09a38 38 0 0 1-2.4-3.08 10 10 0 0 0-2-2.07 7.49 7.49 0 0 0-2.34-1c-.83-.14-2.22-.31-3-.37s-2.19-.07-3 0a17.49 17.49 0 0 0-2.86.42 20.66 20.66 0 0 0-2.9 1 24.79 24.79 0 0 1-3.27 1.19 16.5 16.5 0 0 1-3.11.47 8.37 8.37 0 0 0-2.17.45A13.06 13.06 0 0 0 30 46.95 22.16 22.16 0 0 0 27.68 49a25.34 25.34 0 0 0-2.1 2.56 29.45 29.45 0 0 1-2.48 3 30.72 30.72 0 0 1-3 2.62c-.78.59-2.08 1.7-2.84 2.42s-2 2-2.76 2.92a5.91 5.91 0 0 0-.39.5c1.06-.08 3.29-.11 5-.07s3.56 0 4.31 0a23.35 23.35 0 0 0 2.62-.38c.45-.1 1.05-.2 1.64-.29s1-.13 1.33-.17a25.66 25.66 0 0 1 2.91-.06 7.74 7.74 0 0 0 1.82-.14 2.56 2.56 0 0 0 .81-.42c.39-.4 1.37-1.24 2.08-1.83A6.84 6.84 0 0 0 38 58.23a4.44 4.44 0 0 0 .24-1.37 5 5 0 0 1 .76-2.67 3.89 3.89 0 0 1 2.39-1.39 5 5 0 0 1 .75-.06 4 4 0 0 1 1.63.31A3.18 3.18 0 0 1 45.32 55a2.78 2.78 0 0 0 .41.73 5.62 5.62 0 0 0 1 .81 7 7 0 0 1 1.8 1.65 7.14 7.14 0 0 1 1 2.24 4.18 4.18 0 0 0 .53 1.14z"/><path d="M98.15 107.83a27.33 27.33 0 0 0-1.37-4.18 24.35 24.35 0 0 0-2.11-3.65C94 99 92.8 97.58 92 96.75s-3.52-3.36-6.12-5.61c-1.47-1.27-3.28-2.74-4.95-4-1.28-1-2.48-1.88-3.33-2.46-1.18-.8-2.52-1.64-3.6-2.27.77.63 1.51 1.25 2.17 1.82 2.6 2.25 5.35 4.77 6.12 5.61s2 2.29 2.64 3.23a24.35 24.35 0 0 1 2.11 3.67 27.33 27.33 0 0 1 1.37 4.18 31.57 31.57 0 0 1 .61 4.45 55.1 55.1 0 0 1-.83 8c-.52 3.16-1 6.49-1 7.39a25.38 25.38 0 0 0 .09 3.31 19.76 19.76 0 0 1 0 3.3 54.76 54.76 0 0 1-2 7.09 38 38 0 0 1-3.05 7.16 33.23 33.23 0 0 1-4.58 4.38c-1.86 1.52-4.08 3.44-4.94 4.28a23.59 23.59 0 0 1-3.34 2.64 23.45 23.45 0 0 1-3.83 1.84 19.23 19.23 0 0 1-3.89.88 13.34 13.34 0 0 1-3.52-.23 9.87 9.87 0 0 0-3.2-.15A9.35 9.35 0 0 0 52 156.4a11.28 11.28 0 0 1-2.87 1.23c-.81.19-5.55-.24-10.53-.94s-9.75-1.32-10.6-1.36a17.54 17.54 0 0 1-3.25-.56c-.94-.27-4.35-1.62-7.57-3l-1.47-.65c.24.35.47.67.68.94s.38.47.61.72a18.34 18.34 0 0 0 2.35 2.22 57.26 57.26 0 0 0 7.53 3.74c3.22 1.38 6.63 2.73 7.57 3a17.54 17.54 0 0 0 3.25.56c.85 0 5.62.65 10.6 1.36s9.72 1.13 10.53.94a11.28 11.28 0 0 0 2.87-1.23 9.35 9.35 0 0 1 2.93-1.13 9.87 9.87 0 0 1 3.2.15 13.34 13.34 0 0 0 3.52.23 19.23 19.23 0 0 0 3.89-.88 23.45 23.45 0 0 0 3.83-1.84 23.59 23.59 0 0 0 3.34-2.64c.85-.84 3.07-2.76 4.94-4.28A33.23 33.23 0 0 0 92 148.5a38 38 0 0 0 3-7.16 54.76 54.76 0 0 0 2-7.09 19.76 19.76 0 0 0 0-3.3 25.38 25.38 0 0 1-.09-3.31c0-.9.51-4.22 1-7.39a55.1 55.1 0 0 0 .83-8 31.57 31.57 0 0 0-.59-4.42zM48.08 60.74a5.68 5.68 0 0 0-.75-1.7A5.61 5.61 0 0 0 46 57.79a6.87 6.87 0 0 1-1.35-1.11 4.14 4.14 0 0 1-.72-1.29 1.73 1.73 0 0 0-.77-1 3.11 3.11 0 0 0-1.51-.12 2.44 2.44 0 0 0-1.4.79 3.54 3.54 0 0 0-.46 1.77 5.87 5.87 0 0 1-.37 2 7.43 7.43 0 0 1-1.78 2c-.77.63-1.65 1.4-2 1.71a3.83 3.83 0 0 1-1.49.82 9.14 9.14 0 0 1-2.28.19 24.35 24.35 0 0 0-2.71.06c-.34 0-.79.09-1.25.16-.5.41-1 .87-1.48 1.28l-.43.42c-.8.76-2.09 2.12-2.87 3a4 4 0 0 0-1.2 2.38c.12.41 1 .68 2 .6s3.19-.11 4.86-.07 3.67 0 4.45 0a24.64 24.64 0 0 0 2.84-.38 27.37 27.37 0 0 1 2.79-.43 24.35 24.35 0 0 1 2.71-.06 9.14 9.14 0 0 0 2.28-.19 3.83 3.83 0 0 0 1.49-.82c.3-.31 1.18-1.08 2-1.71a7.43 7.43 0 0 0 1.78-2 5.47 5.47 0 0 0 .33-1.41 5 5 0 0 0 0-.57 3.7 3.7 0 0 1 .06-.63 5 5 0 0 1-.67-.71 5.63 5.63 0 0 1-.77-1.73zM84.45 70.72a4.06 4.06 0 0 0-.84-2.56 39.4 39.4 0 0 0-2.41-3.28c-.7-.83-3.15-3.19-5.45-5.24s-4.75-4.35-5.42-5.11A36.23 36.23 0 0 1 68 51.59a11.28 11.28 0 0 0-2.39-2.46 8.92 8.92 0 0 0-2.93-1.2l-.43-.07c-.49-.07-1.06-.15-1.61-.21.74.82 3.11 3.05 5.36 5.05s4.76 4.41 5.45 5.24a39.4 39.4 0 0 1 2.41 3.28 4.06 4.06 0 0 1 .84 2.56c-.17.43-2.44.47-5.05.09a47.35 47.35 0 0 0-6.18-.6 14.47 14.47 0 0 0-2.85.56 24.26 24.26 0 0 1-2.86.7c-.56.09-1.39.18-2.1.22a5.87 5.87 0 0 1 1.08.91A3.49 3.49 0 0 1 57 66a5.68 5.68 0 0 1 .75 1.7 5.63 5.63 0 0 0 .77 1.71A6 6 0 0 0 60 70.68a8 8 0 0 0 2 .8 13.78 13.78 0 0 0 2.61.24 23 23 0 0 0 2.89-.25 24.26 24.26 0 0 0 2.86-.7 14.47 14.47 0 0 1 2.85-.56 47.35 47.35 0 0 1 6.18.6c2.61.38 4.89.34 5.06-.09z"/></svg>