<svg xmlns="http://www.w3.org/2000/svg" width="200" height="200" viewBox="0 0 200 200"><title>_</title><path d="M123.06,50.5a2,2,0,0,1-.06-0.66c-0.25.49-.55,1-0.86,1.53a2,2,0,0,0,.55-0.05A0.66,0.66,0,0,0,123.06,50.5Z" fill="none"/><path d="M127.35,82.4a16,16,0,0,0-2.93-2.48,22.86,22.86,0,0,0-3.61-1.76,23.15,23.15,0,0,0-3.92-.95,37.57,37.57,0,0,1-4.07-.79,24,24,0,0,1-3.4-1.23c-0.76-.36-2.07-0.91-2.86-1.19s-2.15-.71-3-0.92-2.95-.58-4.65-0.81a35.16,35.16,0,0,0-4.61-.34,25.56,25.56,0,0,0-3,.36,26.1,26.1,0,0,1-3.29.37,26.74,26.74,0,0,1-3.35-.13A16.34,16.34,0,0,0,83,72.44c-0.47,0-.92,0-1.27,0a44.66,44.66,0,0,0-6.51,2.07,34.94,34.94,0,0,0-6.52,3.12A17.65,17.65,0,0,0,66,80.55a33.11,33.11,0,0,1-2.81,3.37A30.79,30.79,0,0,1,60,86.73a10.35,10.35,0,0,0-4,5.84c-0.31,1.13-1.09,3.45-1.75,5.17a44.09,44.09,0,0,1-2,4.64c-0.45.8-1.28,2.11-1.84,2.93a17.75,17.75,0,0,0-1.51,2.77A16,16,0,0,0,48,111a10.22,10.22,0,0,0,0,2.84,11.24,11.24,0,0,0,1.06,2.78c0.49,0.85,1.48,2.86,2.2,4.47A15.4,15.4,0,0,1,52.67,126a15,15,0,0,1-.61,3.76,8.16,8.16,0,0,0-.21,3.17,10.26,10.26,0,0,0,1.4,3.2,22.94,22.94,0,0,0,2.64,3,59.79,59.79,0,0,0,6.77,4.51l1.26,0.72c3.25,1.8,8.37,4.3,12.16,5.93,4.05,1.75,8.8,3.92,9.74,4.55a4.71,4.71,0,0,0,5,.33,28.18,28.18,0,0,1,3.25-1.28,22.34,22.34,0,0,1,3.19-.69,15.78,15.78,0,0,1,3.29,0,19.2,19.2,0,0,1,3.39.81,6.66,6.66,0,0,0,2.61.3,6.27,6.27,0,0,0,2.33-1.06,29.82,29.82,0,0,1,3-2c1-.58,4.68-2.09,7.6-3.21a42.25,42.25,0,0,0,7.2-3.37,42.93,42.93,0,0,0,4.95-6.35,63.17,63.17,0,0,0,4.13-6.82,12.88,12.88,0,0,0,.72-3.09,17.56,17.56,0,0,1,.68-3.51,18.74,18.74,0,0,1,1.52-3.31,7.28,7.28,0,0,0,.87-2.66,7.74,7.74,0,0,0-.52-2.82,16.18,16.18,0,0,1-1-3.9,21.55,21.55,0,0,1,.11-4.37,18.36,18.36,0,0,0,0-4,18,18,0,0,0-1.06-3.86c-0.46-1.09-1.27-2.78-1.8-3.76s-1.43-2.5-2-3.37-2-3.37-3-5.45c-0.49-1-1.13-2.15-1.74-3.16A16,16,0,0,0,127.35,82.4Z" fill="#231f20"/><path d="M122.84,44.86a13,13,0,0,0,.37-1.63,3.5,3.5,0,0,1-1.53,0,5.05,5.05,0,0,1-2-1.15,9.06,9.06,0,0,0-1.34-1,5.39,5.39,0,0,0-1.24-.5,2.13,2.13,0,0,0-.93.08,4.06,4.06,0,0,0-1.09.81,4.59,4.59,0,0,0-.76,1.12,1.56,1.56,0,0,0,0,.7,1.65,1.65,0,0,1-1,2.05,5.62,5.62,0,0,1-2.36,0A10,10,0,0,0,109,45.1a2.3,2.3,0,0,0-.85.22,26.09,26.09,0,0,1-2.37,1.34,10.14,10.14,0,0,1-3.31,1.08,10.26,10.26,0,0,1-2.77-.33c-0.76-.21-3.33-1.11-5.86-2.05-2.23-.83-5-1.95-5.78-2.37s-1.8-1.06-2.51-1.54a3.67,3.67,0,0,0-2.1-.49,15.69,15.69,0,0,0-4.34,2.53c-1.79,1.37-5.14,4.25-7.46,6.41a32.13,32.13,0,0,0-4.78,5.25,7.65,7.65,0,0,0-.58,3,11.48,11.48,0,0,0,.34,2.41,0.67,0.67,0,0,0,.08.16h0a4.48,4.48,0,0,1,1.41.26,8.35,8.35,0,0,1,1.66.92,3.09,3.09,0,0,0,1.06.46,2.37,2.37,0,0,0,1-.17,5.43,5.43,0,0,1,3.71-.37,0.9,0.9,0,0,0,.37,0A2.89,2.89,0,0,0,76.1,61a4.45,4.45,0,0,1,.76-2.31,3.85,3.85,0,0,1,2.06-1.19,6,6,0,0,0,1.55-.62A9,9,0,0,0,82,55.55a4.25,4.25,0,0,1,2.81-1.2,8,8,0,0,1,3.29,1.14,25.57,25.57,0,0,0,2.73,1.44,19.86,19.86,0,0,0,3.93.79,17.37,17.37,0,0,1,4.16.89,9.55,9.55,0,0,1,2,1.43,5.44,5.44,0,0,0,1.4.95,4,4,0,0,0,1.45.21,9.61,9.61,0,0,0,2.09-.55c0.63-.25,3.22-1.57,6.06-3.15a48,48,0,0,0,5.84-3.68,18,18,0,0,0,2.1-2.48c0.12-.17.24-0.37,0.38-0.58a27.19,27.19,0,0,0,1.35-2.46A30.53,30.53,0,0,0,122.84,44.86Z" fill="#231f20"/><path d="M129.47,83.74c0.6,1,1.25,2.16,1.78,3.24,1,2,2.31,4.43,2.91,5.33s1.54,2.45,2.07,3.46,1.36,2.73,1.84,3.84a19,19,0,0,1,1.14,4.12,19.3,19.3,0,0,1,0,4.3,20.82,20.82,0,0,0-.11,4.13,15.31,15.31,0,0,0,.9,3.62,8.7,8.7,0,0,1,.6,3.27,8.24,8.24,0,0,1-1,3.11,18,18,0,0,0-1.43,3.11,16.66,16.66,0,0,0-.63,3.27,13.9,13.9,0,0,1-.79,3.38,62.46,62.46,0,0,1-4.23,7,42.76,42.76,0,0,1-5.16,6.58,42.26,42.26,0,0,1-7.47,3.52c-3.23,1.24-6.59,2.66-7.47,3.15a28.41,28.41,0,0,0-2.92,1.92,7.25,7.25,0,0,1-2.79,1.25,7.63,7.63,0,0,1-3.09-.34,18.4,18.4,0,0,0-3.18-.76,14.91,14.91,0,0,0-3,0,21.67,21.67,0,0,0-3,.66,27.24,27.24,0,0,0-3.11,1.22,7.39,7.39,0,0,1-3.07.65,7.14,7.14,0,0,1-2.92-1.05c-0.78-.52-5.09-2.53-9.58-4.46-3.91-1.68-9-4.19-12.25-6a20.87,20.87,0,0,0,1.48,1.57,16.17,16.17,0,0,0,1.43,1.1c1.4,1,3.48,2.33,5.51,3.54a145.43,145.43,0,0,0,13.54,6.71c4.48,1.93,8.79,3.94,9.58,4.46a7.14,7.14,0,0,0,2.92,1.05,7.39,7.39,0,0,0,3.07-.65,27.24,27.24,0,0,1,3.11-1.22,21.67,21.67,0,0,1,3-.66,14.91,14.91,0,0,1,3,0,18.4,18.4,0,0,1,3.18.76,7.63,7.63,0,0,0,3.09.34,7.25,7.25,0,0,0,2.79-1.25,28.41,28.41,0,0,1,2.92-1.92c0.88-.49,4.24-1.91,7.47-3.15a42.26,42.26,0,0,0,7.47-3.52,42.76,42.76,0,0,0,5.16-6.58,62.46,62.46,0,0,0,4.23-7,13.9,13.9,0,0,0,.79-3.38,16.66,16.66,0,0,1,.63-3.27,18,18,0,0,1,1.43-3.11,8.24,8.24,0,0,0,1-3.11,8.7,8.7,0,0,0-.6-3.27,15.31,15.31,0,0,1-.9-3.62,20.82,20.82,0,0,1,.11-4.13,19.3,19.3,0,0,0,0-4.3,19,19,0,0,0-1.14-4.12c-0.47-1.11-1.3-2.84-1.84-3.84s-1.47-2.56-2.07-3.46S142,96,141,93.92a31.48,31.48,0,0,0-3.15-5.23A17,17,0,0,0,134.66,86a23.85,23.85,0,0,0-3.78-1.85h0C130.46,84,130,83.87,129.47,83.74Z" fill="#231f20"/><path d="M123,49.85a2,2,0,0,0,.06.66,0.66,0.66,0,0,1-.36.82,2,2,0,0,1-.55.05,6.75,6.75,0,0,1-1.11-.1c-0.14.23-.28,0.44-0.4,0.62a18.87,18.87,0,0,1-2.25,2.64,47.5,47.5,0,0,1-6,3.82c-2.64,1.47-5.42,2.92-6.18,3.21a10.58,10.58,0,0,1-2.37.62,5,5,0,0,1-1.9-.28,6.38,6.38,0,0,1-1.73-1.16,8.56,8.56,0,0,0-1.71-1.25,16.61,16.61,0,0,0-3.82-.78,20.48,20.48,0,0,1-4.21-.87,26.39,26.39,0,0,1-2.87-1.5,7,7,0,0,0-2.79-1,3.1,3.1,0,0,0-2.05.88A9.92,9.92,0,0,1,81,57.69a6.93,6.93,0,0,1-1.87.74,2.88,2.88,0,0,0-1.48.83A3.5,3.5,0,0,0,77.1,61a2.79,2.79,0,0,1-.47,1.52,1.4,1.4,0,0,1-1.23.22H75.34a10,10,0,0,0-.2,1,7.13,7.13,0,0,0-.1,1.37,12,12,0,0,0,.4,2.71,1.1,1.1,0,0,0,.88.83,3.24,3.24,0,0,1,1.22.19,7.45,7.45,0,0,1,1.42.79,4,4,0,0,0,1.52.64A3.29,3.29,0,0,0,82,70a5.58,5.58,0,0,1,1.54-.43,5.49,5.49,0,0,1,1.58.14,1.4,1.4,0,0,0,1.23-.22,2.79,2.79,0,0,0,.47-1.52,3.5,3.5,0,0,1,.55-1.73,2.88,2.88,0,0,1,1.48-.83,6.93,6.93,0,0,0,1.87-.74,9.92,9.92,0,0,0,1.74-1.46,3.1,3.1,0,0,1,2.05-.88,7,7,0,0,1,2.79,1,26.39,26.39,0,0,0,2.87,1.5,20.48,20.48,0,0,0,4.21.87,16.61,16.61,0,0,1,3.82.78,8.56,8.56,0,0,1,1.71,1.25,6.38,6.38,0,0,0,1.73,1.16,5,5,0,0,0,1.9.28,10.58,10.58,0,0,0,2.37-.62c0.76-.29,3.54-1.74,6.18-3.21a47.5,47.5,0,0,0,6-3.82,18.87,18.87,0,0,0,2.25-2.64,27.65,27.65,0,0,0,1.81-3.19,31.22,31.22,0,0,0,1.35-3.57,9.43,9.43,0,0,0,.47-2.64,0.54,0.54,0,0,0-.84-0.4,2.62,2.62,0,0,1-1.5.18,4.12,4.12,0,0,1-1.52-.91,10,10,0,0,0-1.53-1.17,6.35,6.35,0,0,0-1.54-.61,3.06,3.06,0,0,0-1.51.13,5,5,0,0,0-1.45,1.05l-0.27.32a5,5,0,0,0-.69,1.13A2.38,2.38,0,0,0,123,49.85Z" fill="#231f20"/></svg>