<svg xmlns="http://www.w3.org/2000/svg" width="93.58" height="200" viewBox="0 0 93.58 200"><title>_</title><path d="M5.42 140.7a60.77 60.77 0 0 0 6.68 4.45l1.25.71c3.24 1.79 8.34 4.28 12.12 5.91 4 1.73 8.82 3.93 9.82 4.59a5.75 5.75 0 0 0 2.19.8 5.85 5.85 0 0 0 2.33-.51 29 29 0 0 1 3.32-1.31 22.94 22.94 0 0 1 3.27-.71 16.23 16.23 0 0 1 3.42 0 19.79 19.79 0 0 1 3.49.83 6.15 6.15 0 0 0 2.36.27 5.87 5.87 0 0 0 2.1-1 30.28 30.28 0 0 1 3.1-2c1.06-.59 4.73-2.12 7.67-3.25a42.37 42.37 0 0 0 7.07-3.3 43.11 43.11 0 0 0 4.84-6.18 63.67 63.67 0 0 0 4.07-6.73 12.5 12.5 0 0 0 .69-2.94 18.12 18.12 0 0 1 .7-3.63 19.3 19.3 0 0 1 1.57-3.42 6.78 6.78 0 0 0 .8-2.43 7.27 7.27 0 0 0-.49-2.6 16.77 16.77 0 0 1-1-4 22.13 22.13 0 0 1 .11-4.49 17.76 17.76 0 0 0 0-3.89 17.42 17.42 0 0 0-1-3.73c-.46-1.07-1.26-2.74-1.78-3.72s-1.42-2.47-2-3.33a62.65 62.65 0 0 1-3-5.51c-.49-1-1.11-2.13-1.72-3.12a15.9 15.9 0 0 0-1.22-1.79 15.66 15.66 0 0 0-2.82-2.39 22.26 22.26 0 0 0-3.52-1.71 22.48 22.48 0 0 0-3.84-.99 38.21 38.21 0 0 1-4.13-.81 24.56 24.56 0 0 1-3.49-1.27c-.75-.36-2-.89-2.81-1.18s-2.12-.7-2.93-.9-2.9-.57-4.59-.79a35.49 35.49 0 0 0-4.52-.34 24.86 24.86 0 0 0-2.92.35 26.79 26.79 0 0 1-3.36.38 27.52 27.52 0 0 1-3.42-.13 15.56 15.56 0 0 0-1.65-.08h-1.22a44.89 44.89 0 0 0-6.38 2 34.92 34.92 0 0 0-6.38 3 17 17 0 0 0-2.56 2.77 33.68 33.68 0 0 1-2.86 3.44A31.35 31.35 0 0 1 9.47 89 12.6 12.6 0 0 0 7 91.45a12.67 12.67 0 0 0-1.43 3.13c-.31 1.14-1.1 3.48-1.76 5.22a44.57 44.57 0 0 1-2.07 4.71c-.45.81-1.29 2.14-1.86 3a17.15 17.15 0 0 0-1.46 2.67 15.65 15.65 0 0 0-.75 2.82 9.75 9.75 0 0 0 0 2.67 10.78 10.78 0 0 0 1 2.63c.49.86 1.49 2.89 2.23 4.51a15.65 15.65 0 0 1 1.43 5.11 15.61 15.61 0 0 1-.64 3.91 7.69 7.69 0 0 0-.2 2.93 9.83 9.83 0 0 0 1.32 3 22.37 22.37 0 0 0 2.61 2.94zM62.67 47.68a6.32 6.32 0 0 1-2.62 0 9.29 9.29 0 0 0-1.8-.18 2 2 0 0 0-.6.15 26.11 26.11 0 0 1-2.4 1.35 10.49 10.49 0 0 1-3.51 1.13 11 11 0 0 1-2.93-.35c-.76-.21-3.36-1.12-5.9-2.07-2.22-.83-5-2-5.84-2.4s-1.82-1.08-2.55-1.57a3.22 3.22 0 0 0-1.75-.41 15.8 15.8 0 0 0-4.11 2.43c-1.78 1.37-5.11 4.23-7.43 6.38a32.21 32.21 0 0 0-4.67 5.09 7.15 7.15 0 0 0-.56 2.72 13 13 0 0 0 .27 2.11 5 5 0 0 1 1.25.27 8.77 8.77 0 0 1 1.77 1 2.71 2.71 0 0 0 .83.37 2 2 0 0 0 .69-.13 7.08 7.08 0 0 1 2-.56 7.11 7.11 0 0 1 1.88.13 2.1 2.1 0 0 0 0-.31 4.93 4.93 0 0 1 .87-2.6A4.33 4.33 0 0 1 28 58.84a5.58 5.58 0 0 0 1.39-.55 8.55 8.55 0 0 0 1.42-1.2A4.77 4.77 0 0 1 34 55.73a8.4 8.4 0 0 1 3.56 1.21 24.88 24.88 0 0 0 2.67 1.4 19.53 19.53 0 0 0 3.8.76 17.83 17.83 0 0 1 4.33.94 10 10 0 0 1 2.08 1.51 5 5 0 0 0 1.23.84 3.47 3.47 0 0 0 1.22.18 9.14 9.14 0 0 0 1.95-.52c.61-.24 3.22-1.58 6-3.12a48.1 48.1 0 0 0 5.74-3.61 17.35 17.35 0 0 0 2-2.39l.42-.56A26.44 26.44 0 0 0 70.29 50a29.75 29.75 0 0 0 1.27-3.36c.1-.33.17-.64.23-.9a3.55 3.55 0 0 1-1-.08 5.54 5.54 0 0 1-2.2-1.28 8.55 8.55 0 0 0-1.25-1 4.92 4.92 0 0 0-1.1-.44 1.68 1.68 0 0 0-.63.06 3.62 3.62 0 0 0-.91.69 4.21 4.21 0 0 0-.66 1 1.22 1.22 0 0 0 0 .4 2.14 2.14 0 0 1-1.37 2.59z"/><path d="M98 121a20.82 20.82 0 0 1 .11-4.13 19.3 19.3 0 0 0 0-4.3 18.94 18.94 0 0 0-1.11-4.15c-.47-1.11-1.3-2.84-1.84-3.84s-1.47-2.56-2.07-3.46-1.91-3.3-2.91-5.33A31.48 31.48 0 0 0 87 90.56a17 17 0 0 0-3.16-2.68A23.81 23.81 0 0 0 80.08 86c-.39-.14-.87-.28-1.38-.42.6 1 1.25 2.16 1.78 3.24 1 2 2.31 4.43 2.91 5.33s1.54 2.45 2.07 3.46 1.36 2.73 1.84 3.84a18.94 18.94 0 0 1 1.14 4.12 19.3 19.3 0 0 1 0 4.3 20.82 20.82 0 0 0-.11 4.13 15.31 15.31 0 0 0 .9 3.62 8.7 8.7 0 0 1 .6 3.27 8.24 8.24 0 0 1-1 3.11 18 18 0 0 0-1.43 3.11 16.68 16.68 0 0 0-.63 3.27 13.9 13.9 0 0 1-.78 3.38 62.48 62.48 0 0 1-4.23 7 42.76 42.76 0 0 1-5.16 6.58 42.27 42.27 0 0 1-7.47 3.52c-3.23 1.24-6.59 2.66-7.47 3.15a28.43 28.43 0 0 0-2.98 1.99 7.25 7.25 0 0 1-2.79 1.25 7.63 7.63 0 0 1-3.09-.34 18.38 18.38 0 0 0-3.18-.76 14.89 14.89 0 0 0-3 0 21.67 21.67 0 0 0-3 .66 27.28 27.28 0 0 0-3.17 1.19 7.39 7.39 0 0 1-3.07.65 7.14 7.14 0 0 1-2.92-1.05c-.78-.52-5.09-2.53-9.58-4.46-3.91-1.68-9-4.19-12.25-6a20.89 20.89 0 0 0 1.49 1.57 16.12 16.12 0 0 0 1.43 1.1c1.4 1 3.48 2.33 5.51 3.54a145.43 145.43 0 0 0 13.54 6.71c4.48 1.93 8.79 3.94 9.58 4.46a7.14 7.14 0 0 0 2.92 1.05 7.39 7.39 0 0 0 3.07-.65 27.28 27.28 0 0 1 3.11-1.22 21.67 21.67 0 0 1 3-.66 14.89 14.89 0 0 1 3 0 18.38 18.38 0 0 1 3.18.76 7.63 7.63 0 0 0 3.09.34 7.25 7.25 0 0 0 2.79-1.25 28.43 28.43 0 0 1 2.97-1.89c.88-.49 4.24-1.91 7.47-3.15a42.27 42.27 0 0 0 7.47-3.52 42.76 42.76 0 0 0 5.16-6.58 62.48 62.48 0 0 0 4.23-7 13.9 13.9 0 0 0 .78-3.38 16.68 16.68 0 0 1 .63-3.27 18 18 0 0 1 1.42-3.1 8.24 8.24 0 0 0 1-3.11 8.7 8.7 0 0 0-.6-3.27A15.31 15.31 0 0 1 98 121zM25.52 70.49a3.24 3.24 0 0 1 1.22.19 7.42 7.42 0 0 1 1.42.79 4 4 0 0 0 1.52.64 3.29 3.29 0 0 0 1.52-.26 5.58 5.58 0 0 1 1.54-.43 5.49 5.49 0 0 1 1.58.14 1.4 1.4 0 0 0 1.23-.22 2.79 2.79 0 0 0 .45-1.53 3.5 3.5 0 0 1 .55-1.73 2.88 2.88 0 0 1 1.45-.83 6.94 6.94 0 0 0 1.87-.74 9.94 9.94 0 0 0 1.74-1.46 3.1 3.1 0 0 1 2.05-.88 7 7 0 0 1 2.79 1 26.36 26.36 0 0 0 2.87 1.5 20.48 20.48 0 0 0 4.21.87 16.61 16.61 0 0 1 3.82.78 8.54 8.54 0 0 1 1.71 1.25 6.38 6.38 0 0 0 1.73 1.16 5 5 0 0 0 1.9.28 10.6 10.6 0 0 0 2.37-.62c.76-.29 3.54-1.74 6.18-3.21a47.48 47.48 0 0 0 6-3.82 18.85 18.85 0 0 0 2.25-2.64 27.6 27.6 0 0 0 1.81-3.19A31.24 31.24 0 0 0 82.71 54a9.44 9.44 0 0 0 .47-2.64.54.54 0 0 0-.84-.4 2.62 2.62 0 0 1-1.5.18 4.12 4.12 0 0 1-1.52-.91A10 10 0 0 0 77.79 49a6.33 6.33 0 0 0-1.54-.61 3.06 3.06 0 0 0-1.51.13 5 5 0 0 0-1.45 1.05l-.29.35a5 5 0 0 0-.7 1.13 2.39 2.39 0 0 0-.13.68 2 2 0 0 0 .06.66.66.66 0 0 1-.36.82 2 2 0 0 1-.55.05 6.72 6.72 0 0 1-1.11-.1c-.14.23-.28.44-.4.62a18.85 18.85 0 0 1-2.25 2.64 47.48 47.48 0 0 1-6 3.82c-2.64 1.47-5.42 2.92-6.18 3.21a10.6 10.6 0 0 1-2.37.62 5 5 0 0 1-1.9-.28 6.38 6.38 0 0 1-1.73-1.16 8.54 8.54 0 0 0-1.71-1.25 16.61 16.61 0 0 0-3.82-.78 20.48 20.48 0 0 1-4.21-.87 26.36 26.36 0 0 1-2.87-1.5 7 7 0 0 0-2.79-1 3.1 3.1 0 0 0-2.05.88 9.94 9.94 0 0 1-1.74 1.46 6.94 6.94 0 0 1-1.87.74 2.88 2.88 0 0 0-1.48.83 3.5 3.5 0 0 0-.55 1.73 2.79 2.79 0 0 1-.47 1.52 1.4 1.4 0 0 1-1.23.22h-.05a10 10 0 0 0-.2 1 7.13 7.13 0 0 0-.1 1.37 12 12 0 0 0 .4 2.71 1.1 1.1 0 0 0 .88.8z"/></svg>