<svg xmlns="http://www.w3.org/2000/svg" width="94.09" height="200" viewBox="0 0 94.09 200"><title>_</title><path d="M72.38 44.23a3.82 3.82 0 0 0-1-.15c-.94 0-2.49.11-3.39.22s-2.34.37-3.18.57a22.93 22.93 0 0 1-3.53.52 53.83 53.83 0 0 1-7.28-.75 24.4 24.4 0 0 0-5-.34 2 2 0 0 0-.05.8 23 23 0 0 1 .23 3.35 16.23 16.23 0 0 1-.39 3c0 .19-.11.47-.17.8-.16.82-.33 1.88-.46 2.78a26.08 26.08 0 0 0-.27 3.62c0 .7.18 2 .32 2.77a2.68 2.68 0 0 0 .64 1.24 6.78 6.78 0 0 0 .83.14 29.74 29.74 0 0 0 4.6.11l1.8-.07c1.21 0 2.68-.08 3.81-.08h1.43c.95.07 2.47.27 3.41.45a11.17 11.17 0 0 0 2.7.09 10.45 10.45 0 0 0 2.51-.74 5.11 5.11 0 0 0 1.46-1 1.23 1.23 0 0 0 .08-.56 8.13 8.13 0 0 1-.08-2.7 12.2 12.2 0 0 1 .88-2.78 5.07 5.07 0 0 0 .39-1.81 5.47 5.47 0 0 0-.55-1.84 5.87 5.87 0 0 1-.34-.76 7.75 7.75 0 0 1-.51-2.63 9.82 9.82 0 0 1 .9-3.53 2.31 2.31 0 0 0 .21-.72zM1.19 134.08a7 7 0 0 0 2.16 2.13 25.73 25.73 0 0 1 3.74 2.92 20.68 20.68 0 0 1 2.77 3.53 18.11 18.11 0 0 0 2.2 2.86 18.51 18.51 0 0 0 2.86 2.26 38.66 38.66 0 0 0 3.44 1.83c.22.1.63.25 1.16.44 1.91.68 5.24 1.75 8.47 2.72 4.87 1.46 8.64 2.45 9.2 2.52a17 17 0 0 0 2.72.06h.85a16.83 16.83 0 0 1 2.57.19 19.46 19.46 0 0 1 3.42 1 10.3 10.3 0 0 0 2.62.61 9.43 9.43 0 0 0 2.52-.32 20.63 20.63 0 0 0 2.68-1.09 21.47 21.47 0 0 0 2.51-1.57 16.81 16.81 0 0 1 3.37-1.83 24 24 0 0 1 4.09-1.08 32.87 32.87 0 0 0 3.88-.93 33.77 33.77 0 0 0 3.74-1.52 31.18 31.18 0 0 0 3.49-2.08 32.44 32.44 0 0 0 3.15-2.64 28.89 28.89 0 0 0 2.67-3.1 29 29 0 0 0 2.09-3.52c.5-1 1.21-2.71 1.54-3.65s1.25-5.06 2.16-9.87a59.77 59.77 0 0 0 1.29-9.66 61.83 61.83 0 0 0-2.63-7.74 101.5 101.5 0 0 1-3.5-10.43A20 20 0 0 0 80.55 91a10 10 0 0 0-2.48-2.17 20.56 20.56 0 0 1-3.63-2.77 23.43 23.43 0 0 1-2.61-3.27l-.28-.45a15.21 15.21 0 0 0-2.45-2.95 14.15 14.15 0 0 0-3.19-1.93 30.83 30.83 0 0 0-3.64-1.18 20.23 20.23 0 0 0-3.27-.4 33.53 33.53 0 0 1-3.5-.33c-1-.15-3.88-.93-6.63-1.76-.61-.19-1.24-.36-1.85-.52a24.82 24.82 0 0 0-4.1-.82 10.3 10.3 0 0 0-2.62.55c-.52.21-1.14.4-1.56.52-.7.21-1.36.38-1.85.48a22.16 22.16 0 0 1-3.47.35 12 12 0 0 0-2.68.4 12.54 12.54 0 0 0-2.51 1.15 23 23 0 0 1-3.38 1.68 33.85 33.85 0 0 1-4 1.19 11.58 11.58 0 0 0-3.23 1.36 12 12 0 0 0-2.5 2.52c-.71 1-1.91 2.57-2.68 3.47s-2.1 2.26-2.94 3a20.05 20.05 0 0 0-2.36 2.7A53.55 53.55 0 0 0 4 98a67 67 0 0 1-4.08 8 12.61 12.61 0 0 0-1.74 3.68 5.9 5.9 0 0 0 .52 2.4A10.29 10.29 0 0 1-.37 116a10.1 10.1 0 0 1-1 3.88 4.93 4.93 0 0 0-.46 2.2 5.05 5.05 0 0 0 1 2 9.37 9.37 0 0 1 1.91 3.59 9.87 9.87 0 0 1-.08 4.12 4.16 4.16 0 0 0 .19 2.29zM14 63.05a4.33 4.33 0 0 0 1.39 0 28.82 28.82 0 0 1 4-.38c.91 0 2.72.18 3.46.26 1.08.11 2.27.26 3.41.42a60.73 60.73 0 0 0 6.37.62c.93 0 2.48-.12 3.48-.23a4.56 4.56 0 0 0 1.83-.62 13.7 13.7 0 0 0 .36-4c-.07-2.11-.1-4.81 0-5.67.07-.63.23-1.6.39-2.35l.07-.33a6.09 6.09 0 0 0 .11-1.82 5.15 5.15 0 0 0-.58-1.54 2.74 2.74 0 0 0-1-.82 4.71 4.71 0 0 0-1.73-.14 15.3 15.3 0 0 1-3.34 0 19.78 19.78 0 0 1-3.47-.88 9.14 9.14 0 0 0-2.69-.45 9.48 9.48 0 0 0-2.71.63 11.82 11.82 0 0 1-4 .76 13.19 13.19 0 0 1-4.13-1 5 5 0 0 0-1.53-.39 1.33 1.33 0 0 0-.12.49 21.49 21.49 0 0 0 .13 2.68 16.81 16.81 0 0 0 .52 2.38 14.5 14.5 0 0 1 .55 2.85 42.4 42.4 0 0 1-.62 5.94 14 14 0 0 0-.15 3.59z"/><path d="M70.53 64a11.74 11.74 0 0 1-3 .87 12.55 12.55 0 0 1-3.16-.11c-.89-.16-2.36-.36-3.25-.43-.71-.06-2.8 0-5.07 0v1.33a29.61 29.61 0 0 0 .34 3 3.87 3.87 0 0 0 1.33 2.26c.58.39 3.41.6 6.29.46s6-.19 6.85-.12 2.36.26 3.25.43a12.55 12.55 0 0 0 3.16.11 11.74 11.74 0 0 0 3-.87 6.26 6.26 0 0 0 2-1.52 2.61 2.61 0 0 0 .37-1.84 6.74 6.74 0 0 1-.05-2.13 10.84 10.84 0 0 1 .77-2.44 6.45 6.45 0 0 0 .53-2.5 6.83 6.83 0 0 0-.74-2.5 6.31 6.31 0 0 1-.66-2.64 8.42 8.42 0 0 1 .75-2.9 2.64 2.64 0 0 0 .18-2.26 3.41 3.41 0 0 0-2.42-.68c-1 0-2.61.12-3.56.23s-2.38.37-3.28.58h-.08c-.27.06-.59.13-.92.19a4.39 4.39 0 0 0 .25.56 6.83 6.83 0 0 1 .74 2.5 6.45 6.45 0 0 1-.53 2.5 10.84 10.84 0 0 0-.76 2.38 6.74 6.74 0 0 0 .05 2.13 2.61 2.61 0 0 1-.37 1.84A6.26 6.26 0 0 1 70.53 64zM86.22 154.86a33.6 33.6 0 0 0 3.33-2.79 25 25 0 0 0 5.07-7c.53-1.09 1.25-2.8 1.6-3.8s1.35-5.54 2.22-10.09S99.9 122 99.75 121a60.83 60.83 0 0 0-2.75-8.08 100.19 100.19 0 0 1-3.44-10.23 20.9 20.9 0 0 0-2.12-5.59 11.28 11.28 0 0 0-2.95-2.58A19.16 19.16 0 0 1 85.21 92a21.54 21.54 0 0 1-2.67-3.43 16.54 16.54 0 0 0-2.76-3.31 15.49 15.49 0 0 0-3.6-2.19c-.44-.18-1-.37-1.52-.55s-1.09-.35-1.58-.49a21.8 21.8 0 0 0 2.42 3 19.16 19.16 0 0 0 3.32 2.53 11.28 11.28 0 0 1 2.95 2.58 20.9 20.9 0 0 1 2.12 5.59A100.19 100.19 0 0 0 87.32 106a60.83 60.83 0 0 1 2.68 8c.15 1-.43 5.61-1.3 10.16s-1.86 9.09-2.22 10.09-1.08 2.71-1.6 3.8a25 25 0 0 1-5.07 7 33.6 33.6 0 0 1-3.33 2.79 32.63 32.63 0 0 1-3.69 2.2 35.18 35.18 0 0 1-3.95 1.6 34.07 34.07 0 0 1-4.1 1 22.73 22.73 0 0 0-3.78 1 15.27 15.27 0 0 0-3 1.64 23.23 23.23 0 0 1-2.72 1.7 22 22 0 0 1-2.92 1.19 10.45 10.45 0 0 1-3 .38 11.62 11.62 0 0 1-3.1-.72 18 18 0 0 0-3.11-.9 15.3 15.3 0 0 0-3.06-.15 18.8 18.8 0 0 1-3-.06c-.82-.1-5.07-1.25-9.46-2.57-3.33-1-6.68-2.08-8.54-2.74.36.5.77 1 1.14 1.45.19.22.38.43.55.6a20.07 20.07 0 0 0 3.11 2.54 39.65 39.65 0 0 0 3.6 1.91c1 .46 5.44 1.92 9.82 3.23s8.64 2.47 9.46 2.57a18.8 18.8 0 0 0 3 .06 15.3 15.3 0 0 1 3.06.15 18 18 0 0 1 3.11.9 11.62 11.62 0 0 0 3.1.72 10.45 10.45 0 0 0 3-.38 22 22 0 0 0 3-1.16 23.23 23.23 0 0 0 2.72-1.7 15.27 15.27 0 0 1 3-1.64 22.73 22.73 0 0 1 3.78-1 34.07 34.07 0 0 0 4.1-1 35.18 35.18 0 0 0 3.95-1.6 32.63 32.63 0 0 0 3.67-2.2zM25.39 71.46a27.06 27.06 0 0 1 3.72-.35c.92 0 3.65.26 6.2.6l.45.06c.85.12 1.72.22 2.55.32.53-.16 1-.33 1.44-.48a11.59 11.59 0 0 1 3.18-.66 23.13 23.13 0 0 1 4.51.87 4.05 4.05 0 0 0 1.25-.69c.5-.48.84-2.77.75-5.09v-.68-1A4.06 4.06 0 0 1 48 64a3.87 3.87 0 0 1-1.33-2.26 29.61 29.61 0 0 1-.34-3 26.91 26.91 0 0 1 .28-3.9c.13-1 .32-2 .48-2.86a6.47 6.47 0 0 0-1-.12 5.86 5.86 0 0 0-1 0 14 14 0 0 1-3 0c-.3 0-.67-.11-1.06-.2l-1-.25c-.15.68-.3 1.59-.36 2.19s-.06 3.15 0 5.46-.26 4.6-.75 5.09a5.5 5.5 0 0 1-2.76 1.08c-1 .11-2.64.22-3.6.24a63.61 63.61 0 0 1-6.61-.64c-1.12-.16-2.3-.3-3.36-.41 0 .32-.1.66-.14 1s-.07.49-.11.74c-.38 2.39-.3 4.65.16 5a4.34 4.34 0 0 0 2.89.3z"/></svg>