<svg xmlns="http://www.w3.org/2000/svg" width="200" height="200" viewBox="0 0 200 200"><title>_</title><path d="M123.6 49a7.21 7.21 0 0 1-.48-2.44 9.42 9.42 0 0 1 .85-3.32 2.47 2.47 0 0 0 .25-1.24 3.51 3.51 0 0 0-1.55-.32c-1 0-2.54.12-3.46.23s-2.39.38-3.24.58a22.4 22.4 0 0 1-3.44.5 55.74 55.74 0 0 1-7.16-.74 20.89 20.89 0 0 0-5.44-.3 2.35 2.35 0 0 0-.19 1.33 22.61 22.61 0 0 1 .22 3.27 15.59 15.59 0 0 1-.38 2.91c0 .2-.11.49-.18.83-.16.83-.34 1.91-.47 2.81a26.13 26.13 0 0 0-.27 3.71c0 .72.18 2 .32 2.83a3 3 0 0 0 .9 1.6 4.55 4.55 0 0 0 1 .19 30.16 30.16 0 0 0 4.68.11l1.8-.07c1.2 0 2.67-.08 3.79-.08h1.39c.93.07 2.43.27 3.36.44a11.58 11.58 0 0 0 2.85.1 10.9 10.9 0 0 0 2.66-.78 5.42 5.42 0 0 0 1.65-1.2 1.65 1.65 0 0 0 .21-1 7.67 7.67 0 0 1-.07-2.51 11.85 11.85 0 0 1 .84-2.65 5.53 5.53 0 0 0 .44-2 5.91 5.91 0 0 0-.61-2.06 5.35 5.35 0 0 1-.27-.73zM84.75 72a12.4 12.4 0 0 0-2.82.42 12.93 12.93 0 0 0-2.64 1.21A22.4 22.4 0 0 1 76 75.24a33.23 33.23 0 0 1-4 1.17 12 12 0 0 0-3.4 1.43 12.4 12.4 0 0 0-2.6 2.65c-.7 1-1.89 2.55-2.65 3.43s-2.07 2.23-2.9 3A20.66 20.66 0 0 0 58 89.69 53 53 0 0 0 54.89 96a66.38 66.38 0 0 1-4.05 7.86 12.63 12.63 0 0 0-1.84 3.89 6.4 6.4 0 0 0 .57 2.65 9.86 9.86 0 0 1 .88 3.69 9.68 9.68 0 0 1-.91 3.66 5.37 5.37 0 0 0-.5 2.5 5.49 5.49 0 0 0 1.16 2.29 8.94 8.94 0 0 1 1.8 3.37 9.45 9.45 0 0 1-.13 3.88 4.63 4.63 0 0 0 .2 2.64 7.5 7.5 0 0 0 2.35 2.34 25.13 25.13 0 0 1 3.65 2.85 20.07 20.07 0 0 1 2.7 3.38 18.73 18.73 0 0 0 2.23 3 19.15 19.15 0 0 0 3 2.33 39.19 39.19 0 0 0 3.49 1.86c.23.1.65.26 1.2.46 1.92.68 5.26 1.75 8.5 2.73 4.65 1.4 8.63 2.46 9.29 2.54a17.77 17.77 0 0 0 2.81.06h.81a16.39 16.39 0 0 1 2.49.18 18.9 18.9 0 0 1 3.32 1 10.73 10.73 0 0 0 2.78.65 9.58 9.58 0 0 0 2.7-.34 21.15 21.15 0 0 0 2.76-1.12 22.23 22.23 0 0 0 2.58-1.61 16.21 16.21 0 0 1 3.25-1.77 23.42 23.42 0 0 1 4-1 33.38 33.38 0 0 0 4-.95 34.44 34.44 0 0 0 3.81-1.54 31.76 31.76 0 0 0 3.55-2.12 32.91 32.91 0 0 0 3.21-2.69 24 24 0 0 0 4.87-6.76c.51-1 1.22-2.74 1.56-3.7s1.25-5 2.18-9.94a59.17 59.17 0 0 0 1.29-9.83 61.58 61.58 0 0 0-2.66-7.85 101.07 101.07 0 0 1-3.48-10.36 20.3 20.3 0 0 0-2-5.24 10.4 10.4 0 0 0-2.64-2.3 20 20 0 0 1-3.53-2.69 22.87 22.87 0 0 1-2.54-3.19l-.27-.43a15.61 15.61 0 0 0-2.56-3.07 14.53 14.53 0 0 0-3.33-2 31.52 31.52 0 0 0-3.71-1.2 20.86 20.86 0 0 0-3.33-.46 32.55 32.55 0 0 1-3.43-.32c-1-.15-3.83-.92-6.56-1.75-.62-.19-1.25-.36-1.86-.53a24.48 24.48 0 0 0-4.22-.84 10.71 10.71 0 0 0-2.85.6c-.5.2-1.1.38-1.52.51-.68.2-1.33.37-1.81.46a21.62 21.62 0 0 1-3.4.22zM90 45.26a3.17 3.17 0 0 0-1.19-1 5.05 5.05 0 0 0-2-.17 14.86 14.86 0 0 1-3.22 0 19.23 19.23 0 0 1-3.36-.85 9.61 9.61 0 0 0-2.88-.48 9.94 9.94 0 0 0-2.89.67 11 11 0 0 1-3.78.72 12.62 12.62 0 0 1-3.93-.94 4.61 4.61 0 0 0-2-.43 1.57 1.57 0 0 0-.35 1 22.05 22.05 0 0 0 .13 2.75 17.38 17.38 0 0 0 .54 2.47 13.85 13.85 0 0 1 .53 2.74 41.42 41.42 0 0 1-.61 5.83 12.23 12.23 0 0 0-.11 4.1 4.37 4.37 0 0 0 1.91.07 28.2 28.2 0 0 1 3.89-.37c.85 0 2.63.18 3.36.26 1.07.11 2.26.26 3.39.41a59.81 59.81 0 0 0 6.46.63c.93 0 2.51-.12 3.51-.23a4.63 4.63 0 0 0 2.17-.8 12 12 0 0 0 .45-4.34c-.07-2.1-.1-4.77 0-5.6.06-.62.22-1.56.38-2.3l.17-.4a6.56 6.56 0 0 0 .12-2 5.63 5.63 0 0 0-.69-1.74z" fill="#231f20"/><path d="M124.53 48.66a4.41 4.41 0 0 0 .25.56 6.83 6.83 0 0 1 .74 2.5 6.45 6.45 0 0 1-.53 2.5 10.83 10.83 0 0 0-.76 2.38 6.74 6.74 0 0 0 .05 2.13 2.61 2.61 0 0 1-.37 1.84 6.26 6.26 0 0 1-2 1.52 11.73 11.73 0 0 1-3 .87 12.54 12.54 0 0 1-3.16-.11c-.89-.16-2.36-.36-3.25-.43-.71-.06-2.8 0-5.07 0v1.33a29.62 29.62 0 0 0 .34 3 3.87 3.87 0 0 0 1.29 2.25c.58.39 3.41.6 6.29.46s6-.19 6.85-.12 2.36.26 3.25.43a12.54 12.54 0 0 0 3.16.11 11.73 11.73 0 0 0 3-.87 6.26 6.26 0 0 0 2-1.52 2.61 2.61 0 0 0 .37-1.84 6.74 6.74 0 0 1-.05-2.13 10.83 10.83 0 0 1 .76-2.38 6.45 6.45 0 0 0 .53-2.5 6.83 6.83 0 0 0-.74-2.5 6.31 6.31 0 0 1-.66-2.64 8.42 8.42 0 0 1 .75-2.9 2.64 2.64 0 0 0 .18-2.26 3.42 3.42 0 0 0-2.38-.72c-1 0-2.61.12-3.56.23s-2.38.37-3.28.58h-.08c-.26.11-.58.17-.92.23zM148.37 111a100.21 100.21 0 0 1-3.44-10.23 20.89 20.89 0 0 0-2.12-5.59 11.28 11.28 0 0 0-2.95-2.58 19.16 19.16 0 0 1-3.32-2.53 21.54 21.54 0 0 1-2.67-3.43 16.56 16.56 0 0 0-2.76-3.31 15.51 15.51 0 0 0-3.6-2.19c-.44-.18-1-.37-1.52-.55s-1.09-.35-1.58-.49a21.79 21.79 0 0 0 2.42 3 19.16 19.16 0 0 0 3.32 2.53 11.28 11.28 0 0 1 2.95 2.58 20.89 20.89 0 0 1 2.12 5.59 100.21 100.21 0 0 0 3.44 10.23 60.84 60.84 0 0 1 2.72 8.07c.15 1-.43 5.61-1.3 10.16s-1.86 9.09-2.22 10.09-1.08 2.71-1.6 3.8a25 25 0 0 1-5.07 7 33.63 33.63 0 0 1-3.33 2.79 32.61 32.61 0 0 1-3.69 2.2 35.17 35.17 0 0 1-3.95 1.6 34 34 0 0 1-4.1 1 22.76 22.76 0 0 0-3.78 1 15.28 15.28 0 0 0-3 1.64 23.21 23.21 0 0 1-2.72 1.7 22 22 0 0 1-2.92 1.19 10.44 10.44 0 0 1-3 .38 11.62 11.62 0 0 1-3.1-.72 18 18 0 0 0-3.11-.9 15.28 15.28 0 0 0-3.06-.15 18.8 18.8 0 0 1-3-.06c-.82-.1-5.07-1.25-9.46-2.57-3.33-1-6.68-2.08-8.54-2.74.36.5.77 1 1.14 1.45.19.22.38.43.55.6a20.08 20.08 0 0 0 3.14 2.48 39.65 39.65 0 0 0 3.6 1.91c1 .46 5.44 1.92 9.82 3.23s8.64 2.47 9.46 2.57a18.8 18.8 0 0 0 3 .06 15.28 15.28 0 0 1 3.06.15 18 18 0 0 1 3.11.9 11.62 11.62 0 0 0 3.1.72 10.44 10.44 0 0 0 3-.38 22 22 0 0 0 2.92-1.19 23.21 23.21 0 0 0 2.72-1.7 15.28 15.28 0 0 1 3-1.64 22.76 22.76 0 0 1 3.78-1 34 34 0 0 0 4.1-1 35.17 35.17 0 0 0 3.95-1.6 32.61 32.61 0 0 0 3.69-2.2 33.63 33.63 0 0 0 3.33-2.79 25 25 0 0 0 5.07-7c.53-1.09 1.25-2.8 1.6-3.8s1.35-5.54 2.22-10.09 1.45-9.12 1.3-10.16a60.84 60.84 0 0 0-2.72-8.03zM89.65 70.21c.53-.16 1-.33 1.44-.48a11.59 11.59 0 0 1 3.18-.66 23.15 23.15 0 0 1 4.51.87 4 4 0 0 0 1.25-.69c.5-.48.84-2.77.75-5.09v-.68-1a4.07 4.07 0 0 1-1.44-.35 3.87 3.87 0 0 1-1.34-2.3 29.62 29.62 0 0 1-.34-3A26.9 26.9 0 0 1 98 53c.13-1 .32-2 .48-2.86a6.44 6.44 0 0 0-1-.12 5.86 5.86 0 0 0-1 0 14 14 0 0 1-3 0c-.3 0-.67-.11-1.06-.2l-1-.25c-.15.68-.3 1.59-.36 2.19s-.06 3.15 0 5.46-.26 4.6-.75 5.09a5.5 5.5 0 0 1-2.76 1.08c-1 .11-2.64.22-3.6.24a63.54 63.54 0 0 1-6.56-.63c-1.13-.16-2.3-.3-3.36-.41 0 .32-.1.66-.14 1s-.07.49-.11.74c-.38 2.39-.3 4.64.16 5a4.34 4.34 0 0 0 2.79.31 27 27 0 0 1 3.72-.35c.92 0 3.65.26 6.2.6l.45.01c.85.1 1.72.22 2.55.31z" fill="#231f20"/></svg>