<svg xmlns="http://www.w3.org/2000/svg" width="93.8" height="200" viewBox="0 0 93.8 200"><title>_</title><path d="M2.78 140.84a28.9 28.9 0 0 0 3.42 3.26 31.81 31.81 0 0 0 4.14 2.63 17.74 17.74 0 0 1 2.89 1.86 5.53 5.53 0 0 1 .78.74l.15.22a2.91 2.91 0 0 1-.08 3.55c-.42.47-1.12 1.18-1.57 1.58a19.67 19.67 0 0 1-1.64 1.3 7.53 7.53 0 0 0-1.05.92 6.41 6.41 0 0 0-.73 1.1 10.47 10.47 0 0 0-1 2.79 8.21 8.21 0 0 0-.09 1.28 5.94 5.94 0 0 0 .13 1.06 6 6 0 0 1 1.09-.1 4.45 4.45 0 0 1 .76.06 4.3 4.3 0 0 1 1.68.72 8.86 8.86 0 0 0 .78.51l.31.16v-.1c.13-.55.49-1.77.83-2.77a7.27 7.27 0 0 1 1.8-3 7.62 7.62 0 0 1 2.4-1.16 3.5 3.5 0 0 0 1.13-.58 2.12 2.12 0 0 0 .38-.8 3.31 3.31 0 0 1 .18-.65 2.57 2.57 0 0 1 1.78-1.69 4.67 4.67 0 0 1 2.85.81 5.25 5.25 0 0 0 1.68.65 5.75 5.75 0 0 0 1.87-.19 9.49 9.49 0 0 1 3.11-.35 8.93 8.93 0 0 1 3 .91 13.14 13.14 0 0 0 2.07.86 12.39 12.39 0 0 0 2.15.38 13.87 13.87 0 0 0 2.35-.09 20.82 20.82 0 0 0 2.65-.6 17 17 0 0 1 3.4-.62 17.44 17.44 0 0 1 3.48.21 9.54 9.54 0 0 0 2.56 0 85.41 85.41 0 0 0 9.58-5.16l6.57-3.93c5.38-3.22 9-5.9 9.32-6.37a33 33 0 0 0 2.53-6.64c.87-3.05 2.19-7 2.93-8.69a43.77 43.77 0 0 0 1.65-4.45 20.62 20.62 0 0 0 .5-3 15.1 15.1 0 0 0-.13-2.94 16.61 16.61 0 0 0-.86-3c-.39-.93-1.14-3.16-1.67-5a26.1 26.1 0 0 1-1-5.14 18.28 18.28 0 0 1 .28-3.38 4.61 4.61 0 0 0-.12-2 4.05 4.05 0 0 0-1.18-1.42 34.43 34.43 0 0 1-2.75-2.25c-.78-.71-2.09-2-2.92-2.94s-2-2.34-2.68-3.19-1.81-2.64-2.58-4l-.33-.57c-.64-1.09-1.22-2.07-1.4-2.33a3.23 3.23 0 0 1-.44-2.3c.18-.74 1.08-1.66 2.67-2.75A13.17 13.17 0 0 0 72 73a.79.79 0 0 0 0-.18 4.06 4.06 0 0 0-.23-.69L71.7 72a3.87 3.87 0 0 1-.93-.91 8.48 8.48 0 0 1-.77-1.26 1.35 1.35 0 0 0-.24-.3 2.48 2.48 0 0 0-.36-.06c-.42 0-1 0-1.29-.07a3.28 3.28 0 0 1-1.29 1.2 8.13 8.13 0 0 1-2.24.61 2.53 2.53 0 0 0-.77.25.8.8 0 0 0-.05.27 4.47 4.47 0 0 1-.48 2.36 3.63 3.63 0 0 1-1.94 1.46 8.06 8.06 0 0 1-1.9.3 26.72 26.72 0 0 1-4.08-.78c-1.57-.4-4.63-1-6.82-1.27s-4.83-.76-5.72-1a6.71 6.71 0 0 0-2.33-.13 9.34 9.34 0 0 0-2.53 1 20.94 20.94 0 0 1-3.37 1.55 17.14 17.14 0 0 1-3.45.7c-.79.06-2.82.37-4.42.67a42.66 42.66 0 0 0-6.35 1.92A84.79 84.79 0 0 0 10 84.37a48.77 48.77 0 0 0-7.76 5.87 9.82 9.82 0 0 0-1.17 3.28C.88 94.79.41 97.35 0 99.22a47.67 47.67 0 0 1-2.05 6.54A42.18 42.18 0 0 0-3.61 110a18.14 18.14 0 0 0-.39 2.87 16.32 16.32 0 0 0 .15 2.79 15.35 15.35 0 0 0 .72 2.61 12.58 12.58 0 0 1 .75 3.36 13.55 13.55 0 0 1-.34 3.47 11.11 11.11 0 0 0-.12 3.06 26.44 26.44 0 0 0 1 4.28 32.18 32.18 0 0 0 2 4.51 29 29 0 0 0 2.62 3.89z"/><path d="M12.85 150.3a4.24 4.24 0 0 0-.57-.54l.61.61zM95.61 118c-.37-.9-1.1-3.06-1.62-4.81a24.92 24.92 0 0 1-1-4.75 16.76 16.76 0 0 1 .28-3.15 6 6 0 0 0-.14-2.8 5.49 5.49 0 0 0-1.71-2.11 33 33 0 0 1-2.61-2.13c-.75-.68-2-2-2.83-2.85s-2-2.27-2.59-3.08-1.73-2.53-2.48-3.82-1.55-2.63-1.77-3a1.77 1.77 0 0 1-.28-1.18 6.9 6.9 0 0 1 2.06-1.87 9.14 9.14 0 0 0 2.16-1.85 2.25 2.25 0 0 0 .08-1.18 5.15 5.15 0 0 0-.37-1.07 1.86 1.86 0 0 0-.53-.61 2.73 2.73 0 0 1-.6-.59 7.31 7.31 0 0 1-.58-1 2.54 2.54 0 0 0-.77-.92 2.63 2.63 0 0 0-1.18-.31 11.32 11.32 0 0 1-1.13-.08 2.6 2.6 0 0 1-.68-.18.35.35 0 0 0-.4.07 1.91 1.91 0 0 0-.3.67 1.55 1.55 0 0 1-.75.8 6.8 6.8 0 0 1-1.75.46 3.38 3.38 0 0 0-1.66.67 2.09 2.09 0 0 0-.46 1.44 3 3 0 0 1-.27 1.48l-.06.08a2.19 2.19 0 0 1-.8.62l.33.58c.75 1.29 1.86 3 2.48 3.82s1.78 2.2 2.59 3.08 2.08 2.16 2.83 2.85a33 33 0 0 0 2.61 2.13 5.49 5.49 0 0 1 1.71 2.11 6 6 0 0 1 .14 2.8 16.76 16.76 0 0 0-.28 3.15 24.92 24.92 0 0 0 1 4.75c.52 1.75 1.25 3.91 1.62 4.81a18.22 18.22 0 0 1 1 3.28 16.5 16.5 0 0 1 .15 3.3 22.26 22.26 0 0 1-.54 3.25 44.71 44.71 0 0 1-1.72 4.65c-.72 1.68-2 5.51-2.87 8.51a33.1 33.1 0 0 1-2.75 7.1c-.65.91-5 4-9.77 6.79l-6.57 3.93c-4.72 2.83-9.25 5.25-10.06 5.38a10.91 10.91 0 0 1-3.07 0 16.2 16.2 0 0 0-3.13-.19 15.69 15.69 0 0 0-3 .55 22.16 22.16 0 0 1-2.89.65 16 16 0 0 1-2.65.11 13.94 13.94 0 0 1-2.48-.44 14.71 14.71 0 0 1-2.37-1 7.42 7.42 0 0 0-2.39-.73 8 8 0 0 0-2.54.29 7 7 0 0 1-2.51.24 6.63 6.63 0 0 1-2.3-.89 3.09 3.09 0 0 0-1.73-.6 1.15 1.15 0 0 0-.71.79c.32.21.61.42.86.62a5 5 0 0 1 .74.67 1.46 1.46 0 0 1 .11 1.81c-.4.44-1 1.1-1.45 1.46a18.27 18.27 0 0 1-1.49 1.18 8.87 8.87 0 0 0-1.32 1.16 7.91 7.91 0 0 0-.95 1.4 12.09 12.09 0 0 0-1.08 3.19 9.67 9.67 0 0 0-.15 1.59 7.15 7.15 0 0 0 .18 1.43 1.77 1.77 0 0 0 .62.95 1.93 1.93 0 0 0 1.16.13 4.35 4.35 0 0 1 1.3 0 2.86 2.86 0 0 1 1 .44 10.43 10.43 0 0 0 .95.62 10.81 10.81 0 0 0 1 .5.94.94 0 0 0 .91-.13 3.05 3.05 0 0 0 .59-1.27c.12-.5.47-1.69.79-2.64a6 6 0 0 1 1.31-2.3 6.27 6.27 0 0 1 1.87-.89 4.8 4.8 0 0 0 1.79-1 3.45 3.45 0 0 0 .8-1.63 1.35 1.35 0 0 1 .78-1.11 3.09 3.09 0 0 1 1.73.6 6.63 6.63 0 0 0 2.3.89 7 7 0 0 0 2.51-.24 8 8 0 0 1 2.54-.29 7.42 7.42 0 0 1 2.39.73 14.71 14.71 0 0 0 2.37 1 13.94 13.94 0 0 0 2.48.44 16 16 0 0 0 2.65-.11 22.16 22.16 0 0 0 2.89-.65 15.69 15.69 0 0 1 3-.55 16.2 16.2 0 0 1 3.13.19 10.91 10.91 0 0 0 3.07 0c.82-.14 5.34-2.56 10.06-5.38l6.57-3.93c4.78-2.88 9.17-5.88 9.82-6.88a33.1 33.1 0 0 0 2.75-7.1c.86-3 2.15-6.83 2.87-8.51a44.71 44.71 0 0 0 1.72-4.65 22.26 22.26 0 0 0 .54-3.25 16.5 16.5 0 0 0-.15-3.3 18.22 18.22 0 0 0-.95-3.19z"/></svg>