<svg xmlns="http://www.w3.org/2000/svg" width="97.63" height="200" viewBox="0 0 97.63 200"><title>_</title><path d="M73.08 153.53a21.32 21.32 0 0 1 4 .92 9.73 9.73 0 0 0 3 .48 7.55 7.55 0 0 0 2.55-.73 14.75 14.75 0 0 0 2.37-1.65 11.06 11.06 0 0 0 1.63-2 6.33 6.33 0 0 0 .7-2.12 9.51 9.51 0 0 0-.27-2.68 32.32 32.32 0 0 1-.7-3.64c-.14-1.16-.15-7-.09-11.9l.08-6.9c.06-5 .2-10.74.34-11.85a14.27 14.27 0 0 0 0-3 15.88 15.88 0 0 0-.81-3 15.54 15.54 0 0 1-.92-3.8 14.51 14.51 0 0 1 .29-3.83c.2-.87.47-2.34.59-3.21s.15-3.55.08-6.49c0-2-.07-4.11-.05-5.61v-1.37a38.85 38.85 0 0 1 .51-3.92 2.33 2.33 0 0 0 0-.92 6.2 6.2 0 0 0-1.7.35 14.82 14.82 0 0 1-4.89.81 14 14 0 0 1-4.69-1.17 10.43 10.43 0 0 0-3.39-.85 10.25 10.25 0 0 0-3.37.71 17.8 17.8 0 0 1-4.43 1.21 16 16 0 0 1-4.45-.26 3.1 3.1 0 0 0-2 .25 5.7 5.7 0 0 0-1.28 2.53 22.08 22.08 0 0 0-.47 4.44 81.21 81.21 0 0 0 1.58 9.41 58.55 58.55 0 0 1 1.46 10.1A30.56 30.56 0 0 1 58 109c-.34 1.29-.77 3.31-1 4.52a39.82 39.82 0 0 0-.39 4.13 39.11 39.11 0 0 1-.35 4 26.81 26.81 0 0 1-.84 3.54c-.29.88-1.12 2.88-1.85 4.46-.56 1.23-1.88 3.47-3.21 4.07-1.57.7-6.13 0-6.32 0-.66-.1-1.31-.22-1.92-.33a18.23 18.23 0 0 1-3.72-.94 6.42 6.42 0 0 1-2-1.65 11.9 11.9 0 0 0-1.22-1.31 20.61 20.61 0 0 0-1.78-1.38 7 7 0 0 1-2.18-2.66 10.65 10.65 0 0 1-.68-3.65 26.65 26.65 0 0 0-.22-3.14 18.5 18.5 0 0 0-.63-2.67 27.85 27.85 0 0 1-.79-2.92 25.59 25.59 0 0 1-.38-2.93 19.57 19.57 0 0 1 .1-3 20.72 20.72 0 0 1 .63-3 11.63 11.63 0 0 0 .4-2.35 11.21 11.21 0 0 0-.22-2.34 11.76 11.76 0 0 1-.21-3.2 12.69 12.69 0 0 1 .81-3.16 17.54 17.54 0 0 0 .78-2.46c.11-.51.31-4 .38-8.41a31.53 31.53 0 0 0-.45-6.62h-.01a33.53 33.53 0 0 0-6 .82A75.35 75.35 0 0 1 16.05 78a23.78 23.78 0 0 1-4.34-.38 25.91 25.91 0 0 0-3.58-.43h-.31a19 19 0 0 0-2.82.19 8.6 8.6 0 0 0-2.29.8 4.65 4.65 0 0 0-1.26 1.25 14.33 14.33 0 0 0-.94 2.12 20 20 0 0 0-.63 2.61A7.13 7.13 0 0 0 0 86.58a10.61 10.61 0 0 0 1.3 2.6 7.56 7.56 0 0 1 1.36 4 7.66 7.66 0 0 1-1.46 3.91 5.3 5.3 0 0 0-.89 2.23 4.83 4.83 0 0 0 .69 2.19 9.08 9.08 0 0 1 1.38 3.8 8.16 8.16 0 0 1-.88 3.88A23.18 23.18 0 0 0 .29 112a19 19 0 0 0-.66 2.8 9.22 9.22 0 0 0 .1 2.55A11.64 11.64 0 0 0 .79 120a24.92 24.92 0 0 1 1.58 3.48 62.11 62.11 0 0 1 1.46 7.44c.48 3.22 1 6.13 1.22 6.83a18 18 0 0 0 1 2.57 21.13 21.13 0 0 1 1.2 3 26.82 26.82 0 0 1 .75 3.43 9.88 9.88 0 0 0 .74 2.52 7.38 7.38 0 0 0 1.42 1.81 17.43 17.43 0 0 0 2.13 1.52 49.61 49.61 0 0 0 5 2l.28.1c2.27.81 4.85 1.67 5.63 1.88s2.13.48 2.92.61a11.45 11.45 0 0 0 2.93-.08 22.23 22.23 0 0 0 3.7-1.11 22.28 22.28 0 0 1 4.75-1.32 20 20 0 0 1 4.78 0 6.31 6.31 0 0 0 3-.34 6.4 6.4 0 0 0 2.12-2.1 19.8 19.8 0 0 1 2.8-3.61 19.22 19.22 0 0 1 4.32-2.84c2.79-1.33 3.46-1.65 4.19-.45l.71 1.14-.33.26.23.3a4.92 4.92 0 0 1 1 2.27 4.35 4.35 0 0 1-.57 2.4 6.74 6.74 0 0 0-.54 1.36 13.57 13.57 0 0 0-.29 2 .36.36 0 0 0 0 .16c.29 0 .9 0 1.93-.14 1.21-.13 2.66-.36 4.08-.63 1-.19 2-.36 3-.51a29.43 29.43 0 0 1 5.15-.42zM43.87 64a23.27 23.27 0 0 0 2.55-.91 10.49 10.49 0 0 1 3.16-.78 9.6 9.6 0 0 1 3.19.44 18.21 18.21 0 0 0 2.65.59 30.08 30.08 0 0 0 3.27.21 37.64 37.64 0 0 0-2.81-3.38 47.12 47.12 0 0 1-5-6.16 18.91 18.91 0 0 1-1.36-3.66 6.3 6.3 0 0 0-.2-.64 7.68 7.68 0 0 0-.94-1.82 13.86 13.86 0 0 0-3.62-2.29c-1.74-.8-3.95-1.8-4.9-2.22a16 16 0 0 0-3.26-.94 17.65 17.65 0 0 0-3.6-.03c-1.16.11-6 .23-10.73.27-2.25 0-3.95.09-5.11.17a21.16 21.16 0 0 1 3.66 2.83 18.76 18.76 0 0 1 3 4.21 11.51 11.51 0 0 0 2.31 3.06 11.63 11.63 0 0 0 3.4 1.81 15 15 0 0 1 3.67 1.82 9.53 9.53 0 0 1 .85.64 15.84 15.84 0 0 1 2.92 3.66c.1.17.2.35.28.51a9.78 9.78 0 0 0 2 2.73 3.15 3.15 0 0 0 1.8.5c.47-.07 1.16-.2 1.83-.34z"/><path d="M58.28 156.66a1.76 1.76 0 0 1-.92-1.67 14.72 14.72 0 0 1 .33-2.29 8 8 0 0 1 .7-1.75 2.87 2.87 0 0 0 .37-1.48 3.44 3.44 0 0 0-.66-1.48 6.2 6.2 0 0 1-.77-1.2.61.61 0 0 1 .05-.64 19.59 19.59 0 0 0-2.26 1 17.84 17.84 0 0 0-3.92 2.56 18.39 18.39 0 0 0-2.55 3.29 7.84 7.84 0 0 1-2.76 2.7 7.79 7.79 0 0 1-3.83.47 18.64 18.64 0 0 0-4.36 0 21 21 0 0 0-4.37 1.21 23.64 23.64 0 0 1-4.06 1.25 12.46 12.46 0 0 1-3.43.09c-.86-.14-2.23-.42-3.07-.64S19.35 157 17 156.14l-.27-.1a7.33 7.33 0 0 0 .35.85c.07.13.16.28.25.43a8.94 8.94 0 0 0 1.53 1.84 19.06 19.06 0 0 0 2.36 1.67 52 52 0 0 0 5.5 2.25c2.34.84 4.94 1.7 5.77 1.92s2.21.5 3.07.64a12.46 12.46 0 0 0 3.43-.09 23.64 23.64 0 0 0 4.01-1.26 21 21 0 0 1 4.37-1.21 18.64 18.64 0 0 1 4.36 0 7.79 7.79 0 0 0 3.83-.47 7.84 7.84 0 0 0 2.76-2.7 18.7 18.7 0 0 1 1.68-2.23 12.88 12.88 0 0 1 .93-1l.08-.07a9.26 9.26 0 0 1-2.73.05zM41.17 100.71A18.87 18.87 0 0 0 42 98c.16-.75.35-4.66.42-8.7s-.35-7.63-.94-8-3.92 0-7.42.7l-.35.07-1 .21v.07c-.07 4-.25 7.95-.42 8.7a18.87 18.87 0 0 1-.86 2.72 11.34 11.34 0 0 0-.7 2.72 10.39 10.39 0 0 0 .18 2.72 12.69 12.69 0 0 1 .26 2.72 13.07 13.07 0 0 1-.46 2.72 19.56 19.56 0 0 0-.58 2.72 18.34 18.34 0 0 0-.09 2.72 24.05 24.05 0 0 0 .35 2.72 26 26 0 0 0 .73 2.72 20.19 20.19 0 0 1 .7 2.94 28 28 0 0 1 .23 3.36 9.25 9.25 0 0 0 .55 3.05 5.57 5.57 0 0 0 1.65 2 22.09 22.09 0 0 1 1.94 1.51 13.3 13.3 0 0 1 1.44 1.61 5 5 0 0 0 1.46 1.21 20.18 20.18 0 0 0 3.31.8l-.06-.12a5.8 5.8 0 0 1-.3-1 10.08 10.08 0 0 1-.26-2.08 28 28 0 0 0-.23-3.36 20.19 20.19 0 0 0-.7-2.94 26 26 0 0 1-.73-2.72 24.05 24.05 0 0 1-.35-2.72 18.34 18.34 0 0 1 .09-2.72 19.56 19.56 0 0 1 .58-2.72 13.07 13.07 0 0 0 .46-2.72 12.69 12.69 0 0 0-.26-2.72 10.39 10.39 0 0 1-.18-2.72 11.34 11.34 0 0 1 .71-2.76zM97.58 148.92c-.11-.94-.15-6.21-.08-11.7l.08-6.9c.07-5.5.22-10.76.33-11.68a15.6 15.6 0 0 0 0-3.36 17.28 17.28 0 0 0-.91-3.36 14 14 0 0 1-.81-3.36 13 13 0 0 1 .26-3.36c.22-.92.49-2.44.62-3.36a66.34 66.34 0 0 0 .09-6.73c-.07-2.77-.08-5.86 0-6.85a37.16 37.16 0 0 1 .48-3.74A2.64 2.64 0 0 0 97 82a4.71 4.71 0 0 0-3.13.24 13.8 13.8 0 0 1-4.32.72 8.78 8.78 0 0 1-1.23-.15c-.33-.06-.66-.13-1-.22 0 1.42 0 3.56.05 5.55a66.34 66.34 0 0 1-.09 6.73c-.12.92-.4 2.44-.62 3.36a13 13 0 0 0-.26 3.36 14 14 0 0 0 .81 3.36 17.28 17.28 0 0 1 .91 3.36 15.6 15.6 0 0 1 0 3.36c-.11.92-.26 6.18-.33 11.68l-.08 6.9c-.07 5.5 0 10.77.08 11.7a30.33 30.33 0 0 0 .66 3.44 10.88 10.88 0 0 1 .31 3.22 7.8 7.8 0 0 1-.91 2.74 12.58 12.58 0 0 1-1.9 2.29 16.2 16.2 0 0 1-2.65 1.85 9 9 0 0 1-3.2.9 11.26 11.26 0 0 1-3.54-.56 20 20 0 0 0-3.72-.84 27.75 27.75 0 0 0-4.8.43 3 3 0 0 1 .34 1 2.87 2.87 0 0 1-.37 1.48 8 8 0 0 0-.7 1.75 14.72 14.72 0 0 0-.33 2.29 1.76 1.76 0 0 0 .92 1.67c.55.22 3.65-.11 6.89-.72a42.72 42.72 0 0 1 7.75-.92 20 20 0 0 1 3.72.84 11.26 11.26 0 0 0 3.54.56 9 9 0 0 0 3.2-.9 16.2 16.2 0 0 0 2.65-1.85 12.58 12.58 0 0 0 1.9-2.29 7.8 7.8 0 0 0 .91-2.74 10.88 10.88 0 0 0-.31-3.22 30.33 30.33 0 0 1-.57-3.45zM45.6 69a11.09 11.09 0 0 0 2.48 3.25 4.56 4.56 0 0 0 2.91.79 28.06 28.06 0 0 0 3-.62 24.55 24.55 0 0 0 2.76-1 9.1 9.1 0 0 1 2.64-.66 8.56 8.56 0 0 1 2.64.36 19.82 19.82 0 0 0 2.91.66 31.19 31.19 0 0 0 3.46.22c1 0 2-.36 2.07-.79s-1.59-2.73-3.78-5.1a47.05 47.05 0 0 1-4.78-5.84A17.46 17.46 0 0 1 60.67 57a9.43 9.43 0 0 0-1.42-3 14.44 14.44 0 0 0-4.17-2.72l-3.15-1.44-1.22-.55A7.39 7.39 0 0 1 51 50a17.46 17.46 0 0 0 1.24 3.32A47.05 47.05 0 0 0 57 59.19c2.19 2.37 3.89 4.66 3.78 5.1s-1 .79-2.07.79a31.19 31.19 0 0 1-3.47-.22 19.82 19.82 0 0 1-2.91-.66 8.56 8.56 0 0 0-2.64-.36 9.1 9.1 0 0 0-2.64.66 24.55 24.55 0 0 1-2.76 1c-.29.08-.66.17-1.05.25.25.25.5.54.75.85A14.36 14.36 0 0 1 45.6 69zM34.84 61a8.06 8.06 0 0 0 .81.59A14.45 14.45 0 0 0 33 58.36a8.09 8.09 0 0 0-.72-.54A13.07 13.07 0 0 0 34.84 61z"/></svg>