<svg xmlns="http://www.w3.org/2000/svg" width="95.83" height="200" viewBox="0 0 95.83 200"><title>_</title><path d="M59.38 43.28a36.16 36.16 0 0 0-3.83.35 37.79 37.79 0 0 1-4.22.37 37.16 37.16 0 0 1-4.21-.2 7.45 7.45 0 0 0-2.8.25 45 45 0 0 0-5.74 7c-2.64 3.76-5.55 8.2-6.34 9.69-.2.38-.38.75-.55 1.11a9.58 9.58 0 0 1 1.46-.13h.13a12.41 12.41 0 0 1 2.94.51 18.93 18.93 0 0 0 2.4.55A16.74 16.74 0 0 0 41 63l1.1-.06c.78-.06 1.74-.15 2.57-.25a13.43 13.43 0 0 0 3.44-.87 23.92 23.92 0 0 0 2.89-1.9c.91-.68 2.33-1.87 3.18-2.64s2.18-2.12 3-3a33.93 33.93 0 0 1 3.37-3.16 34.53 34.53 0 0 1 3.87-2.58c.42-.23 1-.56 1.55-.95s1.33-.9 1.75-1.23A20.59 20.59 0 0 0 70.19 44l.17-.21c-1.09 0-3.31-.11-5.32-.26s-4.64-.29-5.66-.25zM72.22 153.87a30.5 30.5 0 0 0 3.53-.35 32.66 32.66 0 0 1 3.93-.37 31.52 31.52 0 0 1 3.91.21 3.87 3.87 0 0 0 1.53-.12 29.89 29.89 0 0 0 .95-6.37c.26-4 .39-7.43.34-8.2a34.16 34.16 0 0 1 0-3.55 35 35 0 0 1 .48-3.55 12.66 12.66 0 0 0 .15-2.93 13.88 13.88 0 0 0-.7-3 23.41 23.41 0 0 1-1-3.64 21.12 21.12 0 0 1-.25-3.67c0-.87 0-3.1-.17-4.89a39.06 39.06 0 0 1 0-5.31 21.9 21.9 0 0 1 .79-3.66 14.87 14.87 0 0 0 .56-3 37 37 0 0 0-1.08-6.29c-.51-2.14-1.21-5.83-1-7.26a13.68 13.68 0 0 1 1.24-3.87 16 16 0 0 0 .88-2.17c.12-.37.23-.73.3-1a19.14 19.14 0 0 0 .39-3.59 2.41 2.41 0 0 0-.43-1.4 5.93 5.93 0 0 0-2.23.33 16.84 16.84 0 0 1-5 .86A14.16 14.16 0 0 1 74.5 76a12.87 12.87 0 0 0-3.5-1 21.8 21.8 0 0 0-5.3.8c-2.15.6-4.7 1.2-5.6 1.29a3.18 3.18 0 0 0-1.59.83 6.57 6.57 0 0 0-.92 2.51 31.63 31.63 0 0 0-.24 4.12 40 40 0 0 0 .42 4.45 25.34 25.34 0 0 1 .18 5.22 27.05 27.05 0 0 1-1.12 5.2 28.56 28.56 0 0 0-1.07 4.58 26.13 26.13 0 0 0-.09 4.53c.12 1.37.19 4.46.16 6.88a30.69 30.69 0 0 1-.64 6.38 13.33 13.33 0 0 1-1.66 3.35c-.47.64-1.16 1.7-1.51 2.32a20.35 20.35 0 0 0-1 2.21 8.23 8.23 0 0 1-1.76 2.65 11 11 0 0 1-2.82 1.82 21.31 21.31 0 0 1-2.78.94l-.34.09a18.25 18.25 0 0 1-3.18.37 6.69 6.69 0 0 1-3.23-.87 6.09 6.09 0 0 1-2-2.64 21.92 21.92 0 0 0-1-2.2 16.68 16.68 0 0 0-1.27-1.83 16.59 16.59 0 0 1-1.53-2.54 30.07 30.07 0 0 1-1.26-3.25 14.86 14.86 0 0 1-.63-3.71 10.86 10.86 0 0 1 .62-3.46c.27-.71.67-1.89.87-2.59s.48-1.88.6-2.58a7.26 7.26 0 0 0 0-2.16 9.43 9.43 0 0 0-.89-2.26 19.75 19.75 0 0 1-1.38-3 16.17 16.17 0 0 1-.67-3.06 14 14 0 0 1 .11-3.12 15.66 15.66 0 0 1 .93-3.07 6.29 6.29 0 0 0 .44-2.1 6.53 6.53 0 0 0-.55-2.1 7.21 7.21 0 0 1-.61-3.55A8.47 8.47 0 0 1 30.13 82a5.86 5.86 0 0 0 .73-1.43 2.46 2.46 0 0 0 .1-.36 2 2 0 0 0-.33-1A9.66 9.66 0 0 0 29 77.68a20.07 20.07 0 0 0-2.72-1.45 10 10 0 0 0-3-.65 11.44 11.44 0 0 0-3.36.57 19.15 19.15 0 0 1-4.41.85 17.85 17.85 0 0 1-4.51-.43c-1-.25-3.89-.7-6.21-1a15.29 15.29 0 0 0-3.8 0 2.84 2.84 0 0 0 .19 1 18.32 18.32 0 0 1 1 3.95A13.09 13.09 0 0 1 2 84.26c-.2.74-.5 2.81-.67 4.42A29.26 29.26 0 0 0 1.16 93a22.55 22.55 0 0 0 .51 2.84 11.61 11.61 0 0 1 .27 3.61 12.85 12.85 0 0 1-1 3.56 13.26 13.26 0 0 0-.94 2.67 11.1 11.1 0 0 0-.09 2.63 28.3 28.3 0 0 1 .09 3.28c0 .89-.31 3.71-.63 6.29a43.46 43.46 0 0 0-.41 6 32.23 32.23 0 0 0 .56 3.46c.25 1.1.57 2.91.72 4s.29 3 .33 4.11a14.63 14.63 0 0 0 .53 3.24 33.17 33.17 0 0 0 3.08 5.2c1.58 2.27 3.16 4.37 3.6 4.84a32.44 32.44 0 0 0 4.33 3c1.3.79 2.77 1.63 3.84 2.19.4.21.73.37.93.45.69.27 1.91.67 2.67.86a18.09 18.09 0 0 0 2.72.44c.61 0 5.19-.39 10.79-1.09 5.84-.74 10.36-1.52 11-1.76a16.16 16.16 0 0 0 3-1.57 29.75 29.75 0 0 0 3-2.48 43 43 0 0 0 3-3.32 14.3 14.3 0 0 1 2.94-2.69 2.05 2.05 0 0 1 2-.09 2.11 2.11 0 0 1 1.1 1.78 16.65 16.65 0 0 0 .21 1.65 11.2 11.2 0 0 0 .38 1.38 5.26 5.26 0 0 1 .26 2.18 6 6 0 0 1-.75 2.08 4.14 4.14 0 0 0-.22.42l.22.07c.15 0 1.23.27 4.21.71l1.84.26c1 .13 2 .26 2.93.36a35.25 35.25 0 0 0 4.04.31z"/><path d="M48.11 71.25a19.2 19.2 0 0 0 2.64.16c.73 0 2.44-.16 3.8-.32a14.59 14.59 0 0 0 3.94-1 25.44 25.44 0 0 0 3.16-2c.93-.7 2.41-1.93 3.29-2.73s2.25-2.19 3.07-3.09a32.12 32.12 0 0 1 3.19-3 32.81 32.81 0 0 1 3.66-2.44 31.05 31.05 0 0 0 3.5-2.31 22.21 22.21 0 0 0 2.7-2.61 3.24 3.24 0 0 0 .94-2 1.93 1.93 0 0 0-1.77-.63c-.86 0-3.27-.09-5.36-.25s-4.7-.27-5.81-.24h-.3c-.58 0-1.28.08-2 .14-.57.37-1.16.73-1.64 1a32.81 32.81 0 0 0-3.66 2.44 32.12 32.12 0 0 0-3.19 3c-.81.9-2.19 2.29-3.07 3.09s-2.35 2-3.29 2.73a25.44 25.44 0 0 1-3.16 2 14.59 14.59 0 0 1-3.94 1c-.81.06-1.81.15-2.61.21l-.65 1c-.4.65-.73 1.2-.92 1.57a9.31 9.31 0 0 0-1.29 3.36 1.11 1.11 0 0 0 1.31.16 8.3 8.3 0 0 1 2.31-.33 11 11 0 0 1 2.53.44 20.62 20.62 0 0 0 2.62.65zM32.14 112.84c-.21.75-.62 2-.91 2.72a9.48 9.48 0 0 0-.52 2.91 13.41 13.41 0 0 0 .56 3.27 28.51 28.51 0 0 0 1.18 3.05 15.05 15.05 0 0 0 1.36 2.26 18.55 18.55 0 0 1 1.34 2 23.27 23.27 0 0 1 1.1 2.39 4.66 4.66 0 0 0 1.45 1.92 5 5 0 0 0 2.38.62 16.66 16.66 0 0 0 2.86-.33l.31-.08c-.18-.26-.37-.57-.56-.89s-.39-.69-.53-1a28.51 28.51 0 0 1-1.16-3 13.41 13.41 0 0 1-.56-3.27 9.48 9.48 0 0 1 .52-2.91c.29-.75.7-2 .91-2.72s.5-2 .64-2.72a8.69 8.69 0 0 0 0-2.72 10.73 10.73 0 0 0-1.06-2.72 18.27 18.27 0 0 1-1.25-2.72 14.7 14.7 0 0 1-.6-2.72 12.43 12.43 0 0 1 .1-2.72 14.12 14.12 0 0 1 .82-2.72A7.78 7.78 0 0 0 41 98a8 8 0 0 0-.67-2.72 5.82 5.82 0 0 1-.47-2.72 7.12 7.12 0 0 1 1.16-2.72 6.4 6.4 0 0 0 1.11-2.52 3.38 3.38 0 0 0-.65-2.11 11 11 0 0 0-2-1.8 21.43 21.43 0 0 0-3-1.59 11.6 11.6 0 0 0-3.15-.82h-1a7.31 7.31 0 0 1-.94 1.83 7.12 7.12 0 0 0-1.16 2.72 5.82 5.82 0 0 0 .47 2.72 8 8 0 0 1 .63 2.73 7.78 7.78 0 0 1-.57 2.72 14.12 14.12 0 0 0-.82 2.72 12.43 12.43 0 0 0-.1 2.72 14.7 14.7 0 0 0 .6 2.72 18.27 18.27 0 0 0 1.25 2.72 10.73 10.73 0 0 1 1.06 2.72 8.69 8.69 0 0 1 0 2.72c-.11.82-.39 2.05-.61 2.8zM57.59 153.06a1.16 1.16 0 0 1-.16-.84A4.75 4.75 0 0 1 58 151a4.48 4.48 0 0 0 .54-1.48 3.81 3.81 0 0 0-.18-1.48 12.88 12.88 0 0 1-.44-1.6 17.89 17.89 0 0 1-.24-1.84.55.55 0 0 0-.88-.5 13.75 13.75 0 0 0-2.37 2.42 44.65 44.65 0 0 1-3.15 3.46 31 31 0 0 1-3.2 2.63 17.74 17.74 0 0 1-3.39 1.74 108.1 108.1 0 0 1-11.35 1.84c-5.27.66-10.25 1.16-11.08 1.1a19.67 19.67 0 0 1-3-.49c-.82-.21-2.1-.63-2.84-.92-.23-.09-.61-.28-1.07-.52.51.67.92 1.18 1.14 1.42a4.56 4.56 0 0 0 .34.31 40.21 40.21 0 0 0 4.31 3 50.36 50.36 0 0 0 5 2.75c.75.29 2 .71 2.84.92a19.67 19.67 0 0 0 3 .49c.83.06 5.82-.44 11.08-1.1a108.1 108.1 0 0 0 11.35-1.84 17.74 17.74 0 0 0 3.39-1.74 31 31 0 0 0 3.2-2.63c.42-.4 1-1 1.5-1.56l.8-.89c-2.18-.32-4-.63-4.43-.76a3.4 3.4 0 0 1-1.28-.67zM97.47 132.08a21.87 21.87 0 0 1-.93-3.36 19.68 19.68 0 0 1-.23-3.36c0-.92 0-3.19-.17-5a38.1 38.1 0 0 1 0-5 20.62 20.62 0 0 1 .73-3.36 16.08 16.08 0 0 0 .63-3.36 36.85 36.85 0 0 0-1.12-6.72 29.32 29.32 0 0 1-1-6.72 12.1 12.1 0 0 1 1.09-3.36 18.2 18.2 0 0 0 1.31-3.55 20.79 20.79 0 0 0 .43-3.94A3.3 3.3 0 0 0 97 81.56a5.43 5.43 0 0 0-3.49.21 15.14 15.14 0 0 1-4.49.78h-.32c-.31 0-.65-.06-1-.12a17.77 17.77 0 0 1-1 2.4 12.1 12.1 0 0 0-1.09 3.36 29.32 29.32 0 0 0 1 6.72 36.85 36.85 0 0 1 1.12 6.72 16.08 16.08 0 0 1-.63 3.36 20.62 20.62 0 0 0-.73 3.36 38.1 38.1 0 0 0 0 5c.13 1.85.2 4.12.17 5a19.68 19.68 0 0 0 .23 3.36 21.87 21.87 0 0 0 .93 3.36 15.32 15.32 0 0 1 .8 3.36 14.19 14.19 0 0 1-.18 3.36 33.13 33.13 0 0 0-.45 3.36 32.3 32.3 0 0 0 0 3.36c.05.92-.1 4.69-.34 8.38s-.86 7-1.38 7.41a4.5 4.5 0 0 1-2.78.47 29.9 29.9 0 0 0-3.69-.2A30.6 30.6 0 0 0 76 155a32.22 32.22 0 0 1-3.72.37c-.68 0-2.32-.11-4.21-.32a4.1 4.1 0 0 1 .16 1 2.38 2.38 0 0 1 0 .34 4.48 4.48 0 0 1-.54 1.48 4.75 4.75 0 0 0-.55 1.27 1.16 1.16 0 0 0 .16.84 3.4 3.4 0 0 0 1.23.6c.53.16 3.36.62 6.29 1a66.42 66.42 0 0 0 7.17.68 32.22 32.22 0 0 0 3.72-.37 30.6 30.6 0 0 1 3.71-.35 29.9 29.9 0 0 1 3.69.2 4.5 4.5 0 0 0 2.78-.47c.52-.39 1.14-3.73 1.38-7.41s.4-7.45.34-8.38a32.3 32.3 0 0 1 0-3.36 33.13 33.13 0 0 1 .45-3.36 14.19 14.19 0 0 0 .18-3.36 15.32 15.32 0 0 0-.77-3.32z"/></svg>