<svg xmlns="http://www.w3.org/2000/svg" width="200" height="200" viewBox="0 0 200 200"><title>_</title><path d="M113.78,48.4a8.88,8.88,0,0,0-1.42-2.84,12.54,12.54,0,0,0-4.07-2.21c-2-.69-4-1.29-4.59-1.42s-2-.33-2.74-0.41-2.11-.15-3-0.16-2.22.06-3,.14-2.22.3-3.05,0.47a17.89,17.89,0,0,1-3.36.32,17.7,17.7,0,0,1-3.33-.45A3.88,3.88,0,0,0,83.1,42a5.46,5.46,0,0,0-1.75,1.79,29.73,29.73,0,0,1-2.18,3.13,30.08,30.08,0,0,1-2.65,2.76,19.86,19.86,0,0,0-2.32,2.57,20.84,20.84,0,0,0-1.75,3.05,16.82,16.82,0,0,1-2.1,3.38,17,17,0,0,1-3,2.66,5.55,5.55,0,0,0-1.1,1,1.8,1.8,0,0,0,.45.2,11.77,11.77,0,0,0,2.55.38h0a32.1,32.1,0,0,0,5.36-1.15,29.55,29.55,0,0,1,6-1.21c0.25,0,.56,0,0.87.07a12.81,12.81,0,0,1,2.31.5,4,4,0,0,0,1.65.21,1,1,0,0,0,.38-0.56,5.56,5.56,0,0,1,1-2.2,5.72,5.72,0,0,1,2-1.38,14.44,14.44,0,0,0,1.71-.82,11.27,11.27,0,0,0,1.41-1,4.61,4.61,0,0,0,.9-1.28,10.23,10.23,0,0,0,.58-2.16c0.19-1.35.61-2.14,1.24-2.34s1.54,0.34,2.1,1.62a14.88,14.88,0,0,0,1,1.93A8.59,8.59,0,0,0,99,54.44a5.57,5.57,0,0,1,1.3,1.89,7.43,7.43,0,0,1,.39,2.4,5,5,0,0,0,.31,1.66,4.73,4.73,0,0,0,1,1.32,3.23,3.23,0,0,0,.77.44,3.34,3.34,0,0,0,.76.23,21.61,21.61,0,0,0,4.57-.88l0.67-.18c2.21-.62,5.07-1.34,6-1.46a19.42,19.42,0,0,1,3-.1,27.31,27.31,0,0,1,2.72.32L121,60.18c-0.47-.59-1.05-1.3-1.72-2.09a39.24,39.24,0,0,1-4.15-5.74,26,26,0,0,1-1.37-3.86Z" fill="#231f20"/><path d="M118,151.87c0.6,0,1.25,0,1.88.06,1.46,0,2.83,0,3.47,0,1-.09,2.63-0.3,3.63-0.47a24.66,24.66,0,0,1,3.89-.31,23.77,23.77,0,0,1,3.84.45,4.16,4.16,0,0,0,2.25-.12,3.18,3.18,0,0,0,1.08-1.62,9.48,9.48,0,0,0,.21-2.91,11.36,11.36,0,0,0-.94-3,11.57,11.57,0,0,1-1-3.75,10.75,10.75,0,0,1,.57-3.77,14.94,14.94,0,0,0,.72-3.11,36.25,36.25,0,0,0-.85-6.44,34,34,0,0,1-.84-7,14.7,14.7,0,0,1,1-3.66,17.59,17.59,0,0,0,1-3.14,15.18,15.18,0,0,0,.21-3.11,28.49,28.49,0,0,0-.43-3.22,30.79,30.79,0,0,0-.89-3.23,31.74,31.74,0,0,1-1-3.5,29.13,29.13,0,0,1-.44-3.5,14.9,14.9,0,0,1,.35-3.65,18,18,0,0,1,1.42-3.6,10.43,10.43,0,0,0,1-3,16.85,16.85,0,0,0-.6-4.53c-0.12-.46-0.24-0.95-0.35-1.43a33.66,33.66,0,0,1-.64-3.32,3.14,3.14,0,0,0-.76-1.62,5.86,5.86,0,0,0-2.22-1,17,17,0,0,0-3.4-.33,23.33,23.33,0,0,0-3.69.42,15.87,15.87,0,0,1-4.32.21,17.57,17.57,0,0,1-4.29-1.19,13.14,13.14,0,0,0-3.61-.93,11.2,11.2,0,0,0-3.46.45,4,4,0,0,0-2,1.59,6.42,6.42,0,0,0-.17,3.19,23.06,23.06,0,0,1,.32,5,25.56,25.56,0,0,1-1,5,24.34,24.34,0,0,0-.9,4.62,80.63,80.63,0,0,0,.69,9.51,57.64,57.64,0,0,1,.53,9.77,23.85,23.85,0,0,1-1.22,4.47,22.54,22.54,0,0,0-1.1,3.72,16.25,16.25,0,0,0-.17,3.42,10.47,10.47,0,0,1-.38,3.61,8.45,8.45,0,0,1-1.85,2.9,12.91,12.91,0,0,1-2.74,1.93,14.27,14.27,0,0,1-3.28,1.05,21.69,21.69,0,0,1-2.87.26H94.23a15.59,15.59,0,0,1-3-.4,20.54,20.54,0,0,1-2.61-.89,16.55,16.55,0,0,1-2.27-1.24,6,6,0,0,1-1.79-2,7.28,7.28,0,0,1-.58-2.77,11.41,11.41,0,0,0-.38-2.54,19.24,19.24,0,0,0-1.21-2.93,27.8,27.8,0,0,1-1.43-3.27,17.84,17.84,0,0,1-.71-3.07,16.52,16.52,0,0,1,0-2.93,17.46,17.46,0,0,1,.58-2.92,12.42,12.42,0,0,0,.43-2.48A12,12,0,0,0,81,103a11.86,11.86,0,0,1-.18-3,12.74,12.74,0,0,1,.74-3,13.09,13.09,0,0,0,.67-2.49,27.32,27.32,0,0,0-.52-5.14,26.58,26.58,0,0,1-.51-5.77,11.17,11.17,0,0,1,1-2.87l0.08-.16A7.27,7.27,0,0,0,83,78.22,6.28,6.28,0,0,0,82.6,76a2.43,2.43,0,0,0-1.17-1.17,6.22,6.22,0,0,0-2.68.11,16.55,16.55,0,0,1-4.28.42,17.73,17.73,0,0,1-4.28-.89,16.7,16.7,0,0,0-3.73-.79,15.86,15.86,0,0,0-3.71.31,21.1,21.1,0,0,1-4.34.46,25,25,0,0,1-4.51-.58,4.83,4.83,0,0,0-2.16-.07,2.29,2.29,0,0,0,0,1.34,20.4,20.4,0,0,1,.7,3.66,15.8,15.8,0,0,1-.18,3.45A13.7,13.7,0,0,0,52.12,85a14.26,14.26,0,0,0,.56,2.83,12.3,12.3,0,0,1,.53,3.4,34.91,34.91,0,0,1-1.51,6.43,34.5,34.5,0,0,0-1.42,5.86,36.68,36.68,0,0,0,1.15,5.88,35.87,35.87,0,0,1,1.2,6.41,14,14,0,0,1-.57,3.36,10.92,10.92,0,0,0-.41,2.9,14.79,14.79,0,0,0,.57,3.28,25.14,25.14,0,0,1,.81,4,25.85,25.85,0,0,1,0,4.07A27.71,27.71,0,0,0,53,137a19.71,19.71,0,0,0,.52,3.1,7.22,7.22,0,0,0,1.21,2.29A8.48,8.48,0,0,0,57,144a15.33,15.33,0,0,1,2.92,1.89A11.46,11.46,0,0,1,62,148.36a8.41,8.41,0,0,0,1.5,1.81,8.06,8.06,0,0,0,2,1.14,19.92,19.92,0,0,1,2.79,1.31A26.69,26.69,0,0,1,71,154.54l0.15,0.11a10.06,10.06,0,0,0,2.33,1.29,9.56,9.56,0,0,0,2.7.38,49.74,49.74,0,0,0,5.59-.95,52.13,52.13,0,0,0,6-1.62,72.58,72.58,0,0,0,6.66-3.55,70.35,70.35,0,0,0,6.43-4.18c0.92-.77,2.49-2.22,3.48-3.25a10.65,10.65,0,0,1,3.4-2.49,2.24,2.24,0,0,1,2.73,1.58,20.74,20.74,0,0,1,.56,2.37,9.54,9.54,0,0,1,.1,2,4.94,4.94,0,0,1-.68,1.93,9,9,0,0,1-1.53,1.71,3.66,3.66,0,0,0-.46.48,31.93,31.93,0,0,0,3.19.8c0.36,0.07.8,0.15,1.28,0.23C114.53,151.59,116.56,151.8,118,151.87Z" fill="#231f20"/><path d="M76.52,67.46a4.15,4.15,0,0,0-1.68,1.81,1.56,1.56,0,0,0,1.31,1.14,12.77,12.77,0,0,0,2.82.42,31.62,31.62,0,0,0,5.65-1.18,30.56,30.56,0,0,1,5.68-1.17,11.63,11.63,0,0,1,2.88.52,4.53,4.53,0,0,0,2.28.21,1.87,1.87,0,0,0,1-1.31,4.6,4.6,0,0,1,.82-1.75A4.75,4.75,0,0,1,98.95,65a15.5,15.5,0,0,0,1.86-.89c0.19-.11.42-0.26,0.65-0.42s0.67-.48.9-0.68a4.09,4.09,0,0,1-1-.6,5.7,5.7,0,0,1-1.26-1.67,5.89,5.89,0,0,1-.4-2.08,6.48,6.48,0,0,0-.32-2,4.57,4.57,0,0,0-1-1.5A9.55,9.55,0,0,1,97,53.67a15.85,15.85,0,0,1-1.12-2.08A1.55,1.55,0,0,0,95,50.52a2.56,2.56,0,0,0-.56,1.53,11.06,11.06,0,0,1-.65,2.43,5.53,5.53,0,0,1-1.15,1.62,12.36,12.36,0,0,1-1.56,1.11,15.5,15.5,0,0,1-1.86.89,4.75,4.75,0,0,0-1.62,1.1,4.6,4.6,0,0,0-.82,1.75,1.87,1.87,0,0,1-1,1.31A4.53,4.53,0,0,1,83.47,62a11.86,11.86,0,0,0-2.11-.45l-0.11.24c-0.1.22-.22,0.46-0.36,0.71A16,16,0,0,1,79.29,65,16.09,16.09,0,0,1,76.52,67.46Z" fill="#231f20"/><path d="M114.77,48.22a24.72,24.72,0,0,0,1.31,3.7,38.44,38.44,0,0,0,4,5.52,38.5,38.5,0,0,1,3.24,4.16c0,0.2-.38.2-0.89,0a15.18,15.18,0,0,0-2.11-.56c-0.65-.12-1.82-0.26-2.6-0.3a18.78,18.78,0,0,0-2.85.09c-0.78.1-3.43,0.74-5.87,1.43l-0.68.18a5.1,5.1,0,0,1,.59.88,2.9,2.9,0,0,1,.14.29,6.48,6.48,0,0,1,.32,2,5.89,5.89,0,0,0,.4,2.08A5.7,5.7,0,0,0,111,69.4a4.68,4.68,0,0,0,2,.9,24.12,24.12,0,0,0,5.64-1.08c2.45-.69,5.09-1.33,5.87-1.43a18.78,18.78,0,0,1,2.85-.09c0.78,0,2,.18,2.6.3a15.18,15.18,0,0,1,2.11.56c0.51,0.19.91,0.19,0.89,0a38.5,38.5,0,0,0-3.24-4.16,38.44,38.44,0,0,1-4-5.52,24.72,24.72,0,0,1-1.31-3.7,9.71,9.71,0,0,0-1.64-3.31,13,13,0,0,0-4.5-2.5c-0.81-.28-1.67-0.56-2.44-0.81l-1.13-.34v0Z" fill="#231f20"/><path d="M147.89,150.39a10.64,10.64,0,0,1-.95-3.37,9.79,9.79,0,0,1,.51-3.36,15.92,15.92,0,0,0,.78-3.36,36.25,36.25,0,0,0-.86-6.73,33.7,33.7,0,0,1-.82-6.73,13.78,13.78,0,0,1,.94-3.36,18.61,18.61,0,0,0,1.08-3.36,16.23,16.23,0,0,0,.22-3.36,29.26,29.26,0,0,0-.44-3.36,31.75,31.75,0,0,0-.93-3.36,30.74,30.74,0,0,1-.92-3.36,28.28,28.28,0,0,1-.42-3.36,13.93,13.93,0,0,1,.33-3.36,17.07,17.07,0,0,1,1.33-3.36,11.33,11.33,0,0,0,1.12-3.36,17.53,17.53,0,0,0-.63-4.89,42.67,42.67,0,0,1-1-4.59,4.12,4.12,0,0,0-1.08-2.26,6.77,6.77,0,0,0-2.69-1.26,19.66,19.66,0,0,0-3.63-.35l-0.68,0-1,.09c0.11,0.47.23,0.95,0.34,1.4a17.53,17.53,0,0,1,.63,4.89A11.33,11.33,0,0,1,138,89.64,17.07,17.07,0,0,0,136.7,93a13.93,13.93,0,0,0-.33,3.36,28.28,28.28,0,0,0,.42,3.36,30.74,30.74,0,0,0,.92,3.36,31.75,31.75,0,0,1,.93,3.36,29.26,29.26,0,0,1,.44,3.36,16.23,16.23,0,0,1-.22,3.36,18.61,18.61,0,0,1-1.08,3.36,13.78,13.78,0,0,0-.94,3.36,33.7,33.7,0,0,0,.82,6.73,36.25,36.25,0,0,1,.86,6.73,15.92,15.92,0,0,1-.78,3.36,9.79,9.79,0,0,0-.51,3.36,10.64,10.64,0,0,0,.95,3.37,12.44,12.44,0,0,1,1,3.34,10.36,10.36,0,0,1-.24,3.28,4.06,4.06,0,0,1-1.56,2.24,5,5,0,0,1-2.94.22,22.54,22.54,0,0,0-3.65-.43,23.14,23.14,0,0,0-3.69.29c-1,.18-2.69.4-3.72,0.49-0.71.06-2.12,0.07-3.58,0,0,0,0,.09,0,0.13a3.44,3.44,0,0,1-.24.87,3.8,3.8,0,0,1-.3.61A8.09,8.09,0,0,1,118,156a3.11,3.11,0,0,0-1,1.27,0.91,0.91,0,0,0,.59.84,29.2,29.2,0,0,0,3.55.91,50.14,50.14,0,0,0,6.5.77c2,0.09,4.47.1,5.49,0s2.69-.31,3.72-0.49a23.14,23.14,0,0,1,3.69-.29,22.54,22.54,0,0,1,3.65.43,5,5,0,0,0,2.94-.22A4.06,4.06,0,0,0,148.7,157a10.36,10.36,0,0,0,.24-3.28A12.44,12.44,0,0,0,147.89,150.39Z" fill="#231f20"/><path d="M82.21,83.72a26.11,26.11,0,0,0,.51,5.45,27.24,27.24,0,0,1,.53,5.45,14.06,14.06,0,0,1-.73,2.72,11.83,11.83,0,0,0-.67,2.72,10.9,10.9,0,0,0,.16,2.72,13,13,0,0,1,.23,2.72,13.42,13.42,0,0,1-.48,2.72A16.73,16.73,0,0,0,81.2,111a15.81,15.81,0,0,0,0,2.72,16.83,16.83,0,0,0,.66,2.86,26.45,26.45,0,0,0,1.36,3.13,20.18,20.18,0,0,1,1.28,3.12,12.25,12.25,0,0,1,.42,2.82,6.36,6.36,0,0,0,.48,2.33,5,5,0,0,0,1.45,1.65A15.75,15.75,0,0,0,89,130.75a19.83,19.83,0,0,0,2.46.84,14.59,14.59,0,0,0,2.79.37h0.39c0-.31-0.07-0.66-0.13-1a11.2,11.2,0,0,0-.26-1.22A20.18,20.18,0,0,0,93,126.62a26.45,26.45,0,0,1-1.36-3.13,16.83,16.83,0,0,1-.66-2.86,15.81,15.81,0,0,1,0-2.72,16.73,16.73,0,0,1,.54-2.72,13.42,13.42,0,0,0,.48-2.72,13,13,0,0,0-.23-2.72,10.9,10.9,0,0,1-.16-2.72,11.83,11.83,0,0,1,.67-2.72,14.06,14.06,0,0,0,.73-2.72,27.24,27.24,0,0,0-.53-5.45,26.11,26.11,0,0,1-.51-5.45,10.31,10.31,0,0,1,.93-2.72,8.19,8.19,0,0,0,.82-2.71,7.26,7.26,0,0,0-.44-2.68,3.38,3.38,0,0,0-1.79-1.75,7.12,7.12,0,0,0-3.24.09,15.91,15.91,0,0,1-4,.4H84.11c-0.31,0-.66-0.06-1-0.13A10.3,10.3,0,0,0,82.21,83.72Z" fill="#231f20"/><path d="M111.44,152.1a29.2,29.2,0,0,1-3.55-.91,0.91,0.91,0,0,1-.59-0.84,3.11,3.11,0,0,1,1-1.27,8.09,8.09,0,0,0,1.34-1.48,4,4,0,0,0,.53-1.48,8.71,8.71,0,0,0-.09-1.73,20.1,20.1,0,0,0-.53-2.23,1.25,1.25,0,0,0-1.49-.91,10.07,10.07,0,0,0-3,2.23c-1,1-2.62,2.54-3.56,3.32a69.83,69.83,0,0,1-6.56,4.27,72.49,72.49,0,0,1-6.8,3.62A52.67,52.67,0,0,1,82,156.34a50.35,50.35,0,0,1-5.76,1,10,10,0,0,1-3.06-.43,11,11,0,0,1-2.61-1.44c0.08,0.12.17,0.25,0.24,0.36a9.61,9.61,0,0,0,1.38,1.75c0.12,0.12.23,0.23,0.34,0.32a9,9,0,0,0,2.32,1.32,19,19,0,0,1,2.63,1.23,25.74,25.74,0,0,1,2.64,1.83,11,11,0,0,0,2.78,1.57,10,10,0,0,0,3.06.43,50.35,50.35,0,0,0,5.76-1,52.67,52.67,0,0,0,6.11-1.67,72.49,72.49,0,0,0,6.8-3.62,69.83,69.83,0,0,0,6.56-4.27l0.63-.54,0.95-.86C112.28,152.26,111.82,152.17,111.44,152.1Z" fill="#231f20"/></svg>