<svg xmlns="http://www.w3.org/2000/svg" width="97.16" height="200" viewBox="0 0 97.16 200"><title>_</title><path d="M61.09 50.41a8.37 8.37 0 0 0-1.31-2.64 12.43 12.43 0 0 0-3.85-2.06C54 45 52 44.43 51.4 44.3s-1.92-.33-2.68-.4-2.07-.15-2.92-.16-2.21.06-3 .14-2.18.29-3 .46a18 18 0 0 1-3.47.33 18.36 18.36 0 0 1-3.45-.46 3.45 3.45 0 0 0-1.77.11 5 5 0 0 0-1.53 1.6 30.18 30.18 0 0 1-2.22 3.19 30.67 30.67 0 0 1-2.7 2.82 19.22 19.22 0 0 0-2.25 2.49 20.23 20.23 0 0 0-1.7 3 17.45 17.45 0 0 1-2.18 3.5 17.54 17.54 0 0 1-3.08 2.75A5.2 5.2 0 0 0 15 64a11.62 11.62 0 0 0 2.09.28 32.21 32.21 0 0 0 5.23-1.13 29.57 29.57 0 0 1 6.13-1.23c.26 0 .58 0 .92.08a13.35 13.35 0 0 1 2.4.52 4.49 4.49 0 0 0 1.28.21.56.56 0 0 0 .1-.19 6 6 0 0 1 1.15-2.42 6.21 6.21 0 0 1 2.22-1.52 14 14 0 0 0 1.64-.78 11 11 0 0 0 1.33-.95 4.21 4.21 0 0 0 .77-1.1 9.78 9.78 0 0 0 .54-2c.22-1.56.75-2.48 1.58-2.75 1-.34 2 .37 2.71 1.9a14.59 14.59 0 0 0 1 1.85 8.12 8.12 0 0 0 1 1.23 6.06 6.06 0 0 1 1.45 2 7.87 7.87 0 0 1 .46 2.61 4.47 4.47 0 0 0 .27 1.45 4.28 4.28 0 0 0 .87 1.14 2.81 2.81 0 0 0 .64.35 2.89 2.89 0 0 0 .63.2 23 23 0 0 0 4.37-.86l.67-.18c2.23-.63 5.12-1.35 6.08-1.47a19.88 19.88 0 0 1 3.12-.1c.57 0 1.34.11 2 .2l-.87-1a39.28 39.28 0 0 1-4.22-5.85 26.65 26.65 0 0 1-1.41-3.95l.46-.22zM65.81 153.25l1.87.06h3.42c1-.08 2.59-.29 3.58-.47a24.73 24.73 0 0 1 4-.32 24.35 24.35 0 0 1 3.94.47 3.88 3.88 0 0 0 1.9-.07 2.85 2.85 0 0 0 .83-1.32 9 9 0 0 0 .19-2.71 11 11 0 0 0-.89-2.86 12 12 0 0 1-1.1-3.94 11.14 11.14 0 0 1 .6-4 14.55 14.55 0 0 0 .69-3 36.25 36.25 0 0 0-.84-6.29 34.72 34.72 0 0 1-.84-7.19 15.3 15.3 0 0 1 1.07-3.8 17.29 17.29 0 0 0 1-3 14.81 14.81 0 0 0 .2-3 27.89 27.89 0 0 0-.42-3.16 30 30 0 0 0-.87-3.17 32.41 32.41 0 0 1-1-3.56 29.56 29.56 0 0 1-.45-3.58 15.45 15.45 0 0 1 .31-3.82 18.61 18.61 0 0 1 1.47-3.72 10 10 0 0 0 .99-2.8 16.57 16.57 0 0 0-.59-4.34c-.12-.47-.24-1-.35-1.44a34 34 0 0 1-.65-3.38 2.67 2.67 0 0 0-.61-1.31 5.44 5.44 0 0 0-2-.89 16.58 16.58 0 0 0-3.26-.35 22.69 22.69 0 0 0-3.6.41 16.51 16.51 0 0 1-4.48.22 18.16 18.16 0 0 1-4.44-1.23 12.74 12.74 0 0 0-3.48-.88 10.62 10.62 0 0 0-3.27.42A3.56 3.56 0 0 0 57 76.57a6 6 0 0 0-.13 2.88 23.64 23.64 0 0 1 .33 5.1 26.14 26.14 0 0 1-1 5.16 23.65 23.65 0 0 0-.88 4.5 80.27 80.27 0 0 0 .69 9.42 57.12 57.12 0 0 1 .52 9.9 24.46 24.46 0 0 1-1.25 4.59 21.93 21.93 0 0 0-1.07 3.62 15.88 15.88 0 0 0-.17 3.29 10.88 10.88 0 0 1-.4 3.81 8.89 8.89 0 0 1-2 3.1 13.52 13.52 0 0 1-2.86 2 14.82 14.82 0 0 1-3.41 1.09 22.23 22.23 0 0 1-2.94.27h-.32a16.19 16.19 0 0 1-3.23-.41 21.11 21.11 0 0 1-2.68-.89 17.2 17.2 0 0 1-2.35-1.29 6.46 6.46 0 0 1-2-2.24 7.72 7.72 0 0 1-.63-3 11 11 0 0 0-.36-2.4 18.68 18.68 0 0 0-1.17-2.83 28.34 28.34 0 0 1-1.46-3.34 18.55 18.55 0 0 1-.73-3.17 17.24 17.24 0 0 1 0-3 18.08 18.08 0 0 1 .6-3 12 12 0 0 0 .41-2.35 11.67 11.67 0 0 0-.19-2.35 12.46 12.46 0 0 1-.19-3.17 13.33 13.33 0 0 1 .78-3.14 12.66 12.66 0 0 0 .64-2.37 27.29 27.29 0 0 0-.52-5 27.24 27.24 0 0 1-.51-5.93 11.71 11.71 0 0 1 1-3l.07-.15a6.84 6.84 0 0 0 .66-2.14 5.77 5.77 0 0 0-.33-2 2 2 0 0 0-.86-.88 5.88 5.88 0 0 0-2.4.12 17.15 17.15 0 0 1-4.43.44 18.3 18.3 0 0 1-4.42-.92 16.33 16.33 0 0 0-3.59-.89 15.2 15.2 0 0 0-3.57.3 22 22 0 0 1-4.46.47 25.55 25.55 0 0 1-4.61-.59 5.09 5.09 0 0 0-1.58-.1 2.12 2.12 0 0 0 .09.77 21.1 21.1 0 0 1 .71 3.76 16.41 16.41 0 0 1-.19 3.58 13.24 13.24 0 0 0-.15 2.69A13.9 13.9 0 0 0 1 89.59a12.88 12.88 0 0 1 .55 3.56A35.75 35.75 0 0 1 0 99.71a34.47 34.47 0 0 0-1.39 5.71 36.79 36.79 0 0 0 1.13 5.74 36.65 36.65 0 0 1 1.21 6.55 14.63 14.63 0 0 1-.6 3.5 10.44 10.44 0 0 0-.4 2.79 14.44 14.44 0 0 0 .54 3.14 25.72 25.72 0 0 1 .83 4.05 26.32 26.32 0 0 1 0 4.17 27 27 0 0 0 0 3.49 19.2 19.2 0 0 0 .5 3 6.72 6.72 0 0 0 1.11 2.09A8 8 0 0 0 5 145.42a15.94 15.94 0 0 1 3 2 11.85 11.85 0 0 1 2.2 2.58 7.94 7.94 0 0 0 1.38 1.68 7.59 7.59 0 0 0 1.86 1 20.4 20.4 0 0 1 2.88 1.35 27.22 27.22 0 0 1 2.83 2l.13.09a9.66 9.66 0 0 0 2.2 1.22 9 9 0 0 0 2.53.35 50.64 50.64 0 0 0 5.5-.94 51.74 51.74 0 0 0 5.88-1.6 72.18 72.18 0 0 0 6.61-3.51 69.86 69.86 0 0 0 6.36-4.13c.91-.76 2.46-2.2 3.44-3.21a11 11 0 0 1 3.62-2.62 2.74 2.74 0 0 1 3.35 1.91 21.53 21.53 0 0 1 .58 2.43 9.91 9.91 0 0 1 .1 2.1 5.4 5.4 0 0 1-.76 2.15A9.24 9.24 0 0 1 57.2 152c.58.16 1.4.35 2.35.55.35.07.78.15 1.26.22 1.59.25 3.6.46 5 .52z"/><path d="M43.26 71.08a1.87 1.87 0 0 0 1-1.31 4.6 4.6 0 0 1 .87-1.77 4.76 4.76 0 0 1 1.62-1.1 15.5 15.5 0 0 0 1.86-.9 13.292 13.292 0 0 0 1.55-1.1 4.09 4.09 0 0 1-1-.6 5.71 5.71 0 0 1-1.26-1.67 5.89 5.89 0 0 1-.4-2.08 6.48 6.48 0 0 0-.32-2 4.57 4.57 0 0 0-1-1.5 9.55 9.55 0 0 1-1.3-1.52 15.85 15.85 0 0 1-1.12-2.08 1.55 1.55 0 0 0-.87-1.07 2.56 2.56 0 0 0-.56 1.53 11.05 11.05 0 0 1-.65 2.43A5.52 5.52 0 0 1 40.45 58a12.38 12.38 0 0 1-1.56 1.11A15.5 15.5 0 0 1 37 60a4.76 4.76 0 0 0-1.62 1.1 4.6 4.6 0 0 0-.82 1.75 1.87 1.87 0 0 1-1 1.31 4.54 4.54 0 0 1-2.28-.21 11.84 11.84 0 0 0-2.11-.45l-.17.21c-.1.22-.22.46-.36.71a16 16 0 0 1-1.6 2.44 16.1 16.1 0 0 1-2.77 2.48 4.15 4.15 0 0 0-1.68 1.81A1.56 1.56 0 0 0 24 72.28a12.79 12.79 0 0 0 2.82.42 31.6 31.6 0 0 0 5.65-1.19 30.55 30.55 0 0 1 5.68-1.17 11.62 11.62 0 0 1 2.88.52 4.54 4.54 0 0 0 2.23.22zM70.24 63.5a15.15 15.15 0 0 0-2.11-.56c-.65-.12-1.82-.26-2.6-.3a18.78 18.78 0 0 0-2.85.09c-.78.1-3.43.74-5.87 1.43l-.68.18a5.09 5.09 0 0 1 .59.88 2.87 2.87 0 0 1 .14.29 6.48 6.48 0 0 1 .32 2 5.89 5.89 0 0 0 .4 2.08 5.71 5.71 0 0 0 1.26 1.67 4.68 4.68 0 0 0 2 .9 24.12 24.12 0 0 0 5.64-1.08c2.45-.69 5.09-1.33 5.87-1.43a18.78 18.78 0 0 1 2.85-.09c.78 0 2 .18 2.6.3a15.15 15.15 0 0 1 2.11.56c.51.19.91.19.89 0a38.47 38.47 0 0 0-3.24-4.16 38.46 38.46 0 0 1-4-5.52A24.72 24.72 0 0 1 72.27 57a9.71 9.71 0 0 0-1.64-3.31 13 13 0 0 0-4.5-2.5c-.81-.28-1.67-.56-2.44-.81l-1.13-.34a24.72 24.72 0 0 0 1.31 3.7 38.46 38.46 0 0 0 4 5.52 38.47 38.47 0 0 1 3.24 4.16c.04.26-.36.27-.87.08zM95.69 152.27a10.65 10.65 0 0 1-.95-3.37 9.79 9.79 0 0 1 .51-3.36 15.92 15.92 0 0 0 .78-3.36 36.24 36.24 0 0 0-.86-6.73 33.7 33.7 0 0 1-.82-6.73 13.78 13.78 0 0 1 .94-3.36 18.61 18.61 0 0 0 1.08-3.36 16.23 16.23 0 0 0 .22-3.36 29.26 29.26 0 0 0-.44-3.36 31.75 31.75 0 0 0-.93-3.36 30.73 30.73 0 0 1-.92-3.36 28.27 28.27 0 0 1-.42-3.36 13.93 13.93 0 0 1 .33-3.36 17.07 17.07 0 0 1 1.33-3.36 11.33 11.33 0 0 0 1.12-3.36A17.53 17.53 0 0 0 96 90.2a42.69 42.69 0 0 1-1-4.59 4.11 4.11 0 0 0-1-2.26 6.77 6.77 0 0 0-2.69-1.26 19.63 19.63 0 0 0-3.63-.35H87l-1 .09c.11.47.23.95.34 1.4a17.53 17.53 0 0 1 .63 4.89 11.33 11.33 0 0 1-1.12 3.36 17.07 17.07 0 0 0-1.33 3.36 13.93 13.93 0 0 0-.33 3.36 28.27 28.27 0 0 0 .42 3.36 30.73 30.73 0 0 0 .92 3.36 31.75 31.75 0 0 1 .93 3.36 29.26 29.26 0 0 1 .44 3.36 16.23 16.23 0 0 1-.22 3.36 18.61 18.61 0 0 1-1.08 3.36 13.78 13.78 0 0 0-.94 3.36 33.7 33.7 0 0 0 .82 6.73 36.24 36.24 0 0 1 .86 6.73 15.92 15.92 0 0 1-.78 3.36A9.79 9.79 0 0 0 85 142a10.65 10.65 0 0 0 .95 3.37 12.43 12.43 0 0 1 1 3.34 10.36 10.36 0 0 1-.24 3.28 4.06 4.06 0 0 1-1.56 2.24 5 5 0 0 1-2.94.22 22.51 22.51 0 0 0-3.65-.43 23.08 23.08 0 0 0-3.69.29c-1 .18-2.69.4-3.72.49-.71.06-2.12.07-3.58 0v.13a3.44 3.44 0 0 1-.24.87 3.81 3.81 0 0 1-.3.61 8.09 8.09 0 0 1-1.34 1.48 3.11 3.11 0 0 0-1 1.27.91.91 0 0 0 .59.84 29.19 29.19 0 0 0 3.55.91 50.14 50.14 0 0 0 6.5.77c2 .09 4.47.1 5.49 0s2.69-.31 3.72-.49a23.08 23.08 0 0 1 3.69-.29 22.51 22.51 0 0 1 3.65.43 5 5 0 0 0 2.94-.22 4.06 4.06 0 0 0 1.56-2.24 10.36 10.36 0 0 0 .24-3.28 12.43 12.43 0 0 0-.93-3.32zM29.54 110.11a16.73 16.73 0 0 0-.54 2.72 15.81 15.81 0 0 0 0 2.72 16.83 16.83 0 0 0 .66 2.86 26.47 26.47 0 0 0 1.36 3.13 20.17 20.17 0 0 1 1.28 3.12 12.25 12.25 0 0 1 .42 2.82 6.36 6.36 0 0 0 .48 2.33 5 5 0 0 0 1.45 1.65 15.75 15.75 0 0 0 2.11 1.16 19.87 19.87 0 0 0 2.46.84 14.59 14.59 0 0 0 2.79.37h.39c0-.31-.07-.66-.13-1a11.2 11.2 0 0 0-.26-1.22 20.17 20.17 0 0 0-1.28-3.12 26.47 26.47 0 0 1-1.36-3.13 16.83 16.83 0 0 1-.66-2.86 15.81 15.81 0 0 1 0-2.72 16.73 16.73 0 0 1 .54-2.72 13.43 13.43 0 0 0 .48-2.72 13 13 0 0 0-.23-2.72 10.9 10.9 0 0 1-.16-2.72 11.83 11.83 0 0 1 .67-2.72 14.06 14.06 0 0 0 .73-2.72 27.25 27.25 0 0 0-.51-5.46 26.11 26.11 0 0 1-.51-5.45 10.31 10.31 0 0 1 .93-2.72 8.19 8.19 0 0 0 .82-2.71 7.27 7.27 0 0 0-.47-2.7 3.38 3.38 0 0 0-1.79-1.75 7.12 7.12 0 0 0-3.24.09 15.91 15.91 0 0 1-4 .4h-.06c-.31 0-.66-.06-1-.13A10.29 10.29 0 0 0 30 85.6a26.11 26.11 0 0 0 .52 5.4 27.25 27.25 0 0 1 .48 5.49 14.06 14.06 0 0 1-.73 2.72 11.83 11.83 0 0 0-.67 2.72 10.9 10.9 0 0 0 .16 2.72 13 13 0 0 1 .23 2.72 13.43 13.43 0 0 1-.45 2.74zM55.69 153.06a.91.91 0 0 1-.59-.84 3.11 3.11 0 0 1 1-1.27 8.09 8.09 0 0 0 1.34-1.48 4 4 0 0 0 .53-1.48 8.71 8.71 0 0 0-.09-1.73 20.1 20.1 0 0 0-.53-2.23 1.25 1.25 0 0 0-1.49-.91 10.07 10.07 0 0 0-3 2.23c-1 1-2.62 2.54-3.56 3.32a69.83 69.83 0 0 1-6.56 4.27 72.41 72.41 0 0 1-6.8 3.62 52.66 52.66 0 0 1-6.11 1.67 50.46 50.46 0 0 1-5.76 1 10 10 0 0 1-3.06-.43 11.05 11.05 0 0 1-2.61-1.44c.08.12.17.25.24.36a9.62 9.62 0 0 0 1.36 1.71c.12.12.23.23.34.32a9 9 0 0 0 2.32 1.32 19 19 0 0 1 2.63 1.23 25.7 25.7 0 0 1 2.64 1.83 11.06 11.06 0 0 0 2.78 1.57 10 10 0 0 0 3.06.43 50.46 50.46 0 0 0 5.76-1 52.66 52.66 0 0 0 6.11-1.67 72.41 72.41 0 0 0 6.8-3.62 69.83 69.83 0 0 0 6.56-4.23l.63-.54.95-.86c-.5-.08-1-.16-1.34-.24a29.19 29.19 0 0 1-3.55-.91z"/></svg>