<svg xmlns="http://www.w3.org/2000/svg" width="95.69" height="200" viewBox="0 0 95.69 200"><title>_</title><path d="M67.61 155.48c1 .09 2.65.13 3.57.13s4.35-.3 7.39-.62a21.16 21.16 0 0 0 5.79-1.21 3.64 3.64 0 0 0 .35-1.54 33.15 33.15 0 0 1 .12-3.68 32.36 32.36 0 0 1 .61-3.6c.21-.87.58-3.11.81-4.88a33.13 33.13 0 0 0 .31-4.74 23.93 23.93 0 0 0-.49-3.12 26.07 26.07 0 0 1-.55-3.61 25.27 25.27 0 0 1 .07-3.62c.08-.78.17-5 .18-9.93 0-4.14.11-9.16.29-10.32a9.67 9.67 0 0 0-.08-2.81A12.31 12.31 0 0 0 84.81 99a11.12 11.12 0 0 1-1.35-4 10 10 0 0 1 .63-4 9 9 0 0 0 .55-2.78 9.22 9.22 0 0 0-.64-2.84 11.37 11.37 0 0 1-.79-4.13 14.94 14.94 0 0 1 1-4.5 3.64 3.64 0 0 0 .27-1.16 61.48 61.48 0 0 0-9.35.24l-1 .09a135.77 135.77 0 0 1-14.26.58 9.35 9.35 0 0 0-4.15.48 6 6 0 0 0-1 2.7c-.17 1.28-.27 6.76-.21 12s.38 11.77.72 14.39a51.19 51.19 0 0 1 .5 7.36 20.7 20.7 0 0 1-.92 4.62 26 26 0 0 0-.93 3.62 18.4 18.4 0 0 0-.17 3.26 10.57 10.57 0 0 1-.47 3.68 8.21 8.21 0 0 1-2 2.93 24 24 0 0 1-2.6 2 30.56 30.56 0 0 1-3 1.65 11.83 11.83 0 0 1-1.78.62 10 10 0 0 1-1.73.33 9.69 9.69 0 0 1-3.42-.46 11.24 11.24 0 0 1-2.75-1.5 8.77 8.77 0 0 1-1.96-2.34c-.35-.63-.84-1.65-1.09-2.28a21.51 21.51 0 0 1-.76-2.32c-.12-.47-.7-2.17-1.34-3.85a23 23 0 0 1-1.33-4.86 10.48 10.48 0 0 1 .37-3.41 7.41 7.41 0 0 0 .27-2.17 8.12 8.12 0 0 0-.59-2.21 10 10 0 0 1-.79-3.3 9.63 9.63 0 0 1 .61-3.32 15.74 15.74 0 0 0 .71-2.44c.09-.52.29-5 .38-11.12v-2.24c0-2.64.06-5.31.06-7.54s0-3.67-.08-4.08a2.5 2.5 0 0 0-.74-1.46 29.52 29.52 0 0 0-6.77.05c-3.59.34-10.21.59-14.75.58h-.33a44.65 44.65 0 0 0-8.1.52 2.46 2.46 0 0 0-.4 1.17 25.31 25.31 0 0 0 .15 3c.1.82.67 3.59 1.23 6.05.45 2 1 5.36.85 6.7a27.47 27.47 0 0 1-1.61 5c-.67 1.62-1.42 3.63-1.62 4.41a6 6 0 0 0 0 2.34 9 9 0 0 0 1.24 2.53 7.46 7.46 0 0 1 1.41 4 7.57 7.57 0 0 1-1.48 4 4.78 4.78 0 0 0-.86 2.17 4.74 4.74 0 0 0 .85 2.17 9.23 9.23 0 0 1 1.62 4 10.59 10.59 0 0 1-.74 4.41 13.06 13.06 0 0 0-.81 3.37 29.58 29.58 0 0 0 1.36 6.45c.82 2.7 1.79 5.63 2.11 6.39s.94 2 1.35 2.75a5.53 5.53 0 0 0 1.52 1.62 6.4 6.4 0 0 0 2.35.64 13.16 13.16 0 0 1 3.49.71h.11a9.3 9.3 0 0 1 2.83 1.93 12.94 12.94 0 0 0 1.87 1.56 40.15 40.15 0 0 0 5.27 2.14 20.72 20.72 0 0 0 5.65 1.28 75.31 75.31 0 0 0 9.25-2.9c4.5-1.63 8.47-3.23 9.22-3.64a31.36 31.36 0 0 0 3.06-2.05c.86-.66 2.47-2.07 3.59-3.15 1.88-1.81 2.58-2.49 3.66-1.47a1.53 1.53 0 0 1 0 2.17 1.57 1.57 0 0 0-.25.51 2.35 2.35 0 0 0 .21.51 6.57 6.57 0 0 1 .88 2 5.35 5.35 0 0 1 0 2.16 2.34 2.34 0 0 0-.05.5c.21.14 1.34.72 2.91 1.45.55.26 1.17.52 1.78.77a24.51 24.51 0 0 0 2.47.87c.4.1.93.21 1.47.31.75.12 1.45.22 1.94.26zM36.18 49.22a18 18 0 0 0 0-4.62 5.85 5.85 0 0 0-1.61-.83 12.34 12.34 0 0 0-2.88-.46 11.84 11.84 0 0 0-2.83.42 21.16 21.16 0 0 1-3.55.71 20.24 20.24 0 0 1-3.57 0 12.77 12.77 0 0 0-2.72 0 10.81 10.81 0 0 0-2.41.73 13.34 13.34 0 0 0-2 1.21 7.36 7.36 0 0 0-1.25 1.3 9.06 9.06 0 0 0-.8 1.61 12.11 12.11 0 0 0-.46 2 18.71 18.71 0 0 0-.12 2.28c0 .54.27 2.69.62 4.92a12.36 12.36 0 0 0 .83 3 4.68 4.68 0 0 0 1.31-.29 14.59 14.59 0 0 1 3.79-.84h.45a13.62 13.62 0 0 1 1.51.09 12.23 12.23 0 0 1 1.83.34c.74.21 4.26.81 8.32 1.37a41.44 41.44 0 0 0 6.21.48 2.13 2.13 0 0 0-.09-.46 30.93 30.93 0 0 1-.8-3.17 20.77 20.77 0 0 1-.3-2.91c0-.87.27-4 .53-6.51zM48.42 62.49a4.61 4.61 0 0 0 1.17-.19 36.13 36.13 0 0 1 3.8-.9 27.93 27.93 0 0 1 3.6-.33h.2c1.2 0 4.69.25 8.13.54a34.8 34.8 0 0 0 7 .09 3.18 3.18 0 0 0 .8-1.05 7.2 7.2 0 0 0 .43-2 6.57 6.57 0 0 0-.37-2 14 14 0 0 1-.73-2.86 12.64 12.64 0 0 1 0-2.9 8.12 8.12 0 0 0 0-1.65v-.21A5.26 5.26 0 0 0 72 47.6a6.53 6.53 0 0 0-1.15-1.29 13.18 13.18 0 0 0-2-1.26 17.8 17.8 0 0 0-2.57-1 20.13 20.13 0 0 0-2.86-.52 30 30 0 0 0-3.08-.13c-.84 0-3.79.29-6.45.6a25.16 25.16 0 0 0-4.36.83 1.64 1.64 0 0 0 .13.42 10.11 10.11 0 0 1 .85 3.15 9.05 9.05 0 0 1-.51 3.18c-.23.64-.55 1.73-.71 2.37-.08.34-.24 1.31-.42 2.54-.13.86-.26 1.83-.37 2.78a16.4 16.4 0 0 0-.12 2.64c.01.24.02.43.04.58z"/><path d="M97.24 138.81a24.43 24.43 0 0 1-.51-3.36 23.61 23.61 0 0 1 .07-3.36c.1-.92.18-5.46.19-10.09s.13-9.16.28-10.09a11 11 0 0 0-.1-3.36 13.71 13.71 0 0 0-1.35-3.36 9.73 9.73 0 0 1-1.15-3.36 8.59 8.59 0 0 1 .53-3.36 10.39 10.39 0 0 0 .66-3.36 10.55 10.55 0 0 0-.75-3.36 9.91 9.91 0 0 1-.67-3.55 13.6 13.6 0 0 1 .9-3.92c.46-1.13.51-2.45.1-2.94s-4.65-.51-9.71-.13l-1 .08a9.93 9.93 0 0 0 .67 3.5 10.55 10.55 0 0 1 .75 3.36 10.39 10.39 0 0 1-.66 3.36 8.59 8.59 0 0 0-.49 3.37 9.73 9.73 0 0 0 1.15 3.36 13.71 13.71 0 0 1 1.35 3.36 11 11 0 0 1 .1 3.36c-.15.92-.27 5.46-.28 10.09s-.09 9.16-.19 10.09a23.61 23.61 0 0 0-.13 3.36 24.43 24.43 0 0 0 .51 3.36 25.48 25.48 0 0 1 .53 3.36 33.43 33.43 0 0 1-.31 5c-.24 1.85-.62 4.12-.84 5a30.58 30.58 0 0 0-.58 3.4 31.39 31.39 0 0 0-.11 3.48 4.3 4.3 0 0 1-.87 2.73c-.51.53-3.49 1.24-6.61 1.57s-6.51.61-7.53.63-2.69 0-3.72-.13c-.57 0-1.32-.16-2-.29a4.25 4.25 0 0 1 0 1v.2a3.25 3.25 0 0 0-.06 1.27 1.64 1.64 0 0 0 .56.83c.24.17 1.67.88 3.18 1.58a33.62 33.62 0 0 0 4.52 1.73 27.17 27.17 0 0 0 3.63.62c1 .09 2.69.15 3.72.13s4.41-.3 7.53-.62 6.09-1 6.61-1.57a4.3 4.3 0 0 0 .87-2.73 31.39 31.39 0 0 1 .11-3.48 30.58 30.58 0 0 1 .58-3.4c.22-.92.6-3.19.84-5a33.43 33.43 0 0 0 .31-5 25.48 25.48 0 0 0-.63-3.36zM30.92 118.41a21.92 21.92 0 0 0 1.24 4.44c.62 1.62 1.25 3.43 1.39 4a20 20 0 0 0 .7 2.12 23.24 23.24 0 0 0 1 2.12 7.39 7.39 0 0 0 1.56 1.83 9.82 9.82 0 0 0 2.32 1.26 8.09 8.09 0 0 0 2.8.38 8.49 8.49 0 0 0 1.45-.28c-.05-.18-.1-.34-.14-.48s-.08-.28-.14-.48c-.25-.81-.75-2.23-1.25-3.54a21.92 21.92 0 0 1-1.24-4.44 9.06 9.06 0 0 1 .31-2.85 8.84 8.84 0 0 0 .33-2.72 9.55 9.55 0 0 0-.72-2.72 8.49 8.49 0 0 1-.66-2.72 8.2 8.2 0 0 1 .5-2.72 17.25 17.25 0 0 0 .79-2.72c.14-.75.32-5.86.41-11.36v-2.24c.09-5.5.08-10.81 0-11.8a3.86 3.86 0 0 0-1.44-2.58c-.65-.41-3.82-.49-7.18-.21h-1c0 2.13 0 4.83-.06 7.56v2.24c-.09 5.5-.27 10.61-.41 11.36a17.25 17.25 0 0 1-.79 2.72 8.2 8.2 0 0 0-.5 2.72 8.49 8.49 0 0 0 .66 2.72 9.55 9.55 0 0 1 .72 2.72 8.84 8.84 0 0 1-.33 2.72 9.06 9.06 0 0 0-.32 2.95zM56.16 153.05a1.64 1.64 0 0 1-.56-.83 3.25 3.25 0 0 1 .06-1.27 3.92 3.92 0 0 0 0-1.48A5.11 5.11 0 0 0 55 148a2.86 2.86 0 0 1-.46-1.45 2.77 2.77 0 0 1 .6-1.38c.31-.37-.37.24-1.52 1.35s-2.82 2.58-3.72 3.27a32.33 32.33 0 0 1-3.3 2.17c-.92.51-5.16 2.19-9.43 3.74a73.5 73.5 0 0 1-9.63 3 21.69 21.69 0 0 1-6.28-1.36 39.62 39.62 0 0 1-5.6-2.3 14.2 14.2 0 0 1-2.14-1.79 7.79 7.79 0 0 0-2.31-1.57h-.09l.21.32c.13.3.3.68.49 1.06.31.65.66 1.34.93 1.83a6.83 6.83 0 0 0 2.07 2.18 7.85 7.85 0 0 0 3 .85 11.49 11.49 0 0 1 3.12.64 7.79 7.79 0 0 1 2.31 1.57A14.2 14.2 0 0 0 25.4 162a39.62 39.62 0 0 0 5.6 2.3 21.69 21.69 0 0 0 6.28 1.36 73.5 73.5 0 0 0 9.63-3c4.27-1.55 8.51-3.23 9.43-3.74a32.33 32.33 0 0 0 3.3-2.17l.7-.56.85-.73c-.64-.25-1.28-.53-1.86-.8-1.5-.73-2.93-1.44-3.17-1.61zM47.67 70.91a2.46 2.46 0 0 0 .19-2.22 29.34 29.34 0 0 1-.76-3c-.05-.28-.1-.63-.14-1-.07-.61-.13-1.25-.13-1.68 0-.2 0-.58.05-1.08a17.77 17.77 0 0 1 .12-2.85c.12-1 .25-1.94.38-2.81a21.57 21.57 0 0 0 0-4.75 1.94 1.94 0 0 0-.26-.81 6 6 0 0 0-2.43-1.43 13.75 13.75 0 0 0-3.32-.53 13.26 13.26 0 0 0-2.69.34l-.59.15-.44.12v.41c-.3 2.8-.53 5.65-.52 6.34a19.33 19.33 0 0 0 .27 2.66 29.34 29.34 0 0 0 .76 3A2.46 2.46 0 0 1 38 64c-.38.36-3.78.22-7.57-.3s-7.62-1.16-8.52-1.41a10.78 10.78 0 0 0-1.6-.29c0 .31.08.66.13 1 .11.83.24 1.77.39 2.68.34 2.13 1 4 1.55 4.21a4.69 4.69 0 0 0 2.62-.31 13.17 13.17 0 0 1 3.33-.75 12.08 12.08 0 0 1 3.3.36c.9.25 4.74.89 8.52 1.41s7.14.66 7.52.31zM59.73 70.68a34.82 34.82 0 0 1 3.61-.85 26.53 26.53 0 0 1 3.37-.3c.89 0 4.58.23 8.2.53s7.06.29 7.66 0a4.16 4.16 0 0 0 1.62-1.88 8.66 8.66 0 0 0 .54-2.58 8 8 0 0 0-.46-2.6 12.45 12.45 0 0 1-.64-2.5 11.33 11.33 0 0 1 0-2.5 9.12 9.12 0 0 0 0-2.32 6.62 6.62 0 0 0-.71-2 8 8 0 0 0-1.48-1.67 14.48 14.48 0 0 0-2.29-1.45 19.35 19.35 0 0 0-2.83-1.08c-.37-.1-.85-.21-1.35-.3l-1-.17a9.47 9.47 0 0 1 0 2 11.33 11.33 0 0 0 0 2.5 12.45 12.45 0 0 0 .64 2.5 8 8 0 0 1 .39 2.63 8.66 8.66 0 0 1-.54 2.58 4.16 4.16 0 0 1-1.62 1.88c-.6.31-4.05.32-7.66 0-3.41-.28-6.88-.51-8-.53 0 .31-.1.65-.15 1-.11.77-.22 1.61-.33 2.44-.29 2.32-.15 4.45.31 4.72a4.26 4.26 0 0 0 2.72-.05z"/></svg>