<svg xmlns="http://www.w3.org/2000/svg" width="200" height="200" viewBox="0 0 200 200"><title>_</title><path d="M83.8 80.34a11.91 11.91 0 0 0-.37-1.61A18.13 18.13 0 0 0 82 75.82 5.51 5.51 0 0 0 80 74a25.32 25.32 0 0 0-7.16.51c-3.12.55-7.17 1-8.54.72a15.63 15.63 0 0 1-4.35-1.68 10 10 0 0 0-3.44-1.2 6.88 6.88 0 0 0-3 .64 6.59 6.59 0 0 0-2 1.61 13.06 13.06 0 0 0 .51 4.49 41.09 41.09 0 0 0 1.71 5.5 16.1 16.1 0 0 0 1.69 2.6 18.78 18.78 0 0 1 2 3 17.4 17.4 0 0 1 1.19 3.28 31.7 31.7 0 0 1 .55 3.4 34.83 34.83 0 0 1 .12 3.54 10.09 10.09 0 0 0 .43 2.92 10 10 0 0 0 1.48 2.54 11 11 0 0 1 1.81 3.22 11.5 11.5 0 0 1 .41 3.7 10.09 10.09 0 0 0 .3 3 9.5 9.5 0 0 0 1.29 2.58 15.72 15.72 0 0 1 1.87 3.07 15 15 0 0 1 .94 3.41c.11.87.38 2.31.57 3.14s.6 2.22.88 3a12.25 12.25 0 0 0 1.4 2.64 15.92 15.92 0 0 0 2.3 2.38 10.37 10.37 0 0 1 2.45 3 13.25 13.25 0 0 1 .55 5.34c-.14 1.88-.47 4.54-.74 5.93s-.46 2.68-.47 2.9a5.6 5.6 0 0 1-.34 1.55 9.64 9.64 0 0 1-.83 1.56 7.61 7.61 0 0 1-1.76 1.71 18.54 18.54 0 0 1-2.67 1.43 14.07 14.07 0 0 1-2.7.87 3 3 0 0 1-2.17-.43 5.17 5.17 0 0 0-.65-.45 10.07 10.07 0 0 0-1.39-.43l-.24-.06a4.1 4.1 0 0 1-.32.5 28.51 28.51 0 0 1-1.93 2.18 4.56 4.56 0 0 0-1.13 2.09 3.86 3.86 0 0 0 .73 2.07A8.38 8.38 0 0 1 60.8 169a6.85 6.85 0 0 1-.5 3.35 6.11 6.11 0 0 0-.47 2.3 6.24 6.24 0 0 0 .71 2.26c.44.76 1 1.82 1.24 2.36a8.1 8.1 0 0 1 .53 1.6 3.08 3.08 0 0 0 .69-.07c.39-.09 1.58-.45 2.73-.83a19.46 19.46 0 0 1 2.85-.73l.43-.05a10.16 10.16 0 0 1 2.41.2 11.57 11.57 0 0 0 2.41.15 33.87 33.87 0 0 0 3.6-.43 36.7 36.7 0 0 1 4.45-.45 38.06 38.06 0 0 1 4.54.2 15.81 15.81 0 0 0 3.68 0 8.41 8.41 0 0 0 2.65-1 18.76 18.76 0 0 0 2.2-1.81 17.27 17.27 0 0 0 1.75-2.14 17 17 0 0 1 2-2.41 17.21 17.21 0 0 1 2.51-1.92c.67-.41 1.78-1.17 2.42-1.66s1.71-1.41 2.33-2a8.22 8.22 0 0 0 1.59-2.41 14.2 14.2 0 0 0 .72-3.55 14.75 14.75 0 0 1 3.22-8.43 11.31 11.31 0 0 0 1.7-3.19 8.68 8.68 0 0 0 .14-3.22 15.27 15.27 0 0 1-.17-3.86 32.42 32.42 0 0 1 2.37-6.54c1.19-2.58 2.55-5.26 3.09-6.1a28.35 28.35 0 0 1 2.22-2.9 19.5 19.5 0 0 0 1.92-2.64 17.18 17.18 0 0 0 1.25-2.85c.28-.91 1.68-4.41 3.12-7.8a37.28 37.28 0 0 0 2.53-7.49 14.89 14.89 0 0 0-.5-3.41 17.07 17.07 0 0 1-.59-4 12.71 12.71 0 0 1 .63-3.65c.32-.88.91-2.3 1.32-3.16s1.15-2.22 1.65-3a14.71 14.71 0 0 0 1.25-2.81 15.21 15.21 0 0 0 .49-3.08 18.4 18.4 0 0 1 .43-3.22 9.88 9.88 0 0 1 1.15-2.65 1.09 1.09 0 0 0 .18-.45 4 4 0 0 0-1.13-.39c-.84-.15-3.1-.76-5.16-1.38a19.93 19.93 0 0 0-5.17-.91 11.9 11.9 0 0 0-3.49 1 15.19 15.19 0 0 1-4.2 1.21 14.17 14.17 0 0 1-4.27-.34 4.86 4.86 0 0 0-2.46 0 2.63 2.63 0 0 0-1 1.51c-.21.92-.62 2.39-.92 3.27s-.83 2.29-1.2 3.14a16.42 16.42 0 0 0-.89 2.87 17.46 17.46 0 0 0-.23 3.07 9.55 9.55 0 0 1-.72 3.62 11.39 11.39 0 0 1-2.31 3.09 5.19 5.19 0 0 0-1.38 2.32 6.44 6.44 0 0 0 .47 2.93 13.7 13.7 0 0 1 1 4A9.48 9.48 0 0 1 102 108c-.34.79-.83 2.13-1.07 2.94-.08.25-.16.56-.24.89-.2.78-.39 1.6-.49 2.15a20.12 20.12 0 0 1-1 3.35 23.88 23.88 0 0 1-1.69 3.23c-.94 1.45-1.8 2-2.58 1.75-.27-.1-1.12-.41-.93-3a20.34 20.34 0 0 0-.07-3.3 16.79 16.79 0 0 0-.72-3 30.05 30.05 0 0 0-1.27-2.87c-.4-.77-1.16-2-1.66-2.77a12.58 12.58 0 0 1-1.52-3.27 12.74 12.74 0 0 1-.32-3.61 11.81 11.81 0 0 0-.22-3 11.27 11.27 0 0 0-1.14-2.71 18.75 18.75 0 0 1-1.51-3.16A44.76 44.76 0 0 1 84.46 85c-.17-1.6-.46-3.33-.66-4.66zM119.15 44.11a29.47 29.47 0 0 1 2.45-1.76c-1 .21-1.91.37-2.6.46a24.39 24.39 0 0 1-4.59.07c-1.08-.11-2.84-.22-3.93-.24s-2.84 0-3.93.12a32.7 32.7 0 0 1-4.15 0 33 33 0 0 1-4.1-.63 5.36 5.36 0 0 0-2.63.06 3.49 3.49 0 0 0-1.39 1.63A19.89 19.89 0 0 1 92.61 47a20.32 20.32 0 0 1-2.32 2.79 15.7 15.7 0 0 0-2 2.48 16.42 16.42 0 0 0-1.34 2.95 23 23 0 0 1-1.31 3.18 13.82 13.82 0 0 1-1.7 2.44l-.19.22a9 9 0 0 1 1.14.26 21.87 21.87 0 0 1 2.46 1 4.8 4.8 0 0 0 2.1.41 5.92 5.92 0 0 0 2.17-.88 8.66 8.66 0 0 1 3.07-1.28 5.69 5.69 0 0 1 1.18 0 7.32 7.32 0 0 1 2 .39A3.92 3.92 0 0 0 100 61a9.69 9.69 0 0 0 2.73-1.79c.91-.85 3.24-2.74 5.2-4.22s4.15-3.28 5-4.09a32.66 32.66 0 0 0 2.47-2.8l.32-.42a24 24 0 0 1 3.43-3.57z" fill="#231f20"/><path d="M144.41 81c-.79-.14-3.06-.75-5-1.35a26.67 26.67 0 0 0-3.08-.72l-1-.15a17.27 17.27 0 0 0-.4 3 16.2 16.2 0 0 1-.53 3.33 15.67 15.67 0 0 1-1.35 3c-.48.8-1.2 2.13-1.6 3s-1 2.21-1.28 3.07a11.79 11.79 0 0 0-.57 3.31 16.2 16.2 0 0 0 .55 3.7 15.87 15.87 0 0 1 .54 3.69c0 1-1.18 4.51-2.61 7.87s-2.82 6.84-3.09 7.71a18.07 18.07 0 0 1-1.34 3.05 20.49 20.49 0 0 1-2 2.81 27.28 27.28 0 0 0-2.13 2.78c-.51.79-1.87 3.48-3 6a32.07 32.07 0 0 0-2.29 6.23 14.38 14.38 0 0 0 .16 3.56 9.61 9.61 0 0 1-.16 3.68 12.32 12.32 0 0 1-1.88 3.54 13.75 13.75 0 0 0-3 7.87 15.19 15.19 0 0 1-.79 3.86 9.16 9.16 0 0 1-1.83 2.77c-.65.61-1.73 1.54-2.41 2.06s-1.81 1.3-2.51 1.73a16.41 16.41 0 0 0-2.34 1.79 16.11 16.11 0 0 0-1.88 2.24 18.21 18.21 0 0 1-1.88 2.29 19.58 19.58 0 0 1-2.34 1.93 9.36 9.36 0 0 1-3 1.19 16.77 16.77 0 0 1-4 .06 37.61 37.61 0 0 0-4.39-.19 35.78 35.78 0 0 0-4.3.44 34.73 34.73 0 0 1-3.73.44 12.67 12.67 0 0 1-2.68-.18 9 9 0 0 0-2.12-.18h-.34a6.81 6.81 0 0 0-.13 1v.39a7.23 7.23 0 0 0 .85 2.7c.43.74 1 1.76 1.19 2.27a6.49 6.49 0 0 1 .47 1.45.88.88 0 0 0 .52.68 3 3 0 0 0 1.32 0c.47-.11 1.75-.5 2.83-.86a15.76 15.76 0 0 1 3-.73 9 9 0 0 1 2.12.18 12.67 12.67 0 0 0 2.68.18 34.73 34.73 0 0 0 3.73-.44 35.78 35.78 0 0 1 4.3-.44 37.61 37.61 0 0 1 4.39.19 16.77 16.77 0 0 0 4-.06 9.36 9.36 0 0 0 3-1.19 19.58 19.58 0 0 0 2.34-1.93 18.21 18.21 0 0 0 1.88-2.29 16.11 16.11 0 0 1 1.88-2.24 16.41 16.41 0 0 1 2.34-1.79c.71-.43 1.84-1.21 2.51-1.73s1.76-1.45 2.41-2.06a9.16 9.16 0 0 0 1.83-2.77 15.19 15.19 0 0 0 .79-3.86 13.75 13.75 0 0 1 3-7.87 12.32 12.32 0 0 0 1.88-3.54 9.61 9.61 0 0 0 .16-3.68 14.38 14.38 0 0 1-.16-3.56 32.07 32.07 0 0 1 2.29-6.23c1.15-2.5 2.51-5.19 3-6a27.28 27.28 0 0 1 2.13-2.78 20.49 20.49 0 0 0 2-2.81 18.07 18.07 0 0 0 1.34-3.05c.27-.87 1.66-4.34 3.09-7.71s2.61-6.91 2.61-7.87a15.87 15.87 0 0 0-.54-3.69 16.2 16.2 0 0 1-.55-3.7 11.79 11.79 0 0 1 .57-3.31c.31-.86.89-2.24 1.28-3.07s1.12-2.16 1.6-3a15.67 15.67 0 0 0 1.35-3 16.2 16.2 0 0 0 .53-3.33 17.07 17.07 0 0 1 .41-3.07 8.8 8.8 0 0 1 1-2.27 1.58 1.58 0 0 0 .24-1.54 3.33 3.33 0 0 0-1.88-.8zM85.45 84.87a44.14 44.14 0 0 0 1 6.43 17.94 17.94 0 0 0 1.41 3 12.34 12.34 0 0 1 1.26 3 12.84 12.84 0 0 1 .25 3.29 11.8 11.8 0 0 0 .29 3.28 11.61 11.61 0 0 0 1.38 3 33.07 33.07 0 0 1 1.73 2.87 30.78 30.78 0 0 1 1.32 3 17.74 17.74 0 0 1 .77 3.2 21.24 21.24 0 0 1 .08 3.5 2.85 2.85 0 0 0 .28 2 2.63 2.63 0 0 0 1.43-1.44 22.57 22.57 0 0 0 1.6-3.07 19.24 19.24 0 0 0 .92-3.15c.11-.61.31-1.46.5-2.22a7.67 7.67 0 0 1-.26-.77 8.78 8.78 0 0 1-.21-1.16 11.71 11.71 0 0 1-.08-2.12 12.84 12.84 0 0 0-.25-3.29 12.34 12.34 0 0 0-1.26-3 17.94 17.94 0 0 1-1.41-3 44.14 44.14 0 0 1-1-6.43 41.93 41.93 0 0 0-1.07-6.48 19.08 19.08 0 0 0-1.53-3.11 6.41 6.41 0 0 0-2.5-2.16 13.16 13.16 0 0 0-4.27 0l-1 .11c.17 1.31.45 3.06.62 4.72zM113.64 51.61c-.86.84-3.14 2.72-5.07 4.17s-4.23 3.32-5.12 4.15a10.6 10.6 0 0 1-3.09 2 4.91 4.91 0 0 1-2.83 0 6.32 6.32 0 0 0-1.72-.33l-.1.29c-.07.21-.15.45-.24.69a21.46 21.46 0 0 1-1 2.33 12.92 12.92 0 0 1-1.55 2.24 4.27 4.27 0 0 0-.92 1.36c0 .25.23.45.62.44a6.77 6.77 0 0 1 1.7.3 20.9 20.9 0 0 1 2.32 1 5.81 5.81 0 0 0 2.64.5 6.85 6.85 0 0 0 2.64-1 7.62 7.62 0 0 1 2.65-1.11 6.35 6.35 0 0 1 2.69.32 4.91 4.91 0 0 0 2.83 0 10.6 10.6 0 0 0 3.09-2c.89-.83 3.19-2.7 5.12-4.15s4.21-3.33 5.07-4.17a32.93 32.93 0 0 0 2.89-3.34 22.94 22.94 0 0 1 3.25-3.39 33.67 33.67 0 0 1 4.46-3 7.91 7.91 0 0 0 2.45-1.66 6.71 6.71 0 0 0-2.77.49 38.53 38.53 0 0 1-5 1.06 23.49 23.49 0 0 1-4.36.07c-1.11-.12-2.92-.23-4-.24h-2.69l-1.32.07a33.55 33.55 0 0 1-2.64 2.91z" fill="#231f20"/></svg>