<svg xmlns="http://www.w3.org/2000/svg" width="97.06" height="200" viewBox="0 0 97.06 200"><title>_</title><path d="M24 180.77a11.68 11.68 0 0 0 2.28.14 33.61 33.61 0 0 0 3.54-.42 37.38 37.38 0 0 1 4.48-.49 38.55 38.55 0 0 1 4.61.2 15.44 15.44 0 0 0 3.54 0 7.93 7.93 0 0 0 2.46-1 18.22 18.22 0 0 0 2.09-1.71 16.88 16.88 0 0 0 1.69-2.06 17.6 17.6 0 0 1 2.09-2.49 17.8 17.8 0 0 1 2.59-2c.66-.4 1.75-1.15 2.38-1.63s1.68-1.38 2.29-2a7.76 7.76 0 0 0 1.47-2.23 13.85 13.85 0 0 0 .69-3.4 15.24 15.24 0 0 1 3.36-8.68 10.91 10.91 0 0 0 1.61-3 8.21 8.21 0 0 0 .13-3 15.87 15.87 0 0 1-.17-4 32.21 32.21 0 0 1 2.42-6.69c1.2-2.6 2.57-5.31 3.12-6.16a28.91 28.91 0 0 1 2.27-3 18.85 18.85 0 0 0 1.86-2.56 16.57 16.57 0 0 0 1.2-2.74c.28-.92 1.69-4.44 3.14-7.85a38.48 38.48 0 0 0 2.49-7.3 14.52 14.52 0 0 0-.48-3.27 17.66 17.66 0 0 1-.61-4.11 13.29 13.29 0 0 1 .66-3.82c.32-.9.93-2.34 1.34-3.21s1.16-2.25 1.67-3.09a14.33 14.33 0 0 0 1.19-2.69 14.87 14.87 0 0 0 .47-3 19 19 0 0 1 .44-3.33 10.52 10.52 0 0 1 1.16-2.72 3.47 3.47 0 0 0-.57-.16c-.86-.16-3.15-.77-5.22-1.39a18.83 18.83 0 0 0-5-.89 11.52 11.52 0 0 0-3.28.98 15.75 15.75 0 0 1-4.4 1.26 14.8 14.8 0 0 1-4.45-.35 4.56 4.56 0 0 0-2.12-.05 2.3 2.3 0 0 0-.69 1.14c-.22.93-.63 2.42-.93 3.32s-.81 2.35-1.22 3.21a16.12 16.12 0 0 0-.86 2.76 16.83 16.83 0 0 0-.23 3 10 10 0 0 1-.76 3.84 11.78 11.78 0 0 1-2.43 3.26 4.75 4.75 0 0 0-1.23 2 6.05 6.05 0 0 0 .44 2.65 14.06 14.06 0 0 1 1 4.13 9.9 9.9 0 0 1-.62 3.83c-.33.77-.81 2.09-1.05 2.88-.07.25-.16.55-.24.87-.2.76-.38 1.57-.48 2.11a20.72 20.72 0 0 1-1 3.45 24.6 24.6 0 0 1-1.73 3.31c-1.08 1.68-2.15 2.34-3.18 2s-1.4-1.5-1.25-3.49a19.71 19.71 0 0 0-.07-3.2 16.17 16.17 0 0 0-.69-2.88 29.5 29.5 0 0 0-1.21-2.81c-.39-.75-1.14-2-1.63-2.71a13 13 0 0 1-1.6-3.43 13.33 13.33 0 0 1-.34-3.78 11.38 11.38 0 0 0-.21-2.83 10.85 10.85 0 0 0-1.08-2.56 19.37 19.37 0 0 1-1.55-3.26 44.56 44.56 0 0 1-1.11-6.76c-.16-1.56-.4-3.28-.65-4.6a11.69 11.69 0 0 0-.35-1.53A17.8 17.8 0 0 0 34.06 78a5.06 5.06 0 0 0-1.81-1.58 26.88 26.88 0 0 0-6.88.54c-3.12.55-7.23 1-8.71.72a16.22 16.22 0 0 1-4.52-1.74 9.6 9.6 0 0 0-3.23-1.13 6.44 6.44 0 0 0-2.76.59 6.6 6.6 0 0 0-1.78 1.37 14.78 14.78 0 0 0 .54 4.16 41.43 41.43 0 0 0 1.67 5.4 15.75 15.75 0 0 0 1.63 2.5 19.37 19.37 0 0 1 2 3.08 18 18 0 0 1 1.23 3.4 32.33 32.33 0 0 1 .56 3.43 35.45 35.45 0 0 1 .12 3.6 9.63 9.63 0 0 0 .41 2.74 9.49 9.49 0 0 0 1.39 2.38 11.44 11.44 0 0 1 1.91 3.39 11.89 11.89 0 0 1 .44 3.89 9.65 9.65 0 0 0 .28 2.79 9 9 0 0 0 1.29 2.39 16.3 16.3 0 0 1 1.94 3.18 15.61 15.61 0 0 1 1 3.55c.11.85.37 2.26.56 3.09s.59 2.19.87 3a11.86 11.86 0 0 0 1.33 2.51 15.58 15.58 0 0 0 2.22 2.29 10.77 10.77 0 0 1 2.59 3.19 13.52 13.52 0 0 1 .59 5.59c-.14 1.9-.48 4.58-.74 6s-.46 2.66-.47 2.83a6.07 6.07 0 0 1-.37 1.71 10.1 10.1 0 0 1-.88 1.66 8 8 0 0 1-1.87 1.8 19.08 19.08 0 0 1-2.75 1.47 14.36 14.36 0 0 1-2.82.9 3.52 3.52 0 0 1-2.57-.54 4.69 4.69 0 0 0-.56-.4 10.69 10.69 0 0 0-1.16-.36l-.15.22a28.79 28.79 0 0 1-2 2.23 4.19 4.19 0 0 0-1 1.78 3.43 3.43 0 0 0 .63 1.72 8.82 8.82 0 0 1 1.54 3.47 7.3 7.3 0 0 1-.54 3.63 5.69 5.69 0 0 0-.43 2.06 5.83 5.83 0 0 0 .65 2c.45.77 1 1.85 1.26 2.4a9.92 9.92 0 0 1 .47 1.28h.14c.37-.08 1.54-.44 2.68-.82a20 20 0 0 1 2.93-.75l.47-.06a10.64 10.64 0 0 1 2.6.22zM66.84 45.26C65.78 45.14 64 45 63 45s-2.74 0-3.89.12a33.54 33.54 0 0 1-4.23 0 33.73 33.73 0 0 1-4.18-.64 5 5 0 0 0-2.31 0 3 3 0 0 0-1.13 1.35 20.44 20.44 0 0 1-1.71 3.3A20.88 20.88 0 0 1 43.16 52a15.39 15.39 0 0 0-1.92 2.38 16.14 16.14 0 0 0-1.29 2.84 23.6 23.6 0 0 1-1.35 3.27 15.21 15.21 0 0 1-1.4 2.11l.36.1a22.53 22.53 0 0 1 2.53 1 4.44 4.44 0 0 0 1.83.36 5.49 5.49 0 0 0 1.94-.79A9.08 9.08 0 0 1 47.1 62a6.24 6.24 0 0 1 1.28 0 7.85 7.85 0 0 1 2.16.42 3.4 3.4 0 0 0 1.82 0 9.21 9.21 0 0 0 2.54-1.68c.92-.86 3.27-2.77 5.24-4.25s4.12-3.25 4.92-4a32 32 0 0 0 2.42-2.75l.31-.41a24.62 24.62 0 0 1 3.51-3.66l.59-.46h-.36a24.88 24.88 0 0 1-4.69.05z"/><path d="M96.9 82.84c-.79-.14-3.06-.75-5-1.35a26.67 26.67 0 0 0-3.08-.72l-1-.15a17.27 17.27 0 0 0-.4 3 16.2 16.2 0 0 1-.58 3.38 15.67 15.67 0 0 1-1.35 3c-.48.8-1.2 2.13-1.6 3s-1 2.21-1.28 3.07a11.79 11.79 0 0 0-.61 3.27 16.2 16.2 0 0 0 .55 3.7 15.87 15.87 0 0 1 .54 3.69c0 1-1.18 4.51-2.61 7.87s-2.82 6.84-3.09 7.71a18.07 18.07 0 0 1-1.34 3.05 20.49 20.49 0 0 1-2 2.81 27.28 27.28 0 0 0-2.12 2.83c-.51.79-1.87 3.48-3 6a32.07 32.07 0 0 0-2.29 6.23 14.38 14.38 0 0 0 .16 3.56 9.61 9.61 0 0 1-.16 3.68 12.32 12.32 0 0 1-1.88 3.54 13.75 13.75 0 0 0-3 7.87 15.19 15.19 0 0 1-.79 3.86 9.16 9.16 0 0 1-1.83 2.77c-.65.61-1.73 1.54-2.41 2.06s-1.81 1.3-2.51 1.73a16.41 16.41 0 0 0-2.37 1.7 16.11 16.11 0 0 0-1.85 2.26 18.21 18.21 0 0 1-1.88 2.29 19.58 19.58 0 0 1-2.34 1.93 9.36 9.36 0 0 1-3 1.19 16.77 16.77 0 0 1-4 .06 37.61 37.61 0 0 0-4.39-.19A35.78 35.78 0 0 0 30 182a34.73 34.73 0 0 1-3.73.44 12.67 12.67 0 0 1-2.68-.18 9 9 0 0 0-2.12-.18h-.34a6.81 6.81 0 0 0-.13 1v.39a7.23 7.23 0 0 0 .85 2.7c.43.74 1 1.76 1.19 2.27a6.49 6.49 0 0 1 .47 1.45.88.88 0 0 0 .52.68 3 3 0 0 0 1.32 0c.47-.11 1.75-.5 2.83-.86a15.76 15.76 0 0 1 3-.73 9 9 0 0 1 2.12.18 12.67 12.67 0 0 0 2.68.18 34.73 34.73 0 0 0 3.73-.44 35.78 35.78 0 0 1 4.3-.44 37.61 37.61 0 0 1 4.39.19 16.77 16.77 0 0 0 4-.06 9.36 9.36 0 0 0 3-1.19 19.58 19.58 0 0 0 2.34-1.93 18.21 18.21 0 0 0 1.88-2.29 16.11 16.11 0 0 1 1.95-2.18 16.41 16.41 0 0 1 2.34-1.79c.71-.43 1.84-1.21 2.51-1.73s1.76-1.45 2.41-2.06a9.16 9.16 0 0 0 1.83-2.77 15.19 15.19 0 0 0 .79-3.86 13.75 13.75 0 0 1 3-7.87 12.32 12.32 0 0 0 1.88-3.54 9.61 9.61 0 0 0 .16-3.68 14.38 14.38 0 0 1-.16-3.56 32.07 32.07 0 0 1 2.29-6.23c1.15-2.5 2.51-5.19 3-6a27.28 27.28 0 0 1 2.13-2.78 20.49 20.49 0 0 0 2-2.81 18.07 18.07 0 0 0 1.34-3.05c.27-.87 1.66-4.34 3.09-7.71s2.61-6.91 2.61-7.87a15.87 15.87 0 0 0-.49-3.69 16.2 16.2 0 0 1-.55-3.7 11.79 11.79 0 0 1 .57-3.31c.31-.86.89-2.24 1.28-3.07s1.12-2.16 1.6-3a15.67 15.67 0 0 0 1.35-3 16.2 16.2 0 0 0 .53-3.33 17.07 17.07 0 0 1 .41-3.07 8.8 8.8 0 0 1 1-2.27 1.58 1.58 0 0 0 .24-1.54 3.33 3.33 0 0 0-1.83-.87zM47.75 123.21a2.63 2.63 0 0 0 1.39-1.36 22.57 22.57 0 0 0 1.6-3.07 19.24 19.24 0 0 0 .92-3.15c.11-.61.31-1.46.5-2.22a7.67 7.67 0 0 1-.26-.77 8.78 8.78 0 0 1-.21-1.16 11.71 11.71 0 0 1-.08-2.12 12.84 12.84 0 0 0-.25-3.29 12.34 12.34 0 0 0-1.26-3 17.94 17.94 0 0 1-1.41-3 44.14 44.14 0 0 1-1-6.43 41.93 41.93 0 0 0-1.07-6.48A19.08 19.08 0 0 0 45 84.11a6.41 6.41 0 0 0-2.5-2.16 13.16 13.16 0 0 0-4.27 0l-1 .11c.24 1.3.49 3 .66 4.71a44.14 44.14 0 0 0 1 6.43 17.94 17.94 0 0 0 1.41 3 12.34 12.34 0 0 1 1.26 3 12.84 12.84 0 0 1 .25 3.29 11.8 11.8 0 0 0 .29 3.28 11.61 11.61 0 0 0 1.38 3 33.07 33.07 0 0 1 1.73 2.87 30.78 30.78 0 0 1 1.32 3 17.74 17.74 0 0 1 .77 3.2 21.24 21.24 0 0 1 .08 3.5 2.85 2.85 0 0 0 .37 1.87zM57 70.42a6.35 6.35 0 0 1 2.69.32 4.91 4.91 0 0 0 2.83 0 10.6 10.6 0 0 0 3.09-2c.89-.83 3.19-2.7 5.12-4.15s4.21-3.33 5.07-4.17a32.93 32.93 0 0 0 2.89-3.34A22.94 22.94 0 0 1 82 53.7a33.67 33.67 0 0 1 4.46-3 7.91 7.91 0 0 0 2.45-1.66 6.71 6.71 0 0 0-2.77.49 38.53 38.53 0 0 1-5 1.06 23.49 23.49 0 0 1-4.36.07c-1.11-.12-2.92-.23-4-.24h-2.69l-1.32.07a33.55 33.55 0 0 1-2.56 2.9c-.86.84-3.14 2.72-5.07 4.17s-4.32 3.44-5.2 4.24a10.6 10.6 0 0 1-3.09 2 4.91 4.91 0 0 1-2.83 0 6.32 6.32 0 0 0-1.72-.33l-.1.29c-.07.21-.15.45-.24.69a21.46 21.46 0 0 1-1 2.33A12.92 12.92 0 0 1 45.39 69a4.27 4.27 0 0 0-.93 1.38c0 .25.23.45.62.44a6.77 6.77 0 0 1 1.7.3 20.9 20.9 0 0 1 2.32 1 5.81 5.81 0 0 0 2.64.5 6.85 6.85 0 0 0 2.64-1 7.62 7.62 0 0 1 2.62-1.2z"/></svg>