<svg xmlns="http://www.w3.org/2000/svg" width="108.36" height="200" viewBox="0 0 108.36 200"><title>_</title><path d="M30.78 180.72c5.86-.12 9.38-.73 9.94-1a7.46 7.46 0 0 0 1.36-2.32 25.74 25.74 0 0 0 .91-3.79c.16-1.08.3-5 .31-8.52s-.11-7.52-.26-8.68a34.39 34.39 0 0 0-.91-4.27c-.74-2.53-.67-3.11-.51-3.51l.34-.89 1-.1c.93 0 1.51.49 2.41 2.16a7.83 7.83 0 0 0 1.73 2.1 6.08 6.08 0 0 0 2.25.89c.86.12 2.93.25 4.5.3a19.12 19.12 0 0 1 4.91.72 14.74 14.74 0 0 1 3.24 1.86 4.7 4.7 0 0 0 2.06.85 5.07 5.07 0 0 0 2.32-.69 19.82 19.82 0 0 1 3.62-1.62 17.07 17.07 0 0 1 3.76-.63 9.08 9.08 0 0 0 2.64-.58 10.09 10.09 0 0 0 2.34-1.61 14.92 14.92 0 0 1 3.3-2.32 17 17 0 0 1 4-1.24 6 6 0 0 0 2.48-1.13 28.08 28.08 0 0 0 3-6.22 71.89 71.89 0 0 1 3.16-7.48 36.34 36.34 0 0 1 2.14-3.12c.56-.72 1.45-2 1.94-2.79s1.23-2.17 1.62-3a6.66 6.66 0 0 0 .52-2.61 8.43 8.43 0 0 0-.91-2.82 10.8 10.8 0 0 1-1.23-4.37 12.76 12.76 0 0 1 1-4.62 10.23 10.23 0 0 0 .72-3.41 9 9 0 0 0-.87-3.18 37.72 37.72 0 0 1-1.76-3.94 32.67 32.67 0 0 1-1.12-4c-.2-1-.6-2.62-.9-3.61S94.92 89 94.53 88l-.06-.14a9.36 9.36 0 0 0-1.65-2.46 19.92 19.92 0 0 0-4.51-2.49 95.28 95.28 0 0 1-8.72-4.42 46.14 46.14 0 0 0-6.45-3.2 18.27 18.27 0 0 0-3.56-.54 26.2 26.2 0 0 0-3.62.19c-.84.12-5.26 1.32-10.51 2.9-1.45.44-3 .94-4.38 1.45a24.63 24.63 0 0 0-5 2.16 7.49 7.49 0 0 0-1.19 2.63 17.24 17.24 0 0 1-1 3.4 3.14 3.14 0 0 1-2.88 1.8c-1 0-1.83-.06-2.22-1a2 2 0 0 1-.15-.79h-.19a1.76 1.76 0 0 1-1.23-1.32c0-.18-.18-.75.57-6.68.36-2.8.89-6.3 1.18-7.29.21-.73.64-2.61.93-4.1a22.53 22.53 0 0 0 .45-3.87 15.15 15.15 0 0 0-.4-2.51 15.59 15.59 0 0 1-.45-3.18 15.45 15.45 0 0 1 .34-3.19 5.92 5.92 0 0 0 0-2.14 8.48 8.48 0 0 0-.91-2l-.05-.21-.08-.13a11.64 11.64 0 0 1-1.54-3.21 7.3 7.3 0 0 1 0-3.26 4.26 4.26 0 0 0-1 .05c-1 .17-2.56.35-3.54.42s-2.63.13-3.63.13a26.27 26.27 0 0 1-3.82-.48 29.92 29.92 0 0 1-3.82-1.17 15.81 15.81 0 0 0-3.21-.82 10.44 10.44 0 0 0-1.12-.05 13.34 13.34 0 0 0-2 .14 3.19 3.19 0 0 0-1.46.68 3.16 3.16 0 0 0-.06 1.58 27.5 27.5 0 0 1 .56 3.73 27.48 27.48 0 0 1-.07 3.77 23.63 23.63 0 0 0-.08 3.24 24.52 24.52 0 0 0 .51 3.28 19.61 19.61 0 0 1 .49 3.88 19.58 19.58 0 0 1-.47 3.88c-.22.91-.5 2.45-.62 3.37s-.23 2.45-.24 3.36a26.56 26.56 0 0 1-.39 3.79 29 29 0 0 1-1 3.77 8.8 8.8 0 0 0-.43 2.91 9.79 9.79 0 0 0 .87 3 21.34 21.34 0 0 1 1.46 3.85 18.15 18.15 0 0 1 .45 3.92 26.68 26.68 0 0 1-.39 3.79 29.14 29.14 0 0 1-1 3.76 34 34 0 0 0-1 3.34 30.65 30.65 0 0 0-.53 3.33 11.36 11.36 0 0 0 .25 3 14.84 14.84 0 0 0 1.25 3.15 17.19 17.19 0 0 1 1.63 3.94 14.07 14.07 0 0 1 .28 4c-.12 1.24-1.19 5.6-2.12 9.06a38.42 38.42 0 0 0-1.55 8.16 9.67 9.67 0 0 0 1.32 2.95 9.81 9.81 0 0 1 1.62 4.29 9 9 0 0 1-1.07 4.37 30.76 30.76 0 0 0-1.58 3.33 25.46 25.46 0 0 0-1 3.29 7.59 7.59 0 0 0 .11 2.83 11.4 11.4 0 0 0 1.59 3 9.22 9.22 0 0 1 1.75 4.35 8.44 8.44 0 0 1-1.24 4.43 14.9 14.9 0 0 0-1.49 3.33 16.11 16.11 0 0 0-.44 3.77 3.18 3.18 0 0 0 .62 1.84 4.7 4.7 0 0 0 2.44.07c1.37-.31 3.5-.69 4.74-.84l.88-.08c2.06-.09 6.61-.28 11.08-.37z"/><path d="M110 121.22a11.41 11.41 0 0 1 .84-4 11.54 11.54 0 0 0 .84-4 10.38 10.38 0 0 0-1-3.85 36.17 36.17 0 0 1-1.68-3.75 31.05 31.05 0 0 1-1.06-3.76c-.21-1-.63-2.72-.93-3.74s-.89-2.69-1.29-3.71a10.62 10.62 0 0 0-2.07-3.13 20.83 20.83 0 0 0-5-2.8c-.41-.17-.91-.39-1.45-.65l-1.33-.64.12.27c.4 1 1 2.68 1.29 3.71s.73 2.71.93 3.74a31.05 31.05 0 0 0 1.06 3.76 36.17 36.17 0 0 0 1.68 3.75 10.38 10.38 0 0 1 1 3.85 11.54 11.54 0 0 1-.84 4 11.41 11.41 0 0 0-.84 4 9.42 9.42 0 0 0 1 3.67 9.8 9.8 0 0 1 1.1 3.46 8.12 8.12 0 0 1-.66 3.34c-.42.9-1.19 2.32-1.7 3.16s-1.43 2.15-2 2.93a34.75 34.75 0 0 0-2 3 71.06 71.06 0 0 0-3.1 7.17c-1.17 3.1-2.7 6.16-3.42 6.8a7.48 7.48 0 0 1-3.24 1.5 15.61 15.61 0 0 0-3.56 1.11 13.49 13.49 0 0 0-2.91 2 11.36 11.36 0 0 1-2.78 1.95 10.41 10.41 0 0 1-3.2.71 15.54 15.54 0 0 0-3.37.57 18.33 18.33 0 0 0-3.3 1.48A6.85 6.85 0 0 1 64 158a6.09 6.09 0 0 1-2.92-1.16 13.22 13.22 0 0 0-2.83-1.64 17.78 17.78 0 0 0-4.42-.63c-1.65 0-3.75-.19-4.66-.31a7.6 7.6 0 0 1-2.94-1.17 9.25 9.25 0 0 1-2.23-2.57c-.49-.91-.94-1.52-1-1.35a10.69 10.69 0 0 0 .55 2.56 35.74 35.74 0 0 1 1 4.5c.16 1.23.28 5.23.27 8.88s-.16 7.58-.32 8.73a27.29 27.29 0 0 1-1 4.06 8.43 8.43 0 0 1-1.88 3c-.66.59-5.53 1.16-10.81 1.28-4.5.1-9 .27-11 .41l-.09.29c-.06.21-.11.47-.16.73a18.29 18.29 0 0 0-.33 3.47 4.23 4.23 0 0 0 1.27 3 5.52 5.52 0 0 0 3.62.3c1.32-.3 3.38-.66 4.59-.82s6.52-.37 11.81-.49 10.15-.69 10.81-1.28a8.43 8.43 0 0 0 1.88-3 27.29 27.29 0 0 0 1-4.06c.17-1.15.31-5.08.32-8.73s-.11-7.65-.27-8.88a35.74 35.74 0 0 0-1-4.5 10.69 10.69 0 0 1-.55-2.56c.06-.17.51.44 1 1.35a9.25 9.25 0 0 0 2.17 2.59 7.6 7.6 0 0 0 2.94 1.17c.91.12 3 .27 4.66.31a17.78 17.78 0 0 1 4.42.63 13.22 13.22 0 0 1 2.83 1.64 6.09 6.09 0 0 0 2.96 1.25 6.85 6.85 0 0 0 3.15-.9 18.33 18.33 0 0 1 3.3-1.48 15.54 15.54 0 0 1 3.37-.57 10.41 10.41 0 0 0 3.2-.71 11.36 11.36 0 0 0 2.79-1.91 13.49 13.49 0 0 1 2.91-2 15.61 15.61 0 0 1 3.59-1.19 7.48 7.48 0 0 0 3.24-1.5c.71-.65 2.25-3.71 3.42-6.8a71.06 71.06 0 0 1 3.06-7.19 34.75 34.75 0 0 1 2-3c.6-.77 1.52-2.09 2-2.93s1.28-2.26 1.7-3.16a8.12 8.12 0 0 0 .66-3.34 9.8 9.8 0 0 0-1.1-3.46 9.42 9.42 0 0 1-.98-3.64zM40.43 72.61c-.23.78-.73 4-1.13 7.06a60.85 60.85 0 0 0-.6 6.14c.07.27.31.31.54.07a.78.78 0 0 1 .64-.31 1.93 1.93 0 0 1 .26 1.1c0 .54 0 1 .06 1a5 5 0 0 0 .91.07 1.74 1.74 0 0 0 1.4-1 16 16 0 0 0 .92-3A8.72 8.72 0 0 1 45 80.41c.43-.5 2.66-1.49 5.58-2.54.08-.36.17-.75.25-1.15s.2-.95.29-1.4a23.36 23.36 0 0 0 .48-4.23 16.54 16.54 0 0 0-.45-2.82 14.14 14.14 0 0 1-.4-2.82 14 14 0 0 1 .3-2.82 7.42 7.42 0 0 0 0-2.82A9.9 9.9 0 0 0 49.73 57a10.22 10.22 0 0 1-1.31-2.71 5.9 5.9 0 0 1 0-2.5 1.64 1.64 0 0 0-.35-1.65 4.07 4.07 0 0 0-2.35-.14c-.92.16-2.44.33-3.38.4H40.2a9.74 9.74 0 0 1 1.09 2.46 7.42 7.42 0 0 1 0 2.82 14 14 0 0 0-.3 2.82 14.14 14.14 0 0 0 .4 2.82 16.54 16.54 0 0 1 .45 2.82 23.36 23.36 0 0 1-.48 4.23c-.27 1.57-.7 3.47-.93 4.24z"/></svg>