<svg xmlns="http://www.w3.org/2000/svg" width="200" height="200" viewBox="0 0 200 200"><title>_</title><path d="M78 48.94l-.12-.19a11.22 11.22 0 0 1-1.46-3 6.83 6.83 0 0 1 0-3 1.11 1.11 0 0 0 0-.59 4.54 4.54 0 0 0-1.55 0c-1 .16-2.52.35-3.49.41s-2.59.09-3.59 0a25.63 25.63 0 0 1-3.73-.47 29.38 29.38 0 0 1-3.74-1.1 16.16 16.16 0 0 0-3.32-.88 10.94 10.94 0 0 0-1.17-.05 13.77 13.77 0 0 0-2.1.15 3.4 3.4 0 0 0-1.79.89 3.34 3.34 0 0 0-.13 2 26.89 26.89 0 0 1 .55 3.65 26.84 26.84 0 0 1-.07 3.68 24.25 24.25 0 0 0-.05 3.36 25.11 25.11 0 0 0 .52 3.37 19 19 0 0 1 .45 3.76 19 19 0 0 1-.45 3.76c-.22.93-.51 2.49-.63 3.42s-.23 2.49-.24 3.42a26 26 0 0 1-.38 3.7 28.49 28.49 0 0 1-1 3.69A9.26 9.26 0 0 0 50 82a10.24 10.24 0 0 0 .92 3.15 20.73 20.73 0 0 1 1.42 3.75 17.52 17.52 0 0 1 .44 3.79 26.09 26.09 0 0 1-.38 3.7 28.47 28.47 0 0 1-1 3.68 34.6 34.6 0 0 0-1 3.41 31.31 31.31 0 0 0-.54 3.4 11.78 11.78 0 0 0 .26 3.2 15.19 15.19 0 0 0 1.37 3.27 16.61 16.61 0 0 1 1.58 3.8 13.48 13.48 0 0 1 .27 3.87c-.12 1.16-1.17 5.48-2.12 9a37.05 37.05 0 0 0-1.56 8.38 10.11 10.11 0 0 0 1.4 3.14 9.39 9.39 0 0 1 1.53 4 8.53 8.53 0 0 1-1 4.09 31.34 31.34 0 0 0-1.61 3.4 26.05 26.05 0 0 0-1 3.37 8.08 8.08 0 0 0 .12 3.07 11.79 11.79 0 0 0 1.67 3.19 8.8 8.8 0 0 1 1.65 4.08 8 8 0 0 1-1.19 4.13 15.24 15.24 0 0 0-1.55 3.47 16.71 16.71 0 0 0-.46 3.91 3.41 3.41 0 0 0 .84 2.24 4.81 4.81 0 0 0 2.83.15c1.36-.31 3.46-.68 4.69-.83l.85-.08c2.06-.15 6.61-.32 11.06-.42 5.6-.12 9.6-.71 10.23-1.07a7.66 7.66 0 0 0 1.54-2.57 26.35 26.35 0 0 0 .94-3.88c.16-1.1.3-5 .31-8.59s-.11-7.57-.26-8.75a35 35 0 0 0-.92-4.34c-.76-2.58-.61-3-.53-3.2l.23-.6.67-.07c.58 0 1 .24 1.92 1.9a8.29 8.29 0 0 0 1.88 2.26 6.59 6.59 0 0 0 2.48 1c.88.12 3 .26 4.55.3a18.81 18.81 0 0 1 4.75.69 14.14 14.14 0 0 1 3.09 1.79 5.15 5.15 0 0 0 2.35 1 5.71 5.71 0 0 0 2.59-.76 19.29 19.29 0 0 1 3.51-1.57 16.47 16.47 0 0 1 3.63-.61 9.56 9.56 0 0 0 2.83-.62 10.55 10.55 0 0 0 2.49-1.71 14.35 14.35 0 0 1 3.17-2.23 16.43 16.43 0 0 1 3.84-1.2 6.5 6.5 0 0 0 2.73-1.25 27.39 27.39 0 0 0 3.15-6.42 71.69 71.69 0 0 1 3.13-7.35 35.92 35.92 0 0 1 2.1-3.07c.57-.73 1.47-2 2-2.83s1.25-2.21 1.65-3.06a7.15 7.15 0 0 0 .57-2.85 8.9 8.9 0 0 0-1-3 10.4 10.4 0 0 1-1.17-4.14 12.37 12.37 0 0 1 .92-4.41 10.67 10.67 0 0 0 .76-3.62 9.49 9.49 0 0 0-.93-3.4 37.15 37.15 0 0 1-1.69-3.96 32.08 32.08 0 0 1-1.1-3.9c-.2-1-.61-2.65-.91-3.65s-.87-2.63-1.26-3.62l-.08-.18a9.79 9.79 0 0 0-1.75-2.59 20.18 20.18 0 0 0-4.67-2.59 94.61 94.61 0 0 1-8.66-4.39 45.62 45.62 0 0 0-6.57-3.27 18.84 18.84 0 0 0-3.68-.56 26.62 26.62 0 0 0-3.71.19c-.86.12-5.32 1.33-10.58 2.92-1.46.44-3 .94-4.4 1.45a23.93 23.93 0 0 0-5.17 2.27 7.8 7.8 0 0 0-1.33 2.89 17 17 0 0 1-1 3.28 2.68 2.68 0 0 1-2.32 1.53c-1 0-1.52-.05-1.8-.67a2.67 2.67 0 0 1-.13-1.08 1.22 1.22 0 0 1-.53 0 1.26 1.26 0 0 1-.88-1 50 50 0 0 1 .58-6.5c.36-2.82.89-6.28 1.16-7.21.22-.75.65-2.64.94-4.14a22.82 22.82 0 0 0 .46-4 15.52 15.52 0 0 0-.42-2.61 15 15 0 0 1-.43-3.06 14.88 14.88 0 0 1 .24-3.04 6.43 6.43 0 0 0 0-2.37 8.89 8.89 0 0 0-1-2.17z" fill="#231f20"/><path d="M148.66 119.35a11.41 11.41 0 0 1 .84-4 11.54 11.54 0 0 0 .84-4 10.38 10.38 0 0 0-1-3.85 36.17 36.17 0 0 1-1.68-3.75 31.05 31.05 0 0 1-1.06-3.76c-.21-1-.63-2.72-.93-3.74s-.89-2.69-1.29-3.71a10.62 10.62 0 0 0-2.07-3.13 20.83 20.83 0 0 0-5-2.8c-.41-.17-.91-.39-1.45-.65l-1.33-.64.12.27c.4 1 1 2.68 1.29 3.71s.73 2.71.93 3.74a31.05 31.05 0 0 0 1.06 3.76 36.17 36.17 0 0 0 1.68 3.75 10.38 10.38 0 0 1 1 3.85 11.54 11.54 0 0 1-.84 4 11.41 11.41 0 0 0-.84 4 9.42 9.42 0 0 0 1 3.67 9.8 9.8 0 0 1 1.1 3.46 8.12 8.12 0 0 1-.66 3.34c-.42.9-1.19 2.32-1.7 3.16s-1.43 2.15-2 2.93a34.75 34.75 0 0 0-2 3 71.06 71.06 0 0 0-3.06 7.19c-1.17 3.1-2.7 6.16-3.42 6.8a7.48 7.48 0 0 1-3.24 1.5 15.61 15.61 0 0 0-3.56 1.11 13.49 13.49 0 0 0-2.91 2 11.36 11.36 0 0 1-2.79 1.91 10.41 10.41 0 0 1-3.2.71 15.54 15.54 0 0 0-3.37.57 18.33 18.33 0 0 0-3.3 1.48 6.85 6.85 0 0 1-3.15.9 6.09 6.09 0 0 1-2.92-1.13 13.22 13.22 0 0 0-2.83-1.64 17.78 17.78 0 0 0-4.42-.63c-1.65 0-3.75-.19-4.66-.31a7.6 7.6 0 0 1-2.94-1.17 9.25 9.25 0 0 1-2.17-2.59c-.49-.91-.94-1.52-1-1.35a10.69 10.69 0 0 0 .55 2.56 35.74 35.74 0 0 1 1 4.5c.16 1.23.28 5.23.27 8.88s-.16 7.58-.32 8.73a27.29 27.29 0 0 1-1 4.06 8.43 8.43 0 0 1-1.88 3c-.66.59-5.53 1.16-10.81 1.28-4.5.1-9 .27-11 .41l-.09.29c-.06.21-.11.47-.16.73a18.29 18.29 0 0 0-.33 3.47 4.23 4.23 0 0 0 1.27 3 5.52 5.52 0 0 0 3.62.3c1.32-.3 3.38-.66 4.59-.82s6.52-.37 11.81-.49S89.37 186.6 90 186a8.43 8.43 0 0 0 1.88-3 27.29 27.29 0 0 0 1-4.06c.17-1.15.31-5.08.32-8.73s-.11-7.65-.27-8.88a35.74 35.74 0 0 0-1-4.5 10.69 10.69 0 0 1-.55-2.56c.06-.17.51.44 1 1.35a9.25 9.25 0 0 0 2.17 2.59 7.6 7.6 0 0 0 2.94 1.17c.91.12 3 .27 4.66.31a17.78 17.78 0 0 1 4.42.63 13.22 13.22 0 0 1 2.83 1.64 6.09 6.09 0 0 0 2.92 1.16 6.85 6.85 0 0 0 3.15-.9 18.33 18.33 0 0 1 3.3-1.48 15.54 15.54 0 0 1 3.37-.57 10.41 10.41 0 0 0 3.2-.71 11.36 11.36 0 0 0 2.79-1.91 13.49 13.49 0 0 1 2.91-2 15.61 15.61 0 0 1 3.56-1.11 7.48 7.48 0 0 0 3.24-1.5c.71-.65 2.25-3.71 3.42-6.8a71.06 71.06 0 0 1 3.06-7.19 34.75 34.75 0 0 1 2-3c.6-.77 1.52-2.09 2-2.93s1.28-2.26 1.7-3.16a8.12 8.12 0 0 0 .66-3.34 9.8 9.8 0 0 0-1.1-3.46 9.42 9.42 0 0 1-.92-3.71zM80 51a7.42 7.42 0 0 1 0 2.82 14 14 0 0 0-.3 2.82 14.14 14.14 0 0 0 .4 2.82 16.54 16.54 0 0 1 .45 2.82 23.36 23.36 0 0 1-.48 4.23c-.3 1.55-.74 3.45-1 4.23s-.73 4-1.13 7.06a60.85 60.85 0 0 0-.6 6.14c.07.27.31.31.54.07a.78.78 0 0 1 .64-.31 1.93 1.93 0 0 1 .26 1.1c0 .54 0 1 .06 1a5 5 0 0 0 .91.07 1.74 1.74 0 0 0 1.4-1 16 16 0 0 0 .92-3 8.72 8.72 0 0 1 1.57-3.36c.47-.51 2.7-1.51 5.62-2.51.08-.36.17-.75.25-1.15s.2-.95.29-1.4a23.36 23.36 0 0 0 .48-4.23 16.54 16.54 0 0 0-.45-2.82 14.14 14.14 0 0 1-.4-2.82 14 14 0 0 1 .3-2.82 7.42 7.42 0 0 0 0-2.82 9.9 9.9 0 0 0-1.31-2.82 10.22 10.22 0 0 1-1.31-2.71 5.9 5.9 0 0 1 0-2.5 1.64 1.64 0 0 0-.35-1.65 4.07 4.07 0 0 0-2.34-.17c-.92.16-2.44.33-3.38.4H78.9A9.74 9.74 0 0 1 80 51z" fill="#231f20"/></svg>