<svg xmlns="http://www.w3.org/2000/svg" width="89.04" height="200" viewBox="0 0 89.04 200"><title>_</title><path d="M69.42 44.86a4.27 4.27 0 0 0-2-.11 19.52 19.52 0 0 1-3.89.26 17.58 17.58 0 0 1-3.72-.69 15.94 15.94 0 0 0-2.92-.59h-.22a50.09 50.09 0 0 0-5.85.6 27.07 27.07 0 0 0-5.33 1.24 4.42 4.42 0 0 0-1.17 1.31 4 4 0 0 0-.32 1.61 5.26 5.26 0 0 0 .65 1.8c.1.16.21.36.31.55a12.29 12.29 0 0 1 1 2.38 10.21 10.21 0 0 1 .27 2.4v.64c-.06.64-.12 1.66-.13 2.22s0 1.44.1 1.92a2.51 2.51 0 0 0 .5 1 7.25 7.25 0 0 0 1.74 1.19 5 5 0 0 0 2.15.4 7.74 7.74 0 0 0 2.52-.9c.2-.12.43-.23.67-.35a10.55 10.55 0 0 1 3.21-1 9.58 9.58 0 0 1 4 .6 15.59 15.59 0 0 0 2.87.79 12.86 12.86 0 0 0 2.75 0 3.84 3.84 0 0 0 1.29-.42 1.1 1.1 0 0 0 0-.5 20.43 20.43 0 0 1-.35-2.6 22.11 22.11 0 0 1 0-2.67 12.67 12.67 0 0 1 .67-2.9 16.36 16.36 0 0 1 1.46-2.81 5.09 5.09 0 0 0 .32-.67 5.83 5.83 0 0 0 .43-1.3 6.65 6.65 0 0 0-.2-2.26 2.49 2.49 0 0 0-.81-1.14zM33.24 45.95a4.23 4.23 0 0 0-1.47-.05c-.91.13-2.4.27-3.32.31s-2.43 0-3.38 0a19.64 19.64 0 0 1-3.58-.64A23.11 23.11 0 0 1 18 44.09a10.89 10.89 0 0 0-2.86-.92 7.39 7.39 0 0 0-.94-.05 11.07 11.07 0 0 0-2.09.19 4.24 4.24 0 0 0-1.74.81 2.2 2.2 0 0 0-.18 1.22 14.29 14.29 0 0 1 .17 3.29 12 12 0 0 1-.77 3.07A9.38 9.38 0 0 0 9 53.76a25.51 25.51 0 0 0 .58 4.46 13.58 13.58 0 0 0 1.25 3.83 7.42 7.42 0 0 0 1.94 1.17 7.56 7.56 0 0 0 2.54.44 8.25 8.25 0 0 0 1.89-.42A6.78 6.78 0 0 0 18 63a18.32 18.32 0 0 1 3.62-1.24 15.6 15.6 0 0 1 3.68-.22c.89.07 2.24.11 3 .1s2-.1 2.78-.19a6.51 6.51 0 0 0 1.92-.63 4.22 4.22 0 0 0 1.14-1.07 2.1 2.1 0 0 0 .24-1.05 5.21 5.21 0 0 0-.89-1.7 7.53 7.53 0 0 1-1.44-3.24 6.29 6.29 0 0 1 .44-2.85 4.91 4.91 0 0 1 .24-.55 9.67 9.67 0 0 0 .76-2 6.7 6.7 0 0 0 .05-1.85 1.18 1.18 0 0 0-.3-.56zM12.58 180.79c3.24-.7 9.08-1.69 13.89-2.34l5.12-.69c6.06-.82 10.58-1.58 11.16-1.76a16.94 16.94 0 0 0 2.6-1.11 18.58 18.58 0 0 0 2.4-1.66 13.38 13.38 0 0 0 1.9-2.07 12.87 12.87 0 0 0 1.26-2.46 18.31 18.31 0 0 0 .7-3.1 32 32 0 0 0 .17-3.94 24 24 0 0 1 .42-4.7 28.31 28.31 0 0 1 2.54-6c1.09-2 2.47-4.26 3.07-5.08a11.2 11.2 0 0 0 1.33-2.55 11.48 11.48 0 0 0 .44-2.87 17.32 17.32 0 0 1 .47-3.75 40.71 40.71 0 0 1 3.08-6.37 53.22 53.22 0 0 0 2.87-5.68 61.48 61.48 0 0 0 1.23-6.33c.44-2.86 1-5.83 1.23-6.77s.73-2.4 1.06-3.3.75-2.19 1-3 .54-2.26.69-3.12a11 11 0 0 1 1.47-3.66 14.46 14.46 0 0 1 2.92-3 7.23 7.23 0 0 0 1.85-2.14 5.88 5.88 0 0 0 .36-2.54 18.47 18.47 0 0 1 0-3.88 16.08 16.08 0 0 1 1-3.6c.14-.32.32-.8.53-1.34.32-.86.68-1.89 1-2.78a6.4 6.4 0 0 0 .36-2.5 5 5 0 0 0-1.56-1 7.81 7.81 0 0 0-2.78-.39 11.11 11.11 0 0 0-3.17 1 13.89 13.89 0 0 1-4.41 1.3 12.68 12.68 0 0 1-4.46-.61 20.78 20.78 0 0 0-3.51-.83 18.12 18.12 0 0 0-3.41 0 5 5 0 0 0-2.08.73 3 3 0 0 0-.7 1.47c-.11.9-.37 2.36-.58 3.25s-.64 2.33-1 3.22a19.33 19.33 0 0 1-1.58 3.25 23.1 23.1 0 0 1-2.34 3 11.38 11.38 0 0 0-1.68 2.41 27.05 27.05 0 0 0-.82 5.89 39.84 39.84 0 0 1-.84 6.88 15.77 15.77 0 0 1-1.63 3.32 15.66 15.66 0 0 0-1.34 2.58 45.43 45.43 0 0 0-1.17 6.19c-.76 5.58-1.69 6.2-2.58 6.35-1.46.26-2.84-1.39-3.23-1.91a17 17 0 0 1-1.83-3.39 14.81 14.81 0 0 1-.84-3.62 24 24 0 0 0-.47-3 23.86 23.86 0 0 0-.92-2.86c-.36-.87-.85-2.32-1.1-3.23s-1.08-5.79-1.69-9.79c-.71-4.68-1.44-8.7-1.65-9.38a25.38 25.38 0 0 0-1.12-2.81A18.4 18.4 0 0 1 25 81.2c-.07-.33-.14-.75-.2-1.19a25.11 25.11 0 0 1-.22-2.81 3.25 3.25 0 0 0-.64-1.87 5 5 0 0 0-2.4-.64c-1.27 0-4.2-.22-6.54-.47a43.48 43.48 0 0 0-5.87-.28 21.44 21.44 0 0 0-3.7.73 27.18 27.18 0 0 1-4.43.89 30.58 30.58 0 0 1-4.7 0 4.67 4.67 0 0 0-2.3.38 2.89 2.89 0 0 0-.36 1.66 13.16 13.16 0 0 0 .76 3.21 10.34 10.34 0 0 0 1.66 2.49 14.86 14.86 0 0 1 2.2 3.14A13.53 13.53 0 0 1-.67 90 20.08 20.08 0 0 0 0 93a19.76 19.76 0 0 0 1.15 2.7 24.57 24.57 0 0 0 1.69 2.61A28.94 28.94 0 0 0 5 100.78a8.92 8.92 0 0 1 2.1 3.53 9.94 9.94 0 0 1 0 4.2 19.43 19.43 0 0 0-.44 3.32 14.71 14.71 0 0 0 .3 3c.19.82.84 2.89 1.41 4.51a33 33 0 0 0 1.79 4.23c.43.73 2.19 3.26 3.76 5.41 1.28 1.75 3.3 4.86 3.63 6.25a14.19 14.19 0 0 1 .23 3.87 10.18 10.18 0 0 0 .21 2.84 9.09 9.09 0 0 0 1.19 2.43c.58.78 1.83 2.72 2.78 4.31.08.13 1.91 3.24 1.82 4.83a5.06 5.06 0 0 1-1.45 3 12.66 12.66 0 0 1-2.11 1.61 7.79 7.79 0 0 1-2.27.82 12.07 12.07 0 0 0-1.73.49c-.58.21-1.68.71-2.4 1.07s-1.92.92-2.45 1.13a7.87 7.87 0 0 1-2.72.43 8.62 8.62 0 0 0-1.26 0 3.36 3.36 0 0 0-.42.19 2.68 2.68 0 0 1-.47.21 11.14 11.14 0 0 1 .75 2.81c.14 1.73-2.12 8.82-2.25 9.13a47.74 47.74 0 0 0-1.8 7 1.83 1.83 0 0 0 .63.37 11.23 11.23 0 0 0 2 .37 49.79 49.79 0 0 0 5.62-1.14z"/><path d="M79.28 60.55a14.91 14.91 0 0 1 1.3-2.55 7.65 7.65 0 0 0 1-2.63 8.12 8.12 0 0 0-.24-2.87 3.83 3.83 0 0 0-1.56-2.08 5.51 5.51 0 0 0-2.94-.25 18.18 18.18 0 0 1-3.54.24c-.28 0-.62-.05-1-.1l-1-.17a6.53 6.53 0 0 1-.49.93 14.91 14.91 0 0 0-1.31 2.5 11.26 11.26 0 0 0-.58 2.5 20.77 20.77 0 0 0 0 2.46 19.17 19.17 0 0 0 .32 2.37 2.29 2.29 0 0 1-.41 1.85 4.42 4.42 0 0 1-2.22.88 14.18 14.18 0 0 1-3.15 0 16.86 16.86 0 0 1-3.22-.89 8.26 8.26 0 0 0-3.25-.5 9.19 9.19 0 0 0-2.68.83c0 .33-.06.75-.09 1.17s0 .87 0 1.18a20.94 20.94 0 0 0 .11 2.1 3.86 3.86 0 0 0 .88 1.82 8.73 8.73 0 0 0 2.19 1.52 6.63 6.63 0 0 0 2.94.55 9.12 9.12 0 0 0 3.15-1.11 9.41 9.41 0 0 1 3.25-1.12 8.26 8.26 0 0 1 3.25.5 16.86 16.86 0 0 0 3.22.89 14.18 14.18 0 0 0 3.15 0 4.42 4.42 0 0 0 2.22-.88 2.29 2.29 0 0 0 .42-1.81 19.17 19.17 0 0 1-.32-2.37 20.77 20.77 0 0 1 0-2.46 11.26 11.26 0 0 1 .6-2.5zM42.33 51.31a5.54 5.54 0 0 0-1.08 0c-.86.13-2.28.26-3.15.3s-2.29 0-3.18 0c-.28 0-.63-.06-1-.12a4.91 4.91 0 0 0-.35 2.12 6.17 6.17 0 0 0 1.14 2.5 6.34 6.34 0 0 1 1.15 2.37 3.5 3.5 0 0 1-.46 2.1 5.66 5.66 0 0 1-1.66 1.56 8 8 0 0 1-2.44.76c-.78.1-2.1.19-2.94.2s-2.25 0-3.15-.11a14.18 14.18 0 0 0-3.26.2 16.8 16.8 0 0 0-3.27 1.12 8.41 8.41 0 0 1-1 .37c0 .26.1.53.15.79v.2A12.28 12.28 0 0 0 19.47 70a8.67 8.67 0 0 0 2.47 1.53 9 9 0 0 0 3.17.55 10.18 10.18 0 0 0 3.24-.87 16.8 16.8 0 0 1 3.27-1.12 14.18 14.18 0 0 1 3.26-.2c.9.11 2.31.11 3.12.11s2.16-.1 2.94-.2a8 8 0 0 0 2.44-.76 5.66 5.66 0 0 0 1.66-1.56 3.5 3.5 0 0 0 .46-2.1A6.34 6.34 0 0 0 44.39 63a6.17 6.17 0 0 1-1.14-2.5 4.81 4.81 0 0 1 .26-1.9 4 4 0 0 1 .25-.6 11 11 0 0 0 .9-2.43 8.71 8.71 0 0 0-.22-2 10.89 10.89 0 0 0-.84-2.05 3.87 3.87 0 0 0-1.27-.21zM89.41 81.25a9 9 0 0 0-3.46-.49 12.38 12.38 0 0 0-3.72 1.15L82 82a11.1 11.1 0 0 1-1.25.5c-.22.58-.41 1.09-.56 1.42a14.59 14.59 0 0 0-.89 3.2 17.05 17.05 0 0 0 0 3.5 7.37 7.37 0 0 1-.47 3.38 8.66 8.66 0 0 1-2.32 2.71 12.92 12.92 0 0 0-2.57 2.63 9.61 9.61 0 0 0-1.24 3.08c-.16.91-.48 2.38-.72 3.26s-.7 2.3-1 3.16-.78 2.28-1 3.16-.78 3.86-1.2 6.61a61.43 61.43 0 0 1-1.29 6.57 53.06 53.06 0 0 1-3 6 40.11 40.11 0 0 0-2.93 6 15.79 15.79 0 0 0-.42 3.36 12.9 12.9 0 0 1-.51 3.33 12.7 12.7 0 0 1-1.54 3c-.57.77-1.9 3-3 4.91a27.23 27.23 0 0 0-2.38 5.58 22.2 22.2 0 0 0-.39 4.34 33.38 33.38 0 0 1-.18 4.16 19.82 19.82 0 0 1-.78 3.42 14.27 14.27 0 0 1-1.48 2.72 14.8 14.8 0 0 1-2.16 2.35 20.09 20.09 0 0 1-2.64 1.83 18.57 18.57 0 0 1-2.88 1.23c-.82.26-6 1.07-11.41 1.81l-5.12.69c-4.83.65-10.62 1.63-13.77 2.32-.11.37-.22.74-.32 1.1-.81 2.85-1.28 5.15-1.1 5.55a2.94 2.94 0 0 0 1.69 1.29 12.53 12.53 0 0 0 2.34.42 41 41 0 0 0 6-1.17c2.72-.67 9.41-1.83 14.86-2.57l5.12-.69c5.45-.74 10.58-1.55 11.41-1.81a18.57 18.57 0 0 0 2.88-1.23 20.09 20.09 0 0 0 2.64-1.83A14.8 14.8 0 0 0 60.6 179a14.27 14.27 0 0 0 1.4-2.85 19.82 19.82 0 0 0 .78-3.42 33.38 33.38 0 0 0 .18-4.16 22.2 22.2 0 0 1 .39-4.34 27.23 27.23 0 0 1 2.38-5.58c1.07-1.93 2.4-4.14 3-4.91a12.7 12.7 0 0 0 1.54-3 12.9 12.9 0 0 0 .51-3.33 15.79 15.79 0 0 1 .42-3.36 40.11 40.11 0 0 1 2.93-6 53.06 53.06 0 0 0 3-6 61.43 61.43 0 0 0 1.29-6.57c.42-2.75 1-5.72 1.2-6.61s.7-2.3 1-3.16.78-2.27 1-3.16.57-2.35.72-3.26a9.61 9.61 0 0 1 1.24-3.08 12.92 12.92 0 0 1 2.57-2.63 8.66 8.66 0 0 0 2.32-2.71 7.37 7.37 0 0 0 .53-3.31 17.05 17.05 0 0 1 0-3.5 14.59 14.59 0 0 1 .89-3.2c.41-.86 1.11-2.76 1.6-4.26s.59-3.17.24-3.71a5.74 5.74 0 0 0-2.32-1.64zM38.43 94.05a26.8 26.8 0 0 0-1.2-3 17 17 0 0 1-1.08-3.21 22.69 22.69 0 0 1-.39-3.71 4.56 4.56 0 0 0-1.15-3 6.07 6.07 0 0 0-3.38-1c-.82 0-2.35-.1-3.95-.23l-1-.09c.05.4.11.78.18 1.08a17 17 0 0 0 1.08 3.21 26.8 26.8 0 0 1 1.2 3c.27.85 1 5.17 1.7 9.6s1.41 8.76 1.65 9.61.71 2.23 1 3.06a25.25 25.25 0 0 1 1 3.08 25.7 25.7 0 0 1 .5 3.21 13.23 13.23 0 0 0 .74 3.18 15.48 15.48 0 0 0 1.71 3 2.93 2.93 0 0 0 1.77 1.33c.37-.06 1-2.35 1.35-5.07a46.11 46.11 0 0 1 1.24-6.48c-.09-.5-.2-1.09-.31-1.73-.3-1.75-.66-4-1-6.21-.63-4.46-1.4-8.78-1.66-9.63z"/></svg>