<svg xmlns="http://www.w3.org/2000/svg" xmlns:xlink="http://www.w3.org/1999/xlink" width="200" height="200" viewBox="0 0 200 200"><defs><linearGradient id="a" x1="74.36" y1="151.38" x2="107.71" y2="76.48" gradientUnits="userSpaceOnUse"><stop offset="0" stop-color="#fdba56"/><stop offset="0.02" stop-color="#fbb055"/><stop offset="0.06" stop-color="#f79d54"/><stop offset="0.1" stop-color="#f59253"/><stop offset="0.15" stop-color="#f48e53"/><stop offset="0.3" stop-color="#ed5e4e"/><stop offset="0.47" stop-color="#683a96" stop-opacity="0.5"/><stop offset="0.64" stop-color="#ed872b"/><stop offset="0.79" stop-color="#7b76b6"/><stop offset="0.9" stop-color="#f15f4f"/><stop offset="1" stop-color="#fdba56"/></linearGradient><linearGradient id="b" x1="86.73" y1="89.3" x2="117.88" y2="159.26" gradientUnits="userSpaceOnUse"><stop offset="0" stop-color="#b7151b"/><stop offset="0.02" stop-color="#c52229"/><stop offset="0.06" stop-color="#d7333c"/><stop offset="0.11" stop-color="#e23d47"/><stop offset="0.15" stop-color="#e6404b"/><stop offset="0.3" stop-color="#e98a7b"/><stop offset="0.47" stop-color="#7c78b8"/><stop offset="0.64" stop-color="#00b0b0"/><stop offset="0.79" stop-color="#7b76b6"/><stop offset="1" stop-color="#e7322f"/></linearGradient></defs><title>_</title><path d="M107.18,80.07V79.83a14.46,14.46,0,0,0-.76-2.62A5.58,5.58,0,0,0,105,75.36a7.83,7.83,0,0,0-2.54-1c-0.93-.19-2.54-0.41-3.52-0.48s-5.78,0-11.68.13A62.88,62.88,0,0,0,77,74.82a25.83,25.83,0,0,0-.74,6.62c-0.06,3.9,0,7.35.12,8.13,0.15,1.1.21,5.21,0.18,8.55,0,3.68.08,8.16,0.26,10a35.16,35.16,0,0,1,.18,5.24,20.93,20.93,0,0,1-.72,3.56,32.66,32.66,0,0,0-.79,3.24,55.13,55.13,0,0,0-.22,6.54,112.39,112.39,0,0,0,1,11.64,79,79,0,0,1,.87,8.68,20.61,20.61,0,0,1-.65,3.85,2.69,2.69,0,0,0,0,1.47,13.77,13.77,0,0,0,4.19-.26c1.63-.3,3.59-0.59,5-0.76,0.55-.06,1-0.11,1.34-0.12h0.69a25.47,25.47,0,0,1,3.54.25,26.91,26.91,0,0,1,4.2,1.1,19.31,19.31,0,0,0,3.77.89,18,18,0,0,0,3.77-.1,5.49,5.49,0,0,0,2.34-1c0.32-.76.82-4.78,0.93-10.39v-0.24c0.11-5.48,0-12.18-.27-14.93a48.17,48.17,0,0,1-.25-6.95,21,21,0,0,1,.85-3.56,12.27,12.27,0,0,0,.58-3.06,12,12,0,0,0-.41-3.05,19,19,0,0,1-.64-3.58,18.43,18.43,0,0,1,.2-3.59,21,21,0,0,0,.25-3.18,21.32,21.32,0,0,0-.35-3.18,16.35,16.35,0,0,1,.13-7.16c0.22-.9.5-2.37,0.64-3.28s0.29-2.38.33-3.27a17.82,17.82,0,0,0-.11-2.78Z" fill="url(#a)"/><path d="M108.18,79.75h0a18.08,18.08,0,0,1,.15,3.22c-0.05.92-.21,2.44-0.34,3.36s-0.43,2.44-.65,3.36a18.89,18.89,0,0,0-.44,3.36,18.66,18.66,0,0,0,.31,3.36,18.12,18.12,0,0,1,.11,6.72,17.55,17.55,0,0,0-.18,3.36,18.3,18.3,0,0,0,.6,3.36,13,13,0,0,1,.45,3.36,13.36,13.36,0,0,1-.63,3.36,20.08,20.08,0,0,0-.8,3.36,47.17,47.17,0,0,0,.25,6.73c0.26,2.77.38,9.54,0.27,15V142c-0.11,5.5-.63,10.45-1.15,11a6.06,6.06,0,0,1-3,1.32,18.85,18.85,0,0,1-4,.1,20.15,20.15,0,0,1-4-.95,25.85,25.85,0,0,0-4-1.06,23.72,23.72,0,0,0-4-.22c-0.31,0-.76.06-1.28,0.12,0,0.39.05,0.72,0.06,1s0,0.46,0,.6a19.8,19.8,0,0,1-.61,3.63,2.82,2.82,0,0,0,.28,2.54c0.44,0.38,2.7.34,5-.08s5.12-.81,6.23-0.86a23.72,23.72,0,0,1,4,.22,25.85,25.85,0,0,1,4,1.06,20.15,20.15,0,0,0,4,.95,18.85,18.85,0,0,0,4-.1,6.06,6.06,0,0,0,3-1.32c0.52-.55,1-5.51,1.15-11v-0.24c0.11-5.5,0-12.27-.27-15a47.17,47.17,0,0,1-.25-6.73,20.08,20.08,0,0,1,.8-3.36,13.36,13.36,0,0,0,.63-3.36,13,13,0,0,0-.45-3.36,18.3,18.3,0,0,1-.6-3.36,17.55,17.55,0,0,1,.18-3.36,18.12,18.12,0,0,0-.11-6.72,18.66,18.66,0,0,1-.31-3.36,18.89,18.89,0,0,1,.44-3.36c0.22-.92.52-2.44,0.65-3.36s0.29-2.44.34-3.36a18.08,18.08,0,0,0-.15-3.22,15.3,15.3,0,0,0-.84-2.93,6.49,6.49,0,0,0-1.77-2.27,8.76,8.76,0,0,0-2.94-1.23c-0.83-.17-2.14-0.35-3.15-0.46l-0.49,0Z" fill="url(#b)"/></svg>