<svg xmlns="http://www.w3.org/2000/svg" xmlns:xlink="http://www.w3.org/1999/xlink" width="87.39" height="200" viewBox="0 0 87.39 200"><defs><linearGradient id="a" x1="18.28" y1="97.56" x2="42.11" y2="44.05" gradientUnits="userSpaceOnUse"><stop offset="0" stop-color="#fdba56"/><stop offset=".02" stop-color="#fbb055"/><stop offset=".06" stop-color="#f79d54"/><stop offset=".1" stop-color="#f59253"/><stop offset=".15" stop-color="#f48e53"/><stop offset=".3" stop-color="#ed5e4e"/><stop offset=".47" stop-color="#683a96" stop-opacity=".5"/><stop offset=".64" stop-color="#ed872b"/><stop offset=".79" stop-color="#7b76b6"/><stop offset=".9" stop-color="#f15f4f"/><stop offset="1" stop-color="#fdba56"/></linearGradient><linearGradient id="c" x1="56.32" y1="97.56" x2="80.15" y2="44.04" xlink:href="#a"/><linearGradient id="b" x1="31.72" y1="79.59" x2="43.72" y2="106.56" gradientUnits="userSpaceOnUse"><stop offset="0" stop-color="#b7151b"/><stop offset=".02" stop-color="#c52229"/><stop offset=".06" stop-color="#d7333c"/><stop offset=".11" stop-color="#e23d47"/><stop offset=".15" stop-color="#e6404b"/><stop offset=".3" stop-color="#e98a7b"/><stop offset=".47" stop-color="#7c78b8"/><stop offset=".64" stop-color="#00b0b0"/><stop offset=".79" stop-color="#7b76b6"/><stop offset="1" stop-color="#e7322f"/></linearGradient><linearGradient id="d" x1="36.04" y1="51.67" x2="42.8" y2="66.85" xlink:href="#b"/><linearGradient id="e" x1="74.08" y1="51.67" x2="80.84" y2="66.85" xlink:href="#b"/><linearGradient id="f" x1="69.86" y1="79.54" x2="81.86" y2="106.49" xlink:href="#b"/></defs><title>_</title><path d="M39.67 49.08a14.54 14.54 0 0 1-.21-1.7 14.32 14.32 0 0 1 0-1.7 12.93 12.93 0 0 0 0-1.41 12 12 0 0 0-.16-1.36.4.4 0 0 0-.14-.16 4.32 4.32 0 0 0-1.39.16 21.48 21.48 0 0 1-2.75.53 26.52 26.52 0 0 1-2.93.13 11 11 0 0 0-2.47.3 24.3 24.3 0 0 0-4.43 2.73 59 59 0 0 0-5.44 4.51 15 15 0 0 0-2.49 3.12 10 10 0 0 0-.64 2.58 21.44 21.44 0 0 1-.58 3.28 23 23 0 0 1-1.19 3.17 15.54 15.54 0 0 0-1 2.81 15.46 15.46 0 0 0-.27 3 32.27 32.27 0 0 1-.12 3.34 30 30 0 0 1-.46 3.21 11.68 11.68 0 0 0-.24 2.75 12.36 12.36 0 0 0 .58 2.77 12.16 12.16 0 0 1 .66 3.37 12.06 12.06 0 0 1-.56 3.37 15.05 15.05 0 0 0-.78 5.88 2.62 2.62 0 0 0 .67 1.58 22.15 22.15 0 0 0 5.72.14c.87-.06 1.76-.11 2.62-.14.54 0 1.89-.08 3.08-.08a16.06 16.06 0 0 1 1.66.06A31.6 31.6 0 0 1 30 96a27.34 27.34 0 0 0 3.48.64 31.31 31.31 0 0 0 3.73.11 3.19 3.19 0 0 0 1.94-.69 3.58 3.58 0 0 0 0-2.2 17.9 17.9 0 0 1-.58-4.15 15.15 15.15 0 0 1 .64-3.95 27.9 27.9 0 0 0 .84-3.37 63.09 63.09 0 0 0 .22-7v-.1a29 29 0 0 0-.46-5.7.72.72 0 0 0-.42-.12h-.28a13.46 13.46 0 0 1-1.77.18 9.09 9.09 0 0 1-1.88-.19 10.83 10.83 0 0 0-1.38-.21c-.33 0-1.64 0-3 .07-1.87.09-3-.11-3.46-.63a2.64 2.64 0 0 1-.42-2 12.81 12.81 0 0 0 .12-1.41 11.66 11.66 0 0 0 .01-1.28 3.39 3.39 0 0 1 1.4-3.3 1.89 1.89 0 0 0 .49-.62 2.48 2.48 0 0 0 .05-.93 3.44 3.44 0 0 1 .25-1.95 2.79 2.79 0 0 1 1.54-1.2 8.46 8.46 0 0 0 1.1-.45c.21-.11 1.11-.71 2.09-1.44A11.25 11.25 0 0 1 37 52.59a6.82 6.82 0 0 1 1.85-.14 1.44 1.44 0 0 0 .65-.11 1.53 1.53 0 0 0 .23-.51 9 9 0 0 0 .13-1.37c0-.21 0-.49-.05-.76s-.11-.45-.14-.62z" fill="url(#a)"/><path d="M51.34 95.34a22.14 22.14 0 0 0 5.72.15c.87-.06 1.76-.11 2.62-.14.54 0 1.9-.07 3.09-.07a16.17 16.17 0 0 1 1.64.06 32.26 32.26 0 0 1 3.66.7 27.65 27.65 0 0 0 3.48.63 31.68 31.68 0 0 0 3.73.11 3.21 3.21 0 0 0 1.93-.69 3.57 3.57 0 0 0 0-2.19 18.06 18.06 0 0 1-.57-4.14 15.35 15.35 0 0 1 .63-3.94 28.26 28.26 0 0 0 .82-3.38 63.84 63.84 0 0 0 .21-7 29.71 29.71 0 0 0-.46-5.8.7.7 0 0 0-.42-.12l-.32.05a13.16 13.16 0 0 1-1.73.17 9.82 9.82 0 0 1-1.88-.19 10.8 10.8 0 0 0-1.38-.2c-.34 0-1.61 0-3 .07-1.86.09-3-.11-3.46-.63a2.64 2.64 0 0 1-.43-2 13.05 13.05 0 0 0 .12-1.41 11.78 11.78 0 0 0 .03-1.38 3.42 3.42 0 0 1 1.39-3.29 1.94 1.94 0 0 0 .49-.62 2.51 2.51 0 0 0 .06-.93 3.45 3.45 0 0 1 .26-1.94A2.81 2.81 0 0 1 69.1 56a8.83 8.83 0 0 0 1.1-.45c.21-.11 1.11-.71 2.09-1.43A11.24 11.24 0 0 1 75 52.6a6.7 6.7 0 0 1 1.85-.14 1.54 1.54 0 0 0 .64-.12 1.53 1.53 0 0 0 .23-.51 9.22 9.22 0 0 0 .13-1.37c0-.21 0-.49-.05-.76s-.05-.44-.08-.61a14.77 14.77 0 0 1-.21-1.7 14.58 14.58 0 0 1 0-1.7 13.24 13.24 0 0 0 0-1.41 12.24 12.24 0 0 0-.16-1.36.39.39 0 0 0-.14-.16 4.4 4.4 0 0 0-1.39.15 22.28 22.28 0 0 1-2.75.53 25.79 25.79 0 0 1-2.93.14 9.93 9.93 0 0 0-2.47.31 10.31 10.31 0 0 0-2.25 1c-.63.41-2.14 1.51-3.36 2.46S59 50 57.85 51.13a15.09 15.09 0 0 0-2.5 3.13 10.09 10.09 0 0 0-.65 2.58 21.78 21.78 0 0 1-.59 3.27 23.58 23.58 0 0 1-1.18 3.16 15.6 15.6 0 0 0-1 2.82 15.6 15.6 0 0 0-.27 3 32.76 32.76 0 0 1-.12 3.34 30.69 30.69 0 0 1-.52 3.23v.27a12.08 12.08 0 0 0-.19 2.49 12.58 12.58 0 0 0 .57 2.77 10.14 10.14 0 0 1 0 6.73 15.31 15.31 0 0 0-.76 5.89 2.69 2.69 0 0 0 .7 1.53z" fill="url(#c)"/><path d="M49.68 93.83a20 20 0 0 1 .1-3.18 19.77 19.77 0 0 1 .71-3.09 9.14 9.14 0 0 0 0-6.08 13.57 13.57 0 0 1-.62-3A13 13 0 0 1 50 75.7a1.57 1.57 0 0 0-1-.25 12.25 12.25 0 0 1-1.86.21 8.47 8.47 0 0 1-1.65-.17 11.76 11.76 0 0 0-1.54-.23h-2.58v.09a63.75 63.75 0 0 1-.23 7.19 28.61 28.61 0 0 1-.87 3.52 14.26 14.26 0 0 0-.59 3.64 17 17 0 0 0 .55 3.88 4.3 4.3 0 0 1-.16 3 3.91 3.91 0 0 1-2.72 1.12 32.42 32.42 0 0 1-3.88-.11 28.18 28.18 0 0 1-3.69-.59 30.5 30.5 0 0 0-3.52-.69 40.11 40.11 0 0 0-4.58 0c-.08.36-.14.7-.19 1v.24a19.72 19.72 0 0 0-.1 3.18 3.49 3.49 0 0 0 1.08 2.32c.54.39 3.41.54 6.38.33a59 59 0 0 1 7.17-.16 30.5 30.5 0 0 1 3.52.69 28.18 28.18 0 0 0 3.64.67 32.42 32.42 0 0 0 3.88.11 3.91 3.91 0 0 0 2.72-1.12 4.3 4.3 0 0 0 .16-3 17 17 0 0 1-.55-3.87v-.66a16 16 0 0 1 .32-2.11s-.03-.07-.03-.1z" fill="url(#b)"/><path d="M40.81 50.45a10 10 0 0 1-.15 1.55 2.11 2.11 0 0 1-.66 1.15 2.27 2.27 0 0 1-1.3.29 5.71 5.71 0 0 0-1.53.11A10.44 10.44 0 0 0 34.85 55a25.67 25.67 0 0 1-2.23 1.52 9.52 9.52 0 0 1-1.26.51 1.83 1.83 0 0 0-.95.72 2.49 2.49 0 0 0-.15 1.25 3.37 3.37 0 0 1-.1 1.44 2.83 2.83 0 0 1-.83 1.07 2.39 2.39 0 0 0-1 2.37 12.61 12.61 0 0 1 .08 1.5 13.8 13.8 0 0 1-.15 1.62 1.72 1.72 0 0 0 .2 1.17 5.56 5.56 0 0 0 2.64.27c1.27-.07 2.66-.1 3.08-.07a11.76 11.76 0 0 1 1.54.23 8.47 8.47 0 0 0 1.65.17 12.07 12.07 0 0 0 1.55-.15l.11-.1a2.89 2.89 0 0 0 .77-1l.06-.12A3.37 3.37 0 0 0 40 66a2.49 2.49 0 0 1 .14-1.32 1.83 1.83 0 0 1 .95-.72 9.52 9.52 0 0 0 1.26-.51 25.67 25.67 0 0 0 2.23-1.52 10.44 10.44 0 0 1 2.35-1.4 5.71 5.71 0 0 1 1.53-.11 2.27 2.27 0 0 0 1.3-.29 2.11 2.11 0 0 0 .61-1.13 8.16 8.16 0 0 0 0-3.12 13.65 13.65 0 0 1-.2-1.56 13.35 13.35 0 0 1 0-1.56 13.94 13.94 0 0 0 0-1.54 13.1 13.1 0 0 0-.17-1.5 1.3 1.3 0 0 0-.83-.93 4.64 4.64 0 0 0-1.95.15 20.84 20.84 0 0 1-2.6.5 24.5 24.5 0 0 1-2.79.12h-.08c-.3 0-.64 0-1 .06.03.27.06.59.06.83z" fill="url(#d)"/><path d="M78.84 50.45A10.13 10.13 0 0 1 78.7 52a2.11 2.11 0 0 1-.63 1.14 2.26 2.26 0 0 1-1.3.3 5.76 5.76 0 0 0-1.53.12A10.51 10.51 0 0 0 72.89 55a26.63 26.63 0 0 1-2.23 1.52 9.68 9.68 0 0 1-1.26.48 1.85 1.85 0 0 0-.95.72A2.5 2.5 0 0 0 68.3 59a3.4 3.4 0 0 1-.11 1.43 2.87 2.87 0 0 1-.83 1.07 3.07 3.07 0 0 0-.84 1 3.11 3.11 0 0 0-.16 1.34 12.86 12.86 0 0 1 .08 1.5A14.08 14.08 0 0 1 66.3 67a1.73 1.73 0 0 0 .2 1.17 5.57 5.57 0 0 0 2.64.27c1.27-.07 2.66-.1 3.08-.07a12 12 0 0 1 1.54.23 8.57 8.57 0 0 0 1.65.17 12.18 12.18 0 0 0 1.59-.2l.11-.1a2.93 2.93 0 0 0 .77-1l.06-.12A3.4 3.4 0 0 0 78 66a2.5 2.5 0 0 1 .15-1.31 1.85 1.85 0 0 1 .95-.72 9.68 9.68 0 0 0 1.26-.52 26.63 26.63 0 0 0 2.24-1.55 10.51 10.51 0 0 1 2.35-1.39 5.76 5.76 0 0 1 1.53-.12 2.26 2.26 0 0 0 1.3-.3 2.11 2.11 0 0 0 .63-1.09 8.29 8.29 0 0 0 0-3.12 13.85 13.85 0 0 1-.19-1.56 13.55 13.55 0 0 1 0-1.56 14.19 14.19 0 0 0 0-1.54 13.3 13.3 0 0 0-.17-1.5 1.3 1.3 0 0 0-.83-.94 4.64 4.64 0 0 0-2 .15 21.46 21.46 0 0 1-2.6.5 25.08 25.08 0 0 1-2.79.13h-.05c-.3 0-.64 0-1 .06.04.27.06.59.06.83z" fill="url(#e)"/><path d="M88.83 89.54a64.7 64.7 0 0 0 .23-7.19c0-3-.29-5.8-.57-6.25a1.54 1.54 0 0 0-1.5-.64 12.37 12.37 0 0 1-1.86.2 8.57 8.57 0 0 1-1.65-.17 12 12 0 0 0-1.54-.23h-2.6v.09a64.7 64.7 0 0 1-.23 7.19 29 29 0 0 1-.86 3.52 14.46 14.46 0 0 0-.58 3.64 17.22 17.22 0 0 0 .54 3.87 4.3 4.3 0 0 1-.17 3 3.91 3.91 0 0 1-2.71 1.12 32.8 32.8 0 0 1-3.87-.11 28.59 28.59 0 0 1-3.64-.58 31 31 0 0 0-3.52-.68 40.71 40.71 0 0 0-4.57 0c-.08.36-.14.7-.19 1v.23a20 20 0 0 0-.1 3.18 3.49 3.49 0 0 0 1.07 2.32c.53.39 3.4.54 6.38.34a59.88 59.88 0 0 1 7.17-.16 31 31 0 0 1 3.52.68 28.59 28.59 0 0 0 3.64.66 32.8 32.8 0 0 0 3.87.11 3.91 3.91 0 0 0 2.71-1.12 4.3 4.3 0 0 0 .17-3 17.22 17.22 0 0 1-.54-3.87 14.46 14.46 0 0 1 .57-3.63 29 29 0 0 0 .83-3.52z" fill="url(#f)"/></svg>