<svg xmlns="http://www.w3.org/2000/svg" xmlns:xlink="http://www.w3.org/1999/xlink" width="200" height="200" viewBox="0 0 200 200"><defs><linearGradient id="a" x1="68.4" y1="96.19" x2="92.23" y2="42.67" gradientUnits="userSpaceOnUse"><stop offset="0" stop-color="#fdba56"/><stop offset="0.02" stop-color="#fbb055"/><stop offset="0.06" stop-color="#f79d54"/><stop offset="0.1" stop-color="#f59253"/><stop offset="0.15" stop-color="#f48e53"/><stop offset="0.3" stop-color="#ed5e4e"/><stop offset="0.47" stop-color="#683a96" stop-opacity="0.5"/><stop offset="0.64" stop-color="#ed872b"/><stop offset="0.79" stop-color="#7b76b6"/><stop offset="0.9" stop-color="#f15f4f"/><stop offset="1" stop-color="#fdba56"/></linearGradient><linearGradient id="b" x1="106.44" y1="96.18" x2="130.27" y2="42.66" xlink:href="#a"/><linearGradient id="c" x1="81.84" y1="78.21" x2="93.84" y2="105.18" gradientUnits="userSpaceOnUse"><stop offset="0" stop-color="#b7151b"/><stop offset="0.02" stop-color="#c52229"/><stop offset="0.06" stop-color="#d7333c"/><stop offset="0.11" stop-color="#e23d47"/><stop offset="0.15" stop-color="#e6404b"/><stop offset="0.3" stop-color="#e98a7b"/><stop offset="0.47" stop-color="#7c78b8"/><stop offset="0.64" stop-color="#00b0b0"/><stop offset="0.79" stop-color="#7b76b6"/><stop offset="1" stop-color="#e7322f"/></linearGradient><linearGradient id="d" x1="86.16" y1="50.3" x2="92.92" y2="65.47" xlink:href="#c"/><linearGradient id="e" x1="124.2" y1="50.3" x2="130.96" y2="65.47" xlink:href="#c"/><linearGradient id="f" x1="119.98" y1="78.17" x2="131.98" y2="105.12" xlink:href="#c"/></defs><title>_</title><path d="M89.79,47.7a14.54,14.54,0,0,1-.21-1.7,14.32,14.32,0,0,1,0-1.7,12.93,12.93,0,0,0,0-1.41,12,12,0,0,0-.16-1.36,0.4,0.4,0,0,0-.14-0.16,4.32,4.32,0,0,0-1.39.16,21.48,21.48,0,0,1-2.75.53,26.52,26.52,0,0,1-2.93.13,11,11,0,0,0-2.47.3,24.3,24.3,0,0,0-4.43,2.73,59,59,0,0,0-5.44,4.51,15,15,0,0,0-2.49,3.12,10,10,0,0,0-.64,2.58,21.44,21.44,0,0,1-.58,3.28A23,23,0,0,1,65,61.9a15.54,15.54,0,0,0-1,2.81,15.46,15.46,0,0,0-.27,3A32.27,32.27,0,0,1,63.67,71a30,30,0,0,1-.53,3.23A11.68,11.68,0,0,0,62.9,77a12.36,12.36,0,0,0,.58,2.77,10,10,0,0,1,.05,6.74,15.05,15.05,0,0,0-.78,5.88A2.62,2.62,0,0,0,63.42,94a22.15,22.15,0,0,0,5.72.14C70,94.05,70.9,94,71.76,94c0.54,0,1.89-.08,3.08-0.08A16.06,16.06,0,0,1,76.5,94a31.6,31.6,0,0,1,3.66.71,27.34,27.34,0,0,0,3.48.64,31.31,31.31,0,0,0,3.73.11,3.19,3.19,0,0,0,1.94-.69,3.58,3.58,0,0,0,0-2.2,17.9,17.9,0,0,1-.58-4.15,15.15,15.15,0,0,1,.64-3.95,27.9,27.9,0,0,0,.84-3.37,63.09,63.09,0,0,0,.22-7v-0.1a29,29,0,0,0-.46-5.7,0.72,0.72,0,0,0-.42-0.12l-0.28,0a13.46,13.46,0,0,1-1.77.18,9.09,9.09,0,0,1-1.88-.19,10.83,10.83,0,0,0-1.38-.21c-0.33,0-1.64,0-3,.07-1.87.09-3-.11-3.46-0.63a2.64,2.64,0,0,1-.42-2A12.81,12.81,0,0,0,77.52,64a11.66,11.66,0,0,0-.07-1.36,3.39,3.39,0,0,1,1.4-3.3,1.89,1.89,0,0,0,.49-0.62,2.48,2.48,0,0,0,.05-0.93,3.44,3.44,0,0,1,.25-1.95,2.79,2.79,0,0,1,1.53-1.2,8.46,8.46,0,0,0,1.1-.45c0.21-.11,1.11-0.71,2.09-1.44a11.25,11.25,0,0,1,2.7-1.57,6.82,6.82,0,0,1,1.85-.14A1.44,1.44,0,0,0,89.57,51a1.53,1.53,0,0,0,.23-0.51,9,9,0,0,0,.13-1.37c0-.21,0-0.49-0.05-0.76S89.82,47.87,89.79,47.7Z" fill="url(#a)"/><path d="M101.46,94a22.14,22.14,0,0,0,5.72.15c0.87-.06,1.76-0.11,2.62-0.14,0.54,0,1.9-.07,3.09-0.07a16.17,16.17,0,0,1,1.64.06,32.26,32.26,0,0,1,3.66.7,27.65,27.65,0,0,0,3.48.63,31.68,31.68,0,0,0,3.73.11,3.21,3.21,0,0,0,1.93-.69,3.57,3.57,0,0,0,0-2.19,18.06,18.06,0,0,1-.57-4.14,15.35,15.35,0,0,1,.63-3.94,28.26,28.26,0,0,0,.82-3.38,63.84,63.84,0,0,0,.21-7,29.71,29.71,0,0,0-.46-5.8,0.7,0.7,0,0,0-.42-0.12l-0.32.05a13.16,13.16,0,0,1-1.73.17,9.82,9.82,0,0,1-1.88-.19,10.8,10.8,0,0,0-1.38-.2c-0.34,0-1.61,0-3,.07-1.86.09-3-.11-3.46-0.63a2.64,2.64,0,0,1-.43-2,13.05,13.05,0,0,0,.12-1.41,11.78,11.78,0,0,0-.07-1.36,3.42,3.42,0,0,1,1.39-3.29,1.94,1.94,0,0,0,.49-0.62,2.51,2.51,0,0,0,.06-0.93,3.45,3.45,0,0,1,.26-1.94,2.81,2.81,0,0,1,1.53-1.2,8.83,8.83,0,0,0,1.1-.45c0.21-.11,1.11-0.71,2.09-1.43a11.24,11.24,0,0,1,2.7-1.56,6.7,6.7,0,0,1,1.85-.14,1.54,1.54,0,0,0,.64-0.12,1.53,1.53,0,0,0,.23-0.51,9.22,9.22,0,0,0,.13-1.37c0-.21,0-0.49-0.05-0.76s-0.05-.44-0.08-0.61a14.77,14.77,0,0,1-.21-1.7,14.58,14.58,0,0,1,0-1.7,13.24,13.24,0,0,0,0-1.41,12.24,12.24,0,0,0-.16-1.36,0.39,0.39,0,0,0-.14-0.16,4.4,4.4,0,0,0-1.39.15,22.28,22.28,0,0,1-2.75.53,25.79,25.79,0,0,1-2.93.14,9.93,9.93,0,0,0-2.47.31,10.31,10.31,0,0,0-2.25,1c-0.63.41-2.14,1.51-3.36,2.46s-3.12,2.63-4.26,3.76a15.09,15.09,0,0,0-2.5,3.13,10.09,10.09,0,0,0-.65,2.58,21.78,21.78,0,0,1-.59,3.27A23.58,23.58,0,0,1,103,61.89a15.6,15.6,0,0,0-1,2.82,15.6,15.6,0,0,0-.27,3,32.76,32.76,0,0,1-.12,3.34,30.69,30.69,0,0,1-.52,3.23l0,0.27a12.08,12.08,0,0,0-.19,2.49,12.58,12.58,0,0,0,.57,2.77,10.14,10.14,0,0,1,0,6.73,15.31,15.31,0,0,0-.76,5.89A2.69,2.69,0,0,0,101.46,94Z" fill="url(#b)"/><path d="M99.8,92.45a20,20,0,0,1,.1-3.18,19.77,19.77,0,0,1,.71-3.09,9.14,9.14,0,0,0,0-6.08,13.57,13.57,0,0,1-.62-3,13,13,0,0,1,.2-2.73,1.57,1.57,0,0,0-1-.25H99.07a12.25,12.25,0,0,1-1.86.21,8.47,8.47,0,0,1-1.65-.17A11.76,11.76,0,0,0,94,73.89c-0.26,0-.86,0-1.58,0l-1,0s0,0.06,0,.09a63.75,63.75,0,0,1-.23,7.19,28.61,28.61,0,0,1-.87,3.52,14.26,14.26,0,0,0-.59,3.64,17,17,0,0,0,.55,3.88,4.3,4.3,0,0,1-.16,3,3.91,3.91,0,0,1-2.72,1.12,32.42,32.42,0,0,1-3.88-.11,28.18,28.18,0,0,1-3.64-.67,30.5,30.5,0,0,0-3.52-.69,40.11,40.11,0,0,0-4.58,0c-0.08.36-.14,0.7-0.19,1,0,0.08,0,.17,0,0.24a19.72,19.72,0,0,0-.1,3.18,3.49,3.49,0,0,0,1.08,2.32c0.54,0.39,3.41.54,6.38,0.33a59,59,0,0,1,7.17-.16,30.5,30.5,0,0,1,3.52.69,28.18,28.18,0,0,0,3.64.67,32.42,32.42,0,0,0,3.88.11,3.91,3.91,0,0,0,2.72-1.12,4.3,4.3,0,0,0,.16-3,17,17,0,0,1-.55-3.87c0-.2,0-0.43,0-0.66a16,16,0,0,1,.32-2.11S99.8,92.49,99.8,92.45Z" fill="url(#c)"/><path d="M90.93,49.07a10,10,0,0,1-.15,1.56,2.11,2.11,0,0,1-.63,1.14,2.27,2.27,0,0,1-1.3.29,5.71,5.71,0,0,0-1.53.11A10.44,10.44,0,0,0,85,53.58a25.67,25.67,0,0,1-2.23,1.52,9.52,9.52,0,0,1-1.26.51,1.83,1.83,0,0,0-.95.72,2.49,2.49,0,0,0-.14,1.32,3.37,3.37,0,0,1-.1,1.44,2.83,2.83,0,0,1-.83,1.07,2.39,2.39,0,0,0-1,2.37,12.61,12.61,0,0,1,.08,1.5,13.8,13.8,0,0,1-.14,1.55,1.72,1.72,0,0,0,.2,1.17,5.56,5.56,0,0,0,2.64.27c1.27-.07,2.66-0.1,3.08-0.07a11.76,11.76,0,0,1,1.54.23,8.47,8.47,0,0,0,1.65.17A12.07,12.07,0,0,0,89,67.2l0.11-.1a2.89,2.89,0,0,0,.77-1L90,66a3.37,3.37,0,0,0,.1-1.44,2.49,2.49,0,0,1,.14-1.32,1.83,1.83,0,0,1,.95-0.72A9.52,9.52,0,0,0,92.45,62a25.67,25.67,0,0,0,2.23-1.52A10.44,10.44,0,0,1,97,59.12,5.71,5.71,0,0,1,98.56,59a2.27,2.27,0,0,0,1.3-.29,2.11,2.11,0,0,0,.63-1.14,8.16,8.16,0,0,0,0-3.12,13.65,13.65,0,0,1-.2-1.56,13.35,13.35,0,0,1,0-1.56,13.94,13.94,0,0,0,0-1.54,13.1,13.1,0,0,0-.17-1.5,1.3,1.3,0,0,0-.83-0.93,4.64,4.64,0,0,0-1.95.15,20.84,20.84,0,0,1-2.6.5,24.5,24.5,0,0,1-2.79.12H91.87c-0.3,0-.64,0-1,0.06C90.9,48.51,90.93,48.83,90.93,49.07Z" fill="url(#d)"/><path d="M129,49.07a10.13,10.13,0,0,1-.14,1.56,2.11,2.11,0,0,1-.63,1.14,2.26,2.26,0,0,1-1.3.3,5.76,5.76,0,0,0-1.53.12A10.51,10.51,0,0,0,123,53.58a26.63,26.63,0,0,1-2.23,1.52,9.68,9.68,0,0,1-1.26.52,1.85,1.85,0,0,0-.95.72,2.5,2.5,0,0,0-.15,1.31,3.4,3.4,0,0,1-.11,1.43,2.87,2.87,0,0,1-.83,1.07,3.07,3.07,0,0,0-.84,1,3.11,3.11,0,0,0-.16,1.34,12.86,12.86,0,0,1,.08,1.5,14.08,14.08,0,0,1-.14,1.55,1.73,1.73,0,0,0,.2,1.17,5.57,5.57,0,0,0,2.64.27c1.27-.07,2.66-0.1,3.08-0.07a12,12,0,0,1,1.54.23,8.57,8.57,0,0,0,1.65.17,12.18,12.18,0,0,0,1.55-.15l0.11-.1a2.93,2.93,0,0,0,.77-1L128,66a3.4,3.4,0,0,0,.11-1.43,2.5,2.5,0,0,1,.15-1.31,1.85,1.85,0,0,1,.95-0.72,9.68,9.68,0,0,0,1.26-.52,26.63,26.63,0,0,0,2.23-1.52,10.51,10.51,0,0,1,2.35-1.39A5.76,5.76,0,0,1,136.6,59a2.26,2.26,0,0,0,1.3-.3,2.11,2.11,0,0,0,.63-1.14,8.29,8.29,0,0,0,0-3.12,13.85,13.85,0,0,1-.19-1.56,13.55,13.55,0,0,1,0-1.56,14.19,14.19,0,0,0,0-1.54,13.3,13.3,0,0,0-.17-1.5,1.3,1.3,0,0,0-.83-0.94,4.64,4.64,0,0,0-2,.15,21.46,21.46,0,0,1-2.6.5,25.08,25.08,0,0,1-2.79.13H129.9c-0.3,0-.64,0-1,0.06C128.94,48.52,129,48.83,129,49.07Z" fill="url(#e)"/><path d="M138.95,88.16a64.7,64.7,0,0,0,.23-7.19c0-3-.29-5.8-0.57-6.25a1.54,1.54,0,0,0-1.5-.64,12.37,12.37,0,0,1-1.86.2,8.57,8.57,0,0,1-1.65-.17,12,12,0,0,0-1.54-.23c-0.26,0-.87,0-1.6,0l-1,0s0,0.06,0,.09a64.7,64.7,0,0,1-.23,7.19,29,29,0,0,1-.86,3.52,14.46,14.46,0,0,0-.58,3.64,17.22,17.22,0,0,0,.54,3.87,4.3,4.3,0,0,1-.17,3,3.91,3.91,0,0,1-2.71,1.12,32.8,32.8,0,0,1-3.87-.11,28.59,28.59,0,0,1-3.64-.66,31,31,0,0,0-3.52-.68,40.71,40.71,0,0,0-4.57,0c-0.08.36-.14,0.7-0.19,1,0,0.08,0,.16,0,0.23a20,20,0,0,0-.1,3.18,3.49,3.49,0,0,0,1.07,2.32c0.53,0.39,3.4.54,6.38,0.34a59.88,59.88,0,0,1,7.17-.16,31,31,0,0,1,3.52.68,28.59,28.59,0,0,0,3.64.66,32.8,32.8,0,0,0,3.87.11,3.91,3.91,0,0,0,2.71-1.12,4.3,4.3,0,0,0,.17-3,17.22,17.22,0,0,1-.54-3.87,14.46,14.46,0,0,1,.58-3.64A29,29,0,0,0,138.95,88.16Z" fill="url(#f)"/></svg>