<svg xmlns="http://www.w3.org/2000/svg" xmlns:xlink="http://www.w3.org/1999/xlink" width="88.3" height="200" viewBox="0 0 88.3 200"><defs><linearGradient id="b" x1="16.71" y1="151.34" x2="65.25" y2="42.3" gradientUnits="userSpaceOnUse"><stop offset="0" stop-color="#fdba56"/><stop offset=".02" stop-color="#fbb055"/><stop offset=".06" stop-color="#f79d54"/><stop offset=".1" stop-color="#f59253"/><stop offset=".15" stop-color="#f48e53"/><stop offset=".3" stop-color="#ed5e4e"/><stop offset=".47" stop-color="#683a96" stop-opacity=".5"/><stop offset=".64" stop-color="#ed872b"/><stop offset=".79" stop-color="#7b76b6"/><stop offset=".9" stop-color="#f15f4f"/><stop offset="1" stop-color="#fdba56"/></linearGradient><linearGradient id="a" x1="71.95" y1="85.36" x2="78.14" y2="99.25" gradientUnits="userSpaceOnUse"><stop offset="0" stop-color="#b7151b"/><stop offset=".02" stop-color="#c52229"/><stop offset=".06" stop-color="#d7333c"/><stop offset=".11" stop-color="#e23d47"/><stop offset=".15" stop-color="#e6404b"/><stop offset=".3" stop-color="#e98a7b"/><stop offset=".47" stop-color="#7c78b8"/><stop offset=".64" stop-color="#00b0b0"/><stop offset=".79" stop-color="#7b76b6"/><stop offset="1" stop-color="#e7322f"/></linearGradient><linearGradient id="c" x1="61.01" y1="116.34" x2="76.53" y2="151.2" xlink:href="#a"/><linearGradient id="d" x1="17.01" y1="88.3" x2="20.71" y2="96.6" xlink:href="#a"/><linearGradient id="e" x1="12.71" y1="116.57" x2="16.22" y2="124.47" xlink:href="#a"/><linearGradient id="f" x1="40.73" y1="50.31" x2="51.39" y2="74.24" xlink:href="#a"/><linearGradient id="g" x1="66.67" y1="50.13" x2="77.61" y2="74.71" xlink:href="#a"/><linearGradient id="h" x1="27.53" y1="121.39" x2="42.72" y2="155.49" xlink:href="#a"/></defs><title>_</title><path d="M72.06 102.43a7.23 7.23 0 0 0-1.6.54 7.11 7.11 0 0 1-2 .65 10.08 10.08 0 0 1-2.8-.28c-.94-.22-1.83-.38-2.06-.4a4.41 4.41 0 0 1-1.67-.56 8 8 0 0 1-1.5-1.26 3.35 3.35 0 0 1-.92-2.12 3.88 3.88 0 0 1 1-2.13 4 4 0 0 0 .75-1.2 2.94 2.94 0 0 0 0-1.2 7.3 7.3 0 0 1-.14-2.05 6.8 6.8 0 0 1 .56-2 4.3 4.3 0 0 1 1.43-1.61 15.4 15.4 0 0 1 4-.81 41.8 41.8 0 0 0 4.89-.72 18.43 18.43 0 0 1 3.13-.51 7.37 7.37 0 0 1 1.61.18 5.33 5.33 0 0 1-.29-1.42 6.43 6.43 0 0 1 .36-2.09c.11-.3.25-.72.37-1.11.06-.21.13-.42.17-.59.12-.46.29-1.24.36-1.7s.18-1.61.23-2.53a5.75 5.75 0 0 0 0-1l-.16.05a8.54 8.54 0 0 1-1.95.48 7.94 7.94 0 0 1-1.21 0 7.16 7.16 0 0 1-.85-.04c-.44-.08-1.19-.17-1.63-.2s-1.19 0-1.63 0-2.17 0-3.38-.12c-1.49-.09-3.27-.75-3.68-2s.17-4.36.5-5.93c.49-2.28 1-5.1 1.05-6.17a25.63 25.63 0 0 1 .76-4.2 27.6 27.6 0 0 1 1.61-4.06 24.62 24.62 0 0 0 1.46-3.75 21.74 21.74 0 0 0 .45-2.16c.11-.69.19-1.32.22-1.8a7 7 0 0 0-.21-2.46.46.46 0 0 0-.35 0 6 6 0 0 1-2.56.26 5.71 5.71 0 0 1-2.31-1.08 5.32 5.32 0 0 0-1.39-.79 3.29 3.29 0 0 0-1.24-.07c-.44.09-1.14.27-1.52.4a12.85 12.85 0 0 0-1.31.53 4.79 4.79 0 0 0-1.1 1.1 24.11 24.11 0 0 0-1.62 2.78 15.66 15.66 0 0 0-1.17 3.53 16.26 16.26 0 0 0-.09 3.76 27.87 27.87 0 0 1 .09 4.3A27 27 0 0 1 54 63a25.75 25.75 0 0 0-.66 3.88A29.21 29.21 0 0 0 53.4 71a9.46 9.46 0 0 1-.32 3.78 2.79 2.79 0 0 1-2.57 1.63c-.43 0-1-.08-1.56-.17l-.74-.13a11.37 11.37 0 0 1-2-.69 8.13 8.13 0 0 0-1.44-.5 6.69 6.69 0 0 0-1.4-.12c-.42 0-1.1.09-1.49.15s-1 .2-1.36.3a1.85 1.85 0 0 1-2.22-1.35 10.86 10.86 0 0 1-.16-3.25c.09-1.12.33-2.94.53-4.06s.63-2.93 1-4a21.83 21.83 0 0 0 .66-3.79 23 23 0 0 0-.17-3.92A19 19 0 0 1 40 50.6v-.19A20.23 20.23 0 0 1 41.27 46a9.74 9.74 0 0 0 .65-2.18 10.45 10.45 0 0 1-2.36.28 7.33 7.33 0 0 1-2.16-.43 7.87 7.87 0 0 0-1.4-.36 7 7 0 0 0-1.42 0 11 11 0 0 0-1.33.24 5.07 5.07 0 0 0-.79.3 2.68 2.68 0 0 0-.36.77 19.06 19.06 0 0 0-.46 2.74 26.25 26.25 0 0 1-.77 3.94 31.58 31.58 0 0 1-1.52 4 25.83 25.83 0 0 0-1.42 3.7c-.27 1-.77 4.66-1.09 7.94-.25 2.54-.83 6.7-1.41 7.76a5.55 5.55 0 0 1-2.29 2.17 7.94 7.94 0 0 1-2.59.58 7.91 7.91 0 0 1-2.56-.5 12.73 12.73 0 0 0-1.95-.6 11.08 11.08 0 0 0-1.92-.17 15.62 15.62 0 0 1-2.49-.22 23.52 23.52 0 0 1-2.75-.72 3.17 3.17 0 0 0-.72-.15 2.17 2.17 0 0 0 .11.49 8.87 8.87 0 0 1 .47 2.71 6.06 6.06 0 0 1-.66 2.44 9.86 9.86 0 0 0-.68 1.59 7.71 7.71 0 0 0-.26 1.54 11 11 0 0 0 .1 1.65 13.86 13.86 0 0 0 .42 1.77 2.74 2.74 0 0 0 .66 1 2.78 2.78 0 0 0 1.17.39c.54 0 1.42.05 1.94 0s1.35-.09 1.84-.16a11.5 11.5 0 0 0 1.73-.39c.23-.08.54-.2.84-.34s.66-.3.91-.44a4.22 4.22 0 0 1 2.4-.48 3.85 3.85 0 0 1 2 1.29 5.84 5.84 0 0 1 1 1.8 2.56 2.56 0 0 1-.26 1.9 5.66 5.66 0 0 0-.43.92 11.89 11.89 0 0 0-.36 1.35 3.66 3.66 0 0 0 .06 1.29 5.15 5.15 0 0 0 .32.79 6.61 6.61 0 0 0 .43.77 7.38 7.38 0 0 1 1 2.29 6 6 0 0 1-.08 2.39 4.26 4.26 0 0 1-1.35 2.07 8.94 8.94 0 0 1-3.62 1 35.79 35.79 0 0 1-3.59.15 9.6 9.6 0 0 1-2.5-.54 12.8 12.8 0 0 1-2.4-1.33 3.26 3.26 0 0 0-1.37-.58 9 9 0 0 0-2.22 1.86 11.62 11.62 0 0 0-1.8 2.39 4.35 4.35 0 0 0 .22 1.06 5.4 5.4 0 0 1 .23 2.27 6.28 6.28 0 0 1-.84 2.2 6.43 6.43 0 0 0-.69 1.67 9.2 9.2 0 0 0-.15 2.13 2.2 2.2 0 0 0 .31 1 26.57 26.57 0 0 0 5.34-.69c1.66-.34 3.35-.65 4.62-.84a8.93 8.93 0 0 1 2-.18 10.31 10.31 0 0 1 2 .44 2.68 2.68 0 0 1 1.51 2.27 11.58 11.58 0 0 1-.67 3.58 28.7 28.7 0 0 0-.83 3.19c-.06.28-.1.54-.14.77a29.2 29.2 0 0 0-.26 4.12c0 1.23-.09 4.19-.26 6.59a77.9 77.9 0 0 1-1.28 8.88 21.58 21.58 0 0 0-.64 5.07.64.64 0 0 0 .52.34h.35c.66 0 1.49 0 2 .08a15.24 15.24 0 0 1 2 .35 2.68 2.68 0 0 0 1.14 0 4.83 4.83 0 0 0 1.33-.81 4.62 4.62 0 0 1 2.2-1h.26a6 6 0 0 1 2.73.71.78.78 0 0 0 .72 0 6.78 6.78 0 0 0 .81-2.54 28.26 28.26 0 0 0 .2-4.34 28.89 28.89 0 0 0-.63-4.34 13.93 13.93 0 0 1-.19-4.79 14.37 14.37 0 0 1 1.79-4.49 23.31 23.31 0 0 0 1.9-3.81 18.18 18.18 0 0 0 .83-3.8 14.59 14.59 0 0 1 .56-3.17 1.87 1.87 0 0 1 1.14-1.15 1.37 1.37 0 0 1 1.18.16.72.72 0 0 0 .27 0 4.54 4.54 0 0 0 1.11-.8 5 5 0 0 1 2.13-1.22 3.74 3.74 0 0 1 2.33.41 4.56 4.56 0 0 0 1.43.44 7.73 7.73 0 0 0 1.89-.14 2.6 2.6 0 0 1 2.8 1.29c.57 1.17-.09 6.71-.23 7.81l-.05.41a70.38 70.38 0 0 1-1.62 8.91 38.51 38.51 0 0 1-1.81 4.25 19.14 19.14 0 0 0-1.4 3.88 17.53 17.53 0 0 0-.27 4 11 11 0 0 0 .44 2.5 4.52 4.52 0 0 1 1.92-.54 5.48 5.48 0 0 1 2.14.56 4.82 4.82 0 0 0 1.36.44 4.1 4.1 0 0 0 1.31-.12 8.86 8.86 0 0 1 1.62-.3h.27a6.49 6.49 0 0 1 1.71.21 1.05 1.05 0 0 0 .44-.33 12.38 12.38 0 0 0 1.31-2.63 29.78 29.78 0 0 0 1.09-3.94 30.55 30.55 0 0 0 .42-4.1 33.74 33.74 0 0 1 .45-4.46 34.35 34.35 0 0 1 1.16-4.35 30.76 30.76 0 0 0 1.06-4 29 29 0 0 0 .35-4 10.06 10.06 0 0 1 .52-3.45A2.06 2.06 0 0 1 62 117a14 14 0 0 0 1.63.46 15.77 15.77 0 0 0 1.76.23 4.12 4.12 0 0 0 1.5-.29 7.54 7.54 0 0 0 1.68-1.17 5.17 5.17 0 0 1 2.67-1.3 5.56 5.56 0 0 1 2.91.76 3.35 3.35 0 0 0 .78.34 6 6 0 0 0 .22-1.44c0-1.11.15-2.61.25-3.2a7.6 7.6 0 0 0 .08-1.5v-.31a8.65 8.65 0 0 0-.27-1.24 9.56 9.56 0 0 1-.36-2.22 14.06 14.06 0 0 1 .22-2.48 2.08 2.08 0 0 0-.08-1.08 2 2 0 0 0-.91-.28 10.92 10.92 0 0 0-1.85.1l-.3-1z" fill="url(#b)"/><path d="M77.72 83.78a5.49 5.49 0 0 0-.3 1.71 4.41 4.41 0 0 0 .41 1.56A1.11 1.11 0 0 1 78 88a1.44 1.44 0 0 1-1.09 0 7.19 7.19 0 0 0-1.78-.25 17.8 17.8 0 0 0-2.91.48 42.35 42.35 0 0 1-4.92.73 13.66 13.66 0 0 0-3.61.67 3.33 3.33 0 0 0-1 1.19 5.81 5.81 0 0 0-.46 1.62 6.33 6.33 0 0 0 .12 1.73 3.89 3.89 0 0 1 0 1.72 5 5 0 0 1-1 1.59 2.91 2.91 0 0 0-.76 1.5 2.36 2.36 0 0 0 .61 1.44 7.1 7.1 0 0 0 1.28 1.08 3.46 3.46 0 0 0 1.24.42 22.08 22.08 0 0 1 2.2.42 9.2 9.2 0 0 0 2.45.26 6.15 6.15 0 0 0 1.71-.55 8.23 8.23 0 0 1 1.88-.63h.15a2.77 2.77 0 0 0 0-.28 5.58 5.58 0 0 1-.1-.71 5.72 5.72 0 0 1 0-1 5.81 5.81 0 0 1 .46-1.62 3.33 3.33 0 0 1 1-1.19 13.66 13.66 0 0 1 3.53-.69 42.35 42.35 0 0 0 4.92-.73 17.8 17.8 0 0 1 2.91-.48 7.19 7.19 0 0 1 1.77.28 1.44 1.44 0 0 0 1.09 0 1.11 1.11 0 0 0-.15-1 4.41 4.41 0 0 1-.41-1.56 5.49 5.49 0 0 1 .3-1.71c.18-.49.43-1.3.56-1.79s.3-1.3.38-1.79.19-1.68.24-2.64a3.27 3.27 0 0 0-.32-2 1.66 1.66 0 0 0-1.24.07 7.65 7.65 0 0 1-1.69.42 7.41 7.41 0 0 1-1.72-.07c-.48-.08-1.26-.18-1.73-.22s-1.26 0-1.73 0h-2.04c-.14.29-.3.75-.42 1.07z" fill="url(#a)"/><path d="M76.48 109.85a8.53 8.53 0 0 1-.09 1.75c-.09.48-.19 1.86-.24 3.06s-.36 2.3-.69 2.42a2.84 2.84 0 0 1-1.82-.5 4.58 4.58 0 0 0-2.31-.62 4.2 4.2 0 0 0-2.08 1 8.5 8.5 0 0 1-2 1.36 5 5 0 0 1-2 .37 16.84 16.84 0 0 1-1.9-.25 14.91 14.91 0 0 1-1.77-.5 1.07 1.07 0 0 0-1.28.59 9.4 9.4 0 0 0-.43 3 29.81 29.81 0 0 1-.37 4.22 31.55 31.55 0 0 1-1.1 4.17 33.19 33.19 0 0 0-1.12 4.2 32.61 32.61 0 0 0-.43 4.3 31.32 31.32 0 0 1-.44 4.27 30.61 30.61 0 0 1-1.14 4.1 13.21 13.21 0 0 1-1.46 2.91 1.59 1.59 0 0 1-1.42.68 5.49 5.49 0 0 0-1.48-.19h-.22c0 .32-.08.67-.11 1a17.12 17.12 0 0 0-.05 2.45 10 10 0 0 0 .6 3 .86.86 0 0 0 1.21.37 3.56 3.56 0 0 1 1.56-.48 4.17 4.17 0 0 1 1.66.45 5.81 5.81 0 0 0 1.71.55 5.08 5.08 0 0 0 1.71-.16 7.58 7.58 0 0 1 1.63-.28 5.49 5.49 0 0 1 1.48.19 1.59 1.59 0 0 0 1.42-.68 13.21 13.21 0 0 0 1.46-2.91 30.61 30.61 0 0 0 1.14-4.1 31.32 31.32 0 0 0 .44-4.27 32.61 32.61 0 0 1 .43-4.3 33.19 33.19 0 0 1 1.12-4.2 31.55 31.55 0 0 0 1.1-4.17 29.81 29.81 0 0 0 .37-4.22 9.4 9.4 0 0 1 .43-3 1.07 1.07 0 0 1 1.28-.59 14.91 14.91 0 0 0 1.77.5 16.84 16.84 0 0 0 1.9.25 5 5 0 0 0 2-.37 8.5 8.5 0 0 0 2-1.36 4.2 4.2 0 0 1 2.08-1 4.58 4.58 0 0 1 2.31.62 2.84 2.84 0 0 0 1.82.5c.33-.12.65-1.21.69-2.42s.15-2.59.24-3.06a8.53 8.53 0 0 0 .09-1.75 9.39 9.39 0 0 0-.35-1.78 8.57 8.57 0 0 1-.31-2 13.15 13.15 0 0 1 .2-2.27 2.76 2.76 0 0 0-.26-1.85 2.53 2.53 0 0 0-1.67-.7 11.48 11.48 0 0 0-2.21.13 8.23 8.23 0 0 0-1.88.63 6.15 6.15 0 0 1-1.71.55 3.53 3.53 0 0 1-.55 0c-.3 0-.65 0-1-.1.01.25.03.38.04.49z" fill="url(#c)"/><path d="M20.22 95.67a4.62 4.62 0 0 1-.08-1.74 12.72 12.72 0 0 1 .4-1.5 6.64 6.64 0 0 1 .54-1.13 1.58 1.58 0 0 0 .13-1.1 4.93 4.93 0 0 0-.81-1.43 2.87 2.87 0 0 0-1.4-.92 3.25 3.25 0 0 0-1.75.38c-.27.15-.63.32-1 .47l-.08.24a8.07 8.07 0 0 0-.21 1 7.28 7.28 0 0 0-.09.83 11.9 11.9 0 0 0 .13 1.79 14.89 14.89 0 0 0 .46 1.93 3.65 3.65 0 0 0 1 1.52 3.68 3.68 0 0 0 1.72.6h1.49a6 6 0 0 1-.45-.94z" fill="url(#d)"/><path d="M16.92 121.23a10.74 10.74 0 0 0 .62-3.19 1.73 1.73 0 0 0-.92-1.46 9.31 9.31 0 0 0-1.75-.39 10.78 10.78 0 0 0-1.7.18 2.91 2.91 0 0 1 0 .44 3.64 3.64 0 0 1-.15.6 5.55 5.55 0 0 1-.54 1.19 7.45 7.45 0 0 0-.82 2 10.13 10.13 0 0 0-.17 2.38 2.66 2.66 0 0 0 .78 1.79 7.07 7.07 0 0 0 2.76-.05l1-.15a29.69 29.69 0 0 1 .89-3.34z" fill="url(#e)"/><path d="M41 50.71a18.14 18.14 0 0 0 0 4 23.83 23.83 0 0 1 .18 4.13 22.73 22.73 0 0 1-.7 4c-.31 1.08-.73 2.86-.93 3.95s-.43 2.87-.52 4a10.21 10.21 0 0 0 .12 2.87.88.88 0 0 0 1 .68A14.88 14.88 0 0 1 41.7 74c.42-.07 1.14-.14 1.6-.16a7.77 7.77 0 0 1 1.66.14 9.11 9.11 0 0 1 1.66.58 10.41 10.41 0 0 0 1.81.62l.67.12c0-.35.1-.68.15-1s.06-.39.09-.55c.2-1.09.62-2.86.93-3.95a22.73 22.73 0 0 0 .7-4 23.83 23.83 0 0 0-.18-4.13 18 18 0 0 1 0-4.16 19.42 19.42 0 0 1 1.15-4.12 8 8 0 0 0 .74-2.93.93.93 0 0 0-1.25-.61 9.47 9.47 0 0 1-2.1.25 6.39 6.39 0 0 1-1.82-.36 8.84 8.84 0 0 0-1.67-.45 8 8 0 0 0-1.67 0 11.94 11.94 0 0 0-1.48.27l-.43.14a4.84 4.84 0 0 0-.66.29 1.92 1.92 0 0 0-.6.72z" fill="url(#f)"/><path d="M70.28 48.53a22.9 22.9 0 0 1-.47 2.26 25.51 25.51 0 0 1-1.53 3.93 26.48 26.48 0 0 0-1.54 3.89 24.43 24.43 0 0 0-.72 4c-.09 1.12-.57 4-1.07 6.3a17.22 17.22 0 0 0-.53 5.41c.21.63 1.47 1.21 2.79 1.29s2.8.13 3.28.12 1.26 0 1.73 0 1.26.13 1.73.22a6.19 6.19 0 0 0 .67.07v-.18l.2-.84c.44-2.16.83-4.5.9-5.49a24.43 24.43 0 0 1 .72-4A26.48 26.48 0 0 1 78 61.67a25.51 25.51 0 0 0 1.53-3.93 25.3 25.3 0 0 0 .7-4.15 7.26 7.26 0 0 0-.33-3 1.32 1.32 0 0 0-1.56-.5 5 5 0 0 1-2.07.22 4.73 4.73 0 0 1-1.85-.87 6.25 6.25 0 0 0-1.73-1 4.26 4.26 0 0 0-1.36-.13h-.37z" fill="url(#g)"/><path d="M46.06 125.18c.44-3.49.58-6.71.32-7.24a1.59 1.59 0 0 0-1.69-.76 8.56 8.56 0 0 1-2.2.16 5.55 5.55 0 0 1-1.83-.56 2.77 2.77 0 0 0-1.64-.3 4.06 4.06 0 0 0-1.64 1 5.25 5.25 0 0 1-1.48 1 1.48 1.48 0 0 1-1.16-.1c-.27-.18-.65 0-.83.52a13.88 13.88 0 0 0-.5 2.89 19.11 19.11 0 0 1-.89 4.05 24.11 24.11 0 0 1-2 4 13.45 13.45 0 0 0-1.63 4.16 13 13 0 0 0 .18 4.39 29.67 29.67 0 0 1 .66 4.52 29 29 0 0 1-.21 4.53 7.21 7.21 0 0 1-1.07 3.08 1.67 1.67 0 0 1-1.93.17 5 5 0 0 0-2.19-.59h-.17c-.07.38-.13.74-.2 1.08s-.09.46-.14.67a20 20 0 0 0-.63 5.54 1.62 1.62 0 0 0 1.52 1.08c.66 0 1.66 0 2.22.07a14.34 14.34 0 0 1 1.87.32 3.63 3.63 0 0 0 1.69 0 5.69 5.69 0 0 0 1.69-1A3.6 3.6 0 0 1 34 157a5 5 0 0 1 2.19.59 1.67 1.67 0 0 0 1.93-.17 7.21 7.21 0 0 0 1.07-3.08 29 29 0 0 0 .21-4.53 29.67 29.67 0 0 0-.66-4.52 13 13 0 0 1-.18-4.39 13.45 13.45 0 0 1 1.65-4.13 24.11 24.11 0 0 0 2-4 19.11 19.11 0 0 0 .89-4.05 13.88 13.88 0 0 1 .5-2.89c.18-.47.56-.7.83-.52a1.21 1.21 0 0 0 .56.17 1.5 1.5 0 0 0 .6-.07 2.62 2.62 0 0 0 .47-.23z" fill="url(#h)"/></svg>