<svg xmlns="http://www.w3.org/2000/svg" xmlns:xlink="http://www.w3.org/1999/xlink" width="115.32" height="200" viewBox="0 0 115.32 200"><defs><linearGradient id="b" x1="26.71" y1="158.33" x2="79.02" y2="40.83" gradientUnits="userSpaceOnUse"><stop offset="0" stop-color="#fdba56"/><stop offset=".02" stop-color="#fbb055"/><stop offset=".06" stop-color="#f79d54"/><stop offset=".1" stop-color="#f59253"/><stop offset=".15" stop-color="#f48e53"/><stop offset=".3" stop-color="#ed5e4e"/><stop offset=".47" stop-color="#683a96" stop-opacity=".5"/><stop offset=".64" stop-color="#ed872b"/><stop offset=".79" stop-color="#7b76b6"/><stop offset=".9" stop-color="#f15f4f"/><stop offset="1" stop-color="#fdba56"/></linearGradient><linearGradient id="a" x1="38.91" y1="122.85" x2="43.72" y2="133.66" gradientUnits="userSpaceOnUse"><stop offset="0" stop-color="#b7151b"/><stop offset=".02" stop-color="#c52229"/><stop offset=".06" stop-color="#d7333c"/><stop offset=".11" stop-color="#e23d47"/><stop offset=".15" stop-color="#e6404b"/><stop offset=".3" stop-color="#e98a7b"/><stop offset=".47" stop-color="#7c78b8"/><stop offset=".64" stop-color="#00b0b0"/><stop offset=".79" stop-color="#7b76b6"/><stop offset="1" stop-color="#e7322f"/></linearGradient><linearGradient id="c" x1="67.91" y1="114.18" x2="90.21" y2="164.27" xlink:href="#a"/><linearGradient id="d" x1="57.36" y1="63.76" x2="66.74" y2="84.84" xlink:href="#a"/><linearGradient id="e" x1="35.61" y1="148" x2="41.68" y2="161.65" xlink:href="#a"/><linearGradient id="f" x1="32.85" y1="99.99" x2="40.29" y2="116.7" xlink:href="#a"/><linearGradient id="g" x1="62.16" y1="36.28" x2="65.86" y2="44.59" xlink:href="#a"/><linearGradient id="h" x1="75.75" y1="90.38" x2="76.59" y2="92.26" xlink:href="#a"/><linearGradient id="i" x1="84.41" y1="57.03" x2="97.07" y2="85.46" xlink:href="#a"/></defs><title>_</title><path d="M56.19 39l-.06-.32c-.14-.92.84-1.65 1.44-2a4.4 4.4 0 0 0 1.08-.88.58.58 0 0 0 .05-.3 6.36 6.36 0 0 1-.36-1.61 10.18 10.18 0 0 1 .08-1.89 1 1 0 0 0 0-.36 6.19 6.19 0 0 0-1.58 0c-1.1.11-2.26.28-2.6.37a16.35 16.35 0 0 1-1.72.29 15.92 15.92 0 0 1-1.73.06c-.36 0-1.36 0-2.26.09a6.61 6.61 0 0 0-1.66.31 1.65 1.65 0 0 0-.4.46 7.22 7.22 0 0 0-.36 1 6.59 6.59 0 0 0-.17 1 1.8 1.8 0 0 0 .16.67 4.34 4.34 0 0 0 .75.91A5.38 5.38 0 0 1 48 38.47a5.17 5.17 0 0 1 .3 2 2.4 2.4 0 0 1-2 2 12.55 12.55 0 0 1-3.72-.22 11 11 0 0 0-3.67 0 9 9 0 0 0-3 1.53 14.2 14.2 0 0 1-3.56 2.1 12.23 12.23 0 0 1-3.93.63 7.35 7.35 0 0 0-2.86.57A7.51 7.51 0 0 0 23.32 49a12.3 12.3 0 0 1-2.86 2.71 13.12 13.12 0 0 1-3.73 1.47 4.33 4.33 0 0 0-2.19 1.22 5 5 0 0 0-.6 2.62 26.25 26.25 0 0 1-.16 4.09 20.59 20.59 0 0 1-.92 3.71 32.55 32.55 0 0 1-1.61 3.5c-.53 1-1.55 2.6-2.27 3.62a10.19 10.19 0 0 0-1.43 3.24 8.12 8.12 0 0 0 .24 3.21 33.37 33.37 0 0 0 1.37 3.44c.44.9 1.66 3 2.67 4.67s2.24 3.8 2.62 4.65a25.12 25.12 0 0 0 1.48 2.72 26.57 26.57 0 0 0 1.91 2.52 19.77 19.77 0 0 0 2.3 2.16 60.78 60.78 0 0 0 5.86 3.36l.46.24c2.42 1.24 5 2.46 5.76 2.77a60.88 60.88 0 0 0 6.66 1.58c1.88.36 5.69 1.26 6.64 2.06a5.7 5.7 0 0 1 1.62 2.89 14.54 14.54 0 0 1 .22 2.55v.68a15.62 15.62 0 0 1-.67 3.25 20.93 20.93 0 0 0-.7 2.85 19.16 19.16 0 0 0-.18 2.84 17.69 17.69 0 0 0 .4 2.9 23.77 23.77 0 0 0 1 3.1 3.72 3.72 0 0 1 0 3.22 1.33 1.33 0 0 1-.18.24c-.69.74-2.32.92-3.54.78a10.86 10.86 0 0 1-3.77-1.2c-1.27-.78-3-4.45-3.73-6.29-.26-.66-.53-1.31-.79-1.94-1-2.29-1.59-3.68-1.78-4a4.59 4.59 0 0 0-1.42-1.34 29.7 29.7 0 0 0-5.88-1 60 60 0 0 0-6.67-.37 25.61 25.61 0 0 0-3.32.53 34.11 34.11 0 0 1-3.55.63 29.71 29.71 0 0 1-3.44.14 2.78 2.78 0 0 0-1.31.29 55.18 55.18 0 0 0 1.46 9.29c1.19 5.43 2.53 9.56 3 10.13a9.34 9.34 0 0 0 2.62 1.88 18.54 18.54 0 0 1 3.5 2.15 18.56 18.56 0 0 1 2.81 3 13.61 13.61 0 0 0 2.42 2.48 12.76 12.76 0 0 0 3 1.53c.37.12 1 .29 1.88.49 1.19.28 2.55.56 3.73.78a54.76 54.76 0 0 0 6 .78c1.17 0 3.17 0 4.44-.05h.64a9.11 9.11 0 0 1 3.32.51 2.83 2.83 0 0 1 1.53 2.72c-.07.68-.23 1.73-.34 2.34s-.35 1.55-.52 2.1c0 .12-.07.26-.11.41A7.57 7.57 0 0 0 47 161a7.39 7.39 0 0 0 .16 1.6 16.79 16.79 0 0 1 .33 2 13.88 13.88 0 0 1 0 1.89 2.33 2.33 0 0 0 .14.9 1.85 1.85 0 0 0 .58.53c.34.18.95.45 1.32.59s1 .35 1.44.45a2.27 2.27 0 0 0 1-.06 4.61 4.61 0 0 0 1.24-.83 12 12 0 0 1 1.58-1.28 4 4 0 0 1 .52-.27 2.78 2.78 0 0 1 1.06-.27 1.74 1.74 0 0 0 .47-.18 6.51 6.51 0 0 0 1-.79 2.84 2.84 0 0 0 .59-1 3.41 3.41 0 0 0 0-1.24c-.12-.54-.26-1.42-.33-2s-.12-1.43-.13-2a12.53 12.53 0 0 0-.21-1.81 20.09 20.09 0 0 0-.58-2.11 2.54 2.54 0 0 1 1-2.94 9 9 0 0 1 3.83-.68c1.26 0 3.21-.06 4.36-.18a35.66 35.66 0 0 0 3.94-.67c1-.25 2.66-.73 3.61-1.06s2.43-.93 3.27-1.33a31.37 31.37 0 0 0 2.95-1.63 30.13 30.13 0 0 0 2.66-2 21.57 21.57 0 0 1 3-2.09 23.81 23.81 0 0 1 3.43-1.5 12.5 12.5 0 0 0 2.83-1.43 11.79 11.79 0 0 0 2.17-2.21 11.56 11.56 0 0 0 1.38-2.9 15.76 15.76 0 0 0 .45-3.6 21.56 21.56 0 0 1 .5-4.37 22.63 22.63 0 0 1 1.55-4.18 11.9 11.9 0 0 0 1.12-3.35 25.37 25.37 0 0 0-1.76-6.77c-1.09-2.91-2.68-6.67-3.56-8.38-.15-.3-.32-.6-.49-.89a14.6 14.6 0 0 0-2.14-3 10.67 10.67 0 0 0-2.65-1.52c-1-.35-2.48-1-3.39-1.43S82.88 95.73 82 95.2s-2.2-1.2-3.05-1.64c-.49-.23-1.17-.52-1.83-.78-.51-.2-1-.4-1.41-.53a11.73 11.73 0 0 1-1.3-.56 15.69 15.69 0 0 1-2.25-1.34A21.36 21.36 0 0 1 69 87.26a8.84 8.84 0 0 0-2.21-1.8 5.34 5.34 0 0 0-.79-.37 11 11 0 0 0-4.06-.4 9.5 9.5 0 0 1-4.35-.46 3.59 3.59 0 0 1-1.81-3.06 11.36 11.36 0 0 1 .6-3.31 13.25 13.25 0 0 1 1.75-3 3.74 3.74 0 0 0 .76-2 4.46 4.46 0 0 0-1.06-2.06 7.92 7.92 0 0 1-1.76-3.14 5.8 5.8 0 0 1 .45-3.33 4.65 4.65 0 0 1 2.11-2.18c1-.39 3 .39 4 .91 1.31.7 2.69 1.35 3.16 1.53A5.51 5.51 0 0 1 67.84 66a5.65 5.65 0 0 1 1 2.34 4.75 4.75 0 0 0 .47 1.32l.11.19a4.22 4.22 0 0 0 1.18 1 10.5 10.5 0 0 0 2 .72 19.57 19.57 0 0 0 2.68.38h.87c.79 0 1.63 0 2.2-.06a30 30 0 0 0 3.16-.46 9.57 9.57 0 0 1 3.79.09 12.88 12.88 0 0 1 3.7 1.86 8 8 0 0 0 2.85 1.29 5.79 5.79 0 0 0 2.68-.42 3.56 3.56 0 0 0 1.47-1.4 19.58 19.58 0 0 0-1.49-5.5c-1.11-2.85-2.16-5.87-2.4-6.89s-.52-2.65-.65-3.7a11.83 11.83 0 0 0-.7-2.62c-.06-.15-.12-.29-.18-.41a10.27 10.27 0 0 0-1.82-2.4 16.43 16.43 0 0 0-2.61-1.88 17.55 17.55 0 0 0-3.06-1.24A35.76 35.76 0 0 1 79.6 47a34.65 34.65 0 0 1-3.31-1.65 12.23 12.23 0 0 0-3-1.15 13.94 13.94 0 0 0-3.36-.2h-.61a13.28 13.28 0 0 1-3.3-.31 11.11 11.11 0 0 1-3.34-1.61 17 17 0 0 0-2.41-1.49 8.91 8.91 0 0 0-2.09-.59 2.76 2.76 0 0 1-1.85-.89z" fill="url(#b)"/><path d="M37 126c1.1 2.75 2.6 5.36 3.32 5.81a9.88 9.88 0 0 0 3.36 1.06 3.87 3.87 0 0 0 2.7-.47.72.72 0 0 0 .06-.1c-.77-1.89-1.54-3.69-2-4.7-.16-.33-.28-.58-.36-.72a5.56 5.56 0 0 0-1.8-1.71 22.31 22.31 0 0 0-4.93-1l-1.13-.13c.22.66.49 1.32.78 1.96z" fill="url(#a)"/><path d="M94.3 102.44c.18.31.35.63.51.94.88 1.74 2.5 5.56 3.6 8.49s1.91 6.18 1.82 7.22a12.94 12.94 0 0 1-1.17 3.83 21.85 21.85 0 0 0-1.47 4 20.81 20.81 0 0 0-.47 4.13 16.75 16.75 0 0 1-.49 3.88 12.59 12.59 0 0 1-1.53 3.21 12.82 12.82 0 0 1-2.4 2.44 13.52 13.52 0 0 1-3.11 1.58 22.62 22.62 0 0 0-3.25 1.42 20.82 20.82 0 0 0-2.83 2 30.75 30.75 0 0 1-2.77 2.07 32 32 0 0 1-3.06 1.7c-.88.42-2.4 1-3.37 1.37s-2.64.83-3.7 1.09a36.39 36.39 0 0 1-4.07.69c-1.17.12-3.19.2-4.47.18a8.17 8.17 0 0 0-3.31.54 1.53 1.53 0 0 0-.56 1.75 21.13 21.13 0 0 1 .61 2.24 13.59 13.59 0 0 1 .22 2c0 .51.06 1.35.12 1.87s.2 1.35.31 1.87a4.3 4.3 0 0 1 0 1.71 3.78 3.78 0 0 1-.86 1.34 7.41 7.41 0 0 1-1.17.94 2.4 2.4 0 0 1-1 .32 2 2 0 0 0-.67.19v.51a6.46 6.46 0 0 0 0 .65 8.21 8.21 0 0 0 .17 1.22 15.88 15.88 0 0 1 .3 1.82 13 13 0 0 1 0 1.73 3.19 3.19 0 0 0 .26 1.44 2.74 2.74 0 0 0 1 1c.38.2 1 .48 1.43.64s1.1.37 1.54.48a3.25 3.25 0 0 0 1.6-.08 5.5 5.5 0 0 0 1.6-1.05 11 11 0 0 1 1.42-1.16 2.58 2.58 0 0 1 1.06-.39 2.4 2.4 0 0 0 1-.32 7.41 7.41 0 0 0 1.17-.94 3.78 3.78 0 0 0 .85-1.41 4.3 4.3 0 0 0 0-1.71c-.11-.51-.25-1.35-.31-1.87s-.12-1.35-.12-1.87a13.59 13.59 0 0 0-.22-2 21.13 21.13 0 0 0-.61-2.24 1.53 1.53 0 0 1 .56-1.75 8.17 8.17 0 0 1 3.31-.54c1.29 0 3.3-.06 4.47-.18a36.39 36.39 0 0 0 4.07-.69c1.06-.26 2.73-.75 3.7-1.09s2.49-1 3.37-1.37a32 32 0 0 0 3.06-1.7 30.75 30.75 0 0 0 2.77-2.07 20.82 20.82 0 0 1 2.83-2 22.62 22.62 0 0 1 3.25-1.42 13.52 13.52 0 0 0 3.11-1.58 12.82 12.82 0 0 0 2.4-2.44 12.59 12.59 0 0 0 1.53-3.21 16.75 16.75 0 0 0 .49-3.88 20.81 20.81 0 0 1 .47-4.13 21.85 21.85 0 0 1 1.47-4 12.94 12.94 0 0 0 1.17-3.83c.1-1-.72-4.29-1.82-7.22s-2.72-6.75-3.6-8.49a17.63 17.63 0 0 0-2.87-4.24 11.54 11.54 0 0 0-3-1.7c-.79-.29-2-.78-2.86-1.19l-.44-.2z" fill="url(#c)"/><path d="M68.43 70.14a5.72 5.72 0 0 1-.58-1.65 4.67 4.67 0 0 0-.79-1.87 4.53 4.53 0 0 0-1.65-1.14c-.57-.21-2.05-.93-3.28-1.58A5.59 5.59 0 0 0 59 63a3.73 3.73 0 0 0-1.56 1.68 4.84 4.84 0 0 0-.37 2.68 7.05 7.05 0 0 0 1.52 2.68 5.33 5.33 0 0 1 1.32 2.68 4.66 4.66 0 0 1-1 2.68 12.29 12.29 0 0 0-1.59 2.77 10.36 10.36 0 0 0-.54 3 2.61 2.61 0 0 0 1.26 2.17 8.62 8.62 0 0 0 3.8.36 11.86 11.86 0 0 1 4.51.46 6.21 6.21 0 0 1 .92.45c.13-.28.3-.58.47-.88a11.4 11.4 0 0 1 .89-1.35 4.66 4.66 0 0 0 1-2.68 5.33 5.33 0 0 0-1.34-2.7 7.05 7.05 0 0 1-1.52-2.68 4.84 4.84 0 0 1 .37-2.68 4.23 4.23 0 0 1 .54-.82 3.57 3.57 0 0 1 .75-.68z" fill="url(#d)"/><path d="M46.36 159.13c.16-.51.38-1.41.5-2s.26-1.6.33-2.25a1.84 1.84 0 0 0-1-1.72 9.17 9.17 0 0 0-3.47-.4c-1.29.07-3.33.1-4.53.05a55 55 0 0 1-6.1-.79c-1.25-.23-2.63-.52-3.77-.79.41.4.83.86 1.2 1.29.23.27.44.53.61.77a14.6 14.6 0 0 0 2.64 2.7 13.77 13.77 0 0 0 3.3 1.67c1 .32 3.58.9 5.73 1.3 1.09.2 2.32.39 3.43.53l1 .12c.04-.17.08-.34.13-.48z" fill="url(#e)"/><path d="M46.15 111.65a4.74 4.74 0 0 0-1.29-2.33c-.55-.47-3.33-1.3-6.18-1.84a61.74 61.74 0 0 1-6.83-1.63c-.85-.32-3.41-1.56-5.85-2.85.28.36.55.7.79 1s.66.7 1.06 1.08 1 .9 1.39 1.21a61.53 61.53 0 0 0 6 3.45c2.57 1.33 5.42 2.7 6.32 3.05a37.23 37.23 0 0 0 3.78 1l1 .22a13.6 13.6 0 0 0-.19-2.36z" fill="url(#f)"/><path d="M57.14 38.52a1.66 1.66 0 0 0 1.17.5 9.83 9.83 0 0 1 2.37.73 18 18 0 0 1 2.59 1.6 10.15 10.15 0 0 0 3 1.44 12.66 12.66 0 0 0 3 .28 1.44 1.44 0 0 0 .05-1 5.49 5.49 0 0 1-.29-1.33 9.27 9.27 0 0 1 .07-1.64 1.68 1.68 0 0 0-.32-1.3 4.47 4.47 0 0 0-2.38-.21c-1.06.11-2.29.28-2.73.39a15.38 15.38 0 0 1-1.6.27 14.76 14.76 0 0 1-1.6.06h-.82c-.47 0-1 0-1.53.08a10 10 0 0 0-.98.13z" fill="url(#g)"/><path d="M77.49 91.85a5.9 5.9 0 0 0-2.64-1.07 10.72 10.72 0 0 0 1.15.52c.45.14 1 .34 1.49.55z" fill="url(#h)"/><path d="M92.49 56.64c.12 1 .4 2.63.63 3.59s1.29 4 2.36 6.76 1.75 5.55 1.5 6.22a4.41 4.41 0 0 1-2.06 2 6.77 6.77 0 0 1-3.25.5 9 9 0 0 1-3.3-1.47A11.92 11.92 0 0 0 85 72.52a8.57 8.57 0 0 0-3.33-.08 30.71 30.71 0 0 1-3.29.48c-.59.08-1.48.08-2.26.08a3.54 3.54 0 0 1 .65.58A2.83 2.83 0 0 1 77 74a5 5 0 0 1 .52 1.45 5.51 5.51 0 0 0 .75 1.93 5.14 5.14 0 0 0 1.53 1.32 11.42 11.42 0 0 0 2.23.81 20.39 20.39 0 0 0 2.85.4 27.56 27.56 0 0 0 3.21 0 30.71 30.71 0 0 0 3.29-.48 8.57 8.57 0 0 1 3.33.08 11.92 11.92 0 0 1 3.33 1.67 9 9 0 0 0 3.3 1.47 6.77 6.77 0 0 0 3.25-.5 4.41 4.41 0 0 0 2.06-2c.25-.67-.42-3.46-1.5-6.22s-2.13-5.79-2.36-6.76-.51-2.58-.63-3.59a12.25 12.25 0 0 0-1-3.35 11.17 11.17 0 0 0-2-2.69 17.41 17.41 0 0 0-2.81-2 18.51 18.51 0 0 0-3.25-1.34l-.18-.05-1.2-.38a12.75 12.75 0 0 1 .77 2.87z" fill="url(#i)"/></svg>