<svg xmlns="http://www.w3.org/2000/svg" xmlns:xlink="http://www.w3.org/1999/xlink" width="139.67" height="199.14" viewBox="0 0 139.67 199.14"><defs><linearGradient id="b" x1="57.08" y1="172.07" x2="106.07" y2="62.04" gradientUnits="userSpaceOnUse"><stop offset="0" stop-color="#fdba56"/><stop offset=".02" stop-color="#fbb055"/><stop offset=".06" stop-color="#f79d54"/><stop offset=".1" stop-color="#f59253"/><stop offset=".15" stop-color="#f48e53"/><stop offset=".3" stop-color="#ed5e4e"/><stop offset=".47" stop-color="#683a96" stop-opacity=".5"/><stop offset=".64" stop-color="#ed872b"/><stop offset=".79" stop-color="#7b76b6"/><stop offset=".9" stop-color="#f15f4f"/><stop offset="1" stop-color="#fdba56"/></linearGradient><linearGradient id="a" x1="31.53" y1="49.91" x2="71.43" y2="139.53" gradientUnits="userSpaceOnUse"><stop offset="0" stop-color="#b7151b"/><stop offset=".02" stop-color="#c52229"/><stop offset=".06" stop-color="#d7333c"/><stop offset=".11" stop-color="#e23d47"/><stop offset=".15" stop-color="#e6404b"/><stop offset=".3" stop-color="#e98a7b"/><stop offset=".47" stop-color="#7c78b8"/><stop offset=".64" stop-color="#00b0b0"/><stop offset=".79" stop-color="#7b76b6"/><stop offset="1" stop-color="#e7322f"/></linearGradient><linearGradient id="c" x1="62.88" y1="70.25" x2="70.37" y2="87.06" xlink:href="#a"/><linearGradient id="d" x1="101.41" y1="100.96" x2="107.7" y2="115.09" xlink:href="#a"/><linearGradient id="e" x1="53.42" y1="119.35" x2="62.77" y2="140.36" xlink:href="#a"/><linearGradient id="f" x1="24.74" y1="52.94" x2="64.64" y2="142.55" xlink:href="#a"/></defs><title>_</title><path d="M86.87 152.6c-.45.29-1 .6-1.56.91a5.26 5.26 0 0 0 .71.26 13.54 13.54 0 0 0 3.23.46 12 12 0 0 1 1.86.22 7.57 7.57 0 0 1-.37-1.91c-.07-1.31-1.81-1.28-3.87.06z"/><path d="M134.7 158.84a20.32 20.32 0 0 1-5.1-7.18 23.11 23.11 0 0 0-5.24-7.55c-1.89-1.64-5.1-4.2-7.14-5.68a4.2 4.2 0 0 1-1.21-5.91 45.69 45.69 0 0 0 4.27-6.94 18.33 18.33 0 0 1 5.54-6.2 14.46 14.46 0 0 0 5.06-6.67c.72-2.31-.37-3.68-2.42-3a29.41 29.41 0 0 1-7.38 1.15h-.29a19.86 19.86 0 0 1-7-1.85 9 9 0 0 0-7.21-.06 18.08 18.08 0 0 1-4.9 1.83c-.74 0-1.15 1-.91 2.15a3.84 3.84 0 0 1-.69 3.2 18.25 18.25 0 0 1-3.19 2.18 1.26 1.26 0 0 1-2-.91 2.77 2.77 0 0 1-.08-.65 3 3 0 0 0-1.35-2.51 2.13 2.13 0 0 0-1-.32 7.7 7.7 0 0 1-2.94-.89 3.45 3.45 0 0 1-.63-.43 33.19 33.19 0 0 1-2.64-2.81c-.75-.91.47-2.9 2.72-4.43s5.68-3.92 7.62-5.31a21 21 0 0 0 5.5-6.43 31.84 31.84 0 0 0 2.56-8.65c.32-2.61.66-6.26.74-8.12a15.36 15.36 0 0 0-1.39-6.46 12.61 12.61 0 0 0-4.58-4.64A12.23 12.23 0 0 1 95 61.29a18.9 18.9 0 0 0-4.07-5 29.51 29.51 0 0 0-5.78-3.56 22 22 0 0 0-3.76-1.15 22.88 22.88 0 0 0-3.15-.5 70.36 70.36 0 0 0-7.49-.08c-2 .11-5.17.4-7 .64a51.9 51.9 0 0 1-6.7.34c-1.87-.05-4.93 0-6.81.16A15.22 15.22 0 0 0 44 54.32a44.63 44.63 0 0 1-5.93 3.27 12 12 0 0 0-4.78 4.3c-.93 1.62-2.46 4.41-3.4 6.2A8.6 8.6 0 0 0 30 75a14 14 0 0 1 1.4 6.55 44.31 44.31 0 0 0-.29 5.89 6 6 0 0 0 1.21 3.14 5.72 5.72 0 0 0 1.54 1.5 5 5 0 0 1 .61.46 5.9 5.9 0 0 1 2.09 3.9 7.4 7.4 0 0 1-1.28 4.23 11.59 11.59 0 0 1-4.14 2.53c-1.55.55-4.36 2.95-6.23 5.32a87.26 87.26 0 0 0-6.08 9 39.37 39.37 0 0 0-3.39 7.59 11.63 11.63 0 0 0 .4 5.83 55.91 55.91 0 0 1 1.84 6.29 23.17 23.17 0 0 1 0 7.44 7.11 7.11 0 0 0 1.07 4.9 4.55 4.55 0 0 0 1.16 1.24 64.07 64.07 0 0 0 5.83 3.52 15.71 15.71 0 0 1 3.53 2.78 15.08 15.08 0 0 1 1.53 1.78l.14.17a10.78 10.78 0 0 0 5.52 3.63c1.91.39 5.14.93 7.17 1.21s5.37.92 7.37 1.4a17.73 17.73 0 0 0 6.44.27 22 22 0 0 0 5.24-2.06 52.66 52.66 0 0 1 7.36-3.12c2.67-.91 6.92-2.25 9.44-3a38 38 0 0 0 6.78-2.82c.58-.31 1.11-.62 1.56-.91 2.06-1.34 3.8-1.37 3.86-.06a7.57 7.57 0 0 0 .37 1.91 5.28 5.28 0 0 0 .9 1.77 7.22 7.22 0 0 0 3 1.81 13.53 13.53 0 0 0 3.23.46 36 36 0 0 1 6 1.11c2.52.63 6.75 1.53 9.4 2a23.46 23.46 0 0 0 9.63-.76 25.21 25.21 0 0 1 9.28-1c2.51.3 3.02-.62 1.21-2.06zm-63-21c-.62.58-2.17.52-3.45-.12a2.72 2.72 0 0 0-3.47.61 14.89 14.89 0 0 1-2.66 3 2.64 2.64 0 0 1-3.21-.21 6.08 6.08 0 0 0-3.77-1.3 9.63 9.63 0 0 1-3.83-.62 4.47 4.47 0 0 1-1.75-1.57 3.57 3.57 0 0 1-.49-1l-.11-.39c-.06-.18-.12-.39-.19-.6-.3-.92-.68-2-1-2.74a26.83 26.83 0 0 1-1.29-4.45 8.06 8.06 0 0 1 .82-4.77 9.14 9.14 0 0 1 3.7-3.25c.59-.25 1.37-.58 2.18-.95l.53-.24c.9-.41 1.8-.82 2.52-1.17a2.31 2.31 0 0 1 2.1 0 2.46 2.46 0 0 1 1.23 1.81 6.11 6.11 0 0 0 1.11 2.42 5.7 5.7 0 0 0 2.16 1.86 8.55 8.55 0 0 1 2.3 1.59 7.58 7.58 0 0 1 1.61 2 11 11 0 0 0 1.35 2 11.14 11.14 0 0 0 2 2 16.09 16.09 0 0 1 1.3 1 3.79 3.79 0 0 1 1 1.15c.09.35.17.48.17.29a4.62 4.62 0 0 1 .1 1.12 3.68 3.68 0 0 1-.97 2.56zm4.76-54.77a7.29 7.29 0 0 1-3.25 3.3 28.43 28.43 0 0 0-4.56 2.8 6.53 6.53 0 0 1-4.57 1.23 12.57 12.57 0 0 1-4.25-1.87 6.38 6.38 0 0 1-1.24-1.32 8.31 8.31 0 0 1-.82-1.35 5.21 5.21 0 0 1-.35-1l-.08-.34c-.3-1.23-.71-2.95-1-4a4.61 4.61 0 0 1 1.1-3.77c.87-.91 2.06-2.11 2.63-2.67a20.35 20.35 0 0 0 2.26-2.92 6.88 6.88 0 0 1 3.34-2.51 2.2 2.2 0 0 1 .73-.07 2.88 2.88 0 0 1 1.13.3 3.34 3.34 0 0 1 .4.24 3.21 3.21 0 0 1 1 1.15l.06.1c.65 1.16 1.87 1.78 2.76 1.38a7.52 7.52 0 0 1 3.4-.53 1.42 1.42 0 0 1 .25.06 1.75 1.75 0 0 1 1 2.18 12 12 0 0 0 .19 4.69 9.31 9.31 0 0 1-.14 4.96z" fill="url(#b)"/><path d="M63.08 89.34a6.52 6.52 0 0 0 4.57-1.23 28.47 28.47 0 0 1 4.56-2.8A7.29 7.29 0 0 0 75.45 82a9.31 9.31 0 0 0 .22-4.87 12 12 0 0 1-.19-4.68 2.18 2.18 0 0 0 0-1.08 1.42 1.42 0 0 0-.25-.06 7.52 7.52 0 0 0-3.4.53c-.89.4-2.11-.22-2.76-1.38a3.26 3.26 0 0 1-1.07-1.2v-.05a3.34 3.34 0 0 0-.4-.24 2.88 2.88 0 0 0-1.13-.3 12.85 12.85 0 0 0 .27 4.21 9.31 9.31 0 0 1-.22 4.87A7.29 7.29 0 0 1 63.24 81a28.47 28.47 0 0 0-4.56 2.8 5.76 5.76 0 0 1-1.35.76l.08.34a5.21 5.21 0 0 0 .35 1 8.31 8.31 0 0 0 .82 1.35c.08.07.16.16.24.22a12.57 12.57 0 0 0 4.26 1.87zm31.72 27.35a2.77 2.77 0 0 0 .08.65 1.49 1.49 0 0 0 1-.19 18.27 18.27 0 0 0 3.17-2.15 3.84 3.84 0 0 0 .69-3.2c-.24-1.17.17-2.13.91-2.15a18.1 18.1 0 0 0 4.9-1.83 9 9 0 0 1 7.21.06 19.86 19.86 0 0 0 7 1.85 10.89 10.89 0 0 0 1.12-2.36c.72-2.31-.37-3.68-2.42-3a29.39 29.39 0 0 1-7.38 1.15 19.56 19.56 0 0 1-7.32-1.87 9 9 0 0 0-7.21-.06 18.09 18.09 0 0 1-4.9 1.83c-.74 0-1.15 1-.91 2.15a3.84 3.84 0 0 1-.69 3.2 13.06 13.06 0 0 1-1.53 1.17 7.7 7.7 0 0 0 2.94.89 2.48 2.48 0 0 1 2 1.42 3 3 0 0 1 1.34 2.44zm-40.68 22.07a6.07 6.07 0 0 1 3.77 1.3 2.64 2.64 0 0 0 3.21.21 14.89 14.89 0 0 0 2.66-3 2.72 2.72 0 0 1 3.47-.61c1.28.64 2.84.7 3.45.12a3.68 3.68 0 0 0 1-2.53 4.62 4.62 0 0 0-.1-1.12c0 .2-.09.07-.17-.29v-.05a16.09 16.09 0 0 0-1.3-1 11.14 11.14 0 0 1-2-2 12.59 12.59 0 0 1-2.35-3.12 5.7 5.7 0 0 0-.61-.95 8.55 8.55 0 0 0-2.3-1.59 5.7 5.7 0 0 1-2.16-1.86 6.63 6.63 0 0 1-2.11-3.52 3 3 0 0 0-.23-.71 2.31 2.31 0 0 0-2.1 0c-.72.34-1.62.76-2.52 1.17a8.93 8.93 0 0 1 3.06 3.18 12.43 12.43 0 0 0 3.36 4 8 8 0 0 1 2.32 2.18c.09.35.17.48.17.29a4.6 4.6 0 0 1 .1 1.12 3.68 3.68 0 0 1-1 2.53c-.62.58-2.17.52-3.45-.12a2.72 2.72 0 0 0-3.47.61 14.9 14.9 0 0 1-2.66 3 2.64 2.64 0 0 1-3.21-.21l-.18-.13c.07.21.13.42.19.6l.04.39a3.57 3.57 0 0 0 .49 1 3.43 3.43 0 0 0 .75.47 9.62 9.62 0 0 0 3.88.64z" fill="url(#a)"/><path d="M25.74 154.37a64.07 64.07 0 0 1-5.83-3.52 4.55 4.55 0 0 1-1.16-1.24 6.73 6.73 0 0 1-2.07-6 23.17 23.17 0 0 0 0-7.44 55.9 55.9 0 0 0-1.84-6.29 11.63 11.63 0 0 1-.4-5.83 39.36 39.36 0 0 1 3.39-7.59 87.21 87.21 0 0 1 6.08-9c1.87-2.37 4.67-4.77 6.23-5.32a11.58 11.58 0 0 0 4.14-2.53 7.4 7.4 0 0 0 1.28-4.23 5.24 5.24 0 0 0-1.09-2.8 5 5 0 0 0-.61-.46 5.72 5.72 0 0 1-1.54-1.5 6.46 6.46 0 0 1-2.21-4.24 44.31 44.31 0 0 1 .29-5.89 14 14 0 0 0-1.4-6.6 8.6 8.6 0 0 1-.07-6.9c.94-1.79 2.48-4.58 3.4-6.2a12 12 0 0 1 4.78-4.3A44.66 44.66 0 0 0 43 53.22 15.22 15.22 0 0 1 49.25 51c1.88-.14 4.94-.21 6.81-.16a51.9 51.9 0 0 0 6.7-.34c1.82-.24 5-.52 7-.64a70.42 70.42 0 0 1 7.46.06 22.81 22.81 0 0 1 3.15.5 30.2 30.2 0 0 0-5.21-3.11 25.18 25.18 0 0 0-6.91-1.65 70.42 70.42 0 0 0-7.46-.06c-2 .11-5.17.4-7 .64a51.9 51.9 0 0 1-6.7.34c-1.87-.05-4.93 0-6.81.16A15.22 15.22 0 0 0 34 49a44.66 44.66 0 0 1-5.93 3.27 12 12 0 0 0-4.78 4.3c-.93 1.62-2.46 4.41-3.4 6.2a8.6 8.6 0 0 0 .07 6.9 14 14 0 0 1 1.4 6.55 44.33 44.33 0 0 0-.29 5.89 6.41 6.41 0 0 0 2.75 4.64 6 6 0 0 1 2.7 4.36 7.4 7.4 0 0 1-1.28 4.23 11.59 11.59 0 0 1-4.14 2.53c-1.55.55-4.36 2.95-6.23 5.32a87.21 87.21 0 0 0-6.08 9 39.36 39.36 0 0 0-3.39 7.59 11.63 11.63 0 0 0 .4 5.82 55.88 55.88 0 0 1 1.84 6.29 23.16 23.16 0 0 1 0 7.44 6.65 6.65 0 0 0 2.24 6.14 64.16 64.16 0 0 0 5.89 3.53 17.21 17.21 0 0 1 5.06 4.57 10.74 10.74 0 0 0 5.66 3.8c.93.19 2.18.42 3.45.63l-.14-.17c-.16-.22-.34-.45-.53-.68a15.71 15.71 0 0 0-3.53-2.78z" fill="url(#a)"/><path d="M63.08 89.34a6.52 6.52 0 0 0 4.57-1.23 28.47 28.47 0 0 1 4.56-2.8A7.29 7.29 0 0 0 75.45 82a9.31 9.31 0 0 0 .22-4.87 12 12 0 0 1-.19-4.68 2.18 2.18 0 0 0 0-1.08 1.42 1.42 0 0 0-.25-.06 7.52 7.52 0 0 0-3.4.53c-.89.4-2.11-.22-2.76-1.38a3.26 3.26 0 0 1-1.07-1.2v-.05a3.34 3.34 0 0 0-.4-.24 2.88 2.88 0 0 0-1.13-.3 12.85 12.85 0 0 0 .27 4.21 9.31 9.31 0 0 1-.22 4.87A7.29 7.29 0 0 1 63.24 81a28.47 28.47 0 0 0-4.56 2.8 5.76 5.76 0 0 1-1.35.76l.08.34a5.21 5.21 0 0 0 .35 1 8.31 8.31 0 0 0 .82 1.35c.08.07.16.16.24.22a12.57 12.57 0 0 0 4.26 1.87z" fill="url(#c)"/><path d="M94.8 116.69a2.77 2.77 0 0 0 .08.65 1.49 1.49 0 0 0 1-.19 18.27 18.27 0 0 0 3.17-2.15 3.84 3.84 0 0 0 .69-3.2c-.24-1.17.17-2.13.91-2.15a18.1 18.1 0 0 0 4.9-1.83 9 9 0 0 1 7.21.06 19.86 19.86 0 0 0 7 1.85 10.89 10.89 0 0 0 1.12-2.36c.72-2.31-.37-3.68-2.42-3a29.39 29.39 0 0 1-7.38 1.15 19.56 19.56 0 0 1-7.32-1.87 9 9 0 0 0-7.21-.06 18.09 18.09 0 0 1-4.9 1.83c-.74 0-1.15 1-.91 2.15a3.84 3.84 0 0 1-.69 3.2 13.06 13.06 0 0 1-1.53 1.17 7.7 7.7 0 0 0 2.94.89 2.48 2.48 0 0 1 2 1.42 3 3 0 0 1 1.34 2.44z" fill="url(#d)"/><path d="M54.12 138.76a6.07 6.07 0 0 1 3.77 1.3 2.64 2.64 0 0 0 3.21.21 14.89 14.89 0 0 0 2.66-3 2.72 2.72 0 0 1 3.47-.61c1.28.64 2.84.7 3.45.12a3.68 3.68 0 0 0 1-2.53 4.62 4.62 0 0 0-.1-1.12c0 .2-.09.07-.17-.29v-.05a16.09 16.09 0 0 0-1.3-1 11.14 11.14 0 0 1-2-2 12.59 12.59 0 0 1-2.35-3.12 5.7 5.7 0 0 0-.61-.95 8.55 8.55 0 0 0-2.3-1.59 5.7 5.7 0 0 1-2.16-1.86 6.63 6.63 0 0 1-2.11-3.52 3 3 0 0 0-.23-.71 2.31 2.31 0 0 0-2.1 0c-.72.34-1.62.76-2.52 1.17a8.93 8.93 0 0 1 3.06 3.18 12.43 12.43 0 0 0 3.36 4 8 8 0 0 1 2.32 2.18c.09.35.17.48.17.29a4.6 4.6 0 0 1 .1 1.12 3.68 3.68 0 0 1-1 2.53c-.62.58-2.17.52-3.45-.12a2.72 2.72 0 0 0-3.47.61 14.9 14.9 0 0 1-2.66 3 2.64 2.64 0 0 1-3.21-.21l-.18-.13c.07.21.13.42.19.6l.04.39a3.57 3.57 0 0 0 .49 1 3.43 3.43 0 0 0 .75.47 9.62 9.62 0 0 0 3.88.64z" fill="url(#e)"/><path d="M25.74 154.37a64.07 64.07 0 0 1-5.83-3.52 4.55 4.55 0 0 1-1.16-1.24 6.73 6.73 0 0 1-2.07-6 23.17 23.17 0 0 0 0-7.44 55.9 55.9 0 0 0-1.84-6.29 11.63 11.63 0 0 1-.4-5.83 39.36 39.36 0 0 1 3.39-7.59 87.21 87.21 0 0 1 6.08-9c1.87-2.37 4.67-4.77 6.23-5.32a11.58 11.58 0 0 0 4.14-2.53 7.4 7.4 0 0 0 1.28-4.23 5.24 5.24 0 0 0-1.09-2.8 5 5 0 0 0-.61-.46 5.72 5.72 0 0 1-1.54-1.5 6.46 6.46 0 0 1-2.21-4.24 44.31 44.31 0 0 1 .29-5.89 14 14 0 0 0-1.4-6.6 8.6 8.6 0 0 1-.07-6.9c.94-1.79 2.48-4.58 3.4-6.2a12 12 0 0 1 4.78-4.3A44.66 44.66 0 0 0 43 53.22 15.22 15.22 0 0 1 49.25 51c1.88-.14 4.94-.21 6.81-.16a51.9 51.9 0 0 0 6.7-.34c1.82-.24 5-.52 7-.64a70.42 70.42 0 0 1 7.46.06 22.81 22.81 0 0 1 3.15.5 30.2 30.2 0 0 0-5.21-3.11 25.18 25.18 0 0 0-6.91-1.65 70.42 70.42 0 0 0-7.46-.06c-2 .11-5.17.4-7 .64a51.9 51.9 0 0 1-6.7.34c-1.87-.05-4.93 0-6.81.16A15.22 15.22 0 0 0 34 49a44.66 44.66 0 0 1-5.93 3.27 12 12 0 0 0-4.78 4.3c-.93 1.62-2.46 4.41-3.4 6.2a8.6 8.6 0 0 0 .07 6.9 14 14 0 0 1 1.4 6.55 44.33 44.33 0 0 0-.29 5.89 6.41 6.41 0 0 0 2.75 4.64 6 6 0 0 1 2.7 4.36 7.4 7.4 0 0 1-1.28 4.23 11.59 11.59 0 0 1-4.14 2.53c-1.55.55-4.36 2.95-6.23 5.32a87.21 87.21 0 0 0-6.08 9 39.36 39.36 0 0 0-3.39 7.59 11.63 11.63 0 0 0 .4 5.82 55.88 55.88 0 0 1 1.84 6.29 23.16 23.16 0 0 1 0 7.44 6.65 6.65 0 0 0 2.24 6.14 64.16 64.16 0 0 0 5.89 3.53 17.21 17.21 0 0 1 5.06 4.57 10.74 10.74 0 0 0 5.66 3.8c.93.19 2.18.42 3.45.63l-.14-.17c-.16-.22-.34-.45-.53-.68a15.71 15.71 0 0 0-3.53-2.78z" fill="url(#f)"/></svg>