<svg xmlns="http://www.w3.org/2000/svg" width="56" height="200" viewBox="0 0 56 200"><defs><linearGradient id="a" x1="14.38" y1="80.66" x2="31.31" y2="42.62" gradientUnits="userSpaceOnUse"><stop offset="0" stop-color="#fdba56"/><stop offset=".02" stop-color="#fbb055"/><stop offset=".06" stop-color="#f79d54"/><stop offset=".1" stop-color="#f59253"/><stop offset=".15" stop-color="#f48e53"/><stop offset=".3" stop-color="#ed5e4e"/><stop offset=".47" stop-color="#683a96" stop-opacity=".5"/><stop offset=".64" stop-color="#ed872b"/><stop offset=".79" stop-color="#7b76b6"/><stop offset=".9" stop-color="#f15f4f"/><stop offset="1" stop-color="#fdba56"/></linearGradient><linearGradient id="b" x1="24.38" y1="50.51" x2="41.46" y2="88.87" gradientUnits="userSpaceOnUse"><stop offset="0" stop-color="#b7151b"/><stop offset=".02" stop-color="#c52229"/><stop offset=".06" stop-color="#d7333c"/><stop offset=".11" stop-color="#e23d47"/><stop offset=".15" stop-color="#e6404b"/><stop offset=".3" stop-color="#e98a7b"/><stop offset=".47" stop-color="#7c78b8"/><stop offset=".64" stop-color="#00b0b0"/><stop offset=".79" stop-color="#7b76b6"/><stop offset="1" stop-color="#e7322f"/></linearGradient></defs><title>_</title><path d="M31 53.17c-.05-2-.14-4.05-.25-5.89a33.32 33.32 0 0 0-.51-5 5.43 5.43 0 0 0-2.93-.88c-1.71-.11-3.66-.18-4.26-.16s-1.59.11-2.18.19a18.64 18.64 0 0 1-2.53.17 24.68 24.68 0 0 1-2.69-.2.82.82 0 0 0-.74.44 10 10 0 0 0-.06 3.45c.2 1.51.47 5.11.59 8s-.06 9.81-.4 15.34L15 69.69c-.37 6-.26 10.23 0 10.87a1.54 1.54 0 0 0 1 .78c.65 0 1.73 0 2.34-.08a21 21 0 0 0 2.22-.36 11.15 11.15 0 0 1 2.24-.24h.3l.53.05a11.42 11.42 0 0 1 2 .44 11.67 11.67 0 0 0 2.12.45 12.62 12.62 0 0 0 2.24 0 1.93 1.93 0 0 0 1.12-1c.22-.61.46-4.88.3-11z" fill="url(#a)"/><path d="M31.77 47.22C31.88 49 32 51 32 53.14l.42 16.47c.14 5.5 0 10.63-.39 11.4a2.85 2.85 0 0 1-1.91 1.56 13.69 13.69 0 0 1-2.46 0 12.72 12.72 0 0 1-2.35-.5 10.58 10.58 0 0 0-1.84-.4v1a22 22 0 0 0 .27 5.18 2.51 2.51 0 0 0 1.91 1.38 24.3 24.3 0 0 0 2.46-.08 21.76 21.76 0 0 0 2.35-.38 9.88 9.88 0 0 1 2.29-.21A10.32 10.32 0 0 1 35 89a12.72 12.72 0 0 0 2.35.5 13.69 13.69 0 0 0 2.46 0 2.85 2.85 0 0 0 1.95-1.5c.36-.77.54-5.9.39-11.4l-.42-16.52c-.14-5.5-.52-10.58-.84-11.29s-2-1.38-3.79-1.48-3.69-.18-4.33-.16z" fill="url(#b)"/></svg>