<svg xmlns="http://www.w3.org/2000/svg" width="62.7" height="200" viewBox="0 0 62.7 200"><defs><linearGradient id="a" x1="12.96" y1="168" x2="66.45" y2="47.86" gradientUnits="userSpaceOnUse"><stop offset="0" stop-color="#fdba56"/><stop offset=".02" stop-color="#fbb055"/><stop offset=".06" stop-color="#f79d54"/><stop offset=".1" stop-color="#f59253"/><stop offset=".15" stop-color="#f48e53"/><stop offset=".3" stop-color="#ed5e4e"/><stop offset=".47" stop-color="#683a96" stop-opacity=".5"/><stop offset=".64" stop-color="#ed872b"/><stop offset=".79" stop-color="#7b76b6"/><stop offset=".9" stop-color="#f15f4f"/><stop offset="1" stop-color="#fdba56"/></linearGradient><linearGradient id="b" x1="24.89" y1="59.75" x2="77.34" y2="177.54" gradientUnits="userSpaceOnUse"><stop offset="0" stop-color="#b7151b"/><stop offset=".02" stop-color="#c52229"/><stop offset=".06" stop-color="#d7333c"/><stop offset=".11" stop-color="#e23d47"/><stop offset=".15" stop-color="#e6404b"/><stop offset=".3" stop-color="#e98a7b"/><stop offset=".47" stop-color="#7c78b8"/><stop offset=".64" stop-color="#00b0b0"/><stop offset=".79" stop-color="#7b76b6"/><stop offset="1" stop-color="#e7322f"/></linearGradient></defs><title>_</title><path d="M52 42.34a3.29 3.29 0 0 0-1.35-1.49 6.12 6.12 0 0 0-2.65-.76 7.64 7.64 0 0 0-2.87.81 14.81 14.81 0 0 1-3.73 1.33 12.51 12.51 0 0 1-3.78 0c-1-.18-3.42-.8-5.47-1.38a7.77 7.77 0 0 0-3.95-.31 5.49 5.49 0 0 0-1.2 2.62 32.86 32.86 0 0 1-1.23 4.55 24.57 24.57 0 0 1-1.9 3.87A27.63 27.63 0 0 0 22.09 55a93.13 93.13 0 0 0-2.38 9.71 79.85 79.85 0 0 1-2.41 9.66A25 25 0 0 0 16.21 77a24.43 24.43 0 0 0-.68 2.81c-.13.79-.29 2.13-.35 2.94s-.09 2.16-.07 3a9.78 9.78 0 0 1-.71 3.49 14.66 14.66 0 0 1-2.2 3.31 6.4 6.4 0 0 0-1.37 2.63 5.94 5.94 0 0 0 .51 2.8 23.58 23.58 0 0 1 1.36 3.65 18.33 18.33 0 0 1 .5 3.59c0 1.09-.5 5.48-1 9.1a61.84 61.84 0 0 0-.8 8.83 43.12 43.12 0 0 0 2.14 6.51c1.12 2.8 2.17 5.71 2.4 6.61a24.63 24.63 0 0 1 .56 3.31 23.27 23.27 0 0 0 1.31 5.95 14.58 14.58 0 0 1 .68 3.72 26.13 26.13 0 0 1-.34 4.45 11.63 11.63 0 0 0 .1 3.95 19.77 19.77 0 0 0 2.94 5 66.18 66.18 0 0 1 4.37 6.49 45.93 45.93 0 0 1 2.25 4.45 3.51 3.51 0 0 0 1.15 1.46 5.06 5.06 0 0 0 2.18.44h.72c.86 0 1.9 0 2.63.11a61.31 61.31 0 0 1 6.82 1.55 26.53 26.53 0 0 0 6.11 1.12 7.3 7.3 0 0 0 2.52-1 3.9 3.9 0 0 0 1.34-1.58 23.62 23.62 0 0 0-2.13-5.65c-1.28-2.63-2.7-6.26-2.85-7.78a19.38 19.38 0 0 1 .33-5 16.64 16.64 0 0 0 .26-4.38 38.86 38.86 0 0 0-3.33-8.06c-1.59-3.08-3.32-7.22-3.39-8.81a14.71 14.71 0 0 1 .9-5 19.15 19.15 0 0 0 1-4.37 15.52 15.52 0 0 0-.34-4.13A32 32 0 0 1 41 118c-.09-1.25 0-5.26.27-8.94a74.72 74.72 0 0 0 .18-8.63 41.66 41.66 0 0 0-.8-4.35 43.55 43.55 0 0 1-.85-4.64 41.36 41.36 0 0 1-.22-4.63 16.75 16.75 0 0 1 .88-4.67 19.29 19.29 0 0 1 2.44-4.31A17.56 17.56 0 0 0 45.07 74a15 15 0 0 0 .77-4 31.71 31.71 0 0 1 .5-4.58A30.76 30.76 0 0 1 47.63 61a27.59 27.59 0 0 0 1.18-4 29.67 29.67 0 0 0 .42-4.32 22 22 0 0 1 .56-4.5l.05-.18a16.19 16.19 0 0 1 1.56-3.61 3.66 3.66 0 0 0 .6-2.05z" fill="url(#a)"/><path d="M50.82 48.2l-.06.22a21.23 21.23 0 0 0-.52 4.25 30.47 30.47 0 0 1-.44 4.5 28.42 28.42 0 0 1-1.23 4.24 29.75 29.75 0 0 0-1.25 4.21 30.5 30.5 0 0 0-.48 4.4 16 16 0 0 1-.84 4.36 18.51 18.51 0 0 1-2.29 4 18.44 18.44 0 0 0-2.29 4 15.86 15.86 0 0 0-.82 4.34 40.4 40.4 0 0 0 .22 4.5 42.68 42.68 0 0 0 .83 4.51 42.12 42.12 0 0 1 .82 4.47 75.41 75.41 0 0 1-.17 8.81c-.24 3.63-.36 7.59-.27 8.8a30.88 30.88 0 0 0 .71 4.39 16.49 16.49 0 0 1 .36 4.46 20.06 20.06 0 0 1-1.1 4.65 13.81 13.81 0 0 0-.83 4.6c0 1.22 1.52 5 3.27 8.39s3.3 7.17 3.44 8.41a17.62 17.62 0 0 1-.28 4.7 18.53 18.53 0 0 0-.31 4.71 32 32 0 0 0 2.71 7.52c1.39 2.85 2.38 5.72 2.19 6.37a4.81 4.81 0 0 1-1.74 2.13 8.26 8.26 0 0 1-3 1.16 26.61 26.61 0 0 1-6.45-1.15 62 62 0 0 0-6.59-1.51h-.04l.6 1.1c.71 1.33 1.36 2.64 1.58 3.21a4.46 4.46 0 0 0 1.58 2 6 6 0 0 0 2.73.58 30.43 30.43 0 0 1 3.28.1 62 62 0 0 1 6.59 1.51 26.61 26.61 0 0 0 6.51 1.15 8.26 8.26 0 0 0 3-1.16 4.81 4.81 0 0 0 1.69-2.13c.19-.65-.8-3.51-2.19-6.37a32 32 0 0 1-2.74-7.49 18.53 18.53 0 0 1 .31-4.71 17.62 17.62 0 0 0 .28-4.7c-.14-1.23-1.68-5-3.44-8.41s-3.23-7.16-3.27-8.39a13.81 13.81 0 0 1 .83-4.6 20.06 20.06 0 0 0 1.1-4.65 16.49 16.49 0 0 0-.36-4.46 30.88 30.88 0 0 1-.71-4.39c-.09-1.21 0-5.17.27-8.8a75.41 75.41 0 0 0 .17-8.81 42.12 42.12 0 0 0-.82-4.47 42.68 42.68 0 0 1-.83-4.51 40.4 40.4 0 0 1-.22-4.5 15.86 15.86 0 0 1 .82-4.34 18.44 18.44 0 0 1 2.29-4 18.51 18.51 0 0 0 2.29-4 16 16 0 0 0 .83-4.4 30.5 30.5 0 0 1 .48-4.4 29.75 29.75 0 0 1 1.25-4.21 28.42 28.42 0 0 0 1.23-4.24 30.47 30.47 0 0 0 .44-4.5 21.23 21.23 0 0 1 .52-4.25A14.9 14.9 0 0 1 62 51.86a4.49 4.49 0 0 0 .71-2.8 4.15 4.15 0 0 0-1.82-2.14 7.37 7.37 0 0 0-3.21-.92 8.59 8.59 0 0 0-3.34.93 14.24 14.24 0 0 1-2.38 1 9.49 9.49 0 0 1-1.05.27h-.09z" fill="url(#b)"/></svg>