<svg xmlns="http://www.w3.org/2000/svg" width="74.06" height="200" viewBox="0 0 74.06 200"><defs><linearGradient id="a" x1="-6.01" y1="174.26" x2="48.12" y2="52.69" gradientUnits="userSpaceOnUse"><stop offset="0" stop-color="#fdba56"/><stop offset=".02" stop-color="#fbb055"/><stop offset=".06" stop-color="#f79d54"/><stop offset=".1" stop-color="#f59253"/><stop offset=".15" stop-color="#f48e53"/><stop offset=".3" stop-color="#ed5e4e"/><stop offset=".47" stop-color="#683a96" stop-opacity=".5"/><stop offset=".64" stop-color="#ed872b"/><stop offset=".79" stop-color="#7b76b6"/><stop offset=".9" stop-color="#f15f4f"/><stop offset="1" stop-color="#fdba56"/></linearGradient><linearGradient id="b" x1="6.11" y1="63.01" x2="58.95" y2="181.68" gradientUnits="userSpaceOnUse"><stop offset="0" stop-color="#b7151b"/><stop offset=".02" stop-color="#c52229"/><stop offset=".06" stop-color="#d7333c"/><stop offset=".11" stop-color="#e23d47"/><stop offset=".15" stop-color="#e6404b"/><stop offset=".3" stop-color="#e98a7b"/><stop offset=".47" stop-color="#7c78b8"/><stop offset=".64" stop-color="#00b0b0"/><stop offset=".79" stop-color="#7b76b6"/><stop offset="1" stop-color="#e7322f"/></linearGradient></defs><title>_</title><path d="M35.95 50a15.46 15.46 0 0 0-2.39-2.26c-1.47-1.12-3.32-2.56-4.12-3.22a5.67 5.67 0 0 0-2.51-1.1 6.41 6.41 0 0 0-2.89.69 16.41 16.41 0 0 1-3.83 1.35 12.79 12.79 0 0 1-3.79 0c-.88-.15-2.36-.31-3.24-.35h-1c-.76 0-1.61 0-2.19.07A2.32 2.32 0 0 0 8.5 46a27.62 27.62 0 0 0 .72 6.82c.67 3.42 1.57 7.24 2 8.33s1.17 2.92 1.71 4 1.38 3 1.83 4.18 1.09 3.1 1.43 4.31.78 3.2 1 4.44.4 3.28.45 4.55a29.64 29.64 0 0 0 .55 4.25A30.92 30.92 0 0 0 19.44 91a18.4 18.4 0 0 1 1.13 4.63 18.82 18.82 0 0 1-.35 4.79c-.24 1.06-.68 5.71-1 10.93a89.73 89.73 0 0 0-.12 10.82 28.63 28.63 0 0 0 1.16 4.33 13.66 13.66 0 0 1 .74 4.88 13 13 0 0 1-1.41 4.62 13.24 13.24 0 0 0-1.34 4 14 14 0 0 0 .26 4.21 19.43 19.43 0 0 1 .46 4.89 17.25 17.25 0 0 1-1.07 4.63 40.87 40.87 0 0 0-1.39 4.12 41.38 41.38 0 0 0-.84 4.26c-.16 1.25-.52 3.27-.8 4.5s-.81 3.19-1.19 4.38A31.71 31.71 0 0 1 12 175a22.41 22.41 0 0 1-2.14 3.29 3.17 3.17 0 0 0-.69 1.71 3.19 3.19 0 0 0 1.23 1.48 6.34 6.34 0 0 0 2.58.9 7.14 7.14 0 0 0 2.83-.64 37.43 37.43 0 0 1 3.54-1.43c.43-.14 1-.3 1.54-.45.77-.21 1.49-.37 2-.47a12.78 12.78 0 0 1 3.82 0 15.87 15.87 0 0 1 3.83 1.3 3.32 3.32 0 0 0 2.15.33 22.23 22.23 0 0 0 2.71-5.79 81.19 81.19 0 0 1 3-7.75c.55-1 1.56-2.7 2.26-3.71a39.92 39.92 0 0 0 2.15-3.61 38.31 38.31 0 0 0 1.63-3.81 17 17 0 0 0 .79-3.62 12.24 12.24 0 0 0-.28-3.25 15.5 15.5 0 0 1-.45-3.56 12.57 12.57 0 0 1 .6-3.33 26.22 26.22 0 0 1 1.32-3 30.61 30.61 0 0 1 1.82-2.91A10.88 10.88 0 0 0 49.6 134a67.09 67.09 0 0 0 .11-9.73 97.85 97.85 0 0 0-.72-10c-.23-.92-.73-2.49-1.1-3.43a12.46 12.46 0 0 1-.73-4 13.4 13.4 0 0 1 .88-4.08 12.49 12.49 0 0 0 .79-3.38 10.82 10.82 0 0 0-.45-3.24 34.64 34.64 0 0 1-1-3.61A27.94 27.94 0 0 1 47 89a11.53 11.53 0 0 0-.55-2.84A13.29 13.29 0 0 0 45 83.51a10.13 10.13 0 0 1-1.52-3.4 10.42 10.42 0 0 1 .1-3.75 14.82 14.82 0 0 0 .31-3.36 19.63 19.63 0 0 0-.65-3.7 28.94 28.94 0 0 0-1.46-3.78A30.32 30.32 0 0 0 39.66 62a17.25 17.25 0 0 1-2-3.92 15 15 0 0 1-.63-4.2 9.25 9.25 0 0 0-.5-3 3.76 3.76 0 0 0-.58-.88z" fill="url(#a)"/><path d="M54.6 79.89a20.57 20.57 0 0 0-.69-3.89 29.8 29.8 0 0 0-1.52-4 31.15 31.15 0 0 0-2.2-3.68 16.33 16.33 0 0 1-1.89-3.65 14 14 0 0 1-.58-3.87 10.14 10.14 0 0 0-.58-3.45 12.28 12.28 0 0 0-3.26-3.46c-1.45-1.1-3.29-2.54-4.08-3.19a6.52 6.52 0 0 0-1.58-.91 5.24 5.24 0 0 0-1.49-.42 4.79 4.79 0 0 1 .7 1 10.14 10.14 0 0 1 .57 3.51 14 14 0 0 0 .58 3.87 16.33 16.33 0 0 0 1.89 3.65 31.15 31.15 0 0 1 2.2 3.68A29.8 29.8 0 0 1 44.2 69a20.57 20.57 0 0 1 .69 3.93 15.82 15.82 0 0 1-.32 3.64 9.43 9.43 0 0 0-.1 3.33 9.13 9.13 0 0 0 1.35 3 14.3 14.3 0 0 1 1.59 2.94A12.54 12.54 0 0 1 48 89a26.72 26.72 0 0 0 .39 3.32 33.36 33.36 0 0 0 .92 3.48 11.86 11.86 0 0 1 .5 3.61 13.51 13.51 0 0 1-.86 3.71 12.45 12.45 0 0 0-.81 3.72 11.5 11.5 0 0 0 .66 3.65A36.78 36.78 0 0 1 50 114a95.82 95.82 0 0 1 .75 10.24 64.46 64.46 0 0 1-.15 10 11.77 11.77 0 0 1-1.46 2.94 29.67 29.67 0 0 0-1.75 2.8 25.09 25.09 0 0 0-1.26 2.86 11.6 11.6 0 0 0-.54 3 14.56 14.56 0 0 0 .41 3.28 13.27 13.27 0 0 1 .31 3.57 18 18 0 0 1-.84 3.88 38.93 38.93 0 0 1-1.69 3.93 40.38 40.38 0 0 1-2.22 3.72c-.68 1-1.67 2.62-2.2 3.62s-1.86 4.42-3 7.61-2.56 6.06-3.23 6.37a4.08 4.08 0 0 1-3-.34 15 15 0 0 0-3.55-1.21 11.88 11.88 0 0 0-3.47 0c-.53.1-1.25.27-1.95.46-.1.22-.2.42-.29.59s-.22.4-.35.62a21.54 21.54 0 0 1-1.68 2.5 2.82 2.82 0 0 0 .72 4.72 7.34 7.34 0 0 0 3.08 1.07 8.24 8.24 0 0 0 3.31-.74 36 36 0 0 1 3.43-1.39 31.66 31.66 0 0 1 3.43-.89 11.88 11.88 0 0 1 3.47 0 15 15 0 0 1 3.55 1.21 4.08 4.08 0 0 0 3 .34c.68-.31 2.13-3.18 3.23-6.37s2.44-6.61 3-7.61 1.52-2.62 2.2-3.62a40.38 40.38 0 0 0 2.22-3.72 38.93 38.93 0 0 0 1.69-3.93 18 18 0 0 0 .84-3.88 13.27 13.27 0 0 0-.31-3.57 14.56 14.56 0 0 1-.41-3.28 11.6 11.6 0 0 1 .54-3 25.09 25.09 0 0 1 1.23-2.78 29.67 29.67 0 0 1 1.75-2.8 11.77 11.77 0 0 0 1.46-2.94 64.46 64.46 0 0 0 .15-10 95.82 95.82 0 0 0-.74-10.26 36.78 36.78 0 0 0-1.13-3.55 11.5 11.5 0 0 1-.66-3.65 12.45 12.45 0 0 1 .81-3.72 13.51 13.51 0 0 0 .86-3.71 11.86 11.86 0 0 0-.5-3.61 33.36 33.36 0 0 1-.92-3.48 26.72 26.72 0 0 1-.39-3.32 12.54 12.54 0 0 0-.61-3.14 14.3 14.3 0 0 0-1.59-2.94 9.13 9.13 0 0 1-1.35-3 9.43 9.43 0 0 1 .1-3.33 15.82 15.82 0 0 0 .3-3.66z" fill="url(#b)"/></svg>