<svg xmlns="http://www.w3.org/2000/svg" xmlns:xlink="http://www.w3.org/1999/xlink" width="86.2" height="200" viewBox="0 0 86.2 200"><defs><linearGradient id="b" x1="25.37" y1="103.43" x2="51.57" y2="44.57" gradientUnits="userSpaceOnUse"><stop offset="0" stop-color="#fdba56"/><stop offset=".02" stop-color="#fbb055"/><stop offset=".06" stop-color="#f79d54"/><stop offset=".1" stop-color="#f59253"/><stop offset=".15" stop-color="#f48e53"/><stop offset=".3" stop-color="#ed5e4e"/><stop offset=".47" stop-color="#683a96" stop-opacity=".5"/><stop offset=".64" stop-color="#ed872b"/><stop offset=".79" stop-color="#7b76b6"/><stop offset=".9" stop-color="#f15f4f"/><stop offset="1" stop-color="#fdba56"/></linearGradient><linearGradient id="a" x1="48.61" y1="47.13" x2="54.01" y2="59.25" gradientUnits="userSpaceOnUse"><stop offset="0" stop-color="#b7151b"/><stop offset=".02" stop-color="#c52229"/><stop offset=".06" stop-color="#d7333c"/><stop offset=".11" stop-color="#e23d47"/><stop offset=".15" stop-color="#e6404b"/><stop offset=".3" stop-color="#e98a7b"/><stop offset=".47" stop-color="#7c78b8"/><stop offset=".64" stop-color="#00b0b0"/><stop offset=".79" stop-color="#7b76b6"/><stop offset="1" stop-color="#e7322f"/></linearGradient><linearGradient id="c" x1="59.48" y1="67.18" x2="76.65" y2="105.73" xlink:href="#a"/><linearGradient id="d" x1="30.07" y1="91.18" x2="38.35" y2="109.8" xlink:href="#a"/><linearGradient id="e" x1="17.23" y1="73.27" x2="20.87" y2="81.44" xlink:href="#a"/></defs><title>_</title><path d="M46.08 56.27a20.14 20.14 0 0 1 .16-2.69c.1-.7.2-1.88.22-2.57s0-1.88 0-2.57c0-.19 0-.41-.05-.64-.06-.63-.15-1.36-.22-1.84-.1-.65-.32-1.68-.48-2.27a6.41 6.41 0 0 0-.71-1.61 3.58 3.58 0 0 0-1-.88 2.82 2.82 0 0 0-1.16-.25 5.17 5.17 0 0 0-1.56.45 6.35 6.35 0 0 1-2.55.57 6.47 6.47 0 0 1-2.53-.74 6.07 6.07 0 0 0-1.7-.59 4.7 4.7 0 0 0-1.59.14 2.62 2.62 0 0 0-1.06.75 20.11 20.11 0 0 0-.85 4.32 29.82 29.82 0 0 0-.27 5 12.35 12.35 0 0 0 .71 2.44 13 13 0 0 1 .82 3 13 13 0 0 1-.07 3.1A3.61 3.61 0 0 1 30.63 62a3.65 3.65 0 0 1-3-.31 14.92 14.92 0 0 0-2.45-1 14.18 14.18 0 0 0-2.55-.39 15.78 15.78 0 0 1-3-.45 48.41 48.41 0 0 1-5.22-2.2 17.78 17.78 0 0 0-3.66-1.37 1.75 1.75 0 0 0-.21.63 15 15 0 0 1-.52 2.46 40.86 40.86 0 0 1-2 4.25c-.86 1.63-2 4-2.48 5.32a5.85 5.85 0 0 0-.46 2.21 11.8 11.8 0 0 0 2.92.76c1.74.26 3.71.63 4.49.85s1.81.45 2.53.57 2 .24 2.69.28a18.19 18.19 0 0 1 3 .42 19.76 19.76 0 0 1 2.91 1 3.47 3.47 0 0 1 2.05 2.21A3.69 3.69 0 0 1 24.39 80a14.44 14.44 0 0 0-1.24 1.39c-.2.26-.39.51-.53.72a14.09 14.09 0 0 0-1.2 2.44A15.51 15.51 0 0 1 20 87.38a14.74 14.74 0 0 1-2 2.36c-.55.51-1.42 1.39-1.88 1.93a24.7 24.7 0 0 0-1.55 2 4.07 4.07 0 0 0-.6 1.49 1.74 1.74 0 0 0 .34.92c.29.33 1.21 1.25 2.13 2.09A17.17 17.17 0 0 0 18.8 100a13 13 0 0 0 1.9.81 14.42 14.42 0 0 1 2.2.94l.5.3a10.77 10.77 0 0 1 1.32 1 .84.84 0 0 0 .49.2 3.73 3.73 0 0 0 .9-1c.42-.65 1.57-2.21 2.56-3.47s2.08-2.76 2.49-3.41A26.51 26.51 0 0 0 32.51 93a21.38 21.38 0 0 1 1.57-2.73 23.76 23.76 0 0 1 2.07-2.49 4.44 4.44 0 0 1 2.77-1.37H39a4.21 4.21 0 0 1 2.68 1.73 25.83 25.83 0 0 1 1.71 2.73 25 25 0 0 1 1.26 2.92 22.1 22.1 0 0 0 1.12 2.59l.14.23c.55.88 2 2.78 3.28 4.41a18.9 18.9 0 0 0 3.1 3.2 1.73 1.73 0 0 0 .66-.52 8.82 8.82 0 0 1 .78-.9 7.31 7.31 0 0 1 3.58-2.15 13.26 13.26 0 0 0 2-.74 25.42 25.42 0 0 0 3.28-2.58 9.07 9.07 0 0 0 2.19-2.62 4.81 4.81 0 0 0-.6-1.71 13.24 13.24 0 0 0-1.67-2.09 14.23 14.23 0 0 0-2.19-1.67 15.17 15.17 0 0 1-2.55-2 30.41 30.41 0 0 1-3.17-4.83c-.36-.65-2.15-4-1.86-5.18a4.23 4.23 0 0 1 1.64-2.19 16.79 16.79 0 0 1 2.38-1.3 20.54 20.54 0 0 1 2.73-.9c.79-.19 2.74-.51 4.35-.71a20.83 20.83 0 0 0 3.83-.79 8.71 8.71 0 0 0 2-1.22A9.56 9.56 0 0 0 71 68.55a5.09 5.09 0 0 0 .6-1.48 3.29 3.29 0 0 0-.12-1.32 5 5 0 0 0-.9-1.36 8.33 8.33 0 0 1-1.13-1.56 5.33 5.33 0 0 1-.28-.56 7.69 7.69 0 0 1-.5-2.47 12.14 12.14 0 0 0-.25-2.05 14.8 14.8 0 0 0-.7-2.12 2.17 2.17 0 0 0-.89-1 3.79 3.79 0 0 0-1.79.11c-.76.24-2.57.92-4 1.5s-2.75 1.22-3.48 1.63l-.06.13c-.63.37-1.65 1.05-2.25 1.49a13.18 13.18 0 0 1-2.5 1.41 9.72 9.72 0 0 1-2.59.58 4.32 4.32 0 0 1-2.46-.62 4 4 0 0 1-1.32-2.13 14.51 14.51 0 0 1-.3-2.46z" fill="url(#b)"/><path d="M47.41 48.36c.05.74.07 1.94 0 2.68s-.13 1.94-.23 2.68a19.09 19.09 0 0 0-.15 2.53 13.57 13.57 0 0 0 .28 2.25 3 3 0 0 0 .98 1.5 3.37 3.37 0 0 0 1.83.44 8.68 8.68 0 0 0 2.26-.44 12.23 12.23 0 0 0 2.27-1.29c.62-.46 1.67-1.16 2.32-1.54l.2-.17v-1.73c-.05-.74-.18-1.89-.29-2.57s-.33-1.75-.5-2.37a7.3 7.3 0 0 0-.84-1.91 4.53 4.53 0 0 0-1.31-1.19 3.81 3.81 0 0 0-1.68-.37 6.11 6.11 0 0 0-1.95.55 5.25 5.25 0 0 1-2.08.47h-.1a4.84 4.84 0 0 1-1-.21c-.04.26-.02.49-.01.69z" fill="url(#a)"/><path d="M70.37 62.33a7.36 7.36 0 0 0 1 1.36 5.94 5.94 0 0 1 1.12 1.72 4.26 4.26 0 0 1 .16 1.83 6 6 0 0 1-.74 1.85 10.45 10.45 0 0 1-1.59 1.8 9.64 9.64 0 0 1-2.24 1.39 21.42 21.42 0 0 1-4.09.86c-1.57.2-3.48.51-4.24.69a19.74 19.74 0 0 0-2.58.85 15.88 15.88 0 0 0-2.21 1.2 3.27 3.27 0 0 0-1.23 1.59c-.13.53.66 2.53 1.75 4.47a30 30 0 0 0 3 4.61 14.2 14.2 0 0 0 2.35 1.83 15.3 15.3 0 0 1 2.38 1.82A14.27 14.27 0 0 1 65 92.48a5.27 5.27 0 0 1 .76 2.29c0 .57-1.14 2-2.51 3.27a25.33 25.33 0 0 1-3.51 2.74 14.28 14.28 0 0 1-2.16.81 8 8 0 0 0-2.11 1 7.83 7.83 0 0 0-1 .9l.15.3c.08.14.21.36.38.61.65 1 1.9 2.66 3.15 4.2 1.56 1.93 3.24 3.54 3.72 3.59a2.2 2.2 0 0 0 1.63-1 8.85 8.85 0 0 1 1.7-1.7 8 8 0 0 1 2.11-1 14.28 14.28 0 0 0 2.16-.81A25.33 25.33 0 0 0 73 105c1.37-1.23 2.5-2.7 2.51-3.27a5.27 5.27 0 0 0-.76-2.29 14.27 14.27 0 0 0-1.82-2.29 15.3 15.3 0 0 0-2.38-1.82 14.2 14.2 0 0 1-2.35-1.83 30 30 0 0 1-3-4.61c-1.09-2-1.88-4-1.76-4.47a3.27 3.27 0 0 1 1.23-1.59 15.88 15.88 0 0 1 2.21-1.2 19.74 19.74 0 0 1 2.58-.85c.76-.18 2.67-.49 4.24-.69a21.42 21.42 0 0 0 4.09-.86 9.64 9.64 0 0 0 2.21-1.4A10.45 10.45 0 0 0 81.6 76a6 6 0 0 0 .74-1.85 4.26 4.26 0 0 0-.16-1.83 5.94 5.94 0 0 0-1.12-1.72 7.08 7.08 0 0 1-1.21-1.81 6.75 6.75 0 0 1-.42-2.1 13.24 13.24 0 0 0-.27-2.26 15.83 15.83 0 0 0-.75-2.29 3.07 3.07 0 0 0-1.47-1.51 4.62 4.62 0 0 0-2.43.1c-.65.2-2 .69-3.2 1.19l-.84.34z" fill="url(#c)"/><path d="M45.1 97.12l-.17-.29a23 23 0 0 1-1.18-2.73 23.94 23.94 0 0 0-1.2-2.78 24.93 24.93 0 0 0-1.63-2.6A3.28 3.28 0 0 0 39 87.39a3.39 3.39 0 0 0-2.11 1.07 22.75 22.75 0 0 0-2 2.37 20.66 20.66 0 0 0-1.49 2.58A27.6 27.6 0 0 1 32 96c-.43.68-1.58 2.25-2.55 3.49s-2.1 2.77-2.51 3.4a3.8 3.8 0 0 1-1.46 1.38 1.66 1.66 0 0 1-1.44-.42 10 10 0 0 0-1.19-.9 2.51 2.51 0 0 0 .43.77c.26.3.88.92 1.53 1.54l.67.63a17.87 17.87 0 0 0 2.54 2 14 14 0 0 0 2.08.89 13.43 13.43 0 0 1 2 .86 10.22 10.22 0 0 1 1.63 1.17 1.66 1.66 0 0 0 1.44.42 3.8 3.8 0 0 0 1.46-1.38c.41-.63 1.54-2.16 2.51-3.4s2.12-2.81 2.55-3.49a27.6 27.6 0 0 0 1.4-2.58A20.79 20.79 0 0 1 44.47 98l.14-.22c.14-.2.31-.43.49-.66z" fill="url(#d)"/><path d="M22.37 80.78a15.3 15.3 0 0 1 1.34-1.5 2.83 2.83 0 0 0 1-1.89 2.59 2.59 0 0 0-1.48-1.44 18.88 18.88 0 0 0-2.75-.95 17.41 17.41 0 0 0-2.79-.4c-.77 0-2-.16-2.77-.28l-.4.94-.11.26c-.52 1.33-.69 2.75-.38 3.15s1.93.92 3.59 1.17c1.31.19 2.79.46 3.72.67l.63.16z" fill="url(#e)"/></svg>