<svg xmlns="http://www.w3.org/2000/svg" xmlns:xlink="http://www.w3.org/1999/xlink" width="200" height="200" viewBox="0 0 200 200"><defs><linearGradient id="a" x1="76.71" y1="148.7" x2="107.08" y2="80.49" gradientUnits="userSpaceOnUse"><stop offset="0" stop-color="#fdba56"/><stop offset="0.02" stop-color="#fbb055"/><stop offset="0.06" stop-color="#f79d54"/><stop offset="0.1" stop-color="#f59253"/><stop offset="0.15" stop-color="#f48e53"/><stop offset="0.3" stop-color="#ed5e4e"/><stop offset="0.47" stop-color="#683a96" stop-opacity="0.5"/><stop offset="0.64" stop-color="#ed872b"/><stop offset="0.79" stop-color="#7b76b6"/><stop offset="0.9" stop-color="#f15f4f"/><stop offset="1" stop-color="#fdba56"/></linearGradient><linearGradient id="b" x1="100.62" y1="83.14" x2="110.28" y2="104.84" gradientUnits="userSpaceOnUse"><stop offset="0" stop-color="#b7151b"/><stop offset="0.02" stop-color="#c52229"/><stop offset="0.06" stop-color="#d7333c"/><stop offset="0.11" stop-color="#e23d47"/><stop offset="0.15" stop-color="#e6404b"/><stop offset="0.3" stop-color="#e98a7b"/><stop offset="0.47" stop-color="#7c78b8"/><stop offset="0.64" stop-color="#00b0b0"/><stop offset="0.79" stop-color="#7b76b6"/><stop offset="1" stop-color="#e7322f"/></linearGradient><linearGradient id="c" x1="109.14" y1="121.38" x2="123.32" y2="153.24" xlink:href="#b"/><linearGradient id="d" x1="68.27" y1="119.78" x2="74.44" y2="133.64" xlink:href="#b"/></defs><title>_</title><path d="M98.88,78.91a6.22,6.22,0,0,0,.3-1.94,1.17,1.17,0,0,0-.53,0c-0.77.23-2,.54-2.68,0.67a23,23,0,0,1-2.48.33c-0.64,0-1.68.06-2.33,0s-2.56-.2-4.35-0.42a6.88,6.88,0,0,0-3.08.17,7.88,7.88,0,0,0-.93,2.09,14.22,14.22,0,0,0-.43,3.26,16,16,0,0,0,.51,3.39,21.69,21.69,0,0,1,.67,3.91,40,40,0,0,1-.34,5.65c-0.24,1.93-.43,4.32-0.42,5.22a6.13,6.13,0,0,1-1.07,3.46,6.64,6.64,0,0,1-3.17,1.88,16.77,16.77,0,0,1-3.84.46,19,19,0,0,1-3.93-.56,34.88,34.88,0,0,0-3.61-.73,33.15,33.15,0,0,0-3.6-.24c-1,0-2.62.08-3.57,0.18s-2.53.34-3.45,0.53a6.82,6.82,0,0,0-2.13.81,1,1,0,0,0-.3.62,19.57,19.57,0,0,1,.17,2.05c0,0.7-.34,4.21-0.69,7.16a21,21,0,0,0-.11,5.51,6.3,6.3,0,0,0,2.05-.14c1.15-.26,3-0.59,4.09-0.72,0.74-.09,1.81-0.18,2.8-0.22l1.13,0h0c1.11,0,4.38.31,7.48,0.71s6.2,0.72,7.08.73a5.7,5.7,0,0,1,3.31,1.16c1,0.93,1.61,4.91,1.77,6.11,0,0.35.07,0.6,0.1,0.85a54.57,54.57,0,0,1,.36,7.56,32.61,32.61,0,0,1-.72,4,18.06,18.06,0,0,0-.48,3.53,16.72,16.72,0,0,0,.4,3.43,9.22,9.22,0,0,0,1,2.48,7.82,7.82,0,0,0,3.17,1,22.63,22.63,0,0,0,4,.3,11.09,11.09,0,0,0,2-.54,11.47,11.47,0,0,1,2.46-.64,9.8,9.8,0,0,1,2.44.07,0.45,0.45,0,0,0,.38-0.11,6.07,6.07,0,0,0,0-2.13,23,23,0,0,1-.15-4,24.51,24.51,0,0,1,.68-4c0.27-1,.64-2.7.79-3.7s0.3-4.27.33-7.15c0-.59.08-5.81,1.11-6.93a5,5,0,0,1,3.15-1.23c0.86,0,2.36-.16,3.28-0.29s2.52-.45,3.53-0.7a18.19,18.19,0,0,1,7.9-.23c1,0.19,3.55.48,5.62,0.64a14.43,14.43,0,0,0,4.44-.18,2.17,2.17,0,0,0,.88-1.18,9.43,9.43,0,0,0,.17-2.17,8.28,8.28,0,0,0-.46-2,23,23,0,0,1-.77-2.36c-0.1-.41-0.22-1-0.32-1.58,0-.29-0.09-0.57-0.12-0.8a22.16,22.16,0,0,1-.12-2.31,20.09,20.09,0,0,1,.17-2.23,0.54,0.54,0,0,0-.15-0.41,5.69,5.69,0,0,0-2.08-.12,27.84,27.84,0,0,1-3.82.09,29.89,29.89,0,0,1-3.87-.54c-1-.22-2.64-0.49-3.63-0.59-0.66-.07-2.51-0.09-4.71,0l-2.64.08c-1,0-6.12.18-7.23-.93a4.81,4.81,0,0,1-1-3.52,35.16,35.16,0,0,0,.11-3.58c0-1-.42-4.3-0.85-7.25A61.64,61.64,0,0,1,98,83.86,8.47,8.47,0,0,1,98,83,24.59,24.59,0,0,1,98.88,78.91Z" fill="url(#a)"/><path d="M99.66,90.52c0.44,3,.83,6.35.86,7.36a36.08,36.08,0,0,1-.12,3.71,3.91,3.91,0,0,0,.68,2.72c0.47,0.47,3.39.76,6.49,0.63l2.66-.08v0c0-.22,0-0.56-0.07-1-0.13-1.48-.44-4-0.79-6.4a47.4,47.4,0,0,1-.62-7.43,23.59,23.59,0,0,1,.8-3.89,5.26,5.26,0,0,0,.24-2.77,1.48,1.48,0,0,0-1.72-.38c-0.74.23-1.91,0.52-2.59,0.65a22.32,22.32,0,0,1-2.35.31c-0.61,0-1.62.05-2.23,0L100,83.94l-1-.09A60.39,60.39,0,0,0,99.66,90.52Z" fill="url(#b)"/><path d="M129.84,114.16a22.08,22.08,0,0,0,.73,2.23,9.26,9.26,0,0,1,.53,2.31,10.37,10.37,0,0,1-.2,2.45,3.15,3.15,0,0,1-1.39,1.85,13.79,13.79,0,0,1-5,.29c-2.13-.16-4.7-0.46-5.73-0.66a20.8,20.8,0,0,0-3.73-.3,21.2,21.2,0,0,0-3.73.52c-1,.26-2.66.58-3.62,0.72s-2.49.28-3.4,0.3a4,4,0,0,0-2.45.91c-0.44.48-.82,3.29-0.85,6.25s-0.18,6.25-.34,7.29-0.53,2.76-.82,3.81a23.27,23.27,0,0,0-.65,3.79,21.75,21.75,0,0,0,.14,3.76,6.21,6.21,0,0,1-.13,2.71,1.39,1.39,0,0,1-1.45.65,8.81,8.81,0,0,0-2.15-.06,10.48,10.48,0,0,0-2.2.57,11.7,11.7,0,0,1-2.14.58c0,0.33.07,0.67,0.12,1a14.13,14.13,0,0,0,.25,1.39,10.14,10.14,0,0,0,1.16,2.82c0.39,0.55,2.12,1.2,3.84,1.46a22.52,22.52,0,0,0,4.25.3,11.6,11.6,0,0,0,2.23-.6,10.48,10.48,0,0,1,2.2-.57,8.81,8.81,0,0,1,2.15.06,1.39,1.39,0,0,0,1.45-.65,6.21,6.21,0,0,0,.13-2.71,21.75,21.75,0,0,1-.14-3.76,23.27,23.27,0,0,1,.65-3.79c0.29-1,.65-2.76.82-3.81s0.31-4.33.34-7.29,0.41-5.78.85-6.25a4,4,0,0,1,2.45-.91c0.9,0,2.43-.16,3.4-0.3s2.6-.47,3.62-0.72a21.2,21.2,0,0,1,3.73-.52,20.8,20.8,0,0,1,3.73.3c1,0.2,3.61.49,5.73,0.66a13.79,13.79,0,0,0,5-.29,3.15,3.15,0,0,0,1.39-1.85,10.37,10.37,0,0,0,.2-2.45,9.26,9.26,0,0,0-.53-2.31,22.08,22.08,0,0,1-.73-2.23,19.89,19.89,0,0,1-.41-2.23,21.55,21.55,0,0,1-.11-2.19,19.19,19.19,0,0,1,.16-2.1,1.47,1.47,0,0,0-.68-1.45,6.12,6.12,0,0,0-2.65-.22,26.8,26.8,0,0,1-3.66.09c-0.45,0-1-.09-1.63-0.17l-1-.15C129.63,113.19,129.74,113.76,129.84,114.16Z" fill="url(#c)"/><path d="M80.81,124.67a4.75,4.75,0,0,0-2.66-.9c-0.92,0-4.16-.35-7.19-0.74s-6.35-.71-7.38-0.7l-1.09,0-0.12,1,0,0.39c-0.39,3.3-.3,6.21.21,6.47a5.64,5.64,0,0,0,3,0c1.12-.26,2.91-0.58,4-0.71s2.79-.24,3.82-0.25,4.35,0.31,7.38.7L81.22,130l1,0.13C81.91,127.49,81.3,125.11,80.81,124.67Z" fill="url(#d)"/></svg>