<svg xmlns="http://www.w3.org/2000/svg" xmlns:xlink="http://www.w3.org/1999/xlink" width="200" height="200" viewBox="0 0 200 200"><defs><linearGradient id="a" x1="73.72" y1="179.02" x2="99.38" y2="121.4" gradientUnits="userSpaceOnUse"><stop offset="0" stop-color="#fdba56"/><stop offset="0.02" stop-color="#fbb055"/><stop offset="0.06" stop-color="#f79d54"/><stop offset="0.1" stop-color="#f59253"/><stop offset="0.15" stop-color="#f48e53"/><stop offset="0.3" stop-color="#ed5e4e"/><stop offset="0.47" stop-color="#683a96" stop-opacity="0.5"/><stop offset="0.64" stop-color="#ed872b"/><stop offset="0.79" stop-color="#7b76b6"/><stop offset="0.9" stop-color="#f15f4f"/><stop offset="1" stop-color="#fdba56"/></linearGradient><linearGradient id="b" x1="85.4" y1="152.94" x2="88.57" y2="160.07" gradientUnits="userSpaceOnUse"><stop offset="0" stop-color="#b7151b"/><stop offset="0.02" stop-color="#c52229"/><stop offset="0.06" stop-color="#d7333c"/><stop offset="0.11" stop-color="#e23d47"/><stop offset="0.15" stop-color="#e6404b"/><stop offset="0.3" stop-color="#e98a7b"/><stop offset="0.47" stop-color="#7c78b8"/><stop offset="0.64" stop-color="#00b0b0"/><stop offset="0.79" stop-color="#7b76b6"/><stop offset="1" stop-color="#e7322f"/></linearGradient><linearGradient id="c" x1="90.51" y1="137.23" x2="109.55" y2="180" xlink:href="#b"/></defs><title>_</title><path d="M85.58,162.92a4,4,0,0,0-.43,1,3.91,3.91,0,0,1-1,1.75c-0.61.56-3.47,1.12-5.12,1.41a21.46,21.46,0,0,0-4.07,1,1.75,1.75,0,0,0-.17.72,10.1,10.1,0,0,0,.21,1.59,9.94,9.94,0,0,0,.51,1.5,11.88,11.88,0,0,1,.63,1.83,10.68,10.68,0,0,1,.25,1.87,9.68,9.68,0,0,1-.21,2,13.32,13.32,0,0,1-.69,2.07,0.34,0.34,0,0,0,0,.11,7.19,7.19,0,0,0,2,.07c1-.1,2.67-0.35,3.61-0.55,0.48-.1,1.59-0.43,3-0.87,1-.34,2.21-0.74,3.31-1.14A43.51,43.51,0,0,0,93,174.93,41.76,41.76,0,0,0,97.19,171c1.83-1.9,3.46-3.76,3.84-4.31a22.21,22.21,0,0,0,1.4-2.38c0.34-.69,1.11-2.67,1.69-4.34a56.21,56.21,0,0,0,1.71-6.4,114.92,114.92,0,0,0,.76-13.23v-0.14c0-3.69,0-7.72-.09-10.51-0.05-1.48-.11-2.19-0.15-2.53a6.67,6.67,0,0,0-1-3.14,28,28,0,0,0-6.47-.34c-3.39.1-7,.08-8.16-0.06s-3-.44-4.17-0.69a32.32,32.32,0,0,0-3.93-.53,30.87,30.87,0,0,0-3.91.08,4.93,4.93,0,0,0-2.37.92c-0.32.78-.65,4.81-0.46,10.41L76,137.58c0.17,4.94.27,10.81,0.15,12.07a9.18,9.18,0,0,0,.11,2.66,1.3,1.3,0,0,0,.53.69,5.1,5.1,0,0,0,1.41.15,6.35,6.35,0,0,0,1.53-.37,12.16,12.16,0,0,1,2.07-.6,21.32,21.32,0,0,1,3.17,0l0.82,0.05c0.73,0.06,3.17.28,3.87,0.85a2.89,2.89,0,0,1,.94,1.82,7.61,7.61,0,0,1,0,1.66,6.86,6.86,0,0,1-.46,1.56,12.06,12.06,0,0,1-.71,1.3,11.64,11.64,0,0,1-.89,1.17,10.08,10.08,0,0,1-1.07,1l-0.29.22a10.05,10.05,0,0,1-.92.58A2.32,2.32,0,0,0,85.58,162.92Z" fill="url(#a)"/><path d="M86.53,161l0.25-.18a9.06,9.06,0,0,0,.94-0.89,10.37,10.37,0,0,0,.8-1,11,11,0,0,0,.64-1.17,5.93,5.93,0,0,0,.39-1.29,6.69,6.69,0,0,0,0-1.41,1.94,1.94,0,0,0-.58-1.14,10.33,10.33,0,0,0-3.31-.63l-0.8-.05c0,0.36,0,.69,0,1,0,1.14,0,2,0,2.33a9.91,9.91,0,0,0,.15,3.05,2.38,2.38,0,0,0,.54.89,1.6,1.6,0,0,0,.66.46Z" fill="url(#b)"/><path d="M107.57,140.23v0.15a113.88,113.88,0,0,1-.77,13.41,57.31,57.31,0,0,1-1.74,6.54c-0.6,1.72-1.38,3.72-1.73,4.45a22.88,22.88,0,0,1-1.48,2.51c-0.46.65-2.23,2.65-3.94,4.43a41.6,41.6,0,0,1-4.34,4.06,43.25,43.25,0,0,1-5.85,2.49c-1.11.4-2.28,0.8-3.34,1.15,0.12,0.27.24,0.61,0.35,0.94s0.14,0.43.18,0.6a9.76,9.76,0,0,1,.22,1.67,8.61,8.61,0,0,1-.18,1.74,12.46,12.46,0,0,1-.63,1.88,1.06,1.06,0,0,0,.32,1.37,6.41,6.41,0,0,0,2.68.21c1.06-.1,2.73-0.36,3.72-0.56s3.86-1.13,6.4-2a43.25,43.25,0,0,0,5.85-2.49,41.6,41.6,0,0,0,4.34-4.06c1.71-1.78,3.48-3.77,3.94-4.43a22.88,22.88,0,0,0,1.48-2.51c0.36-.73,1.14-2.73,1.73-4.45a57.31,57.31,0,0,0,1.74-6.54,113.88,113.88,0,0,0,.77-13.41v-0.15c0.06-5.5,0-11.42-.25-13.16s-0.86-3.47-1.46-3.85-3.78-.61-7.06-0.51h0l-1,0C107.58,132.36,107.62,136.4,107.57,140.23Z" fill="url(#c)"/></svg>