<svg xmlns="http://www.w3.org/2000/svg" xmlns:xlink="http://www.w3.org/1999/xlink" width="200" height="200" viewBox="0 0 200 200"><defs><linearGradient id="a" x1="83.23" y1="130.72" x2="98.19" y2="97.13" gradientUnits="userSpaceOnUse"><stop offset="0" stop-color="#fdba56"/><stop offset="0.02" stop-color="#fbb055"/><stop offset="0.06" stop-color="#f79d54"/><stop offset="0.1" stop-color="#f59253"/><stop offset="0.15" stop-color="#f48e53"/><stop offset="0.3" stop-color="#ed5e4e"/><stop offset="0.47" stop-color="#683a96" stop-opacity="0.5"/><stop offset="0.64" stop-color="#ed872b"/><stop offset="0.79" stop-color="#7b76b6"/><stop offset="0.9" stop-color="#f15f4f"/><stop offset="1" stop-color="#fdba56"/></linearGradient><linearGradient id="b" x1="97.65" y1="113.7" x2="108.8" y2="138.73" gradientUnits="userSpaceOnUse"><stop offset="0" stop-color="#b7151b"/><stop offset="0.02" stop-color="#c52229"/><stop offset="0.06" stop-color="#d7333c"/><stop offset="0.11" stop-color="#e23d47"/><stop offset="0.15" stop-color="#e6404b"/><stop offset="0.3" stop-color="#e98a7b"/><stop offset="0.47" stop-color="#7c78b8"/><stop offset="0.64" stop-color="#00b0b0"/><stop offset="0.79" stop-color="#7b76b6"/><stop offset="1" stop-color="#e7322f"/></linearGradient></defs><title>_</title><path d="M109.71,102.26c-0.6-.28-4.82-0.78-10.81-0.9L82.77,101c-5.88-.12-10.05.22-10.69,0.5a2.33,2.33,0,0,0-.51,1.75,90.5,90.5,0,0,1-.12,9.13,101.85,101.85,0,0,0-.08,10.23,6.13,6.13,0,0,0,1.14,3.33,38.63,38.63,0,0,0,7.52.64c1.07,0,2.18,0,3.32,0H98.93a61.75,61.75,0,0,0,10.65-.63c0.41-.88,1-4.71,1.11-10V115.5c0.05-2.91.09-5.86,0.09-8.1,0-2.58,0-3.24-.05-3.41A2.8,2.8,0,0,0,109.71,102.26Z" fill="url(#a)"/><path d="M111.7,115.52V116c-0.11,5.5-.78,10.36-1.49,10.8s-5.8.81-11.3,0.8H83.35c-1.15,0-2.27,0-3.35,0,0,0.36,0,.69,0,1s0,0.78.06,1.06c0.16,1.81.89,3.66,1.63,4.11s5.85,0.82,11.35.82h15.55c5.5,0,10.59-.36,11.3-0.8s1.39-5.31,1.49-10.8v-0.5c0.11-5.5.12-10.73,0-11.63a3.77,3.77,0,0,0-1.49-2.48c-0.54-.35-3.46-0.7-7.16-0.9l-1-.05C111.79,109.59,111.76,112.51,111.7,115.52Z" fill="url(#b)"/></svg>