<svg xmlns="http://www.w3.org/2000/svg" width="200" height="200" viewBox="0 0 200 200"><defs><linearGradient id="a" x1="83.75" y1="154.78" x2="98.97" y2="120.6" gradientUnits="userSpaceOnUse"><stop offset="0" stop-color="#fdba56"/><stop offset=".02" stop-color="#fbb055"/><stop offset=".06" stop-color="#f79d54"/><stop offset=".1" stop-color="#f59253"/><stop offset=".15" stop-color="#f48e53"/><stop offset=".3" stop-color="#ed5e4e"/><stop offset=".47" stop-color="#683a96" stop-opacity=".5"/><stop offset=".64" stop-color="#ed872b"/><stop offset=".79" stop-color="#7b76b6"/><stop offset=".9" stop-color="#f15f4f"/><stop offset="1" stop-color="#fdba56"/></linearGradient><linearGradient id="b" x1="96.08" y1="133.86" x2="108.84" y2="162.51" gradientUnits="userSpaceOnUse"><stop offset="0" stop-color="#b7151b"/><stop offset=".02" stop-color="#c52229"/><stop offset=".06" stop-color="#d7333c"/><stop offset=".11" stop-color="#e23d47"/><stop offset=".15" stop-color="#e6404b"/><stop offset=".3" stop-color="#e98a7b"/><stop offset=".47" stop-color="#7c78b8"/><stop offset=".64" stop-color="#00b0b0"/><stop offset=".79" stop-color="#7b76b6"/><stop offset="1" stop-color="#e7322f"/></linearGradient></defs><title>_</title><path d="M106.46 141.84c-.2-1.29-.28-6.14-.23-10.08v-2.82a24.41 24.41 0 0 0-.58-5.38c-.95-.31-4.85-.67-10.2-.59l-8.29.13a53.76 53.76 0 0 0-10.36.9 31.57 31.57 0 0 0-.65 7.95c0 4.32 0 8.75-.14 9.88s-.17 3.63-.14 5.74a10.07 10.07 0 0 0 .75 4.08 38 38 0 0 0 8 .71h10.6c5.68 0 9.75-.46 10.49-.77a4.4 4.4 0 0 0 .94-2.18 33.11 33.11 0 0 0 .17-3.73 35.71 35.71 0 0 0-.36-3.84z" fill="url(#a)"/><path d="M107.23 131.77c0 4.36.05 8.83.22 9.92a36 36 0 0 1 .35 3.93 33.92 33.92 0 0 1-.18 3.86 5.14 5.14 0 0 1-1.32 2.87c-.6.52-5.6 1-11.1 1H84.57v1.17c0 2.13.53 4.31 1.1 4.84s5.54 1 11 1h8.19c5.5 0 10.49-.45 11.1-1a5.14 5.14 0 0 0 1.32-2.87 33.92 33.92 0 0 0 .18-3.86 36 36 0 0 0-.35-3.93c-.17-1.09-.27-5.55-.22-9.92s-.34-8.39-.87-8.95-3.72-.78-7.87-.85h-1c.08.84.09 1.81.08 2.79z" fill="url(#b)"/></svg>