<svg xmlns="http://www.w3.org/2000/svg" xmlns:xlink="http://www.w3.org/1999/xlink" width="200" height="200" viewBox="0 0 200 200"><defs><linearGradient id="a" x1="65.17" y1="166.89" x2="119.42" y2="45.06" gradientUnits="userSpaceOnUse"><stop offset="0" stop-color="#fdba56"/><stop offset="0.02" stop-color="#fbb055"/><stop offset="0.06" stop-color="#f79d54"/><stop offset="0.1" stop-color="#f59253"/><stop offset="0.15" stop-color="#f48e53"/><stop offset="0.3" stop-color="#ed5e4e"/><stop offset="0.47" stop-color="#683a96" stop-opacity="0.5"/><stop offset="0.64" stop-color="#ed872b"/><stop offset="0.79" stop-color="#7b76b6"/><stop offset="0.9" stop-color="#f15f4f"/><stop offset="1" stop-color="#fdba56"/></linearGradient><linearGradient id="b" x1="80.44" y1="66.18" x2="122.92" y2="161.59" gradientUnits="userSpaceOnUse"><stop offset="0" stop-color="#b7151b"/><stop offset="0.02" stop-color="#c52229"/><stop offset="0.06" stop-color="#d7333c"/><stop offset="0.11" stop-color="#e23d47"/><stop offset="0.15" stop-color="#e6404b"/><stop offset="0.3" stop-color="#e98a7b"/><stop offset="0.47" stop-color="#7c78b8"/><stop offset="0.64" stop-color="#00b0b0"/><stop offset="0.79" stop-color="#7b76b6"/><stop offset="1" stop-color="#e7322f"/></linearGradient></defs><title>_</title><path d="M117.24,44.1a2.48,2.48,0,0,0-.75.18,13.05,13.05,0,0,1-3.43.82,8.49,8.49,0,0,1-3.13-.49,7.46,7.46,0,0,0-2.12-.45,6.94,6.94,0,0,0-2.07.36,18.8,18.8,0,0,1-2.36.69,9.22,9.22,0,0,1-2,.17,1.79,1.79,0,0,0-.8.44,10.23,10.23,0,0,0-1.41,2.11c-0.43.83-1.38,3.2-2.08,5.17a47.82,47.82,0,0,0-1.63,5.52c-0.19,1-.4,2.84-0.46,3.93a28.62,28.62,0,0,1-.61,4.2,69,69,0,0,1-3,7.73,49.59,49.59,0,0,0-2.74,7.36,19.71,19.71,0,0,0-.14,3.89A13.09,13.09,0,0,1,88,90.17a14,14,0,0,1-2.29,3.95,13.32,13.32,0,0,0-2,3.29,11.87,11.87,0,0,0-.6,3.63,15.16,15.16,0,0,1-2.22,8.34A38,38,0,0,0,79,112.93a35.7,35.7,0,0,0-1.33,3.68,37.4,37.4,0,0,0-.83,3.82,39.27,39.27,0,0,0-.35,4c0,1.17-.17,3.05-0.32,4.19s-0.48,3-.74,4.08a36.19,36.19,0,0,1-1.24,4,37.82,37.82,0,0,1-1.8,3.83A16.81,16.81,0,0,0,71,144a17.27,17.27,0,0,0-.34,3.81c0.05,1.19.05,3.1,0,4.26s-0.22,3-.38,4.17a18.85,18.85,0,0,1-1.25,4.3,26.34,26.34,0,0,1-2.54,4.23A7.49,7.49,0,0,0,65.35,167a1.81,1.81,0,0,0,.83.17h0a24.45,24.45,0,0,0,3.08-.29,15.25,15.25,0,0,0,2.5-.7,20,20,0,0,1,2.58-.82,17.79,17.79,0,0,1,2.6-.36,10,10,0,0,1,1.45.06,11.93,11.93,0,0,1,1.42.22,19.94,19.94,0,0,1,3.12,1.08,1.83,1.83,0,0,0,1.4.08,5.09,5.09,0,0,0,.82-2.34c0.15-1.26.48-3.23,0.73-4.4s0.75-3,1.12-4.09a29.54,29.54,0,0,0,.92-3.76,31.08,31.08,0,0,0,.32-3.93,17.84,17.84,0,0,1,.63-4.3,18.32,18.32,0,0,1,1.86-4,23.65,23.65,0,0,0,1.8-3.49,66.1,66.1,0,0,0,1.81-7.68c0.62-3.32,1.43-6.92,1.79-8s1-2.82,1.51-3.88a23.61,23.61,0,0,0,1.22-3.64,24.16,24.16,0,0,0,.48-3.85c0-1.17.17-3.05,0.31-4.19s0.83-4.74,1.53-8a65.72,65.72,0,0,1,2.13-8,27.8,27.8,0,0,1,2.08-3.81,32.29,32.29,0,0,0,2-3.49,29.58,29.58,0,0,0,1.36-3.65,21.08,21.08,0,0,0,.62-3.78,24.3,24.3,0,0,0-.21-4,13.45,13.45,0,0,1,.18-4.53,13.24,13.24,0,0,1,2-4.05,19.9,19.9,0,0,0,2-3.4,17.62,17.62,0,0,0,1-3.63,39.32,39.32,0,0,1,.91-4.22l0.1-.34c0.37-1.23,1-2.91,1.42-4A7,7,0,0,0,117.24,44.1Z" fill="url(#a)"/><path d="M116.19,50.55a38.24,38.24,0,0,0-.88,4.09,18.59,18.59,0,0,1-1.1,3.88,20.81,20.81,0,0,1-2.13,3.61,12.31,12.31,0,0,0-1.81,3.69,12.51,12.51,0,0,0-.16,4.13,25.17,25.17,0,0,1,.22,4.24,22,22,0,0,1-.66,4,30.32,30.32,0,0,1-1.42,3.8,33,33,0,0,1-2.06,3.63,26.69,26.69,0,0,0-2,3.65,65.06,65.06,0,0,0-2.07,7.8c-0.7,3.26-1.38,6.84-1.52,7.95s-0.27,3-.3,4.09a25.06,25.06,0,0,1-.5,4A24.49,24.49,0,0,1,98.54,117c-0.46,1-1.12,2.73-1.47,3.78s-1.14,4.6-1.75,7.88a66.71,66.71,0,0,1-1.86,7.86,24.44,24.44,0,0,1-1.9,3.67,17.43,17.43,0,0,0-1.74,3.71,16.94,16.94,0,0,0-.59,4,31.83,31.83,0,0,1-.33,4.09,30.35,30.35,0,0,1-1,3.92c-0.35,1.06-.84,2.85-1.09,4s-0.57,3.08-.71,4.3a5.53,5.53,0,0,1-1.17,3,2.6,2.6,0,0,1-2.46.06,19.13,19.13,0,0,0-2.93-1,11,11,0,0,0-1.29-.2c-0.12.35-.25,0.68-0.37,1l0,0.1a25.25,25.25,0,0,1-2.42,4,6.23,6.23,0,0,0-1.41,3c0.06,0.54.9,1,1.87,1a25.4,25.4,0,0,0,3.24-.3,16.27,16.27,0,0,0,2.7-.76,19.12,19.12,0,0,1,2.43-.77,17,17,0,0,1,2.43-.34,11.37,11.37,0,0,1,2.59.26,19.13,19.13,0,0,1,2.93,1,2.6,2.6,0,0,0,2.46-.06,5.53,5.53,0,0,0,1.17-3c0.14-1.23.47-3.16,0.71-4.3s0.74-2.94,1.09-4a30.35,30.35,0,0,0,1-3.92,31.83,31.83,0,0,0,.33-4.09,16.94,16.94,0,0,1,.59-4,17.43,17.43,0,0,1,1.74-3.71,24.44,24.44,0,0,0,1.9-3.67,66.71,66.71,0,0,0,1.86-7.86c0.62-3.28,1.41-6.83,1.75-7.88s1-2.76,1.47-3.78a24.49,24.49,0,0,0,1.29-3.83,25.06,25.06,0,0,0,.5-4c0-1.14.17-3,.3-4.09s0.82-4.69,1.52-7.95a65.06,65.06,0,0,1,2.07-7.8,26.69,26.69,0,0,1,2-3.65A33,33,0,0,0,118,88.93a30.32,30.32,0,0,0,1.42-3.8,22,22,0,0,0,.66-4,25.17,25.17,0,0,0-.22-4.24,12.51,12.51,0,0,1,.16-4.13,12.31,12.31,0,0,1,1.81-3.69,20.81,20.81,0,0,0,2.13-3.61,18.59,18.59,0,0,0,1.1-3.88,38.24,38.24,0,0,1,.88-4.09c0.32-1.14,1-3,1.48-4.23a5,5,0,0,0,.5-2.89c-0.21-.41-1.14-0.44-2.05-0.08a12.08,12.08,0,0,1-3.12.75,7.47,7.47,0,0,1-2.7-.42,8.42,8.42,0,0,0-2.47-.53h-0.17a7.28,7.28,0,0,0-1.08.11Z" fill="url(#b)"/></svg>