<svg xmlns="http://www.w3.org/2000/svg" xmlns:xlink="http://www.w3.org/1999/xlink" width="112.24" height="200" viewBox="0 0 112.24 200"><defs><linearGradient id="b" x1="30.48" y1="160.34" x2="80.98" y2="46.91" gradientUnits="userSpaceOnUse"><stop offset="0" stop-color="#fdba56"/><stop offset=".02" stop-color="#fbb055"/><stop offset=".06" stop-color="#f79d54"/><stop offset=".1" stop-color="#f59253"/><stop offset=".15" stop-color="#f48e53"/><stop offset=".3" stop-color="#ed5e4e"/><stop offset=".47" stop-color="#683a96" stop-opacity=".5"/><stop offset=".64" stop-color="#ed872b"/><stop offset=".79" stop-color="#7b76b6"/><stop offset=".9" stop-color="#f15f4f"/><stop offset="1" stop-color="#fdba56"/></linearGradient><linearGradient id="a" x1="36.38" y1="70.74" x2="45.92" y2="92.18" gradientUnits="userSpaceOnUse"><stop offset="0" stop-color="#b7151b"/><stop offset=".02" stop-color="#c52229"/><stop offset=".06" stop-color="#d7333c"/><stop offset=".11" stop-color="#e23d47"/><stop offset=".15" stop-color="#e6404b"/><stop offset=".3" stop-color="#e98a7b"/><stop offset=".47" stop-color="#7c78b8"/><stop offset=".64" stop-color="#00b0b0"/><stop offset=".79" stop-color="#7b76b6"/><stop offset="1" stop-color="#e7322f"/></linearGradient><linearGradient id="c" x1="57.03" y1="133.89" x2="73.96" y2="171.91" xlink:href="#a"/><linearGradient id="d" x1="62.2" y1="62.03" x2="86.71" y2="117.07" xlink:href="#a"/></defs><title>_</title><path d="M64.32 72.53a29.11 29.11 0 0 1 1.85 3.65c.26.78.66 2.23.9 3.25a10 10 0 0 1 .05 3.83 9.37 9.37 0 0 1-1.72 3.35 34.67 34.67 0 0 1-2.62 2.7c-.78.69-2.17 1.82-3.08 2.48a32.77 32.77 0 0 0-2.94 2.43 33.86 33.86 0 0 0-2.59 2.85 12.48 12.48 0 0 1-3 2.69 10.1 10.1 0 0 1-3.69 1.1 19.76 19.76 0 0 0-3.11.51 15.64 15.64 0 0 0-2.69 1.06 10.08 10.08 0 0 0-2.14 1.67 12.68 12.68 0 0 0-1.67 2.49 17.81 17.81 0 0 1-1.94 3 72.5 72.5 0 0 1-7.82 6.06 64.54 64.54 0 0 0-7.55 5.92c-.55.69-3.27 4.82-6.45 9.85l-.61 1c-3.1 4.9-5.52 9.36-5.76 10.28a18.68 18.68 0 0 0-.45 4.25 6.66 6.66 0 0 0 .87 3.14 4 4 0 0 0 2.31 1.13 30.53 30.53 0 0 0 3.76.11c.48 0 1.09-.08 1.71-.16s1.46-.2 2-.31a23.63 23.63 0 0 1 4-.4 23.76 23.76 0 0 1 4 .43 14.46 14.46 0 0 0 3.51.21 15.73 15.73 0 0 0 3.53-.86 12.84 12.84 0 0 1 4.05-.77h.14a13 13 0 0 1 4.19 1 25.65 25.65 0 0 0 3.63 1.23 22.16 22.16 0 0 0 3.6.48 19.23 19.23 0 0 0 3.58-.3 22.43 22.43 0 0 0 3.61-1.12 12.57 12.57 0 0 1 4.18-.88 12.57 12.57 0 0 1 4.2.92 9.29 9.29 0 0 0 3.36.65 10 10 0 0 0 3.38-1 22 22 0 0 1 4-1.6 19.16 19.16 0 0 1 4.07-.51 27.23 27.23 0 0 1 4 .4 29.86 29.86 0 0 1 4 1.11 17.88 17.88 0 0 0 3.53.84 15.5 15.5 0 0 0 3.44-.11 4.44 4.44 0 0 0 2.07-.92 2.72 2.72 0 0 0 .39-1.71c-.11-.89-.23-3.09-.27-4.9a25.23 25.23 0 0 1 .36-5.13 21.21 21.21 0 0 1 1.26-3.47 8.67 8.67 0 0 0 .74-2.8 5.36 5.36 0 0 0-.1-1 7 7 0 0 0-.45-1.59 10.08 10.08 0 0 0-1.56-2.3 9.28 9.28 0 0 0-2.2-1.54 10.17 10.17 0 0 0-2.61-.73 10.58 10.58 0 0 0-2.75.18c-.9.2-2.36.45-3.26.55s-2.4.16-3.27.19-2.36-.09-3.26-.19-2.36-.37-3.26-.58a11.72 11.72 0 0 0-2.85-.24 12.52 12.52 0 0 0-2.87.63l-.23.07a13.33 13.33 0 0 1-3.23.63 12.76 12.76 0 0 1-3.47-.45 11.67 11.67 0 0 0-2.84-.4 11.65 11.65 0 0 0-2.85.5 12.27 12.27 0 0 1-3.43.55 11.36 11.36 0 0 1-3.35-.67 4.86 4.86 0 0 1-2.31-1.67 2.1 2.1 0 0 1 .83-2.51 14 14 0 0 1 2.25-1.32 25.62 25.62 0 0 1 2.9-1.05 20.63 20.63 0 0 0 2.84-1.11 21.93 21.93 0 0 0 2.66-1.64 16.2 16.2 0 0 1 3.2-1.76 19.21 19.21 0 0 1 3.71-.94 12.06 12.06 0 0 0 3-.88 9.19 9.19 0 0 0 2.25-1.7 21.29 21.29 0 0 1 2.45-2.27 42.16 42.16 0 0 1 4.07-2.52c1.44-.79 3.17-1.85 3.8-2.3a21.9 21.9 0 0 0 2.13-1.85c.4-.42 2.74-4 5.93-9.5l.13-.22c3.07-5.27 5.18-9.3 5.35-9.87a54.3 54.3 0 0 0 .68-6.73 60.05 60.05 0 0 0 0-7.36 25.67 25.67 0 0 0-.89-3.89A16.57 16.57 0 0 0 94 60.73a13.67 13.67 0 0 0-2.36-2.53 26.56 26.56 0 0 1-2.87-2.68 26.51 26.51 0 0 1-2.34-3.15c-.13-.21-.29-.44-.46-.69a17 17 0 0 0-1.71-2 44.44 44.44 0 0 0-6.31-3.92A40.81 40.81 0 0 0 71 42.65a19.27 19.27 0 0 0-3.85-.27 30.78 30.78 0 0 1-4.41-.17 30.78 30.78 0 0 1-4.32-.94 11.23 11.23 0 0 0-3.42-.42 8.43 8.43 0 0 0-3 1 28.93 28.93 0 0 1-3.26 1.69 22.72 22.72 0 0 1-3.25 1 14.32 14.32 0 0 1-3.47.24 18.49 18.49 0 0 1-3.67-.75 8.68 8.68 0 0 0-3.15-.28A11.23 11.23 0 0 0 31.92 45a37.82 37.82 0 0 0-3.39 2.3c-.77.6-4.3 4.17-8.34 8.52l-.72.77a78.32 78.32 0 0 0-7.4 8.79 58 58 0 0 0-1.38 9.78 38.47 38.47 0 0 0 0 8.74 5.52 5.52 0 0 0 2 1.17c.92.29 2.44.7 3.39.9s2.25.43 3.24.56h.22a14.26 14.26 0 0 0 3.32-.07 16.44 16.44 0 0 0 3.35-1 15.8 15.8 0 0 1 3.91-1.12 14.48 14.48 0 0 1 4 .17 2.66 2.66 0 0 0 1.77-.19 3.79 3.79 0 0 0 .4-2.11 17.79 17.79 0 0 1 .19-4.21 15.19 15.19 0 0 1 1.41-3.72c.52-.91 1.88-3 3-4.61s2.94-3.38 4.11-3.87a10.72 10.72 0 0 1 4.05-.6 33.76 33.76 0 0 0 3.57 0 16.65 16.65 0 0 0 2.71-.44 5.57 5.57 0 0 1 2.86 0 5.41 5.41 0 0 1 2.27 1.71c.45.59 1.75 2.63 3 4.63.3.46.54.95.86 1.43z" fill="url(#b)"/><path d="M63.45 73c-.27-.47-.55-1-.84-1.42-1.18-1.94-2.5-4-2.92-4.55a4.43 4.43 0 0 0-1.79-1.33 4.62 4.62 0 0 0-2.28 0 17.6 17.6 0 0 1-2.92.48 34.63 34.63 0 0 1-3.7 0 9.82 9.82 0 0 0-3.61.52 12.26 12.26 0 0 0-3.64 3.56c-1.14 1.61-2.49 3.64-3 4.52a14.27 14.27 0 0 0-1.3 3.43 17 17 0 0 0-.24 3.88 4.37 4.37 0 0 1-.7 2.89 3.36 3.36 0 0 1-2.67.46 13.62 13.62 0 0 0-3.64-.15 14.92 14.92 0 0 0-3.61 1A17.41 17.41 0 0 1 23 87.47a15.2 15.2 0 0 1-3.6.08h-.23v1a7.56 7.56 0 0 0 .37 2.88A6.19 6.19 0 0 0 22.07 93c.94.3 2.51.71 3.48.92s2.57.48 3.56.6a15.2 15.2 0 0 0 3.6-.08 17.41 17.41 0 0 0 3.6-1.11 14.92 14.92 0 0 1 3.61-1 13.62 13.62 0 0 1 3.64.15 3.36 3.36 0 0 0 2.67-.48 4.37 4.37 0 0 0 .7-2.89 17 17 0 0 1 .24-3.88 14.27 14.27 0 0 1 1.3-3.43c.5-.88 1.85-2.92 3-4.52a12.26 12.26 0 0 1 3.64-3.56 9.82 9.82 0 0 1 3.61-.52 35 35 0 0 0 3.64 0h.07c.3-.08.66-.12 1.02-.2z" fill="url(#a)"/><path d="M99.37 131.65a9.59 9.59 0 0 1-.83 3.2 20.4 20.4 0 0 0-1.19 3.27A24.59 24.59 0 0 0 97 143c0 1.78.15 3.94.26 4.8a3.64 3.64 0 0 1-.63 2.5 5.31 5.31 0 0 1-2.63 1.23 16.47 16.47 0 0 1-3.71.11 18.83 18.83 0 0 1-3.77-.9 28.75 28.75 0 0 0-3.81-1.06 26.07 26.07 0 0 0-3.81-.38 17.38 17.38 0 0 0-3.81.48 21.14 21.14 0 0 0-3.8 1.52 10.86 10.86 0 0 1-3.8 1.12 10.15 10.15 0 0 1-3.81-.73 11.63 11.63 0 0 0-3.81-.83 11.57 11.57 0 0 0-3.81.8 23.36 23.36 0 0 1-3.81 1.18 20.55 20.55 0 0 1-3.8.32 23.08 23.08 0 0 1-3.8-.51 26.48 26.48 0 0 1-3.81-1.29 12.05 12.05 0 0 0-3.81-.89 11.71 11.71 0 0 0-3.81.7 16.71 16.71 0 0 1-3.81.92 15.42 15.42 0 0 1-3.8-.23 22.59 22.59 0 0 0-3.8-.41 22.34 22.34 0 0 0-3.79.38c-.55.11-1.3.23-2 .32 0 .35 0 .69-.06 1s0 .52 0 .74a7.51 7.51 0 0 0 1.04 3.75 5 5 0 0 0 3 1.51 31.47 31.47 0 0 0 3.91.11 30.1 30.1 0 0 0 3.82-.48 22.34 22.34 0 0 1 3.79-.38 22.59 22.59 0 0 1 3.8.41 15.42 15.42 0 0 0 3.8.23 16.71 16.71 0 0 0 3.81-.92 11.71 11.71 0 0 1 3.81-.7 12.05 12.05 0 0 1 3.81.89 26.48 26.48 0 0 0 3.81 1.29 23.08 23.08 0 0 0 3.8.51 20.55 20.55 0 0 0 3.8-.32 23.36 23.36 0 0 0 3.81-1.18 11.57 11.57 0 0 1 3.81-.8 11.63 11.63 0 0 1 3.81.83 10.15 10.15 0 0 0 3.81.73 10.86 10.86 0 0 0 3.8-1.12 21.14 21.14 0 0 1 3.8-1.52 17.38 17.38 0 0 1 3.81-.48 26.07 26.07 0 0 1 3.81.38 28.75 28.75 0 0 1 3.81 1.06 18.83 18.83 0 0 0 3.77.9 16.47 16.47 0 0 0 3.71-.11 5.31 5.31 0 0 0 2.66-1.25 3.64 3.64 0 0 0 .63-2.5c-.11-.86-.22-3-.26-4.8a24.59 24.59 0 0 1 .33-4.87 20.4 20.4 0 0 1 1.19-3.27 9.59 9.59 0 0 0 .83-3.2 8.15 8.15 0 0 0-.64-3.07 11 11 0 0 0-1.75-2.58 10.18 10.18 0 0 0-2.49-1.75 11 11 0 0 0-2.93-.82 8 8 0 0 0-1 0c-.33 0-.67 0-1 .07a6.49 6.49 0 0 1 .09 1.21z" fill="url(#c)"/><path d="M86.75 51.09c.19.27.36.52.5.75a25.38 25.38 0 0 0 2.24 3 25.38 25.38 0 0 0 2.74 2.56 14.64 14.64 0 0 1 2.58 2.76 17.53 17.53 0 0 1 1.75 3.61 26.57 26.57 0 0 1 .94 4.08 59.93 59.93 0 0 1 0 7.55 53.66 53.66 0 0 1-.72 6.95 110.1 110.1 0 0 1-5.45 10.1l-.13.22a111.3 111.3 0 0 1-6.08 9.7 22.81 22.81 0 0 1-2.25 1.95c-.66.49-2.42 1.56-3.91 2.37a41.21 41.21 0 0 0-3.96 2.44 20.55 20.55 0 0 0-2.32 2.15 10.1 10.1 0 0 1-2.55 1.92 13.07 13.07 0 0 1-3.35 1 18.31 18.31 0 0 0-3.48.88 15.33 15.33 0 0 0-3 1.63 22.85 22.85 0 0 1-2.81 1.73 21.54 21.54 0 0 1-3 1.18 24.46 24.46 0 0 0-2.76 1 13.11 13.11 0 0 0-2.06 1.2 1.18 1.18 0 0 0-.55 1.27 4.05 4.05 0 0 0 1.78 1.19 10.38 10.38 0 0 0 3 .6 11.19 11.19 0 0 0 3.1-.5 12.72 12.72 0 0 1 3.15-.55 12.51 12.51 0 0 1 3.15.44 11.76 11.76 0 0 0 3.15.41 12.21 12.21 0 0 0 2.87-.55l.71-.49a15 15 0 0 1 2-1.21c.33-.16.65-.32.92-.42a18.31 18.31 0 0 1 3.48-.88 13.07 13.07 0 0 0 3.35-1 10.1 10.1 0 0 0 2.55-1.92 20.55 20.55 0 0 1 2.32-2.15 41.21 41.21 0 0 1 3.94-2.43c1.49-.82 3.25-1.89 3.91-2.37a22.81 22.81 0 0 0 2.25-1.95 111.3 111.3 0 0 0 6.08-9.7l.13-.22a110.1 110.1 0 0 0 5.45-10.1 53.66 53.66 0 0 0 .72-6.95 59.93 59.93 0 0 0 0-7.55 26.57 26.57 0 0 0-.94-4.08 17.53 17.53 0 0 0-1.75-3.61 14.64 14.64 0 0 0-2.58-2.76 25.38 25.38 0 0 1-2.74-2.56 25.38 25.38 0 0 1-2.24-3 17.85 17.85 0 0 0-2.33-2.91 41.66 41.66 0 0 0-6-3.8l-.45-.27z" fill="url(#d)"/></svg>