<svg xmlns="http://www.w3.org/2000/svg" xmlns:xlink="http://www.w3.org/1999/xlink" width="109.54" height="200" viewBox="0 0 109.54 200"><defs><linearGradient id="b" x1="24.09" y1="149.37" x2="69.91" y2="46.47" gradientUnits="userSpaceOnUse"><stop offset="0" stop-color="#fdba56"/><stop offset=".02" stop-color="#fbb055"/><stop offset=".06" stop-color="#f79d54"/><stop offset=".1" stop-color="#f59253"/><stop offset=".15" stop-color="#f48e53"/><stop offset=".3" stop-color="#ed5e4e"/><stop offset=".47" stop-color="#683a96" stop-opacity=".5"/><stop offset=".64" stop-color="#ed872b"/><stop offset=".79" stop-color="#7b76b6"/><stop offset=".9" stop-color="#f15f4f"/><stop offset="1" stop-color="#fdba56"/></linearGradient><linearGradient id="a" x1="32.71" y1="67.3" x2="40.18" y2="84.08" gradientUnits="userSpaceOnUse"><stop offset="0" stop-color="#b7151b"/><stop offset=".02" stop-color="#c52229"/><stop offset=".06" stop-color="#d7333c"/><stop offset=".11" stop-color="#e23d47"/><stop offset=".15" stop-color="#e6404b"/><stop offset=".3" stop-color="#e98a7b"/><stop offset=".47" stop-color="#7c78b8"/><stop offset=".64" stop-color="#00b0b0"/><stop offset=".79" stop-color="#7b76b6"/><stop offset="1" stop-color="#e7322f"/></linearGradient><linearGradient id="c" x1="43.08" y1="73.22" x2="79.77" y2="155.63" xlink:href="#a"/><linearGradient id="d" x1="34.77" y1="120.16" x2="38.89" y2="129.41" xlink:href="#a"/><linearGradient id="e" x1="50.27" y1="103.88" x2="54.21" y2="112.73" xlink:href="#a"/></defs><title>_</title><path d="M30.49 121.87c-.23-.92-.44-2.07-.6-3.25a10.65 10.65 0 0 0-1-3.51 52.13 52.13 0 0 0-6.12.46 53.62 53.62 0 0 1-7.76.5 28.92 28.92 0 0 1-3.94-.74 31.83 31.83 0 0 0-3.63-.72 30.87 30.87 0 0 0-3.26-.19h-.33a5.4 5.4 0 0 0-2.41.64 3.31 3.31 0 0 0-1 1.69c-.16.8-.33 2.15-.39 3s-.07 2.18 0 3a22.33 22.33 0 0 0 .38 2.94 22.64 22.64 0 0 0 .85 2.84 12.69 12.69 0 0 0 1.54 2.62 20.59 20.59 0 0 0 2.59 2.58 25.29 25.29 0 0 1 3.06 3.06 23.8 23.8 0 0 1 2.3 3.57 14.75 14.75 0 0 0 2.09 3 14.86 14.86 0 0 0 2.9 2.2c1 .53 2.55 1.3 3.55 1.72l1.14.45c.9.34 1.87.68 2.53.88 1.09.33 3.84 1.45 6.12 2.5a37.11 37.11 0 0 0 6 2.23 18.27 18.27 0 0 0 4.19.21c1.07-.09 6.08-1.14 11.85-2.55l16.41-4a101 101 0 0 0 11.32-3.25 23.91 23.91 0 0 0 3.24-2.12 12 12 0 0 0 2.32-2.67 12.8 12.8 0 0 0 1.24-3.41 28.69 28.69 0 0 1 1.18-4.2 30.08 30.08 0 0 1 1.95-4 12 12 0 0 0 1.73-7.42c-.1-1.22-.18-4-.18-6.18a29.7 29.7 0 0 0-.4-5.39 12.67 12.67 0 0 0-1.27-2.93 18.43 18.43 0 0 0-2-2.55 62.88 62.88 0 0 0-5.91-4.37c-2.45-1.66-5.33-3.91-5.16-5.27.14-1.11 1.55-2.15 2.8-2.64a16.43 16.43 0 0 0 3.24-1.77 23.12 23.12 0 0 0 3.48-5 34.33 34.33 0 0 0 2.56-5.6A17.06 17.06 0 0 0 88 75a23.79 23.79 0 0 0-.32-3.23 20.72 20.72 0 0 0-.84-3 18.75 18.75 0 0 1-.89-3.33 20.66 20.66 0 0 1-.16-3.54 12.32 12.32 0 0 0-.27-3 11.44 11.44 0 0 0-1.15-2.68c-.16-.26-.38-.57-.6-.89-.45-.63-.92-1.23-1.26-1.62a23.54 23.54 0 0 0-2.23-2.16 16.26 16.26 0 0 0-2.68-1.65 20.18 20.18 0 0 0-3.18-1.14 29.48 29.48 0 0 1-3.66-1.23 28.79 28.79 0 0 1-3.39-1.79 18.17 18.17 0 0 0-3.21-1.52 73.51 73.51 0 0 0-8.24-1.5 75.9 75.9 0 0 0-8.48-.83c-1 0-6 .74-11.83 1.73h-.24c-5.85 1-10.7 2-11.55 2.25a34.85 34.85 0 0 0-3.5 1.44 12.49 12.49 0 0 0-2.81 2 12.88 12.88 0 0 0-2 2.9 18.55 18.55 0 0 1-2.25 3.51 18.17 18.17 0 0 1-3.1 2.76A10.63 10.63 0 0 0 7.77 61a35.57 35.57 0 0 0-2.09 7.77 25.9 25.9 0 0 0-.57 6.64 2.68 2.68 0 0 0 1.59.1c1.07-.24 3.6-.63 5.64-.85l2-.19c1.91-.16 4-.27 5.36-.3a35.17 35.17 0 0 1 5.67.28 28.64 28.64 0 0 1 3.9 1.09 3.51 3.51 0 0 0 1.88.22 2.9 2.9 0 0 0 .2-1.41 9.15 9.15 0 0 1 .37-3.54 6 6 0 0 1 2-2.52 18.11 18.11 0 0 1 2.48-1.34 15.53 15.53 0 0 1 2.58-.79c.63-.12 2.27-.57 3.59-1s3.66-1 5.07-1.29a19.12 19.12 0 0 1 4-.44 13.15 13.15 0 0 1 2.64.54 13.77 13.77 0 0 1 2.44 1.14 14.34 14.34 0 0 1 2.14 1.68 9.44 9.44 0 0 1 1.65 2.33 10.25 10.25 0 0 1 .69 2.09c.05.27.1.53.12.75a7.43 7.43 0 0 1-.46 3.17c-.45 1.08-3.24 4.19-5 6-2.12 2.19-4.88 4.88-5.82 5.58a8.54 8.54 0 0 1-3.69 1.43 11.85 11.85 0 0 1-4.26-.62 6 6 0 0 0-2.38-.4 1.31 1.31 0 0 0-.1.63c.09.72.43 2.44.74 3.74a16.09 16.09 0 0 1 .49 4 9.69 9.69 0 0 1-.75 2.7 4.83 4.83 0 0 0-.39 1.85 4.92 4.92 0 0 0 .61 1.8 3.75 3.75 0 0 0 1.26 1.16 4.76 4.76 0 0 0 2 .21 17.38 17.38 0 0 1 3.22 0 21 21 0 0 1 2.33.4c.38.08.75.17 1.05.26a15.94 15.94 0 0 1 3.23 1.39 13.59 13.59 0 0 1 2.59 2.13 23.9 23.9 0 0 1 2 2.66c.14.22.3.49.46.78.46.8.92 1.71 1.22 2.37a11.67 11.67 0 0 1 .9 3.31 6.19 6.19 0 0 1-.57 2.9 23.49 23.49 0 0 1-1.25 2 20.13 20.13 0 0 1-1.45 1.8c-.33.36-1.27 1.55-2.13 2.77a20.26 20.26 0 0 1-2.83 3.23 18 18 0 0 1-2.93 1.85 8.52 8.52 0 0 1-3.25.85 4.51 4.51 0 0 1-2.73-1.14 9.48 9.48 0 0 0-1.46-1.15 4.3 4.3 0 0 0-.88-.27 16.49 16.49 0 0 0-1.94-.33c-.46 0-2.79-.33-3.49-1a4 4 0 0 1-.93-1.94 2.29 2.29 0 0 0-.42-.92 2.41 2.41 0 0 0-.94-.46 4.45 4.45 0 0 1-1.92-.93 3.72 3.72 0 0 1-.76-1.9z" fill="url(#b)"/><path d="M59.41 69.54a8.42 8.42 0 0 0-1.44-2A13.39 13.39 0 0 0 56 66a12.85 12.85 0 0 0-2.23-1 12.19 12.19 0 0 0-2.4-.49 18 18 0 0 0-3.72.42c-1.38.28-3.62.86-5 1.27s-3 .86-3.69 1a14.61 14.61 0 0 0-2.38.73 17.29 17.29 0 0 0-2.32 1.25 5 5 0 0 0-1.63 2 8.31 8.31 0 0 0-.31 3.09 2.83 2.83 0 0 1-.68 2.36 3.84 3.84 0 0 1-2.74-.14 27.5 27.5 0 0 0-3.73-1 35.16 35.16 0 0 0-5.47-.26c-1.42 0-3.5.15-5.3.3v.07c-.06.32-.11.64-.16 1-.52 3.21-.64 6-.26 6.47a3 3 0 0 0 2.64.47c1-.24 3.52-.61 5.53-.83s5.28-.44 7.27-.48a35.16 35.16 0 0 1 5.47.26 27.5 27.5 0 0 1 3.73 1 3.84 3.84 0 0 0 2.74.14 2.83 2.83 0 0 0 .68-2.36 8.31 8.31 0 0 1 .31-3.09A5 5 0 0 1 44 76a17.29 17.29 0 0 1 2.32-1.25 14.61 14.61 0 0 1 2.38-.73c.66-.13 2.32-.58 3.69-1s3.61-1 5-1.27c.52-.11 1.08-.2 1.61-.27l1-.12a9.34 9.34 0 0 0-.59-1.82z" fill="url(#a)"/><path d="M85.16 55.71a12.48 12.48 0 0 1 1.27 3 13.31 13.31 0 0 1 .3 3.29 19.86 19.86 0 0 0 .15 3.34 18 18 0 0 0 .83 3.12 21.57 21.57 0 0 1 .89 3.15A24.65 24.65 0 0 1 89 75a18 18 0 0 1-.31 3.37A34.35 34.35 0 0 1 86 84.21a23 23 0 0 1-3.76 5.36 17.38 17.38 0 0 1-3.48 1.9c-1.12.44-2.1 1.27-2.18 1.84s2.05 2.51 4.72 4.32a63.5 63.5 0 0 1 6.06 4.5 19.34 19.34 0 0 1 2.16 2.72 13.67 13.67 0 0 1 1.39 3.21 30.53 30.53 0 0 1 .43 5.64c0 2.16.08 4.9.18 6.09a13 13 0 0 1-1.87 8 29 29 0 0 0-1.87 3.81 27.62 27.62 0 0 0-1.13 4 13.8 13.8 0 0 1-1.36 3.73 13.05 13.05 0 0 1-2.55 2.94 24.76 24.76 0 0 1-3.4 2.23 98.72 98.72 0 0 1-11.54 3.33l-16.41 4c-5.34 1.31-10.74 2.47-12 2.58a19.27 19.27 0 0 1-4.47-.23 37.61 37.61 0 0 1-6.26-2.3c-2.24-1-4.94-2.13-6-2.45-.71-.22-1.7-.56-2.59-.9.3.48.65 1 1 1.42a11.25 11.25 0 0 0 .77.91 15.85 15.85 0 0 0 3.16 2.46c1 .54 2.62 1.33 3.64 1.76s2.71 1 3.77 1.36 3.75 1.42 6 2.45a37.61 37.61 0 0 0 6.26 2.3 19.27 19.27 0 0 0 4.47.23c1.26-.11 6.66-1.27 12-2.58l16.41-4A98.72 98.72 0 0 0 89 151.51a24.76 24.76 0 0 0 3.4-2.23 13.05 13.05 0 0 0 2.6-2.95 13.8 13.8 0 0 0 1.36-3.73 27.62 27.62 0 0 1 1.13-4 29 29 0 0 1 1.87-3.81 13 13 0 0 0 1.87-8c-.1-1.19-.18-3.93-.18-6.09a30.53 30.53 0 0 0-.43-5.64 13.67 13.67 0 0 0-1.39-3.21 19.34 19.34 0 0 0-2.16-2.72 63.5 63.5 0 0 0-6.06-4.5l-.91-.64c-2.23-1.61-3.88-3.18-3.81-3.68a.8.8 0 0 1 .08-.24 4.17 4.17 0 0 1 2.1-1.6 17.38 17.38 0 0 0 3.48-1.9 23 23 0 0 0 3.76-5.36 34.35 34.35 0 0 0 2.66-5.87 18 18 0 0 0 .31-3.37 24.65 24.65 0 0 0-.34-3.4 21.57 21.57 0 0 0-.89-3.15 18 18 0 0 1-.83-3.12 19.86 19.86 0 0 1-.15-3.34 13.31 13.31 0 0 0-.3-3.29 12.48 12.48 0 0 0-1.27-3 20.17 20.17 0 0 0-4.31-4.9 17.21 17.21 0 0 0-2.82-1.8 17.76 17.76 0 0 0-1.69-.69c-.53-.19-1.07-.36-1.53-.49.21.31.45.64.61.92z" fill="url(#c)"/><path d="M31.46 121.64A4.22 4.22 0 0 0 32 123a3.5 3.5 0 0 0 1.44.68 3.3 3.3 0 0 1 1.45.74 3.2 3.2 0 0 1 .69 1.46 3 3 0 0 0 .64 1.39 7.42 7.42 0 0 0 2.89.74 17.32 17.32 0 0 1 2.06.35c-.07-.32-.15-.68-.22-1.06-.11-.59-.22-1.24-.31-1.91-.3-2.24-1-4.18-1.55-4.33a37.49 37.49 0 0 0-6.58.42h-.12z" fill="url(#d)"/><path d="M57.38 111.32c-.16-.27-.3-.53-.44-.73a22.65 22.65 0 0 0-1.94-2.53 12.64 12.64 0 0 0-2.37-1.95 15 15 0 0 0-3-1.28c-.29-.08-.63-.17-1-.25v.12a5.12 5.12 0 0 0-.28.83 5.29 5.29 0 0 0-.2 1.5 5.85 5.85 0 0 0 .76 2.27 4.68 4.68 0 0 0 1.76 1.59 5.73 5.73 0 0 0 2.52.29 16.61 16.61 0 0 1 2.92 0h.09c.33 0 .75.06 1.18.14z" fill="url(#e)"/></svg>