<svg xmlns="http://www.w3.org/2000/svg" xmlns:xlink="http://www.w3.org/1999/xlink" width="200" height="200" viewBox="0 0 200 200"><defs><linearGradient id="b" x1="79.2" y1="144.83" x2="123.45" y2="45.43" gradientUnits="userSpaceOnUse"><stop offset="0" stop-color="#fdba56"/><stop offset=".02" stop-color="#fbb055"/><stop offset=".06" stop-color="#f79d54"/><stop offset=".1" stop-color="#f59253"/><stop offset=".15" stop-color="#f48e53"/><stop offset=".3" stop-color="#ed5e4e"/><stop offset=".47" stop-color="#683a96" stop-opacity=".5"/><stop offset=".64" stop-color="#ed872b"/><stop offset=".79" stop-color="#7b76b6"/><stop offset=".9" stop-color="#f15f4f"/><stop offset="1" stop-color="#fdba56"/></linearGradient><linearGradient id="a" x1="117.75" y1="54.06" x2="140.06" y2="104.18" gradientUnits="userSpaceOnUse"><stop offset="0" stop-color="#b7151b"/><stop offset=".02" stop-color="#c52229"/><stop offset=".06" stop-color="#d7333c"/><stop offset=".11" stop-color="#e23d47"/><stop offset=".15" stop-color="#e6404b"/><stop offset=".3" stop-color="#e98a7b"/><stop offset=".47" stop-color="#7c78b8"/><stop offset=".64" stop-color="#00b0b0"/><stop offset=".79" stop-color="#7b76b6"/><stop offset="1" stop-color="#e7322f"/></linearGradient><linearGradient id="c" x1="68.65" y1="123.06" x2="78.04" y2="144.16" xlink:href="#a"/><linearGradient id="d" x1="119.39" y1="122.65" x2="135.38" y2="158.56" xlink:href="#a"/></defs><title>_</title><path d="M134 107.87c-1.85.15-4.14.3-4.73.28-.39 0-1.57 0-2.72.07s-2.88-.36-3.37-1.46a8.58 8.58 0 0 1-.34-3.48c.1-1.15.53-3.86 1-6.05a23.94 23.94 0 0 0 .54-5.54 13.76 13.76 0 0 0-1.1-3.56 14 14 0 0 1-1.28-4.24 23.4 23.4 0 0 1 .92-6.17c.57-2.07 1.16-4.67 1.29-5.69s.26-2.75.28-3.76-.06-2.74-.17-3.76-.6-3.64-1.06-5.7a32.49 32.49 0 0 1-.84-6.2c0-.35 0-.78.1-1.23a22.86 22.86 0 0 1 .62-3.31 4.25 4.25 0 0 0 0-2.59 3.48 3.48 0 0 0-2.15-.88 21.6 21.6 0 0 0-3.94.15 19.36 19.36 0 0 0-3.65 1 14.7 14.7 0 0 1-4.06 1 13.83 13.83 0 0 1-4.08-.49 15.78 15.78 0 0 0-3.41-.55 14 14 0 0 0-3.27.41 27.66 27.66 0 0 0-3.14 1.11 21.8 21.8 0 0 0-2.68 1.47 12.27 12.27 0 0 0-2.11 1.89 14 14 0 0 0-1.59 2.52 26 26 0 0 1-1.73 3 24.77 24.77 0 0 1-2.18 2.67 28.75 28.75 0 0 0-2 2.4 29.52 29.52 0 0 0-1.71 2.68 18.78 18.78 0 0 1-2 2.87 19.13 19.13 0 0 1-2.62 2.36 22.36 22.36 0 0 0-2.39 2.05 21.58 21.58 0 0 0-2 2.4 22.34 22.34 0 0 1-2.2 2.67 23.92 23.92 0 0 1-2.68 2.26c-.74.52-1.92 1.43-2.59 2s-1.77 1.53-2.4 2.19a26.7 26.7 0 0 0-2 2.38c-.51.69-2.08 3.23-3.43 5.55a35.7 35.7 0 0 1-3.9 5.67 18 18 0 0 1-2.91 2.14 10.34 10.34 0 0 0-2.32 1.85 9.49 9.49 0 0 0-1.38 2.48 16.12 16.12 0 0 0-.64 2.93 14.52 14.52 0 0 0 .06 2.88A12.65 12.65 0 0 1 46 112a15 15 0 0 1-1.17 3.41 15.66 15.66 0 0 0-1.07 2.93 13.43 13.43 0 0 0-.26 2.93 18.74 18.74 0 0 0 .39 2.86 15 15 0 0 0 .88 2.5 6 6 0 0 0 1.23 1.64 4.52 4.52 0 0 0 1.67.74 24.45 24.45 0 0 0 2.47.26h2.85a20 20 0 0 1 3.32.15 22.27 22.27 0 0 1 3.31.8 8.68 8.68 0 0 0 2.74.37 9.52 9.52 0 0 0 2.77-.75 21.81 21.81 0 0 1 3.31-1.21 18.85 18.85 0 0 1 3.34-.49H75c.89 0 2.33.18 3.22.31s2.34.41 3.24.64 2.34.69 3.23 1a14.48 14.48 0 0 0 2.85.7 12.28 12.28 0 0 0 2.76-.08 5.31 5.31 0 0 1 .85-.07 3 3 0 0 1 2.08.63 3.1 3.1 0 0 1 .45 2.88 6.43 6.43 0 0 0-.12 2.29 5.56 5.56 0 0 0 .22.78 9.11 9.11 0 0 0 .73 1.66 6.14 6.14 0 0 1 0 6.69 7.49 7.49 0 0 0-.91 2.43 5.48 5.48 0 0 0 .31 2.18 5 5 0 0 0 1.37 1.73 8.74 8.74 0 0 0 2.63 1.09 23 23 0 0 0 3.51.42h.95a24.29 24.29 0 0 0 2.64-.23c1.11-.18 5.33-.39 9.6-.5a44.44 44.44 0 0 0 7.74-.68 28.39 28.39 0 0 0-.19-6.84 56.64 56.64 0 0 1-.57-8.65 11.87 11.87 0 0 1 1.06-3 7.41 7.41 0 0 1 1.68-2.14 2.5 2.5 0 0 1 2.36-.31 3.7 3.7 0 0 0 1.06.25 5.41 5.41 0 0 0 1.3-.16 7.74 7.74 0 0 1 2-.23 7.88 7.88 0 0 1 2 .39 4.39 4.39 0 0 0 1.34.18 5.62 5.62 0 0 0 1.5-.4 3.67 3.67 0 0 0 1.19-1.05 8.67 8.67 0 0 0 .91-2.21 26.9 26.9 0 0 0 .53-2.93 24.5 24.5 0 0 0 .12-2.87c0-.78-.26-2.77-.51-4.35-.18-1.1-.36-2.44-.47-3.48-.05-.47-.09-.88-.11-1.16a31.41 31.41 0 0 1 0-3.32 5.1 5.1 0 0 0-.18-1.69 10.32 10.32 0 0 0-3.26-.16l-.2-1z" fill="url(#b)"/><path d="M123.45 52.63a32 32 0 0 0 .82 6c.48 2.13 1 4.75 1.08 5.82s.19 2.81.18 3.88-.14 2.81-.29 3.88-.74 3.69-1.32 5.82a22.46 22.46 0 0 0-.92 5.77 13.14 13.14 0 0 0 1.12 3.88 14.73 14.73 0 0 1 1.2 3.88 24.46 24.46 0 0 1-.55 5.86c-.43 2.16-.87 4.83-1 5.94a7.85 7.85 0 0 0 .26 3 2.66 2.66 0 0 0 2.4.87c1.08-.06 2.35-.09 2.82-.07s2.54-.1 4.6-.28h.15l.18-1c.09-.51.19-1 .28-1.49a24.46 24.46 0 0 0 .54-5.89 14.73 14.73 0 0 0-1.2-3.88 13.14 13.14 0 0 1-1.12-3.88 22.46 22.46 0 0 1 .89-5.82c.58-2.13 1.18-4.75 1.32-5.82s.27-2.81.29-3.88-.06-2.81-.18-3.88-.6-3.69-1.08-5.82a32 32 0 0 1-.82-6 21.25 21.25 0 0 1 .68-4.3 5 5 0 0 0-.14-3.4 4.24 4.24 0 0 0-2.92-1.34 22.49 22.49 0 0 0-4.17.16 18.12 18.12 0 0 0-2 .47c-.36.1-.72.21-1.05.32-.01.48-.04.87-.05 1.2z" fill="url(#a)"/><path d="M92.57 136.64a7.43 7.43 0 0 1 .15-2.72 2.22 2.22 0 0 0-.18-1.89 2.87 2.87 0 0 0-2.06-.3 13.36 13.36 0 0 1-3 .08 15.47 15.47 0 0 1-3.1-.75c-.86-.32-2.27-.77-3.13-1s-2.27-.5-3.13-.62-2.27-.26-3.13-.3-2.27-.05-3.13 0a18 18 0 0 0-3.13.46 21 21 0 0 0-3.13 1.14 10.41 10.41 0 0 1-3.13.85 9.63 9.63 0 0 1-3.13-.43 21.14 21.14 0 0 0-3.13-.76 19.48 19.48 0 0 0-3.13-.14h-.64c.06.37.12.72.19 1a16 16 0 0 0 1 2.7 6.94 6.94 0 0 0 1.53 2 5.5 5.5 0 0 0 2.12.95 25.32 25.32 0 0 0 2.6.28h3a19.48 19.48 0 0 1 3.13.14 21.14 21.14 0 0 1 3.13.76 9.63 9.63 0 0 0 3.13.43 10.41 10.41 0 0 0 3.13-.85 21 21 0 0 1 3.13-1.14 18 18 0 0 1 3.13-.46h3.13c.86 0 2.27.18 3.13.3s2.27.4 3.13.62l.75.21 1.15.36a6.7 6.7 0 0 1-.38-.92z" fill="url(#c)"/><path d="M139 114.09h-.39c.11 1 .29 2.31.47 3.44.26 1.64.5 3.66.52 4.48a25.38 25.38 0 0 1-.12 3 28 28 0 0 1-.56 3.07 9.64 9.64 0 0 1-1.05 2.53 4.62 4.62 0 0 1-1.61 1.41 6.56 6.56 0 0 1-1.84.48 5.2 5.2 0 0 1-1.74-.24 7 7 0 0 0-1.69-.33 6.72 6.72 0 0 0-1.69.2 6.26 6.26 0 0 1-1.6.2 4.67 4.67 0 0 1-1.43-.34 1.51 1.51 0 0 0-1.36.2 6.61 6.61 0 0 0-1.39 1.81 10.86 10.86 0 0 0-1 2.67 57.59 57.59 0 0 0 .58 8.36c.45 3.85.43 7.32-.06 7.73s-4.29.82-8.45.91-8.42.32-9.47.49a25.27 25.27 0 0 1-2.76.25c0 .15-.07.3-.09.43a4.22 4.22 0 0 0 0 .58 6.54 6.54 0 0 0 .39 2.1 5.92 5.92 0 0 0 1.71 2.16 9.65 9.65 0 0 0 3 1.25 23.84 23.84 0 0 0 3.69.44 25 25 0 0 0 3.77-.26c1-.17 5.31-.39 9.47-.49s8-.51 8.45-.91.52-3.88.06-7.73a57.59 57.59 0 0 1-.58-8.36 10.86 10.86 0 0 1 1-2.67 6.61 6.61 0 0 1 1.39-1.81 1.51 1.51 0 0 1 1.36-.2 4.67 4.67 0 0 0 1.43.34 6.26 6.26 0 0 0 1.6-.2 6.72 6.72 0 0 1 1.69-.2 7 7 0 0 1 1.69.33 5.2 5.2 0 0 0 1.74.24A6.56 6.56 0 0 0 146 139a4.62 4.62 0 0 0 1.61-1.41 9.64 9.64 0 0 0 1.05-2.53 28 28 0 0 0 .56-3.07 25.38 25.38 0 0 0 .12-3c0-.82-.26-2.83-.52-4.48s-.52-3.69-.57-4.55a30.28 30.28 0 0 1 0-3.19 5 5 0 0 0-.38-2.43c-.27-.44-2.18-.65-4.25-.48-1.55.13-3.11.23-4 .26H139z" fill="url(#d)"/></svg>