<svg xmlns="http://www.w3.org/2000/svg" xmlns:xlink="http://www.w3.org/1999/xlink" width="200" height="200" viewBox="0 0 200 200"><defs><linearGradient id="a" x1="54.49" y1="146" x2="105.17" y2="32.18" gradientUnits="userSpaceOnUse"><stop offset="0" stop-color="#fdba56"/><stop offset="0.02" stop-color="#fbb055"/><stop offset="0.06" stop-color="#f79d54"/><stop offset="0.1" stop-color="#f59253"/><stop offset="0.15" stop-color="#f48e53"/><stop offset="0.3" stop-color="#ed5e4e"/><stop offset="0.47" stop-color="#683a96" stop-opacity="0.5"/><stop offset="0.64" stop-color="#ed872b"/><stop offset="0.79" stop-color="#7b76b6"/><stop offset="0.9" stop-color="#f15f4f"/><stop offset="1" stop-color="#fdba56"/></linearGradient><linearGradient id="b" x1="76.81" y1="63.28" x2="86.25" y2="84.48" gradientUnits="userSpaceOnUse"><stop offset="0" stop-color="#b7151b"/><stop offset="0.02" stop-color="#c52229"/><stop offset="0.06" stop-color="#d7333c"/><stop offset="0.11" stop-color="#e23d47"/><stop offset="0.15" stop-color="#e6404b"/><stop offset="0.3" stop-color="#e98a7b"/><stop offset="0.47" stop-color="#7c78b8"/><stop offset="0.64" stop-color="#00b0b0"/><stop offset="0.79" stop-color="#7b76b6"/><stop offset="1" stop-color="#e7322f"/></linearGradient><linearGradient id="c" x1="94.71" y1="68.67" x2="131.2" y2="150.63" xlink:href="#b"/></defs><title>_</title><path d="M134.79,45.37a3.92,3.92,0,0,0-1.89-.1,25.1,25.1,0,0,1-4.3.28,20.31,20.31,0,0,1-4-.66,10.21,10.21,0,0,0-3.25-.29,11.6,11.6,0,0,0-3.29,1,24.25,24.25,0,0,1-3.83,1.53,20.11,20.11,0,0,1-3.87.63,20.69,20.69,0,0,1-3.86-.27,23.31,23.31,0,0,1-3.84-1.13,27.06,27.06,0,0,0-3.48-1.1C98.22,45.09,95,44.73,92,44.52a40.56,40.56,0,0,0-7,0,16.24,16.24,0,0,0-3.38,1.23,15,15,0,0,1-4,1.31,12.93,12.93,0,0,1-4-.15,23.27,23.27,0,0,0-3.45-.44,23,23,0,0,0-3.45.2c-1.18.18-5.45,0.3-8.9,0.3a34.17,34.17,0,0,0-7.22.56,18.32,18.32,0,0,0-1.36,4.63A27.43,27.43,0,0,0,48.72,58a11.52,11.52,0,0,0,1,3,12.88,12.88,0,0,1,1.18,3.54,10.21,10.21,0,0,1-.22,3.5,2.35,2.35,0,0,0,0,1.1A3.08,3.08,0,0,0,52,69a13.44,13.44,0,0,1,3.66-.19,15.62,15.62,0,0,1,3.7,1L59.87,70a26,26,0,0,0,2.76.88,23,23,0,0,0,3.3.48c0.92,0.05,2.46,0,3.36,0s2.45-.25,3.37-0.42a28.35,28.35,0,0,1,3.64-.38,28.26,28.26,0,0,1,3.64.19c0.81,0.11,4.44.16,8.56,0.07s7.79-.31,8.62-0.47,2.6-.57,3.59-0.87c1.31-.38,2.88-0.35,3.45.59,0.69,1.16-.46,3.41-0.6,3.66a43,43,0,0,1-2.22,3.68c-0.39.56-.94,1.27-1.52,2-0.32.38-.63,0.74-0.88,1a35,35,0,0,1-2.66,2.45c-0.78.64-2.14,1.62-3,2.19A12.77,12.77,0,0,0,88.73,90c-0.46.88-1.14,2.35-1.52,3.29S86.3,95.74,86,96.71a30.6,30.6,0,0,1-1.35,3.63,71.09,71.09,0,0,1-4.13,6.57,64.5,64.5,0,0,0-4,6.39,23.49,23.49,0,0,0-1.2,3.55c-0.25,1.05-.55,2.77-0.68,3.83s-0.27,2.83-.29,3.92a21.88,21.88,0,0,1-.51,4A16.27,16.27,0,0,1,72.5,132a17.27,17.27,0,0,0-1.21,2.79,16.55,16.55,0,0,0-.56,2.94,21.21,21.21,0,0,1-.59,3.38,22.53,22.53,0,0,1-1.24,3.27,15.62,15.62,0,0,0-1,2.91,15.84,15.84,0,0,0-.28,3.09,2.71,2.71,0,0,0,.72,1.73,5,5,0,0,0,2.52.49h0.4c1.37,0,4.23.23,5.49,0.33,1.48,0.12,3.09.28,4.7,0.45,4.48,0.47,9.22.87,10.29,0.83a31.19,31.19,0,0,0,4-.41,8.11,8.11,0,0,0,3-1.24,5.77,5.77,0,0,0,1.51-2.31,11.76,11.76,0,0,0,.41-3.15A12.29,12.29,0,0,0,100,144a10.13,10.13,0,0,1-.58-3.82,9.76,9.76,0,0,1,1.23-3.62,11.72,11.72,0,0,0,1.19-2.88,11,11,0,0,0,.15-3,27.17,27.17,0,0,1-.12-3.79,35.4,35.4,0,0,1,.5-4.08c0.22-1.16.68-3,1-4.13s1-2.92,1.42-4,2.92-5.86,5.6-10.82l3.46-6.4c2.82-5.23,5-9.64,5.35-10.48a31.29,31.29,0,0,1,1.57-3.53c0.5-.92,2.25-3.46,4-5.79a51.88,51.88,0,0,1,4.47-5.36,19.21,19.21,0,0,1,3-2.08,9,9,0,0,0,2.2-1.76,7.31,7.31,0,0,0,1.14-2.31,14.86,14.86,0,0,0,.36-2.81,36.3,36.3,0,0,0-1.18-5.82,28.2,28.2,0,0,1-1.12-6.6,16.43,16.43,0,0,1,.93-3.86A3.08,3.08,0,0,0,134.79,45.37Z" fill="url(#a)"/><path d="M99.06,78.77c0.52-.63,1.08-1.33,1.46-1.89,0.61-.88,1.58-2.49,2.16-3.58s0.85-2.29.62-2.68-1.27-.46-2.3-0.15-2.7.71-3.7,0.89-4.95.4-8.78,0.48-7.75,0-8.71-.08a27,27,0,0,0-3.48-.18,27.34,27.34,0,0,0-3.48.37c-1,.18-2.53.37-3.48,0.43s-2.53.07-3.48,0a23.9,23.9,0,0,1-3.48-.51A26.81,26.81,0,0,1,59.51,71c0,0.2.09,0.39,0.11,0.56s0,0.37,0,.56a9.29,9.29,0,0,1-.24,2.54,2.48,2.48,0,0,0,.2,2.1,3.06,3.06,0,0,0,2.27.22,12.49,12.49,0,0,1,3.34-.18,14.71,14.71,0,0,1,3.41.91,26.63,26.63,0,0,0,3.46,1.14,23.9,23.9,0,0,0,3.48.51c1,0.05,2.53,0,3.48,0s2.53-.26,3.48-0.43A27.34,27.34,0,0,1,86,78.53a27,27,0,0,1,3.48.18c0.92,0.12,4.53.16,8.19,0.09h0.52Z" fill="url(#b)"/><path d="M134.64,50.92a27.78,27.78,0,0,0,1.09,6.26,36.1,36.1,0,0,1,1.21,6.08,15.74,15.74,0,0,1-.39,3,8.24,8.24,0,0,1-1.34,2.7,9.9,9.9,0,0,1-2.49,2,18.22,18.22,0,0,0-2.8,1.95,51,51,0,0,0-4.33,5.21c-1.68,2.25-3.44,4.81-3.91,5.67a30.27,30.27,0,0,0-1.51,3.39c-0.36,1-2.8,5.78-5.41,10.62l-3.46,6.4c-2.62,4.84-5.11,9.66-5.55,10.72s-1.06,2.82-1.39,3.92-0.77,2.91-1,4a34.43,34.43,0,0,0-.49,3.94,26.29,26.29,0,0,0,.11,3.62,12,12,0,0,1-.17,3.37A12.74,12.74,0,0,1,101.5,137a8.76,8.76,0,0,0-1.08,3.18,9.18,9.18,0,0,0,.52,3.38,13.28,13.28,0,0,1,.73,3.48,12.82,12.82,0,0,1-.45,3.48,6.67,6.67,0,0,1-1.84,2.8,9,9,0,0,1-3.43,1.44,32,32,0,0,1-4.2.42c-1.15,0-5.84-.36-10.42-0.84-1.6-.17-3.21-0.32-4.67-0.44l0,0.1c-0.05.25-.1,0.56-0.15,0.89a17,17,0,0,0-.15,2.44,3.62,3.62,0,0,0,1.12,2.51,5.8,5.8,0,0,0,3.17.68c1.15-.06,5.84.28,10.42,0.76s9.27,0.86,10.42.84a32,32,0,0,0,4.2-.42,9,9,0,0,0,3.43-1.44,6.67,6.67,0,0,0,1.84-2.8,12.82,12.82,0,0,0,.45-3.48,13.28,13.28,0,0,0-.73-3.48,9.18,9.18,0,0,1-.52-3.38,8.76,8.76,0,0,1,1.08-3.18,12.74,12.74,0,0,0,1.31-3.18,12,12,0,0,0,.17-3.37,26.29,26.29,0,0,1-.11-3.62,34.43,34.43,0,0,1,.49-3.94c0.22-1.13.66-2.94,1-4s1-2.86,1.39-3.92S118.38,116,121,111.2l3.46-6.4c2.62-4.84,5.05-9.62,5.41-10.62a30.27,30.27,0,0,1,1.51-3.39c0.47-.87,2.23-3.42,3.91-5.67a51,51,0,0,1,4.33-5.21,18.22,18.22,0,0,1,2.8-1.95,9.9,9.9,0,0,0,2.49-2,8.24,8.24,0,0,0,1.34-2.7,15.74,15.74,0,0,0,.39-3,36.1,36.1,0,0,0-1.21-6.08,27.78,27.78,0,0,1-1.09-6.26,15.34,15.34,0,0,1,.87-3.58,3.07,3.07,0,0,0,0-2.64,3.76,3.76,0,0,0-2.81-.41,23.67,23.67,0,0,1-4.09.26,19.54,19.54,0,0,1-2.72-.36c-0.36-.07-0.71-0.15-1-0.23v0Z" fill="url(#c)"/></svg>