<svg xmlns="http://www.w3.org/2000/svg" width="200" height="200" viewBox="0 0 200 200"><defs><linearGradient id="a" x1="68.88" y1="151.1" x2="114.86" y2="47.81" gradientUnits="userSpaceOnUse"><stop offset="0" stop-color="#fdba56"/><stop offset=".02" stop-color="#fbb055"/><stop offset=".06" stop-color="#f79d54"/><stop offset=".1" stop-color="#f59253"/><stop offset=".15" stop-color="#f48e53"/><stop offset=".3" stop-color="#ed5e4e"/><stop offset=".47" stop-color="#683a96" stop-opacity=".5"/><stop offset=".64" stop-color="#ed872b"/><stop offset=".79" stop-color="#7b76b6"/><stop offset=".9" stop-color="#f15f4f"/><stop offset="1" stop-color="#fdba56"/></linearGradient><linearGradient id="b" x1="87.69" y1="75.3" x2="124.26" y2="157.44" gradientUnits="userSpaceOnUse"><stop offset="0" stop-color="#b7151b"/><stop offset=".02" stop-color="#c52229"/><stop offset=".06" stop-color="#d7333c"/><stop offset=".11" stop-color="#e23d47"/><stop offset=".15" stop-color="#e6404b"/><stop offset=".3" stop-color="#e98a7b"/><stop offset=".47" stop-color="#7c78b8"/><stop offset=".64" stop-color="#00b0b0"/><stop offset=".79" stop-color="#7b76b6"/><stop offset="1" stop-color="#e7322f"/></linearGradient></defs><title>_</title><path d="M127.68 55.92a10.07 10.07 0 0 0-2.42-1.68c-.9-.42-2.35-1.18-3.22-1.71s-2.27-1.47-3.12-2.1-2.16-1.49-3-2-2.32-1.22-3.23-1.6a22.23 22.23 0 0 0-3.5-1.06c-1-.21-6.44-.77-11.81-1.24l-1.64-.14c-5.57-.48-10.37-.78-11.76-.78h-.22a36.23 36.23 0 0 0-4.14.46c-1.15.21-3.81.86-5.93 1.45a23.7 23.7 0 0 0-5.19 2 16.26 16.26 0 0 0-2.73 2.51 15 15 0 0 1-3.19 2.79 13.41 13.41 0 0 1-3.84 1.45 11 11 0 0 0-3 1.12 9.93 9.93 0 0 0-2.28 2.1 33.46 33.46 0 0 0-1.9 2.94A34.74 34.74 0 0 0 50 63.69a35.41 35.41 0 0 0-1.13 3.39 35.11 35.11 0 0 0-.7 3.5 31.24 31.24 0 0 0-.21 3.71 41.08 41.08 0 0 0 .31 4.1 29.3 29.3 0 0 0 .84 3.9 19.81 19.81 0 0 0 1.35 3.18c.45.8 1.27 2.06 1.78 2.76a30.29 30.29 0 0 0 2 2.41 25.51 25.51 0 0 0 2.18 2 21.66 21.66 0 0 0 2.31 1.55 3 3 0 0 1 1.64 2.66 5.41 5.41 0 0 1-2 2.81 30 30 0 0 0-2.68 2.47 67.84 67.84 0 0 0-4.16 5.72 39.8 39.8 0 0 0-3.43 6 19.65 19.65 0 0 0-.69 3.57c-.1 1.17-.51 4-.91 6.22a25.06 25.06 0 0 0-.5 5.66 12.15 12.15 0 0 0 1.16 3.37c.53 1 1.45 2.43 2 3.28s1.6 2.14 2.25 2.86a32.49 32.49 0 0 0 2.59 2.45c.72.62 3.44 2.66 5.94 4.45 1.44 1 3 2.12 4.37 3 .9.58 1.58 1 1.93 1.18a26 26 0 0 0 3.53 1.43c1 .31 2.65.73 3.56.91s3.7.52 6.11.74a55.52 55.52 0 0 1 6.15.84 30.88 30.88 0 0 1 3.11 1.05 12 12 0 0 0 2.75.7 11.85 11.85 0 0 0 2.83-.14c.83-.16 3.61-.93 6.07-1.68 2.29-.7 5.25-1.51 6.26-1.66a23.28 23.28 0 0 0 3-.74c.88-.29 4.11-1.6 7.07-2.88s6.16-2.75 7-3.24a26.77 26.77 0 0 0 2.91-2 20.39 20.39 0 0 0 2.39-2.33 20.13 20.13 0 0 0 1.86-2.76c.49-.9 1.84-3.07 3-4.83a47 47 0 0 0 2.86-4.79A24.45 24.45 0 0 0 138 125a15.78 15.78 0 0 0 .36-3.72 20.49 20.49 0 0 0-.72-4.06 23.42 23.42 0 0 0-1.62-3.86 18.36 18.36 0 0 0-2.28-3.08c-.79-.82-2-2.21-2.68-3.1s-1.71-2.39-2.3-3.35a13.94 13.94 0 0 0-2.37-2.78 18.13 18.13 0 0 0-3.42-2.15c-1-.44-2.62-1.5-2.81-2.68s1-2.34 2.13-3a28 28 0 0 0 3.09-2 49.53 49.53 0 0 0 4.72-5 17.84 17.84 0 0 0 3.31-5.22 8.2 8.2 0 0 0-.6-3.19 14.53 14.53 0 0 1-1-4.11 10.77 10.77 0 0 1 .6-3.86 8.6 8.6 0 0 0 .51-2.77 26.31 26.31 0 0 0-2.12-5.72c-.69-1.45-1.51-3-2.2-4.15a8.38 8.38 0 0 0-.92-1.28z" fill="url(#a)"/><path d="M131.69 61a26 26 0 0 1 2.21 6.11 9.51 9.51 0 0 1-.58 3.18 9.79 9.79 0 0 0-.53 3.44 13.63 13.63 0 0 0 .94 3.77 9.12 9.12 0 0 1 .67 3.68c-.09.94-1.7 3.54-3.59 5.78a50.35 50.35 0 0 1-4.87 5.19 28.91 28.91 0 0 1-3.22 2.07c-1 .53-1.7 1.39-1.62 1.92a4.2 4.2 0 0 0 2.25 1.86 19.11 19.11 0 0 1 3.65 2.3 15 15 0 0 1 2.58 3c.56.93 1.57 2.4 2.23 3.26s1.84 2.22 2.61 3a19.39 19.39 0 0 1 2.44 3.28 24.2 24.2 0 0 1 1.71 4.06 21.34 21.34 0 0 1 .77 4.3 16.78 16.78 0 0 1-.39 4 25.46 25.46 0 0 1-1.29 3.69 47.62 47.62 0 0 1-2.94 4.93c-1.17 1.74-2.51 3.88-3 4.75a17.4 17.4 0 0 1-4.51 5.4 27.7 27.7 0 0 1-3 2c-.9.51-4.1 2-7.12 3.29s-6.23 2.61-7.15 2.91a24.15 24.15 0 0 1-3.2.78c-.84.13-3.6.86-6.12 1.63s-5.29 1.54-6.17 1.71a10.55 10.55 0 0 1-6.16-.61 29.62 29.62 0 0 0-3-1 54.52 54.52 0 0 0-6-.81c-2.47-.23-5.26-.56-6.21-.75s-2.59-.61-3.65-.93a26.86 26.86 0 0 1-3.7-1.5c-.4-.21-1.13-.65-2-1.23 1 .8 2.77 2.11 4.56 3.4l.71.61c2.56 1.83 5.45 3.74 6.42 4.24a26.86 26.86 0 0 0 3.7 1.5c1.06.32 2.71.74 3.65.93s3.74.53 6.21.75a54.52 54.52 0 0 1 6 .81 29.62 29.62 0 0 1 3 1 10.55 10.55 0 0 0 6.16.61c.87-.17 3.65-.94 6.17-1.71s5.27-1.5 6.12-1.63a24.15 24.15 0 0 0 3.2-.78c.92-.3 4.13-1.61 7.15-2.91s6.22-2.78 7.12-3.29a27.7 27.7 0 0 0 3-2 17.4 17.4 0 0 0 4.51-5.4c.47-.87 1.81-3 3-4.75a47.62 47.62 0 0 0 2.94-4.93 25.46 25.46 0 0 0 1.29-3.69 16.78 16.78 0 0 0 .39-4 21.34 21.34 0 0 0-.77-4.3 24.2 24.2 0 0 0-1.71-4.06 19.39 19.39 0 0 0-2.44-3.28c-.77-.8-1.95-2.15-2.61-3s-1.67-2.33-2.23-3.26a15 15 0 0 0-2.58-3 19.11 19.11 0 0 0-3.65-2.3 4.2 4.2 0 0 1-2.25-1.93c-.09-.53.64-1.39 1.62-1.92a28.91 28.91 0 0 0 3.25-2.17 50.35 50.35 0 0 0 4.87-5.19c1.88-2.24 3.5-4.84 3.59-5.78a9.12 9.12 0 0 0-.67-3.68 13.63 13.63 0 0 1-.94-3.77 9.79 9.79 0 0 1 .53-3.44 9.51 9.51 0 0 0 .58-3.18 26 26 0 0 0-2.21-6.11 31.3 31.3 0 0 0-3.29-5.73 10.92 10.92 0 0 0-2.72-1.89c-.87-.4-2.28-1.15-3.12-1.66l-1-.61c-.64-.42-1.34-.9-1.89-1.3.73 1.18 1.61 2.75 2.3 4.34z" fill="url(#b)"/></svg>