<svg xmlns="http://www.w3.org/2000/svg" xmlns:xlink="http://www.w3.org/1999/xlink" width="200" height="200" viewBox="0 0 200 200"><defs><linearGradient id="a" x1="65.71" y1="151.79" x2="111.66" y2="48.57" gradientUnits="userSpaceOnUse"><stop offset="0" stop-color="#fdba56"/><stop offset="0.02" stop-color="#fbb055"/><stop offset="0.06" stop-color="#f79d54"/><stop offset="0.1" stop-color="#f59253"/><stop offset="0.15" stop-color="#f48e53"/><stop offset="0.3" stop-color="#ed5e4e"/><stop offset="0.47" stop-color="#683a96" stop-opacity="0.5"/><stop offset="0.64" stop-color="#ed872b"/><stop offset="0.79" stop-color="#7b76b6"/><stop offset="0.9" stop-color="#f15f4f"/><stop offset="1" stop-color="#fdba56"/></linearGradient><linearGradient id="b" x1="87.72" y1="75.12" x2="124.17" y2="156.98" gradientUnits="userSpaceOnUse"><stop offset="0" stop-color="#b7151b"/><stop offset="0.02" stop-color="#c52229"/><stop offset="0.06" stop-color="#d7333c"/><stop offset="0.11" stop-color="#e23d47"/><stop offset="0.15" stop-color="#e6404b"/><stop offset="0.3" stop-color="#e98a7b"/><stop offset="0.47" stop-color="#7c78b8"/><stop offset="0.64" stop-color="#00b0b0"/><stop offset="0.79" stop-color="#7b76b6"/><stop offset="1" stop-color="#e7322f"/></linearGradient><linearGradient id="c" x1="82.68" y1="131.16" x2="84.44" y2="135.11" xlink:href="#b"/><linearGradient id="d" x1="84.15" y1="108.68" x2="92.71" y2="127.9" xlink:href="#b"/></defs><title>_</title><path d="M122.85,56.31a23.56,23.56,0,0,0-3.46-3,11.92,11.92,0,0,0-2.72-1.06,14,14,0,0,1-3.33-1.31,14.76,14.76,0,0,1-2.83-2.28A8.09,8.09,0,0,0,108.14,47a9.32,9.32,0,0,0-3-.5c-1.07,0-2.78,0-3.82-.08S98.6,46.15,97.6,46,95,45.45,94,45.17s-2.64-.81-3.65-1.18A9.9,9.9,0,0,0,87,43.51a27.4,27.4,0,0,0-5.82,1.74A84.9,84.9,0,0,1,72.92,48a60.82,60.82,0,0,1-6,1.32,13.12,13.12,0,0,0-3.28.94,12.78,12.78,0,0,0-2.77,1.93c-0.78.75-2.73,2.42-4.35,3.71S53,58.8,52.32,59.49a35.49,35.49,0,0,0-2.43,2.69,13.88,13.88,0,0,0-1.73,3.06,89.36,89.36,0,0,0-1.47,11.54l-0.51,6.14c-0.51,6-.49,10.32-0.29,11a79.59,79.59,0,0,0,7.41,8.23h0L56.14,105a103.71,103.71,0,0,0,8.49,8,24.1,24.1,0,0,0,3.48,1.67l0.48,0.17c1.32,0.44,3.69,1.13,5.64,1.63a49.52,49.52,0,0,0,6,1.22,26.33,26.33,0,0,0,3.65,0c1-.09,2.54-0.3,3.44-0.48s2.36-.53,3.19-0.79a18.71,18.71,0,0,0,2.84-1.2,19.15,19.15,0,0,0,2.56-1.76,23,23,0,0,1,2.77-2,18.25,18.25,0,0,1,2.9-1.3,3.51,3.51,0,0,1,3.33.69,8.67,8.67,0,0,1,1.74,3.69,11,11,0,0,1-.07,4.72,10.81,10.81,0,0,1-2.47,4c-0.27.26-.56,0.58-0.87,0.92a25.87,25.87,0,0,0-1.85,2.26,20.89,20.89,0,0,0-1.81,3.3A9.19,9.19,0,0,1,97.19,133a10.11,10.11,0,0,1-3.85,1.62,32.18,32.18,0,0,1-3.73.41,14.32,14.32,0,0,1-2.6-.18l-0.32-.06a16,16,0,0,0-2.1-.32,18.21,18.21,0,0,0-2.24,0,3.9,3.9,0,0,1-2.66-.78,3,3,0,0,1-.64-0.91,5,5,0,0,1-.51-1.68,7.73,7.73,0,0,0-.51-2,4.49,4.49,0,0,0-1-1.27,6.19,6.19,0,0,0-1.75-.83,62.92,62.92,0,0,0-6.74-.74,52.19,52.19,0,0,0-7.26-.14,19.84,19.84,0,0,0-3.47.93c-1,.4-2.71.95-3.72,1.22a36.49,36.49,0,0,1-3.64.73,3.65,3.65,0,0,0-1.81.76,2.56,2.56,0,0,0-.21,1.6,26.18,26.18,0,0,0,.85,3c0.31,0.86.95,2.35,1.4,3.26a18.4,18.4,0,0,0,1.88,2.92A15.5,15.5,0,0,0,55,142.83a34.12,34.12,0,0,1,2.81,2.29,35.41,35.41,0,0,1,2.53,2.66,17.51,17.51,0,0,0,2.39,2.27,17.91,17.91,0,0,0,2.88,1.67,12.15,12.15,0,0,0,2,.63,9.42,9.42,0,0,0,1.15.2,14.12,14.12,0,0,0,3.42-.2,30.7,30.7,0,0,1,3.93-.49h0.45c1.37,0,4.28.16,7,.38a62.56,62.56,0,0,1,7.4,1,24,24,0,0,1,3.77,1.45,7.7,7.7,0,0,0,3,.73,6.73,6.73,0,0,0,2.75-.9,25.47,25.47,0,0,1,3.38-1.75,22.34,22.34,0,0,1,3.52-1,19.37,19.37,0,0,0,3-.88,16.6,16.6,0,0,0,2.6-1.41c0.68-.47,2.31-1.78,3.56-2.87s3-2.49,3.74-3a30.93,30.93,0,0,1,2.9-1.73,14.11,14.11,0,0,0,2.47-1.7,14.71,14.71,0,0,0,2-2.32c0.5-.77,1.26-2,1.68-2.84s1.06-2.14,1.41-3,1.59-4.59,2.72-8.24a61.72,61.72,0,0,0,2.15-8.43,21.15,21.15,0,0,0-.22-3.66,13.92,13.92,0,0,1,.07-4.25,15.9,15.9,0,0,1,1.59-4.11,8.22,8.22,0,0,0,1-3.13,6,6,0,0,0-.81-2.76A17.29,17.29,0,0,1,135.51,94a13.57,13.57,0,0,1-.56-3.48,27.21,27.21,0,0,1,.26-3.4,32.55,32.55,0,0,1,.78-3.52,14.53,14.53,0,0,0,.49-3.12,12.59,12.59,0,0,0-.38-3,17.5,17.5,0,0,0-1.17-2.89,20.33,20.33,0,0,0-1.85-2.72A19.19,19.19,0,0,1,131,68.69a19,19,0,0,1-1.25-3.55,11.81,11.81,0,0,0-1.15-2.9,11.52,11.52,0,0,0-2-2.33c-0.3-.25-0.74-0.65-1.24-1.12C124.55,58,123.61,57.09,122.85,56.31Z" fill="url(#a)"/><path d="M126,58.06c0.48,0.45.91,0.84,1.19,1.08a12.55,12.55,0,0,1,2.24,2.58,12.86,12.86,0,0,1,1.27,3.2,18.14,18.14,0,0,0,1.17,3.33,18.33,18.33,0,0,0,1.93,3,21.25,21.25,0,0,1,2,2.89,18.49,18.49,0,0,1,1.25,3.09,13.63,13.63,0,0,1,.42,3.25,15.54,15.54,0,0,1-.53,3.39,31.51,31.51,0,0,0-.75,3.39,26.14,26.14,0,0,0-.25,3.25,12.64,12.64,0,0,0,.51,3.18A16.45,16.45,0,0,0,138,96.82a7,7,0,0,1,1,3.32,9.14,9.14,0,0,1-1.13,3.61,15,15,0,0,0-1.48,3.8,13,13,0,0,0-.06,3.89,22,22,0,0,1,.23,3.88,60.91,60.91,0,0,1-2.2,8.68c-1.16,3.72-2.39,7.47-2.75,8.33s-1,2.23-1.45,3.06-1.21,2.14-1.73,2.92a15.67,15.67,0,0,1-2.14,2.52,15.1,15.1,0,0,1-2.69,1.85,29.75,29.75,0,0,0-2.79,1.67c-0.72.5-2.37,1.82-3.66,2.94s-2.93,2.44-3.64,2.93a17.57,17.57,0,0,1-2.79,1.51,20.25,20.25,0,0,1-3.19.94,21.62,21.62,0,0,0-3.34,1,24.35,24.35,0,0,0-3.22,1.66,7.71,7.71,0,0,1-3.26,1.05,8.63,8.63,0,0,1-3.46-.84,22.84,22.84,0,0,0-3.58-1.38,61.89,61.89,0,0,0-7.22-.93c-3-.25-6.26-0.41-7.28-0.37a29.5,29.5,0,0,0-3.78.47,15.21,15.21,0,0,1-3.72.22,10.5,10.5,0,0,1-1.28-.22c0.38,0.37.78,0.8,1.16,1.21s0.53,0.58.73,0.83a18.47,18.47,0,0,0,2.56,2.43,18.93,18.93,0,0,0,3.08,1.79,13.54,13.54,0,0,0,3.46.91,15.21,15.21,0,0,0,3.72-.22,29.5,29.5,0,0,1,3.78-.47c1,0,4.3.12,7.28,0.37a61.89,61.89,0,0,1,7.22.93,22.84,22.84,0,0,1,3.58,1.38,8.63,8.63,0,0,0,3.46.84,7.71,7.71,0,0,0,3.26-1.05,24.35,24.35,0,0,1,3.22-1.66,21.62,21.62,0,0,1,3.34-1,20.25,20.25,0,0,0,3.19-.94,17.57,17.57,0,0,0,2.79-1.51c0.71-.5,2.35-1.82,3.64-2.93s2.94-2.44,3.66-2.94a29.75,29.75,0,0,1,2.79-1.67,15.1,15.1,0,0,0,2.69-1.85,15.67,15.67,0,0,0,2.14-2.52c0.51-.78,1.29-2.1,1.73-2.92s1.09-2.2,1.45-3.06,1.6-4.61,2.75-8.33a60.91,60.91,0,0,0,2.2-8.68,22,22,0,0,0-.23-3.88,13,13,0,0,1,.06-3.89,15,15,0,0,1,1.48-3.8,9.14,9.14,0,0,0,1.13-3.61,7,7,0,0,0-1-3.32,16.45,16.45,0,0,1-1.52-3.17,12.64,12.64,0,0,1-.51-3.18,26.14,26.14,0,0,1,.25-3.25,31.51,31.51,0,0,1,.75-3.39,15.54,15.54,0,0,0,.53-3.39,13.63,13.63,0,0,0-.42-3.25,18.49,18.49,0,0,0-1.25-3.09,21.25,21.25,0,0,0-2-2.89,18.33,18.33,0,0,1-1.93-3,18.14,18.14,0,0,1-1.17-3.33,12.86,12.86,0,0,0-1.27-3.2A12.55,12.55,0,0,0,137,66.08c-0.75-.62-2.4-2.21-3.67-3.52a24.08,24.08,0,0,0-3.68-3.18,10.54,10.54,0,0,0-1.27-.6,12.34,12.34,0,0,0-1.73-.57Z" fill="url(#b)"/><path d="M82.26,133.51a19.3,19.3,0,0,1,2.39,0,17,17,0,0,1,2.26.35l0.27,0a7.51,7.51,0,0,0-1.89-.86,48.18,48.18,0,0,0-5.35-.65,2.17,2.17,0,0,0,.41.62A2.91,2.91,0,0,0,82.26,133.51Z" fill="url(#c)"/><path d="M103.44,122.57a9.84,9.84,0,0,0,2.21-3.56,10.08,10.08,0,0,0,.05-4.22,7.76,7.76,0,0,0-1.46-3.19,2.53,2.53,0,0,0-2.32-.46,17.44,17.44,0,0,0-2.71,1.22,22,22,0,0,0-2.62,1.85,20.06,20.06,0,0,1-2.73,1.87,19.61,19.61,0,0,1-3,1.27c-0.87.27-2.36,0.63-3.3,0.81s-2.53.4-3.54,0.49a27.35,27.35,0,0,1-3.82,0A49.87,49.87,0,0,1,74,117.41c-2-.52-4.4-1.21-5.71-1.65l1.61,1.55a41.68,41.68,0,0,0,3.92,3.46,25,25,0,0,0,3.66,1.75c1.11,0.41,3.91,1.23,6.22,1.83a49.87,49.87,0,0,0,6.19,1.25,27.35,27.35,0,0,0,3.82,0c1-.09,2.6-0.31,3.54-0.49s2.42-.54,3.3-0.81h0a19.09,19.09,0,0,0,2-.76C102.85,123.17,103.16,122.84,103.44,122.57Z" fill="url(#d)"/></svg>