<svg xmlns="http://www.w3.org/2000/svg" xmlns:xlink="http://www.w3.org/1999/xlink" width="76.71" height="200" viewBox="0 0 76.71 200"><defs><linearGradient id="a" x1="29.2" y1="108.21" x2="44.4" y2="74.06" gradientUnits="userSpaceOnUse"><stop offset="0" stop-color="#fdba56"/><stop offset=".02" stop-color="#fbb055"/><stop offset=".06" stop-color="#f79d54"/><stop offset=".1" stop-color="#f59253"/><stop offset=".15" stop-color="#f48e53"/><stop offset=".3" stop-color="#ed5e4e"/><stop offset=".47" stop-color="#683a96" stop-opacity=".5"/><stop offset=".64" stop-color="#ed872b"/><stop offset=".79" stop-color="#7b76b6"/><stop offset=".9" stop-color="#f15f4f"/><stop offset="1" stop-color="#fdba56"/></linearGradient><linearGradient id="c" x1="19.69" y1="180.74" x2="46.01" y2="121.62" xlink:href="#a"/><linearGradient id="b" x1="40.41" y1="86.15" x2="53.72" y2="116.06" gradientUnits="userSpaceOnUse"><stop offset="0" stop-color="#b7151b"/><stop offset=".02" stop-color="#c52229"/><stop offset=".06" stop-color="#d7333c"/><stop offset=".11" stop-color="#e23d47"/><stop offset=".15" stop-color="#e6404b"/><stop offset=".3" stop-color="#e98a7b"/><stop offset=".47" stop-color="#7c78b8"/><stop offset=".64" stop-color="#00b0b0"/><stop offset=".79" stop-color="#7b76b6"/><stop offset="1" stop-color="#e7322f"/></linearGradient><linearGradient id="d" x1="35.65" y1="137.22" x2="55.34" y2="181.44" xlink:href="#b"/><linearGradient id="e" x1="30.28" y1="154.1" x2="33.79" y2="161.98" xlink:href="#b"/></defs><title>_</title><path d="M51.6 79.32a9.18 9.18 0 0 0-1.71-2.41 9.38 9.38 0 0 0-2.56-1.53 17.34 17.34 0 0 0-3.33-.77c-.84-.09-5.79.13-11.57.59a59 59 0 0 0-10 1.41 54.27 54.27 0 0 0-.1 9.75 101.74 101.74 0 0 1 .15 11.91 35.65 35.65 0 0 1-1.13 4.46 4 4 0 0 0-.21 1.91 4.08 4.08 0 0 0 1.94-.2 28.72 28.72 0 0 1 4.58-1c.35 0 .91-.05 1.53-.05h2.1c2.06.06 4.62.2 7 .37 4.7.34 9.39.81 10.69 1.08a4 4 0 0 0 2.48-.2 3.46 3.46 0 0 0 .58-2.23c-.06-1.19-.24-3.07-.4-4.2s-.5-2.91-.75-4a16.58 16.58 0 0 1-.32-4.21 17.59 17.59 0 0 1 1-4.25 12.07 12.07 0 0 0 .7-3.43 7.77 7.77 0 0 0-.27-1.57 7.5 7.5 0 0 0-.4-1.43z" fill="url(#a)"/><path d="M33.36 164.6a3.07 3.07 0 0 1-1.55 1.34 4.86 4.86 0 0 1-2.15.08 1.87 1.87 0 0 0-.91.08 1.94 1.94 0 0 0-.49.78 4.47 4.47 0 0 1-1.18 1.91c-.81.67-3.46.68-4 .68a17.12 17.12 0 0 0-1.75.09v.07a6.87 6.87 0 0 1 1 2.09 5.17 5.17 0 0 1-.06 2.18 15.1 15.1 0 0 0-.32 1.55 14.14 14.14 0 0 0-.12 1.54 9.55 9.55 0 0 1-.29 2 14.4 14.4 0 0 1-.8 2.12v.08a7.94 7.94 0 0 0 2 0 24.69 24.69 0 0 0 3.54-.83 20.28 20.28 0 0 0 3.08-1.39 13.9 13.9 0 0 1 1.41-.7 15 15 0 0 1 2-.72 15.75 15.75 0 0 1 3.57-.41 4.49 4.49 0 0 0 2.28-.57 5.21 5.21 0 0 0 1.38-1.95 11.24 11.24 0 0 1 2-3 10.37 10.37 0 0 1 2.93-2 8.06 8.06 0 0 0 2.19-1.43 7.09 7.09 0 0 0 1.3-2.1c.27-.75.66-2.08.86-2.91s.47-2.29.59-3.19.13-5.71 0-11.55l-.16-6.92c-.11-4.6-.09-9.17 0-11.12a8.36 8.36 0 0 1 .09-.88 28.78 28.78 0 0 1 1.1-3.87 2.77 2.77 0 0 0 .12-1.82 4.24 4.24 0 0 0-2.18-.4c-1.19.07-4.07.46-6.3.86a39.11 39.11 0 0 1-6.43.67 20.18 20.18 0 0 1-4.33-.77 15.57 15.57 0 0 0-3.64-.61 11.65 11.65 0 0 0-3.29.53 7.91 7.91 0 0 0-2.48 1.5 7.15 7.15 0 0 0-1.4 2.4 19.83 19.83 0 0 0-.64 3.3c-.08.85 0 5.71.27 11.57a100.55 100.55 0 0 0 .81 10.6 1.07 1.07 0 0 0 .52.49 9.36 9.36 0 0 0 1.57 0 10.89 10.89 0 0 0 1.65-.35 11.85 11.85 0 0 1 2.07-.41 15.48 15.48 0 0 1 2.46.18c.48.06 1 .14 1.49.23 3.19.56 3.48 1 3.64 1.25a1.67 1.67 0 0 1-.39 2.06.72.72 0 0 0-.11.34 3.69 3.69 0 0 0 .51 1.12 5 5 0 0 1 .82 2.1 2.81 2.81 0 0 1-.66 1.88l-.08.09a10.93 10.93 0 0 0-.86 1 10.5 10.5 0 0 0-.68 1.14z" fill="url(#c)"/><path d="M53 80.54a8.76 8.76 0 0 1 .21 1.78 13.1 13.1 0 0 1-.77 3.78 16.74 16.74 0 0 0-.9 4 15.7 15.7 0 0 0 .34 4c.26 1.09.61 2.92.77 4.07s.35 3.08.41 4.29a4.19 4.19 0 0 1-1 3.06 4.7 4.7 0 0 1-3.31.4c-1.24-.26-6-.73-10.55-1.06-2.48-.18-5-.31-7-.36 0 .27 0 .48-.06.63s0 .24-.07.37a35.57 35.57 0 0 1-1 3.94c-.41 1.21-.4 2.54 0 3s1.75.42 3 0a27.38 27.38 0 0 1 4.38-1 99.07 99.07 0 0 1 10.45.35c4.57.33 9.32.81 10.55 1.06a4.7 4.7 0 0 0 3.31-.4 4.19 4.19 0 0 0 1-3.06c-.06-1.21-.25-3.14-.41-4.29s-.51-3-.77-4.07a15.7 15.7 0 0 1-.34-4 16.74 16.74 0 0 1 .9-4 13.1 13.1 0 0 0 .77-3.78 9.71 9.71 0 0 0-.72-3.41 10.09 10.09 0 0 0-1.94-2.73 10.29 10.29 0 0 0-2.89-1.73 18.49 18.49 0 0 0-3.36-.8h-.19c-.12-.04-.42-.04-.81-.04z" fill="url(#b)"/><path d="M50.68 141.55l.16 6.92c.13 5.5.12 10.77 0 11.71s-.4 2.42-.61 3.28-.61 2.22-.89 3a8.05 8.05 0 0 1-1.53 2.47 9 9 0 0 1-2.52 1.65 9.36 9.36 0 0 0-2.6 1.73 10.25 10.25 0 0 0-1.76 2.69 6.13 6.13 0 0 1-1.85 2.36 5.84 5.84 0 0 1-2.86.73 14 14 0 0 0-3.28.38 13.64 13.64 0 0 0-1.82.67 4.61 4.61 0 0 1 0 1.11 2.57 2.57 0 0 1-.06.31 16 16 0 0 0-.35 1.67 15.17 15.17 0 0 0-.13 1.67 8.51 8.51 0 0 1-.25 1.76 13.43 13.43 0 0 1-.74 1.94 1 1 0 0 0 .25 1.38 6.36 6.36 0 0 0 2.71.08 25.5 25.5 0 0 0 3.72-.87 21.16 21.16 0 0 0 3.27-1.48 15.16 15.16 0 0 1 3.13-1.32 14 14 0 0 1 3.28-.38 5.84 5.84 0 0 0 2.86-.73 6.13 6.13 0 0 0 1.83-2.28 10.25 10.25 0 0 1 1.76-2.69 9.36 9.36 0 0 1 2.6-1.73 9 9 0 0 0 2.52-1.65 8.05 8.05 0 0 0 1.48-2.51c.28-.79.68-2.15.89-3s.48-2.34.61-3.28.13-6.21 0-11.71l-.16-6.92c-.13-5.5-.08-10.81.11-11.79a27.63 27.63 0 0 1 1.11-3.72 3.29 3.29 0 0 0-.05-2.81 4.36 4.36 0 0 0-3-.76c-1.23.07-4.12.47-6.42.88l-.34.06-1 .16c-.15 1.86-.17 6.36-.07 11.02z" fill="url(#d)"/><path d="M34.2 161.8a1.82 1.82 0 0 0 .45-1.19A4.1 4.1 0 0 0 34 159a4.37 4.37 0 0 1-.68-1.58 1.6 1.6 0 0 1 .4-1.15.74.74 0 0 0 .26-.8 9.84 9.84 0 0 0-3-.82c-.48-.09-1-.16-1.45-.22 0 .35 0 .69.07 1a38.16 38.16 0 0 0 .57 5.37 1.94 1.94 0 0 0 1.33 1.13 9.74 9.74 0 0 0 1.19 0h.6c.26-.01.58-.06.91-.13z" fill="url(#e)"/></svg>