<svg xmlns="http://www.w3.org/2000/svg" xmlns:xlink="http://www.w3.org/1999/xlink" width="200" height="200" viewBox="0 0 200 200"><defs><linearGradient id="a" x1="84.82" y1="118.42" x2="103.06" y2="77.46" gradientUnits="userSpaceOnUse"><stop offset="0" stop-color="#fdba56"/><stop offset="0.02" stop-color="#fbb055"/><stop offset="0.06" stop-color="#f79d54"/><stop offset="0.1" stop-color="#f59253"/><stop offset="0.15" stop-color="#f48e53"/><stop offset="0.3" stop-color="#ed5e4e"/><stop offset="0.47" stop-color="#683a96" stop-opacity="0.5"/><stop offset="0.64" stop-color="#ed872b"/><stop offset="0.79" stop-color="#7b76b6"/><stop offset="0.9" stop-color="#f15f4f"/><stop offset="1" stop-color="#fdba56"/></linearGradient><linearGradient id="b" x1="84.84" y1="148.62" x2="103.07" y2="107.68" xlink:href="#a"/><linearGradient id="c" x1="98.9" y1="92.44" x2="113.69" y2="125.65" gradientUnits="userSpaceOnUse"><stop offset="0" stop-color="#b7151b"/><stop offset="0.02" stop-color="#c52229"/><stop offset="0.06" stop-color="#d7333c"/><stop offset="0.11" stop-color="#e23d47"/><stop offset="0.15" stop-color="#e6404b"/><stop offset="0.3" stop-color="#e98a7b"/><stop offset="0.47" stop-color="#7c78b8"/><stop offset="0.64" stop-color="#00b0b0"/><stop offset="0.79" stop-color="#7b76b6"/><stop offset="1" stop-color="#e7322f"/></linearGradient><linearGradient id="d" x1="98.9" y1="122.65" x2="113.69" y2="155.88" xlink:href="#c"/></defs><title>_</title><path d="M132.55,90.59a22.16,22.16,0,0,0-5.48-.46,62,62,0,0,0-6.55.32,28.49,28.49,0,0,0-3.1.79,14.9,14.9,0,0,1-3.51.63,14.15,14.15,0,0,1-3.52-.4c-0.85-.22-2.29-0.53-3.14-0.66s-3.76-.36-6.36-0.5a45.44,45.44,0,0,0-6.25,0,20,20,0,0,0-3,.84,26.21,26.21,0,0,1-3.39,1,24,24,0,0,1-3.4.4c-1,0-6.77-.44-11.7-0.92L66.6,91a63.15,63.15,0,0,0-10-.42,1.84,1.84,0,0,0-.13,1,13.75,13.75,0,0,1,.18,2.87A10.92,10.92,0,0,1,56,97.13a10.24,10.24,0,0,0-.49,2,20.86,20.86,0,0,0,.51,4,8.19,8.19,0,0,0,1.12,3,5.49,5.49,0,0,0,1.86.26,31.42,31.42,0,0,1,3.24.12c0.6,0.06,1.45.18,2.29,0.33l1,0.19a22.89,22.89,0,0,0,3.07.4,22.29,22.29,0,0,0,3.06-.12c0.93-.12,4.53-0.25,8.19-0.31l3.53,0c2.11,0,4,0,4.67.1,0.92,0.09,2.42.33,3.34,0.53a28.42,28.42,0,0,0,3.1.46,26.83,26.83,0,0,0,3.1,0c0.85-.05,3.77-0.46,6.37-0.88a74,74,0,0,1,9.86-.81c2.65,0,6.92-.21,9.51-0.46a59.17,59.17,0,0,1,6.33-.36,5.56,5.56,0,0,0,1.52-.11,21.83,21.83,0,0,0,1.25-4.82c0.27-1.61.54-3.35,0.7-4.64s0.17-1.51.17-1.59c0-.64,0-1.77-0.12-2.48A2.35,2.35,0,0,0,132.55,90.59Z" fill="url(#a)"/><path d="M132.53,120.8a21.14,21.14,0,0,0-5.46-.46,63.8,63.8,0,0,0-6.55.31,29.69,29.69,0,0,0-3.1.76,15.34,15.34,0,0,1-3.5.61,14.85,14.85,0,0,1-3.51-.38c-0.85-.21-2.29-0.51-3.14-0.64s-3.77-.35-6.36-0.48a47.06,47.06,0,0,0-6.26,0,20.22,20.22,0,0,0-3,.81,27.5,27.5,0,0,1-3.39,1,24.74,24.74,0,0,1-3.4.39c-1,0-6.77-.42-11.7-0.89l-6.48-.61a62.72,62.72,0,0,0-10-.4,1.81,1.81,0,0,0-.14,1,14,14,0,0,1,.18,2.86,11.22,11.22,0,0,1-.55,2.64,10.56,10.56,0,0,0-.48,2,21.63,21.63,0,0,0,.49,4,8.62,8.62,0,0,0,1.07,3,5.29,5.29,0,0,0,1.88.29c0.89,0,2.34,0,3.24.11,0.6,0.05,1.47.17,2.32,0.32l1,0.18a23.35,23.35,0,0,0,3.08.39,23.09,23.09,0,0,0,3.07-.12c0.93-.11,4.53-0.24,8.19-0.3l3.51,0c2.12,0,4,0,4.69.1,0.91,0.09,2.41.32,3.34,0.51a23.28,23.28,0,0,0,6.2.47c0.85-.05,3.77-0.44,6.37-0.85a76.13,76.13,0,0,1,9.86-.79c2.64,0,6.91-.2,9.51-0.44a61.86,61.86,0,0,1,6.34-.34,5.62,5.62,0,0,0,1.53-.12,21.82,21.82,0,0,0,1.22-4.84c0.26-1.61.52-3.33,0.68-4.62s0.17-1.54.17-1.62c0-.64,0-1.77-0.12-2.47A2.32,2.32,0,0,0,132.53,120.8Z" fill="url(#b)"/><path d="M133.48,100.8c-0.48,2.83-1.22,5.31-1.64,5.51a5.43,5.43,0,0,1-2.19.26,59.29,59.29,0,0,0-6.17.35c-2.61.25-6.93,0.46-9.6,0.46a72.82,72.82,0,0,0-9.7.8c-2.67.44-5.58,0.84-6.47,0.89a28.2,28.2,0,0,1-3.23,0,29.15,29.15,0,0,1-3.23-.48c-0.89-.19-2.34-0.42-3.23-0.51s-4.53-.12-8.09-0.07-7.2.19-8.09,0.3a23.1,23.1,0,0,1-3.23.13,23.7,23.7,0,0,1-3.23-.42l-1-.19c0,0.33.1,0.68,0.15,1s0.16,0.93.25,1.39c0.36,1.74,1.05,3.39,1.55,3.65a6,6,0,0,0,2.43.44,30.36,30.36,0,0,1,3.11.11c0.87,0.08,2.3.31,3.19,0.5a23.7,23.7,0,0,0,3.23.42,23.1,23.1,0,0,0,3.23-.13c0.89-.11,4.53-0.25,8.09-0.3s7.2,0,8.09.07,2.34,0.32,3.23.51a29.15,29.15,0,0,0,3.23.48,28.2,28.2,0,0,0,3.23,0c0.89-.05,3.8-0.46,6.47-0.89a72.82,72.82,0,0,1,9.7-.8c2.67,0,7-.21,9.6-0.46a59.29,59.29,0,0,1,6.17-.35,5.43,5.43,0,0,0,2.19-.26c0.43-.2,1.16-2.68,1.64-5.51s0.88-5.7.89-6.38,0-1.85-.13-2.6a3.27,3.27,0,0,0-1.11-2c-0.53-.38-3.26-0.67-6.07-0.65l-1.57,0-1,0C134,97.37,133.77,99.09,133.48,100.8Z" fill="url(#c)"/><path d="M133.47,131c-0.46,2.84-1.19,5.32-1.62,5.53a5.42,5.42,0,0,1-2.2.27,61.35,61.35,0,0,0-6.18.34c-2.61.24-6.94,0.44-9.6,0.45a75.13,75.13,0,0,0-9.7.77c-2.67.42-5.58,0.81-6.47,0.87a29.06,29.06,0,0,1-3.23,0,30,30,0,0,1-3.23-.46c-0.89-.19-2.34-0.41-3.23-0.5s-4.53-.12-8.09-0.07-7.2.18-8.09,0.29a23.91,23.91,0,0,1-3.23.13,24.45,24.45,0,0,1-3.23-.41L64.42,138c0,0.33.09,0.68,0.15,1s0.15,0.93.24,1.39c0.35,1.75,1,3.39,1.52,3.66a5.93,5.93,0,0,0,2.43.44c0.85,0,2.25,0,3.12.11s2.31,0.3,3.2.49a24.45,24.45,0,0,0,3.23.41,23.91,23.91,0,0,0,3.23-.12c0.89-.11,4.53-0.24,8.09-0.29s7.2,0,8.09.07,2.34,0.31,3.23.5a30,30,0,0,0,3.23.46,29.06,29.06,0,0,0,3.23,0c0.89-.05,3.8-0.44,6.47-0.87a75.13,75.13,0,0,1,9.7-.77c2.67,0,7-.2,9.6-0.45a61.35,61.35,0,0,1,6.18-.34,5.42,5.42,0,0,0,2.2-.27c0.43-.2,1.15-2.69,1.62-5.53s0.85-5.71.86-6.39,0-1.84-.12-2.58a3.24,3.24,0,0,0-1.1-2c-0.53-.38-3.25-0.67-6.05-0.65l-1.6,0-1,0C134,127.59,133.75,129.3,133.47,131Z" fill="url(#d)"/></svg>