<svg xmlns="http://www.w3.org/2000/svg" xmlns:xlink="http://www.w3.org/1999/xlink" width="122.81" height="200" viewBox="0 0 122.81 200"><defs><linearGradient id="a" x1="45.12" y1="119.8" x2="63.36" y2="78.83" gradientUnits="userSpaceOnUse"><stop offset="0" stop-color="#fdba56"/><stop offset=".02" stop-color="#fbb055"/><stop offset=".06" stop-color="#f79d54"/><stop offset=".1" stop-color="#f59253"/><stop offset=".15" stop-color="#f48e53"/><stop offset=".3" stop-color="#ed5e4e"/><stop offset=".47" stop-color="#683a96" stop-opacity=".5"/><stop offset=".64" stop-color="#ed872b"/><stop offset=".79" stop-color="#7b76b6"/><stop offset=".9" stop-color="#f15f4f"/><stop offset="1" stop-color="#fdba56"/></linearGradient><linearGradient id="c" x1="45.14" y1="150" x2="63.37" y2="109.06" xlink:href="#a"/><linearGradient id="b" x1="59.2" y1="93.82" x2="73.99" y2="127.03" gradientUnits="userSpaceOnUse"><stop offset="0" stop-color="#b7151b"/><stop offset=".02" stop-color="#c52229"/><stop offset=".06" stop-color="#d7333c"/><stop offset=".11" stop-color="#e23d47"/><stop offset=".15" stop-color="#e6404b"/><stop offset=".3" stop-color="#e98a7b"/><stop offset=".47" stop-color="#7c78b8"/><stop offset=".64" stop-color="#00b0b0"/><stop offset=".79" stop-color="#7b76b6"/><stop offset="1" stop-color="#e7322f"/></linearGradient><linearGradient id="d" x1="59.19" y1="124.03" x2="73.99" y2="157.26" xlink:href="#b"/></defs><title>_</title><path d="M92.85 92a22.16 22.16 0 0 0-5.48-.46 62 62 0 0 0-6.55.32 28.49 28.49 0 0 0-3.1.79 14.9 14.9 0 0 1-3.51.63 14.15 14.15 0 0 1-3.52-.4c-.85-.22-2.29-.53-3.14-.66s-3.76-.36-6.36-.5a45.44 45.44 0 0 0-6.25 0 20 20 0 0 0-3 .84 26.21 26.21 0 0 1-3.39 1 24 24 0 0 1-3.4.4c-1 0-6.77-.44-11.7-.92l-6.51-.63a63.15 63.15 0 0 0-10-.42 1.84 1.84 0 0 0-.13 1 13.75 13.75 0 0 1 .18 2.87 10.92 10.92 0 0 1-.57 2.65 10.24 10.24 0 0 0-.49 2 20.86 20.86 0 0 0 .51 4 8.19 8.19 0 0 0 1.12 3 5.49 5.49 0 0 0 1.86.26 31.42 31.42 0 0 1 3.24.12c.6.06 1.45.18 2.29.33l1 .19a22.89 22.89 0 0 0 3.07.4 22.29 22.29 0 0 0 3.06-.12c.93-.12 4.53-.25 8.19-.31h3.53c2.11 0 4 0 4.67.1.92.09 2.42.33 3.34.53a28.42 28.42 0 0 0 3.1.46 26.83 26.83 0 0 0 3.1 0c.85-.05 3.77-.46 6.37-.88a74 74 0 0 1 9.86-.81c2.65 0 6.92-.21 9.51-.46a59.17 59.17 0 0 1 6.33-.36 5.56 5.56 0 0 0 1.52-.11 21.83 21.83 0 0 0 1.19-4.85c.27-1.61.54-3.35.7-4.64s.17-1.51.17-1.59c0-.64 0-1.77-.12-2.48a2.35 2.35 0 0 0-.69-1.29z" fill="url(#a)"/><path d="M92.83 122.18a21.14 21.14 0 0 0-5.46-.46 63.8 63.8 0 0 0-6.55.31 29.69 29.69 0 0 0-3.1.76 15.34 15.34 0 0 1-3.5.61 14.85 14.85 0 0 1-3.52-.4c-.85-.21-2.29-.51-3.14-.64s-3.77-.35-6.36-.48a47.06 47.06 0 0 0-6.26 0 20.22 20.22 0 0 0-3 .81 27.5 27.5 0 0 1-3.39 1 24.74 24.74 0 0 1-3.4.39c-1 0-6.77-.42-11.7-.89l-6.48-.61a62.72 62.72 0 0 0-10-.4 1.81 1.81 0 0 0-.14 1 14 14 0 0 1 .18 2.86 11.22 11.22 0 0 1-.55 2.64 10.56 10.56 0 0 0-.48 2 21.63 21.63 0 0 0 .49 4 8.62 8.62 0 0 0 1.07 3 5.29 5.29 0 0 0 1.88.29c.89 0 2.34 0 3.24.11.6.05 1.47.17 2.32.32l1 .18a23.35 23.35 0 0 0 3.08.39 23.09 23.09 0 0 0 3.07-.12c.93-.11 4.53-.24 8.19-.3h3.51c2.12 0 4 0 4.69.1.91.09 2.41.32 3.34.51a29.32 29.32 0 0 0 3.1.44 29.31 29.31 0 0 0 3.1 0c.85-.05 3.77-.44 6.37-.85a76.13 76.13 0 0 1 9.86-.79c2.64 0 6.91-.2 9.51-.44a61.86 61.86 0 0 1 6.34-.34 5.62 5.62 0 0 0 1.53-.12 21.82 21.82 0 0 0 1.22-4.84c.26-1.61.52-3.33.68-4.62s.17-1.54.17-1.62c0-.64 0-1.77-.12-2.47a2.32 2.32 0 0 0-.79-1.33z" fill="url(#c)"/><path d="M93.78 102.18c-.48 2.83-1.22 5.31-1.64 5.51a5.43 5.43 0 0 1-2.19.26 59.29 59.29 0 0 0-6.17.35c-2.61.25-6.93.46-9.6.46a72.82 72.82 0 0 0-9.7.8c-2.67.44-5.58.84-6.47.89a28.2 28.2 0 0 1-3.23 0 29.15 29.15 0 0 1-3.23-.48c-.89-.19-2.34-.42-3.23-.51s-4.53-.12-8.09-.07-7.2.19-8.09.3a23.1 23.1 0 0 1-3.23.13 23.7 23.7 0 0 1-3.23-.42l-1-.19c0 .33.1.68.15 1s.16.93.25 1.39c.36 1.74 1.05 3.39 1.55 3.65a6 6 0 0 0 2.43.44 30.36 30.36 0 0 1 3.11.11c.87.08 2.3.31 3.19.5a23.7 23.7 0 0 0 3.23.42 23.1 23.1 0 0 0 3.23-.13c.89-.11 4.53-.25 8.09-.3s7.2 0 8.09.07 2.34.32 3.23.51a29.15 29.15 0 0 0 3.23.48 28.2 28.2 0 0 0 3.23 0c.89-.05 3.8-.46 6.47-.89a72.82 72.82 0 0 1 9.7-.8c2.67 0 7-.21 9.6-.46a59.29 59.29 0 0 1 6.17-.35 5.43 5.43 0 0 0 2.19-.26c.43-.2 1.16-2.68 1.64-5.51s.88-5.7.89-6.38 0-1.85-.13-2.6a3.27 3.27 0 0 0-1.11-2c-.53-.38-3.26-.67-6.07-.65h-2.57c-.14 1.3-.4 3.02-.69 4.73z" fill="url(#b)"/><path d="M93.77 132.38c-.46 2.84-1.19 5.32-1.62 5.53a5.42 5.42 0 0 1-2.2.27 61.35 61.35 0 0 0-6.18.34c-2.61.24-6.94.44-9.6.45a75.13 75.13 0 0 0-9.7.77c-2.67.42-5.58.81-6.47.87a29.06 29.06 0 0 1-3.23 0 30 30 0 0 1-3.23-.46c-.89-.19-2.34-.41-3.23-.5s-4.53-.12-8.09-.07-7.2.18-8.09.29a23.91 23.91 0 0 1-3.23.13 24.45 24.45 0 0 1-3.23-.41l-.95-.17c0 .33.09.68.15 1s.15.93.24 1.39c.35 1.75 1 3.39 1.52 3.66a5.93 5.93 0 0 0 2.43.44c.85 0 2.25 0 3.12.11s2.31.3 3.2.49a24.45 24.45 0 0 0 3.23.41 23.91 23.91 0 0 0 3.23-.12c.89-.11 4.53-.24 8.09-.29s7.2 0 8.09.07 2.34.31 3.23.5a30 30 0 0 0 3.23.46 29.06 29.06 0 0 0 3.23 0c.89-.05 3.8-.44 6.47-.87a75.13 75.13 0 0 1 9.7-.77c2.67 0 7-.2 9.6-.45a61.35 61.35 0 0 1 6.18-.34 5.42 5.42 0 0 0 2.2-.27c.43-.2 1.15-2.69 1.62-5.53s.85-5.71.86-6.39 0-1.84-.12-2.58a3.24 3.24 0 0 0-1.1-2c-.53-.38-3.25-.67-6.05-.65h-2.6c-.17 1.31-.47 2.98-.7 4.69z" fill="url(#d)"/></svg>