<svg xmlns="http://www.w3.org/2000/svg" xmlns:xlink="http://www.w3.org/1999/xlink" width="200" height="200" viewBox="0 0 200 200"><defs><linearGradient id="a" x1="75.21" y1="153.63" x2="123.06" y2="46.16" gradientUnits="userSpaceOnUse"><stop offset="0" stop-color="#fdba56"/><stop offset="0.02" stop-color="#fbb055"/><stop offset="0.06" stop-color="#f79d54"/><stop offset="0.1" stop-color="#f59253"/><stop offset="0.15" stop-color="#f48e53"/><stop offset="0.3" stop-color="#ed5e4e"/><stop offset="0.47" stop-color="#683a96" stop-opacity="0.5"/><stop offset="0.64" stop-color="#ed872b"/><stop offset="0.79" stop-color="#7b76b6"/><stop offset="0.9" stop-color="#f15f4f"/><stop offset="1" stop-color="#fdba56"/></linearGradient><linearGradient id="b" x1="99.32" y1="41.38" x2="114.78" y2="6.65" xlink:href="#a"/><linearGradient id="c" x1="95.51" y1="78.69" x2="132.58" y2="161.95" gradientUnits="userSpaceOnUse"><stop offset="0" stop-color="#b7151b"/><stop offset="0.02" stop-color="#c52229"/><stop offset="0.06" stop-color="#d7333c"/><stop offset="0.11" stop-color="#e23d47"/><stop offset="0.15" stop-color="#e6404b"/><stop offset="0.3" stop-color="#e98a7b"/><stop offset="0.47" stop-color="#7c78b8"/><stop offset="0.64" stop-color="#00b0b0"/><stop offset="0.79" stop-color="#7b76b6"/><stop offset="1" stop-color="#e7322f"/></linearGradient><linearGradient id="d" x1="128.69" y1="48.81" x2="130.62" y2="53.16" xlink:href="#c"/><linearGradient id="e" x1="114.07" y1="23.12" x2="120.02" y2="36.49" xlink:href="#c"/></defs><title>_</title><path d="M87.19,44.4a26.12,26.12,0,0,1-3.84,2.25,21.09,21.09,0,0,1-4,1.27,31.84,31.84,0,0,0-3.52.92,27.08,27.08,0,0,0-3.16,1.36c-0.89.47-2.39,1.16-3.35,1.53s-2.57.91-3.59,1.18a16.77,16.77,0,0,0-3.14,1.27,16.09,16.09,0,0,0-2.68,2,20,20,0,0,0-2.2,2.59,20.71,20.71,0,0,0-1.63,3,11.46,11.46,0,0,1-2.31,3.35,14.45,14.45,0,0,1-3.67,2.33,8.46,8.46,0,0,0-2.73,1.95,6.72,6.72,0,0,0-1.12,2.83,17.69,17.69,0,0,1-1.06,4.05,20.73,20.73,0,0,1-2.2,3.8,12.62,12.62,0,0,0-1.71,3.35,12.15,12.15,0,0,0-.33,3.69,31.35,31.35,0,0,1,0,4.37,30.29,30.29,0,0,1-.71,4.27A11.63,11.63,0,0,0,40,99.25a9.31,9.31,0,0,0,1,3,15.39,15.39,0,0,1,1.46,3.43,12.82,12.82,0,0,1,.31,3.53,27.74,27.74,0,0,0,0,3.07,27.44,27.44,0,0,0,.38,3,18,18,0,0,0,.86,2.84,18.63,18.63,0,0,0,1.43,2.66,13.8,13.8,0,0,1,1.52,3.33,18.31,18.31,0,0,1,.55,3.93,21.13,21.13,0,0,0,.45,3.65,19.78,19.78,0,0,0,1.2,3.38,32.44,32.44,0,0,0,1.83,3.18,32.79,32.79,0,0,0,2.26,2.9,16.33,16.33,0,0,0,2.66,2.29A17,17,0,0,0,59.08,145c0.48,0.16,1.07.38,1.66,0.61,0.77,0.3,1.5.61,2,.85,1,0.46,3.81,2.12,6.35,3.72a56.34,56.34,0,0,0,6.15,3.46,28.81,28.81,0,0,0,3.57,1c1.11,0.23,3.78,1,5.95,1.72a42,42,0,0,0,5.67,1.48,20.31,20.31,0,0,0,3.79,0c0.37,0,1-.05,1.83-0.05,2.14,0,5.51.11,8.38,0.26,4.83,0.26,8.74,0,9.41-.22a10.63,10.63,0,0,0,3-2.09,17,17,0,0,1,3.53-2.73,13.06,13.06,0,0,1,3.94-1.26,8.61,8.61,0,0,0,2.92-1,9.36,9.36,0,0,0,2.25-2.28,34,34,0,0,1,2.36-3.13,27.76,27.76,0,0,1,2.64-2.58c0.75-.62,3.43-2.55,6-4.3s5.17-3.68,5.93-4.36,2-1.88,2.71-2.65,1.83-2.08,2.48-2.92a9.1,9.1,0,0,0,1.41-2.89,8.56,8.56,0,0,0-.06-3.13,11.94,11.94,0,0,1-.21-3.9,10.12,10.12,0,0,1,1.37-3.48,10.35,10.35,0,0,0,1.19-2.65,9.75,9.75,0,0,0,.14-2.84,15.66,15.66,0,0,1,.68-6.94,9.31,9.31,0,0,0,.36-2.9,11.86,11.86,0,0,0-.81-3.14A29.06,29.06,0,0,1,154.42,93a26,26,0,0,1-.59-3.75,16.76,16.76,0,0,0-.61-3.24,17.41,17.41,0,0,0-1.39-3,15.18,15.18,0,0,1-1.5-3.61,16.74,16.74,0,0,1-.37-4,18,18,0,0,0-.24-3.52,16.25,16.25,0,0,0-1.07-3.22A11.44,11.44,0,0,0,146.77,66,13.1,13.1,0,0,0,144,64.05a11.71,11.71,0,0,1-3.33-2.59,13.3,13.3,0,0,1-2-3.84,6.82,6.82,0,0,0-1.7-2.7,6.88,6.88,0,0,0-3-1.15,14.54,14.54,0,0,1-1.91-.36,11.16,11.16,0,0,1-5.66-3.18c-0.75-.78-2-1.92-2.7-2.56s-2-1.61-2.75-2.14a20.16,20.16,0,0,0-2.82-1.59,19.32,19.32,0,0,0-3-1,9.7,9.7,0,0,0-3-.06A13.09,13.09,0,0,0,108.82,44a8.57,8.57,0,0,1-4,.94A8.45,8.45,0,0,1,101,43.46a7.75,7.75,0,0,0-.69-0.46,11.3,11.3,0,0,0-2.39-1.09,12,12,0,0,0-3.52-.3l-0.53.07a17.13,17.13,0,0,0-3.17.79A18.94,18.94,0,0,0,87.19,44.4Z" fill="url(#a)"/><path d="M129.51,13.21a8.37,8.37,0,0,0-1.39.13,31.55,31.55,0,0,1-5.27.4,20.91,20.91,0,0,1-4.63-.74,19,19,0,0,0-3.78-.68,18.35,18.35,0,0,0-3.77.29,25.93,25.93,0,0,1-4.31.43,28.65,28.65,0,0,1-4.45-.45,5.91,5.91,0,0,0-1.1-.1,4.74,4.74,0,0,0-1.84.3,4.16,4.16,0,0,0-1.56,2,20.67,20.67,0,0,1-1.72,3.59,17.94,17.94,0,0,1-2.43,2.95,20.45,20.45,0,0,0-2.17,2.48,19.79,19.79,0,0,0-1.61,2.83,32.2,32.2,0,0,1-1.7,3.22,33.89,33.89,0,0,1-2.16,3,3.48,3.48,0,0,0-.79,1.65,2.1,2.1,0,0,0,1,.86,4.9,4.9,0,0,0,2.24.32,6,6,0,0,0,2.22-1.12A8.25,8.25,0,0,1,93.34,33a6.21,6.21,0,0,1,3.23.33,5.51,5.51,0,0,0,1.16.31,4.08,4.08,0,0,0,.84.06,21.18,21.18,0,0,0,4.36-3c2.09-1.74,4.6-3.69,5.59-4.35S113,23.73,116.34,22s6.83-3.72,7.92-4.48,3-2.22,4.15-3.21A9.35,9.35,0,0,0,129.51,13.21Z" fill="url(#b)"/><path d="M166.31,103.28a27.83,27.83,0,0,1-1.21-3.56,24.83,24.83,0,0,1-.56-3.58,17.68,17.68,0,0,0-.65-3.48,18.26,18.26,0,0,0-1.49-3.25A14.27,14.27,0,0,1,161,86.08a15.81,15.81,0,0,1-.34-3.72,19,19,0,0,0-.26-3.76,17.22,17.22,0,0,0-1.15-3.46,12.44,12.44,0,0,0-2.09-2.92,14.11,14.11,0,0,0-3.08-2.13,10.75,10.75,0,0,1-3-2.33,12.17,12.17,0,0,1-1.84-3.5,7.77,7.77,0,0,0-2-3.18,7.85,7.85,0,0,0-3.52-1.37,14.26,14.26,0,0,1-2.18-.46,13.42,13.42,0,0,1-1.38-.46,10.84,10.84,0,0,0,1.23,2,10.75,10.75,0,0,0,3,2.33,14.11,14.11,0,0,1,3.08,2.13,12.44,12.44,0,0,1,2.09,2.92,17.22,17.22,0,0,1,1.15,3.46,19,19,0,0,1,.26,3.76,15.81,15.81,0,0,0,.34,3.72,14.27,14.27,0,0,0,1.38,3.33,18.26,18.26,0,0,1,1.49,3.25,17.68,17.68,0,0,1,.65,3.48,24.83,24.83,0,0,0,.56,3.58,27.83,27.83,0,0,0,1.21,3.56,12.92,12.92,0,0,1,.89,3.47,10.24,10.24,0,0,1-.41,3.29,18,18,0,0,0-.68,3.22,17.81,17.81,0,0,0,.05,3.28,10.62,10.62,0,0,1-.16,3.2,11.18,11.18,0,0,1-1.33,3,9.15,9.15,0,0,0-1.21,3.08,11,11,0,0,0,.19,3.51,9.49,9.49,0,0,1,.06,3.58,10,10,0,0,1-1.59,3.28c-0.67.86-1.81,2.21-2.54,3s-2,2-2.78,2.72-3.51,2.71-6,4.44-5.18,3.64-5.91,4.24a26.58,26.58,0,0,0-2.52,2.46,32.58,32.58,0,0,0-2.27,3,10.26,10.26,0,0,1-2.55,2.58,9.55,9.55,0,0,1-3.34,1.16,12.13,12.13,0,0,0-3.59,1.15,16.2,16.2,0,0,0-3.28,2.54,11.49,11.49,0,0,1-3.37,2.33c-1,.39-5.42.52-9.83,0.28s-8.94-.33-10.06-0.21a21.31,21.31,0,0,1-4,0,42.48,42.48,0,0,1-5.86-1.53c-2.13-.7-4.76-1.46-5.84-1.69a29.38,29.38,0,0,1-3.72-1.1A57.13,57.13,0,0,1,68.56,151c-2.51-1.58-5.32-3.22-6.24-3.66-0.51-.24-1.23-0.55-1.95-0.83,0.39,0.53.84,1.11,1.26,1.61l0.53,0.62A17.31,17.31,0,0,0,65,151.24a18.05,18.05,0,0,0,3.45,1.65c1,0.34,2.63,1,3.56,1.42s3.74,2.09,6.24,3.66a57.13,57.13,0,0,0,6.32,3.54,29.38,29.38,0,0,0,3.72,1.1c1.08,0.23,3.71,1,5.84,1.69a42.48,42.48,0,0,0,5.86,1.53,21.32,21.32,0,0,0,4,0c1.12-.11,5.65,0,10.06.21s8.83,0.1,9.83-.28a11.49,11.49,0,0,0,3.37-2.33,16.2,16.2,0,0,1,3.28-2.54,12.13,12.13,0,0,1,3.59-1.15,9.55,9.55,0,0,0,3.34-1.16,10.26,10.26,0,0,0,2.55-2.58,32.58,32.58,0,0,1,2.27-3,26.58,26.58,0,0,1,2.52-2.46c0.73-.6,3.39-2.51,5.91-4.24s5.24-3.73,6-4.44,2-1.93,2.78-2.72,1.87-2.13,2.54-3a10,10,0,0,0,1.59-3.28,9.49,9.49,0,0,0-.06-3.58,11,11,0,0,1-.19-3.51,9.15,9.15,0,0,1,1.21-3.08,11.18,11.18,0,0,0,1.33-3,10.62,10.62,0,0,0,.16-3.2,17.81,17.81,0,0,1-.05-3.28,18,18,0,0,1,.68-3.22,10.24,10.24,0,0,0,.41-3.29A12.92,12.92,0,0,0,166.31,103.28Z" fill="url(#c)"/><path d="M132.25,52.44c-0.39-.3-0.77-0.58-1.07-0.79a21.3,21.3,0,0,0-3-1.68c-0.31-.14-0.72-0.29-1.13-0.43a12.57,12.57,0,0,0,3.07,2.2A12.8,12.8,0,0,0,132.25,52.44Z" fill="url(#d)"/><path d="M94.3,40.62a13,13,0,0,1,3.87.33,12.23,12.23,0,0,1,2.63,1.19,8.07,8.07,0,0,1,.93-0.6,6,6,0,0,1,1.52-.65,5.27,5.27,0,0,1,2.64.27,6.28,6.28,0,0,0,2.48.44c0.64-.06,2.85-1.51,4.91-3.22s4.54-3.64,5.5-4.29,4.44-2.57,7.72-4.28,6.9-3.76,8-4.55,3-2.26,4.22-3.26,2-2.13,1.88-2.5-1.49-.47-3-0.21a30.46,30.46,0,0,1-5.06.39,20.18,20.18,0,0,1-4.37-.7,17.94,17.94,0,0,0-2-.45c-0.49-.09-1-0.16-1.41-0.21h0c-1.14.79-4.75,2.84-8,4.55s-6.75,3.64-7.72,4.28-3.44,2.57-5.5,4.29-4.28,3.16-4.91,3.22a4.71,4.71,0,0,1-1.09-.07c-0.16.31-.33,0.62-0.5,0.92s-0.3.53-.44,0.75a32.63,32.63,0,0,1-2.08,2.9,4.68,4.68,0,0,0-.31.46,5.28,5.28,0,0,0-.55,1.07Z" fill="url(#e)"/></svg>