<svg xmlns="http://www.w3.org/2000/svg" xmlns:xlink="http://www.w3.org/1999/xlink" width="200" height="200" viewBox="0 0 200 200"><defs><linearGradient id="b" x1="60.59" y1="159.31" x2="113.05" y2="41.49" gradientUnits="userSpaceOnUse"><stop offset="0" stop-color="#fdba56"/><stop offset=".02" stop-color="#fbb055"/><stop offset=".06" stop-color="#f79d54"/><stop offset=".1" stop-color="#f59253"/><stop offset=".15" stop-color="#f48e53"/><stop offset=".3" stop-color="#ed5e4e"/><stop offset=".47" stop-color="#683a96" stop-opacity=".5"/><stop offset=".64" stop-color="#ed872b"/><stop offset=".79" stop-color="#7b76b6"/><stop offset=".9" stop-color="#f15f4f"/><stop offset="1" stop-color="#fdba56"/></linearGradient><linearGradient id="a" x1="96.4" y1="123.41" x2="114.85" y2="164.84" gradientUnits="userSpaceOnUse"><stop offset="0" stop-color="#b7151b"/><stop offset=".02" stop-color="#c52229"/><stop offset=".06" stop-color="#d7333c"/><stop offset=".11" stop-color="#e23d47"/><stop offset=".15" stop-color="#e6404b"/><stop offset=".3" stop-color="#e98a7b"/><stop offset=".47" stop-color="#7c78b8"/><stop offset=".64" stop-color="#00b0b0"/><stop offset=".79" stop-color="#7b76b6"/><stop offset="1" stop-color="#e7322f"/></linearGradient><linearGradient id="c" x1="124.98" y1="53.52" x2="144.77" y2="97.98" xlink:href="#a"/></defs><title>_</title><path d="M126.69 48.27a22.65 22.65 0 0 0-2.94-2 14.34 14.34 0 0 0-3.29-1.22 14.92 14.92 0 0 0-3.56-.18c-1.29.12-7.18-.09-12.13-.37l-4.47-.25c-5.54-.31-11.56-.85-13.43-1.2s-4-.65-4.84-.7a24.92 24.92 0 0 0-3.15.07 23 23 0 0 0-3.14.6 26.76 26.76 0 0 0-3.16 1.17 20 20 0 0 1-3.52 1.18 17.44 17.44 0 0 1-3.55.32A20.28 20.28 0 0 1 62 45.2a23.68 23.68 0 0 1-3.49-1.2 16.41 16.41 0 0 0-3.08-1 53 53 0 0 0-6.74-.18 18.5 18.5 0 0 0-5.38.73 56.29 56.29 0 0 0-.5 10.26l.07 4.88a117.19 117.19 0 0 1-.44 13.64 48.33 48.33 0 0 0-.58 5.06 22.1 22.1 0 0 0 .25 3.28c.17 1 .35 2.59.41 3.57s.06 2.59 0 3.57a22.26 22.26 0 0 0 .13 3.28 24 24 0 0 0 .73 3.29c.31 1 .72 2.58.92 3.56s.43 2.59.52 3.57a18.48 18.48 0 0 1-.12 3.71 20.33 20.33 0 0 1-1 3.68 13.64 13.64 0 0 0-.75 3.18 12.61 12.61 0 0 0 .25 3.16 16.38 16.38 0 0 1 .36 3.73 16.81 16.81 0 0 1-.67 3.72 9.25 9.25 0 0 0-.32 3.05 10.69 10.69 0 0 0 1 3.1 11.74 11.74 0 0 1 1.17 3.86 10.72 10.72 0 0 1-.56 3.89 12.5 12.5 0 0 0-.64 3.16 12 12 0 0 0 .4 3.15 17.94 17.94 0 0 1 .61 3.69 17 17 0 0 1-.34 3.67 3.05 3.05 0 0 0 .09 1.73 2.74 2.74 0 0 0 1.49.44 28 28 0 0 0 3.19-.23 30.86 30.86 0 0 0 3.23-.69c.21-.06.46-.11.72-.17a15.08 15.08 0 0 1 2.76-.3h.2a14.81 14.81 0 0 1 3.67.67c.88.3 2.38.71 3.27.91s2.38.42 3.26.5 2.38.14 3.28.15 2.39-.08 3.28-.17 2.51-.18 3.47-.19 2.51 0 3.47.12a32.35 32.35 0 0 0 3.26.06c.88 0 2.38-.19 3.26-.34s4-.46 6.81-.68a55.5 55.5 0 0 0 6.47-.79c.91-.25 2.4-.57 3.32-.73s2.4-.34 3.31-.41a31.59 31.59 0 0 1 3.38 0c.94 0 2.49.23 3.46.39a17.13 17.13 0 0 0 3.29.17 22.82 22.82 0 0 0 3.6-.6 18.43 18.43 0 0 0 3.47-1.39 18.86 18.86 0 0 0 3-2.23 24.92 24.92 0 0 1 3.29-2.53 21 21 0 0 1 3.59-1.69 7.58 7.58 0 0 0 2.49-1.52 7.44 7.44 0 0 0 1.4-2.53 17.24 17.24 0 0 1 1.67-3.69 23.49 23.49 0 0 1 2.77-3.43 8 8 0 0 0 1.79-3 7.81 7.81 0 0 0-.17-3.42c-.37-1.19-.85-3.13-1.08-4.32s-.7-5.05-1.06-8.63a30.91 30.91 0 0 0-1.5-7.47 1.22 1.22 0 0 0-.08-.15 11.25 11.25 0 0 0-2.47-2.08 51.51 51.51 0 0 0-3.84-2.48c-2.21-1.28-6-3.6-6.25-4.75a2.76 2.76 0 0 1 1.65-2.79 11.2 11.2 0 0 0 2.23-1.75 81.19 81.19 0 0 0 4.93-9.59 67.32 67.32 0 0 0 4-10.12 21.78 21.78 0 0 0-2-6.18c-1.19-2.61-2.56-5.42-3-6.14s-2.13-3.07-3.72-5.15c-.37-.48-.76-1-1.14-1.45a34.37 34.37 0 0 0-3.03-3.35z" fill="url(#b)"/><path d="M142 111.64c.36 3.54.83 7.38 1 8.54s.69 3.05 1 4.21a8.75 8.75 0 0 1 .18 4 9 9 0 0 1-2 3.43 22.37 22.37 0 0 0-2.63 3.26 16.41 16.41 0 0 0-1.55 3.44 8.38 8.38 0 0 1-1.64 2.94 8.52 8.52 0 0 1-2.89 1.78 20.2 20.2 0 0 0-3.38 1.6 23.83 23.83 0 0 0-3.09 2.36 19.78 19.78 0 0 1-3.24 2.37 19.34 19.34 0 0 1-3.7 1.48 23.68 23.68 0 0 1-3.79.63 18.26 18.26 0 0 1-3.52-.18c-.93-.16-2.43-.33-3.34-.38a30.57 30.57 0 0 0-3.25 0c-.88.07-2.33.25-3.22.4s-2.34.47-3.23.71a56.1 56.1 0 0 1-6.65.82c-2.77.21-5.79.52-6.72.67a33.76 33.76 0 0 1-3.38.35 33.23 33.23 0 0 1-3.38-.06c-.93-.07-2.45-.13-3.38-.12s-2.45.09-3.38.18-2.45.17-3.38.17-2.45-.07-3.38-.15-2.45-.32-3.38-.52-2.45-.62-3.38-.94a13.93 13.93 0 0 0-3.38-.62 13.6 13.6 0 0 0-2.73.28c.05.36.08.7.1 1v.24A16.13 16.13 0 0 1 53 157a3.68 3.68 0 0 0 .26 2.55 3.24 3.24 0 0 0 2.3.84 28.87 28.87 0 0 0 3.33-.24 31.48 31.48 0 0 0 3.36-.72 13.58 13.58 0 0 1 3.38-.43 13.93 13.93 0 0 1 3.38.62c.93.31 2.45.74 3.38.94s2.45.44 3.38.52 2.45.16 3.38.15 2.45-.08 3.38-.17 2.45-.17 3.38-.18 2.45 0 3.38.12a33.23 33.23 0 0 0 3.38.06 33.76 33.76 0 0 0 3.38-.35c.93-.15 4-.46 6.72-.67a56.1 56.1 0 0 0 6.65-.82c.89-.24 2.34-.56 3.23-.71s2.33-.33 3.22-.4a30.57 30.57 0 0 1 3.25 0c.91 0 2.41.22 3.34.38a18.26 18.26 0 0 0 3.52.18 23.68 23.68 0 0 0 3.79-.63 19.34 19.34 0 0 0 3.7-1.48 19.78 19.78 0 0 0 3.24-2.37 23.83 23.83 0 0 1 3.13-2.41 20.2 20.2 0 0 1 3.38-1.6 8.52 8.52 0 0 0 2.89-1.78 8.38 8.38 0 0 0 1.64-2.94 16.41 16.41 0 0 1 1.55-3.44 22.37 22.37 0 0 1 2.63-3.26 9 9 0 0 0 2-3.43 8.75 8.75 0 0 0-.18-4c-.36-1.16-.83-3.06-1-4.21s-.69-5-1-8.54-1.14-7.18-1.74-8.08-3.59-3.09-6.65-4.86c-.53-.31-1.05-.62-1.55-.93l-1.37-.87a31.73 31.73 0 0 1 1.56 7.8z" fill="url(#a)"/><path d="M131.68 52.53c1.63 2.13 3.33 4.48 3.79 5.24s1.82 3.56 3 6.24 2.16 5.67 2.1 6.66-1.92 5.7-4.11 10.47-4.46 9.19-5.09 9.86a12.27 12.27 0 0 1-2.47 1.93 1.85 1.85 0 0 0-1.13 1.66c.12.5 2.73 2.35 5.78 4.12 1.4.81 2.78 1.71 3.93 2.53a1.76 1.76 0 0 1 .5-.87 2.67 2.67 0 0 1 .63-.49 12.27 12.27 0 0 0 2.47-1.93c.61-.65 2.91-5.09 5.11-9.86s4.05-9.48 4.11-10.47-.88-4-2.1-6.66-2.59-5.48-3-6.24-2.16-3.11-3.79-5.24a44.58 44.58 0 0 0-4.34-5 23.48 23.48 0 0 0-3.1-2.1 13.71 13.71 0 0 0-1.74-.77 14 14 0 0 0-1.69-.52c.37.45.76.91 1.14 1.44z" fill="url(#c)"/></svg>