<svg xmlns="http://www.w3.org/2000/svg" xmlns:xlink="http://www.w3.org/1999/xlink" width="200" height="200" viewBox="0 0 200 200"><defs><linearGradient id="b" x1="65.85" y1="161.3" x2="120.49" y2="38.58" gradientUnits="userSpaceOnUse"><stop offset="0" stop-color="#fdba56"/><stop offset=".02" stop-color="#fbb055"/><stop offset=".06" stop-color="#f79d54"/><stop offset=".1" stop-color="#f59253"/><stop offset=".15" stop-color="#f48e53"/><stop offset=".3" stop-color="#ed5e4e"/><stop offset=".47" stop-color="#683a96" stop-opacity=".5"/><stop offset=".64" stop-color="#ed872b"/><stop offset=".79" stop-color="#7b76b6"/><stop offset=".9" stop-color="#f15f4f"/><stop offset="1" stop-color="#fdba56"/></linearGradient><linearGradient id="a" x1="110.18" y1="58.28" x2="121.68" y2="84.11" gradientUnits="userSpaceOnUse"><stop offset="0" stop-color="#b7151b"/><stop offset=".02" stop-color="#c52229"/><stop offset=".06" stop-color="#d7333c"/><stop offset=".11" stop-color="#e23d47"/><stop offset=".15" stop-color="#e6404b"/><stop offset=".3" stop-color="#e98a7b"/><stop offset=".47" stop-color="#7c78b8"/><stop offset=".64" stop-color="#00b0b0"/><stop offset=".79" stop-color="#7b76b6"/><stop offset="1" stop-color="#e7322f"/></linearGradient><linearGradient id="c" x1="106.68" y1="100.17" x2="118" y2="125.59" xlink:href="#a"/><linearGradient id="d" x1="97.34" y1="136.88" x2="114.42" y2="175.27" xlink:href="#a"/></defs><title>_</title><path d="M126.44 95.78v-3.17c0-1.17.08-2.19.15-2.93a10.45 10.45 0 0 0-.05-2.59 1.78 1.78 0 0 0-.54 0 17.09 17.09 0 0 1-2.51.26 25.41 25.41 0 0 1-2.82-.15c-.81-.09-2.14-.31-3-.48s-2.13-.51-2.94-.76a11.24 11.24 0 0 0-2.58-.41 11.06 11.06 0 0 0-2.58.35 16.44 16.44 0 0 1-3.08.51 16 16 0 0 1-3.09-.21 14.62 14.62 0 0 0-2.64-.19 14.94 14.94 0 0 0-2.64.41 15.78 15.78 0 0 1-3.12.4 14 14 0 0 1-3.12-.45c-.21-.06-.48-.12-.76-.17a14.58 14.58 0 0 0-2-.26 17.49 17.49 0 0 0-3 .2 5.8 5.8 0 0 1-3.12-.35c-1.1-.59-1.71-2.67-1.88-3.69a34.32 34.32 0 0 1-.44-3.6 6.43 6.43 0 0 1 .53-2.42 10.21 10.21 0 0 1 1.57-2.25 7.44 7.44 0 0 0 1.11-1.52 1.54 1.54 0 0 0 .11-.71 2.54 2.54 0 0 1 .61-2.32A10.42 10.42 0 0 1 87 67.55a12.49 12.49 0 0 1 3.38-1.16 12.89 12.89 0 0 1 3.6 0c1 .17 2.52.52 3.48.79s2.51.79 3.47 1.17a13.57 13.57 0 0 0 3.1.74 24.54 24.54 0 0 0 4.8-.48c1.89-.35 7.91-1.07 13.42-1.6 4.94-.47 10.58-.94 11.44-.94A2 2 0 0 0 136 64.4a13.4 13.4 0 0 0 .28-2.47A19.58 19.58 0 0 0 136 59a25.63 25.63 0 0 1-.32-3.4 25.21 25.21 0 0 1 .24-3.4c.07-.49.15-1.18.21-1.9 0-.4.06-.78.07-1.08a22.16 22.16 0 0 0-.11-2.67 2.61 2.61 0 0 0-.7-1.4 23.4 23.4 0 0 0-5.6-.67c-2.89-.09-6.9 0-9 .11a35.52 35.52 0 0 1-5.86 0 21.77 21.77 0 0 1-4-1 32.39 32.39 0 0 0-3.63-1.1 29.23 29.23 0 0 0-3.62-.52c-.86-.06-5.82.4-11.61 1.13l-2.76.35c-4.87.62-10.75 1.18-12.07 1a18.16 18.16 0 0 1-4-1.16 12.92 12.92 0 0 0-3.44-.88 12 12 0 0 0-3.42.36 38.56 38.56 0 0 1-3.89.86c-1.07.17-3.56.4-5.56.52s-4.19.34-5 .49a6.76 6.76 0 0 0-2.22.93 6.44 6.44 0 0 0-1.51 1.8 10.27 10.27 0 0 0-.79 2.63 35.48 35.48 0 0 0 .59 6.41 39.44 39.44 0 0 1 .63 7.21 15.85 15.85 0 0 1-1 3.74 15.44 15.44 0 0 0-.93 3.21A99.85 99.85 0 0 0 47.61 82L49 93.3a131.82 131.82 0 0 1 1.08 13.55 34 34 0 0 1-.58 5.4 27.7 27.7 0 0 1-1.23 3.62 12.83 12.83 0 0 0-.84 3.16 11.57 11.57 0 0 0 .23 3.13c.24 1 .54 2.58.68 3.56.16 1.15 0 7-.2 11.91l-.24 5.24c-.25 5.62 0 9.68.33 10.45a5 5 0 0 0 2.52.92 30.75 30.75 0 0 0 4.17 0c.41 0 .92-.1 1.44-.19a22.57 22.57 0 0 0 2.33-.49 28.54 28.54 0 0 1 4-.77c1.25-.13 7.11.14 12.06.47l7 .48a95.44 95.44 0 0 0 11.64.32 17.57 17.57 0 0 0 3.6-1.25 24.42 24.42 0 0 1 4.06-1.52 20.41 20.41 0 0 1 4.1-.53 39.69 39.69 0 0 1 4 .23 39.16 39.16 0 0 1 4 .75 25.28 25.28 0 0 0 3.68.59 24.41 24.41 0 0 0 3.67-.1 31.75 31.75 0 0 1 4-.18 32.65 32.65 0 0 1 4 .43c1 .19 2.73.39 3.75.45s2.75.07 3.75.07a4.24 4.24 0 0 0 2.15-.7 2.55 2.55 0 0 0 .33-1.7c-.14-.94-.33-3.18-.43-5s-.37-4.64-.63-6.39c-.15-1-.29-2.25-.37-3.29-.06-.73-.08-1.28-.07-1.64a16.18 16.18 0 0 1 .46-3.19 2 2 0 0 0 0-1.17 3.44 3.44 0 0 0-1.33-.15c-.91.08-3.21.13-5.12.1s-4.94.07-6.85.21a30.73 30.73 0 0 1-5.5 0 18.52 18.52 0 0 1-3.75-1.11 17.08 17.08 0 0 0-3.28-1 49 49 0 0 0-6.81 0c-2.82.16-6 .43-6.92.59a27.8 27.8 0 0 0-3.21.8h-.15a12.82 12.82 0 0 1-3.8.59 12.25 12.25 0 0 1-3.69-.79 7.42 7.42 0 0 1-2.66-1.77 2.79 2.79 0 0 1-.3-2.72 3.13 3.13 0 0 0 .21-1.34 5.39 5.39 0 0 0-.64-1.68c-.38-.62-.94-1.64-1.24-2.26s-.74-1.63-1-2.27a8.8 8.8 0 0 1-.47-2.6 10.46 10.46 0 0 1 .46-2.72 4.58 4.58 0 0 1 1.85-2.35c1.17-.65 9.11.21 11.51.48l.5.06a78.29 78.29 0 0 0 11 .77 10.8 10.8 0 0 0 2.55-1.24 11 11 0 0 1 3.21-1.45c1.22-.27 4.37.32 6.18.78a37.92 37.92 0 0 0 5.41 1.07 10.55 10.55 0 0 0 2.37-.33 2.62 2.62 0 0 0 1.25-.85 20.69 20.69 0 0 0-.16-5c-.3-2.55-.58-6.15-.62-7.96z" fill="url(#b)"/><path d="M139.52 50.48h-2.4c-.05.68-.13 1.41-.22 2a24.26 24.26 0 0 0-.22 3.23 24.41 24.41 0 0 0 .3 3.23 20.73 20.73 0 0 1 .27 3.06 14.42 14.42 0 0 1-.31 2.7 3.81 3.81 0 0 1-1.13 1.88 4.13 4.13 0 0 1-2.17.6c-.74 0-5.83.41-11.3.93-5.47.53-11.47 1.24-13.33 1.59a25.41 25.41 0 0 1-5.07.49 14.57 14.57 0 0 1-3.38-.8c-.93-.36-2.45-.87-3.38-1.14s-2.45-.61-3.38-.77a11.92 11.92 0 0 0-3.27 0 11.52 11.52 0 0 0-3.06 1.05 9.54 9.54 0 0 0-2.11 1.52 1.59 1.59 0 0 0-.41 1.34 2.33 2.33 0 0 1-.14 1.44 8.22 8.22 0 0 1-1.29 1.8 9.17 9.17 0 0 0-1.39 2 5.45 5.45 0 0 0-.44 2 33.37 33.37 0 0 0 .43 3.45 4.91 4.91 0 0 0 1.37 3 4.92 4.92 0 0 0 2.61.24 18.6 18.6 0 0 1 3.19-.21 15.56 15.56 0 0 1 2.13.28 5.59 5.59 0 0 1 .17-1 4.65 4.65 0 0 1 .26-.77 9.17 9.17 0 0 1 1.39-2 8.22 8.22 0 0 0 1.29-1.8 2.33 2.33 0 0 0 .14-1.44 1.59 1.59 0 0 1 .41-1.34 9.54 9.54 0 0 1 2.11-1.52 11.52 11.52 0 0 1 3.06-1.05 11.92 11.92 0 0 1 3.27 0c.93.16 2.45.51 3.38.77s2.45.77 3.38 1.14a14.57 14.57 0 0 0 3.38.8 25.41 25.41 0 0 0 5.07-.49c1.86-.35 7.86-1.06 13.33-1.59s10.56-.95 11.3-.93a4.13 4.13 0 0 0 2.17-.6 3.81 3.81 0 0 0 1.13-1.88 14.42 14.42 0 0 0 .31-2.7 20.73 20.73 0 0 0-.27-3.06 24.41 24.41 0 0 1-.3-3.23 24.26 24.26 0 0 1 .22-3.23c.13-.89.26-2.28.29-3.1a23.25 23.25 0 0 0-.12-2.82 3.56 3.56 0 0 0-1.06-2.06c-.51-.49-3.3-.92-6.21-1.01z" fill="url(#a)"/><path d="M127.47 92.63v3.13c0 1.78.32 5.34.63 7.92s.33 5.11 0 5.63a3.51 3.51 0 0 1-1.84 1.32 11.43 11.43 0 0 1-2.67.37 37.64 37.64 0 0 1-5.65-1.1 19 19 0 0 0-5.72-.78 10 10 0 0 0-2.86 1.3 11.65 11.65 0 0 1-2.86 1.38c-.79.22-5.9-.12-11.36-.74l-.5-.06c-5.46-.63-10.37-.9-10.91-.6a3.59 3.59 0 0 0-1.38 1.79 9.43 9.43 0 0 0-.41 2.41 7.76 7.76 0 0 0 .4 2.25c.22.6.64 1.58.94 2.18s.83 1.58 1.2 2.18a6.34 6.34 0 0 1 .78 2.08 4.08 4.08 0 0 1-.3 1.89 1.78 1.78 0 0 0 .18 1.68 6.6 6.6 0 0 0 2.25 1.46 11.3 11.3 0 0 0 3.34.71 12.17 12.17 0 0 0 3.45-.54l.16-.05c0-.09-.1-.2-.15-.28l-.36-.61c-.3-.53-.63-1.14-.84-1.57-.29-.6-.71-1.58-.94-2.18a7.76 7.76 0 0 1-.4-2.25 9.43 9.43 0 0 1 .41-2.41 3.59 3.59 0 0 1 1.38-1.79c.54-.3 5.45 0 10.91.6l.5.06c5.46.63 10.58 1 11.36.74a11.65 11.65 0 0 0 2.86-1.38 10 10 0 0 1 2.86-1.3 19 19 0 0 1 5.72.78 37.64 37.64 0 0 0 5.65 1.1 11.43 11.43 0 0 0 2.67-.37 3.51 3.51 0 0 0 1.84-1.32c.3-.52.28-3 0-5.62s-.6-6.14-.63-7.92 0-4.48.17-6a7.41 7.41 0 0 0-.24-3.32 1.81 1.81 0 0 0-1.55-.33 16.14 16.14 0 0 1-2.34.24 24.2 24.2 0 0 1-2.68-.14c-.55-.06-1.35-.19-2.05-.31l-.81-.15z" fill="url(#c)"/><path d="M138.42 139c.26 1.78.55 4.7.64 6.49s.28 4 .42 4.9a3.41 3.41 0 0 1-.6 2.54 5 5 0 0 1-2.81 1 32 32 0 0 1-7.77-.46 31.46 31.46 0 0 0-3.86-.41 31 31 0 0 0-3.86.17 25.18 25.18 0 0 1-3.86.1 26.09 26.09 0 0 1-3.86-.62A38 38 0 0 0 109 152a36.33 36.33 0 0 0-3.86-.23 19.62 19.62 0 0 0-3.86.5 23.27 23.27 0 0 0-3.86 1.44 18.54 18.54 0 0 1-3.86 1.34 92.83 92.83 0 0 1-11.9-.3l-7-.48c-5.49-.37-10.84-.59-11.89-.48a27.35 27.35 0 0 0-3.8.74 23.49 23.49 0 0 1-2.45.52v1c.07 2.58.28 4.45.6 4.81a5.61 5.61 0 0 0 3.24 1.31 31.46 31.46 0 0 0 4.33 0 25.29 25.29 0 0 0 4-.71 27.35 27.35 0 0 1 3.8-.74c1-.11 6.4.1 11.89.48l7 .48a92.83 92.83 0 0 0 11.9.3 18.54 18.54 0 0 0 3.86-1.34 23.27 23.27 0 0 1 3.86-1.44 19.62 19.62 0 0 1 3.86-.5 36.33 36.33 0 0 1 3.86.23 38 38 0 0 1 3.86.73 26.09 26.09 0 0 0 3.86.62 25.18 25.18 0 0 0 3.86-.1 31 31 0 0 1 3.86-.17 31.46 31.46 0 0 1 3.86.41 32 32 0 0 0 7.77.46 5 5 0 0 0 2.81-1 3.41 3.41 0 0 0 .6-2.54c-.14-.91-.32-3.12-.42-4.9s-.38-4.71-.64-6.49a38.22 38.22 0 0 1-.43-4.76 15.27 15.27 0 0 1 .42-3 2.55 2.55 0 0 0-.22-2.07 3.13 3.13 0 0 0-2.19-.5c-.87.08-3.13.12-5 .1H138.08c.05 1.06.18 2.28.34 3.28z" fill="url(#d)"/></svg>