<svg xmlns="http://www.w3.org/2000/svg" xmlns:xlink="http://www.w3.org/1999/xlink" width="200" height="200" viewBox="0 0 200 200"><defs><linearGradient id="a" x1="56.89" y1="152.54" x2="109.82" y2="33.64" gradientUnits="userSpaceOnUse"><stop offset="0" stop-color="#fdba56"/><stop offset="0.02" stop-color="#fbb055"/><stop offset="0.06" stop-color="#f79d54"/><stop offset="0.1" stop-color="#f59253"/><stop offset="0.15" stop-color="#f48e53"/><stop offset="0.3" stop-color="#ed5e4e"/><stop offset="0.47" stop-color="#683a96" stop-opacity="0.5"/><stop offset="0.64" stop-color="#ed872b"/><stop offset="0.79" stop-color="#7b76b6"/><stop offset="0.9" stop-color="#f15f4f"/><stop offset="1" stop-color="#fdba56"/></linearGradient><linearGradient id="b" x1="91.95" y1="111.67" x2="110.53" y2="153.4" gradientUnits="userSpaceOnUse"><stop offset="0" stop-color="#b7151b"/><stop offset="0.02" stop-color="#c52229"/><stop offset="0.06" stop-color="#d7333c"/><stop offset="0.11" stop-color="#e23d47"/><stop offset="0.15" stop-color="#e6404b"/><stop offset="0.3" stop-color="#e98a7b"/><stop offset="0.47" stop-color="#7c78b8"/><stop offset="0.64" stop-color="#00b0b0"/><stop offset="0.79" stop-color="#7b76b6"/><stop offset="1" stop-color="#e7322f"/></linearGradient><linearGradient id="c" x1="111.46" y1="57.24" x2="123.41" y2="84.08" xlink:href="#b"/></defs><title>_</title><path d="M122.59,90.58a23.26,23.26,0,0,1-5.28.33,24.26,24.26,0,0,1-5.24-1.13,21.92,21.92,0,0,0-4.7-1,20.42,20.42,0,0,0-4.69.32c-1.1.23-3.52,0.56-6,.82l-1.74.17c-1.88.17-5.76,0.31-7-.35a3.44,3.44,0,0,1-1.64-3.13A15.29,15.29,0,0,0,86.28,84a12.76,12.76,0,0,0-.62-2.41,6.5,6.5,0,0,1-.32-3.06,8.16,8.16,0,0,1,1.36-2.95,5.16,5.16,0,0,0,.86-2.16A6.53,6.53,0,0,0,87,70.84a3.87,3.87,0,0,1-.1-3.4,4.25,4.25,0,0,1,3.18-1.35,31.19,31.19,0,0,1,3.67.11,26,26,0,0,1,3.41.63c0.82,0.22,2.92.65,4.58,0.93a19.67,19.67,0,0,0,4.37.3,14.37,14.37,0,0,0,2.87-.81,10.65,10.65,0,0,1,3.5-.73h0a10.66,10.66,0,0,1,3.5.73,11,11,0,0,0,2.8.69,10.27,10.27,0,0,0,2.78-.29,30.42,30.42,0,0,1,3.25-.67c0.91-.13,3.6-0.22,6.07-0.21H131a15.65,15.65,0,0,0,4.69-.52,4.87,4.87,0,0,0,1.17-1.68,9.85,9.85,0,0,0,.57-2.61,11.37,11.37,0,0,0-.33-2.83,19.32,19.32,0,0,1-.54-3.44,18.86,18.86,0,0,1,.21-3.45,16.69,16.69,0,0,0,.18-2c0-.35,0-0.68,0-0.95a13.41,13.41,0,0,0-.45-2.65,4,4,0,0,0-1-1.59A62,62,0,0,0,125,44.26l-4.55-.1c-4.94-.11-10.75-0.32-11.9-0.47a36.78,36.78,0,0,1-3.72-.73,11.36,11.36,0,0,0-3.25-.27,12.6,12.6,0,0,0-3.27.9,12.18,12.18,0,0,1-4,.95,11.72,11.72,0,0,1-4-.74A13.13,13.13,0,0,0,87.09,43a12.28,12.28,0,0,0-3.27.34c-1,.28-2.69.63-3.71,0.77a36.18,36.18,0,0,1-3.72.31c-1,0-2.69,0-3.71-.14S70,44,69,43.74a20.07,20.07,0,0,0-3.38-.34,19.43,19.43,0,0,0-3.38.4c-1,.23-3.25.6-5,0.81a11.14,11.14,0,0,0-3.21.83,67.63,67.63,0,0,0-1.68,10c-0.67,5.85-1.1,10.65-1.08,11.45s0.43,3.71,1,6.78a115.16,115.16,0,0,1,1.22,14c0.13,4.81-.14,13.21-0.6,18.74l-0.65,7.79c-0.49,5.81-.71,10.72-0.61,11.48a28.06,28.06,0,0,0,.7,3.32,15.1,15.1,0,0,1,.51,3.76,15.32,15.32,0,0,1-.63,3.76,15.27,15.27,0,0,0-.59,3.21,27.82,27.82,0,0,0,.53,4.83c0.36,1.9.68,4.06,0.73,4.92a2.65,2.65,0,0,0,.78,1.57,45,45,0,0,0,7.69,1.55L63,152.88a93.67,93.67,0,0,0,15.46.63c4.07-.3,7-1.16,7.4-1.54a6.18,6.18,0,0,0,1-3.18c0-1.4.29-4.75,0.59-7.46a65.43,65.43,0,0,0,.43-7.18,32.82,32.82,0,0,0-.62-4.7,45,45,0,0,1-.76-5,42.72,42.72,0,0,1-.07-5,6.91,6.91,0,0,1,1.75-4.27,7.3,7.3,0,0,1,4.44-1.39,45.76,45.76,0,0,0,4.8-.21c1.33-.14,3.5-0.5,4.83-0.8a22.23,22.23,0,0,1,5.25-.43,23.28,23.28,0,0,1,5.24,1.09,20.54,20.54,0,0,0,4.62,1,17.78,17.78,0,0,0,4.46-.43,9.76,9.76,0,0,0,3.13-1.4,2.72,2.72,0,0,0,.84-1.66,24.39,24.39,0,0,0-.19-2.78c-0.11-.79-0.38-2.17-0.6-3a24.93,24.93,0,0,1-.59-3.4,23.88,23.88,0,0,1,0-3.41c0-.5.17-1.29,0.26-1.87,0.18-1,.4-2.2.62-3.18a6,6,0,0,0,.08-2.82A7.3,7.3,0,0,0,122.59,90.58Z" fill="url(#a)"/><path d="M125.39,98.45a22.73,22.73,0,0,0,0,3.23,23.77,23.77,0,0,0,.56,3.23c0.23,0.89.51,2.3,0.63,3.13a25.16,25.16,0,0,1,.2,2.93,3.7,3.7,0,0,1-1.19,2.42,10.65,10.65,0,0,1-3.53,1.6,18.78,18.78,0,0,1-4.77.46,21.43,21.43,0,0,1-4.9-1,22.15,22.15,0,0,0-5-1,21,21,0,0,0-5,.41c-1.37.31-3.59,0.68-5,.82a48.4,48.4,0,0,1-4.92.21A6.27,6.27,0,0,0,88.85,116a6,6,0,0,0-1.43,3.58,41.93,41.93,0,0,0,.07,4.82,44.25,44.25,0,0,0,.74,4.85,33.44,33.44,0,0,1,.64,4.87,65.52,65.52,0,0,1-.44,7.33c-0.3,2.69-.56,6-0.59,7.37a7,7,0,0,1-1.23,3.84c-0.65.75-4.28,1.58-8.07,1.86a95.21,95.21,0,0,1-15.66-.64l-1.69-.23c0.06,0.36.11,0.7,0.16,1,0.12,0.8.2,1.48,0.23,1.86a3.59,3.59,0,0,0,1.17,2.3c0.59,0.46,5,1.35,9.85,2a95.21,95.21,0,0,0,15.66.64c3.79-.28,7.42-1.11,8.07-1.86a7,7,0,0,0,1.23-3.84c0-1.36.29-4.68,0.59-7.37a65.52,65.52,0,0,0,.44-7.33,33.44,33.44,0,0,0-.64-4.87,44.25,44.25,0,0,1-.74-4.85,41.93,41.93,0,0,1-.07-4.82,6,6,0,0,1,1.43-3.58,6.27,6.27,0,0,1,3.75-1.13,48.4,48.4,0,0,0,4.92-.21c1.36-.14,3.59-0.51,5-0.82a21,21,0,0,1,5-.41,22.15,22.15,0,0,1,5,1,21.43,21.43,0,0,0,4.9,1,18.78,18.78,0,0,0,4.77-.46,10.65,10.65,0,0,0,3.53-1.6,3.7,3.7,0,0,0,1.19-2.42,25.16,25.16,0,0,0-.2-2.93c-0.11-.83-0.4-2.24-0.63-3.13a23.77,23.77,0,0,1-.56-3.23,22.73,22.73,0,0,1,0-3.23c0.08-.89.46-3.1,0.86-4.91s0.26-3.55-.31-3.87a6.79,6.79,0,0,0-3.55-.07,22.05,22.05,0,0,1-5,.32l-0.46,0-1-.14C125.52,97.42,125.42,98.06,125.39,98.45Z" fill="url(#b)"/><path d="M99.86,74a30,30,0,0,1,3.53.1,24.81,24.81,0,0,1,3.25.6c0.86,0.23,3,.66,4.68.95A20.31,20.31,0,0,0,116,76a15.34,15.34,0,0,0,3.12-.87,7.76,7.76,0,0,1,6.24,0,11.9,11.9,0,0,0,3.12.77,11.08,11.08,0,0,0,3.12-.32,29.19,29.19,0,0,1,3.12-.65c0.86-.12,3.53-0.21,5.93-0.2s4.81-.3,5.34-0.69a5.73,5.73,0,0,0,1.54-2.13,10.77,10.77,0,0,0,.65-2.94,12.4,12.4,0,0,0-.36-3.14,18.59,18.59,0,0,1-.51-3.23,18,18,0,0,1,.2-3.23,17.48,17.48,0,0,0,.21-3.12,14.45,14.45,0,0,0-.49-2.9,4.86,4.86,0,0,0-1.43-2.14c-0.41-.3-3.19-0.62-6.81-0.82l-1-.05a17.61,17.61,0,0,1-.2,2.09,18,18,0,0,0-.2,3.23,18.59,18.59,0,0,0,.51,3.23,12.4,12.4,0,0,1,.36,3.14,10.77,10.77,0,0,1-.65,2.94,5.73,5.73,0,0,1-1.54,2.13c-0.53.39-2.93,0.7-5.34,0.69s-5.07.08-5.93,0.2a29.19,29.19,0,0,0-3.12.65,11.08,11.08,0,0,1-3.12.32,11.9,11.9,0,0,1-3.12-.77,7.76,7.76,0,0,0-6.24,0,15.34,15.34,0,0,1-3.12.87,20.31,20.31,0,0,1-4.68-.3c-1.72-.29-3.82-0.72-4.68-0.95a24.81,24.81,0,0,0-3.25-.6,30,30,0,0,0-3.53-.1,3.42,3.42,0,0,0-2.38.91,3,3,0,0,0,.18,2.43,7.42,7.42,0,0,1,.62,3,6.1,6.1,0,0,1-1.05,2.69,7.25,7.25,0,0,0-1.17,2.52,5.53,5.53,0,0,0,.26,2.52,13.92,13.92,0,0,1,.68,2.64,16.24,16.24,0,0,1,.07,2.87,2.46,2.46,0,0,0,1.12,2.17c0.68,0.37,3.55.48,6.38,0.23l1.72-.17c-0.09-.29-0.17-0.57-0.26-0.79,0-.05,0-0.12-0.05-0.18A5.53,5.53,0,0,1,96,85.61a7.25,7.25,0,0,1,1.17-2.52,6.1,6.1,0,0,0,1.05-2.69,7.42,7.42,0,0,0-.62-3,3,3,0,0,1-.18-2.43A3.42,3.42,0,0,1,99.86,74Z" fill="url(#c)"/></svg>