<svg xmlns="http://www.w3.org/2000/svg" xmlns:xlink="http://www.w3.org/1999/xlink" width="103.99" height="200" viewBox="0 0 103.99 200"><defs><linearGradient id="b" x1="12.71" y1="150.17" x2="65.65" y2="31.27" gradientUnits="userSpaceOnUse"><stop offset="0" stop-color="#fdba56"/><stop offset=".02" stop-color="#fbb055"/><stop offset=".06" stop-color="#f79d54"/><stop offset=".1" stop-color="#f59253"/><stop offset=".15" stop-color="#f48e53"/><stop offset=".3" stop-color="#ed5e4e"/><stop offset=".47" stop-color="#683a96" stop-opacity=".5"/><stop offset=".64" stop-color="#ed872b"/><stop offset=".79" stop-color="#7b76b6"/><stop offset=".9" stop-color="#f15f4f"/><stop offset="1" stop-color="#fdba56"/></linearGradient><linearGradient id="a" x1="47.78" y1="109.3" x2="66.35" y2="151.03" gradientUnits="userSpaceOnUse"><stop offset="0" stop-color="#b7151b"/><stop offset=".02" stop-color="#c52229"/><stop offset=".06" stop-color="#d7333c"/><stop offset=".11" stop-color="#e23d47"/><stop offset=".15" stop-color="#e6404b"/><stop offset=".3" stop-color="#e98a7b"/><stop offset=".47" stop-color="#7c78b8"/><stop offset=".64" stop-color="#00b0b0"/><stop offset=".79" stop-color="#7b76b6"/><stop offset="1" stop-color="#e7322f"/></linearGradient><linearGradient id="c" x1="67.29" y1="54.87" x2="79.24" y2="81.71" xlink:href="#a"/></defs><title>_</title><path d="M78.41 88.21a23.26 23.26 0 0 1-5.28.33 24.26 24.26 0 0 1-5.24-1.13 21.92 21.92 0 0 0-4.7-1 20.42 20.42 0 0 0-4.69.32c-1.1.23-3.52.56-6 .82l-1.74.17c-1.88.17-5.76.31-7-.35a3.44 3.44 0 0 1-1.64-3.13 15.29 15.29 0 0 0-.06-2.65 12.76 12.76 0 0 0-.62-2.41 6.5 6.5 0 0 1-.32-3.06 8.16 8.16 0 0 1 1.36-2.95 5.16 5.16 0 0 0 .91-2.17 6.53 6.53 0 0 0-.53-2.53 3.87 3.87 0 0 1-.1-3.4 4.25 4.25 0 0 1 3.18-1.35 31.19 31.19 0 0 1 3.67.11 26 26 0 0 1 3.41.63c.82.22 2.92.65 4.58.93a19.67 19.67 0 0 0 4.37.3 14.37 14.37 0 0 0 2.87-.81 10.65 10.65 0 0 1 3.5-.73 10.66 10.66 0 0 1 3.5.73 11 11 0 0 0 2.8.69 10.27 10.27 0 0 0 2.78-.29 30.42 30.42 0 0 1 3.25-.67c.91-.13 3.6-.22 6.07-.21h.09a15.65 15.65 0 0 0 4.69-.52 4.87 4.87 0 0 0 1.18-1.68 9.85 9.85 0 0 0 .57-2.61 11.37 11.37 0 0 0-.33-2.83 19.32 19.32 0 0 1-.54-3.44 18.86 18.86 0 0 1 .21-3.45 16.69 16.69 0 0 0 .18-2v-.95a13.41 13.41 0 0 0-.45-2.65 4 4 0 0 0-1-1.59 62 62 0 0 0-10.48-.82l-4.55-.1c-4.94-.11-10.75-.32-11.9-.47a36.78 36.78 0 0 1-3.72-.73 11.36 11.36 0 0 0-3.25-.27 12.6 12.6 0 0 0-3.27.9 12.18 12.18 0 0 1-4 .95 11.72 11.72 0 0 1-4-.74 13.13 13.13 0 0 0-3.29-.76 12.28 12.28 0 0 0-3.27.34c-1 .28-2.69.63-3.71.77a36.18 36.18 0 0 1-3.72.31c-1 0-2.69 0-3.71-.14s-2.68-.35-3.7-.57a20.07 20.07 0 0 0-3.34-.35 19.43 19.43 0 0 0-3.38.4c-1 .23-3.25.6-5 .81a11.14 11.14 0 0 0-3.21.83 67.63 67.63 0 0 0-1.68 10C7.52 59 7.09 63.76 7.11 64.56s.43 3.71 1 6.78a115.16 115.16 0 0 1 1.22 14c.13 4.81-.14 13.21-.6 18.74l-.65 7.79c-.49 5.81-.71 10.72-.61 11.48a28.06 28.06 0 0 0 .7 3.32 15.1 15.1 0 0 1 .51 3.76A15.32 15.32 0 0 1 8 134.2a15.27 15.27 0 0 0-.59 3.21 27.82 27.82 0 0 0 .59 4.83c.36 1.9.68 4.06.73 4.92a2.65 2.65 0 0 0 .78 1.57 45 45 0 0 0 7.69 1.55l1.68.23a93.67 93.67 0 0 0 15.46.63c4.07-.3 7-1.16 7.4-1.54a6.18 6.18 0 0 0 1-3.18c0-1.4.29-4.75.59-7.46a65.43 65.43 0 0 0 .43-7.18 32.82 32.82 0 0 0-.62-4.7 45 45 0 0 1-.76-5 42.72 42.72 0 0 1-.07-5 6.91 6.91 0 0 1 1.69-4.22 7.3 7.3 0 0 1 4.44-1.39 45.76 45.76 0 0 0 4.8-.21c1.33-.14 3.5-.5 4.83-.8a22.23 22.23 0 0 1 5.25-.43 23.28 23.28 0 0 1 5.24 1.09 20.54 20.54 0 0 0 4.62 1 17.78 17.78 0 0 0 4.46-.43 9.76 9.76 0 0 0 3.13-1.4 2.72 2.72 0 0 0 .84-1.66 24.39 24.39 0 0 0-.19-2.78c-.11-.79-.38-2.17-.6-3a24.93 24.93 0 0 1-.59-3.4 23.88 23.88 0 0 1 0-3.41c0-.5.17-1.29.26-1.87.18-1 .4-2.2.62-3.18a6 6 0 0 0 .08-2.82 7.3 7.3 0 0 0-2.78.04z" fill="url(#b)"/><path d="M81.22 96.08a22.73 22.73 0 0 0 0 3.23 23.77 23.77 0 0 0 .56 3.23c.23.89.51 2.3.63 3.13a25.16 25.16 0 0 1 .2 2.93 3.7 3.7 0 0 1-1.19 2.4 10.65 10.65 0 0 1-3.53 1.6 18.78 18.78 0 0 1-4.77.46 21.43 21.43 0 0 1-4.9-1 22.15 22.15 0 0 0-5-1 21 21 0 0 0-5 .41c-1.37.31-3.59.68-5 .82a48.4 48.4 0 0 1-4.92.21 6.27 6.27 0 0 0-3.75 1.13 6 6 0 0 0-1.43 3.58 41.93 41.93 0 0 0 .07 4.82 44.25 44.25 0 0 0 .74 4.85 33.44 33.44 0 0 1 .64 4.87 65.52 65.52 0 0 1-.44 7.33c-.3 2.69-.56 6-.59 7.37a7 7 0 0 1-1.23 3.84c-.65.75-4.28 1.58-8.07 1.86a95.21 95.21 0 0 1-15.66-.64l-1.58-.25c.06.36.11.7.16 1 .12.8.2 1.48.23 1.86a3.59 3.59 0 0 0 1.17 2.3c.59.46 5 1.35 9.85 2a95.21 95.21 0 0 0 15.66.64c3.79-.28 7.42-1.11 8.07-1.86a7 7 0 0 0 1.23-3.84c0-1.36.29-4.68.59-7.37a65.52 65.52 0 0 0 .44-7.33 33.44 33.44 0 0 0-.64-4.87A44.25 44.25 0 0 1 53 129a41.93 41.93 0 0 1-.07-4.82 6 6 0 0 1 1.43-3.58 6.27 6.27 0 0 1 3.75-1.13 48.4 48.4 0 0 0 4.92-.21c1.36-.14 3.59-.51 5-.82a21 21 0 0 1 5-.41 22.15 22.15 0 0 1 5 1 21.43 21.43 0 0 0 4.9 1 18.78 18.78 0 0 0 4.77-.46 10.65 10.65 0 0 0 3.53-1.6 3.7 3.7 0 0 0 1.19-2.42 25.16 25.16 0 0 0-.2-2.93c-.11-.83-.4-2.24-.63-3.13a23.77 23.77 0 0 1-.56-3.23 22.73 22.73 0 0 1 0-3.23c.08-.89.46-3.1.86-4.91s.26-3.55-.31-3.87a6.79 6.79 0 0 0-3.55-.07 22.05 22.05 0 0 1-5 .32h-.46l-1-.14c-.22.64-.32 1.33-.35 1.72z" fill="url(#a)"/><path d="M55.68 71.66a30 30 0 0 1 3.53.1 24.81 24.81 0 0 1 3.25.6c.86.23 3 .66 4.68.95a20.31 20.31 0 0 0 4.68.3 15.34 15.34 0 0 0 3.12-.87 9.67 9.67 0 0 1 3.12-.65 9.68 9.68 0 0 1 3.12.66 11.9 11.9 0 0 0 3.12.77 11.08 11.08 0 0 0 3.12-.32 29.19 29.19 0 0 1 3.12-.65c.86-.12 3.53-.21 5.93-.2s4.81-.3 5.34-.69a5.73 5.73 0 0 0 1.54-2.13 10.77 10.77 0 0 0 .65-2.94 12.4 12.4 0 0 0-.36-3.14 18.59 18.59 0 0 1-.51-3.23 18 18 0 0 1 .2-3.23 17.48 17.48 0 0 0 .21-3.12A14.45 14.45 0 0 0 103 51a4.86 4.86 0 0 0-1.43-2.14c-.41-.3-3.19-.62-6.81-.82l-1-.05A17.61 17.61 0 0 1 93.6 50a18 18 0 0 0-.2 3.23 18.59 18.59 0 0 0 .51 3.23 12.4 12.4 0 0 1 .36 3.14 10.77 10.77 0 0 1-.65 2.94 5.73 5.73 0 0 1-1.54 2.13c-.53.39-2.93.7-5.34.69s-5.07.08-5.93.2a29.19 29.19 0 0 0-3.12.65 11.08 11.08 0 0 1-3.12.32 11.9 11.9 0 0 1-3.12-.77 9.68 9.68 0 0 0-3.12-.66 9.67 9.67 0 0 0-3.12.65 15.34 15.34 0 0 1-3.12.87 20.31 20.31 0 0 1-4.68-.3c-1.72-.29-3.82-.72-4.68-.95a24.81 24.81 0 0 0-3.25-.6 30 30 0 0 0-3.53-.1 3.42 3.42 0 0 0-2.38.91 3 3 0 0 0 .18 2.43 7.42 7.42 0 0 1 .62 3 6.1 6.1 0 0 1-1.05 2.69 7.25 7.25 0 0 0-1.17 2.52 5.53 5.53 0 0 0 .26 2.52 13.92 13.92 0 0 1 .68 2.64 16.24 16.24 0 0 1 .07 2.87 2.46 2.46 0 0 0 1.12 2.17c.68.37 3.55.48 6.38.23l1.72-.17c-.09-.29-.17-.57-.26-.79 0-.05 0-.12-.05-.18a5.53 5.53 0 0 1-.21-2.34A7.25 7.25 0 0 1 53 80.71 6.1 6.1 0 0 0 54.09 78a7.42 7.42 0 0 0-.62-3 3 3 0 0 1-.18-2.43 3.42 3.42 0 0 1 2.39-.91z" fill="url(#c)"/></svg>