<svg xmlns="http://www.w3.org/2000/svg" xmlns:xlink="http://www.w3.org/1999/xlink" width="200" height="200" viewBox="0 0 200 200"><defs><linearGradient id="a" x1="71.28" y1="154.97" x2="119.6" y2="46.44" gradientUnits="userSpaceOnUse"><stop offset="0" stop-color="#fdba56"/><stop offset="0.02" stop-color="#fbb055"/><stop offset="0.06" stop-color="#f79d54"/><stop offset="0.1" stop-color="#f59253"/><stop offset="0.15" stop-color="#f48e53"/><stop offset="0.3" stop-color="#ed5e4e"/><stop offset="0.47" stop-color="#683a96" stop-opacity="0.5"/><stop offset="0.64" stop-color="#ed872b"/><stop offset="0.79" stop-color="#7b76b6"/><stop offset="0.9" stop-color="#f15f4f"/><stop offset="1" stop-color="#fdba56"/></linearGradient><linearGradient id="b" x1="78.1" y1="72.44" x2="99.32" y2="120.1" gradientUnits="userSpaceOnUse"><stop offset="0" stop-color="#b7151b"/><stop offset="0.02" stop-color="#c52229"/><stop offset="0.06" stop-color="#d7333c"/><stop offset="0.11" stop-color="#e23d47"/><stop offset="0.15" stop-color="#e6404b"/><stop offset="0.3" stop-color="#e98a7b"/><stop offset="0.47" stop-color="#7c78b8"/><stop offset="0.64" stop-color="#00b0b0"/><stop offset="0.79" stop-color="#7b76b6"/><stop offset="1" stop-color="#e7322f"/></linearGradient><linearGradient id="c" x1="107.67" y1="116.51" x2="109.93" y2="121.59" xlink:href="#b"/><linearGradient id="d" x1="122.55" y1="55.3" x2="138.97" y2="92.18" xlink:href="#b"/><linearGradient id="e" x1="132.03" y1="105.46" x2="155.47" y2="158.1" xlink:href="#b"/><linearGradient id="f" x1="84.43" y1="135.18" x2="98.59" y2="166.98" xlink:href="#b"/></defs><title>_</title><path d="M125.77,49.82A68,68,0,0,0,116.36,45c-4.65-2.06-8.68-3.67-9.38-3.82s-4.48-.68-7.94-1.1a44.58,44.58,0,0,0-7.94-.44,25.42,25.42,0,0,0-3.67,1.1A22.37,22.37,0,0,1,83.1,41.9a21.9,21.9,0,0,1-4.45.07,8.94,8.94,0,0,0-.91,0,12.49,12.49,0,0,0-2.81.3,12.81,12.81,0,0,0-3.38,1.6,19.59,19.59,0,0,1-3.87,2,17.42,17.42,0,0,1-4.15.85,8.79,8.79,0,0,0-3.11.88,8.77,8.77,0,0,0-2.34,2.23,24.55,24.55,0,0,1-2.58,3.12,21.56,21.56,0,0,1-3.06,2.44,13.22,13.22,0,0,0-2.48,2.14,13.75,13.75,0,0,0-1.74,2.84c-0.42,1-1.17,2.51-1.68,3.42s-1.41,2.32-2,3.14a33.9,33.9,0,0,1-2.45,3c-0.75.79-2.1,2-3,2.8a8.07,8.07,0,0,0-2,2.69,9.37,9.37,0,0,0-.37,3.54c0.14,1.26.26,3.25,0.27,4.44,0,1.37-.7,7-1.41,11.72-0.78,5.19-1.49,10.85-1.58,12.62a14.28,14.28,0,0,0,.36,4.36A10.88,10.88,0,0,0,36,114.64a22.55,22.55,0,0,1,2.16,2.95,17.66,17.66,0,0,1,1.39,3.11,20.68,20.68,0,0,1,.68,3.42,31.16,31.16,0,0,1,.08,3.93,14.6,14.6,0,0,0,.32,3.52,12.61,12.61,0,0,0,1.32,3.06c0.53,0.82,2,2.83,3.25,4.4a33.75,33.75,0,0,0,3.54,3.9c0.5,0.42,3.19,2.07,7.16,4.33l1.62,0.91c4.4,2.45,8.28,4.43,9,4.67a20.81,20.81,0,0,0,3.19.71c1,0.12,2.6.41,3.57,0.64s2.53,0.69,3.49,1,2.38,0.75,3.28,1a45.14,45.14,0,0,0,5,.65,46.69,46.69,0,0,0,4.75.17c0.79-.05,2.1-0.21,2.88-0.35s2.07-.45,2.83-0.68,4.57-2,9.16-4.22,8.6-4.4,9.37-5a33.47,33.47,0,0,0,3.06-2.6,10.81,10.81,0,0,1,2.57-2,1.43,1.43,0,0,1,1.39.18,1.67,1.67,0,0,1,.61,1.51,8.31,8.31,0,0,0,0,1.51,17.13,17.13,0,0,0,.91,2.54,17.87,17.87,0,0,1,1,2.78,3.55,3.55,0,0,1,0,.61,10.44,10.44,0,0,0,1.22,0,17.62,17.62,0,0,1,2.19,0l0.7,0.07a22.21,22.21,0,0,1,3,.67l0.15,0a11.3,11.3,0,0,0,2.49.38,12.15,12.15,0,0,0,2.64-.38,18.1,18.1,0,0,1,3-.58,12.79,12.79,0,0,1,2.77.1,1.24,1.24,0,0,0,.73-0.13,68.16,68.16,0,0,0,.33-9.45c-0.06-5.13.06-11.05,0.27-13.19s0.36-4.63.35-5.64a32.92,32.92,0,0,0-.29-3.69,28.37,28.37,0,0,1,0-7.94c0.15-1.08.67-3.7,1.17-5.84a27.13,27.13,0,0,0,.78-5.34,8,8,0,0,0-.12-0.93,11.43,11.43,0,0,0-.6-2.21,13.33,13.33,0,0,0-1.53-2.64,9.17,9.17,0,0,0-2-1.72,4.11,4.11,0,0,0-2-.47,7,7,0,0,0-2.51,1,8,8,0,0,1-3.63,1.25,7.59,7.59,0,0,1-3.66-1,10.69,10.69,0,0,0-2.78-1.12,53.65,53.65,0,0,0-9,1.1c-3.2.58-8.42,1.34-9.69,1.1a11.8,11.8,0,0,1-3.46-1.42,8.5,8.5,0,0,0-2.69-1,6.43,6.43,0,0,0-2.55.29,6,6,0,0,0-2,1.28,4.9,4.9,0,0,0-.87,2,11.31,11.31,0,0,0,0,2.64,13.41,13.41,0,0,0,.72,2.73,17.86,17.86,0,0,1,.91,3.22,28.82,28.82,0,0,1,.13,4.57c-0.07,1.68-.06,3.4,0,4a10.2,10.2,0,0,0,.41,2,6.51,6.51,0,0,0,.79,1.48,3,3,0,0,0,1,.76,3.4,3.4,0,0,0,1.3.13c0.52-.06,1.39-0.21,1.91-0.32s1.63-.44,3-0.87l1.16-.36c2.11-.67,3.5-0.82,4.13-0.44a1.13,1.13,0,0,1,.53.77c0,0.26.17,1-2.8,5.6-0.38.59-.77,1.17-1.16,1.71a17,17,0,0,1-3.21,3.65,8.92,8.92,0,0,1-3.35.94,20.77,20.77,0,0,0-3,.43,17.33,17.33,0,0,0-2.65.92,11.28,11.28,0,0,1-3.05.85,30.59,30.59,0,0,1-6-.75c-1.34-.27-2.85-0.65-4.16-1a17.7,17.7,0,0,1-2.23-.79,37.35,37.35,0,0,1-4.1-2.44,16.29,16.29,0,0,1-3.77-3.85c-0.91-1.41-2-5.48-2.45-8.59A76.52,76.52,0,0,1,69,105c0-.8.14-2.12,0.25-2.94a14.17,14.17,0,0,0,0-2.74,20.22,20.22,0,0,0-.62-3.07,14.25,14.25,0,0,1-.51-3.66A13.51,13.51,0,0,1,68.85,89a19.22,19.22,0,0,0,.74-3,15.41,15.41,0,0,0,.08-2.84,6.15,6.15,0,0,1,.69-3.25,7.4,7.4,0,0,1,2.58-2.31,16.14,16.14,0,0,0,2.69-1.92,24.08,24.08,0,0,0,2.56-2.87,12.54,12.54,0,0,1,3.37-3,13.18,13.18,0,0,1,4.38-1.32A35.09,35.09,0,0,0,90,67.82a27.69,27.69,0,0,0,3.6-1.21,9.59,9.59,0,0,1,3.77-.75,7.3,7.3,0,0,1,3.38,1.27,19.76,19.76,0,0,1,2.5,2.27,18.11,18.11,0,0,1,1.92,2.68c0.18,0.32.49,0.81,0.86,1.37,0.47,0.71,1,1.53,1.55,2.23a8.65,8.65,0,0,0,2.74,2.54,11.17,11.17,0,0,0,3.21.42h0.56A26.45,26.45,0,0,1,118,79a30.14,30.14,0,0,1,4.46,1.26,21,21,0,0,0,4.08,1,44.7,44.7,0,0,0,8.22-.86,31,31,0,0,0,7-1.84,2.67,2.67,0,0,0,.75-1.56,7.92,7.92,0,0,0-.38-2.37,11.48,11.48,0,0,0-1.35-2.44A14.27,14.27,0,0,1,139,69.07a15.25,15.25,0,0,1-.73-3.58,7.8,7.8,0,0,0-.93-2.88,12.73,12.73,0,0,0-2.53-2.73,33.93,33.93,0,0,1-3.46-3.2,33.79,33.79,0,0,1-2.87-3.73A17.52,17.52,0,0,0,125.77,49.82Z" fill="url(#a)"/><path d="M104.32,72.58a17.3,17.3,0,0,0-1.79-2.51,18.87,18.87,0,0,0-2.35-2.13,6.37,6.37,0,0,0-2.85-1.08,8.55,8.55,0,0,0-3.3.67,28.46,28.46,0,0,1-3.76,1.27,35.83,35.83,0,0,1-4.23.71,12.24,12.24,0,0,0-4,1.2A11.6,11.6,0,0,0,79,73.44a25,25,0,0,1-2.69,3,17.11,17.11,0,0,1-2.9,2.06,6.49,6.49,0,0,0-2.19,1.94,5.19,5.19,0,0,0-.56,2.65,16.42,16.42,0,0,1-.09,3.06,20.06,20.06,0,0,1-.79,3.18,12.62,12.62,0,0,0-.6,3.28A13.29,13.29,0,0,0,69.66,96a21.22,21.22,0,0,1,.66,3.26,15.2,15.2,0,0,1,0,3c-0.11.78-.22,2.06-0.24,2.84a75.83,75.83,0,0,0,.91,7.54c0.53,3.37,1.56,7.06,2.3,8.2a15.42,15.42,0,0,0,3.5,3.57,36.19,36.19,0,0,0,4,2.36,16.26,16.26,0,0,0,2.09.74,10.24,10.24,0,0,1-.51-1.21,39.74,39.74,0,0,1-1.64-6.72,75.83,75.83,0,0,1-.91-7.54c0-.78.13-2.06,0.24-2.84a15.2,15.2,0,0,0,0-3,21.22,21.22,0,0,0-.66-3.26,13.29,13.29,0,0,1-.47-3.36,12.62,12.62,0,0,1,.6-3.28,20.06,20.06,0,0,0,.79-3.18A16.42,16.42,0,0,0,80.38,90a5.19,5.19,0,0,1,.56-2.65,6.49,6.49,0,0,1,2.19-1.94A17.11,17.11,0,0,0,86,83.39a25,25,0,0,0,2.69-3,11.6,11.6,0,0,1,3.05-2.73,12.24,12.24,0,0,1,4-1.2,35.83,35.83,0,0,0,4.23-.71,28.46,28.46,0,0,0,3.76-1.27c0.14-.06.31-0.12,0.48-0.18a9.45,9.45,0,0,1,1-.29C104.83,73.42,104.5,72.91,104.32,72.58Z" fill="url(#b)"/><path d="M107.13,122.83c0.38-.54.76-1.1,1.13-1.67a22.67,22.67,0,0,0,2.66-4.89c-0.06-.32-1.57-0.11-3.37.46l-1.17.36c0,0.36,0,.71,0,1,0,0.81,0,1.51,0,1.88a11.71,11.71,0,0,0,.3,1.66c0.05,0.21.11,0.4,0.16,0.56A6.21,6.21,0,0,0,107.13,122.83Z" fill="url(#c)"/><path d="M129.33,52.4a32.77,32.77,0,0,0,2.76,3.6,33,33,0,0,0,3.33,3.09,13.75,13.75,0,0,1,2.77,3,8.75,8.75,0,0,1,1.07,3.34,14.3,14.3,0,0,0,.67,3.3,13.35,13.35,0,0,0,1.57,2.89,12.26,12.26,0,0,1,1.49,2.7,8.89,8.89,0,0,1,.43,2.74,3.65,3.65,0,0,1-1.12,2.29c-0.59.5-3.93,1.43-7.43,2.05a44.32,44.32,0,0,1-8.52.87,22,22,0,0,1-4.31-1.09A29,29,0,0,0,117.79,80a25.57,25.57,0,0,0-3.69-.33c0.16,0.27.38,0.62,0.64,1,0.51,0.78,1.17,1.73,1.76,2.55a9.39,9.39,0,0,0,3.21,2.89,12,12,0,0,0,3.58.48,24.84,24.84,0,0,1,4.21.33,29,29,0,0,1,4.28,1.21,22,22,0,0,0,4.31,1.09,44.32,44.32,0,0,0,8.52-.87c3.5-.62,6.84-1.55,7.43-2.05A3.65,3.65,0,0,0,153.16,84a8.89,8.89,0,0,0-.43-2.74,12.26,12.26,0,0,0-1.49-2.7,13.35,13.35,0,0,1-1.57-2.89,14.3,14.3,0,0,1-.67-3.3A8.75,8.75,0,0,0,147.91,69a13.75,13.75,0,0,0-2.77-3,33,33,0,0,1-3.33-3.09,32.77,32.77,0,0,1-2.76-3.6A18.25,18.25,0,0,0,136.13,56a35.79,35.79,0,0,0-5-2.79l-1.85-.89Z" fill="url(#d)"/><path d="M146,100.38a27.66,27.66,0,0,1-.8,5.62c-0.49,2.11-1,4.69-1.16,5.75a27.34,27.34,0,0,0,0,7.66,33.67,33.67,0,0,1,.3,3.83c0,1.05-.15,3.64-0.35,5.75s-0.32,8-.26,13.08-0.15,9.59-.47,10a2,2,0,0,1-1.76.56,12,12,0,0,0-2.51-.09,17.28,17.28,0,0,0-2.79.55,9.84,9.84,0,0,1-5.69,0c0.1,0.32.24,0.71,0.4,1.12s0.27,0.7.42,1a16,16,0,0,1,.91,2.5,2.51,2.51,0,0,1-.07.9,0.49,0.49,0,0,0,.46.53,8.36,8.36,0,0,0,1.9.07,16.84,16.84,0,0,1,2.69.11,21.35,21.35,0,0,1,2.85.64,9.94,9.94,0,0,0,5.85,0,17.28,17.28,0,0,1,2.79-.55,12,12,0,0,1,2.51.09A2,2,0,0,0,153,159c0.32-.42.53-4.93,0.47-10s0.06-11,.26-13.08,0.36-4.69.35-5.75a33.67,33.67,0,0,0-.3-3.83,27.34,27.34,0,0,1,0-7.66c0.14-1.05.66-3.64,1.16-5.75a27.66,27.66,0,0,0,.8-5.62,12.48,12.48,0,0,0-.79-3.47,14.25,14.25,0,0,0-1.67-2.88A10.08,10.08,0,0,0,151,99a5.08,5.08,0,0,0-2.66-.6,6.08,6.08,0,0,0-1.56.47,9.59,9.59,0,0,0-.93.44A9.09,9.09,0,0,1,146,100.38Z" fill="url(#e)"/><path d="M124.84,152.33a8.36,8.36,0,0,1-1.9-.07,0.49,0.49,0,0,1-.46-0.53,2.51,2.51,0,0,0,.07-0.9,16,16,0,0,0-.91-2.5,17.4,17.4,0,0,1-1-2.77,9.13,9.13,0,0,1-.06-1.74c0-.52-0.25-0.82-0.65-0.68a10,10,0,0,0-2.22,1.75,34.3,34.3,0,0,1-3.17,2.7c-0.92.67-5.2,2.94-9.52,5.05s-8.51,4-9.31,4.27-2.12.56-2.94,0.7-2.16.31-3,.36a47.2,47.2,0,0,1-4.9-.17,45.43,45.43,0,0,1-5.11-.67c-0.94-.22-2.47-0.67-3.38-1s-2.44-.77-3.38-1-2.5-.5-3.47-0.62a21.67,21.67,0,0,1-3.38-.75c-0.89-.29-5-2.43-9.18-4.74l-1.63-.92a26.88,26.88,0,0,0,2.34,2.45l0.07,0.06c0.76,0.62,4.78,3,8.93,5.34s8.28,4.45,9.18,4.74a21.67,21.67,0,0,0,3.38.75c1,0.12,2.53.4,3.47,0.62s2.46,0.67,3.38,1,2.44,0.77,3.38,1a45.43,45.43,0,0,0,5.11.67,47.2,47.2,0,0,0,4.9.17c0.83-.05,2.18-0.22,3-0.36s2.14-.46,2.94-0.7,5-2.16,9.31-4.27,8.61-4.39,9.52-5.05c0.43-.32,1-0.75,1.51-1.21,0.37-.32.75-0.64,1.08-0.95A16.62,16.62,0,0,0,124.84,152.33Z" fill="url(#f)"/></svg>