<svg xmlns="http://www.w3.org/2000/svg" xmlns:xlink="http://www.w3.org/1999/xlink" width="200" height="200" viewBox="0 0 200 200"><defs><linearGradient id="b" x1="62.47" y1="161.42" x2="119.77" y2="32.71" gradientUnits="userSpaceOnUse"><stop offset="0" stop-color="#fdba56"/><stop offset=".02" stop-color="#fbb055"/><stop offset=".06" stop-color="#f79d54"/><stop offset=".1" stop-color="#f59253"/><stop offset=".15" stop-color="#f48e53"/><stop offset=".3" stop-color="#ed5e4e"/><stop offset=".47" stop-color="#683a96" stop-opacity=".5"/><stop offset=".64" stop-color="#ed872b"/><stop offset=".79" stop-color="#7b76b6"/><stop offset=".9" stop-color="#f15f4f"/><stop offset="1" stop-color="#fdba56"/></linearGradient><linearGradient id="a" x1="68.67" y1="113.72" x2="87.34" y2="155.65" gradientUnits="userSpaceOnUse"><stop offset="0" stop-color="#b7151b"/><stop offset=".02" stop-color="#c52229"/><stop offset=".06" stop-color="#d7333c"/><stop offset=".11" stop-color="#e23d47"/><stop offset=".15" stop-color="#e6404b"/><stop offset=".3" stop-color="#e98a7b"/><stop offset=".47" stop-color="#7c78b8"/><stop offset=".64" stop-color="#00b0b0"/><stop offset=".79" stop-color="#7b76b6"/><stop offset="1" stop-color="#e7322f"/></linearGradient><linearGradient id="c" x1="72.69" y1="50.54" x2="85.94" y2="80.29" xlink:href="#a"/><linearGradient id="d" x1="117.67" y1="62.61" x2="159.69" y2="157" xlink:href="#a"/></defs><title>_</title><path d="M73 47.84a6 6 0 0 0-1.24-2.79A5.4 5.4 0 0 0 69.05 44a34.84 34.84 0 0 0-4.15-.06 39.73 39.73 0 0 0-4.33.56 22.4 22.4 0 0 1-4.8.32 23.52 23.52 0 0 1-4.77-.96 40.55 40.55 0 0 0-4.57-1.13 45.57 45.57 0 0 0-4.9-.52 4.82 4.82 0 0 0-2.74.59 3.06 3.06 0 0 0 0 2.19 15.77 15.77 0 0 1 .78 4.44 11.94 11.94 0 0 1-.89 4.08 11 11 0 0 0-.8 3.12 10.26 10.26 0 0 0 .41 3.09 26.31 26.31 0 0 1 .85 3.63 24.3 24.3 0 0 1 .2 3.65c0 1-.3 3.37-.58 5.3a25.22 25.22 0 0 0-.29 4.93 14.43 14.43 0 0 0 .87 3.2 10.62 10.62 0 0 1 .74 3.9A11.13 11.13 0 0 1 39 88.21a12.11 12.11 0 0 0-1 3.15 10.57 10.57 0 0 0 .16 3.1c.27 1.12.79 5.35 1.14 8.79s.58 7.75.32 9a18.37 18.37 0 0 1-1.32 3.7 7.62 7.62 0 0 0-.7 3 8.11 8.11 0 0 0 .92 3 10.63 10.63 0 0 1 1.23 3.9 9.82 9.82 0 0 1-.74 3.93 10.87 10.87 0 0 0-.76 3.11 10.21 10.21 0 0 0 .46 3.09 11.13 11.13 0 0 1 0 7.6 14.11 14.11 0 0 0-.67 3.12 11.63 11.63 0 0 0 .26 2.94 2.79 2.79 0 0 0 1.15 1.55 6.27 6.27 0 0 0 2.88.18 23.76 23.76 0 0 1 4.64-.19 26 26 0 0 1 4.69.91 19.93 19.93 0 0 0 4.26.72 19.35 19.35 0 0 0 4.27-.45c1.28-.31 3.28-.68 4.45-.83a39.23 39.23 0 0 1 4.09-.26 4.9 4.9 0 0 0 2.57-.91 8.8 8.8 0 0 0 1.88-3.1 22.53 22.53 0 0 0 1-4.62 26 26 0 0 0-.23-5c-.25-1.52-.49-4-.55-5.49a54.8 54.8 0 0 1 .11-5.49 49.47 49.47 0 0 0 .08-5.35c-.08-1.51-.36-4-.62-5.59s-.14-3.91.66-5c1-1.37 4.62-1.42 6.58-1.23 2.52.24 5.6.41 6.73.36s4-.39 6.33-.75 5.4-.75 6.71-.83c.76 0 1.83-.07 2.86-.07h2.07a5.77 5.77 0 0 1 4.29 2.12c.78 1.22.9 3.6.62 5.23 0 .23-.08.53-.13.86-.27 1.93-.55 5-.7 7.51a85.53 85.53 0 0 0 .17 10.73c.28 3 .5 6.68.5 8.23s-.16 4.14-.35 5.75a6.89 6.89 0 0 0 .55 3.74 4.59 4.59 0 0 0 2.82 1.4 40.63 40.63 0 0 0 4.7.17h.6c1.73-.18 5.28-.77 8.43-1.42a61.4 61.4 0 0 1 9.36-1.35 26.58 26.58 0 0 1 4.91.71 5.22 5.22 0 0 0 2.56.11 2.17 2.17 0 0 0 .11-1.41 32.2 32.2 0 0 1-.57-3.8c-.09-1.16.05-6.29.24-10.58a104.77 104.77 0 0 1 1.14-12.29 26.32 26.32 0 0 0 .63-4.94 14.14 14.14 0 0 0-.62-3.19 14.5 14.5 0 0 1-.67-3.77 14.27 14.27 0 0 1 .56-3.78 15.18 15.18 0 0 0 .56-3.21 14.68 14.68 0 0 0-.32-3.19c-.23-1-.53-2.59-.65-3.56s-.26-2.58-.29-3.57a28.84 28.84 0 0 1 .17-3.62 30.29 30.29 0 0 1 .72-3.61c.25-.91.58-2.44.72-3.35s.29-2.44.32-3.35a24.93 24.93 0 0 0-.16-3.3 26.32 26.32 0 0 0-.7-3.31 27.87 27.87 0 0 1-.76-3.62 26.44 26.44 0 0 1-.15-3.63c0-.8-.16-4.43-.51-8.54-.22-2.62-.36-5.42-.37-7.29a14.19 14.19 0 0 1 .07-1.81 31.28 31.28 0 0 1 1-4.27 2.9 2.9 0 0 0 .12-1.61 6.71 6.71 0 0 0-2.6.48 24.26 24.26 0 0 1-5.29 1.24 18.45 18.45 0 0 1-5-.36c-1.22-.29-4.23-.79-6.71-1.1a64.88 64.88 0 0 0-6.63-.52c-1.2 0-3.13.16-4.31.32a4.18 4.18 0 0 0-2.39 1.14 4.69 4.69 0 0 0-.32 2.78 26.51 26.51 0 0 1 .33 4.77 28.46 28.46 0 0 1-.71 4.84 26.35 26.35 0 0 0-.64 4.47 25.76 25.76 0 0 0 .32 4.47 31.18 31.18 0 0 1 .42 4.8 28.83 28.83 0 0 1-.5 4.68 9.88 9.88 0 0 1-1.94 4 8.54 8.54 0 0 1-3.86 2.16 30.45 30.45 0 0 1-4.25.65 32.29 32.29 0 0 1-4.39-.08c-1.16-.11-3-.21-4.2-.22s-3 .07-4.2.17a29 29 0 0 1-3 .07c-.5 0-1 0-1.36-.07a26.24 26.24 0 0 1-4.12-.77A8.35 8.35 0 0 1 75 79.1c-1-1.14-2-5.71-2.41-8.51a63.54 63.54 0 0 1-.93-9.24 30.06 30.06 0 0 1 .78-4.88 28.45 28.45 0 0 0 .73-4.41 21.53 21.53 0 0 0 0-2.15c-.03-.78-.09-1.53-.17-2.07z" fill="url(#b)"/><path d="M108.75 115.42a7.64 7.64 0 0 0-.48-4.51 4.86 4.86 0 0 0-3.5-1.66c-1.38-.06-3.55 0-4.83 0s-4.26.45-6.62.82-5.26.71-6.44.76a67.81 67.81 0 0 1-6.88-.33c-2.6-.25-5.16.12-5.69.83a6.67 6.67 0 0 0-.47 4.2c.27 1.6.56 4.17.64 5.71a50.78 50.78 0 0 1-.08 5.48c-.12 1.48-.17 3.89-.11 5.37s.3 3.89.54 5.37a26.74 26.74 0 0 1 .24 5.21 23.33 23.33 0 0 1-1 4.87 9.73 9.73 0 0 1-2.17 3.52 5.65 5.65 0 0 1-3.23 1.16 35.67 35.67 0 0 0-4 .25c-1.14.15-3.1.51-4.35.81a20.52 20.52 0 0 1-4.54.47 20.85 20.85 0 0 1-4.52-.77 25 25 0 0 0-4.41-.86c-.07.36-.12.69-.16 1v.39a12.63 12.63 0 0 0 .29 3.25A3.75 3.75 0 0 0 48.7 159a7.12 7.12 0 0 0 3.47.27 22.5 22.5 0 0 1 4.4-.18A24.92 24.92 0 0 1 61 160a20.85 20.85 0 0 0 4.52.77 20.52 20.52 0 0 0 4.54-.47c1.25-.3 3.21-.67 4.35-.81a35.67 35.67 0 0 1 4-.25 5.65 5.65 0 0 0 3.22-1.24 9.73 9.73 0 0 0 2.17-3.52 23.33 23.33 0 0 0 1-4.87 26.74 26.74 0 0 0-.24-5.21c-.24-1.48-.48-3.89-.54-5.37s0-3.89.11-5.37a50.78 50.78 0 0 0 .08-5.48c-.08-1.54-.36-4.11-.64-5.71a6.67 6.67 0 0 1 .47-4.2c.53-.71 3.09-1.08 5.69-.83a67.81 67.81 0 0 0 6.87.36c1.18-.05 4.08-.39 6.44-.76 1.47-.23 3.16-.46 4.55-.62l1-.11c.08-.31.12-.64.16-.89z" fill="url(#a)"/><path d="M74.17 49.88v2.26a29.43 29.43 0 0 1-.76 4.6 28.87 28.87 0 0 0-.75 4.68 64.23 64.23 0 0 0 .92 9c.58 3.68 1.56 7.29 2.19 8a7.35 7.35 0 0 0 3 1.89 25.11 25.11 0 0 0 3.93.74c.36 0 .82.05 1.29.07-.08-.32-.15-.67-.22-1-.19-.89-.37-1.81-.52-2.76a64.23 64.23 0 0 1-.92-9 28.87 28.87 0 0 1 .75-4.68 29.43 29.43 0 0 0 .76-4.6 25.46 25.46 0 0 0-.17-4.44 6.85 6.85 0 0 0-1.53-3.36 6.31 6.31 0 0 0-3.32-1.37 35.53 35.53 0 0 0-3.68-.08h-.61z" fill="url(#c)"/><path d="M143.92 58.29c.32 3.81.55 7.71.51 8.67a25.13 25.13 0 0 0 .15 3.47 26.68 26.68 0 0 0 .73 3.46 27.3 27.3 0 0 1 .74 3.46 25.67 25.67 0 0 1 .17 3.46c0 1-.18 2.51-.33 3.47s-.48 2.51-.75 3.47a29.33 29.33 0 0 0-.69 3.47 27.71 27.71 0 0 0-.17 3.47c0 1 .15 2.51.28 3.47s.41 2.51.64 3.46a15.61 15.61 0 0 1 .34 3.46 16.11 16.11 0 0 1-.6 3.46 13.36 13.36 0 0 0-.51 3.47 13.57 13.57 0 0 0 .62 3.47 15.18 15.18 0 0 1 .68 3.47 27.29 27.29 0 0 1-.66 5.2 104.38 104.38 0 0 0-1.12 12.13c-.21 4.76-.32 9.47-.24 10.46a31.14 31.14 0 0 0 .55 3.65 2.53 2.53 0 0 1-.56 2.48 5.44 5.44 0 0 1-3.34 0 25.45 25.45 0 0 0-4.69-.68 61.87 61.87 0 0 0-9.13 1.33c-3.25.66-6.79 1.25-8.53 1.43 0 .2 0 .4-.06.57s0 .29 0 .44a7.42 7.42 0 0 0 .76 4 5.51 5.51 0 0 0 3.54 1.83 40.43 40.43 0 0 0 4.85.17 87.39 87.39 0 0 0 9.19-1.48 61.87 61.87 0 0 1 9.13-1.33 25.45 25.45 0 0 1 4.69.68 5.44 5.44 0 0 0 3.34 0 2.53 2.53 0 0 0 .56-2.48 31.14 31.14 0 0 1-.55-3.65c-.08-1 0-5.69.24-10.46a104.38 104.38 0 0 1 1.12-12.13 27.29 27.29 0 0 0 .66-5.2 15.18 15.18 0 0 0-.68-3.47 13.57 13.57 0 0 1-.62-3.47 13.36 13.36 0 0 1 .51-3.47 16.11 16.11 0 0 0 .6-3.46 15.61 15.61 0 0 0-.34-3.46c-.22-1-.51-2.51-.64-3.46s-.25-2.51-.28-3.47a27.71 27.71 0 0 1 .17-3.47 29.33 29.33 0 0 1 .69-3.47c.26-1 .6-2.51.75-3.47s.29-2.51.33-3.47a25.67 25.67 0 0 0-.17-3.46 27.3 27.3 0 0 0-.74-3.46 26.68 26.68 0 0 1-.73-3.46 25.13 25.13 0 0 1-.15-3.47c0-1-.19-4.85-.51-8.67a65.39 65.39 0 0 1-.3-8.88 30 30 0 0 1 1-4.1c.39-1.19.27-2.42-.25-2.75s-2.12-.16-3.54.38a23.11 23.11 0 0 1-5 1.18h-1.94c-.07 1.78.06 4.54.28 7.21z" fill="url(#d)"/></svg>