<svg xmlns="http://www.w3.org/2000/svg" xmlns:xlink="http://www.w3.org/1999/xlink" width="200" height="200" viewBox="0 0 200 200"><defs><linearGradient id="a" x1="68.3" y1="149.36" x2="113.23" y2="48.45" gradientUnits="userSpaceOnUse"><stop offset="0" stop-color="#fdba56"/><stop offset="0.02" stop-color="#fbb055"/><stop offset="0.06" stop-color="#f79d54"/><stop offset="0.1" stop-color="#f59253"/><stop offset="0.15" stop-color="#f48e53"/><stop offset="0.3" stop-color="#ed5e4e"/><stop offset="0.47" stop-color="#683a96" stop-opacity="0.5"/><stop offset="0.64" stop-color="#ed872b"/><stop offset="0.79" stop-color="#7b76b6"/><stop offset="0.9" stop-color="#f15f4f"/><stop offset="1" stop-color="#fdba56"/></linearGradient><linearGradient id="b" x1="80.81" y1="61.91" x2="123.46" y2="157.71" gradientUnits="userSpaceOnUse"><stop offset="0" stop-color="#b7151b"/><stop offset="0.02" stop-color="#c52229"/><stop offset="0.06" stop-color="#d7333c"/><stop offset="0.11" stop-color="#e23d47"/><stop offset="0.15" stop-color="#e6404b"/><stop offset="0.3" stop-color="#e98a7b"/><stop offset="0.47" stop-color="#7c78b8"/><stop offset="0.64" stop-color="#00b0b0"/><stop offset="0.79" stop-color="#7b76b6"/><stop offset="1" stop-color="#e7322f"/></linearGradient></defs><title>_</title><path d="M106.4,50.11V49.84a18.6,18.6,0,0,1,.23-3.07,1.8,1.8,0,0,0-.34-1.3,5.8,5.8,0,0,0-2.32-1,31.4,31.4,0,0,0-3.94-.42,39.09,39.09,0,0,0-4.26.17,27.3,27.3,0,0,1-4.75,0,29.13,29.13,0,0,1-4.74-1,17.68,17.68,0,0,0-4.17-.7H82a15.73,15.73,0,0,0-3.91.59A11.16,11.16,0,0,0,75,44.73a5.89,5.89,0,0,0-1.51,2.17c-0.26.8-.63,2.19-0.81,3s-0.4,2.35-.48,3.26a30.77,30.77,0,0,0-.09,3.33c0,0.81.64,5.13,1.5,10.27,0.72,4.29,1.47,9.41,1.49,10.54a61.85,61.85,0,0,1-.82,7.11c-0.45,2.79-.88,5.92-0.93,6.83a31.63,31.63,0,0,0,0,3.33c0.07,1,.09,2.6,0,3.58s-0.21,2.59-.38,3.58-0.32,2.45-.38,3.37,0,4,0,6.84,0,8.38-.27,12.22a81.57,81.57,0,0,0-.21,8.47A25.19,25.19,0,0,0,73,136c0.29,1,.68,2.59.86,3.57s0.38,2.6.44,3.58,0.07,3.33,0,5.24a7.44,7.44,0,0,0,.67,3.75,6.84,6.84,0,0,0,2.79,1.25,26.46,26.46,0,0,0,4.3.44l0.9,0a27.36,27.36,0,0,0,3.43-.41,31.52,31.52,0,0,1,4.73-.51,31,31,0,0,1,4.73.37,36.68,36.68,0,0,0,4.42.42,37.17,37.17,0,0,0,4.46-.24,5.45,5.45,0,0,0,2.64-1,2.61,2.61,0,0,0,.28-1.92,12.92,12.92,0,0,1-.24-3.91,13.93,13.93,0,0,1,1.17-3.82,16.25,16.25,0,0,0,1.13-3.22,13.57,13.57,0,0,0,.19-3.18,23.66,23.66,0,0,0-.58-3.29,27.07,27.07,0,0,0-1.18-3.31,12.26,12.26,0,0,1-.93-3.83,11.79,11.79,0,0,1,.63-3.85,17.91,17.91,0,0,0,.79-3.25,16.28,16.28,0,0,0,0-3.22,25.4,25.4,0,0,1,.15-7.21,21.76,21.76,0,0,0,.23-3.28c0-.81-0.55-5.13-1.3-10.27-0.63-4.29-1.15-9.51-.89-10.75a14.69,14.69,0,0,1,1.53-3.77,7.37,7.37,0,0,0,.93-3,7.15,7.15,0,0,0-.82-3,9.15,9.15,0,0,1-1.09-4,9.34,9.34,0,0,1,1.2-4,8.57,8.57,0,0,0,1-3,7.59,7.59,0,0,0-.57-3,38.08,38.08,0,0,1-1.37-3.58,33.86,33.86,0,0,1-.87-3.59A28,28,0,0,1,106.4,50.11Z" fill="url(#a)"/><path d="M119.14,150.13a17.23,17.23,0,0,0,1.21-3.47,14.57,14.57,0,0,0,.2-3.47,24.47,24.47,0,0,0-.61-3.46,27.93,27.93,0,0,0-1.23-3.46,11.31,11.31,0,0,1-.84-3.46,10.83,10.83,0,0,1,.57-3.47,18.83,18.83,0,0,0,.85-3.47,17.27,17.27,0,0,0,0-3.47,24.44,24.44,0,0,1,.14-6.93,22.54,22.54,0,0,0,.24-3.46c0-1-.61-5.63-1.31-10.4s-1.1-9.44-.9-10.4a13.79,13.79,0,0,1,1.41-3.47,8.33,8.33,0,0,0,1.07-3.46,8.11,8.11,0,0,0-1-3.46,8.14,8.14,0,0,1-1-3.46,8.35,8.35,0,0,1,1.06-3.47,9.48,9.48,0,0,0,1.16-3.47,8.55,8.55,0,0,0-.66-3.47,36.92,36.92,0,0,1-1.32-3.47,32.76,32.76,0,0,1-.84-3.47,26.3,26.3,0,0,1-.33-3.27,17.74,17.74,0,0,1,.21-2.87,2.75,2.75,0,0,0-.62-2.19,6.58,6.58,0,0,0-2.84-1.23,32,32,0,0,0-4.09-.44c-0.38,0-.86,0-1.36,0l-1,0a27.2,27.2,0,0,0,.32,3,32.76,32.76,0,0,0,.84,3.47A36.92,36.92,0,0,0,109.88,60a8.55,8.55,0,0,1,.66,3.47A9.48,9.48,0,0,1,109.37,67a8.35,8.35,0,0,0-1.06,3.47,8.14,8.14,0,0,0,1,3.46,8.11,8.11,0,0,1,1,3.46,8.33,8.33,0,0,1-1.07,3.46,13.79,13.79,0,0,0-1.41,3.47c-0.21,1,.2,5.63.9,10.4s1.29,9.44,1.31,10.4a22.54,22.54,0,0,1-.24,3.46,24.44,24.44,0,0,0-.14,6.93,17.27,17.27,0,0,1,0,3.47,18.83,18.83,0,0,1-.85,3.47,10.83,10.83,0,0,0-.57,3.47,11.31,11.31,0,0,0,.84,3.46,27.93,27.93,0,0,1,1.23,3.46,24.47,24.47,0,0,1,.61,3.46,14.57,14.57,0,0,1-.2,3.47,17.23,17.23,0,0,1-1.21,3.47,13,13,0,0,0-1.07,3.49,12,12,0,0,0,.22,3.55,3.51,3.51,0,0,1-.51,2.83,6.22,6.22,0,0,1-3.25,1.33,38.17,38.17,0,0,1-4.61.25,37.46,37.46,0,0,1-4.56-.43,30,30,0,0,0-4.54-.35,30.3,30.3,0,0,0-4.55.49,28.44,28.44,0,0,1-3.57.43c0,0.17,0,.34,0,0.51s0,0.33,0,.5c0,1.72.42,3.45,1,4a7.67,7.67,0,0,0,3.31,1.53,27.23,27.23,0,0,0,4.5.45,27.86,27.86,0,0,0,4.53-.46,30.3,30.3,0,0,1,4.55-.49,30,30,0,0,1,4.54.35,37.46,37.46,0,0,0,4.56.43,38.17,38.17,0,0,0,4.61-.25,6.22,6.22,0,0,0,3.25-1.33,3.51,3.51,0,0,0,.51-2.83,12,12,0,0,1-.22-3.55A13,13,0,0,1,119.14,150.13Z" fill="url(#b)"/></svg>