<svg xmlns="http://www.w3.org/2000/svg" xmlns:xlink="http://www.w3.org/1999/xlink" width="96.8" height="200" viewBox="0 0 96.8 200"><defs><linearGradient id="b" x1="15.57" y1="157.19" x2="60.96" y2="55.24" gradientUnits="userSpaceOnUse"><stop offset="0" stop-color="#fdba56"/><stop offset=".02" stop-color="#fbb055"/><stop offset=".06" stop-color="#f79d54"/><stop offset=".1" stop-color="#f59253"/><stop offset=".15" stop-color="#f48e53"/><stop offset=".3" stop-color="#ed5e4e"/><stop offset=".47" stop-color="#683a96" stop-opacity=".5"/><stop offset=".64" stop-color="#ed872b"/><stop offset=".79" stop-color="#7b76b6"/><stop offset=".9" stop-color="#f15f4f"/><stop offset="1" stop-color="#fdba56"/></linearGradient><linearGradient id="a" x1="25.33" y1="52.3" x2="55.85" y2="120.84" gradientUnits="userSpaceOnUse"><stop offset="0" stop-color="#b7151b"/><stop offset=".02" stop-color="#c52229"/><stop offset=".06" stop-color="#d7333c"/><stop offset=".11" stop-color="#e23d47"/><stop offset=".15" stop-color="#e6404b"/><stop offset=".3" stop-color="#e98a7b"/><stop offset=".47" stop-color="#7c78b8"/><stop offset=".64" stop-color="#00b0b0"/><stop offset=".79" stop-color="#7b76b6"/><stop offset="1" stop-color="#e7322f"/></linearGradient><linearGradient id="c" x1="47.61" y1="135.33" x2="63.42" y2="170.84" xlink:href="#a"/></defs><title>_</title><path d="M35.74 47.45c-.07-.33-.15-.66-.22-1A7.57 7.57 0 0 0 34 43.26a36.74 36.74 0 0 0-7.13-2 46.6 46.6 0 0 0-8.34-1.1 18.86 18.86 0 0 0-4.27 1 20.87 20.87 0 0 1-4.85 1.1 20.39 20.39 0 0 1-4.93-.33 7 7 0 0 0-1.43-.14 4.12 4.12 0 0 0-1.51.21 2.68 2.68 0 0 0-1 1.73c-.13 1-.25 2.56-.28 3.5s0 2.49.1 3.4A26.86 26.86 0 0 0 .91 54 30 30 0 0 0 2 57.29 17.77 17.77 0 0 1 3 61a45 45 0 0 1-.39 7.17 55.13 55.13 0 0 0-.48 6.74 26.12 26.12 0 0 0 .52 3.31 33.67 33.67 0 0 1 .61 3.6 32.23 32.23 0 0 1 .12 3.6 17.7 17.7 0 0 1-.61 3.71 21.46 21.46 0 0 1-1.59 3.67A13.1 13.1 0 0 0 0 96a10.77 10.77 0 0 0 0 3.11c.17 1 .36 2.58.44 3.56s0 4.12-.21 7.07a41 41 0 0 0 0 6.67 15.11 15.11 0 0 0 1.13 3.2 15.53 15.53 0 0 1 1.27 3.75 13.41 13.41 0 0 1 0 3.8c-.16.92-.46 4.05-.67 6.84a68.25 68.25 0 0 1-.82 7.08 34.64 34.64 0 0 0-.58 3.46c-.1 1-.18 2.68-.17 3.71a4.29 4.29 0 0 0 .78 2.38 4.87 4.87 0 0 0 2.47 1 29.8 29.8 0 0 0 3.82.07c.42 0 1-.09 1.59-.18s1.44-.24 1.92-.35a18.37 18.37 0 0 1 3.8-.45 18.45 18.45 0 0 1 3.82.53 11.67 11.67 0 0 0 3.25.3 12.82 12.82 0 0 0 3.28-.85 28.54 28.54 0 0 1 3.75-1.27 25.44 25.44 0 0 1 3.77-.57 35.41 35.41 0 0 1 3.72 0 69.25 69.25 0 0 1 7.35 1.44 61.79 61.79 0 0 0 7 1.36 18.07 18.07 0 0 0 3.37-.22 25.68 25.68 0 0 1 3.77-.34 25.67 25.67 0 0 1 3.77.34 16 16 0 0 0 3.34.17 17.06 17.06 0 0 0 3.35-.69 15.88 15.88 0 0 1 3.88-.71 15.44 15.44 0 0 1 3.89.48 11.13 11.13 0 0 0 3.09.35 8.89 8.89 0 0 0 2.71-.74 13.1 13.1 0 0 0 2.35-1.57 10.9 10.9 0 0 0 1.67-2 7.15 7.15 0 0 0 .8-2.28 32 32 0 0 0-.82-6c-.57-2.76-1.08-5.6-1.15-6.48v-.26c-.06-.88-.09-2-.08-2.75a4.09 4.09 0 0 0-.46-1.84 4.6 4.6 0 0 0-1.56-1.26 8.85 8.85 0 0 0-2.44-.65 36.5 36.5 0 0 0-5.84.82 31.09 31.09 0 0 1-6.55.78 16 16 0 0 1-3.37-.85 7.08 7.08 0 0 0-2.66-.39 8.25 8.25 0 0 0-2.71.94 16.18 16.18 0 0 1-3.44 1.49 13.16 13.16 0 0 1-3.43.38 15.45 15.45 0 0 1-3.38-.63 19.23 19.23 0 0 1-3.33-1.53l-.1-.05a8.4 8.4 0 0 0-2.68-.92 8.24 8.24 0 0 0-2.89.36 4 4 0 0 1-3.46-.23 4.44 4.44 0 0 1-1.1-3.38 35.81 35.81 0 0 0-.08-3.6 33.29 33.29 0 0 0-.52-3.48 12.7 12.7 0 0 1-.13-3.9 14.61 14.61 0 0 1 1.29-3.85 8 8 0 0 0 .78-3.07 8.17 8.17 0 0 0-.87-3.08 10.75 10.75 0 0 1-1.17-4 10.18 10.18 0 0 1 .82-4 28 28 0 0 0 1.25-3.39 24.25 24.25 0 0 0 .63-3.37 13.9 13.9 0 0 0-.14-3.26A16.5 16.5 0 0 0 36 79.73a18.83 18.83 0 0 1-1.29-3.78 49.53 49.53 0 0 1-.25-7.31c.07-3 .25-6.18.41-7.21a26.43 26.43 0 0 1 .91-3.71 18.55 18.55 0 0 0 .73-3.32 17.27 17.27 0 0 0-.06-3.31c-.11-.73-.4-2.22-.71-3.64z" fill="url(#b)"/><path d="M36.71 47.24c.31 1.41.61 2.93.72 3.72a18.23 18.23 0 0 1 .06 3.54 19.54 19.54 0 0 1-.77 3.5 25.29 25.29 0 0 0-.87 3.54c-.15 1-.33 4.16-.4 7.08a48.88 48.88 0 0 0 .23 7.08 18 18 0 0 0 1.21 3.54 17.46 17.46 0 0 1 1.2 3.54 14.89 14.89 0 0 1 .17 3.54 25 25 0 0 1-.66 3.54 28.8 28.8 0 0 1-1.3 3.54 9.19 9.19 0 0 0-.74 3.6 9.77 9.77 0 0 0 1 3.54 9.11 9.11 0 0 1 1 3.54 8.92 8.92 0 0 1-.9 3.54 13.72 13.72 0 0 0-1.19 3.54 11.73 11.73 0 0 0 .12 3.54 34.15 34.15 0 0 1 .54 3.6 36.48 36.48 0 0 1 .08 3.72 3.61 3.61 0 0 0 .74 2.54 3.1 3.1 0 0 0 2.51.06 9.18 9.18 0 0 1 3.32-.41 9.38 9.38 0 0 1 3.06 1c0-.33-.08-.74-.13-1.16-.11-.85-.27-1.79-.41-2.44a11.73 11.73 0 0 1-.12-3.54 13.72 13.72 0 0 1 1.19-3.54 8.92 8.92 0 0 0 .9-3.54 9.11 9.11 0 0 0-1-3.54 9.77 9.77 0 0 1-1-3.54 9.19 9.19 0 0 1 .73-3.51 28.8 28.8 0 0 0 1.3-3.54 25 25 0 0 0 .7-3.54 14.89 14.89 0 0 0-.17-3.54 17.46 17.46 0 0 0-1.2-3.54 18 18 0 0 1-1.21-3.54 48.88 48.88 0 0 1-.23-7.08c.07-2.92.25-6.11.4-7.08a25.29 25.29 0 0 1 .84-3.54 19.54 19.54 0 0 0 .78-3.54 18.23 18.23 0 0 0-.06-3.54c-.13-1-.56-3.09-.95-4.71a8 8 0 0 0-1.88-3.79 30 30 0 0 0-6.53-1.94l-1-.21z" fill="url(#a)"/><path d="M10.1 158.24a5.71 5.71 0 0 0 3.1 1.28 30.58 30.58 0 0 0 4 .07 25.21 25.21 0 0 0 3.68-.56 17.09 17.09 0 0 1 3.55-.42 17.61 17.61 0 0 1 3.58.49 12.73 12.73 0 0 0 3.59.33 13.84 13.84 0 0 0 3.59-.92 27.51 27.51 0 0 1 3.59-1.21 24.21 24.21 0 0 1 3.59-.54 34.26 34.26 0 0 1 3.59 0 68.65 68.65 0 0 1 7.19 1.42 62.34 62.34 0 0 0 7.19 1.39 18.93 18.93 0 0 0 3.59-.23 24.52 24.52 0 0 1 3.59-.32 24.49 24.49 0 0 1 3.59.32 17 17 0 0 0 3.59.18 18 18 0 0 0 3.59-.74 15 15 0 0 1 3.59-.66 14.61 14.61 0 0 1 3.59.44 12.23 12.23 0 0 0 3.42.38 9.82 9.82 0 0 0 3.09-.85 14.13 14.13 0 0 0 2.56-1.72 11.77 11.77 0 0 0 1.86-2.23 8.12 8.12 0 0 0 .93-2.67 31.53 31.53 0 0 0-.83-6.28c-.56-2.67-1.07-5.53-1.14-6.36s-.11-2.14-.09-2.91a5 5 0 0 0-.62-2.41 5.5 5.5 0 0 0-2-1.63 9.77 9.77 0 0 0-2.78-.74 19.92 19.92 0 0 0-3.26.33l-1 .16v.25c.07.83.58 3.69 1.14 6.36a31.53 31.53 0 0 1 .83 6.28 8.12 8.12 0 0 1-.93 2.67 11.77 11.77 0 0 1-1.86 2.23 14.13 14.13 0 0 1-2.56 1.72 9.82 9.82 0 0 1-3.09.85 12.23 12.23 0 0 1-3.42-.38 14.61 14.61 0 0 0-3.59-.44 15 15 0 0 0-3.59.66 18 18 0 0 1-3.59.74 17 17 0 0 1-3.59-.18 24.49 24.49 0 0 0-3.59-.32 24.52 24.52 0 0 0-3.59.32 18.93 18.93 0 0 1-3.59.23 62.34 62.34 0 0 1-7.19-1.39 68.65 68.65 0 0 0-7.19-1.42 34.26 34.26 0 0 0-3.59 0 24.21 24.21 0 0 0-3.59.54 27.51 27.51 0 0 0-3.59 1.21 13.84 13.84 0 0 1-3.59.92 12.73 12.73 0 0 1-3.59-.33 17.61 17.61 0 0 0-3.58-.49 17.09 17.09 0 0 0-3.55.42c-.54.13-1.28.27-2 .37 0 .33 0 .67-.05 1v1.7a5.16 5.16 0 0 0 1.02 3.09z" fill="url(#c)"/></svg>