<svg xmlns="http://www.w3.org/2000/svg" xmlns:xlink="http://www.w3.org/1999/xlink" width="151.3" height="200" viewBox="0 0 151.3 200"><defs><linearGradient id="b" x1="46.01" y1="164.08" x2="107.05" y2="27" gradientUnits="userSpaceOnUse"><stop offset="0" stop-color="#fdba56"/><stop offset=".02" stop-color="#fbb055"/><stop offset=".06" stop-color="#f79d54"/><stop offset=".1" stop-color="#f59253"/><stop offset=".15" stop-color="#f48e53"/><stop offset=".3" stop-color="#ed5e4e"/><stop offset=".47" stop-color="#683a96" stop-opacity=".5"/><stop offset=".64" stop-color="#ed872b"/><stop offset=".79" stop-color="#7b76b6"/><stop offset=".9" stop-color="#f15f4f"/><stop offset="1" stop-color="#fdba56"/></linearGradient><linearGradient id="a" x1="113.14" y1="57.49" x2="156.33" y2="154.51" gradientUnits="userSpaceOnUse"><stop offset="0" stop-color="#b7151b"/><stop offset=".02" stop-color="#c52229"/><stop offset=".06" stop-color="#d7333c"/><stop offset=".11" stop-color="#e23d47"/><stop offset=".15" stop-color="#e6404b"/><stop offset=".3" stop-color="#e98a7b"/><stop offset=".47" stop-color="#7c78b8"/><stop offset=".64" stop-color="#00b0b0"/><stop offset=".79" stop-color="#7b76b6"/><stop offset="1" stop-color="#e7322f"/></linearGradient><linearGradient id="c" x1="57.22" y1="49.16" x2="81.41" y2="103.48" xlink:href="#a"/><linearGradient id="d" x1="79.94" y1="90.97" x2="107.68" y2="153.28" xlink:href="#a"/><linearGradient id="e" x1="21.22" y1="92.1" x2="50.6" y2="158.09" xlink:href="#a"/></defs><title>_</title><path d="M57.58 49.48c0-.16-.1-.34-.16-.53a17.17 17.17 0 0 0-1.32-3 12.07 12.07 0 0 0-1.85-2.38A2.86 2.86 0 0 0 53 43c-.67 0-3.78-.2-6.37-.44s-5.86-.6-6.76-.78a27.06 27.06 0 0 1-2.87-.8 6.94 6.94 0 0 0-2.33-.31 7.8 7.8 0 0 0-2.37.72 24 24 0 0 1-2.89 1.24 20 20 0 0 1-2.92.7 21.79 21.79 0 0 1-2.91.18 46 46 0 0 1-5.58-.94 13.52 13.52 0 0 0-3.85-.36A59.55 59.55 0 0 0 13 50.84a75.82 75.82 0 0 0-.36 10.09 19.77 19.77 0 0 0 1 3.26 10.52 10.52 0 0 1 .79 3.9 10.94 10.94 0 0 1-1 3.88 7.6 7.6 0 0 0-.7 3 8.06 8.06 0 0 0 .92 3 8.61 8.61 0 0 1 1 4 9.19 9.19 0 0 1-1.41 4A10.45 10.45 0 0 0 11.93 89a7.91 7.91 0 0 0 .16 3c.29 1 .66 2.59.83 3.58.19 1.14.27 6.27.23 10.58 0 5.14 0 9.46.14 10.26a22 22 0 0 0 .75 3.28 26.75 26.75 0 0 1 .86 3.63 25 25 0 0 1 .22 3.64c0 .91.11 3.23.29 5.07a26.33 26.33 0 0 1 0 5.47 16.5 16.5 0 0 1-1.22 3.73 13.39 13.39 0 0 0-1 3.13 10.53 10.53 0 0 0 .07 3 5.6 5.6 0 0 0 1.21 2.28 8.58 8.58 0 0 0 2.7 1.57 9.88 9.88 0 0 0 3.51.39 7.06 7.06 0 0 0 .92-.18 13.14 13.14 0 0 0 2.77-1.05 15.26 15.26 0 0 1 4.45-1.52 13.12 13.12 0 0 1 4.49.31 28.05 28.05 0 0 0 3.82.73 22.64 22.64 0 0 0 3.6 0 5.08 5.08 0 0 0 2.48-1.08 7.84 7.84 0 0 0 1.58-2.91 26.73 26.73 0 0 0 .76-4.25 28.53 28.53 0 0 0-.09-4.42 42.13 42.13 0 0 1-.21-4.84 42.59 42.59 0 0 1 .46-4.83c.21-1.27.44-3.32.51-4.59s.07-3.33 0-4.6-.25-3.06-.39-4a15.6 15.6 0 0 0-.65-2.58 9.57 9.57 0 0 1-.56-2.46 9.26 9.26 0 0 1 .25-2.49 4 4 0 0 0 0-1.64 5.9 5.9 0 0 0-1-1.73 11.88 11.88 0 0 1-1.48-2.33 8.36 8.36 0 0 1-.62-2.46 10.85 10.85 0 0 1 .23-2.37 12.41 12.41 0 0 1 .75-2.32 3.86 3.86 0 0 0 .31-1.56 4 4 0 0 0-.6-1.49 10.83 10.83 0 0 1-1.17-2.2 8.88 8.88 0 0 1-.45-2.33 12.84 12.84 0 0 1 .16-2.33 11.76 11.76 0 0 1 .45-1.74 1.16 1.16 0 0 1 .84-.71 2.67 2.67 0 0 1 2.14 1 10.57 10.57 0 0 1 2 2.84 9.56 9.56 0 0 1 .7 3.45 18.33 18.33 0 0 0 .24 2.93 17.21 17.21 0 0 0 .81 2.76c.31.75 1.25 2.63 2.05 4.11A15.91 15.91 0 0 1 52 103.4a11.48 11.48 0 0 1-.42 3.69 6.23 6.23 0 0 0-.13 2.7 6 6 0 0 0 1.44 2.21 21.37 21.37 0 0 1 2.39 2.71 16.52 16.52 0 0 1 1 1.68 13.87 13.87 0 0 1 .63 1.3 11.31 11.31 0 0 1 .8 5.11 14.81 14.81 0 0 1-.17 1.68 7.08 7.08 0 0 0 .13 2.69 3.91 3.91 0 0 0 .2.49 7.66 7.66 0 0 0 1.23 1.84 9.65 9.65 0 0 1 1.92 3.1 9.18 9.18 0 0 1 .28 3.59 10 10 0 0 0 .07 2.83 9.21 9.21 0 0 0 1.06 2.52 21.08 21.08 0 0 1 1.57 2.9 16.12 16.12 0 0 1 .85 2.86 3.54 3.54 0 0 0 .75 1.55 4 4 0 0 0 1.65.76 26.89 26.89 0 0 0 2.73.3h2.95a30 30 0 0 1 3.29 0 30.66 30.66 0 0 1 3.29.46 18.28 18.28 0 0 0 6 .24 5.36 5.36 0 0 0 2.14-.82 5 5 0 0 0 1.18-1.79 17 17 0 0 0 .7-2.79 18.6 18.6 0 0 0 .12-3c-.05-.93 0-2.42 0-3.32a31.74 31.74 0 0 1 .4-3.22 10.78 10.78 0 0 1 1.29-3.23 14.27 14.27 0 0 1 2.52-2.78 8.73 8.73 0 0 0 1.88-2.27 6.52 6.52 0 0 0 .53-2.55 12 12 0 0 1 .44-3.42 12.31 12.31 0 0 1 1.59-3.09 18.69 18.69 0 0 0 1.54-2.57 39.83 39.83 0 0 0 1.52-5.73 42.08 42.08 0 0 0 .87-5.93 22 22 0 0 0-.36-3.14 25.17 25.17 0 0 1-.42-3.48 21 21 0 0 1 .2-3.34 16.22 16.22 0 0 1 .91-3.2 17.65 17.65 0 0 1 1.68-3 7.82 7.82 0 0 0 1.53-5.28 11.71 11.71 0 0 1 .17-2.95 3.47 3.47 0 0 1 1.3-2 5.09 5.09 0 0 1 1.22-.56 1.22 1.22 0 0 1 1.09.08l.36.24.09.53a1.1 1.1 0 0 1-.81 1.19s-.31.22-.61.47a1.33 1.33 0 0 0-.29.7 15 15 0 0 0 .82 3.12 41.59 41.59 0 0 1 1.22 4 10.67 10.67 0 0 1 .15 2.85 10.84 10.84 0 0 1-.76 2.76 9.29 9.29 0 0 0-.61 2.16 8.9 8.9 0 0 0 .08 2.21 23.36 23.36 0 0 1 .33 2.58 53.74 53.74 0 0 1-.46 5.63c-.3 2.48-.5 4.75-.49 5.22a14.92 14.92 0 0 1-.17 2.34 16.07 16.07 0 0 1-.61 2.32 7.52 7.52 0 0 0-.24 2.28 22.25 22.25 0 0 0 .61 3.52 40.64 40.64 0 0 1 .84 4.37c0 .37.09.8.12 1.27.08 1.1.13 2.29.12 3.11a43.29 43.29 0 0 1-.33 4.36c-.16 1.2-.55 3.15-.86 4.35a33.56 33.56 0 0 0-.74 4.14 34.63 34.63 0 0 0-.1 4.25 5.41 5.41 0 0 0 1 2.81 10.43 10.43 0 0 0 4.71 1.08c1 0 2 .07 3 .08 1.39 0 2.57 0 3.15-.06 1.09-.1 2.88-.35 4-.56s2.89-.64 4-1a17 17 0 0 1 4.51-.56 20 20 0 0 1 4.71.88 5 5 0 0 0 2.14.27 2.94 2.94 0 0 0-.1-1.54 17.6 17.6 0 0 1-.68-4.16 14.31 14.31 0 0 1 .6-3.93 10.93 10.93 0 0 0 .46-3.12 11.39 11.39 0 0 0-.69-3.13 9.63 9.63 0 0 1-.57-3.94 11 11 0 0 1 1.39-3.88 12.56 12.56 0 0 0 1.32-3.15 9.89 9.89 0 0 0 .08-3.08c-.17-1-.49-4.86-.71-8.78-.2-3.44-.34-7.68-.23-8.82s.35-2.6.57-3.58.51-3.23.68-5.07a54.6 54.6 0 0 0 .11-6.78 44.15 44.15 0 0 0-.56-5c-.2-.91-.63-2.44-.94-3.35a21.79 21.79 0 0 1-.85-3.66 20.19 20.19 0 0 1-.06-3.68c.09-1 .33-2.59.54-3.57s.63-2.58.95-3.57a13.83 13.83 0 0 0 .56-3.19 13.53 13.53 0 0 0-.39-3.18c-.27-1-.72-3.37-1-5.32a35.18 35.18 0 0 1-.41-5.51c0-.41.07-.92.14-1.47.11-.89.25-1.82.38-2.48a3.85 3.85 0 0 0-.06-2 2.38 2.38 0 0 0-1.29-.07 12.14 12.14 0 0 1-3.52.17 10.78 10.78 0 0 1-3.24-1.08 5 5 0 0 0-2.19-.55 5.68 5.68 0 0 0-2.24.85 8.85 8.85 0 0 1-3.17 1.29 7.3 7.3 0 0 1-3.25-.41 7.09 7.09 0 0 0-2.35-.45 7.66 7.66 0 0 0-2.36.55 9.59 9.59 0 0 1-3.13.71 9.42 9.42 0 0 1-3.14-.6c-.72-.29-1.93-.71-2.65-.91s-1.93-.48-2.64-.61a24.89 24.89 0 0 0-2.77-.27c-.8 0-2.22 0-3.11.08a3.29 3.29 0 0 0-2 1 8.38 8.38 0 0 0-1 3.27c-.15 1.39-.72 4.56-1.27 7.06a72.47 72.47 0 0 1-2.67 8.84 52.42 52.42 0 0 0-2 6.25 26.58 26.58 0 0 0-.42 4.34 37.63 37.63 0 0 1-.34 4.73c-.19 1.26-1.33 6.21-2.54 11.05s-2.56 9.75-3 10.94c-.22.57-.51 1.27-.81 2s-.67 1.5-.93 2c-.51 1-1.37 2.56-1.93 3.41a4.13 4.13 0 0 1-2.84 2 4.31 4.31 0 0 1-2.94-1.86 14.58 14.58 0 0 1-1.83-3.66 20.42 20.42 0 0 1-.73-4.46c-.05-1.25-.22-3.25-.39-4.47s-.51-3.16-.78-4.35-1.76-6-3.25-10.66a121.63 121.63 0 0 0-4.75-12.51 44.34 44.34 0 0 1-2.66-6.46 23.45 23.45 0 0 1-.61-4.75 20.64 20.64 0 0 0-.64-4.13z" fill="url(#b)"/><path d="M139.42 47.14a34.71 34.71 0 0 0 .4 5.31c.28 1.91.72 4.25 1 5.2a14.52 14.52 0 0 1 .43 3.47 14.84 14.84 0 0 1-.6 3.47c-.31 1-.72 2.51-.92 3.47s-.43 2.51-.52 3.46a19.36 19.36 0 0 0 .06 3.46 21 21 0 0 0 .81 3.46c.33 1 .76 2.51 1 3.47a44.54 44.54 0 0 1 .58 5.2 55.9 55.9 0 0 1-.11 6.93c-.17 1.91-.49 4.24-.7 5.2s-.45 2.51-.55 3.46 0 4.85.23 8.66.54 7.71.7 8.67a10.76 10.76 0 0 1-.08 3.47 13.62 13.62 0 0 1-1.45 3.46 10 10 0 0 0-1.25 3.46 8.64 8.64 0 0 0 .51 3.46 12.43 12.43 0 0 1 .76 3.47 12 12 0 0 1-.51 3.47 13.37 13.37 0 0 0-.55 3.6 16.7 16.7 0 0 0 .64 3.88c.34 1.1.24 2.29-.21 2.63s-1.85.29-3.1-.13a19.19 19.19 0 0 0-4.43-.83 15.9 15.9 0 0 0-4.2.52c-1.12.33-3 .77-4.08 1s-3 .47-4.08.57c-.65.06-1.88.08-3.25.07v2a6.31 6.31 0 0 0 1.25 3.44c.63.66 3.05 1.29 5.39 1.4s5.18.11 6.3 0 3-.36 4.08-.57 3-.66 4.08-1a15.9 15.9 0 0 1 4.2-.52 19.19 19.19 0 0 1 4.43.83c1.25.41 2.64.47 3.1.13s.55-1.53.21-2.63a16.7 16.7 0 0 1-.64-3.88 13.37 13.37 0 0 1 .55-3.6 12 12 0 0 0 .51-3.47 12.43 12.43 0 0 0-.76-3.47 8.64 8.64 0 0 1-.51-3.46 10 10 0 0 1 1.25-3.46 13.62 13.62 0 0 0 1.45-3.46 10.76 10.76 0 0 0 .08-3.47c-.16-1-.48-4.85-.7-8.67s-.33-7.71-.23-8.66.34-2.51.55-3.46.52-3.29.7-5.2a55.9 55.9 0 0 0 .06-6.95 44.54 44.54 0 0 0-.58-5.2c-.21-1-.64-2.51-1-3.47a21 21 0 0 1-.81-3.46 19.36 19.36 0 0 1-.06-3.46c.09-1 .32-2.51.52-3.46s.61-2.51.92-3.47a14.84 14.84 0 0 0 .6-3.47 14.52 14.52 0 0 0-.43-3.47c-.26-1-.7-3.29-1-5.2a34.71 34.71 0 0 1-.4-5.31 33.28 33.28 0 0 1 .5-3.81 4.16 4.16 0 0 0-.24-2.76 2.58 2.58 0 0 0-2.3-.44 11.14 11.14 0 0 1-3.18.16 9.78 9.78 0 0 1-2.89-1 4.51 4.51 0 0 0-.5-.22 6.68 6.68 0 0 0-1-.31c.04.6 0 1.1-.03 1.49z" fill="url(#a)"/><path d="M58.55 49.23a21.56 21.56 0 0 1 .55 4.38 22.29 22.29 0 0 0 .58 4.5 44.08 44.08 0 0 0 2.59 6.27A123 123 0 0 1 67.08 77c1.53 4.7 3 9.54 3.28 10.74s.63 3.2.8 4.44.34 3.29.39 4.56a19.68 19.68 0 0 0 .69 4.2 13.65 13.65 0 0 0 1.68 3.36 3.42 3.42 0 0 0 2.08 1.48 3.23 3.23 0 0 0 2-1.52c.54-.83 1.38-2.32 1.87-3.31.26-.52.59-1.25.91-2-.08-.55-.18-1.21-.3-1.88-.15-.86-.32-1.73-.47-2.38-.28-1.21-1.75-6-3.28-10.74A123 123 0 0 0 72 71.32a44.08 44.08 0 0 1-2.59-6.27 22.29 22.29 0 0 1-.58-4.5 21.56 21.56 0 0 0-.55-4.38 17.77 17.77 0 0 0-1.59-3.82 12.89 12.89 0 0 0-2.05-2.63 3.37 3.37 0 0 0-2-.81c-.33 0-1.6-.06-3.22-.18l-1.07-.08c.09.2.15.35.2.58z" fill="url(#c)"/><path d="M108.11 127c0-.45-.07-.87-.12-1.22a39.39 39.39 0 0 0-.82-4.24 23.05 23.05 0 0 1-.64-3.72 8.36 8.36 0 0 1 .3-2.67 15.21 15.21 0 0 0 .56-2.15 14 14 0 0 0 .16-2.16c0-.59.21-3 .49-5.36a53.25 53.25 0 0 0 .45-5.45 22.25 22.25 0 0 0-.31-2.44 9.83 9.83 0 0 1-.09-2.52 10.2 10.2 0 0 1 .69-2.45 9.86 9.86 0 0 0 .68-2.46 9.7 9.7 0 0 0-.13-2.54c-.15-.71-.68-2.45-1.19-3.88a14.51 14.51 0 0 1-.87-3.5 2.23 2.23 0 0 1 .65-1.41 6 6 0 0 1 .84-.62l.24-.11-.31.06a4.26 4.26 0 0 0-.92.44 2.54 2.54 0 0 0-.85 1.37 10.85 10.85 0 0 0-.14 2.64 8.83 8.83 0 0 1-1.72 5.93 16.75 16.75 0 0 0-1.57 2.76 15.35 15.35 0 0 0-.84 3 20.28 20.28 0 0 0-.19 3.15 24.05 24.05 0 0 0 .4 3.31 22.92 22.92 0 0 1 .38 3.31 42 42 0 0 1-.89 6.16 39.8 39.8 0 0 1-1.59 6 19.59 19.59 0 0 1-1.64 2.74 11.36 11.36 0 0 0-1.44 2.79 11.08 11.08 0 0 0-.4 3.09 7.5 7.5 0 0 1-.63 3 9.63 9.63 0 0 1-2.14 2.6 13.34 13.34 0 0 0-2.32 2.55 9.78 9.78 0 0 0-1.19 2.86 30.56 30.56 0 0 0-.38 3.09c-.05.87-.06 2.31 0 3.2a19.58 19.58 0 0 1-.13 3.17 18 18 0 0 1-.75 3 6 6 0 0 1-1.58 2.27 6.3 6.3 0 0 1-2.63 1 23.24 23.24 0 0 1-3.15.13 23.73 23.73 0 0 1-3.16-.39 29.59 29.59 0 0 0-3.16-.44 28.77 28.77 0 0 0-3.16 0h-.59c.16.31.3.61.4.85l.05.13a15.2 15.2 0 0 1 .74 2.52 4.49 4.49 0 0 0 1 2.1 4.88 4.88 0 0 0 2.18 1 27.63 27.63 0 0 0 2.85.32h3.05a28.77 28.77 0 0 1 3.16 0 29.59 29.59 0 0 1 3.16.44 23.73 23.73 0 0 0 3.16.39 23.24 23.24 0 0 0 3.15-.13 6.3 6.3 0 0 0 2.63-1 6 6 0 0 0 1.58-2.27 18 18 0 0 0 .75-3 19.58 19.58 0 0 0 .13-3.17v-3.2a30.56 30.56 0 0 1 .38-3.09 9.78 9.78 0 0 1 1.15-2.88 13.34 13.34 0 0 1 2.31-2.55 9.63 9.63 0 0 0 2.14-2.6 7.5 7.5 0 0 0 .63-3 11.36 11.36 0 0 1 .24-2.45c0-.23.1-.45.16-.64a10.2 10.2 0 0 1 .8-1.66z" fill="url(#d)"/><path d="M57 128.13a4.92 4.92 0 0 1-.25-.62 8 8 0 0 1-.16-3.16 13.69 13.69 0 0 0 .16-1.56c-.07-.62-.14-1.19-.2-1.59a16.57 16.57 0 0 0-.7-2.79 8.62 8.62 0 0 1-.41-1.51 15.67 15.67 0 0 0-.95-1.57 20.61 20.61 0 0 0-2.26-2.56 6.88 6.88 0 0 1-1.7-2.72 7.11 7.11 0 0 1 .14-3.24 10.51 10.51 0 0 0 .33-3.31 15.16 15.16 0 0 0-1.66-4.34c-.83-1.53-1.78-3.42-2.1-4.21a18.22 18.22 0 0 1-.87-3 19.29 19.29 0 0 1-.26-3.13 8.56 8.56 0 0 0-.61-3 9.56 9.56 0 0 0-1.79-2.52c-.64-.61-1.25-.87-1.36-.6a10.92 10.92 0 0 0-.35 1.58 12 12 0 0 0-.16 2.07 7.84 7.84 0 0 0 .39 2 9.83 9.83 0 0 0 1 2 4.89 4.89 0 0 1 .79 2 4.81 4.81 0 0 1-.4 2.08 11.45 11.45 0 0 0-.71 2.13 9.89 9.89 0 0 0-.14 2.13 7.48 7.48 0 0 0 .54 2.12 10.93 10.93 0 0 0 1.33 2.1 6.81 6.81 0 0 1 1.19 2.09 5 5 0 0 1 0 2.16 8.24 8.24 0 0 0-.22 2.18 8.54 8.54 0 0 0 .5 2.16 16.57 16.57 0 0 1 .7 2.79c.15.94.33 2.77.41 4.07s.07 3.41 0 4.71-.3 3.41-.52 4.7a41.41 41.41 0 0 0-.45 4.7 41 41 0 0 0 .21 4.7 29.36 29.36 0 0 1 .09 4.61 27.52 27.52 0 0 1-.79 4.45 8.79 8.79 0 0 1-1.85 3.36 6 6 0 0 1-3.08 1.36 23.53 23.53 0 0 1-3.79 0 28.8 28.8 0 0 1-4-.76 12.15 12.15 0 0 0-4.09-.29 14.36 14.36 0 0 0-4.1 1.41 14.12 14.12 0 0 1-3 1.15v1a8.23 8.23 0 0 0 .15 1.04 6.51 6.51 0 0 0 1.47 2.78 9.47 9.47 0 0 0 3.08 1.82 10.74 10.74 0 0 0 3.94.44 13.37 13.37 0 0 0 4.05-1.35 14.36 14.36 0 0 1 4.1-1.41 12.15 12.15 0 0 1 4.09.29 28.8 28.8 0 0 0 4 .76 23.53 23.53 0 0 0 3.79 0 6 6 0 0 0 3.08-1.36 8.79 8.79 0 0 0 1.85-3.36 27.52 27.52 0 0 0 .79-4.45 29.36 29.36 0 0 0-.09-4.61 41 41 0 0 1-.21-4.7 41.41 41.41 0 0 1 .45-4.7c.21-1.28.44-3.38.52-4.67.09-.52.09-1.18.09-1.85z" fill="url(#e)"/></svg>