<svg xmlns="http://www.w3.org/2000/svg" width="123.05" height="200" viewBox="0 0 123.05 200"><defs><linearGradient id="a" x1="32.96" y1="149.13" x2="80.83" y2="41.62" gradientUnits="userSpaceOnUse"><stop offset="0" stop-color="#fdba56"/><stop offset=".02" stop-color="#fbb055"/><stop offset=".06" stop-color="#f79d54"/><stop offset=".1" stop-color="#f59253"/><stop offset=".15" stop-color="#f48e53"/><stop offset=".3" stop-color="#ed5e4e"/><stop offset=".47" stop-color="#683a96" stop-opacity=".5"/><stop offset=".64" stop-color="#ed872b"/><stop offset=".79" stop-color="#7b76b6"/><stop offset=".9" stop-color="#f15f4f"/><stop offset="1" stop-color="#fdba56"/></linearGradient><linearGradient id="b" x1="54.41" y1="71.09" x2="91.83" y2="155.13" gradientUnits="userSpaceOnUse"><stop offset="0" stop-color="#b7151b"/><stop offset=".02" stop-color="#c52229"/><stop offset=".06" stop-color="#d7333c"/><stop offset=".11" stop-color="#e23d47"/><stop offset=".15" stop-color="#e6404b"/><stop offset=".3" stop-color="#e98a7b"/><stop offset=".47" stop-color="#7c78b8"/><stop offset=".64" stop-color="#00b0b0"/><stop offset=".79" stop-color="#7b76b6"/><stop offset="1" stop-color="#e7322f"/></linearGradient></defs><title>_</title><path d="M98.31 52c-.83-.79-2.78-2.42-4.39-3.68a24.74 24.74 0 0 0-4.59-2.94 17.5 17.5 0 0 0-3.56-.85 17.14 17.14 0 0 1-4-1 14.18 14.18 0 0 1-3.3-2A6.69 6.69 0 0 0 76 40.27a7.55 7.55 0 0 0-2.92.19 11.41 11.41 0 0 1-3.9.35 10.5 10.5 0 0 1-3.6-1.3 11.36 11.36 0 0 0-2.82-1.19 10.26 10.26 0 0 0-2.92-.13c-1 .12-2.58.24-3.63.25s-2.82 0-4-.13a14.07 14.07 0 0 0-3.64.29 15.37 15.37 0 0 0-3.48 1.46 18.29 18.29 0 0 1-4 1.72 17.84 17.84 0 0 1-4.34.47 14.82 14.82 0 0 0-3.6.37 12 12 0 0 0-3 1.38 20.28 20.28 0 0 1-3.47 1.82 23.43 23.43 0 0 1-3.93 1.05A10.75 10.75 0 0 0 19.56 48c-.6.41-3.36 4.08-6.47 9.12L12 58.81c-3.12 5-5.55 9.25-5.86 10-.35.94-1.55 3.28-2.64 5.19a31.18 31.18 0 0 0-2.37 5.13A38.75 38.75 0 0 0 1 86.77a64.38 64.38 0 0 1 .06 8 16.75 16.75 0 0 1-1 3.68 11.63 11.63 0 0 0-.78 2.91A75.37 75.37 0 0 0 2 112.18l.93 3.05c1.73 5.68 3.3 10.3 3.68 11.05a30.55 30.55 0 0 0 1.79 3c.56.81 2.09 2.76 3.35 4.27a40.51 40.51 0 0 0 3.62 3.85c.73.61 4.74 3.45 8.75 6.22l.52.38a61 61 0 0 0 8.38 5.1 15.1 15.1 0 0 0 3.6.42h.49c1.17 0 2.74.07 3.73.18a36.45 36.45 0 0 1 4.05.71c1 .25 3.62.66 5.71.9s4.88.65 6 .88a41.22 41.22 0 0 1 4.11 1.14 9.51 9.51 0 0 0 3.44.41 9.62 9.62 0 0 0 3.26-1.24c1-.66 2.66-1.6 3.67-2.11s4.94-2.07 8.76-3.48 7.78-2.75 8.86-3a12.2 12.2 0 0 0 3.07-1.22 11.62 11.62 0 0 0 2.43-2.16 21.3 21.3 0 0 1 2.8-2.75 24.54 24.54 0 0 1 3.46-2.22 8.18 8.18 0 0 0 2.48-2.1 8.72 8.72 0 0 0 1.14-3.14 40.78 40.78 0 0 1 .77-4.07 33.07 33.07 0 0 1 1.22-3.68 36.06 36.06 0 0 1 1.6-3.28 32 32 0 0 1 1.94-2.94 11.53 11.53 0 0 0 1.39-2.55 10.94 10.94 0 0 0 .5-2.79c0-.92.14-2.42.27-3.33s.43-2.38.67-3.26a12.58 12.58 0 0 0 .35-2.85 13.38 13.38 0 0 0-.46-2.91 14.64 14.64 0 0 1-.5-3.6 17.43 17.43 0 0 1 .54-3.78 17.09 17.09 0 0 0 .5-3.36 87.38 87.38 0 0 0-2-10.36c-1.25-5.24-2.42-9.61-2.72-10.41a66.18 66.18 0 0 0-3.37-6.31 70.71 70.71 0 0 0-3.91-6.09C100.21 54 99 52.74 98.31 52z" fill="url(#a)"/><path d="M98.95 51.26H99c.77.74 1.95 2 2.61 2.8a71.47 71.47 0 0 1 4 6.22 67.1 67.1 0 0 1 3.44 6.46c.35.93 1.59 5.67 2.75 10.53a85.55 85.55 0 0 1 2.07 10.62 18.05 18.05 0 0 1-.54 3.6 16.53 16.53 0 0 0-.51 3.52 13.73 13.73 0 0 0 .46 3.31 14.47 14.47 0 0 1 .5 3.18 13.62 13.62 0 0 1-.39 3.13c-.23.85-.52 2.27-.64 3.14s-.24 2.32-.26 3.22a12 12 0 0 1-.56 3.11 12.5 12.5 0 0 1-1.53 2.81 31 31 0 0 0-1.86 2.83A35.08 35.08 0 0 0 107 123a31.75 31.75 0 0 0-1.18 3.55 39.54 39.54 0 0 0-.75 4 9.62 9.62 0 0 1-1.31 3.58 9.1 9.1 0 0 1-2.84 2.42 23.45 23.45 0 0 0-3.29 2.11A20.53 20.53 0 0 0 95 141.2a12.65 12.65 0 0 1-2.68 2.38 13.21 13.21 0 0 1-3.38 1.35c-1 .23-5 1.56-8.73 3s-7.67 2.94-8.65 3.43-2.59 1.42-3.58 2.06a10.51 10.51 0 0 1-3.68 1.4 10.36 10.36 0 0 1-3.89-.45 39.85 39.85 0 0 0-4-1.1c-1.09-.23-3.76-.62-5.91-.87s-4.79-.66-5.84-.93a35.38 35.38 0 0 0-3.92-.69 38.57 38.57 0 0 0-4.09-.17 16.14 16.14 0 0 1-3.89-.46c-.95-.26-4.77-2.58-8.67-5.24l.32.28c.74.61 4.48 3.28 8.43 6l.39.27c4.09 2.82 8.25 5.35 9.24 5.62a16.14 16.14 0 0 0 3.89.46 38.57 38.57 0 0 1 4.09.17 35.38 35.38 0 0 1 3.92.69c1.05.26 3.68.68 5.84.93s4.82.64 5.91.87a39.85 39.85 0 0 1 4 1.1 10.36 10.36 0 0 0 3.89.45 10.51 10.51 0 0 0 3.68-1.4c1-.64 2.59-1.56 3.58-2.06s4.88-2 8.65-3.43 7.7-2.72 8.73-3a13.21 13.21 0 0 0 3.38-1.35 12.65 12.65 0 0 0 2.68-2.38 20.53 20.53 0 0 1 2.65-2.64 23.45 23.45 0 0 1 3.29-2.11 9.1 9.1 0 0 0 2.84-2.42 9.62 9.62 0 0 0 1.31-3.58 39.54 39.54 0 0 1 .75-4 31.75 31.75 0 0 1 1.18-3.55 35.08 35.08 0 0 1 1.55-3.17 31 31 0 0 1 1.86-2.83 12.5 12.5 0 0 0 1.53-2.81 12 12 0 0 0 .56-3.11c0-.9.14-2.34.26-3.22s.41-2.29.64-3.14a13.62 13.62 0 0 0 .39-3.13 14.47 14.47 0 0 0-.5-3.18 13.73 13.73 0 0 1-.46-3.31 16.53 16.53 0 0 1 .51-3.52 18.05 18.05 0 0 0 .54-3.6 85.55 85.55 0 0 0-2.07-10.62c-1.16-4.86-2.4-9.59-2.75-10.53a67.1 67.1 0 0 0-3.44-6.46 71.47 71.47 0 0 0-4-6.22c-.66-.8-1.83-2.06-2.61-2.8s-2.78-2.42-4.46-3.75a36.05 36.05 0 0 0-2.52-1.79 15.21 15.21 0 0 0-2.33-1.3z" fill="url(#b)"/></svg>