<svg xmlns="http://www.w3.org/2000/svg" xmlns:xlink="http://www.w3.org/1999/xlink" width="200" height="200" viewBox="0 0 200 200"><defs><linearGradient id="a" x1="54.61" y1="155.77" x2="106.3" y2="39.69" gradientUnits="userSpaceOnUse"><stop offset="0" stop-color="#fdba56"/><stop offset="0.02" stop-color="#fbb055"/><stop offset="0.06" stop-color="#f79d54"/><stop offset="0.1" stop-color="#f59253"/><stop offset="0.15" stop-color="#f48e53"/><stop offset="0.3" stop-color="#ed5e4e"/><stop offset="0.47" stop-color="#683a96" stop-opacity="0.5"/><stop offset="0.64" stop-color="#ed872b"/><stop offset="0.79" stop-color="#7b76b6"/><stop offset="0.9" stop-color="#f15f4f"/><stop offset="1" stop-color="#fdba56"/></linearGradient><linearGradient id="b" x1="87.23" y1="79.2" x2="117.18" y2="146.47" gradientUnits="userSpaceOnUse"><stop offset="0" stop-color="#b7151b"/><stop offset="0.02" stop-color="#c52229"/><stop offset="0.06" stop-color="#d7333c"/><stop offset="0.11" stop-color="#e23d47"/><stop offset="0.15" stop-color="#e6404b"/><stop offset="0.3" stop-color="#e98a7b"/><stop offset="0.47" stop-color="#7c78b8"/><stop offset="0.64" stop-color="#00b0b0"/><stop offset="0.79" stop-color="#7b76b6"/><stop offset="1" stop-color="#e7322f"/></linearGradient></defs><title>_</title><path d="M129.19,51.61l-0.51-.34a90.22,90.22,0,0,0-9.87-6,9.56,9.56,0,0,0-3.25-.3,18,18,0,0,1-3.91,0,17.44,17.44,0,0,1-3.72-1,9.73,9.73,0,0,0-6.31-.48c-1,.25-2.64.56-3.62,0.69s-2.6.21-3.53,0.22A23.24,23.24,0,0,1,90.95,44a25.66,25.66,0,0,1-3.51-1,15.21,15.21,0,0,0-3.09-.74,13.9,13.9,0,0,0-3.07.1c-0.87.15-3.11,0.72-4.89,1.25a20.25,20.25,0,0,1-5.36.92,12.1,12.1,0,0,1-3.7-1,11.09,11.09,0,0,0-3-.85,10,10,0,0,0-3,.3c-1,.28-3.24.78-5.11,1.13a34.34,34.34,0,0,1-5.19.62,25.27,25.27,0,0,1-3.45-.33,3,3,0,0,0-1.81.23A3.4,3.4,0,0,0,45,46.4a14.34,14.34,0,0,0-.07,3.14,16.36,16.36,0,0,0,.79,3.21,12.31,12.31,0,0,1,.7,3.83,12.46,12.46,0,0,1-.8,3.83,12.9,12.9,0,0,0-.76,3.17,11.85,11.85,0,0,0,.28,3.14c0.28,1.12.88,5.35,1.29,8.79a72.18,72.18,0,0,1,.66,8.88,20.93,20.93,0,0,1-.77,3.67c-0.29.91-.69,2.44-0.87,3.35A33,33,0,0,0,45,94.75,17.19,17.19,0,0,0,45.15,98a19.3,19.3,0,0,0,.91,3.26,10.23,10.23,0,0,1,.61,3.92A11.24,11.24,0,0,1,45.43,109a10.34,10.34,0,0,0-1.05,3.09,8.76,8.76,0,0,0,.32,3,14.77,14.77,0,0,1,.63,3.77,14.57,14.57,0,0,1-.57,3.77,16.12,16.12,0,0,0-.58,3.22c0,0.77.4,5.16,1.1,10.21,0.6,4.31,1.18,9.46,1.13,10.62a26.63,26.63,0,0,1-.51,3.76,2,2,0,0,0,.17,1.45,5.21,5.21,0,0,0,2.5,0c1.31-.27,3.44-0.6,4.73-0.73,0.48,0,1.06-.09,1.68-0.13,1.07-.07,2.16-0.1,2.94-0.1H58a32.15,32.15,0,0,1,4.73.44,35.2,35.2,0,0,1,4.71,1.29,14.91,14.91,0,0,0,4,.78,10.88,10.88,0,0,0,3.66-.7,6.53,6.53,0,0,0,2.39-1.73,4.61,4.61,0,0,0,.58-2.45,17.21,17.21,0,0,1,.28-4.06,25.79,25.79,0,0,1,1.43-4.34,15.71,15.71,0,0,0,1.08-4,14.17,14.17,0,0,0-.32-4c-0.31-1.23-.71-3.23-0.89-4.46s-0.38-3.27-.44-4.55a9.29,9.29,0,0,1,.62-3.92c0.67-1.29,3.5-1.94,5.07-2.12A29.08,29.08,0,0,1,90,117a10.79,10.79,0,0,1,2.57.82,6,6,0,0,0,1.84.44,5.26,5.26,0,0,0,1.85-.49,15.12,15.12,0,0,1,2.79-1,22.73,22.73,0,0,1,3.31-.48,25.89,25.89,0,0,1,3.63.08,29.28,29.28,0,0,1,3.72.7,9.8,9.8,0,0,0,3.1.23,9.29,9.29,0,0,0,2.86-1,28.39,28.39,0,0,1,3.49-1.71,33.93,33.93,0,0,1,3.92-1.21c1.08-.25,2.81-0.75,3.87-1.12s2.77-1.06,3.81-1.55a12.11,12.11,0,0,0,3-2.07c0.5-.52,2.56-4.72,4.78-10.36l2.79-7.11a83.6,83.6,0,0,0,3.75-11.05,22,22,0,0,0-.1-3.83,20.47,20.47,0,0,0-.91-3.66,20.9,20.9,0,0,0-1.72-3.38,23.77,23.77,0,0,1-1.94-3.75,22.89,22.89,0,0,1-1.07-4,9.23,9.23,0,0,0-1.13-3,7.19,7.19,0,0,0-1-.93C135.52,56,132.37,53.73,129.19,51.61Z" fill="url(#a)"/><path d="M138.94,57.38l-1.09-.72a7.68,7.68,0,0,1,1.2,1.14,10.12,10.12,0,0,1,1.29,3.45,21.79,21.79,0,0,0,1,3.81,22.84,22.84,0,0,0,1.84,3.56A21.75,21.75,0,0,1,145,72.21a21.42,21.42,0,0,1,1,3.88,23,23,0,0,1,.1,4c-0.09,1.12-1.81,6.22-3.82,11.34l-2.79,7.11c-2,5.12-4.25,9.93-5,10.69a13.14,13.14,0,0,1-3.27,2.29c-1.06.5-2.82,1.21-3.9,1.59s-2.87.9-4,1.15a32.8,32.8,0,0,0-3.78,1.17,27.28,27.28,0,0,0-3.34,1.64,10.2,10.2,0,0,1-3.25,1.16,10.66,10.66,0,0,1-3.49-.26,28.22,28.22,0,0,0-3.56-.67,24.6,24.6,0,0,0-3.46-.08,21.88,21.88,0,0,0-3.13.46,14.15,14.15,0,0,0-2.57.94,6.2,6.2,0,0,1-2.29.6,6.09,6.09,0,0,1-2.29-.54,9.79,9.79,0,0,0-2.29-.73,28.68,28.68,0,0,0-4.84.25c-2,.23-4,0.95-4.3,1.59a8.37,8.37,0,0,0-.51,3.41c0.06,1.24.25,3.24,0.43,4.45s0.57,3.17.87,4.36a15.19,15.19,0,0,1,.35,4.31,16.69,16.69,0,0,1-1.16,4.31,24.68,24.68,0,0,0-1.36,4.14,16.33,16.33,0,0,0-.27,3.78,5.57,5.57,0,0,1-.76,3.1,7.4,7.4,0,0,1-2.83,2.08,12.52,12.52,0,0,1-4,.77,15.89,15.89,0,0,1-4.38-.84,34,34,0,0,0-4.55-1.24A31.08,31.08,0,0,0,58,152c-0.79,0-1.91,0-2.94.1q0,0.59.07,1c0,0.23,0,.41,0,0.54a25.36,25.36,0,0,1-.49,3.59,2.6,2.6,0,0,0,.56,2.48,5.37,5.37,0,0,0,3.29.19c1.28-.26,3.36-0.59,4.63-0.72S66.44,159,67.7,159a31.08,31.08,0,0,1,4.55.42,34,34,0,0,1,4.55,1.24,15.89,15.89,0,0,0,4.38.84,12.52,12.52,0,0,0,4-.77A7.4,7.4,0,0,0,88,158.61a5.57,5.57,0,0,0,.76-3.1,16.33,16.33,0,0,1,.27-3.78,24.68,24.68,0,0,1,1.36-4.14,16.69,16.69,0,0,0,1.16-4.31,15.19,15.19,0,0,0-.35-4.31c-0.3-1.19-.7-3.15-0.87-4.36s-0.37-3.21-.43-4.45a8.37,8.37,0,0,1,.51-3.41c0.33-.64,2.27-1.36,4.3-1.59a28.68,28.68,0,0,1,4.84-.25,9.79,9.79,0,0,1,2.29.73,6.09,6.09,0,0,0,2.29.54,6.2,6.2,0,0,0,2.29-.6,14.15,14.15,0,0,1,2.57-.94,21.88,21.88,0,0,1,3.13-.46,24.6,24.6,0,0,1,3.46.08,28.22,28.22,0,0,1,3.56.67,10.66,10.66,0,0,0,3.49.26,10.2,10.2,0,0,0,3.25-1.16,27.28,27.28,0,0,1,3.34-1.64,32.8,32.8,0,0,1,3.78-1.17c1.1-.26,2.89-0.78,4-1.15s2.84-1.09,3.9-1.59a13.14,13.14,0,0,0,3.27-2.29c0.73-.76,3-5.57,5-10.69L152,98.42c2-5.12,3.73-10.22,3.82-11.34a23,23,0,0,0-.1-4,21.42,21.42,0,0,0-1-3.88,21.75,21.75,0,0,0-1.82-3.58A22.84,22.84,0,0,1,151.06,72a21.79,21.79,0,0,1-1-3.81,10.12,10.12,0,0,0-1.29-3.45c-0.5-.75-4.11-3.5-8.25-6.32l-1.06-.71Z" fill="url(#b)"/></svg>