<svg xmlns="http://www.w3.org/2000/svg" width="107.6" height="200" viewBox="0 0 107.6 200"><defs><linearGradient id="a" x1="10.24" y1="153.4" x2="61.92" y2="37.32" gradientUnits="userSpaceOnUse"><stop offset="0" stop-color="#fdba56"/><stop offset=".02" stop-color="#fbb055"/><stop offset=".06" stop-color="#f79d54"/><stop offset=".1" stop-color="#f59253"/><stop offset=".15" stop-color="#f48e53"/><stop offset=".3" stop-color="#ed5e4e"/><stop offset=".47" stop-color="#683a96" stop-opacity=".5"/><stop offset=".64" stop-color="#ed872b"/><stop offset=".79" stop-color="#7b76b6"/><stop offset=".9" stop-color="#f15f4f"/><stop offset="1" stop-color="#fdba56"/></linearGradient><linearGradient id="b" x1="42.86" y1="76.83" x2="72.81" y2="144.09" gradientUnits="userSpaceOnUse"><stop offset="0" stop-color="#b7151b"/><stop offset=".02" stop-color="#c52229"/><stop offset=".06" stop-color="#d7333c"/><stop offset=".11" stop-color="#e23d47"/><stop offset=".15" stop-color="#e6404b"/><stop offset=".3" stop-color="#e98a7b"/><stop offset=".47" stop-color="#7c78b8"/><stop offset=".64" stop-color="#00b0b0"/><stop offset=".79" stop-color="#7b76b6"/><stop offset="1" stop-color="#e7322f"/></linearGradient></defs><title>_</title><path d="M84.82 49.23l-.51-.34a90.22 90.22 0 0 0-9.87-6 9.56 9.56 0 0 0-3.25-.3 18 18 0 0 1-3.91 0 17.44 17.44 0 0 1-3.72-1 12.21 12.21 0 0 0-3.12-.77 12.25 12.25 0 0 0-3.2.29c-1 .25-2.64.56-3.62.69S51 42 50.1 42a23.24 23.24 0 0 1-3.52-.34 25.66 25.66 0 0 1-3.51-1 15.21 15.21 0 0 0-3.07-.75 13.9 13.9 0 0 0-3.07.1c-.87.15-3.11.72-4.89 1.25a20.25 20.25 0 0 1-5.36.92 12.1 12.1 0 0 1-3.7-1 11.09 11.09 0 0 0-3-.85 10 10 0 0 0-3 .3c-1 .28-3.24.78-5.11 1.13a34.34 34.34 0 0 1-5.19.62 25.27 25.27 0 0 1-3.45-.33 3 3 0 0 0-1.81.23A3.4 3.4 0 0 0 .61 44a14.34 14.34 0 0 0-.07 3.14 16.36 16.36 0 0 0 .79 3.21A12.31 12.31 0 0 1 2 54.21 12.46 12.46 0 0 1 1.23 58a12.9 12.9 0 0 0-.76 3.2 11.85 11.85 0 0 0 .28 3.14c.25 1.12.87 5.35 1.25 8.8A72.18 72.18 0 0 1 2.7 82a20.93 20.93 0 0 1-.77 3.67c-.29.91-.69 2.44-.87 3.35a33 33 0 0 0-.44 3.34 17.19 17.19 0 0 0 .16 3.23 19.3 19.3 0 0 0 .91 3.26 10.23 10.23 0 0 1 .61 3.92 11.24 11.24 0 0 1-1.24 3.87A10.34 10.34 0 0 0 0 109.76a8.76 8.76 0 0 0 .32 3 14.77 14.77 0 0 1 .68 3.8 14.57 14.57 0 0 1-.57 3.77 16.12 16.12 0 0 0-.58 3.22c0 .77.4 5.16 1.1 10.21.6 4.31 1.18 9.46 1.13 10.62a26.63 26.63 0 0 1-.51 3.76 2 2 0 0 0 .17 1.45 5.21 5.21 0 0 0 2.5 0c1.31-.27 3.44-.6 4.73-.73.48 0 1.06-.09 1.68-.13 1.07-.07 2.16-.1 2.94-.1h.07a32.15 32.15 0 0 1 4.73.44 35.2 35.2 0 0 1 4.71 1.29 14.91 14.91 0 0 0 4 .78 10.88 10.88 0 0 0 3.66-.7 6.53 6.53 0 0 0 2.39-1.73 4.61 4.61 0 0 0 .58-2.45 17.21 17.21 0 0 1 .28-4.06 25.79 25.79 0 0 1 1.43-4.34 15.71 15.71 0 0 0 1.08-4 14.17 14.17 0 0 0-.32-4c-.31-1.23-.71-3.23-.89-4.46s-.38-3.27-.44-4.55a9.29 9.29 0 0 1 .62-3.92c.67-1.29 3.5-1.94 5.07-2.12a29.08 29.08 0 0 1 5.11-.24 10.79 10.79 0 0 1 2.57.82 6 6 0 0 0 1.84.44 5.26 5.26 0 0 0 1.85-.49 15.12 15.12 0 0 1 2.79-1 22.73 22.73 0 0 1 3.31-.48 25.89 25.89 0 0 1 3.63.08 29.28 29.28 0 0 1 3.72.7 9.8 9.8 0 0 0 3.1.23 9.29 9.29 0 0 0 2.86-1 28.39 28.39 0 0 1 3.49-1.71 33.93 33.93 0 0 1 3.92-1.16c1.08-.25 2.81-.75 3.87-1.12s2.77-1.06 3.81-1.55a12.11 12.11 0 0 0 3-2.07c.5-.52 2.56-4.72 4.78-10.36L97 88.74a83.6 83.6 0 0 0 3.75-11.05 22 22 0 0 0-.1-3.83 20.47 20.47 0 0 0-.91-3.66A20.9 20.9 0 0 0 98 66.8a23.77 23.77 0 0 1-2-3.74A22.89 22.89 0 0 1 95 59a9.23 9.23 0 0 0-1.13-3 7.19 7.19 0 0 0-1-.93c-1.72-1.43-4.87-3.71-8.05-5.84z" fill="url(#a)"/><path d="M94.57 55l-1.09-.72a7.68 7.68 0 0 1 1.2 1.14A10.12 10.12 0 0 1 96 58.88a21.79 21.79 0 0 0 1 3.81 22.84 22.84 0 0 0 1.84 3.56 21.75 21.75 0 0 1 1.82 3.58 21.42 21.42 0 0 1 1 3.88 23 23 0 0 1 .1 4c-.14 1.17-1.86 6.29-3.87 11.39l-2.79 7.11c-2 5.12-4.25 9.93-5 10.69a13.14 13.14 0 0 1-3.27 2.29c-1.06.5-2.82 1.21-3.9 1.59s-2.87.9-4 1.15a32.8 32.8 0 0 0-3.78 1.17 27.28 27.28 0 0 0-3.34 1.64 10.2 10.2 0 0 1-3.25 1.16 10.66 10.66 0 0 1-3.49-.26 28.22 28.22 0 0 0-3.56-.67 24.6 24.6 0 0 0-3.46-.08 21.88 21.88 0 0 0-3.13.46 14.15 14.15 0 0 0-2.57.94 6.2 6.2 0 0 1-2.29.6 6.09 6.09 0 0 1-2.29-.54 9.79 9.79 0 0 0-2.29-.73 28.68 28.68 0 0 0-4.84.25c-2 .23-4 .95-4.3 1.59a8.37 8.37 0 0 0-.51 3.41c.06 1.24.25 3.24.43 4.45s.57 3.17.87 4.36a15.19 15.19 0 0 1 .35 4.31 16.69 16.69 0 0 1-1.16 4.31 24.68 24.68 0 0 0-1.32 4.11 16.33 16.33 0 0 0-.27 3.78 5.57 5.57 0 0 1-.76 3.1 7.4 7.4 0 0 1-2.83 2.08 12.52 12.52 0 0 1-4 .77 15.89 15.89 0 0 1-4.38-.84 34 34 0 0 0-4.55-1.24 31.08 31.08 0 0 0-4.55-.42c-.79 0-1.91 0-2.94.1q0 .59.07 1v.54a25.36 25.36 0 0 1-.49 3.59 2.6 2.6 0 0 0 .56 2.48 5.37 5.37 0 0 0 3.29.19c1.28-.26 3.36-.59 4.63-.72s3.33-.23 4.58-.23a31.08 31.08 0 0 1 4.55.42 34 34 0 0 1 4.55 1.24 15.89 15.89 0 0 0 4.38.84 12.52 12.52 0 0 0 4-.77 7.4 7.4 0 0 0 2.83-2.08 5.57 5.57 0 0 0 .76-3.1 16.33 16.33 0 0 1 .27-3.78 24.68 24.68 0 0 1 1.36-4.14 16.69 16.69 0 0 0 1.16-4.31 15.19 15.19 0 0 0-.35-4.31c-.3-1.19-.7-3.15-.87-4.36s-.37-3.21-.43-4.45a8.37 8.37 0 0 1 .51-3.41c.33-.64 2.27-1.36 4.3-1.59a28.68 28.68 0 0 1 4.84-.25 9.79 9.79 0 0 1 2.29.73 6.09 6.09 0 0 0 2.29.54 6.2 6.2 0 0 0 2.29-.6 14.15 14.15 0 0 1 2.57-.94 21.88 21.88 0 0 1 3.13-.46 24.6 24.6 0 0 1 3.46.08 28.22 28.22 0 0 1 3.56.67 10.66 10.66 0 0 0 3.49.26 10.2 10.2 0 0 0 3.25-1.16A27.28 27.28 0 0 1 84.9 120a32.8 32.8 0 0 1 3.78-1.17c1.1-.26 2.89-.78 4-1.15s2.84-1.09 3.9-1.59a13.14 13.14 0 0 0 3.27-2.29c.73-.76 3-5.57 5-10.69L107.6 96c2-5.12 3.73-10.22 3.82-11.34a23 23 0 0 0-.1-4 21.42 21.42 0 0 0-1-3.88 21.75 21.75 0 0 0-1.82-3.58 22.84 22.84 0 0 1-1.84-3.56 21.79 21.79 0 0 1-1-3.81 10.12 10.12 0 0 0-1.29-3.45c-.5-.75-4.11-3.5-8.25-6.32l-1.06-.71z" fill="url(#b)"/></svg>