<svg xmlns="http://www.w3.org/2000/svg" xmlns:xlink="http://www.w3.org/1999/xlink" width="200" height="200" viewBox="0 0 200 200"><defs><linearGradient id="a" x1="73.49" y1="155.19" x2="121.62" y2="47.09" gradientUnits="userSpaceOnUse"><stop offset="0" stop-color="#fdba56"/><stop offset="0.02" stop-color="#fbb055"/><stop offset="0.06" stop-color="#f79d54"/><stop offset="0.1" stop-color="#f59253"/><stop offset="0.15" stop-color="#f48e53"/><stop offset="0.3" stop-color="#ed5e4e"/><stop offset="0.47" stop-color="#683a96" stop-opacity="0.5"/><stop offset="0.64" stop-color="#ed872b"/><stop offset="0.79" stop-color="#7b76b6"/><stop offset="0.9" stop-color="#f15f4f"/><stop offset="1" stop-color="#fdba56"/></linearGradient><linearGradient id="b" x1="114.72" y1="55.15" x2="163.04" y2="163.69" gradientUnits="userSpaceOnUse"><stop offset="0" stop-color="#b7151b"/><stop offset="0.02" stop-color="#c52229"/><stop offset="0.06" stop-color="#d7333c"/><stop offset="0.11" stop-color="#e23d47"/><stop offset="0.15" stop-color="#e6404b"/><stop offset="0.3" stop-color="#e98a7b"/><stop offset="0.47" stop-color="#7c78b8"/><stop offset="0.64" stop-color="#00b0b0"/><stop offset="0.79" stop-color="#7b76b6"/><stop offset="1" stop-color="#e7322f"/></linearGradient><linearGradient id="c" x1="82.66" y1="134.39" x2="99.03" y2="171.15" xlink:href="#b"/></defs><title>_</title><path d="M121.64,48a29,29,0,0,0-2.92-2.11,19.3,19.3,0,0,0-3.27-1.51,23.53,23.53,0,0,0-3.79-.83,42.17,42.17,0,0,1-4.3-.78,42.25,42.25,0,0,1-4.17-1.31,26.55,26.55,0,0,0-3.86-1.1,23.84,23.84,0,0,0-4-.35c-1.2,0-4-.16-6.36-0.36a29.24,29.24,0,0,0-5.86,0A41.79,41.79,0,0,0,76,42.9a48,48,0,0,1-7.62,3.47,18.12,18.12,0,0,1-4.21.33A17,17,0,0,0,60.5,47a14.84,14.84,0,0,0-3.25,1.19,15.63,15.63,0,0,0-2.78,2c-0.6.57-3.41,4.28-6.47,8.68-2.88,4.14-5.94,8.9-6.83,10.62a35.82,35.82,0,0,0-2.08,4.81,32.54,32.54,0,0,0-.76,3.64c-0.16,1.12-.49,2.91-0.74,4s-0.75,2.85-1.1,3.91-1,3.61-1.42,5.71a47,47,0,0,0-.87,5.54,23.53,23.53,0,0,0,.14,3.2,19.73,19.73,0,0,1,.1,3.41,22.2,22.2,0,0,1-.6,3.48,8.88,8.88,0,0,0-.21,2.84,8.69,8.69,0,0,0,1,2.65c0.5,0.83,1.23,2.2,1.62,3s1,2.24,1.24,3.08,0.7,2.35.91,3.33,0.48,2.66.61,3.76a21.09,21.09,0,0,0,.79,3.54,20.36,20.36,0,0,0,1.51,3.24c0.53,0.87,2,3,3.22,4.67A37,37,0,0,0,48,141.53a24.85,24.85,0,0,0,2.89,2.16,31.48,31.48,0,0,0,3.23,1.7c0.3,0.13.67,0.28,1.07,0.43,0.84,0.32,1.75.62,2.37,0.79a29.94,29.94,0,0,1,3.66,1.33c1,0.45,4,2.24,6.83,4.08a46.11,46.11,0,0,0,6.75,3.76,18.73,18.73,0,0,0,3.82.69,32.24,32.24,0,0,0,4-.1,33,33,0,0,0,4-.72,21.55,21.55,0,0,1,4.5-.58h0a25.33,25.33,0,0,1,4.67.54,22.71,22.71,0,0,0,4.16.48,16.34,16.34,0,0,0,3.71-.54c1-.3,2.57-0.85,3.46-1.22s2.26-1,3-1.44a24.46,24.46,0,0,1,2.88-1.34,14,14,0,0,1,2.65-.65,11.18,11.18,0,0,1,1.23-.06,13.11,13.11,0,0,1,1.4.07,19.53,19.53,0,0,1,2.85.59,10.26,10.26,0,0,1,2.78,1.38c0.91,0.68,2.48,3.27,3.31,4.84l0.32,0.59a37,37,0,0,0,2.43,4,12.22,12.22,0,0,0,1.89,1.73,2.55,2.55,0,0,0,1.41.47,2.8,2.8,0,0,0,1.19-1l0.12-.17c0.68-.93,3.41-4,6.36-7.22a63.59,63.59,0,0,0,5.43-6.44,1.77,1.77,0,0,0-.27-0.82c-0.35-.47-1.12-1.71-1.76-2.83a16.18,16.18,0,0,0-1.74-2.54,8.31,8.31,0,0,0-1.59-1.18,15.4,15.4,0,0,1-2-1.35,13.14,13.14,0,0,1-1.66-1.66,4.89,4.89,0,0,1-.73-3.15,19.13,19.13,0,0,1,1.17-4.3,33.85,33.85,0,0,1,2.5-4.84,39.53,39.53,0,0,1,3.52-4.5,18.38,18.38,0,0,0,2.82-4.26c0.46-1.08,1.2-5.51,1.52-10.14,0.3-4.32.49-9,.41-10.15A23.85,23.85,0,0,0,148,94c-0.3-1.07-.69-2.82-0.87-3.9s-0.37-2.85-.42-3.93a23.24,23.24,0,0,0-1.48-7.12c-0.36-.94-1-2.46-1.48-3.32s-2.84-4.46-5.86-8.75a147.15,147.15,0,0,0-10-12.48c-1.11-1.2-2.23-2.39-3.23-3.43C123.2,49.52,122.06,48.38,121.64,48Z" fill="url(#a)"/><path d="M125.42,50.39c1,1,2.14,2.24,3.25,3.45a148.6,148.6,0,0,1,10,12.58c2.8,4,5.47,8,5.93,8.86s1.15,2.45,1.53,3.43a24.33,24.33,0,0,1,1.55,7.42c0.05,1.05.24,2.77,0.41,3.82s0.55,2.76.84,3.8a24.67,24.67,0,0,1,.68,4.14c0.08,1.24-.1,5.87-0.41,10.29s-1,9.13-1.6,10.47a19.31,19.31,0,0,1-3,4.54,38.43,38.43,0,0,0-3.41,4.37,32.75,32.75,0,0,0-2.41,4.66,18.34,18.34,0,0,0-1.1,4,4,4,0,0,0,.52,2.43,12.32,12.32,0,0,0,1.51,1.51,14.57,14.57,0,0,0,1.88,1.24,9.24,9.24,0,0,1,1.83,1.35,16.9,16.9,0,0,1,1.9,2.75c0.61,1.07,1.37,2.3,1.69,2.73a2.6,2.6,0,0,1,.46,1.65c-0.07.48-2.63,3.58-5.68,6.89-2.91,3.15-5.64,6.25-6.29,7.14,0.18,0.31.36,0.64,0.54,1l0.14,0.24a41.51,41.51,0,0,0,2.86,4.78,13.21,13.21,0,0,0,2.08,1.9,3.38,3.38,0,0,0,2.19.63,3.61,3.61,0,0,0,1.82-1.45c0.45-.69,3.32-4,6.38-7.26s5.62-6.41,5.68-6.89a2.6,2.6,0,0,0-.46-1.65c-0.32-.43-1.08-1.66-1.69-2.73a16.9,16.9,0,0,0-1.9-2.75,9.24,9.24,0,0,0-1.83-1.35,14.57,14.57,0,0,1-1.88-1.24,12.32,12.32,0,0,1-1.51-1.51,4,4,0,0,1-.52-2.43,18.34,18.34,0,0,1,1.1-4,32.75,32.75,0,0,1,2.41-4.66,38.43,38.43,0,0,1,3.41-4.37,19.31,19.31,0,0,0,3-4.54c0.58-1.34,1.3-6,1.6-10.47s0.49-9.05.41-10.29a24.67,24.67,0,0,0-.68-4.14c-0.29-1-.67-2.75-0.84-3.8s-0.36-2.77-.41-3.82a24.33,24.33,0,0,0-1.55-7.42c-0.37-1-1.06-2.53-1.53-3.43s-3.14-4.89-5.93-8.86a148.6,148.6,0,0,0-10-12.58c-2.72-2.95-5.6-5.9-6.38-6.57a30,30,0,0,0-3-2.2c-0.34-.21-0.78-0.44-1.24-0.67a19.69,19.69,0,0,0-2.23-.94Z" fill="url(#b)"/><path d="M126.48,158.19a19.68,19.68,0,0,0-3-4.51,9.31,9.31,0,0,0-2.46-1.22,18.77,18.77,0,0,0-2.67-.56,12.76,12.76,0,0,0-2.4,0,13.14,13.14,0,0,0-2.42.6,23.21,23.21,0,0,0-2.74,1.27c-0.8.44-2.2,1.11-3.11,1.49s-2.52.94-3.56,1.25a17.35,17.35,0,0,1-4,.59,22.93,22.93,0,0,1-4.39-.5,24.09,24.09,0,0,0-4.48-.51,20.75,20.75,0,0,0-4.26.54,33.59,33.59,0,0,1-4.16.75,32.78,32.78,0,0,1-4.19.1,19.64,19.64,0,0,1-4.07-.74,46,46,0,0,1-7-3.87c-2.76-1.78-5.78-3.59-6.7-4a28.71,28.71,0,0,0-3.52-1.27c-0.68-.19-1.62-0.5-2.45-0.82,0.45,0.55.89,1.07,1.28,1.51s0.69,0.74.92,1a25.76,25.76,0,0,0,3,2.27,32.31,32.31,0,0,0,3.36,1.76A32.14,32.14,0,0,0,67,154.52a29.55,29.55,0,0,1,3.11,1.1l0.41,0.18c0.43,0.2,1.32.7,2.41,1.35,1.27,0.75,2.81,1.71,4.29,2.66a46,46,0,0,0,7,3.87,19.64,19.64,0,0,0,4.07.74,32.78,32.78,0,0,0,4.19-.1,33.59,33.59,0,0,0,4.16-.75,20.75,20.75,0,0,1,4.26-.54,24.09,24.09,0,0,1,4.48.51,22.93,22.93,0,0,0,4.39.5,17.35,17.35,0,0,0,4-.59c1-.31,2.64-0.87,3.56-1.25s2.32-1,3.11-1.49a23.21,23.21,0,0,1,2.74-1.27,13.14,13.14,0,0,1,2.42-.6h0.07a10.77,10.77,0,0,1,1.11,0Z" fill="url(#c)"/></svg>