<svg xmlns="http://www.w3.org/2000/svg" xmlns:xlink="http://www.w3.org/1999/xlink" width="200" height="200" viewBox="0 0 200 200"><defs><linearGradient id="a" x1="65.02" y1="162.45" x2="117.37" y2="44.86" gradientUnits="userSpaceOnUse"><stop offset="0" stop-color="#fdba56"/><stop offset="0.02" stop-color="#fbb055"/><stop offset="0.06" stop-color="#f79d54"/><stop offset="0.1" stop-color="#f59253"/><stop offset="0.15" stop-color="#f48e53"/><stop offset="0.3" stop-color="#ed5e4e"/><stop offset="0.47" stop-color="#683a96" stop-opacity="0.5"/><stop offset="0.64" stop-color="#ed872b"/><stop offset="0.79" stop-color="#7b76b6"/><stop offset="0.9" stop-color="#f15f4f"/><stop offset="1" stop-color="#fdba56"/></linearGradient><linearGradient id="b" x1="124.6" y1="117.02" x2="146.2" y2="165.51" gradientUnits="userSpaceOnUse"><stop offset="0" stop-color="#b7151b"/><stop offset="0.02" stop-color="#c52229"/><stop offset="0.06" stop-color="#d7333c"/><stop offset="0.11" stop-color="#e23d47"/><stop offset="0.15" stop-color="#e6404b"/><stop offset="0.3" stop-color="#e98a7b"/><stop offset="0.47" stop-color="#7c78b8"/><stop offset="0.64" stop-color="#00b0b0"/><stop offset="0.79" stop-color="#7b76b6"/><stop offset="1" stop-color="#e7322f"/></linearGradient><linearGradient id="c" x1="68.87" y1="118.64" x2="87.29" y2="160.02" xlink:href="#b"/><linearGradient id="d" x1="127.38" y1="61.19" x2="146.06" y2="103.15" xlink:href="#b"/></defs><title>_</title><path d="M108.91,125a12,12,0,0,1,.63,4.53c-0.09,1.34-.32,3.38-0.51,4.54a35.69,35.69,0,0,1-.92,3.92,8.45,8.45,0,0,0-.32,2.85,6.78,6.78,0,0,0,.93,2.44A16.46,16.46,0,0,1,110.2,146a10.46,10.46,0,0,1,.51,3.25c0,0.62,0,1.05,0,1.37,0.49,0.26,1.41.69,2.64,1.21a19.2,19.2,0,0,0,5.29,1.43h0.57a16,16,0,0,0,3.67-.61,26.14,26.14,0,0,1,4.82-1,60.34,60.34,0,0,1,9.5,1c4.16,0.68,7.35,1,7.82,1h0.06a2.57,2.57,0,0,1,.25-1.16,2,2,0,0,1,.38-0.49,1.52,1.52,0,0,1-.54-1.77,4.94,4.94,0,0,1-2-.33,6.2,6.2,0,0,1-1.89-1.4,4.94,4.94,0,0,1-1.06-2.58,9.35,9.35,0,0,1,.49-3.15c0.28-.81.86-3.4,1.27-5.64a35.17,35.17,0,0,0,.66-6,36.15,36.15,0,0,0-1.77-6.6c-1-2.73-1.93-5.88-2.16-7s-0.5-3.14-.62-4.48a9.64,9.64,0,0,0-.43-2,6.68,6.68,0,0,0-.66-1.52,5.84,5.84,0,0,0-1.47-1.17,36.68,36.68,0,0,0-4.87-2.62c-6.46-2.89-6.23-4-6.13-4.51,0.28-1.34,2.65-2.18,3.12-2.34A14.87,14.87,0,0,0,131.37,97a12.54,12.54,0,0,0,2.56-2.91c0.51-.87,2.3-5,4.14-9.87a77.11,77.11,0,0,0,3.25-9.85,47.44,47.44,0,0,0-1.39-8.62c-1-4.13-1.9-7.68-2.2-8.41a6.11,6.11,0,0,0-.27-0.57,9.13,9.13,0,0,0-1.26-1.84,85.74,85.74,0,0,0-9.51-5.47c-5.13-2.68-9.54-4.79-10.42-5.08a24.76,24.76,0,0,0-3.7-.83c-1.06-.13-2.78-0.27-3.83-0.29s-2.79,0-3.85.1a30.94,30.94,0,0,1-4.1,0,31.27,31.27,0,0,1-4.07-.68,22.2,22.2,0,0,0-3.55-.54,16.29,16.29,0,0,0-3.19.22c-0.94.19-2.45,0.4-3.38,0.48s-2.45.13-3.38,0.1a19,19,0,0,0-3.08.22A21.63,21.63,0,0,0,77,44a11.79,11.79,0,0,1-3.64.62,11.92,11.92,0,0,1-3.63-.79,20,20,0,0,0-3.08-.94,57.41,57.41,0,0,0-6.37-.41,61.05,61.05,0,0,0-6.39.11,20.41,20.41,0,0,0-3.09.75,15.59,15.59,0,0,1-3.65.7,17.88,17.88,0,0,1-3.84-.33,2.63,2.63,0,0,0-1.58.08,4.11,4.11,0,0,0,.09,1.75,15.3,15.3,0,0,1,.43,4.07,14,14,0,0,1-.91,3.89,12.93,12.93,0,0,0-.81,3.17,36.44,36.44,0,0,0,.94,6.63,33.15,33.15,0,0,1,.92,7.26,16.26,16.26,0,0,1-1,3.74,13.77,13.77,0,0,0-.85,3.18,12.41,12.41,0,0,0,.15,3.16c0.2,1,.51,3.37.68,5.31a34.16,34.16,0,0,1,.1,5.4A28.15,28.15,0,0,1,40.74,95a10.82,10.82,0,0,0-.31,3.11,11.75,11.75,0,0,0,.84,3.14,26.65,26.65,0,0,1,1.28,3.63,23.13,23.13,0,0,1,.57,3.66c0.06,1,.06,2.59,0,3.57s-0.21,2.58-.35,3.57-0.69,3.37-1.2,5.3-1,4.18-1.17,5.1-0.33,4-.39,6.8a37.14,37.14,0,0,0,.31,6.65,17.6,17.6,0,0,0,1.34,3.24A12.16,12.16,0,0,1,43,146.58a11.28,11.28,0,0,1-.41,4,2.45,2.45,0,0,0,.11,1.85,5.05,5.05,0,0,0,2.54.9,28.76,28.76,0,0,0,4.43,0c0.5,0,1.17-.14,1.9-0.27,0.94-.17,1.85-0.37,2.48-0.55a17.89,17.89,0,0,1,4.35-.58H58.9A18.34,18.34,0,0,1,63.76,153a20.74,20.74,0,0,0,4.37,1.09,21.11,21.11,0,0,0,4.53-.11,5,5,0,0,0,2.82-1.44,5.79,5.79,0,0,0,.51-3.34,40.5,40.5,0,0,1-.32-5.22,37.49,37.49,0,0,1,.51-5.08,23,23,0,0,0,.28-4.59,24,24,0,0,0-.86-4.6,32.45,32.45,0,0,1-1.46-10.23,11.11,11.11,0,0,1,.75-4.08,2.46,2.46,0,0,1,2.92-1.14,7.91,7.91,0,0,0,1.76.39,3.41,3.41,0,0,0,1.19-.18,6.91,6.91,0,0,1,1.7-.45,6.22,6.22,0,0,1,1.72.1c0.47,0.1,1.48.42,2.19,0.67a12,12,0,0,0,2.72.51c0.85,0,2.7,0,4.05,0a18,18,0,0,1,4.66.44,8.64,8.64,0,0,1,3.35,1.89c0.57,0.59,1.64,1.55,2.33,2.11s2,1.5,2.81,2a6.82,6.82,0,0,1,1.21,1.06A7.72,7.72,0,0,1,108.91,125Z" fill="url(#a)"/><path d="M155,156.13a4,4,0,0,1-1.73-.23,5.24,5.24,0,0,1-1.53-1.15,3.94,3.94,0,0,1-.81-2,8.51,8.51,0,0,1,.44-2.75c0.29-.86.88-3.46,1.31-5.78a36.12,36.12,0,0,0,.67-6.19,36.36,36.36,0,0,0-1.83-6.88c-0.95-2.69-1.9-5.78-2.12-6.88s-0.49-3.06-.6-4.37a10.16,10.16,0,0,0-1.25-4c-0.57-.87-3.62-2.74-6.77-4.15l-1-.45-1.19-.59a10.58,10.58,0,0,1,.47,2.21c0.11,1.31.38,3.28,0.6,4.37s1.17,4.18,2.12,6.88a36.36,36.36,0,0,1,1.83,6.88,36.12,36.12,0,0,1-.67,6.19c-0.43,2.32-1,4.92-1.31,5.78a8.51,8.51,0,0,0-.44,2.75,3.94,3.94,0,0,0,.81,2,5.24,5.24,0,0,0,1.53,1.15,4,4,0,0,0,1.73.23,2.22,2.22,0,0,1,1.17.09,0.6,0.6,0,0,1-.13.72,0.82,0.82,0,0,0,.45,1.46,1.12,1.12,0,0,1,.65.42,0.7,0.7,0,0,1-.51.42,1.66,1.66,0,0,0-.76.62,1.81,1.81,0,0,0-.1,1,0.89,0.89,0,0,1-1,.7,76.11,76.11,0,0,1-8.07-1,59.45,59.45,0,0,0-9.26-.94,25,25,0,0,0-4.6.93,16.86,16.86,0,0,1-3.94.65c0.06,0.32.11,0.66,0.15,1a8.8,8.8,0,0,1,0,.94,16.77,16.77,0,0,1-.08,1.88,16.45,16.45,0,0,0,3.3,1.63,20,20,0,0,0,5.65,1.5,16.33,16.33,0,0,0,4.58-.66,25,25,0,0,1,4.6-.93,59.45,59.45,0,0,1,9.26.94,76.11,76.11,0,0,0,8.07,1,0.89,0.89,0,0,0,1-.7,1.81,1.81,0,0,1,.1-1,1.66,1.66,0,0,1,.76-0.62,0.7,0.7,0,0,0,.51-0.42,1.12,1.12,0,0,0-.65-0.42,0.82,0.82,0,0,1-.45-1.46,0.6,0.6,0,0,0,.13-0.72A2.22,2.22,0,0,0,155,156.13Z" fill="url(#b)"/><path d="M105.72,122.61c-0.86-.57-2.16-1.51-2.89-2.1s-1.82-1.58-2.41-2.19a7.63,7.63,0,0,0-2.9-1.63,17.07,17.07,0,0,0-4.34-.4c-1.39.06-3.26,0.07-4.15,0a13,13,0,0,1-3-.57c-0.76-.27-1.7-0.55-2.08-0.64a5.21,5.21,0,0,0-1.4-.08,6,6,0,0,0-1.41.38,4.4,4.4,0,0,1-1.63.26,8.86,8.86,0,0,1-2-.44,1.46,1.46,0,0,0-1.71.68,10.28,10.28,0,0,0-.62,3.62,38.48,38.48,0,0,0,.31,5,38.06,38.06,0,0,0,1.11,4.9,24.88,24.88,0,0,1,.9,4.83,23.77,23.77,0,0,1-.3,4.83,36.23,36.23,0,0,0-.5,4.91,39.45,39.45,0,0,0,.31,5.07,6.66,6.66,0,0,1-.69,4A5.94,5.94,0,0,1,72.81,155a22,22,0,0,1-4.79.12,21.66,21.66,0,0,1-4.63-1.16,17.51,17.51,0,0,0-4.54-1,16.6,16.6,0,0,0-4.54.53c-0.7.2-1.65,0.41-2.58,0.57a9.36,9.36,0,0,1,0,1,10,10,0,0,1-.37,2.16,3.3,3.3,0,0,0,.31,2.8,5.72,5.72,0,0,0,3.2,1.24,29.58,29.58,0,0,0,4.62,0,30.21,30.21,0,0,0,4.57-.86,16.6,16.6,0,0,1,4.54-.53,17.51,17.51,0,0,1,4.54,1A21.66,21.66,0,0,0,77.73,162a22,22,0,0,0,4.79-.12A5.94,5.94,0,0,0,86,160.06a6.66,6.66,0,0,0,.69-4,39.45,39.45,0,0,1-.31-5.07,36.23,36.23,0,0,1,.5-4.91,23.77,23.77,0,0,0,.3-4.83,24.88,24.88,0,0,0-.9-4.83,38.06,38.06,0,0,1-1.11-4.9,38.48,38.48,0,0,1-.31-5,10.28,10.28,0,0,1,.62-3.62,1.46,1.46,0,0,1,1.71-.68,8.86,8.86,0,0,0,2,.44,4.4,4.4,0,0,0,1.63-.26,6,6,0,0,1,1.41-.38,5.21,5.21,0,0,1,1.4.08c0.38,0.08,1.32.37,2.08,0.64a13,13,0,0,0,3,.57c0.89,0,2.75,0,4.15,0a17.61,17.61,0,0,1,2,.05,16.17,16.17,0,0,1,1.82.24A5.85,5.85,0,0,0,105.72,122.61Z" fill="url(#c)"/><path d="M138.65,57c0.35,0.87,1.36,4.72,2.24,8.56a46.83,46.83,0,0,1,1.41,8.94A75.57,75.57,0,0,1,139,84.58c-1.71,4.48-3.61,9-4.22,10a13.57,13.57,0,0,1-2.8,3.2,15.83,15.83,0,0,1-4,2.07c-1.25.41-2.36,1.13-2.45,1.59s2.4,2,5.55,3.4a37.47,37.47,0,0,1,5,2.69,7.21,7.21,0,0,1,1-.51c0.19-.08.37-0.16,0.57-0.23a15.83,15.83,0,0,0,4-2.07,13.57,13.57,0,0,0,2.8-3.2c0.61-1,2.51-5.54,4.22-10A75.57,75.57,0,0,0,152,81.42a46.83,46.83,0,0,0-1.41-8.94c-0.88-3.84-1.89-7.69-2.24-8.56a10.19,10.19,0,0,0-1.74-2.73,55,55,0,0,0-6.88-4.12l-1.41-.76A7.27,7.27,0,0,1,138.65,57Z" fill="url(#d)"/></svg>