<svg xmlns="http://www.w3.org/2000/svg" xmlns:xlink="http://www.w3.org/1999/xlink" width="200" height="200" viewBox="0 0 200 200"><defs><linearGradient id="b" x1="55.1" y1="142.96" x2="105.53" y2="29.71" gradientUnits="userSpaceOnUse"><stop offset="0" stop-color="#fdba56"/><stop offset=".02" stop-color="#fbb055"/><stop offset=".06" stop-color="#f79d54"/><stop offset=".1" stop-color="#f59253"/><stop offset=".15" stop-color="#f48e53"/><stop offset=".3" stop-color="#ed5e4e"/><stop offset=".47" stop-color="#683a96" stop-opacity=".5"/><stop offset=".64" stop-color="#ed872b"/><stop offset=".79" stop-color="#7b76b6"/><stop offset=".9" stop-color="#f15f4f"/><stop offset="1" stop-color="#fdba56"/></linearGradient><linearGradient id="a" x1="59.34" y1="68.8" x2="65.37" y2="82.34" gradientUnits="userSpaceOnUse"><stop offset="0" stop-color="#b7151b"/><stop offset=".02" stop-color="#c52229"/><stop offset=".06" stop-color="#d7333c"/><stop offset=".11" stop-color="#e23d47"/><stop offset=".15" stop-color="#e6404b"/><stop offset=".3" stop-color="#e98a7b"/><stop offset=".47" stop-color="#7c78b8"/><stop offset=".64" stop-color="#00b0b0"/><stop offset=".79" stop-color="#7b76b6"/><stop offset="1" stop-color="#e7322f"/></linearGradient><linearGradient id="c" x1="100.66" y1="68.91" x2="136.78" y2="150.05" xlink:href="#a"/></defs><title>_</title><path d="M139.64 50.09a23.75 23.75 0 0 1 .19-3.59 3.76 3.76 0 0 0-.09-1.55 15.29 15.29 0 0 0-4.27-.11c-2.56.21-5.29.35-6.22.31s-2.36-.15-3.25-.29-3.1-.61-4.88-1.08a28.42 28.42 0 0 0-4.54-.85 35.76 35.76 0 0 0-6.07 1.15c-2.41.63-5.61 1.18-6.78 1a11.57 11.57 0 0 1-3.54-1.42 8.18 8.18 0 0 0-2.75-1 6.79 6.79 0 0 0-2.69.39 12.61 12.61 0 0 1-3.5.79 12.36 12.36 0 0 1-3.52-.46 24.73 24.73 0 0 0-3-.69 58.29 58.29 0 0 0-6.19-.14c-2.55 0-5.4.18-6.23.3s-2.23.4-3.06.62a25.34 25.34 0 0 1-3.33.59 24.33 24.33 0 0 1-3.34 0 18.44 18.44 0 0 0-3 .08 20.08 20.08 0 0 0-3 .67 18.66 18.66 0 0 1-3.39.71 48.77 48.77 0 0 1-6-.22 13.17 13.17 0 0 0-4.25.15 4.3 4.3 0 0 0-.63 1.68c-.12.81-.24 2.23-.27 3.11s0 2.42 0 3.39a29.55 29.55 0 0 1-.09 3.78 31 31 0 0 1-.68 3.78 16.93 16.93 0 0 0-.45 3.3 13.79 13.79 0 0 0 .39 3.06 5.85 5.85 0 0 0 1.31 2.24 8 8 0 0 0 2.61 1.42 33.63 33.63 0 0 0 3.67.84l1 .13c1 .11 2.12.2 2.88.22.94 0 5.36-.44 10.42-1.17a58.56 58.56 0 0 1 7.36-.66 5.16 5.16 0 0 1 2.91.52c.87.81 1 2.54.66 3.83a18.27 18.27 0 0 0-.49 3.63v.61a14.13 14.13 0 0 0 .43 2.66 25.45 25.45 0 0 1 .73 3.58 24.11 24.11 0 0 1 .08 3.59 28.56 28.56 0 0 1-.52 3.56 31.32 31.32 0 0 1-1.1 3.45 16.46 16.46 0 0 0-.79 3.17 14.93 14.93 0 0 0 0 3.15c.13.9.63 3.18 1.1 5a34.73 34.73 0 0 1 1 5.31 17.67 17.67 0 0 1-.27 3.65c-.15.76-.38 5.68-.47 11.52l-.16 10.56c-.09 5.83 0 10.68.13 11.39a4.12 4.12 0 0 0 1.19 2 29.48 29.48 0 0 0 7.44 1.71 52 52 0 0 0 8.7.63 27.07 27.07 0 0 0 4.35-1 38.41 38.41 0 0 1 4.58-1.2 30.55 30.55 0 0 1 4.4-.42 6.37 6.37 0 0 0 2.62-.56 2.3 2.3 0 0 0 .8-1.4c.08-.81.43-3 .78-4.78s.68-4 .75-4.86a29 29 0 0 0 0-3.27 32.3 32.3 0 0 1 0-3.54 33.24 33.24 0 0 1 .49-3.54 12.38 12.38 0 0 0 .16-3.1 13.7 13.7 0 0 0-.81-3.13 33.83 33.83 0 0 1-1.2-3.53 30.28 30.28 0 0 1-.68-3.55 28.61 28.61 0 0 1-.15-3.56 29 29 0 0 1 .39-3.56c.18-1 .79-3.31 1.37-5.22a17.13 17.13 0 0 0 .82-4.72 10 10 0 0 0-1-3 15.18 15.18 0 0 1-1.35-3.69 12.81 12.81 0 0 1-.06-3.75 19.28 19.28 0 0 0 .18-3.2 19.78 19.78 0 0 0-.48-3.21 11.45 11.45 0 0 1-.26-3.61 9.92 9.92 0 0 1 1.27-3.32 9.75 9.75 0 0 1 2.4-2.57 11.75 11.75 0 0 1 3.39-1.46 18.22 18.22 0 0 1 3.92-.39 22.6 22.6 0 0 1 4.16.59 27.74 27.74 0 0 0 3.91.63 35.92 35.92 0 0 0 5.77-.43c2.11-.31 4.67-.8 5.6-1.07a8.46 8.46 0 0 0 2.58-1.32 6.57 6.57 0 0 0 1.49-2.14 12 12 0 0 0 .63-2.9 44 44 0 0 0-1-6.86c-.47-2.28-.9-4.74-1.09-6.27-.07-.46-.11-.85-.12-1.09z" fill="url(#b)"/><path d="M72.49 78.47A19.21 19.21 0 0 1 73 74.6a3.32 3.32 0 0 0-.38-2.85c-.49-.46-4.74-.28-9.44.4s-9.47 1.21-10.59 1.18c-.81 0-2-.11-3-.22 0 .36.11.7.17 1s.08.4.13.56a6.87 6.87 0 0 0 1.59 2.7 9 9 0 0 0 3 1.65 34.27 34.27 0 0 0 3.8.87 37 37 0 0 0 4 .36c1 0 5-.41 9.21-1l1-.14c.01-.2 0-.43 0-.64z" fill="url(#a)"/><path d="M141.83 57.26a43.68 43.68 0 0 1 1 7.13 13 13 0 0 1-.7 3.19 7.57 7.57 0 0 1-1.77 2.54 9.37 9.37 0 0 1-3 1.53c-1 .28-3.55.77-5.73 1.1a36.37 36.37 0 0 1-6 .44 28.59 28.59 0 0 1-4.08-.66 21.82 21.82 0 0 0-3.94-.56 17.24 17.24 0 0 0-3.66.37 10.79 10.79 0 0 0-2.95 1.29 8.75 8.75 0 0 0-2.11 2.26 8.92 8.92 0 0 0-1 2.9 10.49 10.49 0 0 0 .24 3.24 20.75 20.75 0 0 1 .51 3.41 20.17 20.17 0 0 1-.19 3.41 11.87 11.87 0 0 0 .05 3.41 14.29 14.29 0 0 0 1.25 3.41 10.89 10.89 0 0 1 1.09 3.41 17.78 17.78 0 0 1-.86 5.11c-.57 1.87-1.17 4.18-1.34 5.11a27.93 27.93 0 0 0-.37 3.41 27.48 27.48 0 0 0 .14 3.41 29.27 29.27 0 0 0 .65 3.41 32.73 32.73 0 0 0 1.16 3.41 14.75 14.75 0 0 1 .89 3.41 13.43 13.43 0 0 1-.17 3.41 32 32 0 0 0-.47 3.41 31.11 31.11 0 0 0 0 3.41 29.74 29.74 0 0 1 0 3.41c-.07.94-.42 3.17-.76 5s-.69 3.91-.77 4.69a3.26 3.26 0 0 1-1.25 2.14 7.09 7.09 0 0 1-3.16.72 29.52 29.52 0 0 0-4.23.4 37.19 37.19 0 0 0-4.57 1.06 27.93 27.93 0 0 1-4.54 1.06 52.08 52.08 0 0 1-8.87-.62v1a13 13 0 0 0 .1 1.4 5.1 5.1 0 0 0 1.58 2.65c.68.55 4.26 1.42 7.93 1.92a52.48 52.48 0 0 0 9 .63 27.93 27.93 0 0 0 4.54-1.06 37.19 37.19 0 0 1 4.44-1.16 29.52 29.52 0 0 1 4.23-.4 7.09 7.09 0 0 0 3.16-.72 3.26 3.26 0 0 0 1.25-2.14c.08-.78.43-2.9.77-4.69s.69-4 .76-5a29.74 29.74 0 0 0 0-3.41 31.11 31.11 0 0 1 0-3.41 32 32 0 0 1 .47-3.41 13.43 13.43 0 0 0 .17-3.41 14.75 14.75 0 0 0-.89-3.41 32.73 32.73 0 0 1-1.16-3.41 29.27 29.27 0 0 1-.65-3.41 27.48 27.48 0 0 1-.14-3.41 27.93 27.93 0 0 1 .37-3.41c.17-.94.78-3.24 1.34-5.11a17.78 17.78 0 0 0 .86-5.11 10.89 10.89 0 0 0-1.09-3.41 14.29 14.29 0 0 1-1.25-3.41 11.87 11.87 0 0 1-.05-3.41 20.17 20.17 0 0 0 .19-3.41 20.75 20.75 0 0 0-.51-3.41 10.49 10.49 0 0 1-.24-3.24 8.92 8.92 0 0 1 1-2.9 8.75 8.75 0 0 1 2.11-2.26 10.79 10.79 0 0 1 3.05-1.31 17.24 17.24 0 0 1 3.66-.37 21.82 21.82 0 0 1 3.94.56 28.59 28.59 0 0 0 4.08.66 36.37 36.37 0 0 0 6-.44c2.17-.32 4.75-.82 5.73-1.1a9.37 9.37 0 0 0 3-1.53 7.57 7.57 0 0 0 1.77-2.54 13 13 0 0 0 .7-3.19 43.68 43.68 0 0 0-1-7.13 70.16 70.16 0 0 1-1.18-7.2 22.59 22.59 0 0 1 .18-3.41 3.85 3.85 0 0 0-.34-2.42c-.32-.41-2.61-.59-5.09-.38-1.13.09-2.32.17-3.36.23h-1c.18 1.57.6 4.01 1.08 6.32z" fill="url(#c)"/></svg>