<svg xmlns="http://www.w3.org/2000/svg" xmlns:xlink="http://www.w3.org/1999/xlink" width="200" height="200" viewBox="0 0 200 200"><defs><linearGradient id="b" x1="61.49" y1="151.43" x2="115.29" y2="30.59" gradientUnits="userSpaceOnUse"><stop offset="0" stop-color="#fdba56"/><stop offset=".02" stop-color="#fbb055"/><stop offset=".06" stop-color="#f79d54"/><stop offset=".1" stop-color="#f59253"/><stop offset=".15" stop-color="#f48e53"/><stop offset=".3" stop-color="#ed5e4e"/><stop offset=".47" stop-color="#683a96" stop-opacity=".5"/><stop offset=".64" stop-color="#ed872b"/><stop offset=".79" stop-color="#7b76b6"/><stop offset=".9" stop-color="#f15f4f"/><stop offset="1" stop-color="#fdba56"/></linearGradient><linearGradient id="a" x1="95.03" y1="72.31" x2="133.23" y2="158.11" gradientUnits="userSpaceOnUse"><stop offset="0" stop-color="#b7151b"/><stop offset=".02" stop-color="#c52229"/><stop offset=".06" stop-color="#d7333c"/><stop offset=".11" stop-color="#e23d47"/><stop offset=".15" stop-color="#e6404b"/><stop offset=".3" stop-color="#e98a7b"/><stop offset=".47" stop-color="#7c78b8"/><stop offset=".64" stop-color="#00b0b0"/><stop offset=".79" stop-color="#7b76b6"/><stop offset="1" stop-color="#e7322f"/></linearGradient><linearGradient id="c" x1="64.98" y1="55.48" x2="95.32" y2="123.64" xlink:href="#a"/></defs><title>_</title><path d="M72.73 51.76a30.66 30.66 0 0 0-1.42-6 4.63 4.63 0 0 0-2.21-.32c-1.1.11-4 .19-6.44.18s-8.58-.47-13.67-1-8.59-.51-9.42-.28a3.12 3.12 0 0 0-.23 1.92c.22 1.14.46 3 .54 4.13a39.65 39.65 0 0 1 0 4.07 33.36 33.36 0 0 1-.53 4.06 36.36 36.36 0 0 1-1.14 4 13 13 0 0 0-.64 3.57 13 13 0 0 0 .64 3.57 20 20 0 0 1 .93 4.15A18.65 18.65 0 0 1 39 78a17.68 17.68 0 0 0-.18 3.65 18.8 18.8 0 0 0 .76 3.67 16.51 16.51 0 0 1 .73 4.21 16.28 16.28 0 0 1-.61 4.21 25.59 25.59 0 0 0-.78 3.73 53.83 53.83 0 0 0 .46 7.68c.38 3.32.68 7 .67 8.13a35.15 35.15 0 0 1-.36 4.31 23.47 23.47 0 0 0-.21 4 22.63 22.63 0 0 0 .62 3.86 23.79 23.79 0 0 0 1.28 3.48c.36.74 3.17 4.85 6.62 9.57l1.6 2.18c3.6 4.92 6.39 8.16 7 8.53a6.63 6.63 0 0 0 2.67.57h.14a12.1 12.1 0 0 1 1.22.07 12.53 12.53 0 0 1 2.36.45 12 12 0 0 1 3.2 1.72 17.5 17.5 0 0 0 2.73 1.69 22.5 22.5 0 0 0 3.32 1.19 14.57 14.57 0 0 0 3.54.36 16.49 16.49 0 0 0 3.67-.73 17.87 17.87 0 0 1 4.22-.82 15.81 15.81 0 0 1 4.13.47 22.66 22.66 0 0 0 3.63.61 114.26 114.26 0 0 0 11.57-1.4l3.44-.55c4.9-.78 10.66-1.57 11.79-1.52a13.81 13.81 0 0 0 3-.29 33.49 33.49 0 0 0 5.56-2.81 54.92 54.92 0 0 0 5.35-3.52 23.43 23.43 0 0 0 2.16-2.24 18.14 18.14 0 0 0 1.68-2.54 18.4 18.4 0 0 0 1.13-2.84 25.53 25.53 0 0 1 1.2-3.21 24.81 24.81 0 0 1 1.69-3 16.73 16.73 0 0 0 1.46-2.78 23.12 23.12 0 0 0 1-3.41c.19-1 .41-2.76.48-3.79s.08-2.78 0-3.82a24.05 24.05 0 0 1 .22-4.14 25.51 25.51 0 0 1 1.08-4.08 10 10 0 0 0 .51-3.45 11.21 11.21 0 0 0-1.06-3.52 13.73 13.73 0 0 1-1.31-4.29 12.4 12.4 0 0 1 .52-4.33c.35-1 1.05-3.69 1.54-5.79a25.81 25.81 0 0 0 .75-5.58 17.92 17.92 0 0 0-.75-3.67 20.38 20.38 0 0 1-.87-4.16 19.24 19.24 0 0 1 .21-4.17 28 28 0 0 0 .36-3.75 27.76 27.76 0 0 0-.27-3.75 29.58 29.58 0 0 1-.29-4.08 29.82 29.82 0 0 1 .4-4.08c.14-.75.33-2.56.47-4.49 0-.62.09-1.24.12-1.83a9 9 0 0 0-.65-4.61c-.44-.18-3.51-.22-7.79.53s-8.42 1.32-9.73 1.34a32.83 32.83 0 0 1-4.71-.31 42.14 42.14 0 0 0-4.25-.39 32.56 32.56 0 0 0-3.9.17 4.65 4.65 0 0 0-2.26.9 19.32 19.32 0 0 0-.3 5.91 60.18 60.18 0 0 1 .08 7.95 28.8 28.8 0 0 1-1 4.33c-.36 1.12-.86 2.94-1.1 4.05s-.54 2.93-.66 4-.21 3.89-.19 6.1.23 5.94.47 8.2a51.4 51.4 0 0 1 .32 6.39 29.28 29.28 0 0 1-.66 4.33 28 28 0 0 0-.61 4 72.28 72.28 0 0 0 .58 8.17 46.16 46.16 0 0 1 .38 8.39c-.24 1.32-2 4.48-3.46 6.78s-3.8 5.14-5 5.78a14 14 0 0 1-4.26 1.19 17.64 17.64 0 0 1-4.69-.26 26.28 26.28 0 0 1-5.24-2.41c-.69-.39-1.39-.8-2.06-1.22a67.69 67.69 0 0 1-6.2-4.24c-.69-.63-1.81-1.77-2.51-2.53a14.7 14.7 0 0 1-2.17-3.26 14.69 14.69 0 0 1-1-8.31 20.47 20.47 0 0 1 1.39-4.37 13.11 13.11 0 0 0 1-3.79 12.06 12.06 0 0 0-.5-3.77 27.59 27.59 0 0 1-1-4.34 72 72 0 0 1 .11-8.48c.18-3.45.6-8.15.92-10.46s.62-5 .67-6.13-.44-5.91-1.22-11.75c-.2-1.35-.37-2.71-.64-4.03z" fill="url(#b)"/><path d="M145.45 49.86c-.14 1.92-.34 3.78-.48 4.59a28.64 28.64 0 0 0-.38 3.92 28.44 28.44 0 0 0 .28 3.92 28.6 28.6 0 0 1 .28 3.92 28.79 28.79 0 0 1-.38 3.92 18.45 18.45 0 0 0-.2 3.92 19.58 19.58 0 0 0 .82 3.92 18.87 18.87 0 0 1 .8 3.92 26.75 26.75 0 0 1-.77 5.88c-.5 2.15-1.2 4.8-1.56 5.88a11.46 11.46 0 0 0-.47 3.92 12.81 12.81 0 0 0 1.2 3.92 12.23 12.23 0 0 1 1.17 3.9 10.89 10.89 0 0 1-.57 3.88 24.37 24.37 0 0 0-1 3.88 22.91 22.91 0 0 0-.21 3.93c.06 1.09 0 2.86 0 3.94s-.29 2.84-.49 3.91a24 24 0 0 1-1 3.59 17.69 17.69 0 0 1-1.57 3 23.7 23.7 0 0 0-1.61 2.81 24.37 24.37 0 0 0-1.14 3.06 19.31 19.31 0 0 1-1.2 3 19.11 19.11 0 0 1-1.79 2.71 24.4 24.4 0 0 1-2.27 2.36 55.85 55.85 0 0 1-5.5 3.63 33.46 33.46 0 0 1-5.85 2.92 15 15 0 0 1-3.3.32c-.95 0-6.17.65-11.6 1.51l-3.44.55a109 109 0 0 1-11.81 1.44 23.45 23.45 0 0 1-3.82-.65 15 15 0 0 0-3.83-.43 17 17 0 0 0-3.94.76 17.46 17.46 0 0 1-3.95.78 15.48 15.48 0 0 1-3.84-.39 23.36 23.36 0 0 1-3.5-1.25 18.43 18.43 0 0 1-2.92-1.81 11 11 0 0 0-2.88-1.55 11.55 11.55 0 0 0-2.15-.41l.77 1.12a33.52 33.52 0 0 0 4.42 5 7.65 7.65 0 0 0 3.18.7 12.51 12.51 0 0 1 3.39.47 11 11 0 0 1 2.88 1.55 18.43 18.43 0 0 0 2.92 1.81 23.36 23.36 0 0 0 3.5 1.25 15.48 15.48 0 0 0 3.84.39 17.46 17.46 0 0 0 3.95-.78 17 17 0 0 1 3.94-.76 15 15 0 0 1 3.83.43 23.45 23.45 0 0 0 3.82.65 109 109 0 0 0 11.81-1.44l3.44-.55c5.43-.86 10.65-1.54 11.6-1.51a15 15 0 0 0 3.3-.32A33.46 33.46 0 0 0 137 156a55.85 55.85 0 0 0 5.5-3.63 24.4 24.4 0 0 0 2.3-2.37 19.11 19.11 0 0 0 1.79-2.71 19.31 19.31 0 0 0 1.2-3 24.37 24.37 0 0 1 1.14-3.06 23.7 23.7 0 0 1 1.61-2.81 17.69 17.69 0 0 0 1.57-3 24 24 0 0 0 1-3.59c.2-1.07.42-2.83.49-3.91s.09-2.85 0-3.94a22.91 22.91 0 0 1 .21-3.93 24.37 24.37 0 0 1 1-3.88 10.89 10.89 0 0 0 .57-3.88 12.23 12.23 0 0 0-1.17-3.9 12.81 12.81 0 0 1-1.2-3.92 11.46 11.46 0 0 1 .47-3.92c.36-1.08 1.06-3.72 1.56-5.88a26.75 26.75 0 0 0 .77-5.88 18.87 18.87 0 0 0-.8-3.92 19.58 19.58 0 0 1-.82-3.92 18.45 18.45 0 0 1 .2-3.92 28.79 28.79 0 0 0 .38-3.92 28.6 28.6 0 0 0-.28-3.92 28.44 28.44 0 0 1-.28-3.92 28.64 28.64 0 0 1 .38-3.92c.2-1.08.47-4 .61-6.45s-.33-4.92-1-5.45-4.07-.4-7.79.19l-.79.13z" fill="url(#a)"/><path d="M74.34 55.67c.73 5.42 1.28 10.79 1.23 11.93s-.36 3.94-.68 6.22-.74 6.94-.89 10.37a72.85 72.85 0 0 0-.07 8.3 26.37 26.37 0 0 0 .94 4.15 13.09 13.09 0 0 1 .55 4.15 14.12 14.12 0 0 1-1.1 4.15A19.7 19.7 0 0 0 73 109a13.68 13.68 0 0 0 .94 7.74 13.8 13.8 0 0 0 2 3c.68.75 1.78 1.86 2.44 2.46a67 67 0 0 0 6.05 4.13c.65.41 1.34.81 2 1.19-.29-.3-.57-.59-.8-.85a13.81 13.81 0 0 1-2-3 13.68 13.68 0 0 1-.94-7.74 19.7 19.7 0 0 1 1.31-4.06 14.12 14.12 0 0 0 1.1-4.15 13.09 13.09 0 0 0-.55-4.15 26.37 26.37 0 0 1-.94-4.15 72.85 72.85 0 0 1 .07-8.3c.18-3.42.59-8.09.91-10.37s.63-5.08.68-6.22-.49-6.53-1.22-11.92S82.27 52.41 81.7 52a5.09 5.09 0 0 0-3-.57c-.73.07-2.3.13-4 .16h-1c.24 1.27.45 2.65.64 4.08z" fill="url(#c)"/></svg>