<svg xmlns="http://www.w3.org/2000/svg" xmlns:xlink="http://www.w3.org/1999/xlink" width="200" height="200" viewBox="0 0 200 200"><defs><linearGradient id="b" x1="52.58" y1="142.36" x2="103.88" y2="27.13" gradientUnits="userSpaceOnUse"><stop offset="0" stop-color="#fdba56"/><stop offset=".02" stop-color="#fbb055"/><stop offset=".06" stop-color="#f79d54"/><stop offset=".1" stop-color="#f59253"/><stop offset=".15" stop-color="#f48e53"/><stop offset=".3" stop-color="#ed5e4e"/><stop offset=".47" stop-color="#683a96" stop-opacity=".5"/><stop offset=".64" stop-color="#ed872b"/><stop offset=".79" stop-color="#7b76b6"/><stop offset=".9" stop-color="#f15f4f"/><stop offset="1" stop-color="#fdba56"/></linearGradient><linearGradient id="a" x1="102.33" y1="68.65" x2="138.44" y2="149.75" gradientUnits="userSpaceOnUse"><stop offset="0" stop-color="#b7151b"/><stop offset=".02" stop-color="#c52229"/><stop offset=".06" stop-color="#d7333c"/><stop offset=".11" stop-color="#e23d47"/><stop offset=".15" stop-color="#e6404b"/><stop offset=".3" stop-color="#e98a7b"/><stop offset=".47" stop-color="#7c78b8"/><stop offset=".64" stop-color="#00b0b0"/><stop offset=".79" stop-color="#7b76b6"/><stop offset="1" stop-color="#e7322f"/></linearGradient><linearGradient id="c" x1="71.03" y1="49.49" x2="98.12" y2="110.32" xlink:href="#a"/></defs><title>_</title><path d="M70.79 49.18a14.91 14.91 0 0 1-.08-4.13 2.69 2.69 0 0 0-.47-2 29.18 29.18 0 0 0-7.63.11c-4.1.44-8.34.75-9.66.69a46.52 46.52 0 0 1-4.7-.48 45.1 45.1 0 0 0-4.5-.46h-1.31c-1.11 0-2.39 0-3.28.11a5.06 5.06 0 0 0-2.57.85 2.48 2.48 0 0 0 0 1.86c.34 1 1 2.55 1.38 3.48s1.17 2.39 1.67 3.26 1.64 3.19 2.47 5.07 2 5 2.7 6.92 1.36 4.35 1.58 5.38.5 2.7.63 3.75.41 2.59.63 3.54.69 2.5 1 3.4a29.26 29.26 0 0 1 1 3.69 31 31 0 0 1 .46 3.78 33.72 33.72 0 0 0 .39 3.6 31.48 31.48 0 0 0 .85 3.43c.3.94.87 2.43 1.26 3.34s1.1 2.36 1.58 3.24 1.33 2.28 1.9 3.12 1.58 2.19 2.25 3a23.94 23.94 0 0 1 2.22 3.32c.6 1.13 2.18 6.81 3.37 11.57l.49 2c1.33 5.32 3.79 13.44 5.49 18.1 1.8 4.92 3.67 8.61 4.22 9.1a11.1 11.1 0 0 0 3.3 1.36c.84.18 2.13.4 3.27.55l1.09.13c1.21.14 3.21.22 4.43.14s3.23-.2 4.45-.37 3.23-.56 4.45-.87a40.28 40.28 0 0 1 4.66-.84 36.86 36.86 0 0 1 4.59-.14 6.25 6.25 0 0 0 2.86-.55 3.39 3.39 0 0 0 1.13-1.87 15.51 15.51 0 0 1 1.23-3.6 18.63 18.63 0 0 1 2.28-3.3 11.76 11.76 0 0 0 1.8-2.89 11.2 11.2 0 0 0 .61-3.29 13.75 13.75 0 0 1 .72-4 14 14 0 0 1 2.08-3.51 21.08 21.08 0 0 0 2-3 87.69 87.69 0 0 0 3-8.46c1.32-4.14 2.36-7.84 2.5-8.69a31.84 31.84 0 0 1 .9-3.72 31.43 31.43 0 0 1 1.43-3.54c.43-.87 2-4.74 3.33-8.44s3.35-10 4.36-13.91 1.94-7.9 2.09-8.87.3-2.64.33-3.65a18.78 18.78 0 0 1 .63-3.93 33.76 33.76 0 0 1 2.42-5.22 57.18 57.18 0 0 0 3-6.34c.19-.52.39-1.05.57-1.58.43-1.25.78-2.39.88-2.85a2 2 0 0 0-.3-1.38 5.53 5.53 0 0 0-2.23-1 25.34 25.34 0 0 0-3.85-.48 33.24 33.24 0 0 0-4.24.22c-1.29.17-3.4.32-4.69.34s-5.6-.35-9.59-.82c-4.33-.51-7.4-.4-7.91-.19a2.89 2.89 0 0 0-1 1.88c-.1 1.08-.46 3.44-.81 5.28a28.84 28.84 0 0 1-1.36 5 22.46 22.46 0 0 1-1.71 3A8.09 8.09 0 0 0 105.8 61a9.2 9.2 0 0 0 .11 2.94 12.68 12.68 0 0 1 .21 3.7 11 11 0 0 1-1.12 3.43 17.79 17.79 0 0 0-1.19 2.77 50.13 50.13 0 0 0-.94 6.15c-.26 2.44-.85 5.59-1.44 6.64a13.73 13.73 0 0 1-2.44 3 6.41 6.41 0 0 0-1.6 2.33 6.15 6.15 0 0 0 0 2.75 8.88 8.88 0 0 1 .13 3.84 8.57 8.57 0 0 1-1.88 3.31c-.14.15-.29.32-.44.51a10.25 10.25 0 0 0-1.26 2 8.87 8.87 0 0 0-.59 2.74 28 28 0 0 1-.25 3.15 16.83 16.83 0 0 1-.67 2.66 2.48 2.48 0 0 1-1.8 1.79c-1.08 0-1.92-1.21-2.08-1.47a20.92 20.92 0 0 1-1.26-2.45c-.31-.74-.77-2-1-2.92a18.12 18.12 0 0 1-.58-3.36 20.4 20.4 0 0 1 .16-3.53 7.65 7.65 0 0 0-.19-2.78 8.27 8.27 0 0 0-1.48-2.47 18.36 18.36 0 0 1-2.14-3c-.56-1-1.94-6.68-2.95-11.5L78.65 79c-1.22-5.81-2.3-10.47-2.55-11.17A24.46 24.46 0 0 0 74.87 65a13.38 13.38 0 0 1-1.16-3.3 14.22 14.22 0 0 1-.1-3.56 10 10 0 0 0-.16-2.88 9.89 9.89 0 0 0-1.2-2.61 10.91 10.91 0 0 1-1.41-3.3z" fill="url(#b)"/><path d="M144 51.43a58.63 58.63 0 0 1-3 6.47 33.39 33.39 0 0 0-2.33 5 17.94 17.94 0 0 0-.59 3.68c0 1.06-.19 2.75-.34 3.76s-1.1 5.05-2.11 9-3 10.22-4.39 14-2.93 7.63-3.37 8.54a30.36 30.36 0 0 0-1.37 3.4 30.7 30.7 0 0 0-.87 3.58c-.17 1-1.31 5-2.54 8.83a88.17 88.17 0 0 1-3.11 8.63 22 22 0 0 1-2.15 3.14 13.1 13.1 0 0 0-1.91 3.22 12.8 12.8 0 0 0-.66 3.65 12.26 12.26 0 0 1-.68 3.65 12.79 12.79 0 0 1-2 3.19 17.81 17.81 0 0 0-2.14 3.09 14.58 14.58 0 0 0-1.13 3.32 4.33 4.33 0 0 1-1.57 2.53 7 7 0 0 1-3.45.71 35.37 35.37 0 0 0-4.43.14 39.25 39.25 0 0 0-4.52.82c-1.25.32-3.31.72-4.56.9s-3.28.32-4.54.32-3.3 0-4.53-.16l-1.13-.13c.16.37.33.73.48 1.07a13.67 13.67 0 0 0 2.19 3.77 11.92 11.92 0 0 0 3.69 1.54c1.22.27 3.24.58 4.48.7s3.28.21 4.58.21 3.31-.2 4.56-.38 3.31-.58 4.56-.9a39.25 39.25 0 0 1 4.52-.82 35.37 35.37 0 0 1 4.43-.14 7 7 0 0 0 3.45-.71 4.33 4.33 0 0 0 1.57-2.53 14.58 14.58 0 0 1 1.13-3.32 17.81 17.81 0 0 1 2.14-3.09 12.79 12.79 0 0 0 2-3.19 12.26 12.26 0 0 0 .68-3.65 12.8 12.8 0 0 1 .66-3.65 13.1 13.1 0 0 1 1.91-3.22 22 22 0 0 0 2.15-3.14 88.17 88.17 0 0 0 3.11-8.63c1.23-3.85 2.37-7.82 2.54-8.83a30.7 30.7 0 0 1 .87-3.58 30.36 30.36 0 0 1 1.37-3.4c.45-.91 2-4.75 3.37-8.54s3.38-10.09 4.39-14 2-8 2.11-9 .31-2.71.34-3.76a17.94 17.94 0 0 1 .59-3.68 33.39 33.39 0 0 1 2.33-5 58.63 58.63 0 0 0 3-6.47 43.25 43.25 0 0 0 1.49-4.58 2.89 2.89 0 0 0-.55-2.26 6.32 6.32 0 0 0-2.72-1.32 26.18 26.18 0 0 0-4-.5h-2.21l-1.08.07c-.27.57-.46 1.12-.71 1.65z" fill="url(#a)"/><path d="M71.81 49.15a10 10 0 0 0 1.26 3A10.78 10.78 0 0 1 74.42 55a10.94 10.94 0 0 1 .19 3.24 13.33 13.33 0 0 0 .09 3.26 12.43 12.43 0 0 0 1.06 3 25.26 25.26 0 0 1 1.3 2.94c.29.83 1.45 5.91 2.58 11.29L80.1 81a89 89 0 0 0 2.85 11.22A17.5 17.5 0 0 0 85 95a9.19 9.19 0 0 1 1.69 2.84 8.6 8.6 0 0 1 .23 3.23 19.65 19.65 0 0 0-.16 3.33 17.3 17.3 0 0 0 .54 3.14c.24.84.69 2.1 1 2.81a20.15 20.15 0 0 0 1.19 2.31 2 2 0 0 0 1.17 1 1.7 1.7 0 0 0 .93-1.13 15.94 15.94 0 0 0 .62-2.47 26.67 26.67 0 0 0 .24-3 9.79 9.79 0 0 1 .67-3.12 11.21 11.21 0 0 1 1.4-2.21c-.2-.24-.42-.51-.64-.79a15.64 15.64 0 0 1-1.17-1.73 89 89 0 0 1-2.85-11.22l-.47-2.23c-1.13-5.38-2.29-10.46-2.58-11.29a25.26 25.26 0 0 0-1.3-2.94 12.43 12.43 0 0 1-1.06-3 13.33 13.33 0 0 1-.09-3.26 10.94 10.94 0 0 0-.23-3.27 10.78 10.78 0 0 0-1.35-3 9.94 9.94 0 0 1-1.3-3.12 14 14 0 0 1-.06-3.79 3.51 3.51 0 0 0-.85-2.94c-.59-.45-4-.51-7.75-.15l-.6.06z" fill="url(#c)"/></svg>