<svg xmlns="http://www.w3.org/2000/svg" xmlns:xlink="http://www.w3.org/1999/xlink" width="200" height="200" viewBox="0 0 200 200"><defs><linearGradient id="b" x1="63.85" y1="164.18" x2="122.28" y2="32.93" gradientUnits="userSpaceOnUse"><stop offset="0" stop-color="#fdba56"/><stop offset=".02" stop-color="#fbb055"/><stop offset=".06" stop-color="#f79d54"/><stop offset=".1" stop-color="#f59253"/><stop offset=".15" stop-color="#f48e53"/><stop offset=".3" stop-color="#ed5e4e"/><stop offset=".47" stop-color="#683a96" stop-opacity=".5"/><stop offset=".64" stop-color="#ed872b"/><stop offset=".79" stop-color="#7b76b6"/><stop offset=".9" stop-color="#f15f4f"/><stop offset="1" stop-color="#fdba56"/></linearGradient><linearGradient id="a" x1="67.04" y1="135.84" x2="78.67" y2="161.97" gradientUnits="userSpaceOnUse"><stop offset="0" stop-color="#b7151b"/><stop offset=".02" stop-color="#c52229"/><stop offset=".06" stop-color="#d7333c"/><stop offset=".11" stop-color="#e23d47"/><stop offset=".15" stop-color="#e6404b"/><stop offset=".3" stop-color="#e98a7b"/><stop offset=".47" stop-color="#7c78b8"/><stop offset=".64" stop-color="#00b0b0"/><stop offset=".79" stop-color="#7b76b6"/><stop offset="1" stop-color="#e7322f"/></linearGradient><linearGradient id="c" x1="118.06" y1="61.41" x2="161.11" y2="158.08" xlink:href="#a"/><linearGradient id="d" x1="83.92" y1="48.42" x2="93.68" y2="70.35" xlink:href="#a"/></defs><title>_</title><path d="M80.7 50a11.36 11.36 0 0 0-2.06-2.48 25.61 25.61 0 0 0-3.21-2.19 40 40 0 0 0-4.13-1.92 13.72 13.72 0 0 0-4.42-.8 16.29 16.29 0 0 0-4.65 1A28.37 28.37 0 0 1 56.91 45a69 69 0 0 1-10.21-.18 32.68 32.68 0 0 0-7.59.06 2.21 2.21 0 0 0 .07 1.42 13.54 13.54 0 0 0 1.7 3 17 17 0 0 0 2.72 2.57A15.08 15.08 0 0 1 46.69 55a15 15 0 0 1 1.78 4A12.47 12.47 0 0 0 50 62.42 12.8 12.8 0 0 0 52.66 65a14.2 14.2 0 0 1 3.16 3.14 14.07 14.07 0 0 1 1.74 4.08A21.51 21.51 0 0 0 58.83 76a19.44 19.44 0 0 0 2 3.18c.67.82 2.54 2.81 4.1 4.35a28.46 28.46 0 0 1 4 4.73 13.15 13.15 0 0 1 1.25 3.84 19.19 19.19 0 0 1 .05 4 20.37 20.37 0 0 1-.92 3.93 23.82 23.82 0 0 1-1.83 3.77 28.24 28.24 0 0 1-2.69 3.5 18.79 18.79 0 0 0-2.35 3.35 20.65 20.65 0 0 0-1.45 4 14.54 14.54 0 0 1-2 4.41 14.85 14.85 0 0 1-3.55 3.31A9.62 9.62 0 0 0 51 128.8a19.22 19.22 0 0 1-1.59 4.54 17.54 17.54 0 0 1-2.83 3.72c-.75.72-3.54 4.22-6.51 8.29a45 45 0 0 0-4.07 6.42 6.72 6.72 0 0 0 1.79.08 33.16 33.16 0 0 1 5.11.07 37.88 37.88 0 0 1 4.85.92l.36.1a32.48 32.48 0 0 0 4.91.91 30.77 30.77 0 0 0 4.91-.05c1.43-.16 5-.32 7.9-.37s5.82-.58 6.56-1a14.64 14.64 0 0 0 3.39-4.87 127.45 127.45 0 0 1 6.94-11.79c2.63-4 5.26-8.21 5.75-9.18a4.77 4.77 0 0 1 2.91-2.59 5.3 5.3 0 0 1 3.71 1.48A16.88 16.88 0 0 1 98 129a18.91 18.91 0 0 1 1.7 4.43c0 .18.1.39.15.6a29.65 29.65 0 0 0 1.21 3.58 27.28 27.28 0 0 0 2.08 3.75c.72 1 1.81 2.82 2.44 4s1.56 3.08 2.08 4.31a5.32 5.32 0 0 0 2.2 2.42 7.46 7.46 0 0 0 3.83 0l.62-.14a23 23 0 0 1 4.24-.43h.73a21 21 0 0 1 5.47 1.26 20.77 20.77 0 0 0 4.82 1.18 19.09 19.09 0 0 0 4.79-.33c1.44-.32 3.77-.72 5.18-.88s3.73-.3 5.15-.31a4.92 4.92 0 0 0 2.47-.56 2.81 2.81 0 0 0-.42-1.6 27.92 27.92 0 0 0-2.33-3.31 31.08 31.08 0 0 0-3-3 21 21 0 0 1-3.12-3.41 65.13 65.13 0 0 1-3.88-8 47.52 47.52 0 0 0-3.76-7.48 23.54 23.54 0 0 0-3-2.93 14.5 14.5 0 0 1-3.09-3.57 15.49 15.49 0 0 1-1.54-4.56 27.79 27.79 0 0 0-1-4.24 23.85 23.85 0 0 0-1.78-3.73 26.2 26.2 0 0 0-2.56-3.33 32.38 32.38 0 0 0-3.38-3 7.27 7.27 0 0 1-2.68-3.72 5.87 5.87 0 0 1 1.29-4.14c.74-.93 2.36-3.23 3.6-5.13a109.35 109.35 0 0 1 7.83-9.71 180.16 180.16 0 0 0 11.11-14.22l4.83-6.94c1.89-2.72 3.8-5.56 5.11-7.58 1-1.58 1.32-2.13 1.41-2.32a2.48 2.48 0 0 0 .16-1.92 5.42 5.42 0 0 0-2.7-1.12 31.14 31.14 0 0 0-4.87-.31 32.59 32.59 0 0 0-4.91.63 25.45 25.45 0 0 1-5.36.5 26 26 0 0 1-5.35-.9 37.94 37.94 0 0 0-5.06-1.06 40.43 40.43 0 0 0-5.3-.22 8.13 8.13 0 0 0-3.84 1.15 6 6 0 0 0-1.72 3.06 43.33 43.33 0 0 1-1.21 4.63 113.29 113.29 0 0 1-5.87 10.9l-.77 1.27c-1.23 2.1-2.54 4.13-3.69 5.74-2.21 3.11-2.84 3.35-3.45 3.35-1.57 0-4.36-4.32-5.48-6.17a81.84 81.84 0 0 1-4.28-7.72 25.57 25.57 0 0 1-1.1-4.2 13.74 13.74 0 0 0-1.17-3.47z" fill="url(#b)"/><path d="M98.71 133.67a18.12 18.12 0 0 0-1.59-4.15 16 16 0 0 0-2.69-3.31 4.45 4.45 0 0 0-2.89-1.21 3.88 3.88 0 0 0-2.19 2c-.51 1-3.12 5.19-5.8 9.28A126.58 126.58 0 0 0 76.67 148c-1.09 2.33-2.8 4.71-3.79 5.3s-4.16 1.11-7.05 1.16-6.4.22-7.81.37a31.54 31.54 0 0 1-5.1.05 33.18 33.18 0 0 1-5.1-.95l-.34-.09-.59.88c-1.6 2.44-2.59 4.31-2.35 4.59s1.68.62 3 .51a32 32 0 0 1 4.93.07 36.29 36.29 0 0 1 5 1 33.18 33.18 0 0 0 5.1.95 31.54 31.54 0 0 0 5.1-.05c1.4-.15 4.92-.32 7.81-.37s6.07-.57 7.05-1.16 2.69-3 3.79-5.3a126.58 126.58 0 0 1 6.87-11.66c1.94-3 3.82-5.93 4.92-7.74.29-.48.54-.9.7-1.19 0-.29-.06-.5-.1-.7z" fill="url(#a)"/><path d="M141.1 56.48l-4.83 6.94a181.58 181.58 0 0 1-11.18 14.31 108.4 108.4 0 0 0-7.74 9.59c-1.25 1.91-2.9 4.26-3.66 5.21a5 5 0 0 0-1.09 3.33 6.32 6.32 0 0 0 2.25 3.14 33.23 33.23 0 0 1 3.51 3.14 27.09 27.09 0 0 1 2.68 3.49 24.73 24.73 0 0 1 1.88 3.92 28.66 28.66 0 0 1 1.09 4.43 14.61 14.61 0 0 0 1.42 4.22 13.6 13.6 0 0 0 2.84 3.28 24.39 24.39 0 0 1 3.14 3.09 47.27 47.27 0 0 1 3.91 7.73 64.39 64.39 0 0 0 3.78 7.82 20.21 20.21 0 0 0 2.95 3.21 31.68 31.68 0 0 1 3.1 3.08 28.66 28.66 0 0 1 2.44 3.45c.58 1 .72 2.23.32 2.74a5 5 0 0 1-3.23.92c-1.38 0-3.64.14-5 .3s-3.68.55-5.08.86a20 20 0 0 1-5.1.35 21.67 21.67 0 0 1-5.1-1.25 20.14 20.14 0 0 0-5.16-1.19 20.48 20.48 0 0 0-4.7.39l.48.93c.52 1 1.1 2.26 1.47 3.13a6.22 6.22 0 0 0 2.73 3 8.39 8.39 0 0 0 4.46.06 16.35 16.35 0 0 1 10.43.66 21.67 21.67 0 0 0 5.1 1.25 20 20 0 0 0 5.1-.35c1.4-.31 3.69-.7 5.08-.86s3.66-.29 5-.3a5 5 0 0 0 3.23-.92c.4-.5.25-1.73-.32-2.74a28.66 28.66 0 0 0-2.44-3.45 31.68 31.68 0 0 0-3.1-3.08 20.21 20.21 0 0 1-2.95-3.21 64.39 64.39 0 0 1-3.78-7.82 47.27 47.27 0 0 0-3.91-7.73 24.39 24.39 0 0 0-3.14-3.09 13.6 13.6 0 0 1-2.84-3.28 14.61 14.61 0 0 1-1.42-4.22 28.66 28.66 0 0 0-1.09-4.43 24.73 24.73 0 0 0-1.88-3.92 27.09 27.09 0 0 0-2.68-3.49 33.23 33.23 0 0 0-3.51-3.14 6.32 6.32 0 0 1-2.25-3.09 5 5 0 0 1 1.09-3.33c.76-1 2.4-3.3 3.66-5.21a108.4 108.4 0 0 1 7.74-9.59A181.58 181.58 0 0 0 146 70.37l4.83-6.94c3.14-4.51 6.11-9 6.59-10a3.26 3.26 0 0 0 .06-2.95 6.07 6.07 0 0 0-3.35-1.52 32.29 32.29 0 0 0-5.07-.32c-.44 0-1 .06-1.54.11l-1.28.15c-1.24 1.93-3.17 4.76-5.14 7.58z" fill="url(#c)"/><path d="M81.66 49.62a14.76 14.76 0 0 1 1.28 3.78 24.47 24.47 0 0 0 1.13 4 83.49 83.49 0 0 0 4.21 7.6c1.9 3.12 4 5.68 4.64 5.69.35 0 1.35-1.14 2.63-2.93l-.54-1c-.6-1.09-1-2-1.22-2.41a24.47 24.47 0 0 1-1.13-4 14.76 14.76 0 0 0-1.28-3.78A12.14 12.14 0 0 0 89 53.68a26.41 26.41 0 0 0-3.36-2.29C85 51 84 50.51 83 50.07c-.49-.22-1-.43-1.4-.6z" fill="url(#d)"/></svg>