<svg xmlns="http://www.w3.org/2000/svg" xmlns:xlink="http://www.w3.org/1999/xlink" width="108.52" height="200" viewBox="0 0 108.52 200"><defs><linearGradient id="b" x1="16.74" y1="139.39" x2="69.43" y2="21.06" gradientUnits="userSpaceOnUse"><stop offset="0" stop-color="#fdba56"/><stop offset=".02" stop-color="#fbb055"/><stop offset=".06" stop-color="#f79d54"/><stop offset=".1" stop-color="#f59253"/><stop offset=".15" stop-color="#f48e53"/><stop offset=".3" stop-color="#ed5e4e"/><stop offset=".47" stop-color="#683a96" stop-opacity=".5"/><stop offset=".64" stop-color="#ed872b"/><stop offset=".79" stop-color="#7b76b6"/><stop offset=".9" stop-color="#f15f4f"/><stop offset="1" stop-color="#fdba56"/></linearGradient><linearGradient id="a" x1="69.43" y1="64.48" x2="105.95" y2="146.52" gradientUnits="userSpaceOnUse"><stop offset="0" stop-color="#b7151b"/><stop offset=".02" stop-color="#c52229"/><stop offset=".06" stop-color="#d7333c"/><stop offset=".11" stop-color="#e23d47"/><stop offset=".15" stop-color="#e6404b"/><stop offset=".3" stop-color="#e98a7b"/><stop offset=".47" stop-color="#7c78b8"/><stop offset=".64" stop-color="#00b0b0"/><stop offset=".79" stop-color="#7b76b6"/><stop offset="1" stop-color="#e7322f"/></linearGradient><linearGradient id="c" x1="42.28" y1="44.56" x2="56.55" y2="76.61" xlink:href="#a"/></defs><title>_</title><path d="M37.66 46.67a16.69 16.69 0 0 0-2.48-3.95 10.38 10.38 0 0 0-3.64-1.88 39.29 39.29 0 0 0-4.75-.84c-1.31-.13-5.88-.14-10 0s-8.66.35-9.94.5a44.7 44.7 0 0 0-4.57.85 8.08 8.08 0 0 0-2.3.94.8.8 0 0 0 .24.33 13.69 13.69 0 0 1 2 2.39A87.08 87.08 0 0 1 6 54.72c1.65 4.89 3.13 8.94 3.48 9.64a21.06 21.06 0 0 0 1.7 2.74c.59.78 1.47 2.09 2 2.93s1.22 2.24 1.62 3.13a10.12 10.12 0 0 0 1.75 2.49 13.55 13.55 0 0 0 2.83 2 15.19 15.19 0 0 1 3.33 2.33 11.75 11.75 0 0 1 2.15 3.13c.36.83 1 2.19 1.47 3s1.23 2.07 1.74 2.81A24.54 24.54 0 0 1 29.78 92 26 26 0 0 1 31 95.39a31.88 31.88 0 0 0 1.06 3.18c.34.83 1.78 3.53 3.14 5.9a54.65 54.65 0 0 1 3.33 6.59 47 47 0 0 1 1.28 4.64 22.52 22.52 0 0 1 .38 5.33 23.85 23.85 0 0 1-1.19 5.31 31.88 31.88 0 0 0-1.26 4.86 74.66 74.66 0 0 0 0 10c.25 4.59 1 7.73 1.39 8.2.42.26 3.32.65 7.41.33 3.08-.24 6.25-.39 8.12-.39h1.26a43.86 43.86 0 0 1 4.67.71 29.68 29.68 0 0 0 4.29.56 25.88 25.88 0 0 0 4.13-.25 6.59 6.59 0 0 0 3-1.44 9.18 9.18 0 0 0 1.81-3.35 22.37 22.37 0 0 0 .67-4.66 24.32 24.32 0 0 0-.55-4.83 28.78 28.78 0 0 1-.65-5.37 28.46 28.46 0 0 1 .59-5.35 22.77 22.77 0 0 0 .08-9.83 29.83 29.83 0 0 1-.57-4.89 16.26 16.26 0 0 1 .55-4.09c.29-.95.84-2.45 1.22-3.35s1.07-2.31 1.54-3.15a20.19 20.19 0 0 1 2.09-2.94 22.45 22.45 0 0 1 2.73-2.53 9.66 9.66 0 0 0 2-2.28 9.77 9.77 0 0 0 1-2.92 14.21 14.21 0 0 1 1.07-3.65 13.22 13.22 0 0 1 2.17-3c.64-.65 2.14-2.4 3.27-3.83s4.45-6.41 7.38-11.06l.16-.26c3.17-5 5.66-9.18 6-9.89a21.9 21.9 0 0 0 1.12-3.06 34.34 34.34 0 0 1 1.14-3.4 32.35 32.35 0 0 1 1.55-3.17c.3-.53 1-1.53 1.86-2.74.48-.67 1-1.37 1.51-2a10.06 10.06 0 0 0 1.56-2.67 69.39 69.39 0 0 0-9.74-.64l-5.85-.08c-5.49-.07-12.19.09-14.94.36a18.92 18.92 0 0 0-6.52 1.66c-.83.57-3.39 3.94-5.73 7.86-2.24 3.74-5.06 8.91-6.28 11.52s-3.11 7.2-4.2 10.22c-.05.24-.05.45-.19.74-2.1 5.43-3.29 5.47-3.68 5.48-1.72.07-3-3.07-3.12-3.42a54.22 54.22 0 0 0-2.41-5.18 44.55 44.55 0 0 0-2.89-4.49c-.91-1.21-2.9-4.22-4.43-6.72a80.74 80.74 0 0 1-4.79-9.36c-.27-.6-.54-1.29-.88-1.93z" fill="url(#b)"/><path d="M113.38 45.94h-2.23c-.81 1.12-1.51 2.14-1.8 2.65a31.11 31.11 0 0 0-1.49 3 33 33 0 0 0-1.1 3.28 22.58 22.58 0 0 1-1.19 3.23c-.4.84-3.13 5.34-6.06 10l-.16.26C96.4 73 93.05 78 91.89 79.52s-2.67 3.24-3.35 3.92a12.25 12.25 0 0 0-2 2.77 13.29 13.29 0 0 0-1 3.35 10.66 10.66 0 0 1-1.09 3.29 10.54 10.54 0 0 1-2.3 2.57 21.75 21.75 0 0 0-2.59 2.4 19.35 19.35 0 0 0-2 2.77c-.45.81-1.13 2.19-1.5 3.05s-.81 2.36-1.06 3.23a15.34 15.34 0 0 0-.5 3.79 28.7 28.7 0 0 0 .55 4.69 23.75 23.75 0 0 1-.09 10.26 27.32 27.32 0 0 0-.57 5.13 27.65 27.65 0 0 0 .62 5.14 25.23 25.23 0 0 1 .57 5.07 23.21 23.21 0 0 1-.71 4.91 10.06 10.06 0 0 1-2.07 3.79 7.57 7.57 0 0 1-3.53 1.71 27 27 0 0 1-4.33.26 30.41 30.41 0 0 1-4.47-.58 42.72 42.72 0 0 0-4.54-.7 86.78 86.78 0 0 0-9.18.35c0 .34.08.67.12 1 .35 2.72.87 4.87 1.36 5.33.69.64 4.38.92 8.2.62a87.08 87.08 0 0 1 9.21-.35 42.72 42.72 0 0 1 4.54.7 30.41 30.41 0 0 0 4.47.58 27 27 0 0 0 4.33-.26 7.57 7.57 0 0 0 3.53-1.71 10.06 10.06 0 0 0 2.07-3.79 23.21 23.21 0 0 0 .71-4.91 25.23 25.23 0 0 0-.57-5.07 27.65 27.65 0 0 1-.62-5.14 27.32 27.32 0 0 1 .57-5.13 23.75 23.75 0 0 0 .09-10.26 28.7 28.7 0 0 1-.55-4.69 15.34 15.34 0 0 1 .5-3.79c.28-.92.82-2.38 1.18-3.25s1-2.24 1.5-3.05a19.35 19.35 0 0 1 2-2.77 21.75 21.75 0 0 1 2.59-2.4 10.54 10.54 0 0 0 2.3-2.57 10.66 10.66 0 0 0 1.09-3.29 13.29 13.29 0 0 1 1-3.35 12.25 12.25 0 0 1 2-2.77c.68-.68 2.18-2.44 3.35-3.92S106.11 80 109 75.31l.16-.26c2.93-4.65 5.66-9.15 6.06-10a22.58 22.58 0 0 0 1.19-3.23 33 33 0 0 1 1.1-3.28 31.11 31.11 0 0 1 1.49-3c.46-.81 1.95-2.9 3.3-4.65s2.13-3.54 1.74-4-5.16-.89-10.66-.95z" fill="url(#a)"/><path d="M39.46 48.2a79.61 79.61 0 0 0 4.72 9.22c1.52 2.48 3.49 5.47 4.38 6.64a46 46 0 0 1 3 4.61A55.53 55.53 0 0 1 54 74c.61 1.55 1.58 2.8 2.16 2.79s1.73-2.13 2.77-4.84c-.23-.34-.46-.65-.66-.92v-.06c-.9-1.21-2.83-4.14-4.33-6.58a79.61 79.61 0 0 1-4.72-9.22 22.77 22.77 0 0 0-3.6-6.22 11.25 11.25 0 0 0-4.06-2.11c-.49-.12-1.11-.26-1.75-.38l-1.2-.21c.26.62.57 1.29.85 1.95z" fill="url(#c)"/></svg>