<svg xmlns="http://www.w3.org/2000/svg" xmlns:xlink="http://www.w3.org/1999/xlink" width="107.82" height="200" viewBox="0 0 107.82 200"><defs><linearGradient id="b" x1="23.06" y1="160.44" x2="78.46" y2="36" gradientUnits="userSpaceOnUse"><stop offset="0" stop-color="#fdba56"/><stop offset=".02" stop-color="#fbb055"/><stop offset=".06" stop-color="#f79d54"/><stop offset=".1" stop-color="#f59253"/><stop offset=".15" stop-color="#f48e53"/><stop offset=".3" stop-color="#ed5e4e"/><stop offset=".47" stop-color="#683a96" stop-opacity=".5"/><stop offset=".64" stop-color="#ed872b"/><stop offset=".79" stop-color="#7b76b6"/><stop offset=".9" stop-color="#f15f4f"/><stop offset="1" stop-color="#fdba56"/></linearGradient><linearGradient id="a" x1="26.79" y1="58.75" x2="35.4" y2="78.08" gradientUnits="userSpaceOnUse"><stop offset="0" stop-color="#b7151b"/><stop offset=".02" stop-color="#c52229"/><stop offset=".06" stop-color="#d7333c"/><stop offset=".11" stop-color="#e23d47"/><stop offset=".15" stop-color="#e6404b"/><stop offset=".3" stop-color="#e98a7b"/><stop offset=".47" stop-color="#7c78b8"/><stop offset=".64" stop-color="#00b0b0"/><stop offset=".79" stop-color="#7b76b6"/><stop offset="1" stop-color="#e7322f"/></linearGradient><linearGradient id="c" x1="64.43" y1="61.9" x2="87.98" y2="114.78" xlink:href="#a"/><linearGradient id="d" x1="54.69" y1="132.8" x2="72.73" y2="173.32" xlink:href="#a"/></defs><title>_</title><path d="M39.43 80.21a62.11 62.11 0 0 0-3 6A30 30 0 0 1 33 92.42a13.91 13.91 0 0 1-3 2.17 31.94 31.94 0 0 0-2.84 1.71 57.94 57.94 0 0 0-4.78 4.34 47.86 47.86 0 0 0-4.3 4.72 23.76 23.76 0 0 0-1.53 2.85 24.58 24.58 0 0 1-1.7 3.14 22.9 22.9 0 0 1-2.19 2.72 23.32 23.32 0 0 1-2.66 2.27 25.94 25.94 0 0 1-3.13 1.84 16.27 16.27 0 0 0-2.72 1.74A15.86 15.86 0 0 0 2 122.25a8.22 8.22 0 0 0-1.18 2.6 8.5 8.5 0 0 0 .08 2.9 16.79 16.79 0 0 1 .37 3.7 16 16 0 0 1-.63 3.61 16.43 16.43 0 0 0-.6 3.06 15.51 15.51 0 0 0 .15 3c.16.93.34 2.51.4 3.51s.07 2.66 0 3.71a3.57 3.57 0 0 0 .73 2.21 6.25 6.25 0 0 0 2.82 1.16 30.11 30.11 0 0 0 4.27.28h.85a26.67 26.67 0 0 0 3.19-.42 26.67 26.67 0 0 1 4.32-.49 27.26 27.26 0 0 1 4.34.37 15.54 15.54 0 0 0 3.86.12 17.53 17.53 0 0 0 3.89-1.07 28 28 0 0 1 4.35-1.38 65.08 65.08 0 0 1 8.53-.5c3.49 0 7.27.07 8.45.21a38.58 38.58 0 0 1 4.3.82 20.74 20.74 0 0 0 3.93.55 20 20 0 0 0 3.93-.39 28.45 28.45 0 0 1 4.35-.55 27.53 27.53 0 0 1 4.35.28 34.85 34.85 0 0 0 4 .35 33.48 33.48 0 0 0 4-.23 21.25 21.25 0 0 1 4.41 0 23.35 23.35 0 0 1 4.39 1.06 14.38 14.38 0 0 0 3.77.75 13.3 13.3 0 0 0 3.6-.57 10 10 0 0 0 2.78-1.54 5.24 5.24 0 0 0 1.26-2 10 10 0 0 0 .26-2.63 12.77 12.77 0 0 0-.62-2.87 13 13 0 0 1-.66-3.56 12.79 12.79 0 0 1 .56-3.56 31.06 31.06 0 0 0 .82-3.2c.19-1 .4-2.71.47-3.75a3.7 3.7 0 0 0-.57-2.24 4.24 4.24 0 0 0-2.37-.78 20.22 20.22 0 0 0-3.77.31 17.68 17.68 0 0 0-3.38 1.17 13.51 13.51 0 0 1-3.84 1.14 12.25 12.25 0 0 1-3.88-.34c-.92-.26-2.48-.61-3.39-.76s-2.47-.31-3.39-.36a19.16 19.16 0 0 0-3.3.19 21.61 21.61 0 0 0-3.32.89 23.41 23.41 0 0 1-3.69 1 41.81 41.81 0 0 1-5 .17h-2.17c-2.93-.1-6.09-.29-7.05-.43a31.81 31.81 0 0 1-3.44-.73c-.22-.06-2.18-.65-2.5-1.86-.25-.94.53-2 1.41-2.7.65-.49 2.3-1.92 3.6-3.1a67.26 67.26 0 0 0 6.25-7.5c2.2-3 5-6.6 6.24-8a43.28 43.28 0 0 0 3-3.79 23.48 23.48 0 0 0 1.53-2.89A11 11 0 0 1 69.19 94a11.89 11.89 0 0 1 3.26-2 16.19 16.19 0 0 0 2.89-1.57 38.57 38.57 0 0 0 4.34-4.72 75.06 75.06 0 0 1 5.69-6.29 23.77 23.77 0 0 0 3.17-3.53 14.27 14.27 0 0 0 1.28-3 10.13 10.13 0 0 1 1.87-3.48A10.83 10.83 0 0 1 95 67.08a4.64 4.64 0 0 0 1.93-1.53 3.66 3.66 0 0 0 0-2.2 15.9 15.9 0 0 1-.62-3.65 14.21 14.21 0 0 1 .45-3.56 9.78 9.78 0 0 0 .28-2.85 10.87 10.87 0 0 0-.8-2.88 17.67 17.67 0 0 1-.85-2.41c-.08-.3-.15-.57-.2-.8a9.68 9.68 0 0 1-.06-2.94 1.42 1.42 0 0 0-.13-.91 76.78 76.78 0 0 0-9.68-1.79c-5.61-.79-10.38-1.33-11.31-1.33a25.15 25.15 0 0 0-3.79.35 35.13 35.13 0 0 1-4.13.48c-1.16 0-6.46-.2-12.08-.57l-4-.26c-5.92-.39-10.87-.54-11.79-.44s-2.82.43-3.86.68-2.83.78-3.87 1.17a15.13 15.13 0 0 1-4.32.8 15.12 15.12 0 0 1-4.29-.75c-1.07-.38-2.82-.9-3.89-1.17s-2.81-.6-3.88-.75a14.55 14.55 0 0 0-3.55 0 13.42 13.42 0 0 0-3.26 1.08 7.67 7.67 0 0 0-2.15 1.65 13.82 13.82 0 0 0-.32 4.74 34.54 34.54 0 0 1-.06 6.2 20.43 20.43 0 0 1-1.07 3.43 13.56 13.56 0 0 0-.83 2.94 11.38 11.38 0 0 0 .07 2.85 2.88 2.88 0 0 0 .75 1.49 2.87 2.87 0 0 0 1.66.08 14.56 14.56 0 0 1 3.38-.36 15.7 15.7 0 0 1 3.41.57c.84.25 2.26.6 3.09.77s2.25.36 3.08.44a21.57 21.57 0 0 0 3 0 22.72 22.72 0 0 0 3-.51 12.42 12.42 0 0 1 3.52-.29 13.47 13.47 0 0 1 3.49.9 9.29 9.29 0 0 0 2.81.63 9.08 9.08 0 0 0 2.8-.52 16.81 16.81 0 0 1 3.44-.86 9.86 9.86 0 0 1 1.14 0c1.35 0 3.34.13 4.93.29 4.89.51 5.12 1.19 5.26 1.64s.36 1.07-5.8 6.79l-1.45 1.36a62.2 62.2 0 0 0-5.02 5.13z" fill="url(#b)"/><path d="M45.22 73c3.13-2.9 5.62-5.51 5.53-5.79s-2.08-.71-4.42-1a37.7 37.7 0 0 0-5.84-.21 16 16 0 0 0-3.19.82 10 10 0 0 1-3.19.59 10.19 10.19 0 0 1-3.19-.71 12.52 12.52 0 0 0-3.19-.82 11.48 11.48 0 0 0-3.19.26 23.46 23.46 0 0 1-3.19.53 22.51 22.51 0 0 1-3.19 0c-.88-.08-2.31-.28-3.19-.45s-2.31-.53-3.19-.79c-.09.35-.16.68-.21 1v.25a12.43 12.43 0 0 0 .07 3.15A3.67 3.67 0 0 0 12.82 72a3.65 3.65 0 0 0 2.45.21 13.74 13.74 0 0 1 3.1-.33 14.83 14.83 0 0 1 3.16.53c.88.26 2.31.62 3.19.79s2.31.38 3.19.45a22.51 22.51 0 0 0 3.19 0 23.46 23.46 0 0 0 3.19-.53 11.48 11.48 0 0 1 3.19-.26 12.52 12.52 0 0 1 3.19.82 9.87 9.87 0 0 0 1.86.54 8.3 8.3 0 0 0 1.27.17z" fill="url(#a)"/><path d="M97.18 50a11.72 11.72 0 0 1 .89 3.21 10.66 10.66 0 0 1-.31 3.21 13.28 13.28 0 0 0-.42 3.27 14.89 14.89 0 0 0 .58 3.31 4.58 4.58 0 0 1-.1 3 5.49 5.49 0 0 1-2.43 2 9.85 9.85 0 0 0-2.95 2 9.14 9.14 0 0 0-1.65 3.08 15.31 15.31 0 0 1-1.39 3.25 24.75 24.75 0 0 1-3.34 3.73 74.09 74.09 0 0 0-5.6 6.19 38.57 38.57 0 0 1-4.53 4.91 17.19 17.19 0 0 1-3.11 1.69 10.92 10.92 0 0 0-2.94 1.84A10 10 0 0 0 68 97.51a24.47 24.47 0 0 1-1.61 3 43.73 43.73 0 0 1-3.14 3.91c-1.22 1.37-4 4.94-6.18 7.92a67.26 67.26 0 0 1-6.41 7.66c-1.33 1.22-3 2.64-3.67 3.16a2.18 2.18 0 0 0-1.05 1.65 2.87 2.87 0 0 0 1.82 1.19 30.78 30.78 0 0 0 3.31.71c.93.13 4.05.32 6.94.42h2.15l.22-.2c.22-.2.5-.49.79-.8a79.7 79.7 0 0 0 5.59-6.84c2.18-3 5-6.55 6.18-7.92a43.73 43.73 0 0 0 3.14-3.91 24.47 24.47 0 0 0 1.61-3 10 10 0 0 1 1.91-2.78 10.92 10.92 0 0 1 2.94-1.84 17.19 17.19 0 0 0 3.11-1.69 38.57 38.57 0 0 0 4.53-4.91A74.09 74.09 0 0 1 95.77 87a24.75 24.75 0 0 0 3.34-3.73 15.31 15.31 0 0 0 1.39-3.25 9.14 9.14 0 0 1 1.65-3.02 9.85 9.85 0 0 1 2.95-2 5.49 5.49 0 0 0 2.43-2 4.58 4.58 0 0 0 .1-3 14.89 14.89 0 0 1-.57-3.38 13.28 13.28 0 0 1 .42-3.27 10.66 10.66 0 0 0 .31-3.21 11.72 11.72 0 0 0-.89-3.21 15.86 15.86 0 0 1-1-3 8.6 8.6 0 0 1-.06-2.58 2.22 2.22 0 0 0-.51-1.84c-.34-.3-3.69-1-7.87-1.64l-1.1-.17a17.15 17.15 0 0 0 .82 2.3z" fill="url(#c)"/><path d="M99.79 135a11.85 11.85 0 0 0-.51 3.23 12 12 0 0 0 .6 3.23 13.81 13.81 0 0 1 .68 3.14 11 11 0 0 1-.29 3 6.16 6.16 0 0 1-1.55 2.49 10.83 10.83 0 0 1-3.1 1.73 13.52 13.52 0 0 1-4 .63 15.34 15.34 0 0 1-4.09-.81 22.25 22.25 0 0 0-4.17-1 20.42 20.42 0 0 0-4.17 0 35.21 35.21 0 0 1-4.16.24 35.43 35.43 0 0 1-4.16-.36 26.76 26.76 0 0 0-4.16-.27 27.26 27.26 0 0 0-4.16.52 21.33 21.33 0 0 1-4.17.42 21.63 21.63 0 0 1-4.17-.59 37.55 37.55 0 0 0-4.16-.79c-1.15-.14-4.89-.23-8.33-.21a64.22 64.22 0 0 0-8.33.48 26.81 26.81 0 0 0-4.17 1.32 18.49 18.49 0 0 1-4.16 1.14 16.61 16.61 0 0 1-4.16-.13 25.84 25.84 0 0 0-4.15-.36 25.58 25.58 0 0 0-4.12.46 27.66 27.66 0 0 1-3.33.44v2.3a4.49 4.49 0 0 0 1 3 7.1 7.1 0 0 0 3.38 1.44 31.64 31.64 0 0 0 4.44.29 27.51 27.51 0 0 0 4.22-.48 25.58 25.58 0 0 1 4.12-.46 25.84 25.84 0 0 1 4.15.36 16.61 16.61 0 0 0 4.16.13 18.49 18.49 0 0 0 4.23-1.15 26.81 26.81 0 0 1 4.17-1.32 64.22 64.22 0 0 1 8.33-.48c3.44 0 7.18.07 8.33.21a37.55 37.55 0 0 1 4.16.79 21.63 21.63 0 0 0 4.17.59 21.33 21.33 0 0 0 4.17-.42 27.26 27.26 0 0 1 4.16-.52 26.76 26.76 0 0 1 4.16.27 35.43 35.43 0 0 0 4.16.36 35.21 35.21 0 0 0 4.16-.24 20.42 20.42 0 0 1 4.17 0 22.25 22.25 0 0 1 4.17 1 15.34 15.34 0 0 0 4.09.81 13.52 13.52 0 0 0 4-.63 10.83 10.83 0 0 0 3.1-1.73 6.16 6.16 0 0 0 1.55-2.49 11 11 0 0 0 .29-3 13.81 13.81 0 0 0-.68-3.14 12 12 0 0 1-.6-3.23 11.85 11.85 0 0 1 .51-3.23 31.63 31.63 0 0 0 .87-3.42c.18-1 .39-2.69.47-3.78a4.54 4.54 0 0 0-.84-3 5.11 5.11 0 0 0-3.06-1.08 20.77 20.77 0 0 0-4 .33c-.35.07-.77.19-1.21.32s-.72.23-1.08.36a31.76 31.76 0 0 1-.93 3.29z" fill="url(#d)"/></svg>