<svg xmlns="http://www.w3.org/2000/svg" width="101.95" height="200" viewBox="0 0 101.95 200"><defs><linearGradient id="a" x1="29.82" y1="137.64" x2="63.41" y2="62.2" gradientUnits="userSpaceOnUse"><stop offset="0" stop-color="#fdba56"/><stop offset=".02" stop-color="#fbb055"/><stop offset=".06" stop-color="#f79d54"/><stop offset=".1" stop-color="#f59253"/><stop offset=".15" stop-color="#f48e53"/><stop offset=".3" stop-color="#ed5e4e"/><stop offset=".47" stop-color="#683a96" stop-opacity=".5"/><stop offset=".64" stop-color="#ed872b"/><stop offset=".79" stop-color="#7b76b6"/><stop offset=".9" stop-color="#f15f4f"/><stop offset="1" stop-color="#fdba56"/></linearGradient><linearGradient id="b" x1="33.63" y1="50.41" x2="84.63" y2="164.95" gradientUnits="userSpaceOnUse"><stop offset="0" stop-color="#b7151b"/><stop offset=".02" stop-color="#c52229"/><stop offset=".06" stop-color="#d7333c"/><stop offset=".11" stop-color="#e23d47"/><stop offset=".15" stop-color="#e6404b"/><stop offset=".3" stop-color="#e98a7b"/><stop offset=".47" stop-color="#7c78b8"/><stop offset=".64" stop-color="#00b0b0"/><stop offset=".79" stop-color="#7b76b6"/><stop offset="1" stop-color="#e7322f"/></linearGradient></defs><title>_</title><path d="M30.36 50.29a31.73 31.73 0 0 0-2.92-3.78 6.39 6.39 0 0 0-1.77-1.1 8.24 8.24 0 0 0-2-.35 10.45 10.45 0 0 0-2.33.28 18.3 18.3 0 0 1-2.9.42 17.94 17.94 0 0 1-2.89-.14c-.7-.1-1.78-.22-2.36-.25a14.62 14.62 0 0 0-1.82 0h-.07a38.08 38.08 0 0 0 1.81 5.12A110.61 110.61 0 0 0 19 62a87.31 87.31 0 0 1 4.68 8.66 30.44 30.44 0 0 1 1 4c.19 1.07.58 2.76.85 3.78s2 5.38 4.21 10.68S34 98.67 34.5 99.38a36 36 0 0 0 2.37 3c.76.84 1.9 2.27 2.54 3.18a39.34 39.34 0 0 1 2.1 3.4c.52 1 1.57 3.41 2.33 5.45s1.75 4.31 2.22 5.21a26.33 26.33 0 0 0 2 3.1 17.87 17.87 0 0 1 2.09 3.57 18.84 18.84 0 0 1 1.07 4.06 33.27 33.27 0 0 0 .75 3.77 30.38 30.38 0 0 0 1.26 3.51 37.23 37.23 0 0 0 1.77 3.31c.53.88 2.45 3.62 4.27 6.11a58.39 58.39 0 0 0 4.21 5.28 6.76 6.76 0 0 0 1.8 1.09 16.9 16.9 0 0 0 2.16.54c.32.05.76.1 1.2.15s.88.07 1.23.08a39 39 0 0 0 3.92-.24c1.52-.15 3.43-.28 4.26-.29s2.26.07 3.17.17a1.53 1.53 0 0 0 1.1-.26 5.06 5.06 0 0 0-.19-2.21c-.32-1.11-.91-2.81-1.32-3.81s-2.85-5.67-5.34-10.24a166.66 166.66 0 0 0-9.14-14.71c-2.54-3.52-5.5-7.9-6.59-9.77a41.13 41.13 0 0 1-2.67-5.34 32.14 32.14 0 0 1-1.07-3.94 23.85 23.85 0 0 0-1-3.55c-.37-.94-2-4-3.53-6.7A51 51 0 0 1 48 86.13a28.79 28.79 0 0 1-.84-4.13 21.87 21.87 0 0 0-.79-3.68 19.91 19.91 0 0 0-1.52-3.29A34.57 34.57 0 0 0 42.68 72 38 38 0 0 0 40 69.12a14 14 0 0 1-2.52-3.46 14.1 14.1 0 0 1-1.09-4.15 14.89 14.89 0 0 0-.83-3.56 13.85 13.85 0 0 0-1.85-3c-.52-.61-1.48-1.89-2.44-3.24-.27-.51-.61-.98-.91-1.42z" fill="url(#a)"/><path d="M34.51 54.26a14.82 14.82 0 0 1 2 3.31 15.83 15.83 0 0 1 .9 3.86 13.21 13.21 0 0 0 1 3.81 13 13 0 0 0 2.31 3.17 38.73 38.73 0 0 1 2.72 3 35.32 35.32 0 0 1 2.25 3.19 20.77 20.77 0 0 1 1.62 3.5 22.71 22.71 0 0 1 .84 3.88 27.66 27.66 0 0 0 .77 3.92 50.24 50.24 0 0 0 3.43 6.91c1.59 2.77 3.2 5.84 3.59 6.83a24.9 24.9 0 0 1 1.06 3.72 31 31 0 0 0 1 3.8 40.87 40.87 0 0 0 2.59 5.17c1.07 1.84 4 6.2 6.53 9.69a168.21 168.21 0 0 1 9.21 14.82c2.54 4.66 5 9.31 5.38 10.34s1 2.79 1.36 3.91a5.1 5.1 0 0 1 .1 3 2.22 2.22 0 0 1-2.08.76c-.87-.1-2.24-.17-3.05-.16s-2.68.13-4.16.28-3.3.26-4 .24c-.37 0-.83 0-1.29-.08l.8 1.06a41.71 41.71 0 0 0 3.16 3.81 7.7 7.7 0 0 0 2.14 1.29 17.82 17.82 0 0 0 2.32.58 22.5 22.5 0 0 0 2.57.24c.74 0 2.56-.09 4-.24s3.35-.28 4.16-.28 2.18.07 3.05.16a2.22 2.22 0 0 0 2.08-.76 5.1 5.1 0 0 0-.1-3c-.33-1.12-.94-2.88-1.36-3.91s-2.84-5.68-5.38-10.34A168.21 168.21 0 0 0 76.88 129c-2.52-3.49-5.46-7.85-6.53-9.69a40.87 40.87 0 0 1-2.59-5.17 31 31 0 0 1-1-3.8 24.9 24.9 0 0 0-1.08-3.76c-.39-1-2-4.07-3.59-6.83a50.24 50.24 0 0 1-3.43-6.91 27.66 27.66 0 0 1-.77-3.92A22.71 22.71 0 0 0 57 85a20.77 20.77 0 0 0-1.62-3.5 35.32 35.32 0 0 0-2.25-3.19 38.73 38.73 0 0 0-2.72-3 13 13 0 0 1-2.31-3.17 13.21 13.21 0 0 1-1-3.81 15.83 15.83 0 0 0-.9-3.86 14.82 14.82 0 0 0-2-3.31c-.71-.84-2.21-2.87-3.33-4.53a31.88 31.88 0 0 0-3.07-4 7.29 7.29 0 0 0-2.1-1.23 9.22 9.22 0 0 0-2.33-.4h-.07a10 10 0 0 0-1.18.08 48.42 48.42 0 0 0 2.39 3.18z" fill="url(#b)"/></svg>