<svg xmlns="http://www.w3.org/2000/svg" xmlns:xlink="http://www.w3.org/1999/xlink" width="200" height="200" viewBox="0 0 200 200"><defs><linearGradient id="a" x1="78.84" y1="136.27" x2="112.42" y2="60.83" gradientUnits="userSpaceOnUse"><stop offset="0" stop-color="#fdba56"/><stop offset="0.02" stop-color="#fbb055"/><stop offset="0.06" stop-color="#f79d54"/><stop offset="0.1" stop-color="#f59253"/><stop offset="0.15" stop-color="#f48e53"/><stop offset="0.3" stop-color="#ed5e4e"/><stop offset="0.47" stop-color="#683a96" stop-opacity="0.5"/><stop offset="0.64" stop-color="#ed872b"/><stop offset="0.79" stop-color="#7b76b6"/><stop offset="0.9" stop-color="#f15f4f"/><stop offset="1" stop-color="#fdba56"/></linearGradient><linearGradient id="b" x1="82.64" y1="49.04" x2="133.64" y2="163.58" gradientUnits="userSpaceOnUse"><stop offset="0" stop-color="#b7151b"/><stop offset="0.02" stop-color="#c52229"/><stop offset="0.06" stop-color="#d7333c"/><stop offset="0.11" stop-color="#e23d47"/><stop offset="0.15" stop-color="#e6404b"/><stop offset="0.3" stop-color="#e98a7b"/><stop offset="0.47" stop-color="#7c78b8"/><stop offset="0.64" stop-color="#00b0b0"/><stop offset="0.79" stop-color="#7b76b6"/><stop offset="1" stop-color="#e7322f"/></linearGradient></defs><title>_</title><path d="M79.37,48.91a31.73,31.73,0,0,0-2.92-3.78A6.39,6.39,0,0,0,74.68,44a8.24,8.24,0,0,0-2-.35,10.45,10.45,0,0,0-2.33.28,18.3,18.3,0,0,1-2.9.42,17.94,17.94,0,0,1-2.89-.14c-0.7-.1-1.78-0.22-2.36-0.25a14.62,14.62,0,0,0-1.82,0l-0.07,0a38.08,38.08,0,0,0,1.81,5.12A110.61,110.61,0,0,0,68,60.59a87.31,87.31,0,0,1,4.68,8.66,30.44,30.44,0,0,1,1,4c0.19,1.07.58,2.76,0.85,3.78s2,5.38,4.21,10.68S83,97.29,83.51,98a36,36,0,0,0,2.37,3c0.76,0.84,1.9,2.27,2.54,3.18a39.34,39.34,0,0,1,2.1,3.4c0.52,1,1.57,3.41,2.33,5.45s1.75,4.31,2.22,5.21a26.33,26.33,0,0,0,2,3.1,17.87,17.87,0,0,1,2.09,3.57,18.84,18.84,0,0,1,1.07,4.06,33.27,33.27,0,0,0,.75,3.77,30.38,30.38,0,0,0,1.26,3.51,37.23,37.23,0,0,0,1.74,3.31c0.53,0.88,2.45,3.62,4.27,6.11a58.39,58.39,0,0,0,4.21,5.28,6.76,6.76,0,0,0,1.8,1.09,16.9,16.9,0,0,0,2.16.54c0.32,0.05.76,0.1,1.2,0.15s0.88,0.07,1.23.08a39,39,0,0,0,3.92-.24c1.52-.15,3.43-0.28,4.26-0.29s2.26,0.07,3.17.17h0a1.53,1.53,0,0,0,1.1-.26,5.06,5.06,0,0,0-.19-2.21c-0.32-1.11-.91-2.81-1.32-3.81s-2.85-5.67-5.34-10.24a166.66,166.66,0,0,0-9.14-14.71c-2.54-3.52-5.5-7.9-6.59-9.77a41.13,41.13,0,0,1-2.67-5.34,32.14,32.14,0,0,1-1.05-3.94,23.85,23.85,0,0,0-1-3.58c-0.37-.94-2-4-3.53-6.7A51,51,0,0,1,97,84.76a28.79,28.79,0,0,1-.81-4.09A21.87,21.87,0,0,0,95.38,77a19.91,19.91,0,0,0-1.52-3.29,34.57,34.57,0,0,0-2.17-3.08,38,38,0,0,0-2.64-2.87,14,14,0,0,1-2.52-3.46,14.1,14.1,0,0,1-1.09-4.15,14.89,14.89,0,0,0-.83-3.56,13.85,13.85,0,0,0-1.85-3c-0.52-.61-1.48-1.89-2.44-3.24C80,49.82,79.67,49.35,79.37,48.91Z" fill="url(#a)"/><path d="M83.53,52.88a14.82,14.82,0,0,1,2,3.31,15.83,15.83,0,0,1,.9,3.86,13.21,13.21,0,0,0,1,3.81A13,13,0,0,0,89.74,67a38.73,38.73,0,0,1,2.72,3,35.32,35.32,0,0,1,2.25,3.19,20.77,20.77,0,0,1,1.62,3.5,22.71,22.71,0,0,1,.84,3.88,27.66,27.66,0,0,0,.77,3.92,50.24,50.24,0,0,0,3.43,6.91c1.59,2.77,3.2,5.84,3.59,6.83A24.9,24.9,0,0,1,106,102a31,31,0,0,0,1,3.8,40.87,40.87,0,0,0,2.59,5.17c1.07,1.84,4,6.2,6.53,9.69a168.21,168.21,0,0,1,9.21,14.82c2.54,4.66,5,9.31,5.38,10.34s1,2.79,1.36,3.91a5.1,5.1,0,0,1,.1,3,2.22,2.22,0,0,1-2.08.76c-0.87-.1-2.24-0.17-3.05-0.16s-2.68.13-4.16,0.28-3.3.26-4,.24c-0.37,0-.83,0-1.29-0.08l0.8,1.06a41.71,41.71,0,0,0,3.18,3.86,7.7,7.7,0,0,0,2.14,1.29,17.82,17.82,0,0,0,2.32.58,22.5,22.5,0,0,0,2.57.24c0.74,0,2.56-.09,4-0.24s3.35-.28,4.16-0.28,2.18,0.07,3.05.16a2.22,2.22,0,0,0,2.08-.76,5.1,5.1,0,0,0-.1-3c-0.33-1.12-.94-2.88-1.36-3.91s-2.84-5.68-5.38-10.34a168.21,168.21,0,0,0-9.21-14.82c-2.52-3.49-5.46-7.85-6.53-9.69a40.87,40.87,0,0,1-2.59-5.17,31,31,0,0,1-1-3.8,24.9,24.9,0,0,0-1.08-3.76c-0.39-1-2-4.07-3.59-6.83a50.24,50.24,0,0,1-3.43-6.91,27.66,27.66,0,0,1-.77-3.92,22.71,22.71,0,0,0-.84-3.88,20.77,20.77,0,0,0-1.62-3.5,35.32,35.32,0,0,0-2.25-3.19,38.73,38.73,0,0,0-2.72-3,13,13,0,0,1-2.31-3.17,13.21,13.21,0,0,1-1-3.81,15.83,15.83,0,0,0-.9-3.86,14.82,14.82,0,0,0-2-3.31C92.53,59,91,56.95,89.9,55.29a31.88,31.88,0,0,0-3.07-4A7.29,7.29,0,0,0,84.71,50a9.22,9.22,0,0,0-2.33-.4H82.31a10,10,0,0,0-1.18.08C82.05,51,83,52.27,83.53,52.88Z" fill="url(#b)"/></svg>