<svg xmlns="http://www.w3.org/2000/svg" xmlns:xlink="http://www.w3.org/1999/xlink" width="67.53" height="200" viewBox="0 0 67.53 200"><defs><linearGradient id="b" x1=".02" y1="160.48" x2="56.93" y2="32.66" gradientTransform="rotate(180 34.305 102.325)" gradientUnits="userSpaceOnUse"><stop offset="0" stop-color="#fdba56"/><stop offset=".02" stop-color="#fbb055"/><stop offset=".06" stop-color="#f79d54"/><stop offset=".1" stop-color="#f59253"/><stop offset=".15" stop-color="#f48e53"/><stop offset=".3" stop-color="#ed5e4e"/><stop offset=".47" stop-color="#683a96" stop-opacity=".5"/><stop offset=".64" stop-color="#ed872b"/><stop offset=".79" stop-color="#7b76b6"/><stop offset=".9" stop-color="#f15f4f"/><stop offset="1" stop-color="#fdba56"/></linearGradient><linearGradient id="a" x1="29.09" y1="47.33" x2="66.87" y2="132.19" gradientTransform="rotate(180 34.305 102.325)" gradientUnits="userSpaceOnUse"><stop offset="0" stop-color="#b7151b"/><stop offset=".02" stop-color="#c52229"/><stop offset=".06" stop-color="#d7333c"/><stop offset=".11" stop-color="#e23d47"/><stop offset=".15" stop-color="#e6404b"/><stop offset=".3" stop-color="#e98a7b"/><stop offset=".47" stop-color="#7c78b8"/><stop offset=".64" stop-color="#00b0b0"/><stop offset=".79" stop-color="#7b76b6"/><stop offset="1" stop-color="#e7322f"/></linearGradient><linearGradient id="c" x1="36.01" y1="156.17" x2="46.89" y2="180.6" xlink:href="#a"/></defs><title>_</title><path d="M17.76 54.34c0 .33.06.73.07 1.13a12.68 12.68 0 0 1-.05 1.53 3.68 3.68 0 0 0 .22 1.52 3.42 3.42 0 0 0 1 1.09 9.63 9.63 0 0 0 1.78.88 35.26 35.26 0 0 0 4.13.75l.49.07a21.16 21.16 0 0 0 4.6.19 12.1 12.1 0 0 0 2.55-1c1.33-.74 2.64-.69 3.21.12.67 1 .11 3.12 0 3.55a15.25 15.25 0 0 0-.5 3.77 14.05 14.05 0 0 0 .7 3.62 12.45 12.45 0 0 1 .64 4.27A13.27 13.27 0 0 1 35.47 80a9 9 0 0 0-.79 3.4 9.43 9.43 0 0 0 1 3.42A20.77 20.77 0 0 1 37.29 91a17.24 17.24 0 0 1 .44 4.15 25.87 25.87 0 0 1-.55 4.05 29.33 29.33 0 0 1-1.34 4 16.57 16.57 0 0 0-1 3.6 42.65 42.65 0 0 0 .65 7.45 48.11 48.11 0 0 1 .71 8 21.73 21.73 0 0 1-.9 4.09 12.13 12.13 0 0 0-.55 3.51 12.53 12.53 0 0 0 .76 3.52 20.54 20.54 0 0 1 1.1 4.1 57.12 57.12 0 0 1-.16 7.9c-.11 1.43-.52 6.16-1.3 7a2.71 2.71 0 0 1-3 .47 10.22 10.22 0 0 0-2.16-.57 9.71 9.71 0 0 0-2.18.06 14.09 14.09 0 0 0-2.28.64 18 18 0 0 0-2.32 1.17 9.76 9.76 0 0 1-2.74 1.12 6.71 6.71 0 0 1-2.71-.11 1.41 1.41 0 0 0-.8 0 3 3 0 0 0-.3 1.06 23.59 23.59 0 0 1-.43 2.79 29.59 29.59 0 0 1-.85 2.9 13.36 13.36 0 0 0-.6 2.61 26.57 26.57 0 0 0 .31 4c.06.49.13 1 .21 1.47a14.39 14.39 0 0 0 1.14 4.16 3.29 3.29 0 0 0 1.54 0 11.44 11.44 0 0 1 3.37-.23 12.52 12.52 0 0 1 3.32.94 13.43 13.43 0 0 0 2.75.88 11.53 11.53 0 0 0 2.71.07 20.68 20.68 0 0 0 2.84-.6 24.27 24.27 0 0 0 2.86-1.11 9.55 9.55 0 0 1 3.42-.84 9.56 9.56 0 0 1 3.43.76 10.06 10.06 0 0 0 2.67.73 9.06 9.06 0 0 0 2.64-.27 15.77 15.77 0 0 1 3.25-.52 48.38 48.38 0 0 1 7 1.06 21.92 21.92 0 0 0 4.29.5 3.8 3.8 0 0 0 1.22-.13 4.48 4.48 0 0 0 .77-2.27 19.1 19.1 0 0 0-.2-3.83 15.87 15.87 0 0 0-1.13-3.4 21.83 21.83 0 0 1-1.36-3.66 50 50 0 0 1-.09-8.94c.22-4.1.32-7.72.28-8.53a32.87 32.87 0 0 0-.4-3.33c-.17-.91-.54-2.44-.83-3.34a10.2 10.2 0 0 1-.31-3.91 12.13 12.13 0 0 1 1.46-3.83 11.39 11.39 0 0 0 1.26-3.12 9.05 9.05 0 0 0-.07-3c-.23-1-.63-3.35-.88-5.28a29.58 29.58 0 0 1-.28-5.42 23 23 0 0 1 .76-3.65c.28-.9.81-3.23 1.15-5.07a14.37 14.37 0 0 0 .18-4.74 12.73 12.73 0 0 0-1.55-3.15 10 10 0 0 1-1.58-3.92 8.59 8.59 0 0 1 .73-4 8.1 8.1 0 0 0 .69-3 8.4 8.4 0 0 0-.84-3 8.07 8.07 0 0 1-.83-4 9.52 9.52 0 0 1 1.69-3.95 14.8 14.8 0 0 0 1.78-3.19c.23-.67.41-5.31.19-11.35l-.16-4.22A94 94 0 0 0 63.35 45a14.79 14.79 0 0 0-1.27-2.57 8.64 8.64 0 0 0-1.55-1.74A4.18 4.18 0 0 0 59 40a18.9 18.9 0 0 1-2.44-.56c-.6-.19-1.59-.55-2.41-.88l-.35-.16a25.52 25.52 0 0 0-2.79-1 24 24 0 0 0-2.83-.54c-.7-.08-3.82-.16-7.39-.15a52.6 52.6 0 0 0-7.26.37 15.56 15.56 0 0 0-2.79 1.11 9.31 9.31 0 0 1-3.48.91 8.58 8.58 0 0 1-3.48-1 8.2 8.2 0 0 0-2.57-.85 6.36 6.36 0 0 0-2.4.36 3.75 3.75 0 0 0-1.48 1.09 2.73 2.73 0 0 0-.15 1.55 14.54 14.54 0 0 1 .27 2.94 16.38 16.38 0 0 1-.43 3 11.76 11.76 0 0 0-.3 2.58 12 12 0 0 0 .42 2.58 19.93 19.93 0 0 1 .62 2.99z" fill="url(#b)"/><path d="M24.68 144.76a1.74 1.74 0 0 1-1.82.21 11.1 11.1 0 0 0-2.43-.64 10.52 10.52 0 0 0-2.46.06 15.11 15.11 0 0 0-2.48.69 18.91 18.91 0 0 0-2.49 1.26 8.78 8.78 0 0 1-2.41 1 5.74 5.74 0 0 1-2.25-.09 2.11 2.11 0 0 0-1.68.17 3 3 0 0 0-.66 1.76 22.48 22.48 0 0 1-.41 2.65 28.55 28.55 0 0 1-.82 2.78 14.41 14.41 0 0 0-.66 2.85 35 35 0 0 0 .52 5.72c.37 2.36 1.05 4.53 1.52 4.82a3.71 3.71 0 0 0 2.38.16 10.47 10.47 0 0 1 3-.21 9.52 9.52 0 0 1 1.52.33c.36.11.73.22 1.05.35a27.1 27.1 0 0 1-.31-4.22 14.41 14.41 0 0 1 .66-2.85 28.55 28.55 0 0 0 .82-2.78 22.48 22.48 0 0 0 .41-2.65 3 3 0 0 1 .69-1.78 2.11 2.11 0 0 1 1.68-.17 5.74 5.74 0 0 0 2.25.09 8.78 8.78 0 0 0 2.41-1A18.91 18.91 0 0 1 25.2 152a15.11 15.11 0 0 1 2.48-.69 10.52 10.52 0 0 1 2.46-.06 11.1 11.1 0 0 1 2.43.64 1.74 1.74 0 0 0 1.82-.21c.34-.39.82-3.3 1.05-6.46a56.23 56.23 0 0 0 .17-7.69 19.73 19.73 0 0 0-1-3.86 13.58 13.58 0 0 1-.83-3.86 13.14 13.14 0 0 1 .6-3.86 20.87 20.87 0 0 0 .85-3.86 47.32 47.32 0 0 0-.71-7.73 42.47 42.47 0 0 1-.65-7.73 17.51 17.51 0 0 1 1.08-3.86 28.17 28.17 0 0 0 1.28-3.86 24.77 24.77 0 0 0 .53-3.86 16.39 16.39 0 0 0-.41-3.86 20.08 20.08 0 0 0-1.54-3.86 10.31 10.31 0 0 1-1.1-3.86 9.91 9.91 0 0 1 .89-3.86 12.35 12.35 0 0 0 1.06-3.86 11.48 11.48 0 0 0-.58-3.86 15.1 15.1 0 0 1-.79-3.89 16.29 16.29 0 0 1 .53-4.08 4.58 4.58 0 0 0 .15-2.7c-.24-.35-1.09-.27-1.9.18a13.05 13.05 0 0 1-2.81 1.12 21.22 21.22 0 0 1-5.08-.18l-.49-.07c0 .34.12.69.19 1a12.82 12.82 0 0 0 .45 1.68 11.48 11.48 0 0 1 .58 3.86 12.35 12.35 0 0 1-1.06 3.86 9.91 9.91 0 0 0-.85 3.86 10.31 10.31 0 0 0 1.1 3.86 20.08 20.08 0 0 1 1.54 3.86 16.39 16.39 0 0 1 .36 3.87 24.77 24.77 0 0 1-.51 3.88 28.17 28.17 0 0 1-1.28 3.86 17.51 17.51 0 0 0-1.08 3.86 42.47 42.47 0 0 0 .65 7.73 47.32 47.32 0 0 1 .71 7.73 20.87 20.87 0 0 1-.85 3.86 13.14 13.14 0 0 0-.6 3.86 13.58 13.58 0 0 0 .83 3.86 19.73 19.73 0 0 1 1 3.86 56.23 56.23 0 0 1-.17 7.69c-.2 3.16-.7 6.07-1.02 6.45z" fill="url(#a)"/><path d="M16.77 54.46a19 19 0 0 0-.58-2.71 13 13 0 0 1-.46-2.85 12.74 12.74 0 0 1 .33-2.9 15.37 15.37 0 0 0 .4-2.8 13.62 13.62 0 0 0-.25-2.7 3.65 3.65 0 0 1 .27-2.27 4.61 4.61 0 0 1 2-1.51 7.37 7.37 0 0 1 2.86-.43 9.11 9.11 0 0 1 3 1 7.56 7.56 0 0 0 3 .85 7.46 7.46 0 0 0 3-.79 16.58 16.58 0 0 1 3-1.2 51.86 51.86 0 0 1 7.51-.41c3.3 0 6.68.06 7.51.15a24.76 24.76 0 0 1 3 .56 26.32 26.32 0 0 1 2.92 1l.36.15c-.14-.38-.35-.85-.57-1.31a13.61 13.61 0 0 0-.78-1.41 9.57 9.57 0 0 0-1.78-2 5.09 5.09 0 0 0-2-.86 18.07 18.07 0 0 1-2.28-.53c-.68-.21-1.89-.66-2.69-1a26.32 26.32 0 0 0-2.92-1 24.76 24.76 0 0 0-3-.56c-.83-.09-4.2-.16-7.51-.15a51.86 51.86 0 0 0-7.51.41 16.58 16.58 0 0 0-3 1.2 7.46 7.46 0 0 1-3 .79 7.56 7.56 0 0 1-3-.85 9.11 9.11 0 0 0-3-1 7.37 7.37 0 0 0-2.86.43 4.61 4.61 0 0 0-2 1.51 3.65 3.65 0 0 0-.24 2.33 13.62 13.62 0 0 1 .25 2.7 15.37 15.37 0 0 1-.4 2.8A12.74 12.74 0 0 0 6 42a13 13 0 0 0 .46 2.85 19 19 0 0 1 .58 2.71 12.93 12.93 0 0 1 0 2.44 4.62 4.62 0 0 0 .27 2 4.32 4.32 0 0 0 1.32 1.51 10.55 10.55 0 0 0 2 1 38.51 38.51 0 0 0 4.81.86h.34l1 .11c.04-.35.03-.72-.01-1.02z" fill="url(#c)"/></svg>