<svg xmlns="http://www.w3.org/2000/svg" xmlns:xlink="http://www.w3.org/1999/xlink" width="80.14" height="200" viewBox="0 0 80.14 200"><defs><linearGradient id="b" x1="28.7" y1="112.58" x2="56.96" y2="49.1" gradientUnits="userSpaceOnUse"><stop offset="0" stop-color="#fdba56"/><stop offset=".02" stop-color="#fbb055"/><stop offset=".06" stop-color="#f79d54"/><stop offset=".1" stop-color="#f59253"/><stop offset=".15" stop-color="#f48e53"/><stop offset=".3" stop-color="#ed5e4e"/><stop offset=".47" stop-color="#683a96" stop-opacity=".5"/><stop offset=".64" stop-color="#ed872b"/><stop offset=".79" stop-color="#7b76b6"/><stop offset=".9" stop-color="#f15f4f"/><stop offset="1" stop-color="#fdba56"/></linearGradient><linearGradient id="a" x1="46.71" y1="48.65" x2="74.25" y2="110.51" gradientUnits="userSpaceOnUse"><stop offset="0" stop-color="#b7151b"/><stop offset=".02" stop-color="#c52229"/><stop offset=".06" stop-color="#d7333c"/><stop offset=".11" stop-color="#e23d47"/><stop offset=".15" stop-color="#e6404b"/><stop offset=".3" stop-color="#e98a7b"/><stop offset=".47" stop-color="#7c78b8"/><stop offset=".64" stop-color="#00b0b0"/><stop offset=".79" stop-color="#7b76b6"/><stop offset="1" stop-color="#e7322f"/></linearGradient><linearGradient id="c" x1="17.16" y1="73.7" x2="32.65" y2="108.49" xlink:href="#a"/></defs><title>_</title><path d="M46.9 48.67a24.63 24.63 0 0 0-1.8-3.1 17.39 17.39 0 0 0-2-2.36 5.89 5.89 0 0 0-1.68-1 6.51 6.51 0 0 0-1.73-.2 8.59 8.59 0 0 0-1.95.41 9.77 9.77 0 0 1-2.63.48 10.12 10.12 0 0 1-2.63-.4 16.44 16.44 0 0 0-2.18-.51 17 17 0 0 0-2.3-.18 2.3 2.3 0 0 0-1.34.69 8.54 8.54 0 0 0-1.19 2.63 22.51 22.51 0 0 1-1.57 4 22.25 22.25 0 0 1-2.46 3.55 21.91 21.91 0 0 0-2.23 3.16 21.16 21.16 0 0 0-1.46 3.52 28.35 28.35 0 0 1-1.53 3.92A28.87 28.87 0 0 1 14 66.89a28.76 28.76 0 0 0-2 3.3c-.48.93-1.83 4.31-3 7.37a126.28 126.28 0 0 1-6 13 48.49 48.49 0 0 0-3.71 8 1.67 1.67 0 0 0 .68 1 21.84 21.84 0 0 0 2.11 1.05 17 17 0 0 0 2 .67 14.81 14.81 0 0 1 2.25.78 14.93 14.93 0 0 1 2.07 1.2l.4.26a12.35 12.35 0 0 0 1.35.73 12.41 12.41 0 0 0 1.92.62 1.61 1.61 0 0 0 1-.17 23.16 23.16 0 0 0 1.95-4.41 48.2 48.2 0 0 1 2.35-5.73 26.07 26.07 0 0 1 1.9-2.56 15.54 15.54 0 0 0 1.51-2.35 15.45 15.45 0 0 0 .95-2.62 13.85 13.85 0 0 1 1.21-3 14.48 14.48 0 0 1 2-2.63 11.15 11.15 0 0 0 1.65-2.19 10.89 10.89 0 0 0 .89-2.55 12.68 12.68 0 0 1 1.09-3.13 13.1 13.1 0 0 1 2-2.67 15.38 15.38 0 0 0 1.74-2.1 10.38 10.38 0 0 0 1-2.11 2.85 2.85 0 0 1 1.76-2 3.19 3.19 0 0 1 2.49 1.06 8.82 8.82 0 0 1 1.66 2.54 12 12 0 0 1 .66 3.21 9.48 9.48 0 0 0 .6 2.65A9 9 0 0 0 42 76.29c.19.19.4.44.61.69a10.81 10.81 0 0 1 2.46 5.09 14.63 14.63 0 0 0 .93 2.66 44.85 44.85 0 0 0 3.23 4.84 50.26 50.26 0 0 1 3.46 5.17 23.43 23.43 0 0 1 1.13 3c.22.76.91 2.64 1.51 4.1a10.08 10.08 0 0 0 1.54 2.76 1.48 1.48 0 0 0 .88 0c.57-.22 1.54-.54 2.15-.71s1.62-.39 2.27-.51a8.24 8.24 0 0 0 1.82-.6 8.48 8.48 0 0 0 1.6-1.12 12.66 12.66 0 0 1 2.09-1.52A15.13 15.13 0 0 1 70.13 99a.87.87 0 0 0 .55-.5 6.17 6.17 0 0 0-1.07-2.23 38.65 38.65 0 0 1-2.29-3.7 35.18 35.18 0 0 1-1.7-3.87c-.31-.88-2.49-5.37-5.24-10.65l-5.64-10.77a105.94 105.94 0 0 1-5.86-12.94A57.68 57.68 0 0 0 47 48.78z" fill="url(#b)"/><path d="M47.86 48.36a58.1 58.1 0 0 1 2 5.69 105.31 105.31 0 0 0 5.79 12.77l5.63 10.81c2.54 4.88 4.93 9.73 5.3 10.77a34.12 34.12 0 0 0 1.64 3.73 37.59 37.59 0 0 0 2.22 3.58 6.58 6.58 0 0 1 1.26 2.82 1.74 1.74 0 0 1-1.27 1.47 14.26 14.26 0 0 0-2.31 1 11.72 11.72 0 0 0-1.9 1.38 9.44 9.44 0 0 1-1.83 1.29 9.12 9.12 0 0 1-2.06.68c.08.22.15.43.2.62l.11.34c.3.92.9 2.53 1.44 3.85a9.19 9.19 0 0 0 1.92 3.17 2.32 2.32 0 0 0 1.79.09c.55-.21 1.47-.52 2.05-.68s1.56-.38 2.17-.49a9.11 9.11 0 0 0 2.1-.69 9.44 9.44 0 0 0 1.83-1.29 11.72 11.72 0 0 1 1.9-1.38 14.26 14.26 0 0 1 2.31-1 1.74 1.74 0 0 0 1.26-1.45 6.58 6.58 0 0 0-1.26-2.82 37.59 37.59 0 0 1-2.22-3.58 34.12 34.12 0 0 1-1.64-3.73c-.37-1-2.76-5.9-5.3-10.77l-5.65-10.78A105.31 105.31 0 0 1 59.56 61a58.1 58.1 0 0 0-2-5.69 25 25 0 0 0-2-3.37 18.29 18.29 0 0 0-2.19-2.53 6.81 6.81 0 0 0-2.06-1.24 7.34 7.34 0 0 0-2.07-.24l-.46.07c-.32 0-.67.12-1 .2z" fill="url(#a)"/><path d="M9.21 107.46a22.69 22.69 0 0 0 2.23 1.11 17.77 17.77 0 0 0 2.18.72 13.87 13.87 0 0 1 2.07.71 14.08 14.08 0 0 1 1.91 1.1 13.24 13.24 0 0 0 1.92 1.09 13.41 13.41 0 0 0 2.11.69 2.56 2.56 0 0 0 1.87-.36 18.36 18.36 0 0 0 2.27-4.87A47.55 47.55 0 0 1 28 102.1a25.12 25.12 0 0 1 1.73-2.48 16.56 16.56 0 0 0 1.63-2.53 16.48 16.48 0 0 0 1-2.82 12.84 12.84 0 0 1 1.11-2.78 13.56 13.56 0 0 1 1.87-2.41 12.21 12.21 0 0 0 1.83-2.43 11.8 11.8 0 0 0 1-2.84 11.77 11.77 0 0 1 1-2.84A12.21 12.21 0 0 1 41 78.53l.15-.16c.22-.22.45-.48.68-.75-.19-.23-.38-.45-.55-.62a9.9 9.9 0 0 1-1.7-2.49 10.37 10.37 0 0 1-.68-3 11 11 0 0 0-.59-2.9 7.8 7.8 0 0 0-1.44-2.2 2.31 2.31 0 0 0-1.58-.79 2 2 0 0 0-1 1.34 11.35 11.35 0 0 1-1.11 2.36 16.23 16.23 0 0 1-1.88 2.27A12.21 12.21 0 0 0 29.49 74a11.77 11.77 0 0 0-1 2.84 11.8 11.8 0 0 1-1 2.84 12.21 12.21 0 0 1-1.83 2.43 13.56 13.56 0 0 0-1.87 2.41 12.84 12.84 0 0 0-1.11 2.78 16.48 16.48 0 0 1-1 2.82A16.56 16.56 0 0 1 20 92.68a25.12 25.12 0 0 0-1.73 2.48 47.55 47.55 0 0 0-2.26 5.55 18.36 18.36 0 0 1-2.27 4.87 2.56 2.56 0 0 1-1.87.36 13.41 13.41 0 0 1-2.11-.69 13.24 13.24 0 0 1-1.47-.8 5 5 0 0 0-.29 1 .84.84 0 0 0 0 .1 2.6 2.6 0 0 0 1.21 1.91z" fill="url(#c)"/></svg>