<svg xmlns="http://www.w3.org/2000/svg" width="200" height="200" viewBox="0 0 200 200"><defs><linearGradient id="a" x1="80.9" y1="59.09" x2="88.98" y2="40.94" gradientUnits="userSpaceOnUse"><stop offset="0" stop-color="#fdba56"/><stop offset=".02" stop-color="#fbb055"/><stop offset=".06" stop-color="#f79d54"/><stop offset=".1" stop-color="#f59253"/><stop offset=".15" stop-color="#f48e53"/><stop offset=".3" stop-color="#ed5e4e"/><stop offset=".47" stop-color="#683a96" stop-opacity=".5"/><stop offset=".64" stop-color="#ed872b"/><stop offset=".79" stop-color="#7b76b6"/><stop offset=".9" stop-color="#f15f4f"/><stop offset="1" stop-color="#fdba56"/></linearGradient><linearGradient id="b" x1="94.75" y1="48.09" x2="106.13" y2="73.66" gradientUnits="userSpaceOnUse"><stop offset="0" stop-color="#b7151b"/><stop offset=".02" stop-color="#c52229"/><stop offset=".06" stop-color="#d7333c"/><stop offset=".11" stop-color="#e23d47"/><stop offset=".15" stop-color="#e6404b"/><stop offset=".3" stop-color="#e98a7b"/><stop offset=".47" stop-color="#7c78b8"/><stop offset=".64" stop-color="#00b0b0"/><stop offset=".79" stop-color="#7b76b6"/><stop offset="1" stop-color="#e7322f"/></linearGradient></defs><title>_</title><path d="M93.31 43.53a8.74 8.74 0 0 0-2.31-1.7 37.25 37.25 0 0 0-7.13-1.11c-3.24-.27-9.44-.37-13.81-.21a60.24 60.24 0 0 0-6.59.54 6.71 6.71 0 0 0 .71.56c1 .7 4.82 3.83 8.49 7a131.31 131.31 0 0 1 9.68 9.09 25.58 25.58 0 0 0 4.12 3.88 4.41 4.41 0 0 0 2.2.45L89 62c1.22-.11 5.25-.18 9.38-.15a53.12 53.12 0 0 0 7-.33c-.7-1.33-2.42-4.16-4.91-7.86l-.53-.66c-1.29-1.91-2.57-3.77-3.66-5.34-1.82-2.66-2.73-3.85-2.97-4.13z" fill="url(#a)"/><path d="M110.48 59.34c-3.08-4.56-6.1-8.85-6.71-9.53a9.65 9.65 0 0 0-2.65-1.94 13.75 13.75 0 0 0-2.66-.61L97.09 47c1.1 1.57 2.38 3.44 3.67 5.35l.46.68c3.08 4.56 5.51 8.62 5.41 9s-3.84.73-8.3.71c-4.14 0-8.11 0-9.29.15l1 .95c.52.53 1 1 1.31 1.37a25.77 25.77 0 0 0 4.39 4.1 5.36 5.36 0 0 0 2.82.55c.77-.12 5.05-.19 9.52-.17s8.2-.3 8.3-.71-2.33-4.48-5.41-9z" fill="url(#b)"/></svg>