<svg xmlns="http://www.w3.org/2000/svg" xmlns:xlink="http://www.w3.org/1999/xlink" width="112.13" height="200" viewBox="0 0 112.13 200"><defs><linearGradient id="b" x1="37.74" y1="157.26" x2="75.76" y2="71.86" gradientUnits="userSpaceOnUse"><stop offset="0" stop-color="#fdba56"/><stop offset=".02" stop-color="#fbb055"/><stop offset=".06" stop-color="#f79d54"/><stop offset=".1" stop-color="#f59253"/><stop offset=".15" stop-color="#f48e53"/><stop offset=".3" stop-color="#ed5e4e"/><stop offset=".47" stop-color="#683a96" stop-opacity=".5"/><stop offset=".64" stop-color="#ed872b"/><stop offset=".79" stop-color="#7b76b6"/><stop offset=".9" stop-color="#f15f4f"/><stop offset="1" stop-color="#fdba56"/></linearGradient><linearGradient id="a" x1="41.5" y1="140.37" x2="51.67" y2="163.22" gradientUnits="userSpaceOnUse"><stop offset="0" stop-color="#b7151b"/><stop offset=".02" stop-color="#c52229"/><stop offset=".06" stop-color="#d7333c"/><stop offset=".11" stop-color="#e23d47"/><stop offset=".15" stop-color="#e6404b"/><stop offset=".3" stop-color="#e98a7b"/><stop offset=".47" stop-color="#7c78b8"/><stop offset=".64" stop-color="#00b0b0"/><stop offset=".79" stop-color="#7b76b6"/><stop offset="1" stop-color="#e7322f"/></linearGradient><linearGradient id="c" x1="73.07" y1="87.63" x2="105.64" y2="160.8" xlink:href="#a"/><linearGradient id="d" x1="37.99" y1="86.01" x2="45.57" y2="103.06" xlink:href="#a"/><linearGradient id="e" x1="108.72" y1="157.13" x2="108.81" y2="157.32" xlink:href="#a"/></defs><title>_</title><path d="M61 100.35c-.95.71-4 1.74-6.45 2.34a65 65 0 0 1-6.55 1.38 33.51 33.51 0 0 1-3.47.09 31.39 31.39 0 0 0-3.2.1 29.12 29.12 0 0 0-3.14.52 19.56 19.56 0 0 1-3.58.43 25.32 25.32 0 0 1-3.8-.33 6.66 6.66 0 0 0-1.14-.09 7.28 7.28 0 0 0-1.9.22 8.4 8.4 0 0 0-2.66 1.6 36 36 0 0 1-3 2.46 28.49 28.49 0 0 1-3.11 1.88c-.78.4-2.07 1.14-2.81 1.62s-2 1.35-2.7 1.92a21.79 21.79 0 0 0-2.37 2.24 23.24 23.24 0 0 0-2 2.69 21.56 21.56 0 0 0-1.47 3 22.33 22.33 0 0 0-.88 3.3c-.16.95-.33 2.46-.38 3.31a23.62 23.62 0 0 0 .06 2.89 15.51 15.51 0 0 0 1.4 5.1c.28.6 1.52 2.78 2.91 5.07a20.47 20.47 0 0 0 4 4.93 25.83 25.83 0 0 0 5.35 2c1.15.33 2.29.63 3.4.89A98.32 98.32 0 0 0 40 151.77c5.66.14 10.08-.19 10.76-.49a12.47 12.47 0 0 0 3-2.12c.84-.85 3.15-2.89 5.15-4.54 1.3-1.07 4-3.17 5-3.43a2 2 0 0 1 1.59.25 1.8 1.8 0 0 1 .78 1.26 9.34 9.34 0 0 1 0 2 6 6 0 0 1-.51 1.72 2 2 0 0 0-.19.68 7.93 7.93 0 0 0 .74 1.35 2.58 2.58 0 0 0 1.32 1 21.67 21.67 0 0 0 3 0l1.11-.05c1.11 0 2.32 0 3.15.07h.1a33.76 33.76 0 0 1 4.12.69 36.56 36.56 0 0 0 4 .7 35.09 35.09 0 0 0 4 .14h4.24c1.17 0 3.1.27 4.26.45a18.6 18.6 0 0 0 2.31.2l-.1-.11a1.15 1.15 0 0 1-.64-.9l-.06-.64.25-.2a9.24 9.24 0 0 1-.18-1.09 4 4 0 0 0-.37-1.28 2.21 2.21 0 0 0-.69-.64 3.22 3.22 0 0 1-1.41-1.37 3 3 0 0 1 0-2 6.16 6.16 0 0 0 .24-1.2 6.41 6.41 0 0 0-.08-1.24c-.13-.69-.27-8.11-.31-10.92v-2c-.09-5.54.18-14.15.6-19.2a90.17 90.17 0 0 0 .16-14 52.38 52.38 0 0 0-1.06-6.4 41.29 41.29 0 0 0-2.74-5.16c-.59-1-1.26-2-1.89-2.92a14.34 14.34 0 0 0-1.39-1.82 18 18 0 0 0-2.41-1.89c-.85-.38-2.85-1.48-4.55-2.3a68.53 68.53 0 0 0-6.48-2.71 47.62 47.62 0 0 0-5.18-1.52c-.86-.16-5.45-.6-10.92-1-5-.37-10.65-.6-12.5-.52s-4.11.28-5 .43-2.37.5-3.24.75-2.54.65-3.55.83-2.72.4-3.79.49a10.85 10.85 0 0 0-3.18.86 11.48 11.48 0 0 0-2.69 2c-.77.81-2.44 2.39-3.72 3.52a54.25 54.25 0 0 1-5 3.82A17.12 17.12 0 0 0 12.79 84a8.51 8.51 0 0 0-1.13 2.37 16.42 16.42 0 0 0-.45 2.76 13.09 13.09 0 0 0 .17 2.56 2.22 2.22 0 0 0 .83 1.25 27.53 27.53 0 0 0 6.23.08l1.73-.1a50.94 50.94 0 0 1 6.09 0 32 32 0 0 1 4 .83 19.2 19.2 0 0 0 3.59.61 17.35 17.35 0 0 0 3.52-.27 10.07 10.07 0 0 0 2.63-.92 2.26 2.26 0 0 0 .83-1 5.36 5.36 0 0 1 1-2A5.81 5.81 0 0 1 43.7 89c.47-.19 1.61-.76 2.49-1.25s2.1-1.11 2.6-1.33a18.07 18.07 0 0 1 1.88-.68 4.46 4.46 0 0 1 4.19.83 12.45 12.45 0 0 0 1.37.92 10 10 0 0 0 1.38.61 10.31 10.31 0 0 0 1.57.34 18.75 18.75 0 0 0 2 .09 4.58 4.58 0 0 1 2.53.75 4.8 4.8 0 0 1 1.43 2.25 6.53 6.53 0 0 1 0 3v.15a12.44 12.44 0 0 1-1.48 3 13.75 13.75 0 0 1-2.66 2.67z" fill="url(#b)"/><path d="M70.69 150.41a23.23 23.23 0 0 1-3.19 0 3.45 3.45 0 0 1-2-1.45 5.67 5.67 0 0 1-.91-1.88 2.88 2.88 0 0 1 .29-1.16 5 5 0 0 0 .41-1.39 8.33 8.33 0 0 0 0-1.72.86.86 0 0 0-1.13-.68 24.44 24.44 0 0 0-4.58 3.23c-2 1.63-4.25 3.64-5.08 4.48a13.47 13.47 0 0 1-3.28 2.32c-1 .45-6 .71-11.2.58a99.72 99.72 0 0 1-16.53-1.9c-1.16-.27-2.34-.58-3.45-.91.27.43.57.86.87 1.28A17.13 17.13 0 0 0 24 154.8c1.08.74 5.17 2.1 9.09 3a99.72 99.72 0 0 0 16.53 1.9c5.18.13 10.22-.13 11.2-.58a13.47 13.47 0 0 0 3.28-2.32c.82-.83 3.11-2.85 5.08-4.48.38-.31.75-.61 1.12-.9s1-.76 1.42-1.07z" fill="url(#a)"/><path d="M90.4 79.91c.61.88 1.3 1.94 1.92 3a41.3 41.3 0 0 1 2.84 5.36 52 52 0 0 1 1.11 6.6 91.54 91.54 0 0 1-.16 14.13c-.42 5-.69 13.6-.6 19.1v2c.09 5.5.22 10.34.3 10.75a7.28 7.28 0 0 1 .09 1.49 7 7 0 0 1-.29 1.45 2 2 0 0 0 0 1.24 2.26 2.26 0 0 0 .94.88 3.15 3.15 0 0 1 1.11 1 5 5 0 0 1 .5 1.69 5.18 5.18 0 0 0 .27 1.33c.09.17.11.33 0 .34a.87.87 0 0 0-.28.12c-.08.05 0 .14.08.19a1.4 1.4 0 0 1 .45.43 6 6 0 0 1 .46.89c.13.31-.19.62-.7.69a14.84 14.84 0 0 1-3-.19c-1.15-.17-3-.37-4.17-.44s-3-.09-4.15 0a35.9 35.9 0 0 1-4.13-.14 37.22 37.22 0 0 1-4.13-.72 33 33 0 0 0-3.94-.66 7.5 7.5 0 0 1 0 1v.05a5 5 0 0 1-.41 1.39 2.88 2.88 0 0 0-.29 1.16 5.67 5.67 0 0 0 .91 1.88 3.45 3.45 0 0 0 2 1.45 23.23 23.23 0 0 0 3.19 0 31 31 0 0 1 4.1 0 32.59 32.59 0 0 1 4.11.68 37.22 37.22 0 0 0 4.13.72 35.9 35.9 0 0 0 4.13.14h4.15c1.15 0 3 .26 4.17.44a14.84 14.84 0 0 0 3 .19c.51-.07.83-.38.7-.69a6 6 0 0 0-.46-.89 1.4 1.4 0 0 0-.45-.43c-.12-.05-.16-.14-.08-.19a.87.87 0 0 1 .28-.12c.08 0 .06-.17 0-.34a5.18 5.18 0 0 1-.27-1.33 5 5 0 0 0-.5-1.69 3.15 3.15 0 0 0-1.11-1 2.26 2.26 0 0 1-.94-.88 2 2 0 0 1 0-1.24 7 7 0 0 0 .29-1.45 7.28 7.28 0 0 0-.09-1.49c-.08-.42-.21-5.25-.3-10.75v-2c-.09-5.5.18-14.09.6-19.1a91.54 91.54 0 0 0 .16-14.19 52 52 0 0 0-1.11-6.6 41.3 41.3 0 0 0-2.83-5.33 36.34 36.34 0 0 0-3.44-4.94 18.94 18.94 0 0 0-2.58-2c-.69-.44-2.31-1.32-3.84-2.1l-.73-.37zm8.29 70.5c0-.06.1-.15.29-.18a1.43 1.43 0 0 1 .42 0 .47.47 0 0 1-.29.18.44.44 0 0 1-.41 0z" fill="url(#c)"/><path d="M46.14 102.16c.41 0 .81-.1 1.13-.17a11 11 0 0 0 2.92-1 3.14 3.14 0 0 0 1.28-1.56 4.37 4.37 0 0 1 .81-1.56 4.83 4.83 0 0 1 1.51-1c.51-.21 1.68-.79 2.6-1.3s2.05-1.09 2.52-1.29a17.16 17.16 0 0 1 1.76-.64 4.36 4.36 0 0 1 1.73-.1 3.63 3.63 0 0 1 .82.3 4.16 4.16 0 0 1 .74.45l.15.11v-.11a5.58 5.58 0 0 0 0-2.49 3.85 3.85 0 0 0-1.02-1.8 3.54 3.54 0 0 0-1.9-.55 18.37 18.37 0 0 1-2.13-.1 11.12 11.12 0 0 1-1.77-.35 11 11 0 0 1-1.55-.69 13.31 13.31 0 0 1-1.5-1 3.46 3.46 0 0 0-3.24-.66 17.16 17.16 0 0 0-1.76.64c-.47.21-1.61.79-2.52 1.29s-2.09 1.09-2.6 1.3a4.83 4.83 0 0 0-1.51 1 4.37 4.37 0 0 0-.81 1.56A3.14 3.14 0 0 1 40.48 94a11 11 0 0 1-2.92 1 18.62 18.62 0 0 1-3.77.29 20.12 20.12 0 0 1-3.79-.6 30.83 30.83 0 0 0-3.85-.8 49.55 49.55 0 0 0-5.92 0c-.06.33-.12.68-.17 1s-.1.78-.12 1.09a14.14 14.14 0 0 0 .19 2.8 3.15 3.15 0 0 0 1.33 1.94c.59.32 3.63.41 6.77.2a60.86 60.86 0 0 1 7.63-.14 30.83 30.83 0 0 1 3.85.8 20.44 20.44 0 0 0 2.79.55c.38 0 .74.08 1 .1a18.35 18.35 0 0 0 2.64-.07z" fill="url(#d)"/><path d="M108.83 157.31a.47.47 0 0 0 .29-.18 1.43 1.43 0 0 0-.42 0c-.2 0-.33.12-.29.18a.44.44 0 0 0 .42 0z" fill="url(#e)"/></svg>