<svg xmlns="http://www.w3.org/2000/svg" xmlns:xlink="http://www.w3.org/1999/xlink" width="200" height="200" viewBox="0 0 200 200"><defs><linearGradient id="b" x1="60.33" y1="158.17" x2="105.6" y2="56.49" gradientUnits="userSpaceOnUse"><stop offset="0" stop-color="#fdba56"/><stop offset=".02" stop-color="#fbb055"/><stop offset=".06" stop-color="#f79d54"/><stop offset=".1" stop-color="#f59253"/><stop offset=".15" stop-color="#f48e53"/><stop offset=".3" stop-color="#ed5e4e"/><stop offset=".47" stop-color="#683a96" stop-opacity=".5"/><stop offset=".64" stop-color="#ed872b"/><stop offset=".79" stop-color="#7b76b6"/><stop offset=".9" stop-color="#f15f4f"/><stop offset="1" stop-color="#fdba56"/></linearGradient><linearGradient id="a" x1="99.99" y1="89.98" x2="131.11" y2="159.87" gradientUnits="userSpaceOnUse"><stop offset="0" stop-color="#b7151b"/><stop offset=".02" stop-color="#c52229"/><stop offset=".06" stop-color="#d7333c"/><stop offset=".11" stop-color="#e23d47"/><stop offset=".15" stop-color="#e6404b"/><stop offset=".3" stop-color="#e98a7b"/><stop offset=".47" stop-color="#7c78b8"/><stop offset=".64" stop-color="#00b0b0"/><stop offset=".79" stop-color="#7b76b6"/><stop offset="1" stop-color="#e7322f"/></linearGradient><linearGradient id="c" x1="66.59" y1="145.1" x2="74.92" y2="163.8" xlink:href="#a"/><linearGradient id="d" x1="77.53" y1="49.28" x2="89.25" y2="75.61" xlink:href="#a"/></defs><title>_</title><path d="M86.5 150.21a23.69 23.69 0 0 1 3.09 2.79 6 6 0 0 0 1 .85 6.5 6.5 0 0 0 1.8.9 9.76 9.76 0 0 0 3.77-.05 32.16 32.16 0 0 1 4.84-.7 27.93 27.93 0 0 1 4.66.25 33.15 33.15 0 0 0 4.23.33 34.9 34.9 0 0 0 4.32-.35 25 25 0 0 0 4-1 19.74 19.74 0 0 0 3.37-1.72 34.34 34.34 0 0 0 3-2.31 33.84 33.84 0 0 0 2.63-2.67 21.06 21.06 0 0 0 2.07-3 21.79 21.79 0 0 0 1.41-3.41 39.92 39.92 0 0 1 1.4-3.81 39 39 0 0 1 1.85-3.58 26.94 26.94 0 0 0 1.65-3.42 31.72 31.72 0 0 0 1.13-3.87 28.81 28.81 0 0 0 .54-8.27c-.09-1.16-.33-3-.54-4.18s-.63-3-1-4.1a34 34 0 0 1-1.31-8.74 16.88 16.88 0 0 0-.57-3.76 78.27 78.27 0 0 0-5.53-9.39c-1.77-2.68-3.67-5.44-5-7.2a16.91 16.91 0 0 0-1.29-1.65 27.81 27.81 0 0 0-2.61-2.15 25.19 25.19 0 0 0-3-1.77 26.61 26.61 0 0 0-3.27-1.28c-.83-.25-4.6-.89-8.89-1.44a70.93 70.93 0 0 0-8.7-.75 14.2 14.2 0 0 0-3 .74 25.49 25.49 0 0 0-2.86 1.38l-.44.27a25.53 25.53 0 0 0-2.16 1.52 28.44 28.44 0 0 0-2.26 2.08 23.48 23.48 0 0 0-1.81 2.22 2.52 2.52 0 0 1-1.81 1.2 1.27 1.27 0 0 1-1.06-.57c-.54-.8-.49-3.07-.48-3.52a33.46 33.46 0 0 0-.24-4.55 36 36 0 0 0-1-4.58A39.27 39.27 0 0 1 77.36 62a69.48 69.48 0 0 1 .16-9.8c.08-1.14.13-2.3.13-3.42a16.75 16.75 0 0 0-.35-4.55 3.71 3.71 0 0 0-2.17-1.16c-1.06-.15-2.86-.3-3.92-.33s-5.09.31-9.8.85c-4.48.51-8.86.93-9.89.91a6.56 6.56 0 0 0-2.59.61A5.13 5.13 0 0 0 47.38 47a17.07 17.07 0 0 0-1 3 17.68 17.68 0 0 0-.29 3.15c0 .91.13 2.44.26 3.35s.8 3.73 1.66 6.79a40.45 40.45 0 0 1 1.47 7.2 15.14 15.14 0 0 1-.61 3.76 18.07 18.07 0 0 0-.65 3.25 17 17 0 0 0 .11 3.23c.15 1 .31 2.58.35 3.57s0 2.58 0 3.57-.07 2.45 0 3.37.17 2.46.29 3.37.26 2.58.29 3.57 0 2.59-.1 3.58a26.3 26.3 0 0 0 0 3.31 27.24 27.24 0 0 0 .5 3.32 13 13 0 0 1 .2 3.81 14.56 14.56 0 0 1-1.12 3.77 10.43 10.43 0 0 0-.83 3.1 9.61 9.61 0 0 0 .46 3.07 11.8 11.8 0 0 1 .59 3.85 12.42 12.42 0 0 1-1 3.83A15.34 15.34 0 0 0 47 133a36.9 36.9 0 0 0 .43 6.64c.39 2.89.73 6.08.75 7.09s0 2.69-.1 3.73a4 4 0 0 0 .53 2.26 4.66 4.66 0 0 0 2.21 1.14 11.17 11.17 0 0 0 3.39.06 11.83 11.83 0 0 0 2.3-.73 10.53 10.53 0 0 0 1-.5 18.79 18.79 0 0 1 3.84-1.6 15.49 15.49 0 0 1 3.9-.42c1 0 3.45.31 5.42.6 1.35.19 2.49.31 3.19.36a2.41 2.41 0 0 1 .11-1.3 5.26 5.26 0 0 1 1.48-1.77 1.74 1.74 0 0 0 .48-.61 2 2 0 0 0-.56-.65 5 5 0 0 1-1.56-1.88 2.88 2.88 0 0 1 .26-2.29 12.38 12.38 0 0 0 .63-1.17 4.51 4.51 0 0 0 .25-.79 1.28 1.28 0 0 1 .84-1.21l.64-.17.41.52a1 1 0 0 1 .17.32h.23a2 2 0 0 1 1.63 1.14 13.22 13.22 0 0 1 .86 2.73 6.65 6.65 0 0 0 1.14 2.43 6.77 6.77 0 0 0 2.24 1.52 17 17 0 0 1 2.17 1.08c.54.22.92.47 1.22.68z" fill="url(#b)"/><path d="M147.39 132.59A29.77 29.77 0 0 0 148 124c-.09-1.19-.34-3.11-.55-4.28s-.65-3.05-1-4.2a33 33 0 0 1-1.27-8.48 17.84 17.84 0 0 0-.61-4c-.31-1-2.87-5.37-5.69-9.63a106.63 106.63 0 0 0-6.39-9 28.75 28.75 0 0 0-2.75-2.3 26.23 26.23 0 0 0-3.11-1.86l-.72-.33c-.54-.23-1.15-.48-1.73-.68 1.27 1.72 3.14 4.43 5 7.24 2.81 4.27 5.37 8.6 5.69 9.63a17.84 17.84 0 0 1 .61 4 33 33 0 0 0 1.27 8.48c.33 1.14.77 3 1 4.2s.46 3.09.55 4.28a29.77 29.77 0 0 1-.56 8.56 32.52 32.52 0 0 1-1.18 4 27.73 27.73 0 0 1-1.73 3.58 37.7 37.7 0 0 0-1.79 3.47 38.75 38.75 0 0 0-1.35 3.7 22.73 22.73 0 0 1-1.49 3.6 22 22 0 0 1-2.19 3.17 34.69 34.69 0 0 1-2.72 2.77 35.26 35.26 0 0 1-3.09 2.39 20.76 20.76 0 0 1-3.58 1.82 26 26 0 0 1-4.19 1.08 35.31 35.31 0 0 1-4.47.36 33.87 33.87 0 0 1-4.41-.34A27 27 0 0 0 101 155a31.1 31.1 0 0 0-4.64.65 10.6 10.6 0 0 1-4.25 0 7.44 7.44 0 0 1-2.11-1 8.07 8.07 0 0 0 2.44 1.59 13.84 13.84 0 0 1 1.38.65 16.49 16.49 0 0 1 1.81 1.11 22.55 22.55 0 0 1 2.93 2.64 8.1 8.1 0 0 0 3.29 2 10.6 10.6 0 0 0 4.25 0 31.1 31.1 0 0 1 4.64-.65 27 27 0 0 1 4.47.24 33.87 33.87 0 0 0 4.41.34 35.31 35.31 0 0 0 4.47-.36 26 26 0 0 0 4.19-1.08 20.76 20.76 0 0 0 3.58-1.82 35.26 35.26 0 0 0 3.09-2.39 34.69 34.69 0 0 0 2.72-2.77 22 22 0 0 0 2.19-3.17 22.73 22.73 0 0 0 1.49-3.6 38.75 38.75 0 0 1 1.35-3.7 37.7 37.7 0 0 1 1.79-3.47 27.73 27.73 0 0 0 1.73-3.58 32.52 32.52 0 0 0 1.17-4.04z" fill="url(#a)"/><path d="M84.79 150.32a16 16 0 0 0-2-1 7.76 7.76 0 0 1-2.64-1.8 7.66 7.66 0 0 1-1.36-2.87 12.4 12.4 0 0 0-.76-2.47.87.87 0 0 0-.85-.59 3.58 3.58 0 0 0-.68.35.67.67 0 0 0-.25.36 1.65 1.65 0 0 1-.06-.59 4.66 4.66 0 0 0-.08-.82.67.67 0 0 0-.12.4 5.29 5.29 0 0 1-.32 1 13.07 13.07 0 0 1-.69 1.3 1.88 1.88 0 0 0-.18 1.43 4 4 0 0 0 1.2 1.44 2.41 2.41 0 0 1 1 1.42 2.2 2.2 0 0 1-.88 1.42 4.36 4.36 0 0 0-1.17 1.36 1.47 1.47 0 0 0 .12 1.22.43.43 0 0 1-.3.71 25.84 25.84 0 0 1-4.2-.38c-1.94-.28-4.33-.54-5.32-.59a14.5 14.5 0 0 0-3.6.39 18.09 18.09 0 0 0-3.6 1.5 11 11 0 0 1-1.14.55v1.08c0 .76 0 1.55-.09 2.14a4.92 4.92 0 0 0 .75 3 5.5 5.5 0 0 0 2.79 1.5 12.22 12.22 0 0 0 3.76.07 13.55 13.55 0 0 0 3.65-1.35 18.09 18.09 0 0 1 3.6-1.5 14.5 14.5 0 0 1 3.6-.39c1 0 3.38.31 5.32.59a25.84 25.84 0 0 0 4.2.38.43.43 0 0 0 .3-.71 1.47 1.47 0 0 1-.12-1.22 4.36 4.36 0 0 1 1.17-1.36 2.2 2.2 0 0 0 .88-1.42 2.41 2.41 0 0 0-1-1.42 4 4 0 0 1-1.24-1.45 1.6 1.6 0 0 1-.05-.72 1.83 1.83 0 0 1 .23-.7z" fill="url(#c)"/><path d="M78.52 52.27a70.27 70.27 0 0 0-.17 9.59 38.06 38.06 0 0 0 1.06 4.75 36.85 36.85 0 0 1 1 4.73 34.2 34.2 0 0 1 .25 4.72A7.78 7.78 0 0 0 81 79c.21.31.76 0 1.23-.64A24.25 24.25 0 0 1 84.15 76a29.07 29.07 0 0 1 2.36-2.17 26.27 26.27 0 0 1 2.25-1.59c-.08-.33-.16-.68-.24-1-.2-.88-.37-1.76-.46-2.43a70.27 70.27 0 0 1 .17-9.59c.28-4 .12-7.82-.36-8.56A4.6 4.6 0 0 0 85 49c-1.11-.16-2.92-.31-4-.34h-1.31l-1 .07c-.04 1.15-.08 2.34-.17 3.54z" fill="url(#d)"/></svg>