<svg xmlns="http://www.w3.org/2000/svg" xmlns:xlink="http://www.w3.org/1999/xlink" width="200" height="200" viewBox="0 0 200 200"><defs><linearGradient id="a" x1="72.65" y1="152.84" x2="107.41" y2="74.78" gradientUnits="userSpaceOnUse"><stop offset="0" stop-color="#fdba56"/><stop offset="0.02" stop-color="#fbb055"/><stop offset="0.06" stop-color="#f79d54"/><stop offset="0.1" stop-color="#f59253"/><stop offset="0.15" stop-color="#f48e53"/><stop offset="0.3" stop-color="#ed5e4e"/><stop offset="0.47" stop-color="#683a96" stop-opacity="0.5"/><stop offset="0.64" stop-color="#ed872b"/><stop offset="0.79" stop-color="#7b76b6"/><stop offset="0.9" stop-color="#f15f4f"/><stop offset="1" stop-color="#fdba56"/></linearGradient><linearGradient id="b" x1="82.77" y1="93.66" x2="98.68" y2="129.4" gradientUnits="userSpaceOnUse"><stop offset="0" stop-color="#b7151b"/><stop offset="0.02" stop-color="#c52229"/><stop offset="0.06" stop-color="#d7333c"/><stop offset="0.11" stop-color="#e23d47"/><stop offset="0.15" stop-color="#e6404b"/><stop offset="0.3" stop-color="#e98a7b"/><stop offset="0.47" stop-color="#7c78b8"/><stop offset="0.64" stop-color="#00b0b0"/><stop offset="0.79" stop-color="#7b76b6"/><stop offset="1" stop-color="#e7322f"/></linearGradient><linearGradient id="c" x1="120.79" y1="89.37" x2="132.2" y2="114.98" xlink:href="#b"/><linearGradient id="d" x1="100.78" y1="133.06" x2="114.33" y2="163.49" xlink:href="#b"/></defs><title>_</title><polygon points="101.4 97.8 101.39 97.81 101.4 97.8 101.4 97.8" fill="none"/><path d="M102,97a4.38,4.38,0,0,1,1.19,1.11,4.18,4.18,0,0,1,.59,1.52,10.42,10.42,0,0,1,.1,1.47,13,13,0,0,1-.11,1.39l0.09,0a44.57,44.57,0,0,0,6.06-.31l0.61-.06a77.5,77.5,0,0,1,8.33-.5,31.54,31.54,0,0,1,4.22.6,35.36,35.36,0,0,0,3.92.61,34.82,34.82,0,0,0,3.92.06,3.81,3.81,0,0,0,2.18-.81,3.76,3.76,0,0,0,.36-2.29c-0.15-1.06-.76-3.75-1.33-5.88a22.72,22.72,0,0,0-2-5.23A15.67,15.67,0,0,0,128,86.64c-1-.84-2.1-1.73-3.16-2.5-2.39-1.74-5.08-3.6-5.89-4.07s-3.46-1.65-6.43-2.83c-2.8-1.12-6.71-2.91-8.7-4a24.16,24.16,0,0,0-5.19-2.15,11.59,11.59,0,0,0-3.56.09,29.58,29.58,0,0,1-4,.52,20.16,20.16,0,0,1-3.59-.2,9.43,9.43,0,0,0-2.73,0,10.16,10.16,0,0,0-2.62,1,11,11,0,0,1-3.38,1.24,11.87,11.87,0,0,1-3.66-.13,5,5,0,0,0-1-.09,6.47,6.47,0,0,0-1.88.25A75.81,75.81,0,0,0,63,80.51l-1,.77c-4.21,3.37-8.43,6.88-9.23,7.68a30.59,30.59,0,0,0-4.88,6.39,22.85,22.85,0,0,0-1.38,3,13.3,13.3,0,0,0-.58,2.89,14.32,14.32,0,0,0,.22,3,32.31,32.31,0,0,1,.47,3.41,28.13,28.13,0,0,1,0,3.3,28.12,28.12,0,0,0,0,2.94c0,0.79.51,4.17,1,7.39s1.56,8.29,2.34,11.21a43.07,43.07,0,0,0,2.35,6.92,16.94,16.94,0,0,0,2.39,3.09,41.1,41.1,0,0,0,3.14,2.72,41.58,41.58,0,0,0,3.46,2.31c0.62,0.36,1.53.84,2.43,1.29,0.46,0.23.91,0.44,1.28,0.6,1,0.46,2.78,1.11,3.86,1.44s2.76,0.78,3.72,1a31.58,31.58,0,0,0,3.19.48,15.28,15.28,0,0,1,3.27.71,17.53,17.53,0,0,1,3.12,1.56,6,6,0,0,0,2.42.83,6.71,6.71,0,0,0,2.58-.63,18.27,18.27,0,0,1,3.59-1.29,50.36,50.36,0,0,1,8.09-.24c3.24,0.1,6.84.09,7.85,0a49,49,0,0,0,7.07-2.12,51.56,51.56,0,0,0,6.74-2.87,23.19,23.19,0,0,0,2.78-2.2c0.74-.71,1.87-1.89,2.53-2.63s1.68-2,2.27-2.83a19.62,19.62,0,0,0,1.75-3.08,23.72,23.72,0,0,0,1.15-3.62c0.19-.88.71-2.74,1.32-4.73,0.17-.55.34-1.1,0.51-1.63a13.59,13.59,0,0,0,.8-4.12,3.88,3.88,0,0,0-1.68.06,22.05,22.05,0,0,1-4.39.53h0a20.9,20.9,0,0,1-4.33-.54,36.7,36.7,0,0,0-3.91-.72c-1.05-.12-4.7-0.14-8,0a33.23,33.23,0,0,0-6.85.71,2.63,2.63,0,0,0-1.05,1.22c-0.18.62-.55,2.25-0.8,3.56a8.63,8.63,0,0,1-1.52,3.73c-1,.92-4.93,1.62-5.1,1.65a33.86,33.86,0,0,1-5.38.59l-0.48-.05a15.44,15.44,0,0,1-2.46-.52,17.36,17.36,0,0,1-2.77-1.2,15.45,15.45,0,0,1-2.37-1.71,14,14,0,0,1-2-2.3,18.11,18.11,0,0,1-1.46-2.9c-0.38-1-1.52-5.48-2.41-9.27s-1.75-8.52-1.59-9.84a16,16,0,0,1,1.1-3.92c0.45-1,1.67-3.3,2.73-5.11a18.22,18.22,0,0,1,3.67-4.62,20.07,20.07,0,0,1,5.21-2.11,42.59,42.59,0,0,1,4.28-1,7.66,7.66,0,0,1,1.59.09,7.22,7.22,0,0,1,1.5.47,4.25,4.25,0,0,1,1.38,1.09A5.51,5.51,0,0,1,97.43,93a1.56,1.56,0,0,0,.34.58,1.4,1.4,0,0,0,.61.1,3.11,3.11,0,0,1,1.86.4,2.47,2.47,0,0,1,.91,1.68,2.28,2.28,0,0,0,.23.73,2.23,2.23,0,0,0,.48.47l-0.48.89h0Z" fill="url(#a)"/><path d="M100.55,97a3.2,3.2,0,0,1-.38-1.16,1.49,1.49,0,0,0-.49-1,2.15,2.15,0,0,0-1.2-.22,2.25,2.25,0,0,1-1.28-.28,2.37,2.37,0,0,1-.72-1.12,4.53,4.53,0,0,0-.64-1.29,3.28,3.28,0,0,0-1-.8,6.3,6.3,0,0,0-1.26-.39,6.91,6.91,0,0,0-1.36-.07c-0.39,0-2.22.44-4.08,0.93a19.1,19.1,0,0,0-4.88,2,17.22,17.22,0,0,0-3.39,4.3c-1,1.78-2.24,4-2.68,5a15.07,15.07,0,0,0-1,3.63c-0.12,1,.59,5.29,1.57,9.49s2.05,8.32,2.37,9.14a17.29,17.29,0,0,0,1.36,2.71A13.09,13.09,0,0,0,83.25,130a14.63,14.63,0,0,0,2.19,1.58A16.53,16.53,0,0,0,88,132.66a14.41,14.41,0,0,0,2.25.48c-0.18-.37-0.34-0.74-0.46-1v0c-0.33-.9-1.38-5-2.36-9.1s-1.7-8.47-1.57-9.49a15.07,15.07,0,0,1,1-3.63c0.44-1,1.64-3.23,2.68-5a17.22,17.22,0,0,1,3.39-4.3,19.1,19.1,0,0,1,4.88-2c0.8-.21,1.58-0.4,2.25-0.56l1.2-.27A3.16,3.16,0,0,1,100.55,97Z" fill="url(#b)"/><path d="M113.27,110.43a43.49,43.49,0,0,0,7.06-.34,79.48,79.48,0,0,1,8.14-.5,30.4,30.4,0,0,1,4.06.58,36.22,36.22,0,0,0,4.06.63,35,35,0,0,0,4.06.06,4.62,4.62,0,0,0,2.9-1.17,4.58,4.58,0,0,0,.58-3.06c-0.16-1.1-.77-3.8-1.35-6a23.27,23.27,0,0,0-2.14-5.54,33.66,33.66,0,0,0-5.52-4.79c-1-.75-2.08-1.5-3-2.16-1.33-.93-2.45-1.68-2.94-2l-0.52-.27a16.52,16.52,0,0,1,2.3,2.25,23.27,23.27,0,0,1,2.14,5.54c0.58,2.2,1.19,4.9,1.35,6a4.58,4.58,0,0,1-.58,3.06,4.62,4.62,0,0,1-2.9,1.17,35,35,0,0,1-4.06-.06,36.22,36.22,0,0,1-4.06-.63,30.4,30.4,0,0,0-4.06-.58,79.48,79.48,0,0,0-8.14.5l-0.65.06a2.93,2.93,0,0,0,.29.72,2,2,0,0,0,.19.24,3.32,3.32,0,0,0,.7.61,3.47,3.47,0,0,1,.9.83,3.22,3.22,0,0,1,.43,1.11,9.47,9.47,0,0,1,.09,1.3,12,12,0,0,1-.13,1.41A1,1,0,0,0,113.27,110.43Z" fill="url(#c)"/><path d="M132,134.13a24.59,24.59,0,0,1-1.21,3.81,20.55,20.55,0,0,1-1.86,3.27c-0.6.83-1.65,2.13-2.32,2.9s-1.84,2-2.59,2.7a24,24,0,0,1-2.93,2.31,52.28,52.28,0,0,1-6.94,3,49.58,49.58,0,0,1-7.3,2.17c-1.06.12-4.66,0.13-8,0a49.77,49.77,0,0,0-7.84.21,17.36,17.36,0,0,0-3.35,1.21,7.44,7.44,0,0,1-3.08.74,6.93,6.93,0,0,1-2.92-1A16.71,16.71,0,0,0,78.75,154a14.33,14.33,0,0,0-3-.65,32.38,32.38,0,0,1-3.32-.5c-1-.21-2.69-0.66-3.81-1s-2.9-1-4-1.48c-0.38-.17-0.84-0.38-1.32-0.62l0.42,0.44c0.48,0.47,1.14,1.07,1.8,1.63s1,0.86,1.43,1.17a42.13,42.13,0,0,0,3.56,2.38c1,0.6,2.74,1.47,3.81,1.94s2.86,1.14,4,1.48,2.83,0.79,3.81,1a32.38,32.38,0,0,0,3.32.5,14.33,14.33,0,0,1,3,.65,16.71,16.71,0,0,1,2.91,1.45,6.93,6.93,0,0,0,2.92,1,7.44,7.44,0,0,0,3.08-.74,17.36,17.36,0,0,1,3.35-1.21,49.77,49.77,0,0,1,7.84-.21c3.33,0.11,6.93.09,8,0a49.58,49.58,0,0,0,7.3-2.17,52.28,52.28,0,0,0,6.94-3,24,24,0,0,0,2.93-2.31c0.75-.71,1.91-1.93,2.59-2.7s1.72-2.07,2.32-2.9a20.55,20.55,0,0,0,1.86-3.27,24.59,24.59,0,0,0,1.21-3.81c0.24-1.12,1.06-3.94,1.81-6.26s1.07-4.59.7-5-1.61-.58-2.76-0.31a21.26,21.26,0,0,1-4.16.51,20,20,0,0,1-3-.29c-0.36-.06-0.69-0.13-1-0.2C132.7,131.37,132.17,133.26,132,134.13Z" fill="url(#d)"/></svg>