<svg xmlns="http://www.w3.org/2000/svg" xmlns:xlink="http://www.w3.org/1999/xlink" width="200" height="200" viewBox="0 0 200 200"><defs><linearGradient id="b" x1="76.83" y1="156.46" x2="128.34" y2="40.78" gradientUnits="userSpaceOnUse"><stop offset="0" stop-color="#fdba56"/><stop offset=".02" stop-color="#fbb055"/><stop offset=".06" stop-color="#f79d54"/><stop offset=".1" stop-color="#f59253"/><stop offset=".15" stop-color="#f48e53"/><stop offset=".3" stop-color="#ed5e4e"/><stop offset=".47" stop-color="#683a96" stop-opacity=".5"/><stop offset=".64" stop-color="#ed872b"/><stop offset=".79" stop-color="#7b76b6"/><stop offset=".9" stop-color="#f15f4f"/><stop offset="1" stop-color="#fdba56"/></linearGradient><linearGradient id="a" x1="110.6" y1="59.71" x2="153.29" y2="155.6" gradientUnits="userSpaceOnUse"><stop offset="0" stop-color="#b7151b"/><stop offset=".02" stop-color="#c52229"/><stop offset=".06" stop-color="#d7333c"/><stop offset=".11" stop-color="#e23d47"/><stop offset=".15" stop-color="#e6404b"/><stop offset=".3" stop-color="#e98a7b"/><stop offset=".47" stop-color="#7c78b8"/><stop offset=".64" stop-color="#00b0b0"/><stop offset=".79" stop-color="#7b76b6"/><stop offset="1" stop-color="#e7322f"/></linearGradient><linearGradient id="c" x1="83.94" y1="143.44" x2="93.35" y2="164.58" xlink:href="#a"/></defs><title>_</title><path d="M134.33 43.45c-.54-.32-4.23-1-8.92-1.2-4.94-.25-9.26-.34-10.19-.26a35 35 0 0 0-3.7.55 28.28 28.28 0 0 0-3.33 1 4.63 4.63 0 0 0-1.94 1.57 31.24 31.24 0 0 0-.71 7.63 71.14 71.14 0 0 1-.55 9.34 41.5 41.5 0 0 1-1.4 4.92 17.4 17.4 0 0 0-.87 4.5 17.43 17.43 0 0 0 .64 4.54c.09.3.87 2.93.14 4-.42.62-1 1.46-10.66-3.55l-3.57-1.85c-5.2-2.69-9.41-4.4-10.14-4.44a9 9 0 0 0-3 .79c-1 .48-3.25 1.43-5.08 2.13a32.08 32.08 0 0 0-4.51 2.07 48.28 48.28 0 0 0-4.85 4.43 100.69 100.69 0 0 0-7.93 9.68c-2.58 3.58-4.75 6.86-5.09 7.56a69.71 69.71 0 0 0-2.08 8.93c-.84 4.51-1.43 8.43-1.46 9.26s.2 4.55.5 7.91a64.87 64.87 0 0 0 1.09 7.93 19.88 19.88 0 0 0 1.42 3.37c.5.89 1.91 3.06 3.06 4.74a57.08 57.08 0 0 0 4.62 5.71 37.49 37.49 0 0 0 3.9 3.62 28.2 28.2 0 0 0 3 1.8c.55.27 1.4.66 2.22 1l1.14.46c1 .36 4.49 1.38 7.71 2.24a54.19 54.19 0 0 0 7.67 1.59A33.34 33.34 0 0 0 88 154c2.94-.91 5.67-1.89 6.38-2.23s2.15-1.12 3-1.61 2.08-1.33 2.84-1.89 1.95-1.52 2.65-2.14 1.6-1.38 2-1.69a1.56 1.56 0 0 1 1.69-.31l.56.34-.07.71s0 .51.08 1.15a10.31 10.31 0 0 0 .27 1.6 9.88 9.88 0 0 0 .48 1.2 4.45 4.45 0 0 1 .41 1.93 6.24 6.24 0 0 1-.53 2 .18.18 0 0 0 0 .14 7 7 0 0 0 2.13.47 20.77 20.77 0 0 0 2.21 0c.48 0 .95 0 1.31-.09a20.31 20.31 0 0 0 2.27-.45c.42-.11.82-.22 1.15-.33a15.24 15.24 0 0 1 3.9-.64 14.26 14.26 0 0 1 3.92.71 13.58 13.58 0 0 0 3.24.64 12 12 0 0 0 3.09-.4 6.61 6.61 0 0 0 2.29-1.3 6 6 0 0 0 1.2-2.2 21.39 21.39 0 0 0 .5-3.09 75.78 75.78 0 0 0-.86-8.39c-.49-3.45-1-7.69-.95-8.83s.15-2.59.27-3.56.39-2.57.61-3.55.53-3.25.72-5.09.36-4.95.36-6.83a35.89 35.89 0 0 0-.32-5 27 27 0 0 0-.92-3.31 10.77 10.77 0 0 1 0-7.62 8.81 8.81 0 0 0 0-6.25 19.52 19.52 0 0 1-.89-3.69 18 18 0 0 1 0-3.71 32.5 32.5 0 0 1 .72-3.6A36 36 0 0 1 135 73.5a9.46 9.46 0 0 0 .61-3.06 9.7 9.7 0 0 0-.72-3.07c-.44-1-1.06-2.59-1.37-3.58a36 36 0 0 1-.89-3.59 12.77 12.77 0 0 1 0-3.82 15 15 0 0 1 1.37-3.76 15 15 0 0 0 1.19-3.32 11 11 0 0 0 .15-1.13 15.18 15.18 0 0 0 0-2.41 4.16 4.16 0 0 0-1.01-2.31z" fill="url(#b)"/><path d="M136.14 49.5a16 16 0 0 1-1.29 3.59 14.08 14.08 0 0 0-1.22 3.47 11.86 11.86 0 0 0 0 3.47 34.67 34.67 0 0 0 .86 3.47c.3 1 .9 2.51 1.32 3.47a10.63 10.63 0 0 1 .81 3.47 10.38 10.38 0 0 1-.69 3.46 34.78 34.78 0 0 0-1.19 3.46 31.26 31.26 0 0 0-.69 3.46 17.1 17.1 0 0 0 0 3.47 18.63 18.63 0 0 0 .83 3.47 9.81 9.81 0 0 1 0 6.93 9.79 9.79 0 0 0 0 6.93 27.6 27.6 0 0 1 1 3.46 36.31 36.31 0 0 1 .34 5.2c0 1.91-.16 5-.36 6.93s-.54 4.25-.74 5.2-.47 2.51-.59 3.47-.24 2.51-.26 3.46.39 4.85.94 8.66a74.46 74.46 0 0 1 .87 8.6 22.19 22.19 0 0 1-.53 3.27 6.88 6.88 0 0 1-1.45 2.66 7.58 7.58 0 0 1-2.72 1.56 12.61 12.61 0 0 1-3.41.44 14.5 14.5 0 0 1-3.54-.7 13.35 13.35 0 0 0-3.59-.65 13 13 0 0 0-3.57.59c-.35.12-.77.24-1.22.35a9.05 9.05 0 0 0 .2 1 10.85 10.85 0 0 0 .54 1.35 3.49 3.49 0 0 1 .3 1.44 5.25 5.25 0 0 1-.44 1.64 1.14 1.14 0 0 0 .34 1.38 7 7 0 0 0 2.63.66 22.26 22.26 0 0 0 3.73-.07 22 22 0 0 0 3.62-.83 13 13 0 0 1 3.57-.59 13.35 13.35 0 0 1 3.59.65 14.5 14.5 0 0 0 3.54.7A12.61 12.61 0 0 0 141 161a7.58 7.58 0 0 0 2.72-1.56 6.88 6.88 0 0 0 1.45-2.66 22.19 22.19 0 0 0 .53-3.27 74.46 74.46 0 0 0-.87-8.6c-.54-3.81-1-7.71-.94-8.66s.15-2.51.26-3.46.38-2.51.59-3.47.54-3.29.74-5.2.36-5 .36-6.93a36.31 36.31 0 0 0-.34-5.2 27.6 27.6 0 0 0-1-3.46 9.79 9.79 0 0 1 0-6.93 9.81 9.81 0 0 0 0-6.93 18.63 18.63 0 0 1-.83-3.47 17.1 17.1 0 0 1 0-3.47 31.26 31.26 0 0 1 .69-3.46 34.78 34.78 0 0 1 1.19-3.46 10.38 10.38 0 0 0 .69-3.46 10.63 10.63 0 0 0-.81-3.47c-.43-1-1-2.51-1.32-3.47a34.67 34.67 0 0 1-.86-3.47 11.86 11.86 0 0 1 0-3.47 14.08 14.08 0 0 1 1.31-3.47 16 16 0 0 0 1.29-3.59 16.27 16.27 0 0 0 .2-3.83 5 5 0 0 0-1.36-3c-.55-.47-3.68-1-7.39-1.29l-1-.07a11.84 11.84 0 0 1-.16 1.28z" fill="url(#a)"/><path d="M109.85 154.66a7 7 0 0 1-2.63-.66 1.14 1.14 0 0 1-.34-1.38 5.25 5.25 0 0 0 .44-1.64 3.49 3.49 0 0 0-.3-1.44 10.85 10.85 0 0 1-.54-1.35 11.25 11.25 0 0 1-.31-1.81 11.75 11.75 0 0 1-.07-1.38c0-.14-.25 0-.61.21s-1.23 1-2 1.63-1.95 1.63-2.72 2.2-2.09 1.44-2.92 1.94-2.19 1.24-3 1.65-3.77 1.44-6.52 2.29a33 33 0 0 1-6.9 1.51 53.83 53.83 0 0 1-7.91-1.62c-3.3-.87-6.81-1.9-7.81-2.27l-1.18-.47.26.28c.44.46.92.95 1.4 1.41a28.67 28.67 0 0 0 2.64 2.34A28.94 28.94 0 0 0 72 158c.9.45 2.46 1.13 3.45 1.5s4.51 1.4 7.81 2.27a53.83 53.83 0 0 0 7.91 1.62 33 33 0 0 0 6.9-1.51c2.75-.85 5.68-1.88 6.52-2.29s2.2-1.15 3-1.65 2.14-1.37 2.92-1.94l.38-.29c.39-.3.84-.66 1.28-1a21.5 21.5 0 0 1-2.32-.05z" fill="url(#c)"/></svg>