<svg xmlns="http://www.w3.org/2000/svg" xmlns:xlink="http://www.w3.org/1999/xlink" width="200" height="200" viewBox="0 0 200 200"><defs><linearGradient id="a" x1="68.13" y1="177.31" x2="117.01" y2="67.52" gradientUnits="userSpaceOnUse"><stop offset="0" stop-color="#fdba56"/><stop offset="0.02" stop-color="#fbb055"/><stop offset="0.06" stop-color="#f79d54"/><stop offset="0.1" stop-color="#f59253"/><stop offset="0.15" stop-color="#f48e53"/><stop offset="0.3" stop-color="#ed5e4e"/><stop offset="0.47" stop-color="#683a96" stop-opacity="0.5"/><stop offset="0.64" stop-color="#ed872b"/><stop offset="0.79" stop-color="#7b76b6"/><stop offset="0.9" stop-color="#f15f4f"/><stop offset="1" stop-color="#fdba56"/></linearGradient><linearGradient id="b" x1="103.09" y1="77.8" x2="105.3" y2="82.75" gradientUnits="userSpaceOnUse"><stop offset="0" stop-color="#b7151b"/><stop offset="0.02" stop-color="#c52229"/><stop offset="0.06" stop-color="#d7333c"/><stop offset="0.11" stop-color="#e23d47"/><stop offset="0.15" stop-color="#e6404b"/><stop offset="0.3" stop-color="#e98a7b"/><stop offset="0.47" stop-color="#7c78b8"/><stop offset="0.64" stop-color="#00b0b0"/><stop offset="0.79" stop-color="#7b76b6"/><stop offset="1" stop-color="#e7322f"/></linearGradient><linearGradient id="c" x1="91.91" y1="98.56" x2="128.86" y2="181.56" xlink:href="#b"/><linearGradient id="d" x1="90.29" y1="163.98" x2="90.57" y2="164.6" xlink:href="#b"/><linearGradient id="e" x1="81.94" y1="138.66" x2="90.7" y2="158.34" xlink:href="#b"/></defs><title>_</title><path d="M66,145.17a22,22,0,0,0,3.26,1.06,35.31,35.31,0,0,1,3.81,1.15,41.28,41.28,0,0,1,3.82,1.72,7.29,7.29,0,0,0,3.18.72,8.32,8.32,0,0,0,3.23-1.22,23.9,23.9,0,0,1,3.79-2A33.92,33.92,0,0,1,94,145.43a22.2,22.2,0,0,0,5.55-1,7.39,7.39,0,0,0,1.82-2.13c0.28-.49.5-0.88,0.69-1.17v0h0c0.46-.68.78-0.83,1.39-0.5l0.86,0.46-0.48.95a4.52,4.52,0,0,0-.29.76,2.33,2.33,0,0,0,0,.54,3,3,0,0,0,.14.58,4.36,4.36,0,0,0,.33.63,3.28,3.28,0,0,1,.47,1.25,3,3,0,0,1-.19,1.33c-0.07.17-.46,1.38-1,3.13-0.36,1.17-.76,2.62-1,3.61-0.06.25-.11,0.47-0.14,0.64a27.63,27.63,0,0,0-.39,2.79,6,6,0,0,1-.92,2.74,5,5,0,0,1-2.3,1.57,15.94,15.94,0,0,0-2.25.94,27.66,27.66,0,0,0-2.54,1.58,9.51,9.51,0,0,1-2.2,1.15,3.72,3.72,0,0,1-.57.16,2.8,2.8,0,0,1-1.68-.29,2.25,2.25,0,0,1-.76-0.58,5.2,5.2,0,0,0-.84-0.82,1.46,1.46,0,0,0-.47-0.19,4,4,0,0,0-.75.09,7.21,7.21,0,0,0-1,.33,4.21,4.21,0,0,1-1.51.34,2.62,2.62,0,0,1-1.45-.53,4.53,4.53,0,0,1-.79-0.86,4.1,4.1,0,0,1-.48-1.06,3.4,3.4,0,0,1-.06-1.28,4.79,4.79,0,0,1,.43-1.24,5.16,5.16,0,0,0,.23-0.52l0,0-0.36-.37a3.62,3.62,0,0,0-.9-0.13c-0.5,0-3.53.28-7,.72a105.38,105.38,0,0,1-14.2.47,42,42,0,0,0-7.16.2,37.72,37.72,0,0,0,3.33,5.48c2.2,3.12,4.7,6.47,5.47,7.32a30.6,30.6,0,0,0,2.74,2.62,8.83,8.83,0,0,0,2.66,1.37,8.5,8.5,0,0,0,1.7.21,8.74,8.74,0,0,0,1.43-.05,16.89,16.89,0,0,1,3.79,0,12.84,12.84,0,0,1,3.36,1,14.49,14.49,0,0,0,2.66.93,13.92,13.92,0,0,0,2.78.26h0.28a19.33,19.33,0,0,1,3,.25,20.82,20.82,0,0,1,3.24.92,26.18,26.18,0,0,0,3.15.94,36.59,36.59,0,0,0,3.67.56,16.16,16.16,0,0,0,3.69-.18,17.09,17.09,0,0,0,3.59-1.24c1.07-.54,2.8-1.3,3.86-1.71s2.81-1,3.86-1.27,2.61-.81,3.54-1.19,4.15-2,7-3.53a43.67,43.67,0,0,0,6.46-4,13.07,13.07,0,0,0,2-2.82,31.55,31.55,0,0,0,1.42-3.41,71.8,71.8,0,0,0,1.47-7.64,63.07,63.07,0,0,0,.8-7.95,30.46,30.46,0,0,0-.53-4.1c-0.26-1.21-.56-3.15-0.69-4.32s-0.21-3.08-.2-4.23-0.23-4.75-.52-8c-0.31-3.46-.52-7.08-0.47-8.25a24.66,24.66,0,0,1,.62-4.27A28.44,28.44,0,0,1,132.9,109a22.56,22.56,0,0,0,1.33-3.85,19.19,19.19,0,0,0,.36-3.82c0-1.08-.19-2.88-0.35-3.94s-0.53-2.86-.83-3.95a25,25,0,0,1-.69-4.27,24.2,24.2,0,0,1,.22-4.27c0.17-1.09.35-2.87,0.41-4,0-.37,0-0.81,0-1.29,0-1,0-2-.07-2.75a5,5,0,0,0-.84-2.49,17.6,17.6,0,0,0-5.71-.72,67.58,67.58,0,0,0-6.92.27,24.71,24.71,0,0,0-3.36.85,21,21,0,0,1-3.66.86,17.55,17.55,0,0,1-3.57,0c-0.53-.06-1.06-0.11-1.46-0.13a11.87,11.87,0,0,1,.22,1.19,6.85,6.85,0,0,1,0,1.6,7.66,7.66,0,0,1-.44,1.57c-0.12.3-.3,0.81-0.41,1.15a12.87,12.87,0,0,0-.3,1.33,1.44,1.44,0,0,1-.83,1.13,1.48,1.48,0,0,1-1.43-.15,11.43,11.43,0,0,1-2-2.13c-0.44-.58-1.12-1.42-1.74-2.13l-0.56-.62c-0.67-.71-1.86-1.85-2.6-2.48a19.61,19.61,0,0,0-6-3.52,15.55,15.55,0,0,0-6.78-.9c-0.86.07-5,1-9.69,2.25-4.44,1.17-9.88,2.44-12.14,2.83a13.66,13.66,0,0,0-4.83,1.61A6.48,6.48,0,0,0,56.76,81a18.16,18.16,0,0,1-1.56,3.94A15.15,15.15,0,0,1,52.67,88a11.15,11.15,0,0,0-2,2.51,11,11,0,0,0-.95,3c-0.14,1-.45,2.71-0.7,3.73S48.3,100,47.94,101s-1,3.35-1.49,5.31a45.52,45.52,0,0,0-1,5.38,73.92,73.92,0,0,0,.35,7.46,44,44,0,0,0,1.07,7.2,16.4,16.4,0,0,0,1.58,3c0.56,0.8,2.07,2.71,3.31,4.17s2.82,3.21,3.49,3.83,3.08,2.54,5.28,4.19a48.05,48.05,0,0,0,5.38,3.6l-0.29,1h0Z" fill="url(#a)"/><path d="M101.62,78.45c0.62,0.71,1.33,1.58,1.79,2.19a10.57,10.57,0,0,0,1.73,1.89,0.43,0.43,0,0,0,.72-0.29c0.06-.38.2-1,0.3-1.37l0-.09-0.87-.57-0.25-.15c-0.38-.22-0.89-0.49-1.42-0.74s-1.37-.63-1.9-0.82Z" fill="url(#b)"/><path d="M134.35,81c-0.05,1.13-.24,3-0.42,4.09a23.13,23.13,0,0,0-.21,4.06,24,24,0,0,0,.66,4.06c0.3,1.12.68,2.94,0.85,4.06s0.33,2.94.36,4.06a20.07,20.07,0,0,1-.39,4.06,23.43,23.43,0,0,1-1.4,4.06,27.38,27.38,0,0,0-1.47,4.06,23.49,23.49,0,0,0-.59,4.06c0,1.12.17,4.77,0.47,8.12s0.53,7,.52,8.12,0.08,3,.2,4.11,0.42,3,.67,4.22a31.35,31.35,0,0,1,.55,4.27,64,64,0,0,1-.81,8.14,72.84,72.84,0,0,1-1.51,7.81,32.45,32.45,0,0,1-1.48,3.54,14.1,14.1,0,0,1-2.24,3.08,43.52,43.52,0,0,1-6.69,4.2c-2.93,1.57-6.12,3.18-7.1,3.57a38.45,38.45,0,0,1-3.66,1.23c-1,.28-2.73.83-3.76,1.23s-2.74,1.15-3.77,1.67a18.07,18.07,0,0,1-3.84,1.33,16.91,16.91,0,0,1-4,.19,37.28,37.28,0,0,1-3.79-.58,27,27,0,0,1-3.3-1,19.86,19.86,0,0,0-3.06-.87,18.14,18.14,0,0,0-3.07-.23,15.11,15.11,0,0,1-3-.28,15.51,15.51,0,0,1-2.88-1,11.92,11.92,0,0,0-3.05-.9,16.17,16.17,0,0,0-3.53,0,9.93,9.93,0,0,1-1.6.06l0.77,1c0.5,0.64.9,1.15,1.14,1.41a31.14,31.14,0,0,0,2.85,2.73,9.77,9.77,0,0,0,3,1.56,10.81,10.81,0,0,0,3.52.18,16.17,16.17,0,0,1,3.53,0,11.92,11.92,0,0,1,3.05.9,15.51,15.51,0,0,0,2.88,1,15.11,15.11,0,0,0,3,.28,18.14,18.14,0,0,1,3.07.23,19.86,19.86,0,0,1,3.06.87,27,27,0,0,0,3.3,1,37.28,37.28,0,0,0,3.79.58,16.91,16.91,0,0,0,4-.19,18.07,18.07,0,0,0,3.84-1.33c1-.52,2.74-1.27,3.77-1.67s2.73-1,3.76-1.23A38.45,38.45,0,0,0,124,183.7c1-.4,4.18-2,7.1-3.57a43.52,43.52,0,0,0,6.69-4.2,14.1,14.1,0,0,0,2.24-3.08,32.45,32.45,0,0,0,1.48-3.54,72.84,72.84,0,0,0,1.51-7.81,64,64,0,0,0,.81-8.14,31.35,31.35,0,0,0-.55-4.27c-0.25-1.17-.55-3.07-0.67-4.22s-0.21-3-.2-4.11-0.23-4.77-.52-8.12-0.51-7-.47-8.12a23.49,23.49,0,0,1,.59-4.06,27.38,27.38,0,0,1,1.47-4.06,23.43,23.43,0,0,0,1.4-4.06,20.07,20.07,0,0,0,.39-4.06c0-1.12-.2-2.94-0.36-4.06s-0.55-2.94-.85-4.06a24,24,0,0,1-.66-4.06,23.13,23.13,0,0,1,.21-4.06c0.18-1.12.37-3,.42-4.09s0-3,0-4.15a5.81,5.81,0,0,0-1.12-3.11c-0.54-.56-3.4-1-6.37-1h-2.16C134.38,80.14,134.37,80.6,134.35,81Z" fill="url(#c)"/><path d="M91.17,164.33a5.09,5.09,0,0,0-.88-0.11l-0.59,0a1.84,1.84,0,0,0,1.07.2A2.66,2.66,0,0,0,91.17,164.33Z" fill="url(#d)"/><path d="M102.26,150c0.47-1.54.94-3,1-3.22a2,2,0,0,0,.12-0.83,2.33,2.33,0,0,0-.32-0.83,5.15,5.15,0,0,1-.43-0.83,3.91,3.91,0,0,1-.2-0.83,3.2,3.2,0,0,1,.07-0.88,5.38,5.38,0,0,1,.38-1,8.14,8.14,0,0,0-.72,1.23A8.24,8.24,0,0,1,100,145.3a21,21,0,0,1-6,1.13,33.08,33.08,0,0,0-6.56,1.07,22.7,22.7,0,0,0-3.59,1.93,9.23,9.23,0,0,1-3.71,1.39,8.2,8.2,0,0,1-3.71-.84,40,40,0,0,0-3.7-1.67,34,34,0,0,0-3.68-1.11,23,23,0,0,1-3.45-1.12h0L65.46,146c0.67,0.55,1.54,1.23,2.46,1.94l1.72,1.31A45.61,45.61,0,0,0,75.34,153a23,23,0,0,0,3.45,1.12,34,34,0,0,1,3.68,1.11,40,40,0,0,1,3.7,1.67,8.2,8.2,0,0,0,3.71.84,9.23,9.23,0,0,0,3.71-1.39,22.7,22.7,0,0,1,3.59-1.93,17.6,17.6,0,0,1,3-.65l1.06-.15C101.49,152.66,101.89,151.19,102.26,150Z" fill="url(#e)"/></svg>