<svg xmlns="http://www.w3.org/2000/svg" xmlns:xlink="http://www.w3.org/1999/xlink" width="200" height="200" viewBox="0 0 200 200"><defs><linearGradient id="a" x1="64.28" y1="157.18" x2="108.53" y2="57.81" gradientUnits="userSpaceOnUse"><stop offset="0" stop-color="#fdba56"/><stop offset="0.02" stop-color="#fbb055"/><stop offset="0.06" stop-color="#f79d54"/><stop offset="0.1" stop-color="#f59253"/><stop offset="0.15" stop-color="#f48e53"/><stop offset="0.3" stop-color="#ed5e4e"/><stop offset="0.47" stop-color="#683a96" stop-opacity="0.5"/><stop offset="0.64" stop-color="#ed872b"/><stop offset="0.79" stop-color="#7b76b6"/><stop offset="0.9" stop-color="#f15f4f"/><stop offset="1" stop-color="#fdba56"/></linearGradient><linearGradient id="b" x1="77.67" y1="50.14" x2="89.69" y2="77.14" gradientUnits="userSpaceOnUse"><stop offset="0" stop-color="#b7151b"/><stop offset="0.02" stop-color="#c52229"/><stop offset="0.06" stop-color="#d7333c"/><stop offset="0.11" stop-color="#e23d47"/><stop offset="0.15" stop-color="#e6404b"/><stop offset="0.3" stop-color="#e98a7b"/><stop offset="0.47" stop-color="#7c78b8"/><stop offset="0.64" stop-color="#00b0b0"/><stop offset="0.79" stop-color="#7b76b6"/><stop offset="1" stop-color="#e7322f"/></linearGradient><linearGradient id="c" x1="68.5" y1="105.03" x2="91.99" y2="157.79" xlink:href="#b"/><linearGradient id="d" x1="108.13" y1="85.06" x2="141.42" y2="159.83" xlink:href="#b"/></defs><title>_</title><path d="M102,102.55c0.39,0.62,1.27,2.3,2,3.83a13.13,13.13,0,0,1,1.31,5.21,23.88,23.88,0,0,1-.94,5,32.11,32.11,0,0,0-1,5.14,30.22,30.22,0,0,0,0,5.12,43.32,43.32,0,0,1-.13,10.92c-0.2,1.42-.42,5.2-0.49,8.26-0.08,3.28.44,5.63,0.75,6a3.35,3.35,0,0,0,2.5,0,25.26,25.26,0,0,1,4.73-1.06,6.2,6.2,0,0,1,.78,0,51.79,51.79,0,0,1,7.7,1.06,51,51,0,0,0,7.62,1.12,13.58,13.58,0,0,0,3.3-.67,11.53,11.53,0,0,0,2.57-1.37,5.66,5.66,0,0,0,1.34-1.67,12.15,12.15,0,0,0,.68-2.26,38.61,38.61,0,0,0-.1-5.62c-0.19-2.66-.49-5.2-0.64-5.9s-0.55-2.13-.81-2.93a16.26,16.26,0,0,1-.65-3.26,15.41,15.41,0,0,1,.17-3.27,30.09,30.09,0,0,1,.79-3.15c0.27-.86.82-2.27,1.21-3.13a15.2,15.2,0,0,0,.92-2.8,32.22,32.22,0,0,0-.15-5.76C135.19,108.84,135,106,135,105s0.11-2.66.23-3.75A11.09,11.09,0,0,0,135,97.9a12.29,12.29,0,0,0-1.52-3.16c-0.67-1-1.61-2.44-2.09-3.31a27.64,27.64,0,0,1-1.43-3.07,19.69,19.69,0,0,0-1.18-2.5,19.24,19.24,0,0,0-1.58-2.24,17.09,17.09,0,0,1-1.81-2.72,22.43,22.43,0,0,1-1.24-3.09l-0.06-.18a9,9,0,0,0-1.29-2.54,7.46,7.46,0,0,0-2.08-1.62,31.65,31.65,0,0,0-3-1.19c-0.85-.29-2.38-0.7-3.33-0.91a13.25,13.25,0,0,0-3.32-.21,14.62,14.62,0,0,0-3.35.82,13.89,13.89,0,0,1-4,.85,15.2,15.2,0,0,1-4.16-.62,8.4,8.4,0,0,0-3.15-.31,6.62,6.62,0,0,0-2.59,1.22,23.54,23.54,0,0,1-3.1,2.13l-0.29.16a23.35,23.35,0,0,1-3.13,1.32,9,9,0,0,0-2.53,1.35,7.36,7.36,0,0,0-1.56,2.11,2.64,2.64,0,0,1-1.62,1.62,1.28,1.28,0,0,1-1.14-.33c-0.73-.69-1.12-3-1.19-3.5a40.63,40.63,0,0,1-.39-5.06,43,43,0,0,1,.37-5.15c0.2-1.36.39-3.58,0.43-4.93s-0.19-5.91-.51-10c-0.09-1.16-.22-2.33-0.38-3.49a18.6,18.6,0,0,0-1.12-5,4.52,4.52,0,0,0-2.47-1.29,19.25,19.25,0,0,0-3.79,0,20.85,20.85,0,0,0-3.79.88,13.66,13.66,0,0,1-4.37.69,14.42,14.42,0,0,1-4.36-1A18.47,18.47,0,0,0,55,42.52a18.13,18.13,0,0,0-4,0,4.86,4.86,0,0,0-2.46,1,16.16,16.16,0,0,0,.17,5.71,35,35,0,0,1,.58,7.51A14.82,14.82,0,0,1,48,60.5a14.92,14.92,0,0,0-1.19,3.2,32.25,32.25,0,0,0,.29,6.6c0.34,2.78.82,5.91,1,6.82s0.67,2.46,1,3.37a14.43,14.43,0,0,1,.69,3.78,14.16,14.16,0,0,1-.55,3.78c-0.28.91-.67,2.45-0.84,3.35s-0.38,2.44-.45,3.35-0.08,3.25,0,5.1,0.48,6.5,1,10.3c0.44,3.44.79,7.75,0.57,9a21.49,21.49,0,0,1-1.11,3.66,14.79,14.79,0,0,0-.86,3.2,13.1,13.1,0,0,0,.09,3.17,19,19,0,0,1,.23,3.7,19.59,19.59,0,0,1-.63,3.69A9.18,9.18,0,0,0,47,139.6a11,11,0,0,0,1.08,3.11,17,17,0,0,1,1.45,3.55,10.49,10.49,0,0,1,.2,3.36,1.77,1.77,0,0,0,.23,1.17,3.82,3.82,0,0,0,1.77.31c0.38,0,.87,0,1.38,0,0.81,0,1.68,0,2.33.07s1.79,0.21,2.68.34c1.56,0.23,3.49.54,5.29,0.86a69.41,69.41,0,0,0,7.74,1h0a24,24,0,0,0,3.64-.37,4.34,4.34,0,0,0,2.26-1.4c0.35-.56,1-4.07,1.2-8.48,0.21-4.08.32-8.67,0.24-10s-0.32-3.65-.54-5-0.59-6.77-.8-11.87a91.9,91.9,0,0,1,0-11.05,17.09,17.09,0,0,1,1.1-3.27,11.2,11.2,0,0,1,1.87-2.68,23.16,23.16,0,0,1,5.52-2.85c1.78-.7,4.83-1.71,6-1.62a11.08,11.08,0,0,1,4.11,1.81c1.14,0.77,2.63,1.85,3.14,2.31a17.88,17.88,0,0,1,1.59,1.68c0.32,0.39.78,1,1.17,1.61Z" fill="url(#a)"/><path d="M80.12,52.77c0.33,4.17.56,8.72,0.52,10.11s-0.24,3.66-.44,5a41.73,41.73,0,0,0-.36,5,39.61,39.61,0,0,0,.38,4.91,7.68,7.68,0,0,0,.89,2.92c0.28,0.27.81-.17,1.16-1a8.27,8.27,0,0,1,1.82-2.47A9.92,9.92,0,0,1,87,75.77a22.34,22.34,0,0,0,3-1.26c0-.37.1-0.79,0.14-1.23,0.12-1.19.22-2.53,0.25-3.46,0-1.39-.19-5.94-0.52-10.11s-1.1-8.22-1.7-9A5.46,5.46,0,0,0,85,49.06a20.32,20.32,0,0,0-4,0l-0.24,0c-0.3,0-.63.1-1,0.17C79.89,50.34,80,51.54,80.12,52.77Z" fill="url(#b)"/><path d="M99.75,101.14a17.12,17.12,0,0,0-1.48-1.57c-0.42-.38-1.79-1.38-3-2.22a10.23,10.23,0,0,0-3.63-1.64A20.42,20.42,0,0,0,86,97.25a23.27,23.27,0,0,0-5.19,2.64,10.19,10.19,0,0,0-1.67,2.4,16.22,16.22,0,0,0-1,3,93.47,93.47,0,0,0,0,10.81c0.21,5,.56,10.33.79,11.75s0.47,3.73.55,5.14,0,6-.24,10.14-0.83,8.22-1.38,9A5.29,5.29,0,0,1,75,154a24.82,24.82,0,0,1-3.83.39,69.07,69.07,0,0,1-7.95-1c-1.84-.32-3.75-0.63-5.27-0.86a9.84,9.84,0,0,1,.3,1l0,0.09a9.44,9.44,0,0,1,.16,2.89,2.56,2.56,0,0,0,.56,2.06,4.19,4.19,0,0,0,2.48.56,34.18,34.18,0,0,1,3.58,0c1,0.07,4.56.61,7.87,1.19a69.07,69.07,0,0,0,7.95,1,24.82,24.82,0,0,0,3.83-.39,5.29,5.29,0,0,0,2.88-1.8c0.55-.79,1.17-4.84,1.38-9s0.32-8.73.24-10.14-0.32-3.73-.55-5.14-0.58-6.7-.79-11.75a93.47,93.47,0,0,1,0-10.81,16.22,16.22,0,0,1,1-3,10.19,10.19,0,0,1,1.67-2.4,23.27,23.27,0,0,1,5.19-2.64,32.68,32.68,0,0,1,4-1.31,10.13,10.13,0,0,1,1.07-.21C100.51,102.14,100.06,101.52,99.75,101.14Z" fill="url(#c)"/><path d="M144.11,130.31c0.26-.83.79-2.19,1.17-3a16.34,16.34,0,0,0,1-3,32.31,32.31,0,0,0-.13-6c-0.24-2.49-.42-5.31-0.42-6.25s0.11-2.59.22-3.65a12.1,12.1,0,0,0-.27-3.73,13.3,13.3,0,0,0-1.67-3.48c-0.65-.92-1.57-2.37-2-3.22A26.51,26.51,0,0,1,140.59,95a20.68,20.68,0,0,0-1.26-2.66,20.19,20.19,0,0,0-1.69-2.38A16.19,16.19,0,0,1,136,87.39a21.5,21.5,0,0,1-1.23-3.1,9.91,9.91,0,0,0-1.48-2.89,8.41,8.41,0,0,0-2.42-1.89,32.41,32.41,0,0,0-3.07-1.24c-0.41-.14-1-0.3-1.53-0.46l-1.16-.31a21.62,21.62,0,0,0,1.18,2.93A16.19,16.19,0,0,0,127.94,83a20.19,20.19,0,0,1,1.69,2.38A20.68,20.68,0,0,1,130.88,88a26.51,26.51,0,0,0,1.37,2.94c0.47,0.85,1.38,2.29,2,3.22A13.3,13.3,0,0,1,136,97.64a12.1,12.1,0,0,1,.27,3.73c-0.12,1.06-.22,2.7-0.22,3.65s0.18,3.76.42,6.25a32.31,32.31,0,0,1,.13,6,16.34,16.34,0,0,1-1,3c-0.38.83-.91,2.19-1.17,3a29,29,0,0,0-.75,3,14.52,14.52,0,0,0-.16,3,15.32,15.32,0,0,0,.61,3c0.27,0.83.65,2.19,0.84,3s0.49,3.55.67,6a38.36,38.36,0,0,1,.09,5.87,13.17,13.17,0,0,1-.75,2.48,6.55,6.55,0,0,1-1.63,2,12.32,12.32,0,0,1-2.85,1.53,14.61,14.61,0,0,1-3.6.73A50.78,50.78,0,0,1,119,153a50.9,50.9,0,0,0-7.52-1c0,0.31,0,.63,0,0.93V153c-0.06,3.11.41,6.12,1.05,6.7a4.05,4.05,0,0,0,3.52.27,24.28,24.28,0,0,1,4.5-1,41.28,41.28,0,0,1,8.18,1,50.78,50.78,0,0,0,7.87,1.14,14.61,14.61,0,0,0,3.6-.73,12.32,12.32,0,0,0,2.85-1.53,6.55,6.55,0,0,0,1.63-2,13.17,13.17,0,0,0,.75-2.48,38.36,38.36,0,0,0-.09-5.87c-0.18-2.49-.48-5.21-0.67-6s-0.56-2.19-.84-3a15.32,15.32,0,0,1-.61-3,14.52,14.52,0,0,1,.16-3A29,29,0,0,1,144.11,130.31Z" fill="url(#d)"/></svg>