<svg xmlns="http://www.w3.org/2000/svg" xmlns:xlink="http://www.w3.org/1999/xlink" width="200" height="200" viewBox="0 0 200 200"><defs><linearGradient id="a" x1="84.9" y1="64.81" x2="96.96" y2="37.72" gradientUnits="userSpaceOnUse"><stop offset="0" stop-color="#fdba56"/><stop offset="0.02" stop-color="#fbb055"/><stop offset="0.06" stop-color="#f79d54"/><stop offset="0.1" stop-color="#f59253"/><stop offset="0.15" stop-color="#f48e53"/><stop offset="0.3" stop-color="#ed5e4e"/><stop offset="0.47" stop-color="#683a96" stop-opacity="0.5"/><stop offset="0.64" stop-color="#ed872b"/><stop offset="0.79" stop-color="#7b76b6"/><stop offset="0.9" stop-color="#f15f4f"/><stop offset="1" stop-color="#fdba56"/></linearGradient><linearGradient id="b" x1="73.36" y1="152.49" x2="108.13" y2="74.4" xlink:href="#a"/><linearGradient id="c" x1="97" y1="50.45" x2="107.55" y2="74.15" gradientUnits="userSpaceOnUse"><stop offset="0" stop-color="#b7151b"/><stop offset="0.02" stop-color="#c52229"/><stop offset="0.06" stop-color="#d7333c"/><stop offset="0.11" stop-color="#e23d47"/><stop offset="0.15" stop-color="#e6404b"/><stop offset="0.3" stop-color="#e98a7b"/><stop offset="0.47" stop-color="#7c78b8"/><stop offset="0.64" stop-color="#00b0b0"/><stop offset="0.79" stop-color="#7b76b6"/><stop offset="1" stop-color="#e7322f"/></linearGradient><linearGradient id="d" x1="86.24" y1="88.17" x2="117.43" y2="158.22" xlink:href="#c"/></defs><title>_</title><path d="M105.09,41.69a12.12,12.12,0,0,0-2.68-1.55,9,9,0,0,0-3.3-.53,11.33,11.33,0,0,0-3.54,1.06,12.8,12.8,0,0,1-4.41,1.24,12,12,0,0,1-4.44-.8,29.5,29.5,0,0,0-4-1.25,32.9,32.9,0,0,0-4.32-.59,5.93,5.93,0,0,0-3,.58A3.63,3.63,0,0,0,74.36,42a14,14,0,0,0,0,3.28,10,10,0,0,0,.95,2.68A9.32,9.32,0,0,1,76.4,51.1,8.72,8.72,0,0,1,76,54.36a13.17,13.17,0,0,0-.6,2.63,12.92,12.92,0,0,0,.09,2.68A2.09,2.09,0,0,0,76.28,61a5.57,5.57,0,0,0,2.56.1A19.5,19.5,0,0,1,82,60.81c0.41,0,.79,0,1.12,0S84,61,84.6,61.06a20.05,20.05,0,0,1,2.84.74,18.34,18.34,0,0,0,3.75.84,17,17,0,0,0,3.74-.18,29.19,29.19,0,0,1,4.32-.39,39.13,39.13,0,0,1,4.57.36,5.6,5.6,0,0,0,2.84-.24,2.76,2.76,0,0,0,.91-1.78,12.13,12.13,0,0,0-.17-3.12,10.75,10.75,0,0,0-1.13-2.73,8.31,8.31,0,0,1-1.16-3.31,7.56,7.56,0,0,1,.69-3.36,9.34,9.34,0,0,0,.71-2.26l0-.12a5.93,5.93,0,0,0-.21-2.08A5.08,5.08,0,0,0,105.09,41.69Z" fill="url(#a)"/><path d="M106.11,73.68a6.93,6.93,0,0,0-2.87-1.23,18.23,18.23,0,0,0-4-.16,17.78,17.78,0,0,0-3.81.92,17.29,17.29,0,0,1-4.3,1,16.35,16.35,0,0,1-4.32-.4A27.17,27.17,0,0,0,83,73.17c-0.38,0-.86,0-1.36,0-0.88,0-1.85,0-2.53.11a4.42,4.42,0,0,0-2.24.86,2.77,2.77,0,0,0-.27,1.85,14.61,14.61,0,0,1,.19,3.74,15.26,15.26,0,0,1-1,3.67,13.29,13.29,0,0,0-.8,3.08,12,12,0,0,0,.17,3,18.33,18.33,0,0,1,.34,3.59,18.63,18.63,0,0,1-.51,3.59,30.18,30.18,0,0,0-.62,3.23,28.92,28.92,0,0,0-.17,3.23,15.56,15.56,0,0,0,.45,3.12A19,19,0,0,0,76,109.41a11,11,0,0,1,1.1,3.77,10.21,10.21,0,0,1-.65,3.8,11.34,11.34,0,0,0-.69,3,10.72,10.72,0,0,0,.39,3,11.76,11.76,0,0,1,.43,3.74,12.73,12.73,0,0,1-1,3.71,7.2,7.2,0,0,0-.58,2.87,8.09,8.09,0,0,0,1,2.92,9.83,9.83,0,0,1,1.25,3.82,9.12,9.12,0,0,1-.81,3.86,19,19,0,0,0-1.16,3.35,22.85,22.85,0,0,0-.44,3.77,4,4,0,0,0,.82,2.44c0.42,0.22,3.3.66,8.15,0.76q1.14,0,2.34,0h1a115.78,115.78,0,0,0,11.63-.45,21.39,21.39,0,0,0,3.34-1.12,13,13,0,0,0,2.62-1.64,8.74,8.74,0,0,0,1.63-2,6.49,6.49,0,0,0,.59-2.35,9.62,9.62,0,0,0-.54-2.81,13.37,13.37,0,0,1-.73-3.69,13.07,13.07,0,0,1,.55-3.69c0.29-.88.69-2.38,0.88-3.26s0.43-2.37.52-3.26a23.35,23.35,0,0,0,.06-3.2,24,24,0,0,0-.48-3.2,15.92,15.92,0,0,1,0-7.17,23.34,23.34,0,0,0,.43-3.19,61.76,61.76,0,0,0-.52-6.56c-0.34-2.87-.6-5.88-0.58-6.87a31.61,31.61,0,0,1,.31-3.49,12.87,12.87,0,0,0,0-3.07,14.59,14.59,0,0,0-.89-3.1,10.06,10.06,0,0,1-.73-3.81,10.63,10.63,0,0,1,1.08-3.78,12.75,12.75,0,0,0,1.08-3.15,8.92,8.92,0,0,0,.1-1.1,12.4,12.4,0,0,0-.1-2.2A5,5,0,0,0,106.11,73.68Z" fill="url(#b)"/><path d="M103.78,70.51c0.38,0,.74-0.08,1-0.14A28.18,28.18,0,0,1,109,70a34.08,34.08,0,0,1,4.42.35,6.37,6.37,0,0,0,3.5-.37,3.66,3.66,0,0,0,1.4-2.54,13.17,13.17,0,0,0-.19-3.43,11.62,11.62,0,0,0-1.26-3,7.43,7.43,0,0,1-1-2.85,6.65,6.65,0,0,1,.59-2.85,10.1,10.1,0,0,0,.84-2.73A6.89,6.89,0,0,0,117,50a6,6,0,0,0-1.53-2.16,12.88,12.88,0,0,0-3-1.72,9.93,9.93,0,0,0-3.75-.61l-0.21,0a8.82,8.82,0,0,0-1,.19h0a10.33,10.33,0,0,1-.8,2.55,6.65,6.65,0,0,0-.59,2.85,7.43,7.43,0,0,0,1,2.85,11.62,11.62,0,0,1,1.26,3,13.17,13.17,0,0,1,.19,3.43,3.66,3.66,0,0,1-1.4,2.54,6.37,6.37,0,0,1-3.5.37,34.08,34.08,0,0,0-4.42-.35,28.18,28.18,0,0,0-4.14.37,18,18,0,0,1-4,.19,19.33,19.33,0,0,1-4-.89A19.15,19.15,0,0,0,84.42,62c-0.08.32-.16,0.66-0.22,1s-0.1.59-.12,0.83a14,14,0,0,0,.1,2.93,3,3,0,0,0,1.37,2,6.33,6.33,0,0,0,3.18.18,18.52,18.52,0,0,1,4.06-.2,19.24,19.24,0,0,1,4,.89,18.51,18.51,0,0,0,2.3.62,15.43,15.43,0,0,0,1.71.27A18,18,0,0,0,103.78,70.51Z" fill="url(#c)"/><path d="M117.76,140.35c0.2-.92.44-2.44,0.54-3.36a24.12,24.12,0,0,0,.07-3.36,24.9,24.9,0,0,0-.5-3.36,14.93,14.93,0,0,1,0-6.72,24.25,24.25,0,0,0,.45-3.36,62.4,62.4,0,0,0-.52-6.73c-0.33-2.77-.59-5.8-0.57-6.73a30.44,30.44,0,0,1,.29-3.36,13.9,13.9,0,0,0,0-3.36,15.64,15.64,0,0,0-1-3.36,9.05,9.05,0,0,1-.65-3.36,9.64,9.64,0,0,1,1-3.36A13.73,13.73,0,0,0,118,86.47a13.46,13.46,0,0,0,0-3.62,5.91,5.91,0,0,0-1.52-3,7.89,7.89,0,0,0-3.37-1.48,19.64,19.64,0,0,0-3.7-.2l-0.52,0-0.48.06a10,10,0,0,1-.11,1.23A13.73,13.73,0,0,1,107.13,83a9.64,9.64,0,0,0-1,3.36,9.05,9.05,0,0,0,.65,3.36,15.64,15.64,0,0,1,1,3.36,13.9,13.9,0,0,1,0,3.36,30.44,30.44,0,0,0-.29,3.36c0,0.92.24,4,.57,6.73a62.4,62.4,0,0,1,.52,6.73,24.25,24.25,0,0,1-.45,3.36,14.93,14.93,0,0,0,0,6.72,24.9,24.9,0,0,1,.5,3.36,24.12,24.12,0,0,1-.07,3.36c-0.1.92-.34,2.44-0.54,3.36s-0.61,2.44-.91,3.36a12.12,12.12,0,0,0-.51,3.36,12.43,12.43,0,0,0,.67,3.36,10.5,10.5,0,0,1,.6,3.17,7.49,7.49,0,0,1-.7,2.8,9.67,9.67,0,0,1-1.86,2.34,14,14,0,0,1-2.86,1.8A22.28,22.28,0,0,1,99,154.79a112.93,112.93,0,0,1-11.84.48h-1c-0.8,0-1.59,0-2.36,0,0,0.32-.09.66-0.12,1-0.07.62-.11,1.24-0.12,1.73a4.83,4.83,0,0,0,1.14,3.19c0.65,0.6,5.68,1.07,11.18,1h1a112.93,112.93,0,0,0,11.84-.48,22.28,22.28,0,0,0,3.53-1.19,14,14,0,0,0,2.86-1.8,9.67,9.67,0,0,0,1.86-2.34,7.49,7.49,0,0,0,.7-2.8,10.5,10.5,0,0,0-.6-3.17,12.43,12.43,0,0,1-.67-3.36,12.12,12.12,0,0,1,.51-3.36C117.15,142.79,117.56,141.28,117.76,140.35Z" fill="url(#d)"/></svg>