<svg xmlns="http://www.w3.org/2000/svg" xmlns:xlink="http://www.w3.org/1999/xlink" width="200" height="200" viewBox="0 0 200 200"><defs><linearGradient id="a" x1="64.52" y1="179.66" x2="111.34" y2="74.5" gradientUnits="userSpaceOnUse"><stop offset="0" stop-color="#fdba56"/><stop offset="0.02" stop-color="#fbb055"/><stop offset="0.06" stop-color="#f79d54"/><stop offset="0.1" stop-color="#f59253"/><stop offset="0.15" stop-color="#f48e53"/><stop offset="0.3" stop-color="#ed5e4e"/><stop offset="0.47" stop-color="#683a96" stop-opacity="0.5"/><stop offset="0.64" stop-color="#ed872b"/><stop offset="0.79" stop-color="#7b76b6"/><stop offset="0.9" stop-color="#f15f4f"/><stop offset="1" stop-color="#fdba56"/></linearGradient><linearGradient id="b" x1="85.28" y1="64.95" x2="97.73" y2="36.98" xlink:href="#a"/><linearGradient id="c" x1="77.25" y1="92.03" x2="116.72" y2="180.7" gradientUnits="userSpaceOnUse"><stop offset="0" stop-color="#b7151b"/><stop offset="0.02" stop-color="#c52229"/><stop offset="0.06" stop-color="#d7333c"/><stop offset="0.11" stop-color="#e23d47"/><stop offset="0.15" stop-color="#e6404b"/><stop offset="0.3" stop-color="#e98a7b"/><stop offset="0.47" stop-color="#7c78b8"/><stop offset="0.64" stop-color="#00b0b0"/><stop offset="0.79" stop-color="#7b76b6"/><stop offset="1" stop-color="#e7322f"/></linearGradient><linearGradient id="d" x1="99.47" y1="51.16" x2="108.69" y2="71.87" xlink:href="#c"/></defs><title>_</title><path d="M107.75,73a4.45,4.45,0,0,0-2.38-.76c-1.24-.07-3.19-0.08-4.33,0s-4.78.53-8,1a70.62,70.62,0,0,1-8.22.88,37.63,37.63,0,0,1-4.41-.44,5.44,5.44,0,0,0-2.74.2,2.86,2.86,0,0,0-1,1.73c-0.14.92-.29,2.42-0.32,3.28a28.94,28.94,0,0,0,.07,3,22.76,22.76,0,0,1,0,3.21,23.54,23.54,0,0,1-.54,3.2A7.94,7.94,0,0,0,75.79,91a9.9,9.9,0,0,0,1,2.7c0.51,0.87,1.23,2.28,1.6,3.15A30.88,30.88,0,0,1,79.56,100a17.84,17.84,0,0,1,.56,3.26,17.17,17.17,0,0,1-.18,3.26,16.52,16.52,0,0,1-1,3.28A21.69,21.69,0,0,1,77.11,113a8.71,8.71,0,0,0-1.21,2.66,6.36,6.36,0,0,0,.15,2.55c0.27,0.86.64,2.26,0.82,3.13s0.42,2.27.52,3.13,0.32,2.15.49,2.95,0.53,2.15.78,3a15.48,15.48,0,0,1,.6,3.29A15,15,0,0,1,79,137c-0.19.87-.78,3-1.32,4.65s-1.1,3.68-1.27,4.48a28.75,28.75,0,0,0-.45,2.93,22.52,22.52,0,0,1-.41,2.73,7.52,7.52,0,0,1-.76,1.94,4.74,4.74,0,0,1-1.3,1.27,6.56,6.56,0,0,1-1.78.7,10.73,10.73,0,0,0-1.77.65c-0.59.28-1.71,0.91-2.46,1.37a19.11,19.11,0,0,0-2.39,1.82,15.16,15.16,0,0,0-1.79,2.08,5.33,5.33,0,0,0-.75,2,6.1,6.1,0,0,0,.42,2.27,16.58,16.58,0,0,1,.91,3.07,38.09,38.09,0,0,1,0,5.93,20.33,20.33,0,0,0,.06,4.43,1.19,1.19,0,0,0,.64.26,10.28,10.28,0,0,1,4.27,1.06,4.09,4.09,0,0,0,1.38.36,5.21,5.21,0,0,0,1.34-.32c0.19-.1.44-0.2,0.69-0.29a9,9,0,0,1,1.3-.4,8,8,0,0,1,2-.12,8.51,8.51,0,0,0,2-.24c0.78-.18,2.4-0.67,3.53-1.07a19.58,19.58,0,0,1,4.72-.93,22.48,22.48,0,0,1,5,.44,10.35,10.35,0,0,0,3.7.12,4.67,4.67,0,0,0,2.17-1.43,28,28,0,0,1,2.24-2.63,23.52,23.52,0,0,1,2.5-2.13,6.38,6.38,0,0,0,1.59-1.76,6.61,6.61,0,0,0,.59-2.33c0-.89.26-2.9,0.51-4.48a18.07,18.07,0,0,1,1.32-4.61,25.26,25.26,0,0,1,2.18-3.27,6,6,0,0,0,1.15-2.73,6.2,6.2,0,0,0-.9-2.88,18.53,18.53,0,0,1-1.77-3.65,11.54,11.54,0,0,1-.48-3.53c0.05-.86.2-2.27,0.33-3.13s0.41-2.27.62-3.13,0.92-3,1.57-4.68a19.08,19.08,0,0,0,1.15-4.24,9,9,0,0,0-.42-2.67,15,15,0,0,1-.7-3.3,14.15,14.15,0,0,1,.23-3.32,8.47,8.47,0,0,0,0-2.65,10.62,10.62,0,0,0-1-2.72,14.06,14.06,0,0,1-1.33-3.32,24.89,24.89,0,0,1,.39-6.46,49.49,49.49,0,0,1,1.35-6.27,29.55,29.55,0,0,1,1.45-3.17,6,6,0,0,0,.63-2.52,6.49,6.49,0,0,0-.89-2.55,20.13,20.13,0,0,1-1.63-3.23,12.81,12.81,0,0,1-.64-6.77c0-.11,0-0.23.07-0.35a24.64,24.64,0,0,1,1-3.4A2.67,2.67,0,0,0,107.75,73Z" fill="url(#a)"/><path d="M107.5,41.39a8.42,8.42,0,0,0-2.78-1,14.93,14.93,0,0,0-3.64,0,17.77,17.77,0,0,0-3.72,1.09,21.69,21.69,0,0,1-4.24,1.28,41,41,0,0,1-8.18-.43A29.17,29.17,0,0,0,78.19,42a3.8,3.8,0,0,0-1.57,1.36,4.53,4.53,0,0,0-.52,2.1,6.08,6.08,0,0,0,.9,2.31,18.44,18.44,0,0,1,1.62,3,14.23,14.23,0,0,1,.77,3.11,14.44,14.44,0,0,1-.13,3.3,21.84,21.84,0,0,1-1,3.58,2.72,2.72,0,0,0-.2.94A6.76,6.76,0,0,0,80,61.22a33,33,0,0,1,4.5-1.46,26.88,26.88,0,0,1,3.45-.5l0.93-.05H89a18.61,18.61,0,0,1,4.15.53,21.67,21.67,0,0,1,4.26,1.77,9,9,0,0,0,3.35,1,6.14,6.14,0,0,0,2.88-.84,9.93,9.93,0,0,0,2.08-1.77,1.94,1.94,0,0,0,.36-1.07,9.88,9.88,0,0,1-.11-2.34,19.29,19.29,0,0,1,.49-2.76c0.21-.82.92-2.79,1.56-4.4a23,23,0,0,0,1-3.15,5,5,0,0,0,.14-0.77,7.38,7.38,0,0,0-.37-2.36A4.38,4.38,0,0,0,107.5,41.39Z" fill="url(#b)"/><path d="M107.64,78.79a14.9,14.9,0,0,0-.13,3.22,14.89,14.89,0,0,0,.71,3,19.25,19.25,0,0,0,1.53,3,7.47,7.47,0,0,1,1,3,6.91,6.91,0,0,1-.75,3,28.48,28.48,0,0,0-1.39,3,48.77,48.77,0,0,0-1.3,6.08,24.45,24.45,0,0,0-.4,6.08,13.12,13.12,0,0,0,1.22,3,11.48,11.48,0,0,1,1.16,3,9.4,9.4,0,0,1,0,3,13.24,13.24,0,0,0-.22,3,14,14,0,0,0,.64,3,9.9,9.9,0,0,1,.48,3A19.65,19.65,0,0,1,109,132.2c-0.64,1.67-1.33,3.73-1.53,4.56s-0.48,2.21-.6,3-0.27,2.21-.32,3A10.55,10.55,0,0,0,107,146a17.63,17.63,0,0,0,1.66,3.42,7.08,7.08,0,0,1,1.06,3.46,6.87,6.87,0,0,1-1.37,3.31,24.08,24.08,0,0,0-2.07,3.11,17.36,17.36,0,0,0-1.22,4.3c-0.24,1.55-.46,3.51-0.5,4.36a7.6,7.6,0,0,1-.71,2.77,7.37,7.37,0,0,1-1.89,2.1,22.5,22.5,0,0,0-2.37,2,26.94,26.94,0,0,0-2.15,2.51,5.61,5.61,0,0,1-2.74,1.8,11.16,11.16,0,0,1-4.15-.11,21.54,21.54,0,0,0-4.71-.42,18.79,18.79,0,0,0-4.44.87c-1.18.42-2.82,0.91-3.64,1.1a9.65,9.65,0,0,1-2.34.26,7,7,0,0,0-1.7.1,8.2,8.2,0,0,0-1.15.36c0,0.15,0,.3,0,0.44s0,0.45,0,.67a13.64,13.64,0,0,0,.22,4.33,2,2,0,0,0,1.49.76,9.26,9.26,0,0,1,3.86,1,5,5,0,0,0,1.82.46,4.75,4.75,0,0,0,1.78-.42,8.9,8.9,0,0,1,1.75-.61,7,7,0,0,1,1.7-.1,9.65,9.65,0,0,0,2.34-.26c0.82-.19,2.46-0.68,3.64-1.1a18.79,18.79,0,0,1,4.44-.87,21.54,21.54,0,0,1,4.71.42,11.16,11.16,0,0,0,4.15.11,5.61,5.61,0,0,0,2.74-1.8,26.94,26.94,0,0,1,2.15-2.51,22.5,22.5,0,0,1,2.37-2,7.37,7.37,0,0,0,1.89-2.1,7.6,7.6,0,0,0,.71-2.77c0-.85.25-2.82,0.5-4.36a17.36,17.36,0,0,1,1.22-4.3,24.08,24.08,0,0,1,2.07-3.11,6.87,6.87,0,0,0,1.37-3.31,7.08,7.08,0,0,0-1.06-3.46,17.63,17.63,0,0,1-1.66-3.42,10.55,10.55,0,0,1-.44-3.17c0-.84.19-2.21,0.32-3s0.4-2.21.6-3,0.9-2.89,1.53-4.56a19.65,19.65,0,0,0,1.22-4.56,9.9,9.9,0,0,0-.48-3,14,14,0,0,1-.64-3,13.24,13.24,0,0,1,.22-3,9.4,9.4,0,0,0,0-3,11.48,11.48,0,0,0-1.16-3,13.12,13.12,0,0,1-1.22-3,24.45,24.45,0,0,1,.4-6.08,48.77,48.77,0,0,1,1.3-6.08,28.48,28.48,0,0,1,1.39-3,6.91,6.91,0,0,0,.75-3,7.47,7.47,0,0,0-1-3,19.25,19.25,0,0,1-1.53-3,11.81,11.81,0,0,1-.59-6.26,22.59,22.59,0,0,1,1-3.57,3.37,3.37,0,0,0-.09-2.87,5,5,0,0,0-3.11-1.13c-1.27-.07-3.27-0.08-4.44,0-0.4,0-1.09.09-1.94,0.19l-1.05.13C107.68,78.59,107.66,78.7,107.64,78.79Z" fill="url(#c)"/><path d="M117.18,61c0.2-.78.89-2.71,1.52-4.27a18.28,18.28,0,0,0,1.22-4.24,8.33,8.33,0,0,0-.43-2.75,5.34,5.34,0,0,0-1.73-2.19,9.37,9.37,0,0,0-3.18-1.14,16.33,16.33,0,0,0-3.48-.07l-0.45.05-0.6.11a24.13,24.13,0,0,1-1.06,3.3c-0.63,1.57-1.32,3.49-1.52,4.27a18.37,18.37,0,0,0-.46,2.58,8.86,8.86,0,0,0,.09,2.06,2.76,2.76,0,0,1-.53,1.86,10.8,10.8,0,0,1-2.35,2,7.21,7.21,0,0,1-3.44,1A9.9,9.9,0,0,1,97,62.36a20.92,20.92,0,0,0-4-1.67,17.47,17.47,0,0,0-4.08-.5l-0.87,0c0.05,0.26.09,0.51,0.11,0.72s0,0.19,0,.28A13.81,13.81,0,0,1,88,64a21.05,21.05,0,0,1-1,3.38c-0.38,1-.35,2,0.07,2.21a4.88,4.88,0,0,0,3-.5,32.06,32.06,0,0,1,4.34-1.41,25.3,25.3,0,0,1,4.18-.53,17.47,17.47,0,0,1,4.08.5,20.92,20.92,0,0,1,4,1.67,9.9,9.9,0,0,0,3.82,1.17,7.21,7.21,0,0,0,3.44-1,10.8,10.8,0,0,0,2.35-2,2.76,2.76,0,0,0,.53-1.86,8.86,8.86,0,0,1-.09-2.06A18.37,18.37,0,0,1,117.18,61Z" fill="url(#d)"/></svg>