<svg xmlns="http://www.w3.org/2000/svg" xmlns:xlink="http://www.w3.org/1999/xlink" width="200" height="200" viewBox="0 0 200 200"><defs><linearGradient id="b" x1="67.76" y1="159.16" x2="112.07" y2="59.63" gradientUnits="userSpaceOnUse"><stop offset="0" stop-color="#fdba56"/><stop offset=".02" stop-color="#fbb055"/><stop offset=".06" stop-color="#f79d54"/><stop offset=".1" stop-color="#f59253"/><stop offset=".15" stop-color="#f48e53"/><stop offset=".3" stop-color="#ed5e4e"/><stop offset=".47" stop-color="#683a96" stop-opacity=".5"/><stop offset=".64" stop-color="#ed872b"/><stop offset=".79" stop-color="#7b76b6"/><stop offset=".9" stop-color="#f15f4f"/><stop offset="1" stop-color="#fdba56"/></linearGradient><linearGradient id="a" x1="113.56" y1="88.15" x2="146.51" y2="162.17" gradientUnits="userSpaceOnUse"><stop offset="0" stop-color="#b7151b"/><stop offset=".02" stop-color="#c52229"/><stop offset=".06" stop-color="#d7333c"/><stop offset=".11" stop-color="#e23d47"/><stop offset=".15" stop-color="#e6404b"/><stop offset=".3" stop-color="#e98a7b"/><stop offset=".47" stop-color="#7c78b8"/><stop offset=".64" stop-color="#00b0b0"/><stop offset=".79" stop-color="#7b76b6"/><stop offset="1" stop-color="#e7322f"/></linearGradient><linearGradient id="c" x1="75.36" y1="53.15" x2="92.5" y2="91.64" xlink:href="#a"/><linearGradient id="d" x1="69.69" y1="133.31" x2="83.09" y2="163.42" xlink:href="#a"/></defs><title>_</title><path d="M92.9 134.79l.21.2a15.79 15.79 0 0 1 2.81 3.58 16.59 16.59 0 0 1 1.46 4.37 11.29 11.29 0 0 0 1.28 3.5 9.79 9.79 0 0 0 2.5 2.44 27.55 27.55 0 0 0 3.57 1.8c.59.24 1.47.53 2.36.79.59.17 1.18.33 1.65.43a21.58 21.58 0 0 0 4.26.42 26.34 26.34 0 0 0 4.5-.57 20.93 20.93 0 0 1 5.1-.43 21.9 21.9 0 0 1 5.09 1.07 26.91 26.91 0 0 0 4.67 1.12 27.24 27.24 0 0 0 4.8.06 6.74 6.74 0 0 0 2.08-.51 3.21 3.21 0 0 0-.8-.95 15.28 15.28 0 0 1-2.85-3.31 14.42 14.42 0 0 1-1.49-4 14.1 14.1 0 0 0-1.16-3.38 12.62 12.62 0 0 0-2.1-2.7 36 36 0 0 1-2.7-2.84 34.9 34.9 0 0 1-2.27-3.14c-.56-.9-1.41-2.41-1.88-3.36s-1.18-2.55-1.58-3.56a21.28 21.28 0 0 0-1.62-3.17 47.76 47.76 0 0 0-5.1-5.27 51.78 51.78 0 0 1-5.44-5.61 17.29 17.29 0 0 1-1.77-3.61 11.25 11.25 0 0 1-.54-3.65c.1-1.37 3-5.37 4.48-7.29 1.71-2.22 4.58-5.71 5.58-6.33a12.08 12.08 0 0 1 3-1.29 13.71 13.71 0 0 0 2.54-1 10.51 10.51 0 0 0 2-1.47 12.43 12.43 0 0 0 1.5-2 14.93 14.93 0 0 0 .96-2.4 8.15 8.15 0 0 1 1.63-2.73l.06-.07a8.36 8.36 0 0 1 2.78-1.69 7.61 7.61 0 0 0 2-1.09 4.34 4.34 0 0 0 1-1.45.75.75 0 0 0-.19-.68 7.57 7.57 0 0 0-2.59-.87 28.34 28.34 0 0 0-4.24-.32 33.83 33.83 0 0 0-4.43.42c-1.32.23-3.47.49-4.78.58s-5.52.06-9.36-.06a38.22 38.22 0 0 0-8.31.39A8.62 8.62 0 0 0 98.92 77c-.74.82-2.74 2.67-4.46 4.13a37.2 37.2 0 0 0-4.14 4l-.21.29a19.31 19.31 0 0 0-1.71 3 31.82 31.82 0 0 1-2.06 3.87A35.48 35.48 0 0 1 83.6 96c-.19.21-1.9 2.11-3.26 1.84-1.09-.21-1.7-1.69-1.82-3.06a29.86 29.86 0 0 1 0-4 25 25 0 0 1 .59-3.78 14.14 14.14 0 0 0 .4-3.15 14.32 14.32 0 0 0-.51-3.17 12.66 12.66 0 0 1-.43-3.78 13.49 13.49 0 0 1 .93-3.76 15.53 15.53 0 0 0 .92-3.14 13.67 13.67 0 0 0 0-3.15c-.13-1-.26-2.56-.29-3.54s0-2.56.1-3.54a24.86 24.86 0 0 0 0-3.26 25.67 25.67 0 0 0-.53-3.27c-.13-.54-.28-1.3-.42-2.09-.09-.53-.17-1-.22-1.44a33.1 33.1 0 0 1-.18-3.52 2.26 2.26 0 0 0-.52-1.51 4.17 4.17 0 0 0-2.22-.15 38.92 38.92 0 0 1-4.1.48 38.75 38.75 0 0 1-4.12 0c-1.12-.08-3-.31-4.09-.5s-3-.58-4.09-.87A20.4 20.4 0 0 0 56 43a18.1 18.1 0 0 0-3.61.33 5.35 5.35 0 0 0-2.27 1.11 3.24 3.24 0 0 0-.58 1.9 19.3 19.3 0 0 1-.22 3.5 23.8 23.8 0 0 1-1 3.59 17 17 0 0 0-.8 3.23 15.5 15.5 0 0 0 0 3.21c.12.91.81 4 1.5 6.82A70.1 70.1 0 0 1 50.7 77.3c.17 2.9.25 6.06.19 7.06s-.49 4.13-1 7a73.11 73.11 0 0 0-.85 8.51c0 1.93-.12 4.31-.23 5.29a33.66 33.66 0 0 1-.62 3.6c-.22.93-.5 2.44-.63 3.37s-.25 2.45-.28 3.36a15.65 15.65 0 0 0 .31 3.21 18.57 18.57 0 0 0 1.19 3.3 13.86 13.86 0 0 1 1.11 3.79 12.48 12.48 0 0 1-.29 3.83 14.47 14.47 0 0 0-.38 3.2 14.73 14.73 0 0 0 .51 3.2 20.78 20.78 0 0 1 .69 3.67 19.85 19.85 0 0 1-.13 3.69c-.14.93-.28 2.37-.33 3.21s0 2.13 0 2.85a3.65 3.65 0 0 0 .73 1.79 6.6 6.6 0 0 0 2.2 1.32 10.71 10.71 0 0 0 3.23.52 13.52 13.52 0 0 0 2.34-.31 12.49 12.49 0 0 0 1.23-.32 14.32 14.32 0 0 1 3.92-.59h.46a14.78 14.78 0 0 1 4.35 1.1 17 17 0 0 0 3.79 1.05 16.49 16.49 0 0 0 3.9-.06 4.64 4.64 0 0 0 2.22-.92 2.13 2.13 0 0 0 0-1.56 13.9 13.9 0 0 1-.87-3.38 23.67 23.67 0 0 1 1.13-6.08 31.36 31.36 0 0 0 1.23-5.38 10.08 10.08 0 0 0-.45-2.57 15.43 15.43 0 0 1-.66-2.75 5.7 5.7 0 0 1 .21-2.24 2.7 2.7 0 0 1 1.46-1.51 3.92 3.92 0 0 1 2.16 0 3.36 3.36 0 0 0 1.05.13.49.49 0 0 0 .13-.1c.09-.2.31-.76.47-1.23a1.4 1.4 0 0 1 2.57-.37 27.09 27.09 0 0 1 1.51 2.7 25.19 25.19 0 0 0 2.08 3.32 27.6 27.6 0 0 0 2.55 2.79z" fill="url(#b)"/><path d="M150 160.45c.25-.44-.28-1.42-1.17-2.17a14.39 14.39 0 0 1-2.63-3.06 13.49 13.49 0 0 1-1.37-3.7 15.11 15.11 0 0 0-1.26-3.67 13.64 13.64 0 0 0-2.3-3 35 35 0 0 1-2.61-2.75 33.71 33.71 0 0 1-2.19-3c-.55-.87-1.37-2.35-1.84-3.28s-1.16-2.49-1.54-3.48a22.09 22.09 0 0 0-1.72-3.36 47.43 47.43 0 0 0-5.26-5.46 51 51 0 0 1-5.28-5.44 16.36 16.36 0 0 1-1.64-3.37 10.3 10.3 0 0 1-.49-3.26c.06-.79 2-3.82 4.27-6.74a49 49 0 0 1 5.32-6.07 11.1 11.1 0 0 1 2.69-1.16 14.66 14.66 0 0 0 2.77-1.09 11.41 11.41 0 0 0 2.19-1.65 13.48 13.48 0 0 0 1.65-2.16A15.86 15.86 0 0 0 138.7 90a7.14 7.14 0 0 1 1.41-2.39 7.31 7.31 0 0 1 2.39-1.45 8.6 8.6 0 0 0 2.36-1.28 5.32 5.32 0 0 0 1.31-1.88 1.73 1.73 0 0 0-.5-1.8 8.21 8.21 0 0 0-3.05-1.08 30.62 30.62 0 0 0-4.42-.33 34.58 34.58 0 0 0-4.59.44l-1.06.17c-.69.1-1.44.2-2.16.27A7.15 7.15 0 0 0 129 83a15.86 15.86 0 0 1-1.16 2.63 13.48 13.48 0 0 1-1.65 2.16 11.41 11.41 0 0 1-2.19 1.68 14.66 14.66 0 0 1-2.77 1.09 11.1 11.1 0 0 0-2.69 1.16 49 49 0 0 0-5.32 6.07c-2.29 2.92-4.21 6-4.27 6.74a10.3 10.3 0 0 0 .49 3.26 16.36 16.36 0 0 0 1.64 3.37 51 51 0 0 0 5.28 5.44 47.43 47.43 0 0 1 5.26 5.46 22.09 22.09 0 0 1 1.72 3.36c.38 1 1.08 2.55 1.54 3.48s1.29 2.4 1.84 3.28a33.71 33.71 0 0 0 2.19 3 35 35 0 0 0 2.61 2.75 13.64 13.64 0 0 1 2.3 3 15.11 15.11 0 0 1 1.26 3.67 13.49 13.49 0 0 0 1.37 3.7 14.39 14.39 0 0 0 2.63 3.06c.9.75 1.43 1.73 1.17 2.17s-1.6.92-3 1.05a22.62 22.62 0 0 1-9.9-1.23 21.17 21.17 0 0 0-4.81-1 20.07 20.07 0 0 0-4.81.41 27.15 27.15 0 0 1-4.71.6 23.41 23.41 0 0 1-4.49-.44c-.49-.11-1.1-.27-1.72-.45a10.11 10.11 0 0 0 .57 1.2c.05.09.11.21.16.29a10.68 10.68 0 0 0 2.81 2.75 28.36 28.36 0 0 0 3.73 1.89 32.19 32.19 0 0 0 4.17 1.27 23.41 23.41 0 0 0 4.49.44 27.15 27.15 0 0 0 4.71-.6 20.07 20.07 0 0 1 4.81-.41 21.17 21.17 0 0 1 4.81 1 22.62 22.62 0 0 0 9.9 1.23c1.38-.16 2.73-.63 3.03-1.08z" fill="url(#a)"/><path d="M80.69 53a26.57 26.57 0 0 1 .55 3.43 25.56 25.56 0 0 1 0 3.43c-.08.94-.12 2.48-.09 3.43s.15 2.48.28 3.43a14.7 14.7 0 0 1 0 3.43 16.56 16.56 0 0 1-1 3.43 12.57 12.57 0 0 0-.86 3.42 11.72 11.72 0 0 0 .43 3.39 15.37 15.37 0 0 1 .53 3.43 15.18 15.18 0 0 1-.43 3.43 23.76 23.76 0 0 0-.59 3.57 28.8 28.8 0 0 0 0 3.86c.1 1.1.55 2.07 1 2.16s1.51-.6 2.33-1.52a34.35 34.35 0 0 0 2.65-3.49 30.65 30.65 0 0 0 2-3.72 20.27 20.27 0 0 1 1.81-3.19 8.37 8.37 0 0 1 0-1c0-.2 0-.43.09-.66a13 13 0 0 1 .77-2.76 16.56 16.56 0 0 0 1-3.43 14.7 14.7 0 0 0 0-3.43c-.13-.94-.26-2.48-.28-3.43s0-2.48.09-3.43a25.56 25.56 0 0 0 0-3.43 26.57 26.57 0 0 0-.55-3.43 34 34 0 0 1-.61-3.42 32 32 0 0 1-.17-3.39 3.09 3.09 0 0 0-1-2.36 4.83 4.83 0 0 0-3-.3 37.94 37.94 0 0 1-4 .47h-1.42c.19.76.34 1.51.47 2.08z" fill="url(#c)"/><path d="M92 135.46l.24.06a28.73 28.73 0 0 1-2.66-2.91 26.07 26.07 0 0 1-2.18-3.49 26.16 26.16 0 0 0-1.43-2.56c-.28-.4-.65-.34-.81.12s-.4 1.07-.53 1.36a1.31 1.31 0 0 1-.83.64 4 4 0 0 1-1.52-.15 3 3 0 0 0-1.54-.05 1.73 1.73 0 0 0-.86.93 4.78 4.78 0 0 0-.15 1.79 14.56 14.56 0 0 0 .61 2.53 11 11 0 0 1 .5 2.88 30.63 30.63 0 0 1-1.27 5.68A23.22 23.22 0 0 0 78.4 148a13 13 0 0 0 .8 3.09 2.92 2.92 0 0 1-.08 2.55 5.25 5.25 0 0 1-2.86 1.3 17.34 17.34 0 0 1-4.19.06 17.88 17.88 0 0 1-4.07-1.16 13.87 13.87 0 0 0-4-1 13 13 0 0 0-4 .53 13.43 13.43 0 0 1-1.33.35V156.4a4.59 4.59 0 0 0 1 2.4 7.47 7.47 0 0 0 2.62 1.6 12.47 12.47 0 0 0 3.58.57 15.8 15.8 0 0 0 3.86-.68 13 13 0 0 1 4-.53 13.87 13.87 0 0 1 4 1 17.88 17.88 0 0 0 4.06 1.24 17.34 17.34 0 0 0 4.19-.06 5.25 5.25 0 0 0 2.86-1.3 2.92 2.92 0 0 0 .08-2.55 13 13 0 0 1-.8-3.09 23.22 23.22 0 0 1 1.14-5.75 30.63 30.63 0 0 0 1.27-5.68 11 11 0 0 0-.5-2.88 14.56 14.56 0 0 1-.61-2.53 4.78 4.78 0 0 1 .15-1.79 1.73 1.73 0 0 1 .86-.93h.21a3.36 3.36 0 0 1 1.36.02z" fill="url(#d)"/></svg>