<svg xmlns="http://www.w3.org/2000/svg" width="56" height="200" viewBox="0 0 56 200"><defs><linearGradient id="a" x1="-.97" y1="147.07" x2="44.8" y2="44.28" gradientUnits="userSpaceOnUse"><stop offset="0" stop-color="#fdba56"/><stop offset=".02" stop-color="#fbb055"/><stop offset=".06" stop-color="#f79d54"/><stop offset=".1" stop-color="#f59253"/><stop offset=".15" stop-color="#f48e53"/><stop offset=".3" stop-color="#ed5e4e"/><stop offset=".47" stop-color="#683a96" stop-opacity=".5"/><stop offset=".64" stop-color="#ed872b"/><stop offset=".79" stop-color="#7b76b6"/><stop offset=".9" stop-color="#f15f4f"/><stop offset="1" stop-color="#fdba56"/></linearGradient><linearGradient id="b" x1="12.56" y1="58.7" x2="54.93" y2="153.86" gradientUnits="userSpaceOnUse"><stop offset="0" stop-color="#b7151b"/><stop offset=".02" stop-color="#c52229"/><stop offset=".06" stop-color="#d7333c"/><stop offset=".11" stop-color="#e23d47"/><stop offset=".15" stop-color="#e6404b"/><stop offset=".3" stop-color="#e98a7b"/><stop offset=".47" stop-color="#7c78b8"/><stop offset=".64" stop-color="#00b0b0"/><stop offset=".79" stop-color="#7b76b6"/><stop offset="1" stop-color="#e7322f"/></linearGradient></defs><title>_</title><path d="M35.37 40.56a41 41 0 0 0-4.13.2c-1.1.12-2.91.42-4 .66s-3 .59-4.09.75-3 .33-4.09.38a31.82 31.82 0 0 1-4.27-.16 38.59 38.59 0 0 1-4.45-.85 4.9 4.9 0 0 0-2.74 0 3.29 3.29 0 0 0-1.11 2c-.19 1.06-.4 2.73-.48 3.73s0 4.12.21 6.9a62.15 62.15 0 0 0 1.19 8.49c.48 1.93 1 4.3 1.13 5.29a31.71 31.71 0 0 1 .29 3.6 19.91 19.91 0 0 1-.37 3.69 23 23 0 0 1-1.19 3.66 11.45 11.45 0 0 0-.74 3.1 10.77 10.77 0 0 0 .37 3.11 22.56 22.56 0 0 1 .74 3.66 21.25 21.25 0 0 1 0 3.67 26.49 26.49 0 0 0 .15 6.68c.15 1 .35 3.35.45 5.29a104.26 104.26 0 0 1-.37 10.53 106.8 106.8 0 0 0 0 13.71c.26 3.45.46 7.7.35 8.84a20.14 20.14 0 0 1-.79 3.68 21.6 21.6 0 0 0-.76 3.46 27.24 27.24 0 0 0-.11 3.85 3.89 3.89 0 0 0 1 2.35 5.33 5.33 0 0 0 2.89.61h4.93c1.74 0 3.73.09 5.68.16a97.62 97.62 0 0 0 9.85 0 21 21 0 0 0 3.49-.91 7.45 7.45 0 0 0 2.38-1.5 4.4 4.4 0 0 0 .89-2 22.22 22.22 0 0 0 .07-2.95 28.62 28.62 0 0 0-.41-3.21 16.24 16.24 0 0 1-.22-3.74 17.18 17.18 0 0 1 .81-3.72c.33-.93.79-2.44 1-3.37s.54-2.44.68-3.37a10.38 10.38 0 0 0-.11-3.09 13.22 13.22 0 0 0-1.31-3.17 19.28 19.28 0 0 1-1.66-3.7 15.4 15.4 0 0 1-.56-3.75 30.24 30.24 0 0 1 .27-3.61 32 32 0 0 1 .79-3.6c.27-.91.63-2.45.8-3.36s.36-2.45.43-3.36a27.63 27.63 0 0 0 0-3.32 28.73 28.73 0 0 0-.49-3.32c-.25-1.12-.72-5.35-1-8.79a163 163 0 0 1-.22-17.05l.06-4.31c.2-5 .54-10.75.77-11.88.13-.65.35-2.09.55-3.68.07-.57.14-1.15.2-1.71a8.08 8.08 0 0 0-.31-3.9 4.72 4.72 0 0 0-2.44-.67z" fill="url(#a)"/><path d="M38.36 50.72c-.19 1-.53 6.23-.75 11.72l-.17 4.27a162.11 162.11 0 0 0 .22 16.92c.34 3.81.8 7.71 1 8.67a29.47 29.47 0 0 1 .52 3.47 28.46 28.46 0 0 1 0 3.46c-.07 1-.27 2.51-.44 3.46s-.55 2.51-.83 3.46a31 31 0 0 0-.76 3.47 29.12 29.12 0 0 0-.26 3.47 14.46 14.46 0 0 0 .51 3.47A18.42 18.42 0 0 0 39 120a14.22 14.22 0 0 1 1.43 3.47 11.25 11.25 0 0 1 .13 3.46c-.14 1-.46 2.51-.7 3.46s-.72 2.51-1.06 3.46a16.34 16.34 0 0 0-.76 3.47 15.34 15.34 0 0 0 .2 3.47 29.56 29.56 0 0 1 .43 3.35 23.13 23.13 0 0 1-.07 3.11 5.38 5.38 0 0 1-1.14 2.58 8.42 8.42 0 0 1-2.77 1.76 21.91 21.91 0 0 1-3.69 1 98 98 0 0 1-10 0c-1.94-.07-3.93-.13-5.66-.16v3a4.77 4.77 0 0 0 1.34 3.08 6.12 6.12 0 0 0 3.57.82c1.29-.08 6 0 10.48.16a98 98 0 0 0 10 0 21.91 21.91 0 0 0 3.69-1 8.42 8.42 0 0 0 2.77-1.76 5.38 5.38 0 0 0 1.14-2.58 23.13 23.13 0 0 0 .07-3.11 29.56 29.56 0 0 0-.43-3.35 15.34 15.34 0 0 1-.2-3.47 16.34 16.34 0 0 1 .76-3.47c.34-1 .82-2.51 1.06-3.46s.56-2.51.7-3.46a11.25 11.25 0 0 0-.13-3.46 14.22 14.22 0 0 0-1.49-3.37 18.42 18.42 0 0 1-1.56-3.47 14.46 14.46 0 0 1-.51-3.53 29.12 29.12 0 0 1 .26-3.47 31 31 0 0 1 .76-3.47c.28-1 .65-2.51.83-3.46s.37-2.51.44-3.46a28.46 28.46 0 0 0 0-3.46 29.47 29.47 0 0 0-.52-3.47c-.21-1-.67-4.85-1-8.67a162.11 162.11 0 0 1-.22-16.92l.17-4.27c.22-5.5.56-10.77.75-11.72s.54-3.41.77-5.47 0-4.17-.59-4.71a5.39 5.39 0 0 0-3.16-1c-1.19 0-3.1.08-4.24.2l-.9.11-1 .16c-.23 1.61-.45 3.08-.59 3.8z" fill="url(#b)"/></svg>