<svg xmlns="http://www.w3.org/2000/svg" xmlns:xlink="http://www.w3.org/1999/xlink" width="200" height="200" viewBox="0 0 200 200"><defs><linearGradient id="a" x1="66.29" y1="169.3" x2="114.42" y2="61.21" gradientUnits="userSpaceOnUse"><stop offset="0" stop-color="#fdba56"/><stop offset="0.02" stop-color="#fbb055"/><stop offset="0.06" stop-color="#f79d54"/><stop offset="0.1" stop-color="#f59253"/><stop offset="0.15" stop-color="#f48e53"/><stop offset="0.3" stop-color="#ed5e4e"/><stop offset="0.47" stop-color="#683a96" stop-opacity="0.5"/><stop offset="0.64" stop-color="#ed872b"/><stop offset="0.79" stop-color="#7b76b6"/><stop offset="0.9" stop-color="#f15f4f"/><stop offset="1" stop-color="#fdba56"/></linearGradient><linearGradient id="b" x1="98.93" y1="77.54" x2="101.5" y2="83.31" gradientUnits="userSpaceOnUse"><stop offset="0" stop-color="#b7151b"/><stop offset="0.02" stop-color="#c52229"/><stop offset="0.06" stop-color="#d7333c"/><stop offset="0.11" stop-color="#e23d47"/><stop offset="0.15" stop-color="#e6404b"/><stop offset="0.3" stop-color="#e98a7b"/><stop offset="0.47" stop-color="#7c78b8"/><stop offset="0.64" stop-color="#00b0b0"/><stop offset="0.79" stop-color="#7b76b6"/><stop offset="1" stop-color="#e7322f"/></linearGradient><linearGradient id="c" x1="41.5" y1="105.6" x2="64.15" y2="156.48" xlink:href="#b"/><linearGradient id="d" x1="96.03" y1="103.8" x2="119.67" y2="156.9" xlink:href="#b"/><linearGradient id="e" x1="136.81" y1="90.45" x2="168.12" y2="160.77" xlink:href="#b"/><linearGradient id="f" x1="51.41" y1="78.61" x2="53.31" y2="82.88" xlink:href="#b"/></defs><title>_</title><path d="M129.56,102.7a8.93,8.93,0,0,1,.52,2.32,14,14,0,0,1-.62,3.86,11.71,11.71,0,0,0-.36,3.8,20,20,0,0,0,1.18,4.54,24.14,24.14,0,0,1,1.38,5.41c0.18,1.69-.4,7.79-1.06,12.72l-1,7.09c-0.73,5.44-.69,9.44-0.38,10.27a3.86,3.86,0,0,0,2.67.18,21.09,21.09,0,0,1,4.71-.62H137c0.32,0,.68,0,1.05.1a15.58,15.58,0,0,1,3.56.91,10.31,10.31,0,0,0,3.59.72,10.94,10.94,0,0,0,3.6-.9,17,17,0,0,1,4.34-1.28,15.76,15.76,0,0,1,4.42.2,5.1,5.1,0,0,0,2.46,0,1.93,1.93,0,0,0,.64-1.31,18.43,18.43,0,0,0-.1-2.9c-0.09-.7-0.69-3.23-1.44-5.86-0.54-1.9-1.23-5.19-.91-6.48a11.47,11.47,0,0,1,1.59-3.33,6.5,6.5,0,0,0,1-2.5,5.41,5.41,0,0,0-.51-2.42,13.19,13.19,0,0,1-1.12-3.28,27.25,27.25,0,0,1,.57-6.31,32.94,32.94,0,0,0,.65-5.69,13,13,0,0,0-.67-2.73,11.77,11.77,0,0,1-.66-3.53,15.9,15.9,0,0,1,.57-3.86,18.84,18.84,0,0,0,.6-3.52A17.73,17.73,0,0,0,160,94.8a33.76,33.76,0,0,0-.87-3.35A24.84,24.84,0,0,0,158,88.59c-0.38-.73-1.05-1.92-1.48-2.58-0.29-.46-1.21-1.68-2.28-3L153,81.39a23.55,23.55,0,0,0-3.69-3.81,8.29,8.29,0,0,0-2.34-.72,11.2,11.2,0,0,1-3.34-1.1,18.23,18.23,0,0,1-3.23-2.39,11.24,11.24,0,0,0-2.92-1.9,9.81,9.81,0,0,0-3.24-.53c-1.1,0-3.94,0-6.34-.2a23.9,23.9,0,0,0-5.91.26,11.39,11.39,0,0,0-3.27,1.74,33.81,33.81,0,0,1-3.61,2.5,32.6,32.6,0,0,1-3.92,1.87,15.61,15.61,0,0,0-3.26,1.8,14.36,14.36,0,0,0-2.47,2.61,7.59,7.59,0,0,1-.88,1,5.57,5.57,0,0,1-2,1.36,4.23,4.23,0,0,1-3.34-.66,14.23,14.23,0,0,1-2.52-2.43,16.74,16.74,0,0,1-1.11-1.67c-0.35-.59-0.66-1.17-0.87-1.63a8.56,8.56,0,0,0-2-2.55A37.06,37.06,0,0,0,85,72.25a68.78,68.78,0,0,0-8.81-1.86,20.82,20.82,0,0,0-4.25.3A19.41,19.41,0,0,0,68.08,72a17.9,17.9,0,0,0-3.26,2.17,39.86,39.86,0,0,1-3.35,2.6,34.4,34.4,0,0,1-3.5,2c-0.31.15-.68,0.36-1.06,0.59A17.54,17.54,0,0,0,55,80.66a18.74,18.74,0,0,0-2.46,2.56,7.71,7.71,0,0,1-2.36,2.16,1.7,1.7,0,0,1-1.33,0,2.09,2.09,0,0,1-1.08-1.2A7.53,7.53,0,0,1,47.34,82a5.68,5.68,0,0,1,.4-2,4.27,4.27,0,0,0,.18-0.53,4.35,4.35,0,0,0,.14-0.67A4.5,4.5,0,0,0,48,77.63a5.4,5.4,0,0,1,.1-2.3,14.39,14.39,0,0,1,1.1-2.63,1.76,1.76,0,0,0,.17-0.42,84.77,84.77,0,0,0-9.27,1.37c-4.71.89-10.43,1.76-11.76,1.62a27,27,0,0,1-4.06-.83,4.28,4.28,0,0,0-1.86-.15,17.36,17.36,0,0,0,0,5,36.73,36.73,0,0,1,.25,7.25,17.56,17.56,0,0,1-1.2,3.61,14.66,14.66,0,0,0-1,3.1A30.81,30.81,0,0,0,21,99.62c0.47,2.81.89,5.88,0.94,6.84a27.06,27.06,0,0,1-.11,3.52,26.37,26.37,0,0,0-.11,3.21,26.93,26.93,0,0,0,.37,3.22,24.63,24.63,0,0,1,.36,3.54,24.38,24.38,0,0,1-.27,3.54,12,12,0,0,0,0,3.05,13.93,13.93,0,0,0,.94,3.09,9.85,9.85,0,0,1,.8,3.82,10.3,10.3,0,0,1-1.07,3.8,8.75,8.75,0,0,0-.87,2.95,8.1,8.1,0,0,0,.55,2.92,25.35,25.35,0,0,1,1.11,3.25,13,13,0,0,1,.34,2.83,2.24,2.24,0,0,0,.46,1.25,5.47,5.47,0,0,0,1.88,1,23,23,0,0,0,3.17.65,26.06,26.06,0,0,0,2.74,0c2.22,0,5.29-.18,8.22-0.35,5.15-.3,8.86-1,9.59-1.34a6.67,6.67,0,0,0,.82-2.61c0.11-1.15.2-3.11,0.19-4.36s-0.13-3.37-.27-4.72a29.83,29.83,0,0,1,0-5.2,31.89,31.89,0,0,1,1.11-5.18c0.43-1.35,1-3.55,1.33-4.9s0.69-3.55.86-4.89a19,19,0,0,0,0-4.35,13.32,13.32,0,0,0-1.2-3.6,8.46,8.46,0,0,1-1-3.83c0.06-1.38,1.95-3.86,3.19-5.19a65.8,65.8,0,0,1,5.22-5c0.89-.73,2.9-2.07,4.13-1.95A5,5,0,0,1,67.2,96.3c0.53,0.61,1.36,1.47,1.79,1.88a9.41,9.41,0,0,0,1.32,1,5.5,5.5,0,0,1,1.5,1.4,10,10,0,0,1,1,2.08L73,102.94c0.34,0.82,1.12,2.49,1.87,4a17.48,17.48,0,0,1,1.81,5.89,17.91,17.91,0,0,1-.83,5.1,19.21,19.21,0,0,0-.8,4.83,19.11,19.11,0,0,0,.76,4.83A37,37,0,0,1,77,132.9a68.32,68.32,0,0,1,.27,7.68c0,2.66,0,5.89.17,7.06a7.45,7.45,0,0,0,1,2.91,3,3,0,0,0,1.76.93c0.81,0.07,2.29.09,3.22,0.06,0.61,0,1.58-.1,2.52-0.2L87,151.2a31.83,31.83,0,0,1,4.17-.23,31.45,31.45,0,0,1,4.17.46c1.05,0.2,2.77.43,3.76,0.51a32.26,32.26,0,0,0,3.48,0,2.71,2.71,0,0,0,1.77-.86,6,6,0,0,0,.49-2.86,31.48,31.48,0,0,1,.16-4.86,37.93,37.93,0,0,1,1.06-5c0.39-1.33,1.12-4.7,1.6-7.37a60.12,60.12,0,0,0,.89-7.31,45.12,45.12,0,0,0-.28-4.86c-0.16-1.34-.52-3.37-0.8-4.52a33.71,33.71,0,0,0-1.18-3.79,11.2,11.2,0,0,1-.73-3.77c0-1.19,1.27-4,2.42-6.07,0.83-1.49,2.71-4.45,3.86-5a7.12,7.12,0,0,1,3.36-.47,16.79,16.79,0,0,0,3.05,0,17.17,17.17,0,0,0,3-.7,5.57,5.57,0,0,1,3.34-.14,4.38,4.38,0,0,1,2.17,2.33c0.28,0.71,1.11,2.45,1.81,3.81A16.72,16.72,0,0,1,129.56,102.7Z" fill="url(#a)"/><path d="M97.48,80.21a13.3,13.3,0,0,0,2.31,2.23,3.25,3.25,0,0,0,2.46.52,4.57,4.57,0,0,0,1.57-1.11,6.64,6.64,0,0,0-.72-0.7l0,0a23.71,23.71,0,0,0-5.17-2l-1.46-.44A16,16,0,0,0,97.48,80.21Z" fill="url(#b)"/><path d="M71.92,103a8.94,8.94,0,0,0-.91-1.83,4.49,4.49,0,0,0-1.18-1.11,10.35,10.35,0,0,1-1.5-1.15c-0.46-.43-1.31-1.31-1.87-2a4,4,0,0,0-2.17-1.29,7,7,0,0,0-3.41,1.73,64.72,64.72,0,0,0-5.12,4.88c-1.57,1.67-2.89,3.72-2.92,4.55a7.6,7.6,0,0,0,.91,3.3,14.34,14.34,0,0,1,1.32,3.93,20,20,0,0,1,0,4.63c-0.18,1.37-.57,3.61-0.88,5s-0.92,3.61-1.36,5a30.72,30.72,0,0,0-1.07,5,28.74,28.74,0,0,0,0,5c0.14,1.37.26,3.54,0.27,4.81s-0.07,3.28-.19,4.46a7.18,7.18,0,0,1-1.1,3.22c-0.49.59-5.1,1.33-10.25,1.63-3.08.18-6.11,0.31-8.26,0.35,0,0.16.09,0.3,0.12,0.43s0.08,0.37.12,0.56a11.39,11.39,0,0,1,.2,2,3.17,3.17,0,0,0,.74,2,6.28,6.28,0,0,0,2.32,1.28,24,24,0,0,0,3.34.68c1,0.12,6,0,11.14-.34s9.76-1,10.25-1.63a7.18,7.18,0,0,0,1.1-3.22c0.12-1.18.2-3.19,0.19-4.46s-0.13-3.44-.27-4.81a28.74,28.74,0,0,1,0-5,30.72,30.72,0,0,1,1.07-5c0.44-1.37,1-3.61,1.36-5s0.7-3.61.88-5a20,20,0,0,0,0-4.63,14.34,14.34,0,0,0-1.32-3.93,7.6,7.6,0,0,1-.91-3.3c0-.83,1.36-2.88,2.92-4.55a64.72,64.72,0,0,1,5.12-4.88c0.2-.16.4-0.31,0.61-0.45s0.57-.39.85-0.55Z" fill="url(#c)"/><path d="M128.61,103a15.78,15.78,0,0,0-.88-2.1c-0.72-1.4-1.55-3.15-1.85-3.9a3.41,3.41,0,0,0-1.6-1.76,4.69,4.69,0,0,0-2.65.15,18.11,18.11,0,0,1-3.21.74,17.74,17.74,0,0,1-3.28,0,6.24,6.24,0,0,0-2.83.38c-0.65.31-2.18,2.37-3.42,4.59a19.28,19.28,0,0,0-2.29,5.61,10.23,10.23,0,0,0,.66,3.38,34.51,34.51,0,0,1,1.22,3.93c0.28,1.18.65,3.26,0.82,4.63a46.5,46.5,0,0,1,.29,5,60.16,60.16,0,0,1-.91,7.48c-0.49,2.74-1.22,6.11-1.62,7.48a36.86,36.86,0,0,0-1,4.88,30.37,30.37,0,0,0-.15,4.67,6.77,6.77,0,0,1-.65,3.48,3.67,3.67,0,0,1-2.54,1.3,32.67,32.67,0,0,1-3.62,0c-1-.08-2.77-0.31-3.87-0.52a30.15,30.15,0,0,0-4-.44,29.73,29.73,0,0,0-4,.22l-1.2.14c0,0.36,0,.69,0,1,0,0.56.06,1,.1,1.37a8.27,8.27,0,0,0,1.17,3.4,4,4,0,0,0,2.47,1.31,32.53,32.53,0,0,0,3.34.06c1,0,2.68-.19,3.78-0.34a29.73,29.73,0,0,1,4-.22,30.15,30.15,0,0,1,4,.44c1.1,0.21,2.84.45,3.87,0.52a32.67,32.67,0,0,0,3.62,0,3.67,3.67,0,0,0,2.54-1.3,6.77,6.77,0,0,0,.65-3.48,30.37,30.37,0,0,1,.15-4.67,36.86,36.86,0,0,1,1-4.88c0.41-1.37,1.14-4.74,1.62-7.48a60.16,60.16,0,0,0,.91-7.48,46.5,46.5,0,0,0-.29-5c-0.17-1.37-.54-3.46-0.82-4.63a34.51,34.51,0,0,0-1.22-3.93,10.23,10.23,0,0,1-.66-3.37,19.28,19.28,0,0,1,2.29-5.61c1.23-2.22,2.77-4.28,3.42-4.59a6.24,6.24,0,0,1,2.83-.38,18,18,0,0,0,2.74,0l0.54,0Z" fill="url(#d)"/><path d="M170.35,139.64a7.47,7.47,0,0,0,1.22-3,6.34,6.34,0,0,0-.62-3,12.29,12.29,0,0,1-1-3,26.88,26.88,0,0,1,.56-6,33,33,0,0,0,.66-6,13.91,13.91,0,0,0-.73-3,10.83,10.83,0,0,1-.59-3.18,15,15,0,0,1,.53-3.57,19.73,19.73,0,0,0,.64-3.75,18.61,18.61,0,0,0-.27-3.72,34.42,34.42,0,0,0-.9-3.47,25.72,25.72,0,0,0-1.25-3c-0.39-.76-1.08-2-1.53-2.67s-2.07-2.82-3.61-4.7a23,23,0,0,0-4-4.07,9.2,9.2,0,0,0-2.69-.83l-0.15,0a9.63,9.63,0,0,1-1.61-.44c1.07,1.36,2,2.61,2.34,3.12,0.45,0.7,1.14,1.9,1.53,2.67a25.72,25.72,0,0,1,1.25,3,34.42,34.42,0,0,1,.9,3.47,18.61,18.61,0,0,1,.27,3.72,19.73,19.73,0,0,1-.64,3.75,15,15,0,0,0-.53,3.57,10.83,10.83,0,0,0,.59,3.18,13.91,13.91,0,0,1,.73,3,33,33,0,0,1-.66,6,26.88,26.88,0,0,0-.56,6,12.29,12.29,0,0,0,1,3,6.34,6.34,0,0,1,.62,3,7.47,7.47,0,0,1-1.22,3,10.48,10.48,0,0,0-1.44,3c-0.2.82,0.21,3.51,0.9,6s1.36,5.16,1.47,6a19.31,19.31,0,0,1,.1,3.1,2.8,2.8,0,0,1-1.18,2.13,5.76,5.76,0,0,1-3.14.13,14.82,14.82,0,0,0-4.09-.18,16.08,16.08,0,0,0-4,1.19,12,12,0,0,1-4,1,11.62,11.62,0,0,1-4-.8,14.63,14.63,0,0,0-3.31-.84c0,0.34,0,.67-0.07,1-0.19,3.15-.08,5.52.35,5.94a4.39,4.39,0,0,0,3.69.49,19.61,19.61,0,0,1,4.78-.58,14.63,14.63,0,0,1,4.26.93,11.62,11.62,0,0,0,4,.8,12,12,0,0,0,4-1,16.08,16.08,0,0,1,4-1.19,14.82,14.82,0,0,1,4.09.18,5.76,5.76,0,0,0,3.14-.13,2.8,2.8,0,0,0,1.18-2.13,19.31,19.31,0,0,0-.1-3.1c-0.11-.84-0.77-3.54-1.47-6s-1.1-5.15-.9-6A10.48,10.48,0,0,1,170.35,139.64Z" fill="url(#e)"/><path d="M48.88,79.74a5.37,5.37,0,0,1-.22.65,4.69,4.69,0,0,0-.32,1.6,6.6,6.6,0,0,0,.35,1.8,0.9,0.9,0,0,0,1.1.65,6.83,6.83,0,0,0,1.93-1.83,19.7,19.7,0,0,1,2.62-2.73,18.56,18.56,0,0,1,2-1.39c-0.69.09-1.47,0.21-2.3,0.34-1.27.2-2.66,0.44-4.12,0.71l-0.37.07Z" fill="url(#f)"/></svg>