<svg xmlns="http://www.w3.org/2000/svg" xmlns:xlink="http://www.w3.org/1999/xlink" width="113" height="200" viewBox="0 0 113 200"><defs><linearGradient id="b" x1="29" y1="160.12" x2="70.34" y2="67.28" gradientUnits="userSpaceOnUse"><stop offset="0" stop-color="#fdba56"/><stop offset=".02" stop-color="#fbb055"/><stop offset=".06" stop-color="#f79d54"/><stop offset=".1" stop-color="#f59253"/><stop offset=".15" stop-color="#f48e53"/><stop offset=".3" stop-color="#ed5e4e"/><stop offset=".47" stop-color="#683a96" stop-opacity=".5"/><stop offset=".64" stop-color="#ed872b"/><stop offset=".79" stop-color="#7b76b6"/><stop offset=".9" stop-color="#f15f4f"/><stop offset="1" stop-color="#fdba56"/></linearGradient><linearGradient id="a" x1="26.8" y1="101.94" x2="51.08" y2="156.47" gradientUnits="userSpaceOnUse"><stop offset="0" stop-color="#b7151b"/><stop offset=".02" stop-color="#c52229"/><stop offset=".06" stop-color="#d7333c"/><stop offset=".11" stop-color="#e23d47"/><stop offset=".15" stop-color="#e6404b"/><stop offset=".3" stop-color="#e98a7b"/><stop offset=".47" stop-color="#7c78b8"/><stop offset=".64" stop-color="#00b0b0"/><stop offset=".79" stop-color="#7b76b6"/><stop offset="1" stop-color="#e7322f"/></linearGradient><linearGradient id="c" x1="68.94" y1="84.07" x2="101.91" y2="158.12" xlink:href="#a"/><linearGradient id="d" x1="37.94" y1="77.17" x2="39.29" y2="80.19" xlink:href="#a"/></defs><title>_</title><path d="M62.69 99.77a5.63 5.63 0 0 1 1.52 2.84 7 7 0 0 1-.58 3.33 13.32 13.32 0 0 0-.82 3.3c-.1 1 0 6 .26 11.93l.32 6.69c.26 5.54.34 12.57.18 15.67a18.32 18.32 0 0 0 .47 6.17c.53.3 3 .65 6.45.31l1.71-.14c3.77-.25 9-.32 12.77-.17a43.19 43.19 0 0 0 8.62-.22 2.43 2.43 0 0 0 .76-1.4c.1-.79.21-2.13.24-2.92s0-2.13 0-2.92-.07-2.27 0-3.13.17-2.26.3-3.13a11 11 0 0 0 0-2.72 12.62 12.62 0 0 0-.87-2.76 12 12 0 0 1-.95-3.35 11 11 0 0 1 .3-3.39c.22-.79.51-2.12.63-2.91s.22-3.23.21-5.89.07-5.28.16-6.15a27.28 27.28 0 0 1 .57-3.16 9.52 9.52 0 0 0 .16-2.81 14.4 14.4 0 0 0-.92-3.23 27.67 27.67 0 0 1-1.28-3.85 25.12 25.12 0 0 1-.54-3.9 16.67 16.67 0 0 0-.5-3.21A12.07 12.07 0 0 0 90.58 86c-.48-.75-1.5-2.6-2.27-4.14S86.6 78.64 86.17 78c-.19-.29-.45-.64-.73-1s-.76-.94-1-1.23c-.54-.58-2.06-2-3.32-3.06a11.55 11.55 0 0 0-3.5-2.15 10.51 10.51 0 0 0-3.12 0 17.34 17.34 0 0 1-4 .13 16 16 0 0 1-3.79-1 11.32 11.32 0 0 0-3.26-.69A42.21 42.21 0 0 0 56 70.46c-3.49.93-6.71 2-7.53 2.32a28.9 28.9 0 0 0-3.3 1.8 25.65 25.65 0 0 0-2.91 2.28c-.29.27-.7.71-1.16 1.23-.6.68-1.18 1.39-1.6 2-1.42 1.91-1.76 2.36-2.6 1.83l-.78-.5.46-.88a1.76 1.76 0 0 0 .12-.62 4.47 4.47 0 0 0-.27-1.1 7 7 0 0 1-.29-1 6.18 6.18 0 0 1-.14-.92 7 7 0 0 1 .13-1.9 9.75 9.75 0 0 0 .22-1.57 17.87 17.87 0 0 0-.06-2 .9.9 0 0 0-.46-.64 6.52 6.52 0 0 0-2.5.2 27.26 27.26 0 0 1-4.09.67 63.37 63.37 0 0 1-7.58-.49 80.45 80.45 0 0 0-9.22-.5 9.77 9.77 0 0 0-4 .77 3.27 3.27 0 0 0-.27 2 26.53 26.53 0 0 1 .32 3.76 23.63 23.63 0 0 1-.35 3.63A27.35 27.35 0 0 0 7.77 84a26.94 26.94 0 0 0 .1 3.22c.09.89.47 3.16.82 5a41.94 41.94 0 0 1 .72 5.21 67.79 67.79 0 0 1-.6 6.88 60 60 0 0 0-.56 6.55 30.22 30.22 0 0 0 .36 3.23 25.68 25.68 0 0 1 .33 3.53 68.92 68.92 0 0 1-.72 6.88 51.16 51.16 0 0 0-.62 6.5 21.54 21.54 0 0 0 .49 3.18 14.13 14.13 0 0 1 .33 3.67 14.93 14.93 0 0 1-.81 3.65 17.72 17.72 0 0 0-.82 3.3 21.41 21.41 0 0 0-.07 3.65 3.88 3.88 0 0 0 .94 2.19c.59.19 3.32.29 7.78-.08.88-.07 1.79-.16 2.71-.26l1-.11a113.26 113.26 0 0 1 12.29-.91A39.61 39.61 0 0 1 36 150a2.87 2.87 0 0 0 2.21-.24 5.57 5.57 0 0 0 .27-3.13 54.28 54.28 0 0 1-.54-5.6 47.1 47.1 0 0 1 .2-5.39c.15-1.39.29-3.66.32-5.05s0-3.66-.12-5.05-.14-3.79-.1-5.24.45-5.49.91-9c.49-3.77.82-7.11.83-7.87a29.79 29.79 0 0 0-.17-3.1 8.13 8.13 0 0 1 .35-3.33 7.06 7.06 0 0 1 1.92-2.6 13 13 0 0 1 2.8-1.64A15.88 15.88 0 0 1 48.2 92a20.21 20.21 0 0 1 3.43-.1 17.32 17.32 0 0 1 3.23.61 11.2 11.2 0 0 1 2.77 1.34 8 8 0 0 1 1.92 2.09 19.83 19.83 0 0 0 1.36 1.95c.26.32.69.8 1.14 1.28z" fill="url(#b)"/><path d="M61.26 99.79h.06c-.44-.47-.9-1-1.2-1.34a20.72 20.72 0 0 1-1.44-2.07A7.08 7.08 0 0 0 57 94.61a10.26 10.26 0 0 0-2.48-1.19 16.47 16.47 0 0 0-3-.56 19.34 19.34 0 0 0-3.23.1 15 15 0 0 0-3.07.78 12 12 0 0 0-2.54 1.49 6.13 6.13 0 0 0-1.61 2.18 7.21 7.21 0 0 0-.28 2.85 30.79 30.79 0 0 1 .18 3.22c0 .9-.38 4.49-.84 8s-.86 7.51-.91 8.93 0 3.73.09 5.14.15 3.73.12 5.14-.18 3.73-.33 5.14a46.13 46.13 0 0 0-.19 5.25 53 53 0 0 0 .52 5.48 6.07 6.07 0 0 1-.48 3.92 3.57 3.57 0 0 1-3.22.57 38.59 38.59 0 0 0-4.44-.75 113.67 113.67 0 0 0-12.08.91l-1 .11c-.93.1-1.85.19-2.74.27v.06c0 .27-.06.6-.08 1a23.08 23.08 0 0 0 0 2.9 4.65 4.65 0 0 0 1.38 2.94c.67.51 5.69.43 11.16-.18l1-.11a113.67 113.67 0 0 1 12.07-1 38.59 38.59 0 0 1 4.44.75 3.57 3.57 0 0 0 3.22-.57 6.07 6.07 0 0 0 .48-3.92 53 53 0 0 1-.52-5.48 46.13 46.13 0 0 1 .19-5.25c.15-1.41.3-3.73.33-5.14s0-3.73-.12-5.14-.14-3.73-.09-5.14.45-5.43.91-8.93.83-7.09.84-8a30.79 30.79 0 0 0-.18-3.22 7.21 7.21 0 0 1 .28-2.85 6.13 6.13 0 0 1 1.61-2.18 12 12 0 0 1 2.61-1.46 15 15 0 0 1 3-.78 18.71 18.71 0 0 1 1.9-.12c.53-.01 1-.01 1.36.02z" fill="url(#a)"/><path d="M104.59 127.93a59.56 59.56 0 0 0 .23-6c0-2.49.06-5.21.15-6a26.39 26.39 0 0 1 .55-3 10.41 10.41 0 0 0 .18-3.18 15.44 15.44 0 0 0-1-3.5 26.5 26.5 0 0 1-1.22-3.68 24 24 0 0 1-.51-3.71 17.6 17.6 0 0 0-.53-3.45 13.14 13.14 0 0 0-1.3-2.89c-.46-.72-1.46-2.54-2.22-4s-1.75-3.3-2.21-4A22.39 22.39 0 0 0 94.84 82c-.57-.61-2.09-2-3.4-3.14a12.45 12.45 0 0 0-3.86-2.35h-.08a7.84 7.84 0 0 0-1.28-.13c.29.38.57.75.77 1.05.46.69 1.45 2.48 2.21 4s1.76 3.33 2.22 4a13.14 13.14 0 0 1 1.3 2.89 17.6 17.6 0 0 1 .53 3.45 24 24 0 0 0 .51 3.71A26.5 26.5 0 0 0 95 99.19a15.44 15.44 0 0 1 1 3.5 10.41 10.41 0 0 1-.18 3.18 26.39 26.39 0 0 0-.55 3c-.09.83-.16 3.55-.15 6a59.56 59.56 0 0 1-.23 6c-.13.83-.42 2.19-.65 3a10 10 0 0 0-.27 3 11.05 11.05 0 0 0 .86 3 13.66 13.66 0 0 1 1 3 11.86 11.86 0 0 1 0 3c-.12.83-.25 2.19-.29 3s0 2.19 0 3 .08 2.19.05 3-.14 2.19-.25 3a3.29 3.29 0 0 1-1.3 2.16c-.6.36-4.7.51-9.11.33-3.77-.15-9-.07-12.66.17v1c0 2.53.27 4.82.73 5.41s3.84 1 7.32.66a126.84 126.84 0 0 1 14.34-.31c4.4.18 8.5 0 9.11-.33a3.29 3.29 0 0 0 1.3-2.16c.11-.83.22-2.19.25-3s0-2.19-.05-3-.07-2.19 0-3 .17-2.19.29-3a11.86 11.86 0 0 0 0-3 13.66 13.66 0 0 0-1-3 11.05 11.05 0 0 1-.86-3 10 10 0 0 1 .27-3c.2-.67.49-2.03.62-2.87z" fill="url(#c)"/><path d="M37.32 78.41a5.37 5.37 0 0 1 .34 1.43 2.64 2.64 0 0 1-.24 1.16 6.45 6.45 0 0 0 1.24-1.53c.46-.62 1.07-1.36 1.66-2-.53.08-1 .14-1.42.16h-1.79a6 6 0 0 0 .21.78z" fill="url(#d)"/></svg>