<svg xmlns="http://www.w3.org/2000/svg" xmlns:xlink="http://www.w3.org/1999/xlink" width="200" height="200" viewBox="0 0 200 200"><defs><linearGradient id="a" x1="73.72" y1="153.38" x2="109.28" y2="73.5" gradientUnits="userSpaceOnUse"><stop offset="0" stop-color="#fdba56"/><stop offset="0.02" stop-color="#fbb055"/><stop offset="0.06" stop-color="#f79d54"/><stop offset="0.1" stop-color="#f59253"/><stop offset="0.15" stop-color="#f48e53"/><stop offset="0.3" stop-color="#ed5e4e"/><stop offset="0.47" stop-color="#683a96" stop-opacity="0.5"/><stop offset="0.64" stop-color="#ed872b"/><stop offset="0.79" stop-color="#7b76b6"/><stop offset="0.9" stop-color="#f15f4f"/><stop offset="1" stop-color="#fdba56"/></linearGradient><linearGradient id="b" x1="90.47" y1="94.27" x2="119.73" y2="159.99" gradientUnits="userSpaceOnUse"><stop offset="0" stop-color="#b7151b"/><stop offset="0.02" stop-color="#c52229"/><stop offset="0.06" stop-color="#d7333c"/><stop offset="0.11" stop-color="#e23d47"/><stop offset="0.15" stop-color="#e6404b"/><stop offset="0.3" stop-color="#e98a7b"/><stop offset="0.47" stop-color="#7c78b8"/><stop offset="0.64" stop-color="#00b0b0"/><stop offset="0.79" stop-color="#7b76b6"/><stop offset="1" stop-color="#e7322f"/></linearGradient></defs><title>_</title><path d="M120.16,80.42a20.84,20.84,0,0,0-2.81-2.86,42.68,42.68,0,0,0-6.69-3.45A58.1,58.1,0,0,0,104,71.59a21.63,21.63,0,0,0-3.12-.33c-0.87,0-2.34,0-3.21.13s-2.33.32-3.18,0.52a29,29,0,0,1-3.39.5,26.14,26.14,0,0,1-3.33,0c-0.66-.05-1.68-0.09-2.48-0.09H84.71c-0.82,0-3.63.34-6.16,0.7a42.87,42.87,0,0,0-6.2,1.25,29.06,29.06,0,0,0-3.4,1.62,37.68,37.68,0,0,0-3.38,2.24c-0.77.59-3.85,3.56-7.21,7s-6.21,6.68-6.77,7.47S50,95,49.54,95.85s-1.15,2.19-1.48,3-0.81,2.11-1.06,2.92-0.59,2.18-.76,3a20,20,0,0,0-.31,3,20.48,20.48,0,0,0,.25,3c0.16,0.92.34,2.39,0.41,3.28s0.11,2.34.1,3.22,0,2.19.08,3,0.23,2.17.36,3a17.08,17.08,0,0,0,.76,2.75,17.45,17.45,0,0,0,1.32,2.56c0.55,0.86,2.74,5,4.53,8.5,2.18,4.27,4.34,7.51,4.94,8a11.85,11.85,0,0,0,3.39,1.59,24.16,24.16,0,0,1,3.24,1.17c0.37,0.16.71,0.32,1,.47A23.78,23.78,0,0,1,70,150.8,24.47,24.47,0,0,0,73.09,153a14.19,14.19,0,0,0,2.85,1.21c0.79,0.21,2.85.59,4.49,0.84a36,36,0,0,0,4.46.43,27.77,27.77,0,0,0,3-.25c0.81-.12,2.85-0.58,4.46-1a21.65,21.65,0,0,1,4.88-.74,13.83,13.83,0,0,1,3.49.75,6.76,6.76,0,0,0,2.64.36,6.19,6.19,0,0,0,2.35-1,19.58,19.58,0,0,1,3.22-1.85,28.23,28.23,0,0,1,3.92-1.29,14.32,14.32,0,0,0,3.47-1.43,14.55,14.55,0,0,0,2.84-2.49c0.77-.92,4.11-4.32,7.44-7.58a68.84,68.84,0,0,0,6.74-7.26,28.28,28.28,0,0,0,1.57-6.25,71.89,71.89,0,0,0,.81-8.11,101.58,101.58,0,0,0-1.83-12.9l-1-5.19c-1.13-5.85-2.47-10.29-2.93-10.9a10.89,10.89,0,0,0-2.87-2.26,25.1,25.1,0,0,1-3.76-2.47,24.67,24.67,0,0,1-2.55-2.53C120.53,80.87,120.33,80.63,120.16,80.42Z" fill="url(#a)"/><path d="M144.55,111.24l-1-5.19c-1-5.4-2.45-10.5-3.14-11.34a11.91,11.91,0,0,0-3.19-2.52,23.87,23.87,0,0,1-3.58-2.35,20.46,20.46,0,0,1-1.52-1.44,21.31,21.31,0,0,1-1.45-1.64,19.84,19.84,0,0,0-1.48-1.65,18.5,18.5,0,0,0-1.5-1.38,25.86,25.86,0,0,0-3.62-2.05c-0.82-.4-1.69-0.82-2.57-1.21a19.14,19.14,0,0,0,6,4.78,11.91,11.91,0,0,1,3.19,2.52c0.68,0.84,2.1,5.94,3.14,11.34l1,5.19a100.59,100.59,0,0,1,1.85,13.11,73.57,73.57,0,0,1-.83,8.25,28.54,28.54,0,0,1-1.68,6.58,67.33,67.33,0,0,1-6.91,7.49c-3.3,3.23-6.62,6.61-7.38,7.51a15.56,15.56,0,0,1-3.08,2.7,15.33,15.33,0,0,1-3.76,1.56,27,27,0,0,0-3.75,1.24,18.74,18.74,0,0,0-3,1.74,7.2,7.2,0,0,1-2.82,1.19,7.79,7.79,0,0,1-3.11-.42,12.91,12.91,0,0,0-3.19-.69,20,20,0,0,0-4.57.71c-1.66.43-3.71,0.89-4.56,1a28.58,28.58,0,0,1-3.1.26,37.21,37.21,0,0,1-4.63-.44c-1.69-.26-3.76-0.65-4.59-0.86a15.16,15.16,0,0,1-3.09-1.31,25.32,25.32,0,0,1-3.23-2.34,22.51,22.51,0,0,0-3.54-2.43c-0.27-.14-0.59-0.29-0.93-0.44,0.36,0.6.7,1.15,1,1.65a11.85,11.85,0,0,0,1.86,2.42,12.88,12.88,0,0,0,3.73,1.76l0.31,0.09a23.14,23.14,0,0,1,3.71,1.47l0.41,0.23a23.1,23.1,0,0,1,3.13,2.2,25.32,25.32,0,0,0,3.23,2.34,15.16,15.16,0,0,0,3.09,1.31c0.83,0.22,2.9.61,4.59,0.86a37.21,37.21,0,0,0,4.63.44,28.58,28.58,0,0,0,3.1-.26c0.85-.13,2.91-0.59,4.56-1a20,20,0,0,1,4.57-.71,12.91,12.91,0,0,1,3.19.69,7.79,7.79,0,0,0,3.11.42A7.2,7.2,0,0,0,116,161.4a18.74,18.74,0,0,1,3-1.74,27,27,0,0,1,3.75-1.24,15.33,15.33,0,0,0,3.76-1.56,15.56,15.56,0,0,0,3.08-2.7c0.75-.9,4.07-4.28,7.38-7.51a67.33,67.33,0,0,0,6.91-7.49,28.54,28.54,0,0,0,1.68-6.58,73.57,73.57,0,0,0,.83-8.25A100.59,100.59,0,0,0,144.55,111.24Z" fill="url(#b)"/></svg>