<svg xmlns="http://www.w3.org/2000/svg" xmlns:xlink="http://www.w3.org/1999/xlink" width="117" height="200" viewBox="0 0 117 200"><defs><linearGradient id="b" x1="18.67" y1="178.74" x2="68.57" y2="66.66" gradientUnits="userSpaceOnUse"><stop offset="0" stop-color="#fdba56"/><stop offset=".02" stop-color="#fbb055"/><stop offset=".06" stop-color="#f79d54"/><stop offset=".1" stop-color="#f59253"/><stop offset=".15" stop-color="#f48e53"/><stop offset=".3" stop-color="#ed5e4e"/><stop offset=".47" stop-color="#683a96" stop-opacity=".5"/><stop offset=".64" stop-color="#ed872b"/><stop offset=".79" stop-color="#7b76b6"/><stop offset=".9" stop-color="#f15f4f"/><stop offset="1" stop-color="#fdba56"/></linearGradient><linearGradient id="a" x1="64.08" y1="87.66" x2="93.99" y2="154.82" gradientUnits="userSpaceOnUse"><stop offset="0" stop-color="#b7151b"/><stop offset=".02" stop-color="#c52229"/><stop offset=".06" stop-color="#d7333c"/><stop offset=".11" stop-color="#e23d47"/><stop offset=".15" stop-color="#e6404b"/><stop offset=".3" stop-color="#e98a7b"/><stop offset=".47" stop-color="#7c78b8"/><stop offset=".64" stop-color="#00b0b0"/><stop offset=".79" stop-color="#7b76b6"/><stop offset="1" stop-color="#e7322f"/></linearGradient><linearGradient id="c" x1="28.9" y1="151.65" x2="44.66" y2="187.05" xlink:href="#a"/><linearGradient id="d" x1="39.51" y1="77.28" x2="40.51" y2="79.53" xlink:href="#a"/></defs><title>_</title><path d="M53 152.72a24 24 0 0 0 2.91.66H56c1.1.12 3.88.16 6.41.1A57.66 57.66 0 0 0 69 153a26.47 26.47 0 0 0 3.22-.93 19.85 19.85 0 0 0 3-1.48 21.29 21.29 0 0 0 2.69-2.11 34.94 34.94 0 0 1 2.88-2.41 32.39 32.39 0 0 1 3.1-2 26.66 26.66 0 0 0 2.89-1.87 33.44 33.44 0 0 0 2.79-2.46 17.52 17.52 0 0 0 2.24-2.91 17.76 17.76 0 0 0 1.42-3.4 25.77 25.77 0 0 1 1.45-3.82 22.08 22.08 0 0 1 2.1-3.31 11.77 11.77 0 0 0 1.56-2.75 10.87 10.87 0 0 0 .51-3c0-.92-.09-2.46-.2-3.38s-.37-2.44-.59-3.34a34.48 34.48 0 0 1-.61-3.69c-.11-1.08-.06-4.64.1-8.11a34.11 34.11 0 0 0-.26-7.54 10.13 10.13 0 0 0-1.76-2.91c-.77-.83-2.4-2.86-3.63-4.52a55.72 55.72 0 0 1-3.17-4.69C88.23 81.56 87.46 80 87 79c-.16-.35-.37-.77-.61-1.21A18.28 18.28 0 0 0 85.24 76a19.86 19.86 0 0 0-2.42-2.6 9.86 9.86 0 0 0-2.92-1.61 12.62 12.62 0 0 0-3.7-.37c-1.25.08-3.24.1-4.42 0a38.05 38.05 0 0 1-4.17-.49 34.84 34.84 0 0 0-3.67-.45 63.2 63.2 0 0 0-7.22.56 33.91 33.91 0 0 0-6.9 1.38 47.81 47.81 0 0 0-6.16 4.93l-.66.57c-4.21 3.78-4.6 3.72-5 3.66l-.46-.06-.27-.4a3.21 3.21 0 0 1-.29-1.67 4.3 4.3 0 0 1 .87-2 2.17 2.17 0 0 0 .15-.35 2.08 2.08 0 0 0 .24-.63 2 2 0 0 0-.3-.88 8 8 0 0 1-.85-1.65 4.52 4.52 0 0 1-.21-1.5.89.89 0 0 0-.25-.22 11.07 11.07 0 0 0-2.25-.77 12 12 0 0 0-3.15-.21 14.36 14.36 0 0 0-3.29.83 19.52 19.52 0 0 1-3.85 1.06 40.38 40.38 0 0 1-7.42-.46 19.19 19.19 0 0 0-5.7-.16 3.23 3.23 0 0 0-.76 1.62 23.36 23.36 0 0 0-.21 3.15 24.56 24.56 0 0 0 .32 3.2 18.48 18.48 0 0 1 .23 3.61 19.12 19.12 0 0 1-.61 3.6 9.82 9.82 0 0 0-.28 3 11.08 11.08 0 0 0 .9 3 23.45 23.45 0 0 1 1.35 3.56 19.69 19.69 0 0 1 .55 3.6 34.32 34.32 0 0 1-.08 3.5c-.08 1-.54 4-1 6.85-.52 3-.89 5.83-.9 6.61s0 2.37.13 3.26a20 20 0 0 1 0 3.59 21.38 21.38 0 0 1-.8 3.58 8.51 8.51 0 0 0-.32 3 10 10 0 0 0 1 3 11.77 11.77 0 0 1 1.2 3.76c.14 1.22-.55 4.59-1.26 7.14A40.9 40.9 0 0 0 9 151.61a18.12 18.12 0 0 0 .32 3.16c.2 1 .45 2.52.54 3.49s.17 4 .17 6.86c0 3 .11 5.72.21 6.41a18.36 18.36 0 0 0 .64 2.61 4.14 4.14 0 0 0 1.16 1.6 6.69 6.69 0 0 0 2.3.88c.87.15 2.42.31 3.38.35L19 177h3.48a27 27 0 0 1 3.25.19 28.49 28.49 0 0 1 4.18 1 14.61 14.61 0 0 0 3.6.62h.05a12.16 12.16 0 0 0 3.3-.55 5.63 5.63 0 0 0 2.25-1.58 6.44 6.44 0 0 0 .86-2.81c.05-1.07-.12-6-.38-10.68a84.21 84.21 0 0 1-.08-11.15 22.34 22.34 0 0 1 1.42-4.51 10 10 0 0 1 2.07-3.2 1.29 1.29 0 0 1 1-.23c1.3.23 2.84 2.39 3.43 3.31a24.56 24.56 0 0 0 3.19 4.09 9.34 9.34 0 0 0 2 1.06z" fill="url(#b)"/><path d="M105.27 137.09a21.26 21.26 0 0 1 2-3.13 12.81 12.81 0 0 0 1.72-3 11.91 11.91 0 0 0 .57-3.35c0-1-.09-2.54-.2-3.49s-.38-2.51-.61-3.45a33.18 33.18 0 0 1-.59-3.56c-.1-1-.05-4.6.1-8a33.94 33.94 0 0 0-.32-7.9 11 11 0 0 0-2-3.27c-.75-.81-2.36-2.81-3.57-4.44s-2.6-3.69-3.09-4.57-1.24-2.4-1.67-3.36a17 17 0 0 0-4.46-6 10.78 10.78 0 0 0-3.29-1.81 9.59 9.59 0 0 0-1.42-.28c-.39-.05-.79-.09-1.2-.12.26.46.49.91.65 1.29.43 1 1.18 2.48 1.67 3.36s1.88 2.95 3.09 4.57 2.82 3.62 3.57 4.44a11 11 0 0 1 2 3.27 33.94 33.94 0 0 1 .32 7.9c-.16 3.36-.21 6.94-.1 8a33.18 33.18 0 0 0 .59 3.56c.22.94.49 2.5.61 3.45s.2 2.53.2 3.49a11.91 11.91 0 0 1-.57 3.35 12.81 12.81 0 0 1-1.72 3 21.26 21.26 0 0 0-2 3.13 24.59 24.59 0 0 0-1.38 3.64 15.17 15.17 0 0 1-3.91 6.74 34 34 0 0 1-2.89 2.55 27.66 27.66 0 0 1-3 2 31.11 31.11 0 0 0-3 1.88 33.91 33.91 0 0 0-2.78 2.33 22.17 22.17 0 0 1-2.84 2.23 20.7 20.7 0 0 1-3.16 1.57 27.24 27.24 0 0 1-3.37 1 58.25 58.25 0 0 1-6.83.46c-2.63.06-5.41 0-6.46-.1l.35.51.36.54a22.19 22.19 0 0 0 3 3.8 10.17 10.17 0 0 0 2.68 1.38 25 25 0 0 0 3.06.7 62.7 62.7 0 0 0 6.68.12 58.25 58.25 0 0 0 6.83-.46 27.24 27.24 0 0 0 3.37-1 20.7 20.7 0 0 0 3.16-1.57 22.17 22.17 0 0 0 2.84-2.23 33.91 33.91 0 0 1 2.78-2.33 31.11 31.11 0 0 1 3-1.88 27.66 27.66 0 0 0 3-2 34 34 0 0 0 2.89-2.55 15.17 15.17 0 0 0 3.91-6.74 24.59 24.59 0 0 1 1.43-3.67z" fill="url(#a)"/><path d="M50 152.29a24.36 24.36 0 0 1-3.43-4.29c-1.23-1.88-2.58-3.16-3-2.83a9.16 9.16 0 0 0-1.75 2.71 21.57 21.57 0 0 0-1.35 4.27 83.86 83.86 0 0 0 .09 10.85c.26 4.82.43 9.67.38 10.78a7.42 7.42 0 0 1-1 3.35 6.54 6.54 0 0 1-2.74 1.94 13.17 13.17 0 0 1-3.69.6 15.6 15.6 0 0 1-3.9-.67 27.47 27.47 0 0 0-4-.93 25.45 25.45 0 0 0-4-.16c-.72 0-1.72.06-2.6.05 0 .26 0 .48.06.62s0 .25.07.38a19.12 19.12 0 0 0 .61 2.41 5.13 5.13 0 0 0 1.51 2.08 7.55 7.55 0 0 0 2.73 1.07c.92.15 2.49.32 3.5.37s2.74 0 3.84 0a25.45 25.45 0 0 1 4 .16 27.47 27.47 0 0 1 4 .93 15.6 15.6 0 0 0 3.9.67 13.17 13.17 0 0 0 3.69-.6 6.54 6.54 0 0 0 2.74-1.94 7.42 7.42 0 0 0 1-3.35c.06-1.11-.11-6-.38-10.78a83.86 83.86 0 0 1-.09-10.92 21.57 21.57 0 0 1 1.35-4.27l.2-.4c.15-.3.31-.6.48-.88a10.19 10.19 0 0 1-2.22-1.22z" fill="url(#c)"/><path d="M38.6 78a3.33 3.33 0 0 0-.66 1.5 2.21 2.21 0 0 0 .14 1.05c.1.16 2-1.34 4.29-3.41a11 11 0 0 0-1.53 0c-.22 0-.48.06-.76.11s-.79.16-1.2.27a3 3 0 0 1-.28.48z" fill="url(#d)"/></svg>