<svg xmlns="http://www.w3.org/2000/svg" xmlns:xlink="http://www.w3.org/1999/xlink" width="200" height="200" viewBox="0 0 200 200"><defs><linearGradient id="a" x1="66.49" y1="151.82" x2="105.47" y2="64.26" gradientUnits="userSpaceOnUse"><stop offset="0" stop-color="#fdba56"/><stop offset="0.02" stop-color="#fbb055"/><stop offset="0.06" stop-color="#f79d54"/><stop offset="0.1" stop-color="#f59253"/><stop offset="0.15" stop-color="#f48e53"/><stop offset="0.3" stop-color="#ed5e4e"/><stop offset="0.47" stop-color="#683a96" stop-opacity="0.5"/><stop offset="0.64" stop-color="#ed872b"/><stop offset="0.79" stop-color="#7b76b6"/><stop offset="0.9" stop-color="#f15f4f"/><stop offset="1" stop-color="#fdba56"/></linearGradient><linearGradient id="b" x1="92.49" y1="91.8" x2="120.23" y2="154.1" gradientUnits="userSpaceOnUse"><stop offset="0" stop-color="#b7151b"/><stop offset="0.02" stop-color="#c52229"/><stop offset="0.06" stop-color="#d7333c"/><stop offset="0.11" stop-color="#e23d47"/><stop offset="0.15" stop-color="#e6404b"/><stop offset="0.3" stop-color="#e98a7b"/><stop offset="0.47" stop-color="#7c78b8"/><stop offset="0.64" stop-color="#00b0b0"/><stop offset="0.79" stop-color="#7b76b6"/><stop offset="1" stop-color="#e7322f"/></linearGradient><linearGradient id="c" x1="95.02" y1="79.48" x2="97.43" y2="84.9" xlink:href="#b"/></defs><title>_</title><path d="M92.17,81.11c0-.18,0-0.48,0-0.83,0-.84.1-2,0.19-3.1A5.81,5.81,0,0,0,92.21,75a7.64,7.64,0,0,0-1.91-.15c-1,0-2.59,0-3.59-.05s-2.66-.29-3.69-0.49a25.15,25.15,0,0,0-3.47-.36c-1,0-3.36.15-5.25,0.37s-4.4.38-5.35,0.37a4.21,4.21,0,0,0-2.08.5,3.57,3.57,0,0,0-1,1.66,10.74,10.74,0,0,0-.25,2.77,13.79,13.79,0,0,0,.66,3,24.46,24.46,0,0,1,.93,3.56,49.77,49.77,0,0,1,0,6.94C67.09,96,66.83,99,66.63,100a34.39,34.39,0,0,1-.93,3.48,11.29,11.29,0,0,0-.48,3,11.41,11.41,0,0,0,.57,3,14.35,14.35,0,0,1,.73,3.66,13.94,13.94,0,0,1-.45,3.67,14.94,14.94,0,0,0-.46,3.11,14.74,14.74,0,0,0,.36,3.1,20.11,20.11,0,0,1,.51,3.57,58.29,58.29,0,0,1-.71,6.91,53.36,53.36,0,0,0-.67,6.53,25.16,25.16,0,0,0,.4,3.21c0.2,1,.42,2.52.51,3.48s0.12,2.53.09,3.49a2.64,2.64,0,0,0,.49,1.6,38.56,38.56,0,0,0,8.05.38H75c4.75-.14,8.94-0.4,9.88-0.56a20.44,20.44,0,0,1,3.18-.23c0.43,0,.84,0,1.19,0a26.08,26.08,0,0,1,4.58.89,4.62,4.62,0,0,0,2.09.19,3,3,0,0,0-.1-1.61,15.27,15.27,0,0,1-.6-4.23,13,13,0,0,1,.88-4,14.49,14.49,0,0,0,.88-3.21,12.92,12.92,0,0,0-.1-3.18,34,34,0,0,1-.43-3.61c-0.05-1,0-3.91.08-6.51a57.54,57.54,0,0,0-.19-7.43,16.91,16.91,0,0,1,.06-5A18.75,18.75,0,0,1,98,109.91a25.07,25.07,0,0,1,2.56-3.66,21.6,21.6,0,0,1,3.2-2.88,16.9,16.9,0,0,1,3.9-1.93,20.17,20.17,0,0,1,4.52-.76,25.88,25.88,0,0,1,3.8.12,4.29,4.29,0,0,1,2.35,1l0.09,0.08,0.18-.13a5.43,5.43,0,0,1,1.2-.83,3.38,3.38,0,0,1,1.36-.28,4.79,4.79,0,0,1,1.22.27,7.1,7.1,0,0,1,.7.32,14.69,14.69,0,0,0,.15-2.18c0-1.07-.39-5.62-0.85-9.93a77.83,77.83,0,0,1-.59-10.25c0-.24.07-0.52,0.13-0.82a30.09,30.09,0,0,1,.79-3.38,16.69,16.69,0,0,0,.51-2.12l-0.09,0c-1.39.45-2.32,0.38-2.75-.2a4.58,4.58,0,0,1-.58-1.33,4.18,4.18,0,0,0-.19-0.55c-0.92.24-3.42,0.95-7,2a45.33,45.33,0,0,0-8.36,3.1,36.92,36.92,0,0,0-4.2,5.7l-0.61,1C98,84.57,96,87.22,94.5,87.08a1.33,1.33,0,0,1-1.12-.9,29.1,29.1,0,0,1-.9-2.87A16.13,16.13,0,0,1,92.17,81.11Z" fill="url(#a)"/><path d="M122.76,79a77.54,77.54,0,0,0,.6,10c0.47,4.41.85,8.92,0.85,10a12.08,12.08,0,0,1-.28,2.85,0.61,0.61,0,0,1-.85.48,7.57,7.57,0,0,0-1.07-.54,3.82,3.82,0,0,0-.93-0.21,2.26,2.26,0,0,0-.89.19,4.58,4.58,0,0,0-.95.65,1.61,1.61,0,0,1-.92.43,1.33,1.33,0,0,1-.81-0.49,3.31,3.31,0,0,0-1.71-.67,25.25,25.25,0,0,0-3.61-.11,19.28,19.28,0,0,0-4.25.71,16,16,0,0,0-3.63,1.8,20.93,20.93,0,0,0-3,2.72,23.93,23.93,0,0,0-2.44,3.49A17.9,17.9,0,0,0,97.36,114a16.11,16.11,0,0,0,0,4.63,58,58,0,0,1,.2,7.6c-0.1,2.58-.14,5.47-0.09,6.42a33,33,0,0,0,.41,3.48,13.91,13.91,0,0,1,.11,3.48,15.48,15.48,0,0,1-1,3.48,12.06,12.06,0,0,0-.81,3.62,14.38,14.38,0,0,0,.56,3.9c0.34,1.11.26,2.32-.19,2.69s-1.82.36-3.05,0a24.91,24.91,0,0,0-4.36-.85,20,20,0,0,0-4.12.18c-1.1.19-5.61,0.45-10,.58H74.68c0,0.2,0,.4.06,0.56s0,0.29,0,.44c0.06,0.92.08,2.13,0.06,2.93a3.36,3.36,0,0,0,.91,2.46c0.54,0.43,4.58.67,9,.54s8.92-.39,10-0.58a20,20,0,0,1,4.12-.18,24.91,24.91,0,0,1,4.36.85c1.23,0.37,2.61.38,3.05,0s0.53-1.58.19-2.69a14.38,14.38,0,0,1-.56-3.9,12.06,12.06,0,0,1,.81-3.62,15.48,15.48,0,0,0,1-3.48,13.91,13.91,0,0,0-.11-3.48,33,33,0,0,1-.41-3.48c-0.05-1,0-3.85.09-6.42a58,58,0,0,0-.2-7.6,16.11,16.11,0,0,1,0-4.62,17.9,17.9,0,0,1,1.49-3.64,23.93,23.93,0,0,1,2.44-3.49,20.93,20.93,0,0,1,3-2.72,16,16,0,0,1,3.63-1.8,19.28,19.28,0,0,1,4.25-.71,25.25,25.25,0,0,1,3.61.11,3.31,3.31,0,0,1,1.71.67,1.33,1.33,0,0,0,.81.49,1.61,1.61,0,0,0,.92-0.43,4.58,4.58,0,0,1,.95-0.65,2.26,2.26,0,0,1,.89-0.19,3.82,3.82,0,0,1,.93.21,7.57,7.57,0,0,1,1.07.54,0.61,0.61,0,0,0,.85-0.48,12.08,12.08,0,0,0,.28-2.85c0-1.11-.39-5.62-0.85-10a77.54,77.54,0,0,1-.6-10,28.47,28.47,0,0,1,.88-4,12.78,12.78,0,0,0,.6-2.91c0-.49-0.66-0.68-1.44-0.43a2.38,2.38,0,0,1-1.65.15,3.71,3.71,0,0,1-.41-1,4.18,4.18,0,0,0-.42-1,0.78,0.78,0,0,0-.52-0.34c-0.13,0-2.48.66-5.55,1.55l-1.08.31C122.83,78.55,122.79,78.81,122.76,79Z" fill="url(#b)"/><path d="M93.17,81a15.6,15.6,0,0,0,.29,2,28.36,28.36,0,0,0,.86,2.74c0.35,0.95,2.24-.88,4.21-4.05l0.62-1H98c-0.54,0-1.06,0-1.47-.06-0.62,0-1.51-.15-2.33-0.27l-1-.16C93.16,80.62,93.16,80.89,93.17,81Z" fill="url(#c)"/></svg>