<svg xmlns="http://www.w3.org/2000/svg" xmlns:xlink="http://www.w3.org/1999/xlink" width="200" height="200" viewBox="0 0 200 200"><defs><linearGradient id="a" x1="74.5" y1="152.96" x2="109.57" y2="74.19" gradientUnits="userSpaceOnUse"><stop offset="0" stop-color="#fdba56"/><stop offset="0.02" stop-color="#fbb055"/><stop offset="0.06" stop-color="#f79d54"/><stop offset="0.1" stop-color="#f59253"/><stop offset="0.15" stop-color="#f48e53"/><stop offset="0.3" stop-color="#ed5e4e"/><stop offset="0.47" stop-color="#683a96" stop-opacity="0.5"/><stop offset="0.64" stop-color="#ed872b"/><stop offset="0.79" stop-color="#7b76b6"/><stop offset="0.9" stop-color="#f15f4f"/><stop offset="1" stop-color="#fdba56"/></linearGradient><linearGradient id="b" x1="99.33" y1="128.48" x2="114.4" y2="162.31" gradientUnits="userSpaceOnUse"><stop offset="0" stop-color="#b7151b"/><stop offset="0.02" stop-color="#c52229"/><stop offset="0.06" stop-color="#d7333c"/><stop offset="0.11" stop-color="#e23d47"/><stop offset="0.15" stop-color="#e6404b"/><stop offset="0.3" stop-color="#e98a7b"/><stop offset="0.47" stop-color="#7c78b8"/><stop offset="0.64" stop-color="#00b0b0"/><stop offset="0.79" stop-color="#7b76b6"/><stop offset="1" stop-color="#e7322f"/></linearGradient><linearGradient id="c" x1="84.02" y1="132.65" x2="86.84" y2="138.98" xlink:href="#b"/><linearGradient id="d" x1="88.92" y1="87.06" x2="94.48" y2="99.54" xlink:href="#b"/><linearGradient id="e" x1="118.19" y1="86.93" x2="127.31" y2="107.41" xlink:href="#b"/><linearGradient id="f" x1="78.05" y1="112.95" x2="88.34" y2="136.06" xlink:href="#b"/></defs><title>_</title><path d="M79.62,134.16a10,10,0,0,1,.11-1.37,12.32,12.32,0,0,0,.16-2,1.86,1.86,0,0,0-.26-0.45,5.28,5.28,0,0,0-1.09-.59c-0.57-.23-1.89-0.65-2.88-0.91a27.74,27.74,0,0,0-3.62-.65,52.47,52.47,0,0,0-7.41.53c-3.19.4-6.68,0.75-7.78,0.77a30.9,30.9,0,0,1-4.06-.24,3.64,3.64,0,0,0-1.54.1,20.53,20.53,0,0,0,1.46,4.92,64.41,64.41,0,0,0,2.84,6.28,18.76,18.76,0,0,0,1.78,2.3,24.1,24.1,0,0,0,2.13,1.95c0.54,0.43,2.75,1.82,5.17,3.21l1.56,0.88c1.74,1,3.36,1.82,3.93,2.06,0.79,0.33,2.15.82,3,1.06a29.29,29.29,0,0,0,3.11.68,30.81,30.81,0,0,0,3.25.27,25.56,25.56,0,0,1,3.62.39,27.81,27.81,0,0,1,3.59,1,11.5,11.5,0,0,0,3,.61,9.88,9.88,0,0,0,2.9-.46,19.52,19.52,0,0,1,3.42-.8,18.66,18.66,0,0,1,3.46,0,16.4,16.4,0,0,0,6-.49c0.73-.2,4.16-1.47,8.11-3a62.61,62.61,0,0,0,7.7-3.49,13,13,0,0,0,2-1.95,19.52,19.52,0,0,1,2.18-2.31,23,23,0,0,1,2.68-2,8.87,8.87,0,0,0,2-1.76,8,8,0,0,0,1.1-2.3,17.7,17.7,0,0,0,.44-2.79,17.27,17.27,0,0,0-.12-2.8,21.19,21.19,0,0,1-.15-3.26,25,25,0,0,1,.43-3.39,5.74,5.74,0,0,0-.1-2.48,6,6,0,0,0-1.5-2,16.67,16.67,0,0,1-2.45-2.62c-0.18-.25-0.37-0.56-0.57-0.89a16.19,16.19,0,0,1-1.11-2.26,5.93,5.93,0,0,0-1.44-2.07,6.23,6.23,0,0,0-2.39-1,19.88,19.88,0,0,1-3.44-.87,17.7,17.7,0,0,1-3.05-1.56,19.74,19.74,0,0,0-2.61-1.41c-0.67-.28-5.23-1.65-11-3.22l-0.48-.13c-3.35-.92-6.79-2-9.21-2.77a23.25,23.25,0,0,1-2.68-1,46.23,46.23,0,0,1-4.15-2.5,18.72,18.72,0,0,1-3-2.47,2,2,0,0,1-.26-2.72,2.51,2.51,0,0,0,.44-0.74,4.9,4.9,0,0,0,.16-1.22,2.56,2.56,0,0,1,.85-2A2.85,2.85,0,0,1,86.11,88c0.46,0.12,1.64.31,2.59,0.43a21.18,21.18,0,0,0,2.3.2,5.37,5.37,0,0,0,.86-0.09c0.22-.05.78-0.23,1.24-0.39a5.54,5.54,0,0,1,1.7-.35,3,3,0,0,1,1.24.37,3.65,3.65,0,0,0,.58.26,4.64,4.64,0,0,0,.69.15,1.87,1.87,0,0,1,1.42,1,3.07,3.07,0,0,1,.1,1.65,4,4,0,0,0-.07.83,0.59,0.59,0,0,0,0,.12,2,2,0,0,0,.32.18,7.28,7.28,0,0,0,1,.29,2.64,2.64,0,0,1,1.61,1.12,3.29,3.29,0,0,1,.26,2,0.3,0.3,0,0,1,.1.12,0.47,0.47,0,0,0,.09.09,7.67,7.67,0,0,0,2.28.42c0.21,0,.91,0,3.13-0.05s5.48-.2,8.61-0.35l1.93-.09a55.93,55.93,0,0,0,9.86-1.1,19.64,19.64,0,0,0-.85-5.19,57.6,57.6,0,0,0-1.88-5.79,5.84,5.84,0,0,0-.26-0.57,11.94,11.94,0,0,0-1.82-2.27,15.42,15.42,0,0,0-2.36-1.72,76.59,76.59,0,0,0-7.24-2.71,82,82,0,0,0-10.72-2.74A124.06,124.06,0,0,0,88.34,73c-5.84,0-10.54.13-11.27,0.25s-3.67.87-6.21,1.62-5.37,1.64-6.16,2a27.94,27.94,0,0,0-2.79,1.32,14.58,14.58,0,0,0-2.35,1.71A41.82,41.82,0,0,0,55.87,85a34.68,34.68,0,0,0-3,5.62,13.18,13.18,0,0,0-.37,3.09c0,1-.07,3.34-0.2,5.25a18.71,18.71,0,0,0,.16,4.57,9.38,9.38,0,0,0,1.3,2.53c0.54,0.71,1.5,1.81,2.09,2.41s3.64,2.93,7.32,5.56c1.49,1.07,3.06,2.15,4.42,3a25.35,25.35,0,0,0,3.09,1.86,11.51,11.51,0,0,0,2.75.52A20.4,20.4,0,0,1,77,120a33.5,33.5,0,0,1,4,1.4,26.51,26.51,0,0,0,4,1.28,26.37,26.37,0,0,0,4.15.49,13.49,13.49,0,0,1,4.54,1A14.91,14.91,0,0,1,97.54,127,20.07,20.07,0,0,1,100,130.1a4.86,4.86,0,0,1,.32.68,3.19,3.19,0,0,1,.16,2.08,8.61,8.61,0,0,1-.74,1.45,6.7,6.7,0,0,1-1,1.16,11.24,11.24,0,0,0-.9.91c-0.27.31-.76,0.93-1.06,1.35a4.35,4.35,0,0,1-1.84,1.44,6.08,6.08,0,0,1-3.1-.29c-0.61-.2-1.24-0.43-1.69-0.61a6.89,6.89,0,0,1-.65-0.28,1.88,1.88,0,0,0-.54-0.13,2.36,2.36,0,0,0-.71.21,5.48,5.48,0,0,1-1.45.48,4.06,4.06,0,0,1-1.46-.08,4.67,4.67,0,0,1-1.21-.56,4.52,4.52,0,0,1-1-.93,1.42,1.42,0,0,0-.4-0.3,3.39,3.39,0,0,0-.91-0.15,2.65,2.65,0,0,1-1.8-.69A2.35,2.35,0,0,1,79.62,134.16Z" fill="url(#a)"/><path d="M128.09,115.68c0.18,0.3.35,0.59,0.52,0.81a15.69,15.69,0,0,0,2.28,2.43,6.84,6.84,0,0,1,1.81,2.46,6.64,6.64,0,0,1,.14,3,23.94,23.94,0,0,0-.41,3.23,20.34,20.34,0,0,0,.15,3.08,18.3,18.3,0,0,1,.13,3,18.7,18.7,0,0,1-.47,3,8.92,8.92,0,0,1-1.27,2.65,9.8,9.8,0,0,1-2.28,2,21.82,21.82,0,0,0-2.54,1.85,18.78,18.78,0,0,0-2.05,2.17,14,14,0,0,1-2.18,2.13,61.29,61.29,0,0,1-7.93,3.62c-3.66,1.46-7.36,2.84-8.21,3.08a21,21,0,0,1-3.15.55,21.44,21.44,0,0,1-3.22,0,17.74,17.74,0,0,0-3.24,0,18.64,18.64,0,0,0-3.21.75,11.08,11.08,0,0,1-3.25.52,12.54,12.54,0,0,1-3.37-.67,26.55,26.55,0,0,0-3.43-1,24.4,24.4,0,0,0-3.45-.37,32,32,0,0,1-3.38-.28A29.83,29.83,0,0,1,72.8,153c-0.87-.25-2.26-0.75-3.08-1.1-0.63-.27-2.28-1.13-4-2.11,0.22,0.27.43,0.52,0.61,0.71a25.43,25.43,0,0,0,1.92,1.79l0.31,0.26c0.65,0.51,3,2,5.29,3.3s4.78,2.65,5.6,3,2.21,0.85,3.08,1.1a29.83,29.83,0,0,0,3.24.71,32,32,0,0,0,3.38.28,24.4,24.4,0,0,1,3.45.37,26.55,26.55,0,0,1,3.43,1,12.54,12.54,0,0,0,3.37.67,11.08,11.08,0,0,0,3.25-.52,18.64,18.64,0,0,1,3.21-.75,17.74,17.74,0,0,1,3.24,0,21.44,21.44,0,0,0,3.22,0,21,21,0,0,0,3.15-.55c0.86-.23,4.55-1.62,8.21-3.08a61.29,61.29,0,0,0,7.93-3.62,14,14,0,0,0,2.18-2.13,18.78,18.78,0,0,1,2.05-2.17,21.82,21.82,0,0,1,2.54-1.85,9.8,9.8,0,0,0,2.28-2,8.92,8.92,0,0,0,1.27-2.65,18.7,18.7,0,0,0,.47-3,18.3,18.3,0,0,0-.13-3,20.34,20.34,0,0,1-.15-3.08,23.94,23.94,0,0,1,.41-3.23,6.64,6.64,0,0,0-.14-3,6.84,6.84,0,0,0-1.81-2.46,15.69,15.69,0,0,1-2.28-2.43,15.36,15.36,0,0,1-1.56-2.92A6.83,6.83,0,0,0,135,118a7.11,7.11,0,0,0-2.87-1.17,19.51,19.51,0,0,1-2.42-.56c-0.3-.09-0.58-0.18-0.81-0.27S128.38,115.82,128.09,115.68Z" fill="url(#b)"/><path d="M80.62,134.17a2,2,0,0,0,.15,1,1.72,1.72,0,0,0,1.08.37,4.27,4.27,0,0,1,1.28.23,2.28,2.28,0,0,1,.83.63,3.58,3.58,0,0,0,.71.7,3.63,3.63,0,0,0,.91.42,3,3,0,0,0,1.05.06,4.49,4.49,0,0,0,1.14-.38,3.25,3.25,0,0,1,1.14-.32,2.47,2.47,0,0,1,1,.25l0.54,0.23a2.76,2.76,0,0,0-.41-0.68,4.74,4.74,0,0,0-1.32-.79l-0.15-.07c-0.61-.25-2-0.68-3-1a28.43,28.43,0,0,0-3.78-.68H81.62C81.37,134.16,81,134.16,80.62,134.17Z" fill="url(#c)"/><path d="M101.33,96.49a1.22,1.22,0,0,1-.35-1,2.34,2.34,0,0,0-.14-1.29,1.66,1.66,0,0,0-1-.64,8.23,8.23,0,0,1-1.15-.35A2.55,2.55,0,0,1,98,92.83a1.36,1.36,0,0,1-.28-0.69A4.74,4.74,0,0,1,97.86,91a2.12,2.12,0,0,0,0-1,0.87,0.87,0,0,0-.63-0.42,5.57,5.57,0,0,1-.88-0.19A4.72,4.72,0,0,1,95.53,89a2,2,0,0,0-.78-0.24,4.93,4.93,0,0,0-1.32.3c-0.5.17-1.1,0.36-1.33,0.42a6.14,6.14,0,0,1-1.08.12c-0.36,0-1.46-.09-2.45-0.21s-2.2-.33-2.7-0.45a2,2,0,0,0-1.36.1,1.65,1.65,0,0,0-.44,1.21,5.74,5.74,0,0,1-.21,1.55,3.45,3.45,0,0,1-.68,1.13,1.18,1.18,0,0,0,.31,1.38,17.79,17.79,0,0,0,2.75,2.29,44.7,44.7,0,0,0,4,2.44,23.49,23.49,0,0,0,2.54,1,0.42,0.42,0,0,1,.06-0.12,3.27,3.27,0,0,0,.51-0.74,2.82,2.82,0,0,0,.17-0.38,5.74,5.74,0,0,0,.21-1.55A1.65,1.65,0,0,1,94.23,96a2,2,0,0,1,1.36-.1c0.5,0.12,1.72.33,2.7,0.45,0.67,0.08,1.38.15,1.89,0.19l0.56,0Z" fill="url(#d)"/><path d="M128.09,89.29c0.78,2.85,1.11,5.61.74,6.13s-5.17,1.16-10.66,1.43l-1.93.09c-3.21.15-6.36,0.28-8.62,0.35a2.64,2.64,0,0,1,0,.67c0,0.1,0,.22-0.05.33a4.12,4.12,0,0,0,0,.8,1.36,1.36,0,0,0,.28.69,2.55,2.55,0,0,0,.69.43,8.23,8.23,0,0,0,1.15.35,1.66,1.66,0,0,1,1,.64,2.34,2.34,0,0,1,.14,1.29,1.33,1.33,0,0,0,.72,1.26,8.27,8.27,0,0,0,2.7.53c1,0,6.34-.13,11.83-0.4l1.93-.09c5.49-.26,10.29-0.91,10.66-1.43s0-3.28-.74-6.13a43.2,43.2,0,0,0-2.24-6.6,12.91,12.91,0,0,0-2-2.5A16.38,16.38,0,0,0,131,85.27a36.92,36.92,0,0,0-3.59-1.45l-1.25-.45A57.6,57.6,0,0,1,128.09,89.29Z" fill="url(#e)"/><path d="M99.39,131.14a3.8,3.8,0,0,0-.25-0.54,19.34,19.34,0,0,0-2.32-2.92,14,14,0,0,0-3.57-2.59,12.56,12.56,0,0,0-4.15-.93,27.33,27.33,0,0,1-4.35-.51,27.34,27.34,0,0,1-4.16-1.34,32.42,32.42,0,0,0-3.85-1.35,19.61,19.61,0,0,0-3.41-.54,12.57,12.57,0,0,1-3-.57,25.78,25.78,0,0,1-3.31-2c1.21,0.93,2.78,2.1,4.43,3.29l0.83,0.6a66.51,66.51,0,0,0,7.76,5,12.57,12.57,0,0,0,3,.57,19.61,19.61,0,0,1,3.41.54,32.42,32.42,0,0,1,3.85,1.35,27.34,27.34,0,0,0,4.16,1.34,27.85,27.85,0,0,0,3.79.49l0.56,0Z" fill="url(#f)"/></svg>