<svg xmlns="http://www.w3.org/2000/svg" xmlns:xlink="http://www.w3.org/1999/xlink" width="200" height="200" viewBox="0 0 200 200"><defs><linearGradient id="b" x1="72.75" y1="147.31" x2="114.21" y2="54.18" gradientUnits="userSpaceOnUse"><stop offset="0" stop-color="#fdba56"/><stop offset=".02" stop-color="#fbb055"/><stop offset=".06" stop-color="#f79d54"/><stop offset=".1" stop-color="#f59253"/><stop offset=".15" stop-color="#f48e53"/><stop offset=".3" stop-color="#ed5e4e"/><stop offset=".47" stop-color="#683a96" stop-opacity=".5"/><stop offset=".64" stop-color="#ed872b"/><stop offset=".79" stop-color="#7b76b6"/><stop offset=".9" stop-color="#f15f4f"/><stop offset="1" stop-color="#fdba56"/></linearGradient><linearGradient id="a" x1="107.91" y1="83.73" x2="126.25" y2="124.93" gradientUnits="userSpaceOnUse"><stop offset="0" stop-color="#b7151b"/><stop offset=".02" stop-color="#c52229"/><stop offset=".06" stop-color="#d7333c"/><stop offset=".11" stop-color="#e23d47"/><stop offset=".15" stop-color="#e6404b"/><stop offset=".3" stop-color="#e98a7b"/><stop offset=".47" stop-color="#7c78b8"/><stop offset=".64" stop-color="#00b0b0"/><stop offset=".79" stop-color="#7b76b6"/><stop offset="1" stop-color="#e7322f"/></linearGradient><linearGradient id="c" x1="67.51" y1="91.74" x2="70.99" y2="99.55" xlink:href="#a"/><linearGradient id="d" x1="104.78" y1="142.09" x2="115.14" y2="165.37" xlink:href="#a"/><linearGradient id="e" x1="101.76" y1="52.85" x2="110.28" y2="71.98" xlink:href="#a"/></defs><title>_</title><path d="M110.52 72.41a5 5 0 0 0-1.51.88 8.17 8.17 0 0 1-2.47 1.41 9.11 9.11 0 0 1-2.89.33 4.16 4.16 0 0 1-2.8-1.44c-.85-1.15-1-8.31-1.05-9.74a89.73 89.73 0 0 1 .21-10.1c.05-.26.12-.57.21-.9.23-.92.56-2 .82-2.72a2.88 2.88 0 0 0 .08-1.77 22 22 0 0 0-6.24-1.06 50.16 50.16 0 0 0-7.91 0 21.77 21.77 0 0 0-3.74 1.18 25.51 25.51 0 0 1-4 1.32 17.7 17.7 0 0 1-3.84.35 6.41 6.41 0 0 0-2.49.43A4.45 4.45 0 0 0 71.39 52a6.56 6.56 0 0 0-.7 2.26 8.36 8.36 0 0 0 .37 2.6 13.23 13.23 0 0 1 .59 3.45 13.14 13.14 0 0 1-.53 3.45 9.25 9.25 0 0 0-.33 2.83 11.36 11.36 0 0 0 .79 3 6.83 6.83 0 0 1 .67 3.1c-.09.56-.29 1.74-7.12 1.22a32.23 32.23 0 0 0-5.59-.06 19.79 19.79 0 0 0-.43 3.49 24.81 24.81 0 0 0 .08 4.51 10.27 10.27 0 0 0 .86 2.06 6.39 6.39 0 0 1 .77 3 8.24 8.24 0 0 1-.88 3.09 4.07 4.07 0 0 0-.46 1.45.91.91 0 0 0 .46.22 7.84 7.84 0 0 0 1.74 0 4.45 4.45 0 0 0 1.26-.4 11.13 11.13 0 0 1 1.59-.73 9.21 9.21 0 0 1 1.63-.38c.42 0 1.1-.09 1.54-.09s.78 0 1.17.05h.37a2.55 2.55 0 0 1 1.89 1.89c.22.75.44 5 .55 7.55.05 1.2.1 2.48.15 3.79l.87 26.06a99.58 99.58 0 0 0 .79 11.3 10.51 10.51 0 0 0 1.17 2.4 27.19 27.19 0 0 1 1.56 2.49c.39.72 1 2 1.31 2.79a3.72 3.72 0 0 0 1.36 1.61 6.9 6.9 0 0 0 2.74.44H84c.58 0 1.12 0 1.55.07a31.67 31.67 0 0 1 3.76.57c.82.19 5 .75 9.81 1.29a119.35 119.35 0 0 0 12.46.79 14.31 14.31 0 0 0 4.7-.7 1.68 1.68 0 0 0 .08-1.24 17.84 17.84 0 0 1-.68-3.19 78.24 78.24 0 0 1 .77-9c.13-1 .25-2 .35-2.9.19-1.62.3-2.79.37-3.56a2.3 2.3 0 0 1-.61.15 2 2 0 0 1-1.6-.65 2.28 2.28 0 0 0-.39-.34l-.17-.05a3.17 3.17 0 0 1-1-.19l-.19-.09a4.41 4.41 0 0 1-.69-.41 3.78 3.78 0 0 0-.7-.2 18.26 18.26 0 0 0-2-.18 8.72 8.72 0 0 1-2.47-.46 4 4 0 0 1-1.72-1.36c-.18-.29-.69-1-1.16-1.59a8.85 8.85 0 0 1-1.25-2.14 12.16 12.16 0 0 1-.44-2.12 40.21 40.21 0 0 0-1.08-4.24c-.55-1.85-1.17-4.18-1.38-5.21a63.57 63.57 0 0 1-.5-7.5 70.75 70.75 0 0 1 .15-7.46c.14-1 .47-2.71.72-3.74a11.1 11.1 0 0 1 1.3-3.13 3.93 3.93 0 0 1 2.28-1.54c.48-.08 1.29-.25 1.78-.38s1.32-.4 1.82-.58a12.61 12.61 0 0 1 2.12-.55 9.32 9.32 0 0 1 4.44.39 19.36 19.36 0 0 1 2.31 1v-.06a13 13 0 0 1-.94-2.92 9 9 0 0 1 0-2.79c.12-.6.27-1.6.33-2.2s.08-1.41.07-2l1-.19h-1a16.4 16.4 0 0 1 .19-2.61 23.21 23.21 0 0 1 .69-2.8 3 3 0 0 0 .14-1.21 1.56 1.56 0 0 0-.73-.16 18.58 18.58 0 0 1-2.5-.1 13.73 13.73 0 0 1-2.26-.51 3 3 0 0 0-1.21-.07l-.34-1z" fill="url(#b)"/><path d="M127.9 81.68a3.12 3.12 0 0 0 .05-2.05 2 2 0 0 0-1.63-.62 17.2 17.2 0 0 1-2.34-.09 12.7 12.7 0 0 1-2.06-.47 3.92 3.92 0 0 0-1.93-.07 5.69 5.69 0 0 0-1.63.87l-.29.22a6 6 0 0 1-.71.51c0 .64 0 1.55-.07 2.13s-.21 1.67-.34 2.31a8 8 0 0 0 0 2.42 12.08 12.08 0 0 0 .86 2.65 2.57 2.57 0 0 1 .36 1.75 1.71 1.71 0 0 1-1.57-.24 18.37 18.37 0 0 0-2.33-1 10.48 10.48 0 0 0-2.06-.43 10.6 10.6 0 0 0-1.93.08 11.67 11.67 0 0 0-1.93.5c-.53.2-1.39.47-1.91.61s-1.37.32-1.88.4a3 3 0 0 0-1.56 1.11 10.26 10.26 0 0 0-1.14 2.79c-.25 1-.57 2.63-.7 3.63A71.34 71.34 0 0 0 101 106a62.61 62.61 0 0 0 .48 7.32c.2 1 .81 3.31 1.36 5.13a40.05 40.05 0 0 1 1.11 4.41 11.23 11.23 0 0 0 .4 1.91 7.91 7.91 0 0 0 1.09 1.84c.45.57 1 1.32 1.22 1.67a3 3 0 0 0 1.24 1 7.87 7.87 0 0 0 2.14.39 19.3 19.3 0 0 1 2.1.2 3.42 3.42 0 0 1 1.12.38 3.24 3.24 0 0 0 .51.3c0-.25-.09-.5-.11-.71s-.05-.33-.1-.56c-.18-.88-.58-2.41-1-3.85-.54-1.81-1.15-4.12-1.36-5.13a62.61 62.61 0 0 1-.48-7.32 71.34 71.34 0 0 1 .14-7.31c.14-1 .46-2.64.7-3.63a10.26 10.26 0 0 1 1.14-2.79 3 3 0 0 1 1.62-1.13c.51-.08 1.36-.26 1.88-.4s1.38-.41 1.91-.61a11.67 11.67 0 0 1 1.93-.5 10.6 10.6 0 0 1 1.93-.08 10.48 10.48 0 0 1 2.06.43 18.37 18.37 0 0 1 2.33 1 1.71 1.71 0 0 0 1.52.28 2.57 2.57 0 0 0-.36-1.75 12.08 12.08 0 0 1-.86-2.65 8 8 0 0 1 0-2.42c.13-.64.29-1.67.34-2.31s.09-1.67.07-2.31a15.54 15.54 0 0 1 .18-2.42 22.09 22.09 0 0 1 .65-2.7z" fill="url(#a)"/><path d="M70.16 92.38a1.62 1.62 0 0 0-1-1.18h-.34l.11.21a5.46 5.46 0 0 1 .63 2.43 4.84 4.84 0 0 1-.14.88 7.84 7.84 0 0 1-.63 1.79 4.11 4.11 0 0 0-.55 2.18 1.58 1.58 0 0 0 1.29.94h.17a9.47 9.47 0 0 0 1 .06c-.2-3.84-.4-6.85-.54-7.31z" fill="url(#c)"/><path d="M117.51 139.18a79.19 79.19 0 0 0-.77 8.76 17 17 0 0 0 .63 3 2.43 2.43 0 0 1-.4 2.32c-.49.45-2.88.87-5.31.93a121.16 121.16 0 0 1-12.6-.8c-4.49-.5-9-1.09-9.92-1.31a30.47 30.47 0 0 0-3.62-.54c-.41 0-.94-.05-1.49-.06.22.33.44.68.64 1s.26.45.37.64c.38.7.95 1.9 1.26 2.69a4.64 4.64 0 0 0 1.85 2.08 7.62 7.62 0 0 0 3.25.55 35.27 35.27 0 0 1 3.84 0 30.47 30.47 0 0 1 3.62.54c1 .22 5.43.81 9.92 1.31a121.16 121.16 0 0 0 12.6.8c2.44-.06 4.83-.48 5.31-.93a2.43 2.43 0 0 0 .4-2.32 17 17 0 0 1-.63-3 79.19 79.19 0 0 1 .77-8.76c.5-4 .86-7.53.79-7.82s-.39-.33-.71-.09a2.58 2.58 0 0 1-1 .48 1 1 0 0 1-.77-.32 3.15 3.15 0 0 0-.64-.54 1.58 1.58 0 0 0-.64-.19 2.25 2.25 0 0 1-.64-.13 3.21 3.21 0 0 1-.64-.36 3.42 3.42 0 0 0-1.12-.38 19.3 19.3 0 0 0-2.1-.2 8.86 8.86 0 0 1-1.86-.3c-.15.95-.27 1.93-.39 2.95z" fill="url(#d)"/><path d="M101 53.95a89.54 89.54 0 0 0-.19 9.89c.08 4.51.47 8.63.85 9.16a3.16 3.16 0 0 0 2.06 1 8.06 8.06 0 0 0 2.52-.28 7.27 7.27 0 0 0 2.12-1.21 5.9 5.9 0 0 1 1.93-1.1h.25v-.62-.37a86.28 86.28 0 0 1 .2-9.51 29.11 29.11 0 0 1 1-3.47 3.38 3.38 0 0 0-.09-2.78c-.41-.54-3.53-1.17-6.94-1.39-.82-.05-1.64-.09-2.45-.12h-1c-.14.26-.26.55-.26.8z" fill="url(#e)"/></svg>