<svg xmlns="http://www.w3.org/2000/svg" xmlns:xlink="http://www.w3.org/1999/xlink" width="200" height="200" viewBox="0 0 200 200"><defs><linearGradient id="a" x1="71.33" y1="156.55" x2="112.38" y2="64.34" gradientUnits="userSpaceOnUse"><stop offset="0" stop-color="#fdba56"/><stop offset="0.02" stop-color="#fbb055"/><stop offset="0.06" stop-color="#f79d54"/><stop offset="0.1" stop-color="#f59253"/><stop offset="0.15" stop-color="#f48e53"/><stop offset="0.3" stop-color="#ed5e4e"/><stop offset="0.47" stop-color="#683a96" stop-opacity="0.5"/><stop offset="0.64" stop-color="#ed872b"/><stop offset="0.79" stop-color="#7b76b6"/><stop offset="0.9" stop-color="#f15f4f"/><stop offset="1" stop-color="#fdba56"/></linearGradient><linearGradient id="b" x1="74.31" y1="82.12" x2="94.58" y2="127.64" gradientUnits="userSpaceOnUse"><stop offset="0" stop-color="#b7151b"/><stop offset="0.02" stop-color="#c52229"/><stop offset="0.06" stop-color="#d7333c"/><stop offset="0.11" stop-color="#e23d47"/><stop offset="0.15" stop-color="#e6404b"/><stop offset="0.3" stop-color="#e98a7b"/><stop offset="0.47" stop-color="#7c78b8"/><stop offset="0.64" stop-color="#00b0b0"/><stop offset="0.79" stop-color="#7b76b6"/><stop offset="1" stop-color="#e7322f"/></linearGradient><linearGradient id="c" x1="114.73" y1="87.5" x2="146.46" y2="158.75" xlink:href="#b"/><linearGradient id="d" x1="82.59" y1="144.35" x2="91.9" y2="165.26" xlink:href="#b"/></defs><title>_</title><path d="M115.33,152.38a43.44,43.44,0,0,1,4.87-.19,37.72,37.72,0,0,1,3.84.46,25.29,25.29,0,0,0,7.14.29,4.93,4.93,0,0,0,2.15-.78c0.33-.77.88-4.75,1.08-10.3l0.12-3.53c0.21-5.83.21-10.73,0.09-11.48a33.25,33.25,0,0,0-.74-3.24,18.22,18.22,0,0,1-.61-3.6,17.67,17.67,0,0,1,.28-3.6,23.7,23.7,0,0,0,.37-3.2,61,61,0,0,0-.65-6.56c-0.4-2.81-.75-5.87-0.79-6.83s0-2.51,0-3.46a26.92,26.92,0,0,1,.51-3.52h0a29.73,29.73,0,0,1,1.08-3.5,15,15,0,0,0,.78-3.11,13.57,13.57,0,0,0-.1-3.08c-0.16-1-.36-2.52-0.43-3.5,0-.35-0.05-0.79-0.07-1.26,0-.81,0-1.69,0-2.33a3.65,3.65,0,0,0-.72-2.12A5.68,5.68,0,0,0,131,72.82c-1.09-.18-2.93-0.38-4-0.44s-5.94.22-11.87,0.71c-5.48.45-9.36,1.26-10.14,1.69a5.85,5.85,0,0,0-.26,2.83c0.2,1.4.25,6.8,0.12,12.28a139.77,139.77,0,0,1-1.06,14.69,50.91,50.91,0,0,0-.73,6.94,21,21,0,0,0,.63,4.18,18.08,18.08,0,0,1,.62,4.29,12.36,12.36,0,0,1-.74,3.83,15.62,15.62,0,0,1-1.69,3,11.9,11.9,0,0,1-2.32,2.23,12.34,12.34,0,0,1-2.75,1.35,34.7,34.7,0,0,1-5.66.73c-0.82.05-1.65,0.09-2.41,0.1a15.65,15.65,0,0,1-3.06-.14c-1-.27-3.23-2.09-4.25-3-1.21-1.1-3.11-3.19-3.37-4.47a10.11,10.11,0,0,1,.17-3.69,14.31,14.31,0,0,0,.36-3.18,9.29,9.29,0,0,0-.56-2.62,8.11,8.11,0,0,1-.57-3.17,8.87,8.87,0,0,1,1-3.14,11.36,11.36,0,0,0,.94-2.46,9.22,9.22,0,0,0,.13-2.4c-0.08-.72-0.51-3.17-1-5.36a69.28,69.28,0,0,1-1-8.32c-0.12-2.29-.1-5.94.05-8.15l0.06-1c0.12-2,.14-3.53.11-3.9a1.73,1.73,0,0,0-.61-1,81.43,81.43,0,0,0-10.43-1.16l-8.19-.56a54.33,54.33,0,0,0-10.19,0,2.6,2.6,0,0,0-.11,1.61c0.25,1,.56,2.66.69,3.61s0.42,6.85.59,11.79L49.48,92c0.17,4.92.19,10.73-.09,11.82a17.69,17.69,0,0,1-1.32,3.29,9,9,0,0,0-.88,2.7,7.82,7.82,0,0,0,.3,2.65c0.29,0.87.85,3,1.24,4.69s1,6.41,1.44,10.43c0.42,4.28.91,7.94,1.1,8.67a19.73,19.73,0,0,0,1,2.75c0.36,0.76,1.12,2.71,1.7,4.35a35.57,35.57,0,0,0,1.7,4.07,15.48,15.48,0,0,0,1.59,2.23,7.17,7.17,0,0,0,1.92,1.43,8,8,0,0,0,2.44.54c0.54,0,1.3.08,2.08,0.18,0.4,0,.79.1,1.09,0.16a25.12,25.12,0,0,1,3,.77,17.44,17.44,0,0,0,5.45.92,53.34,53.34,0,0,1,5.87.79,34.82,34.82,0,0,0,6.08.61,14.35,14.35,0,0,0,3.68-.83,19.85,19.85,0,0,0,3.3-1.8A19.46,19.46,0,0,0,94.9,150c0.75-.86,2.06-2.2,2.93-3s2.35-2,3.33-2.75a17.49,17.49,0,0,1,2.84-1.77,1.46,1.46,0,0,1,1.3.1,3,3,0,0,1,1.24,2.27,14.53,14.53,0,0,1,.16,3,7.65,7.65,0,0,1-.52,1.75,7.08,7.08,0,0,0-.42,1.41,12.09,12.09,0,0,0-.11,1.83,0.73,0.73,0,0,0,.37.54,6.89,6.89,0,0,0,2.47-.07c1.16-.23,3.79-0.58,5.91-0.79Z" fill="url(#a)"/><path d="M78.5,81.2c-0.14,2.17-.17,5.78-0.05,8a68.35,68.35,0,0,0,1,8.17c0.45,2.25.89,4.7,1,5.45a10.17,10.17,0,0,1-.15,2.72,12.4,12.4,0,0,1-1,2.72,7.85,7.85,0,0,0-.83,2.72,7.21,7.21,0,0,0,.49,2.72,10.2,10.2,0,0,1,.64,3,15.27,15.27,0,0,1-.38,3.45,9.13,9.13,0,0,0-.16,3.26c0.16,0.78,1.54,2.54,3.06,3.92a16.27,16.27,0,0,0,3.83,2.79,15.35,15.35,0,0,0,2.8.11,6.42,6.42,0,0,1-.06-1,9.88,9.88,0,0,1,.23-2.14,15.27,15.27,0,0,0,.38-3.45,10.2,10.2,0,0,0-.64-3,7.21,7.21,0,0,1-.49-2.72,7.85,7.85,0,0,1,.83-2.72,12.4,12.4,0,0,0,1-2.72,10.17,10.17,0,0,0,.15-2.72c-0.08-.75-0.52-3.2-1-5.45a68.35,68.35,0,0,1-1-8.17c-0.12-2.25-.09-5.86.05-8s0.22-4.43.17-5a2.68,2.68,0,0,0-1-1.73c-0.42-.29-3.67-0.73-7.78-1.08l-1-.08C78.54,80.55,78.52,80.88,78.5,81.2Z" fill="url(#b)"/><path d="M143.73,100a28.6,28.6,0,0,1,1-3.36,15.93,15.93,0,0,0,.84-3.36,14.58,14.58,0,0,0-.11-3.36c-0.16-.92-0.35-2.46-0.42-3.41S145,84,145,83a4.56,4.56,0,0,0-1-2.83,6.57,6.57,0,0,0-3.1-1.4c-1.14-.19-3-0.39-4.12-0.45H136.3l-1,0c0,0.45,0,.88.07,1.22,0.07,0.95.26,2.48,0.42,3.41a14.58,14.58,0,0,1,.11,3.36,15.93,15.93,0,0,1-.84,3.36,28.6,28.6,0,0,0-1,3.36,25.73,25.73,0,0,0-.49,3.36c-0.06.92-.08,2.44,0,3.36s0.39,4,.78,6.73a61.62,61.62,0,0,1,.66,6.73,24.65,24.65,0,0,1-.39,3.36,16.78,16.78,0,0,0-.26,3.36,17.37,17.37,0,0,0,.57,3.36,34.11,34.11,0,0,1,.76,3.36c0.15,0.92.11,6.18-.08,11.68l-0.12,3.53c-0.19,5.5-.79,10.41-1.32,10.93a5.53,5.53,0,0,1-2.82,1.12,31.65,31.65,0,0,1-3.71.11,32.37,32.37,0,0,1-3.71-.41,36.91,36.91,0,0,0-3.72-.45,43.31,43.31,0,0,0-4.73.19c0,0.4,0,.75,0,1a2.12,2.12,0,0,1,0,.22,6.71,6.71,0,0,1-.45,1.48,8.07,8.07,0,0,0-.49,1.66,12.89,12.89,0,0,0-.13,2,1.7,1.7,0,0,0,1,1.45,7.45,7.45,0,0,0,3,0c1.1-.22,3.71-0.57,5.79-0.78a48,48,0,0,1,5.64-.28,36.91,36.91,0,0,1,3.72.45,32.37,32.37,0,0,0,3.71.41,31.65,31.65,0,0,0,3.71-.11,5.53,5.53,0,0,0,2.82-1.12c0.53-.51,1.12-5.43,1.32-10.93l0.12-3.53c0.19-5.5.23-10.75,0.08-11.68a34.11,34.11,0,0,0-.76-3.36,17.37,17.37,0,0,1-.57-3.36,16.78,16.78,0,0,1,.26-3.36,24.65,24.65,0,0,0,.39-3.36,61.62,61.62,0,0,0-.66-6.73c-0.39-2.77-.74-5.8-0.78-6.73s0-2.44,0-3.36A25.73,25.73,0,0,1,143.73,100Z" fill="url(#c)"/><path d="M108.68,154.24a7.42,7.42,0,0,1-3,0,1.7,1.7,0,0,1-1-1.45,12.89,12.89,0,0,1,.13-2,8.07,8.07,0,0,1,.49-1.66,6.71,6.71,0,0,0,.45-1.48,13.78,13.78,0,0,0-.16-2.69c-0.15-1.07-.68-1.78-1.17-1.59a16.8,16.8,0,0,0-2.62,1.65c-0.95.71-2.41,1.91-3.25,2.68s-2.12,2.08-2.85,2.91a20.38,20.38,0,0,1-2.93,2.65,20.91,20.91,0,0,1-3.5,1.91,15.37,15.37,0,0,1-4,.9,35.26,35.26,0,0,1-6.32-.62,52.23,52.23,0,0,0-5.7-.77,22.59,22.59,0,0,1-2.92-.26,22.29,22.29,0,0,1-2.83-.72,23.92,23.92,0,0,0-2.87-.73c-0.29-.05-0.66-0.1-1-0.15,0.16,0.39.31,0.75,0.46,1.07s0.35,0.77.48,1a16.51,16.51,0,0,0,1.71,2.4A8.12,8.12,0,0,0,68.44,159a8.91,8.91,0,0,0,2.82.63,26,26,0,0,1,3,.32,23.92,23.92,0,0,1,2.87.73,22.29,22.29,0,0,0,2.83.72,22.59,22.59,0,0,0,2.92.26,52.23,52.23,0,0,1,5.7.77,35.26,35.26,0,0,0,6.32.62,15.37,15.37,0,0,0,4-.9,20.91,20.91,0,0,0,3.5-1.91,20.38,20.38,0,0,0,2.93-2.65c0.53-.6,1.35-1.45,2.08-2.17l0.77-.74Z" fill="url(#d)"/></svg>