<svg xmlns="http://www.w3.org/2000/svg" xmlns:xlink="http://www.w3.org/1999/xlink" width="200" height="200" viewBox="0 0 200 200"><defs><linearGradient id="a" x1="63.43" y1="147.35" x2="102.46" y2="59.69" gradientUnits="userSpaceOnUse"><stop offset="0" stop-color="#fdba56"/><stop offset="0.02" stop-color="#fbb055"/><stop offset="0.06" stop-color="#f79d54"/><stop offset="0.1" stop-color="#f59253"/><stop offset="0.15" stop-color="#f48e53"/><stop offset="0.3" stop-color="#ed5e4e"/><stop offset="0.47" stop-color="#683a96" stop-opacity="0.5"/><stop offset="0.64" stop-color="#ed872b"/><stop offset="0.79" stop-color="#7b76b6"/><stop offset="0.9" stop-color="#f15f4f"/><stop offset="1" stop-color="#fdba56"/></linearGradient><linearGradient id="b" x1="103.05" y1="94.81" x2="129.57" y2="154.36" gradientUnits="userSpaceOnUse"><stop offset="0" stop-color="#b7151b"/><stop offset="0.02" stop-color="#c52229"/><stop offset="0.06" stop-color="#d7333c"/><stop offset="0.11" stop-color="#e23d47"/><stop offset="0.15" stop-color="#e6404b"/><stop offset="0.3" stop-color="#e98a7b"/><stop offset="0.47" stop-color="#7c78b8"/><stop offset="0.64" stop-color="#00b0b0"/><stop offset="0.79" stop-color="#7b76b6"/><stop offset="1" stop-color="#e7322f"/></linearGradient><linearGradient id="c" x1="80.02" y1="80.37" x2="97.9" y2="120.54" xlink:href="#b"/></defs><title>_</title><path d="M79.11,84.11c-0.21-1.13-.43-2.22-0.66-3.26a32.38,32.38,0,0,0-1.92-6.58,5.17,5.17,0,0,0-2.41,0,20.11,20.11,0,0,1-4.4.44A19.44,19.44,0,0,1,65.41,74a20.13,20.13,0,0,0-3.77-.7,19.09,19.09,0,0,0-3.76.22c-1.12.21-3.73,0.51-5.82,0.67a11.45,11.45,0,0,0-4,.89,3,3,0,0,0-.55,1.74A11,11,0,0,0,48,79.67a13.81,13.81,0,0,0,1.53,2.84,25.7,25.7,0,0,1,2,3.29,23.81,23.81,0,0,1,1.31,3.52c0.26,1,.74,3.38,1.08,5.37A46.12,46.12,0,0,0,55,99.79a22.24,22.24,0,0,0,1.37,3.1,23.54,23.54,0,0,1,2.56,7,19.1,19.1,0,0,0,1,3.2,20,20,0,0,0,1.68,3,13.89,13.89,0,0,1,1.71,3.53,14.52,14.52,0,0,1,.46,3.94,8.46,8.46,0,0,0,2.08,6,10.65,10.65,0,0,1,2.61,7.39,13.74,13.74,0,0,0,.39,3.32,12.92,12.92,0,0,0,1.36,3,25,25,0,0,1,1.82,3.42,27.65,27.65,0,0,1,1.21,3.81,3.06,3.06,0,0,0,1.26,1.84,6,6,0,0,0,3.09-.1,22.23,22.23,0,0,1,2.45-.52,20.59,20.59,0,0,1,2.47-.26h0.35a21.9,21.9,0,0,1,4.45.5c1.19,0.29,4.2.78,6.59,1.08a48.63,48.63,0,0,0,6.47.43,34.12,34.12,0,0,0,4.17-.56,12.69,12.69,0,0,0,3.33-1.27,8.09,8.09,0,0,0,2.1-2.07,14.51,14.51,0,0,0,1.3-2.84,16.66,16.66,0,0,0,.56-3.24,14.16,14.16,0,0,1,.83-3.81,14.83,14.83,0,0,1,2-3.38,17.59,17.59,0,0,0,1.88-2.87,35.4,35.4,0,0,0,1.48-6.67,52.85,52.85,0,0,1,1.45-7.23,17.24,17.24,0,0,1,1.83-3.4,20.93,20.93,0,0,0,1.72-3A95.79,95.79,0,0,0,125.48,103,97,97,0,0,1,128,92.32,21.55,21.55,0,0,1,129.88,89a24.43,24.43,0,0,0,1.78-3c0.34-.69,1.21-3.1,2-5.6l0.4-1.22a20.86,20.86,0,0,0,1.08-5,5.21,5.21,0,0,0-1.71.18,24.39,24.39,0,0,1-4.33.71,57,57,0,0,1-8-.86,51.17,51.17,0,0,0-7.35-.8,18.25,18.25,0,0,0-3.3.62A8.66,8.66,0,0,0,108,75.35a16.88,16.88,0,0,0-2.13,4.82c-0.75,2.44-1.67,5.13-2,6a29.2,29.2,0,0,1-1.63,3.13,29.92,29.92,0,0,0-1.52,2.87c-0.32.71-1.63,4.63-3.08,9.31-0.91,2.93-1.77,6-2.21,7.93a10.29,10.29,0,0,0-.27,1.41,21.37,21.37,0,0,0,.16,3.29,16.45,16.45,0,0,1,0,3.84,18.06,18.06,0,0,1-1,3.8c-1,2.52-2,2.35-2.29,2.29s-1.2-.22-1.41-2.92c-0.08-1-.29-2.67-0.46-3.59a32.42,32.42,0,0,0-.8-3.21,31.34,31.34,0,0,0-1.17-3c-0.37-.79-1.09-2.11-1.57-2.87s-1.28-2.22-1.69-3.08-1.43-3.66-2.32-6.34a148.32,148.32,0,0,1-3.41-14.68Z" fill="url(#a)"/><path d="M131.91,123.63a21.85,21.85,0,0,0,1.82-3.13,93.42,93.42,0,0,0,2.44-10.41,97.12,97.12,0,0,1,2.43-10.42,20.72,20.72,0,0,1,1.81-3.14,25.14,25.14,0,0,0,1.87-3.12c0.43-.89,1.54-4,2.48-7s1.37-5.64,1-6a3.87,3.87,0,0,0-2.82-.07,23.24,23.24,0,0,1-4.11.67,25.49,25.49,0,0,1-3.14-.21l-1-.12c-0.83,2.54-1.71,5-2.08,5.72a25.14,25.14,0,0,1-1.87,3.12,20.72,20.72,0,0,0-1.81,3.14,97.12,97.12,0,0,0-2.43,10.42A93.42,93.42,0,0,1,124,113.56a21.85,21.85,0,0,1-1.82,3.13,16.34,16.34,0,0,0-1.71,3.17,52.08,52.08,0,0,0-1.4,7,35.36,35.36,0,0,1-1.57,7,18.51,18.51,0,0,1-2,3.06,13.92,13.92,0,0,0-1.88,3.11,13.2,13.2,0,0,0-.76,3.49,17.66,17.66,0,0,1-.6,3.48,15.55,15.55,0,0,1-1.4,3.08,9,9,0,0,1-2.42,2.38,13.69,13.69,0,0,1-3.65,1.4,34.92,34.92,0,0,1-4.32.58,48.66,48.66,0,0,1-6.65-.44c-2.46-.31-5.47-0.81-6.7-1.1a20.74,20.74,0,0,0-4.53-.47,19.6,19.6,0,0,0-2.34.25c0.17,0.33.32,0.65,0.46,0.94L80.85,154A26.51,26.51,0,0,1,82,157.62a4,4,0,0,0,1.83,2.54,6.79,6.79,0,0,0,3.77-.05,23.17,23.17,0,0,1,4.67-.74,20.74,20.74,0,0,1,4.53.47c1.23,0.29,4.24.79,6.7,1.1a48.66,48.66,0,0,0,6.65.44,34.92,34.92,0,0,0,4.32-.58,13.69,13.69,0,0,0,3.65-1.4,9,9,0,0,0,2.42-2.38,15.55,15.55,0,0,0,1.4-3.08,17.66,17.66,0,0,0,.6-3.48,13.2,13.2,0,0,1,.76-3.49,13.92,13.92,0,0,1,1.88-3.11,18.51,18.51,0,0,0,2-3.06,35.36,35.36,0,0,0,1.57-7,52.08,52.08,0,0,1,1.4-7A16.34,16.34,0,0,1,131.91,123.63Z" fill="url(#b)"/><path d="M79.46,80.64h0c0.23,1,.46,2.15.67,3.29l0,0.26a147.35,147.35,0,0,0,3.38,14.55c0.86,2.59,1.88,5.4,2.27,6.23s1.13,2.17,1.63,3a33.81,33.81,0,0,1,1.62,3A31.74,31.74,0,0,1,90.27,114a33.16,33.16,0,0,1,.83,3.33c0.18,1,.4,2.63.48,3.7s0.35,2,.6,2,0.78-.72,1.18-1.69a17.24,17.24,0,0,0,1-3.55,15.57,15.57,0,0,0,0-3.56,22.33,22.33,0,0,1-.17-3.47,11.7,11.7,0,0,1,.3-1.59c-0.2-.54-0.4-1.12-0.61-1.72s-0.41-1.2-.61-1.8a147.35,147.35,0,0,1-3.38-14.55l0-.26c-1-5.41-2.34-10.13-3-10.48a5.44,5.44,0,0,0-3.24-.17,19.94,19.94,0,0,1-3.16.4C80.09,80.64,79.75,80.64,79.46,80.64Z" fill="url(#c)"/></svg>