<svg xmlns="http://www.w3.org/2000/svg" xmlns:xlink="http://www.w3.org/1999/xlink" width="200" height="200" viewBox="0 0 200 200"><defs><linearGradient id="b" x1="60.42" y1="156.37" x2="107.05" y2="51.64" gradientUnits="userSpaceOnUse"><stop offset="0" stop-color="#fdba56"/><stop offset=".02" stop-color="#fbb055"/><stop offset=".06" stop-color="#f79d54"/><stop offset=".1" stop-color="#f59253"/><stop offset=".15" stop-color="#f48e53"/><stop offset=".3" stop-color="#ed5e4e"/><stop offset=".47" stop-color="#683a96" stop-opacity=".5"/><stop offset=".64" stop-color="#ed872b"/><stop offset=".79" stop-color="#7b76b6"/><stop offset=".9" stop-color="#f15f4f"/><stop offset="1" stop-color="#fdba56"/></linearGradient><linearGradient id="a" x1="56.51" y1="81.6" x2="73.31" y2="119.34" gradientUnits="userSpaceOnUse"><stop offset="0" stop-color="#b7151b"/><stop offset=".02" stop-color="#c52229"/><stop offset=".06" stop-color="#d7333c"/><stop offset=".11" stop-color="#e23d47"/><stop offset=".15" stop-color="#e6404b"/><stop offset=".3" stop-color="#e98a7b"/><stop offset=".47" stop-color="#7c78b8"/><stop offset=".64" stop-color="#00b0b0"/><stop offset=".79" stop-color="#7b76b6"/><stop offset="1" stop-color="#e7322f"/></linearGradient><linearGradient id="c" x1="66.73" y1="117.53" x2="85.95" y2="160.7" xlink:href="#a"/><linearGradient id="d" x1="128.66" y1="92.88" x2="156.39" y2="155.18" xlink:href="#a"/><linearGradient id="e" x1="106.56" y1="81.85" x2="123.79" y2="120.54" xlink:href="#a"/></defs><title>_</title><path d="M97.32 129.59a15.32 15.32 0 0 0 2 2.46 9.76 9.76 0 0 1 2.08 3 8.61 8.61 0 0 1 .38 3.56 19.28 19.28 0 0 0-.11 3 17 17 0 0 0 .47 2.83 50.56 50.56 0 0 1 .88 5.14 7.6 7.6 0 0 0 1.19 3.56 5 5 0 0 0 2.67.21 39.21 39.21 0 0 1 4.41-.47h.24a75.46 75.46 0 0 1 7.88.76 68.86 68.86 0 0 0 7.69.75 27 27 0 0 0 3.9-.39 6.93 6.93 0 0 0 2.76-1.3c.36-.41 1.48-3.34 2.41-7.7a86.19 86.19 0 0 0 1.52-8.74 21.76 21.76 0 0 1 .47-3.77 88.8 88.8 0 0 1 4.54-9.92 86.58 86.58 0 0 0 4.35-9.46 17.24 17.24 0 0 0 .3-3.36 11.42 11.42 0 0 1 .68-3.91 12.37 12.37 0 0 1 2.25-3.38 17.31 17.31 0 0 0 2.12-2.78 14.38 14.38 0 0 0 1.22-3 19 19 0 0 0 .45-3.34 23 23 0 0 0-.27-3.6 18.92 18.92 0 0 1-.19-4 16 16 0 0 1 .85-3.73c.18-.48.45-1.1.73-1.72s.56-1.2.79-1.65c.48-.91 1.35-2.38 1.94-3.28a4 4 0 0 0 .43-.83 4.83 4.83 0 0 0-1.16.14 29.44 29.44 0 0 1-4 .63 27.94 27.94 0 0 1-4-.08c-1.07-.12-3.67-.58-5.79-1a44.57 44.57 0 0 0-5.49-.87 19.52 19.52 0 0 0-3.5.24 8.13 8.13 0 0 0-2.68 1 19.33 19.33 0 0 0-3 4.86 37 37 0 0 0-2.24 5.7 13.29 13.29 0 0 0-.08 3 16.18 16.18 0 0 1-.07 3.56 15.12 15.12 0 0 1-1 3.34 9.43 9.43 0 0 0-.67 2.76 11.64 11.64 0 0 0 .38 3.09 13.51 13.51 0 0 1 .45 3.75 11.21 11.21 0 0 1-.87 3.48c-.27.58-.88 1.67-1.62 2.91-.31.52-.64 1.05-1 1.55a26.38 26.38 0 0 0-2.23 4.17 11.86 11.86 0 0 0-.49 2.88c0 .84-.07 2-.12 2.43a1.57 1.57 0 0 1-.52 1.11 1 1 0 0 1-1 1.09 1.05 1.05 0 0 1-1-1.25 1.27 1.27 0 0 1-1.16-.43c-.13-.15-.54-.61-1.77-7.2-.7-3.75-1.41-7-1.63-7.74a17.57 17.57 0 0 1-.62-3.39 19.66 19.66 0 0 1 .16-3.56 16.5 16.5 0 0 0 .11-3.11 14.51 14.51 0 0 0-.61-2.9c-.3-.87-.86-3-1.24-4.78a28 28 0 0 0-1.29-4.42 16.16 16.16 0 0 0-1.6-2.68c-.16-.21-.34-.45-.52-.71a16.75 16.75 0 0 1-1.35-2.33 13.46 13.46 0 0 1-.92-3.21 2.76 2.76 0 0 0-.61-1.38 18.57 18.57 0 0 0-5.13.28 35 35 0 0 1-6.91.54 16.63 16.63 0 0 1-3.65-1 32.53 32.53 0 0 0-3.39-1.19 35.81 35.81 0 0 0-3.7-.81 2.86 2.86 0 0 0-1.82.3 3.65 3.65 0 0 0-.08 2.08 27 27 0 0 1 .54 4.05 18 18 0 0 1-.29 3.63c-.19.89-.57 2.33-.85 3.21s-.81 2.27-1.18 3.12c-.29.66-1.44 5.24-2.62 10.74-.54 2.53-1.26 5.55-2 8.51s-1.48 5.51-2 7.16c-.94 2.91-2.18 6.49-2.7 7a1.59 1.59 0 0 1-1.32.47 1.15 1.15 0 0 1-.83-.59 1.22 1.22 0 0 1-.12-1 15.77 15.77 0 0 0-.72-1.87 17 17 0 0 1-1-3.29 17.86 17.86 0 0 1-.21-3.49 19.88 19.88 0 0 0-.12-3.09 71.26 71.26 0 0 0-2.33-7.49c-1.27-3.59-2.52-6.73-2.89-7.4A14.61 14.61 0 0 1 57 91.72a15 15 0 0 1-.25-3.53c.06-.88.08-2.35 0-3.21s-.18-2.29-.31-3.12c0-.11 0-.23-.07-.35a16.3 16.3 0 0 0-.68-2.51 17.78 17.78 0 0 0-1.5-2.75 4.39 4.39 0 0 0-1.91-1.46 6.58 6.58 0 0 0-2.88.15 14.17 14.17 0 0 1-4.28.48 15.08 15.08 0 0 1-4.25-1.08 11.06 11.06 0 0 0-3.49-.75 10.49 10.49 0 0 0-3.5.86A20.47 20.47 0 0 1 30 75.78a11.89 11.89 0 0 1-3.55.13 3.18 3.18 0 0 0-1.74.24 3.33 3.33 0 0 0-1 1.51 9.5 9.5 0 0 0-.29 2.66 12.33 12.33 0 0 0 .67 2.92 19.4 19.4 0 0 0 1.54 3A23.07 23.07 0 0 0 27.91 89a12.15 12.15 0 0 1 2.24 3.39 11.44 11.44 0 0 1 .65 3.94 25.11 25.11 0 0 0 .16 3.5 112.93 112.93 0 0 0 3.74 10.91l1.71 4.5A148.18 148.18 0 0 1 42 134.58l.28 1.37a86 86 0 0 0 2.72 11 11.75 11.75 0 0 0 2 2.44 24.61 24.61 0 0 0 2.8 2.07 27 27 0 0 0 3.2 1.62 9.79 9.79 0 0 0 1.1.35 12 12 0 0 0 2.22.39 13.41 13.41 0 0 0 3.51-.4 26.72 26.72 0 0 1 4.09-.71 25.44 25.44 0 0 1 4.1.09 35.57 35.57 0 0 0 3.74.2 34 34 0 0 0 3.67-.29 8.2 8.2 0 0 0 2.69-.93 4.62 4.62 0 0 0 1.39-1.69 9.67 9.67 0 0 0 .56-2.51 12.58 12.58 0 0 0-.26-2.86 7 7 0 0 1 .25-3.67 8.83 8.83 0 0 1 2.42-3 12.23 12.23 0 0 0 2.21-2.31 7.91 7.91 0 0 0 1-2.46c.13-.79.29-2.14.35-2.94s.09-2.18.07-3-.14-2.23-.25-3.07-.4-2.3-.62-3.17a7.22 7.22 0 0 1 .13-3.68 8.59 8.59 0 0 1 2.26-3.08 6.55 6.55 0 0 0 1.65-2.23 5.38 5.38 0 0 0 0-2.53 17.83 17.83 0 0 1-.48-2.2v-.78l.78-.28a1.22 1.22 0 0 1 1.41.8 19.66 19.66 0 0 0 1.26 1.7 31.24 31.24 0 0 1 2 2.76 28 28 0 0 1 1.51 2.9 11.7 11.7 0 0 1 .8 3.3 13.9 13.9 0 0 1-.33 3.54 15.76 15.76 0 0 0-.38 3 12.72 12.72 0 0 0 .38 2.78 12 12 0 0 0 1.05 2.39z" fill="url(#b)"/><path d="M57.48 81.71c.14.88.28 2.33.32 3.23s0 2.39 0 3.32a14 14 0 0 0 .2 3.25 13.71 13.71 0 0 0 1.13 3c.44.8 1.76 4.2 3 7.54a70.09 70.09 0 0 1 2.38 7.68 20.83 20.83 0 0 1 .13 3.28 17 17 0 0 0 .2 3.26 16.16 16.16 0 0 0 .95 3.07 15.19 15.19 0 0 1 .79 2.1c.07.34.07.57 0 .52s-.06 0 0 .19.35.09.59-.14a47.71 47.71 0 0 0 2.43-6.55c.55-1.69 1.27-4.28 2-7.1q-.3-.85-.61-1.67c-.92-2.48-1.78-4.62-2.11-5.24a13.71 13.71 0 0 1-1.13-3 14 14 0 0 1-.23-3.25c.06-.93.08-2.42 0-3.32s-.18-2.35-.32-3.23a16.76 16.76 0 0 0-.86-3.1 18.75 18.75 0 0 0-1.6-2.94 5.34 5.34 0 0 0-2.46-1.85 7.41 7.41 0 0 0-3.44.16l-.48.08c-.31.07-.63.14-1 .19.05.2.09.37.12.52z" fill="url(#a)"/><path d="M96.4 130a13 13 0 0 1-1.15-2.63 13.73 13.73 0 0 1-.41-3.05 16.78 16.78 0 0 1 .41-3.27 13 13 0 0 0 .3-3.24 10.76 10.76 0 0 0-.72-3 26.94 26.94 0 0 0-1.45-2.78 30.29 30.29 0 0 0-1.88-2.65 19.51 19.51 0 0 1-1.35-1.84c-.17-.3-.3-.41-.3-.25a19.34 19.34 0 0 0 .45 2 6.3 6.3 0 0 1-.06 3.11 7.44 7.44 0 0 1-1.95 2.66 7.58 7.58 0 0 0-2 2.66 6.31 6.31 0 0 0-.1 3.1c.23.91.52 2.39.64 3.27s.24 2.32.26 3.18 0 2.26-.07 3.1-.22 2.21-.36 3a8.87 8.87 0 0 1-1.15 2.85 13.24 13.24 0 0 1-2.42 2.55 7.83 7.83 0 0 0-2.09 2.65 6.05 6.05 0 0 0-.21 3.07 13.62 13.62 0 0 1 .29 3.14 10.58 10.58 0 0 1-.64 2.83 5.57 5.57 0 0 1-1.76 2.14 9.11 9.11 0 0 1-3.1 1.09 34.43 34.43 0 0 1-3.8.3 36.2 36.2 0 0 1-3.87-.21 24.48 24.48 0 0 0-3.91-.08 25.58 25.58 0 0 0-3.91.68 14.7 14.7 0 0 1-3.82.43 13 13 0 0 1-2.43-.43 10.43 10.43 0 0 0 .86 1.22 12.22 12.22 0 0 0 1.34 1.46 25.47 25.47 0 0 0 2.96 2.18 27.56 27.56 0 0 0 3.35 1.69 13.51 13.51 0 0 0 3.65.82 14.7 14.7 0 0 0 3.82-.43 25.58 25.58 0 0 1 3.91-.68 24.48 24.48 0 0 1 3.91.08 36.2 36.2 0 0 0 3.87.21 34.43 34.43 0 0 0 3.8-.3 9.11 9.11 0 0 0 3.1-1.09 5.57 5.57 0 0 0 1.76-2.14 10.58 10.58 0 0 0 .64-2.83 13.62 13.62 0 0 0-.29-3.14 6.05 6.05 0 0 1 .21-3.07 7.83 7.83 0 0 1 2.11-2.62 13.24 13.24 0 0 0 2.42-2.55 8.87 8.87 0 0 0 1.15-2.85c.14-.83.3-2.19.36-3s.09-2.24.07-3.1c0-.56-.07-1.36-.14-2.1 0-.39-.08-.77-.12-1.08s-.11-.69-.18-1.06z" fill="url(#c)"/><path d="M166.67 80.6a28.28 28.28 0 0 1-3.87.6 26.21 26.21 0 0 1-3.82-.07c-.42 0-1.08-.15-1.85-.28l-1-.18c-.27.6-.53 1.2-.71 1.66a15.1 15.1 0 0 0-.79 3.45 18.13 18.13 0 0 0 .18 3.76 23.79 23.79 0 0 1 .28 3.79 19.9 19.9 0 0 1-.47 3.55 15.38 15.38 0 0 1-1.33 3.28 18.26 18.26 0 0 1-2.27 3 11.45 11.45 0 0 0-2 3.06 10.47 10.47 0 0 0-.61 3.51 18.16 18.16 0 0 1-.33 3.6 84.32 84.32 0 0 1-4.44 9.7 89.88 89.88 0 0 0-4.46 9.69 21.08 21.08 0 0 0-.45 3.56 86.5 86.5 0 0 1-1.54 8.92c-.82 3.9-2 7.6-2.7 8.22a7.91 7.91 0 0 1-3.29 1.58 28 28 0 0 1-4 .48 72.76 72.76 0 0 1-7.86-.76 69.3 69.3 0 0 0-7.94-.74c.05.32.11.66.16 1 .09.59.18 1.19.25 1.77.25 1.94 1 3.87 1.64 4.27a5.8 5.8 0 0 0 3.39.36 38.29 38.29 0 0 1 4.28-.46 69.3 69.3 0 0 1 7.94.74 72.76 72.76 0 0 0 7.86.76 28 28 0 0 0 4-.48 7.91 7.91 0 0 0 3.24-1.56c.66-.62 1.88-4.32 2.7-8.22a86.5 86.5 0 0 0 1.54-8.92 21.08 21.08 0 0 1 .45-3.56 89.88 89.88 0 0 1 4.45-9.68 84.32 84.32 0 0 0 4.44-9.7 18.16 18.16 0 0 0 .33-3.6 10.47 10.47 0 0 1 .61-3.51 11.45 11.45 0 0 1 2-3.06 18.26 18.26 0 0 0 2.27-3 15.38 15.38 0 0 0 1.33-3.28 19.9 19.9 0 0 0 .47-3.55 23.79 23.79 0 0 0-.28-3.79 18.13 18.13 0 0 1-.18-3.76 15.1 15.1 0 0 1 .79-3.45c.35-.91 1-2.38 1.48-3.26s1.31-2.32 1.89-3.19.84-1.83.6-2.13-1.3-.38-2.38-.12z" fill="url(#d)"/><path d="M107.26 81.54c.16.24.33.46.48.65a17.17 17.17 0 0 1 1.79 2.87 29 29 0 0 1 1.36 4.63c.37 1.73.92 3.83 1.21 4.67a15.5 15.5 0 0 1 .67 3.14 17.41 17.41 0 0 1-.12 3.34 18.88 18.88 0 0 0-.15 3.35 16.73 16.73 0 0 0 .58 3.17c.26.85 1 4.38 1.65 7.85a48.89 48.89 0 0 0 1.54 6.73c.2.23.51.07.69-.36s.41-.69.5-.6a4.23 4.23 0 0 1 .21 1.49c0 .73 0 1 .06.63a4.15 4.15 0 0 1 .1-.88c0-.11.14-.06.21.1s.17 0 .22-.38.1-1.42.12-2.33a12.93 12.93 0 0 1 .54-3.18 27.32 27.32 0 0 1 2.33-4.39c.31-.49.63-1 .94-1.52a21 21 0 0 1 .1-2.16c0-.21 0-.4.07-.58a17.41 17.41 0 0 0 .12-3.34 15.5 15.5 0 0 0-.67-3.14c-.29-.84-.83-2.94-1.21-4.67a29 29 0 0 0-1.37-4.63 17.17 17.17 0 0 0-1.79-2.87 16.13 16.13 0 0 1-1.74-2.82 12.5 12.5 0 0 1-.84-2.93 3.42 3.42 0 0 0-1.08-2.11c-.46-.32-2.85-.27-5.41.1l-.4.06z" fill="url(#e)"/></svg>