<svg xmlns="http://www.w3.org/2000/svg" xmlns:xlink="http://www.w3.org/1999/xlink" width="113" height="200" viewBox="0 0 113 200"><defs><linearGradient id="b" x1="29.98" y1="161.82" x2="73.75" y2="63.52" gradientUnits="userSpaceOnUse"><stop offset="0" stop-color="#fdba56"/><stop offset=".02" stop-color="#fbb055"/><stop offset=".06" stop-color="#f79d54"/><stop offset=".1" stop-color="#f59253"/><stop offset=".15" stop-color="#f48e53"/><stop offset=".3" stop-color="#ed5e4e"/><stop offset=".47" stop-color="#683a96" stop-opacity=".5"/><stop offset=".64" stop-color="#ed872b"/><stop offset=".79" stop-color="#7b76b6"/><stop offset=".9" stop-color="#f15f4f"/><stop offset="1" stop-color="#fdba56"/></linearGradient><linearGradient id="a" x1="74.71" y1="86.66" x2="106.63" y2="158.34" gradientUnits="userSpaceOnUse"><stop offset="0" stop-color="#b7151b"/><stop offset=".02" stop-color="#c52229"/><stop offset=".06" stop-color="#d7333c"/><stop offset=".11" stop-color="#e23d47"/><stop offset=".15" stop-color="#e6404b"/><stop offset=".3" stop-color="#e98a7b"/><stop offset=".47" stop-color="#7c78b8"/><stop offset=".64" stop-color="#00b0b0"/><stop offset=".79" stop-color="#7b76b6"/><stop offset="1" stop-color="#e7322f"/></linearGradient><linearGradient id="c" x1="48.83" y1="76.55" x2="54.1" y2="88.37" xlink:href="#a"/><linearGradient id="d" x1="31.43" y1="138.21" x2="41.19" y2="160.13" xlink:href="#a"/></defs><title>_</title><path d="M59.69 140a48.71 48.71 0 0 1 1.93 4.62c.29.9.69 2.42.89 3.38a4.32 4.32 0 0 0 1.3 2.11 8.18 8.18 0 0 0 3.13 1.12 34.32 34.32 0 0 0 3.63.24h.74a32.54 32.54 0 0 0 4.33-.47c1.27-.24 3.33-.52 4.58-.61s5.47 0 9.37.19a44.25 44.25 0 0 0 6.42-.06 58 58 0 0 0-5-7.3c-3-3.87-6.4-8.52-6.88-9.51a25.19 25.19 0 0 0-1.54-2.61 25.65 25.65 0 0 0-1.91-2.37 15.23 15.23 0 0 1-2-2.8 16.31 16.31 0 0 1-1.21-3.29 10.63 10.63 0 0 0-1.1-2.67 10.41 10.41 0 0 0-1.94-2.11 12.41 12.41 0 0 1-2.38-2.56 11.4 11.4 0 0 1-1.32-3.15 11.21 11.21 0 0 1-.2-3.25 9.06 9.06 0 0 1 1-2.92c.46-.79 2.68-3.57 4.56-5.81a61.72 61.72 0 0 0 4.35-5.63 18.57 18.57 0 0 0 1.08-2.63 21.13 21.13 0 0 1 1.21-3 19.67 19.67 0 0 1 1.7-2.65c.53-.67 2.76-3.11 5.09-5.55 1-1 1.88-2 2.67-2.89a28.53 28.53 0 0 0 2-2.33 10.29 10.29 0 0 0 .88-1.89.77.77 0 0 0-.13-.6 6 6 0 0 0-2.19-.7 30.25 30.25 0 0 0-3.75-.24 37.81 37.81 0 0 0-4.11.36 25.71 25.71 0 0 1-4.6.2 26.81 26.81 0 0 1-4.59-.79 36.75 36.75 0 0 0-4.34-.83 36.73 36.73 0 0 0-4.36-.27 11.27 11.27 0 0 0-3.44.64A5.29 5.29 0 0 0 61.64 73a11.89 11.89 0 0 0-1.79 5.28 8.87 8.87 0 0 1-1 3.19 9.37 9.37 0 0 1-2.34 2.46l-.13.1-.11.09a9.25 9.25 0 0 0-1.65 1.66 8.1 8.1 0 0 0-1 2.3c-.18.79-.62 2.13-1.59 2.3s-1.86-1.19-2.13-1.79-.89-1.8-1.26-2.43-1.06-1.69-1.51-2.29a12 12 0 0 1-1.44-2.78 13.5 13.5 0 0 1-.56-3.18v-.1a11.3 11.3 0 0 0-.5-2.57 11.56 11.56 0 0 0-1.31-2.44 4.25 4.25 0 0 0-2-1.29 10.07 10.07 0 0 0-3.52.12 28 28 0 0 1-4.8.54 30 30 0 0 1-4.71-.49 21.49 21.49 0 0 0-4.29-.47 23.15 23.15 0 0 0-4.22.55 34.35 34.35 0 0 1-4.55.75 30.73 30.73 0 0 1-4.44 0 7.09 7.09 0 0 0-2.12.09.78.78 0 0 0 .09.33 11.4 11.4 0 0 0 1.38 1.95 15.5 15.5 0 0 0 2 1.77 12.18 12.18 0 0 1 2.37 2.3A11.87 11.87 0 0 1 16 81.88a22.8 22.8 0 0 0 1.07 2.64 83.47 83.47 0 0 0 5.15 6.85 67.14 67.14 0 0 1 5.35 7.28 19.05 19.05 0 0 1 1 3.1 8.41 8.41 0 0 0 1.08 2.46 10.46 10.46 0 0 0 2.11 2 5.37 5.37 0 0 1 2.24 2.91 5.56 5.56 0 0 1-.91 3.5 22.11 22.11 0 0 1-2.33 2.89 20.18 20.18 0 0 1-2.8 2.28 11.6 11.6 0 0 0-2.2 2 10.93 10.93 0 0 0-1.43 2.5 28.73 28.73 0 0 1-1.42 3.08c-.51.92-2.32 3.44-3.78 5.35a51.57 51.57 0 0 0-3.54 5.1 20.78 20.78 0 0 0-1.12 2.89 10.75 10.75 0 0 1-1.66 3.22 11.65 11.65 0 0 1-2.84 2.36 12.58 12.58 0 0 0-2.54 2 16 16 0 0 0-2 3 2.26 2.26 0 0 0-.26 1.53 6 6 0 0 0 2.49.24c1.36-.12 4.5-.63 7-1.14 1.52-.31 3.32-.6 4.8-.78a21.69 21.69 0 0 1 2.2-.18 23.48 23.48 0 0 1 4.67.57 32.32 32.32 0 0 0 4.24.69 30.16 30.16 0 0 0 4.17 0 8.92 8.92 0 0 0 3.08-.88 4.36 4.36 0 0 0 1.48-1.77 15.26 15.26 0 0 1 1.6-3 18.24 18.24 0 0 1 2.41-2.61 13.07 13.07 0 0 0 2-2.3 11.92 11.92 0 0 0 1.19-2.69c.25-.91 1-3 1.71-4.75.44-1.08 1.61-3.61 2.91-3.74h.15a3.82 3.82 0 0 1 2.59 1.64c.57.76 1.8 2.64 2.74 4.18s2.12 3.73 2.92 5.38z" fill="url(#b)"/><path d="M107 158.18c.38-.39-2-4.26-5.39-8.62s-6.39-8.55-6.78-9.34a26.15 26.15 0 0 0-1.61-2.73 26.44 26.44 0 0 0-2-2.48 14.28 14.28 0 0 1-1.84-2.58 15.43 15.43 0 0 1-1.12-3.06 11.5 11.5 0 0 0-1.23-3 11.33 11.33 0 0 0-2.21-2.37 11.46 11.46 0 0 1-2.15-2.31 10.44 10.44 0 0 1-1.18-2.82 10.2 10.2 0 0 1-.18-2.9 8 8 0 0 1 .85-2.55c.38-.65 2.38-3.2 4.46-5.67a60.52 60.52 0 0 0 4.47-5.8 19.4 19.4 0 0 0 1.15-2.81 20.46 20.46 0 0 1 1.14-2.82A18.86 18.86 0 0 1 95 93.85c.5-.64 2.76-3.1 5-5.48a67.4 67.4 0 0 0 4.78-5.37 11 11 0 0 0 1-2.12 1.74 1.74 0 0 0-.47-1.71 6.67 6.67 0 0 0-2.69-.92 30.85 30.85 0 0 0-3.97-.25 38.53 38.53 0 0 0-4.19.36h-.05c-.41.06-.9.11-1.42.15-.79.88-1.73 1.9-2.69 2.91-2.26 2.37-4.52 4.84-5 5.48a18.86 18.86 0 0 0-1.6 2.49 20.46 20.46 0 0 0-1.14 2.82A19.4 19.4 0 0 1 81.38 95a60.52 60.52 0 0 1-4.47 5.8c-2.08 2.47-4.08 5-4.46 5.67a8 8 0 0 0-.85 2.55 10.2 10.2 0 0 0 .18 2.9 10.44 10.44 0 0 0 1.22 2.85 11.46 11.46 0 0 0 2.15 2.31 11.33 11.33 0 0 1 2.17 2.36 11.5 11.5 0 0 1 1.23 3 15.43 15.43 0 0 0 1.12 3.06 14.28 14.28 0 0 0 1.84 2.58 26.44 26.44 0 0 1 2 2.48 26.15 26.15 0 0 1 1.61 2.73c.39.79 3.44 5 6.78 9.34s5.76 8.23 5.39 8.62-3.84.55-7.7.35-8-.28-9.24-.19-3.24.36-4.47.59a33.5 33.5 0 0 1-4.49.49h-.82c.09.31.18.66.28 1 .16.6.31 1.21.41 1.68a5.28 5.28 0 0 0 1.67 2.7 9.13 9.13 0 0 0 3.6 1.31 34.17 34.17 0 0 0 4.54.25 33.5 33.5 0 0 0 4.49-.49c1.23-.24 3.24-.5 4.47-.59s5.39 0 9.24.19 7.31.02 7.73-.36z" fill="url(#a)"/><path d="M46.11 77.83a12.52 12.52 0 0 0 .51 2.9 11 11 0 0 0 1.3 2.51c.47.63 1.17 1.71 1.56 2.38s1 1.81 1.31 2.53a1.89 1.89 0 0 0 1 1.22 2.34 2.34 0 0 0 .79-1.54 9 9 0 0 1 1.15-2.65 10.1 10.1 0 0 1 1.86-1.88c-.07-.38-.16-.74-.25-1.07 0-.15-.08-.3-.12-.42a12.55 12.55 0 0 0-1.45-2.7 5.21 5.21 0 0 0-2.58-1.67 10.93 10.93 0 0 0-4 .12h-.18l-1 .17s.1.08.1.1z" fill="url(#c)"/><path d="M55.73 134.77c-.93-1.53-2.13-3.37-2.68-4.1a2.81 2.81 0 0 0-1.84-1.24c-.46 0-1.4 1.45-2.08 3.12s-1.44 3.76-1.68 4.63a12.88 12.88 0 0 1-1.31 3 14.09 14.09 0 0 1-2.2 2.51 17.3 17.3 0 0 0-2.25 2.44 14.32 14.32 0 0 0-1.48 2.75 5.32 5.32 0 0 1-1.9 2.27 9.85 9.85 0 0 1-3.51 1 30.66 30.66 0 0 1-4.34 0 33.21 33.21 0 0 1-4.4-.72 22.27 22.27 0 0 0-4.43-.54 19.76 19.76 0 0 0-2.08.17l-.39.25a11.83 11.83 0 0 0-1.47 1 12.22 12.22 0 0 0-1.32 1.21 17 17 0 0 0-2.15 3.18c-.51 1-.56 2.19-.12 2.63a5.25 5.25 0 0 0 3.33.58c1.39-.12 4.59-.65 7.11-1.16a46.43 46.43 0 0 1 6.8-.94 22.27 22.27 0 0 1 4.43.54 33.21 33.21 0 0 0 4.4.72 30.66 30.66 0 0 0 4.34 0 9.85 9.85 0 0 0 3.51-1 5.32 5.32 0 0 0 1.9-2.27 14.32 14.32 0 0 1 1.47-2.8 17.3 17.3 0 0 1 2.25-2.44 14.09 14.09 0 0 0 2.2-2.51 12.88 12.88 0 0 0 1.31-3c.15-.57.52-1.64.95-2.77.16-.43.33-.86.5-1.29-.78-1.53-2.02-3.81-2.87-5.22z" fill="url(#d)"/></svg>