<svg xmlns="http://www.w3.org/2000/svg" xmlns:xlink="http://www.w3.org/1999/xlink" width="200" height="200" viewBox="0 0 200 200"><defs><linearGradient id="b" x1="50.43" y1="177.11" x2="103.23" y2="58.53" gradientUnits="userSpaceOnUse"><stop offset="0" stop-color="#fdba56"/><stop offset=".02" stop-color="#fbb055"/><stop offset=".06" stop-color="#f79d54"/><stop offset=".1" stop-color="#f59253"/><stop offset=".15" stop-color="#f48e53"/><stop offset=".3" stop-color="#ed5e4e"/><stop offset=".47" stop-color="#683a96" stop-opacity=".5"/><stop offset=".64" stop-color="#ed872b"/><stop offset=".79" stop-color="#7b76b6"/><stop offset=".9" stop-color="#f15f4f"/><stop offset="1" stop-color="#fdba56"/></linearGradient><linearGradient id="a" x1="89.53" y1="97.7" x2="123.95" y2="175" gradientUnits="userSpaceOnUse"><stop offset="0" stop-color="#b7151b"/><stop offset=".02" stop-color="#c52229"/><stop offset=".06" stop-color="#d7333c"/><stop offset=".11" stop-color="#e23d47"/><stop offset=".15" stop-color="#e6404b"/><stop offset=".3" stop-color="#e98a7b"/><stop offset=".47" stop-color="#7c78b8"/><stop offset=".64" stop-color="#00b0b0"/><stop offset=".79" stop-color="#7b76b6"/><stop offset="1" stop-color="#e7322f"/></linearGradient><linearGradient id="c" x1="80" y1="80.27" x2="97.33" y2="119.19" xlink:href="#a"/></defs><title>_</title><path d="M79 80.54a9.55 9.55 0 0 0-.34-1.06 10.61 10.61 0 0 0-1.32-2.21 8.33 8.33 0 0 0-2-1.6 12.39 12.39 0 0 0-2.83-1 32.06 32.06 0 0 0-3.51-.45c-1-.06-2.73-.06-3.78 0s-3 .07-4.14 0S58.1 74 57 73.76a27 27 0 0 0-3.74-.33 23.66 23.66 0 0 0-3.59.34 4 4 0 0 0-1.74.73 2 2 0 0 0 .3.89 9.8 9.8 0 0 1 1.24 3.12 13.63 13.63 0 0 1 0 3.66 13.06 13.06 0 0 0 0 3.16 10.87 10.87 0 0 0 .94 2.76c.44.82 1.09 2.19 1.45 3s1.23 3.65 2 6.33a40.53 40.53 0 0 0 2 5.92 15.72 15.72 0 0 0 1.91 2.52 20.72 20.72 0 0 1 2.23 2.91 18.21 18.21 0 0 1 1.51 3.16 31.48 31.48 0 0 1 .89 3.28 33.17 33.17 0 0 1 .47 3.42 20 20 0 0 0 .52 3.07 47 47 0 0 0 2.61 5.74 39.86 39.86 0 0 1 2.74 6.2 16.43 16.43 0 0 1 .33 3.61 12.45 12.45 0 0 0 .33 3 11.46 11.46 0 0 0 1.26 2.75 18.48 18.48 0 0 1 1.56 3 14.74 14.74 0 0 1 .78 3 13.85 13.85 0 0 1 0 2.69 5.85 5.85 0 0 1-.69 2.1c-.26.4-.93 1.27-1.54 2a5.87 5.87 0 0 1-2.59 1.82 10.6 10.6 0 0 1-2.82.17 17.47 17.47 0 0 0-2.27 0 3.1 3.1 0 0 0-.89.21 2.64 2.64 0 0 1-1.34.45 2.37 2.37 0 0 1-1.21-.35 3.4 3.4 0 0 0-.4.54 3.08 3.08 0 0 1-1.68 1.37 3.32 3.32 0 0 1-2.15-.38h-.08a4.93 4.93 0 0 0-.23 1.21 9.35 9.35 0 0 0 .27 2.52 11.74 11.74 0 0 0 1.17 2.54 7.42 7.42 0 0 1 1.08 3.31 7.19 7.19 0 0 1-.93 3.32 11.47 11.47 0 0 0-1.06 2.48 9.17 9.17 0 0 0-.17 2.5 5.47 5.47 0 0 0 .5 1.8 1.57 1.57 0 0 0 .73.54 11.23 11.23 0 0 0 1.56.2 11 11 0 0 0 1.54-.07c.43-.06 1.2-.21 1.68-.33s1.34-.39 1.87-.58 1-.33 1.61-.47l.61-.14a16.4 16.4 0 0 1 2.28-.23 42.18 42.18 0 0 1 5.07.76 41.7 41.7 0 0 0 5.7.72 51.87 51.87 0 0 0 7.38-1.19 46.08 46.08 0 0 0 6.44-1.83 10 10 0 0 0 2.07-1.61 47.78 47.78 0 0 1 3.49-3.18 40.77 40.77 0 0 0 3.33-3 18.16 18.16 0 0 0 1.71-2.34c.42-.71 1.55-2.93 2.46-4.84s2-4.4 2.32-5.45.85-2.85 1.1-4a38 38 0 0 0 .63-3.86 29.25 29.25 0 0 0 .09-3.56 9.37 9.37 0 0 1 .69-3.77 10.57 10.57 0 0 1 2.45-3.11 17.56 17.56 0 0 0 2.36-2.47 13.5 13.5 0 0 0 1.48-2.71c.27-.72 1.19-4.08 2.13-7.92s1.68-7.26 1.78-8 .24-2.39.28-3.32.18-2.55.32-3.5.44-2.47.68-3.39a13.39 13.39 0 0 1 1.48-3.34 16.46 16.46 0 0 1 2.56-2.9 7.29 7.29 0 0 0 1.73-2.4 7.06 7.06 0 0 0 .21-2.91 14.53 14.53 0 0 1-.07-3.84 12.31 12.31 0 0 1 1.17-3.48 20.8 20.8 0 0 0 2.17-6 19 19 0 0 1 1.2-3.58c.07-.15.16-.32.25-.51a29.89 29.89 0 0 1 1.9-3.17 3.11 3.11 0 0 0 .65-1.78 4.65 4.65 0 0 0-2-.58c-1.25-.09-4.07-.14-6.27-.1a44.5 44.5 0 0 0-5.79.43 34.68 34.68 0 0 0-3.72 1 24 24 0 0 1-4 1 21.31 21.31 0 0 1-4 .06 6.64 6.64 0 0 0-2.7.34 4.55 4.55 0 0 0-1.66 1.58 8.94 8.94 0 0 0-.87 2.63 11.08 11.08 0 0 0 .16 3 9.11 9.11 0 0 1-.1 3.82 9.23 9.23 0 0 1-2 3.28 11.62 11.62 0 0 0-1.82 2.52 24.19 24.19 0 0 0-.76 6.06c-.08 2.78-.25 5.79-.38 6.72a51.4 51.4 0 0 1-1.61 5.28c-.47 1.37-1 2.89-1.57 4.42-3.21 8.71-3.52 8.64-4.46 8.41-.34-.08-1.12-.28-1.17-2.91 0-1-.14-2.58-.25-3.47s-1.5-5.48-3.36-11L82.8 93.5c-1.58-4.71-3.29-10.22-3.43-11.29a12.79 12.79 0 0 0-.37-1.67z" fill="url(#b)"/><path d="M139.51 95.16a21.81 21.81 0 0 0 2.28-6.24 18.22 18.22 0 0 1 1.13-3.36A27.68 27.68 0 0 1 145 82c.7-1 1-2.24.74-2.78s-1.57-1.06-2.84-1.15-4.13-.14-6.36-.1c-.62 0-1.27 0-1.91.07l-1.17.07-.23.47a18.22 18.22 0 0 0-1.15 3.42 26.44 26.44 0 0 1-.9 3.2 26.68 26.68 0 0 1-1.38 3 11.32 11.32 0 0 0-1.06 3.14 13.6 13.6 0 0 0 .06 3.53 8 8 0 0 1-.26 3.42 8.25 8.25 0 0 1-2 2.82 15.57 15.57 0 0 0-2.38 2.69 12.45 12.45 0 0 0-1.35 3c-.23.89-.53 2.36-.66 3.28s-.27 2.45-.31 3.4-.17 2.49-.29 3.41-.93 4.59-1.8 8.15-1.84 7.17-2.16 8a14.48 14.48 0 0 1-1.61 3 18.5 18.5 0 0 1-2.52 2.64 9.59 9.59 0 0 0-2.19 2.76 8.34 8.34 0 0 0-.6 3.3 30.23 30.23 0 0 1-.09 3.71 38.84 38.84 0 0 1-.65 4c-.26 1.13-.77 3-1.13 4.05s-1.43 3.6-2.37 5.57-2.06 4.18-2.5 4.92a19.14 19.14 0 0 1-1.83 2.5 41 41 0 0 1-3.44 3.13c-1.33 1.09-2.89 2.49-3.46 3.1a10.92 10.92 0 0 1-2.33 1.81 45 45 0 0 1-6.69 1.92 52.7 52.7 0 0 1-7.54 1.26 36.75 36.75 0 0 1-5.91-.74 38.19 38.19 0 0 0-4.85-.74 15.58 15.58 0 0 0-2.11.21l-.56.12c-.18.37-.36.78-.5 1.17a8.7 8.7 0 0 0-.32 1 10.11 10.11 0 0 0-.19 2.84 6.31 6.31 0 0 0 .65 2.23 2.5 2.5 0 0 0 1.37 1 12.42 12.42 0 0 0 1.72.22 12 12 0 0 0 1.72-.08c.47-.06 1.28-.22 1.79-.36s1.4-.41 2-.61a16 16 0 0 1 2.07-.56 15.58 15.58 0 0 1 2.11-.21 38.19 38.19 0 0 1 4.85.74 36.75 36.75 0 0 0 5.91.74 52.7 52.7 0 0 0 7.54-1.26 45 45 0 0 0 6.69-1.92 10.92 10.92 0 0 0 2.33-1.81c.58-.62 2.13-2 3.46-3.1a41 41 0 0 0 3.44-3.13 19.14 19.14 0 0 0 1.83-2.5c.44-.74 1.57-3 2.5-4.92s2-4.47 2.37-5.57.88-2.92 1.13-4.05a38.84 38.84 0 0 0 .65-4 30.23 30.23 0 0 0 .09-3.71 8.34 8.34 0 0 1 .6-3.3 9.59 9.59 0 0 1 2.19-2.76 18.5 18.5 0 0 0 2.49-2.65 14.48 14.48 0 0 0 1.61-3c.32-.86 1.29-4.47 2.16-8s1.68-7.23 1.8-8.15.25-2.46.29-3.41.18-2.48.31-3.4.43-2.4.66-3.28a12.45 12.45 0 0 1 1.35-3 15.57 15.57 0 0 1 2.38-2.69 8.25 8.25 0 0 0 2-2.82 8 8 0 0 0 .26-3.42 13.6 13.6 0 0 1-.06-3.53 11.32 11.32 0 0 1 1.05-3.14z" fill="url(#a)"/><path d="M80.37 82.08C80.48 83 82 88 83.75 93.19l3.93 11.74c1.75 5.21 3.28 10.26 3.4 11.2s.24 2.56.26 3.58a3.17 3.17 0 0 0 .41 2c.21.05 1.68-3.45 3.28-7.78.56-1.52 1.1-3 1.56-4.4l-.53-1.57-2.61-7.79c-1.75-5.21-3.27-10.21-3.38-11.1a14.13 14.13 0 0 0-.77-3 11.52 11.52 0 0 0-1.48-2.47 9.26 9.26 0 0 0-2.26-1.84 13.36 13.36 0 0 0-3.11-1.09c-.39-.08-.88-.16-1.4-.23L80 80.28a13.93 13.93 0 0 1 .37 1.8z" fill="url(#c)"/></svg>