<svg xmlns="http://www.w3.org/2000/svg" xmlns:xlink="http://www.w3.org/1999/xlink" width="200" height="200" viewBox="0 0 200 200"><defs><linearGradient id="a" x1="72.73" y1="170.57" x2="127.1" y2="48.46" gradientUnits="userSpaceOnUse"><stop offset="0" stop-color="#fdba56"/><stop offset="0.02" stop-color="#fbb055"/><stop offset="0.06" stop-color="#f79d54"/><stop offset="0.1" stop-color="#f59253"/><stop offset="0.15" stop-color="#f48e53"/><stop offset="0.3" stop-color="#ed5e4e"/><stop offset="0.47" stop-color="#683a96" stop-opacity="0.5"/><stop offset="0.64" stop-color="#ed872b"/><stop offset="0.79" stop-color="#7b76b6"/><stop offset="0.9" stop-color="#f15f4f"/><stop offset="1" stop-color="#fdba56"/></linearGradient><linearGradient id="b" x1="98.3" y1="119.77" x2="123.85" y2="177.15" gradientUnits="userSpaceOnUse"><stop offset="0" stop-color="#b7151b"/><stop offset="0.02" stop-color="#c52229"/><stop offset="0.06" stop-color="#d7333c"/><stop offset="0.11" stop-color="#e23d47"/><stop offset="0.15" stop-color="#e6404b"/><stop offset="0.3" stop-color="#e98a7b"/><stop offset="0.47" stop-color="#7c78b8"/><stop offset="0.64" stop-color="#00b0b0"/><stop offset="0.79" stop-color="#7b76b6"/><stop offset="1" stop-color="#e7322f"/></linearGradient><linearGradient id="c" x1="103.88" y1="172.32" x2="113.38" y2="193.66" xlink:href="#b"/><linearGradient id="d" x1="97.13" y1="51.99" x2="122.08" y2="108.02" xlink:href="#b"/><linearGradient id="e" x1="73.35" y1="117.51" x2="73.53" y2="117.92" xlink:href="#b"/><linearGradient id="f" x1="125.94" y1="46.82" x2="125.98" y2="46.9" xlink:href="#b"/><linearGradient id="g" x1="128" y1="187.25" x2="128.34" y2="188.02" xlink:href="#b"/><linearGradient id="h" x1="125.07" y1="45.84" x2="126.22" y2="48.42" xlink:href="#b"/><linearGradient id="i" x1="74.46" y1="117.26" x2="74.6" y2="117.59" xlink:href="#b"/><linearGradient id="j" x1="74.76" y1="117" x2="74.78" y2="117.06" xlink:href="#b"/></defs><title>_</title><path d="M112.39,43.14c0.24-.3.49-0.62,0.69-0.91a23.43,23.43,0,0,0-3.42-.92C107,40.78,104,40.25,103,40.16S100.41,40,99.45,40a13.8,13.8,0,0,0-3.2.53A12.84,12.84,0,0,0,93.42,42c-0.83.58-2.15,1.39-2.94,1.81a25.35,25.35,0,0,1-2.87,1.28,13.39,13.39,0,0,0-2.46,1.27,31,31,0,0,0-3.67,3.46,50.27,50.27,0,0,0-3.31,3.9,7.13,7.13,0,0,0-1,2.33,6.85,6.85,0,0,0,.19,2.48,29.4,29.4,0,0,1,.74,3.36c0.17,1.13.24,4.77,0.22,7.65a64.71,64.71,0,0,1-.43,7.88,37.42,37.42,0,0,1-1,4,9,9,0,0,0-.32,3.39,11.22,11.22,0,0,0,1.34,3.46,8.75,8.75,0,0,1,1.28,4.28c-0.06,1.36-1.39,3.75-2.61,5.3a45.16,45.16,0,0,0-2.78,3.84,11.3,11.3,0,0,0-.78,2.11,18.78,18.78,0,0,0-.39,2.73,5.12,5.12,0,0,1-1.27,3.09,4.52,4.52,0,0,1-1.58.91,15,15,0,0,0,1.52,1.59c1.64,1.51,3.68,3.5,4.26,4.19a24.13,24.13,0,0,1,1.73,2.46,7.54,7.54,0,0,1,.92,3.33,11.73,11.73,0,0,1-.8,3.76,8.94,8.94,0,0,0-.56,3.15,8.71,8.71,0,0,0,.94,3,19.16,19.16,0,0,1,1.53,3.61,15.72,15.72,0,0,1,.51,3.66,18.38,18.38,0,0,1-.45,3.62,21.34,21.34,0,0,1-1.31,3.59,9.1,9.1,0,0,0-.77,3,8.7,8.7,0,0,0,.59,3,18.4,18.4,0,0,1,1.05,3.48,33.58,33.58,0,0,1-.16,6.14,20.32,20.32,0,0,0,.08,5.64,21.77,21.77,0,0,0,1.67,3.57,20,20,0,0,0,2.39,3.18,10.38,10.38,0,0,0,2.49,1.79c0.78,0.35,2.08.86,2.9,1.14,0.38,0.13.88,0.29,1.39,0.44s1.17,0.33,1.61.45c0.74,0.18,4.58.83,9.12,1.51s8.51,1.1,9.42,1.08a18.14,18.14,0,0,0,3.66-.55c0.56-.16,1.19-0.31,1.77-0.45l-2.11-1.12c-1.61-.84-4.83-2.69-5.52-3.64s-1.8-5.55-2.31-7.86c-0.79-3.61-1.67-9-2-12a62.43,62.43,0,0,1-.41-7.32c0.08-1,.31-2.66.52-3.68s0.73-5.43,1.19-9.8c0.5-4.8.78-9.07,0.73-10a28.43,28.43,0,0,0-.49-3.73,18,18,0,0,0-1.05-3.12l-0.09-.17c-0.15-.29-0.32-0.6-0.53-0.93a13.86,13.86,0,0,0-1-1.5,10.9,10.9,0,0,0-2.21-1.91,12.5,12.5,0,0,0-2.88-1.16l-1.75-.42a1,1,0,0,1-.7-0.48l-0.42-.25a1.78,1.78,0,0,1-1-1.25,1.36,1.36,0,0,1,.35-1.16A7.08,7.08,0,0,1,96,107.19a9,9,0,0,0,2.34-1.12,22.53,22.53,0,0,0,3-4.21A47,47,0,0,0,104,96.73c0.26-.72,1.16-5.45,2-11.08s1.5-10.56,1.51-11.46-0.17-3.63-.38-5.69-0.39-4.83-.36-5.94a22.22,22.22,0,0,0-.26-3.62,22.91,22.91,0,0,0-1-3.54,9.6,9.6,0,0,1-.61-3.79,6.36,6.36,0,0,1,1.45-3.18c0.59-.65,1.55-1.59,2.14-2.09,0.39-.34,1-0.78,1.49-1.16l0.65-.44A9,9,0,0,0,112.39,43.14Z" fill="url(#a)"/><path d="M105.17,117.33a1.87,1.87,0,0,0-.54-0.38l0.1,0.19a18.94,18.94,0,0,1,1.13,3.33,29.21,29.21,0,0,1,.52,3.9c0.06,1.16-.26,5.75-0.73,10.2s-1,8.9-1.2,9.89S104,147,103.95,148a61.34,61.34,0,0,0,.41,7.14c0.3,3,1.19,8.28,2,11.84a39.94,39.94,0,0,0,2.14,7.48,23.78,23.78,0,0,0,5.17,3.34c1.71,0.9,3.19,1.69,3.95,2.11-0.13-.4-0.26-0.86-0.4-1.36-0.37-1.32-.78-3-1.15-4.63-0.78-3.56-1.66-8.89-2-11.84a61.34,61.34,0,0,1-.41-7.14c0.08-1,.3-2.58.5-3.56s0.74-5.43,1.2-9.89,0.79-9,.73-10.2a29.21,29.21,0,0,0-.52-3.9,18.94,18.94,0,0,0-1.13-3.33,16.13,16.13,0,0,0-1.79-2.81,11.78,11.78,0,0,0-2.46-2.13,13.51,13.51,0,0,0-3.16-1.28l-1-.25-0.79-.19A0.12,0.12,0,0,1,105.17,117.33Z" fill="url(#b)"/><path d="M123.49,188.19a31.7,31.7,0,0,1,3.17-.72,3.61,3.61,0,0,0,1.18-.27c0-.05-2-1.14-4.49-2.42a33.43,33.43,0,0,1-4.71-2.9,2.9,2.9,0,0,1-.47-0.44,3.08,3.08,0,0,1-.28-0.61c-0.06,0-.08,0,0,0h0l-0.15-.41-0.78.14a31.7,31.7,0,0,0-3.17.72,19.07,19.07,0,0,1-3.91.59c-1.08,0-5.39-.47-9.59-1.1s-8.34-1.31-9.21-1.53c-0.46-.11-1.06-0.28-1.66-0.46,0.24,0.4.53,0.84,0.84,1.28a18.15,18.15,0,0,0,1.66,2,11.28,11.28,0,0,0,2.8,2c0.8,0.36,2.15.89,3,1.17s2.22,0.69,3.09.91,5,0.9,9.21,1.53,8.52,1.12,9.59,1.1A19.07,19.07,0,0,0,123.49,188.19Z" fill="url(#c)"/><path d="M109.19,47.09c-0.56.48-1.48,1.39-2.05,2a5.43,5.43,0,0,0-1.2,2.62,8.62,8.62,0,0,0,.55,3.32,23.89,23.89,0,0,1,1,3.73,23.22,23.22,0,0,1,.28,3.82c0,1.06.13,3.68,0.36,5.8s0.4,4.74.39,5.8-0.7,6.28-1.53,11.6-1.77,10.39-2.09,11.27a47.61,47.61,0,0,1-2.73,5.29A21.94,21.94,0,0,1,99,106.87a9.91,9.91,0,0,1-2.67,1.28,6.06,6.06,0,0,0-2,.89c-0.22.24-.06,0.62,0.36,0.84a2.82,2.82,0,0,1,.77.51,0.12,0.12,0,0,0,.06.11l1.81,0.43a13.51,13.51,0,0,1,3.16,1.28,11.78,11.78,0,0,1,2.46,2.13,15,15,0,0,1,1.12,1.62,3.56,3.56,0,0,1,.88-0.48,9.72,9.72,0,0,1,1.08-.39,9.91,9.91,0,0,0,2.67-1.28,21.94,21.94,0,0,0,3.24-4.51,47.61,47.61,0,0,0,2.73-5.29c0.32-.88,1.26-6,2.09-11.27s1.51-10.54,1.53-11.6-0.16-3.68-.39-5.8-0.39-4.74-.36-5.8a23.22,23.22,0,0,0-.28-3.82,23.89,23.89,0,0,0-1-3.73,8.62,8.62,0,0,1-.55-3.32,5.43,5.43,0,0,1,1.2-2.62c0.57-.62,1.49-1.53,2.05-2a20.31,20.31,0,0,1,2-1.51,9.91,9.91,0,0,0,2-1.81,15.22,15.22,0,0,0,1.28-1.81c0.18-.35-1.88-1.08-4.59-1.63s-5.75-1.07-6.76-1.17l-0.56,0c-0.5,0-1.07-.06-1.63-0.08C110.13,46.33,109.58,46.75,109.19,47.09Z" fill="url(#d)"/><path d="M73.52,117.68l-0.62,0a1.71,1.71,0,0,0,.46,0,2.18,2.18,0,0,0,.62,0A0.82,0.82,0,0,0,73.52,117.68Z" fill="url(#e)"/><path d="M126,46.9l0,0s0,0-.06,0-0.06,0,0,0A0.08,0.08,0,0,0,126,46.9Z" fill="url(#f)"/><path d="M128.9,187.76a0.86,0.86,0,0,0-.48-0.28l-0.53-.19a0.32,0.32,0,0,0,0,.11,0.24,0.24,0,0,1,0,.22,0.52,0.52,0,0,1-.33.13c-0.14,0,.09,0,0.52.06A2.09,2.09,0,0,0,128.9,187.76Z" fill="url(#g)"/><path d="M126,45.56c-0.19.3-.6,1-0.91,1.62s-0.34,1.13-.06,1.18a4.77,4.77,0,0,0,1.22,0c0.39,0,.49-0.4.22-0.78a3.35,3.35,0,0,0-.56-0.69,0.34,0.34,0,0,1,0-.3,9.48,9.48,0,0,1,.26-1C126.23,45.31,126.16,45.27,126,45.56Z" fill="url(#h)"/><path d="M74.75,117.13a3.08,3.08,0,0,1-.36.29c-0.19.14-.26,0.25-0.16,0.25a1.76,1.76,0,0,0,.47-0.12c0.16-.06.24-0.19,0.17-0.28A0.22,0.22,0,0,0,74.75,117.13Z" fill="url(#i)"/><path d="M74.77,117a0,0,0,0,0,0,.06s0,0,.06,0S74.8,117,74.77,117Z" fill="url(#j)"/></svg>