<svg xmlns="http://www.w3.org/2000/svg" width="200" height="200" viewBox="0 0 200 200"><defs><linearGradient id="a" x1="72.11" y1="146.41" x2="116.41" y2="46.9" gradientUnits="userSpaceOnUse"><stop offset="0" stop-color="#fdba56"/><stop offset=".02" stop-color="#fbb055"/><stop offset=".06" stop-color="#f79d54"/><stop offset=".1" stop-color="#f59253"/><stop offset=".15" stop-color="#f48e53"/><stop offset=".3" stop-color="#ed5e4e"/><stop offset=".47" stop-color="#683a96" stop-opacity=".5"/><stop offset=".64" stop-color="#ed872b"/><stop offset=".79" stop-color="#7b76b6"/><stop offset=".9" stop-color="#f15f4f"/><stop offset="1" stop-color="#fdba56"/></linearGradient><linearGradient id="b" x1="82.4" y1="55.61" x2="126.11" y2="153.77" gradientUnits="userSpaceOnUse"><stop offset="0" stop-color="#b7151b"/><stop offset=".02" stop-color="#c52229"/><stop offset=".06" stop-color="#d7333c"/><stop offset=".11" stop-color="#e23d47"/><stop offset=".15" stop-color="#e6404b"/><stop offset=".3" stop-color="#e98a7b"/><stop offset=".47" stop-color="#7c78b8"/><stop offset=".64" stop-color="#00b0b0"/><stop offset=".79" stop-color="#7b76b6"/><stop offset="1" stop-color="#e7322f"/></linearGradient></defs><title>_</title><path d="M101.87 40.71a15.34 15.34 0 0 1-2.82.25 12.34 12.34 0 0 1-2.65-.41 17.25 17.25 0 0 0-2.14-.46 16.82 16.82 0 0 0-2.13-.09c-.6 0-1.59.09-2.16.15s-1.51.22-2.07.34a2.85 2.85 0 0 0-1.25.84 8.34 8.34 0 0 0-1.08 2.33 9.23 9.23 0 0 0-.23 3.05 11.59 11.59 0 0 0 1.08 3.2 15.61 15.61 0 0 1 1.39 3.87 13.1 13.1 0 0 1 0 3.91c-.18 1-.55 2.64-.84 3.66S86.14 64 85.74 65a22 22 0 0 0-1 3.37 19.54 19.54 0 0 0-.26 3.35c0 1 0 3.44-.16 5.43s-.18 4.29-.13 5.23a32.34 32.34 0 0 0 .38 3.42c.19.91.83 3.3 1.43 5.2a21 21 0 0 1 1.06 5.69 12.39 12.39 0 0 1-1.06 3.92 10.52 10.52 0 0 0-.86 3.18 9.78 9.78 0 0 0 .49 3.16 15.53 15.53 0 0 1 .8 3.85 43.93 43.93 0 0 1-1.07 7.37 29.46 29.46 0 0 0-.83 6.74 14.5 14.5 0 0 0 1.09 3.28 12.46 12.46 0 0 1 1.11 3.93 11.55 11.55 0 0 1-.55 4c-.33.93-.8 2.52-1 3.46s-.52 2.52-.64 3.45a32.13 32.13 0 0 0-.21 3.52c0 1 .12 2.68.26 3.71a5.07 5.07 0 0 0 .72 2.06 10.13 10.13 0 0 0 3.83-.47 36.37 36.37 0 0 1 3.76-.85 6.15 6.15 0 0 1 1.62-.11 9.69 9.69 0 0 1 2.61.81 10.94 10.94 0 0 0 2 .73 8 8 0 0 0 1.89.13 1.63 1.63 0 0 0 .98-.56 6.1 6.1 0 0 0 .62-2.17 31.49 31.49 0 0 0 .1-3.36 33.26 33.26 0 0 0-.34-3.41c-.19-1.17-.3-7-.3-11.94v-1.34c0-5 .15-10.8.39-12 .21-1 .64-2.66 1-3.67a10.42 10.42 0 0 0 0-6.51 17.7 17.7 0 0 1-.69-3.81 17.1 17.1 0 0 1 .34-3.82c.21-.93.58-3.33.81-5.23a35.3 35.3 0 0 0 .28-5.14 26.29 26.29 0 0 0-.56-3.4 30.13 30.13 0 0 1-.62-3.71 53.41 53.41 0 0 1 .49-7.32 36.88 36.88 0 0 0 .34-6.81 13.53 13.53 0 0 0-1.17-3.26 13.9 13.9 0 0 1-1.31-3.89 12.07 12.07 0 0 1 .22-3.94c.24-1 .56-2.52.7-3.46s.43-4.24.62-7.22v-.58a23.57 23.57 0 0 0-.13-5.14 1.46 1.46 0 0 0-.92-.16z" fill="url(#a)"/><path d="M103.92 46v.6c-.19 3-.48 6.33-.63 7.31s-.48 2.58-.72 3.56a11.08 11.08 0 0 0-.2 3.56 13 13 0 0 0 1.2 3.56 14.58 14.58 0 0 1 1.27 3.56 36.74 36.74 0 0 1-.33 7.11 52.44 52.44 0 0 0-.49 7.11 28.82 28.82 0 0 0 .6 3.56 27.18 27.18 0 0 1 .58 3.56 35.82 35.82 0 0 1-.28 5.34c-.23 2-.6 4.36-.82 5.33a16.18 16.18 0 0 0-.32 3.55 16.8 16.8 0 0 0 .64 3.56 11.41 11.41 0 0 1 0 7.11c-.32 1-.74 2.58-.94 3.56s-.37 6.28-.37 11.78v1.34c0 5.5.12 10.8.29 11.78a33.83 33.83 0 0 1 .35 3.54 32.08 32.08 0 0 1-.1 3.49 6.89 6.89 0 0 1-.79 2.64 2.59 2.59 0 0 1-1.69 1 9 9 0 0 1-2.18-.15 11.77 11.77 0 0 1-2.25-.81 8.67 8.67 0 0 0-2.29-.71 6.06 6.06 0 0 0-1.34.11v1.48a38.37 38.37 0 0 0 .27 3.83 5.29 5.29 0 0 0 1.1 2.73c.46.42 2.59.28 4.71-.3a21.45 21.45 0 0 1 5-.93 8.67 8.67 0 0 1 2.29.71 11.77 11.77 0 0 0 2.25.81 9 9 0 0 0 2.18.15 2.59 2.59 0 0 0 1.69-1 6.89 6.89 0 0 0 .79-2.64 32.08 32.08 0 0 0 .1-3.49 33.83 33.83 0 0 0-.35-3.54c-.16-1-.29-6.28-.29-11.78v-1.34c0-5.5.17-10.8.37-11.78s.62-2.58.94-3.56a11.41 11.41 0 0 0 0-7.11 16.8 16.8 0 0 1-.64-3.56 16.18 16.18 0 0 1 .32-3.55c.22-1 .59-3.38.82-5.33a35.82 35.82 0 0 0 .28-5.34 27.18 27.18 0 0 0-.58-3.56 28.82 28.82 0 0 1-.6-3.56 52.44 52.44 0 0 1 .49-7.11 36.74 36.74 0 0 0 .33-7.11 14.58 14.58 0 0 0-1.27-3.56 13 13 0 0 1-1.2-3.56 11.08 11.08 0 0 1 .2-3.56c.25-1 .57-2.58.72-3.56s.43-4.27.63-7.31.08-5.9-.25-6.35a2.12 2.12 0 0 0-2-.55 14.19 14.19 0 0 1-2.6.24 11.37 11.37 0 0 1-2.39-.37c-.4-.12-1-.25-1.48-.35l-.83-.14z" fill="url(#b)"/></svg>