<svg xmlns="http://www.w3.org/2000/svg" xmlns:xlink="http://www.w3.org/1999/xlink" width="77.36" height="200" viewBox="0 0 77.36 200"><defs><linearGradient id="a" x1="-2.6" y1="175.61" x2="52.9" y2="50.95" gradientUnits="userSpaceOnUse"><stop offset="0" stop-color="#fdba56"/><stop offset=".02" stop-color="#fbb055"/><stop offset=".06" stop-color="#f79d54"/><stop offset=".1" stop-color="#f59253"/><stop offset=".15" stop-color="#f48e53"/><stop offset=".3" stop-color="#ed5e4e"/><stop offset=".47" stop-color="#683a96" stop-opacity=".5"/><stop offset=".64" stop-color="#ed872b"/><stop offset=".79" stop-color="#7b76b6"/><stop offset=".9" stop-color="#f15f4f"/><stop offset="1" stop-color="#fdba56"/></linearGradient><linearGradient id="c" x1="6.52" y1="41.91" x2="6.71" y2="41.48" xlink:href="#a"/><linearGradient id="d" x1="55.95" y1="111.54" x2="56.15" y2="111.08" xlink:href="#a"/><linearGradient id="b" x1="30.65" y1="111.35" x2="31.02" y2="112.19" gradientUnits="userSpaceOnUse"><stop offset="0" stop-color="#b7151b"/><stop offset=".02" stop-color="#c52229"/><stop offset=".06" stop-color="#d7333c"/><stop offset=".11" stop-color="#e23d47"/><stop offset=".15" stop-color="#e6404b"/><stop offset=".3" stop-color="#e98a7b"/><stop offset=".47" stop-color="#7c78b8"/><stop offset=".64" stop-color="#00b0b0"/><stop offset=".79" stop-color="#7b76b6"/><stop offset="1" stop-color="#e7322f"/></linearGradient><linearGradient id="e" x1="7.69" y1="65.31" x2="58.69" y2="179.87" xlink:href="#b"/><linearGradient id="f" x1="14.63" y1="49.14" x2="14.88" y2="49.7" xlink:href="#b"/><linearGradient id="g" x1="13.66" y1="47.96" x2="13.9" y2="48.51" xlink:href="#b"/><linearGradient id="h" x1="65.88" y1="118.5" x2="66.06" y2="118.91" xlink:href="#b"/><linearGradient id="i" x1="65.12" y1="118.21" x2="65.13" y2="118.23" xlink:href="#b"/><linearGradient id="j" x1="65.7" y1="118.11" x2="65.84" y2="118.41" xlink:href="#b"/></defs><title>_</title><path d="M15.31 47.89l.35.83.23.57c.78 1.93 1.5 3.9 1.87 5.13A40 40 0 0 1 19 59.63a29.18 29.18 0 0 1 .16 3.71c0 1-.17 2.65-.29 3.67s-.41 2.66-.63 3.67A14.6 14.6 0 0 0 18 74a15.39 15.39 0 0 0 .69 3.32 11 11 0 0 1 .5 4 12.27 12.27 0 0 1-1.28 4 11.58 11.58 0 0 0-1.1 3.5A15.69 15.69 0 0 0 17 92.9c.28 1.28.78 3.16 1.12 4.19a28.06 28.06 0 0 0 1.33 3.26c.4.79 1.41 2.49 2.23 3.8a14.11 14.11 0 0 0 2.4 2.94 11.81 11.81 0 0 0 2.42 1.23c.86.3 1.95.74 2.42 1a2.46 2.46 0 0 1 1.36 1.1l.38.08a1.72 1.72 0 0 1 1.24.83 1.59 1.59 0 0 1 0 1.28 3.08 3.08 0 0 1-.42.74 5.94 5.94 0 0 1-1.9 1.45 14.88 14.88 0 0 1-2.81.9 17 17 0 0 0-2.7.85 13.52 13.52 0 0 0-2.23 1.3 8.58 8.58 0 0 0-1.63 1.75 10.73 10.73 0 0 0-1.05 2.4 18.67 18.67 0 0 0-.5 3 26.27 26.27 0 0 0 .07 3.48 14.94 14.94 0 0 1-.31 4.19 18.48 18.48 0 0 1-1.69 4.13 15.2 15.2 0 0 0-1.43 3.58 12 12 0 0 0-.12 3.51 29.53 29.53 0 0 0 .86 3.71 34.12 34.12 0 0 0 1.49 3.74 14.14 14.14 0 0 1 1.19 4.22c.11 1.38-.72 5-1.56 7.73-.94 3-2.16 6.59-2.72 8a36.53 36.53 0 0 0-1.3 3.65 23.3 23.3 0 0 0-.46 2.73 6.52 6.52 0 0 1-1.25 3.13 4.86 4.86 0 0 1-.79.73c.53-.1 1-.18 1.44-.22h1c1.63 0 4.35.17 6.55.38.69.07 1.39.12 2.07.16a25.76 25.76 0 0 0 4.78 0 35 35 0 0 0 5.52-2.71 47.74 47.74 0 0 0 5.21-3.25 19.63 19.63 0 0 0 2.18-2.33c.63-.81 2.24-2.64 3.6-4.08a15.38 15.38 0 0 0 2.65-3.58 5.46 5.46 0 0 0 .07-2.35 24.3 24.3 0 0 1-.48-3.41 33.18 33.18 0 0 1 .06-3.78c.08-1 .09-4.5 0-7.6s.08-8.44.35-11.66c.28-3.41.41-6.61.35-7.47a33.91 33.91 0 0 0-.46-3.48 24.73 24.73 0 0 1-.41-3.55 19.15 19.15 0 0 1 .26-3.31 9.12 9.12 0 0 1 1.19-3c.66-1 3.36-2.62 5-3.49l2.19-1.16-.2-.1a12.71 12.71 0 0 1-2.53-1.75 10 10 0 0 1-1.82-2.4 13.72 13.72 0 0 1-.95-2.6 13.46 13.46 0 0 1-.26-2.69 6.65 6.65 0 0 0-.57-2.29 16.6 16.6 0 0 0-1.93-2.88 11.91 11.91 0 0 1-2.07-3.68c-.36-1.27.19-4.63.92-7.29a64 64 0 0 0 1.54-6.61 20 20 0 0 0 0-3.19 21.28 21.28 0 0 1 0-3.59 22.53 22.53 0 0 1 .8-3.57 7.69 7.69 0 0 0 .25-2.8 7.47 7.47 0 0 0-1.08-2.56 8.68 8.68 0 0 1-1.37-3.37 8 8 0 0 1 .51-3.56 5.8 5.8 0 0 0 .18-2.81 13.86 13.86 0 0 0-1.72-3.73l-.31-.45a30.79 30.79 0 0 0-2.53-3.16 16.36 16.36 0 0 0-2.79-2.27 9.9 9.9 0 0 0-2.81-1 10.64 10.64 0 0 0-3.07.1c-1 .21-3.53.51-5.69.66a55.21 55.21 0 0 1-7.82-.11c-1.59-.16-3.94-.54-6-1a19.88 19.88 0 0 1 2.41 4z" fill="url(#a)"/><path d="M6.19 41.76l1-.07-1-.23a1.4 1.4 0 0 1 0 .3z" fill="url(#c)"/><path d="M56.36 111.35c.18-.14.05-.22-.29-.16s-.49.17-.33.26a.62.62 0 0 0 .62-.1z" fill="url(#d)"/><path d="M31 111.71a.94.94 0 0 0-.57-.28l.12.2.45.58a.72.72 0 0 0 0-.5z" fill="url(#b)"/><path d="M65.7 118.58l-.33-.16a1.19 1.19 0 0 1-.29-.17s-.62-.28-1.32-.63a11.75 11.75 0 0 1-2.3-1.58 9 9 0 0 1-1.61-2.11 12.92 12.92 0 0 1-.87-2.38 12.46 12.46 0 0 1-.26-2.49 7.52 7.52 0 0 0-.67-2.73 17.52 17.52 0 0 0-2.07-3.1 10.94 10.94 0 0 1-1.87-3.31c-.26-.92.15-4 .92-6.75a65 65 0 0 0 1.57-6.78 21.1 21.1 0 0 0 0-3.39 20.38 20.38 0 0 1 0-3.39 21.72 21.72 0 0 1 .71-3.39 8.64 8.64 0 0 0 .33-3.22 8.44 8.44 0 0 0-1.26-3 7.68 7.68 0 0 1-1.2-2.91 7.07 7.07 0 0 1 .46-3 6.7 6.7 0 0 0 .24-3.41A14.83 14.83 0 0 0 54 56.56a32.42 32.42 0 0 0-2.95-3.74 17.32 17.32 0 0 0-3-2.44 11 11 0 0 0-2.78-1.07l-.38-.09a7.61 7.61 0 0 0-.89-.07l.32.47a14.83 14.83 0 0 1 1.87 4.07 6.7 6.7 0 0 1-.24 3.41 7.07 7.07 0 0 0-.46 3 7.68 7.68 0 0 0 1.18 2.9 8.44 8.44 0 0 1 1.26 3 8.64 8.64 0 0 1-.28 3.25 21.72 21.72 0 0 0-.71 3.39 20.38 20.38 0 0 0 0 3.39 21.1 21.1 0 0 1 0 3.39 65 65 0 0 1-1.57 6.78c-.82 2.8-1.24 5.8-.97 6.8a10.94 10.94 0 0 0 1.87 3.31 17.52 17.52 0 0 1 2.07 3.1 7.52 7.52 0 0 1 .67 2.73 12.46 12.46 0 0 0 .26 2.49 12.92 12.92 0 0 0 .87 2.38 9 9 0 0 0 1.61 2.11 11.75 11.75 0 0 0 2.3 1.58c.7.35 1.29.63 1.32.63a1.19 1.19 0 0 0 .29.17l.34.14-3.9 2.07a18.87 18.87 0 0 0-4.66 3.18 8.09 8.09 0 0 0-1 2.59 18.28 18.28 0 0 0-.24 3.11 23.79 23.79 0 0 0 .39 3.38 34.49 34.49 0 0 1 .48 3.6c.07 1-.09 4.44-.35 7.62s-.42 8.37-.34 11.55.07 6.64 0 7.7a32.14 32.14 0 0 0-.06 3.65 23.12 23.12 0 0 0 .45 3.23 6.38 6.38 0 0 1-.09 2.89 15.73 15.73 0 0 1-2.87 4c-1.33 1.42-2.92 3.22-3.53 4a20.44 20.44 0 0 1-2.31 2.47 48.57 48.57 0 0 1-5.45 3.32 35 35 0 0 1-5.83 2.73 25.7 25.7 0 0 1-5.07 0c-.06.33-.11.67-.16 1s-.07.5-.09.71a5.58 5.58 0 0 1-1 2.58 6.17 6.17 0 0 1-2.43 1.53c-.86.28-2 .58-2.51.68a3 3 0 0 1-1.25 0 3.38 3.38 0 0 0-.64-.2 3.48 3.48 0 0 0-.68 0h-.44.08a1.16 1.16 0 0 1 .45.28 8.36 8.36 0 0 1 .68.76 2.14 2.14 0 0 0 1.53.45 14.84 14.84 0 0 0 3-.65 21.74 21.74 0 0 1 3.72-.78 58.76 58.76 0 0 1 7.36.35 34.9 34.9 0 0 0 7.18.13 35 35 0 0 0 5.81-2.57 48.57 48.57 0 0 0 5.37-3.37 20.44 20.44 0 0 0 2.31-2.47c.61-.79 2.2-2.59 3.53-4a15.73 15.73 0 0 0 2.87-4 6.38 6.38 0 0 0 .09-2.89A23.12 23.12 0 0 1 56 167a32.14 32.14 0 0 1 .06-3.65c.09-1.06.09-4.52 0-7.7s.08-8.37.34-11.55.42-6.6.35-7.62a34.49 34.49 0 0 0-.48-3.6 23.79 23.79 0 0 1-.39-3.38 18.28 18.28 0 0 1 .24-3.11 8.09 8.09 0 0 1 1-2.59 18.87 18.87 0 0 1 4.66-3.18zm-9.32-6.78c.19.11.18.11 0 0a2 2 0 0 1-.35-.2 2.14 2.14 0 0 1 .34.21zm-1-.53zm.33.17c-.16-.09 0-.21.33-.26s.47 0 .29.16a.62.62 0 0 1-.6.11z" fill="url(#e)"/><path d="M14.7 49.15c-.17.22 0 .42.27.51l-.23-.56z" fill="url(#f)"/><path d="M14.39 48.28l-.09-.21a2.89 2.89 0 0 1-.57.08h-.48.67a2.48 2.48 0 0 1 .47.13z" fill="url(#g)"/><path d="M66.08 118.75a2.14 2.14 0 0 0-.37-.18 2 2 0 0 0 .35.2c.21.09.22.09.02-.02z" fill="url(#h)"/><path d="M65.13 118.21s.01.01 0 0z" fill="url(#i)"/><path d="M66.07 118.29c.18-.14.05-.22-.29-.16s-.49.17-.33.26a.62.62 0 0 0 .62-.1z" fill="url(#j)"/></svg>