<svg xmlns="http://www.w3.org/2000/svg" xmlns:xlink="http://www.w3.org/1999/xlink" width="81.62" height="200" viewBox="0 0 81.62 200"><defs><linearGradient id="a" x1="28.14" y1="106.5" x2="43.52" y2="71.96" gradientUnits="userSpaceOnUse"><stop offset="0" stop-color="#fdba56"/><stop offset=".02" stop-color="#fbb055"/><stop offset=".06" stop-color="#f79d54"/><stop offset=".1" stop-color="#f59253"/><stop offset=".15" stop-color="#f48e53"/><stop offset=".3" stop-color="#ed5e4e"/><stop offset=".47" stop-color="#683a96" stop-opacity=".5"/><stop offset=".64" stop-color="#ed872b"/><stop offset=".79" stop-color="#7b76b6"/><stop offset=".9" stop-color="#f15f4f"/><stop offset="1" stop-color="#fdba56"/></linearGradient><linearGradient id="c" x1="24.79" y1="186.15" x2="54.44" y2="119.55" xlink:href="#a"/><linearGradient id="b" x1="41.08" y1="85.36" x2="53.64" y2="113.57" gradientUnits="userSpaceOnUse"><stop offset="0" stop-color="#b7151b"/><stop offset=".02" stop-color="#c52229"/><stop offset=".06" stop-color="#d7333c"/><stop offset=".11" stop-color="#e23d47"/><stop offset=".15" stop-color="#e6404b"/><stop offset=".3" stop-color="#e98a7b"/><stop offset=".47" stop-color="#7c78b8"/><stop offset=".64" stop-color="#00b0b0"/><stop offset=".79" stop-color="#7b76b6"/><stop offset="1" stop-color="#e7322f"/></linearGradient><linearGradient id="d" x1="30.03" y1="128.35" x2="58.61" y2="192.55" xlink:href="#b"/></defs><title>_</title><path d="M52.57 78.2a6.43 6.43 0 0 0-1.4-2.55 7.38 7.38 0 0 0-2.75-1.42 19.56 19.56 0 0 0-3.74-.49 21 21 0 0 0-3.75.41c-1.13.26-3 .56-4.1.68s-4.82.12-8.35 0a22.14 22.14 0 0 0-6.46.48 18 18 0 0 0 0 6 66.78 66.78 0 0 1 .64 7.91 20.31 20.31 0 0 1-.71 4A38.49 38.49 0 0 0 21.1 97c-.19 1.1-.4 3-.48 4.21a3.38 3.38 0 0 0 .57 2.22 4.19 4.19 0 0 0 2.58.06 28.67 28.67 0 0 1 4.71-.74h1.41c1.78.13 4.52.49 7 .92a47.07 47.07 0 0 0 7.64.87 16.11 16.11 0 0 0 3.44-.81 5 5 0 0 0 2-1.46 3.59 3.59 0 0 0 .24-2.12c-.21-1-.46-2.55-.56-3.55s-.18-2.67-.18-3.74a18.52 18.52 0 0 1 .53-4 22.16 22.16 0 0 1 1.57-3.95 12.76 12.76 0 0 0 1.15-3.4 9.41 9.41 0 0 0 0-1.77 9.1 9.1 0 0 0-.15-1.54z" fill="url(#a)"/><path d="M45.26 121.08c0-.4 0-.8.06-1.2a19.07 19.07 0 0 0-.09-4.43 2.62 2.62 0 0 0-.95.15 11.77 11.77 0 0 1-2.94.67 17.64 17.64 0 0 1-4.85-1.06 14.58 14.58 0 0 0-3.73-.86 4.16 4.16 0 0 0-1.4.67 3.82 3.82 0 0 0-1 1.26 5 5 0 0 0-.22 1.81 24.63 24.63 0 0 1 0 2.73 27.21 27.21 0 0 1-.33 2.81 10.82 10.82 0 0 1-1.11 3 14.63 14.63 0 0 1-2.15 2.69 7.54 7.54 0 0 0-1.51 2.15 5.52 5.52 0 0 0-.23 2.26 10.94 10.94 0 0 1-.05 3.15 11.07 11.07 0 0 1-1.13 3 9.33 9.33 0 0 0-.9 2.33 9.12 9.12 0 0 0-.05 2.47 21.47 21.47 0 0 1 .18 3 39.07 39.07 0 0 1-1.11 5.71 44.6 44.6 0 0 0-1.11 5.4 44.35 44.35 0 0 0 .76 6.17 42.93 42.93 0 0 1 .77 6.78 15.78 15.78 0 0 1-.74 3.52 27 27 0 0 0-.87 3.31 35.71 35.71 0 0 0-.43 3.76 3.1 3.1 0 0 0 .67 2.13 13.59 13.59 0 0 0 5.1.46c1.08-.06 2.23-.09 3.3-.11h1.15c1 0 1.86 0 2.35.07a37.18 37.18 0 0 0 3.94.12 38.71 38.71 0 0 0 4-.4c1.17-.19 4-.41 6.37-.49a15 15 0 0 0 4.48-.7A34.38 34.38 0 0 0 52 175a93.11 93.11 0 0 1 .07-10.1 28.54 28.54 0 0 1 .91-3.46 13.78 13.78 0 0 0 .62-2.93 9.88 9.88 0 0 0-.24-2.59 16.13 16.13 0 0 0-1-2.52 18.42 18.42 0 0 0-1.52-2.4 15.35 15.35 0 0 1-1.64-2.77 29.48 29.48 0 0 1-1.11-5.74 38.08 38.08 0 0 1-.31-5.81 19.59 19.59 0 0 1 .67-3.12 5.35 5.35 0 0 0 .12-2.3 6.05 6.05 0 0 0-1.22-2.11 10.31 10.31 0 0 1-1.84-2.86c-.39-1.15-.27-4.54-.25-5.21z" fill="url(#c)"/><path d="M53.78 79.71a10.46 10.46 0 0 1 0 2 13.78 13.78 0 0 1-1.26 3.73 21.36 21.36 0 0 0-1.52 3.7 17.63 17.63 0 0 0-.5 3.73c0 1 .08 2.66.18 3.64s.32 2.49.53 3.44a4.5 4.5 0 0 1-.36 2.85 5.85 5.85 0 0 1-2.53 1.87 17.08 17.08 0 0 1-3.71.87 46.7 46.7 0 0 1-7.91-.88c-2.49-.44-5.2-.79-6.89-.91 0 .29-.1.63-.15 1-.15 1.08-.28 2.39-.34 3.32a4 4 0 0 0 1 3.08 4.84 4.84 0 0 0 3.44.23 27.46 27.46 0 0 1 4.51-.71 55 55 0 0 1 8.18 1 46.7 46.7 0 0 0 7.91.88 17.08 17.08 0 0 0 3.71-.87 5.85 5.85 0 0 0 2.53-1.87 4.5 4.5 0 0 0 .36-2.85c-.2-.92-.44-2.46-.54-3.44s-.18-2.61-.18-3.64a17.63 17.63 0 0 1 .5-3.73 21.36 21.36 0 0 1 1.49-3.73 13.78 13.78 0 0 0 1.26-3.73 11.67 11.67 0 0 0-.19-3.71 7.4 7.4 0 0 0-1.68-3 8.35 8.35 0 0 0-3.2-1.67 21.13 21.13 0 0 0-3.6-.5h-1z" fill="url(#b)"/><path d="M63.63 168.72a14.87 14.87 0 0 0 .68-3.19 10.79 10.79 0 0 0-.27-2.92 17.14 17.14 0 0 0-1-2.71 19.5 19.5 0 0 0-1.62-2.56 14.43 14.43 0 0 1-1.52-2.55 29.09 29.09 0 0 1-1-5.45 37.47 37.47 0 0 1-.31-5.58 19 19 0 0 1 .63-2.93 6.27 6.27 0 0 0 .08-2.83 7 7 0 0 0-1.46-2.56 9.32 9.32 0 0 1-1.63-2.53 22.47 22.47 0 0 1-.17-6c.18-2.57 0-4.93-.33-5.24a2.37 2.37 0 0 0-2.06 0 10.81 10.81 0 0 1-2.64.6 15.65 15.65 0 0 1-3.75-.78l-.73-.23-.26-.08a18.59 18.59 0 0 0 .23 4.82 9.32 9.32 0 0 0 1.63 2.53 7 7 0 0 1 1.46 2.47 6.27 6.27 0 0 1-.14 2.84 19 19 0 0 0-.63 2.93 37.47 37.47 0 0 0 .31 5.58 29.09 29.09 0 0 0 1 5.45 14.43 14.43 0 0 0 1.52 2.55 19.5 19.5 0 0 1 1.64 2.65 17.14 17.14 0 0 1 1 2.71 10.79 10.79 0 0 1 .27 2.92 14.87 14.87 0 0 1-.68 3.19 27.49 27.49 0 0 0-.88 3.31 94 94 0 0 0 0 9.87c.13 4.54-.2 8.62-.74 9.09s-2.87.9-5.17 1-5.11.29-6.24.47a39 39 0 0 1-4.09.41 37.89 37.89 0 0 1-4.07-.12c-.65-.06-1.93-.08-3.39-.06 0 .31-.09.65-.14 1-.1.83-.19 1.73-.23 2.41a4 4 0 0 0 1 3c.63.5 3.23.81 5.77.67a63.35 63.35 0 0 1 6.65 0 37.89 37.89 0 0 0 4.07.12 39 39 0 0 0 4.09-.41c1.13-.19 3.94-.4 6.24-.47s4.63-.51 5.17-1 .87-4.55.74-9.09a94 94 0 0 1 .06-9.89 27.49 27.49 0 0 1 .91-3.41z" fill="url(#d)"/></svg>