<svg xmlns="http://www.w3.org/2000/svg" xmlns:xlink="http://www.w3.org/1999/xlink" width="200" height="200" viewBox="0 0 200 200"><defs><linearGradient id="a" x1="65.75" y1="145.31" x2="115.66" y2="33.23" gradientUnits="userSpaceOnUse"><stop offset="0" stop-color="#fdba56"/><stop offset="0.02" stop-color="#fbb055"/><stop offset="0.06" stop-color="#f79d54"/><stop offset="0.1" stop-color="#f59253"/><stop offset="0.15" stop-color="#f48e53"/><stop offset="0.3" stop-color="#ed5e4e"/><stop offset="0.47" stop-color="#683a96" stop-opacity="0.5"/><stop offset="0.64" stop-color="#ed872b"/><stop offset="0.79" stop-color="#7b76b6"/><stop offset="0.9" stop-color="#f15f4f"/><stop offset="1" stop-color="#fdba56"/></linearGradient><linearGradient id="b" x1="133.21" y1="53.04" x2="144.15" y2="77.63" gradientUnits="userSpaceOnUse"><stop offset="0" stop-color="#b7151b"/><stop offset="0.02" stop-color="#c52229"/><stop offset="0.06" stop-color="#d7333c"/><stop offset="0.11" stop-color="#e23d47"/><stop offset="0.15" stop-color="#e6404b"/><stop offset="0.3" stop-color="#e98a7b"/><stop offset="0.47" stop-color="#7c78b8"/><stop offset="0.64" stop-color="#00b0b0"/><stop offset="0.79" stop-color="#7b76b6"/><stop offset="1" stop-color="#e7322f"/></linearGradient><linearGradient id="c" x1="127.43" y1="90.58" x2="135.49" y2="108.68" xlink:href="#b"/><linearGradient id="d" x1="112.82" y1="122.84" x2="127.66" y2="156.18" xlink:href="#b"/><linearGradient id="e" x1="81.59" y1="49.46" x2="94.29" y2="78" xlink:href="#b"/><linearGradient id="f" x1="56.34" y1="92.43" x2="62.32" y2="105.88" xlink:href="#b"/><linearGradient id="g" x1="59.68" y1="120.15" x2="65.55" y2="133.34" xlink:href="#b"/></defs><title>_</title><path d="M76,148.73a4.6,4.6,0,0,0,1.43,1.76,4.69,4.69,0,0,0,2.25.42,21.73,21.73,0,0,1,3.71.08L84,151.07a32.25,32.25,0,0,1,3.38.73,32.49,32.49,0,0,0,3.86.8,30.47,30.47,0,0,0,3.85.2h0.22c1.27,0,4.08.21,6.49,0.49a12.05,12.05,0,0,0,5.08-.23,4,4,0,0,0,.93-2.47,23.39,23.39,0,0,0-.27-4.14,19.79,19.79,0,0,0-1.14-3.73,20,20,0,0,1-1.23-4,39.93,39.93,0,0,1,.31-7.68c0.07-.61.75-6,2.29-7a7.11,7.11,0,0,1,4-.73c1.15,0.12,4.12.24,6.49,0.26a60,60,0,0,0,6.49-.24c1.19-.16,3.14-0.54,4.34-0.84a20.24,20.24,0,0,1,4.82-.49,23.28,23.28,0,0,1,5,.89,8.71,8.71,0,0,0,3.28.42,1.57,1.57,0,0,0,1-.94,9.63,9.63,0,0,0,.3-2.21,5.23,5.23,0,0,0-.37-1.65c-0.26-.54-0.6-1.39-0.79-1.93s-0.32-1-.45-1.59l-0.08-.35a11.75,11.75,0,0,1-.18-2.27,19.72,19.72,0,0,1,.3-2.6,1.06,1.06,0,0,0-.33-0.93,34.84,34.84,0,0,0-7.12-.1A85.7,85.7,0,0,0,123.69,110l-1.44.3a50.23,50.23,0,0,1-5.16.81,29.57,29.57,0,0,1-4.57-.14,8.58,8.58,0,0,1-3.54-1.14c-1.44-1.14.21-4.21,0.56-4.81a50,50,0,0,1,3-4.64A20.39,20.39,0,0,0,114.16,98a9.41,9.41,0,0,0,.59-1.67,2.86,2.86,0,0,1,1.85-2,6.81,6.81,0,0,1,3.11.14,8.5,8.5,0,0,0,2.87.14,10.83,10.83,0,0,0,3-1.12,10.82,10.82,0,0,1,3.74-1.26,9.58,9.58,0,0,1,3.79.56,22.12,22.12,0,0,0,3.2.93,16.77,16.77,0,0,0,3.29.31,4.65,4.65,0,0,0,1.84-.34,1.11,1.11,0,0,0,0-.52,10.07,10.07,0,0,1-.49-2.38,7.61,7.61,0,0,1,.27-2.26c0.09-.3.3-0.86,0.54-1.48,0.17-.44.36-0.92,0.54-1.35a7.48,7.48,0,0,0,.53-1.85,10.37,10.37,0,0,0-2.08-1.59A18.93,18.93,0,0,0,138.28,81a3.3,3.3,0,0,0-.59-0.21,23.76,23.76,0,0,0-4.19.56,27.07,27.07,0,0,1-4.86.65,8.25,8.25,0,0,1-2.36-.58A2.56,2.56,0,0,1,125,78.66a12.61,12.61,0,0,1,1.76-3.73,35.46,35.46,0,0,0,2.35-4.27,38.53,38.53,0,0,0,1.67-4.74,44.41,44.41,0,0,1,1.75-5.08c0.57-1.33,2.78-5.58,4.92-9.46,0.26-.47.51-0.94,0.75-1.4a27.93,27.93,0,0,0,2.41-5.66,4,4,0,0,0-1.74,0,38.29,38.29,0,0,1-4.75.52,88.39,88.39,0,0,1-9-.77c-3.51-.45-7.44-0.77-8.56-0.8a37.48,37.48,0,0,0-4.1.32A9.69,9.69,0,0,0,109,44.9a13.05,13.05,0,0,0-2.8,3c-0.71,1.12-3.27,6.17-5.58,11l-0.18.37c-2.31,4.87-4.67,10.16-5.15,11.56-0.11.33-.23,0.71-0.36,1.13-0.43,1.43-.9,3.19-1.15,4.38C93,80.23,92,80.2,91.58,80.18s-1.4,0-2.1-3.86a24.1,24.1,0,0,0-1.72-5.25,19.91,19.91,0,0,0-3-4.18,18.21,18.21,0,0,1-3.18-4.59,18.06,18.06,0,0,1-1.27-5.42,25.66,25.66,0,0,0-.86-5c-0.12-.38-0.28-0.83-0.47-1.31a24.22,24.22,0,0,0-1.56-3.22,8.94,8.94,0,0,0-2.8-2.81,6.74,6.74,0,0,0-3.5-.42c-1.3.23-4.38,0.58-6.87,0.78a37.53,37.53,0,0,1-6.95,0,30.06,30.06,0,0,1-4.63-1.25,17.25,17.25,0,0,0-4-.9,12.42,12.42,0,0,0-3.59.4,2.84,2.84,0,0,0-1.55,1.11,29.91,29.91,0,0,0,3,7.07c1.94,3.59,5.24,10.68,7.37,15.8l0.24,0.59c0.16,0.38,3.92,9.45,3.88,10.93a2.55,2.55,0,0,1-1.88,2.45,7.65,7.65,0,0,1-2.54,0A10.75,10.75,0,0,1,51,80.17a6.81,6.81,0,0,0-2-.63,12.22,12.22,0,0,0-3.13.51,34.28,34.28,0,0,1-3.54.83,2.62,2.62,0,0,0-.87.28,0.66,0.66,0,0,0,0,.3,17.81,17.81,0,0,1,.41,1.75c0.1,0.56.26,2.32,0.35,3.7a25.28,25.28,0,0,1,0,3.77,7.61,7.61,0,0,1-.49,1.61c0.92,0.24,4,.79,8.17,1.35l1.17,0.15c4.38,0.57,7.8.88,8.46,0.84a15.55,15.55,0,0,0,3.15-.6A5.62,5.62,0,0,1,66,93.86a2.71,2.71,0,0,1,1.46,2.52,6.32,6.32,0,0,0,.31,1.87,4.82,4.82,0,0,0,.94,1.39,15.7,15.7,0,0,1,1.52,1.72c0.11,0.15.27,0.38,0.44,0.64,0.39,0.61.86,1.41,1.23,2.08,0.56,1,1.21,2.08,1.46,2.43A1.83,1.83,0,0,1,73.7,108a1.64,1.64,0,0,1-.92,1.08c-0.91.41-8.8,0.19-11.2,0.11l-10.28-.33A78.61,78.61,0,0,0,41,109a1,1,0,0,0,.07.58,5.91,5.91,0,0,1,.43,3,5.4,5.4,0,0,1-1.44,2.56,2,2,0,0,0-.58,1,2.67,2.67,0,0,0,.79,1.13,5.52,5.52,0,0,1,1.65,2.43,4.25,4.25,0,0,1-.45,2.78,0.54,0.54,0,0,0,0,.54,7.66,7.66,0,0,0,2.63.87,16.29,16.29,0,0,0,4.21,0l0.6-.12a18.78,18.78,0,0,0,3.57-1.19,21.37,21.37,0,0,1,4.69-1.52,18.47,18.47,0,0,1,4.73-.1c1.19,0.15,3.2.31,4.5,0.34s3.47,0,4.85-.1,3.48,0.29,4.34,1.21,1,2.87.64,4.27c-0.18.72-.39,1.72-0.55,2.68-0.1.57-.18,1.12-0.22,1.54a25.57,25.57,0,0,0-.07,3.77c0.08,1.06.12,2.79,0.1,3.86s-0.16,2.8-.3,3.86a16.25,16.25,0,0,0,0,3.33A13.1,13.1,0,0,0,76,148.73Z" fill="url(#a)"/><path d="M138.29,51.86c-2.12,3.84-4.31,8.06-4.87,9.37a43.31,43.31,0,0,0-1.71,4.95A39.31,39.31,0,0,1,130,71.07a36.22,36.22,0,0,1-2.43,4.42A11.8,11.8,0,0,0,126,78.83a1.59,1.59,0,0,0,.74,1.68,7.36,7.36,0,0,0,2,.5,27.72,27.72,0,0,0,4.59-.63,22.56,22.56,0,0,1,4.53-.57,4,4,0,0,1,.83.27c0.16-.3.32-0.6,0.47-0.89s0.42-.83.57-1.17a39.31,39.31,0,0,0,1.72-4.89,43.31,43.31,0,0,1,1.71-4.95c0.56-1.31,2.76-5.53,4.87-9.37s3.59-7.44,3.27-8-1.63-.81-2.91-0.57a36.82,36.82,0,0,1-4.6.5c-0.64,0-2-.06-3.63-0.21l-1.07-.1C138.81,50.91,138.55,51.38,138.29,51.86Z" fill="url(#b)"/><path d="M142.64,87.39c-0.23.59-.42,1.13-0.51,1.42a6.68,6.68,0,0,0-.23,1.92,9.07,9.07,0,0,0,.43,2.1,1.57,1.57,0,0,1-.31,1.64,5,5,0,0,1-2.45.55,22.45,22.45,0,0,1-3.48-.32,22.91,22.91,0,0,1-3.38-1,8.64,8.64,0,0,0-3.33-.49,9.83,9.83,0,0,0-3.33,1.13,11.75,11.75,0,0,1-3.32,1.24,9.45,9.45,0,0,1-3.29-.16,6,6,0,0,0-2.57-.15,1.89,1.89,0,0,0-1.16,1.26,10.35,10.35,0,0,1-.67,1.89,21.05,21.05,0,0,1-1.73,2.55,48.81,48.81,0,0,0-2.92,4.53c-0.9,1.58-1.26,3.17-.8,3.53a7.86,7.86,0,0,0,3,.94,28.09,28.09,0,0,0,4.38.13,49.76,49.76,0,0,0,5-.79c0.31-.46.59-0.87,0.83-1.19l0.15-.21a21.05,21.05,0,0,0,1.73-2.55,10.35,10.35,0,0,0,.67-1.89,1.89,1.89,0,0,1,1.16-1.26,6,6,0,0,1,2.57.15,9.45,9.45,0,0,0,3.29.16,11.75,11.75,0,0,0,3.32-1.24,9.83,9.83,0,0,1,3.33-1.13,8.64,8.64,0,0,1,3.33.49,22.91,22.91,0,0,0,3.38,1,22.45,22.45,0,0,0,3.48.32,5,5,0,0,0,2.45-.55,1.57,1.57,0,0,0,.31-1.64,9.07,9.07,0,0,1-.43-2.1,6.68,6.68,0,0,1,.23-1.92c0.15-.5.62-1.74,1-2.74a6.11,6.11,0,0,0,.59-2.53,7.46,7.46,0,0,0-2.55-2.15,13.57,13.57,0,0,0-3.38-1.59,19,19,0,0,0-3.74.42l-0.79.15Z" fill="url(#c)"/><path d="M152.12,131.22a2.55,2.55,0,0,0,1.75-1.66,10.5,10.5,0,0,0,.33-2.49,6.17,6.17,0,0,0-.47-2.05c-0.24-.5-0.57-1.33-0.74-1.83a18.39,18.39,0,0,1-.5-1.83,10.79,10.79,0,0,1-.16-2,19,19,0,0,1,.28-2.45,2,2,0,0,0-.78-2c-0.57-.35-4-0.47-7.71-0.25l-0.26,0-1,.07c0.12,0.49.29,1.1,0.42,1.5s0.5,1.33.74,1.83a6.17,6.17,0,0,1,.47,2.05,10.5,10.5,0,0,1-.33,2.49,2.55,2.55,0,0,1-1.75,1.66,9.48,9.48,0,0,1-3.79-.45,22.21,22.21,0,0,0-4.72-.85,19.16,19.16,0,0,0-4.54.46c-1.22.31-3.22,0.7-4.45,0.86a60.91,60.91,0,0,1-6.64.25c-2.43,0-5.39-.15-6.58-0.27a6.17,6.17,0,0,0-3.36.57c-0.66.44-1.49,3.28-1.85,6.31a39.19,39.19,0,0,0-.32,7.4,19.24,19.24,0,0,0,1.16,3.75,20.66,20.66,0,0,1,1.21,4,24.28,24.28,0,0,1,.28,4.35,4.86,4.86,0,0,1-1.33,3.23c-0.68.52-3.29,0.71-5.8,0.42a65.27,65.27,0,0,0-6.57-.48,31.44,31.44,0,0,1-4-.21,33.35,33.35,0,0,1-4-.83,30.81,30.81,0,0,0-3.27-.7c0,0.29,0,.56.06,0.79,0,0.08,0,.16,0,0.24a14.25,14.25,0,0,0,.84,3,5.55,5.55,0,0,0,1.84,2.22,5.64,5.64,0,0,0,2.85.55,21.17,21.17,0,0,1,3.51.07,29.37,29.37,0,0,1,3.84.79,33.35,33.35,0,0,0,4,.83,31.44,31.44,0,0,0,4,.21,65.27,65.27,0,0,1,6.57.48c2.51,0.29,5.12.1,5.8-.42a4.86,4.86,0,0,0,1.33-3.23,24.28,24.28,0,0,0-.28-4.35,20.66,20.66,0,0,0-1.21-4,19.24,19.24,0,0,1-1.16-3.75,39.19,39.19,0,0,1,.32-7.4c0.36-3,1.19-5.88,1.85-6.31a6.17,6.17,0,0,1,3.36-.57c1.19,0.12,4.15.24,6.58,0.27a60.91,60.91,0,0,0,6.64-.25c1.22-.17,3.22-0.55,4.45-0.86a19.16,19.16,0,0,1,4.54-.46,22.21,22.21,0,0,1,4.72.85A9.48,9.48,0,0,0,152.12,131.22Z" fill="url(#d)"/><path d="M79.9,50.21c0.2,0.5.38,1,.5,1.39a26.48,26.48,0,0,1,.91,5.22,17.21,17.21,0,0,0,1.19,5.07,17.37,17.37,0,0,0,3,4.29,20.81,20.81,0,0,1,3.18,4.44,24.92,24.92,0,0,1,1.8,5.51c0.31,1.66.83,3,1.16,3s0.89-1.32,1.24-3c0.27-1.26.74-3,1.17-4.46-0.25-.33-0.49-0.68-0.73-1a13.73,13.73,0,0,1-1.09-1.9A17.21,17.21,0,0,1,91,63.76a26.48,26.48,0,0,0-.91-5.22A25.17,25.17,0,0,0,88,53.78a9.83,9.83,0,0,0-3.21-3.18,7.71,7.71,0,0,0-3.86-.54l-0.27,0Z" fill="url(#e)"/><path d="M69.39,102.58l0.45,0c-0.15-.24-0.29-0.45-0.4-0.59A14.91,14.91,0,0,0,68,100.35a5.81,5.81,0,0,1-1.18-1.75,7.23,7.23,0,0,1-.38-2.24,1.77,1.77,0,0,0-.84-1.59,4.82,4.82,0,0,0-2.56.2,16.52,16.52,0,0,1-3.4.65c-0.85,0-4.6-.32-8.64-0.84,0,0.35,0,.69,0,1a12.14,12.14,0,0,1,0,1.66,6.49,6.49,0,0,1-.47,1.47,0.92,0.92,0,0,0,.27,1.11,64.54,64.54,0,0,0,8.73,1.53c3.74,0.5,7.44.9,9.09,1C69,102.58,69.24,102.59,69.39,102.58Z" fill="url(#f)"/><path d="M75.3,126.5a4.14,4.14,0,0,0-.41-3.34,5.23,5.23,0,0,0-3.54-.89c-1.41.09-3.63,0.14-4.94,0.11s-3.38-.19-4.6-0.35a17.76,17.76,0,0,0-4.43.1A20.61,20.61,0,0,0,53,123.57a19.83,19.83,0,0,1-3.79,1.27L49.34,125a4.72,4.72,0,0,1,.61.65,3.76,3.76,0,0,1,.72,1.25,3.32,3.32,0,0,1-.35,2.06,1.5,1.5,0,0,0,.25,1.79,8.15,8.15,0,0,0,3.12,1.1,17.36,17.36,0,0,0,4.52,0,19.13,19.13,0,0,0,4.46-1.39,20.61,20.61,0,0,1,4.43-1.44,17.76,17.76,0,0,1,4.43-.1c0.59,0.08,1.39.15,2.21,0.22l1,0.07C74.89,128.31,75.1,127.27,75.3,126.5Z" fill="url(#g)"/></svg>