<svg xmlns="http://www.w3.org/2000/svg" xmlns:xlink="http://www.w3.org/1999/xlink" width="82.55" height="200" viewBox="0 0 82.55 200"><defs><linearGradient id="a" x1="46.17" y1="63.61" x2="55.88" y2="41.81" gradientUnits="userSpaceOnUse"><stop offset="0" stop-color="#fdba56"/><stop offset=".02" stop-color="#fbb055"/><stop offset=".06" stop-color="#f79d54"/><stop offset=".1" stop-color="#f59253"/><stop offset=".15" stop-color="#f48e53"/><stop offset=".3" stop-color="#ed5e4e"/><stop offset=".47" stop-color="#683a96" stop-opacity=".5"/><stop offset=".64" stop-color="#ed872b"/><stop offset=".79" stop-color="#7b76b6"/><stop offset=".9" stop-color="#f15f4f"/><stop offset="1" stop-color="#fdba56"/></linearGradient><linearGradient id="c" x1="10.83" y1="64.86" x2="20.88" y2="42.29" xlink:href="#a"/><linearGradient id="b" x1="58.42" y1="52.98" x2="66.81" y2="71.82" gradientUnits="userSpaceOnUse"><stop offset="0" stop-color="#b7151b"/><stop offset=".02" stop-color="#c52229"/><stop offset=".06" stop-color="#d7333c"/><stop offset=".11" stop-color="#e23d47"/><stop offset=".15" stop-color="#e6404b"/><stop offset=".3" stop-color="#e98a7b"/><stop offset=".47" stop-color="#7c78b8"/><stop offset=".64" stop-color="#00b0b0"/><stop offset=".79" stop-color="#7b76b6"/><stop offset="1" stop-color="#e7322f"/></linearGradient><linearGradient id="d" x1="22.62" y1="53.36" x2="30.78" y2="71.69" xlink:href="#b"/></defs><title>_</title><path d="M62.91 44.94a39.52 39.52 0 0 0-6.82-.63c-3.77-.12-7.11-.1-7.85 0a28.08 28.08 0 0 1-3.45.18 30.45 30.45 0 0 1-3.54-.34 3.56 3.56 0 0 0-1.71.08 1.9 1.9 0 0 0-.06.91 22.25 22.25 0 0 1 .31 2.86 19 19 0 0 1-.13 2.74c0 .35-.08.86-.11 1.41v.94a17.68 17.68 0 0 0 .27 2.34c.1.5.2 1.19.28 1.83 0 .25.05.49.07.69a18.65 18.65 0 0 1 0 2.32 1.25 1.25 0 0 0 .26.78 4 4 0 0 0 1.6.49c.76.07 2.08.12 2.89.11s2.22-.11 3.07-.21h1.79a15.53 15.53 0 0 1 1.69.08 19.21 19.21 0 0 1 3.46.8 11.3 11.3 0 0 0 2.85.52 8.79 8.79 0 0 0 2.63-.45 6.94 6.94 0 0 0 1.91-1.09A2.91 2.91 0 0 0 63 60a15.2 15.2 0 0 0 .18-2 21 21 0 0 0-.13-2.25A15.28 15.28 0 0 1 63 53a16.13 16.13 0 0 1 .53-2.7c0-.08 0-.16.06-.25a10.67 10.67 0 0 0 .31-1.94 8.92 8.92 0 0 0-.24-2.06 2.38 2.38 0 0 0-.75-1.11z" fill="url(#a)"/><path d="M27.5 45.27a6.72 6.72 0 0 0-2-.71 25.75 25.75 0 0 0-2.84-.26c-.79 0-2.19 0-3 .11a25.25 25.25 0 0 1-3.42 0 26 26 0 0 1-3.41-.52 17.29 17.29 0 0 0-3-.38h-.17a15.94 15.94 0 0 0-2.8.29 4.75 4.75 0 0 0-1.86.84 1.94 1.94 0 0 0-.43 1.14c0 .67-.07 2.31-.2 3.71s-.21 2.94-.2 3.59a19.56 19.56 0 0 0 .22 2.36 17.27 17.27 0 0 1 .2 2.76 20.2 20.2 0 0 1-.31 2.87 1.49 1.49 0 0 0 .12 1 4.28 4.28 0 0 0 1.64 0 32 32 0 0 1 3.53-.38 28.89 28.89 0 0 1 3.45.11h.2c.9.08 2.15.13 2.93.11s3-.2 4.71-.39a46.59 46.59 0 0 1 4.76-.34 3.72 3.72 0 0 0 1.67-.32 1.34 1.34 0 0 0 .41-.78 19.34 19.34 0 0 0 0-2c0-.59-.13-1.63-.23-2.29a11 11 0 0 1 0-2.8 12.37 12.37 0 0 1 .84-2.76l.18-.23a6.75 6.75 0 0 0 .44-1.79 4.49 4.49 0 0 0-.34-1.68 3.8 3.8 0 0 0-1.09-1.26z" fill="url(#c)"/><path d="M74.23 57.54a11.43 11.43 0 0 0 .41-2.45 9.83 9.83 0 0 0-.27-2.35A3.3 3.3 0 0 0 73.14 51c-.51-.31-3.8-.66-7.31-.78h-1.2c0 .13-.06.27-.1.38a15.17 15.17 0 0 0-.53 2.5 14.38 14.38 0 0 0 0 2.5 21.72 21.72 0 0 1 .21 2.4 16.07 16.07 0 0 1-.21 2.14 3.84 3.84 0 0 1-1 1.79 7.82 7.82 0 0 1-2.26 1.3 10.11 10.11 0 0 1-3 .51 12.11 12.11 0 0 1-3.16-.58 18.51 18.51 0 0 0-3.25-.75 17.34 17.34 0 0 0-2.84 0v.16c0 .24.09.53.14.83a26 26 0 0 1 .19 1.56 17.79 17.79 0 0 1 0 2.17 2.16 2.16 0 0 0 .61 1.62 4.68 4.68 0 0 0 2.15.73c.8.08 2.15.13 3 .12s2.27-.11 3.17-.21a17.16 17.16 0 0 1 3.25 0 18.51 18.51 0 0 1 3.25.75 12.11 12.11 0 0 0 3.16.58 10.11 10.11 0 0 0 3-.51 7.82 7.82 0 0 0 2.26-1.3 3.84 3.84 0 0 0 1-1.79 16.07 16.07 0 0 0 .19-2.15 21.72 21.72 0 0 0-.14-2.39 14.38 14.38 0 0 1 0-2.5 15.17 15.17 0 0 1 .51-2.54z" fill="url(#b)"/><path d="M39 57.54l.07-.19c-.07-.58-.17-1.26-.27-1.75a18.74 18.74 0 0 1-.29-2.51v-1a4.24 4.24 0 0 0-.8-.72l-.16-.08a7.76 7.76 0 0 0-2.25-.78 26.59 26.59 0 0 0-3-.28h-1.87l-1.08.07c0 .09-.07.19-.11.27a11.42 11.42 0 0 0-.76 2.5 10 10 0 0 0 0 2.5c.1.69.21 1.76.24 2.39a20.12 20.12 0 0 1 0 2.17 2.28 2.28 0 0 1-.86 1.53 4.8 4.8 0 0 1-2.23.48c-.8 0-2.88.14-4.62.34s-3.9.38-4.8.4-2.13 0-3-.11c0 .3.08.65.1 1s.06.94 0 1.31a19.32 19.32 0 0 1-.29 2.7 2.13 2.13 0 0 0 .46 1.92A3.94 3.94 0 0 0 16 70a31.06 31.06 0 0 1 3.4-.36 28.24 28.24 0 0 1 3.31.1 30.92 30.92 0 0 0 3.26.13c.9 0 3.06-.2 4.8-.4s3.82-.35 4.62-.34a4.8 4.8 0 0 0 2.23-.48 2.28 2.28 0 0 0 .86-1.53 20.12 20.12 0 0 0 0-2.17c0-.63-.14-1.7-.24-2.39a10 10 0 0 1-.06-1.86c0-.23 0-.45.06-.64a11.42 11.42 0 0 1 .76-2.52z" fill="url(#d)"/></svg>