<svg xmlns="http://www.w3.org/2000/svg" width="200" height="200" viewBox="0 0 200 200"><defs><linearGradient id="a" x1="94.93" y1="67.61" x2="109.46" y2="34.97" gradientUnits="userSpaceOnUse"><stop offset="0" stop-color="#fdba56"/><stop offset=".02" stop-color="#fbb055"/><stop offset=".06" stop-color="#f79d54"/><stop offset=".1" stop-color="#f59253"/><stop offset=".15" stop-color="#f48e53"/><stop offset=".3" stop-color="#ed5e4e"/><stop offset=".47" stop-color="#683a96" stop-opacity=".5"/><stop offset=".64" stop-color="#ed872b"/><stop offset=".79" stop-color="#7b76b6"/><stop offset=".9" stop-color="#f15f4f"/><stop offset="1" stop-color="#fdba56"/></linearGradient><linearGradient id="b" x1="108.77" y1="50.96" x2="115.46" y2="65.99" gradientUnits="userSpaceOnUse"><stop offset="0" stop-color="#b7151b"/><stop offset=".02" stop-color="#c52229"/><stop offset=".06" stop-color="#d7333c"/><stop offset=".11" stop-color="#e23d47"/><stop offset=".15" stop-color="#e6404b"/><stop offset=".3" stop-color="#e98a7b"/><stop offset=".47" stop-color="#7c78b8"/><stop offset=".64" stop-color="#00b0b0"/><stop offset=".79" stop-color="#7b76b6"/><stop offset="1" stop-color="#e7322f"/></linearGradient></defs><title>_</title><path d="M123.28 41.13h-.49a41.77 41.77 0 0 1-4.26.12 40.78 40.78 0 0 1-4.18-.4c-.94-.15-5.2-.37-10.06-.47s-8.62.21-9.22.47-2.35 2.71-4.41 6.54c-1.66 3.09-3.77 6.83-4.43 7.73s-2.14 2.69-3.49 4.22a21.42 21.42 0 0 0-1.63 2.08 20.94 20.94 0 0 0 2.8-.09c2.37-.23 4.83-.4 5.62-.4a24.33 24.33 0 0 1 2.78.21c.58.08 1.49.18 2.2.22h2.79a6.77 6.77 0 0 0 2.27-.72c.63-.34 4.47-3.32 9-7l8.26-6.81 1.35-1.13c2.48-2.09 4.19-3.66 5.12-4.59z" fill="url(#a)"/><path d="M89.38 69.05c.06.35 2 .46 4.33.24s4.82-.4 5.54-.4a23.09 23.09 0 0 1 2.64.2c.73.1 1.9.22 2.61.25s1.87 0 2.57 0a7.65 7.65 0 0 0 2.69-.84c.78-.43 4.89-3.64 9.14-7.14l8.26-6.81c4.24-3.5 7.63-6.65 7.53-7s-1.13-.56-2.27-.46-3 .15-4.14.11a40.06 40.06 0 0 1-4.06-.39c-.56-.09-2-.19-3.94-.28l-1.47-.06-1.36 1.14-8.26 6.81c-4.24 3.5-8.35 6.71-9.14 7.14a7.65 7.65 0 0 1-2.69.84H94.45l-.77.94c-.62.75-1.32 1.58-2 2.33-1.31 1.5-2.36 3.03-2.3 3.38z" fill="url(#b)"/></svg>