<svg xmlns="http://www.w3.org/2000/svg" xmlns:xlink="http://www.w3.org/1999/xlink" width="126.55" height="200" viewBox="0 0 126.55 200"><defs><linearGradient id="a" x1="46.32" y1="29.13" x2="54.19" y2="11.46" gradientUnits="userSpaceOnUse"><stop offset="0" stop-color="#fdba56"/><stop offset=".02" stop-color="#fbb055"/><stop offset=".06" stop-color="#f79d54"/><stop offset=".1" stop-color="#f59253"/><stop offset=".15" stop-color="#f48e53"/><stop offset=".3" stop-color="#ed5e4e"/><stop offset=".47" stop-color="#683a96" stop-opacity=".5"/><stop offset=".64" stop-color="#ed872b"/><stop offset=".79" stop-color="#7b76b6"/><stop offset=".9" stop-color="#f15f4f"/><stop offset="1" stop-color="#fdba56"/></linearGradient><linearGradient id="c" x1="42.37" y1="172.23" x2="94.4" y2="55.38" xlink:href="#a"/><linearGradient id="b" x1="41.19" y1="22.34" x2="44.61" y2="30.03" gradientUnits="userSpaceOnUse"><stop offset="0" stop-color="#b7151b"/><stop offset=".02" stop-color="#c52229"/><stop offset=".06" stop-color="#d7333c"/><stop offset=".11" stop-color="#e23d47"/><stop offset=".15" stop-color="#e6404b"/><stop offset=".3" stop-color="#e98a7b"/><stop offset=".47" stop-color="#7c78b8"/><stop offset=".64" stop-color="#00b0b0"/><stop offset=".79" stop-color="#7b76b6"/><stop offset="1" stop-color="#e7322f"/></linearGradient><linearGradient id="d" x1="58.36" y1="18.95" x2="70.31" y2="45.79" xlink:href="#b"/><linearGradient id="e" x1="36.91" y1="141.33" x2="44.94" y2="159.37" xlink:href="#b"/><linearGradient id="f" x1="63.98" y1="56.86" x2="112.07" y2="164.88" xlink:href="#b"/></defs><title>_</title><path d="M61.16 17.07c-.52-.73-1.46-1.89-2.05-2.55a11.78 11.78 0 0 0-2.44-1.92 16 16 0 0 0-3.26-1.25 13.24 13.24 0 0 0-3.62-.27 15.29 15.29 0 0 0-3.7 1 17.92 17.92 0 0 1-4.3 1.13 16.37 16.37 0 0 1-4.32-.23c-1.08-.23-2.77-.49-3.76-.59a32.47 32.47 0 0 0-3.46-.12 2 2 0 0 0-1.27.45 4.59 4.59 0 0 0 .5 2 12.86 12.86 0 0 0 2.19 3 14.69 14.69 0 0 0 3.26 2.2c1.16.54 3 1.52 4 2.17l.63.42c1.43 1 4.08 2.93 6.45 4.77l1.34 1c2.63 2 4.6 3.34 5.12 3.61l.39.11a11.6 11.6 0 0 0 2.1.75c.65.13 1.75.28 2.41.33s1.8.06 2.48 0h.41a15.29 15.29 0 0 1 2.46.21 16.5 16.5 0 0 1 2.84.86 5.68 5.68 0 0 0 1.9.39A2.63 2.63 0 0 0 68.7 34a1.4 1.4 0 0 0 .39-.75 3.07 3.07 0 0 0-.73-1.17 11.93 11.93 0 0 1-1.81-2.56 18.85 18.85 0 0 1-1.21-3.35 34.22 34.22 0 0 0-1-3.31 31.15 31.15 0 0 0-1.41-3c-.32-.58-.85-1.45-1.32-2.17z" fill="url(#a)"/><path d="M75.43 51.7a19.07 19.07 0 0 1-.89-3.64 3.31 3.31 0 0 0-1-2 6 6 0 0 0-2.9-.55c-1.31.07-6.43-.25-11.64-.75-4.54-.43-8.59-.66-10.39-.66h-.8a17.48 17.48 0 0 0-3.92 1 35.65 35.65 0 0 0-3.56 1.76 24.25 24.25 0 0 0-2.82 2 6.51 6.51 0 0 0-1.56 2.25 9.23 9.23 0 0 0-.32 3.16 15.43 15.43 0 0 1-.26 4.15 13.84 13.84 0 0 1-1.58 3.71 23.08 23.08 0 0 0-1.63 3.13 22.56 22.56 0 0 0-1 3.35 13.92 13.92 0 0 1-1.44 3.75 16.61 16.61 0 0 1-2.72 3.3 10.8 10.8 0 0 0-2.12 2.76 9.56 9.56 0 0 0-.73 3.2 34.89 34.89 0 0 1-.33 3.93c-.16 1.06-1 4.33-1.83 7.29S20.13 99 19.76 100s-1.1 2.53-1.59 3.46-1.17 2.34-1.55 3.26-.95 2.43-1.25 3.37a27.76 27.76 0 0 1-1.48 3.56A29.33 29.33 0 0 1 11.8 117a8.81 8.81 0 0 0-1.3 3 11.1 11.1 0 0 0 .13 3.56 21.25 21.25 0 0 1 .45 4.3 16.67 16.67 0 0 1-.65 4 24.69 24.69 0 0 1-1.53 3.57 26.88 26.88 0 0 1-2.21 3.3c-.64.8-1.63 2.18-2.15 3a35.13 35.13 0 0 0-1.71 3.17c-.41.88-1 2.39-1.32 3.29s-.74 2.43-.95 3.34a2.94 2.94 0 0 0 .3 2 5.59 5.59 0 0 0 2.49 1.29 26.11 26.11 0 0 0 4.16.57c.15 0 .67 0 2.21-.16 2.44-.25 6.15-.76 9.67-1.32l4.82-.77c5.72-.91 10.21-1.68 10.65-1.8a.83.83 0 0 0 .4-.29 3.52 3.52 0 0 0-.28-1.11 6.32 6.32 0 0 1-.54-2.58 4.8 4.8 0 0 1 .91-2.33 10.31 10.31 0 0 0 .95-1.5 9.49 9.49 0 0 0 .57-1.62 4.44 4.44 0 0 1 1.91-2.36 16.64 16.64 0 0 1 3.76-1.55 28.41 28.41 0 0 1 4.74-.75 27.31 27.31 0 0 1 4.74.25c1.21.19 3.19.39 4.41.44s3.19 0 4.41-.08a20.76 20.76 0 0 1 4.69.26 21.12 21.12 0 0 1 4.47 1.5 31.18 31.18 0 0 1 3.25 1.82 3.76 3.76 0 0 1 1.56 1.87c0 .09.36.87 1 2.28l.56 1.15a32.75 32.75 0 0 1 2 4.59 24.47 24.47 0 0 1 .43 2.64.81.81 0 0 0 .57.66 9.09 9.09 0 0 0 3.2-.79c.77-.32 1.65-.63 2.25-.83a28 28 0 0 1 2.71-.76 24.78 24.78 0 0 1 4.83-.49 31.27 31.27 0 0 1 4.71.51 34.77 34.77 0 0 1 4.69 1.37 14.3 14.3 0 0 0 4 .85 9.91 9.91 0 0 0 3.42-.66 8.16 8.16 0 0 0 2.38-1.61 3.88 3.88 0 0 0 .77-1.87 9.45 9.45 0 0 0-.33-2.55 15.71 15.71 0 0 0-1.3-2.88c-.55-.92-1.35-2.44-1.78-3.38s-1.12-2.54-1.46-3.54-1-3.47-1.36-5.51a23.3 23.3 0 0 0-1.54-5 13.94 13.94 0 0 0-2.24-2.79 15.85 15.85 0 0 1-2.62-3.29c-.64-1.15-1.79-5.58-2.56-9.18s-1.61-8.08-1.69-9.32c-.07-1-.4-3.49-.73-5.5a91.84 91.84 0 0 0-2.92-10.52c-1.39-4.14-2.72-7.76-3.09-8.54s-1.19-2.33-1.71-3.2-1.33-2.44-1.75-3.4a38 38 0 0 1-1.32-3.57c-.29-.95-.83-2.46-1.21-3.37s-1.85-3.54-3.58-6.38a65.1 65.1 0 0 1-3.67-6.67z" fill="url(#c)"/><path d="M39 23.31a13.29 13.29 0 0 0 1.66 2.05 15.72 15.72 0 0 0 3.53 2.38c.71.33 1.68.84 2.56 1.32l-1.35-1c-2.4-1.88-5.01-3.82-6.4-4.75z" fill="url(#b)"/><path d="M76 32.92a34.83 34.83 0 0 0-1-3.42 31.84 31.84 0 0 0-1.46-3.16c-.46-.83-1.27-2.14-1.81-2.9s-1.5-2-2.13-2.64a12.86 12.86 0 0 0-2.7-2.12 17 17 0 0 0-3.06-1.23l-.45-.12c-.27-.07-.59-.12-.93-.17.48.73 1 1.62 1.37 2.24a31.84 31.84 0 0 1 1.46 3.16A34.83 34.83 0 0 1 66.32 26a18 18 0 0 0 1.13 3.14 10.94 10.94 0 0 0 1.63 2.31 3.71 3.71 0 0 1 1 1.78 2.24 2.24 0 0 1-.71 1.57 3.6 3.6 0 0 1-1.83.82 6.16 6.16 0 0 1-2.37-.46 15.71 15.71 0 0 0-2.64-.8 13.91 13.91 0 0 0-2.64-.18h-2.6a24.93 24.93 0 0 1-2.53-.34 12.19 12.19 0 0 1-2.23-.84l2.4 1.83.21.17a78.19 78.19 0 0 0 6.61 4.73 12.8 12.8 0 0 0 2.73 1 24.93 24.93 0 0 0 2.53.34c.71.05 1.88.07 2.6 0a13.91 13.91 0 0 1 2.64.18 15.71 15.71 0 0 1 2.64.8 6.16 6.16 0 0 0 2.37.46 3.6 3.6 0 0 0 1.83-.82 2.24 2.24 0 0 0 .71-1.57 3.71 3.71 0 0 0-1-1.78 10.94 10.94 0 0 1-1.63-2.31A18 18 0 0 1 76 32.92z" fill="url(#d)"/><path d="M73.81 143.46a3 3 0 0 0-1.14-1.2 30.91 30.91 0 0 0-3.12-1.74 20.38 20.38 0 0 0-4.22-1.42 20.07 20.07 0 0 0-4.42-.25c-1.24.09-3.28.13-4.52.08s-3.28-.25-4.52-.45a26.1 26.1 0 0 0-4.53-.24 27.19 27.19 0 0 0-4.54.72 15.93 15.93 0 0 0-3.52 1.38 3.51 3.51 0 0 0-1.46 1.73 10.34 10.34 0 0 1-.64 1.83 11.18 11.18 0 0 1-1.06 1.69 3.79 3.79 0 0 0-.7 1.78 5.37 5.37 0 0 0 .45 2.1 3.42 3.42 0 0 1 .32 1.83 1.65 1.65 0 0 1-1.08.95c-.49.14-5.33 1-10.76 1.82l-4.82.77c-3.68.58-7.35 1.08-9.72 1.33-.1.35-.2.7-.29 1s-.18.69-.24 1a3.89 3.89 0 0 0 .49 2.83 6.4 6.4 0 0 0 3 1.64 26.9 26.9 0 0 0 4.36.6 119.58 119.58 0 0 0 12.07-1.49l4.82-.77c5.43-.86 10.28-1.68 10.76-1.82a1.65 1.65 0 0 0 1.08-.95 3.42 3.42 0 0 0-.32-1.83 5.37 5.37 0 0 1-.45-2.1 3.79 3.79 0 0 1 .7-1.78 11.18 11.18 0 0 0 1.06-1.69 10.34 10.34 0 0 0 .64-1.83 3.51 3.51 0 0 1 1.51-1.7 15.93 15.93 0 0 1 3.52-1.38 27.19 27.19 0 0 1 4.54-.72 26.1 26.1 0 0 1 4.53.24c1.24.2 3.28.4 4.52.45s3.28 0 4.52-.08a20 20 0 0 1 3.14.07c.43 0 .84.09 1.18.16a23.1 23.1 0 0 1-1.14-2.56z" fill="url(#e)"/><path d="M76.4 51.44a64.35 64.35 0 0 0 3.6 6.51c1.62 2.65 3.26 5.58 3.65 6.52s.95 2.5 1.24 3.47a36.81 36.81 0 0 0 1.28 3.45c.41.93 1.17 2.41 1.7 3.3S89.18 77 89.62 78s1.85 4.81 3.14 8.65a93 93 0 0 1 3 10.67c.34 2 .67 4.55.74 5.6s.82 5.18 1.67 9.17a54.8 54.8 0 0 0 2.45 8.9 15 15 0 0 0 2.43 3 14.94 14.94 0 0 1 2.43 3 23.84 23.84 0 0 1 1.64 5.27c.4 2 1 4.43 1.33 5.39s.94 2.5 1.37 3.42 1.21 2.4 1.74 3.29a16.71 16.71 0 0 1 1.4 3.11 10.35 10.35 0 0 1 .37 2.88 4.8 4.8 0 0 1-1 2.47 9.12 9.12 0 0 1-2.74 1.87 10.89 10.89 0 0 1-3.84.74 15.37 15.37 0 0 1-4.29-.91 33.59 33.59 0 0 0-4.52-1.32 30.19 30.19 0 0 0-4.52-.49 25 25 0 0 0-4.61.46c-.7.15-1.66.42-2.61.73l.08.16.37.75a27.76 27.76 0 0 1 1.53 3.63 23.41 23.41 0 0 1 .41 2.51 1.8 1.8 0 0 0 1.41 1.6 9.53 9.53 0 0 0 3.72-.86 31.82 31.82 0 0 1 4.78-1.53 25 25 0 0 1 4.61-.46 30.19 30.19 0 0 1 4.52.49 33.59 33.59 0 0 1 4.52 1.32 15.37 15.37 0 0 0 4.29.91 10.89 10.89 0 0 0 3.84-.74 9.12 9.12 0 0 0 2.74-1.87 4.8 4.8 0 0 0 1-2.47 10.35 10.35 0 0 0-.37-2.88 16.71 16.71 0 0 0-1.4-3.11c-.53-.89-1.31-2.37-1.74-3.29s-1-2.46-1.37-3.42-.92-3.38-1.33-5.39a23.84 23.84 0 0 0-1.64-5.27 14.94 14.94 0 0 0-2.43-3 15 15 0 0 1-2.43-3 54.8 54.8 0 0 1-2.45-8.9c-.85-4-1.6-8.13-1.67-9.17s-.4-3.57-.74-5.6a93 93 0 0 0-3-10.67c-1.29-3.84-2.7-7.73-3.14-8.65s-1.22-2.39-1.75-3.28-1.29-2.37-1.7-3.3a36.81 36.81 0 0 1-1.28-3.45c-.29-1-.85-2.53-1.24-3.47s-2-3.87-3.65-6.52a64.35 64.35 0 0 1-3.59-6.51 17.84 17.84 0 0 1-.87-3.51 4.24 4.24 0 0 0-1.47-2.67 6.8 6.8 0 0 0-3.52-.72c-.46 0-1.45 0-2.77-.08l-1.12-.06z" fill="url(#f)"/></svg>