<svg xmlns="http://www.w3.org/2000/svg" xmlns:xlink="http://www.w3.org/1999/xlink" width="128.68" height="200" viewBox="0 0 128.68 200"><defs><linearGradient id="a" x1="60.06" y1="36.81" x2="73.92" y2="5.7" gradientUnits="userSpaceOnUse"><stop offset="0" stop-color="#fdba56"/><stop offset=".02" stop-color="#fbb055"/><stop offset=".06" stop-color="#f79d54"/><stop offset=".1" stop-color="#f59253"/><stop offset=".15" stop-color="#f48e53"/><stop offset=".3" stop-color="#ed5e4e"/><stop offset=".47" stop-color="#683a96" stop-opacity=".5"/><stop offset=".64" stop-color="#ed872b"/><stop offset=".79" stop-color="#7b76b6"/><stop offset=".9" stop-color="#f15f4f"/><stop offset="1" stop-color="#fdba56"/></linearGradient><linearGradient id="c" x1="44.91" y1="173.65" x2="97.57" y2="55.37" xlink:href="#a"/><linearGradient id="b" x1="72.36" y1="23.5" x2="79.04" y2="38.5" gradientUnits="userSpaceOnUse"><stop offset="0" stop-color="#b7151b"/><stop offset=".02" stop-color="#c52229"/><stop offset=".06" stop-color="#d7333c"/><stop offset=".11" stop-color="#e23d47"/><stop offset=".15" stop-color="#e6404b"/><stop offset=".3" stop-color="#e98a7b"/><stop offset=".47" stop-color="#7c78b8"/><stop offset=".64" stop-color="#00b0b0"/><stop offset=".79" stop-color="#7b76b6"/><stop offset="1" stop-color="#e7322f"/></linearGradient><linearGradient id="d" x1="39.06" y1="140.81" x2="48.35" y2="161.68" xlink:href="#b"/><linearGradient id="e" x1="68.16" y1="58.02" x2="116.44" y2="166.46" xlink:href="#b"/></defs><title>_</title><path d="M86.39 11.87a3.07 3.07 0 0 0-1.14-1.11 6.36 6.36 0 0 0-2.73-.66 10.7 10.7 0 0 0-3.37.93 27.72 27.72 0 0 1-4.21 1.55 23.86 23.86 0 0 1-4.24.62 22.55 22.55 0 0 1-4.39-.37 31.54 31.54 0 0 1-4.63-1.38 7.19 7.19 0 0 0-3.46-.45 5.2 5.2 0 0 0-2.41 1.78 16.32 16.32 0 0 0-1.74 3.35 13.82 13.82 0 0 0-.61 3.49 20 20 0 0 1-.5 3.9A16.85 16.85 0 0 1 51.59 27a16.28 16.28 0 0 1-2.4 3.08 19 19 0 0 1-1.47 1.26h.62a7.56 7.56 0 0 1 3.38 1.4 6.35 6.35 0 0 0 2.19 1.06 4.52 4.52 0 0 0 2.09-.27 10.87 10.87 0 0 1 3-.74 9.08 9.08 0 0 1 1.26 0 11.19 11.19 0 0 1 1.89.29 3 3 0 0 0 2-.34 9.14 9.14 0 0 0 2.18-2.57 14.84 14.84 0 0 1 3.21-3.72 15 15 0 0 1 4.44-2.17 15.84 15.84 0 0 0 3.85-1.74A31.69 31.69 0 0 0 82 18.23c.38-.45.75-.9 1.11-1.35a24.48 24.48 0 0 0 3.28-5.01z" fill="url(#a)"/><path d="M80.21 54.09a10.61 10.61 0 0 0 .12-1.91 8.63 8.63 0 0 0-.16-1.59 9.48 9.48 0 0 0-1.43-3 5.67 5.67 0 0 0-2.43-1.68 8.89 8.89 0 0 0-3.58.09 16.4 16.4 0 0 1-5 .3 18.32 18.32 0 0 1-4.95-1.52 12.59 12.59 0 0 0-4.21-1.11 12.24 12.24 0 0 0-4.2.82A29.47 29.47 0 0 1 49.64 46a23.05 23.05 0 0 1-4.6.37 12.49 12.49 0 0 0-3.55.43 9.66 9.66 0 0 0-2.79 1.59 6.39 6.39 0 0 0-1.58 2.42 8.65 8.65 0 0 0-.06 3.29 24.56 24.56 0 0 1 .39 4.25 19.44 19.44 0 0 1-.56 4A14.38 14.38 0 0 1 35.21 66a17.85 17.85 0 0 1-2.9 3.14 7.69 7.69 0 0 0-2 2.66 7.71 7.71 0 0 0-.18 3.31 9.84 9.84 0 0 1-.24 4.36A9.69 9.69 0 0 1 27.42 83a11 11 0 0 0-2.21 2.73 9.41 9.41 0 0 0-.81 3.17 18.12 18.12 0 0 1-.66 3.95 17.53 17.53 0 0 1-1.67 3.59 12.38 12.38 0 0 0-1.32 3.08 13.92 13.92 0 0 0-.26 3.5 10.32 10.32 0 0 1-.66 4.17 11.21 11.21 0 0 1-2.62 3.43 11.37 11.37 0 0 0-2.21 2.74 28.18 28.18 0 0 0-1.12 7c-.19 2.9-.77 6.61-1.49 7.79a13.09 13.09 0 0 1-3.06 3.2 8.15 8.15 0 0 0-2.24 2.59 7 7 0 0 0-.37 3.2 24 24 0 0 1 .19 4.19 19.61 19.61 0 0 1-.72 3.9A29.66 29.66 0 0 1 4.55 149a47.11 47.11 0 0 1-2.47 4.1 5.69 5.69 0 0 0-.63 1.17 8.88 8.88 0 0 0 1.95-.5 20.31 20.31 0 0 1 5.46-1.12h.24a16.05 16.05 0 0 1 4.88.84l.2.07c1.24.46 3.1 1.05 4.23 1.36s3.18.76 4.38 1a26.77 26.77 0 0 0 4.3.32 30.84 30.84 0 0 0 4.4-.48 7.23 7.23 0 0 0 2.73-1.09 1.33 1.33 0 0 0 .21-1.17 4.58 4.58 0 0 1 0-3 4.93 4.93 0 0 1 2.27-2.08 2.84 2.84 0 0 0 1.16-1 2.1 2.1 0 0 0-.24-1.22 6.42 6.42 0 0 1-.76-2.73 4.43 4.43 0 0 1 3.6-4.31c1.21-.31 7.71 0 11.79.31l2.86.2c5.92.42 11 .63 12.12.55 1.23-.08 3.24-.34 4.47-.57a14.57 14.57 0 0 1 4.11-.18 4.5 4.5 0 0 1 2.74 1.58 9.76 9.76 0 0 1 1.05 2.13 8.36 8.36 0 0 1 .34 2.27 16.31 16.31 0 0 0 .1 1.82c0 .11 0 .28.09.48.15.74.44 1.93.72 3a3.9 3.9 0 0 0 1.15 2.02 12.7 12.7 0 0 0 3-.33c.92-.2 2.3-.43 3.52-.57l1.08-.1A107.78 107.78 0 0 1 102 153l4 .56a48.67 48.67 0 0 0 10.08.68 3.25 3.25 0 0 0-.1-1.94c-.42-1.24-1-3.18-1.26-4.33s-.61-3-.74-4a23.34 23.34 0 0 0-.75-3.45 63.86 63.86 0 0 0-3.13-6.52 53.29 53.29 0 0 1-3.17-6.91 23.73 23.73 0 0 1-.65-3.89 9.78 9.78 0 0 0-.88-3.16 11.6 11.6 0 0 0-2.24-2.74 12.89 12.89 0 0 1-2.68-3.35 11.26 11.26 0 0 1-1-4 21.12 21.12 0 0 0-.48-3.52 50.94 50.94 0 0 0-2.83-6.57 89.8 89.8 0 0 1-4.59-12.23 82.27 82.27 0 0 0-2.84-8.54 24.82 24.82 0 0 0-2-3 12.94 12.94 0 0 1-1.88-3.62 13.72 13.72 0 0 1-.42-4.13 10.64 10.64 0 0 0-.4-3.36 10.4 10.4 0 0 0-1.71-2.88 10.65 10.65 0 0 1-2-3.67 11.75 11.75 0 0 1-.12-4.34z" fill="url(#c)"/><path d="M54.91 38.85a10.29 10.29 0 0 0-2 1.45 3.42 3.42 0 0 0 1.71-.46 8.44 8.44 0 0 1 3.38-.56 6.64 6.64 0 0 1 2.87 1.19 7.23 7.23 0 0 0 2.64 1.26 5.48 5.48 0 0 0 2.64-.34 9.85 9.85 0 0 1 2.7-.66 10.41 10.41 0 0 1 2.81.29 4 4 0 0 0 2.75-.46 10 10 0 0 0 2.51-2.92 13.91 13.91 0 0 1 3-3.43 14.16 14.16 0 0 1 4.09-2 16.83 16.83 0 0 0 4.15-1.87 39.4 39.4 0 0 0 5.52-5.89c2-2.56 3.63-5.13 3.53-5.72a3.48 3.48 0 0 0-1.67-1.9 7.32 7.32 0 0 0-3.35-.83 11.53 11.53 0 0 0-3.77 1 26.62 26.62 0 0 1-4 1.48h-.12c-.45.11-1 .22-1.55.3a32.56 32.56 0 0 1-4.39 4.52 16.83 16.83 0 0 1-4.15 1.87 14.16 14.16 0 0 0-4.09 2 13.91 13.91 0 0 0-3 3.43 10 10 0 0 1-2.51 2.92 4 4 0 0 1-2.75.46 10.18 10.18 0 0 0-1.7-.26c-.19.3-.43.64-.69 1a14.56 14.56 0 0 1-1.3 1.51 23.56 23.56 0 0 1-3.26 2.62z" fill="url(#b)"/><path d="M79.05 147.41a17.36 17.36 0 0 1-.11-2 7.44 7.44 0 0 0-.3-2 8.75 8.75 0 0 0-.93-1.87 3.56 3.56 0 0 0-2.08-1.16 13.68 13.68 0 0 0-3.77.18c-1.27.23-3.33.49-4.59.58s-6.77-.16-12.26-.56l-2.86-.2c-5.49-.39-10.65-.54-11.47-.33a4.31 4.31 0 0 0-2.16 1.33 4.26 4.26 0 0 0-.68 2 5.48 5.48 0 0 0 .63 2.24 2.88 2.88 0 0 1 .3 2.06 3.59 3.59 0 0 1-1.68 1.5 4 4 0 0 0-1.77 1.58 3.64 3.64 0 0 0 0 2.29 2.3 2.3 0 0 1-.46 2.22 7.9 7.9 0 0 1-3.23 1.35 31.45 31.45 0 0 1-4.57.5 29.46 29.46 0 0 1-4.49-.33c-1.22-.2-3.24-.65-4.47-1s-3.05-.92-4.31-1.38c-.15.33-.29.63-.43.91v.07a45.83 45.83 0 0 1-2.4 4c-.78 1.14-1.14 2.32-.79 2.62s1.82.1 3.29-.45a19.46 19.46 0 0 1 5.14-1.06 15 15 0 0 1 4.74.78c1.25.47 3.28 1.12 4.52 1.46s3.25.78 4.47 1a29.46 29.46 0 0 0 4.49.33 31.45 31.45 0 0 0 4.57-.5 7.9 7.9 0 0 0 3.23-1.35 2.3 2.3 0 0 0 .46-2.22 3.64 3.64 0 0 1 0-2.29 4 4 0 0 1 1.77-1.58 3.59 3.59 0 0 0 1.68-1.5 2.88 2.88 0 0 0-.3-2.06 5.48 5.48 0 0 1-.63-2.24 4.26 4.26 0 0 1 .68-2 4.31 4.31 0 0 1 2.16-1.33c.82-.21 6-.06 11.47.33l2.86.2c5.49.39 11 .64 12.26.56l1.16-.1 1-.11c-.09-.15-.12-.34-.14-.47z" fill="url(#d)"/><path d="M81.32 52.16a11.56 11.56 0 0 1-.13 2.11 10.77 10.77 0 0 0 .12 3.87 9.66 9.66 0 0 0 1.8 3.27A11.27 11.27 0 0 1 85 64.63a11.52 11.52 0 0 1 .45 3.75 12.77 12.77 0 0 0 .38 3.77 12 12 0 0 0 1.71 3.29 25.69 25.69 0 0 1 2.05 3.17 81 81 0 0 1 2.92 8.73 88.86 88.86 0 0 0 4.53 12.06 51.61 51.61 0 0 1 2.91 6.77 22 22 0 0 1 .5 3.73 10.28 10.28 0 0 0 .9 3.59 12 12 0 0 0 2.44 3 12.6 12.6 0 0 1 2.47 3 10.66 10.66 0 0 1 1 3.56 22.58 22.58 0 0 0 .62 3.69 52.58 52.58 0 0 0 3.09 6.71 64.7 64.7 0 0 1 3.16 6.68 24.22 24.22 0 0 1 .79 3.63c.13 1 .45 2.79.72 3.91s.82 3 1.24 4.24.32 2.6-.21 3.08-5.41.26-10.86-.51l-4-.56a110 110 0 0 0-12.14-1.23l-1 .1c0 .32 0 .68.06 1s0 .35 0 .49c.07.53.44 2.13.83 3.56s1.25 2.68 1.92 2.77a12.81 12.81 0 0 0 3.43-.33 36.56 36.56 0 0 1 4.46-.65 110 110 0 0 1 12.14 1.23l4 .56c5.45.77 10.33 1 10.86.51s.62-1.87.21-3.08-1-3.12-1.24-4.24-.59-2.88-.72-3.91a24.22 24.22 0 0 0-.79-3.63 64.7 64.7 0 0 0-3.16-6.68 52.58 52.58 0 0 1-3.09-6.71 22.58 22.58 0 0 1-.62-3.69 10.66 10.66 0 0 0-1-3.56 12.6 12.6 0 0 0-2.47-3 12 12 0 0 1-2.44-3 10.28 10.28 0 0 1-.9-3.59 22 22 0 0 0-.5-3.73 51.61 51.61 0 0 0-2.91-6.77 88.86 88.86 0 0 1-4.53-12.06 81 81 0 0 0-2.92-8.73 25.69 25.69 0 0 0-2.05-3.17 12 12 0 0 1-1.71-3.29 12.77 12.77 0 0 1-.38-3.77 11.52 11.52 0 0 0-.45-3.75 11.27 11.27 0 0 0-1.91-3.23A9.66 9.66 0 0 1 91 65.08a10.77 10.77 0 0 1-.12-3.87 11.86 11.86 0 0 0-.05-3.9 10.36 10.36 0 0 0-1.61-3.36 6.67 6.67 0 0 0-3-2 9.71 9.71 0 0 0-4 .05h-.02c-.26.06-.56.11-.88.16z" fill="url(#e)"/></svg>