<svg xmlns="http://www.w3.org/2000/svg" xmlns:xlink="http://www.w3.org/1999/xlink" width="200" height="200" viewBox="0 0 200 200"><defs><linearGradient id="a" x1="80.37" y1="171.76" x2="133.1" y2="53.32" gradientUnits="userSpaceOnUse"><stop offset="0" stop-color="#fdba56"/><stop offset=".02" stop-color="#fbb055"/><stop offset=".06" stop-color="#f79d54"/><stop offset=".1" stop-color="#f59253"/><stop offset=".15" stop-color="#f48e53"/><stop offset=".3" stop-color="#ed5e4e"/><stop offset=".47" stop-color="#683a96" stop-opacity=".5"/><stop offset=".64" stop-color="#ed872b"/><stop offset=".79" stop-color="#7b76b6"/><stop offset=".9" stop-color="#f15f4f"/><stop offset="1" stop-color="#fdba56"/></linearGradient><linearGradient id="c" x1="84.64" y1="40.74" x2="101.78" y2="2.24" xlink:href="#a"/><linearGradient id="b" x1="75.94" y1="138.66" x2="85.51" y2="160.17" gradientUnits="userSpaceOnUse"><stop offset="0" stop-color="#b7151b"/><stop offset=".02" stop-color="#c52229"/><stop offset=".06" stop-color="#d7333c"/><stop offset=".11" stop-color="#e23d47"/><stop offset=".15" stop-color="#e6404b"/><stop offset=".3" stop-color="#e98a7b"/><stop offset=".47" stop-color="#7c78b8"/><stop offset=".64" stop-color="#00b0b0"/><stop offset=".79" stop-color="#7b76b6"/><stop offset="1" stop-color="#e7322f"/></linearGradient><linearGradient id="d" x1="101.82" y1="52.61" x2="151.83" y2="164.93" xlink:href="#b"/><linearGradient id="e" x1="99.91" y1="18.04" x2="110.39" y2="41.58" xlink:href="#b"/></defs><title>_</title><path d="M82.07 40.61l-.25.11 1-.16 1.18-.17-.3-.05a3.65 3.65 0 0 0-1.63.27z" fill="none"/><path d="M77.1 44.1a10.17 10.17 0 0 0-2.54 2.25 28.13 28.13 0 0 0-1.9 3.06 26.28 26.28 0 0 0-1.36 3.25c-.3.92-.87 3.34-1.24 5.34a35.09 35.09 0 0 1-1.48 5.56 19 19 0 0 1-2 3.44 14.08 14.08 0 0 0-1.65 3 14.11 14.11 0 0 0-.67 3.36c-.06 1.09-.24 2.83-.4 3.88s-.91 4.33-1.66 7.32a57.72 57.72 0 0 1-2.2 7.19 22.6 22.6 0 0 1-2.1 3.38 33.84 33.84 0 0 0-2.05 3 31.48 31.48 0 0 0-1.57 3.2c-.37.9-1.14 3.26-1.69 5.15a30.9 30.9 0 0 0-1.09 5.24 26.23 26.23 0 0 0 .16 3.79 12.09 12.09 0 0 1-.28 4.23 11.29 11.29 0 0 1-2 3.63 17.83 17.83 0 0 0-2 2.93 83.85 83.85 0 0 0-2.62 10.51c-.92 4.49-2.23 9.89-2.86 11.08a21.33 21.33 0 0 1-2.44 3.49 2.69 2.69 0 0 0-.76 1.61 4.82 4.82 0 0 0 2.1.94 22.31 22.31 0 0 0 4.39.42 21.13 21.13 0 0 0 4.25-.65c.31-.09.67-.18 1.05-.26a26.83 26.83 0 0 1 3.58-.54 75 75 0 0 1 9.39.74 36.58 36.58 0 0 0 8.08.39 3.48 3.48 0 0 0 1.64-1.34 7.47 7.47 0 0 0 .67-2.15 5.08 5.08 0 0 0-.27-1.86 10.32 10.32 0 0 1-.6-2.41 7.33 7.33 0 0 1 .2-2.29c.13-.46.44-1.94.69-3.22.29-1.55 1.29-3.19 2.65-3.32a10.92 10.92 0 0 1 4.21 1 17.28 17.28 0 0 0 4.43 1.15 14.19 14.19 0 0 0 4.24-.43c1.28-.37 6.58-1.34 11.8-2.15 3.34-.52 10-1.37 11.44-.87a5 5 0 0 1 2.7 2.54 12.42 12.42 0 0 1 .76 3 8.08 8.08 0 0 1-.28 2.75v.16a4.19 4.19 0 0 0-.11 1.39 3.37 3.37 0 0 0 .64 1.25 7.82 7.82 0 0 1 1.21 1.9 5.94 5.94 0 0 1 .38 2.09 1.27 1.27 0 0 0 .49.43 11.46 11.46 0 0 0 2.94.59c.92.07 2.53.31 3.41.45 1.11.18 2.3.38 3.4.59a53.43 53.43 0 0 0 6.59.9 25.2 25.2 0 0 0 4.32-.37 44.71 44.71 0 0 1 4.79-.58c1.36-.08 3.63-.07 5 0A5.32 5.32 0 0 0 151 153a3.44 3.44 0 0 0-.65-1.5 25.09 25.09 0 0 1-2.22-3.86 18.81 18.81 0 0 1-1.15-3.95 16.53 16.53 0 0 0-.94-3.31 17.51 17.51 0 0 0-1.77-3 20.85 20.85 0 0 1-2-3.41 64.16 64.16 0 0 1-2.07-9.31 86 86 0 0 0-3.2-12.45c-1-2.88-2.12-6-2.38-7.06a32.59 32.59 0 0 1-.72-3.8 13.92 13.92 0 0 0-.88-3.28 14.87 14.87 0 0 0-1.86-2.95 11.66 11.66 0 0 1-2-3.64 12.52 12.52 0 0 1-.31-4.21 7.27 7.27 0 0 0-.45-3.19 8.5 8.5 0 0 0-2.24-2.61 16.31 16.31 0 0 1-3.11-3.1 12.44 12.44 0 0 1-1.68-3.71c-.24-1-.54-2.71-.67-3.78s-.26-2.82-.29-3.91-.15-2.71-.28-3.7-.44-2.61-.67-3.55a13.39 13.39 0 0 0-1.32-3.12 16.32 16.32 0 0 0-2.34-2.8 13.52 13.52 0 0 1-2.57-3.38 11.82 11.82 0 0 1-.87-2.79 9.28 9.28 0 0 1-.16-1.21 4.85 4.85 0 0 0-1-2.56 7.8 7.8 0 0 0-3.07-1.56 41.9 41.9 0 0 0-4.52-.81c-.55-.06-1.72-.09-3.18-.09-1.74 0-3.9 0-5.92.12s-4.88.28-7.32.5l-1 .09c-1.28.13-2.37.26-3.14.38a24.42 24.42 0 0 0-5.95 1.61z" fill="url(#a)"/><path d="M122.22 13.7a14.5 14.5 0 0 0 1.1-1.87h-1.24c-.49 0-1.24-.05-1.7-.11a12 12 0 0 0-1.41-.08 13.4 13.4 0 0 0-1.41.11 6.9 6.9 0 0 1-1.92 0 9.4 9.4 0 0 1-1.94-.64l-.13-.11a2.47 2.47 0 0 0 0 .55 3.34 3.34 0 0 1-.71 2.41 3 3 0 0 1-2.43.58 1.53 1.53 0 0 0-.94.2 3.65 3.65 0 0 0-.69 1.46 4.66 4.66 0 0 1-1.44 2.51 3.52 3.52 0 0 1-2.76.35 11.82 11.82 0 0 1-2.54-1.06 15.59 15.59 0 0 1-2.33-1.84 34.83 34.83 0 0 0-2-1.77 21.5 21.5 0 0 0-2-1.35 4.58 4.58 0 0 0-1.8-.49 7.57 7.57 0 0 0-2.22.5 8.11 8.11 0 0 1-3.11.63 7.46 7.46 0 0 1-3-.84 11.15 11.15 0 0 0-2.63-.9 24.15 24.15 0 0 0-3.75-.32 12.51 12.51 0 0 0-3.75.67 11.63 11.63 0 0 0-3.11 2 26.69 26.69 0 0 0-2.65 3 26.43 26.43 0 0 0-2 3.46 24.07 24.07 0 0 0-1.31 3.72 23 23 0 0 0-.51 3.84 13.77 13.77 0 0 0 .26 3.07 3.05 3.05 0 0 0 .72 1.29 5.68 5.68 0 0 0 1.23.64 3.76 3.76 0 0 0 1.14.14 8.79 8.79 0 0 0 1.33-.23 10.51 10.51 0 0 0 1.35-.51 4.56 4.56 0 0 1 2.16-.37 5 5 0 0 1 1 .22 7.22 7.22 0 0 1 1.27.52 1.21 1.21 0 0 0 .53.13 3.4 3.4 0 0 0 .42-1.19 23 23 0 0 1 .58-2.61 10.12 10.12 0 0 1 .85-2A6.44 6.44 0 0 1 80.08 26a9.81 9.81 0 0 1 2-1.08 5.26 5.26 0 0 1 2.87-.12 19.45 19.45 0 0 1 4.17 2.2c1.54 1 3 2 3.43 2.16a13.66 13.66 0 0 0 1.69.67 14.26 14.26 0 0 0 1.81.39 5.46 5.46 0 0 0 1.69-.13 8.75 8.75 0 0 0 1.91-.88 5.38 5.38 0 0 1 2.68-.84 4.37 4.37 0 0 1 2.49 1.08 3.25 3.25 0 0 0 1.63.6 9.64 9.64 0 0 0 2.95-.51 18.55 18.55 0 0 0 3.23-1.48 13.68 13.68 0 0 0 2.44-2 21.66 21.66 0 0 0 1.93-2.53 22 22 0 0 0 1.41-2.84l.18-.43c.43-1 1-2.18 1.42-3 .5-.93 1.5-2.54 2.21-3.56z" fill="url(#c)"/><path d="M114.75 144.1a7.19 7.19 0 0 0 .24-2.36 11.44 11.44 0 0 0-.69-2.68 4.05 4.05 0 0 0-2.11-2c-.85-.3-5.77.11-10.95.91s-10.43 1.76-11.67 2.13a15.3 15.3 0 0 1-4.6.47 18.2 18.2 0 0 1-4.74-1.23 10.12 10.12 0 0 0-3.72-.91c-.72.07-1.51 1.2-1.76 2.51s-.56 2.8-.7 3.3a6.4 6.4 0 0 0-.16 1.93 9.29 9.29 0 0 0 .54 2.13 6 6 0 0 1 .34 2.32 8.41 8.41 0 0 1-.77 2.51 4.42 4.42 0 0 1-2.22 1.87c-.85.29-4.69.14-8.53-.34a77.59 77.59 0 0 0-9.2-.73 25.7 25.7 0 0 0-3.43.52c-.19.35-.46.78-.75 1.21a20.42 20.42 0 0 1-1.53 2c-.77.88-1.19 2.06-.94 2.64a4.54 4.54 0 0 0 2.82 1.55 23.69 23.69 0 0 0 4.63.44 22.09 22.09 0 0 0 4.49-.69 25.68 25.68 0 0 1 4.43-.77 77.59 77.59 0 0 1 9.2.73c3.84.48 7.68.64 8.53.34a4.42 4.42 0 0 0 2.21-1.83 8.41 8.41 0 0 0 .77-2.51 6 6 0 0 0-.34-2.32 9.29 9.29 0 0 1-.54-2.13 6.4 6.4 0 0 1 .16-1.93c.14-.5.46-2 .7-3.3s1-2.44 1.76-2.51a10.12 10.12 0 0 1 3.72.91 18.2 18.2 0 0 0 4.74 1.23 15.3 15.3 0 0 0 4.6-.47c1.24-.36 6.5-1.32 11.67-2.13.91-.14 1.81-.27 2.68-.38l1-.14c.07-.08.09-.19.12-.29z" fill="url(#b)"/><path d="M113.4 47.46a11 11 0 0 0 .79 2.54 12.59 12.59 0 0 0 2.35 3.08 17.32 17.32 0 0 1 2.52 3 14.43 14.43 0 0 1 1.43 3.4c.25 1 .56 2.64.69 3.66s.27 2.74.29 3.81.15 2.78.28 3.81.42 2.68.65 3.67a11.47 11.47 0 0 0 1.52 3.36 15.41 15.41 0 0 0 2.89 2.87 9.43 9.43 0 0 1 2.56 3 8.22 8.22 0 0 1 .53 3.72 11.55 11.55 0 0 0 .27 3.81 10.71 10.71 0 0 0 1.78 3.27 15.9 15.9 0 0 1 2 3.19 14.91 14.91 0 0 1 1 3.56 31.71 31.71 0 0 0 .69 3.66c.26 1 1.32 4.12 2.36 7a87.41 87.41 0 0 1 3.12 12.57 63.85 63.85 0 0 0 2 9.06 20.1 20.1 0 0 0 1.93 3.22 18.32 18.32 0 0 1 1.9 3.23 17.53 17.53 0 0 1 1 3.55 18 18 0 0 0 1.08 3.7 24 24 0 0 0 2.12 3.68c.73 1 1 2.21.71 2.67s-1.74.77-3.13.68-3.61-.09-4.92 0a43.5 43.5 0 0 0-4.66.57 26.32 26.32 0 0 1-4.52.38 53.73 53.73 0 0 1-6.76-.92 94.88 94.88 0 0 0-3.37-.59 4.45 4.45 0 0 0 .66 1.12 6.88 6.88 0 0 1 1 1.61 4.92 4.92 0 0 1 .31 1.68 1.76 1.76 0 0 0 1.06 1.37 12 12 0 0 0 3.29.68c1.21.09 4.23.56 6.7 1a53.73 53.73 0 0 0 6.76.92 26.32 26.32 0 0 0 4.52-.38 43.5 43.5 0 0 1 4.66-.57c1.32-.08 3.53-.07 4.92 0s2.8-.22 3.13-.68 0-1.66-.71-2.67a24 24 0 0 1-2.12-3.68 18 18 0 0 1-1.08-3.7 17.53 17.53 0 0 0-1-3.55 18.32 18.32 0 0 0-1.9-3.23 20.1 20.1 0 0 1-1.93-3.22 63.85 63.85 0 0 1-2-9.06 87.41 87.41 0 0 0-3.12-12.57c-1-2.85-2.1-6-2.36-7a31.71 31.71 0 0 1-.69-3.66 14.91 14.91 0 0 0-1-3.56 15.9 15.9 0 0 0-2-3.19 10.71 10.71 0 0 1-1.78-3.27 11.55 11.55 0 0 1-.27-3.81 8.22 8.22 0 0 0-.53-3.72 9.43 9.43 0 0 0-2.56-3 15.41 15.41 0 0 1-2.89-2.87 11.47 11.47 0 0 1-1.52-3.36c-.23-1-.52-2.65-.65-3.67s-.25-2.74-.28-3.81-.16-2.78-.29-3.81-.45-2.68-.69-3.66a14.43 14.43 0 0 0-1.43-3.4 17.32 17.32 0 0 0-2.52-3 12.59 12.59 0 0 1-2.35-3.08 11.27 11.27 0 0 1-.93-3.61 5.78 5.78 0 0 0-1.33-3.2 8.76 8.76 0 0 0-3.55-1.84c-1-.24-2.43-.52-3.63-.7l-1-.13z" fill="url(#d)"/><path d="M79 41.44a9.67 9.67 0 0 0 1.52-.27 11.2 11.2 0 0 0 1.27-.46l.25-.11a3.65 3.65 0 0 1 1.63-.27l.33.06a6.35 6.35 0 0 1 1.55.57 2.06 2.06 0 0 0 .58.2l1-.09a2.45 2.45 0 0 0 .61-1 4.63 4.63 0 0 0 .26-.89 22.3 22.3 0 0 1 .55-2.48 9.31 9.31 0 0 1 .71-1.7 5.48 5.48 0 0 1 1.14-1.23 8.78 8.78 0 0 1 1.72-.94 4.26 4.26 0 0 1 2.25-.08 18.87 18.87 0 0 1 3.9 2.12c1.46 1 3.06 2 3.55 2.23a14.55 14.55 0 0 0 1.84.72 15.36 15.36 0 0 0 2 .42 6.31 6.31 0 0 0 2.08-.15 9.66 9.66 0 0 0 2.19-1 4.48 4.48 0 0 1 2.11-.68 3.43 3.43 0 0 1 1.85.82 4.21 4.21 0 0 0 2.25.86 11.19 11.19 0 0 0 3.32-.56 19.41 19.41 0 0 0 3.45-1.58 14.67 14.67 0 0 0 2.65-2.21 22.58 22.58 0 0 0 2-2.68A22.65 22.65 0 0 0 129 28a33.18 33.18 0 0 1 1.55-3.28c.51-.93 1.5-2.51 2.19-3.5a11 11 0 0 0 1.44-2.68.62.62 0 0 0-.69-.79c-.48 0-1.25.07-1.7.06s-1.17-.05-1.59-.1a11.8 11.8 0 0 0-3.08 0 6 6 0 0 1-1.59 0 8.4 8.4 0 0 1-1.69-.56 1.33 1.33 0 0 0-1.27 0 2.31 2.31 0 0 0-.32 1.51 2.42 2.42 0 0 1-.42 1.63 1.89 1.89 0 0 1-1.24.33 2.48 2.48 0 0 1-.32 0 2.39 2.39 0 0 0-.77 0l-.2.48a22.65 22.65 0 0 1-1.49 3 22.58 22.58 0 0 1-2 2.68 14.67 14.67 0 0 1-2.65 2.21 19.41 19.41 0 0 1-3.45 1.58 11.19 11.19 0 0 1-3.32.56 4.21 4.21 0 0 1-2.25-.86 3.43 3.43 0 0 0-1.85-.82 4.48 4.48 0 0 0-2.11.68 9.66 9.66 0 0 1-2.19 1 6.31 6.31 0 0 1-2.08.15 15.36 15.36 0 0 1-2-.42 14.55 14.55 0 0 1-1.84-.72c-.49-.24-2.09-1.24-3.55-2.23a18.87 18.87 0 0 0-3.9-2.12 4.26 4.26 0 0 0-2.25.08 8.78 8.78 0 0 0-1.72.94 5.48 5.48 0 0 0-1.1 1.19 9.31 9.31 0 0 0-.75 1.74 22.3 22.3 0 0 0-.55 2.48 3.42 3.42 0 0 1-.83 1.87 1.68 1.68 0 0 1-1.58-.09 6.3 6.3 0 0 0-1.09-.45c0 .36-.07.7-.1 1s0 .48 0 .68a14.6 14.6 0 0 0 .29 3.36A3.83 3.83 0 0 0 76 40.47a6.59 6.59 0 0 0 1.51.78 4.88 4.88 0 0 0 1.13.19H79z" fill="url(#e)"/></svg>