<svg xmlns="http://www.w3.org/2000/svg" xmlns:xlink="http://www.w3.org/1999/xlink" width="123.4" height="200" viewBox="0 0 123.4 200"><defs><linearGradient id="a" x1="35.48" y1="34.97" x2="45.91" y2="11.55" gradientUnits="userSpaceOnUse"><stop offset="0" stop-color="#fdba56"/><stop offset=".02" stop-color="#fbb055"/><stop offset=".06" stop-color="#f79d54"/><stop offset=".1" stop-color="#f59253"/><stop offset=".15" stop-color="#f48e53"/><stop offset=".3" stop-color="#ed5e4e"/><stop offset=".47" stop-color="#683a96" stop-opacity=".5"/><stop offset=".64" stop-color="#ed872b"/><stop offset=".79" stop-color="#7b76b6"/><stop offset=".9" stop-color="#f15f4f"/><stop offset="1" stop-color="#fdba56"/></linearGradient><linearGradient id="c" x1="69.45" y1="35.28" x2="79.61" y2="12.45" xlink:href="#a"/><linearGradient id="d" x1="43.01" y1="172.68" x2="96.19" y2="53.23" xlink:href="#a"/><linearGradient id="b" x1="46.41" y1="23.4" x2="55.48" y2="43.77" gradientUnits="userSpaceOnUse"><stop offset="0" stop-color="#b7151b"/><stop offset=".02" stop-color="#c52229"/><stop offset=".06" stop-color="#d7333c"/><stop offset=".11" stop-color="#e23d47"/><stop offset=".15" stop-color="#e6404b"/><stop offset=".3" stop-color="#e98a7b"/><stop offset=".47" stop-color="#7c78b8"/><stop offset=".64" stop-color="#00b0b0"/><stop offset=".79" stop-color="#7b76b6"/><stop offset="1" stop-color="#e7322f"/></linearGradient><linearGradient id="e" x1="81.03" y1="24.29" x2="89.35" y2="42.98" xlink:href="#b"/><linearGradient id="f" x1="38.99" y1="142.13" x2="46.48" y2="158.96" xlink:href="#b"/><linearGradient id="g" x1="64.25" y1="55.77" x2="112.85" y2="164.92" xlink:href="#b"/></defs><title>_</title><path d="M52.47 20.92A8 8 0 0 1 51.11 18a7.26 7.26 0 0 1 .3-3.26 1.93 1.93 0 0 0 .12-.7 4.4 4.4 0 0 0-1.4.18 15.9 15.9 0 0 1-3.72.55 14.43 14.43 0 0 1-3.6-.54 13.48 13.48 0 0 0-3-.5 12.66 12.66 0 0 0-3 .34 29.44 29.44 0 0 1-3.32.62 24.68 24.68 0 0 1-3.19.11 3.55 3.55 0 0 0-1.07.11 1.29 1.29 0 0 0 .13.42 6 6 0 0 1 .56 2.75 7.84 7.84 0 0 1-.92 2.83c-.37.65-.92 1.75-1.21 2.41s-.69 1.75-.89 2.39a9.71 9.71 0 0 0-.34 2.24 10.16 10.16 0 0 0 .33 2.29 2.83 2.83 0 0 0 .94 1.33A4.92 4.92 0 0 0 30 32c.88 0 2.35-.16 3.21-.28.61-.08 1.53-.24 2.34-.4l.84-.18c.92-.21 2.42-.48 3.34-.61s2.42-.25 3.35-.29h.29a16.17 16.17 0 0 1 3.45.43 25.65 25.65 0 0 1 4 1.51 7.63 7.63 0 0 0 .88.37 5.73 5.73 0 0 0-.26-.55 7.63 7.63 0 0 1-1.12-3.88A6 6 0 0 1 52 24.7a4.31 4.31 0 0 0 1.16-1.9 3.1 3.1 0 0 0-.61-1.8z" fill="url(#a)"/><path d="M68.18 30.46h.09a7.9 7.9 0 0 1 4 1.55 6.66 6.66 0 0 0 1.36.8 4.92 4.92 0 0 0 1.37.43 5.33 5.33 0 0 0 2.64-.69 11.35 11.35 0 0 1 3.7-1.34 10.75 10.75 0 0 1 3.86.34 4.53 4.53 0 0 0 1.43.21 1.84 1.84 0 0 0-.1-.69 11.19 11.19 0 0 1-.5-3.07 9.74 9.74 0 0 1 .58-2.94 8.09 8.09 0 0 0 .47-2.17A7.37 7.37 0 0 0 87 21.4a5.83 5.83 0 0 0-.16-.67 16.68 16.68 0 0 1-.61-2.6 12.34 12.34 0 0 1 0-2.46.74.74 0 0 0 0-.33 4.53 4.53 0 0 0-1.39.24 10.53 10.53 0 0 1-3.42.44 24.12 24.12 0 0 1-5.1-1.41c-1.83-.61-4-1.38-4.85-1.61a17 17 0 0 0-3.05-.36 16 16 0 0 0-3.09.32 4.89 4.89 0 0 0-2 .9 2.31 2.31 0 0 0-.46 1.38c0 .67.15 1.79.26 2.45s.36 1.76.55 2.41.48 1.89.61 2.61.26 1.9.29 2.62a11.86 11.86 0 0 1-.29 2.72v.11c0 .08 0 .17-.05.24A22.94 22.94 0 0 1 63 31.9c-.07.15-.13.28-.17.41a8.84 8.84 0 0 0 1.11-.55 9.86 9.86 0 0 1 4.24-1.3z" fill="url(#c)"/><path d="M77.91 143.22a9.44 9.44 0 0 1-.08 1.57 7.59 7.59 0 0 1-.21 1.11 16.62 16.62 0 0 0-.42 2 13 13 0 0 0-.09 1.84 8 8 0 0 0 .31 1.71 10.77 10.77 0 0 0 .83 1.79 2.41 2.41 0 0 0 1.37.77 11.74 11.74 0 0 0 3.42-.27 18.41 18.41 0 0 1 2.88-.35 16 16 0 0 1 2.06 0 19.63 19.63 0 0 1 4.85 1.2 10.61 10.61 0 0 0 4.06.67 12.06 12.06 0 0 0 4.11-1.36 16.69 16.69 0 0 1 4.82-1.77 13.25 13.25 0 0 1 4.81.28 5.81 5.81 0 0 0 2 .22 2 2 0 0 0-.13-.94c-.32-.86-1.29-3-2.16-4.82a39.32 39.32 0 0 1-2.13-5.24 22.72 22.72 0 0 1-.62-3.9 24.38 24.38 0 0 0-.52-3.54 22.75 22.75 0 0 0-1.13-3.3c-.41-.9-1.15-2.34-1.65-3.21s-1.41-2.26-2-3.09a11.44 11.44 0 0 1-1.66-3.77 13.32 13.32 0 0 1 0-4.3 17.19 17.19 0 0 0 .21-3.72 13.43 13.43 0 0 0-.8-3.29 34.29 34.29 0 0 0-1.59-3.2c-.49-.85-1.42-2.25-2-3s-1.64-2.33-2.18-3.25a38 38 0 0 1-1.74-3.42 22.68 22.68 0 0 1-1.17-3.71 24.58 24.58 0 0 1-.41-4 8.7 8.7 0 0 0-.74-3.16A10.45 10.45 0 0 0 88 83a11.24 11.24 0 0 1-2.71-3.4 10.08 10.08 0 0 1-.73-4.16c.07-1.05 0-3.67-.08-5.72a24 24 0 0 0-.8-5.25 16.06 16.06 0 0 0-1.66-3c-.64-.88-2-3.08-3-4.91A27.36 27.36 0 0 1 76.59 51c-.06-.27-.12-.58-.19-.93a31.86 31.86 0 0 1-.4-3.64 4.18 4.18 0 0 0-1.09-2.65 5.79 5.79 0 0 0-3.33-.48c-1.44.19-4.75.85-7.37 1.46a64.14 64.14 0 0 1-7.26 1.33 79.2 79.2 0 0 1-9.52-.57c-4.32-.45-7.39-.27-7.9 0A4.15 4.15 0 0 0 38 47.56c-.29 1-.82 3.43-1.19 5.46s-1.12 5.37-1.67 7.36a21.4 21.4 0 0 1-2.25 5.43 19 19 0 0 1-3 3.1 6.55 6.55 0 0 0-1.86 2.62 7.45 7.45 0 0 0 .13 3.39 8.66 8.66 0 0 1 0 4.54A8.49 8.49 0 0 1 25.42 83a8.06 8.06 0 0 0-2.27 2.57 6.88 6.88 0 0 0-.37 3.18 13.07 13.07 0 0 1-.14 4.25 11.61 11.61 0 0 1-1.77 3.71 11.27 11.27 0 0 0-2.34 6.36 17.11 17.11 0 0 1-.76 3.93 17 17 0 0 1-1.77 3.56 17.57 17.57 0 0 0-1.64 3.07 17.15 17.15 0 0 0-.83 3.35c-.13 1.06-.43 2.76-.68 3.79s-.74 2.65-1.11 3.64a34.5 34.5 0 0 0-1 3.41c-.22.94-.49 2.57-.6 3.57a15.31 15.31 0 0 1-1 3.87 16.33 16.33 0 0 1-2.19 3.43c-.68.79-2.2 2.87-3.33 4.55a29.72 29.72 0 0 0-2.64 4.69 22 22 0 0 0-.98 3.46 3.3 3.3 0 0 0 .47 2.2 5.44 5.44 0 0 0 2.65 1.09 27.23 27.23 0 0 0 4.32.17c.44 0 1-.09 1.7-.19 1-.14 1.91-.33 2.57-.5a18.65 18.65 0 0 1 4.2-.51h.55a19 19 0 0 1 4.74 1 11.69 11.69 0 0 0 3.94.63 11.12 11.12 0 0 0 3.76-1.12c1.14-.62 2.8-1.42 3.7-1.8a18.3 18.3 0 0 1 2.88-.93 1.12 1.12 0 0 0 .48-.23 3.75 3.75 0 0 0-.48-1.11 10.86 10.86 0 0 1-1.21-2.57 5.9 5.9 0 0 1-.09-2.48 5.44 5.44 0 0 1 .95-2c.67-.8 4.6-2.35 5.38-2.65a37.5 37.5 0 0 1 6.86-2 23.43 23.43 0 0 1 4.69 0 27.15 27.15 0 0 0 4.33.11 28.2 28.2 0 0 0 4.34-.75 40.78 40.78 0 0 1 4.78-.93 44.94 44.94 0 0 1 5-.26 12.13 12.13 0 0 1 4.4.88 5.24 5.24 0 0 1 2.42 2.78 14.28 14.28 0 0 1 .58 3z" fill="url(#d)"/><path d="M62.05 31.46a22.11 22.11 0 0 0 1.25-3.28c0-.09 0-.21.07-.31a3.64 3.64 0 0 0-.37-.51 6.08 6.08 0 0 1-.48-.73 6.6 6.6 0 0 1-.76-1.86 6.33 6.33 0 0 1 .3-2.77v-.19a1.72 1.72 0 0 0-.17-1.68.86.86 0 0 0-.3-.12 4.7 4.7 0 0 0-2.07.17 15 15 0 0 1-3.44.51 11.08 11.08 0 0 1-1.5-.13c-.46-.07-.93-.15-1.34-.25v.07a4 4 0 0 1 .84 2.5 5.18 5.18 0 0 1-1.45 2.5 5 5 0 0 0-1.41 2.76 6.75 6.75 0 0 0 1 3.29c.6 1 .87 2 .62 2.17s-1.39 0-2.5-.59a24.46 24.46 0 0 0-3.86-1.44 14.73 14.73 0 0 0-3.45-.39c-.89 0-2.36.16-3.25.28s-2.36.39-3.25.59l-.87.18v.09a8.77 8.77 0 0 0-.22 1 9.89 9.89 0 0 0-.17 1.55 11.06 11.06 0 0 0 .36 2.57A3.75 3.75 0 0 0 37 39.37a5.73 5.73 0 0 0 2.68.55c.91 0 2.4-.17 3.3-.29s2.42-.39 3.32-.63 2.36-.47 3.25-.59 2.36-.25 3.25-.28a14.73 14.73 0 0 1 3.45.39A24.46 24.46 0 0 1 60.12 40c1.12.54 2.24.81 2.5.59s0-1.19-.62-2.17a6.75 6.75 0 0 1-1-3.29 3 3 0 0 1 .19-.8 5.9 5.9 0 0 1 .45-.94 2.84 2.84 0 0 1 .41-1.93z" fill="url(#b)"/><path d="M97.85 29.86a8.66 8.66 0 0 0-.37-2.5 15.8 15.8 0 0 1-.56-2.41 11.46 11.46 0 0 1 0-2.22 1.35 1.35 0 0 0-.57-1.35 4.07 4.07 0 0 0-2.17.21 9.52 9.52 0 0 1-3 .39 12.25 12.25 0 0 1-2.18-.46l-1-.32a8.33 8.33 0 0 1 .18 1.71 9 9 0 0 1-.54 2.5 8.7 8.7 0 0 0-.55 2.59 10.2 10.2 0 0 0 .45 2.74 1.82 1.82 0 0 1-.18 1.85A3.7 3.7 0 0 1 85 32.5a9.71 9.71 0 0 0-3.44-.31 10.36 10.36 0 0 0-3.32 1.21 6.33 6.33 0 0 1-3.25.83 5.78 5.78 0 0 1-1.68-.51c0 .35-.1.69-.17 1 0 .13-.05.27-.08.39a22.11 22.11 0 0 1-1.25 3.28c-.47 1-.59 1.9-.27 2.06a4.72 4.72 0 0 0 2.61-.91A8.74 8.74 0 0 1 78 38.41a6.88 6.88 0 0 1 3.45 1.33 7.47 7.47 0 0 0 3.25 1.44 6.33 6.33 0 0 0 3.25-.83 10.36 10.36 0 0 1 3.32-1.21 9.71 9.71 0 0 1 3.44.31 3.7 3.7 0 0 0 2.39.09 1.82 1.82 0 0 0 .18-1.85 10.2 10.2 0 0 1-.45-2.74 8.7 8.7 0 0 1 .51-2.58 9 9 0 0 0 .51-2.51z" fill="url(#e)"/><path d="M76.91 143.27a13.41 13.41 0 0 0-.51-2.7 4.27 4.27 0 0 0-1.92-2.18 11.19 11.19 0 0 0-4-.78 43.49 43.49 0 0 0-4.87.25 39.53 39.53 0 0 0-4.64.9 28.9 28.9 0 0 1-4.52.78 27.69 27.69 0 0 1-4.52-.12 22.35 22.35 0 0 0-4.44 0 37.28 37.28 0 0 0-6.62 2 23.91 23.91 0 0 0-5 2.36 4.45 4.45 0 0 0-.74 1.57 4.94 4.94 0 0 0 .08 2 9.89 9.89 0 0 0 1.08 2.28 3.33 3.33 0 0 1 .71 1.87 1.64 1.64 0 0 1-1.27.93 17.49 17.49 0 0 0-2.69.87c-.87.36-2.49 1.15-3.61 1.75a12.16 12.16 0 0 1-4.17 1.23 12.68 12.68 0 0 1-4.35-.69 18.22 18.22 0 0 0-4.45-.95 17.3 17.3 0 0 0-4.44.46 26.58 26.58 0 0 1-2.68.52c-.09.34-.18.69-.27 1-.13.54-.23 1.07-.3 1.49a4.21 4.21 0 0 0 .71 3 6.25 6.25 0 0 0 3.26 1.42 27.76 27.76 0 0 0 4.51.17 27.87 27.87 0 0 0 4.46-.72 17.3 17.3 0 0 1 4.44-.46 18.22 18.22 0 0 1 4.45.95 12.68 12.68 0 0 0 4.35.69 12.16 12.16 0 0 0 4.16-1.16c1.12-.6 2.75-1.39 3.61-1.75a17.49 17.49 0 0 1 2.69-.87 1.64 1.64 0 0 0 1.27-.93 3.33 3.33 0 0 0-.63-1.93 9.89 9.89 0 0 1-1.05-2.29 4.94 4.94 0 0 1-.08-2 4.45 4.45 0 0 1 .74-1.57 23.91 23.91 0 0 1 5-2.36 37.28 37.28 0 0 1 6.62-2 22.35 22.35 0 0 1 4.44 0 27.69 27.69 0 0 0 4.52.12 28.9 28.9 0 0 0 4.52-.78 39.53 39.53 0 0 1 4.64-.9h.46l1-.09a8.42 8.42 0 0 0 .05-1.38z" fill="url(#f)"/><path d="M121 153.36a39.17 39.17 0 0 1-2.06-5.07 22 22 0 0 1-.59-3.7 25.25 25.25 0 0 0-.54-3.71 23.77 23.77 0 0 0-1.19-3.48c-.42-.92-1.18-2.41-1.7-3.3s-1.45-2.32-2.06-3.17a10.44 10.44 0 0 1-1.49-3.38 12.42 12.42 0 0 1 0-3.92 18.09 18.09 0 0 0 .22-4 14.42 14.42 0 0 0-.88-3.6 34.8 34.8 0 0 0-1.65-3.32 37.27 37.27 0 0 0-2.1-3.15c-.64-.84-1.59-2.26-2.11-3.15a36.68 36.68 0 0 1-1.68-3.31 21.57 21.57 0 0 1-1.11-3.52 23.52 23.52 0 0 1-.39-3.77 9.64 9.64 0 0 0-.85-3.61 11.35 11.35 0 0 0-2.5-3 10.27 10.27 0 0 1-2.43-3 9.1 9.1 0 0 1-.64-3.68c.07-1.1 0-3.73-.08-5.83a24.52 24.52 0 0 0-.87-5.56 17 17 0 0 0-1.79-3.27c-.62-.85-1.95-3-2.95-4.81a26.76 26.76 0 0 1-2.29-5.28 29.49 29.49 0 0 1-.58-4.41 5 5 0 0 0-1.5-3.41 6.66 6.66 0 0 0-4.06-.67c-.64.08-1.63.26-2.77.48l-1 .19c.06.32.12.62.17.87a26.76 26.76 0 0 0 2.29 5.28c1 1.79 2.33 4 2.95 4.81a17 17 0 0 1 1.79 3.27 24.52 24.52 0 0 1 .87 5.56c.12 2.11.15 4.74.08 5.83a9.1 9.1 0 0 0 .64 3.68 10.27 10.27 0 0 0 2.43 3 11.35 11.35 0 0 1 2.5 3 9.64 9.64 0 0 1 .92 3.64 23.52 23.52 0 0 0 .39 3.77 21.57 21.57 0 0 0 1.11 3.52 36.68 36.68 0 0 0 1.68 3.31c.52.89 1.47 2.31 2.11 3.15a37.27 37.27 0 0 1 2.1 3.15 34.8 34.8 0 0 1 1.61 3.31 14.42 14.42 0 0 1 .88 3.6 18.09 18.09 0 0 1-.22 4 12.42 12.42 0 0 0 0 3.92 10.44 10.44 0 0 0 1.49 3.38c.62.85 1.55 2.28 2.06 3.17s1.28 2.37 1.7 3.3a23.77 23.77 0 0 1 1.19 3.48 25.25 25.25 0 0 1 .54 3.71 22 22 0 0 0 .59 3.7 39.17 39.17 0 0 0 2.06 5.07c.87 1.81 1.86 4 2.19 4.9a2 2 0 0 1-.17 2.12 4.89 4.89 0 0 1-2.95-.1 12.36 12.36 0 0 0-4.39-.25 15.81 15.81 0 0 0-4.48 1.65 13.08 13.08 0 0 1-4.49 1.48 11.69 11.69 0 0 1-4.52-.74 18.84 18.84 0 0 0-4.56-1.13 14.67 14.67 0 0 0-1.92 0c0 .12 0 .23-.05.33s0 .43-.06.68a13.36 13.36 0 0 0 0 1.34 9 9 0 0 0 .36 2 11.74 11.74 0 0 0 .92 2 3.31 3.31 0 0 0 2.07 1.24 12.63 12.63 0 0 0 3.8-.28 18.24 18.24 0 0 1 4.64-.32 18.84 18.84 0 0 1 4.56 1.13 11.69 11.69 0 0 0 4.52.74 13.08 13.08 0 0 0 4.52-1.49 15.81 15.81 0 0 1 4.48-1.65 12.36 12.36 0 0 1 4.39.25 4.89 4.89 0 0 0 2.95.1 2 2 0 0 0 .17-2.12c-.41-.94-1.4-3.15-2.27-4.95z" fill="url(#g)"/></svg>