<svg xmlns="http://www.w3.org/2000/svg" xmlns:xlink="http://www.w3.org/1999/xlink" width="200" height="200" viewBox="0 0 200 200"><defs><linearGradient id="a" x1="73.09" y1="33.6" x2="83.52" y2="10.17" gradientUnits="userSpaceOnUse"><stop offset="0" stop-color="#fdba56"/><stop offset="0.02" stop-color="#fbb055"/><stop offset="0.06" stop-color="#f79d54"/><stop offset="0.1" stop-color="#f59253"/><stop offset="0.15" stop-color="#f48e53"/><stop offset="0.3" stop-color="#ed5e4e"/><stop offset="0.47" stop-color="#683a96" stop-opacity="0.5"/><stop offset="0.64" stop-color="#ed872b"/><stop offset="0.79" stop-color="#7b76b6"/><stop offset="0.9" stop-color="#f15f4f"/><stop offset="1" stop-color="#fdba56"/></linearGradient><linearGradient id="b" x1="107.07" y1="33.9" x2="117.23" y2="11.07" xlink:href="#a"/><linearGradient id="c" x1="80.63" y1="171.31" x2="133.81" y2="51.86" xlink:href="#a"/><linearGradient id="d" x1="84.03" y1="22.03" x2="93.1" y2="42.4" gradientUnits="userSpaceOnUse"><stop offset="0" stop-color="#b7151b"/><stop offset="0.02" stop-color="#c52229"/><stop offset="0.06" stop-color="#d7333c"/><stop offset="0.11" stop-color="#e23d47"/><stop offset="0.15" stop-color="#e6404b"/><stop offset="0.3" stop-color="#e98a7b"/><stop offset="0.47" stop-color="#7c78b8"/><stop offset="0.64" stop-color="#00b0b0"/><stop offset="0.79" stop-color="#7b76b6"/><stop offset="1" stop-color="#e7322f"/></linearGradient><linearGradient id="e" x1="118.65" y1="22.91" x2="126.97" y2="41.61" xlink:href="#d"/><linearGradient id="f" x1="76.61" y1="140.76" x2="84.1" y2="157.58" xlink:href="#d"/><linearGradient id="g" x1="101.87" y1="54.4" x2="150.47" y2="163.55" xlink:href="#d"/></defs><title>_</title><path d="M99.42,23.4a6.6,6.6,0,0,0,.76,1.86,7.4,7.4,0,0,0,.07-1.16c0-.65-0.16-1.74-0.27-2.38-0.06-.34-0.16-0.79-0.26-1.24,0,0.06,0,.12,0,0.19A6.33,6.33,0,0,0,99.42,23.4Z" fill="none"/><path d="M90.09,19.55a8,8,0,0,1-1.36-2.91,7.26,7.26,0,0,1,.3-3.26,1.93,1.93,0,0,0,.12-0.7,4.4,4.4,0,0,0-1.4.18A15.9,15.9,0,0,1,84,13.4h0a14.43,14.43,0,0,1-3.6-.54,13.48,13.48,0,0,0-3-.5,12.66,12.66,0,0,0-3,.34,29.44,29.44,0,0,1-3.32.62,24.68,24.68,0,0,1-3.19.11,3.55,3.55,0,0,0-1.07.11A1.29,1.29,0,0,0,67,14a6,6,0,0,1,.56,2.75,7.84,7.84,0,0,1-.92,2.83c-0.37.65-.92,1.75-1.21,2.41s-0.69,1.75-.89,2.39a9.71,9.71,0,0,0-.34,2.24,10.16,10.16,0,0,0,.33,2.29,2.83,2.83,0,0,0,.94,1.33,4.92,4.92,0,0,0,2.12.4c0.88,0,2.35-.16,3.21-0.28,0.61-.08,1.53-0.24,2.34-0.4L74,29.74c0.92-.21,2.42-0.48,3.34-0.61s2.42-.25,3.35-0.29H81a16.17,16.17,0,0,1,3.45.43,25.65,25.65,0,0,1,4,1.51,7.63,7.63,0,0,0,.88.37,5.73,5.73,0,0,0-.29-0.52,7.63,7.63,0,0,1-1.12-3.88,6,6,0,0,1,1.71-3.42,4.31,4.31,0,0,0,1.16-1.9,3.1,3.1,0,0,0-.63-1.76Z" fill="url(#a)"/><path d="M105.8,29.09h0.09a7.9,7.9,0,0,1,4,1.55,6.66,6.66,0,0,0,1.36.8,4.92,4.92,0,0,0,1.37.43,5.33,5.33,0,0,0,2.64-.69,11.35,11.35,0,0,1,3.7-1.34,10.75,10.75,0,0,1,3.86.34,4.53,4.53,0,0,0,1.43.21,1.84,1.84,0,0,0-.1-0.69,11.19,11.19,0,0,1-.5-3.07,9.74,9.74,0,0,1,.58-2.94,8.09,8.09,0,0,0,.47-2.17A7.37,7.37,0,0,0,124.6,20a5.83,5.83,0,0,0-.16-0.67,16.68,16.68,0,0,1-.61-2.6,12.34,12.34,0,0,1,0-2.46,0.74,0.74,0,0,0,0-.33,4.53,4.53,0,0,0-1.39.24,10.53,10.53,0,0,1-3.42.44,24.12,24.12,0,0,1-5.1-1.41c-1.73-.66-3.91-1.38-4.75-1.58A17,17,0,0,0,106,11.3a16,16,0,0,0-3.09.32,4.89,4.89,0,0,0-2,.9,2.31,2.31,0,0,0-.46,1.38c0,0.67.15,1.79,0.26,2.45s0.36,1.76.55,2.41,0.48,1.89.61,2.61,0.26,1.9.29,2.62a11.86,11.86,0,0,1-.29,2.72l0,0.11c0,0.08,0,.17-0.05.24a22.94,22.94,0,0,1-1.32,3.46c-0.07.15-.13,0.28-0.17,0.41a8.84,8.84,0,0,0,1.11-.55A9.86,9.86,0,0,1,105.8,29.09Z" fill="url(#b)"/><path d="M115.52,141.84a9.44,9.44,0,0,1-.08,1.57,7.59,7.59,0,0,1-.21,1.11,16.62,16.62,0,0,0-.42,2,13,13,0,0,0-.09,1.84A8,8,0,0,0,115,150a10.77,10.77,0,0,0,.83,1.79,2.41,2.41,0,0,0,1.37.77,11.74,11.74,0,0,0,3.42-.27,18.41,18.41,0,0,1,2.88-.35,16,16,0,0,1,2.06,0,19.63,19.63,0,0,1,4.85,1.2,10.61,10.61,0,0,0,4.06.67,12.06,12.06,0,0,0,4.11-1.36,16.69,16.69,0,0,1,4.82-1.77,13.25,13.25,0,0,1,4.81.28,5.81,5.81,0,0,0,2,.22,2,2,0,0,0-.13-0.94c-0.32-.86-1.29-3-2.16-4.82a39.32,39.32,0,0,1-2.13-5.24,22.72,22.72,0,0,1-.62-3.9,24.38,24.38,0,0,0-.52-3.54,22.75,22.75,0,0,0-1.13-3.3c-0.41-.9-1.15-2.34-1.65-3.21s-1.41-2.26-2-3.09a11.44,11.44,0,0,1-1.66-3.77,13.32,13.32,0,0,1,0-4.3,17.19,17.19,0,0,0,.21-3.72,13.43,13.43,0,0,0-.8-3.29,34.29,34.29,0,0,0-1.59-3.2c-0.49-.85-1.42-2.25-2-3s-1.64-2.33-2.18-3.25a38,38,0,0,1-1.74-3.42A22.68,22.68,0,0,1,129,91.48a24.58,24.58,0,0,1-.41-4,8.7,8.7,0,0,0-.74-3.16,10.45,10.45,0,0,0-2.24-2.69,11.24,11.24,0,0,1-2.71-3.4,10.08,10.08,0,0,1-.73-4.16c0.07-1.05,0-3.67-.08-5.72a24,24,0,0,0-.8-5.25,16.06,16.06,0,0,0-1.66-3c-0.64-.88-2-3.08-3-4.91a27.36,27.36,0,0,1-2.39-5.54c-0.06-.27-0.12-0.58-0.19-0.93a31.86,31.86,0,0,1-.42-3.66,4.18,4.18,0,0,0-1.09-2.65,5.79,5.79,0,0,0-3.33-.48c-1.44.19-4.75,0.85-7.37,1.46a64.14,64.14,0,0,1-7.26,1.33A79.2,79.2,0,0,1,85,44.15c-4.32-.45-7.39-0.27-7.9,0a4.15,4.15,0,0,0-1.51,2.07c-0.29,1-.82,3.43-1.19,5.46S73.32,57,72.77,59a21.4,21.4,0,0,1-2.25,5.43,19,19,0,0,1-3,3.1,6.55,6.55,0,0,0-1.86,2.62,7.45,7.45,0,0,0,.13,3.39,8.66,8.66,0,0,1,0,4.54A8.49,8.49,0,0,1,63,81.63a8.06,8.06,0,0,0-2.27,2.57,6.88,6.88,0,0,0-.37,3.18,13.07,13.07,0,0,1-.13,4.25,11.61,11.61,0,0,1-1.77,3.71,11.27,11.27,0,0,0-2.34,6.36,14.17,14.17,0,0,1-2.58,7.48,17.57,17.57,0,0,0-1.64,3.07,17.15,17.15,0,0,0-.83,3.35c-0.13,1.06-.43,2.76-0.68,3.79S49.68,122,49.31,123a34.5,34.5,0,0,0-1,3.41c-0.22.94-.49,2.57-0.6,3.57a15.31,15.31,0,0,1-1,3.87,16.33,16.33,0,0,1-2.19,3.43c-0.68.79-2.2,2.87-3.33,4.55a29.72,29.72,0,0,0-2.64,4.69,22,22,0,0,0-.86,3.47,3.3,3.3,0,0,0,.47,2.2,5.44,5.44,0,0,0,2.65,1.09,27.23,27.23,0,0,0,4.32.17c0.44,0,1-.09,1.7-0.19,1-.14,1.91-0.33,2.57-0.5a18.65,18.65,0,0,1,4.2-.51H54.1a19,19,0,0,1,4.74,1,11.69,11.69,0,0,0,3.94.63,11.12,11.12,0,0,0,3.76-1.12c1.14-.62,2.8-1.42,3.7-1.8a18.3,18.3,0,0,1,2.88-.93,1.12,1.12,0,0,0,.48-0.23,3.75,3.75,0,0,0-.48-1.11,10.86,10.86,0,0,1-1.21-2.57,5.9,5.9,0,0,1-.09-2.48,5.44,5.44,0,0,1,.95-2c0.67-.8,4.6-2.35,5.38-2.65A37.5,37.5,0,0,1,85,137a23.43,23.43,0,0,1,4.69,0,27.15,27.15,0,0,0,4.33.11,28.2,28.2,0,0,0,4.34-.75,40.78,40.78,0,0,1,4.78-.93,44.94,44.94,0,0,1,5-.26,12.13,12.13,0,0,1,4.4.88,5.24,5.24,0,0,1,2.42,2.78A14.28,14.28,0,0,1,115.52,141.84Z" fill="url(#c)"/><path d="M99.67,30.09a22.11,22.11,0,0,0,1.25-3.28c0-.09,0-0.21.07-0.31a3.64,3.64,0,0,0-.33-0.51,6.08,6.08,0,0,1-.48-0.73,6.6,6.6,0,0,1-.76-1.86,6.33,6.33,0,0,1,.26-2.75c0-.06,0-0.12,0-0.19a1.72,1.72,0,0,0-.17-1.68,0.86,0.86,0,0,0-.3-0.12,4.7,4.7,0,0,0-2.07.17,15,15,0,0,1-3.44.51,11.08,11.08,0,0,1-1.5-.13c-0.46-.07-0.93-0.15-1.34-0.25l0,0.07a4,4,0,0,1,.84,2.5A5.18,5.18,0,0,1,90.34,24a5,5,0,0,0-1.41,2.76,6.75,6.75,0,0,0,1,3.29c0.6,1,.87,2,0.62,2.17s-1.39,0-2.5-.59a24.46,24.46,0,0,0-3.86-1.44,14.73,14.73,0,0,0-3.45-.39c-0.89,0-2.36.16-3.25,0.28s-2.36.39-3.25,0.59l-0.87.18,0,0.09a8.77,8.77,0,0,0-.22,1,9.89,9.89,0,0,0-.17,1.55,11.06,11.06,0,0,0,.36,2.57A3.75,3.75,0,0,0,74.66,38a5.73,5.73,0,0,0,2.68.55c0.91,0,2.4-.17,3.3-0.29s2.38-.39,3.27-0.59,2.36-.47,3.25-0.59,2.36-.25,3.25-0.28a14.73,14.73,0,0,1,3.45.39,24.46,24.46,0,0,1,3.86,1.44c1.12,0.54,2.24.81,2.5,0.59s0-1.19-.62-2.17a6.75,6.75,0,0,1-1-3.29,3,3,0,0,1,.19-0.8A5.9,5.9,0,0,1,99.28,32,2.84,2.84,0,0,1,99.67,30.09Z" fill="url(#d)"/><path d="M135.47,28.48a8.66,8.66,0,0,0-.37-2.5,15.8,15.8,0,0,1-.56-2.41,11.46,11.46,0,0,1,0-2.22,1.35,1.35,0,0,0-.57-1.35,4.07,4.07,0,0,0-2.17.21,9.52,9.52,0,0,1-3,.39,12.25,12.25,0,0,1-2.07-.44l-1.07-.32a8.33,8.33,0,0,1,.18,1.71,9,9,0,0,1-.54,2.5,8.7,8.7,0,0,0-.51,2.58,10.2,10.2,0,0,0,.45,2.74,1.82,1.82,0,0,1-.18,1.85,3.7,3.7,0,0,1-2.39-.09,9.71,9.71,0,0,0-3.44-.31A10.36,10.36,0,0,0,115.82,32a6.33,6.33,0,0,1-3.25.83,5.78,5.78,0,0,1-1.68-.51c0,0.35-.1.69-0.17,1,0,0.13-.05.27-0.08,0.39A22.11,22.11,0,0,1,109.38,37c-0.47,1-.59,1.9-0.27,2.06a4.72,4.72,0,0,0,2.61-.91A8.74,8.74,0,0,1,115.57,37,6.88,6.88,0,0,1,119,38.36a7.47,7.47,0,0,0,3.25,1.44,6.33,6.33,0,0,0,3.25-.83,10.36,10.36,0,0,1,3.32-1.21,9.71,9.71,0,0,1,3.44.31,3.7,3.7,0,0,0,2.39.09,1.82,1.82,0,0,0,.18-1.85,10.2,10.2,0,0,1-.45-2.74,8.7,8.7,0,0,1,.51-2.58A9,9,0,0,0,135.47,28.48Z" fill="url(#e)"/><path d="M114.53,141.89a13.41,13.41,0,0,0-.51-2.7A4.27,4.27,0,0,0,112.1,137a11.19,11.19,0,0,0-4-.78,43.49,43.49,0,0,0-4.87.25,39.53,39.53,0,0,0-4.64.9,28.9,28.9,0,0,1-4.52.78,27.69,27.69,0,0,1-4.52-.12,22.35,22.35,0,0,0-4.44,0,37.28,37.28,0,0,0-6.62,2,23.91,23.91,0,0,0-5,2.36,4.45,4.45,0,0,0-.74,1.57,4.94,4.94,0,0,0,.08,2A9.89,9.89,0,0,0,74,148.2a3.33,3.33,0,0,1,.63,1.93,1.64,1.64,0,0,1-1.27.93,17.49,17.49,0,0,0-2.69.87c-0.87.36-2.49,1.15-3.61,1.75a12.16,12.16,0,0,1-4.17,1.23,12.68,12.68,0,0,1-4.35-.69,18.22,18.22,0,0,0-4.45-.95,17.3,17.3,0,0,0-4.44.46,26.58,26.58,0,0,1-2.68.52c-0.09.34-.18,0.69-0.27,1-0.13.54-.23,1.07-0.3,1.49a4.21,4.21,0,0,0,.71,3,6.25,6.25,0,0,0,3.26,1.42,27.76,27.76,0,0,0,4.51.17,27.87,27.87,0,0,0,4.46-.72,17.3,17.3,0,0,1,4.44-.46,18.22,18.22,0,0,1,4.45.95,12.68,12.68,0,0,0,4.35.69,12.16,12.16,0,0,0,4.17-1.23c1.12-.6,2.75-1.39,3.61-1.75A17.49,17.49,0,0,1,83,158a1.64,1.64,0,0,0,1.27-.93,3.33,3.33,0,0,0-.63-1.93,9.89,9.89,0,0,1-1.08-2.28,4.94,4.94,0,0,1-.08-2,4.45,4.45,0,0,1,.74-1.57,23.91,23.91,0,0,1,5-2.36,37.28,37.28,0,0,1,6.62-2,22.35,22.35,0,0,1,4.44,0,27.69,27.69,0,0,0,4.52.12,28.9,28.9,0,0,0,4.52-.78,39.53,39.53,0,0,1,4.64-.9l0.46,0,1-.09A8.42,8.42,0,0,0,114.53,141.89Z" fill="url(#f)"/><path d="M158.62,152a39.17,39.17,0,0,1-2.06-5.07,22,22,0,0,1-.59-3.7,25.25,25.25,0,0,0-.54-3.71,23.77,23.77,0,0,0-1.19-3.48c-0.42-.92-1.18-2.41-1.7-3.3s-1.45-2.32-2.06-3.17a10.44,10.44,0,0,1-1.49-3.38,12.42,12.42,0,0,1,0-3.92,18.09,18.09,0,0,0,.22-4,14.42,14.42,0,0,0-.88-3.6,34.8,34.8,0,0,0-1.65-3.32,37.27,37.27,0,0,0-2.1-3.15c-0.64-.84-1.59-2.26-2.11-3.15a36.68,36.68,0,0,1-1.68-3.31,21.57,21.57,0,0,1-1.11-3.52,23.52,23.52,0,0,1-.39-3.77,9.64,9.64,0,0,0-.85-3.61,11.35,11.35,0,0,0-2.5-3,10.27,10.27,0,0,1-2.43-3,9.1,9.1,0,0,1-.64-3.68c0.07-1.1,0-3.73-.08-5.83a24.52,24.52,0,0,0-.87-5.56,17,17,0,0,0-1.79-3.27c-0.62-.85-1.95-3-2.95-4.81a26.76,26.76,0,0,1-2.29-5.28,29.49,29.49,0,0,1-.58-4.41,5,5,0,0,0-1.5-3.41,6.66,6.66,0,0,0-4.06-.67c-0.64.08-1.63,0.26-2.77,0.48l-1,.19c0.06,0.32.12,0.62,0.17,0.87a26.76,26.76,0,0,0,2.29,5.28c1,1.79,2.33,4,2.95,4.81a17,17,0,0,1,1.79,3.27,24.52,24.52,0,0,1,.87,5.56c0.12,2.11.15,4.74,0.08,5.83a9.1,9.1,0,0,0,.64,3.68,10.27,10.27,0,0,0,2.43,3,11.35,11.35,0,0,1,2.5,3,9.64,9.64,0,0,1,.85,3.61,23.52,23.52,0,0,0,.39,3.77,21.57,21.57,0,0,0,1.11,3.52,36.68,36.68,0,0,0,1.68,3.31c0.52,0.89,1.47,2.31,2.11,3.15a37.27,37.27,0,0,1,2.1,3.15,34.8,34.8,0,0,1,1.65,3.32,14.42,14.42,0,0,1,.88,3.6,18.09,18.09,0,0,1-.22,4,12.42,12.42,0,0,0,0,3.92,10.44,10.44,0,0,0,1.49,3.38c0.62,0.85,1.55,2.28,2.06,3.17s1.28,2.37,1.7,3.3a23.77,23.77,0,0,1,1.19,3.48,25.25,25.25,0,0,1,.54,3.71,22,22,0,0,0,.59,3.7,39.17,39.17,0,0,0,2.06,5.07c0.87,1.81,1.86,4,2.19,4.9a2,2,0,0,1-.17,2.12A4.89,4.89,0,0,1,148,152a12.36,12.36,0,0,0-4.39-.25,15.81,15.81,0,0,0-4.48,1.65,13.08,13.08,0,0,1-4.52,1.49,11.69,11.69,0,0,1-4.52-.74,18.84,18.84,0,0,0-4.56-1.13,14.67,14.67,0,0,0-1.92,0c0,0.12,0,.23-0.05.33s0,0.43-.06.68a13.36,13.36,0,0,0,0,1.34,9,9,0,0,0,.36,2,11.74,11.74,0,0,0,.92,2,3.31,3.31,0,0,0,2.07,1.24,12.63,12.63,0,0,0,3.8-.28,18.24,18.24,0,0,1,4.64-.32,18.84,18.84,0,0,1,4.56,1.13,11.69,11.69,0,0,0,4.52.74,13.08,13.08,0,0,0,4.52-1.49,15.81,15.81,0,0,1,4.48-1.65,12.36,12.36,0,0,1,4.39.25,4.89,4.89,0,0,0,2.95.1,2,2,0,0,0,.17-2.12C160.48,156,159.49,153.79,158.62,152Z" fill="url(#g)"/></svg>