<svg xmlns="http://www.w3.org/2000/svg" xmlns:xlink="http://www.w3.org/1999/xlink" width="200" height="200" viewBox="0 0 200 200"><defs><linearGradient id="a" x1="80.39" y1="170.82" x2="132.04" y2="54.82" gradientUnits="userSpaceOnUse"><stop offset="0" stop-color="#fdba56"/><stop offset=".02" stop-color="#fbb055"/><stop offset=".06" stop-color="#f79d54"/><stop offset=".1" stop-color="#f59253"/><stop offset=".15" stop-color="#f48e53"/><stop offset=".3" stop-color="#ed5e4e"/><stop offset=".47" stop-color="#683a96" stop-opacity=".5"/><stop offset=".64" stop-color="#ed872b"/><stop offset=".79" stop-color="#7b76b6"/><stop offset=".9" stop-color="#f15f4f"/><stop offset="1" stop-color="#fdba56"/></linearGradient><linearGradient id="c" x1="87.22" y1="29.02" x2="101.07" y2="-2.1" xlink:href="#a"/><linearGradient id="b" x1="76.01" y1="140.49" x2="84.89" y2="160.45" gradientUnits="userSpaceOnUse"><stop offset="0" stop-color="#b7151b"/><stop offset=".02" stop-color="#c52229"/><stop offset=".06" stop-color="#d7333c"/><stop offset=".11" stop-color="#e23d47"/><stop offset=".15" stop-color="#e6404b"/><stop offset=".3" stop-color="#e98a7b"/><stop offset=".47" stop-color="#7c78b8"/><stop offset=".64" stop-color="#00b0b0"/><stop offset=".79" stop-color="#7b76b6"/><stop offset="1" stop-color="#e7322f"/></linearGradient><linearGradient id="d" x1="102.53" y1="54.49" x2="151.11" y2="163.61" xlink:href="#b"/><linearGradient id="e" x1="99.94" y1="8.62" x2="113.1" y2="38.18" xlink:href="#b"/></defs><title>_</title><path d="M110.37 21.35c-.37.83-.91 2.23-1.2 3.07a17.11 17.11 0 0 1-.84 2 1.32 1.32 0 0 0 .46-.26 1.84 1.84 0 0 0 .38-1.08 3.74 3.74 0 0 1 .31-1.3 4.06 4.06 0 0 1 .86-1.07 6.81 6.81 0 0 0 1-1.16 10 10 0 0 0 .81-1.56 2.53 2.53 0 0 0 .11-1.53 1.49 1.49 0 0 0-.26-.4l-.16.31c-.41.77-1.09 2.12-1.47 2.98z" fill="none"/><path d="M114.64 144.72a3.53 3.53 0 0 0-.11 1.48 2.61 2.61 0 0 0 .36.7 3 3 0 0 0 .39.49 11.86 11.86 0 0 1 1.45 1.64 6.37 6.37 0 0 1 .81 1.71 3.24 3.24 0 0 0 .88.74 19.54 19.54 0 0 0 3.12 1.26 23.7 23.7 0 0 0 2.36.57c.71.14 1.34.24 1.81.28a26 26 0 0 0 4.27 0c1.28-.13 4.38-.18 6.91-.12s5.43 0 6.57-.06a31.28 31.28 0 0 0 4-.66 6.09 6.09 0 0 0 2.49-1.27 3.09 3.09 0 0 0 .55-1.93 10 10 0 0 0-.81-2.82 14.23 14.23 0 0 0-2-2.77 11.68 11.68 0 0 1-2.17-3.57 11.92 11.92 0 0 1-.46-4.18 11.43 11.43 0 0 0-.29-3.43 10.7 10.7 0 0 0-1.53-3 22.92 22.92 0 0 1-2.13-3.36c-.53-1.08-2.25-6.24-3.61-10.61-1.62-5.22-3.09-9.57-3.45-10.36a24.09 24.09 0 0 0-1.77-3.08 13 13 0 0 1-1.68-3.69 14.42 14.42 0 0 1-.25-4.17 7.89 7.89 0 0 0-.44-3.22 8.79 8.79 0 0 0-2.12-2.67 17.22 17.22 0 0 1-2.94-3.15 13.73 13.73 0 0 1-1.66-3.68c-.26-1-.69-3.55-1-5.64a56.66 56.66 0 0 1-.35-7.86 30 30 0 0 0-.24-5.52 36.56 36.56 0 0 0-3.14-6.36c-1.53-2.6-3.27-5.41-3.79-6.13-.17-.23-.37-.5-.58-.77-.49-.63-1-1.25-1.35-1.62a20.4 20.4 0 0 0-2.37-2.08 37.86 37.86 0 0 0-3.34-2.1 10.32 10.32 0 0 0-3.65-1.06 11.81 11.81 0 0 0-4 .71 14.81 14.81 0 0 1-5 .87 15.73 15.73 0 0 1-5-1.19 27.41 27.41 0 0 0-4.6-1.48 30 30 0 0 0-4.94-.49 5.42 5.42 0 0 0-3.16 1 4.73 4.73 0 0 0-.66 3 14.9 14.9 0 0 1-.35 4.93 10.48 10.48 0 0 1-2.3 3.85 12.79 12.79 0 0 0-2.08 2.83 11.29 11.29 0 0 0-.9 3.21 18.21 18.21 0 0 1-.87 3.87 18.27 18.27 0 0 1-1.85 3.52c-.59.83-1.47 2.23-2 3.1s-1.23 2.32-1.63 3.22a31.87 31.87 0 0 0-1.16 3.4 72.06 72.06 0 0 0-1.17 7.23 48.51 48.51 0 0 1-1.4 7.58 48.54 48.54 0 0 1-4.06 6.62 47.93 47.93 0 0 0-3.83 6.19 18.5 18.5 0 0 0-.85 3.36 22.58 22.58 0 0 1-.92 3.8 22.11 22.11 0 0 1-1.7 3.52 13.32 13.32 0 0 0-1.32 3.11 14.69 14.69 0 0 0-.32 3.49 25.16 25.16 0 0 1-.19 4 22 22 0 0 1-1 3.79 26.53 26.53 0 0 1-1.67 3.5 29.17 29.17 0 0 1-2.31 3.25 14.27 14.27 0 0 0-1.82 2.95 13.44 13.44 0 0 0-.81 3.29c-.1 1.08-.51 3.57-.93 5.57a7.86 7.86 0 0 0-.06 3.77 5.18 5.18 0 0 0 2.41 1 19.65 19.65 0 0 0 4.12.08 19.33 19.33 0 0 0 2.29-.43 19 19 0 0 0 1.9-.55 22 22 0 0 1 4.76-1.05 54 54 0 0 1 9.35 1.1 41.62 41.62 0 0 0 7.42.9 6.13 6.13 0 0 0 .47-2.91 28.49 28.49 0 0 1 .12-4.64 8.23 8.23 0 0 1 .85-2.06c.29-.49 1-1.53 1.64-2.37a5 5 0 0 1 3.15-1.94 16.53 16.53 0 0 1 3.87.43 17 17 0 0 0 4.14.31 19 19 0 0 0 4.22-.94 18.14 18.14 0 0 1 4.84-1 17.14 17.14 0 0 1 4.85.66 25.56 25.56 0 0 0 4.28.84 22.87 22.87 0 0 0 4.19-.11 22 22 0 0 1 2.86-.2 9.32 9.32 0 0 1 1 0 5 5 0 0 1 2.63 1.06 4.11 4.11 0 0 1 1.05 2 6.07 6.07 0 0 1-.29 2.52z" fill="url(#a)"/><path d="M106.95 2.45a24.55 24.55 0 0 0-5.2-4.24 2.24 2.24 0 0 0-.45 0 64.48 64.48 0 0 0-9.64 1.33c-5.21 1-9.2 2.26-9.76 2.67a7.32 7.32 0 0 0-1.59 2.43A34.17 34.17 0 0 0 79.3 8a30.83 30.83 0 0 0-.53 3.36 13 13 0 0 0 .15 3.05 12 12 0 0 0 1 2.78 20.82 20.82 0 0 1 1.38 3.29 24.46 24.46 0 0 1 .75 3.65 6.14 6.14 0 0 0 .95 2.52 5.59 5.59 0 0 0 2.14 1.42c.95.32 3.2 1.27 5 2.12l1.06.47a22 22 0 0 0 3.68 1.26 13.72 13.72 0 0 0 3.31 0 12.21 12.21 0 0 0 3.12-.92 11.46 11.46 0 0 0 2.57-1.87 18.37 18.37 0 0 0 2-2.57l.19-.34.06-.11a16.56 16.56 0 0 0 1.09-2.39c.3-.9.87-2.36 1.26-3.25s1.12-2.33 1.6-3.18c.07-.12.14-.27.22-.42a16.69 16.69 0 0 0 1-2.62 18.86 18.86 0 0 0 .5-3.44 9.65 9.65 0 0 0-.51-3.15 16.19 16.19 0 0 0-2.18-2.88c-.64-.78-1.41-1.58-2.16-2.33z" fill="url(#c)"/><path d="M113.56 146.44a4.43 4.43 0 0 1 .13-2 5.11 5.11 0 0 0 .22-2 3.14 3.14 0 0 0-.77-1.48 4.07 4.07 0 0 0-2-.78 18.06 18.06 0 0 0-3.59.15 23.7 23.7 0 0 1-4.41.12 26.34 26.34 0 0 1-4.49-.88 16.82 16.82 0 0 0-4.52-.61 17.35 17.35 0 0 0-4.52.91 20 20 0 0 1-4.49 1 18 18 0 0 1-4.43-.33 15.75 15.75 0 0 0-3.58-.41 4 4 0 0 0-2.45 1.54c-.59.8-1.31 1.83-1.59 2.29a7.35 7.35 0 0 0-.73 1.77 27.87 27.87 0 0 0-.09 4.38c.07 1.9-.4 3.64-1 3.88s-4.26-.15-8-.85a53.28 53.28 0 0 0-9.25-1.07 21.22 21.22 0 0 0-4.45 1 20.55 20.55 0 0 1-2 .58c-.07.37-.14.72-.21 1.07l-.06.28c-.41 2-.35 4 .13 4.59a5.78 5.78 0 0 0 3 1.36 20.63 20.63 0 0 0 4.38.09 23.08 23.08 0 0 0 4.43-1 21.22 21.22 0 0 1 4.45-1 53.28 53.28 0 0 1 9.08 1.09c3.77.7 7.38 1.08 8 .85s1.12-2 1-3.88a27.87 27.87 0 0 1 .09-4.38 7.35 7.35 0 0 1 .73-1.77c.28-.46 1-1.5 1.59-2.29a4 4 0 0 1 2.45-1.54 15.75 15.75 0 0 1 3.58.41 18 18 0 0 0 4.43.33 20 20 0 0 0 4.49-1 17.35 17.35 0 0 1 4.52-.91 16.82 16.82 0 0 1 4.52.61 26.34 26.34 0 0 0 4.49.88h1.25a3.55 3.55 0 0 1-.33-1z" fill="url(#b)"/><path d="M160.34 153.24a15.23 15.23 0 0 0-2.12-3 10.72 10.72 0 0 1-2-3.21 11 11 0 0 1-.41-3.76 12.44 12.44 0 0 0-.33-3.79 11.54 11.54 0 0 0-1.71-3.3 21.87 21.87 0 0 1-2-3.18c-.45-.91-2-5.62-3.55-10.46s-3.07-9.56-3.5-10.48a25 25 0 0 0-1.86-3.24 12 12 0 0 1-1.53-3.36 13.48 13.48 0 0 1-.23-3.83 8.82 8.82 0 0 0-.52-3.73 9.7 9.7 0 0 0-2.41-3 16.39 16.39 0 0 1-2.74-2.93 12.8 12.8 0 0 1-1.52-3.37c-.25-1-.67-3.47-.94-5.52a55.63 55.63 0 0 1-.35-7.69 30.87 30.87 0 0 0-.26-5.77 36.61 36.61 0 0 0-3.26-6.66c-1.57-2.66-3.3-5.46-3.84-6.21s-1.44-1.87-2-2.48a21.14 21.14 0 0 0-2.48-2.27 38.16 38.16 0 0 0-3.45-2.17 7.51 7.51 0 0 0-.7-.33 12.39 12.39 0 0 0-1.65-.55c.22.28.44.56.61.8.54.75 2.27 3.54 3.84 6.21a36.61 36.61 0 0 1 3.26 6.66 30.87 30.87 0 0 1 .26 5.77 55.63 55.63 0 0 0 .35 7.69c.27 2.05.7 4.54.94 5.52a12.8 12.8 0 0 0 1.51 3.4 16.39 16.39 0 0 0 2.74 2.93 9.7 9.7 0 0 1 2.41 3 8.82 8.82 0 0 1 .52 3.73 13.48 13.48 0 0 0 .23 3.83 12 12 0 0 0 1.53 3.36 25 25 0 0 1 1.82 3.25c.42.92 2 5.64 3.5 10.48s3.1 9.55 3.55 10.46a21.87 21.87 0 0 0 2 3.18 11.54 11.54 0 0 1 1.71 3.3 12.44 12.44 0 0 1 .33 3.79 11 11 0 0 0 .41 3.76 10.72 10.72 0 0 0 2 3.21 15.23 15.23 0 0 1 2.12 3 10.92 10.92 0 0 1 .91 3.17 4.05 4.05 0 0 1-.8 2.69 7 7 0 0 1-3 1.57 32 32 0 0 1-4.2.68c-1.19.1-4.19.12-6.68.06s-5.54 0-6.79.11a26.81 26.81 0 0 1-4.47 0c-.53-.05-1.21-.16-1.9-.3a4 4 0 0 0 .61.76l.43.43a10 10 0 0 1 .88 1 5.4 5.4 0 0 1 .67 1.4 3.13 3.13 0 0 0 1.34 1.36 20.5 20.5 0 0 0 3.32 1.35 21.87 21.87 0 0 0 8.84.89c1.24-.13 4.3-.18 6.79-.11s5.49 0 6.68-.06a32 32 0 0 0 4.2-.68 7 7 0 0 0 3-1.57 4.05 4.05 0 0 0 .8-2.69 10.92 10.92 0 0 0-.91-3.1z" fill="url(#d)"/><path d="M111.75 4.2a2.39 2.39 0 0 0-.54-.06 12.54 12.54 0 0 0-1.28 0 16.34 16.34 0 0 1 2.36 3.17 10.55 10.55 0 0 1 .58 3.55 19.83 19.83 0 0 1-.53 3.67 17.54 17.54 0 0 1-1.08 2.8 2.71 2.71 0 0 1 .79.65 1.49 1.49 0 0 1 .26.4 2.53 2.53 0 0 1-.11 1.53 10 10 0 0 1-.81 1.56 6.81 6.81 0 0 1-1 1.16 4.06 4.06 0 0 0-.86 1.07 3.74 3.74 0 0 0-.31 1.3 1.84 1.84 0 0 1-.38 1.08 1.32 1.32 0 0 1-.46.26 2.06 2.06 0 0 1-.62.13 2.38 2.38 0 0 0-.65.14c-.09.17-.19.34-.28.48a19.43 19.43 0 0 1-2.18 2.74 12.55 12.55 0 0 1-2.87 2.17 13.27 13.27 0 0 1-3.43 1 14.67 14.67 0 0 1-3.6 0 22.65 22.65 0 0 1-3.91-1.33 7.73 7.73 0 0 0 .36 1.23 5.58 5.58 0 0 0 .72 1.4 6.51 6.51 0 0 0 2.62 1.7c.92.31 3.14 1.25 4.93 2.08a26.35 26.35 0 0 0 5 1.81 14.67 14.67 0 0 0 3.6 0 13.27 13.27 0 0 0 3.43-1 12.55 12.55 0 0 0 2.84-2.06 19.43 19.43 0 0 0 2.18-2.74 17.3 17.3 0 0 0 1.44-3c.29-.88.85-2.3 1.23-3.16s1.08-2.26 1.55-3.1a17.12 17.12 0 0 0 1.26-3.32 19.83 19.83 0 0 0 .53-3.67 10.55 10.55 0 0 0-.58-3.55 28.53 28.53 0 0 0-4.63-5.61c-2.15-2.19-4.67-4.21-5.57-4.48z" fill="url(#e)"/></svg>