<svg xmlns="http://www.w3.org/2000/svg" xmlns:xlink="http://www.w3.org/1999/xlink" width="200" height="200" viewBox="0 0 200 200"><defs><linearGradient id="a" x1="83.8" y1="28.65" x2="92.62" y2="8.84" gradientUnits="userSpaceOnUse"><stop offset="0" stop-color="#fdba56"/><stop offset="0.02" stop-color="#fbb055"/><stop offset="0.06" stop-color="#f79d54"/><stop offset="0.1" stop-color="#f59253"/><stop offset="0.15" stop-color="#f48e53"/><stop offset="0.3" stop-color="#ed5e4e"/><stop offset="0.47" stop-color="#683a96" stop-opacity="0.5"/><stop offset="0.64" stop-color="#ed872b"/><stop offset="0.79" stop-color="#7b76b6"/><stop offset="0.9" stop-color="#f15f4f"/><stop offset="1" stop-color="#fdba56"/></linearGradient><linearGradient id="b" x1="68.38" y1="160.64" x2="124" y2="35.73" xlink:href="#a"/><linearGradient id="c" x1="97.43" y1="17.46" x2="109.43" y2="44.41" gradientUnits="userSpaceOnUse"><stop offset="0" stop-color="#b7151b"/><stop offset="0.02" stop-color="#c52229"/><stop offset="0.06" stop-color="#d7333c"/><stop offset="0.11" stop-color="#e23d47"/><stop offset="0.15" stop-color="#e6404b"/><stop offset="0.3" stop-color="#e98a7b"/><stop offset="0.47" stop-color="#7c78b8"/><stop offset="0.64" stop-color="#00b0b0"/><stop offset="0.79" stop-color="#7b76b6"/><stop offset="1" stop-color="#e7322f"/></linearGradient><linearGradient id="d" x1="99.76" y1="135.56" x2="116.78" y2="173.78" xlink:href="#c"/><linearGradient id="e" x1="114.71" y1="58.29" x2="127.15" y2="86.23" xlink:href="#c"/><linearGradient id="f" x1="109.91" y1="100.87" x2="121.32" y2="126.51" xlink:href="#c"/></defs><title>_</title><path d="M96.61,12a3.86,3.86,0,0,0-1.48-2,5.28,5.28,0,0,0-2.91.09,17.81,17.81,0,0,1-4.65.72,15.75,15.75,0,0,1-4.48-.84,21.71,21.71,0,0,0-3.82-1,44.21,44.21,0,0,0-7.63.59,29.5,29.5,0,0,0-4.83,1,5.27,5.27,0,0,0,.9.81h0a36.13,36.13,0,0,1,3.39,2.8,38.51,38.51,0,0,1,3,3.33c0.73,0.92,2.72,3.1,4.36,4.77S83,26.57,84.9,28.06a28.69,28.69,0,0,0,4.75,3.2,5.62,5.62,0,0,0,.68.21,6.73,6.73,0,0,0,1.81.22c0.24,0,.52,0,0.81,0a13.11,13.11,0,0,1,2.17.17,14.22,14.22,0,0,1,2.91.94,4.66,4.66,0,0,0,2.08.35,6.07,6.07,0,0,0,2.18-1,8.71,8.71,0,0,1,3.42-1.37,10.3,10.3,0,0,1,2.17,0,22.21,22.21,0,0,1-2.75-2.29c-1-1-3.15-4.89-4.71-8-0.59-1.2-1.18-2.43-1.71-3.57C97.63,14.58,96.84,12.74,96.61,12Z" fill="url(#a)"/><path d="M140.35,52.54a18.07,18.07,0,0,1-.26-2.31c0-.49,0-1,0-1.35a27.79,27.79,0,0,1,.51-4,2.75,2.75,0,0,0-.14-1.79,4.45,4.45,0,0,0-2.25.06c-1.28.33-5.8,1-10.08,1.56-3.81.47-8.57,0.85-9.89,0.62a20.15,20.15,0,0,1-4-1.23,32.6,32.6,0,0,0-3.63-1.32A28.47,28.47,0,0,0,107,42a20.57,20.57,0,0,0-3.55,0,21.73,21.73,0,0,0-3.56.74,13.84,13.84,0,0,1-8.11.12,31.41,31.41,0,0,0-3.63-.76,29,29,0,0,0-3.62-.2c-1.07,0-3.65-.09-5.74-0.25a42.86,42.86,0,0,0-5.48-.09,22.77,22.77,0,0,0-3.57.73,35.1,35.1,0,0,1-3.9.91c-1.07.17-4.42,0.42-7.46,0.57a19.17,19.17,0,0,0-5.7.88,3.12,3.12,0,0,0-.41,1.67A16.52,16.52,0,0,1,52,49.84a21.1,21.1,0,0,1-1.17,3.6,15.88,15.88,0,0,0-1,3.22A69.26,69.26,0,0,0,51,66.74a88.34,88.34,0,0,1,1.29,10.63A26.91,26.91,0,0,1,51.68,81c-0.23.93-.53,2.44-0.67,3.37s-0.29,2.45-.34,3.37,0.09,4.43.36,8.54a74.85,74.85,0,0,1,.2,8.87,22,22,0,0,1-.92,3.67,8.46,8.46,0,0,0-.39,3,9.84,9.84,0,0,0,1,3.08,9.09,9.09,0,0,1,1.08,4,9.33,9.33,0,0,1-1.22,4,6.32,6.32,0,0,0-.82,2.9,7,7,0,0,0,1.12,2.94,14.37,14.37,0,0,1,1.83,3.78c0.38,1.42-.35,7.61-0.93,11.43a45.35,45.35,0,0,0-.74,9.12,4.89,4.89,0,0,0,2.06-.22,22.69,22.69,0,0,1,4.63-.88,15.44,15.44,0,0,1,2.56.17c1.7,0.2,3.76.55,5.64,0.94a32.9,32.9,0,0,0,7.39.89,15.25,15.25,0,0,0,3.57-1.19,21.79,21.79,0,0,1,4.08-1.49,18.57,18.57,0,0,1,4.12-.39,25.32,25.32,0,0,1,4,.56,28.65,28.65,0,0,1,4,1.36,16.38,16.38,0,0,0,3.59,1,14.46,14.46,0,0,0,3.56-.06,24.59,24.59,0,0,1,3.58-.28h0.48a24.45,24.45,0,0,1,4.06.57,24,24,0,0,0,3.67.54,23.54,23.54,0,0,0,3.66-.17c1.1-.16,2.88-0.31,4-0.34s2.88,0,4,.13a31.18,31.18,0,0,0,3.71.06,58.53,58.53,0,0,0,7-1.41,23.79,23.79,0,0,0,5.37-1.85,1.91,1.91,0,0,0,.06-1.17,6.79,6.79,0,0,1,0-3.2,12.73,12.73,0,0,1,1.59-3.36,10.48,10.48,0,0,0,1.31-2.89,12.07,12.07,0,0,0-.43-4.14l-0.27-1c-0.38-1.34-.77-2.59-1-3a7,7,0,0,0-1.14-1.76,10.34,10.34,0,0,0-2-1.49,5.06,5.06,0,0,0-2.29-.52,9,9,0,0,0-2.88.91,8,8,0,0,1-4.11.8,9.66,9.66,0,0,1-4-1.84,15.55,15.55,0,0,0-3.25-1.93,9.4,9.4,0,0,0-3.13-.58,16.83,16.83,0,0,0-3.28.46,20.45,20.45,0,0,0-3.31,1.29,19.67,19.67,0,0,1-3.74,1.39,86.09,86.09,0,0,1-10.93.33l-2,0c-2.21-.06-7.46-0.25-8.43-0.76a4.35,4.35,0,0,1-1.95-2.44,14.47,14.47,0,0,1-.44-2.63,11.71,11.71,0,0,1,.19-2.51,8,8,0,0,0,.11-1.88,8.68,8.68,0,0,0-.46-1.9,5.65,5.65,0,0,1-.31-2.62,5.9,5.9,0,0,1,1.16-2.4,6.3,6.3,0,0,1,2.21-1.62c1.25-.49,6.81.15,7,0.18,3.26,0.38,6.16.65,6.81,0.6a11.64,11.64,0,0,0,2.59-.44,15.11,15.11,0,0,0,2.64-1.21,9.59,9.59,0,0,1,3.26-1.15c1.22-.14,4.34.72,6.15,1.33a35.33,35.33,0,0,0,5.46,1.48,48.56,48.56,0,0,0,5.77-.57,15.82,15.82,0,0,0,5-1.38,5.68,5.68,0,0,0,1.13-2.25,13.32,13.32,0,0,0,.28-3.17,12.31,12.31,0,0,0-.67-3,13.11,13.11,0,0,1-.76-3.55,12.63,12.63,0,0,1,.47-3.57,8.09,8.09,0,0,0,.29-2.66,4.15,4.15,0,0,0-.12-0.56,6.77,6.77,0,0,0-.73-1.73c-0.44-.67-1.22-1.72-1.7-2.31a26.92,26.92,0,0,0-1.9-2,3.72,3.72,0,0,0-1.7-.83,4.73,4.73,0,0,0-2.12.49,25.82,25.82,0,0,1-3,1.25,52.18,52.18,0,0,1-5.88,1.13c-2.13.31-4.9,0.63-5.86,0.63h0a25.39,25.39,0,0,1-3-.22c-0.75-.11-2-0.23-2.76-0.26s-2,0-2.76,0a14,14,0,0,1-3.12-.24,15.14,15.14,0,0,1-1.94-.59c-0.42-.15-0.82-0.31-1.14-0.46a8,8,0,0,0-2.56-.56,9.87,9.87,0,0,0-2.94.68,5.07,5.07,0,0,1-3.33.39A2.8,2.8,0,0,1,84.9,83.2c0-.81.18-2,0.28-2.72a39.65,39.65,0,0,1,1.2-4.34,26.55,26.55,0,0,0,1-3.57,3.67,3.67,0,0,0-.17-1.17,1.88,1.88,0,0,1,.8-2.3,6.23,6.23,0,0,1,2.66-.44c0.88,0,3.1.24,5,.51a28,28,0,0,0,4.76.32,15.49,15.49,0,0,0,3.13-.69,12.17,12.17,0,0,1,3.74-.6A12.48,12.48,0,0,1,111,69a19.78,19.78,0,0,0,3.18,1,17.26,17.26,0,0,0,3.15.24c0.88,0,2.37-.18,3.26-0.33s2.38-.47,3.27-0.72a31.52,31.52,0,0,1,3.51-.74,66,66,0,0,1,7.36,0,19.22,19.22,0,0,0,5.75-.44,16.8,16.8,0,0,0,.61-5.44c0-2.85-.14-6-0.23-6.83S140.52,53.39,140.35,52.54Z" fill="url(#b)"/><path d="M110,41.05a4.83,4.83,0,0,0,1-.28,7.34,7.34,0,0,0,1.65-.86,7.68,7.68,0,0,1,3-1.19,11.17,11.17,0,0,1,3.61.3c1.08,0.29,1.95.35,1.93,0.14A7.14,7.14,0,0,0,119,37.49a22.39,22.39,0,0,1-3.44-2.73A48.64,48.64,0,0,1,111,27a90.76,90.76,0,0,1-3.75-8.34,4.75,4.75,0,0,0-2-2.65,6.06,6.06,0,0,0-3.63,0c-0.3.09-.64,0.18-1,0.26l-1,.19c0.53,1.14,1.11,2.36,1.7,3.55a48.64,48.64,0,0,0,4.53,7.78,22.39,22.39,0,0,0,3.44,2.73,7.14,7.14,0,0,1,2.09,1.67c0,0.21-.84.15-1.93-0.14a11.17,11.17,0,0,0-3.61-.3,7.68,7.68,0,0,0-3,1.19,7,7,0,0,1-2.64,1.14,5.64,5.64,0,0,1-2.64-.44,13.32,13.32,0,0,0-2.66-.86,12.21,12.21,0,0,0-2.72-.13,7.39,7.39,0,0,1-2.14-.24l1.38,1.23c0.9,0.79,1.78,1.54,2.51,2.12a29,29,0,0,0,5,3.35,7.94,7.94,0,0,0,2.94.49,12.21,12.21,0,0,1,2.72.13c0.23,0,.5.11,0.79,0.19a13.46,13.46,0,0,1,1.87.67A5.64,5.64,0,0,0,110,41.05Z" fill="url(#c)"/><path d="M152.23,150.77a11.37,11.37,0,0,0,1.45-3.23,12.62,12.62,0,0,0-.44-4.61c-0.44-1.65-1-3.5-1.26-4.13a8,8,0,0,0-1.34-2.07,11.17,11.17,0,0,0-2.2-1.68,6.06,6.06,0,0,0-2.85-.65,6.91,6.91,0,0,0-1.39.28c-0.32.09-.64,0.2-0.95,0.32l0.27,1a12.62,12.62,0,0,1,.44,4.61,11.37,11.37,0,0,1-1.45,3.23,11.77,11.77,0,0,0-1.45,3,5.86,5.86,0,0,0,0,2.66,2.72,2.72,0,0,1-.23,2.1c-0.34.47-3,1.46-5.92,2.19a59.4,59.4,0,0,1-7.23,1.44,31.79,31.79,0,0,1-3.86-.06c-1.06-.1-2.8-0.15-3.86-0.12s-2.8.18-3.86,0.33a24.22,24.22,0,0,1-3.86.18,25,25,0,0,1-3.86-.57,23.26,23.26,0,0,0-3.86-.54,22.74,22.74,0,0,0-3.86.26,15.48,15.48,0,0,1-3.86.07,17.36,17.36,0,0,1-3.86-1.1,27.57,27.57,0,0,0-3.86-1.3,24.22,24.22,0,0,0-3.86-.53,17.61,17.61,0,0,0-3.86.37,21,21,0,0,0-3.86,1.41,16.22,16.22,0,0,1-3.86,1.28A33.19,33.19,0,0,1,66,154c-1.92-.4-4-0.74-5.56-0.93,0,0.34-.08.67-0.12,1-0.4,3.58-.47,6.32-0.09,6.62s1.9,0.39,3.15,0a21.93,21.93,0,0,1,4.39-.84A45.72,45.72,0,0,1,75.68,161a33.19,33.19,0,0,0,7.76.9,16.22,16.22,0,0,0,3.86-1.28,21,21,0,0,1,3.86-1.41,17.61,17.61,0,0,1,3.86-.37,24.22,24.22,0,0,1,3.86.53,27.57,27.57,0,0,1,3.86,1.3,17.36,17.36,0,0,0,3.86,1.1,15.48,15.48,0,0,0,3.86-.07,22.74,22.74,0,0,1,3.86-.26,23.26,23.26,0,0,1,3.86.54,25,25,0,0,0,3.86.57,24.22,24.22,0,0,0,3.86-.18c1.06-.15,2.79-0.3,3.86-0.33s2.8,0,3.86.12a31.79,31.79,0,0,0,3.86.06,59.4,59.4,0,0,0,7.23-1.44c2.92-.73,5.58-1.71,5.92-2.19a2.72,2.72,0,0,0,.23-2.1,5.86,5.86,0,0,1,0-2.66A11.77,11.77,0,0,1,152.23,150.77Z" fill="url(#d)"/><path d="M141.33,52.34c0.17,0.89.39,2.34,0.49,3.23s0.2,4,.23,6.92-0.38,5.7-.92,6.2-3.45.8-6.48,0.69a65.85,65.85,0,0,0-7.19,0,30.43,30.43,0,0,0-3.38.71c-0.93.26-2.45,0.6-3.38,0.75s-2.45.3-3.38,0.34A18.14,18.14,0,0,1,114,71a20.55,20.55,0,0,1-3.38-1,11.49,11.49,0,0,0-3.38-.76,11.11,11.11,0,0,0-3.38.55,16.49,16.49,0,0,1-3.38.75,29,29,0,0,1-5-.32c-1.81-.26-4-0.48-4.83-0.5a5.65,5.65,0,0,0-2.16.32A0.88,0.88,0,0,0,88.12,71a4.62,4.62,0,0,1,.23,1.57,25.1,25.1,0,0,1-1,3.83,38.78,38.78,0,0,0-1.16,4.18c-0.1.66-.23,1.85-0.27,2.63A1.88,1.88,0,0,0,86.64,85a4.31,4.31,0,0,0,2.55-.39,10.73,10.73,0,0,1,3.31-.76,8,8,0,0,1,3,.65c0.3,0.14.67,0.29,1.05,0.43,0.09-.32.2-0.64,0.3-1s0.13-.42.19-0.62a25.1,25.1,0,0,0,1-3.83A4.62,4.62,0,0,0,97.83,78a0.88,0.88,0,0,1,.35-1.07,5.65,5.65,0,0,1,2.16-.32c0.84,0,3,.24,4.83.5a29,29,0,0,0,5,.32,16.49,16.49,0,0,0,3.38-.75,11.11,11.11,0,0,1,3.38-.55,11.49,11.49,0,0,1,3.38.76,20.55,20.55,0,0,0,3.38,1,18.14,18.14,0,0,0,3.38.25c0.93,0,2.45-.19,3.38-0.34s2.45-.49,3.38-0.75a30.43,30.43,0,0,1,3.38-.71,65.85,65.85,0,0,1,7.19,0c3,0.11,5.94-.2,6.48-0.69s0.95-3.28.92-6.2-0.14-6-.23-6.92-0.31-2.34-.49-3.23a18.63,18.63,0,0,1-.26-3.44,26.62,26.62,0,0,1,.49-3.86,3.18,3.18,0,0,0-.48-2.76,4.42,4.42,0,0,0-3.15-.14c-0.8.21-3,.57-5.55,0.95l-1,.14A17.09,17.09,0,0,0,141.33,52.34Z" fill="url(#e)"/><path d="M133.65,90.31a5.06,5.06,0,0,1,.15.71,9,9,0,0,1-.32,3.06,11.68,11.68,0,0,0-.43,3.23,12.17,12.17,0,0,0,.69,3.23,13.36,13.36,0,0,1,.73,3.31,14.36,14.36,0,0,1-.31,3.46,6.57,6.57,0,0,1-1.42,2.74c-0.55.54-3,1.28-5.55,1.64a47,47,0,0,1-6,.58,35.12,35.12,0,0,1-5.72-1.53,21.21,21.21,0,0,0-5.72-1.28,8.56,8.56,0,0,0-2.86,1,16.13,16.13,0,0,1-2.86,1.3,12.68,12.68,0,0,1-2.86.49c-0.79,0-3.92-.25-7-0.61a27.25,27.25,0,0,0-6.56-.24,5.33,5.33,0,0,0-1.8,1.33,4.92,4.92,0,0,0-.94,1.93,4.68,4.68,0,0,0,.25,2.09,9.61,9.61,0,0,1,.53,2.18,8.88,8.88,0,0,1-.13,2.18,10.68,10.68,0,0,0-.17,2.25,13.51,13.51,0,0,0,.4,2.41,3.35,3.35,0,0,0,1.44,1.82c0.52,0.27,3.93.54,8,.64,0-.06,0-0.13,0-0.19a7.27,7.27,0,0,0,.11-0.81,8.42,8.42,0,0,0,0-1.36,9.61,9.61,0,0,0-.53-2.18,4.68,4.68,0,0,1-.25-2.09,4.92,4.92,0,0,1,.94-1.93,5.33,5.33,0,0,1,1.8-1.33,27.25,27.25,0,0,1,6.56.24c3,0.36,6.17.63,7,.61a12.68,12.68,0,0,0,2.86-.49,16.13,16.13,0,0,0,2.86-1.3,8.56,8.56,0,0,1,2.86-1,21.21,21.21,0,0,1,5.72,1.28,35.12,35.12,0,0,0,5.72,1.53,47,47,0,0,0,6-.58c2.5-.37,5-1.11,5.55-1.64a6.57,6.57,0,0,0,1.42-2.74,14.36,14.36,0,0,0,.31-3.46,13.36,13.36,0,0,0-.73-3.31,12.17,12.17,0,0,1-.69-3.23,11.68,11.68,0,0,1,.43-3.23,9,9,0,0,0,.32-3.06,7.57,7.57,0,0,0-1-2.72c-0.46-.7-1.26-1.78-1.77-2.4a27.9,27.9,0,0,0-2-2.1,4.67,4.67,0,0,0-2.28-1.1,5.26,5.26,0,0,0-1.89.29,5.45,5.45,0,0,0-.78.31Z" fill="url(#f)"/></svg>