<svg xmlns="http://www.w3.org/2000/svg" xmlns:xlink="http://www.w3.org/1999/xlink" width="122.52" height="200" viewBox="0 0 122.52 200"><defs><linearGradient id="a" x1="51.6" y1="43.8" x2="66.09" y2="11.26" gradientUnits="userSpaceOnUse"><stop offset="0" stop-color="#fdba56"/><stop offset=".02" stop-color="#fbb055"/><stop offset=".06" stop-color="#f79d54"/><stop offset=".1" stop-color="#f59253"/><stop offset=".15" stop-color="#f48e53"/><stop offset=".3" stop-color="#ed5e4e"/><stop offset=".47" stop-color="#683a96" stop-opacity=".5"/><stop offset=".64" stop-color="#ed872b"/><stop offset=".79" stop-color="#7b76b6"/><stop offset=".9" stop-color="#f15f4f"/><stop offset="1" stop-color="#fdba56"/></linearGradient><linearGradient id="c" x1="31.45" y1="160.83" x2="85.26" y2="39.96" xlink:href="#a"/><linearGradient id="b" x1="47.25" y1="27.83" x2="53.09" y2="40.95" gradientUnits="userSpaceOnUse"><stop offset="0" stop-color="#b7151b"/><stop offset=".02" stop-color="#c52229"/><stop offset=".06" stop-color="#d7333c"/><stop offset=".11" stop-color="#e23d47"/><stop offset=".15" stop-color="#e6404b"/><stop offset=".3" stop-color="#e98a7b"/><stop offset=".47" stop-color="#7c78b8"/><stop offset=".64" stop-color="#00b0b0"/><stop offset=".79" stop-color="#7b76b6"/><stop offset="1" stop-color="#e7322f"/></linearGradient><linearGradient id="d" x1="75.57" y1="17.42" x2="87.78" y2="44.85" xlink:href="#b"/><linearGradient id="e" x1="74.06" y1="56.85" x2="87.85" y2="87.83" xlink:href="#b"/><linearGradient id="f" x1="62.52" y1="136.6" x2="80.36" y2="176.68" xlink:href="#b"/><linearGradient id="g" x1="71.12" y1="101.43" x2="83.25" y2="128.67" xlink:href="#b"/></defs><title>_</title><path d="M66.5 30.7a29.81 29.81 0 0 0 5 3.27l.18.03a9.8 9.8 0 0 0 2.21.28 21.73 21.73 0 0 0 2.7-.27 24 24 0 0 0 2.71-.69 16.85 16.85 0 0 1 3.27-.66 22.51 22.51 0 0 1 3.39 0l-.46-.34a14.1 14.1 0 0 1-3.18-3.24A13.1 13.1 0 0 1 80.71 25a7.44 7.44 0 0 0-1.35-3 7.87 7.87 0 0 0-2.86-1.78 13.32 13.32 0 0 1-2.8-1.38 8.49 8.49 0 0 1-1-.77 11.06 11.06 0 0 1-2.44-3.45 6.48 6.48 0 0 0-1.63-2.26 14.7 14.7 0 0 0-5.35-.23 33.76 33.76 0 0 1-6.7.11A15 15 0 0 1 53.11 11a7 7 0 0 0-2.64-.74 6.31 6.31 0 0 0-2.52.7 18.19 18.19 0 0 0-2.59 1.84 19.37 19.37 0 0 0-2.19 2.41A24.41 24.41 0 0 1 40.65 18a27.26 27.26 0 0 1-3.08 2.38 33.84 33.84 0 0 0-2.92 2.17 31.28 31.28 0 0 0-2.54 2.49c-.64.72-2.15 2.79-3.32 4.52a13.47 13.47 0 0 0-1.72 3.3 2.49 2.49 0 0 0 .91.22c.91 0 3 .25 4.62.48a41.6 41.6 0 0 0 4.19.4c.38 0 .93 0 1.51-.09.42 0 .82-.09 1.14-.15a21.08 21.08 0 0 0 2.56-.63 19.7 19.7 0 0 0 2.37-1c.7-.37 1.73-.86 2.31-1.09a13.06 13.06 0 0 1 2-.6 9.17 9.17 0 0 0 1.4-.43 12.81 12.81 0 0 0 1.49-.78 6.93 6.93 0 0 0 1.22-1 19.17 19.17 0 0 0 1.59-2.69c.4-.78 1.42-2.63 2.35-2.91a4.12 4.12 0 0 1 2.07.07 4.67 4.67 0 0 1 1.89 1.14 5.24 5.24 0 0 1 1 2 6.48 6.48 0 0 0 .61 1.44 39.61 39.61 0 0 0 4.09 3.47l-.53.86z" fill="url(#a)"/><path d="M23.65 153.76a12.66 12.66 0 0 1 4.27-.45 14 14 0 0 1 4.21 1.27 8.72 8.72 0 0 0 3.38.84 9.16 9.16 0 0 0 3.4-1 19.46 19.46 0 0 1 4.11-1.6 16.1 16.1 0 0 1 4.16-.33c1 .08 2.73.11 3.74.06s2.72-.22 3.74-.39a18.94 18.94 0 0 1 2.82-.2c.47 0 .91 0 1.29.05a58.82 58.82 0 0 1 7.93 2.07 48 48 0 0 0 7.45 1.92 105.74 105.74 0 0 0 11.35-1.62c4.74-.85 10.54-1.67 12-1.54a29 29 0 0 1 4.36.86 4.56 4.56 0 0 0 1.95.18 2.8 2.8 0 0 0-.12-1.4 11.19 11.19 0 0 1-.46-4 10.65 10.65 0 0 1 1.35-3.78 14.38 14.38 0 0 0 1.36-3 11 11 0 0 0 .34-2.91v-.29a10.53 10.53 0 0 0-.52-2.38 9.16 9.16 0 0 0-1.34-2.19 6.25 6.25 0 0 0-1.76-1.33 4.73 4.73 0 0 0-1.93-.25 24.52 24.52 0 0 1-3 .12c-.87 0-2.4-.16-3.39-.3a33.46 33.46 0 0 0-3.39-.26c-.92 0-2.47.06-3.39.16a15.29 15.29 0 0 1-3.81-.14 17.83 17.83 0 0 1-3.76-1.25 11.48 11.48 0 0 0-3.18-.92 10.51 10.51 0 0 0-3.14.31 30.73 30.73 0 0 1-3.66.78 29.58 29.58 0 0 1-3.66.22c-.92 0-5.11.24-9.16.55-1.39.11-8.06.57-9.33-.37s-1.46-6.73-1.46-7.87c0-3.1 0-6.81.16-7.59s.32-1.7.49-2.36a6.16 6.16 0 0 1 1.45-2.49 9.65 9.65 0 0 1 2.69-1.69 6.67 6.67 0 0 1 3.53-.31 9 9 0 0 1 3.28 1.83 5.15 5.15 0 0 0 2.28 1.15 4.22 4.22 0 0 0 2.19-.71 13.57 13.57 0 0 1 3.13-1.61 10.07 10.07 0 0 1 3.24-.4 19.45 19.45 0 0 0 5.44-.38 9.76 9.76 0 0 1 3.25 0 11.71 11.71 0 0 1 3.16 1.18 8.42 8.42 0 0 0 2.49.91 7 7 0 0 0 2.42-.22 11.26 11.26 0 0 1 3.48-.38 17.87 17.87 0 0 1 3.89.84 3.4 3.4 0 0 0 1.18.21 5.62 5.62 0 0 0-.52-1.63 11.36 11.36 0 0 1-1.07-4.37 8.68 8.68 0 0 1 1.29-4A9 9 0 0 0 95 98.53a7 7 0 0 0-.25-2.75c-.27-.8-.63-2.06-.84-3l-.08-.33a29.22 29.22 0 0 1-.45-3.28 3.79 3.79 0 0 0-.58-1.77 14.55 14.55 0 0 0-4.21-.62c-2.38-.08-4.91-.24-5.75-.38a25.18 25.18 0 0 1-3-.74 5.9 5.9 0 0 0-2.36-.15A8 8 0 0 0 75 86.65a9.08 9.08 0 0 1-3.29 1.42 7.31 7.31 0 0 1-3.39-.42 7.09 7.09 0 0 0-2.43-.43 7.56 7.56 0 0 0-2.45.72 6.23 6.23 0 0 1-3.5.58 8.1 8.1 0 0 1-3.34-1.75 5.82 5.82 0 0 0-2.43-1.22 5.38 5.38 0 0 0-2.57.55c-.2.11-2 1-3.1.72a2.22 2.22 0 0 1-1.22-2.61 10.59 10.59 0 0 0 .13-2.21 7.6 7.6 0 0 0-.47-1.83 7.61 7.61 0 0 1-.56-2.34 7.3 7.3 0 0 1 .36-2.36 8.5 8.5 0 0 0 .34-2 17.09 17.09 0 0 0-.19-2.67 3.91 3.91 0 0 1 1-3.28 6.18 6.18 0 0 1 3.58-1.08 16 16 0 0 1 4.23.66 16 16 0 0 1 3.83 2.05 10.23 10.23 0 0 0 3 1.51 7 7 0 0 0 2.88-.05c.89-.25 3.17-1.05 5-1.76a30.08 30.08 0 0 1 5.3-1.61 14.7 14.7 0 0 1 3.68.07c1 .16 3.3.77 5.2 1.35a33 33 0 0 0 4.87 1.15 14.77 14.77 0 0 0 3.12-.12 32.67 32.67 0 0 1 3.62-.36 37.56 37.56 0 0 1 3.83.11 4.57 4.57 0 0 0 2.4-.49 4.31 4.31 0 0 0 1.18-2.09 12.17 12.17 0 0 0 .2-3.25 11.16 11.16 0 0 0-.88-3 35.23 35.23 0 0 1-1.39-3.35 30.94 30.94 0 0 1-.91-3.36 24.7 24.7 0 0 1-.38-3v-.22a17.82 17.82 0 0 1 .17-3 1.71 1.71 0 0 0-.2-1.1 3.52 3.52 0 0 0-1.65-.43 27.71 27.71 0 0 1-3.53-.37 37 37 0 0 1-3.76-.95 35.08 35.08 0 0 0-3.64-.9 32.82 32.82 0 0 0-3.63-.39c-1 0-5.26.17-9.31.45s-8.46.5-9.53.44-2.78-.2-3.86-.35a32.58 32.58 0 0 0-3.63-.25 32.72 32.72 0 0 0-3.68.27c-1 .14-2.67.46-3.66.71s-2.66.77-3.67 1.14a14.59 14.59 0 0 1-4.1.78 14.2 14.2 0 0 1-4.1-.68c-1-.35-3.5-1-5.55-1.49a41.77 41.77 0 0 0-5.47-.93c-1 0-4.5.09-7.66.28a20.19 20.19 0 0 0-5.91 1 3.38 3.38 0 0 0 0 1.93 20 20 0 0 1 .73 4 16.89 16.89 0 0 1-.29 3.82 24.21 24.21 0 0 0-.42 3.3 61.79 61.79 0 0 0 .61 6.75 33.37 33.37 0 0 1 .34 7.25 16.3 16.3 0 0 1-1.33 3.74 18.27 18.27 0 0 0-1.25 3.25 15 15 0 0 0-.37 3.21 32.18 32.18 0 0 0 .28 3.34 34.06 34.06 0 0 0 .71 3.35 15.7 15.7 0 0 1 .49 3.75 15.87 15.87 0 0 1-.6 3.74 10.84 10.84 0 0 0-.38 3.11 11.48 11.48 0 0 0 .77 3.13 9.48 9.48 0 0 1 .66 4 10.66 10.66 0 0 1-1.37 3.9 6.43 6.43 0 0 0-.86 2.91 6.91 6.91 0 0 0 1.07 2.94 11.54 11.54 0 0 1 1.64 3.86 9.36 9.36 0 0 1-.34 4 21.21 21.21 0 0 0-.79 3.27 46.27 46.27 0 0 0 .25 6.71 38.47 38.47 0 0 1 .14 7.21 17.08 17.08 0 0 1-1.25 3.62 8.56 8.56 0 0 0-.79 3 7.21 7.21 0 0 0 .67 2.77 8 8 0 0 0 1.8 2.15 8.53 8.53 0 0 0 2.69 1.21 14.74 14.74 0 0 0 3.38.28l.19 1-.07-1a18.22 18.22 0 0 0 3.46-.65z" fill="url(#c)"/><path d="M61.47 27.7a7.43 7.43 0 0 1-.73-1.7 4.25 4.25 0 0 0-.81-1.55 3.76 3.76 0 0 0-1.44-.86A3.17 3.17 0 0 0 57 23.5a6.42 6.42 0 0 0-1.75 2.41 19.49 19.49 0 0 1-1.73 2.9A7.92 7.92 0 0 1 52.09 30a13.61 13.61 0 0 1-1.64.85 10 10 0 0 1-1.59.49 12.25 12.25 0 0 0-1.78.55c-.55.22-1.54.69-2.21 1A20.82 20.82 0 0 1 42.36 34a22.4 22.4 0 0 1-2.73.7c-.34.06-.78.11-1.22.16L37.68 36c-1.2 1.79-2.05 3.65-1.9 4.13a2.11 2.11 0 0 0 1.88.95c.88 0 2.92.25 4.52.47a42 42 0 0 0 4.34.41 19.37 19.37 0 0 0 2.83-.25 22.4 22.4 0 0 0 2.73-.7 20.82 20.82 0 0 0 2.52-1.09c.66-.35 1.66-.82 2.21-1a12.25 12.25 0 0 1 1.78-.55 10 10 0 0 0 1.59-.49 13.61 13.61 0 0 0 1.64-.85 7.92 7.92 0 0 0 1.43-1.2A19.49 19.49 0 0 0 65 32.85c.1-.19.2-.38.31-.56s.35-.6.53-.86a34.13 34.13 0 0 1-4.37-3.73z" fill="url(#b)"/><path d="M83.63 42.25a22.75 22.75 0 0 0 2.85-.25l.58-.12c.75-.16 1.66-.4 2.27-.61a16.07 16.07 0 0 1 3-.61 21.76 21.76 0 0 1 3.44.05c1 .11 1.81-.05 1.81-.35a4.94 4.94 0 0 0-1.83-1.82 13.16 13.16 0 0 1-2.92-3 12.13 12.13 0 0 1-1.46-3.77 8.4 8.4 0 0 0-1.59-3.48 8.84 8.84 0 0 0-3.29-2.07A11.9 11.9 0 0 1 83 24.28a6.53 6.53 0 0 1-.61-.63 10.34 10.34 0 0 1-1.57-2.45 7.29 7.29 0 0 0-.57-1.06 6.31 6.31 0 0 0-1.4-1.63 6 6 0 0 0-2.48-.51h-2.12a12.44 12.44 0 0 0 2.57 1.27 8.84 8.84 0 0 1 3.29 2.07 8.4 8.4 0 0 1 1.59 3.48 12.13 12.13 0 0 0 1.46 3.77 13.16 13.16 0 0 0 2.92 3 4.94 4.94 0 0 1 1.83 1.82c0 .3-.81.46-1.81.35a21.76 21.76 0 0 0-3.44-.05 16.07 16.07 0 0 0-3 .61 24.71 24.71 0 0 1-2.85.72 22.75 22.75 0 0 1-2.85.29 10.62 10.62 0 0 1-2.43-.33c.3.3.79.74 1.37 1.23.76.65 1.71 1.42 2.7 2.18a38.37 38.37 0 0 0 4.79 3.22 3.48 3.48 0 0 0 .48.21 10.47 10.47 0 0 0 2.76.41z" fill="url(#d)"/><path d="M101.16 50.83a24.06 24.06 0 0 0 .36 2.89 30 30 0 0 0 .87 3.23 34.22 34.22 0 0 0 1.35 3.23 12.18 12.18 0 0 1 1 3.35 13.2 13.2 0 0 1-.22 3.58 5.19 5.19 0 0 1-1.57 2.69 5.33 5.33 0 0 1-3.07.68c-1-.09-2.72-.14-3.71-.1a31.49 31.49 0 0 0-3.49.35 15.7 15.7 0 0 1-3.38.13 34 34 0 0 1-5.07-1.19c-1.86-.57-4.14-1.17-5.07-1.32a13.74 13.74 0 0 0-3.38-.06 29.65 29.65 0 0 0-5.07 1.55c-1.86.73-4.14 1.54-5.07 1.79a8 8 0 0 1-3.38.06A11.12 11.12 0 0 1 58.87 70a15.12 15.12 0 0 0-3.55-1.9 14.19 14.19 0 0 0-3.9-.61 5.32 5.32 0 0 0-2.93.82 2.94 2.94 0 0 0-.64 2.38 18.05 18.05 0 0 1 .21 2.87 9.41 9.41 0 0 1-.39 2.28 6.36 6.36 0 0 0-.3 2 6.68 6.68 0 0 0 .48 2 8.56 8.56 0 0 1 .55 2.13 11.46 11.46 0 0 1-.08 2.43 1.34 1.34 0 0 0 .52 1.5 4.46 4.46 0 0 0 2.35-.65 6.33 6.33 0 0 1 3.17-.66 6.72 6.72 0 0 1 3 1.46 6.16 6.16 0 0 1-.23-1.26v-.15a6.43 6.43 0 0 1 .3-1.84 9.41 9.41 0 0 0 .39-2.28 18.05 18.05 0 0 0-.21-2.87 2.94 2.94 0 0 1 .64-2.38 5.32 5.32 0 0 1 2.93-.82A14.19 14.19 0 0 1 65 75a15.12 15.12 0 0 1 3.55 1.9A11.12 11.12 0 0 0 72 78.63a8 8 0 0 0 3.38-.06c.93-.26 3.21-1.06 5.07-1.79a29.65 29.65 0 0 1 5.07-1.55 13.74 13.74 0 0 1 3.38.06c.93.16 3.21.75 5.07 1.32A34 34 0 0 0 99 77.8a15.7 15.7 0 0 0 3.38-.13 31.49 31.49 0 0 1 3.49-.35c1 0 2.66 0 3.71.1a5.33 5.33 0 0 0 3.07-.68 5.19 5.19 0 0 0 1.57-2.69 13.2 13.2 0 0 0 .22-3.58 12.18 12.18 0 0 0-1-3.35 34.22 34.22 0 0 1-1.35-3.23 30 30 0 0 1-.87-3.23 23.67 23.67 0 0 1-.37-3.08 17 17 0 0 1 .16-2.77 2.52 2.52 0 0 0-.49-2 4.12 4.12 0 0 0-2.32-.71 26.37 26.37 0 0 1-3.37-.36c-.69-.13-1.74-.38-2.65-.63l-1-.29z" fill="url(#e)"/><path d="M115.08 152.14a15.38 15.38 0 0 0 1.47-3.23 11.86 11.86 0 0 0 .38-3.23 11.54 11.54 0 0 0-.62-3 10.06 10.06 0 0 0-1.52-2.48 7.13 7.13 0 0 0-2.12-1.6 5.68 5.68 0 0 0-2.44-.32c-.51.06-1.32.11-2 .12h-1v.34a11.86 11.86 0 0 1-.37 3.23 15.38 15.38 0 0 1-1.47 3.23 9.66 9.66 0 0 0-1.21 3.36 10.21 10.21 0 0 0 .42 3.62c.34 1 .27 2.15-.15 2.5a4.08 4.08 0 0 1-2.9 0 28 28 0 0 0-4.18-.83c-1.12-.11-6.37.57-11.68 1.52A106.75 106.75 0 0 1 74.1 157a47.67 47.67 0 0 1-7.71-1.94 58 58 0 0 0-7.71-2 18.22 18.22 0 0 0-3.86.14c-1.06.17-2.8.35-3.86.4s-2.8 0-3.86-.07a15.18 15.18 0 0 0-3.86.3 18.6 18.6 0 0 0-3.86 1.51 10 10 0 0 1-3.86 1.09 9.75 9.75 0 0 1-3.86-.94 13.07 13.07 0 0 0-3.86-1.17 11.76 11.76 0 0 0-3.87.41 19.18 19.18 0 0 1-3.67.69 8.49 8.49 0 0 0 .17 1 7.56 7.56 0 0 0 .57 1.7 9 9 0 0 0 2.11 2.57 9.45 9.45 0 0 0 3.08 1.39 16.11 16.11 0 0 0 3.65.3 18.93 18.93 0 0 0 3.8-.7 11.76 11.76 0 0 1 3.87-.41 13.07 13.07 0 0 1 3.86 1.17 9.75 9.75 0 0 0 3.86.94 10 10 0 0 0 3.86-1.09 18.6 18.6 0 0 1 3.91-1.53 15.18 15.18 0 0 1 3.86-.3c1.06.08 2.8.11 3.86.07s2.8-.23 3.86-.4a18.22 18.22 0 0 1 3.86-.14 58 58 0 0 1 7.71 2 47.67 47.67 0 0 0 7.66 2.01 106.75 106.75 0 0 0 11.57-1.64c5.3-.95 10.56-1.64 11.68-1.52a28 28 0 0 1 4.18.83 4.08 4.08 0 0 0 2.9 0c.42-.34.49-1.47.15-2.5a10.21 10.21 0 0 1-.42-3.62 9.66 9.66 0 0 1 1.21-3.41z" fill="url(#f)"/><path d="M95.73 95.46a8 8 0 0 1 .27 3.23 9.93 9.93 0 0 1-1.34 3.23 7.67 7.67 0 0 0-1.12 3.46 10.38 10.38 0 0 0 1 3.92c.55 1.14.79 2.39.53 2.77s-1.34.4-2.41 0a17 17 0 0 0-3.63-.78 10.27 10.27 0 0 0-3.12.33 7.88 7.88 0 0 1-2.86.25 9.35 9.35 0 0 1-2.86-1 10.75 10.75 0 0 0-2.86-1.1 8.74 8.74 0 0 0-2.86 0 25.06 25.06 0 0 1-2.86.4 24.44 24.44 0 0 1-2.86 0 9.1 9.1 0 0 0-2.86.35A12.63 12.63 0 0 0 63 112a5.07 5.07 0 0 1-2.86.89 6.06 6.06 0 0 1-2.86-1.4 8 8 0 0 0-2.88-1.61 5.73 5.73 0 0 0-2.93.26 8.65 8.65 0 0 0-2.36 1.48 5.21 5.21 0 0 0-1.18 2c-.16.63-.38 1.65-.47 2.27s-.16 4-.14 7.42.5 6.65 1.06 7.07 4.43.5 8.59.18H57v-1c0-3.21.06-6.15.15-6.73s.31-1.64.47-2.27a5.21 5.21 0 0 1 1.18-2 8.65 8.65 0 0 1 2.36-1.48 5.73 5.73 0 0 1 2.93-.26 8 8 0 0 1 2.91 1.64 6.06 6.06 0 0 0 2.86 1.4 5.07 5.07 0 0 0 2.86-.89 12.63 12.63 0 0 1 2.86-1.47 9.1 9.1 0 0 1 2.86-.35 24.44 24.44 0 0 0 2.86 0 25.06 25.06 0 0 0 2.86-.4 8.74 8.74 0 0 1 2.86 0 10.75 10.75 0 0 1 2.86 1.1 9.35 9.35 0 0 0 2.86 1 7.88 7.88 0 0 0 2.86-.25 10.27 10.27 0 0 1 3.12-.33 17 17 0 0 1 3.63.78c1.07.37 2.16.36 2.41 0s0-1.63-.53-2.77a10.38 10.38 0 0 1-1-3.92 7.67 7.67 0 0 1 1.12-3.46 9.93 9.93 0 0 0 1.34-3.23 8 8 0 0 0-.29-3.23 32.22 32.22 0 0 1-.88-3.2 28.14 28.14 0 0 1-.43-3.15 4.63 4.63 0 0 0-.84-2.37c-.4-.45-2.62-.87-4.92-.95L96 92.62l-1-.06c.12.88.46 2.1.73 2.9z" fill="url(#g)"/></svg>