<svg xmlns="http://www.w3.org/2000/svg" xmlns:xlink="http://www.w3.org/1999/xlink" width="200" height="200" viewBox="0 0 200 200"><defs><linearGradient id="a" x1="89.79" y1="42.43" x2="104.28" y2="9.89" gradientUnits="userSpaceOnUse"><stop offset="0" stop-color="#fdba56"/><stop offset="0.02" stop-color="#fbb055"/><stop offset="0.06" stop-color="#f79d54"/><stop offset="0.1" stop-color="#f59253"/><stop offset="0.15" stop-color="#f48e53"/><stop offset="0.3" stop-color="#ed5e4e"/><stop offset="0.47" stop-color="#683a96" stop-opacity="0.5"/><stop offset="0.64" stop-color="#ed872b"/><stop offset="0.79" stop-color="#7b76b6"/><stop offset="0.9" stop-color="#f15f4f"/><stop offset="1" stop-color="#fdba56"/></linearGradient><linearGradient id="b" x1="69.64" y1="159.46" x2="123.46" y2="38.59" xlink:href="#a"/><linearGradient id="c" x1="85.45" y1="26.46" x2="91.29" y2="39.58" gradientUnits="userSpaceOnUse"><stop offset="0" stop-color="#b7151b"/><stop offset="0.02" stop-color="#c52229"/><stop offset="0.06" stop-color="#d7333c"/><stop offset="0.11" stop-color="#e23d47"/><stop offset="0.15" stop-color="#e6404b"/><stop offset="0.3" stop-color="#e98a7b"/><stop offset="0.47" stop-color="#7c78b8"/><stop offset="0.64" stop-color="#00b0b0"/><stop offset="0.79" stop-color="#7b76b6"/><stop offset="1" stop-color="#e7322f"/></linearGradient><linearGradient id="d" x1="113.76" y1="16.05" x2="125.97" y2="43.48" xlink:href="#c"/><linearGradient id="e" x1="112.25" y1="55.47" x2="126.04" y2="86.45" xlink:href="#c"/><linearGradient id="f" x1="100.71" y1="135.22" x2="118.56" y2="175.3" xlink:href="#c"/><linearGradient id="g" x1="109.32" y1="100.05" x2="121.45" y2="127.3" xlink:href="#c"/></defs><title>_</title><polygon points="58.47 154.03 58.47 154.03 58.47 154.03 58.47 154.03" fill="none"/><path d="M104.69,29.33a29.81,29.81,0,0,0,5,3.27l0.23,0.06a9.8,9.8,0,0,0,2.21.28,21.73,21.73,0,0,0,2.7-.27,24,24,0,0,0,2.71-.69,16.85,16.85,0,0,1,3.27-.66,22.51,22.51,0,0,1,3.39,0L123.7,31a14.1,14.1,0,0,1-3.18-3.24,13.1,13.1,0,0,1-1.61-4.15,7.44,7.44,0,0,0-1.35-3,7.87,7.87,0,0,0-2.86-1.78,13.32,13.32,0,0,1-2.8-1.38,8.49,8.49,0,0,1-1-.77,11.06,11.06,0,0,1-2.44-3.45A6.48,6.48,0,0,0,106.78,11a14.7,14.7,0,0,0-5.35-.23,33.76,33.76,0,0,1-6.7.11,15,15,0,0,1-3.43-1.27,7,7,0,0,0-2.64-.74h0a6.31,6.31,0,0,0-2.52.7,18.19,18.19,0,0,0-2.59,1.84,19.37,19.37,0,0,0-2.19,2.41,24.41,24.41,0,0,1-2.52,2.8A27.26,27.26,0,0,1,75.76,19a33.84,33.84,0,0,0-2.92,2.17,31.28,31.28,0,0,0-2.54,2.49c-0.64.72-2.15,2.79-3.32,4.52a13.47,13.47,0,0,0-1.72,3.3,2.49,2.49,0,0,0,.91.22c0.91,0,3,.25,4.62.48a41.6,41.6,0,0,0,4.19.4h0c0.38,0,.93,0,1.51-0.09,0.42,0,.82-0.09,1.14-0.15a21.08,21.08,0,0,0,2.58-.67,19.7,19.7,0,0,0,2.37-1c0.7-.37,1.73-0.86,2.31-1.09a13.06,13.06,0,0,1,2-.6,9.17,9.17,0,0,0,1.4-.43,12.81,12.81,0,0,0,1.49-.78,6.93,6.93,0,0,0,1.22-1,19.17,19.17,0,0,0,1.59-2.69c0.4-.78,1.42-2.63,2.35-2.91a4.12,4.12,0,0,1,2.07.07,4.67,4.67,0,0,1,1.89,1.14,5.24,5.24,0,0,1,1,2,6.48,6.48,0,0,0,.61,1.44,39.61,39.61,0,0,0,4.09,3.47l-0.53.86h0Z" fill="url(#a)"/><path d="M61.84,152.38a12.66,12.66,0,0,1,4.27-.45,14,14,0,0,1,4.21,1.27,8.72,8.72,0,0,0,3.38.84,9.16,9.16,0,0,0,3.4-1,19.46,19.46,0,0,1,4.11-1.6,16.1,16.1,0,0,1,4.16-.33c1,0.08,2.73.11,3.74,0.06s2.72-.22,3.74-0.39a18.94,18.94,0,0,1,2.82-.2c0.47,0,.91,0,1.29.05a58.82,58.82,0,0,1,7.93,2.07,48,48,0,0,0,7.46,1.89A105.74,105.74,0,0,0,123.68,153c4.74-.85,10.54-1.67,12-1.54a29,29,0,0,1,4.36.86,4.56,4.56,0,0,0,1.95.18,2.8,2.8,0,0,0-.12-1.4,11.19,11.19,0,0,1-.46-4,10.65,10.65,0,0,1,1.35-3.78h0a14.38,14.38,0,0,0,1.36-3,11,11,0,0,0,.34-2.91l0-.29a10.53,10.53,0,0,0-.52-2.38,9.16,9.16,0,0,0-1.34-2.19,6.25,6.25,0,0,0-1.76-1.33,4.73,4.73,0,0,0-1.93-.25,24.52,24.52,0,0,1-3,.12c-0.87,0-2.4-.16-3.39-0.3a33.46,33.46,0,0,0-3.39-.26c-0.92,0-2.47.06-3.39,0.16a15.29,15.29,0,0,1-3.81-.14,17.83,17.83,0,0,1-3.76-1.25,11.48,11.48,0,0,0-3.18-.92,10.51,10.51,0,0,0-3.14.31,30.73,30.73,0,0,1-3.66.78,29.58,29.58,0,0,1-3.66.22c-0.92,0-5.11.24-9.16,0.55-1.39.11-8.06,0.57-9.33-.37s-1.46-6.73-1.46-7.87c0-3.1,0-6.81.16-7.59s0.32-1.7.49-2.36a6.16,6.16,0,0,1,1.45-2.49,9.65,9.65,0,0,1,2.69-1.69,6.67,6.67,0,0,1,3.53-.31,9,9,0,0,1,3.32,1.84,5.15,5.15,0,0,0,2.28,1.15,4.22,4.22,0,0,0,2.19-.71,13.57,13.57,0,0,1,3.13-1.61,10.07,10.07,0,0,1,3.24-.4,19.45,19.45,0,0,0,5.44-.38,9.76,9.76,0,0,1,3.25,0,11.71,11.71,0,0,1,3.18,1.22,8.42,8.42,0,0,0,2.49.91,7,7,0,0,0,2.42-.22,11.26,11.26,0,0,1,3.48-.38,17.87,17.87,0,0,1,3.89.84,3.4,3.4,0,0,0,1.18.21,5.62,5.62,0,0,0-.52-1.63,11.36,11.36,0,0,1-1.07-4.37,8.68,8.68,0,0,1,1.29-4,9,9,0,0,0,1.19-2.84A7,7,0,0,0,133,94.4c-0.27-.8-0.63-2.06-0.84-3l-0.08-.33a29.22,29.22,0,0,1-.45-3.28A3.79,3.79,0,0,0,131,86a14.55,14.55,0,0,0-4.21-.62c-2.38-.08-4.91-0.24-5.75-0.38a25.18,25.18,0,0,1-3-.74,5.9,5.9,0,0,0-2.36-.15,8,8,0,0,0-2.47,1.13A9.08,9.08,0,0,1,110,86.69a7.31,7.31,0,0,1-3.39-.42,7.09,7.09,0,0,0-2.43-.43,7.56,7.56,0,0,0-2.45.72,6.23,6.23,0,0,1-3.5.58,8.1,8.1,0,0,1-3.34-1.75,5.82,5.82,0,0,0-2.43-1.22,5.38,5.38,0,0,0-2.57.55c-0.2.11-2,1-3.1,0.72a2.22,2.22,0,0,1-1.22-2.61,10.59,10.59,0,0,0,.08-2.17,7.6,7.6,0,0,0-.47-1.83,7.61,7.61,0,0,1-.56-2.34,7.3,7.3,0,0,1,.36-2.36,8.5,8.5,0,0,0,.34-2,17.09,17.09,0,0,0-.19-2.67,3.91,3.91,0,0,1,1-3.28,6.18,6.18,0,0,1,3.58-1.08,16,16,0,0,1,4.23.66,16,16,0,0,1,3.83,2.05,10.23,10.23,0,0,0,3,1.51,7,7,0,0,0,2.88-.05c0.89-.25,3.17-1.05,5-1.76a30.08,30.08,0,0,1,5.3-1.61,14.7,14.7,0,0,1,3.68.07c1,0.16,3.3.77,5.2,1.35a33,33,0,0,0,4.87,1.15,14.77,14.77,0,0,0,3.12-.12A32.67,32.67,0,0,1,134.3,68a37.56,37.56,0,0,1,3.83.11,4.57,4.57,0,0,0,2.4-.49,4.31,4.31,0,0,0,1.18-2.09,12.17,12.17,0,0,0,.2-3.25,11.16,11.16,0,0,0-.88-3,35.23,35.23,0,0,1-1.39-3.35,30.94,30.94,0,0,1-.91-3.36,24.7,24.7,0,0,1-.38-3V49.3a17.82,17.82,0,0,1,.17-3,1.71,1.71,0,0,0-.2-1.1,3.52,3.52,0,0,0-1.65-.43,27.71,27.71,0,0,1-3.53-.37,37,37,0,0,1-3.76-.95,35.08,35.08,0,0,0-3.64-.9,32.82,32.82,0,0,0-3.63-.39c-1,0-5.26.17-9.31,0.45s-8.46.5-9.53,0.44-2.78-.2-3.86-0.35a26.49,26.49,0,0,0-7.26,0c-1,.14-2.67.46-3.66,0.71s-2.66.77-3.67,1.14a14.59,14.59,0,0,1-4.1.78,14.2,14.2,0,0,1-4.1-.68c-1-.35-3.5-1-5.55-1.49a41.77,41.77,0,0,0-5.47-.93c-1,0-4.5.09-7.66,0.28a20.19,20.19,0,0,0-5.91,1,3.38,3.38,0,0,0,0,1.93,20,20,0,0,1,.73,4,16.89,16.89,0,0,1-.29,3.82,24.21,24.21,0,0,0-.42,3.3,61.79,61.79,0,0,0,.61,6.75,33.37,33.37,0,0,1,.34,7.25,16.3,16.3,0,0,1-1.33,3.74,18.27,18.27,0,0,0-1.25,3.25,15,15,0,0,0-.37,3.21,32.18,32.18,0,0,0,.28,3.34,34.06,34.06,0,0,0,.71,3.35,15.7,15.7,0,0,1,.49,3.75,15.87,15.87,0,0,1-.6,3.74A10.84,10.84,0,0,0,50.6,98a11.48,11.48,0,0,0,.77,3.13,9.48,9.48,0,0,1,.66,4,10.66,10.66,0,0,1-1.37,3.9,6.43,6.43,0,0,0-.86,2.91,6.91,6.91,0,0,0,1.07,2.94,11.54,11.54,0,0,1,1.64,3.86,9.36,9.36,0,0,1-.34,4,21.21,21.21,0,0,0-.79,3.27,46.27,46.27,0,0,0,.25,6.71,38.47,38.47,0,0,1,.14,7.21,17.08,17.08,0,0,1-1.28,3.72,8.56,8.56,0,0,0-.79,3,7.21,7.21,0,0,0,.67,2.77,8,8,0,0,0,1.82,2.24,8.53,8.53,0,0,0,2.69,1.21,14.74,14.74,0,0,0,3.38.28l0.19,1h0l-0.07-1A18.22,18.22,0,0,0,61.84,152.38Z" fill="url(#b)"/><path d="M99.66,26.32a7.43,7.43,0,0,1-.73-1.72A4.25,4.25,0,0,0,98.13,23a3.76,3.76,0,0,0-1.44-.86,3.17,3.17,0,0,0-1.5-.07,6.42,6.42,0,0,0-1.75,2.41,19.49,19.49,0,0,1-1.73,2.9,7.92,7.92,0,0,1-1.43,1.2,13.61,13.61,0,0,1-1.64.85,10,10,0,0,1-1.59.49,12.25,12.25,0,0,0-1.78.55c-0.55.22-1.54,0.69-2.21,1a20.82,20.82,0,0,1-2.52,1.09,22.4,22.4,0,0,1-2.73.7c-0.34.06-.78,0.11-1.22,0.16l-0.73,1.06h0c-1.2,1.79-2.05,3.65-1.9,4.13a2.11,2.11,0,0,0,1.88.95c0.88,0,2.92.25,4.52,0.47a42,42,0,0,0,4.34.41,19.37,19.37,0,0,0,2.83-.25,22.4,22.4,0,0,0,2.73-.7,20.82,20.82,0,0,0,2.52-1.09c0.66-.35,1.66-0.82,2.21-1a12.25,12.25,0,0,1,1.78-.55,10,10,0,0,0,1.59-.49,13.61,13.61,0,0,0,1.64-.85,7.92,7.92,0,0,0,1.43-1.2,19.49,19.49,0,0,0,1.73-2.9c0.1-.19.2-0.38,0.31-0.56s0.35-.6.53-0.86A34.13,34.13,0,0,1,99.66,26.32Z" fill="url(#c)"/><path d="M121.82,40.88a22.75,22.75,0,0,0,2.85-.29l0.58-.12c0.75-.16,1.66-0.4,2.27-0.61a16.07,16.07,0,0,1,3-.61,21.76,21.76,0,0,1,3.44.05c1,0.11,1.81-.05,1.81-0.35A4.94,4.94,0,0,0,134,37.13a13.16,13.16,0,0,1-2.92-3,12.13,12.13,0,0,1-1.46-3.77A8.4,8.4,0,0,0,128,26.92a8.84,8.84,0,0,0-3.29-2.07,11.9,11.9,0,0,1-3.49-1.94,6.53,6.53,0,0,1-.61-0.63A10.34,10.34,0,0,1,119,19.82a7.29,7.29,0,0,0-.57-1.06,6.31,6.31,0,0,0-1.4-1.63,6,6,0,0,0-2.52-.49c-0.65,0-1.37,0-2.12,0A12.44,12.44,0,0,0,115,17.9,8.84,8.84,0,0,1,118.3,20a8.4,8.4,0,0,1,1.59,3.48,12.13,12.13,0,0,0,1.46,3.77,13.16,13.16,0,0,0,2.92,3A4.94,4.94,0,0,1,126.1,32c0,0.3-.81.46-1.81,0.35a21.76,21.76,0,0,0-3.44-.05,16.07,16.07,0,0,0-3,.61,24.71,24.71,0,0,1-2.85.72,22.75,22.75,0,0,1-2.85.29,10.62,10.62,0,0,1-2.39-.29c0.3,0.3.79,0.74,1.37,1.23,0.76,0.65,1.71,1.42,2.7,2.18a38.37,38.37,0,0,0,4.79,3.22,3.48,3.48,0,0,0,.48.21A10.47,10.47,0,0,0,121.82,40.88Z" fill="url(#d)"/><path d="M139.35,49.45a24.06,24.06,0,0,0,.36,2.89,30,30,0,0,0,.87,3.23,34.22,34.22,0,0,0,1.35,3.23,12.18,12.18,0,0,1,1,3.35,13.2,13.2,0,0,1-.22,3.58,5.19,5.19,0,0,1-1.57,2.69,5.33,5.33,0,0,1-3.07.68c-1-.09-2.72-0.14-3.71-0.1a31.49,31.49,0,0,0-3.49.35,15.7,15.7,0,0,1-3.38.13,34,34,0,0,1-5.07-1.19c-1.86-.57-4.14-1.17-5.07-1.32a13.74,13.74,0,0,0-3.38-.06,29.65,29.65,0,0,0-5.07,1.55c-1.86.73-4.14,1.54-5.07,1.79a8,8,0,0,1-3.38.06,11.12,11.12,0,0,1-3.38-1.68,15.12,15.12,0,0,0-3.55-1.9,14.19,14.19,0,0,0-3.9-.61,5.32,5.32,0,0,0-2.93.82,2.94,2.94,0,0,0-.64,2.38,18.05,18.05,0,0,1,.21,2.87,9.41,9.41,0,0,1-.39,2.28,6.36,6.36,0,0,0-.3,2,6.68,6.68,0,0,0,.48,2,8.56,8.56,0,0,1,.55,2.13A11.46,11.46,0,0,1,86.51,83a1.34,1.34,0,0,0,.52,1.5,4.46,4.46,0,0,0,2.35-.65,6.33,6.33,0,0,1,3.17-.66,6.72,6.72,0,0,1,3,1.46h0a6.16,6.16,0,0,1-.23-1.26s0-.1,0-0.15a6.43,6.43,0,0,1,.3-1.84A9.41,9.41,0,0,0,96,79.13a18.05,18.05,0,0,0-.21-2.87,2.94,2.94,0,0,1,.64-2.38,5.32,5.32,0,0,1,2.93-.82,14.19,14.19,0,0,1,3.9.61,15.12,15.12,0,0,1,3.55,1.9,11.12,11.12,0,0,0,3.38,1.68,8,8,0,0,0,3.38-.06c0.93-.26,3.21-1.06,5.07-1.79a29.65,29.65,0,0,1,5.07-1.55,13.74,13.74,0,0,1,3.38.06c0.93,0.16,3.21.75,5.07,1.32a34,34,0,0,0,5.07,1.19,15.7,15.7,0,0,0,3.38-.13,31.49,31.49,0,0,1,3.49-.35c1,0,2.66,0,3.71.1a5.33,5.33,0,0,0,3.07-.68,5.19,5.19,0,0,0,1.57-2.69,13.2,13.2,0,0,0,.22-3.58,12.18,12.18,0,0,0-1-3.35,34.22,34.22,0,0,1-1.35-3.23,30,30,0,0,1-.87-3.23,23.67,23.67,0,0,1-.37-3.08,17,17,0,0,1,.16-2.77,2.52,2.52,0,0,0-.49-2,4.12,4.12,0,0,0-2.32-.71,26.37,26.37,0,0,1-3.37-.36c-0.69-.13-1.74-0.38-2.65-0.63l-1-.29h0Z" fill="url(#e)"/><path d="M153.27,150.77a15.38,15.38,0,0,0,1.47-3.23,11.86,11.86,0,0,0,.38-3.23,11.54,11.54,0,0,0-.62-3,10.06,10.06,0,0,0-1.52-2.48,7.13,7.13,0,0,0-2.12-1.6,5.68,5.68,0,0,0-2.44-.32c-0.51.06-1.32,0.11-2,.12h-1c0,0.11,0,.23,0,0.34a11.86,11.86,0,0,1-.37,3.23,15.38,15.38,0,0,1-1.47,3.23,9.66,9.66,0,0,0-1.21,3.36,10.21,10.21,0,0,0,.42,3.62c0.34,1,.27,2.15-0.15,2.5a4.08,4.08,0,0,1-2.9,0,28,28,0,0,0-4.18-.83c-1.12-.11-6.37.57-11.68,1.52a106.75,106.75,0,0,1-11.57,1.64,47.67,47.67,0,0,1-7.71-1.94,58,58,0,0,0-7.71-2,18.22,18.22,0,0,0-3.86.14c-1.06.17-2.8,0.35-3.86,0.4s-2.8,0-3.86-.07a15.18,15.18,0,0,0-3.86.3,18.6,18.6,0,0,0-3.86,1.51A10,10,0,0,1,73.72,155a9.75,9.75,0,0,1-3.86-.94A13.07,13.07,0,0,0,66,152.93a11.76,11.76,0,0,0-3.87.41,19.18,19.18,0,0,1-3.67.69,8.49,8.49,0,0,0,.17,1,7.56,7.56,0,0,0,.57,1.7,9,9,0,0,0,2.11,2.57,9.45,9.45,0,0,0,3.08,1.39A16.11,16.11,0,0,0,68,161a18.93,18.93,0,0,0,3.8-.7,11.76,11.76,0,0,1,3.87-.41A13.07,13.07,0,0,1,79.58,161a9.75,9.75,0,0,0,3.86.94,10,10,0,0,0,3.86-1.09,18.6,18.6,0,0,1,3.86-1.51,15.18,15.18,0,0,1,3.86-.3c1.06,0.08,2.8.11,3.86,0.07s2.8-.23,3.86-0.4a18.22,18.22,0,0,1,3.86-.14,58,58,0,0,1,7.71,2,47.67,47.67,0,0,0,7.71,1.94,106.75,106.75,0,0,0,11.57-1.64c5.3-.95,10.56-1.64,11.68-1.52a28,28,0,0,1,4.18.83,4.08,4.08,0,0,0,2.9,0c0.42-.34.49-1.47,0.15-2.5a10.21,10.21,0,0,1-.42-3.62A9.66,9.66,0,0,1,153.27,150.77Z" fill="url(#f)"/><path d="M133.92,94.08a8,8,0,0,1,.29,3.23,9.93,9.93,0,0,1-1.34,3.23,7.67,7.67,0,0,0-1.12,3.46,10.38,10.38,0,0,0,1,3.92c0.55,1.14.79,2.39,0.53,2.77s-1.34.4-2.41,0a17,17,0,0,0-3.63-.78,10.27,10.27,0,0,0-3.12.33,7.88,7.88,0,0,1-2.86.25,9.35,9.35,0,0,1-2.86-1,10.75,10.75,0,0,0-2.86-1.1,8.74,8.74,0,0,0-2.86,0,25.06,25.06,0,0,1-2.86.4,24.44,24.44,0,0,1-2.86,0,9.1,9.1,0,0,0-2.86.35,12.63,12.63,0,0,0-2.86,1.47,5.07,5.07,0,0,1-2.86.89,6.06,6.06,0,0,1-2.86-1.4,8,8,0,0,0-2.88-1.61,5.73,5.73,0,0,0-2.93.26,8.65,8.65,0,0,0-2.36,1.48,5.21,5.21,0,0,0-1.18,2c-0.16.63-.38,1.65-0.47,2.27s-0.16,4-.14,7.42,0.5,6.65,1.06,7.07,4.43,0.5,8.59.18h0.07c0-.1,0-0.2,0-0.3s0-.47,0-0.7c0-3.21.06-6.15,0.15-6.73s0.31-1.64.47-2.27a5.21,5.21,0,0,1,1.18-2,8.65,8.65,0,0,1,2.36-1.48,5.73,5.73,0,0,1,2.93-.26,8,8,0,0,1,2.88,1.61,6.06,6.06,0,0,0,2.86,1.4,5.07,5.07,0,0,0,2.86-.89,12.63,12.63,0,0,1,2.86-1.47,9.1,9.1,0,0,1,2.86-.35,24.44,24.44,0,0,0,2.86,0,25.06,25.06,0,0,0,2.86-.4,8.74,8.74,0,0,1,2.86,0,10.75,10.75,0,0,1,2.86,1.1,9.35,9.35,0,0,0,2.86,1,7.88,7.88,0,0,0,2.86-.25,10.27,10.27,0,0,1,3.12-.33,17,17,0,0,1,3.63.78c1.07,0.37,2.16.36,2.41,0s0-1.63-.53-2.77a10.38,10.38,0,0,1-1-3.92,7.67,7.67,0,0,1,1.12-3.46,9.93,9.93,0,0,0,1.34-3.23,8,8,0,0,0-.29-3.23,32.22,32.22,0,0,1-.88-3.2,28.14,28.14,0,0,1-.43-3.15,4.63,4.63,0,0,0-.84-2.37c-0.4-.45-2.62-0.87-4.92-0.95l-2.4-.11-1-.06C133.31,92.06,133.65,93.28,133.92,94.08Z" fill="url(#g)"/></svg>