<svg xmlns="http://www.w3.org/2000/svg" xmlns:xlink="http://www.w3.org/1999/xlink" width="116.51" height="200" viewBox="0 0 116.51 200"><defs><linearGradient id="a" x1="31.63" y1="161.55" x2="86.44" y2="38.46" gradientUnits="userSpaceOnUse"><stop offset="0" stop-color="#fdba56"/><stop offset=".02" stop-color="#fbb055"/><stop offset=".06" stop-color="#f79d54"/><stop offset=".1" stop-color="#f59253"/><stop offset=".15" stop-color="#f48e53"/><stop offset=".3" stop-color="#ed5e4e"/><stop offset=".47" stop-color="#683a96" stop-opacity=".5"/><stop offset=".64" stop-color="#ed872b"/><stop offset=".79" stop-color="#7b76b6"/><stop offset=".9" stop-color="#f15f4f"/><stop offset="1" stop-color="#fdba56"/></linearGradient><linearGradient id="c" x1="35.01" y1="35.14" x2="45.61" y2="11.33" xlink:href="#a"/><linearGradient id="d" x1="70.02" y1="33.71" x2="79.79" y2="11.76" xlink:href="#a"/><linearGradient id="b" x1="64.76" y1="137.87" x2="81.69" y2="175.89" gradientUnits="userSpaceOnUse"><stop offset="0" stop-color="#b7151b"/><stop offset=".02" stop-color="#c52229"/><stop offset=".06" stop-color="#d7333c"/><stop offset=".11" stop-color="#e23d47"/><stop offset=".15" stop-color="#e6404b"/><stop offset=".3" stop-color="#e98a7b"/><stop offset=".47" stop-color="#7c78b8"/><stop offset=".64" stop-color="#00b0b0"/><stop offset=".79" stop-color="#7b76b6"/><stop offset="1" stop-color="#e7322f"/></linearGradient><linearGradient id="e" x1="77.68" y1="57.5" x2="90.61" y2="86.55" xlink:href="#b"/><linearGradient id="f" x1="71.82" y1="101.1" x2="84.08" y2="128.63" xlink:href="#b"/><linearGradient id="g" x1="46.29" y1="22.85" x2="54.28" y2="40.81" xlink:href="#b"/><linearGradient id="h" x1="82.84" y1="22.84" x2="91.38" y2="42.02" xlink:href="#b"/></defs><title>_</title><path d="M102.62 53.47c.14-.54.3-1.38.42-2.17 0-.34.09-.66.11-.92a22.88 22.88 0 0 0 0-3.15 2.74 2.74 0 0 0-.75-1.64 4.29 4.29 0 0 0-2.27-.29 37.45 37.45 0 0 1-4 .27 36.31 36.31 0 0 1-3.93-.25 19.38 19.38 0 0 0-3.54-.07 20.92 20.92 0 0 0-3.56.73 24.4 24.4 0 0 1-4 .84 22.8 22.8 0 0 1-4 0 35.84 35.84 0 0 1-3.9-.66A39.17 39.17 0 0 1 69.41 45a38.06 38.06 0 0 0-3.65-1.12 73.32 73.32 0 0 0-7.38-.88c-3.33-.25-6.51-.34-7.38-.28s-4.37.7-7.4 1.37a74.08 74.08 0 0 1-7.69 1.38 26.35 26.35 0 0 1-3.91-.11c-.88-.11-4.77-.17-9.15-.09a35.33 35.33 0 0 0-8.14.8 5.51 5.51 0 0 0-1.55 2 9.76 9.76 0 0 0-.65 3 10.45 10.45 0 0 0 .49 3 22.78 22.78 0 0 1 1 3.66 20.8 20.8 0 0 1 .18 3.67 15.88 15.88 0 0 0 .22 3.22 18.38 18.38 0 0 0 1 3.25 8.77 8.77 0 0 1 .64 4 10.36 10.36 0 0 1-1.58 3.91 13.17 13.17 0 0 0-1.55 3.17 9.54 9.54 0 0 0-.23 3.05 30.23 30.23 0 0 0 .66 3.33 33.7 33.7 0 0 0 1.15 3.34 13.2 13.2 0 0 1 .87 3.8 12.65 12.65 0 0 1-.54 3.82 20.82 20.82 0 0 0-.73 3.27 55.4 55.4 0 0 0 .17 6.74 43.81 43.81 0 0 1 0 7.18 21.26 21.26 0 0 1-1.08 3.67 9.63 9.63 0 0 0-.62 3.07 9.82 9.82 0 0 0 .7 3.07 30.78 30.78 0 0 1 1.28 3.6 27.4 27.4 0 0 1 .67 3.63 13.83 13.83 0 0 1-.24 3.79 16.74 16.74 0 0 1-1.46 3.73 7 7 0 0 0-.79 2.95 7.44 7.44 0 0 0 1 3 12.94 12.94 0 0 1 1.53 3.81 10.62 10.62 0 0 1-.15 3.9 3.37 3.37 0 0 0 .17 2.13 4.84 4.84 0 0 0 2.13 1.38 11.91 11.91 0 0 0 3.5.46 12.52 12.52 0 0 0 2.85-.62c.24-.08.47-.17.67-.25a29.83 29.83 0 0 1 4-1.37 26.41 26.41 0 0 1 4-.6c1-.05 3.62-.38 5.68-.72s4.8-.68 5.89-.74h1.32c.93 0 2 0 2.68.1a26.07 26.07 0 0 1 4 .76 30.45 30.45 0 0 1 4 1.55 28.22 28.22 0 0 0 3.7 1.42 24 24 0 0 0 3.67.69 13.15 13.15 0 0 0 3.53-.29 16.75 16.75 0 0 0 3.71-1.6 10.17 10.17 0 0 1 4.4-1.24 10.12 10.12 0 0 1 4.32 1.24 9.87 9.87 0 0 0 3.42 1.12 8.71 8.71 0 0 0 3.39-.63c1.1-.48 2.88-1.14 4-1.47a39.08 39.08 0 0 1 4-.94 17.68 17.68 0 0 1 4.2-.11 21.11 21.11 0 0 1 4.29 1.06 5.35 5.35 0 0 0 1.72.36 2.86 2.86 0 0 0-.18-1.08 16.77 16.77 0 0 1-.81-3.73 32.4 32.4 0 0 1 1.11-6.86c.33-1.32.65-2.74.89-4a22.14 22.14 0 0 0 .37-2.32 18.94 18.94 0 0 0-.16-3.11 2.49 2.49 0 0 0-.76-1.47 3.67 3.67 0 0 0-2.06.11 26.18 26.18 0 0 1-3.76.87 23.4 23.4 0 0 1-3.73.16 25.2 25.2 0 0 1-3.69-.54 28.24 28.24 0 0 1-3.67-1.21 9.86 9.86 0 0 0-3.11-.65 9.93 9.93 0 0 0-3.12.68 12.48 12.48 0 0 1-3.88.89 12.4 12.4 0 0 1-3.89-.66 32.71 32.71 0 0 0-3.39-1 29.18 29.18 0 0 0-3.37-.51 13.26 13.26 0 0 0-3.22.22 16.53 16.53 0 0 0-2.93 1l-.34.16a16 16 0 0 1-3.89 1.32 15.91 15.91 0 0 1-4.1.07 4.82 4.82 0 0 1-3.18-1.55 3.35 3.35 0 0 1 .39-3.3 5.55 5.55 0 0 0 .8-2.13 3.36 3.36 0 0 0-.54-1.69 14.09 14.09 0 0 1-1.35-2.37 10.59 10.59 0 0 1-.64-2.45C48 117.62 48 116 48 114.6c0-.52.07-3.14 1.39-3.75a4.87 4.87 0 0 1 3.12.13 11.45 11.45 0 0 0 2.78.52 9.64 9.64 0 0 0 2.6-.38 23.71 23.71 0 0 1 3-.73 21.86 21.86 0 0 1 3-.22c.83 0 2.76.19 4.41.41a21.47 21.47 0 0 0 4 .21 11.89 11.89 0 0 0 2.59-.71 8.26 8.26 0 0 1 6.48-.08c.76.3 2 .73 2.77.95s2 .51 2.76.65 2.08.29 2.92.34 2.36.08 3.3 0a2.42 2.42 0 0 0 1.55-.56 3.86 3.86 0 0 0-.11-2.11c-.34-1.1-.78-2.81-1-3.82s-.5-5.1-.64-8.24c-.1-2.14-.17-4.36-.18-5.94a18.14 18.14 0 0 1 0-1.88 2.73 2.73 0 0 0-.06-.88 1.61 1.61 0 0 0-.55.11 5.08 5.08 0 0 1-3.08 0 10.48 10.48 0 0 1-3.06-1.91 9.65 9.65 0 0 0-2.53-1.59 5.62 5.62 0 0 0-2.34-.2 25.33 25.33 0 0 0-2.73.71 29.1 29.1 0 0 0-2.74 1.12 7.84 7.84 0 0 1-3.34.72 8.63 8.63 0 0 1-3.31-1 15 15 0 0 0-2.64-1.14 41.16 41.16 0 0 0-5.16-.49l-2.58-.12c-2-.07-6.83-.26-7.52-.58a2.29 2.29 0 0 1-1.1-1.25 5.3 5.3 0 0 1-.08-1.46c0-.48.35-2.31.63-3.79a12.08 12.08 0 0 0 .23-3.64 11.15 11.15 0 0 0-1.08-2.21 2.89 2.89 0 0 1-.56-2.23 1.2 1.2 0 0 1 .73-.75c.79-.29 2.33.38 3.18.81a7.67 7.67 0 0 0 3.19.8 7.4 7.4 0 0 0 3-.91A15 15 0 0 1 62.89 68c1.4-.32 7.08.65 10.56 1.38 4.54 1 9.9 1.89 11.7 2a13.72 13.72 0 0 0 4.62-.32 13.88 13.88 0 0 0 3.1-1.93 9.25 9.25 0 0 1 4-1.9 8.72 8.72 0 0 1 4.28.79 4.08 4.08 0 0 0 2.29.45 2.82 2.82 0 0 0 1-1.61 10.71 10.71 0 0 0 .22-3.2 10.22 10.22 0 0 0-1-3 12.41 12.41 0 0 1-1.27-3.58 10.62 10.62 0 0 1 .23-3.61z" fill="url(#a)"/><path d="M51.77 20.51a8.27 8.27 0 0 1-.77-2.57 8.25 8.25 0 0 1 .48-3.09 1.89 1.89 0 0 0 .14-.85 23 23 0 0 0-4.79-.07 41.38 41.38 0 0 1-6.88 0 19.17 19.17 0 0 1-3.47-1.09 8.59 8.59 0 0 0-2.79-.62 7.77 7.77 0 0 0-2.68.64 5.75 5.75 0 0 0-1.78 1.32 2.06 2.06 0 0 0-.23 1.28 6.43 6.43 0 0 1-.15 2.81A10.41 10.41 0 0 1 27.32 21a3.63 3.63 0 0 0-.7 1.85 4.08 4.08 0 0 0 .89 1.89 8.38 8.38 0 0 1 1.6 2.91 6 6 0 0 1-.16 3.09 2 2 0 0 0 0 1.31 4.43 4.43 0 0 0 1.73 1.14 10.07 10.07 0 0 0 2.87.53 10 10 0 0 0 2.9-.58l.69-.14a20.46 20.46 0 0 1 2.86-.78 18.31 18.31 0 0 1 3.44-.22 13.89 13.89 0 0 0 2.8-.15 14.84 14.84 0 0 0 3.37-1.44c1.2-.68 2.61-1.56 3.09-1.92a3.42 3.42 0 0 0 .94-1.22 4.27 4.27 0 0 0 .09-1.71 16.14 16.14 0 0 0-.64-2.32A19.75 19.75 0 0 0 52 20.91c-.1-.12-.16-.26-.23-.4z" fill="url(#c)"/><path d="M87.06 15a5.17 5.17 0 0 0-2.12-.19 11.18 11.18 0 0 1-3.47-.18A15.07 15.07 0 0 1 78 13.19a6.78 6.78 0 0 0-2.72-.76 6.68 6.68 0 0 0-2.74 1 11.92 11.92 0 0 1-3.61 1.51 9.63 9.63 0 0 1-3.7-.15 5.27 5.27 0 0 0-1.31-.16 2.75 2.75 0 0 0-.83.1 2.72 2.72 0 0 0-1.16 1.15 5.91 5.91 0 0 0-.49 2.07 5.77 5.77 0 0 0 .35 1.64A4 4 0 0 0 62 20a13.62 13.62 0 0 1 1 2.66 11.55 11.55 0 0 1 .21 2.87v.83a7.45 7.45 0 0 0 .1 1.12 4.51 4.51 0 0 0 .53 1.32 13.85 13.85 0 0 0 1 1.19l.16.23c.44.46 1.36 1.3 2 1.85a7.5 7.5 0 0 0 2.25 1.24 7.88 7.88 0 0 0 2.58.17h.1a27.68 27.68 0 0 0 3.07-.65 30.74 30.74 0 0 0 3.13-1.12 12.41 12.41 0 0 1 3.64-.87 12.75 12.75 0 0 1 3.72.49 4.58 4.58 0 0 0 1.58.21 11.66 11.66 0 0 0 .15-3.38 26.14 26.14 0 0 1 0-5.47 12.9 12.9 0 0 1 1.1-2.75 4 4 0 0 0 .2-.42 4.89 4.89 0 0 0 .4-1.52 4.25 4.25 0 0 0-.53-1.79A3.61 3.61 0 0 0 87.06 15z" fill="url(#d)"/><path d="M116.4 142.41a19.8 19.8 0 0 0-.17-3.31 3.3 3.3 0 0 0-1.29-2.21 4.43 4.43 0 0 0-2.83 0 25 25 0 0 1-3.58.83c-.34 0-.76.08-1.2.11h-1c-.24 1.2-.56 2.65-.9 4a32 32 0 0 0-1.09 6.54 15.89 15.89 0 0 0 .76 3.46c.35 1 .31 2-.08 2.27a4.08 4.08 0 0 1-2.77-.28 20.3 20.3 0 0 0-4-1 16.91 16.91 0 0 0-3.92.1 37.77 37.77 0 0 0-3.86.91c-1.06.32-2.8 1-3.86 1.43a9.78 9.78 0 0 1-3.86.71 10.76 10.76 0 0 1-3.86-1.25 9.11 9.11 0 0 0-3.86-1.1 9.2 9.2 0 0 0-3.86 1.15 17.67 17.67 0 0 1-3.86 1.62 14 14 0 0 1-3.86.31 24.86 24.86 0 0 1-3.86-.72 29 29 0 0 1-3.86-1.48 29.17 29.17 0 0 0-3.86-1.49 25 25 0 0 0-3.86-.73 32.5 32.5 0 0 0-3.86-.07c-1.06.06-3.66.39-5.79.73s-4.72.67-5.78.73a25.22 25.22 0 0 0-3.86.58 28.83 28.83 0 0 0-3.86 1.32c-.22.1-.48.19-.74.28v1.05a7.87 7.87 0 0 1-.2 1.35 4.29 4.29 0 0 0 .29 2.91 5.66 5.66 0 0 0 2.67 1.8 12.76 12.76 0 0 0 3.86.51 13.55 13.55 0 0 0 3.86-1 28.83 28.83 0 0 1 3.86-1.32 25.22 25.22 0 0 1 3.86-.58c1.06-.06 3.66-.38 5.78-.73s4.72-.67 5.79-.73a32.5 32.5 0 0 1 3.86.07 25 25 0 0 1 3.86.73 29.17 29.17 0 0 1 3.86 1.49 29 29 0 0 0 3.86 1.48 24.86 24.86 0 0 0 3.86.72 14 14 0 0 0 3.86-.31 17.67 17.67 0 0 0 3.86-1.62 9.2 9.2 0 0 1 3.86-1.15 9.11 9.11 0 0 1 3.86 1.1 10.76 10.76 0 0 0 3.86 1.25 9.78 9.78 0 0 0 3.86-.71c1.06-.46 2.8-1.11 3.86-1.43A37.77 37.77 0 0 1 104 160a16.91 16.91 0 0 1 3.92-.1 20.3 20.3 0 0 1 4 1 4.08 4.08 0 0 0 2.77.28c.39-.27.43-1.29.08-2.27a15.89 15.89 0 0 1-.76-3.46 32 32 0 0 1 1.09-6.54 53.09 53.09 0 0 0 1.3-6.5z" fill="url(#b)"/><path d="M103.59 53.72a9.64 9.64 0 0 0-.18 3.23 11.47 11.47 0 0 0 1.15 3.23 11.1 11.1 0 0 1 1.13 3.35 11.57 11.57 0 0 1-.24 3.58 3.58 3.58 0 0 1-1.65 2.3 4.76 4.76 0 0 1-3.09-.48 7.65 7.65 0 0 0-3.7-.69 8.24 8.24 0 0 0-3.49 1.67A14.86 14.86 0 0 1 90.14 72a14.45 14.45 0 0 1-5.07.38c-1.86-.16-7.18-1.08-11.82-2.06s-9.25-1.6-10.13-1.38a14.05 14.05 0 0 0-3.38 1.41 8.36 8.36 0 0 1-3.47 1.05 9.37 9.37 0 0 1-3.66-.91 5.42 5.42 0 0 0-2.39-.76c-.28.1-.13.78.33 1.5a11.94 11.94 0 0 1 1.2 2.47 12.4 12.4 0 0 1-.22 4.13c-.31 1.64-.59 3.29-.62 3.68a4.37 4.37 0 0 0 .09 1.13 1.33 1.33 0 0 0 .68.69 60.15 60.15 0 0 0 7.13.49l2.6.12c0-.34.09-.67.11-1a7.76 7.76 0 0 0 0-2.3 11.94 11.94 0 0 0-1.2-2.47c-.47-.72-.62-1.4-.33-1.5a5.42 5.42 0 0 1 2.39.76 9.37 9.37 0 0 0 3.66.91 8.36 8.36 0 0 0 3.47-1.05 14.05 14.05 0 0 1 3.38-1.41c.93-.21 5.49.41 10.14 1.38s10 1.9 11.82 2.06a14.45 14.45 0 0 0 5.07-.38 14.86 14.86 0 0 0 3.38-2.09 8.24 8.24 0 0 1 3.49-1.67 7.65 7.65 0 0 1 3.7.69 4.76 4.76 0 0 0 3.09.48 3.58 3.58 0 0 0 1.65-2.3 11.57 11.57 0 0 0 .24-3.58 11.1 11.1 0 0 0-1.13-3.35 11.47 11.47 0 0 1-1.15-3.23 9.64 9.64 0 0 1 .18-3.23 23.57 23.57 0 0 0 .56-3.26 23.8 23.8 0 0 0 0-3.32 3.59 3.59 0 0 0-1.18-2.38 5.09 5.09 0 0 0-3-.45 36.08 36.08 0 0 1-3.84.26h-1.83c-.17.72-.34 1.6-.49 2.21z" fill="url(#e)"/><path d="M94 97.21c.16 3.48.44 7.13.62 8.11s.61 2.64.94 3.71a4.41 4.41 0 0 1 0 2.92 3.15 3.15 0 0 1-2.38 1h-3.39c-.88 0-2.25-.22-3-.36s-2.07-.44-2.86-.67-2.07-.67-2.86-1a9 9 0 0 0-2.86-.55 9.11 9.11 0 0 0-2.86.62 12.89 12.89 0 0 1-2.86.78 22.29 22.29 0 0 1-4.29-.21c-1.57-.21-3.5-.4-4.29-.4a20.85 20.85 0 0 0-2.86.21 22.51 22.51 0 0 0-2.86.69 10.58 10.58 0 0 1-2.93.43 12.48 12.48 0 0 1-3.08-.57 4.06 4.06 0 0 0-2.38-.16c-.44.2-.81 1.48-.81 2.84s.05 3 .12 3.55a9.57 9.57 0 0 0 .57 2.18 13.14 13.14 0 0 0 1.24 2.18 4.31 4.31 0 0 1 .72 2.33 6.48 6.48 0 0 1-1 2.63 2.44 2.44 0 0 0-.38 2.22 4 4 0 0 0 2.46 1.09 15 15 0 0 0 3.79-.06 15.17 15.17 0 0 0 3.61-1.23l.37-.18c-.17-.25-.36-.55-.53-.85a10.93 10.93 0 0 1-.6-1.17 9.57 9.57 0 0 1-.57-2.18c-.07-.6-.12-2.2-.12-3.55s.36-2.63.81-2.84a4.06 4.06 0 0 1 2.38.16 12.48 12.48 0 0 0 3.08.57 10.58 10.58 0 0 0 2.93-.43 22.51 22.51 0 0 1 2.86-.69 20.85 20.85 0 0 1 2.86-.21c.79 0 2.72.19 4.29.4a22.29 22.29 0 0 0 4.29.21A12.89 12.89 0 0 0 85 118a9.11 9.11 0 0 1 2.86-.62 9 9 0 0 1 2.86.55c.79.31 2.07.75 2.86 1s2.07.53 2.86.67 2.15.3 3 .36 2.41.08 3.39 0a3.15 3.15 0 0 0 2.38-1 4.41 4.41 0 0 0 0-2.92c-.33-1.06-.75-2.73-.94-3.71s-.46-4.62-.62-8.11-.23-6.94-.16-7.67a2.57 2.57 0 0 0-.36-1.79 1.81 1.81 0 0 0-1.61 0 4.09 4.09 0 0 1-2.39 0 9.53 9.53 0 0 1-2.7-1.7 10.84 10.84 0 0 0-1.66-1.18 8.5 8.5 0 0 0-1-.52c.06 1.45.12 3.64.23 5.85z" fill="url(#f)"/><path d="M52.84 20.41A20.64 20.64 0 0 1 54 22.92a17 17 0 0 1 .69 2.5 5.17 5.17 0 0 1-.13 2.23 4.39 4.39 0 0 1-1.28 1.67c-.51.38-1.95 1.28-3.19 2a15.6 15.6 0 0 1-3.68 1.56 15 15 0 0 1-3 .17 17.62 17.62 0 0 0-3.25.17 19.56 19.56 0 0 0-2.67.7 5.21 5.21 0 0 1 .38.93 5.09 5.09 0 0 1-.13 2.51 2.85 2.85 0 0 0 .14 2.19 5.2 5.2 0 0 0 2.22 1.54 10.93 10.93 0 0 0 3.26.6 11 11 0 0 0 3.25-.65 19.63 19.63 0 0 1 3.25-.9 17.62 17.62 0 0 1 3.23-.14 15 15 0 0 0 3-.17 15.6 15.6 0 0 0 3.68-1.56c1.25-.71 2.68-1.61 3.19-2a4.39 4.39 0 0 0 1.28-1.67 5.14 5.14 0 0 0 .15-2.11v-.12a16.41 16.41 0 0 0-.39-1.74 14.65 14.65 0 0 1-1.07-1.29 5.41 5.41 0 0 1-.69-1.69 8.33 8.33 0 0 1-.12-1.3 6.55 6.55 0 0 1-.38-1.55 7.09 7.09 0 0 1 .21-2 12.7 12.7 0 0 0-.87-2.43 5.17 5.17 0 0 1-.22-.54c-.31 0-.68 0-1.07-.06-1 0-2.1 0-3.31.07-.91.06-1.84.1-2.72.12h-1.11c.06.2.12.34.19.45z" fill="url(#g)"/><path d="M89.21 20.41a12 12 0 0 0-1 2.5 25.76 25.76 0 0 0 0 5.16c.16 2.15-.07 4.09-.52 4.32a4.25 4.25 0 0 1-2.51-.12 11.59 11.59 0 0 0-3.37-.44 11.44 11.44 0 0 0-3.29.79 31.41 31.41 0 0 1-3.25 1.17 27.92 27.92 0 0 1-3.25.68h-.1v.12a5.2 5.2 0 0 0 .27.85 4.46 4.46 0 0 0 .42.83A15.59 15.59 0 0 0 74 37.86c.47.48 1.39 1.34 2.06 1.91a8.46 8.46 0 0 0 2.63 1.45 8.9 8.9 0 0 0 3 .19 27.92 27.92 0 0 0 3.31-.67 31.41 31.41 0 0 0 3.25-1.17 11.44 11.44 0 0 1 3.29-.79 11.59 11.59 0 0 1 3.37.44 4.25 4.25 0 0 0 2.51.12c.44-.23.67-2.17.52-4.32a25.76 25.76 0 0 1 0-5.16 12 12 0 0 1 1-2.5 6.1 6.1 0 0 0 .71-2.44A5.22 5.22 0 0 0 99 22.6a4.54 4.54 0 0 0-1.84-1.6 6.1 6.1 0 0 0-2.64-.25 10.27 10.27 0 0 1-3.11-.17 9.07 9.07 0 0 1-1-.33c-.3-.11-.62-.24-.93-.38a5 5 0 0 1-.27.54z" fill="url(#h)"/></svg>