<svg xmlns="http://www.w3.org/2000/svg" xmlns:xlink="http://www.w3.org/1999/xlink" width="200" height="200" viewBox="0 0 200 200"><defs><linearGradient id="a" x1="72.29" y1="148.26" x2="117.64" y2="46.41" gradientUnits="userSpaceOnUse"><stop offset="0" stop-color="#fdba56"/><stop offset="0.02" stop-color="#fbb055"/><stop offset="0.06" stop-color="#f79d54"/><stop offset="0.1" stop-color="#f59253"/><stop offset="0.15" stop-color="#f48e53"/><stop offset="0.3" stop-color="#ed5e4e"/><stop offset="0.47" stop-color="#683a96" stop-opacity="0.5"/><stop offset="0.64" stop-color="#ed872b"/><stop offset="0.79" stop-color="#7b76b6"/><stop offset="0.9" stop-color="#f15f4f"/><stop offset="1" stop-color="#fdba56"/></linearGradient><linearGradient id="b" x1="95.07" y1="35.66" x2="108.51" y2="5.47" xlink:href="#a"/><linearGradient id="c" x1="85.26" y1="61.02" x2="127.98" y2="156.96" gradientUnits="userSpaceOnUse"><stop offset="0" stop-color="#b7151b"/><stop offset="0.02" stop-color="#c52229"/><stop offset="0.06" stop-color="#d7333c"/><stop offset="0.11" stop-color="#e23d47"/><stop offset="0.15" stop-color="#e6404b"/><stop offset="0.3" stop-color="#e98a7b"/><stop offset="0.47" stop-color="#7c78b8"/><stop offset="0.64" stop-color="#00b0b0"/><stop offset="0.79" stop-color="#7b76b6"/><stop offset="1" stop-color="#e7322f"/></linearGradient><linearGradient id="d" x1="110.04" y1="19.76" x2="117.61" y2="36.78" xlink:href="#c"/></defs><title>_</title><path d="M85.47,151.17l0,0.67,0-.25-0.08-.42h0Z" fill="none"/><path d="M113,46.16a5.7,5.7,0,0,0-1.64-2.43A9.1,9.1,0,0,0,108,42.47c-1.27-.19-3.32-0.39-4.56-0.44s-3.25,0-4.47.09-3.38.15-4.66,0.1S91,42,89.7,41.77a17.9,17.9,0,0,0-4.15-.07,17.33,17.33,0,0,0-3.94,1.13,13.41,13.41,0,0,0-3,1.92A6.55,6.55,0,0,0,77.1,47a17.09,17.09,0,0,0-.59,2.84,21,21,0,0,0,0,3.14c0.08,1,.14,2.58.13,3.56s-0.09,2.57-.18,3.55a12.58,12.58,0,0,0,.19,3.16,15.39,15.39,0,0,0,1.2,3.21,17.61,17.61,0,0,1,1.4,3.71,58.24,58.24,0,0,1,.14,8.92c-0.13,3.45-.41,7.69-0.64,8.83s-0.89,3.37-1.54,5.31a36.3,36.3,0,0,0-1.33,5,15.66,15.66,0,0,0,0,3.22c0.13,1,.27,3.36.32,5.3a36.89,36.89,0,0,0,.44,5A21.09,21.09,0,0,0,77.7,115a10.45,10.45,0,0,1,.77,3.9,10.92,10.92,0,0,1-1.06,3.88,9.78,9.78,0,0,0-.89,3.07,8.93,8.93,0,0,0,.49,3,21.82,21.82,0,0,1,1,3.67,19.79,19.79,0,0,1,.18,3.69c-0.06,1-.24,2.58-0.39,3.56s-0.47,2.57-.71,3.55a17.09,17.09,0,0,0-.42,3.14,14,14,0,0,0,.33,2.93,2.4,2.4,0,0,0,1.07,1.39,6.23,6.23,0,0,0,2.82,0,36.6,36.6,0,0,1,4.5-.66h0.1l0.86,0c1.83,0,5.11.16,8.16,0.4,3.76,0.29,9,.9,11.6,1.36a16.38,16.38,0,0,0,4.73.3,3.24,3.24,0,0,0-.25-1.42,11.76,11.76,0,0,1-.8-4.14,10.88,10.88,0,0,1,1.08-4,29,29,0,0,0,1.44-3.33,46.76,46.76,0,0,0,1.09-6.71,27.44,27.44,0,0,0,.09-6.55,15.68,15.68,0,0,0-1.45-3.21,10.84,10.84,0,0,1-1.4-3.89,9.53,9.53,0,0,1,.6-3.95,9.19,9.19,0,0,0,.58-3.05,9.58,9.58,0,0,0-.78-3.07,16.23,16.23,0,0,1-1.18-3.74,14.21,14.21,0,0,1,0-3.78c0.16-1,.49-2.58.74-3.55s0.74-2.57,1.09-3.55a10.85,10.85,0,0,0,.52-3.11,11.09,11.09,0,0,0-.66-3.12,22.74,22.74,0,0,1-1.06-3.66,20.36,20.36,0,0,1-.27-3.68,21,21,0,0,1,.52-3.67,24.52,24.52,0,0,1,1.3-3.64,10,10,0,0,0,.78-3.08,9.51,9.51,0,0,0-.53-3.07,22.17,22.17,0,0,1-1-3.66,20.18,20.18,0,0,1-.2-3.69,26.3,26.3,0,0,1,.52-3.63,29.29,29.29,0,0,1,1.14-3.62,11.77,11.77,0,0,0,.7-3.19,9.36,9.36,0,0,0-.06-1.32A12,12,0,0,0,113,46.16Z" fill="url(#a)"/><path d="M118.55,13.51a21.37,21.37,0,0,1,3.11-2.18c-1,.13-2.12.24-2.88,0.28-1.23.08-3.17,0.09-4.32,0s-3.9-.43-6.15-0.81a41.56,41.56,0,0,0-5.81-.66,16.87,16.87,0,0,0-6.94,1.57,15,15,0,0,0-2.64,1.68,20.89,20.89,0,0,0-2.19,2.21,22.66,22.66,0,0,0-1.82,2.66c-0.48.86-1.33,2.21-1.88,3s-1.51,2.07-2.13,2.83a13.15,13.15,0,0,0-1.56,2.48,9.6,9.6,0,0,0-.64,2.48,6,6,0,0,0,0,1.06,10.08,10.08,0,0,1,1.68-.5,19.91,19.91,0,0,1,2.48-.28h0.62c0.72,0,1.58,0,2.17.11a23,23,0,0,1,2.78.52l1.09,0.33c1,0.32,2.21.75,3.24,1.13a8.07,8.07,0,0,0,3.82.55,36.67,36.67,0,0,0,6.11-4.91c2.63-2.47,5.49-5.32,6.24-6.22a32.63,32.63,0,0,0,2.49-3.56,13.73,13.73,0,0,1,.88-1.29A18.19,18.19,0,0,1,118.55,13.51Z" fill="url(#b)"/><path d="M123,146.6a47.54,47.54,0,0,0,1.14-6.93,27.6,27.6,0,0,0,.06-6.93,16.62,16.62,0,0,0-1.57-3.47,9.89,9.89,0,0,1-1.25-3.47,8.54,8.54,0,0,1,.53-3.47,10.09,10.09,0,0,0,.66-3.47,10.49,10.49,0,0,0-.88-3.47,15.33,15.33,0,0,1-1.09-3.46,13.28,13.28,0,0,1,0-3.46c0.15-1,.48-2.51.72-3.46s0.72-2.51,1.06-3.47a11.7,11.7,0,0,0,.58-3.47,12,12,0,0,0-.73-3.47,21.93,21.93,0,0,1-1-3.47,19.58,19.58,0,0,1-.25-3.47,20.14,20.14,0,0,1,.5-3.46,23.37,23.37,0,0,1,1.24-3.46,10.9,10.9,0,0,0,.88-3.46,10.4,10.4,0,0,0-.6-3.47,21.31,21.31,0,0,1-1-3.47,19.22,19.22,0,0,1-.19-3.47,25.09,25.09,0,0,1,.49-3.47A28.05,28.05,0,0,1,123.41,60a12.79,12.79,0,0,0,.77-3.52,13.39,13.39,0,0,0-.47-3.63,6.7,6.7,0,0,0-2-2.94,10,10,0,0,0-3.81-1.46c-0.69-.1-1.6-0.21-2.49-0.29l-1-.09a10.4,10.4,0,0,1,.07,1.47A12.79,12.79,0,0,1,113.7,53a28.05,28.05,0,0,0-1.09,3.47,25.09,25.09,0,0,0-.49,3.47,19.22,19.22,0,0,0,.19,3.47,21.31,21.31,0,0,0,1,3.47,10.4,10.4,0,0,1,.6,3.47,10.9,10.9,0,0,1-.88,3.46,23.37,23.37,0,0,0-1.24,3.46,20.14,20.14,0,0,0-.5,3.46,19.58,19.58,0,0,0,.25,3.47,21.93,21.93,0,0,0,1,3.47,12,12,0,0,1,.73,3.47,11.7,11.7,0,0,1-.58,3.47c-0.34,1-.81,2.51-1.06,3.47s-0.57,2.51-.72,3.46a13.28,13.28,0,0,0,0,3.46,15.33,15.33,0,0,0,1.09,3.46,10.49,10.49,0,0,1,.88,3.47,10.09,10.09,0,0,1-.66,3.47,8.54,8.54,0,0,0-.53,3.47,9.89,9.89,0,0,0,1.25,3.47,16.62,16.62,0,0,1,1.57,3.47,27.6,27.6,0,0,1-.06,6.93,47.54,47.54,0,0,1-1.14,6.93,30,30,0,0,1-1.5,3.47,9.89,9.89,0,0,0-1,3.55,10.79,10.79,0,0,0,.72,3.72c0.43,1,.42,2.22,0,2.61s-2.94.34-5.55-.12-7.78-1.06-11.51-1.35-7.47-.45-8.83-0.38c0,0.14,0,.28-0.06.43l0,0.25c0,0.11,0,.22,0,0.34-0.05.47-.09,0.93-0.1,1.28a15.07,15.07,0,0,0,.36,3.18,3.35,3.35,0,0,0,1.65,2.07,7,7,0,0,0,3.43,0,35.7,35.7,0,0,1,4.36-.64c1.21-.09,5.25.08,9,0.37s8.9,0.9,11.51,1.35,5.1,0.51,5.55.12,0.46-1.56,0-2.61a10.79,10.79,0,0,1-.72-3.72,9.89,9.89,0,0,1,1-3.55A30,30,0,0,0,123,146.6Z" fill="url(#c)"/><path d="M128.92,21.2a21.25,21.25,0,0,1,4.1-2.68A6.48,6.48,0,0,0,135.35,17c0-.2-1.07-0.2-2.38,0s-3.35.44-4.55,0.52-3.09.09-4.2,0-3.79-.41-6-0.79h0l-1.08-.17a13,13,0,0,0-.82,1.2,33.3,33.3,0,0,1-2.58,3.7c-0.78.94-3.63,3.78-6.33,6.31s-5.61,4.84-6.47,5.13a8.65,8.65,0,0,1-4.48-.56c-1.08-.4-2.3-0.82-3.2-1.11-0.19.28-.38,0.58-0.56,0.87a9.73,9.73,0,0,0-.54,1,10.48,10.48,0,0,0-.72,2.8,4.76,4.76,0,0,0,.18,2,0.75,0.75,0,0,0,1,.2,8.52,8.52,0,0,1,1.71-.54,19,19,0,0,1,2.33-.26,20.88,20.88,0,0,1,2.64.09,21.9,21.9,0,0,1,2.64.49c0.73,0.19,2.63.84,4.24,1.43a8.65,8.65,0,0,0,4.48.56c0.86-.29,3.77-2.6,6.47-5.13s5.55-5.37,6.33-6.31a33.3,33.3,0,0,0,2.58-3.7A17.61,17.61,0,0,1,128.92,21.2Z" fill="url(#d)"/></svg>