<svg xmlns="http://www.w3.org/2000/svg" xmlns:xlink="http://www.w3.org/1999/xlink" width="77.17" height="200" viewBox="0 0 77.17 200"><defs><linearGradient id="a" x1="11.08" y1="149.01" x2="55.49" y2="49.25" gradientUnits="userSpaceOnUse"><stop offset="0" stop-color="#fdba56"/><stop offset=".02" stop-color="#fbb055"/><stop offset=".06" stop-color="#f79d54"/><stop offset=".1" stop-color="#f59253"/><stop offset=".15" stop-color="#f48e53"/><stop offset=".3" stop-color="#ed5e4e"/><stop offset=".47" stop-color="#683a96" stop-opacity=".5"/><stop offset=".64" stop-color="#ed872b"/><stop offset=".79" stop-color="#7b76b6"/><stop offset=".9" stop-color="#f15f4f"/><stop offset="1" stop-color="#fdba56"/></linearGradient><linearGradient id="c" x1="27.21" y1="42.91" x2="40.89" y2="12.18" xlink:href="#a"/><linearGradient id="b" x1="24.04" y1="63.26" x2="66.63" y2="158.92" gradientUnits="userSpaceOnUse"><stop offset="0" stop-color="#b7151b"/><stop offset=".02" stop-color="#c52229"/><stop offset=".06" stop-color="#d7333c"/><stop offset=".11" stop-color="#e23d47"/><stop offset=".15" stop-color="#e6404b"/><stop offset=".3" stop-color="#e98a7b"/><stop offset=".47" stop-color="#7c78b8"/><stop offset=".64" stop-color="#00b0b0"/><stop offset=".79" stop-color="#7b76b6"/><stop offset="1" stop-color="#e7322f"/></linearGradient><linearGradient id="d" x1="22.68" y1="26.84" x2="29.54" y2="42.26" xlink:href="#b"/><linearGradient id="e" x1="52.52" y1="19.91" x2="63.72" y2="45.06" xlink:href="#b"/></defs><title>_</title><path d="M51.33 51v-.15a8.73 8.73 0 0 0-.78-2.48 7.12 7.12 0 0 0-2-2.12A10.82 10.82 0 0 0 45.34 45a25.55 25.55 0 0 0-4.14-.35 31.45 31.45 0 0 0-4.3.39c-1.29.22-4.4.52-6.93.67a89.79 89.79 0 0 1-9.16 0 15.61 15.61 0 0 0-4.63.22 2.05 2.05 0 0 0 0 1.35 30.18 30.18 0 0 1 .82 3.53 29.51 29.51 0 0 1 .31 3.59 15 15 0 0 1-.53 3.77 18.77 18.77 0 0 1-1.67 3.7 6.6 6.6 0 0 0-.86 2.92 7 7 0 0 0 1 2.93 18.72 18.72 0 0 1 1.85 3.7 14.35 14.35 0 0 1 .64 3.78 15.53 15.53 0 0 1-.49 3.8 19.25 19.25 0 0 1-1.63 3.7 8.15 8.15 0 0 0-1 3 7.49 7.49 0 0 0 .66 3 8.68 8.68 0 0 1 .77 4 9.92 9.92 0 0 1-1.52 3.93 6.16 6.16 0 0 0-1 2.88 6.38 6.38 0 0 0 1.08 2.9 13.65 13.65 0 0 1 1.84 3.8 10.32 10.32 0 0 1 .11 3.91c-.2 1-.61 2.59-.93 3.58s-.92 2.58-1.36 3.56a7.67 7.67 0 0 0-.55 3 8.66 8.66 0 0 0 1 3 15.27 15.27 0 0 1 1.59 3.74 12.46 12.46 0 0 1 .14 3.83 19.91 19.91 0 0 0-.15 3.27 20.58 20.58 0 0 0 .52 3.27 31.31 31.31 0 0 1 .67 3.61 35.81 35.81 0 0 1 0 5.17 44.64 44.64 0 0 1-.56 4.7 1.23 1.23 0 0 0 .14.86 32.72 32.72 0 0 0 6.59.27l2.54-.06h3.39c1.24 0 2.21 0 2.74.05 1.27.08 5.57.76 9.59 1.52a30.07 30.07 0 0 0 7.72.72 15.06 15.06 0 0 0 .76-5.63 58.92 58.92 0 0 0-.4-7.26 21.25 21.25 0 0 0-1.11-3.32 10.54 10.54 0 0 1-.77-3.9 11 11 0 0 1 1-3.88 9.84 9.84 0 0 0 .88-3.07 9 9 0 0 0-.49-3 21.92 21.92 0 0 1-1-3.67 20 20 0 0 1-.18-3.68c.06-1 .43-3.39.82-5.33a32.3 32.3 0 0 0 .65-5 15.85 15.85 0 0 0-.46-3.21 12.07 12.07 0 0 1-.31-3.84 13.48 13.48 0 0 1 1.15-3.8 10.38 10.38 0 0 0 .88-3.1 30.41 30.41 0 0 0-1.43-6.57A41.43 41.43 0 0 1 48 78.68a18.42 18.42 0 0 1 .37-3.7c.2-.91.56-3.25.78-5.1s.44-4.95.48-6.84a49.22 49.22 0 0 1 .37-5.33 28.65 28.65 0 0 1 .91-3.62 9.41 9.41 0 0 0 .41-3s.02-.09.01-.09z" fill="url(#a)"/><path d="M39.76 30.66c.66-.11 2.24-.28 3.6-.39a12.25 12.25 0 0 1 3.93.32h.15a15.08 15.08 0 0 1 3 1.65 5.64 5.64 0 0 0 2.33.93A5 5 0 0 0 55 32.6a9.34 9.34 0 0 1 3.63-1.1h.77a18.4 18.4 0 0 1-1.8-1.36 14.85 14.85 0 0 1-2.71-3.32c-.51-.92-1.27-2.5-1.7-3.52-.34-.85-.83-2.2-1.19-3.3l-.16-.52a8.64 8.64 0 0 0-1.55-2.8 12.9 12.9 0 0 0-4.17-2.07 45.71 45.71 0 0 0-4.61-1.23 13.72 13.72 0 0 0-2.58-.07 18.54 18.54 0 0 0-2.86.54 26 26 0 0 1-3.31.68 46 46 0 0 1-6.13-.11 50.12 50.12 0 0 0-5.77-.15 27.85 27.85 0 0 0-3.28.62 7.92 7.92 0 0 0-2.72 1.43 29.16 29.16 0 0 0-3.39 6.23 47.7 47.7 0 0 1-3.6 7 19.29 19.29 0 0 1-2.75 2.72 6.75 6.75 0 0 0-.57.49 20.5 20.5 0 0 0 2.6.24 51.78 51.78 0 0 1 5.74.47 19.91 19.91 0 0 1 3 .93 5.33 5.33 0 0 0 1.16.3 4.59 4.59 0 0 0 1.12.05 11.29 11.29 0 0 0 3.32-1.57c1.2-.79 2.74-1.76 3.25-2a3.25 3.25 0 0 0 .91-.76 4.42 4.42 0 0 0 .54-1.27 14.17 14.17 0 0 1 .63-2 12.44 12.44 0 0 1 1-1.79A16.7 16.7 0 0 1 29 23.85a18.17 18.17 0 0 1 1.47-1.42 4.5 4.5 0 0 1 2.16-1 5.37 5.37 0 0 1 2.39.43A12.18 12.18 0 0 1 37 23a9.44 9.44 0 0 1 1.53 1.49 5.15 5.15 0 0 1 .88 2.26 9.42 9.42 0 0 1-.22 2.74 3.05 3.05 0 0 0-.05 1.08h.25a1.34 1.34 0 0 0 .37.09z" fill="url(#c)"/><path d="M59.88 76.95c.23-1.91.45-5 .49-6.93a48.14 48.14 0 0 1 .36-5.2 27.51 27.51 0 0 1 .87-3.47 10.32 10.32 0 0 0 .46-3.35 9.49 9.49 0 0 0-.95-3.16 8.09 8.09 0 0 0-2.3-2.49A11.65 11.65 0 0 0 55.23 51c-.52-.09-1.21-.18-1.91-.24l-1-.08c0 .12 0 .25.05.36a10.32 10.32 0 0 1-.46 3.36 27.51 27.51 0 0 0-.91 3.47 48.14 48.14 0 0 0-.36 5.2c0 1.91-.26 5-.49 6.93s-.59 4.24-.8 5.2a17.56 17.56 0 0 0-.35 3.46 40.71 40.71 0 0 0 1.63 6.93 30.14 30.14 0 0 1 1.47 6.93 11.26 11.26 0 0 1-1 3.47 12.55 12.55 0 0 0-1 3.47 11.09 11.09 0 0 0 .28 3.46 16.75 16.75 0 0 1 .5 3.46 33.38 33.38 0 0 1-.66 5.2c-.38 1.91-.74 4.25-.8 5.2a19.1 19.1 0 0 0 .17 3.47 21.12 21.12 0 0 0 .93 3.47 9.92 9.92 0 0 1 .55 3.47 10.71 10.71 0 0 1-1 3.46 10 10 0 0 0-.94 3.46 9.55 9.55 0 0 0 .69 3.46 22.13 22.13 0 0 1 1.11 3.43 59.54 59.54 0 0 1 .42 7.46c0 3.15-.51 6.07-1.2 6.49s-4.5.15-8.47-.6-8.23-1.43-9.46-1.5c-.94-.06-3.4-.06-6 0v.15c0 .3 0 .6-.07.9-.14 1.53-.33 3.05-.46 3.65a2 2 0 0 0 .55 1.92c.47.34 3.7.53 7.17.43s7.34-.12 8.57 0 5.49.76 9.46 1.5 7.78 1 8.47.6 1.23-3.34 1.2-6.49a59.54 59.54 0 0 0-.42-7.46 22.13 22.13 0 0 0-1.12-3.47 9.55 9.55 0 0 1-.69-3.46 10 10 0 0 1 .94-3.46 10.71 10.71 0 0 0 1-3.46 9.92 9.92 0 0 0-.55-3.47 21.12 21.12 0 0 1-.93-3.47 19.1 19.1 0 0 1-.17-3.47c.06-1 .42-3.29.8-5.2a33.38 33.38 0 0 0 .66-5.2 16.75 16.75 0 0 0-.5-3.46 11.09 11.09 0 0 1-.28-3.46 12.55 12.55 0 0 1 1-3.47 11.26 11.26 0 0 0 1-3.47 30.14 30.14 0 0 0-1.47-6.93 40.71 40.71 0 0 1-1.63-6.93 17.56 17.56 0 0 1 .35-3.46c.19-1.02.55-3.36.78-5.26z" fill="url(#b)"/><path d="M38.35 31.26a3 3 0 0 1-.1-1.95 8.61 8.61 0 0 0 .2-2.4 4.16 4.16 0 0 0-.68-1.76 8.41 8.41 0 0 0-1.34-1.3 11.27 11.27 0 0 0-1.78-1 4.39 4.39 0 0 0-1.88-.35 3.57 3.57 0 0 0-1.62.73 17.43 17.43 0 0 0-1.37 1.33A15.49 15.49 0 0 0 28.65 26a11.5 11.5 0 0 0-.87 1.62 13.19 13.19 0 0 0-.58 1.83 5.31 5.31 0 0 1-.71 1.65 4.19 4.19 0 0 1-1.27 1.07c-.42.21-1.84 1.09-3.15 2a12 12 0 0 1-3.75 1.73 5.48 5.48 0 0 1-1.39-.06l-.12.17c-.17.21-.38.45-.61.7a18.55 18.55 0 0 1-2 1.86 4.24 4.24 0 0 0-1.5 1.75c0 .34 1.82.69 4.11.77a51 51 0 0 1 5.57.45 19 19 0 0 1 2.83.88 6.61 6.61 0 0 0 2.79.42A12 12 0 0 0 31.78 41c1.31-.86 2.72-1.74 3.15-2a4.19 4.19 0 0 0 1.27-1 5.31 5.31 0 0 0 .71-1.65 13.19 13.19 0 0 1 .58-1.83 11.5 11.5 0 0 1 .87-1.62l.27-.38c.22-.29.47-.61.69-.87a1.4 1.4 0 0 1-.97-.39z" fill="url(#d)"/><path d="M65.23 40.4a8.32 8.32 0 0 1 3.18-1 13.14 13.14 0 0 1 3.84.54c1.15.35 2 .52 2 .38a11.73 11.73 0 0 0-2.38-1.44A22.74 22.74 0 0 1 68 36.33a14.35 14.35 0 0 1-2.35-2.8l-.15-.25-.37-.69c-.45-.88-1-2-1.28-2.73-.41-1-1-2.64-1.32-3.7A9.59 9.59 0 0 0 60.74 23a13.38 13.38 0 0 0-4.6-2.34c-.67-.21-1.36-.41-2-.59L53 19.71c.33 1 .81 2.36 1.16 3.2s1.15 2.52 1.65 3.43a13.91 13.91 0 0 0 2.5 3.05A22.74 22.74 0 0 0 62.15 32a11.73 11.73 0 0 1 2.38 1.44c.05.15-.84 0-2-.38a13.14 13.14 0 0 0-3.84-.54 8.32 8.32 0 0 0-3.18 1 5.88 5.88 0 0 1-2.85.76 6.56 6.56 0 0 1-2.85-1.12 14.22 14.22 0 0 0-2.73-1.52h-.11a6.61 6.61 0 0 1 .49.55 3.7 3.7 0 0 1 .5 1 3.8 3.8 0 0 1 .18.73 8.61 8.61 0 0 1-.2 2.4 3 3 0 0 0 .1 1.95 1.78 1.78 0 0 0 1.58.39c.64-.11 2.22-.28 3.51-.38a10.75 10.75 0 0 1 3.66.31A14.22 14.22 0 0 1 59.54 40a6.56 6.56 0 0 0 2.85 1.12 5.88 5.88 0 0 0 2.84-.72z" fill="url(#e)"/></svg>