<svg xmlns="http://www.w3.org/2000/svg" xmlns:xlink="http://www.w3.org/1999/xlink" width="200" height="200" viewBox="0 0 200 200"><defs><linearGradient id="a" x1="73.28" y1="147.63" x2="117.7" y2="47.88" gradientUnits="userSpaceOnUse"><stop offset="0" stop-color="#fdba56"/><stop offset="0.02" stop-color="#fbb055"/><stop offset="0.06" stop-color="#f79d54"/><stop offset="0.1" stop-color="#f59253"/><stop offset="0.15" stop-color="#f48e53"/><stop offset="0.3" stop-color="#ed5e4e"/><stop offset="0.47" stop-color="#683a96" stop-opacity="0.5"/><stop offset="0.64" stop-color="#ed872b"/><stop offset="0.79" stop-color="#7b76b6"/><stop offset="0.9" stop-color="#f15f4f"/><stop offset="1" stop-color="#fdba56"/></linearGradient><linearGradient id="b" x1="89.42" y1="41.53" x2="103.1" y2="10.8" xlink:href="#a"/><linearGradient id="c" x1="86.24" y1="61.89" x2="128.83" y2="157.55" gradientUnits="userSpaceOnUse"><stop offset="0" stop-color="#b7151b"/><stop offset="0.02" stop-color="#c52229"/><stop offset="0.06" stop-color="#d7333c"/><stop offset="0.11" stop-color="#e23d47"/><stop offset="0.15" stop-color="#e6404b"/><stop offset="0.3" stop-color="#e98a7b"/><stop offset="0.47" stop-color="#7c78b8"/><stop offset="0.64" stop-color="#00b0b0"/><stop offset="0.79" stop-color="#7b76b6"/><stop offset="1" stop-color="#e7322f"/></linearGradient><linearGradient id="d" x1="84.88" y1="25.46" x2="91.75" y2="40.88" xlink:href="#c"/><linearGradient id="e" x1="114.73" y1="18.53" x2="125.93" y2="43.69" xlink:href="#c"/></defs><title>_</title><path d="M113.54,49.6l0-.15a8.73,8.73,0,0,0-.78-2.48,7.12,7.12,0,0,0-2-2.12,10.82,10.82,0,0,0-3.22-1.19,25.55,25.55,0,0,0-4.14-.35,31.45,31.45,0,0,0-4.3.39c-1.29.22-4.4,0.52-6.93,0.67a89.79,89.79,0,0,1-9.16,0,15.61,15.61,0,0,0-4.63.22,2.05,2.05,0,0,0,0,1.35,30.18,30.18,0,0,1,.85,3.54A29.51,29.51,0,0,1,79.54,53,15,15,0,0,1,79,56.79a18.77,18.77,0,0,1-1.67,3.7,6.6,6.6,0,0,0-.86,2.92,7,7,0,0,0,1,2.93A18.72,18.72,0,0,1,79.35,70,14.35,14.35,0,0,1,80,73.82a15.53,15.53,0,0,1-.54,3.75,19.25,19.25,0,0,1-1.63,3.7,8.15,8.15,0,0,0-1,3,7.49,7.49,0,0,0,.66,3,8.68,8.68,0,0,1,.77,4,9.92,9.92,0,0,1-1.52,3.93,6.16,6.16,0,0,0-1,2.88,6.38,6.38,0,0,0,1.08,2.9,13.65,13.65,0,0,1,1.84,3.8,10.32,10.32,0,0,1,.11,3.91c-0.2,1-.61,2.59-0.93,3.58s-0.92,2.58-1.36,3.56a7.67,7.67,0,0,0-.55,3,8.66,8.66,0,0,0,1,3,15.27,15.27,0,0,1,1.53,3.76,12.46,12.46,0,0,1,.14,3.83,19.91,19.91,0,0,0-.15,3.27A20.58,20.58,0,0,0,79,136a31.31,31.31,0,0,1,.67,3.61,35.81,35.81,0,0,1,0,5.17,44.64,44.64,0,0,1-.56,4.7,1.23,1.23,0,0,0,.14.86,32.72,32.72,0,0,0,6.59.27l2.54-.06c1.24,0,2.4,0,3.39,0,1.24,0,2.21,0,2.74.05,1.27,0.08,5.57.76,9.59,1.52a30.07,30.07,0,0,0,7.72.72,15.06,15.06,0,0,0,.76-5.63,58.92,58.92,0,0,0-.4-7.26,21.25,21.25,0,0,0-1.06-3.28,10.54,10.54,0,0,1-.77-3.9,11,11,0,0,1,1-3.88,9.84,9.84,0,0,0,.88-3.07,9,9,0,0,0-.49-3,21.92,21.92,0,0,1-1-3.67,20,20,0,0,1-.18-3.68c0.06-1,.43-3.39.82-5.33a32.3,32.3,0,0,0,.65-5,15.85,15.85,0,0,0-.46-3.21A12.07,12.07,0,0,1,111.3,98a13.48,13.48,0,0,1,1.15-3.8,10.38,10.38,0,0,0,.88-3.1,30.41,30.41,0,0,0-1.43-6.57,41.43,41.43,0,0,1-1.68-7.2,18.42,18.42,0,0,1,.37-3.7c0.2-.91.56-3.25,0.78-5.1s0.44-4.95.48-6.84a49.22,49.22,0,0,1,.38-5.34,28.65,28.65,0,0,1,.91-3.62,9.41,9.41,0,0,0,.41-3S113.54,49.65,113.54,49.6Z" fill="url(#a)"/><path d="M102,29.28c0.66-.11,2.24-0.28,3.6-0.39a12.25,12.25,0,0,1,3.93.32l0.15,0a15.08,15.08,0,0,1,3,1.65,5.64,5.64,0,0,0,2.33.93,5,5,0,0,0,2.27-.62,9.34,9.34,0,0,1,3.63-1.1c0.23,0,.49,0,0.77,0a18.4,18.4,0,0,1-1.8-1.36,14.85,14.85,0,0,1-2.71-3.32c-0.51-.92-1.27-2.5-1.7-3.52-0.35-.84-0.84-2.19-1.19-3.28l-0.16-.52a8.64,8.64,0,0,0-1.55-2.8,12.9,12.9,0,0,0-4.17-2.07A45.71,45.71,0,0,0,103.73,12a13.72,13.72,0,0,0-2.58-.07,18.54,18.54,0,0,0-2.86.54,26,26,0,0,1-3.31.68,46,46,0,0,1-6.13-.11,50.12,50.12,0,0,0-5.77-.15,27.85,27.85,0,0,0-3.28.62A7.92,7.92,0,0,0,77.09,15,29.16,29.16,0,0,0,73.7,21.2a47.7,47.7,0,0,1-3.6,7A19.29,19.29,0,0,1,67.34,31a6.75,6.75,0,0,0-.57.49,20.5,20.5,0,0,0,2.6.24,51.78,51.78,0,0,1,5.74.47,19.91,19.91,0,0,1,3,.93,5.33,5.33,0,0,0,1.16.3,4.59,4.59,0,0,0,1.12.05,11.29,11.29,0,0,0,3.32-1.57c1.2-.79,2.74-1.76,3.25-2a3.25,3.25,0,0,0,.91-0.76,4.42,4.42,0,0,0,.54-1.27,14.17,14.17,0,0,1,.63-2A12.44,12.44,0,0,1,90,24a16.7,16.7,0,0,1,1.22-1.56,18.17,18.17,0,0,1,1.47-1.42,4.5,4.5,0,0,1,2.16-1,5.37,5.37,0,0,1,2.39.43,12.18,12.18,0,0,1,2,1.14,9.44,9.44,0,0,1,1.53,1.49,5.15,5.15,0,0,1,.88,2.26,9.42,9.42,0,0,1-.22,2.74,3.05,3.05,0,0,0-.05,1.08l0.25,0A1.34,1.34,0,0,0,102,29.28Z" fill="url(#b)"/><path d="M122.08,75.57c0.23-1.91.45-5,.49-6.93a48.14,48.14,0,0,1,.36-5.2,27.51,27.51,0,0,1,.87-3.47,10.32,10.32,0,0,0,.46-3.36,9.49,9.49,0,0,0-.95-3.16A8.09,8.09,0,0,0,121,51a11.65,11.65,0,0,0-3.59-1.33c-0.52-.09-1.21-0.18-1.91-0.24l-1-.08c0,0.12,0,.25.05,0.36A10.32,10.32,0,0,1,114.1,53a27.51,27.51,0,0,0-.87,3.47,48.14,48.14,0,0,0-.36,5.2c0,1.91-.26,5-0.49,6.93s-0.59,4.24-.8,5.2a17.56,17.56,0,0,0-.35,3.46,40.71,40.71,0,0,0,1.63,6.93,30.14,30.14,0,0,1,1.47,6.93,11.26,11.26,0,0,1-1,3.47,12.55,12.55,0,0,0-1,3.47,11.09,11.09,0,0,0,.28,3.46,16.75,16.75,0,0,1,.5,3.46,33.38,33.38,0,0,1-.66,5.2c-0.38,1.91-.74,4.25-0.8,5.2a19.1,19.1,0,0,0,.17,3.47,21.12,21.12,0,0,0,.93,3.47,9.92,9.92,0,0,1,.55,3.47,10.71,10.71,0,0,1-1,3.46,10,10,0,0,0-.94,3.46,9.55,9.55,0,0,0,.69,3.46,22.13,22.13,0,0,1,1.12,3.47,59.54,59.54,0,0,1,.42,7.46c0,3.15-.51,6.07-1.2,6.49s-4.5.15-8.47-.6-8.23-1.43-9.46-1.5c-0.94-.06-3.4-0.06-6,0v0.1c0,0.3,0,.6-0.07.9-0.14,1.53-.33,3.05-0.46,3.65a2,2,0,0,0,.55,1.92c0.47,0.34,3.7.53,7.17,0.43s7.34-.12,8.57,0,5.49,0.76,9.46,1.5,7.78,1,8.47.6,1.23-3.34,1.2-6.49a59.54,59.54,0,0,0-.42-7.46,22.13,22.13,0,0,0-1.12-3.47,9.55,9.55,0,0,1-.69-3.46,10,10,0,0,1,.94-3.46,10.71,10.71,0,0,0,1-3.46,9.92,9.92,0,0,0-.55-3.47,21.12,21.12,0,0,1-.93-3.47,19.1,19.1,0,0,1-.17-3.47c0.06-1,.42-3.29.8-5.2a33.38,33.38,0,0,0,.66-5.2,16.75,16.75,0,0,0-.5-3.46A11.09,11.09,0,0,1,122,105a12.55,12.55,0,0,1,1-3.47,11.26,11.26,0,0,0,1-3.47,30.14,30.14,0,0,0-1.47-6.93,40.71,40.71,0,0,1-1.63-6.93,17.56,17.56,0,0,1,.35-3.46C121.49,79.81,121.85,77.48,122.08,75.57Z" fill="url(#c)"/><path d="M100.56,29.88a3,3,0,0,1-.1-1.95,8.61,8.61,0,0,0,.2-2.4,4.16,4.16,0,0,0-.68-1.76,8.41,8.41,0,0,0-1.34-1.3,11.27,11.27,0,0,0-1.78-1A4.39,4.39,0,0,0,95,21.09a3.57,3.57,0,0,0-1.62.73A17.43,17.43,0,0,0,92,23.14a15.49,15.49,0,0,0-1.13,1.45A11.5,11.5,0,0,0,90,26.21,13.19,13.19,0,0,0,89.4,28a5.31,5.31,0,0,1-.71,1.65,4.19,4.19,0,0,1-1.27,1.07c-0.42.21-1.84,1.09-3.15,2a12,12,0,0,1-3.75,1.73,5.48,5.48,0,0,1-1.39-.06L79,34.56c-0.17.21-.38,0.45-0.61,0.7a18.55,18.55,0,0,1-2,1.86,4.24,4.24,0,0,0-1.5,1.75c0,0.34,1.82.69,4.11,0.77a51,51,0,0,1,5.57.45,19,19,0,0,1,2.83.88,6.61,6.61,0,0,0,2.79.42A12,12,0,0,0,94,39.65c1.31-.86,2.72-1.74,3.15-2a4.19,4.19,0,0,0,1.27-1.07A5.31,5.31,0,0,0,99.12,35a13.19,13.19,0,0,1,.58-1.83,11.5,11.5,0,0,1,.87-1.62l0.27-.38c0.22-.29.47-0.61,0.69-0.87A1.4,1.4,0,0,1,100.56,29.88Z" fill="url(#d)"/><path d="M127.44,39a8.32,8.32,0,0,1,3.18-1,13.14,13.14,0,0,1,3.84.54c1.15,0.35,2,.52,2,0.38a11.73,11.73,0,0,0-2.38-1.44A22.74,22.74,0,0,1,130.19,35a14.35,14.35,0,0,1-2.35-2.8l-0.15-.25-0.37-.69c-0.45-.88-1-2-1.28-2.73-0.41-1-1-2.64-1.32-3.7a9.59,9.59,0,0,0-1.78-3.2,13.38,13.38,0,0,0-4.6-2.34c-0.67-.21-1.36-0.41-2-0.59l-1.16-.31c0.33,1,.81,2.36,1.16,3.2S117.48,24.05,118,25a13.91,13.91,0,0,0,2.5,3.05,22.74,22.74,0,0,0,3.87,2.58A11.73,11.73,0,0,1,126.73,32c0.05,0.15-.84,0-2-0.38a13.14,13.14,0,0,0-3.84-.54,8.32,8.32,0,0,0-3.18,1,5.88,5.88,0,0,1-2.85.76A6.56,6.56,0,0,1,112,31.72a14.22,14.22,0,0,0-2.73-1.52l-0.11,0a6.61,6.61,0,0,1,.49.55,3.7,3.7,0,0,1,.5,1,3.8,3.8,0,0,1,.18.73,8.61,8.61,0,0,1-.2,2.4,3,3,0,0,0,.1,1.95,1.78,1.78,0,0,0,1.58.39c0.64-.11,2.22-0.28,3.51-0.38a10.75,10.75,0,0,1,3.66.31,14.22,14.22,0,0,1,2.73,1.52,6.56,6.56,0,0,0,2.85,1.12A5.88,5.88,0,0,0,127.44,39Z" fill="url(#e)"/></svg>