<svg xmlns="http://www.w3.org/2000/svg" xmlns:xlink="http://www.w3.org/1999/xlink" width="200" height="200" viewBox="0 0 200 200"><defs><linearGradient id="a" x1="62.31" y1="159.82" x2="113.3" y2="45.3" gradientUnits="userSpaceOnUse"><stop offset="0" stop-color="#fdba56"/><stop offset="0.02" stop-color="#fbb055"/><stop offset="0.06" stop-color="#f79d54"/><stop offset="0.1" stop-color="#f59253"/><stop offset="0.15" stop-color="#f48e53"/><stop offset="0.3" stop-color="#ed5e4e"/><stop offset="0.47" stop-color="#683a96" stop-opacity="0.5"/><stop offset="0.64" stop-color="#ed872b"/><stop offset="0.79" stop-color="#7b76b6"/><stop offset="0.9" stop-color="#f15f4f"/><stop offset="1" stop-color="#fdba56"/></linearGradient><linearGradient id="b" x1="87.19" y1="80.41" x2="122.59" y2="159.92" gradientUnits="userSpaceOnUse"><stop offset="0" stop-color="#b7151b"/><stop offset="0.02" stop-color="#c52229"/><stop offset="0.06" stop-color="#d7333c"/><stop offset="0.11" stop-color="#e23d47"/><stop offset="0.15" stop-color="#e6404b"/><stop offset="0.3" stop-color="#e98a7b"/><stop offset="0.47" stop-color="#7c78b8"/><stop offset="0.64" stop-color="#00b0b0"/><stop offset="0.79" stop-color="#7b76b6"/><stop offset="1" stop-color="#e7322f"/></linearGradient></defs><title>_</title><path d="M136.6,58.41A9.81,9.81,0,0,0,135,56a27.51,27.51,0,0,0-5.63-3.08c-2.67-1.17-6.23-2.88-7.92-3.81a28.57,28.57,0,0,0-4.6-2.07,110.31,110.31,0,0,0-11.54-.75h-0.14c-4.91-.15-10.8-0.54-12-1A15.09,15.09,0,0,1,89.6,43.4a9.07,9.07,0,0,0-2.67-1.33,6.21,6.21,0,0,0-2.54.05,17.83,17.83,0,0,1-3.26.53,17.27,17.27,0,0,1-3.27-.21C77.07,42.31,75,42.12,73.42,42s-3.64-.11-4.43,0-2.15.23-3,.37-2.83.65-4.45,1.13a40,40,0,0,1-4.72,1.12,43,43,0,0,1-6.14-.18,10.24,10.24,0,0,0-4.15.3,7.21,7.21,0,0,0-.33,2.69c0.07,1.29.09,3.39,0,4.68s-0.24,3.42-.41,4.73-0.34,3.31-.38,4.57,0,3.31.09,4.57,0.12,3.46.05,4.75-0.29,3.4-.5,4.68-0.55,2.92-.75,3.69a7.68,7.68,0,0,1-.86,2.13,5,5,0,0,1-1,1,6.58,6.58,0,0,1-1.34.65A2.64,2.64,0,0,1,39,82.54a6.15,6.15,0,0,1-1.56-1.72l-0.15-.23c-0.1.58-.24,1.45-0.36,2.48A89.68,89.68,0,0,0,37,93.41c0.22,4.2.33,8.5,0.24,9.58s-0.32,2.79-.51,3.84a14.1,14.1,0,0,0-.24,2.66,1.53,1.53,0,0,0,.13.51,1.73,1.73,0,0,0,.44.06,2.76,2.76,0,0,0,.8-0.25,3.75,3.75,0,0,1,1.79-.37,4.17,4.17,0,0,1,1.72.64,2.27,2.27,0,0,0,.8.31,2.07,2.07,0,0,0,.81-0.17,1.43,1.43,0,0,1,1.25,0,2.2,2.2,0,0,1,1.09,1.55c0.22,1,0,7.38-.26,11.45L44.37,135.7c-0.3,5.38-.46,11.2-0.35,12.71A8.48,8.48,0,0,0,45,152a2.17,2.17,0,0,0,1.81.57,20.26,20.26,0,0,1,3.18-.27h0.46a15.8,15.8,0,0,1,2.46.35c0.34,0.07.66,0.15,0.92,0.24a25.86,25.86,0,0,0,2.85.68,23.84,23.84,0,0,0,2.84.26c0.85,0,2.87.19,4.58,0.4a14,14,0,0,0,4.08,0,10.65,10.65,0,0,0,2.67-1.36A16.92,16.92,0,0,1,74.05,151a25.27,25.27,0,0,1,6.33-.62,25.47,25.47,0,0,1,6.32.66,17.44,17.44,0,0,1,3.2,1.75,7.5,7.5,0,0,0,2.8,1.1,31.94,31.94,0,0,0,7.38-1.52c3.35-1,7-1.92,8.19-2.09a38.34,38.34,0,0,1,4.25-.3,27.14,27.14,0,0,0,3.79-.33,50.66,50.66,0,0,0,6.66-2.34,81.52,81.52,0,0,0,8-3.83,31.35,31.35,0,0,0,4.3-2.95,23.87,23.87,0,0,0,2.32-2.62,20.15,20.15,0,0,0,1.76-3,20.79,20.79,0,0,0,1.11-3.36,33.34,33.34,0,0,1,1.08-3.7,29.5,29.5,0,0,1,1.55-3.37c0.49-.87,1.37-2.26,2-3.09s1.62-2.15,2.32-2.94a7,7,0,0,0,1.33-2.56,7.42,7.42,0,0,0-.21-3,10.27,10.27,0,0,1-.31-4,10.48,10.48,0,0,1,1.58-3.71,14,14,0,0,0,1.55-3,11.35,11.35,0,0,0,.49-3.05c0-.92-0.2-3.46-0.41-5.55s-0.6-4.74-.85-5.77h0a95.7,95.7,0,0,0-3.59-9c-1.57-3.57-3.39-7.88-3.71-8.91a14.42,14.42,0,0,0-3-5.28,23.83,23.83,0,0,1-2.07-2.85,27.35,27.35,0,0,1-1.62-3.3Z" fill="url(#a)"/><path d="M161.27,94.61a96.24,96.24,0,0,0-3.65-9.21c-1.75-4-3.4-7.94-3.67-8.81A15.4,15.4,0,0,0,150.8,71a22.62,22.62,0,0,1-2-2.7,26.24,26.24,0,0,1-1.55-3.15,10.68,10.68,0,0,0-1.82-2.89,27.33,27.33,0,0,0-5.95-3.3l-0.65-.29L137.51,58l0.07,0.15a26.24,26.24,0,0,0,1.55,3.15,22.62,22.62,0,0,0,2,2.7,15.4,15.4,0,0,1,3.16,5.64c0.27,0.87,1.92,4.83,3.67,8.81a96.24,96.24,0,0,1,3.65,9.21,59.11,59.11,0,0,1,.87,5.91c0.22,2.16.4,4.7,0.41,5.65a12.4,12.4,0,0,1-.54,3.38,15,15,0,0,1-1.69,3.24,9.49,9.49,0,0,0-1.41,3.29,9.26,9.26,0,0,0,.28,3.54,8.37,8.37,0,0,1,.23,3.45,7.91,7.91,0,0,1-1.55,3c-0.67.77-1.69,2.06-2.26,2.87s-1.42,2.16-1.89,3a28.14,28.14,0,0,0-1.49,3.23,32,32,0,0,0-1,3.56,21.81,21.81,0,0,1-1.17,3.55,21.16,21.16,0,0,1-1.87,3.19A24.55,24.55,0,0,1,136,141.3a32.2,32.2,0,0,1-4.48,3.08,83,83,0,0,1-8.14,3.9,51.33,51.33,0,0,1-6.87,2.4,27.83,27.83,0,0,1-4,.35,37.45,37.45,0,0,0-4.11.29c-1.12.15-4.74,1.08-8,2.06s-6.81,1.68-7.79,1.56a8.47,8.47,0,0,1-3.26-1.27,16.47,16.47,0,0,0-3-1.63,25,25,0,0,0-6-.6,24,24,0,0,0-6,.55,16,16,0,0,0-3,1.66,11.55,11.55,0,0,1-3,1.51,14.8,14.8,0,0,1-4.48.06c-1.64-.2-3.66-0.38-4.48-0.39a24.69,24.69,0,0,1-3-.27,26.58,26.58,0,0,1-3-.72c-0.24-.07-0.53-0.15-0.84-0.21,0,0.39,0,.73,0,1s0,0.59,0,.78a9.22,9.22,0,0,0,1.19,4.11,3.14,3.14,0,0,0,2.77.94,18.6,18.6,0,0,1,3.42-.25,14.76,14.76,0,0,1,3.13.54,26.58,26.58,0,0,0,3,.72,24.69,24.69,0,0,0,3,.27c0.82,0,2.83.19,4.48,0.39a14.8,14.8,0,0,0,4.48-.06,11.55,11.55,0,0,0,3-1.51,16,16,0,0,1,3-1.66,24,24,0,0,1,6-.55,25,25,0,0,1,6,.6,16.47,16.47,0,0,1,3,1.63,8.47,8.47,0,0,0,3.26,1.27c1,0.12,4.47-.58,7.79-1.56s6.93-1.9,8-2.06a37.45,37.45,0,0,1,4.11-.29,27.83,27.83,0,0,0,4-.35,51.33,51.33,0,0,0,6.87-2.4,83,83,0,0,0,8.14-3.9,32.2,32.2,0,0,0,4.48-3.08,24.55,24.55,0,0,0,2.44-2.75A21.16,21.16,0,0,0,150,142.3a21.81,21.81,0,0,0,1.17-3.55,32,32,0,0,1,1-3.56,28.14,28.14,0,0,1,1.49-3.23c0.47-.84,1.32-2.19,1.89-3s1.59-2.1,2.26-2.87a7.91,7.91,0,0,0,1.55-3,8.37,8.37,0,0,0-.23-3.45,9.26,9.26,0,0,1-.28-3.54,9.49,9.49,0,0,1,1.41-3.29,15,15,0,0,0,1.69-3.24,12.4,12.4,0,0,0,.54-3.38c0-.95-0.19-3.49-0.41-5.65A59.11,59.11,0,0,0,161.27,94.61Z" fill="url(#b)"/></svg>