<svg xmlns="http://www.w3.org/2000/svg" xmlns:xlink="http://www.w3.org/1999/xlink" width="118.01" height="200" viewBox="0 0 118.01 200"><defs><linearGradient id="a" x1="45.93" y1="41.48" x2="61.99" y2="5.42" gradientUnits="userSpaceOnUse"><stop offset="0" stop-color="#fdba56"/><stop offset=".02" stop-color="#fbb055"/><stop offset=".06" stop-color="#f79d54"/><stop offset=".1" stop-color="#f59253"/><stop offset=".15" stop-color="#f48e53"/><stop offset=".3" stop-color="#ed5e4e"/><stop offset=".47" stop-color="#683a96" stop-opacity=".5"/><stop offset=".64" stop-color="#ed872b"/><stop offset=".79" stop-color="#7b76b6"/><stop offset=".9" stop-color="#f15f4f"/><stop offset="1" stop-color="#fdba56"/></linearGradient><linearGradient id="c" x1="24.43" y1="163.98" x2="81.98" y2="34.72" xlink:href="#a"/><linearGradient id="b" x1="58.83" y1="20.38" x2="69.2" y2="43.66" gradientUnits="userSpaceOnUse"><stop offset="0" stop-color="#b7151b"/><stop offset=".02" stop-color="#c52229"/><stop offset=".06" stop-color="#d7333c"/><stop offset=".11" stop-color="#e23d47"/><stop offset=".15" stop-color="#e6404b"/><stop offset=".3" stop-color="#e98a7b"/><stop offset=".47" stop-color="#7c78b8"/><stop offset=".64" stop-color="#00b0b0"/><stop offset=".79" stop-color="#7b76b6"/><stop offset="1" stop-color="#e7322f"/></linearGradient><linearGradient id="d" x1="15.16" y1="106.74" x2="39.68" y2="161.81" xlink:href="#b"/><linearGradient id="e" x1="45.2" y1="50.41" x2="67.69" y2="100.93" xlink:href="#b"/><linearGradient id="f" x1="79.31" y1="61.46" x2="122.74" y2="159" xlink:href="#b"/></defs><title>_</title><path d="M82.14 14.7a1.4 1.4 0 0 0-.23-.42 3 3 0 0 0-.65 0 6.14 6.14 0 0 0-1.12.42 2.87 2.87 0 0 1-2.38 0 6.18 6.18 0 0 1-1.9-1.82 3.91 3.91 0 0 0-1.12-1.09 1.11 1.11 0 0 0-.7.07 1.93 1.93 0 0 0-.65.68 2.56 2.56 0 0 0 0 1.11A3.13 3.13 0 0 1 73 16a3.19 3.19 0 0 1-2.13 1 3.3 3.3 0 0 0-1.32.49 4.89 4.89 0 0 0-1.05 1.41 2.51 2.51 0 0 1-2.33 1.5 4.34 4.34 0 0 1-2.33-1.8 5 5 0 0 0-1.68-1.44A4.64 4.64 0 0 0 60 17a8.55 8.55 0 0 1-3.15 0 6.77 6.77 0 0 1-2.61-1.43 4.63 4.63 0 0 0-1.63-.93 5 5 0 0 0-2 .05 7.76 7.76 0 0 1-3 .07 9.1 9.1 0 0 1-2.86-1.3 6.78 6.78 0 0 0-2.47-.92 13.48 13.48 0 0 0-3.52.17A14.49 14.49 0 0 0 35.23 14a13 13 0 0 0-2.83 2.32c-.71.82-2.37 3-3.63 4.85a28.48 28.48 0 0 0-2.88 5.07 20.66 20.66 0 0 0-.81 3.76 11.38 11.38 0 0 0 0 2 3.38 3.38 0 0 1 1.54-.39 2.26 2.26 0 0 1 .71.11 4.89 4.89 0 0 1 2.07 1.78 4.43 4.43 0 0 0 1 1.06 6.52 6.52 0 0 0 2.14-.78c.39-.21.85-.44 1.32-.67 1.08-.52 2.18-1 2.89-1.25a6.83 6.83 0 0 0 1.91-1 1.8 1.8 0 0 0 .19-.85 2.67 2.67 0 0 1 .71-2.12 2.79 2.79 0 0 1 2.21-.4 16.49 16.49 0 0 0 2.12.21c.71 0 2.09 0 3-.06a10.2 10.2 0 0 1 3.37.39 5.42 5.42 0 0 1 2.36 1.77 5.72 5.72 0 0 0 1.22 1.24 4.33 4.33 0 0 0 1.43.54 6.41 6.41 0 0 0 1.73-.02 9.23 9.23 0 0 0 1.89-.69 5.7 5.7 0 0 1 2.62-.61 5 5 0 0 1 2.43 1 3.67 3.67 0 0 0 1.72.53 11.93 11.93 0 0 0 3.07-.51 32.67 32.67 0 0 0 3.56-1.37 26.55 26.55 0 0 0 3.07-1.76 28.18 28.18 0 0 0 2.72-2.21 32.21 32.21 0 0 0 2.47-2.71 11.39 11.39 0 0 0 1.59-2.9 10.09 10.09 0 0 0 .37-2.5v-.61a13.11 13.11 0 0 0-.37-2.52z" fill="url(#a)"/><path d="M38.9 52.19A25.72 25.72 0 0 1 36.55 50a21 21 0 0 1-1.86-2.39 3.29 3.29 0 0 0-1.58-1.11 8.23 8.23 0 0 0-3 .09 24.59 24.59 0 0 1-4.36.44 25 25 0 0 1-4.43-.54 27.19 27.19 0 0 0-4.06-.49 26.7 26.7 0 0 0-4.07.21 22.22 22.22 0 0 1-4.64.09 28.4 28.4 0 0 1-4.86-1.1A5.13 5.13 0 0 0 .92 45a2.5 2.5 0 0 0-.57 1.79 30.8 30.8 0 0 0 .43 3.81 26 26 0 0 0 1 3.47 18.42 18.42 0 0 1 .91 3.7 17 17 0 0 1-.06 3.72c-.14.93-.29 2.44-.33 3.37s.1 4.42.39 8.54c.24 3.45.41 7.69.3 8.83a27.36 27.36 0 0 1-.68 3.63A30.59 30.59 0 0 1 1 89.47a16.38 16.38 0 0 0-1 3.23 34.16 34.16 0 0 0 .51 6.61 79.44 79.44 0 0 0 1.79 8.53c.57 1.94 1.19 4.32 1.37 5.3a29.7 29.7 0 0 1 .39 3.61 23 23 0 0 1-.23 3.66 24.94 24.94 0 0 1-.94 3.64 24 24 0 0 0-.86 3.3 57 57 0 0 0-.19 6.75c0 2.8.17 5.93.27 6.84s.33 2.44.52 3.38a15.12 15.12 0 0 1 .15 3.93 20.78 20.78 0 0 1-1 4.18 3.29 3.29 0 0 0-.23 1.33 6.75 6.75 0 0 0 2.23-.56 13.65 13.65 0 0 1 5.19-1 11.45 11.45 0 0 1 3 .69 11.42 11.42 0 0 1 2 .9 13.71 13.71 0 0 0 4 1.53 21.18 21.18 0 0 0 6-.66c2.38-.57 5.22-1.13 6.34-1.24a3.65 3.65 0 0 0 2.07-.89 3.88 3.88 0 0 0 .29-2.31c-.19-1.13-.42-3-.49-4.18s-.18-3.11-.18-4.34a23.49 23.49 0 0 1 .71-4.63 27.94 27.94 0 0 1 1.85-4.59 20.67 20.67 0 0 0 1.56-4.15 23.89 23.89 0 0 0 0-6c-.24-2.23-.89-6.14-1.44-8.72-.5-2.36-1.06-5.42-1.12-6.45s0-3.35.06-5.47c.18-4.41.26-4.44.88-4.72l.41-.18.45.21a1.87 1.87 0 0 1 .9 1.38 3.2 3.2 0 0 0 .88 1.09 13 13 0 0 0 2.4 1.33 13.63 13.63 0 0 1 3.12 1.89 10.47 10.47 0 0 1 2.1 2.67 11.71 11.71 0 0 1 .61 1.51 13.19 13.19 0 0 1 .46 1.71 18.9 18.9 0 0 1 .22 3.69 8.67 8.67 0 0 0 .4 2.88 18.24 18.24 0 0 0 4 4c1.93 1.54 4.16 3.63 4.67 4.64a10.27 10.27 0 0 1 .88 3.51 7.09 7.09 0 0 0 .71 2.6 6.44 6.44 0 0 0 1.83 1.82 23.3 23.3 0 0 1 2.72 2 81.67 81.67 0 0 1 5.69 7.28c2.19 3 4.73 6.63 5.2 7.46a28.19 28.19 0 0 1 1.3 2.72 3.53 3.53 0 0 0 1.35 1.47 7.9 7.9 0 0 0 2.88.55 17.12 17.12 0 0 0 2-.11c1.33-.11 2.83-.27 4.12-.44a36.43 36.43 0 0 1 4.51-.3 13.3 13.3 0 0 1 2.14.13 18.36 18.36 0 0 1 4.55 1.63 15.05 15.05 0 0 0 4 1.35 13.55 13.55 0 0 0 4-.15 4.92 4.92 0 0 0 2.41-1.24 3 3 0 0 0 .08-2.12 14 14 0 0 1-.6-4 13.3 13.3 0 0 1 .8-3.86 9.13 9.13 0 0 0 .54-3.05 9.7 9.7 0 0 0-.83-3.07 8.52 8.52 0 0 1-.75-4 9.89 9.89 0 0 1 1.59-3.93 8.35 8.35 0 0 0 1.27-3 6.64 6.64 0 0 0-.49-2.93 13.66 13.66 0 0 1-1-3.79 12.54 12.54 0 0 1 .38-3.83 11.57 11.57 0 0 0 .36-3.14 12.34 12.34 0 0 0-.72-3.15 11.63 11.63 0 0 1-.73-3.85 11.8 11.8 0 0 1 .88-3.84 27.12 27.12 0 0 0 1.16-3.31 23.53 23.53 0 0 0 .56-3.3c.07-.91.11-2.44.07-3.35s-.18-2.45-.32-3.35a34.77 34.77 0 0 1-.33-3.59 34.26 34.26 0 0 1 .13-3.59c.09-.91.15-2.44.13-3.34s-.14-2.44-.27-3.34-.43-2.45-.66-3.36-.7-2.45-1-3.37a9.48 9.48 0 0 1-.42-4 11.34 11.34 0 0 1 1.55-3.87 10.92 10.92 0 0 0 1.21-3.06 24.68 24.68 0 0 0-.77-6.29c-.16-.71-.36-1.46-.6-2.24a12.6 12.6 0 0 0-1.44-3.49 10.75 10.75 0 0 0-2.9-1.87 13.5 13.5 0 0 0-3.83-.88 13.93 13.93 0 0 0-3.95.55 24 24 0 0 1-4.58.89 22.55 22.55 0 0 1-4.59-.22 23.6 23.6 0 0 0-4.07-.27 22 22 0 0 0-3.91.61 8 8 0 0 0-2.9 1.6A8.33 8.33 0 0 0 72.87 49a27.41 27.41 0 0 0-.78 4 28.63 28.63 0 0 0 0 4.16 38.59 38.59 0 0 0 .63 4.27 41.85 41.85 0 0 0 1.24 4.29 18.28 18.28 0 0 1 .92 4.71 17.79 17.79 0 0 1-.61 4.73 26 26 0 0 0-.78 3.91 14.43 14.43 0 0 0 .09 3.19c.16.9.35 2.36.42 3.25s.12 2.35.1 3.26-.2 3.08-.4 4.86a33.07 33.07 0 0 0-.23 4.09v.33c.13 1.18-.36 1.6-.79 1.74a1.32 1.32 0 0 1-1.6-.83 9.14 9.14 0 0 0-1.69-1.89c-.65-.53-2.42-1.81-3.86-2.79a25.86 25.86 0 0 1-3.89-3.16 35.43 35.43 0 0 1-3.1-5.49C57.43 83.34 56.29 80.8 56 80a30 30 0 0 1-.91-3.16A5.92 5.92 0 0 0 54 74.58 7.83 7.83 0 0 0 51.56 73a14.42 14.42 0 0 1-3.23-1.81 10.63 10.63 0 0 1-2.23-2.59 13 13 0 0 1-1.18-3.19 17.61 17.61 0 0 1-.26-3.69 11.59 11.59 0 0 0-.31-3 8.13 8.13 0 0 0-1.21-2.34c-.5-.61-1.41-1.61-2-2.18-.3-.29-.7-.67-1.12-1s-.8-.75-1.12-1.01z" fill="url(#c)"/><path d="M83.56 17.85a11 11 0 0 1-.42 2.78 12.39 12.39 0 0 1-1.76 3.21 32.51 32.51 0 0 1-2.57 2.82A28.68 28.68 0 0 1 76 29a27.45 27.45 0 0 1-3.21 1.84 33.44 33.44 0 0 1-3.7 1.42 12.86 12.86 0 0 1-3.39.56 4.6 4.6 0 0 1-2.35-.82 4 4 0 0 0-1.87-.77 4.78 4.78 0 0 0-2.09.5 10 10 0 0 1-2.15.78 7.41 7.41 0 0 1-2.07.07 5.33 5.33 0 0 1-1.85-.69 6.66 6.66 0 0 1-1.49-1.51A4.44 4.44 0 0 0 50 29a9.25 9.25 0 0 0-3-.33c-1 .05-2.37.08-3.11.06a17.29 17.29 0 0 1-2.28-.23 1.91 1.91 0 0 0-1.36.18 1.77 1.77 0 0 0-.39 1.32 2.64 2.64 0 0 1-.41 1.55 6.63 6.63 0 0 1-2.35 1.29c-.71.25-1.79.72-2.79 1.21-.1.4-.19.83-.27 1.25-.11.58-.2 1.14-.24 1.6a8.6 8.6 0 0 0 .12 2.9.73.73 0 0 0 1.16.18 2.11 2.11 0 0 1 1.64-.32A4 4 0 0 1 38.27 41a4.73 4.73 0 0 0 1.52 1.46 5.18 5.18 0 0 0 3-.86 34.74 34.74 0 0 1 4.07-1.86 6.63 6.63 0 0 0 2.35-1.29 2.64 2.64 0 0 0 .41-1.55 1.77 1.77 0 0 1 .36-1.29 1.91 1.91 0 0 1 1.36-.18 17.29 17.29 0 0 0 2.28.23c.74 0 2.14 0 3.11-.06a9.25 9.25 0 0 1 3 .33 4.44 4.44 0 0 1 1.87 1.39 6.66 6.66 0 0 0 1.4 1.54 5.33 5.33 0 0 0 1.85.69 7.41 7.41 0 0 0 2.07-.07 10 10 0 0 0 2.15-.78 4.78 4.78 0 0 1 2.09-.5 4 4 0 0 1 1.87.77 4.6 4.6 0 0 0 2.31.75 12.86 12.86 0 0 0 3.39-.56 33.44 33.44 0 0 0 3.7-1.42 27.45 27.45 0 0 0 3.21-1.84 28.68 28.68 0 0 0 2.84-2.31 32.51 32.51 0 0 0 2.57-2.82 12.39 12.39 0 0 0 1.76-3.21 11 11 0 0 0 .41-3.49 13.92 13.92 0 0 0-.46-2.77 1.66 1.66 0 0 0-.87-1.06 3.59 3.59 0 0 0-1.17 0 7 7 0 0 0-1.37.5 1.88 1.88 0 0 1-1.49 0 5.31 5.31 0 0 1-1.52-1.49 4.67 4.67 0 0 0-1.56-1.44 1.28 1.28 0 0 0-.27-.08 2.21 2.21 0 0 0-.95.12z" fill="url(#b)"/><path d="M44.35 108.73c0-.53 0-1 .07-1.5a10.85 10.85 0 0 0-.55-1.37 9.48 9.48 0 0 0-1.87-2.38 12.74 12.74 0 0 0-2.85-1.73 13.77 13.77 0 0 1-2.63-1.46 4 4 0 0 1-1.22-1.59 1.36 1.36 0 0 0-.38-.77 30.55 30.55 0 0 0-.28 3.85c-.08 2.08-.11 4.5-.06 5.37s.55 3.7 1.1 6.3 1.21 6.56 1.46 8.82a24.88 24.88 0 0 1 0 6.3 21.52 21.52 0 0 1-1.65 4.4 26.85 26.85 0 0 0-1.77 4.39 22.26 22.26 0 0 0-.68 4.39c0 1.21 0 3.13.07 4.28s.29 3 .48 4.07a4.7 4.7 0 0 1-.47 3.07 4.48 4.48 0 0 1-2.77 1.29c-1.08.11-3.87.66-6.21 1.22a21.71 21.71 0 0 1-6.42.67 14.7 14.7 0 0 1-4.35-1.66 10.45 10.45 0 0 0-1.79-.82v1.21a20 20 0 0 1-1 3.95c-.42 1.13-.39 2.28.06 2.56s1.93 0 3.26-.52a12.59 12.59 0 0 1 4.74-.89 11.76 11.76 0 0 1 4.36 1.45 14.7 14.7 0 0 0 4.35 1.66 21.71 21.71 0 0 0 6.42-.67c2.33-.56 5.13-1.11 6.21-1.22a4.48 4.48 0 0 0 2.77-1.29 4.7 4.7 0 0 0 .47-3.07c-.19-1.09-.4-2.92-.48-4.07s-.11-3.08-.07-4.28a22.26 22.26 0 0 1 .68-4.39 26.85 26.85 0 0 1 1.77-4.39 21.52 21.52 0 0 0 1.65-4.4 24.88 24.88 0 0 0 0-6.3c-.25-2.25-.9-6.22-1.46-8.82-.36-1.69-.69-3.46-.9-4.75-.11-.69-.18-1.25-.2-1.55.03-.87.06-3.28.14-5.36z" fill="url(#d)"/><path d="M40.7 52.41c.43.38.85.77 1.16 1.07.6.6 1.53 1.61 2.05 2.26a9 9 0 0 1 1.39 2.69 12.61 12.61 0 0 1 .35 3.37 16.67 16.67 0 0 0 .24 3.44 12 12 0 0 0 1.11 2.9 9.65 9.65 0 0 0 2 2.3 13.46 13.46 0 0 0 3 1.66 8.75 8.75 0 0 1 2.77 1.79 6.83 6.83 0 0 1 1.38 2.7 28.7 28.7 0 0 0 .87 3c.29.8 1.41 3.31 2.49 5.57a34.74 34.74 0 0 0 3 5.27 24.88 24.88 0 0 0 3.7 3c1.49 1 3.26 2.29 3.94 2.85a10.07 10.07 0 0 1 1.92 2.16c.38.63.62.5.53-.3v-.4c0-.16-.26-.25-.35-.35A11.38 11.38 0 0 1 71.16 96c-.61-1-1.36-2.46-2-3.84-1.08-2.27-2.2-4.77-2.49-5.57a28.7 28.7 0 0 1-.87-3 6.83 6.83 0 0 0-1.38-2.7 8.75 8.75 0 0 0-2.77-1.79 13.46 13.46 0 0 1-3-1.66 9.65 9.65 0 0 1-2-2.3 12 12 0 0 1-1.07-2.9 16.67 16.67 0 0 1-.24-3.44 12.61 12.61 0 0 0-.34-3.42 9 9 0 0 0-1.39-2.69c-.51-.69-1.44-1.69-2.04-2.26s-1.65-1.53-2.34-2.07A24.63 24.63 0 0 1 47 56.28 20.27 20.27 0 0 1 45.24 54a4.24 4.24 0 0 0-2.16-1.54 4.8 4.8 0 0 0-.93-.11 10.58 10.58 0 0 0-1.45.06z" fill="url(#e)"/><path d="M107.63 48.85c.23.74.44 1.53.61 2.31a24.75 24.75 0 0 1 .78 6.71 11.77 11.77 0 0 1-1.48 3.47 10.38 10.38 0 0 0-1.39 3.47 8.47 8.47 0 0 0 .38 3.47c.35 1 .83 2.51 1.07 3.47s.55 2.51.68 3.46.26 2.51.28 3.46 0 2.51-.14 3.46a33 33 0 0 0-.13 3.47 33.45 33.45 0 0 0 .32 3.47c.15 1 .3 2.51.33 3.47s0 2.51-.08 3.47a24.53 24.53 0 0 1-.59 3.47 27.91 27.91 0 0 1-1.21 3.46 10.86 10.86 0 0 0-.79 3.46 10.64 10.64 0 0 0 .66 3.46 13.31 13.31 0 0 1 .79 3.47 12.6 12.6 0 0 1-.39 3.47 11.6 11.6 0 0 0-.34 3.47 12.69 12.69 0 0 0 .94 3.47 7.62 7.62 0 0 1 .57 3.47 9.24 9.24 0 0 1-1.44 3.46 8.92 8.92 0 0 0-1.42 3.46 7.5 7.5 0 0 0 .66 3.46 10.59 10.59 0 0 1 .93 3.47 10 10 0 0 1-.61 3.47 12.32 12.32 0 0 0-.73 3.52 13 13 0 0 0 .55 3.62 3.91 3.91 0 0 1-.21 3 5.73 5.73 0 0 1-3 1.65 14.48 14.48 0 0 1-4.38.17 16.05 16.05 0 0 1-4.3-1.45 17.55 17.55 0 0 0-4.25-1.51 27.37 27.37 0 0 0-6.35.17c-1.37.18-2.9.34-4.17.44l.65.86c.27.4.46.71.55.86a27 27 0 0 1 1.24 2.6 4.47 4.47 0 0 0 1.82 2 8.85 8.85 0 0 0 3.35.66c1.13 0 4-.25 6.27-.56a27.37 27.37 0 0 1 6.35-.17 17.55 17.55 0 0 1 4.25 1.51 16.05 16.05 0 0 0 4.3 1.45 14.48 14.48 0 0 0 4.38-.17 5.73 5.73 0 0 0 3-1.65 3.91 3.91 0 0 0 .21-3 13 13 0 0 1-.55-3.62 12.32 12.32 0 0 1 .73-3.52A10 10 0 0 0 117 148a10.59 10.59 0 0 0-.93-3.47 7.5 7.5 0 0 1-.66-3.46 8.92 8.92 0 0 1 1.42-3.46 9.24 9.24 0 0 0 1.44-3.46 7.62 7.62 0 0 0-.57-3.47 12.69 12.69 0 0 1-.94-3.47 11.6 11.6 0 0 1 .34-3.47 12.6 12.6 0 0 0 .39-3.47 13.31 13.31 0 0 0-.79-3.47 10.64 10.64 0 0 1-.66-3.46 10.86 10.86 0 0 1 .79-3.46 27.91 27.91 0 0 0 1.17-3.48 24.53 24.53 0 0 0 .59-3.47c.08-1 .11-2.51.08-3.47s-.2-2.46-.34-3.46a33.45 33.45 0 0 1-.32-3.47 33 33 0 0 1 .13-3.47c.09-1 .16-2.51.14-3.46s-.15-2.51-.28-3.46-.44-2.51-.68-3.46-.72-2.51-1.07-3.47a8.47 8.47 0 0 1-.38-3.47 10.38 10.38 0 0 1 1.39-3.47 11.77 11.77 0 0 0 1.48-3.47 24.75 24.75 0 0 0-.78-6.71c-.61-2.73-1.64-5.52-2.29-6.2a11.54 11.54 0 0 0-3.23-2.1 14.87 14.87 0 0 0-3.76-.93h-1.05z" fill="url(#f)"/></svg>