<svg xmlns="http://www.w3.org/2000/svg" xmlns:xlink="http://www.w3.org/1999/xlink" width="124.25" height="200" viewBox="0 0 124.25 200"><defs><linearGradient id="a" x1="53.34" y1="43.35" x2="66.54" y2="13.7" gradientUnits="userSpaceOnUse"><stop offset="0" stop-color="#fdba56"/><stop offset=".02" stop-color="#fbb055"/><stop offset=".06" stop-color="#f79d54"/><stop offset=".1" stop-color="#f59253"/><stop offset=".15" stop-color="#f48e53"/><stop offset=".3" stop-color="#ed5e4e"/><stop offset=".47" stop-color="#683a96" stop-opacity=".5"/><stop offset=".64" stop-color="#ed872b"/><stop offset=".79" stop-color="#7b76b6"/><stop offset=".9" stop-color="#f15f4f"/><stop offset="1" stop-color="#fdba56"/></linearGradient><linearGradient id="c" x1="31.77" y1="153.03" x2="78.79" y2="47.43" xlink:href="#a"/><linearGradient id="b" x1="77.92" y1="19.52" x2="88.67" y2="43.68" gradientUnits="userSpaceOnUse"><stop offset="0" stop-color="#b7151b"/><stop offset=".02" stop-color="#c52229"/><stop offset=".06" stop-color="#d7333c"/><stop offset=".11" stop-color="#e23d47"/><stop offset=".15" stop-color="#e6404b"/><stop offset=".3" stop-color="#e98a7b"/><stop offset=".47" stop-color="#7c78b8"/><stop offset=".64" stop-color="#00b0b0"/><stop offset=".79" stop-color="#7b76b6"/><stop offset="1" stop-color="#e7322f"/></linearGradient><linearGradient id="d" x1="48.01" y1="25.78" x2="54.65" y2="40.68" xlink:href="#b"/><linearGradient id="e" x1="57.59" y1="82.44" x2="92.07" y2="159.89" xlink:href="#b"/></defs><title>_</title><path d="M74.23 17.56a19 19 0 0 0-5.08-2.66 43.55 43.55 0 0 0-5.53-1.8c-.62-.1-3.87-.1-7.52.07a68.11 68.11 0 0 1-8 0 4.77 4.77 0 0 0-2.23.25 6.71 6.71 0 0 0-2 1.68c-.63.8-1.72 2-2.43 2.79s-2 1.89-2.77 2.57a28.39 28.39 0 0 0-2.53 2.47c-.63.71-2.42 3.27-3.92 5.59a33.6 33.6 0 0 0-2.46 4.35.74.74 0 0 0 .24.08 24 24 0 0 1 2.43.52c.7.19 1.93.59 2.74.89a4.53 4.53 0 0 0 2.23.12A7.46 7.46 0 0 0 39.82 33a16.4 16.4 0 0 1 2.8-2l.1-.06a11.27 11.27 0 0 1 3.77-.87 43.05 43.05 0 0 0 4.78-.65 9 9 0 0 0 2.85-1 2.59 2.59 0 0 0 .17-1.17 9.75 9.75 0 0 1 .13-2.71 9.88 9.88 0 0 1 1-2.53c.17-.28 1.07-1.67 2.21-1.43s1.51 1.66 1.63 2.1a5 5 0 0 0 .87 1.65 3.72 3.72 0 0 0 1.4.8 11.14 11.14 0 0 1 2.24.88 7.76 7.76 0 0 1 1.73 1.38 6.61 6.61 0 0 1 1.12 1.94c0 .07 0 .16.07.25a9.84 9.84 0 0 1 .33 2.13 2.37 2.37 0 0 0 .53 1.29 4.62 4.62 0 0 0 1.72.86 7.89 7.89 0 0 0 2.5.14 8.53 8.53 0 0 0 1.68-.51 7.82 7.82 0 0 0 .84-.38 13.74 13.74 0 0 1 3.12-1.21 25 25 0 0 1 5.85.17 13.86 13.86 0 0 0 3.3.08 5.85 5.85 0 0 0-.39-1.38 9.82 9.82 0 0 0-1.8-2.6 12.1 12.1 0 0 0-2.91-1.88 12.57 12.57 0 0 1-3.5-2.4 11.62 11.62 0 0 1-2.14-3.56 10.19 10.19 0 0 0-1.59-2.77z" fill="url(#a)"/><path d="M38.42 46.44a13.14 13.14 0 0 1-4 1.48 15.42 15.42 0 0 1-4.5-.13 6.82 6.82 0 0 0-3.23.19A5.9 5.9 0 0 0 24.45 50a17.62 17.62 0 0 1-2.59 3.31 15.13 15.13 0 0 1-3.32 2.27 11 11 0 0 0-2.63 1.86 11.17 11.17 0 0 0-1.79 2.7 14.77 14.77 0 0 1-2.19 3.38 16.48 16.48 0 0 1-3.23 2.61 18.41 18.41 0 0 0-2.91 2.22 16.55 16.55 0 0 0-2.16 2.77 14.06 14.06 0 0 0-1.29 3.27A17.8 17.8 0 0 0 2 78.24c0 1.23 0 4.09-.22 6.36A80 80 0 0 1 .7 92.77a54.57 54.57 0 0 0-.87 5.62 17.62 17.62 0 0 0 .17 3.17c.15.84.65 3 1.1 4.62a43 43 0 0 1 1 4.86c.12 1 .09 4.28 0 6.8a16.12 16.12 0 0 0 .6 5.91 9.85 9.85 0 0 0 2.54 2.31 28.55 28.55 0 0 1 3.51 2.59 19.4 19.4 0 0 1 2.59 2.94c.64.94 2.71 5.07 4.33 8.52 1.94 4.12 3.87 7.23 4.4 7.64a7.8 7.8 0 0 0 3 1.16c.66.09 1.82.3 3.11.57.87.18 1.79.37 2.62.56a35.2 35.2 0 0 1 5.57 1.73 32.86 32.86 0 0 1 3.63 2.05 11.08 11.08 0 0 0 3.3 1.41 11.38 11.38 0 0 0 3.62 0c1.17-.23 3.06-.5 4.21-.61s2.8-.18 3.92-.18h.17a35 35 0 0 1 4.06.32 36.69 36.69 0 0 1 4 .89 35.61 35.61 0 0 0 3.8.84 35.12 35.12 0 0 0 3.86.32 11.46 11.46 0 0 0 3.49-.55 13.39 13.39 0 0 0 3.18-1.79 31.74 31.74 0 0 1 3.45-2.34 25.08 25.08 0 0 1 3.54-1.6c.79-.27 4.29-1.83 8.23-3.73a39.64 39.64 0 0 0 7.47-4.32 9.74 9.74 0 0 0 1.51-3 15.51 15.51 0 0 1 1.75-3.88 14.21 14.21 0 0 1 2.89-3 8.25 8.25 0 0 0 2.07-2.39 8.81 8.81 0 0 0 .69-3.18 17.19 17.19 0 0 1 .52-4 12.45 12.45 0 0 1 1.58-3.3 18.09 18.09 0 0 0 1.5-2.58 17.29 17.29 0 0 0 .92-2.78c.18-.82.4-2.2.49-3s.18-2.22.19-3.05.09-2.36.18-3.25.5-3.15.92-5 1-4.19 1.38-5.25a10.39 10.39 0 0 0 .42-3.27c-.07-.7-1.84-5-4.56-10.34l-2.35-4.64c-2.24-4.42-4.79-9.67-5.17-10.81a27.25 27.25 0 0 1-.87-3.52c0-.16-.05-.31-.07-.45a5.88 5.88 0 0 0-1.21-2.79 6.86 6.86 0 0 0-2.88-1.42 30.12 30.12 0 0 1-4.14-1.23c-1.18-.47-5.7-3.08-9.38-5.33A86 86 0 0 0 76 46.2a10.94 10.94 0 0 0-2.85-.32 13.67 13.67 0 0 1-3.55-.38 15.07 15.07 0 0 1-3.36-1.5c-.79-.49-2.92-1.59-4.65-2.41a15.47 15.47 0 0 0-4.65-1.46 37.12 37.12 0 0 0-6.45 1.52l-1 .3c-1.37.44-2.79.91-4 1.34-1.73.59-3.08 1.09-3.61 1.32a38.2 38.2 0 0 0-3.46 1.83z" fill="url(#c)"/><path d="M78.68 23.23a11.58 11.58 0 0 0 3.17 2.17 13.15 13.15 0 0 1 3.21 2.08 10.67 10.67 0 0 1 2 2.93 4.37 4.37 0 0 1 .43 2.43c-.16.41-2.13.53-4.38.25a24.51 24.51 0 0 0-5.51-.18A12.75 12.75 0 0 0 74.77 34a8.65 8.65 0 0 1-1 .44 5.69 5.69 0 0 1 .68.62l.1.13a5.76 5.76 0 0 1 .82 1.47 8.36 8.36 0 0 1 .35 2.08 3.3 3.3 0 0 0 .77 1.92 5.49 5.49 0 0 0 2.19 1.13 8.82 8.82 0 0 0 2.89.16 10.15 10.15 0 0 0 2.86-1 12.75 12.75 0 0 1 2.85-1.11 24.51 24.51 0 0 1 5.51.18c2.25.27 4.22.16 4.38-.25a4.37 4.37 0 0 0-.43-2.43 10.67 10.67 0 0 0-2-2.93 13.15 13.15 0 0 0-3.21-2.08 11.58 11.58 0 0 1-3.17-2.17A10.63 10.63 0 0 1 86.47 27a11.07 11.07 0 0 0-1.79-3.13 19.25 19.25 0 0 0-5.47-2.93L78 20.48 76.76 20a10.64 10.64 0 0 0 1.92 3.23z" fill="url(#b)"/><path d="M45.14 42.38c1.26-.43 2.68-.9 4.06-1.35l1-.31A16.15 16.15 0 0 1 52.51 39l.39-.22a10.36 10.36 0 0 1 3.36-.75 43.59 43.59 0 0 0 4.92-.67 8 8 0 0 0 3.41-1.28 3.12 3.12 0 0 0 .41-1.92 8.87 8.87 0 0 1 .08-2.16v-.23a8.84 8.84 0 0 1 .7-1.77c0-.09 0-.18-.07-.25a5.67 5.67 0 0 0-.92-1.6A6.84 6.84 0 0 0 63.31 27a10.15 10.15 0 0 0-2-.78 4.66 4.66 0 0 1-1.88-1.08 5.89 5.89 0 0 1-1.1-2.14 2.15 2.15 0 0 0-.87-1.39 1.69 1.69 0 0 0-1.15 1 8.89 8.89 0 0 0-.9 2.22 8.74 8.74 0 0 0-.11 2.38 3.12 3.12 0 0 1-.42 1.95 8 8 0 0 1-3.41 1.28 43.59 43.59 0 0 1-4.92.67 10.36 10.36 0 0 0-3.36.75l-.1.06c-.49.7-1 1.48-1.51 2.25l-.48.73c-1.54 2.38-2.75 4.66-2.69 5.07a1.34 1.34 0 0 0 1.17.89 23.27 23.27 0 0 1 2.31.49c.43.12 1.06.32 1.67.52l1 .34a3.93 3.93 0 0 0 .58.17z" fill="url(#d)"/><path d="M121.4 87.68L119 83c-2.49-4.91-4.79-9.71-5.12-10.68a26 26 0 0 1-.9-3.8 6.87 6.87 0 0 0-1.53-3.29 7.83 7.83 0 0 0-3.39-1.7 30.28 30.28 0 0 1-3.61-1l-.37-.14c-.16-.07-.42-.19-.74-.35a26.19 26.19 0 0 0 .83 3.37c.33 1 2.63 5.78 5.12 10.68l2.35 4.64c2.49 4.91 4.58 9.73 4.66 10.71a11.26 11.26 0 0 1-.46 3.66c-.33 1-.94 3.35-1.35 5.16s-.82 4-.9 4.87-.16 2.29-.17 3.17-.09 2.29-.19 3.15-.33 2.26-.51 3.11a18.16 18.16 0 0 1-1 3 19 19 0 0 1-1.6 2.75 11.51 11.51 0 0 0-1.43 3 16.33 16.33 0 0 0-.48 3.7 9.72 9.72 0 0 1-.79 3.62 9.18 9.18 0 0 1-2.37 2.75 13.33 13.33 0 0 0-2.65 2.74 14.64 14.64 0 0 0-1.62 3.59 10.62 10.62 0 0 1-1.71 3.39c-.64.76-4.15 2.82-7.8 4.57s-7.4 3.45-8.34 3.77a24.05 24.05 0 0 0-3.32 1.56 30.67 30.67 0 0 0-3.32 2.25 14.37 14.37 0 0 1-3.48 2 13.33 13.33 0 0 1-3.84.61 36.06 36.06 0 0 1-4-.33 36.64 36.64 0 0 1-3.94-.87 35.91 35.91 0 0 0-3.91-.86 34 34 0 0 0-3.92-.31c-1.08 0-2.87.07-4 .18s-3 .38-4.12.6a12.41 12.41 0 0 1-4 0 12.13 12.13 0 0 1-3.66-1.56 31.68 31.68 0 0 0-3.48-2A34.86 34.86 0 0 0 28.6 151c-.82-.19-1.73-.38-2.59-.56.21.4.42.78.63 1.15a17.46 17.46 0 0 0 2.59 3.88 8.76 8.76 0 0 0 3.45 1.35c1.11.15 3.65.65 5.64 1.11a34.86 34.86 0 0 1 5.37 1.66 31.68 31.68 0 0 1 3.48 2 12.13 12.13 0 0 0 3.66 1.56 12.41 12.41 0 0 0 4 0c1.15-.22 3-.49 4.12-.6s2.91-.19 4-.18a34 34 0 0 1 3.92.31 35.91 35.91 0 0 1 3.91.86 36.64 36.64 0 0 0 3.94.87 36.06 36.06 0 0 0 4 .33 13.33 13.33 0 0 0 3.84-.61 14.37 14.37 0 0 0 3.48-2 30.67 30.67 0 0 1 3.32-2.25 24.05 24.05 0 0 1 3.37-1.52c.93-.32 4.69-2 8.34-3.77s7.16-3.82 7.8-4.57a10.62 10.62 0 0 0 1.71-3.39 14.64 14.64 0 0 1 1.62-3.59 13.33 13.33 0 0 1 2.65-2.74 9.18 9.18 0 0 0 2.37-2.75 9.72 9.72 0 0 0 .79-3.62 16.33 16.33 0 0 1 .48-3.7 11.51 11.51 0 0 1 1.43-3 19 19 0 0 0 1.6-2.75 18.16 18.16 0 0 0 1-3c.18-.85.41-2.25.51-3.11s.18-2.28.19-3.15.09-2.3.17-3.17.49-3.06.9-4.87 1-4.13 1.35-5.16a11.26 11.26 0 0 0 .46-3.66c-.1-.95-2.22-5.77-4.7-10.68z" fill="url(#e)"/></svg>