<svg xmlns="http://www.w3.org/2000/svg" xmlns:xlink="http://www.w3.org/1999/xlink" width="116.84" height="200" viewBox="0 0 116.84 200"><defs><linearGradient id="a" x1="47.36" y1="41.28" x2="64.74" y2="2.25" gradientUnits="userSpaceOnUse"><stop offset="0" stop-color="#fdba56"/><stop offset=".02" stop-color="#fbb055"/><stop offset=".06" stop-color="#f79d54"/><stop offset=".1" stop-color="#f59253"/><stop offset=".15" stop-color="#f48e53"/><stop offset=".3" stop-color="#ed5e4e"/><stop offset=".47" stop-color="#683a96" stop-opacity=".5"/><stop offset=".64" stop-color="#ed872b"/><stop offset=".79" stop-color="#7b76b6"/><stop offset=".9" stop-color="#f15f4f"/><stop offset="1" stop-color="#fdba56"/></linearGradient><linearGradient id="c" x1="31.79" y1="155.12" x2="80.79" y2="45.07" xlink:href="#a"/><linearGradient id="b" x1="63.94" y1="18.45" x2="64.61" y2="19.94" gradientUnits="userSpaceOnUse"><stop offset="0" stop-color="#b7151b"/><stop offset=".02" stop-color="#c52229"/><stop offset=".06" stop-color="#d7333c"/><stop offset=".11" stop-color="#e23d47"/><stop offset=".15" stop-color="#e6404b"/><stop offset=".3" stop-color="#e98a7b"/><stop offset=".47" stop-color="#7c78b8"/><stop offset=".64" stop-color="#00b0b0"/><stop offset=".79" stop-color="#7b76b6"/><stop offset="1" stop-color="#e7322f"/></linearGradient><linearGradient id="d" x1="62.82" y1="20.07" x2="72.49" y2="41.8" xlink:href="#b"/><linearGradient id="e" x1="56.51" y1="79.4" x2="93.11" y2="161.6" xlink:href="#b"/><linearGradient id="f" x1="85.75" y1="48.18" x2="87.86" y2="52.93" xlink:href="#b"/></defs><title>_</title><path d="M83.91 19c.62-1 1.61-2.87 2.22-4.15a12 12 0 0 0 .93-2.65H87a14.93 14.93 0 0 1-2.51.47 7.06 7.06 0 0 1-2.11-.2 11.31 11.31 0 0 0-1.35-.3 9.48 9.48 0 0 0-1.37-.1 2.49 2.49 0 0 0-1 .29 5.22 5.22 0 0 0-1.07 1 11.47 11.47 0 0 1-1.3 1.47 3 3 0 0 1-1.45.74 1.56 1.56 0 0 0-.25.15 4.5 4.5 0 0 0-.61.74 11.79 11.79 0 0 1-1.1 1.37 17 17 0 0 1-1.44 1.32 8.67 8.67 0 0 1-2 1.14 12.47 12.47 0 0 1-2.5.57 5.52 5.52 0 0 1-2.11-.24 4.32 4.32 0 0 1-.83-.28 6.5 6.5 0 0 1-1.23-.94 8.91 8.91 0 0 1-1.17-1.3 12.65 12.65 0 0 0-1.81-2 7.4 7.4 0 0 0-1.87-1.1 20.74 20.74 0 0 1-2.39-1 23.85 23.85 0 0 1-2.31-1.4 5.65 5.65 0 0 0-1.91-.78A7.07 7.07 0 0 0 49 12c-.82.22-3.21.64-5.44 1a37 37 0 0 0-5.64 1.23 20.66 20.66 0 0 0-3.5 1.77 20.3 20.3 0 0 0-3 2.59 20.88 20.88 0 0 0-2.34 3.27 19.4 19.4 0 0 0-1.5 3.85 23.33 23.33 0 0 0-.58 4.35 10.8 10.8 0 0 0 .2 2.24l.07-.07a5.2 5.2 0 0 1 2.46-1.39 3.23 3.23 0 0 1 2.48.9 3.75 3.75 0 0 0 1.12.74 1.87 1.87 0 0 0 .88 0 3 3 0 0 1 1-.16 4.07 4.07 0 0 1 1.13.16l.18.05a7.87 7.87 0 0 1 2.09 1.36c0-.17 0-.35-.05-.54a6.52 6.52 0 0 1 .28-3.15c.47-1 2-1.51 3.26-1.59a28.34 28.34 0 0 1 2.9-.09 13 13 0 0 1 2 .38c.62.17 1.78.55 2.59.86a13.83 13.83 0 0 0 2.41.64 22.76 22.76 0 0 0 4.29-.4c.15 0 3.69-.62 4.9.1a7 7 0 0 1 2 2.15 2.08 2.08 0 0 0 .88.83 3 3 0 0 0 1.13-.78 10.69 10.69 0 0 1 2.8-2.06 13.65 13.65 0 0 1 3.58-1 13.46 13.46 0 0 0 3.06-.79 10.84 10.84 0 0 0 2.42-1.55c.3-.27.84-.81 1.48-1.49s1.33-1.41 2-2.12A38.19 38.19 0 0 0 83.91 19z" fill="url(#a)"/><path d="M41 43.69a28.88 28.88 0 0 1-4.17.93 10.8 10.8 0 0 0-3.29 1.08A10.74 10.74 0 0 0 31 48a12.57 12.57 0 0 1-3.11 2.83A11.89 11.89 0 0 1 24 52.14a9.83 9.83 0 0 0-3.08 1 8.88 8.88 0 0 0-2.26 2.12 25.49 25.49 0 0 1-2.49 3 25.48 25.48 0 0 1-3 2.45 31.32 31.32 0 0 0-2.8 2.19 31.56 31.56 0 0 0-2.47 2.56 33.77 33.77 0 0 0-2.12 2.88 33.8 33.8 0 0 0-1.72 3.13 14.28 14.28 0 0 0-1 3.33 18.72 18.72 0 0 0 0 3.85A19.1 19.1 0 0 1 3 83.07a17.52 17.52 0 0 1-1.33 4.14 19.72 19.72 0 0 0-1.3 3.57A18.9 18.9 0 0 0 0 94.49c0 1.09.13 2.75.24 3.71s.76 3.8 1.43 6.27A31.65 31.65 0 0 1 2.88 111a15.28 15.28 0 0 1-.74 3.65 12.21 12.21 0 0 0-.59 3.07 9.89 9.89 0 0 0 .45 2.85c.31.88.94 3.24 1.41 5.28a24.75 24.75 0 0 0 1.66 5 13.53 13.53 0 0 0 2.18 2.71 35.8 35.8 0 0 1 2.78 2.9 34.52 34.52 0 0 1 2.32 3.21c.53.85 2.05 2.94 3.31 4.54a41.75 41.75 0 0 0 3.67 4.14 31 31 0 0 0 2.92 2.22 25.6 25.6 0 0 0 3.2 1.71c.28.12.62.25 1 .38a25.52 25.52 0 0 0 2.47.75 19 19 0 0 0 3.68.39 24.61 24.61 0 0 0 4.07-.5 15.2 15.2 0 0 1 4.6-.23 13.64 13.64 0 0 1 4.22 1.47 15.34 15.34 0 0 0 3.47 1.39 14.23 14.23 0 0 0 3.63.24h1.24a19.67 19.67 0 0 1 3.06.23 22.69 22.69 0 0 1 4.27 1.29 7.7 7.7 0 0 0 3.38.53 8.12 8.12 0 0 0 3.16-1.47 14.6 14.6 0 0 1 4-2.19 13.06 13.06 0 0 1 4.42-.45 23.6 23.6 0 0 0 3.84 0 20.16 20.16 0 0 0 3.53-.75c1-.32 2.52-.92 3.46-1.33s2.43-1.14 3.34-1.63a16.51 16.51 0 0 0 2.84-2.05 40.27 40.27 0 0 0 4.05-6.12 40.9 40.9 0 0 1 4.46-6.63 17.25 17.25 0 0 1 3.6-2.47 6.14 6.14 0 0 0 2.32-2.12 6.59 6.59 0 0 0 .4-3.23 22 22 0 0 1-.16-4.28 12.93 12.93 0 0 1 .9-3.57 20.8 20.8 0 0 0 1.67-5.66c.13-.87.41-2.3.63-3.18s.65-2.28 1-3.14a49 49 0 0 1 2.27-4.79 15.06 15.06 0 0 0 1.63-4.42 64.2 64.2 0 0 0-2.92-10.06c-1.52-4.34-3.19-9.55-3.37-10.75a32.58 32.58 0 0 1-.27-3.93 6.67 6.67 0 0 0-.76-2.9 7.68 7.68 0 0 0-2.38-2.12 14.32 14.32 0 0 1-3.32-2.58 11.91 11.91 0 0 1-2-3.46 9.9 9.9 0 0 0-1.3-2.38c-.09-.12-.17-.23-.25-.32a10.35 10.35 0 0 0-2.58-1.91 35.56 35.56 0 0 1-3.37-1.94 32.3 32.3 0 0 1-3-2.32c-.38-.34-.89-.73-1.38-1.07s-1-.76-1.41-1a26.38 26.38 0 0 0-3-1.61 10.73 10.73 0 0 1-1-.53 15.16 15.16 0 0 1-2.28-1.59A18.36 18.36 0 0 1 78.52 45a5.85 5.85 0 0 0-2.15-1.93 5 5 0 0 0-2.7.05 11.29 11.29 0 0 1-4 .46A10.13 10.13 0 0 1 66 42.31a6.68 6.68 0 0 0-2.67-.89 7.41 7.41 0 0 0-2.82.67 10 10 0 0 1-4 .9 13.31 13.31 0 0 1-4.34-1.06 11.17 11.17 0 0 0-3-.77h-.67a8.41 8.41 0 0 0-2.05.37 8.28 8.28 0 0 0-1.39.53A30.85 30.85 0 0 1 41 43.69z" fill="url(#c)"/><path d="M65.11 19.72c-.55-.31-1.17-.71-1.6-1h-.06a5.5 5.5 0 0 0 1 .79 3.48 3.48 0 0 0 .66.21z" fill="url(#b)"/><path d="M45.92 40.4l.26.13a9.39 9.39 0 0 1 2.32-.41 6.5 6.5 0 0 1 .8 0 6.85 6.85 0 0 1-.06-1 4.36 4.36 0 0 1 .25-1.59 3.21 3.21 0 0 1 2.42-1c1.1-.07 2.32-.1 2.72-.07a11.91 11.91 0 0 1 1.8.35c.59.16 1.71.53 2.5.83a14.83 14.83 0 0 0 2.71.7 22.37 22.37 0 0 0 4.59-.4c1.82-.31 3.72-.33 4.21 0a6 6 0 0 1 1.66 1.8A2.67 2.67 0 0 0 73.73 41a3.17 3.17 0 0 0 2-1.1 9.67 9.67 0 0 1 2.5-1.84 12.61 12.61 0 0 1 3.27-.9 14.44 14.44 0 0 0 3.34-.86 11.69 11.69 0 0 0 2.7-1.73c.66-.6 2.24-2.25 3.52-3.67a38.82 38.82 0 0 0 3.47-4.46c.63-1 1.65-2.94 2.27-4.25a9.86 9.86 0 0 0 1-3.38 1 1 0 0 0-1.37-.64 13.91 13.91 0 0 1-2.3.43 6 6 0 0 1-1.76-.16 12.35 12.35 0 0 0-1.5-.34 12.22 12.22 0 0 0-1.52-.1 3.39 3.39 0 0 0-1.48.44 6 6 0 0 0-1.35 1.3 10.72 10.72 0 0 1-1.16 1.32 2.45 2.45 0 0 1-.78.47h-.12a1.81 1.81 0 0 0-.78.38 5.3 5.3 0 0 0-.8 1 10.77 10.77 0 0 1-1 1.24 16.31 16.31 0 0 1-1.34 1.23 7.33 7.33 0 0 1-1.24.75c-.64.67-1.2 1.23-1.53 1.53a11.69 11.69 0 0 1-2.7 1.73 14.44 14.44 0 0 1-3.34.86 12.61 12.61 0 0 0-3.27.9A9.67 9.67 0 0 0 66 33a3.17 3.17 0 0 1-2 1.1 2.67 2.67 0 0 1-1.65-1.32A6 6 0 0 0 60.71 31c-.5-.3-2.4-.29-4.21 0a22.37 22.37 0 0 1-4.59.4 14.83 14.83 0 0 1-2.71-.7c-.78-.29-1.91-.67-2.5-.83a11.91 11.91 0 0 0-1.8-.35c-.4 0-1.62 0-2.72.07a3.21 3.21 0 0 0-2.42 1 5.67 5.67 0 0 0-.19 2.58 3.56 3.56 0 0 1-.14 2.07 1.34 1.34 0 0 1-1.37-.55 7 7 0 0 0-1.86-1.26h-.12c-.05.32-.1.66-.15 1a23.14 23.14 0 0 0-.2 2.57 7.86 7.86 0 0 0 .47 3.17c.27.4.95.28 1.5-.26a4.31 4.31 0 0 1 1.9-1.11 2.28 2.28 0 0 1 1.65.62 4.65 4.65 0 0 0 1.52 1 2.65 2.65 0 0 0 .95.07 2.34 2.34 0 0 0 .57-.11 2.77 2.77 0 0 1 1.63.02z" fill="url(#d)"/><path d="M120.25 84.68a31.5 31.5 0 0 1-.26-3.78 7.64 7.64 0 0 0-.91-3.43 8.62 8.62 0 0 0-2.76-2.47 13.39 13.39 0 0 1-3.05-2.37 10.93 10.93 0 0 1-1.81-3.12 10.54 10.54 0 0 0-1.75-3 11.24 11.24 0 0 0-2.88-2.14 34.24 34.24 0 0 1-3.26-1.87c-.32-.21-.71-.5-1.1-.79-.65-.49-1.32-1-1.78-1.44l-.38-.32a10.89 10.89 0 0 1 1.44 2.66 10.93 10.93 0 0 0 1.81 3.12 13.39 13.39 0 0 0 3.05 2.37 8.62 8.62 0 0 1 2.75 2.47 7.64 7.64 0 0 1 .91 3.43 31.5 31.5 0 0 0 .26 3.78c.15 1 1.64 5.76 3.32 10.56s3 9.5 3 10.44a15.73 15.73 0 0 1-1.74 4.85 49.19 49.19 0 0 0-2.21 4.66c-.3.83-.71 2.21-.93 3.05s-.49 2.23-.61 3.08a21.81 21.81 0 0 1-1.75 5.93 12 12 0 0 0-.81 3.24 21.32 21.32 0 0 0 .15 4.05 7.57 7.57 0 0 1-.5 3.83 7.11 7.11 0 0 1-2.77 2.56 16.45 16.45 0 0 0-3.36 2.3 40.14 40.14 0 0 0-4.32 6.34 40.19 40.19 0 0 1-4.2 6.33 17.51 17.51 0 0 1-3 2.21c-.92.5-2.46 1.25-3.42 1.67s-2.55 1-3.54 1.36a21.08 21.08 0 0 1-3.74.8 24.77 24.77 0 0 1-4 0 12.17 12.17 0 0 0-4 .41 13.66 13.66 0 0 0-3.68 2 9.06 9.06 0 0 1-3.65 1.68 8.67 8.67 0 0 1-3.91-.6 21.54 21.54 0 0 0-4-1.22 18.87 18.87 0 0 0-4-.17 15.2 15.2 0 0 1-3.94-.26 16.29 16.29 0 0 1-3.75-1.5 12.73 12.73 0 0 0-3.85-1.34 14.39 14.39 0 0 0-4.25.21 25.35 25.35 0 0 1-4.27.52 19.58 19.58 0 0 1-3.92-.41 26.58 26.58 0 0 1-2.58-.79c.47.54.92 1.05 1.32 1.48s.72.75 1 1a31.71 31.71 0 0 0 3 2.31 26.51 26.51 0 0 0 3.35 1.79 26.66 26.66 0 0 0 3.62 1.19 19.58 19.58 0 0 0 3.92.41 25.35 25.35 0 0 0 4.27-.52 14.39 14.39 0 0 1 4.25-.21 12.73 12.73 0 0 1 3.85 1.34 16.29 16.29 0 0 0 3.75 1.5 15.2 15.2 0 0 0 3.94.26 18.87 18.87 0 0 1 4 .17 21.54 21.54 0 0 1 4 1.22 8.67 8.67 0 0 0 3.91.6 9.06 9.06 0 0 0 3.52-1.69 13.66 13.66 0 0 1 3.68-2 12.17 12.17 0 0 1 4-.41 24.77 24.77 0 0 0 4 0 21.08 21.08 0 0 0 3.74-.8c1-.33 2.58-.94 3.54-1.36s2.5-1.17 3.42-1.67a17.51 17.51 0 0 0 3-2.21 40.19 40.19 0 0 0 4.24-6.35 40.14 40.14 0 0 1 4.28-6.39 16.45 16.45 0 0 1 3.36-2.3 7.11 7.11 0 0 0 2.77-2.56 7.57 7.57 0 0 0 .5-3.83 21.32 21.32 0 0 1-.15-4.05 12 12 0 0 1 .81-3.24 21.81 21.81 0 0 0 1.75-5.93c.12-.85.4-2.24.61-3.08s.63-2.22.93-3.05a49.19 49.19 0 0 1 2.21-4.66 15.73 15.73 0 0 0 1.74-4.85c0-.94-1.3-5.63-3-10.44s-3.04-9.56-3.18-10.56z" fill="url(#e)"/><path d="M88.12 51.12c.42.27 1 .65 1.48 1-.19-.26-.37-.5-.52-.73a6.74 6.74 0 0 0-2.64-2.32 5.53 5.53 0 0 0-2.44-.12 9.87 9.87 0 0 0 .94.48 27.2 27.2 0 0 1 3.18 1.69z" fill="url(#f)"/></svg>