<svg xmlns="http://www.w3.org/2000/svg" xmlns:xlink="http://www.w3.org/1999/xlink" width="82.85" height="200" viewBox="0 0 82.85 200"><defs><linearGradient id="b" x1="17.99" y1="156.98" x2="54.1" y2="75.86" gradientUnits="userSpaceOnUse"><stop offset="0" stop-color="#fdba56"/><stop offset=".02" stop-color="#fbb055"/><stop offset=".06" stop-color="#f79d54"/><stop offset=".1" stop-color="#f59253"/><stop offset=".15" stop-color="#f48e53"/><stop offset=".3" stop-color="#ed5e4e"/><stop offset=".47" stop-color="#683a96" stop-opacity=".5"/><stop offset=".64" stop-color="#ed872b"/><stop offset=".79" stop-color="#7b76b6"/><stop offset=".9" stop-color="#f15f4f"/><stop offset="1" stop-color="#fdba56"/></linearGradient><linearGradient id="a" x1="59.23" y1="91.62" x2="87.1" y2="154.21" gradientUnits="userSpaceOnUse"><stop offset="0" stop-color="#b7151b"/><stop offset=".02" stop-color="#c52229"/><stop offset=".06" stop-color="#d7333c"/><stop offset=".11" stop-color="#e23d47"/><stop offset=".15" stop-color="#e6404b"/><stop offset=".3" stop-color="#e98a7b"/><stop offset=".47" stop-color="#7c78b8"/><stop offset=".64" stop-color="#00b0b0"/><stop offset=".79" stop-color="#7b76b6"/><stop offset="1" stop-color="#e7322f"/></linearGradient><linearGradient id="c" x1="24.68" y1="83.39" x2="33.05" y2="102.18" xlink:href="#a"/><linearGradient id="d" x1="24.83" y1="134.99" x2="33.93" y2="155.44" xlink:href="#a"/></defs><title>_</title><path d="M13.58 80.87a9.18 9.18 0 0 0-2.66-1.43h-.13a.89.89 0 0 0-.63.26 9.78 9.78 0 0 1-1.57 1.89A10.88 10.88 0 0 1 6.48 83c-.54.26-1.43.75-1.93 1.06s-1.31.88-1.75 1.23a14.75 14.75 0 0 0-1.5 1.41A15.79 15.79 0 0 0 0 88.37a1.94 1.94 0 0 0 0 1.39 71.66 71.66 0 0 0 7.69 7.62l2.38 2.15c4.12 3.7 8.94 8.33 10.76 10.32 1.23 1.35 3.51 4.34 3.32 6a6.69 6.69 0 0 1-2.56 3.83c-.92.69-4.47 4.12-8.29 8.11-3.57 3.76-8.19 8.21-10.3 9.95a20.47 20.47 0 0 0-3.84 3.83 1 1 0 0 0 .46.78 17.61 17.61 0 0 1 2.3 1.8A31.73 31.73 0 0 1 4.83 148a32.45 32.45 0 0 0 2.59 3.5 22 22 0 0 0 1.87 1.59 2.27 2.27 0 0 0 1.65.23 6 6 0 0 0 .76-.57 88.21 88.21 0 0 0 7.08-6.89l8.83-9.41c.29-.31 7.12-7.56 9.15-7.79a6.81 6.81 0 0 1 4.3 1.49c1.07.84 2.69 2.29 3.62 3.22.66.66 1.61 1.71 2.41 2.66.28.33.53.64.74.92.75 1 4.28 4.83 7.7 8.41a68.64 68.64 0 0 0 7.23 6.92 1.33 1.33 0 0 0 1-.07 18.62 18.62 0 0 0 1.5-1.42c.33-.36 1.46-1.89 2.56-3.51a26.64 26.64 0 0 1 3-3.76 12.69 12.69 0 0 1 2.18-1.45.4.4 0 0 0 .23-.26A8.79 8.79 0 0 0 71.2 140a45 45 0 0 1-3.85-3c-1-.89-4.69-4.95-8.37-9.23l-1.88-2.19c-2.33-2.71-6.77-8.25-6.91-9.84a7.34 7.34 0 0 1 1.29-4.19 32.67 32.67 0 0 1 3-3.58 34.88 34.88 0 0 1 3.52-3.11 32.83 32.83 0 0 0 3.38-2.91 33.17 33.17 0 0 0 2.85-3.44c.76-1.09 2.06-2.75 2.89-3.7s2.26-2.41 3.18-3.24a10.82 10.82 0 0 0 1.91-2.21.82.82 0 0 0 .06-.57c-.32-.33-1.09-1.27-1.65-2l-.27-.34a26 26 0 0 0-2-2.32 13.9 13.9 0 0 0-1.63-1.27 20.68 20.68 0 0 1-1.84-1.36 15.12 15.12 0 0 1-1.45-1.5 1.24 1.24 0 0 0-.78 0A11.21 11.21 0 0 0 60 81.41a41.53 41.53 0 0 0-3.36 2.78 43.54 43.54 0 0 0-3 3.24c-.85 1-4.43 4.48-8.15 7.85a49.4 49.4 0 0 1-7.35 5.72 2.81 2.81 0 0 1-1.45.49c-1.72-.07-8-6.14-9.22-7.35l-5-4.93c-1-1-2.09-2-3.09-3-2.79-2.7-5.12-4.83-5.8-5.34z" fill="url(#b)"/><path d="M71.44 86.18c.65.82 1.34 1.66 1.62 2a1.59 1.59 0 0 1 .08 1.66A11.46 11.46 0 0 1 71 92.3c-.89.81-2.28 2.23-3.1 3.16s-2.07 2.54-2.81 3.62a33.88 33.88 0 0 1-3 3.57 33.63 33.63 0 0 1-3.5 3 33.62 33.62 0 0 0-3.47 3 31.51 31.51 0 0 0-2.85 3.45 6.45 6.45 0 0 0-1.12 3.53c.08.93 3.09 5.11 6.67 9.28l1.88 2.19c3.59 4.17 7.31 8.28 8.27 9.14a44.12 44.12 0 0 0 3.74 2.9 8.35 8.35 0 0 1 2.42 2.3 1.24 1.24 0 0 1-.7 1.52 11.79 11.79 0 0 0-2 1.32 26.28 26.28 0 0 0-2.78 3.56c-1 1.54-2.24 3.17-2.65 3.62a19.44 19.44 0 0 1-1.55 1.48l.08.06.64.67c3.26 3.38 6.29 6.22 6.91 6.47a2.26 2.26 0 0 0 2.06-.22 19.36 19.36 0 0 0 1.6-1.51c.41-.45 1.6-2.08 2.65-3.62a26.28 26.28 0 0 1 2.78-3.56 11.79 11.79 0 0 1 2-1.32 1.24 1.24 0 0 0 .7-1.52 8.35 8.35 0 0 0-2.42-2.3 44.12 44.12 0 0 1-3.74-2.9c-1-.85-4.69-5-8.27-9.14l-1.88-2.19c-3.59-4.17-6.59-8.34-6.67-9.28A6.45 6.45 0 0 1 62 119a31.51 31.51 0 0 1 2.85-3.45 33.62 33.62 0 0 1 3.47-3 33.63 33.63 0 0 0 3.5-3 33.88 33.88 0 0 0 3-3.57c.74-1.06 2-2.68 2.82-3.62s2.21-2.35 3.1-3.16a11.46 11.46 0 0 0 2.13-2.51 1.59 1.59 0 0 0-.08-1.66c-.32-.34-1.17-1.37-1.89-2.29a27.08 27.08 0 0 0-2.11-2.44A15.06 15.06 0 0 0 77 89a19.94 19.94 0 0 1-1.73-1.28 14.25 14.25 0 0 1-1.37-1.36 1.79 1.79 0 0 0-1.43-.44 2.09 2.09 0 0 0-.36 0 4.49 4.49 0 0 0-.67.26z" fill="url(#a)"/><path d="M20.06 85.45c1 1 2.06 2 3.1 3l5 4.93c3.92 3.86 7.77 7 8.56 7.07a2.27 2.27 0 0 0 .91-.36l-.75-.74-4-4c-3.92-3.86-8-7.63-9-8.39a12.84 12.84 0 0 0-2-1.21 4.77 4.77 0 0 0-1.06-.39 1.81 1.81 0 0 0-.76.09z" fill="url(#c)"/><path d="M44 134.08c-.91-.91-2.5-2.32-3.53-3.14a5.88 5.88 0 0 0-3.57-1.28c-.93.11-4.77 3.48-8.53 7.49l-8.83 9.41a89.27 89.27 0 0 1-7.18 7l.58.81c.27.38.54.77.8 1.16a32.51 32.51 0 0 0 2.73 3.66 23 23 0 0 0 2 1.68 3.22 3.22 0 0 0 2.53.38c.79-.24 4.52-3.72 8.28-7.73l8.83-9.41a59.93 59.93 0 0 1 7.41-6.88 5.32 5.32 0 0 1 .87-.52c-.81-.93-1.74-1.96-2.39-2.63z" fill="url(#d)"/></svg>