<svg xmlns="http://www.w3.org/2000/svg" width="124.45" height="200" viewBox="0 0 124.45 200"><defs><linearGradient id="a" x1="26.61" y1="169.51" x2="88.94" y2="29.51" gradientUnits="userSpaceOnUse"><stop offset="0" stop-color="#fdba56"/><stop offset=".02" stop-color="#fbb055"/><stop offset=".06" stop-color="#f79d54"/><stop offset=".1" stop-color="#f59253"/><stop offset=".15" stop-color="#f48e53"/><stop offset=".3" stop-color="#ed5e4e"/><stop offset=".47" stop-color="#683a96" stop-opacity=".5"/><stop offset=".64" stop-color="#ed872b"/><stop offset=".79" stop-color="#7b76b6"/><stop offset=".9" stop-color="#f15f4f"/><stop offset="1" stop-color="#fdba56"/></linearGradient><linearGradient id="b" x1="49.64" y1="66.57" x2="91.46" y2="160.49" gradientUnits="userSpaceOnUse"><stop offset="0" stop-color="#b7151b"/><stop offset=".02" stop-color="#c52229"/><stop offset=".06" stop-color="#d7333c"/><stop offset=".11" stop-color="#e23d47"/><stop offset=".15" stop-color="#e6404b"/><stop offset=".3" stop-color="#e98a7b"/><stop offset=".47" stop-color="#7c78b8"/><stop offset=".64" stop-color="#00b0b0"/><stop offset=".79" stop-color="#7b76b6"/><stop offset="1" stop-color="#e7322f"/></linearGradient></defs><title>_</title><path d="M105.22 42.78a6 6 0 0 1-1.78-1.12 5.87 5.87 0 0 1-1.25-2 11.83 11.83 0 0 1-.48-2.75 4 4 0 0 0-.49-1.72 2.33 2.33 0 0 0-1.16-.64 3.44 3.44 0 0 0-1.55.14 4 4 0 0 0-1.26 1.08c-.38.53-1.21 1.85-1.8 2.88S94 41.41 93.48 42.5A32.29 32.29 0 0 1 92 45.63a18 18 0 0 1-1.42 2 3.18 3.18 0 0 1-2.89 1 9.09 9.09 0 0 1-3.22-1.83 10.73 10.73 0 0 0-3.1-1.8 10.57 10.57 0 0 0-3.5-.29 26.3 26.3 0 0 1-4.23.09 23.36 23.36 0 0 1-4-.75c-1-.29-3.56-.87-5.64-1.27a28.22 28.22 0 0 0-5.59-.57 20 20 0 0 0-3.7.74c-1.27.41-7.09 1.46-12 2.25l-3.55.57A91.27 91.27 0 0 0 27.91 48a40.37 40.37 0 0 0-5.58 4.32 44.48 44.48 0 0 0-5 5 19.54 19.54 0 0 0-1.59 3.09 12.52 12.52 0 0 1-2.16 3.45 14.39 14.39 0 0 1-3.41 2.5 7.42 7.42 0 0 0-2.41 2.06 6.8 6.8 0 0 0-.81 2.95c0 1.13-.13 3-.26 4.07-.15 1.26-1.49 7-2.7 11.78l-1.93 7.64C.6 100.64-.12 105.2 0 105.93a9.57 9.57 0 0 0 1.53 3.13 13.78 13.78 0 0 1 2 3.76 9.84 9.84 0 0 1 .24 3.89 20.87 20.87 0 0 0-.26 3.2 19.3 19.3 0 0 0 .35 3.1A7.45 7.45 0 0 0 5 125.46a8.47 8.47 0 0 0 2.2 1.79 8.08 8.08 0 0 1 2.73 2.46 7.58 7.58 0 0 1 .92 3.5 9.45 9.45 0 0 0 .43 2.69 6.57 6.57 0 0 0 1.27 2 28.84 28.84 0 0 0 2.23 1.89c.7.52 2 1.41 2.86 1.94s2.08 1.54 2.16 2.58-1 2-2 2.43a9.48 9.48 0 0 0-2.2 1.26 5.58 5.58 0 0 0-1.17 1.62c-.27.65-.75 1.67-1.08 2.27s-.93 1.55-1.35 2.11a13.9 13.9 0 0 0-1 1.76 10.6 10.6 0 0 0-.6 1.73c-.11.5-.25 1.3-.29 1.74a13.79 13.79 0 0 0-.06 1.56 2.82 2.82 0 0 0 .26 1 3 3 0 0 0 .75.76 4.6 4.6 0 0 0 1.24.51 7 7 0 0 0 1.66.08h.83a8.48 8.48 0 0 1 1.23.08 4.33 4.33 0 0 1 1.64.63 1.32 1.32 0 0 0 .51.08 3.68 3.68 0 0 0 .58-.14 6.59 6.59 0 0 0 .82-.3 6.94 6.94 0 0 0 1.52-1 7.81 7.81 0 0 0 1.18-1.52 17.63 17.63 0 0 1 1.41-2.07 17.85 17.85 0 0 1 1.72-1.9 9.7 9.7 0 0 0 1.36-1.56 10 10 0 0 0 .91-1.89 3.93 3.93 0 0 1 1.86-2.17 5.73 5.73 0 0 1 3-.21 11.78 11.78 0 0 1 3.25 1.29 17.34 17.34 0 0 1 3 2.48 8.79 8.79 0 0 0 2.7 1.83 9.54 9.54 0 0 0 3.35.41c1.19-.1 6 0 10.83.22 5.12.23 9.53.28 10.43.17a22.49 22.49 0 0 0 3.67-.8c.89-.29 4.57-1.93 8.62-3.92 3.8-1.86 7.68-3.66 8.66-4a30.81 30.81 0 0 1 3.75-1.06 24.17 24.17 0 0 0 6.85-2.51 20.08 20.08 0 0 0 2.92-2 20.58 20.58 0 0 0 2.43-2.65 16.65 16.65 0 0 0 1.74-3.15 18.46 18.46 0 0 0 .9-3.63 22.23 22.23 0 0 1 1-4.06 18.32 18.32 0 0 1 1.81-3.53 27 27 0 0 0 1.71-2.9 45.94 45.94 0 0 0 1.81-5.93 50.86 50.86 0 0 0 1.21-6 23.25 23.25 0 0 0-.08-3c-.09-.91-.18-2.38-.19-3.27s0-2.35.12-3.23a17.32 17.32 0 0 1 .71-3.38 22.44 22.44 0 0 1 1.54-3.39 6.72 6.72 0 0 0 .79-2.67 5.8 5.8 0 0 0-.77-2.47 16 16 0 0 1-1.5-3.23 14.1 14.1 0 0 1-.52-3.4 20.53 20.53 0 0 0-.28-2.94 19.8 19.8 0 0 0-.8-2.8c-.29-.76-1.14-2.61-1.85-4s-1.65-3.14-2.07-3.77-2.39-3.11-4.79-6c-2-2.43-4.36-5.62-4.72-6.73-.43-1.33.55-3.64 1.73-5.24a40.57 40.57 0 0 1 3-3.69 14.61 14.61 0 0 1 2-1.5 6.62 6.62 0 0 0 1.4-1.22 5.53 5.53 0 0 0 .76-1.53 2.14 2.14 0 0 0 .06-.7 1.19 1.19 0 0 0-.38-.07A6 6 0 0 1 106 43a5 5 0 0 1-.78-.22z" fill="url(#a)"/><path d="M124.45 93.38a13.17 13.17 0 0 1-.48-3.12 21.22 21.22 0 0 0-.3-3.11 20.64 20.64 0 0 0-.85-3c-.31-.8-1.16-2.66-1.89-4.13s-1.69-3.21-2.14-3.88-2.63-3.4-4.85-6.08a36.35 36.35 0 0 1-4.54-6.4c-.27-.84.44-2.79 1.58-4.33a39.87 39.87 0 0 1 2.9-3.56 13.81 13.81 0 0 1 1.83-1.38 7.44 7.44 0 0 0 1.67-1.39 6.4 6.4 0 0 0 .94-1.88 2.36 2.36 0 0 0 0-1.56A1.6 1.6 0 0 0 117 49a5.5 5.5 0 0 1-1.73-.26 3.94 3.94 0 0 1-2.42-2.54 10.91 10.91 0 0 1-.43-2.47 4.89 4.89 0 0 0-.69-2.27 3.26 3.26 0 0 0-1.79-1 4.45 4.45 0 0 0-2.12.2 3.4 3.4 0 0 0-.68.43 5.31 5.31 0 0 0-.93.91 5.5 5.5 0 0 0 1.09.1 1.6 1.6 0 0 1 1.27.48 2.36 2.36 0 0 1 0 1.56 6.4 6.4 0 0 1-.94 1.88 7.44 7.44 0 0 1-1.63 1.45 13.81 13.81 0 0 0-1.83 1.38 39.87 39.87 0 0 0-2.9 3.56c-1.14 1.54-1.86 3.49-1.58 4.33a36.35 36.35 0 0 0 4.54 6.4c2.22 2.68 4.4 5.41 4.85 6.08s1.41 2.41 2.14 3.88 1.58 3.32 1.89 4.13a20.64 20.64 0 0 1 .85 3 21.22 21.22 0 0 1 .3 3.11 13.17 13.17 0 0 0 .48 3.12 15.07 15.07 0 0 0 1.39 3 6.7 6.7 0 0 1 .92 3 7.69 7.69 0 0 1-.93 3.16 21.67 21.67 0 0 0-1.45 3.21A16.47 16.47 0 0 0 114 102c-.07.86-.12 2.27-.12 3.14s.09 2.3.19 3.18a24.11 24.11 0 0 1 .08 3.17 51.53 51.53 0 0 1-1.23 6.18 46.61 46.61 0 0 1-1.88 6.13 27.64 27.64 0 0 1-1.78 3 17.48 17.48 0 0 0-1.7 3.3 21.08 21.08 0 0 0-.9 3.84 19.39 19.39 0 0 1-1 3.87 17.6 17.6 0 0 1-1.86 3.38 21.53 21.53 0 0 1-2.58 2.81 21 21 0 0 1-3.1 2.17 25.16 25.16 0 0 1-7.12 2.6 30 30 0 0 0-3.61 1c-.95.35-4.8 2.14-8.56 4s-7.7 3.63-8.75 4a23.55 23.55 0 0 1-3.86.84c-1.07.12-5.84 0-10.59-.17s-9.57-.31-10.7-.22a10.52 10.52 0 0 1-3.78-.47 9.74 9.74 0 0 1-3.08-2.08 16.43 16.43 0 0 0-2.79-2.31 10.78 10.78 0 0 0-2.92-1.16 4.83 4.83 0 0 0-2.43.14 3 3 0 0 0-1.32 1.58 10.86 10.86 0 0 1-1 2.12 10.6 10.6 0 0 1-1.54 1.76 17 17 0 0 0-1.63 1.69 16.55 16.55 0 0 0-1.31 1.93 8.86 8.86 0 0 1-1.36 1.76 8 8 0 0 1-1.79 1.2 7.6 7.6 0 0 1-1 .35c-.07.36-.13.75-.18 1.08v.29a14.49 14.49 0 0 0-.07 1.7 3.72 3.72 0 0 0 .4 1.45 4 4 0 0 0 1.07 1.1 5.54 5.54 0 0 0 1.58.65 8.13 8.13 0 0 0 1.95.1 9.39 9.39 0 0 1 1.82 0 3.38 3.38 0 0 1 1.21.45 2 2 0 0 0 1.18.26 6.66 6.66 0 0 0 1.73-.53 8 8 0 0 0 1.79-1.2 8.86 8.86 0 0 0 1.36-1.76 16.55 16.55 0 0 1 1.31-1.93 17 17 0 0 1 1.63-1.69 10.6 10.6 0 0 0 1.54-1.76 10.86 10.86 0 0 0 1-2.12 3 3 0 0 1 1.32-1.58 4.83 4.83 0 0 1 2.43-.14 10.78 10.78 0 0 1 2.95 1.17 16.43 16.43 0 0 1 2.79 2.31 9.74 9.74 0 0 0 3.08 2.08 10.52 10.52 0 0 0 3.78.47c1.14-.09 6 0 10.7.22s9.52.29 10.59.17a23.55 23.55 0 0 0 3.86-.84c1.05-.34 5-2.13 8.75-4s7.62-3.63 8.56-4a30 30 0 0 1 3.61-1 25.16 25.16 0 0 0 7.13-2.61 21 21 0 0 0 3.1-2.17 21.53 21.53 0 0 0 2.58-2.81 17.6 17.6 0 0 0 1.86-3.38 19.39 19.39 0 0 0 1-3.87 21.08 21.08 0 0 1 .9-3.84 17.48 17.48 0 0 1 1.7-3.3 27.64 27.64 0 0 0 1.78-3 46.61 46.61 0 0 0 1.88-6.13 51.53 51.53 0 0 0 1.23-6.18 24.11 24.11 0 0 0-.08-3.17c-.09-.88-.18-2.31-.19-3.18s0-2.28.12-3.14a16.47 16.47 0 0 1 .66-3.15 21.67 21.67 0 0 1 1.45-3.21 7.69 7.69 0 0 0 .93-3.16 6.7 6.7 0 0 0-.92-3 15.07 15.07 0 0 1-1.4-3z" fill="url(#b)"/></svg>