<svg xmlns="http://www.w3.org/2000/svg" xmlns:xlink="http://www.w3.org/1999/xlink" width="200" height="200" viewBox="0 0 200 200"><defs><linearGradient id="a" x1="84.23" y1="28.04" x2="92.3" y2="9.91" gradientUnits="userSpaceOnUse"><stop offset="0" stop-color="#fdba56"/><stop offset="0.02" stop-color="#fbb055"/><stop offset="0.06" stop-color="#f79d54"/><stop offset="0.1" stop-color="#f59253"/><stop offset="0.15" stop-color="#f48e53"/><stop offset="0.3" stop-color="#ed5e4e"/><stop offset="0.47" stop-color="#683a96" stop-opacity="0.5"/><stop offset="0.64" stop-color="#ed872b"/><stop offset="0.79" stop-color="#7b76b6"/><stop offset="0.9" stop-color="#f15f4f"/><stop offset="1" stop-color="#fdba56"/></linearGradient><linearGradient id="b" x1="64.22" y1="152.01" x2="117.89" y2="31.46" xlink:href="#a"/><linearGradient id="c" x1="95.93" y1="19.85" x2="107.05" y2="44.83" gradientUnits="userSpaceOnUse"><stop offset="0" stop-color="#b7151b"/><stop offset="0.02" stop-color="#c52229"/><stop offset="0.06" stop-color="#d7333c"/><stop offset="0.11" stop-color="#e23d47"/><stop offset="0.15" stop-color="#e6404b"/><stop offset="0.3" stop-color="#e98a7b"/><stop offset="0.47" stop-color="#7c78b8"/><stop offset="0.64" stop-color="#00b0b0"/><stop offset="0.79" stop-color="#7b76b6"/><stop offset="1" stop-color="#e7322f"/></linearGradient><linearGradient id="d" x1="68.98" y1="52.96" x2="100.52" y2="123.82" xlink:href="#c"/><linearGradient id="e" x1="97.14" y1="70.51" x2="135.65" y2="157.01" xlink:href="#c"/></defs><title>_</title><path d="M101,17.78A16.09,16.09,0,0,0,99.62,15a16.4,16.4,0,0,0-2.12-2.53A5.76,5.76,0,0,0,95,11.24a8.24,8.24,0,0,0-3.23.43,15.26,15.26,0,0,1-4.4.79h0a15.09,15.09,0,0,1-4.39-.8,27.44,27.44,0,0,0-3.86-1c-0.93-.16-4.66-0.36-8.72-0.39a50.61,50.61,0,0,0-5.08.18c0.26,0.18.56,0.39,0.91,0.59a24.9,24.9,0,0,1,4.32,3.28,19.27,19.27,0,0,1,3,4.07A12.7,12.7,0,0,0,76,21.55a12.82,12.82,0,0,0,3.56,2A22.4,22.4,0,0,1,82.91,25c0.38,0.2.72,0.41,1,.59a19.59,19.59,0,0,1,3.49,3.08,7.41,7.41,0,0,0,2.39,1.86,2.94,2.94,0,0,0,1.93-.2,7.25,7.25,0,0,1,3.1-.84h0.09a7.28,7.28,0,0,1,3.15,1,10.74,10.74,0,0,0,2.36,1,8,8,0,0,0,2.29.19c0.76-.07,2.76-0.12,4.46-0.09a7.37,7.37,0,0,0,2.3-.25,5.6,5.6,0,0,0-.62-1.32c-0.55-.85-2-2.82-3.2-4.31a44.19,44.19,0,0,1-3.15-4.41A23.05,23.05,0,0,1,101,18Z" fill="url(#a)"/><path d="M68.69,43.09c-3.94.15-8.19,0.21-9.46,0.13a38.53,38.53,0,0,1-4.69-.65,27.8,27.8,0,0,0-4.39-.5H50a29.34,29.34,0,0,0-4.28.37A5.57,5.57,0,0,0,43,43.72a3.71,3.71,0,0,0-.4,2.45,38,38,0,0,1,.51,4.17,35.13,35.13,0,0,1-.06,4.1c-0.09,1.1-.34,2.9-0.55,4s-0.64,2.91-1,4a10.11,10.11,0,0,0-.24,3.48,12.14,12.14,0,0,0,1.31,3.55,9.91,9.91,0,0,1,1.25,4.43,10.17,10.17,0,0,1-1.41,4.42,9.73,9.73,0,0,0-1.24,3.46,8.44,8.44,0,0,0,.63,3.41,21.69,21.69,0,0,1,1.33,4.13,19,19,0,0,1,.24,4.17,32,32,0,0,0,0,3.76,33,33,0,0,0,.55,3.77,29.83,29.83,0,0,1,.54,4.1,72,72,0,0,1-.74,8.32,49.3,49.3,0,0,0-.57,7.9A23.28,23.28,0,0,0,45,126.58c0.89,1.87,2,4,2.49,4.71a23.54,23.54,0,0,1,1.6,2.94,25.17,25.17,0,0,1,1.11,3.23,10.58,10.58,0,0,0,1.13,2.6,10.15,10.15,0,0,0,1.92,2,23.16,23.16,0,0,1,2.55,2.3A25.4,25.4,0,0,1,58,147.17a14.62,14.62,0,0,0,2,2.34,13.61,13.61,0,0,0,2.48,1.68,28.71,28.71,0,0,0,2.92,1.21c0.3,0.1.67,0.21,1.06,0.32,0.74,0.21,1.48.39,2,.48,0.84,0.16,3.25.42,5.25,0.57s4.69,0.46,5.78.68a32,32,0,0,1,3.94,1.11c1,0.36,3.55,1.07,5.61,1.54a49.53,49.53,0,0,0,5.7,1c1.07,0.07,2.84.09,4,0a27.12,27.12,0,0,0,3.89-.52,28.75,28.75,0,0,0,3.81-1.22c1-.43,3.56-1.72,5.51-2.81a40.94,40.94,0,0,1,5.57-2.67,14.51,14.51,0,0,1,3.68-.58h0a10,10,0,0,0,2.76-.46,24.92,24.92,0,0,0,4.61-3.48,45.83,45.83,0,0,1,5.09-4.1,21.75,21.75,0,0,1,3.33-1.47,6.35,6.35,0,0,0,2.29-1.42,5.7,5.7,0,0,0,1-2.33,18.15,18.15,0,0,1,.93-3.43,16.62,16.62,0,0,1,1.68-3,14.72,14.72,0,0,0,1.47-2.71,20.3,20.3,0,0,0,.9-3.36,60.47,60.47,0,0,1,1.52-5.89,35.48,35.48,0,0,0,1.27-5.54,17,17,0,0,0-.22-3.65,18.49,18.49,0,0,1,.3-8.32,27,27,0,0,0,.66-3.75,25.68,25.68,0,0,0,0-3.74,31.09,31.09,0,0,0-.64-3.77,34.85,34.85,0,0,0-1.23-3.78A24.66,24.66,0,0,1,145.65,82a22,22,0,0,1-.25-4.14,25.17,25.17,0,0,1,.65-4.11,29.09,29.09,0,0,1,1.48-4.09,12.91,12.91,0,0,0,1-3.58,11.74,11.74,0,0,0-.38-3.55c-0.33-1.1-.94-3.78-1.37-6a46.16,46.16,0,0,1-.81-6c0-.6,0-1.43.07-2.29,0-.63.1-1.24,0.16-1.71a3.8,3.8,0,0,0-.52-2.37,6,6,0,0,0-2.68-1.4,23.23,23.23,0,0,0-4.25-.48,22.89,22.89,0,0,0-4.3.54,21.19,21.19,0,0,1-9.53.15,22.24,22.24,0,0,0-4.22-.41,19.93,19.93,0,0,0-4,.61,9.78,9.78,0,0,0-3.11,1.62,8.34,8.34,0,0,0-1.83,2.73,8.65,8.65,0,0,0-.39,3.38,12,12,0,0,0,1.36,3.68,14.67,14.67,0,0,1,1.65,4.51c0.22,1.49-.6,5.6-1.49,8.71a40.22,40.22,0,0,0-1.61,8,15.78,15.78,0,0,0,.84,3.85,41.82,41.82,0,0,1,1.32,4.27,38,38,0,0,1,.71,4.28,21,21,0,0,1-.12,4.4,23.74,23.74,0,0,1-1.21,4.37,12.36,12.36,0,0,0-.76,3.78,12.34,12.34,0,0,0,.76,3.78,15.48,15.48,0,0,1,1,4.48,14.86,14.86,0,0,1-.69,4.48c-0.37,1.09-1.06,3.74-1.5,5.8a21.78,21.78,0,0,1-1.92,5.63,11,11,0,0,1-2.83,2.73,12,12,0,0,1-3.82,1.44,15,15,0,0,1-4.34-.1,20.68,20.68,0,0,0-4.22-.23,27.79,27.79,0,0,0-4,.67l-0.58.15a10.17,10.17,0,0,1-4.79.19c-1.7-.51-3.8-4.16-4.68-6-1.17-2.49-2.46-5.82-2.54-7.08a17.86,17.86,0,0,1,.29-3.95,14.34,14.34,0,0,0,.14-3.63,17.91,17.91,0,0,0-1-3.82,13.81,13.81,0,0,1-.9-4.54,13.92,13.92,0,0,1,1-4.53,11.48,11.48,0,0,0,.79-3.75,11.55,11.55,0,0,0-.84-3.75A19.75,19.75,0,0,1,76,84.27a17.65,17.65,0,0,1,0-4.45,18.31,18.31,0,0,0,.12-3.89A19.8,19.8,0,0,0,75.23,72a14.8,14.8,0,0,1-.78-4.51,15.06,15.06,0,0,1,.93-4.5,23.73,23.73,0,0,0,1.11-3.94,21.2,21.2,0,0,0,.21-3.92c-0.07-1.08,0-3.72.07-6.14l0-.5a10.43,10.43,0,0,0-.63-4.85C75.74,43.4,72.83,42.93,68.69,43.09Z" fill="url(#b)"/><path d="M102,17.65a21.91,21.91,0,0,0,1.41,3.2,43.73,43.73,0,0,0,3.06,4.28c1.22,1.53,2.69,3.5,3.26,4.39a3.81,3.81,0,0,1,.77,2.39c-0.15.42-1.63,0.75-3.3,0.73s-3.63,0-4.35.09a9,9,0,0,1-2.64-.22,11.65,11.65,0,0,1-2.64-1.17,6.35,6.35,0,0,0-2.65-.86,6.22,6.22,0,0,0-2.67.71,3.89,3.89,0,0,1-2.73.28,8.21,8.21,0,0,1-2.83-2.15,18.77,18.77,0,0,0-3.28-2.9c-0.26-.17-0.58-0.36-0.93-0.55a14.17,14.17,0,0,0,1.66,2.36,9.73,9.73,0,0,0,1,1c0.15,0.12.32,0.25,0.5,0.38A14.33,14.33,0,0,0,89,31.4a20.15,20.15,0,0,1,2.49,1.06,16.11,16.11,0,0,1,1.59.89,18.77,18.77,0,0,1,3.28,2.9,8.21,8.21,0,0,0,2.83,2.15,3.89,3.89,0,0,0,2.73-.28,6.22,6.22,0,0,1,2.67-.71,6.35,6.35,0,0,1,2.65.86,11.65,11.65,0,0,0,2.64,1.17,9,9,0,0,0,2.64.22c0.73-.07,2.68-0.11,4.35-0.09s3.15-.3,3.3-0.73a3.81,3.81,0,0,0-.77-2.39c-0.57-.89-2-2.86-3.26-4.39a43.73,43.73,0,0,1-3.06-4.28,21.91,21.91,0,0,1-1.41-3.2,16.87,16.87,0,0,0-1.5-3.17,17.42,17.42,0,0,0-2.27-2.72,6.68,6.68,0,0,0-3-1.51,7.31,7.31,0,0,0-2,.07c-0.34.05-.67,0.11-1,0.19Z" fill="url(#c)"/><path d="M77.76,49.05c-0.1,2.34-.13,5-0.07,6a22,22,0,0,1-.22,4.15,24.6,24.6,0,0,1-1.17,4.15,14.16,14.16,0,0,0-.86,4.15,13.9,13.9,0,0,0,.72,4.15,20.78,20.78,0,0,1,1,4.15A19.25,19.25,0,0,1,77,80a16.8,16.8,0,0,0,0,4.15,18.94,18.94,0,0,0,1.2,4.15,12.59,12.59,0,0,1,.93,4.15,12.48,12.48,0,0,1-.87,4.15,13,13,0,0,0-.9,4.15,12.88,12.88,0,0,0,.83,4.15,18.73,18.73,0,0,1,1.08,4.08,15.31,15.31,0,0,1-.15,3.94,17.07,17.07,0,0,0-.27,3.69,30.16,30.16,0,0,0,2.45,6.72c1.28,2.73,3.11,5.2,4.06,5.48a9.21,9.21,0,0,0,4.23-.19l0.62-.16-0.38-.93a18.7,18.7,0,0,1-1.26-4,17.07,17.07,0,0,1,.27-3.69,15.31,15.31,0,0,0,.15-3.94,18.73,18.73,0,0,0-1.08-4.08,12.88,12.88,0,0,1-.83-4.15,13,13,0,0,1,.9-4.15,12.48,12.48,0,0,0,.87-4.15,12.59,12.59,0,0,0-.93-4.15,18.94,18.94,0,0,1-1.2-4.15,16.8,16.8,0,0,1,0-4.15,19.25,19.25,0,0,0,.12-4.15,20.78,20.78,0,0,0-1-4.15,13.9,13.9,0,0,1-.72-4.15A14.16,14.16,0,0,1,86,70.33a24.6,24.6,0,0,0,1.17-4.15A22,22,0,0,0,87.4,62c-0.07-1.14,0-4.08.09-6.52s-0.29-5-.91-5.6-4.07-1-7.82-.89H78.36Z" fill="url(#d)"/><path d="M158.76,96.59a35.69,35.69,0,0,0-1.28-3.92,23.42,23.42,0,0,1-1.13-3.92,20.9,20.9,0,0,1-.23-3.92,24.05,24.05,0,0,1,.62-3.92A27.89,27.89,0,0,1,158.15,77a14,14,0,0,0,1.07-3.92,12.74,12.74,0,0,0-.42-3.92c-0.32-1.08-.93-3.72-1.34-5.88a45.24,45.24,0,0,1-.79-5.85,32,32,0,0,1,.22-3.85,4.72,4.72,0,0,0-.74-3.13,6.84,6.84,0,0,0-3.23-1.74,23.11,23.11,0,0,0-4.49-.51H148l-1,.07c-0.05.79-.08,1.6-0.07,2.2a45.24,45.24,0,0,0,.79,5.85c0.42,2.15,1,4.8,1.34,5.88a12.74,12.74,0,0,1,.42,3.92,14,14,0,0,1-1.07,3.92A27.89,27.89,0,0,0,147,74a24.05,24.05,0,0,0-.62,3.92,20.9,20.9,0,0,0,.23,3.92,23.42,23.42,0,0,0,1.13,3.92A35.69,35.69,0,0,1,149,89.65a32.06,32.06,0,0,1,.67,3.92,26.48,26.48,0,0,1,0,3.92,27.72,27.72,0,0,1-.69,3.92,17.46,17.46,0,0,0-.28,7.88,17.94,17.94,0,0,1,.23,3.92,35.92,35.92,0,0,1-1.31,5.76c-0.64,2.1-1.31,4.69-1.49,5.76a21.23,21.23,0,0,1-1,3.56,15.71,15.71,0,0,1-1.59,2.93,15.76,15.76,0,0,0-1.57,2.81,17.34,17.34,0,0,0-.87,3.21,6.6,6.6,0,0,1-1.26,2.84,7.31,7.31,0,0,1-2.72,1.71,20.89,20.89,0,0,0-3.15,1.39,45.06,45.06,0,0,0-4.91,4,24.79,24.79,0,0,1-4.94,3.68,10.9,10.9,0,0,1-3.11.52,13.51,13.51,0,0,0-3.39.54,40.65,40.65,0,0,0-5.38,2.59c-2,1.12-4.54,2.41-5.62,2.86a29.4,29.4,0,0,1-4,1.27,28,28,0,0,1-4.07.55c-1.13.05-3,0-4.06,0a50,50,0,0,1-5.86-1c-2.12-.49-4.7-1.2-5.73-1.57a31,31,0,0,0-3.79-1.07c-1.05-.21-3.6-0.51-5.66-0.66s-4.48-.42-5.37-0.59c-0.57-.11-1.35-0.3-2.07-0.5,0.26,0.35.51,0.69,0.69,1L67,155A15.58,15.58,0,0,0,69,157.2a14.63,14.63,0,0,0,2.7,1.83,29.47,29.47,0,0,0,3,1.27,29,29,0,0,0,3.17.84c0.89,0.17,3.31.43,5.37,0.59s4.61,0.45,5.66.66a31,31,0,0,1,3.79,1.07c1,0.38,3.61,1.09,5.73,1.57a50,50,0,0,0,5.86,1c1.1,0.07,2.93.09,4.06,0a28,28,0,0,0,4.07-.55,29.4,29.4,0,0,0,4-1.27c1.08-.45,3.61-1.74,5.62-2.86a40.65,40.65,0,0,1,5.38-2.59,13.51,13.51,0,0,1,3.39-.54,10.9,10.9,0,0,0,3.11-.52,24.79,24.79,0,0,0,4.94-3.68,45.06,45.06,0,0,1,4.91-4,20.89,20.89,0,0,1,3.15-1.39,7.31,7.31,0,0,0,2.72-1.71,6.6,6.6,0,0,0,1.26-2.84,17.34,17.34,0,0,1,.87-3.21,15.76,15.76,0,0,1,1.57-2.81,15.71,15.71,0,0,0,1.59-2.93,21.23,21.23,0,0,0,1-3.56c0.18-1.07.85-3.66,1.49-5.76a35.92,35.92,0,0,0,1.31-5.76,17.94,17.94,0,0,0-.23-3.92,17.46,17.46,0,0,1,.28-7.88,27.72,27.72,0,0,0,.69-3.92,26.48,26.48,0,0,0,0-3.92A32.06,32.06,0,0,0,158.76,96.59Z" fill="url(#e)"/></svg>