<svg xmlns="http://www.w3.org/2000/svg" xmlns:xlink="http://www.w3.org/1999/xlink" width="200" height="200" viewBox="0 0 200 200"><defs><linearGradient id="a" x1="66.66" y1="149.65" x2="119.23" y2="31.57" gradientUnits="userSpaceOnUse"><stop offset="0" stop-color="#fdba56"/><stop offset=".02" stop-color="#fbb055"/><stop offset=".06" stop-color="#f79d54"/><stop offset=".1" stop-color="#f59253"/><stop offset=".15" stop-color="#f48e53"/><stop offset=".3" stop-color="#ed5e4e"/><stop offset=".47" stop-color="#683a96" stop-opacity=".5"/><stop offset=".64" stop-color="#ed872b"/><stop offset=".79" stop-color="#7b76b6"/><stop offset=".9" stop-color="#f15f4f"/><stop offset="1" stop-color="#fdba56"/></linearGradient><linearGradient id="c" x1="95.4" y1="38.4" x2="110.81" y2="3.79" xlink:href="#a"/><linearGradient id="b" x1="68.14" y1="52.17" x2="100.1" y2="123.96" gradientUnits="userSpaceOnUse"><stop offset="0" stop-color="#b7151b"/><stop offset=".02" stop-color="#c52229"/><stop offset=".06" stop-color="#d7333c"/><stop offset=".11" stop-color="#e23d47"/><stop offset=".15" stop-color="#e6404b"/><stop offset=".3" stop-color="#e98a7b"/><stop offset=".47" stop-color="#7c78b8"/><stop offset=".64" stop-color="#00b0b0"/><stop offset=".79" stop-color="#7b76b6"/><stop offset="1" stop-color="#e7322f"/></linearGradient><linearGradient id="d" x1="97.01" y1="74.29" x2="135.12" y2="159.89" xlink:href="#b"/><linearGradient id="e" x1="109.6" y1="20.11" x2="117.34" y2="37.49" xlink:href="#b"/></defs><title>_</title><path d="M77.32 50.89c-.07-.82-.12-2-.12-3.21v-1.5a4.86 4.86 0 0 0-.82-2.94A6 6 0 0 0 73.32 42c-1.35-.14-6.68-.33-11.65-.41-5.46-.09-10.25 0-11.29.13a28.24 28.24 0 0 0-4.21 1 6 6 0 0 0-2.53 1.6 3.66 3.66 0 0 0-.31 2.34 14.11 14.11 0 0 1 .2 4.08 16.77 16.77 0 0 1-1.2 4.13 20.11 20.11 0 0 0-1.19 3.66 17.46 17.46 0 0 0-.23 3.64 37.52 37.52 0 0 0 .48 3.79c.2 1 .64 2.76 1 3.79a23.87 23.87 0 0 1 .85 4.12 22.42 22.42 0 0 1-.06 4.13 21.69 21.69 0 0 0-.08 3.7 23 23 0 0 0 .7 3.71 11 11 0 0 1 .2 4.31A13.72 13.72 0 0 1 42.14 94a15.33 15.33 0 0 0-1.72 3.62 11.23 11.23 0 0 0-.28 3.53 38.43 38.43 0 0 0 .7 3.81c.26 1.06.8 2.81 1.21 3.89a16.23 16.23 0 0 1 .87 4.43 17.38 17.38 0 0 1-.63 4.57 14.32 14.32 0 0 0-.5 3.9 42.37 42.37 0 0 0 3 8.38c1.75 3.95 3.36 7.29 3.77 7.92a9.37 9.37 0 0 0 2 2.06 11.28 11.28 0 0 0 2.78 1.3 34.57 34.57 0 0 1 3.38 1.18h.1c1.06.5 4.45 2.64 7.91 5a46.75 46.75 0 0 0 7.62 4.49 11.8 11.8 0 0 0 3.28.05 22.09 22.09 0 0 1 2.83-.17h1.27a53.25 53.25 0 0 1 7.71 2 29.69 29.69 0 0 0 7.13 1.6 12.52 12.52 0 0 0 3.55-1 13.81 13.81 0 0 1 4.37-1.13 14.05 14.05 0 0 1 4.5.65 28.16 28.16 0 0 0 4 1 26 26 0 0 0 4 .21 19.14 19.14 0 0 0 3.64-.56 13.38 13.38 0 0 0 2.93-1.32c.82-.53 3.51-2 6-3.26s5.09-2.73 5.73-3.18 1.9-1.44 2.55-2 1.7-1.63 2.28-2.28a29.62 29.62 0 0 0 2-2.51c.49-.71 2-3.31 3.21-5.67a20.88 20.88 0 0 0 2.25-5.78 13.49 13.49 0 0 0-.66-3.68 33 33 0 0 1-1.11-4.4 24.26 24.26 0 0 1-.25-4.12 17.48 17.48 0 0 1 .78-4 22.33 22.33 0 0 1 1.92-4 8.88 8.88 0 0 0 1.17-3.34 8.42 8.42 0 0 0-.71-3.38 20.76 20.76 0 0 1-1.39-4.16 17.91 17.91 0 0 1-.23-4.19c.09-1.1.34-2.9.54-4s.63-2.9.94-4a27.69 27.69 0 0 0 .74-3.75 55.52 55.52 0 0 0-.42-7.62 52.15 52.15 0 0 1-.38-8.07 19.78 19.78 0 0 1 1.12-4.17 25.19 25.19 0 0 0 1.14-3.73 22.37 22.37 0 0 0 .22-3.72c0-.63-.1-2-.24-3.53-.08-.86-.17-1.77-.27-2.62a8.53 8.53 0 0 0-1.33-4.25 5.59 5.59 0 0 0-3.12.16 16.49 16.49 0 0 1-5.25.67 15.73 15.73 0 0 1-5-1.41 12.54 12.54 0 0 0-4.14-1.13 11.63 11.63 0 0 0-4.12.76 17.15 17.15 0 0 1-5.1 1.08 21.59 21.59 0 0 1-5.46-.75 5 5 0 0 0-3.11-.05 3.58 3.58 0 0 0-.71 2.51 36.42 36.42 0 0 0 .6 4.66 30.11 30.11 0 0 0 1.3 4.2 24.23 24.23 0 0 1 1.26 4.37 21.23 21.23 0 0 1 .19 4.39c-.09 1.1-.13 2.94-.09 4s.21 3 .37 4a34.22 34.22 0 0 1 .31 4.3 34.05 34.05 0 0 1-.36 4.3 36.64 36.64 0 0 1-1 4.29A41.65 41.65 0 0 1 112 88.7a11 11 0 0 0-.9 3.73 10.8 10.8 0 0 0 .82 3.73 31.7 31.7 0 0 1 1.51 4.31 27.72 27.72 0 0 1 .67 4.34 25.28 25.28 0 0 1-.21 4.34 27 27 0 0 1-1.11 4.29c-.42 1.14-1.14 2.88-1.61 3.86a36 36 0 0 1-1.79 3.24 17.07 17.07 0 0 1-2.14 2.63 13.57 13.57 0 0 1-2.57 1.87 20.33 20.33 0 0 1-3 1.21 29.19 29.19 0 0 1-3.45.78 62.67 62.67 0 0 0-6.33 1.75l-.86.26c-.45.13-4.49 1.24-6 .63a5 5 0 0 1-2.53-3.43 12 12 0 0 0-1.36-3.41 11 11 0 0 0-2.48-2.51 7.53 7.53 0 0 1-3.39-7.32 37.67 37.67 0 0 1 .7-4.24 42.27 42.27 0 0 1 1.3-4.25 36.27 36.27 0 0 0 1.19-4 32.81 32.81 0 0 0 .57-4c.07-1.12.09-2.93 0-4s-.21-2.93-.37-4-.33-3.09-.37-4.26 0-3.09.13-4.26a19.29 19.29 0 0 0-.15-3.9 21.74 21.74 0 0 0-1.13-3.93 13.47 13.47 0 0 1-.9-4.55 13.65 13.65 0 0 1 1-4.54 15.1 15.1 0 0 0 1-3.84 13.59 13.59 0 0 0-.3-3.81 35 35 0 0 1-.62-4.53z" fill="url(#a)"/><path d="M124.86 10.14a4.09 4.09 0 0 0-1.76-.73c-1.24-.23-6-.54-10.45-.67-2-.06-3.92-.08-5.53-.08-2.28 0-4 0-4.5.13a23 23 0 0 0-3.73 1 9.49 9.49 0 0 0-2.79 1.69 6.81 6.81 0 0 0-1.42 2.46 8.24 8.24 0 0 1-2 3.33 11.38 11.38 0 0 1-3.72 2 6.2 6.2 0 0 0-2.59 1.66 5.74 5.74 0 0 0-.79 2.85 13.14 13.14 0 0 1-.63 4 8.94 8.94 0 0 1-2.08 3.06 3.37 3.37 0 0 0-.93 1.26 2.21 2.21 0 0 0 .57.5 14.15 14.15 0 0 0 2.16.91A15.08 15.08 0 0 0 87 34a18.57 18.57 0 0 0 2.48 0 19.4 19.4 0 0 0 2.52-.3c.41-.09 1-.19 1.61-.27.47-.06.94-.11 1.31-.13a27.71 27.71 0 0 1 3.15 0 4.36 4.36 0 0 0 2.31-.71 11.13 11.13 0 0 0 2.35-2.85 16.61 16.61 0 0 1 3.21-3.86 15.47 15.47 0 0 1 4.32-2.36 17 17 0 0 0 3.74-1.83 15.48 15.48 0 0 0 2.87-2.87 43.71 43.71 0 0 1 3-3.63c.34-.36.78-.79 1.25-1.24.82-.79 1.72-1.6 2.4-2.17a4.76 4.76 0 0 0 1.34-1.64z" fill="url(#c)"/><path d="M78.31 50.8a33.53 33.53 0 0 0 .69 4.29 14.61 14.61 0 0 1 .33 4.15 16.08 16.08 0 0 1-1.12 4.15 12.76 12.76 0 0 0-1 4.15 12.5 12.5 0 0 0 .82 4.15 22.72 22.72 0 0 1 1.19 4.15 20.22 20.22 0 0 1 .24 4.16c-.1 1.14-.15 3-.12 4.15s.19 3 .36 4.15.34 3 .38 4.15 0 3-.05 4.15a33.45 33.45 0 0 1-.59 4.15 36.86 36.86 0 0 1-1.23 4.15 41 41 0 0 0-1.27 4.1 36.51 36.51 0 0 0-.67 4.1 6.53 6.53 0 0 0 3 6.4 12 12 0 0 1 2.73 2.8 13.07 13.07 0 0 1 1.5 3.75 4 4 0 0 0 1.92 2.71c.73.29 3 0 5.36-.67-.26-.28-.54-.56-.82-.82a9.49 9.49 0 0 0-1-.82 6.53 6.53 0 0 1-3-6.4 36.51 36.51 0 0 1 .67-4.1 41 41 0 0 1 1.26-4.13 36.86 36.86 0 0 0 1.23-4.15 33.45 33.45 0 0 0 .59-4.15c.07-1.14.1-3 .05-4.15s-.22-3-.38-4.15-.32-3-.36-4.15 0-3 .12-4.15a20.22 20.22 0 0 0-.14-4.15 22.72 22.72 0 0 0-1.19-4.15 12.5 12.5 0 0 1-.81-4.15 12.76 12.76 0 0 1 1-4.15 16.08 16.08 0 0 0 1.12-4.15 14.61 14.61 0 0 0-.37-4.17 33.53 33.53 0 0 1-.75-4.26 38.86 38.86 0 0 1-.08-4.57 5.78 5.78 0 0 0-1.08-3.66 6.84 6.84 0 0 0-3.73-1.58c-.63-.07-2.08-.14-3.94-.21h-1c.03 1.06.07 2.28.14 3.08z" fill="url(#b)"/><path d="M157.35 50.07a6.3 6.3 0 0 0-3.9.09 14.92 14.92 0 0 1-2.64.53c-.34 0-.68.07-1 .09.14 1.53.24 2.93.24 3.62a23.12 23.12 0 0 1-.37 3.92 26 26 0 0 1-1.19 3.92 18.93 18.93 0 0 0-1.05 3.92 51.22 51.22 0 0 0 .38 7.84 56.07 56.07 0 0 1 .42 7.83 28.62 28.62 0 0 1-.77 3.92c-.31 1.08-.72 2.84-.92 3.92s-.44 2.84-.53 3.92a17.08 17.08 0 0 0 .21 3.92 19.92 19.92 0 0 0 1.31 3.92 9.34 9.34 0 0 1 .8 3.88 9.81 9.81 0 0 1-1.32 3.81 21.56 21.56 0 0 0-1.82 3.77 16.55 16.55 0 0 0-.73 3.76 23.07 23.07 0 0 0 .24 3.92 31.79 31.79 0 0 0 1.07 4.24 14.5 14.5 0 0 1 .71 4c0 1-1.08 3.81-2.36 6.23s-2.75 5-3.26 5.77a30.59 30.59 0 0 1-2 2.61c-.61.69-1.68 1.75-2.37 2.36s-1.87 1.55-2.64 2.09-3.4 2-5.85 3.25-5.11 2.69-5.9 3.2a14.4 14.4 0 0 1-3.2 1.44 20.1 20.1 0 0 1-3.88.6 27 27 0 0 1-4.21-.21 29 29 0 0 1-4.19-1 13.2 13.2 0 0 0-4.12-.6 12.86 12.86 0 0 0-4 1 13.57 13.57 0 0 1-3.9 1.08 30.4 30.4 0 0 1-7.54-1.63 52.41 52.41 0 0 0-7.49-2 21.36 21.36 0 0 0-3.88.12 12.84 12.84 0 0 1-3.62-.06c-.9-.19-4.49-2.28-8-4.64s-6.77-4.44-7.74-4.9c.34.69.62 1.24.82 1.61l.21.36a10.25 10.25 0 0 0 2.23 2.33 12.12 12.12 0 0 0 3.09 1.45c.48.14 1.09.33 1.68.54s1.17.42 1.58.6a68.44 68.44 0 0 1 5.84 3.61l2 1.34c3.48 2.37 7.07 4.45 8 4.64a12.84 12.84 0 0 0 3.62.06 21.36 21.36 0 0 1 3.88-.12 52.41 52.41 0 0 1 7.49 2 30.4 30.4 0 0 0 7.52 1.65 13.57 13.57 0 0 0 3.9-1.08 12.86 12.86 0 0 1 4-1 13.2 13.2 0 0 1 4.12.6 29 29 0 0 0 4.19 1 27 27 0 0 0 4.21.21 20.1 20.1 0 0 0 3.88-.6 14.4 14.4 0 0 0 3.2-1.44c.79-.51 3.44-2 5.9-3.2s5.09-2.72 5.85-3.25 1.95-1.48 2.64-2.09 1.75-1.67 2.37-2.36a30.59 30.59 0 0 0 2-2.61c.51-.75 2-3.35 3.26-5.77s2.35-5.22 2.36-6.23a14.5 14.5 0 0 0-.71-4 31.79 31.79 0 0 1-1.07-4.24 23.07 23.07 0 0 1-.24-3.92 16.55 16.55 0 0 1 .73-3.76 21.56 21.56 0 0 1 1.82-3.77 9.81 9.81 0 0 0 1.32-3.81 9.34 9.34 0 0 0-.8-3.88 19.92 19.92 0 0 1-1.31-3.92 17.08 17.08 0 0 1-.21-3.92c.09-1.08.33-2.84.53-3.92s.61-2.84.92-3.92a28.62 28.62 0 0 0 .77-3.92 56.07 56.07 0 0 0-.42-7.83 51.22 51.22 0 0 1-.38-7.84 18.93 18.93 0 0 1 1.05-3.92 26 26 0 0 0 1.19-3.92 23.12 23.12 0 0 0 .37-3.92c0-1.08-.24-3.89-.51-6.26s-1.11-4.64-1.88-5.03z" fill="url(#d)"/><path d="M90.65 39a1.94 1.94 0 0 0 1.08 1.46 15.16 15.16 0 0 0 2.35 1 16 16 0 0 0 2.54.5 19.86 19.86 0 0 0 2.64.05 20.41 20.41 0 0 0 2.64-.37 21.25 21.25 0 0 1 2.76-.38 26.81 26.81 0 0 1 3 0 5.26 5.26 0 0 0 3-.89 12 12 0 0 0 2.64-3.16 15.73 15.73 0 0 1 3-3.59 14.6 14.6 0 0 1 4-2.18 17.86 17.86 0 0 0 4-2 16.43 16.43 0 0 0 3.1-3.09 42.65 42.65 0 0 1 2.94-3.53c.89-.94 2.49-2.44 3.56-3.33s1.83-2.08 1.71-2.64-1.29-1.23-2.59-1.48-5.5-.52-9.76-.66h-1.41c-.46.44-.88.86-1.21 1.21a42.65 42.65 0 0 0-2.94 3.53 16.43 16.43 0 0 1-3.1 3.09 17.86 17.86 0 0 1-4 2 14.6 14.6 0 0 0-4 2.18 15.73 15.73 0 0 0-3 3.59 12 12 0 0 1-2.64 3.16 5.26 5.26 0 0 1-3 .89 26.81 26.81 0 0 0-3 0c-.35 0-.8.07-1.24.13a6.73 6.73 0 0 1-.57 1.09 7.4 7.4 0 0 1-1.23 1.56A3.76 3.76 0 0 0 90.65 39z" fill="url(#e)"/></svg>