<svg xmlns="http://www.w3.org/2000/svg" xmlns:xlink="http://www.w3.org/1999/xlink" width="128.8" height="200" viewBox="0 0 128.8 200"><defs><linearGradient id="a" x1="37.3" y1="151.89" x2="90.52" y2="32.35" gradientUnits="userSpaceOnUse"><stop offset="0" stop-color="#fdba56"/><stop offset=".02" stop-color="#fbb055"/><stop offset=".06" stop-color="#f79d54"/><stop offset=".1" stop-color="#f59253"/><stop offset=".15" stop-color="#f48e53"/><stop offset=".3" stop-color="#ed5e4e"/><stop offset=".47" stop-color="#683a96" stop-opacity=".5"/><stop offset=".64" stop-color="#ed872b"/><stop offset=".79" stop-color="#7b76b6"/><stop offset=".9" stop-color="#f15f4f"/><stop offset="1" stop-color="#fdba56"/></linearGradient><linearGradient id="c" x1="60.51" y1="44.39" x2="75.96" y2="9.68" xlink:href="#a"/><linearGradient id="b" x1="39.91" y1="54.05" x2="70.79" y2="123.4" gradientUnits="userSpaceOnUse"><stop offset="0" stop-color="#b7151b"/><stop offset=".02" stop-color="#c52229"/><stop offset=".06" stop-color="#d7333c"/><stop offset=".11" stop-color="#e23d47"/><stop offset=".15" stop-color="#e6404b"/><stop offset=".3" stop-color="#e98a7b"/><stop offset=".47" stop-color="#7c78b8"/><stop offset=".64" stop-color="#00b0b0"/><stop offset=".79" stop-color="#7b76b6"/><stop offset="1" stop-color="#e7322f"/></linearGradient><linearGradient id="d" x1="68.52" y1="72.19" x2="107.89" y2="160.62" xlink:href="#b"/><linearGradient id="e" x1="83.83" y1="16.39" x2="96.73" y2="45.36" xlink:href="#b"/><linearGradient id="f" x1="56.13" y1="26.48" x2="63.38" y2="42.77" xlink:href="#b"/></defs><title>_</title><path d="M47.75 52.15a17.91 17.91 0 0 1 .19-2.25 21.07 21.07 0 0 1 .53-2.64 4.23 4.23 0 0 0-.11-2.82 4.71 4.71 0 0 0-2.77-1.06 21.1 21.1 0 0 0-4.71.3 21.16 21.16 0 0 0-4.43 1.58 16.61 16.61 0 0 1-4.89 1.53 14.81 14.81 0 0 1-4.94-.45 24.92 24.92 0 0 0-4.18-.79 18.83 18.83 0 0 0-3.83.18 9.72 9.72 0 0 0-3 1.15 7.73 7.73 0 0 0-2 2.15 8.91 8.91 0 0 0-.9 2.92 41.66 41.66 0 0 0 1.17 7.4c.67 3 1.3 6.85 1.13 8.23a18.79 18.79 0 0 1-1.12 4.17 14.17 14.17 0 0 0-.88 3.6 13.07 13.07 0 0 0 .35 3.57 20.87 20.87 0 0 1 .64 4.15 20.43 20.43 0 0 1-.4 4.15c-.22 1-.59 3.65-.81 5.75a48.61 48.61 0 0 0-.28 5.7c.06 1 .27 2.77.46 3.79s.43 2.93.5 4.08.09 3 0 4.19 0 3.85.12 6.12a21.91 21.91 0 0 0 1 5.68 16 16 0 0 0 2.16 3.33c.84 1 2 2.44 2.63 3.29a27.87 27.87 0 0 1 1.84 3 21.4 21.4 0 0 1 1.19 3 26.16 26.16 0 0 1 .7 3.36 14.21 14.21 0 0 0 .76 2.92 13.09 13.09 0 0 0 1.47 2.57 10.39 10.39 0 0 0 2.07 1.9 11.13 11.13 0 0 0 2.66 1.1 13.51 13.51 0 0 1 3.29 1.4l.11.07a13.64 13.64 0 0 1 2.59 2.3 5.81 5.81 0 0 0 2.08 1.48 6.42 6.42 0 0 0 2.69.09 14.07 14.07 0 0 1 3.85-.15 15.23 15.23 0 0 1 3.79 1.1 25.5 25.5 0 0 0 3.39 1.21 24.93 24.93 0 0 0 3.53.58 34.6 34.6 0 0 0 3.66 0 35.2 35.2 0 0 0 3.67-.45 14.75 14.75 0 0 1 2.53-.2 13.09 13.09 0 0 1 1.65.09 19 19 0 0 1 4.25 1.2 16.59 16.59 0 0 0 3.76 1 14.49 14.49 0 0 0 3.69-.14 34.17 34.17 0 0 1 4.21-.5 37.71 37.71 0 0 1 4.38.12 10.05 10.05 0 0 0 3.43-.34 7.29 7.29 0 0 0 2.5-1.71 12 12 0 0 1 3-2.4 11.33 11.33 0 0 1 3.68-1 4.68 4.68 0 0 0 2.32-.91 6.13 6.13 0 0 0 1.32-2.49 8.69 8.69 0 0 1 2-3.6A8.38 8.38 0 0 1 109 142a6.57 6.57 0 0 0 2.56-1.18 17.45 17.45 0 0 0 2-5.32 45.59 45.59 0 0 1 2-6.61 38.25 38.25 0 0 1 2-3.46 12.27 12.27 0 0 0 1.42-3.28 11.92 11.92 0 0 0 .12-3.53 19.12 19.12 0 0 1 0-4.26 19.75 19.75 0 0 1 1.08-4.16 9.94 9.94 0 0 0 .59-3.46 11 11 0 0 0-1-3.51 18.5 18.5 0 0 1-1.55-4.23 15.74 15.74 0 0 1-.12-4.23 20.8 20.8 0 0 0 .08-3.7 22 22 0 0 0-.74-3.71 12.77 12.77 0 0 1-.45-4.31 14.2 14.2 0 0 1 1.3-4.27 13.39 13.39 0 0 0 1.15-3.59 11.49 11.49 0 0 0-.22-3.54 40.76 40.76 0 0 1-.78-4 39.12 39.12 0 0 1-.27-4 40.05 40.05 0 0 1 .23-4c.13-1.11.46-2.92.74-4a28.2 28.2 0 0 0 .59-3.79c0-.71.06-1.77 0-2.77 0-.41 0-.79-.07-1.11a5.5 5.5 0 0 0-1.18-2.74 7.78 7.78 0 0 0-3.13-1.58 25.3 25.3 0 0 0-4.44-.56 22.82 22.82 0 0 0-4.36.43 31.33 31.33 0 0 1-4.72.57 31.87 31.87 0 0 1-4.73-.31c-1.23-.19-3.29-.4-4.61-.46s-3.55-.05-5 0a4 4 0 0 0-2.57.94 4.4 4.4 0 0 0 .42 2.73 14.25 14.25 0 0 1 1.13 5.15A11.84 11.84 0 0 1 85.11 57a19.66 19.66 0 0 0-1.62 3.9 47.58 47.58 0 0 0-.46 8c0 3.46-.19 9.08-.47 12.53s-.43 8.93-.34 12.34.29 7.09.44 8.19a37.54 37.54 0 0 0 .83 4 24.28 24.28 0 0 1 .71 4.34 22.48 22.48 0 0 1-.27 4.3c-.2 1.09-.43 2.87-.51 4s-.14 2.89-.12 4a8 8 0 0 1-1 4c-.86 1.3-5.13 3.1-7.27 3.87-2.94 1.06-6.87 2.13-8.38 2a14.2 14.2 0 0 1-4.65-1.52 64.44 64.44 0 0 0-3.11-1.55l-.83-.4c-1-.44-2.72-1-3.69-1.32a9.71 9.71 0 0 1-3.46-1.93 9.61 9.61 0 0 1-2.07-3.38 30.93 30.93 0 0 1-.94-3.87 72.86 72.86 0 0 1-.23-8.23 103.58 103.58 0 0 1 1.71-14.61c1-5 1.29-9.17 1.11-9.95a15.56 15.56 0 0 0-1.71-3.84 12.17 12.17 0 0 1-1.68-4.57 10.7 10.7 0 0 1 .83-4.66 25.15 25.15 0 0 0 1.34-4 21.62 21.62 0 0 0 .44-3.93 31.33 31.33 0 0 0-.32-4 33.88 33.88 0 0 0-1-4 17.85 17.85 0 0 1-.64-4.56z" fill="url(#a)"/><path d="M82.44 17.18A16.31 16.31 0 0 1 80.85 14a7.5 7.5 0 0 0-1.63-2.69 5 5 0 0 0-2.41-.94 10.46 10.46 0 0 0-3.09.37 12.44 12.44 0 0 0-3 1.53 9.79 9.79 0 0 1-3.59 1.59 8 8 0 0 1-3.7-.47 11.52 11.52 0 0 0-2.75-.71 8.35 8.35 0 0 0-2.46.25A7.1 7.1 0 0 0 56.15 14a10.68 10.68 0 0 0-1.78 2.25 11.21 11.21 0 0 1-2.59 2.92 14.51 14.51 0 0 1-3.78 1.9 14.92 14.92 0 0 0-3.29 1.54 37.62 37.62 0 0 0-4.9 5.62 21.76 21.76 0 0 0-3.13 5.2 2.83 2.83 0 0 0 1.38 1 24.22 24.22 0 0 0 3.27.8 44.85 44.85 0 0 0 5.67.07h.5c2.4-.11 4.43-.29 5-.4a18.43 18.43 0 0 0 2.68-.9 22.31 22.31 0 0 0 2.33-1.1A10.08 10.08 0 0 0 59 31.85a3.11 3.11 0 0 0 .66-1.11 5.92 5.92 0 0 0 .12-1.74 4.88 4.88 0 0 1 .43-2.65 4.05 4.05 0 0 1 2.05-1.6 5.52 5.52 0 0 0 1.52-.88A6.84 6.84 0 0 0 65 22.28c.23-.43 1.06-1.79 2.16-1.48.84.25 1.21 1.51 1.35 2.2a4.28 4.28 0 0 0 .74 1.65 3.29 3.29 0 0 0 1.38.74 8.62 8.62 0 0 1 2.35.88 5.75 5.75 0 0 1 1.65 1.61c.27.43.81 1.42 1.22 2.24A4.11 4.11 0 0 0 77 31.59a6.24 6.24 0 0 0 1.77.37h.6a22.35 22.35 0 0 1 2.26.34 26.4 26.4 0 0 1 2.94.86c.74.27 2.66.84 4.18 1.24a12.52 12.52 0 0 0 3.5.51 2.66 2.66 0 0 0 2.12-2.12 6.93 6.93 0 0 0-.08-2.21 13.35 13.35 0 0 0-1-2.69 18.38 18.38 0 0 0-1.81-2.7A24.92 24.92 0 0 0 89 22.73a27.65 27.65 0 0 0-3-2.14 13.42 13.42 0 0 1-3.13-2.78c-.14-.18-.28-.4-.43-.63z" fill="url(#c)"/><path d="M58.37 117.25a102.69 102.69 0 0 1 1.69-14.44c.88-4.56 1.37-9.23 1.1-10.37a16.51 16.51 0 0 0-1.83-4.15 11.2 11.2 0 0 1-1.53-4.15 9.73 9.73 0 0 1 .75-4.14A26.07 26.07 0 0 0 60 75.85a22.55 22.55 0 0 0 .47-4.15 32.27 32.27 0 0 0-.33-4.15 34.69 34.69 0 0 0-1-4.15 17 17 0 0 1-.65-4.31 20.94 20.94 0 0 1 .68-4.63 5 5 0 0 0-.27-3.68 5.42 5.42 0 0 0-3.51-1.46 22.17 22.17 0 0 0-5 .32l-.39.1c-.33.08-.68.18-1.06.29a16.78 16.78 0 0 0-.18 2.12 17 17 0 0 0 .65 4.31 34.69 34.69 0 0 1 1 4.15 32.27 32.27 0 0 1 .33 4.15 22.55 22.55 0 0 1-.47 4.15 26.07 26.07 0 0 1-1.41 4.15 9.73 9.73 0 0 0-.75 4.15 11.2 11.2 0 0 0 1.53 4.15 16.51 16.51 0 0 1 1.83 4.15c.28 1.14-.22 5.81-1.1 10.37a102.69 102.69 0 0 0-1.69 14.44 72 72 0 0 0 .22 8.05 29.48 29.48 0 0 0 .91 3.71 8.59 8.59 0 0 0 1.81 3 8.68 8.68 0 0 0 3.05 1.69c1 .29 2.72.9 3.8 1.36l.89.4c-.11-.38-.22-.81-.33-1.24-.17-.7-.33-1.4-.42-1.95a72 72 0 0 1-.24-8.09z" fill="url(#b)"/><path d="M130.28 109.72a17.66 17.66 0 0 1-1.37-3.92 14.88 14.88 0 0 1-.11-3.92 21.57 21.57 0 0 0 .08-3.92 22.86 22.86 0 0 0-.78-3.92 11.83 11.83 0 0 1-.41-3.92 13.3 13.3 0 0 1 1.2-3.92 14.42 14.42 0 0 0 1.25-3.92 12.54 12.54 0 0 0-.25-3.92c-.27-1.08-.61-2.84-.75-3.92a38.1 38.1 0 0 1-.26-3.92 38.6 38.6 0 0 1 .23-3.92c.13-1.08.45-2.84.71-3.92a28.76 28.76 0 0 0 .62-4 29.57 29.57 0 0 0-.05-4 6.41 6.41 0 0 0-1.46-3.34 8.75 8.75 0 0 0-3.62-1.85 26.66 26.66 0 0 0-3.56-.53l-1-.06v2.88a28.76 28.76 0 0 1-.62 4c-.26 1.08-.58 2.84-.71 3.92a38.6 38.6 0 0 0-.23 3.92 38.1 38.1 0 0 0 .26 3.92c.14 1.08.48 2.84.75 3.92a12.54 12.54 0 0 1 .25 3.92 14.42 14.42 0 0 1-1.25 3.92 13.3 13.3 0 0 0-1.2 3.92 11.83 11.83 0 0 0 .41 3.92 22.86 22.86 0 0 1 .78 3.92 21.57 21.57 0 0 1-.08 3.92 14.88 14.88 0 0 0 .11 3.92 17.66 17.66 0 0 0 1.37 3.92 11.85 11.85 0 0 1 1.11 3.91 10.83 10.83 0 0 1-.66 3.88 19 19 0 0 0-1 3.91 18.31 18.31 0 0 0 0 4 12.92 12.92 0 0 1-.14 3.89 13.26 13.26 0 0 1-1.56 3.61 36.78 36.78 0 0 0-1.92 3.35 44.8 44.8 0 0 0-1.91 6.4c-.62 2.63-1.63 5.25-2.24 5.82a7.45 7.45 0 0 1-3 1.43 7.36 7.36 0 0 0-3.13 1.56 7.67 7.67 0 0 0-1.68 3.12 7 7 0 0 1-1.62 3 5.63 5.63 0 0 1-2.93 1.17 10.35 10.35 0 0 0-3.3.89 11 11 0 0 0-2.73 2.17 8.26 8.26 0 0 1-2.92 2 10.81 10.81 0 0 1-3.85.39 36.78 36.78 0 0 0-4.24-.11 33.14 33.14 0 0 0-4.07.48 15.41 15.41 0 0 1-4 .15 17.6 17.6 0 0 1-4-1.11 18.2 18.2 0 0 0-4-1.13 14.75 14.75 0 0 0-3.86.1 35.83 35.83 0 0 1-3.8.46 34.79 34.79 0 0 1-3.79 0 25.77 25.77 0 0 1-3.71-.61 26 26 0 0 1-3.55-1.26 14.42 14.42 0 0 0-3.49-1 13.19 13.19 0 0 0-3.53.14 7.44 7.44 0 0 1-3.21-.12 6.71 6.71 0 0 1-2.53-1.79 12.81 12.81 0 0 0-2.39-2.12 14.3 14.3 0 0 0 1.36 2.23 11.29 11.29 0 0 0 2.32 2.12 9.07 9.07 0 0 0 1 .53 12 12 0 0 0 2 .73 12.54 12.54 0 0 1 3 1.28 12.75 12.75 0 0 1 2.38 2.07 6.71 6.71 0 0 0 2.53 1.79 7.44 7.44 0 0 0 3.21.12 13.19 13.19 0 0 1 3.53-.14 14.42 14.42 0 0 1 3.49 1 26 26 0 0 0 3.55 1.26A25.77 25.77 0 0 0 65 163a34.79 34.79 0 0 0 3.79 0 35.83 35.83 0 0 0 3.8-.46 14.75 14.75 0 0 1 3.86-.1 18.2 18.2 0 0 1 4 1.13 17.6 17.6 0 0 0 4 1.11 15.41 15.41 0 0 0 4-.15 33.14 33.14 0 0 1 4.07-.48 36.78 36.78 0 0 1 4.24.11 10.81 10.81 0 0 0 3.85-.39 8.26 8.26 0 0 0 2.92-2 11 11 0 0 1 2.73-2.17 10.35 10.35 0 0 1 3.3-.89 5.63 5.63 0 0 0 2.93-1.17 7 7 0 0 0 1.62-3 7.67 7.67 0 0 1 1.68-3.12 7.36 7.36 0 0 1 3.13-1.56 7.45 7.45 0 0 0 3-1.43c.62-.57 1.63-3.19 2.24-5.82a44.8 44.8 0 0 1 1.91-6.4 36.78 36.78 0 0 1 1.92-3.35 13.26 13.26 0 0 0 1.56-3.61 12.92 12.92 0 0 0 .14-3.89 18.31 18.31 0 0 1 0-4 19 19 0 0 1 1-3.91 10.83 10.83 0 0 0 .66-3.88 11.85 11.85 0 0 0-1.07-3.85z" fill="url(#d)"/><path d="M83.67 17.2a12.5 12.5 0 0 0 2.86 2.54A28.38 28.38 0 0 1 89.62 22a26 26 0 0 1 2.6 2.64 19.41 19.41 0 0 1 1.92 2.88 14.34 14.34 0 0 1 1.07 2.94A7.76 7.76 0 0 1 95.3 33a4.38 4.38 0 0 1-1 1.9 4.4 4.4 0 0 1-1.88 1 12.69 12.69 0 0 1-4-.52c-1.57-.41-3.49-1-4.27-1.27a25.44 25.44 0 0 0-2.8-.82 21.29 21.29 0 0 0-2.12-.29 3.91 3.91 0 0 0 .91.34 7.76 7.76 0 0 1 2 .76 4.69 4.69 0 0 1 .86.72 3.77 3.77 0 0 1 .47.57c.27.42.81 1.42 1.2 2.22a4.6 4.6 0 0 0 1.54 1.84 7 7 0 0 0 2.15.46 20.8 20.8 0 0 1 2.7.37 25.44 25.44 0 0 1 2.8.82l.82.28c.94.3 2.3.69 3.46 1a12.69 12.69 0 0 0 4 .52 4.4 4.4 0 0 0 1.88-1l.08-.1a4.42 4.42 0 0 0 .9-1.8 7.76 7.76 0 0 0-.09-2.61 14.34 14.34 0 0 0-1.07-2.94 19.41 19.41 0 0 0-1.92-2.88 26 26 0 0 0-2.6-2.64 28.38 28.38 0 0 0-3.1-2.23 12.5 12.5 0 0 1-2.86-2.54 14.63 14.63 0 0 1-1.87-3.57 8.46 8.46 0 0 0-1.92-3.12 5.88 5.88 0 0 0-3-1.19 11.07 11.07 0 0 0-2.24.15 9.62 9.62 0 0 0-1.06.22c.14.2.27.35.4.55z" fill="url(#e)"/><path d="M49.6 42.86c.49.11 1 .21 1.32.26a45.73 45.73 0 0 0 5.86.08 56.13 56.13 0 0 0 5.66-.44 19.2 19.2 0 0 0 2.83-.84 23.51 23.51 0 0 0 2.46-1.16 11 11 0 0 0 1.71-1.23 4 4 0 0 0 .93-1.53 6.79 6.79 0 0 0 .11-2.17 3.94 3.94 0 0 1 .3-2 3.11 3.11 0 0 1 1.5-1.15 6.45 6.45 0 0 0 1.87-1.08l.1-.1a7 7 0 0 0 .75-.9c-.39-.79-.91-1.75-1.17-2.16a4.78 4.78 0 0 0-1.32-1.28 7.76 7.76 0 0 0-2-.76 4.18 4.18 0 0 1-1.92-1 5.18 5.18 0 0 1-1-2.13 2.29 2.29 0 0 0-.68-1.46 1.54 1.54 0 0 0-1 1 7.81 7.81 0 0 1-1.4 1.83 6.45 6.45 0 0 1-1.87 1.08 3.11 3.11 0 0 0-1.5 1.15 3.94 3.94 0 0 0-.3 2 6.79 6.79 0 0 1-.19 2.13 4 4 0 0 1-.93 1.57A11 11 0 0 1 58 33.81 23.51 23.51 0 0 1 55.55 35a19.2 19.2 0 0 1-2.83.84c-.72.14-3 .32-5.15.42-.24.35-.45.69-.66 1-1 1.57-1.59 2.85-1.5 3.26a1.91 1.91 0 0 0 .61.9 4.16 4.16 0 0 0 1.46.86c.6.2 1.39.41 2.12.58z" fill="url(#f)"/></svg>