<svg xmlns="http://www.w3.org/2000/svg" xmlns:xlink="http://www.w3.org/1999/xlink" width="200" height="200" viewBox="0 0 200 200"><defs><linearGradient id="a" x1="106.55" y1="33.53" x2="116.56" y2="11.05" gradientUnits="userSpaceOnUse"><stop offset="0" stop-color="#fdba56"/><stop offset="0.02" stop-color="#fbb055"/><stop offset="0.06" stop-color="#f79d54"/><stop offset="0.1" stop-color="#f59253"/><stop offset="0.15" stop-color="#f48e53"/><stop offset="0.3" stop-color="#ed5e4e"/><stop offset="0.47" stop-color="#683a96" stop-opacity="0.5"/><stop offset="0.64" stop-color="#ed872b"/><stop offset="0.79" stop-color="#7b76b6"/><stop offset="0.9" stop-color="#f15f4f"/><stop offset="1" stop-color="#fdba56"/></linearGradient><linearGradient id="b" x1="62.99" y1="151.56" x2="117.12" y2="29.98" xlink:href="#a"/><linearGradient id="c" x1="72.31" y1="35.33" x2="83.75" y2="9.64" xlink:href="#a"/><linearGradient id="d" x1="119.19" y1="23.61" x2="127.45" y2="42.16" gradientUnits="userSpaceOnUse"><stop offset="0" stop-color="#b7151b"/><stop offset="0.02" stop-color="#c52229"/><stop offset="0.06" stop-color="#d7333c"/><stop offset="0.11" stop-color="#e23d47"/><stop offset="0.15" stop-color="#e6404b"/><stop offset="0.3" stop-color="#e98a7b"/><stop offset="0.47" stop-color="#7c78b8"/><stop offset="0.64" stop-color="#00b0b0"/><stop offset="0.79" stop-color="#7b76b6"/><stop offset="1" stop-color="#e7322f"/></linearGradient><linearGradient id="e" x1="69.6" y1="55.74" x2="100.02" y2="124.08" xlink:href="#d"/><linearGradient id="f" x1="97.69" y1="70.32" x2="137.19" y2="159.05" xlink:href="#d"/><linearGradient id="g" x1="82.86" y1="20.92" x2="92.5" y2="42.58" xlink:href="#d"/></defs><title>_</title><path d="M98.76,29.32a1.89,1.89,0,0,0,.85,1.12,4.75,4.75,0,0,0,2.26-.56,25.29,25.29,0,0,1,3.74-1.48,18.23,18.23,0,0,1,3.18-.54l0.42,0h0.28a19.63,19.63,0,0,1,3.19.28,21.49,21.49,0,0,1,3.44,1c0.87,0.35,2.37.87,3.28,1.14s2.52,0.65,3.53.85a3.93,3.93,0,0,0,1.46,0,2.66,2.66,0,0,0-.26-1,8.15,8.15,0,0,1-.7-3.47,7,7,0,0,1,1.23-3.18,11.07,11.07,0,0,0,1.25-2.25,7.23,7.23,0,0,0,.3-1.3,5.69,5.69,0,0,0,.08-0.85A9.13,9.13,0,0,0,126,17a7.93,7.93,0,0,0-.87-1.77,2.92,2.92,0,0,0-1.18-.89,4.84,4.84,0,0,0-1.91,0,10.67,10.67,0,0,1-3.27.09,14.78,14.78,0,0,1-3.41-1.07,17.76,17.76,0,0,0-3-1,14.33,14.33,0,0,0-3-.28,32.74,32.74,0,0,1-3.6-.16c-1-.11-2.84-0.41-4-0.67a4.27,4.27,0,0,0-2,0,8,8,0,0,0,.08,3.08c0.26,1.37.5,2.9,0.63,3.89,0,0.35.07,0.63,0.08,0.82a11.42,11.42,0,0,1-.27,2.79,13.69,13.69,0,0,1-1.06,2.74,7.27,7.27,0,0,0-.68,2.25,8,8,0,0,0,.09,1.64A7.59,7.59,0,0,0,98.76,29.32Z" fill="url(#a)"/><path d="M77.89,51.26a23.87,23.87,0,0,0-1-3.53,4.59,4.59,0,0,0-1.6-2,5.36,5.36,0,0,0-2.73-.29,19.6,19.6,0,0,1-4.42.12,25.4,25.4,0,0,1-4.63-1,32.75,32.75,0,0,0-4.38-1.09,30.87,30.87,0,0,0-4.36-.3,76.58,76.58,0,0,1-7.64-.58,14.72,14.72,0,0,0-5.62.16c-0.29.58-.59,3.22-0.25,6.86a64.7,64.7,0,0,1,.38,8.83,32.23,32.23,0,0,1-.84,4.05A10.64,10.64,0,0,0,40.5,66a12.47,12.47,0,0,0,1.18,3.56,30.61,30.61,0,0,1,1.75,4.07,25.57,25.57,0,0,1,.92,4.1,25.29,25.29,0,0,1,.08,4.1,26.32,26.32,0,0,1-.72,4.09A28.77,28.77,0,0,0,43,89.64a27.18,27.18,0,0,0-.07,3.74,24.26,24.26,0,0,1-.15,4.11,26.36,26.36,0,0,1-1,4.1,15.55,15.55,0,0,0-.7,3.66A16,16,0,0,0,41.5,109a36.88,36.88,0,0,1,.78,4.24,36.4,36.4,0,0,1,.16,4.29c0,1.12,0,2.93.09,4s0.33,2.93.54,4a23.78,23.78,0,0,0,1,3.59A16.29,16.29,0,0,0,45.63,132c0.51,0.71,1.43,1.86,2,2.51s1.58,1.69,2.21,2.26,1.71,1.69,2.31,2.38,2.33,3.06,3.91,5.37a43,43,0,0,0,3.85,5,14.4,14.4,0,0,0,2.49,1.72,12,12,0,0,0,2.82,1c0.2,0,.43.06,0.68,0.08a13.52,13.52,0,0,0,2.42,0c1-.11,3.52-0.22,5.61-0.25h0.28a22.49,22.49,0,0,1,5.64.63,19.24,19.24,0,0,1,3.88,1.94,21.67,21.67,0,0,0,3.47,1.82,18.66,18.66,0,0,0,3.58.91,22.38,22.38,0,0,0,3.73.08,24.93,24.93,0,0,0,3.81-.68c1.09-.3,2.83-0.87,3.88-1.27s2.74-1.13,3.76-1.63a16.73,16.73,0,0,1,4.19-1.31,17.09,17.09,0,0,1,4.42,0c1.14,0.18,2.92.39,3.95,0.46s2.63,0.09,3.55,0a5.74,5.74,0,0,0,2.5-.84,7.59,7.59,0,0,0,1.85-2.36,14.28,14.28,0,0,1,2.24-3.26,10.56,10.56,0,0,1,3-2,7,7,0,0,0,2.12-1.45,7.25,7.25,0,0,0,1.23-2.31,14.92,14.92,0,0,1,1.4-3.16,13.69,13.69,0,0,1,2.19-2.57,19.66,19.66,0,0,0,2-2.11,51.31,51.31,0,0,0,3.14-5.81,82.41,82.41,0,0,0,3.48-8.47,17.29,17.29,0,0,0,.94-5.34,13,13,0,0,0-1.18-3.61,10.24,10.24,0,0,1-1.06-4.47,10.73,10.73,0,0,1,1.48-4.42,7.05,7.05,0,0,0,1-3.33A7.84,7.84,0,0,0,147,94.16a17.41,17.41,0,0,1-2.2-4.21,12.68,12.68,0,0,1-.47-4.32,28.23,28.23,0,0,1,.77-4.09,32.24,32.24,0,0,1,1.52-4.07,32.83,32.83,0,0,0,1.43-3.78,28.38,28.38,0,0,0,.78-3.76,18.31,18.31,0,0,0,0-3.67,20.19,20.19,0,0,0-.93-3.69,18.16,18.16,0,0,1-.95-4.19,17,17,0,0,1,.3-4.21,31.52,31.52,0,0,0,.54-3.86c0-.69.06-1.75,0-2.76,0-.47,0-0.92-0.06-1.3a5.57,5.57,0,0,0-1.18-2.85,7.67,7.67,0,0,0-3.22-1.58,16.36,16.36,0,0,0-4.45-.22,16.82,16.82,0,0,0-4.31,1.28,22.81,22.81,0,0,1-4.8,1.59,19.37,19.37,0,0,1-4.84.16,35.46,35.46,0,0,0-4.17-.2,25.57,25.57,0,0,0-3.68.42,6.28,6.28,0,0,0-2.4,1.11c-0.32.5-1.32,4.42-2.11,10a97.89,97.89,0,0,0-1.15,11.46,24.44,24.44,0,0,0,.81,3.95,15.35,15.35,0,0,1,.59,4.49,16.05,16.05,0,0,1-1,4.48,29.34,29.34,0,0,0-1.24,4,25.84,25.84,0,0,0-.47,4,15.73,15.73,0,0,0,.51,3.85,20.33,20.33,0,0,0,1.72,3.91,10.59,10.59,0,0,1,1.36,4.66,10.68,10.68,0,0,1-1.41,4.66,22,22,0,0,0-1.79,3.87,37.68,37.68,0,0,0-.57,7.51c0,2.11-.19,6.42-1,7.6s-4.8,2.73-6.79,3.38a45.74,45.74,0,0,1-7.75,1.93,23.4,23.4,0,0,1-4.35-.26l-0.19,0a25,25,0,0,1-4.21-1.18,16.26,16.26,0,0,1-3.37-1.93,9,9,0,0,1-2.26-2.84,9.33,9.33,0,0,1-.65-3.61,29.86,29.86,0,0,0-.11-3.41,33.24,33.24,0,0,0-.59-3.5,38.25,38.25,0,0,0-1.12-3.67c-0.39-1.05-1.15-2.82-1.69-3.94A27.3,27.3,0,0,1,74.3,101a23.33,23.33,0,0,1-.6-4.37A30.32,30.32,0,0,1,74,92.27c0.18-1.17,1.08-4.95,2-8.41a35.79,35.79,0,0,0,1.43-7.93,16.44,16.44,0,0,0-1-3.86,13.13,13.13,0,0,1-.94-4.56A13.35,13.35,0,0,1,76.5,63a24.41,24.41,0,0,0,1.34-4,21,21,0,0,0,.42-3.92A27.81,27.81,0,0,0,78,51.73C77.95,51.56,77.92,51.4,77.89,51.26Z" fill="url(#b)"/><path d="M89.78,12.33a5.39,5.39,0,0,0-1.75.45,10.91,10.91,0,0,1-4.06.82,9.7,9.7,0,0,1-3.84-1.15,16.22,16.22,0,0,0-3-1.31,12.68,12.68,0,0,0-3-.4,15.1,15.1,0,0,0-2.9.38,14.35,14.35,0,0,0-2.67,1,5,5,0,0,0-1.51,1.22,1.33,1.33,0,0,0-.05.9,5.34,5.34,0,0,1,.25,2.59,9.07,9.07,0,0,1-1.1,2.7,11.34,11.34,0,0,0-1,2.25A8.57,8.57,0,0,0,64.86,24a27,27,0,0,1-.09,2.91c-0.08.87-.29,2.41-0.48,3.43a2.29,2.29,0,0,0,.17,1.49,4.4,4.4,0,0,0,2.06-.08c1.16-.3,2.95-0.68,4-0.85,0.83-.13,2-0.27,3-0.34l0.59,0h0.42a18.49,18.49,0,0,1,3,.27,20.39,20.39,0,0,1,3.45,1,12.66,12.66,0,0,0,3.06.76,14.08,14.08,0,0,0,3.28-.2A3.2,3.2,0,0,0,89,31.6a2.63,2.63,0,0,0-.38-1.51A20.26,20.26,0,0,1,87.19,27a12.36,12.36,0,0,1-.56-2.92,11.73,11.73,0,0,1,.3-2.78A14.11,14.11,0,0,1,88,18.57h0c0.14-.26.3-0.6,0.46-1,0.26-.58.49-1.15,0.63-1.56a24.88,24.88,0,0,0,.73-2.84A1.83,1.83,0,0,0,89.78,12.33Z" fill="url(#c)"/><path d="M136.56,28.48A8.37,8.37,0,0,0,137,26a10,10,0,0,0-.37-2.35,8.88,8.88,0,0,0-1-2,3.85,3.85,0,0,0-1.7-1.27,5.7,5.7,0,0,0-2.42,0,9.55,9.55,0,0,1-2.9.08l-0.42-.09c-0.3-.07-0.63-0.15-1-0.25a8.14,8.14,0,0,1-.35,1.5,11.93,11.93,0,0,1-1.39,2.5,6.05,6.05,0,0,0-1,2.66,7.28,7.28,0,0,0,.62,3,2.39,2.39,0,0,1,.15,2.17,3.35,3.35,0,0,1-2.45.25c-1-.2-2.66-0.59-3.62-0.87s-2.48-.81-3.38-1.17a20.71,20.71,0,0,0-3.25-1,18.44,18.44,0,0,0-3.25-.26l-0.37,0c-0.1.32-.23,0.69-0.37,1A11.22,11.22,0,0,1,108,31a8.21,8.21,0,0,0-.79,2.64,9.78,9.78,0,0,0,.3,2.91,2.73,2.73,0,0,0,1.56,1.82,5.32,5.32,0,0,0,3-.63,24,24,0,0,1,3.56-1.41,16.71,16.71,0,0,1,3.36-.53,18.44,18.44,0,0,1,3.25.26,20.71,20.71,0,0,1,3.25,1c0.89,0.36,2.41.89,3.38,1.17s2.59,0.67,3.62.87a3.35,3.35,0,0,0,2.45-.25,2.39,2.39,0,0,0-.15-2.17,7.28,7.28,0,0,1-.62-3,6.05,6.05,0,0,1,1-2.66A11.93,11.93,0,0,0,136.56,28.48Z" fill="url(#d)"/><path d="M79,51.57a28.71,28.71,0,0,1,.3,3.51,22,22,0,0,1-.44,4.15,25.43,25.43,0,0,1-1.41,4.15,12.4,12.4,0,0,0-1,4.15,12.19,12.19,0,0,0,.86,4.15,17.36,17.36,0,0,1,1.11,4.15c0.12,1.14-.53,4.87-1.46,8.3s-1.82,7.16-2,8.3a29.37,29.37,0,0,0-.27,4.15,22.23,22.23,0,0,0,.57,4.15,26.24,26.24,0,0,0,1.54,4.15c0.56,1.14,1.34,3,1.73,4a39,39,0,0,1,1.15,3.79,34.09,34.09,0,0,1,.61,3.63,30.62,30.62,0,0,1,.11,3.55A8.35,8.35,0,0,0,81,123a8,8,0,0,0,2,2.47,15.42,15.42,0,0,0,3.12,1.79,23.92,23.92,0,0,0,4,1.12l0.17,0a9.09,9.09,0,0,1-.12-1c0-.2,0-0.41,0-0.59a30.62,30.62,0,0,0-.11-3.55,34.09,34.09,0,0,0-.61-3.63,39,39,0,0,0-1.15-3.79c-0.4-1.07-1.18-2.89-1.73-4A26.24,26.24,0,0,1,85,107.66a22.23,22.23,0,0,1-.57-4.15,29.37,29.37,0,0,1,.27-4.15c0.17-1.14,1.07-4.87,2-8.3s1.58-7.16,1.46-8.3A17.36,17.36,0,0,0,87,78.62a12.19,12.19,0,0,1-.86-4.15,12.4,12.4,0,0,1,1-4.15,25.43,25.43,0,0,0,1.41-4.15A22,22,0,0,0,89,62a27.81,27.81,0,0,0-.38-4,24.69,24.69,0,0,0-1.06-3.72,5.54,5.54,0,0,0-2.06-2.51,6.25,6.25,0,0,0-3.36-.39,16.34,16.34,0,0,1-2.13.17H79Z" fill="url(#e)"/><path d="M155.82,88.76a31.23,31.23,0,0,1,1.46-3.92,33.65,33.65,0,0,0,1.49-3.92,29.24,29.24,0,0,0,.81-3.92,19.22,19.22,0,0,0,0-3.92,21.06,21.06,0,0,0-1-3.92,17.26,17.26,0,0,1-.89-3.92,16.13,16.13,0,0,1,.28-3.92,32.46,32.46,0,0,0,.57-4,36,36,0,0,0,0-4.19A6.47,6.47,0,0,0,157,49.66a8.63,8.63,0,0,0-3.73-1.86,17.52,17.52,0,0,0-3.47-.31c-0.35,0-.69,0-1,0,0,1,0,2.09,0,2.85a32.46,32.46,0,0,1-.57,4,16.13,16.13,0,0,0-.28,3.92,17.26,17.26,0,0,0,.89,3.92,21.06,21.06,0,0,1,1,3.92,19.22,19.22,0,0,1,0,3.92,29.24,29.24,0,0,1-.81,3.92,33.65,33.65,0,0,1-1.49,3.92,31.23,31.23,0,0,0-1.46,3.92,27.1,27.1,0,0,0-.74,3.92,11.76,11.76,0,0,0,.43,3.92,16.58,16.58,0,0,0,2.05,3.92,8.76,8.76,0,0,1,1.53,3.92,8,8,0,0,1-1.13,3.92,9.75,9.75,0,0,0-1.32,3.93,9.24,9.24,0,0,0,.95,4,14,14,0,0,1,1.29,3.95,17.93,17.93,0,0,1-1,5.77,83.75,83.75,0,0,1-3.53,8.6,50.77,50.77,0,0,1-3.26,6,20.71,20.71,0,0,1-2.13,2.24,12.74,12.74,0,0,0-2,2.35A14,14,0,0,0,136,141.1a8.27,8.27,0,0,1-1.45,2.7,8,8,0,0,1-2.49,1.71,9.58,9.58,0,0,0-2.69,1.81,13.35,13.35,0,0,0-2,3,8.52,8.52,0,0,1-2.16,2.73,6.67,6.67,0,0,1-3,1c-1,0-2.6,0-3.66,0s-2.88-.28-4-0.47a16.28,16.28,0,0,0-4.12,0,15.83,15.83,0,0,0-3.89,1.22c-1,.51-2.77,1.26-3.84,1.67s-2.86,1-4,1.3a25.88,25.88,0,0,1-4,.71,23.44,23.44,0,0,1-3.93-.09,19.5,19.5,0,0,1-3.82-1,22.61,22.61,0,0,1-3.66-1.92,18.42,18.42,0,0,0-3.64-1.82,22.11,22.11,0,0,0-5.59-.57c-2.06,0-4.54.14-5.51,0.24a14.9,14.9,0,0,1-2.61,0l0.76,1a26.37,26.37,0,0,0,2.38,2.9,15.39,15.39,0,0,0,2.7,1.86,13,13,0,0,0,3.1,1,14.43,14.43,0,0,0,3.39.08c1-.11,3.45-0.22,5.51-0.24a22.11,22.11,0,0,1,5.59.57,18.42,18.42,0,0,1,3.64,1.82,22.61,22.61,0,0,0,3.66,1.92,19.5,19.5,0,0,0,3.82,1,23.44,23.44,0,0,0,3.93.09,25.88,25.88,0,0,0,4-.71c1.11-.31,2.9-0.89,4-1.3s2.8-1.16,3.84-1.67a15.83,15.83,0,0,1,3.89-1.22,16.28,16.28,0,0,1,4.12,0c1.16,0.19,3,.4,4,0.47s2.71,0.09,3.66,0a6.67,6.67,0,0,0,3-1,8.52,8.52,0,0,0,2.16-2.73,13.35,13.35,0,0,1,2-3,9.58,9.58,0,0,1,2.69-1.81,8,8,0,0,0,2.49-1.71,8.27,8.27,0,0,0,1.45-2.7,14,14,0,0,1,1.28-2.91,12.74,12.74,0,0,1,2-2.35,20.71,20.71,0,0,0,2.13-2.24,50.77,50.77,0,0,0,3.26-6,83.75,83.75,0,0,0,3.53-8.6,17.93,17.93,0,0,0,1-5.77,14,14,0,0,0-1.29-3.95,9.24,9.24,0,0,1-.95-4,9.75,9.75,0,0,1,1.32-3.93,8,8,0,0,0,1.13-3.92,8.76,8.76,0,0,0-1.53-3.92,16.58,16.58,0,0,1-2.05-3.92,11.76,11.76,0,0,1-.43-3.92A27.1,27.1,0,0,1,155.82,88.76Z" fill="url(#f)"/><path d="M97.5,26.68A8.21,8.21,0,0,1,98.29,24a12.78,12.78,0,0,0,1-2.5A10.45,10.45,0,0,0,99.5,19c0-.17,0-0.43-0.07-0.75a4.86,4.86,0,0,0-1,.14,6.81,6.81,0,0,0-1.09.36,10,10,0,0,1-3.62.74,8.7,8.7,0,0,1-3.38-1l-0.08,0C90,18.33,89.7,18.17,89.37,18c-0.17.38-.34,0.74-0.49,1a13.18,13.18,0,0,0-1,2.5,10.83,10.83,0,0,0-.27,2.5,11.43,11.43,0,0,0,.51,2.64,19.39,19.39,0,0,0,1.34,2.91,3.12,3.12,0,0,1,.4,2.47,3.72,3.72,0,0,1-2.32,1.32A15,15,0,0,1,84,33.6a13.63,13.63,0,0,1-3.36-.84,19.69,19.69,0,0,0-3.25-1,17.31,17.31,0,0,0-3.25-.24l-0.56,0c0,0.31,0,.66,0,1s0,0.85-.07,1.2c-0.08.84-.29,2.34-0.47,3.34a2.78,2.78,0,0,0,.54,2.45,4.3,4.3,0,0,0,2.93.11c1.13-.29,2.89-0.67,3.9-0.83s2.57-.33,3.46-0.36a17.31,17.31,0,0,1,3.25.24,19.69,19.69,0,0,1,3.25,1,13.63,13.63,0,0,0,3.36.84,15,15,0,0,0,3.57-.21A3.72,3.72,0,0,0,99.59,39a3.12,3.12,0,0,0-.4-2.47,19.39,19.39,0,0,1-1.34-2.91A11.43,11.43,0,0,1,97.34,31s0,0,0,0a10.9,10.9,0,0,1,.25-2.39A9,9,0,0,1,97.5,26.68Z" fill="url(#g)"/></svg>