<svg xmlns="http://www.w3.org/2000/svg" xmlns:xlink="http://www.w3.org/1999/xlink" width="200" height="200" viewBox="0 0 200 200"><defs><linearGradient id="a" x1="93.8" y1="37.16" x2="108.28" y2="4.63" gradientUnits="userSpaceOnUse"><stop offset="0" stop-color="#fdba56"/><stop offset=".02" stop-color="#fbb055"/><stop offset=".06" stop-color="#f79d54"/><stop offset=".1" stop-color="#f59253"/><stop offset=".15" stop-color="#f48e53"/><stop offset=".3" stop-color="#ed5e4e"/><stop offset=".47" stop-color="#683a96" stop-opacity=".5"/><stop offset=".64" stop-color="#ed872b"/><stop offset=".79" stop-color="#7b76b6"/><stop offset=".9" stop-color="#f15f4f"/><stop offset="1" stop-color="#fdba56"/></linearGradient><linearGradient id="c" x1="54.13" y1="139.88" x2="106.79" y2="21.59" xlink:href="#a"/><linearGradient id="b" x1="108.55" y1="21.37" x2="114.59" y2="34.93" gradientUnits="userSpaceOnUse"><stop offset="0" stop-color="#b7151b"/><stop offset=".02" stop-color="#c52229"/><stop offset=".06" stop-color="#d7333c"/><stop offset=".11" stop-color="#e23d47"/><stop offset=".15" stop-color="#e6404b"/><stop offset=".3" stop-color="#e98a7b"/><stop offset=".47" stop-color="#7c78b8"/><stop offset=".64" stop-color="#00b0b0"/><stop offset=".79" stop-color="#7b76b6"/><stop offset="1" stop-color="#e7322f"/></linearGradient><linearGradient id="d" x1="109.27" y1="66.11" x2="145.34" y2="147.14" xlink:href="#b"/><linearGradient id="e" x1="84.31" y1="49.43" x2="96.01" y2="75.7" xlink:href="#b"/></defs><title>_</title><path d="M121.9 10.71a2.37 2.37 0 0 0-.6-.24 13.11 13.11 0 0 0-2.94-.31c-.8 0-4 .46-7.61 1.1s-7 1.14-8.1 1.19-2.84 0-3.89-.06h-.42a7.5 7.5 0 0 0-2.35.36 5.38 5.38 0 0 0-1.87 1.47 26.11 26.11 0 0 0-1.62 2.56 31.32 31.32 0 0 0-1.34 2.94 9.27 9.27 0 0 1-2.24 3.17 13 13 0 0 1-3.73 2 8.29 8.29 0 0 0-2.79 1.64 5.36 5.36 0 0 0-1.12 2.4 5.7 5.7 0 0 0 .14 2.27 2 2 0 0 0 1 .86 4.2 4.2 0 0 0 1.82.05A7.92 7.92 0 0 0 86.4 31a12.83 12.83 0 0 1 2.91-1.53 19.41 19.41 0 0 1 5.29-.28h1.43a17.69 17.69 0 0 0 3.37-.21 27.78 27.78 0 0 0 3.31-1.22 24 24 0 0 0 3.49-2c.8-.58 4.55-4 8.84-8.06l.67-.64a80.42 80.42 0 0 0 6.19-6.35z" fill="url(#a)"/><path d="M78.61 50.38a18.1 18.1 0 0 0-4.38-4.74 7.83 7.83 0 0 0-3.72-.38 31 31 0 0 1-5.08.33 34.07 34.07 0 0 1-5.2-.67c-1.37-.3-3.6-.66-5-.79a48.65 48.65 0 0 0-5-.18c-1.45 0-5.1-.21-8.17-.54a20.11 20.11 0 0 0-5.77 0 2.23 2.23 0 0 0 .13 1.55 24.37 24.37 0 0 0 1.78 3.39A18.12 18.12 0 0 0 40.47 51a12.49 12.49 0 0 1 2.27 3 13.36 13.36 0 0 1 1.07 3.7 9.69 9.69 0 0 0 .93 3 9.51 9.51 0 0 0 2 2.3 33.82 33.82 0 0 1 2.8 2.45 30.64 30.64 0 0 1 2.36 2.73c.54.73 2 2.51 3.28 3.9a15.29 15.29 0 0 1 3 4.7 12.8 12.8 0 0 1 .2 4.24 7.79 7.79 0 0 0 .3 3.22 5.88 5.88 0 0 0 1.87 2.18A12.77 12.77 0 0 1 63.43 89 11.54 11.54 0 0 1 65 92.5a8.79 8.79 0 0 0 1.29 2.71 10.52 10.52 0 0 0 2.45 2.09 18.11 18.11 0 0 1 3.13 2.39 39.39 39.39 0 0 1 4 6.19c1.31 2.41 2.73 5.79 2.83 7.26a20.34 20.34 0 0 1-.5 5.07 39.46 39.46 0 0 0-.79 5.06c-.1 1.36.11 7 .46 12.42l.27 4.12c.38 5.77 1.13 10.2 1.5 10.85a5.94 5.94 0 0 0 2.36 1.62 16.55 16.55 0 0 0 3.64.66 14.41 14.41 0 0 0 1.81-.1c1.85-.17 4.48-.51 6.86-.89 3.79-.61 7.87-1.12 9.08-1.14a38.51 38.51 0 0 1 4.24.21 3.64 3.64 0 0 0 2.33-.54 5.58 5.58 0 0 0 1.13-2.72 31.37 31.37 0 0 0 .19-4.55 38.16 38.16 0 0 0-.61-4.83 37 37 0 0 1-.62-5.29 83.21 83.21 0 0 1 1.15-10.33c.6-3.77 1.47-8.42 1.89-9.67a19 19 0 0 1 1.6-3.49c.49-.77 1.35-2 1.93-2.73s1.59-1.92 2.26-2.64a15 15 0 0 0 1.84-2.54 15.48 15.48 0 0 0 1.14-3c.22-.9.64-3.3.92-5.24a37.57 37.57 0 0 1 1.14-5.45 17.33 17.33 0 0 1 1.62-3.26c.5-.75 1.27-2 1.68-2.82s1.06-2.16 1.4-3c.43-1 3.33-6 5.88-10.28l.15-.26c2.55-4.23 5.6-9.13 6.28-10a34.21 34.21 0 0 1 2.38-2.67 23.53 23.53 0 0 0 2.12-2.48 22.54 22.54 0 0 0 1.64-2.76 29.08 29.08 0 0 1 1.65-2.87l.07-.11.23-.35c.65-.94 1.89-2.53 2.76-3.55a2.86 2.86 0 0 0 .76-1.61 6.53 6.53 0 0 0-2.86-.79 33.86 33.86 0 0 0-5.46.09 28.67 28.67 0 0 0-5 1.16 21.32 21.32 0 0 1-5.3 1 20.56 20.56 0 0 1-5.31-.63 18.77 18.77 0 0 0-4.6-.57 14.25 14.25 0 0 0-8.22 3c-.79.63-3.7 4.82-6.6 9.82l-7.49 13.03c-.71 1.23-1.44 2.44-2.17 3.59-3.51 5.57-4.15 5.54-4.7 5.51s-1.58-.08-4.54-7.38c-1.46-3.6-3.29-7.65-4-8.84a40.31 40.31 0 0 0-3-4.22c-.77-.92-2.27-2.93-3.73-5z" fill="url(#c)"/><path d="M90 35.75a6.5 6.5 0 0 0 .21 2.8A2.92 2.92 0 0 0 91.79 40a5.17 5.17 0 0 0 2.36.07 8.87 8.87 0 0 0 2.54-1.24 11.87 11.87 0 0 1 2.64-1.39 19 19 0 0 1 4.92-.23 22.47 22.47 0 0 0 5.12-.19 28.49 28.49 0 0 0 3.46-1.27 25 25 0 0 0 3.67-2.11c.95-.68 5-4.35 9-8.15l.25-.24c4-3.8 7.18-7.25 7.12-7.66a2.11 2.11 0 0 0-1.57-1.12 14.91 14.91 0 0 0-3.2-.34c-1 0-4.45.52-7.77 1.12l-2.14.37-1.72.28-.42.41-.25.24c-4 3.8-8 7.47-9 8.15a25 25 0 0 1-3.67 2.11A28.49 28.49 0 0 1 99.66 30a17.67 17.67 0 0 1-3.64.24 11.33 11.33 0 0 1-1.43.61 8 8 0 0 0-.77.31 8.7 8.7 0 0 0-2.43 1.59 6.28 6.28 0 0 0-1.39 3z" fill="url(#b)"/><path d="M159.5 47.16a34.7 34.7 0 0 0-5.66.1 27 27 0 0 0-2.79.53c-.51.12-1 .25-1.47.38a28.65 28.65 0 0 0-1.58 2.75 23.48 23.48 0 0 1-1.72 2.91 24.6 24.6 0 0 1-2.28 2.61 32.76 32.76 0 0 0-2.27 2.56c-.58.74-3.37 5.2-6.21 9.91l-.15.26c-2.84 4.71-5.46 9.27-5.81 10.14s-1 2.25-1.44 3.07-1.22 2.13-1.73 2.91a16.43 16.43 0 0 0-1.51 3 37.27 37.27 0 0 0-1.09 5.25c-.28 2-.71 4.4-.94 5.34a16.39 16.39 0 0 1-1.23 3.2 15.92 15.92 0 0 1-2 2.75c-.65.7-1.64 1.85-2.21 2.57s-1.4 1.91-1.87 2.66a18.15 18.15 0 0 0-1.5 3.27c-.35 1.06-1.19 5.34-1.85 9.51a84.46 84.46 0 0 0-1.13 10.16 36 36 0 0 0 .6 5.12 38.62 38.62 0 0 1 .63 5 32.16 32.16 0 0 1-.2 4.73 6.36 6.36 0 0 1-1.45 3.33 4.51 4.51 0 0 1-3.12.79 36.54 36.54 0 0 0-4.1-.2c-1.17 0-5.19.53-8.94 1.13-2.52.41-5.14.74-6.93.9 0 .35.1.67.15 1a11.4 11.4 0 0 0 .83 3.36 6.91 6.91 0 0 0 2.88 2 17.48 17.48 0 0 0 3.91.71 70.71 70.71 0 0 0 8.87-1c3.75-.6 7.77-1.11 8.94-1.13a36.54 36.54 0 0 1 4.1.2 4.51 4.51 0 0 0 3.12-.79 6.36 6.36 0 0 0 1.45-3.33 32.16 32.16 0 0 0 .2-4.73 38.62 38.62 0 0 0-.63-5 36 36 0 0 1-.6-5.12 84.46 84.46 0 0 1 1.14-10.15c.67-4.17 1.5-8.45 1.85-9.51a18.15 18.15 0 0 1 1.5-3.27c.47-.74 1.31-1.94 1.87-2.66s1.55-1.88 2.21-2.57a15.92 15.92 0 0 0 2-2.75 16.39 16.39 0 0 0 1.23-3.2c.23-.94.66-3.34.94-5.34a37.27 37.27 0 0 1 1.09-5.25 16.43 16.43 0 0 1 1.51-3c.52-.78 1.3-2.08 1.73-2.91s1.09-2.21 1.44-3.07 3-5.43 5.81-10.14l.15-.26c2.84-4.71 5.64-9.17 6.21-9.91a32.76 32.76 0 0 1 2.29-2.57 24.6 24.6 0 0 0 2.26-2.64 23.48 23.48 0 0 0 1.72-2.91 29.12 29.12 0 0 1 1.88-3.19c.63-.91 1.84-2.47 2.69-3.46s1.24-2.25.86-2.81-2.04-1.11-3.65-1.24z" fill="url(#d)"/><path d="M80.39 51.18c1.4 2 2.91 4 3.68 4.94a41 41 0 0 1 3.08 4.35 97.33 97.33 0 0 1 4.07 9c1.5 3.69 3.14 6.73 3.66 6.75s1.92-2.06 3.81-5l-.5-1.09c-.56-1.2-1-2.15-1.33-2.65a41 41 0 0 0-3.08-4.35c-1-1.14-3-4-4.63-6.3s-3.76-4.61-4.79-5.08a7.88 7.88 0 0 0-2.76-.53 8.56 8.56 0 0 0-1.21-.04z" fill="url(#e)"/></svg>