<svg xmlns="http://www.w3.org/2000/svg" xmlns:xlink="http://www.w3.org/1999/xlink" width="200" height="200" viewBox="0 0 200 200"><defs><linearGradient id="a" x1="67.85" y1="158.12" x2="118.32" y2="44.76" gradientUnits="userSpaceOnUse"><stop offset="0" stop-color="#fdba56"/><stop offset="0.02" stop-color="#fbb055"/><stop offset="0.06" stop-color="#f79d54"/><stop offset="0.1" stop-color="#f59253"/><stop offset="0.15" stop-color="#f48e53"/><stop offset="0.3" stop-color="#ed5e4e"/><stop offset="0.47" stop-color="#683a96" stop-opacity="0.5"/><stop offset="0.64" stop-color="#ed872b"/><stop offset="0.79" stop-color="#7b76b6"/><stop offset="0.9" stop-color="#f15f4f"/><stop offset="1" stop-color="#fdba56"/></linearGradient><linearGradient id="b" x1="100.59" y1="101.4" x2="104.01" y2="109.07" gradientUnits="userSpaceOnUse"><stop offset="0" stop-color="#b7151b"/><stop offset="0.02" stop-color="#c52229"/><stop offset="0.06" stop-color="#d7333c"/><stop offset="0.11" stop-color="#e23d47"/><stop offset="0.15" stop-color="#e6404b"/><stop offset="0.3" stop-color="#e98a7b"/><stop offset="0.47" stop-color="#7c78b8"/><stop offset="0.64" stop-color="#00b0b0"/><stop offset="0.79" stop-color="#7b76b6"/><stop offset="1" stop-color="#e7322f"/></linearGradient><linearGradient id="c" x1="98.12" y1="60.68" x2="140.82" y2="156.59" xlink:href="#b"/><linearGradient id="d" x1="63.76" y1="73.19" x2="101.13" y2="157.14" xlink:href="#b"/></defs><title>_</title><path d="M92.85,106.36a15.29,15.29,0,0,1-.2,3.18,17.57,17.57,0,0,1-1,3.18,8,8,0,0,0-.6,3.18,8.8,8.8,0,0,0,1,3.18,13.87,13.87,0,0,1,1.29,3.18,24.68,24.68,0,0,1-.45,6.36c-0.29,1.67-.53,3.42-0.66,4.71a10.85,10.85,0,0,1,2.12,0,12.6,12.6,0,0,0,3.54-.14,12.38,12.38,0,0,0,3.72-3.3,26,26,0,0,0,3-4.43,51.87,51.87,0,0,0,1.24-7,38.51,38.51,0,0,0,.4-7.16,11.11,11.11,0,0,0-1-2.72c-0.1-.17-0.22-0.36-0.34-0.55a10.43,10.43,0,0,1-3.07-.5,4.34,4.34,0,0,1-1.85-1.5,6.19,6.19,0,0,1-.71-2.05,5.21,5.21,0,0,1,0-1.12l-0.19-.08c-0.2-.08-0.39-0.16-0.56-0.22a13.23,13.23,0,0,0-3.24-.46h0a11.56,11.56,0,0,1-3.51-.56c0.2,0.59.38,1.19,0.49,1.64A22,22,0,0,1,92.85,106.36Z" fill="none"/><path d="M97.11,69.92c-0.5.44-2,4.16-3.23,8.27-0.56,1.81-1.14,3.89-1.64,5.88a5.6,5.6,0,0,1,1.86-1,6,6,0,0,0,1.43-.66,7.4,7.4,0,0,0,1.27-1.2,8.75,8.75,0,0,1,2-1.69,12.63,12.63,0,0,1,2.63-1.1,4.23,4.23,0,0,0,1.66-1,4.61,4.61,0,0,0,.78-1.88,9.47,9.47,0,0,0,0-2.44A14.37,14.37,0,0,0,102.51,70c-0.33-.61-0.68-1.27-1-1.86l-0.1-.19c-0.67.19-1.42,0.43-2,.63A9.48,9.48,0,0,0,97.11,69.92Z" fill="none"/><path d="M121.18,47.32a29.48,29.48,0,0,0-2.58-2.12,17.15,17.15,0,0,0-2.89-1.59,43.81,43.81,0,0,0-7.07-1.22c-3-.34-6.52-0.62-7.59-0.57s-2.84.17-3.92,0.3a32,32,0,0,1-4.28.2,38.09,38.09,0,0,1-4.49-.48,27.16,27.16,0,0,0-4.25-.34,55.88,55.88,0,0,0-8,1.48,79,79,0,0,0-7.6,2.16,34.34,34.34,0,0,0-3.28,1.66,25,25,0,0,0-2.93,2.09,69.15,69.15,0,0,0-5,5.53,51,51,0,0,0-4.28,5.77A11.63,11.63,0,0,0,52.18,63a18,18,0,0,0-.12,2.95,19,19,0,0,0,.47,3c0.23,0.9.54,2.33,0.68,3.2s0.29,2.26.34,3.1S53.39,80,53.16,83s-0.63,6.92-.87,8h0c-0.21.89-.64,2.34-1,3.24s-0.72,2.22-.93,3.05-0.5,2.23-.63,3-0.18,5.31-.11,10.81,0.32,10.07.49,10.76a20.24,20.24,0,0,0,1,3,10.61,10.61,0,0,1,.86,3.53,10.3,10.3,0,0,1-.67,3.54,7.25,7.25,0,0,0-.44,2.68,8.24,8.24,0,0,0,.89,2.72,8.91,8.91,0,0,1,1,3.62,8.73,8.73,0,0,1-.93,3.63A10.31,10.31,0,0,0,51,147.3a7,7,0,0,0,.18,2.43,3.05,3.05,0,0,0,1.1,1.46,5.88,5.88,0,0,0,2.46.43c1,0,2.79,0,3.89,0,0.33,0,.84.08,1.57,0.18,1.71,0.24,4.2.68,6.5,1.14,3.22,0.64,6.9,1.25,8,1.34a33.71,33.71,0,0,0,4.26,0,5.56,5.56,0,0,0,2.75-1,3.55,3.55,0,0,0,.71-2.23,31.1,31.1,0,0,0-.39-3.55,25.14,25.14,0,0,0-.86-3.2,11,11,0,0,1-.56-3.56,11.48,11.48,0,0,1,.86-3.54,11,11,0,0,0,.75-2.86,10,10,0,0,0-.29-2.83,16.65,16.65,0,0,1-.53-3.43,50.77,50.77,0,0,1,.79-6.56,24.68,24.68,0,0,0,.46-6,12.85,12.85,0,0,0-1.19-2.91A9.8,9.8,0,0,1,80.32,109a9,9,0,0,1,.69-3.66,16.58,16.58,0,0,0,.95-3,14.31,14.31,0,0,0,.19-2.93,21.09,21.09,0,0,0-.46-3,24.08,24.08,0,0,0-1-3,15.64,15.64,0,0,1-1-3.44,36.5,36.5,0,0,1,.48-6.64,102.77,102.77,0,0,1,3-12.41c0.25-.79,2.43-7.78,3.52-8.73a10.45,10.45,0,0,1,2.68-1.54,26,26,0,0,1,3-.92,21.59,21.59,0,0,1,3-.41,7.3,7.3,0,0,1,2.9.5,6,6,0,0,1,2.14,1.87c0.39,0.59,1,1.55,1.27,2.13s0.75,1.53,1,2.1c0.1,0.26.33,0.73,0.6,1.28s0.62,1.2.94,1.79a16.07,16.07,0,0,1,1.54,3.8,11.32,11.32,0,0,1,0,3.08,6.51,6.51,0,0,1-1.24,2.88,6.1,6.1,0,0,1-2.64,1.61,10.83,10.83,0,0,0-2.13.89,6.75,6.75,0,0,0-1.44,1.23,9.4,9.4,0,0,1-1.7,1.6,7.81,7.81,0,0,1-2,.94,3.59,3.59,0,0,0-1.17.62,4,4,0,0,0-.77,1.15c-0.06.16-.14,0.36-0.21,0.58-0.14.42-.28,0.88-0.36,1.22a17.82,17.82,0,0,0-.32,2c-0.06.64-.22,1.67-0.35,2.31s-0.41,1.67-.62,2.3a5.16,5.16,0,0,0-.2,1.73,5.24,5.24,0,0,0,.58,1.65,2.83,2.83,0,0,0,.71.69,3,3,0,0,0,.65.39,9.63,9.63,0,0,0,2.81.43h0a15.12,15.12,0,0,1,3.84.55c0.23,0.07.48,0.17,0.74,0.28a12.25,12.25,0,0,1,2.5,1.41A21.8,21.8,0,0,1,105,104.7a21.37,21.37,0,0,1,2,2.79l0.06,0.12a13.1,13.1,0,0,1,1.22,3.3,38.36,38.36,0,0,1-.38,7.8,51.75,51.75,0,0,1-1.36,7.5,26.85,26.85,0,0,1-3.37,5c-1.41,1.73-3.51,3.64-4.78,4a14.19,14.19,0,0,1-4.26.19,8.86,8.86,0,0,0-1.88,0,3.76,3.76,0,0,0-1.06.23,1.75,1.75,0,0,0-.75,1.2,8.18,8.18,0,0,0,.24,2.4,9.34,9.34,0,0,0,1.14,2.27,9.64,9.64,0,0,1,1.31,2.67l0.05,0.16a7.21,7.21,0,0,1,0,3,16.18,16.18,0,0,0-.36,2.27c0,0.32,0,.8,0,1.3,0,0.32,0,.63.06,0.88a5,5,0,0,0,.22,1,2.49,2.49,0,0,1,1.8.26,6.68,6.68,0,0,1,1.63,1.59,3.94,3.94,0,0,0,1.1,1,1.82,1.82,0,0,0,1,.06c0.39-.11,1.45-0.52,2.42-0.95l0.25-.1a8.51,8.51,0,0,1,2.79-.56,3.81,3.81,0,0,1,.52,0,16.24,16.24,0,0,1,3.41,1,13.37,13.37,0,0,0,3.32.87,11.71,11.71,0,0,0,3.24-.26,23.44,23.44,0,0,0,3.22-1.14,21.92,21.92,0,0,0,2.9-1.67,18.89,18.89,0,0,0,2.46-2.16,19.18,19.18,0,0,0,2-2.65,12.81,12.81,0,0,1,2.5-2.91,14.57,14.57,0,0,1,3.47-2,7.88,7.88,0,0,0,2.54-1.65c0.42-.54,1.9-4.69,3.33-10.18s2.32-10.3,2.25-11.29a54,54,0,0,0-2.59-8.77,53.69,53.69,0,0,0-3.58-8.19,57.33,57.33,0,0,0-6.61-5.85c-0.24-.19-5.82-4.61-6.31-6.35s4.28-6.87,5.76-8.36c3.36-3.37,5.71-6.35,5.91-7a7.14,7.14,0,0,0-.4-2.89,14.94,14.94,0,0,1-.83-4,12.19,12.19,0,0,1,.57-3.78,7.86,7.86,0,0,0,.36-2.74,41.33,41.33,0,0,0-4.58-7.42c-1.25-1.74-2.56-3.49-3.68-4.94A28.12,28.12,0,0,0,121.18,47.32Z" fill="url(#a)"/><path d="M99.35,104a6.19,6.19,0,0,0,.71,2.05,4.34,4.34,0,0,0,1.85,1.5,10.43,10.43,0,0,0,3.07.5h0.12c0.33,0,.71,0,1.1.06l-0.05-.1a20.59,20.59,0,0,0-1.9-2.63,21,21,0,0,0-2.38-2.24,11.24,11.24,0,0,0-2.27-1.28,5.69,5.69,0,0,0-.2,1A5.21,5.21,0,0,0,99.35,104Z" fill="url(#b)"/><path d="M127.69,54.13c2.53,3.51,4.67,7.07,4.76,7.9a8.79,8.79,0,0,1-.41,3.17,11.23,11.23,0,0,0-.51,3.42,14,14,0,0,0,.76,3.64,8.05,8.05,0,0,1,.44,3.44c-0.14.86-2.92,4.24-6.18,7.5S120.82,89.8,121,90.6,124,94,127,96.43a56.87,56.87,0,0,1,6.79,6,53.18,53.18,0,0,1,3.72,8.45,53.68,53.68,0,0,1,2.65,9c0.09,1.24-.94,6.46-2.28,11.61s-2.94,9.92-3.55,10.6a8.83,8.83,0,0,1-2.93,1.91,13.62,13.62,0,0,0-3.19,1.79,11.85,11.85,0,0,0-2.27,2.65,20.19,20.19,0,0,1-2.08,2.82,19.94,19.94,0,0,1-2.62,2.3,23,23,0,0,1-3.06,1.76,24.33,24.33,0,0,1-3.39,1.2,12.68,12.68,0,0,1-3.58.29,14.35,14.35,0,0,1-3.62-.95,15.45,15.45,0,0,0-3.15-1,6.64,6.64,0,0,0-2.78.46c-0.05.35-.09,0.69-0.11,1,0,0.05,0,.12,0,0.18a15.08,15.08,0,0,0,.07,2.19,4.44,4.44,0,0,0,.48,1.62,0.75,0.75,0,0,0,.87.22,1.43,1.43,0,0,1,1.15.12,5.83,5.83,0,0,1,1.33,1.32,4.79,4.79,0,0,0,1.49,1.32,2.76,2.76,0,0,0,1.65.1c0.47-.14,1.62-0.58,2.54-1a6.76,6.76,0,0,1,3-.55,15.45,15.45,0,0,1,3.15,1,14.35,14.35,0,0,0,3.62.95,12.68,12.68,0,0,0,3.58-.29,24.33,24.33,0,0,0,3.39-1.2,23,23,0,0,0,3.06-1.76,19.94,19.94,0,0,0,2.62-2.3,20.19,20.19,0,0,0,2.08-2.82,11.85,11.85,0,0,1,2.27-2.65,13.62,13.62,0,0,1,3.19-1.79,8.83,8.83,0,0,0,2.93-1.91c0.61-.68,2.21-5.45,3.55-10.6s2.37-10.38,2.28-11.61a53.68,53.68,0,0,0-2.65-9,53.18,53.18,0,0,0-3.72-8.45,56.87,56.87,0,0,0-6.79-6c-3.06-2.41-5.74-5-6-5.84s2.26-4.12,5.51-7.38,6-6.64,6.18-7.5a8.05,8.05,0,0,0-.44-3.44,14,14,0,0,1-.76-3.64,11.23,11.23,0,0,1,.51-3.42,8.79,8.79,0,0,0,.41-3.17c-0.09-.84-2.23-4.39-4.76-7.9s-5.15-6.9-5.82-7.54a30.36,30.36,0,0,0-2.68-2.2,18.1,18.1,0,0,0-3.09-1.71l-0.28-.09c-0.36-.11-0.89-0.24-1.54-0.37C125.06,50.55,126.38,52.32,127.69,54.13Z" fill="url(#c)"/><path d="M92.62,153.61a0.65,0.65,0,0,1-.23-0.18,4.44,4.44,0,0,1-.48-1.62c0-.26-0.06-0.61-0.07-1a10,10,0,0,1-.49-3.11,10.52,10.52,0,0,1,.77-3.18l0.06-.17A8.69,8.69,0,0,0,91,142a10.23,10.23,0,0,1-1.29-2.58,9.15,9.15,0,0,1-.28-2.76,2.7,2.7,0,0,1,1.31-2,4.62,4.62,0,0,1,1.39-.33c0-.28,0-0.63.09-1,0.13-1.29.37-3,.66-4.71a24.68,24.68,0,0,0,.45-6.36,13.87,13.87,0,0,0-1.29-3.18,8.8,8.8,0,0,1-1-3.18,8,8,0,0,1,.6-3.18,17.57,17.57,0,0,0,1-3.18,15.29,15.29,0,0,0,.2-3.18,22,22,0,0,0-.49-3.18c-0.11-.45-0.29-1-0.49-1.64s-0.37-1-.54-1.46a3.78,3.78,0,0,1-1-1A6.19,6.19,0,0,1,89.64,97a6.09,6.09,0,0,1,.24-2.15c0.2-.6.46-1.59,0.59-2.19s0.28-1.59.33-2.19a18.74,18.74,0,0,1,.34-2.11c0.09-.37.24-0.86,0.39-1.31,0.21-.94.45-2,0.72-3,0.5-2,1.08-4.07,1.64-5.88,1.27-4.11,2.73-7.84,3.23-8.27a9.48,9.48,0,0,1,2.37-1.36c0.53-.2,1.28-0.44,2-0.63,0.34-.1.68-0.19,0.94-0.25h0c-0.29-.58-0.53-1.08-0.64-1.36-0.22-.54-0.64-1.44-0.93-2s-0.85-1.48-1.23-2a5,5,0,0,0-1.72-1.52,6.11,6.11,0,0,0-2.42-.41,20.75,20.75,0,0,0-2.81.39,25,25,0,0,0-2.89.88A9.48,9.48,0,0,0,87.4,63c-0.5.44-2,4.16-3.23,8.27a102,102,0,0,0-3,12.25,35.82,35.82,0,0,0-.48,6.37,14.77,14.77,0,0,0,.89,3.18,24.93,24.93,0,0,1,1.07,3.18,22,22,0,0,1,.49,3.18,15.29,15.29,0,0,1-.2,3.18,17.57,17.57,0,0,1-1,3.18,8,8,0,0,0-.6,3.18,8.8,8.8,0,0,0,1,3.18,13.87,13.87,0,0,1,1.29,3.18,24.68,24.68,0,0,1-.45,6.36,50,50,0,0,0-.77,6.37,15.84,15.84,0,0,0,.5,3.18,10.85,10.85,0,0,1,.32,3.18,11.78,11.78,0,0,1-.83,3.18,10.52,10.52,0,0,0-.77,3.18,10,10,0,0,0,.51,3.18,26,26,0,0,1,.9,3.35,31.92,31.92,0,0,1,.41,3.7,4.46,4.46,0,0,1-1,3,6.44,6.44,0,0,1-3.37,1.24,34.3,34.3,0,0,1-4.41,0c-1.18-.09-4.84-0.7-8.14-1.35-2.35-.47-4.83-0.9-6.45-1.13a9.86,9.86,0,0,0-.26,1c0,0.11-.05.23-0.07,0.32A7.94,7.94,0,0,0,60,157a4,4,0,0,0,1.56,2,6.64,6.64,0,0,0,3,.56c1,0,2.73,0,3.79,0s4.63,0.64,7.94,1.3,7,1.27,8.14,1.35a34.3,34.3,0,0,0,4.41,0A6.44,6.44,0,0,0,92.16,161a4.46,4.46,0,0,0,1-3c0-.92-0.18-2.3-0.34-3.28,0-.15,0-0.29-0.07-0.42S92.67,153.85,92.62,153.61Z" fill="url(#d)"/></svg>