<svg xmlns="http://www.w3.org/2000/svg" xmlns:xlink="http://www.w3.org/1999/xlink" width="128.64" height="200" viewBox="0 0 128.64 200"><defs><linearGradient id="a" x1="48.54" y1="60.98" x2="56.69" y2="42.67" gradientUnits="userSpaceOnUse"><stop offset="0" stop-color="#fdba56"/><stop offset=".02" stop-color="#fbb055"/><stop offset=".06" stop-color="#f79d54"/><stop offset=".1" stop-color="#f59253"/><stop offset=".15" stop-color="#f48e53"/><stop offset=".3" stop-color="#ed5e4e"/><stop offset=".47" stop-color="#683a96" stop-opacity=".5"/><stop offset=".64" stop-color="#ed872b"/><stop offset=".79" stop-color="#7b76b6"/><stop offset=".9" stop-color="#f15f4f"/><stop offset="1" stop-color="#fdba56"/></linearGradient><linearGradient id="c" x1="43.08" y1="159.98" x2="81.49" y2="73.72" xlink:href="#a"/><linearGradient id="b" x1="62.36" y1="50.37" x2="73.49" y2="75.37" gradientUnits="userSpaceOnUse"><stop offset="0" stop-color="#b7151b"/><stop offset=".02" stop-color="#c52229"/><stop offset=".06" stop-color="#d7333c"/><stop offset=".11" stop-color="#e23d47"/><stop offset=".15" stop-color="#e6404b"/><stop offset=".3" stop-color="#e98a7b"/><stop offset=".47" stop-color="#7c78b8"/><stop offset=".64" stop-color="#00b0b0"/><stop offset=".79" stop-color="#7b76b6"/><stop offset="1" stop-color="#e7322f"/></linearGradient><linearGradient id="d" x1="56.16" y1="97.82" x2="89.5" y2="172.7" xlink:href="#b"/><linearGradient id="e" x1="42.16" y1="91.23" x2="49.53" y2="107.79" xlink:href="#b"/></defs><title>_</title><path d="M64.43 49.75c0-.16 0-.34-.08-.52a8.47 8.47 0 0 0-.84-2.41 7 7 0 0 0-2-1.94 18.52 18.52 0 0 0-3-1.33 48.52 48.52 0 0 0-7.28-.81c-3.12-.17-6.63-.23-7.68-.14s-2.83.33-3.91.53a29.33 29.33 0 0 1-4 .41 21.07 21.07 0 0 1-3.59-.3l.28.31c.66.68 3.43 3.09 6.06 5.26a114.82 114.82 0 0 1 9.52 9.07 37 37 0 0 0 5.68 5.33 5.94 5.94 0 0 0 2 0 19.66 19.66 0 0 0 3-.5 38.78 38.78 0 0 1 5.71-1.09 49.91 49.91 0 0 1 5.94.73c.77.13 1.44.21 2 .27A29.78 29.78 0 0 1 69.13 60a22.15 22.15 0 0 1-2.33-3 18.19 18.19 0 0 1-1.57-3.38 21.86 21.86 0 0 1-.8-3.87z" fill="url(#a)"/><path d="M36 108.87a10.75 10.75 0 0 0-2.91-.45h-.4a24.08 24.08 0 0 0-6 2.81c-2.73 1.64-5.24 3.3-5.87 3.83a31.83 31.83 0 0 0-2.49 2.33A21.54 21.54 0 0 0 14.6 123a26.11 26.11 0 0 0-1.2 3.16 26.48 26.48 0 0 0-.69 3.32 18.09 18.09 0 0 0-.09 3.11 30.61 30.61 0 0 0 1.46 5.09 62.76 62.76 0 0 0 3.38 7.32 22 22 0 0 0 3.54 4.91 37.65 37.65 0 0 0 6.53 3.1c1 .4 2.06.81 3.11 1.19a56.41 56.41 0 0 0 9.56 2.8 95.14 95.14 0 0 0 10.9-3.38l9.9-3.5c9.7-3.43 10.31-3.3 10.53-3.24a2.82 2.82 0 0 1 1.38.78 2.74 2.74 0 0 1 .57 1.48 3.37 3.37 0 0 1-.5 1.76 8.26 8.26 0 0 1-1.39 1.56l-.13.12c.38.06.87.12 1.32.16.63.05 5.3 0 11.25 0h.48c5.64-.08 11-.08 12.17 0s3.46.45 5.11.79l1.14.23.08-.08a5.92 5.92 0 0 1-.32-1.35 7.32 7.32 0 0 0-.33-1.46 10.29 10.29 0 0 0-1.64-1.81 10.75 10.75 0 0 1-2.15-2.51c-.33-.81-.29-8.68-.26-11.07l.23-25.13c0-5 .19-10.74.35-11.85a26.15 26.15 0 0 1 .86-3.68 5.26 5.26 0 0 0 .12-2.6 5 5 0 0 0-1.6-2 12.44 12.44 0 0 1-2.64-2.61 9.35 9.35 0 0 1-1.29-3.19 10.36 10.36 0 0 0-.91-2.61l-.12-.2-.08-.12a14.72 14.72 0 0 0-1.69-2.19 18.61 18.61 0 0 0-2.62-2.15 54.34 54.34 0 0 0-6.65-2.86 42.67 42.67 0 0 0-7-2.08 15.88 15.88 0 0 0-3.58.21 26.84 26.84 0 0 1-4.08.39 71.09 71.09 0 0 1-7.51-.93 31 31 0 0 0-6.76-.56 13.82 13.82 0 0 0-3.07 1.14 12.77 12.77 0 0 1-3.72 1.23 12.7 12.7 0 0 1-3.91-.22 7.69 7.69 0 0 0-3 0A9.16 9.16 0 0 0 36.81 75a20.51 20.51 0 0 1-3.46 2.27 18.69 18.69 0 0 1-3.81 1.3 26 26 0 0 0-3.29.93 18.67 18.67 0 0 0-2.71 1.33 14.35 14.35 0 0 0-2.18 1.75 14.62 14.62 0 0 0-1.71 2.23c-.42.7-1 1.92-1.38 2.65s-.82 2-1.07 2.79a20.76 20.76 0 0 0-.65 3.08 32.74 32.74 0 0 0-.19 3.67 3.13 3.13 0 0 0 .64 2 3.71 3.71 0 0 0 2.26-.08 36.29 36.29 0 0 1 4.21-1c.53-.09 1.22-.17 1.94-.23a14.19 14.19 0 0 1 2.16-.11 30.28 30.28 0 0 1 4 .32 32.48 32.48 0 0 1 4 1 13.28 13.28 0 0 0 3.49.53 12.61 12.61 0 0 0 3.45-.71 10 10 0 0 0 2.54-1.42 2.58 2.58 0 0 0 .73-1.3 4.79 4.79 0 0 1 .82-2.32 5.06 5.06 0 0 1 2-1.42c.53-.19 1.38-.55 1.86-.79s1.24-.66 1.66-.92a5.29 5.29 0 0 1 2.19-.73 5.7 5.7 0 0 1 2.28.46c.48.22 1.23.52 1.65.66a12.1 12.1 0 0 0 1.41.36 5.73 5.73 0 0 0 1.31 0 11.25 11.25 0 0 0 1.71-.42 3.24 3.24 0 0 1 2.48.1 3.37 3.37 0 0 1 1.3 2.13 6.3 6.3 0 0 0 .59 1.61 4.87 4.87 0 0 0 1 1.13 3.35 3.35 0 0 1 1.21 2.43 4.31 4.31 0 0 1-.1.9 9.72 9.72 0 0 1-.7 2.18 11.36 11.36 0 0 1-2.09 2.94 10.62 10.62 0 0 1-3 1.87 15.14 15.14 0 0 1-3.46.79 16.88 16.88 0 0 1-3.65-.17 15 15 0 0 0-1.81-.17 12.81 12.81 0 0 0-1.37 0 44.1 44.1 0 0 0-6 1.52l-.28.08a30 30 0 0 1-6.93 1.47 18.11 18.11 0 0 1-3.86-.82z" fill="url(#c)"/><path d="M68.07 70.77l.45-.1A38.51 38.51 0 0 1 74 69.6a53.9 53.9 0 0 1 5.76.71c2.44.4 4.44.51 4.43.24a4.94 4.94 0 0 0-1.68-1.75 28.58 28.58 0 0 1-3-2.6 21.34 21.34 0 0 1-2.2-2.81 17.39 17.39 0 0 1-1.47-3.16 21.11 21.11 0 0 1-.76-3.64 9.55 9.55 0 0 0-1.06-3.35A7.93 7.93 0 0 0 71.7 51a19.58 19.58 0 0 0-3.22-1.41 15.1 15.1 0 0 0-2.12-.38l-1-.12c0 .21.07.41.09.6a21.11 21.11 0 0 0 .76 3.64 17.39 17.39 0 0 0 1.47 3.16 21.34 21.34 0 0 0 2.2 2.81 28.58 28.58 0 0 0 3 2.6 4.94 4.94 0 0 1 1.68 1.75c0 .27-2 .17-4.43-.24a53.9 53.9 0 0 0-5.76-.71 38.51 38.51 0 0 0-5.48 1.06 20.58 20.58 0 0 1-3.15.53l.85.9.33.35A58.11 58.11 0 0 0 61.45 70a7.5 7.5 0 0 0 1.42 1c.77.4 3.04.26 5.2-.23z" fill="url(#b)"/><path d="M113.83 160.56a3.91 3.91 0 0 1-.43-1.44 8.18 8.18 0 0 0-.4-1.71 9.57 9.57 0 0 0-1.9-2.18 10 10 0 0 1-1.9-2.15c-.2-.38-.2-5.18-.2-10.68l.23-25.13c.05-5.5.2-10.78.34-11.72a25.06 25.06 0 0 1 .82-3.51 6.18 6.18 0 0 0 .12-3.22 6 6 0 0 0-2-2.5 11.46 11.46 0 0 1-2.34-2.32 8.35 8.35 0 0 1-1.17-2.83 11.23 11.23 0 0 0-1-2.92 15.15 15.15 0 0 0-2-2.73 19.5 19.5 0 0 0-2.79-2.29 31.31 31.31 0 0 0-3.66-1.71l-1.43-.58c.08.13.17.26.23.37a11.23 11.23 0 0 1 1 2.92A8.35 8.35 0 0 0 96.46 87a11.46 11.46 0 0 0 2.39 2.36 6 6 0 0 1 2 2.5 6.18 6.18 0 0 1-.12 3.22 25.06 25.06 0 0 0-.82 3.51c-.13.95-.28 6.22-.34 11.72l-.23 25.13c-.05 5.5 0 10.31.19 10.68a10 10 0 0 0 1.9 2.15 9.57 9.57 0 0 1 1.9 2.18 8.18 8.18 0 0 1 .4 1.71 3.91 3.91 0 0 0 .43 1.44.89.89 0 0 0 .83.34l.56-.11-.71.19c-.42.11-.87.24-1 .29a.2.2 0 0 0-.17.24 1.35 1.35 0 0 0 .47.33 11.39 11.39 0 0 1-2.51-.41c-1.6-.33-3.84-.68-5-.77s-6.57-.1-12.07 0h-.5c-5.5.08-10.61.1-11.35 0a16.38 16.38 0 0 1-2-.29.7.7 0 0 1-.61-.61 2.85 2.85 0 0 1 .87-1.14 7.32 7.32 0 0 0 1.19-1.33 2.41 2.41 0 0 0 .35-1.17 1.74 1.74 0 0 0-.33-.89 1.84 1.84 0 0 0-.85-.46 99.72 99.72 0 0 0-10 3.21l-9.9 3.5A91.19 91.19 0 0 1 40.25 158c-1 .06-5.42-1.23-9.91-2.87-1.06-.39-2.12-.79-3.14-1.2.33.51.67 1 1 1.47a14 14 0 0 0 1.9 2.21c1 .82 5.45 2.83 9.94 4.47S49 165 50 165a91.19 91.19 0 0 0 11.18-3.44L71 158a99.72 99.72 0 0 1 10-3.21 1.84 1.84 0 0 1 .85.46 1.74 1.74 0 0 1 .33.89 2.41 2.41 0 0 1-.35 1.17 7.32 7.32 0 0 1-1.19 1.33 2.85 2.85 0 0 0-.87 1.14.7.7 0 0 0 .61.61 16.38 16.38 0 0 0 2 .29c.74.06 5.85 0 11.35 0h.48c5.5-.08 10.93-.08 12.07 0s3.38.44 5 .77a11.39 11.39 0 0 0 2.51.41 1.35 1.35 0 0 1-.47-.33.2.2 0 0 1 .17-.24c.13-.05.58-.18 1-.29l.71-.19-.56.11a.89.89 0 0 1-.81-.36z" fill="url(#d)"/><path d="M46.82 107.14a44 44 0 0 1 6.18-1.56 13.5 13.5 0 0 1 1.49 0 6.27 6.27 0 0 0 .92-.65 3.06 3.06 0 0 0 .24-.27 3.35 3.35 0 0 0 .81-1.68 3.87 3.87 0 0 1 .62-1.78 4.07 4.07 0 0 1 1.57-1.09c.56-.21 1.44-.58 2-.83s1.3-.69 1.76-1a4.29 4.29 0 0 1 1.71-.58 4.56 4.56 0 0 1 1.81.37c.38.17.9.39 1.34.55l.42.15.54.16a3.57 3.57 0 0 0 .08-.69 2.39 2.39 0 0 0-.81-1.66 5.83 5.83 0 0 1-1.28-1.42 7.21 7.21 0 0 1-.71-1.93 2.45 2.45 0 0 0-.83-1.46 2.31 2.31 0 0 0-1.64 0 12 12 0 0 1-1.9.47 6.55 6.55 0 0 1-1.6 0 12.77 12.77 0 0 1-1.55-.4c-.45-.15-1.24-.46-1.75-.7a4.56 4.56 0 0 0-1.81-.37 4.29 4.29 0 0 0-1.71.58c-.46.29-1.25.73-1.76 1s-1.39.62-2 .83a4.07 4.07 0 0 0-1.57 1.09 3.87 3.87 0 0 0-.61 1.73 3.48 3.48 0 0 1-1 2 11 11 0 0 1-2.85 1.61 13.64 13.64 0 0 1-3.78.77 13.76 13.76 0 0 1-3.83-.58 31.2 31.2 0 0 0-3.85-.94 28.94 28.94 0 0 0-3.85-.31c-.56 0-1.31 0-2.06.11-.07.35-.13.7-.18 1 0 .16-.05.32-.07.46a33.58 33.58 0 0 0-.18 3.85 3.83 3.83 0 0 0 1.09 2.78 4.35 4.35 0 0 0 3.12 0 35.21 35.21 0 0 1 4.07-1 29.24 29.24 0 0 1 3.92-.33 28.94 28.94 0 0 1 3.85.31 31.38 31.38 0 0 1 3.72.9h.13a12.51 12.51 0 0 0 1.79.51z" fill="url(#e)"/></svg>