<svg xmlns="http://www.w3.org/2000/svg" xmlns:xlink="http://www.w3.org/1999/xlink" width="132" height="200" viewBox="0 0 132 200"><defs><linearGradient id="a" x1="59.01" y1="69.51" x2="73.63" y2="36.68" gradientUnits="userSpaceOnUse"><stop offset="0" stop-color="#fdba56"/><stop offset=".02" stop-color="#fbb055"/><stop offset=".06" stop-color="#f79d54"/><stop offset=".1" stop-color="#f59253"/><stop offset=".15" stop-color="#f48e53"/><stop offset=".3" stop-color="#ed5e4e"/><stop offset=".47" stop-color="#683a96" stop-opacity=".5"/><stop offset=".64" stop-color="#ed872b"/><stop offset=".79" stop-color="#7b76b6"/><stop offset=".9" stop-color="#f15f4f"/><stop offset="1" stop-color="#fdba56"/></linearGradient><linearGradient id="c" x1="44.24" y1="160.38" x2="82.12" y2="75.3" xlink:href="#a"/><linearGradient id="b" x1="116.19" y1="160.55" x2="116.62" y2="161.52" gradientUnits="userSpaceOnUse"><stop offset="0" stop-color="#b7151b"/><stop offset=".02" stop-color="#c52229"/><stop offset=".06" stop-color="#d7333c"/><stop offset=".11" stop-color="#e23d47"/><stop offset=".15" stop-color="#e6404b"/><stop offset=".3" stop-color="#e98a7b"/><stop offset=".47" stop-color="#7c78b8"/><stop offset=".64" stop-color="#00b0b0"/><stop offset=".79" stop-color="#7b76b6"/><stop offset="1" stop-color="#e7322f"/></linearGradient><linearGradient id="d" x1="73.16" y1="54.24" x2="78.96" y2="67.26" xlink:href="#b"/><linearGradient id="e" x1="45.37" y1="142.45" x2="56.5" y2="167.47" xlink:href="#b"/><linearGradient id="f" x1="43.3" y1="90.89" x2="50.78" y2="107.69" xlink:href="#b"/><linearGradient id="g" x1="78.14" y1="90.34" x2="110.49" y2="163" xlink:href="#b"/></defs><title>_</title><path d="M86.94 44.68a3.86 3.86 0 0 0 .43-1.83 1.94 1.94 0 0 0-1-.39 28.27 28.27 0 0 0-3.14-.05c-.93 0-4.46.47-7.71.93a46.9 46.9 0 0 1-8.37.59 23.84 23.84 0 0 1-4.43-1.13 7.81 7.81 0 0 0-3.3-.44A5.28 5.28 0 0 0 57 43.77a14.08 14.08 0 0 0-1.87 2.82 13.76 13.76 0 0 0-.93 3.22 13.61 13.61 0 0 1-1.13 3.71 12.41 12.41 0 0 1-2.31 3c-.69.62-2.46 2.49-3.87 4.07a17.21 17.21 0 0 0-2 2.63 2.69 2.69 0 0 0 .71.05 27.26 27.26 0 0 0 3.13-.36 19.9 19.9 0 0 0 2.68-.74 7.85 7.85 0 0 1 2.59-.42 4.9 4.9 0 0 1 .55 0 8.84 8.84 0 0 1 3 1.09 5.3 5.3 0 0 0 1 .45 4.17 4.17 0 0 0 .93.21A58.79 58.79 0 0 0 68 58.38c4.32-3 9.6-6.34 11.77-7.55 1.19-.66 2.49-1.47 3.57-2.21a12.93 12.93 0 0 0 1.53-1.16 12 12 0 0 0 2.07-2.78z" fill="url(#a)"/><path d="M44.39 107.1a13.87 13.87 0 0 1-3.52 1.63 13.41 13.41 0 0 1-3.83.35h-1.55c-.55 0-1.38 0-1.88.07a25.33 25.33 0 0 0-3.35.58c-.92.24-2.45.72-3.34 1s-2.37 1-3.26 1.38a20.75 20.75 0 0 0-2.94 1.8 22.29 22.29 0 0 0-2.59 2.42c-.68.77-1.74 2.08-2.35 2.92s-1.56 2.24-2.1 3.14a9.25 9.25 0 0 0-1.07 3 9.87 9.87 0 0 0 .37 3.3 22.1 22.1 0 0 1 .82 3.79 13.54 13.54 0 0 1-.13 3.37 23.11 23.11 0 0 0-.34 2.72 24.9 24.9 0 0 0 .06 2.82 7.3 7.3 0 0 0 1 2.66 19.21 19.21 0 0 0 2.83 3.12 25.77 25.77 0 0 0 4 2.76 23.17 23.17 0 0 0 2.8 1.2c.62.22 1.18.4 1.62.51a30.84 30.84 0 0 1 4.36 1.58 15.47 15.47 0 0 1 3.24 2.06 4.51 4.51 0 0 0 1.94 1 4.65 4.65 0 0 0 2.14-.47 13.82 13.82 0 0 1 3.48-1.13 20.72 20.72 0 0 1 4.1-.15c1.13.08 2.95.13 4 .11s4.7-.46 7.95-1 6.62-1.51 7.36-2.07a15.63 15.63 0 0 0 3-3.35 16.84 16.84 0 0 1 2.44-3.13 1.5 1.5 0 0 1 1.57-.27 1.59 1.59 0 0 1 .9 1.42 9.22 9.22 0 0 0 .27 1.61 9.81 9.81 0 0 0 1.21 1.92c.14.18 1.38 1.82 1.26 2.89a6.1 6.1 0 0 1-.73 2 5.67 5.67 0 0 0 2.46.53h.83c.9 0 2.31-.1 4.09-.23 2.14-.15 4.64-.35 7.05-.57l7.44-.69c3.63-.33 6.64-.63 8.34-.8l-.1-.19a8.74 8.74 0 0 0-1-1.53 4.53 4.53 0 0 0-1-.7 3.33 3.33 0 0 1-1.42-1.33 3 3 0 0 1-.14-1.93 2.31 2.31 0 0 0 0-.91 4.31 4.31 0 0 0-.62-1.14 6.52 6.52 0 0 1-1-2.81 75.58 75.58 0 0 1 .5-8.85c.37-3.79.63-8 .56-9.28a37.58 37.58 0 0 0-.59-4.57c-.27-1.33-.61-3.49-.76-4.81s-.28-3.49-.29-4.81a38.47 38.47 0 0 1 .25-4.52 25.32 25.32 0 0 1 .87-3.89 9.68 9.68 0 0 0 .41-2.93 9.34 9.34 0 0 0-.75-2.82c-.44-.91-1.63-4-2.71-7.15a49.68 49.68 0 0 0-2.27-5.55 4.19 4.19 0 0 0-.41-.71 38.13 38.13 0 0 0-5.19-3.7 34.09 34.09 0 0 0-5.86-3.08 12.1 12.1 0 0 0-3.3-.22c-1.1.1-2.85.18-3.91.19s-2.78-.07-3.82-.17-2.74-.35-3.79-.56-2.76-.65-3.8-1a23.38 23.38 0 0 0-3.45-.75 18.84 18.84 0 0 0-3.26 0 30.25 30.25 0 0 1-3.56.1 32.68 32.68 0 0 1-3.6-.39 15 15 0 0 0-3.18-.15 14.58 14.58 0 0 0-3.08.69 25.75 25.75 0 0 1-3.61 1 30.23 30.23 0 0 1-3.9.36 18.41 18.41 0 0 0-3.55.47 18.42 18.42 0 0 0-3.33 1.31 20.64 20.64 0 0 0-2.85 1.91 59.17 59.17 0 0 0-5.2 7.27 56 56 0 0 0-4.33 7.62 11.09 11.09 0 0 0-.17 3 3.13 3.13 0 0 0 .87 1.75 4.47 4.47 0 0 0 2.38.37c1-.12 3.68-.65 5.75-1.14l.49-.12c2.18-.51 4.44-.94 5.45-1a26.67 26.67 0 0 1 4-.06 28.7 28.7 0 0 1 4.07.68 34.68 34.68 0 0 1 4.15 1.42 6.51 6.51 0 0 0 2.56.55 8.74 8.74 0 0 0 1.64-3.4c.36-1.27 1.31-4.29 2.31-4.82a3.77 3.77 0 0 1 2.63-.09 15.3 15.3 0 0 0 2 .48A9.12 9.12 0 0 0 57 91a6.21 6.21 0 0 0 1.41-.33 8.48 8.48 0 0 0 1.46-.8 3.13 3.13 0 0 1 2.44-.52 4.1 4.1 0 0 1 2 1.68 6.51 6.51 0 0 0 1.17 1.35 3.38 3.38 0 0 0 1.18.53 4.13 4.13 0 0 1 2 .91 4.41 4.41 0 0 1 1.07 1.89 6.88 6.88 0 0 1 .06 2.49c0 .15-.07.35-.12.54a16.08 16.08 0 0 1-.78 2.32 6.33 6.33 0 0 1-5.27 3.94c-.92.13-4 .18-5 .19h-3.41c-2.39 0-4.94.09-6.6.25a7.73 7.73 0 0 0-1.36.2 13.87 13.87 0 0 0-2.86 1.46z" fill="url(#c)"/><path d="M116.68 161.27a.57.57 0 0 0 .43 0 3.19 3.19 0 0 0-.64-.33 5.79 5.79 0 0 0-.64-.24.27.27 0 0 1 0 .13.25.25 0 0 0 .19.19 4.7 4.7 0 0 0 .66.25z" fill="url(#b)"/><path d="M53.45 70.57c.11.41 1 .7 1.95.66a28.5 28.5 0 0 0 3.27-.38 20.7 20.7 0 0 0 2.85-.79 6.73 6.73 0 0 1 2.64-.35 7.85 7.85 0 0 1 2.64.95 6 6 0 0 0 2.53.81c.67 0 4.72-2.39 9-5.32s9.54-6.31 11.67-7.51a34.34 34.34 0 0 0 5.31-3.53 13 13 0 0 0 2.23-3 4.22 4.22 0 0 0 .46-2.65 2.31 2.31 0 0 0-1.86-1.05 29.15 29.15 0 0 0-3.28-.06c-.88 0-3.86.39-6.89.81l-.91.13-1.06.15c-1.05.72-2.39 1.56-3.65 2.26-2.14 1.19-7.4 4.57-11.69 7.51s-8.34 5.33-9 5.32a4.7 4.7 0 0 1-1.3-.27l-.75.79c-.56.59-1.13 1.22-1.67 1.82-1.51 1.63-2.61 3.29-2.49 3.7z" fill="url(#d)"/><path d="M76.58 156.19a8.31 8.31 0 0 1-3-.61 1 1 0 0 1-.3-1.41 5.22 5.22 0 0 0 .6-1.6 4.53 4.53 0 0 0-1.06-2.16 10.06 10.06 0 0 1-1.37-2.24 10.13 10.13 0 0 1-.31-1.83c0-.58-.42-.78-.84-.45a16.56 16.56 0 0 0-2.22 2.89 16.6 16.6 0 0 1-3.22 3.61c-1 .73-4.49 1.75-7.81 2.26s-7 .94-8.08 1-3 0-4.13-.11a19.81 19.81 0 0 0-3.86.14 12.86 12.86 0 0 0-3.18 1 5.57 5.57 0 0 1-2.72.58 5.46 5.46 0 0 1-2.47-1.26 14.64 14.64 0 0 0-3-1.9 29.84 29.84 0 0 0-4.25-1.47c-.5-.13-1.09-.32-1.71-.54.34.44.78.95 1.24 1.45s.94 1 1.38 1.35a26.64 26.64 0 0 0 4.16 2.89 25.26 25.26 0 0 0 4.64 1.8 29.84 29.84 0 0 1 4.25 1.47 14.64 14.64 0 0 1 3 1.9 5.46 5.46 0 0 0 2.48 1.22 5.57 5.57 0 0 0 2.72-.58 12.86 12.86 0 0 1 3.18-1 19.81 19.81 0 0 1 3.86-.14c1.16.08 3 .14 4.13.11s4.75-.45 8.08-1 6.84-1.53 7.81-2.26a14.53 14.53 0 0 0 2.12-2.14c.28-.34.55-.68.78-1-.39.04-.7.04-.9.03z" fill="url(#e)"/><path d="M55.24 104.22h3.39c.13-.32.26-.66.37-1s.14-.4.19-.61c.6-2.1 1.42-4 1.82-4.21a2.8 2.8 0 0 1 1.85 0 16.35 16.35 0 0 0 2.12.52 9.91 9.91 0 0 0 1.84.09 5.56 5.56 0 0 0 .68-.11 6.87 6.87 0 0 0 1-.29h.11c0-.17.08-.33.1-.47a6 6 0 0 0 0-2.07 3.47 3.47 0 0 0-.79-1.41 3.16 3.16 0 0 0-1.42-.65 4.29 4.29 0 0 1-1.63-.72 7.4 7.4 0 0 1-1.41-1.62 3.22 3.22 0 0 0-1.39-1.25 2.13 2.13 0 0 0-1.57.37 9.38 9.38 0 0 1-1.68.92 7.09 7.09 0 0 1-1.7.39 9.91 9.91 0 0 1-1.84-.09 16.35 16.35 0 0 1-2.12-.52 2.8 2.8 0 0 0-1.85 0c-.4.21-1.22 2.11-1.82 4.21s-1.64 3.94-2.31 4.09a6.79 6.79 0 0 1-3.24-.59 33.71 33.71 0 0 0-4-1.37 27.56 27.56 0 0 0-3.9-.65 25.83 25.83 0 0 0-3.85.05c-1 .1-3.24.54-5.26 1-.24.46-.44.85-.58 1.17a4.27 4.27 0 0 0-.26.67 11.94 11.94 0 0 0-.19 3.31 4 4 0 0 0 1.26 2.55 5.22 5.22 0 0 0 3.07.55c1.09-.13 3.73-.65 5.87-1.17s4.75-1 5.81-1.14a25.83 25.83 0 0 1 3.85-.05h.1c.74.06 1.78.22 2.7.4 1.61-.2 4.16-.31 6.68-.3z" fill="url(#f)"/><path d="M97.55 88.4c1 3 2.25 6.18 2.66 7a10.27 10.27 0 0 1 .85 3.2 10.58 10.58 0 0 1-.46 3.31 24.21 24.21 0 0 0-.83 3.7 37.36 37.36 0 0 0-.24 4.38c0 1.3.14 3.42.29 4.72s.48 3.42.74 4.72a38.14 38.14 0 0 1 .61 4.72c.07 1.3-.19 5.54-.57 9.43a76.34 76.34 0 0 0-.5 8.63 5.66 5.66 0 0 0 .78 2.31 5.21 5.21 0 0 1 .79 1.49 3.24 3.24 0 0 1 0 1.43 2.05 2.05 0 0 0 .07 1.23 2.38 2.38 0 0 0 1 .87 5.43 5.43 0 0 1 1.25.9 9.54 9.54 0 0 1 1.18 1.76 12.29 12.29 0 0 0 .75 1.31.67.67 0 0 1 .14.17s-4.45.48-9.93 1l-7.41.68c-2.5.23-5 .43-7.08.58.18.3.4.63.63 1l.31.42a4.53 4.53 0 0 1 1.06 2.16 5.22 5.22 0 0 1-.6 1.6 1 1 0 0 0 .3 1.41 8.31 8.31 0 0 0 3 .61c1.19.06 6.64-.31 12.12-.81l7.41-.68c5.48-.51 9.94-.95 9.93-1a.67.67 0 0 0-.14-.17 12.29 12.29 0 0 1-.75-1.31 9.54 9.54 0 0 0-1.18-1.76 5.43 5.43 0 0 0-1.25-.9 2.38 2.38 0 0 1-1-.87 2.05 2.05 0 0 1-.07-1.23 3.24 3.24 0 0 0 0-1.43 5.21 5.21 0 0 0-.79-1.49 5.66 5.66 0 0 1-.78-2.31 76.34 76.34 0 0 1 .5-8.63c.38-3.89.63-8.14.57-9.43a38.14 38.14 0 0 0-.61-4.72c-.27-1.3-.6-3.42-.74-4.72s-.27-3.42-.29-4.72a37.36 37.36 0 0 1 .24-4.38 24.21 24.21 0 0 1 .83-3.7 10.58 10.58 0 0 0 .46-3.31 10.27 10.27 0 0 0-.85-3.2c-.42-.86-1.61-4-2.66-7a33.43 33.43 0 0 0-2.87-6.58A37.6 37.6 0 0 0 99 84.87c-.75-.47-1.52-.92-2.26-1.34-.52-.29-1-.56-1.49-.81a50.66 50.66 0 0 1 2.3 5.68zm9.45 65.92a4.7 4.7 0 0 1-.71-.19.25.25 0 0 1-.19-.19.27.27 0 0 0 0-.13 5.79 5.79 0 0 1 .64.24 3.19 3.19 0 0 1 .64.33.57.57 0 0 1-.38-.06z" fill="url(#g)"/></svg>