<svg xmlns="http://www.w3.org/2000/svg" xmlns:xlink="http://www.w3.org/1999/xlink" width="200" height="200" viewBox="0 0 200 200"><defs><linearGradient id="a" x1="90.18" y1="72.01" x2="103.62" y2="41.83" gradientUnits="userSpaceOnUse"><stop offset="0" stop-color="#fdba56"/><stop offset="0.02" stop-color="#fbb055"/><stop offset="0.06" stop-color="#f79d54"/><stop offset="0.1" stop-color="#f59253"/><stop offset="0.15" stop-color="#f48e53"/><stop offset="0.3" stop-color="#ed5e4e"/><stop offset="0.47" stop-color="#683a96" stop-opacity="0.5"/><stop offset="0.64" stop-color="#ed872b"/><stop offset="0.79" stop-color="#7b76b6"/><stop offset="0.9" stop-color="#f15f4f"/><stop offset="1" stop-color="#fdba56"/></linearGradient><linearGradient id="b" x1="79.18" y1="159.52" x2="117.56" y2="73.3" xlink:href="#a"/><linearGradient id="c" x1="113.83" y1="48.08" x2="125.42" y2="74.11" gradientUnits="userSpaceOnUse"><stop offset="0" stop-color="#b7151b"/><stop offset="0.02" stop-color="#c52229"/><stop offset="0.06" stop-color="#d7333c"/><stop offset="0.11" stop-color="#e23d47"/><stop offset="0.15" stop-color="#e6404b"/><stop offset="0.3" stop-color="#e98a7b"/><stop offset="0.47" stop-color="#7c78b8"/><stop offset="0.64" stop-color="#00b0b0"/><stop offset="0.79" stop-color="#7b76b6"/><stop offset="1" stop-color="#e7322f"/></linearGradient><linearGradient id="d" x1="83.82" y1="55.02" x2="91.62" y2="72.54" xlink:href="#c"/><linearGradient id="e" x1="113.36" y1="87.74" x2="146.77" y2="162.78" xlink:href="#c"/><linearGradient id="f" x1="79.4" y1="90.36" x2="86.15" y2="105.52" xlink:href="#c"/><linearGradient id="g" x1="81.37" y1="142.22" x2="91.57" y2="165.12" xlink:href="#c"/></defs><title>_</title><path d="M80.85,102.36a16,16,0,0,0-3.85.5,17,17,0,0,0-2,.76l0.5,0a33.59,33.59,0,0,1,3.63.41,17.78,17.78,0,0,0,3.18.22,16.34,16.34,0,0,0,3.06-.5,21.22,21.22,0,0,1,3.48-.63l0.8,0c-0.91,0-2-.12-3.07-0.25C84.47,102.6,81.91,102.38,80.85,102.36Z" fill="none"/><path d="M98.62,98.57a5.45,5.45,0,0,0-1.66.19,5.2,5.2,0,0,0-1.45.79,14.21,14.21,0,0,0-1.25,1.19,14.81,14.81,0,0,0-1.08,1.37,3,3,0,0,1-1.68,1,3.74,3.74,0,0,1-.48,0c0.5,0,1,0,1.38.09a10.91,10.91,0,0,0,2.93-.13A9.53,9.53,0,0,0,97.88,102a9.69,9.69,0,0,0,1.89-1.68,5.45,5.45,0,0,0,.84-1.77c0-.14.06-0.29,0.1-0.46l-0.36.19A4.35,4.35,0,0,1,98.62,98.57Z" fill="none"/><path d="M110.1,65.11A3.79,3.79,0,0,0,110,64l-0.3,0-0.52.09a34.42,34.42,0,0,1-5,.54,4.2,4.2,0,0,1-1.1-.11,5,5,0,0,1-2.3-1.61,7.82,7.82,0,0,1-.65-1.11A2.85,2.85,0,0,0,99.28,63a5.48,5.48,0,0,0,0,2.28,6,6,0,0,1,0,2.4,4.19,4.19,0,0,1-1,1.64,11.39,11.39,0,0,1,1.78.69,9.68,9.68,0,0,0,3.35.88,10.43,10.43,0,0,0,3.49-.72,13.22,13.22,0,0,1,4.26-1h0.07a7.5,7.5,0,0,1-.94-1.92A8,8,0,0,1,110.1,65.11Z" fill="none"/><polygon points="112.16 152.85 112.16 152.85 112.16 152.85 112.16 152.85" fill="none"/><path d="M110.51,47.29A21.47,21.47,0,0,1,108,44.66,8.45,8.45,0,0,0,106,42.91a5.83,5.83,0,0,0-2.13-.61,77.13,77.13,0,0,1-7.78-1.55,34.47,34.47,0,0,0-7.22-1.14,16.63,16.63,0,0,0-3.81,2.06c-1.52,1.06-3.43,2.31-4.25,2.8a14,14,0,0,0-2.46,2,16.45,16.45,0,0,0-2,2.69,15.34,15.34,0,0,1-2.47,3.15,17,17,0,0,1-3.4,2.33,12.18,12.18,0,0,0-2.81,2,11.5,11.5,0,0,0-1.84,2.84,5.33,5.33,0,0,0-.4,1.53A1.8,1.8,0,0,0,66.1,61a14.16,14.16,0,0,1,3.17-.37,13.17,13.17,0,0,1,3.13.54,13.48,13.48,0,0,0,2.59.51,12.62,12.62,0,0,0,1.94-.06l0.65-.09a14.11,14.11,0,0,1,3.16-.14,16.73,16.73,0,0,1,3.25.69,7.26,7.26,0,0,0,2.34.36,3.39,3.39,0,0,0,1.52-.61,3.22,3.22,0,0,0,.83-1.28,5.1,5.1,0,0,0,0-1.92,6.44,6.44,0,0,1,0-2.79,3.81,3.81,0,0,1,1.59-2,6.58,6.58,0,0,0,1.34-1.13,11.33,11.33,0,0,0,1.21-1.83C93,50.4,93.82,49,94.95,49.26c0.92,0.24,1.33,1.54,1.48,2.3a5.35,5.35,0,0,0,.79,1.85,3.24,3.24,0,0,0,1.32.83,4.36,4.36,0,0,1,2.2,1.43,4.48,4.48,0,0,1,.64,2.55,7.08,7.08,0,0,0,.2,1.89,5.14,5.14,0,0,0,.28.7,6.18,6.18,0,0,0,.53.94,3.05,3.05,0,0,0,1.26.88,22.86,22.86,0,0,0,5.14-.48l0.54-.09a37.65,37.65,0,0,1,5.6-.63A15.33,15.33,0,0,1,118,62a14.45,14.45,0,0,0,2.75.49,18.26,18.26,0,0,0,3-.14,2.73,2.73,0,0,0,.61-0.16,6.24,6.24,0,0,0-1.11-1,18.87,18.87,0,0,1-3.14-2.95,16.52,16.52,0,0,1-2.09-3.57,12.59,12.59,0,0,0-1.75-2.92,12.91,12.91,0,0,0-2.64-2.19l-0.76-.48A26.89,26.89,0,0,1,110.51,47.29Z" fill="url(#a)"/><path d="M112.51,151.92a21.23,21.23,0,0,0,3.55.94c0.23,0,.6.06,1.07,0.08,1.67,0.07,4.48,0,7-.07,3.54-.16,7.25-0.22,8.44-0.13s3.07,0.3,4.25.5c0.78,0.13,1.6.22,2.19,0.26a3.6,3.6,0,0,1-1.28-1.59,6.84,6.84,0,0,0-.71-1.26,6.14,6.14,0,0,0-1-1,6.43,6.43,0,0,1-1.32-1.36,5.81,5.81,0,0,1-.74-1.71,12.32,12.32,0,0,1-.24-1.69,13.74,13.74,0,0,1,0-1.74,39.87,39.87,0,0,1,1.58-5,32.29,32.29,0,0,0,1.62-6.05,18.06,18.06,0,0,0-.24-4.42c-0.27-1.33-.62-3.48-0.77-4.8s-0.23-6.54-.17-11.59c0.05-4.52.24-9.86,0.46-11a22.54,22.54,0,0,0,.3-6.55,23.13,23.13,0,0,0-.57-3.13,19.59,19.59,0,0,0-1-2.8,17.8,17.8,0,0,0-1.5-2.45c-0.4-.52-2.12-2.33-4.2-4.35l-0.16-.16a63.82,63.82,0,0,0-4.84-4.31,60.3,60.3,0,0,0-6.4-3.19,26.74,26.74,0,0,0-6.61-2.18h0a11.21,11.21,0,0,0-3.5.79,12.29,12.29,0,0,1-4.32.88,11.56,11.56,0,0,1-4.21-1.09,10.62,10.62,0,0,0-2.27-.78,5.91,5.91,0,0,0-1-.15,7.09,7.09,0,0,0-1.76.19,6.77,6.77,0,0,0-1.24.38c-1,.43-2.52,1-3.47,1.3A32.71,32.71,0,0,1,86,73.6a16.81,16.81,0,0,1-3.65.14A20.37,20.37,0,0,1,78.61,73a11.08,11.08,0,0,0-3.28-.49,29.81,29.81,0,0,0-6.57,2.27,63.83,63.83,0,0,0-6.37,3.16A43.24,43.24,0,0,0,58.1,82a25.53,25.53,0,0,0-3.45,4.29,34,34,0,0,0-1,5.58,12.6,12.6,0,0,0,.12,4.79A5.89,5.89,0,0,0,56,97.79a10.33,10.33,0,0,0,3.45.2A11.77,11.77,0,0,0,62,97.15a9.63,9.63,0,0,0,.92-0.46A20.84,20.84,0,0,1,67,94.95a16.93,16.93,0,0,1,4.14-.53c1.09,0,3.69.24,5.79,0.49a26.12,26.12,0,0,0,4.65.23,2.14,2.14,0,0,0,1-.54,15.51,15.51,0,0,1,1.17-1.49,15.25,15.25,0,0,1,1.36-1.29,6.18,6.18,0,0,1,1.78-1,6.46,6.46,0,0,1,2-.23,3.34,3.34,0,0,0,1.26-.24,5.85,5.85,0,0,0,1.36-1,4.25,4.25,0,0,1,2.19-1.19,3.27,3.27,0,0,1,2.27.82,5.7,5.7,0,0,0,1.25.81,4.53,4.53,0,0,0,1.31.28,16.52,16.52,0,0,1,1.9.18,19.71,19.71,0,0,1,1.95.45,2.79,2.79,0,0,1,1.81,1.57,3.7,3.7,0,0,1-.32,2.43,21.15,21.15,0,0,0-.81,2c-0.05.16-.11,0.36-0.17,0.57-0.16.55-.31,1.17-0.4,1.58a7.29,7.29,0,0,1-1.21,2.6,10.23,10.23,0,0,1-5.58,3.5,12.81,12.81,0,0,1-3.59.17,20.65,20.65,0,0,0-3.21-.06,19.42,19.42,0,0,0-3.09.56,18.23,18.23,0,0,1-3.52.57,19.08,19.08,0,0,1-3.62-.25,31.77,31.77,0,0,0-3.36-.38l-1,0-1.43,0-1,.06a9.39,9.39,0,0,0-3,.88l-0.42.25a12.25,12.25,0,0,0-2.23,1.92,17.91,17.91,0,0,1-3.07,2.72A14,14,0,0,1,59.75,113a9.37,9.37,0,0,0-2.62,1.25,9.51,9.51,0,0,0-1.94,2.19,27.12,27.12,0,0,1-2.19,3,31.58,31.58,0,0,1-2.76,2.75,4.74,4.74,0,0,0-1.61,5.26,15.45,15.45,0,0,1,.49,3.84,11.52,11.52,0,0,1-.75,3.49,10.06,10.06,0,0,0-.64,2.59A9,9,0,0,0,48,140a12,12,0,0,0,1.42,2.77A29.15,29.15,0,0,0,52.28,146a28.09,28.09,0,0,0,3.84,3A36.43,36.43,0,0,0,60,151c0.79,0.35,1.59.68,2.34,1,2.12,0.82,4.82,1.94,5.67,2.41a14.1,14.1,0,0,0,2.41,1,13.44,13.44,0,0,0,2.53.42,15,15,0,0,0,2.92-.26,30.46,30.46,0,0,0,3.68-1.08,26.52,26.52,0,0,1,4.35-1.14,23.84,23.84,0,0,1,4.35-.18,10.24,10.24,0,0,0,3.42-.45,10.34,10.34,0,0,0,2.91-1.87c0.85-.82,3.21-2.75,5.27-4.31,1.34-1,4.17-3,5.29-3.21a2.48,2.48,0,0,1,2.71,1.26,6.2,6.2,0,0,1,.52,2.09,4,4,0,0,1-.53,1.95c-0.2.32-.49,0.84-0.64,1.15s-0.22.48-.33,0.74a8.87,8.87,0,0,1,2.14.26,33.67,33.67,0,0,1,3.33,1.11l-0.21,1h0Z" fill="url(#b)"/><path d="M113.64,48.24h-0.16l0.72,0.45a13.93,13.93,0,0,1,2.89,2.4,13.64,13.64,0,0,1,1.92,3.2A15.67,15.67,0,0,0,121,57.6a18.09,18.09,0,0,0,2.94,2.76,4.27,4.27,0,0,1,1.74,2c0,0.41-.75.85-1.68,1a19.18,19.18,0,0,1-3.25.15,15.48,15.48,0,0,1-3-.54,14.41,14.41,0,0,0-2.85-.52,38.1,38.1,0,0,0-5.38.62,1.77,1.77,0,0,1,.14.15A2.55,2.55,0,0,1,110,64a3.79,3.79,0,0,1,.13,1.13,8,8,0,0,0,.23,2.22,7.5,7.5,0,0,0,.94,1.92l0,0a4,4,0,0,0,1.78,1.24,10.63,10.63,0,0,0,2.79-.06c0.87-.09,1.84-0.22,2.81-0.39a41.1,41.1,0,0,1,5.91-.71,14.41,14.41,0,0,1,2.85.52,15.48,15.48,0,0,0,3,.54,19.18,19.18,0,0,0,3.25-.15c0.93-.14,1.69-0.58,1.68-1a4.27,4.27,0,0,0-1.74-2,18.09,18.09,0,0,1-2.94-2.76,15.67,15.67,0,0,1-1.94-3.32,13.64,13.64,0,0,0-1.92-3.2,13.93,13.93,0,0,0-2.89-2.4,26.59,26.59,0,0,1-3.05-2.16,20.84,20.84,0,0,1-2.4-2.48,10.06,10.06,0,0,0-1.73-1.66,5.17,5.17,0,0,0-.51-0.34A6.77,6.77,0,0,0,113.64,48.24Z" fill="url(#c)"/><path d="M94,70.11a8.23,8.23,0,0,1,2-.21,7.19,7.19,0,0,1,1.13.18,3.85,3.85,0,0,0,1-.58l0.13-.14a4.19,4.19,0,0,0,1-1.64,6,6,0,0,0,0-2.4,5.48,5.48,0,0,1,0-2.28,2.85,2.85,0,0,1,.85-1.21,2.09,2.09,0,0,1,.29-0.21,5.31,5.31,0,0,0,.54-0.37,6.1,6.1,0,0,1-.34-0.85,8,8,0,0,1-.23-2.22,3.53,3.53,0,0,0-.46-1.92,3.42,3.42,0,0,0-1.65-1A4.18,4.18,0,0,1,96.45,54a6.29,6.29,0,0,1-1-2.28,2.39,2.39,0,0,0-.75-1.53,1.67,1.67,0,0,0-1.06,1.07,12.13,12.13,0,0,1-1.34,2,7.6,7.6,0,0,1-1.59,1.34,2.84,2.84,0,0,0-1.14,1.42,5.48,5.48,0,0,0,0,2.28,6,6,0,0,1,0,2.4,4.19,4.19,0,0,1-1.15,1.78,4.37,4.37,0,0,1-2.07.85,8.23,8.23,0,0,1-2.75-.4,15.91,15.91,0,0,0-3-.64,13.11,13.11,0,0,0-2.89.13l-0.72.1-0.32.31a8.41,8.41,0,0,0-.62.75A12.75,12.75,0,0,0,74.67,66a4.19,4.19,0,0,0-.41,2.51,1.68,1.68,0,0,0,1.8.33,12.44,12.44,0,0,1,2.89-.34,12.24,12.24,0,0,1,2.85.5,14.45,14.45,0,0,0,2.83.56,13.7,13.7,0,0,0,2.83-.16,13.11,13.11,0,0,1,2.89-.13,14.47,14.47,0,0,1,1.85.33c0.43,0.1.84,0.21,1.17,0.32S93.78,70.06,94,70.11Z" fill="url(#d)"/><path d="M152,159.46c-0.24,0-.82.15-1.27,0.26a2.33,2.33,0,0,1-1.41-.11,2.57,2.57,0,0,1-.92-1.14,7.87,7.87,0,0,0-.84-1.49,7,7,0,0,0-1.17-1.15,5.5,5.5,0,0,1-1.09-1.11,4.82,4.82,0,0,1-.59-1.37,11.54,11.54,0,0,1-.22-1.53,12.71,12.71,0,0,1,0-1.59,39.34,39.34,0,0,1,1.52-4.76,33,33,0,0,0,1.68-6.3,19,19,0,0,0-.26-4.72c-0.27-1.3-.61-3.42-0.76-4.72s-0.22-6.45-.16-11.46,0.26-9.87.44-10.8a23.56,23.56,0,0,0,.32-6.85,24.11,24.11,0,0,0-.6-3.29,20.64,20.64,0,0,0-1.11-3,18.79,18.79,0,0,0-1.6-2.61c-0.51-.66-2.51-2.74-4.46-4.62a64.64,64.64,0,0,0-5-4.41,18.81,18.81,0,0,0-1.79-1c-0.8-.41-1.77-0.89-2.8-1.37,1.89,1.83,3.8,3.81,4.3,4.46a18.79,18.79,0,0,1,1.6,2.61,20.64,20.64,0,0,1,1.11,3,24.11,24.11,0,0,1,.6,3.29,23.56,23.56,0,0,1-.32,6.85c-0.18.93-.38,5.79-0.44,10.8s0,10.16.16,11.46,0.49,3.42.76,4.72a19,19,0,0,1,.26,4.72,33,33,0,0,1-1.68,6.3,39.34,39.34,0,0,0-1.52,4.76,12.71,12.71,0,0,0,0,1.59,11.54,11.54,0,0,0,.22,1.53,4.82,4.82,0,0,0,.59,1.37,5.5,5.5,0,0,0,1.09,1.11A7,7,0,0,1,137.8,150a7.87,7.87,0,0,1,.84,1.49,2.57,2.57,0,0,0,.92,1.14,2.33,2.33,0,0,0,1.41.11c0.46-.11,1-0.23,1.27-0.26a0.77,0.77,0,0,1,.5,0c0,0.05-.07.14-0.23,0.19a7.45,7.45,0,0,1-.92.19,1.86,1.86,0,0,0-.89.37,0.83,0.83,0,0,0-.13.71c0.07,0.24-.32.46-0.86,0.49a19.7,19.7,0,0,1-3.07-.29c-1.15-.19-3-0.41-4.16-0.49s-4.89,0-8.33.13c-2.63.12-5.41,0.14-7.07,0.07a3.13,3.13,0,0,1-.3,1l-0.05.1c-0.22.34-.53,0.9-0.69,1.24s-0.4.88-.52,1.2a0.94,0.94,0,0,0,0,.84,1.35,1.35,0,0,0,.95.15,6.86,6.86,0,0,1,2,.22,32.46,32.46,0,0,1,3.21,1.07,22,22,0,0,0,3.9,1.05,66,66,0,0,0,8.25,0c3.44-.15,7.18-0.21,8.33-0.13s3,0.3,4.16.49a19.7,19.7,0,0,0,3.07.29c0.54,0,.93-0.25.86-0.49a0.83,0.83,0,0,1,.13-0.71,1.86,1.86,0,0,1,.89-0.37,7.45,7.45,0,0,0,.92-0.19c0.16-.05.26-0.14,0.23-0.19A0.77,0.77,0,0,0,152,159.46Z" fill="url(#e)"/><path d="M68.47,105.69a10.31,10.31,0,0,1,3.38-1l1.06-.06,0.24-.13a18.59,18.59,0,0,1,1.8-.89,17,17,0,0,1,2-.76,16,16,0,0,1,3.85-.5c1.06,0,3.62.24,5.69,0.49,1.06,0.13,2.16.21,3.07,0.25,0.56,0,1,0,1.41,0a3.74,3.74,0,0,0,.48,0,3,3,0,0,0,1.68-1,14.81,14.81,0,0,1,1.08-1.37,14.21,14.21,0,0,1,1.25-1.19A5.2,5.2,0,0,1,97,98.75a5.45,5.45,0,0,1,1.66-.19,4.35,4.35,0,0,0,1.74-.32l0.36-.19a7.33,7.33,0,0,0,1.29-1c0.06-.22.13-0.43,0.18-0.6a22.25,22.25,0,0,1,.86-2.13,2.8,2.8,0,0,0,.28-1.69,1.83,1.83,0,0,0-1.15-.93,18.41,18.41,0,0,0-1.83-.42,15.74,15.74,0,0,0-1.77-.17,5.49,5.49,0,0,1-1.67-.36,6.64,6.64,0,0,1-1.53-1,2.28,2.28,0,0,0-1.5-.57,3.3,3.3,0,0,0-1.58.9,6.79,6.79,0,0,1-1.66,1.2,4.35,4.35,0,0,1-1.74.32,5.45,5.45,0,0,0-1.66.19,5.2,5.2,0,0,0-1.45.79,14.21,14.21,0,0,0-1.25,1.19,14.81,14.81,0,0,0-1.08,1.37,3,3,0,0,1-1.68,1,25.65,25.65,0,0,1-5-.22c-2.07-.24-4.63-0.46-5.69-0.49a16,16,0,0,0-3.85.5,20.08,20.08,0,0,0-3.85,1.65,10.65,10.65,0,0,1-1,.5c0,0.2-.05.41-0.08,0.61s0,0.35,0,.52c-0.21,2.3-.07,4.48.36,5a6.47,6.47,0,0,0,2.77,1.51,8.08,8.08,0,0,0,1,.19A12.78,12.78,0,0,0,68,106C68.15,105.88,68.32,105.78,68.47,105.69Z" fill="url(#f)"/><path d="M112.16,152.85h0l-0.16-.06a32.46,32.46,0,0,0-3.21-1.07,6.86,6.86,0,0,0-2-.22,1.35,1.35,0,0,1-.95-0.15,0.94,0.94,0,0,1,0-.84c0.12-.33.35-0.87,0.52-1.2s0.48-.89.69-1.24a3,3,0,0,0,.38-1.4A5.23,5.23,0,0,0,107,145a1.5,1.5,0,0,0-1.61-.69,21.76,21.76,0,0,0-4.87,3c-2,1.54-4.36,3.44-5.18,4.23A11.19,11.19,0,0,1,92,153.63a11.1,11.1,0,0,1-3.83.51,22.77,22.77,0,0,0-4.13.17,25.57,25.57,0,0,0-4.15,1.09,31.31,31.31,0,0,1-3.83,1.12,15.79,15.79,0,0,1-3.17.28,14.48,14.48,0,0,1-2.76-.46,15.12,15.12,0,0,1-2.62-1.1c-0.7-.39-3.19-1.45-5.54-2.35-0.76-.29-1.59-0.64-2.39-1,0.55,0.63,1.15,1.27,1.67,1.78h0a28.89,28.89,0,0,0,4,3.16,48.27,48.27,0,0,0,6.41,3c2.34,0.9,4.84,2,5.54,2.35a15.12,15.12,0,0,0,2.62,1.1,14.48,14.48,0,0,0,2.76.46,15.79,15.79,0,0,0,3.17-.28,31.31,31.31,0,0,0,3.83-1.12,25.57,25.57,0,0,1,4.15-1.09,22.77,22.77,0,0,1,4.13-.17,8.92,8.92,0,0,0,7.1-2.6c0.82-.79,3.15-2.7,5.18-4.23l1-.71,1-.69h0Z" fill="url(#g)"/></svg>