<svg xmlns="http://www.w3.org/2000/svg" xmlns:xlink="http://www.w3.org/1999/xlink" width="117.6" height="200" viewBox="0 0 117.6 200"><defs><linearGradient id="a" x1="37.57" y1="158.96" x2="75.12" y2="74.62" gradientUnits="userSpaceOnUse"><stop offset="0" stop-color="#fdba56"/><stop offset=".02" stop-color="#fbb055"/><stop offset=".06" stop-color="#f79d54"/><stop offset=".1" stop-color="#f59253"/><stop offset=".15" stop-color="#f48e53"/><stop offset=".3" stop-color="#ed5e4e"/><stop offset=".47" stop-color="#683a96" stop-opacity=".5"/><stop offset=".64" stop-color="#ed872b"/><stop offset=".79" stop-color="#7b76b6"/><stop offset=".9" stop-color="#f15f4f"/><stop offset="1" stop-color="#fdba56"/></linearGradient><linearGradient id="c" x1="44.99" y1="72.04" x2="61.98" y2="33.88" xlink:href="#a"/><linearGradient id="d" x1="24.4" y1="63.83" x2="24.68" y2="63.19" xlink:href="#a"/><linearGradient id="b" x1="107.69" y1="159.81" x2="108.35" y2="161.31" gradientUnits="userSpaceOnUse"><stop offset="0" stop-color="#b7151b"/><stop offset=".02" stop-color="#c52229"/><stop offset=".06" stop-color="#d7333c"/><stop offset=".11" stop-color="#e23d47"/><stop offset=".15" stop-color="#e6404b"/><stop offset=".3" stop-color="#e98a7b"/><stop offset=".47" stop-color="#7c78b8"/><stop offset=".64" stop-color="#00b0b0"/><stop offset=".79" stop-color="#7b76b6"/><stop offset="1" stop-color="#e7322f"/></linearGradient><linearGradient id="e" x1="38.42" y1="91.23" x2="45.62" y2="107.41" xlink:href="#b"/><linearGradient id="f" x1="74.11" y1="92.15" x2="104.64" y2="160.73" xlink:href="#b"/><linearGradient id="g" x1="42.61" y1="143.08" x2="53.05" y2="166.52" xlink:href="#b"/><linearGradient id="h" x1="57.93" y1="48.91" x2="68.42" y2="72.47" xlink:href="#b"/></defs><title>_</title><path d="M37.69 107.18a12.58 12.58 0 0 0-3 .33 29.75 29.75 0 0 0-4.69 2.07c-1.83 1-4 2-4.91 2.39s-3.19 1-5.11 1.52a32.75 32.75 0 0 0-4.8 1.6A17.5 17.5 0 0 0 12.4 117a11.84 11.84 0 0 0-2.1 2.46 11.81 11.81 0 0 0-1.14 3c-.21 1-.64 2.7-1 3.71s-.94 2.64-1.38 3.63a22.2 22.2 0 0 0-1.04 3.2 14.83 14.83 0 0 0-.33 2.88 8 8 0 0 0 .5 2.44 34.75 34.75 0 0 0 4.51 5.15 70.68 70.68 0 0 0 5.95 5.39 38.57 38.57 0 0 0 3.92 2.36l1.19.58c1 .46 2 .9 2.57 1.14a76.18 76.18 0 0 0 9.3 1.7 117.33 117.33 0 0 0 11.86 1.08 22.53 22.53 0 0 0 5.7-.59 40.05 40.05 0 0 0 6.63-4.64 52.35 52.35 0 0 1 6.46-4.75 2.82 2.82 0 0 1 3.15 1.13 19.29 19.29 0 0 1 1.21 1.85 3.29 3.29 0 0 1 .3 1.62 4.44 4.44 0 0 1-.55 1.6 6.1 6.1 0 0 0-.44.94 1.82 1.82 0 0 0 0 .19h.18c.21 0 1.63 0 5.51-.06l2.3-.07 3-.11 8.7-.34c3.21-.13 5.64-.26 7.21-.36a5.05 5.05 0 0 1-.56-1.07 4.18 4.18 0 0 1-.09-2.15 6 6 0 0 1 1.09-2 1.56 1.56 0 0 0 .34-.79 2.41 2.41 0 0 0-.67-.86 4.15 4.15 0 0 1-1.27-3.08 14.68 14.68 0 0 1 1.07-4.27 18.32 18.32 0 0 0 1.1-4.42 16.82 16.82 0 0 0-.34-4.4c-.37-1.52-.89-7.56-1.18-12.52l-.17-2.9c-.35-5.93-.76-10.72-.92-11.47a15 15 0 0 1-.25-3.63 17.31 17.31 0 0 1 .78-3.71 9 9 0 0 0 .39-2.86 6.3 6.3 0 0 0-.79-2.38 20.6 20.6 0 0 1-1.5-3 22.25 22.25 0 0 1-.68-2.17c-.11-.4-.2-.79-.26-1.11a5.32 5.32 0 0 0-1.15-2.22 24.58 24.58 0 0 0-6-2.42c-3-.89-6.13-1.92-7.1-2.34s-2.51-1.19-3.49-1.74a11.93 11.93 0 0 0-3.2-1.15 11.92 11.92 0 0 0-3.41.06c-1.26.24-7.13.53-12.08.68h-1.22c-5.94.17-10.76.42-11.53.54a66.21 66.21 0 0 0-6.42 1.81 62.55 62.55 0 0 1-6.95 1.91 28.25 28.25 0 0 1-4.12.23 6.93 6.93 0 0 0-2.86.56 4.07 4.07 0 0 0-1.44 1.79 31.63 31.63 0 0 1-1.28 3c-.39.77-1.71 2.92-3 4.9a38.54 38.54 0 0 0-2.6 4.42 9.88 9.88 0 0 0-.47 2 1 1 0 0 0 .32.71 58 58 0 0 0 7.94 1.05l2 .16c3.45.26 6.54.41 7.36.36 1.09-.07 2.87-.1 4-.06s2.88.19 4 .34a8.93 8.93 0 0 0 2.82-.06A2.69 2.69 0 0 0 42 97a12.66 12.66 0 0 1 1.35-1.81A7 7 0 0 1 44.87 94a4.12 4.12 0 0 0 1-.84 11.44 11.44 0 0 0 1.07-1.72A3.41 3.41 0 0 1 49 89.6a3.4 3.4 0 0 1 2.58 1 2.49 2.49 0 0 0 1.16.58 2.18 2.18 0 0 0 1-.62 3.73 3.73 0 0 1 2.34-1.26 3.21 3.21 0 0 1 2.29 1.27 7.19 7.19 0 0 0 1.31 1.24 5.06 5.06 0 0 0 1.4.6 3.51 3.51 0 0 1 2 1.2 3.78 3.78 0 0 1 .5 2.27 13.58 13.58 0 0 1-.58 2.27c-.09.31-.25.72-.42 1.14s-.38.91-.56 1.27a7.84 7.84 0 0 1-1.87 2.33 9.68 9.68 0 0 1-2.8 1.4c-.81.24-3.67.79-4.53 1l-3.47.64c-1.53.27-3.08.53-4.42.74s-3.13.48-3.81.52c-.91.02-2.47.03-3.43-.01z" fill="url(#a)"/><path d="M81.57 46.41a11 11 0 0 0 .37-2.7 2.21 2.21 0 0 0-.39-1.1.73.73 0 0 0-.46-.16 3.34 3.34 0 0 0-1 .79 3.56 3.56 0 0 1-2.34 1.28 3.44 3.44 0 0 1-2.32-1.28 2.09 2.09 0 0 0-.69-.54 1.71 1.71 0 0 0-.56.51 9.42 9.42 0 0 1-1.42 1.64 3.1 3.1 0 0 1-1.71.71.58.58 0 0 0-.16.08 2.86 2.86 0 0 0-.36.75 3.17 3.17 0 0 1-1.24 1.68 3.64 3.64 0 0 1-2.08.35c-.45-.06-1.22-.11-1.69-.11s-1.27 0-1.76.1a9.65 9.65 0 0 1-2.33-.1 39.43 39.43 0 0 1-4.8-1.68c-1.91-.77-5.62-2-8.27-2.76a22.19 22.19 0 0 0-5.93-1 12.3 12.3 0 0 0-3 1.25c-.93.56-2.4 1.54-3.2 2.15a69.93 69.93 0 0 0-5.23 5.1A40.73 40.73 0 0 0 26.34 57a21.21 21.21 0 0 0-1.39 3.7 11.41 11.41 0 0 0-.35 2.3 5.73 5.73 0 0 1 1.66-.27h.33a5 5 0 0 1 2.08.83 9.37 9.37 0 0 0 1.34.79 6.79 6.79 0 0 0 1.28.39 2.54 2.54 0 0 0 1-.09 4.18 4.18 0 0 0 1.09-.71 4.52 4.52 0 0 0 .82-1.1 3.65 3.65 0 0 0 .25-1.21 5.77 5.77 0 0 1 .45-2.09 7.6 7.6 0 0 1 1.29-1.85 8.69 8.69 0 0 1 2-1.44 10.87 10.87 0 0 1 2.47-.8H41a12.38 12.38 0 0 1 2.59 0 20.83 20.83 0 0 1 3.42.79 26.43 26.43 0 0 1 3.13 1.27A26.83 26.83 0 0 1 54 60.26a14.11 14.11 0 0 0 2.91 2.07 17.05 17.05 0 0 0 3.58-.33 56.79 56.79 0 0 0 6.13-1.43 28.06 28.06 0 0 0 4.5-1.74A40.18 40.18 0 0 0 76 54.54l.82-.84a31.61 31.61 0 0 0 3.5-4.14 16.63 16.63 0 0 0 1.25-3.15z" fill="url(#c)"/><path fill="url(#d)" d="M24.36 63.05h-.01l.38.92-.37-.92z"/><path d="M108.49 161.07a1.75 1.75 0 0 1-.07.19 2.28 2.28 0 0 0 .27-.39c.17-.27-.1-.56-.6-.65l-1-.17a5.44 5.44 0 0 0 .71.33 4.16 4.16 0 0 1 .74.36.34.34 0 0 0 0 .13 1.54 1.54 0 0 1-.05.2z" fill="url(#b)"/><path d="M39.7 105.63c1.06-.07 2.8-.1 3.86-.06l1.25.07c1.34-.21 2.88-.47 4.41-.74l3.46-.64a13 13 0 0 1 .87-1.19l.22-.26a6 6 0 0 1 1.28-1 5.09 5.09 0 0 0 1.27-1.09 12.21 12.21 0 0 0 1.19-1.91 2.51 2.51 0 0 1 1.34-1.3 2.52 2.52 0 0 1 1.72.73c.07.06.16.11.24.17a3.91 3.91 0 0 0 .88.5c.16-.39.3-.78.39-1.07a12.69 12.69 0 0 0 .43-2.09 2.81 2.81 0 0 0-.32-1.6 2.5 2.5 0 0 0-1.35-.8 6 6 0 0 1-1.75-.75 8.22 8.22 0 0 1-1.54-1.46 2.31 2.31 0 0 0-1.49-.89 2.82 2.82 0 0 0-1.61.93 3 3 0 0 1-1.74.95 3.24 3.24 0 0 1-1.85-.85 2.52 2.52 0 0 0-1.72-.73 2.51 2.51 0 0 0-1.34 1.3 12.21 12.21 0 0 1-1.19 1.91 5.09 5.09 0 0 1-1.27 1.09 6 6 0 0 0-1.28 1 11.76 11.76 0 0 0-1.22 1.64A3.63 3.63 0 0 1 41 98.87a9.82 9.82 0 0 1-3.23.09c-1.07-.15-2.82-.3-3.89-.33s-2.8 0-3.86.06c-.89.06-4.05-.1-7.5-.36-.21.36-.39.68-.54 1a7.11 7.11 0 0 0-.36.76 10.81 10.81 0 0 0-.52 2.22 1.94 1.94 0 0 0 .76 1.64c.47.31 4.26.86 8.41 1.21 1.54.13 3.09.25 4.49.33 2.33.11 4.24.18 4.94.14z" fill="url(#e)"/><path d="M92.54 86.3a19.75 19.75 0 0 0 1.41 2.79 7.33 7.33 0 0 1 .94 2.85 9.93 9.93 0 0 1-.49 3.29 16.44 16.44 0 0 0-.73 3.45 14.12 14.12 0 0 0 .23 3.32c.2.91.62 6.14.94 11.63l.17 2.9c.32 5.49.84 11 1.15 12.34a17.77 17.77 0 0 1 .37 4.72 19.26 19.26 0 0 1-1.17 4.72 13.7 13.7 0 0 0-1 3.9 3.2 3.2 0 0 0 .89 2.28 3 3 0 0 1 1 1.5 2.35 2.35 0 0 1-.56 1.57 5 5 0 0 0-.88 1.6 3.19 3.19 0 0 0 .07 1.57 4.27 4.27 0 0 0 .85 1.36 4.41 4.41 0 0 0 1.08.79 89.09 89.09 0 0 1-9.49.61l-8.7.34-3 .11a2.09 2.09 0 0 1 .41.42l.39.55c.34.49.64 1 .74 1.16a2.33 2.33 0 0 1 .2 1.08 3.51 3.51 0 0 1-.42 1.19 7.07 7.07 0 0 0-.53 1.14 3 3 0 0 0-.14.94 1.26 1.26 0 0 0 1.07.58c.57.09 5.53 0 11-.23l8.7-.34a89.09 89.09 0 0 0 9.49-.61 4.41 4.41 0 0 1-1.08-.79 4.27 4.27 0 0 1-.85-1.36 3.19 3.19 0 0 1-.07-1.57 5 5 0 0 1 .88-1.6 2.35 2.35 0 0 0 .59-1.5 3 3 0 0 0-1-1.5 3.2 3.2 0 0 1-.89-2.28 13.7 13.7 0 0 1 1-3.9 19.26 19.26 0 0 0 1.17-4.72 17.77 17.77 0 0 0-.37-4.72c-.31-1.3-.83-6.85-1.15-12.34l-.17-2.9c-.32-5.49-.75-10.72-.94-11.63a14.12 14.12 0 0 1-.23-3.35 16.44 16.44 0 0 1 .73-3.45 9.93 9.93 0 0 0 .49-3.29 7.33 7.33 0 0 0-.94-2.85 19.75 19.75 0 0 1-1.41-2.79 22 22 0 0 1-.9-3.11 6.23 6.23 0 0 0-1.43-2.74c-.61-.6-3.49-1.81-6.41-2.67l-.55-.19-1.13-.34a21.06 21.06 0 0 0 .67 2.07zM99 153.94a2.28 2.28 0 0 1-.27.39 1.75 1.75 0 0 0 .07-.19 1.54 1.54 0 0 0 0-.19.34.34 0 0 1 0-.13 4.16 4.16 0 0 0-.74-.36 5.44 5.44 0 0 1-.71-.33l1 .17c.53.08.8.37.65.64z" fill="url(#f)"/><path d="M67.63 154.1a1.26 1.26 0 0 1-1.07-.58 3 3 0 0 1 .14-.94 7.07 7.07 0 0 1 .53-1.14 3.51 3.51 0 0 0 .42-1.19 2.33 2.33 0 0 0-.2-1.08 19 19 0 0 0-1.13-1.72 1.86 1.86 0 0 0-2-.78 52.34 52.34 0 0 0-6.17 4.57 40 40 0 0 1-6.9 4.76 23.66 23.66 0 0 1-6 .65 118.77 118.77 0 0 1-12-1.09 74.61 74.61 0 0 1-9.53-1.76c-.65-.26-1.68-.71-2.64-1.17.79.75 1.57 1.47 2.27 2.1.93.83 1.71 1.49 2.17 1.81a39 39 0 0 0 4 2.43c1.18.6 2.91 1.39 3.85 1.76a74.61 74.61 0 0 0 9.53 1.76 118.77 118.77 0 0 0 12 1.09 23.66 23.66 0 0 0 6-.65 40 40 0 0 0 6.93-4.81c1.43-1.17 2.84-2.27 4-3.1.57-.42 1.08-.78 1.47-1-3.03.11-5.3.13-5.67.08z" fill="url(#g)"/><path d="M79.86 51.9a3.46 3.46 0 0 0-.6 1.16 2.17 2.17 0 0 1-.79 1.11 2.32 2.32 0 0 1-.93.23l-.83.85a39.89 39.89 0 0 1-5.11 4.5 28.9 28.9 0 0 1-4.71 1.83A58 58 0 0 1 60.64 63a16.25 16.25 0 0 1-4 .26A13.26 13.26 0 0 1 53.33 61a25.91 25.91 0 0 0-3.62-2.7 25.29 25.29 0 0 0-3-1.21 20.11 20.11 0 0 0-3.22-.74 11.49 11.49 0 0 0-2.35 0l-1.2 1.25-.07.08a57.893 57.893 0 0 0-3.44 4 14.44 14.44 0 0 0-1.28 1.82 20.09 20.09 0 0 0-1 2.31c-.2.57-.38 1.13-.5 1.6a9.25 9.25 0 0 0-.35 3 .77.77 0 0 0 1.1.51 4.36 4.36 0 0 1 1.75-.27 4 4 0 0 1 1.6.65 10.29 10.29 0 0 0 1.52.89 7.58 7.58 0 0 0 1.52.47 3.52 3.52 0 0 0 1.49-.14 5.11 5.11 0 0 0 1.43-.92 5.44 5.44 0 0 0 1.05-1.41 4.58 4.58 0 0 0 .34-1.63 4.81 4.81 0 0 1 .36-1.68 6.64 6.64 0 0 1 1.1-1.56 7.63 7.63 0 0 1 1.71-1.24 9.94 9.94 0 0 1 2.2-.71 11 11 0 0 1 2.7-.05 17.8 17.8 0 0 1 2.06.41c.41.1.82.22 1.16.33l.82.29a23.3 23.3 0 0 1 2.17.92A25.91 25.91 0 0 1 63 68a13.26 13.26 0 0 0 3.32 2.28 16.25 16.25 0 0 0 4-.26 58 58 0 0 0 6.26-1.46 28.9 28.9 0 0 0 4.71-1.83 39.89 39.89 0 0 0 5.11-4.5A37.52 37.52 0 0 0 90.91 57a17.65 17.65 0 0 0 1.34-3.38 11.84 11.84 0 0 0 .4-3 3 3 0 0 0-.72-1.77 1.7 1.7 0 0 0-1.36-.39A3.86 3.86 0 0 0 89 49.54a2.65 2.65 0 0 1-1.59.94 2.52 2.52 0 0 1-1.56-.92 2.43 2.43 0 0 0-1.48-.92 2.17 2.17 0 0 0-1.37 1A8.47 8.47 0 0 1 81.82 51l-.14.1a2 2 0 0 1-.94.38 1.4 1.4 0 0 0-.88.42z" fill="url(#h)"/></svg>