<svg xmlns="http://www.w3.org/2000/svg" xmlns:xlink="http://www.w3.org/1999/xlink" width="200" height="200" viewBox="0 0 200 200"><defs><linearGradient id="a" x1="72.96" y1="62.62" x2="82.89" y2="40.31" gradientUnits="userSpaceOnUse"><stop offset="0" stop-color="#fdba56"/><stop offset=".02" stop-color="#fbb055"/><stop offset=".06" stop-color="#f79d54"/><stop offset=".1" stop-color="#f59253"/><stop offset=".15" stop-color="#f48e53"/><stop offset=".3" stop-color="#ed5e4e"/><stop offset=".47" stop-color="#683a96" stop-opacity=".5"/><stop offset=".64" stop-color="#ed872b"/><stop offset=".79" stop-color="#7b76b6"/><stop offset=".9" stop-color="#f15f4f"/><stop offset="1" stop-color="#fdba56"/></linearGradient><linearGradient id="c" x1="79.23" y1="161.16" x2="118.14" y2="73.75" xlink:href="#a"/><linearGradient id="d" x1="107.37" y1="63.98" x2="117.99" y2="40.13" xlink:href="#a"/><linearGradient id="b" x1="85.01" y1="53.49" x2="92.92" y2="71.26" gradientUnits="userSpaceOnUse"><stop offset="0" stop-color="#b7151b"/><stop offset=".02" stop-color="#c52229"/><stop offset=".06" stop-color="#d7333c"/><stop offset=".11" stop-color="#e23d47"/><stop offset=".15" stop-color="#e6404b"/><stop offset=".3" stop-color="#e98a7b"/><stop offset=".47" stop-color="#7c78b8"/><stop offset=".64" stop-color="#00b0b0"/><stop offset=".79" stop-color="#7b76b6"/><stop offset="1" stop-color="#e7322f"/></linearGradient><linearGradient id="e" x1="83.38" y1="144.33" x2="92.3" y2="164.36" xlink:href="#b"/><linearGradient id="f" x1="111.41" y1="85.94" x2="146.1" y2="163.85" xlink:href="#b"/><linearGradient id="g" x1="79.32" y1="89.48" x2="86.46" y2="105.52" xlink:href="#b"/><linearGradient id="h" x1="118.85" y1="50.85" x2="127.95" y2="71.29" xlink:href="#b"/></defs><title>_</title><path d="M100 96.32a11.28 11.28 0 0 0-1.9.25 15.15 15.15 0 0 0-1.93.63 18.24 18.24 0 0 0-1.92 1 6.35 6.35 0 0 0-1.48 1.25 3.44 3.44 0 0 0-.61 1.45 1.12 1.12 0 0 1-.1.33 54.23 54.23 0 0 0 8.85-1.07 9.24 9.24 0 0 0 2.27-1.76 7.19 7.19 0 0 0 .94-1.38l-.68-.16a21.64 21.64 0 0 0-3.44-.54z" fill="none"/><path d="M90 51.07a30.92 30.92 0 0 1-.83-4.38 18.67 18.67 0 0 1 .17-2.87 1.39 1.39 0 0 0-.06-.66 5.11 5.11 0 0 0-1.61.36 24 24 0 0 1-3.57 1.06 20.54 20.54 0 0 1-3.51.31 23.84 23.84 0 0 1-3.43-.38 26 26 0 0 1-3.41-1 23 23 0 0 0-3.13-.89 22.29 22.29 0 0 0-3.21-.33h-.03a3.37 3.37 0 0 0-1.6.36 1.85 1.85 0 0 0 0 1 7.89 7.89 0 0 1 .2 3.13 8.85 8.85 0 0 1-1.26 3 5.79 5.79 0 0 0-.84 2.05 4.62 4.62 0 0 0 .34 2 25.71 25.71 0 0 1 1 2.52 17.5 17.5 0 0 1 .53 2.35 1.82 1.82 0 0 0 .55 1 26.59 26.59 0 0 0 5 1l2.17.3c1.83.22 3.37.38 3.94.4a25.87 25.87 0 0 0 3.11-.13c.92-.11 3.18-.22 5-.25a12.62 12.62 0 0 0 3.91-.56A3.55 3.55 0 0 0 90.64 59a9.15 9.15 0 0 0 .51-2.28 25.55 25.55 0 0 0-.89-4.72c-.08-.32-.16-.63-.26-.93z" fill="url(#a)"/><path d="M115.83 153.09c.25 0 .54-.05.86-.1a16 16 0 0 0 3-.79 19.06 19.06 0 0 1 4.45-1.09c1.41-.13 5.52.64 8.67 1.46a66.54 66.54 0 0 0 7.14 1.58 1 1 0 0 0 .43-.1c0-.18.08-.36.1-.48a1.71 1.71 0 0 1-1.25-1 5.86 5.86 0 0 1-.27-2 3.23 3.23 0 0 0-.23-1.25 1.39 1.39 0 0 0-.61-.44 5.18 5.18 0 0 1-1.7-.86 3.52 3.52 0 0 1-1.19-3.4 6.18 6.18 0 0 1 .79-1.86 4.86 4.86 0 0 0 .4-1.84c0-.72-.33-4.3-.89-8.49a79.69 79.69 0 0 1-.83-9.61 43.75 43.75 0 0 1 .58-4.85c.23-1.24.64-6.12.89-10.66a76.54 76.54 0 0 0 .12-9.81 18.79 18.79 0 0 0-1-3c-.39-.85-2-3.8-3.54-6.45a61.68 61.68 0 0 0-4.78-7.16c-.27-.32-.57-.66-.87-1a31.8 31.8 0 0 0-2.36-2.38c-.69-.58-1.93-1.5-2.71-2s-2.18-1.31-3-1.74-2.42-1.09-3.37-1.44a15 15 0 0 0-3.42-.73 32.7 32.7 0 0 0-5.51.53 85.88 85.88 0 0 1-9.33.87c-3 .11-8.49 0-12.31-.19a51.33 51.33 0 0 0-8.29 0c-.76.19-4.83 1.94-9.45 4.13S58.3 81 57.88 81.48a6.74 6.74 0 0 0-.78 2.3 10.6 10.6 0 0 1-1.1 3.34 11.86 11.86 0 0 1-2.34 2.76 5.9 5.9 0 0 0-1.48 1.88 3.12 3.12 0 0 0 0 1.75 4.59 4.59 0 0 0 1.29 1.66 9.24 9.24 0 0 0 2.64 1.14 15.26 15.26 0 0 0 3.44.34 13.72 13.72 0 0 0 1.73-.22 15.33 15.33 0 0 0 1.86-.43 20.78 20.78 0 0 1 4.08-.8 19.67 19.67 0 0 1 4.09.21 23.61 23.61 0 0 0 3.6.29 21.16 21.16 0 0 0 3.47-.41 10.16 10.16 0 0 0 2.44-.86 1.55 1.55 0 0 0 .57-.65 4.38 4.38 0 0 1 .81-1.93 7.28 7.28 0 0 1 1.8-1.49 19.26 19.26 0 0 1 2.05-1 16.22 16.22 0 0 1 2.08-.68 12.28 12.28 0 0 1 2.11-.28 22.71 22.71 0 0 1 3.67.53 19.56 19.56 0 0 1 3.46 1A10.23 10.23 0 0 1 98.91 91a4.13 4.13 0 0 0 1.14.64 5.2 5.2 0 0 0 1.45.15 5 5 0 0 1 2.34.49 6.38 6.38 0 0 1 1.86 1.66 3.9 3.9 0 0 1 .59 2.87 4.08 4.08 0 0 1-.32.86 9.17 9.17 0 0 1-1.36 2 11.15 11.15 0 0 1-2.89 2.22c-1.15.55-6.53 1.07-9.86 1.28l-.78.05a54.29 54.29 0 0 0-8.6 1.05l-.18.09a16.09 16.09 0 0 0-2.7 1.6 13.09 13.09 0 0 1-3.5 1.82 12 12 0 0 1-3.84.39c-1-.08-2.58-.13-3.52-.12s-2.55.12-3.53.24a11.29 11.29 0 0 0-3 .89 11.77 11.77 0 0 0-2.59 1.91 30.73 30.73 0 0 1-2.92 2.57 32.46 32.46 0 0 1-3.32 2.13 8.69 8.69 0 0 0-2.38 2 29.55 29.55 0 0 0-2.11 6.56c-.74 3.25-1.29 6.21-1.33 6.93a26.44 26.44 0 0 0 1 5.4 47.39 47.39 0 0 0 3.22 8 21.7 21.7 0 0 0 3.87 5.39 16 16 0 0 0 4.2 2.24c.61.2 1.35.42 2.07.62 1 .27 1.83.49 2.39.61a18.42 18.42 0 0 0 3.2.39h.08a22.85 22.85 0 0 1 5.74.71 8.6 8.6 0 0 0 2.69.08 40.39 40.39 0 0 0 5.52-1.65 70 70 0 0 1 10-2.47 52.4 52.4 0 0 0 7.41-1.67 18.28 18.28 0 0 0 3.3-1.89 19.22 19.22 0 0 1 2.91-1.83 2.53 2.53 0 0 1 2.49 0 1.84 1.84 0 0 1 .54 1.94 4.77 4.77 0 0 1-1.2 1.63 2.41 2.41 0 0 0-.44.56.53.53 0 0 0 .13.13 12.3 12.3 0 0 1 1.17.89 4.36 4.36 0 0 1 .67.78 4.47 4.47 0 0 0 .78.4c.54.22 1.9.66 3 1a11.49 11.49 0 0 0 1.76.33 11.81 11.81 0 0 0 1.77.22z" fill="url(#c)"/><path d="M102.93 62a15.59 15.59 0 0 0 3.08.51 22 22 0 0 0 2.73-.28c1.16-.17 2.43-.39 3.56-.61a57.34 57.34 0 0 1 6.73-1 28.36 28.36 0 0 1 3.54.21 3.79 3.79 0 0 0 1.32 0 2.13 2.13 0 0 0-.21-.82 17.37 17.37 0 0 1-1-2.88 13.17 13.17 0 0 1-.29-2.82 14.55 14.55 0 0 1 .39-2.72 17.13 17.13 0 0 1 1-2.69c.14-.29.3-.68.44-1.08a12 12 0 0 0 .39-1.27 13.14 13.14 0 0 0 .27-2.44 1.48 1.48 0 0 0-.35-1 4 4 0 0 0-1.84.05 12.14 12.14 0 0 1-3.75.23 12.79 12.79 0 0 1-3.63-1.17 9.6 9.6 0 0 0-2.88-.88H112a8.81 8.81 0 0 0-2.47.38c-.93.32-2.39.75-3.26 1s-2.29.47-3.12.58a4.61 4.61 0 0 0-1.75.6 1.76 1.76 0 0 0-.48 1c0 .63-.3 2.19-.57 3.56-.07.33-.13.67-.19 1-.17 1-.3 2-.32 2.47a15.19 15.19 0 0 0 .12 2.31c.11.73.22 2.47.27 4a6.37 6.37 0 0 0 .64 2.83 4.7 4.7 0 0 0 1.29.81 5.61 5.61 0 0 0 .77.12z" fill="url(#d)"/><path d="M101.76 62.58a5.54 5.54 0 0 1-1.6-1 6.72 6.72 0 0 1-.9-3.48c0-1.42-.16-3.15-.26-3.83a16.14 16.14 0 0 1-.13-2.5 26.07 26.07 0 0 1 .34-2.59 3.83 3.83 0 0 0-1 .08 6.38 6.38 0 0 0-1.14.33 22.92 22.92 0 0 1-3.39 1c-.46.09-1 .16-1.63.21l-1 .07c.07.3.15.6.23.9a25.57 25.57 0 0 1 .92 5 10.13 10.13 0 0 1-.57 2.58A4.49 4.49 0 0 1 90 61.29a12.62 12.62 0 0 1-4.4.7c-1.82 0-4 .14-4.94.24a26.72 26.72 0 0 1-3.25.13c-.63 0-2.24-.19-4-.41.14.35.28.72.4 1.06s.14.4.19.56a16.56 16.56 0 0 1 .5 2.19 2.76 2.76 0 0 0 .95 1.63 22.14 22.14 0 0 0 5.44 1.23c2.55.35 5.37.66 6.26.69a26.72 26.72 0 0 0 3.25-.13c.89-.1 3.12-.21 4.94-.24a12.62 12.62 0 0 0 4.4-.7 4.49 4.49 0 0 0 1.59-1.95 10.14 10.14 0 0 0 .57-2.58 6.85 6.85 0 0 0-.14-1.13z" fill="url(#b)"/><path d="M111.87 153.65c-1.09-.32-2.46-.77-3-1a3.26 3.26 0 0 1-1.21-.72 2.89 2.89 0 0 0-.54-.65 11.19 11.19 0 0 0-1.05-.8 1.31 1.31 0 0 1-.61-1 2.57 2.57 0 0 1 .8-1.26 3.93 3.93 0 0 0 .93-1.21.85.85 0 0 0-.24-.86 1.74 1.74 0 0 0-1.45.12 18.26 18.26 0 0 0-2.71 1.71 19.37 19.37 0 0 1-3.51 2 53.5 53.5 0 0 1-7.62 1.73 68.83 68.83 0 0 0-9.79 2.43 41.47 41.47 0 0 1-5.72 1.7 9.51 9.51 0 0 1-3.08-.11 26.35 26.35 0 0 0-2.76-.52 26.63 26.63 0 0 0-2.81-.16 20.17 20.17 0 0 1-3.41-.41c-.61-.13-1.53-.36-2.46-.62.27.43.56.86.84 1.26a14.41 14.41 0 0 0 2.23 2.63 17 17 0 0 0 4.52 2.41c1.42.46 3.48 1 4.57 1.26a20.17 20.17 0 0 0 3.41.41 26.63 26.63 0 0 1 2.81.16 26.35 26.35 0 0 1 2.76.52 9.51 9.51 0 0 0 3.08.11 41.47 41.47 0 0 0 5.72-1.7 68.83 68.83 0 0 1 9.79-2.43 53.5 53.5 0 0 0 7.62-1.73 19.37 19.37 0 0 0 3.51-2l.13-.09c.38-.28.8-.57 1.21-.83a12.45 12.45 0 0 1-1.96-.35z" fill="url(#e)"/><path d="M151 159.89a.31.31 0 0 1-.19-.19.36.36 0 0 1 .21-.19c.11-.05.14-.1.07-.1a4.85 4.85 0 0 0-.59.09.66.66 0 0 1-.68-.41 5.06 5.06 0 0 1-.19-1.62 4 4 0 0 0-.36-1.78 2.32 2.32 0 0 0-1.2-.9 4.27 4.27 0 0 1-1.33-.67 3 3 0 0 1-.75-1.08 3 3 0 0 1-.09-1.36 5.21 5.21 0 0 1 .65-1.5 5.61 5.61 0 0 0 .56-2.36c0-.86-.38-4.76-.9-8.65a80.68 80.68 0 0 1-.82-9.43 42.54 42.54 0 0 1 .56-4.72c.24-1.3.65-6.15.9-10.79a74.64 74.64 0 0 0 .1-10.08 19.77 19.77 0 0 0-1.1-3.25c-.4-.88-2-3.82-3.58-6.53a62 62 0 0 0-4.89-7.31 38.44 38.44 0 0 0-3.38-3.47c-.72-.6-2-1.54-2.8-2.07-.57-.37-1.43-.88-2.21-1.3l-.94-.5c-.36-.18-.82-.39-1.3-.6.31.34.61.68.89 1a62 62 0 0 1 4.89 7.31c1.57 2.71 3.18 5.65 3.58 6.53a19.77 19.77 0 0 1 1.1 3.25 74.64 74.64 0 0 1-.1 10.08c-.25 4.64-.66 9.5-.9 10.79a42.54 42.54 0 0 0-.56 4.72 80.68 80.68 0 0 0 .82 9.43c.52 3.89.92 7.78.9 8.65a5.61 5.61 0 0 1-.56 2.36 5.21 5.21 0 0 0-.65 1.5 3 3 0 0 0 .09 1.36 3 3 0 0 0 .75 1.08 4.27 4.27 0 0 0 1.33.67 2.32 2.32 0 0 1 1.2.9 4 4 0 0 1 .36 1.78 5.06 5.06 0 0 0 .19 1.62.66.66 0 0 0 .68.41 4.85 4.85 0 0 1 .59-.09c.07 0 0 0-.07.1a.36.36 0 0 0-.21.19.31.31 0 0 0 .19.19.58.58 0 0 1 .19.48 5 5 0 0 1-.2 1 1.44 1.44 0 0 1-1.35.68 62.09 62.09 0 0 1-7.4-1.62 38 38 0 0 0-8.33-1.43 18.17 18.17 0 0 0-4.17 1 16.88 16.88 0 0 1-3.17.85 3.87 3.87 0 0 1-.84 1.11l-.08.08a2.57 2.57 0 0 0-.8 1.26 1.31 1.31 0 0 0 .61 1 11.19 11.19 0 0 1 1.05.8 2.89 2.89 0 0 1 .54.65 3.26 3.26 0 0 0 1.21.72c.58.24 2 .69 3 1a14.16 14.16 0 0 0 4 .45 16.23 16.23 0 0 0 4.13-1 18.17 18.17 0 0 1 4.17-1 38 38 0 0 1 8.33 1.43 62.09 62.09 0 0 0 7.4 1.62 1.44 1.44 0 0 0 1.35-.68 5 5 0 0 0 .2-1 .58.58 0 0 0-.1-.46z" fill="url(#f)"/><path d="M81.88 103.49l.21-.1a53.68 53.68 0 0 1 8.91-1.12h.07a2.62 2.62 0 0 0 .93-1 1.12 1.12 0 0 0 .1-.33 3.44 3.44 0 0 1 .61-1.45 6.35 6.35 0 0 1 1.48-1.25 18.24 18.24 0 0 1 1.92-1 15.15 15.15 0 0 1 1.89-.67 11.28 11.28 0 0 1 1.9-.25 21.64 21.64 0 0 1 3.43.51l.73.17 1 .25a3.36 3.36 0 0 0 .25-.65 2.89 2.89 0 0 0-.42-2.06 5.4 5.4 0 0 0-1.51-1.37 4.09 4.09 0 0 0-1.81-.38 6 6 0 0 1-1.81-.2 5.06 5.06 0 0 1-1.5-.84 9.21 9.21 0 0 0-1.38-1 18.9 18.9 0 0 0-3.2-.91 21.64 21.64 0 0 0-3.43-.51 11.28 11.28 0 0 0-1.9.25 15.15 15.15 0 0 0-1.93.63 18.24 18.24 0 0 0-1.92 1 6.35 6.35 0 0 0-1.5 1.26 3.44 3.44 0 0 0-.61 1.45 2.29 2.29 0 0 1-1 1.37 11 11 0 0 1-2.75 1 22.2 22.2 0 0 1-3.67.43 24.14 24.14 0 0 1-3.79-.31 19 19 0 0 0-3.85-.2 20 20 0 0 0-3.85.75 16.33 16.33 0 0 1-1.94.46 4.44 4.44 0 0 0-.54.94v.17a4.14 4.14 0 0 0 0 2.27 5.55 5.55 0 0 0 1.63 2.11 10.11 10.11 0 0 0 3 1.31 15.91 15.91 0 0 0 3.72.37 17.6 17.6 0 0 0 3.81-.7 20 20 0 0 1 3.85-.75 19.27 19.27 0 0 1 3.17.11l.68.09c.29.06.65.11 1.02.15z" fill="url(#g)"/><path d="M115.3 70.38h.38a43.83 43.83 0 0 0 6.53-.91 56.8 56.8 0 0 1 6.55-1 27.53 27.53 0 0 1 3.39.2 3.25 3.25 0 0 0 2.26-.34 2.07 2.07 0 0 0-.11-1.94 16.34 16.34 0 0 1-.95-2.68 12.16 12.16 0 0 1-.27-2.56 13.71 13.71 0 0 1 .36-2.5 16.14 16.14 0 0 1 .93-2.5 14.65 14.65 0 0 0 .91-2.56 14.19 14.19 0 0 0 .3-2.67 2.26 2.26 0 0 0-.86-1.83 4.43 4.43 0 0 0-2.57 0 11.09 11.09 0 0 1-3.38.21 11.74 11.74 0 0 1-2.71-.8c-.21-.09-.41-.18-.59-.27l-.33-.15c-.16.43-.33.85-.48 1.17a16.14 16.14 0 0 0-.93 2.5 13.71 13.71 0 0 0-.36 2.5 12.16 12.16 0 0 0 .27 2.56 16.34 16.34 0 0 0 .95 2.68 2.07 2.07 0 0 1 .11 1.94 3.25 3.25 0 0 1-2.26.34 27.53 27.53 0 0 0-3.39-.2 56.8 56.8 0 0 0-6.55 1c-1.23.24-2.5.46-3.61.62 0 .33 0 .67.05 1s0 .56 0 .83a6.72 6.72 0 0 0 .9 3.48 5.52 5.52 0 0 0 1.59 1 6.65 6.65 0 0 0 .91.35 16.87 16.87 0 0 0 2.96.53z" fill="url(#h)"/></svg>