<svg xmlns="http://www.w3.org/2000/svg" xmlns:xlink="http://www.w3.org/1999/xlink" width="200" height="200" viewBox="0 0 200 200"><defs><linearGradient id="a" x1="87.56" y1="60.36" x2="100.75" y2="30.73" gradientUnits="userSpaceOnUse"><stop offset="0" stop-color="#fdba56"/><stop offset="0.02" stop-color="#fbb055"/><stop offset="0.06" stop-color="#f79d54"/><stop offset="0.1" stop-color="#f59253"/><stop offset="0.15" stop-color="#f48e53"/><stop offset="0.3" stop-color="#ed5e4e"/><stop offset="0.47" stop-color="#683a96" stop-opacity="0.5"/><stop offset="0.64" stop-color="#ed872b"/><stop offset="0.79" stop-color="#7b76b6"/><stop offset="0.9" stop-color="#f15f4f"/><stop offset="1" stop-color="#fdba56"/></linearGradient><linearGradient id="b" x1="79.12" y1="159.89" x2="116.83" y2="75.19" xlink:href="#a"/><linearGradient id="c" x1="99.87" y1="40.47" x2="110.95" y2="65.37" gradientUnits="userSpaceOnUse"><stop offset="0" stop-color="#b7151b"/><stop offset="0.02" stop-color="#c52229"/><stop offset="0.06" stop-color="#d7333c"/><stop offset="0.11" stop-color="#e23d47"/><stop offset="0.15" stop-color="#e6404b"/><stop offset="0.3" stop-color="#e98a7b"/><stop offset="0.47" stop-color="#7c78b8"/><stop offset="0.64" stop-color="#00b0b0"/><stop offset="0.79" stop-color="#7b76b6"/><stop offset="1" stop-color="#e7322f"/></linearGradient><linearGradient id="d" x1="78.79" y1="89.99" x2="85.73" y2="105.57" xlink:href="#c"/><linearGradient id="e" x1="94.9" y1="101.83" x2="126.36" y2="172.48" xlink:href="#c"/></defs><title>_</title><path d="M107.53,59.57a2.61,2.61,0,0,0,1.2-.86c0.28-.38.7-1,0.93-1.37s0.56-1,.74-1.35a11,11,0,0,0,.52-1.35c0.06-.22.13-0.51,0.19-0.79A8.76,8.76,0,0,1,109.23,55c-1,.4-2.46,1.1-3.25,1.54a23.48,23.48,0,0,0-2.54,1.65c-0.15.11-.31,0.22-0.47,0.33,0.38,0.08,1.38.39,2.25,0.69A5.63,5.63,0,0,0,107.53,59.57Z" fill="none"/><path d="M100,95.93a13,13,0,0,0-1.63,1.14c-0.43.36-1.13,0.91-1.57,1.21s-1.16.76-1.61,1a7.08,7.08,0,0,0-1.4,1.07,6.12,6.12,0,0,0-.94,1.39,3.43,3.43,0,0,1-1.46,1.3,7.61,7.61,0,0,1-1.05.37,12.94,12.94,0,0,1,2.27.25,12.87,12.87,0,0,0,3.13.23,11.32,11.32,0,0,0,2.88-.72,10.56,10.56,0,0,0,2.46-1.6,12.17,12.17,0,0,0,1.9-2.48,7.25,7.25,0,0,0,.82-2.33,2.58,2.58,0,0,0-.52-1.07,4.06,4.06,0,0,0-.55-0.63L102.58,95a4.42,4.42,0,0,0-.8.17A12.33,12.33,0,0,0,100,95.93Z" fill="none"/><path d="M108.13,36A16.14,16.14,0,0,0,106,33.78a51.39,51.39,0,0,0-5.7-3.2,32.8,32.8,0,0,0-6-2.44,7.79,7.79,0,0,0-1.07-.06,11.08,11.08,0,0,0-2,.18,19.94,19.94,0,0,0-3.19,1,18.86,18.86,0,0,0-2.85,1.61c-0.77.55-2,1.5-2.72,2.14s-1.89,1.72-2.58,2.43A8.89,8.89,0,0,0,78.21,38a18.85,18.85,0,0,0-.38,5c0.08,2.11.1,4.68,0.05,5.75a5.59,5.59,0,0,0,.6,2.64h0a6,6,0,0,0,2.18,1.75,11,11,0,0,1,5.69,5.61A4.21,4.21,0,0,0,88,60.55a4.39,4.39,0,0,0,2.41-.12l0.1,0c1-.37,2.65-0.88,3.6-1.13a33.41,33.41,0,0,1,3.28-.67A12.52,12.52,0,0,0,100,57.9a11.08,11.08,0,0,0,1.22-.64,10.94,10.94,0,0,0,1-.69,25.68,25.68,0,0,1,2.8-1.83c0.86-.47,2.41-1.21,3.46-1.64a7.17,7.17,0,0,0,2-1.35,3.06,3.06,0,0,0,.34-0.39,5.88,5.88,0,0,0,.8-2.66,34.46,34.46,0,0,0-.14-3.57,31.37,31.37,0,0,0-.59-3.41,19.34,19.34,0,0,0-1.09-3.07,17.81,17.81,0,0,0-1.13-1.93C108.48,36.45,108.3,36.18,108.13,36Z" fill="url(#a)"/><path d="M105.78,96.87a9,9,0,0,1-1.06,3.2,14.09,14.09,0,0,1-2.29,3,12.34,12.34,0,0,1-3,2,13.32,13.32,0,0,1-3.5.87,14.85,14.85,0,0,1-3.72-.27,11.41,11.41,0,0,0-3.11-.17,10.8,10.8,0,0,0-2.92.9,16.22,16.22,0,0,1-3.46,1.21,15.09,15.09,0,0,1-3.6.2c-0.39,0-.91,0-1.44,0s-1.28,0-1.76.07a22.87,22.87,0,0,0-3.19.6c-1,.26-2.54.61-3.54,0.76s-2.64.31-3.67,0.35a16,16,0,0,0-3.24.53,15.64,15.64,0,0,0-3,1.33,12.45,12.45,0,0,0-2.42,2,13.15,13.15,0,0,0-1.71,2.75A15.72,15.72,0,0,1,53,119.52a18.91,18.91,0,0,1-3.15,2.78,3.62,3.62,0,0,0-1.47,5,11.61,11.61,0,0,1,.84,4,8.83,8.83,0,0,1-1.08,3.7,2.31,2.31,0,0,0,.8,3.61,25.81,25.81,0,0,1,3,2.47,36.81,36.81,0,0,1,2.85,3.26,19.37,19.37,0,0,0,2.94,3,21.37,21.37,0,0,0,3.73,2.17A27.11,27.11,0,0,1,64,150.76c0.59,0.33,1.1.65,1.47,0.91a17.47,17.47,0,0,1,3,2.73,7,7,0,0,0,2,1.66,39.42,39.42,0,0,0,8.2-.58c4.42-.63,8.35-1.34,9.24-1.6a32,32,0,0,0,3.58-1.33,31.55,31.55,0,0,0,3.33-1.83c0.94-.62,3.34-1.93,5.35-2.93,1.77-.88,4-1.92,4.56-2.11a1.56,1.56,0,0,1,1.75.27l0.43,0.55-0.37.68a1,1,0,0,0-.05.22,3,3,0,0,0,.1.63,4.84,4.84,0,0,1,.16,1.42,5.94,5.94,0,0,1-.3,1.44,1,1,0,0,0,0,.43,2.12,2.12,0,0,0,.49.55,3.11,3.11,0,0,0,1.33.2,18.09,18.09,0,0,0,3.19-.64,42.24,42.24,0,0,1,4.27-1,40.11,40.11,0,0,1,4.27-.41,39.38,39.38,0,0,1,4.28.16,40.57,40.57,0,0,1,4.27.72c1.16,0.27,4,1.14,6.34,1.94,1.23,0.42,2.35.77,3.19,1-0.47-.73-0.68-1.31-0.19-1.83a3,3,0,0,1,1.36-.67l0.08,0a4.65,4.65,0,0,0-.22-0.5,10.94,10.94,0,0,0-.76-1.21,6.85,6.85,0,0,0-.79-0.85,5.21,5.21,0,0,1-1.65-2.55,3.71,3.71,0,0,1,0-1.88,6.59,6.59,0,0,1,1-1.79,3.61,3.61,0,0,0,.35-1.7,82.18,82.18,0,0,0-1.72-8.43c-0.86-3.56-1.67-8.18-1.53-9.75a23.12,23.12,0,0,1,1.13-5,14.89,14.89,0,0,0,.78-4.36,15.11,15.11,0,0,0-.87-4.37,19.59,19.59,0,0,1-1.14-4.66,11.63,11.63,0,0,1,.5-4.11,9.2,9.2,0,0,0,.46-2.91,8.78,8.78,0,0,0-.76-2.78,12.88,12.88,0,0,1-1.09-3.48,12.33,12.33,0,0,1,.16-3.59,6.61,6.61,0,0,0,0-2.53l-0.09-.21A5.64,5.64,0,0,0,132,83a19,19,0,0,0-2.33-1.85c-0.62-.4-3.86-2-7.53-3.57a109.51,109.51,0,0,0-15.33-4.86,66,66,0,0,0-10.61-1.9,12.57,12.57,0,0,0-3.16,1,9.37,9.37,0,0,1-7.67.38A20.64,20.64,0,0,0,82,71.27a18.38,18.38,0,0,0-3.28-.14,21.58,21.58,0,0,0-3.3.55,70,70,0,0,0-6.78,2.77c-3.08,1.4-5.86,2.78-6.53,3.19a22.6,22.6,0,0,0-2.45,1.79,11.42,11.42,0,0,0-3.14,4.42,15.9,15.9,0,0,0-.75,2.64,15.38,15.38,0,0,0-.16,2.72,14.64,14.64,0,0,1-.34,3.42A22.37,22.37,0,0,1,54,96.27a3.9,3.9,0,0,0-.31.93,6,6,0,0,0,1.41-.43,23.52,23.52,0,0,1,4.25-1.32,31.44,31.44,0,0,1,5,0c1,0.05,2,.13,3,0.23,3.1,0.31,6.56.54,7.55,0.55a33.5,33.5,0,0,0,3.61-.28,12.09,12.09,0,0,0,2.68-.71,2.66,2.66,0,0,0,1-.81,7.08,7.08,0,0,1,1.13-1.66A8,8,0,0,1,85,91.48c0.42-.23,1.12-0.67,1.52-1s1.09-.81,1.5-1.16a14,14,0,0,1,1.78-1.25,13.16,13.16,0,0,1,2-.88A5.72,5.72,0,0,1,94,87c1.06,0.14,4.51,2.47,4.9,2.73a62.54,62.54,0,0,1,5.17,3.86,6.11,6.11,0,0,1,.83.94A4.13,4.13,0,0,1,105.78,96.87Z" fill="url(#b)"/><path d="M109.5,36.18a18.77,18.77,0,0,1,1.2,2.06,20.33,20.33,0,0,1,1.16,3.26,32,32,0,0,1,.61,3.54,35,35,0,0,1,.15,3.7,6.77,6.77,0,0,1-1,3.22,4,4,0,0,1-.46.52,3.68,3.68,0,0,1,0,.8c0,0.16-.05.36-0.09,0.57s-0.12.58-.19,0.79a11,11,0,0,1-.52,1.35c-0.18.37-.51,1-0.74,1.35s-0.65,1-.93,1.37a2.61,2.61,0,0,1-1.2.86,5.63,5.63,0,0,1-2.31-.39c-0.87-.3-1.87-0.61-2.25-0.69h0a10.55,10.55,0,0,1-1.25-.35,11.71,11.71,0,0,1-1.35.7,13.52,13.52,0,0,1-2.81.76c-0.82.11-2.24,0.4-3.16,0.65s-2.52.75-3.54,1.12l-0.1,0c0.36,0.2.73,0.44,1.08,0.69a10,10,0,0,1,1.25,1,12.45,12.45,0,0,1,2.12,3,5.08,5.08,0,0,0,2.16,2.31,5.31,5.31,0,0,0,3.21-.13c1-.37,2.62-0.87,3.54-1.12s2.35-.53,3.16-0.65a13.52,13.52,0,0,0,2.81-.76,13.16,13.16,0,0,0,2.49-1.46,24.57,24.57,0,0,1,2.67-1.74c0.83-.46,2.34-1.17,3.35-1.59a7.5,7.5,0,0,0,2.79-2.08,6.77,6.77,0,0,0,1-3.22,35,35,0,0,0-.15-3.7,32,32,0,0,0-.61-3.54,20.33,20.33,0,0,0-1.16-3.26,19,19,0,0,0-1.78-2.88,17.06,17.06,0,0,0-2.32-2.36A45.58,45.58,0,0,0,111.19,37l-0.75-.38Z" fill="url(#c)"/><path d="M90.33,103.42a7.61,7.61,0,0,0,1.05-.37,3.43,3.43,0,0,0,1.46-1.3,6.12,6.12,0,0,1,.94-1.39,7.08,7.08,0,0,1,1.4-1.07c0.45-.25,1.17-0.7,1.61-1s1.14-.85,1.57-1.21A13,13,0,0,1,100,95.93a12.33,12.33,0,0,1,1.79-.8,4.42,4.42,0,0,1,.8-0.17,4.06,4.06,0,0,1,1,0,2.29,2.29,0,0,1,.51.19,5.11,5.11,0,0,0-.69-0.79,61.81,61.81,0,0,0-5.07-3.78A22.69,22.69,0,0,0,93.86,88a4.72,4.72,0,0,0-1.79.2,12.33,12.33,0,0,0-1.79.8,13,13,0,0,0-1.63,1.14c-0.43.36-1.13,0.91-1.57,1.21s-1.16.76-1.61,1a7.08,7.08,0,0,0-1.4,1.07,6.12,6.12,0,0,0-.94,1.39,3.43,3.43,0,0,1-1.46,1.3,13,13,0,0,1-3,.79,34.43,34.43,0,0,1-3.75.3c-1,0-4.49-.23-7.67-0.55-1-.1-2-0.17-3-0.22,0,0.29,0,.64,0,1a13.4,13.4,0,0,1-.27,1.9,21.74,21.74,0,0,1-1.23,3.47c-0.46,1-.57,2-0.24,2.28s1.52,0.06,2.65-.43a22.4,22.4,0,0,1,4-1.26,41.92,41.92,0,0,1,7.76.21c3.18,0.32,6.63.56,7.67,0.55,0.52,0,1.21,0,1.89-.1s1.35-.12,1.85-0.2A15.1,15.1,0,0,0,90.33,103.42Z" fill="url(#d)"/><path d="M148.88,156a7.69,7.69,0,0,0-.94-1,5.23,5.23,0,0,1-.83-0.94,5.16,5.16,0,0,1-.51-1.13,2.72,2.72,0,0,1,0-1.31,5.63,5.63,0,0,1,.81-1.46,4.36,4.36,0,0,0,.56-2.34,80.73,80.73,0,0,0-1.75-8.64c-0.94-3.89-1.62-8.14-1.51-9.43a22,22,0,0,1,1.07-4.72,15.94,15.94,0,0,0,.85-4.72,16.11,16.11,0,0,0-.94-4.72,18.79,18.79,0,0,1-1.07-4.38,10.67,10.67,0,0,1,.44-3.7,10.09,10.09,0,0,0,.51-3.3,9.68,9.68,0,0,0-.87-3.17,12,12,0,0,1-1-3.16,11.35,11.35,0,0,1,.15-3.25,7.46,7.46,0,0,0,0-3,6.5,6.5,0,0,0-1.5-2.45,19.86,19.86,0,0,0-2.48-2c-0.53-.34-2.39-1.25-4.66-2.29l-1.18-.54c0,0.1.09,0.21,0.12,0.3a7.46,7.46,0,0,1,0,3A11.35,11.35,0,0,0,134,91a12,12,0,0,0,1,3.16,9.68,9.68,0,0,1,.87,3.17,10.09,10.09,0,0,1-.51,3.3,10.67,10.67,0,0,0-.44,3.7,18.79,18.79,0,0,0,1.07,4.38,16.11,16.11,0,0,1,.94,4.72,15.94,15.94,0,0,1-.85,4.72A22,22,0,0,0,135,122.8c-0.11,1.3.57,5.54,1.51,9.43a80.73,80.73,0,0,1,1.75,8.64,4.36,4.36,0,0,1-.56,2.34,5.63,5.63,0,0,0-.81,1.46,2.72,2.72,0,0,0,0,1.31,5.16,5.16,0,0,0,.51,1.13,5.23,5.23,0,0,0,.83.94,7.69,7.69,0,0,1,.94,1,11.88,11.88,0,0,1,.84,1.35,4.08,4.08,0,0,1,.43,1.19,1.13,1.13,0,0,1-.84.74,5.51,5.51,0,0,0-1,.4,4.93,4.93,0,0,0,.8,1.33c0.49,0.68.54,1.22,0.11,1.21a38.8,38.8,0,0,1-5-1.45c-2.3-.78-5.11-1.64-6.25-1.91a39.32,39.32,0,0,0-4.14-.7,37.86,37.86,0,0,0-4.14-.15,38.88,38.88,0,0,0-4.15.4,41.26,41.26,0,0,0-4.14.94,18.93,18.93,0,0,1-3.42.68,3.7,3.7,0,0,1-2-.4,2.84,2.84,0,0,1-.83-1,1.87,1.87,0,0,1,0-1.13,4.87,4.87,0,0,0,.25-1.16,3.91,3.91,0,0,0-.12-1.09,3.69,3.69,0,0,1-.14-0.94,1.73,1.73,0,0,1,.2-0.71c0.1-.16-0.19-0.18-0.65,0s-2.44,1.07-4.42,2.05-4.33,2.27-5.25,2.87a32.2,32.2,0,0,1-3.46,1.9,32.78,32.78,0,0,1-3.72,1.38c-1.06.31-5.28,1-9.38,1.63s-8,.81-8.74.5A7.94,7.94,0,0,1,67.69,155a16.68,16.68,0,0,0-2.78-2.54c-0.36-.25-0.86-0.56-1.39-0.86l0.22,0.28A20.24,20.24,0,0,0,66.86,155a22.18,22.18,0,0,0,3.94,2.3c0.47,0.2,1,.47,1.57.76a22.73,22.73,0,0,1,2.26,1.34A16.68,16.68,0,0,1,77.4,162a7.94,7.94,0,0,0,2.42,1.94c0.71,0.31,4.64.08,8.74-.5s8.32-1.32,9.38-1.63a32.78,32.78,0,0,0,3.72-1.38,32.2,32.2,0,0,0,3.46-1.9c0.91-.6,3.28-1.89,5.25-2.87s4-1.91,4.42-2.05,0.75-.13.65,0a1.73,1.73,0,0,0-.2.71,3.69,3.69,0,0,0,.14.94,3.91,3.91,0,0,1,.12,1.09,4.87,4.87,0,0,1-.25,1.16,1.87,1.87,0,0,0,0,1.13,2.84,2.84,0,0,0,.83,1,3.7,3.7,0,0,0,2,.4,18.93,18.93,0,0,0,3.42-.68,41.26,41.26,0,0,1,4.14-.94,38.88,38.88,0,0,1,4.15-.4,37.86,37.86,0,0,1,4.14.15,39.32,39.32,0,0,1,4.14.7c1.14,0.27,4,1.13,6.25,1.91a38.8,38.8,0,0,0,5,1.45c0.43,0,.38-0.53-0.11-1.21a4.93,4.93,0,0,1-.8-1.33,5.51,5.51,0,0,1,1-.4,1.13,1.13,0,0,0,.84-0.74,4.08,4.08,0,0,0-.43-1.19A11.88,11.88,0,0,0,148.88,156Z" fill="url(#e)"/></svg>