<svg xmlns="http://www.w3.org/2000/svg" xmlns:xlink="http://www.w3.org/1999/xlink" width="142.33" height="200" viewBox="0 0 142.33 200"><defs><linearGradient id="b" x1="41.19" y1="168.72" x2="87.08" y2="65.66" gradientUnits="userSpaceOnUse"><stop offset="0" stop-color="#fdba56"/><stop offset=".02" stop-color="#fbb055"/><stop offset=".06" stop-color="#f79d54"/><stop offset=".1" stop-color="#f59253"/><stop offset=".15" stop-color="#f48e53"/><stop offset=".3" stop-color="#ed5e4e"/><stop offset=".47" stop-color="#683a96" stop-opacity=".5"/><stop offset=".64" stop-color="#ed872b"/><stop offset=".79" stop-color="#7b76b6"/><stop offset=".9" stop-color="#f15f4f"/><stop offset="1" stop-color="#fdba56"/></linearGradient><linearGradient id="a" x1="116.71" y1="78.59" x2="119.56" y2="85" gradientUnits="userSpaceOnUse"><stop offset="0" stop-color="#b7151b"/><stop offset=".02" stop-color="#c52229"/><stop offset=".06" stop-color="#d7333c"/><stop offset=".11" stop-color="#e23d47"/><stop offset=".15" stop-color="#e6404b"/><stop offset=".3" stop-color="#e98a7b"/><stop offset=".47" stop-color="#7c78b8"/><stop offset=".64" stop-color="#00b0b0"/><stop offset=".79" stop-color="#7b76b6"/><stop offset="1" stop-color="#e7322f"/></linearGradient><linearGradient id="c" x1="26.3" y1="90.97" x2="33.49" y2="107.11" xlink:href="#a"/><linearGradient id="d" x1="102.44" y1="100.16" x2="119.15" y2="137.7" xlink:href="#a"/><linearGradient id="e" x1="72.33" y1="132.3" x2="91.59" y2="175.55" xlink:href="#a"/></defs><title>_</title><path d="M132.28 130.69a21.25 21.25 0 0 0-4.61.4c-1.46.23-3.06.55-4.64.91-4.65 1.07-10.3 2.09-11.62 1.9a15 15 0 0 1-4-1.34 6.64 6.64 0 0 0-2.19-.73 1.18 1.18 0 0 1 0 .36 5 5 0 0 1-.64 2.51 3.64 3.64 0 0 1-2.07 1.35 5.22 5.22 0 0 0-1.47.65 7.52 7.52 0 0 0-1.41 1.3 3.53 3.53 0 0 1-2.63 1.37 6.58 6.58 0 0 1-3.06-1.25 6 6 0 0 0-2.52-.95 7.49 7.49 0 0 0-2.66.5l-.29.12a10 10 0 0 1-3.87.84 7.75 7.75 0 0 1-3.52-1.17 8.66 8.66 0 0 1-2.43-2.62 8.89 8.89 0 0 1-.86-3.49c0-.9-.25-3.19-.52-5-.18-1.24-.47-4.19.78-4.87 1-.52 2.68 0 3.54.42a12.25 12.25 0 0 0 3.37.94 10.69 10.69 0 0 0 3.28-.36 17.37 17.37 0 0 1 3.89-.65 16.82 16.82 0 0 1 3.9.44 12.55 12.55 0 0 0 6.73-.14 36.89 36.89 0 0 1 3.75-.85 34.62 34.62 0 0 1 3.76-.35 25.1 25.1 0 0 1 3.81.25 26.83 26.83 0 0 1 3.8 1 12.38 12.38 0 0 0 3.3.58 35.67 35.67 0 0 0 6.74-1.65 35.1 35.1 0 0 0 5.81-2.3 12.59 12.59 0 0 0 1.06-4.09c.26-2.12.49-4.6.5-5.43s-.05-2.24-.13-3.08a9.82 9.82 0 0 0-.93-2.91 19.68 19.68 0 0 0-2.37-3.26 21.92 21.92 0 0 1-2.82-4 21.05 21.05 0 0 1-1.59-4.6 9.21 9.21 0 0 0-.71-2 7.31 7.31 0 0 0-.87-1.44 9.82 9.82 0 0 0-3.16-2.21c-.46-.19-1-.43-1.57-.71-1-.49-2-1-2.67-1.44-.93-.58-2.88-2.09-4.4-3.3-.66-.53-1.32-1.07-2-1.61a58.31 58.31 0 0 0-5.68-4.33 28.42 28.42 0 0 0-3-1.32 9.16 9.16 0 0 0-2.88-.48 11 11 0 0 0-3 .64 10.89 10.89 0 0 1-3.84.68 12.56 12.56 0 0 1-3.91-.93 11.26 11.26 0 0 0-3.2-.78 9.88 9.88 0 0 0-3.09.48 17.82 17.82 0 0 0-3 1.51 18.76 18.76 0 0 0-2.64 2.19 12.86 12.86 0 0 1-3 2.27c-1.1.54-4.47.83-7.24.84s-6.23-.27-7.5-.81a15.76 15.76 0 0 1-3.64-2.36 12.6 12.6 0 0 0-3.15-2 12 12 0 0 0-3.57-.65c-1.12 0-3.82.18-6 .39a30.55 30.55 0 0 1-6.21 0 17.46 17.46 0 0 1-4.06-1.36 11.18 11.18 0 0 0-3.32-1 9.63 9.63 0 0 0-3.18.42c-.83.29-4.78 2.09-9.33 4.29-3.8 1.84-8.37 3.93-9.45 4.24a11 11 0 0 0-2.64 1.26 10.52 10.52 0 0 0-2 2 21 21 0 0 0-1.56 2.7 21.9 21.9 0 0 0-1.07 3c-.23.86-.65 3.2-.93 5.1A8.53 8.53 0 0 0 0 98.17a3.82 3.82 0 0 0 1.92.1c1.08-.27 2.88-.49 3.95-.6.64-.06 2.13-.06 3.28-.07 1.86 0 4.14.05 6.25.12 4.43.15 8.32.14 9.16 0a26.36 26.36 0 0 0 3.06-.55 10.84 10.84 0 0 0 2.05-.8c.47-.27 1.17-.72 1.51-1a9.32 9.32 0 0 0 1-.85 7.32 7.32 0 0 0 .82-1.07c.25-.45.7-1.4 1-2.08a4.5 4.5 0 0 1 1.71-2.16 2.67 2.67 0 0 1 2.56.36A18.12 18.12 0 0 0 40 90.65c.52.28 1.46.72 2.07 1a4.61 4.61 0 0 0 1.87.24 6.44 6.44 0 0 0 2-.81 6.16 6.16 0 0 1 2.8-.94 3.86 3.86 0 0 1 2.5 1.15 5.17 5.17 0 0 1 1.2 2.33 5.94 5.94 0 0 1-.31 2.67 6.26 6.26 0 0 0-.32 1.92 5.14 5.14 0 0 0 .15.92 6 6 0 0 0 .33 1 2.94 2.94 0 0 1 .08 2.66 3 3 0 0 1-2.5.91 9.35 9.35 0 0 0-2 .15 5.91 5.91 0 0 0-1.53.63 6.23 6.23 0 0 1-2.16.82 12 12 0 0 1-3.21-.26l-.66-.12a16.7 16.7 0 0 0-1.78-.26.71.71 0 0 0-.33.15 3.16 3.16 0 0 0-.33.8c0 .11-.06.22-.08.33a4.34 4.34 0 0 1-.83 2 1.75 1.75 0 0 1-2.15.13 11.24 11.24 0 0 1-1.23-1c-.16-.14-.37-.35-.58-.58s-.46-.49-.64-.7a1.55 1.55 0 0 0-.88-.31 7.91 7.91 0 0 0-2.3.64c-.41.18-.95.39-1.49.6-.71.26-1.37.49-1.86.63-.94.27-3.87.85-6.65 1.31a25.6 25.6 0 0 0-5.91 1.52 11.18 11.18 0 0 0-2.27 2.01 23 23 0 0 1-2.43 2.58A15.13 15.13 0 0 1 6 116.54a18.68 18.68 0 0 0-2.15 1.33 18 18 0 0 0-1.88 1.66c-.54.56-2.18 2-3.67 3.26a14.73 14.73 0 0 0-3.06 3.32 6.78 6.78 0 0 0-.44 2.72 29.26 29.26 0 0 0 .43 3.17 21.85 21.85 0 0 0 .83 2.79c.31.79.89 2.69 1.29 4.23A14.38 14.38 0 0 0-1 142.9a42.53 42.53 0 0 0 4.2 4.26 56.16 56.16 0 0 1 4.32 4.25 26.39 26.39 0 0 0 2 2.15 28 28 0 0 0 2.29 1.91 9.1 9.1 0 0 0 2.49 1.18 6.07 6.07 0 0 0 1 .06c2 0 5.83-.14 9.59-.45 5.13-.42 11.22-1.14 13.58-1.62s8.3-2.06 13.27-3.53c4.43-1.31 9.73-2.76 10.84-2.85a7.66 7.66 0 0 1 3.05.36c.64.27 4.18 2.19 7.22 3.89a37.74 37.74 0 0 0 7.84 3.55 16.23 16.23 0 0 0 4.05-.21 35.13 35.13 0 0 1 4.6-.55 27.3 27.3 0 0 1 4.29.23c1 .16 3.71.36 5.83.44s4.73.08 5.7 0 2.55-.31 3.43-.49a8.54 8.54 0 0 0 2.69-1.16 10.92 10.92 0 0 0 2.2-2.37 12.12 12.12 0 0 1 2.71-2.87 9.62 9.62 0 0 1 3.45-1.37 9.37 9.37 0 0 0 2.63-.88 8.31 8.31 0 0 0 2-1.74c.55-.72 2.16-2.45 3.57-3.86a24.23 24.23 0 0 0 3-3.58 5.57 5.57 0 0 0 .3-.5 19.06 19.06 0 0 0 1.3-4 5.55 5.55 0 0 0-.16-2.46z" fill="url(#b)"/><path d="M121.58 84.11a50 50 0 0 0-5-3.72c-.5-.27-1.22-.6-1.91-.9 1.82 1.46 3.54 2.76 4.3 3.23s1.66.93 2.61 1.39z" fill="url(#a)"/><path d="M27.31 105.73c.53-.2 1-.4 1.44-.57a8.74 8.74 0 0 1 2.69-.72 2.42 2.42 0 0 1 1.67.66c.17.19.38.43.6.66h.69l.62-.08.81-.13 1.07-.2a3.66 3.66 0 0 1 .52-1.17 1.6 1.6 0 0 1 1.11-.52 17.27 17.27 0 0 1 1.93.27c.39-.24.79-.51 1-.69l.14-.11a10 10 0 0 0 1-.86 8.17 8.17 0 0 0 .93-1.35c.27-.49.73-1.47 1-2.18a3.66 3.66 0 0 1 1.23-1.64 1.69 1.69 0 0 1 1.53.27 19.14 19.14 0 0 0 1.85 1.16l.67.34 1.19.46a6 6 0 0 1-.18-1.11 7.15 7.15 0 0 1 .38-2.31 5 5 0 0 0 .26-2.15 4.19 4.19 0 0 0-.94-1.81 2.9 2.9 0 0 0-1.78-.83 5 5 0 0 0-2.25.78 7.35 7.35 0 0 1-2.45 1 5.57 5.57 0 0 1-2.37-.3c-.64-.26-1.62-.71-2.17-1a19.14 19.14 0 0 1-1.85-1.16 1.69 1.69 0 0 0-1.53-.27 3.66 3.66 0 0 0-1.23 1.64c-.3.71-.76 1.7-1 2.18a8.17 8.17 0 0 1-.93 1.35 10.21 10.21 0 0 1-1.13 1c-.37.27-1.1.74-1.6 1a11.69 11.69 0 0 1-2.29.9 26.84 26.84 0 0 1-3.2.58c-1 .12-5.2.1-9.31 0-2.21-.07-4.45-.12-6.21-.12-.06.32-.12.66-.17 1-.11.65-.22 1.31-.31 1.95-.29 2-.13 3.9.35 4.29a4 4 0 0 0 2.81.34c1.07-.21 2.8-.47 3.85-.58s4.66-.08 8.47 0h.92z" fill="url(#c)"/><path d="M145.88 113a10.71 10.71 0 0 0-1-3.28 20.54 20.54 0 0 0-2.51-3.46 21.07 21.07 0 0 1-2.67-3.82 20.24 20.24 0 0 1-1.51-4.34 10.37 10.37 0 0 0-1.8-3.9 10.67 10.67 0 0 0-3.55-2.49 33.4 33.4 0 0 1-3.68-1.81l-.42-.25c-.26-.16-.62-.41-1.06-.73a10.19 10.19 0 0 1 .79 2.25 20.24 20.24 0 0 0 1.51 4.34 21.07 21.07 0 0 0 2.67 3.82 20.54 20.54 0 0 1 2.51 3.46 10.71 10.71 0 0 1 1 3.28c.08.88.15 2.31.14 3.18s-.24 3.37-.51 5.54-.9 4.3-1.41 4.73a32.33 32.33 0 0 1-6.15 2.48 35.6 35.6 0 0 1-7 1.7 13.43 13.43 0 0 1-3.63-.63 25.85 25.85 0 0 0-3.63-.92 23.66 23.66 0 0 0-3.63-.24 33.52 33.52 0 0 0-3.63.34 35.73 35.73 0 0 0-3.63.82 16.74 16.74 0 0 1-3.63.57 16.49 16.49 0 0 1-3.63-.42 16.08 16.08 0 0 0-3.63-.41 16.44 16.44 0 0 0-3.63.6 11.58 11.58 0 0 1-3.66.4 13.27 13.27 0 0 1-3.71-1 4 4 0 0 0-2.64-.45c-.42.23-.55 2-.27 3.85s.51 4.19.53 5.13a7.87 7.87 0 0 0 .74 3 7.66 7.66 0 0 0 2.11 2.26 6.85 6.85 0 0 0 3 1 9.19 9.19 0 0 0 3.41-.75l.35-.14c0-.32-.06-.66-.1-1-.09-.84-.2-1.74-.32-2.57-.28-1.88-.15-3.62.27-3.85a4 4 0 0 1 2.64.45 13.27 13.27 0 0 0 3.71 1 11.58 11.58 0 0 0 3.66-.4 16.44 16.44 0 0 1 3.63-.6 15.77 15.77 0 0 1 2.61.21c.37.06.73.13 1 .2a16.13 16.13 0 0 0 2.33.37 12.47 12.47 0 0 0 1.3.06 16.74 16.74 0 0 0 3.63-.57 35.73 35.73 0 0 1 3.63-.82 33.52 33.52 0 0 1 3.63-.34 23.66 23.66 0 0 1 3.63.24c.47.07 1.08.21 1.7.36s1.4.37 1.93.56l.23.07c3-.48 5.2-.59 5.49-.2a1.57 1.57 0 0 1 .19.39l1-.23c1.18-.3 2.51-.67 3.8-1.09a32.33 32.33 0 0 0 6.15-2.48c.5-.43 1.13-2.56 1.41-4.73s.5-4.67.51-5.54-.08-2.3-.2-3.2z" fill="url(#d)"/><path d="M131.58 138.18a25.27 25.27 0 0 1-3.09 3.75c-1.39 1.38-3 3.07-3.49 3.76a9.26 9.26 0 0 1-2.28 2 10.31 10.31 0 0 1-3 1 8.6 8.6 0 0 0-3 1.2 11.16 11.16 0 0 0-2.44 2.6 11.77 11.77 0 0 1-2.45 2.64 9.49 9.49 0 0 1-3.07 1.33c-.93.19-2.52.42-3.54.51s-3.64.1-5.83 0-4.86-.29-5.94-.45a26.45 26.45 0 0 0-4.1-.22 34.15 34.15 0 0 0-4.44.53 17.06 17.06 0 0 1-4.36.22c-1.13-.13-4.83-1.78-8.22-3.67s-6.6-3.62-7.13-3.85a6.65 6.65 0 0 0-2.58-.28c-.88.07-5.67 1.34-10.63 2.81s-11 3.07-13.36 3.55-8.54 1.22-13.69 1.63c-3.94.32-7.74.49-9.69.45.4.4.73.74 1 1l.18.31a27.4 27.4 0 0 0 2.07 2.25 29 29 0 0 0 2.39 2 10 10 0 0 0 2.83 1.34c.85.22 5.77.06 10.92-.36s11.31-1.15 13.69-1.63 8.39-2.08 13.36-3.55 9.75-2.74 10.63-2.81a6.65 6.65 0 0 1 2.58.28c.53.23 3.74 2 7.13 3.85s7.08 3.54 8.22 3.67a17.06 17.06 0 0 0 4.36-.22 34.15 34.15 0 0 1 4.44-.53 26.45 26.45 0 0 1 4.1.22c1.08.16 3.76.37 5.94.45s4.81.08 5.83 0 2.61-.32 3.54-.51a9.49 9.49 0 0 0 3.07-1.33 11.77 11.77 0 0 0 2.45-2.64 11.16 11.16 0 0 1 2.44-2.6 8.6 8.6 0 0 1 3-1.2 10.31 10.31 0 0 0 3-1 9.26 9.26 0 0 0 2.28-2c.53-.69 2.1-2.38 3.49-3.76a22 22 0 0 0 3.44-4.35 20.05 20.05 0 0 0 1.39-4.24 5.32 5.32 0 0 0-.31-3.44c-.42-.56-4.8-.08-9.82 1l-.37.08z" fill="url(#e)"/></svg>