<svg xmlns="http://www.w3.org/2000/svg" xmlns:xlink="http://www.w3.org/1999/xlink" width="104.61" height="200" viewBox="0 0 104.61 200"><defs><linearGradient id="a" x1="32.84" y1="60.76" x2="41.17" y2="42.05" gradientUnits="userSpaceOnUse"><stop offset="0" stop-color="#fdba56"/><stop offset=".02" stop-color="#fbb055"/><stop offset=".06" stop-color="#f79d54"/><stop offset=".1" stop-color="#f59253"/><stop offset=".15" stop-color="#f48e53"/><stop offset=".3" stop-color="#ed5e4e"/><stop offset=".47" stop-color="#683a96" stop-opacity=".5"/><stop offset=".64" stop-color="#ed872b"/><stop offset=".79" stop-color="#7b76b6"/><stop offset=".9" stop-color="#f15f4f"/><stop offset="1" stop-color="#fdba56"/></linearGradient><linearGradient id="c" x1="27.24" y1="155.74" x2="62.14" y2="77.34" xlink:href="#a"/><linearGradient id="b" x1="26.25" y1="48.8" x2="30.3" y2="57.89" gradientUnits="userSpaceOnUse"><stop offset="0" stop-color="#b7151b"/><stop offset=".02" stop-color="#c52229"/><stop offset=".06" stop-color="#d7333c"/><stop offset=".11" stop-color="#e23d47"/><stop offset=".15" stop-color="#e6404b"/><stop offset=".3" stop-color="#e98a7b"/><stop offset=".47" stop-color="#7c78b8"/><stop offset=".64" stop-color="#00b0b0"/><stop offset=".79" stop-color="#7b76b6"/><stop offset="1" stop-color="#e7322f"/></linearGradient><linearGradient id="d" x1="48.8" y1="49.67" x2="60.07" y2="75" xlink:href="#b"/><linearGradient id="e" x1="54.35" y1="97.83" x2="73.26" y2="140.31" xlink:href="#b"/><linearGradient id="f" x1="54.09" y1="136.4" x2="66.93" y2="165.25" xlink:href="#b"/></defs><title>_</title><path d="M34.48 57.08c.79 1 2 2.8 2.71 4a10.21 10.21 0 0 0 2.33 2.66 3.89 3.89 0 0 0 2.2.52c.46-.07 1.07-.19 1.65-.32l1.19-.27c.74-.19 1.95-.57 2.64-.83a13.61 13.61 0 0 1 2.89-.69 39.52 39.52 0 0 1 5.92.46 25.1 25.1 0 0 0 2.62.23c-.12-.13-.26-.27-.42-.4a22.55 22.55 0 0 1-2.7-3 18.75 18.75 0 0 1-1.85-3.32 14 14 0 0 0-1.59-2.74 14.83 14.83 0 0 0-2.34-2.25 12.32 12.32 0 0 1-1.11-1 13.88 13.88 0 0 1-1.58-1.74 14 14 0 0 1-1.68-3.36 3.45 3.45 0 0 0-1.29-1.72 5.06 5.06 0 0 0-2.59-.11 18.28 18.28 0 0 1-4.26.32 19.06 19.06 0 0 1-4.26-.9c-1-.37-2.83-.88-3.88-1.11a37.3 37.3 0 0 0-3.87-.6c-1.07-.09-2.92-.14-4.12-.11s-3.28.19-4.61.35a3.89 3.89 0 0 0-1.93.7 4.88 4.88 0 0 0 1.23 2 25.36 25.36 0 0 0 3.66 3 21.4 21.4 0 0 0 4 1.93L24 49a25.94 25.94 0 0 1 3.83 1.79 22.71 22.71 0 0 1 3.63 2.84c.6.61 1.45 1.54 2.21 2.45.33.37.58.71.81 1z" fill="url(#a)"/><path d="M87 130.47a3.07 3.07 0 0 0-2.07-.74 20.76 20.76 0 0 0-3.84.43 21.64 21.64 0 0 0-3.7 1.31 20.1 20.1 0 0 1-4.07 1.39 17.25 17.25 0 0 1-4.11.24 33 33 0 0 1-4-.65 38.16 38.16 0 0 1-4.06-1.26 7.59 7.59 0 0 0-2.77-.53 7.38 7.38 0 0 0-2 2.75c-.07.14-1.63 3.33-2.5 4a5.14 5.14 0 0 1-2.15.89 11.92 11.92 0 0 1-2.15.07 12.11 12.11 0 0 1-2.11-.38 12.06 12.06 0 0 0-2-.23 20.31 20.31 0 0 0-2.74.27 9 9 0 0 1-2.08.06 6.68 6.68 0 0 1-1.37-.23 8 8 0 0 1-2.89-1.81c-.58-.59-1.63-1.57-2.3-2.12s-1.84-1.46-2.61-2a7.78 7.78 0 0 1-2.39-2.84 9.11 9.11 0 0 1-.54-3.8 4.74 4.74 0 0 1 1.66-3.29 5.23 5.23 0 0 1 3.77-.3 18.47 18.47 0 0 0 3.6.52 109.19 109.19 0 0 0 11.28-1.61 111.81 111.81 0 0 1 13.52-1.66c2.14 0 8.36.48 13.87 1l3.15.32c5.56.57 9.6.52 10.4.26a4.57 4.57 0 0 0 1-2.14 22 22 0 0 0 .3-3.39 19.16 19.16 0 0 0-.45-3.28 18 18 0 0 0-1.13-3.06 19.54 19.54 0 0 0-1.82-2.83 19.23 19.23 0 0 1-2-3.1 14.74 14.74 0 0 1-1.05-3.25 11 11 0 0 0-.83-2.54 11.2 11.2 0 0 0-1.55-2.17 14.23 14.23 0 0 1-2-2.69 16.1 16.1 0 0 1-1.21-3.23 8.62 8.62 0 0 0-.64-1.67 5.73 5.73 0 0 0-.42-.83 23.72 23.72 0 0 0-4.55-3.29c-2.33-1.39-4.57-2.61-5.2-2.89a21.64 21.64 0 0 0-2.68-.9 31.85 31.85 0 0 1-3.06-1c-1-.37-3.91-1.94-6.2-3.25-1.39-.8-2.92-1.59-4.2-2.17a10.73 10.73 0 0 0-1.78-.71 10.29 10.29 0 0 0-2.2-.14 7.71 7.71 0 0 0-.84.06c-.91.13-3.1.61-4.77 1s-3.87.94-4.74 1.08a26 26 0 0 1-3.19.27 16.68 16.68 0 0 0-2.79.31 49.59 49.59 0 0 0-6.09 2.6c-2.7 1.31-5.83 2.72-7 3.15s-3.12 1.06-4.37 1.39a8.75 8.75 0 0 0-3.22 1.76 8.94 8.94 0 0 0-1.78 3.28 31.11 31.11 0 0 1-1.65 4.36 72.57 72.57 0 0 1-4.13 6.53A50.22 50.22 0 0 0 0 103.47c-.29.75-1.1 3.47-1.75 5.94A41.55 41.55 0 0 0-3 115.35a12.39 12.39 0 0 0 .35 2.84 20.32 20.32 0 0 0 1.05 2.86 21.47 21.47 0 0 0 1.6 2.67A10.28 10.28 0 0 1 1.5 127a11.11 11.11 0 0 1 0 3.68 7.58 7.58 0 0 0 .17 2.95 11 11 0 0 0 1.7 3c.77.92 2 2.49 2.64 3.49s1.73 2.68 2.34 3.76a19.72 19.72 0 0 0 2.39 3.24 20 20 0 0 0 3.15 2.54 19.32 19.32 0 0 0 3.69 1.69l.59.16a20.39 20.39 0 0 0 3.47.54 23 23 0 0 1 4.26.64 14 14 0 0 1 3.42 1.53 7.25 7.25 0 0 0 2.4.95 7.72 7.72 0 0 0 2.65-.22 14.52 14.52 0 0 1 3.42-.51 37.18 37.18 0 0 1 6.8 1.56 51.25 51.25 0 0 0 6.58 1.62 20.81 20.81 0 0 0 3.44 0 11.77 11.77 0 0 0 3.14-.9 13.68 13.68 0 0 0 2.83-2 12.67 12.67 0 0 1 3.42-2.31 11.92 11.92 0 0 1 4-.67 6.66 6.66 0 0 0 2.84-.61 6.7 6.7 0 0 0 2-2.06 13.8 13.8 0 0 1 2.51-3 12.86 12.86 0 0 1 3.35-1.93 15 15 0 0 0 2.92-1.53 12.79 12.79 0 0 0 4.38-5.42l.06-.14a23.94 23.94 0 0 0 1.14-3.85 4.78 4.78 0 0 0-.2-2.73z" fill="url(#c)"/><path d="M32.9 56.73c-.71-.85-1.55-1.78-2.16-2.39a21.58 21.58 0 0 0-3.43-2.69A24.66 24.66 0 0 0 23.65 50a7 7 0 0 0 1.12 1.54 26.17 26.17 0 0 0 3.84 3.19 20.32 20.32 0 0 0 2.2 1.19 19 19 0 0 0 2.07.85z" fill="url(#b)"/><path d="M48.1 71a11.34 11.34 0 0 1 2.47.19 12.48 12.48 0 0 1 2 .78c.55-.11 1.12-.23 1.6-.34l.37-.09c.78-.2 2-.59 2.74-.86a12.65 12.65 0 0 1 2.64-.63 39.57 39.57 0 0 1 5.69.46c2.4.32 4.4.33 4.43 0a4.17 4.17 0 0 0-1.42-1.91A21.72 21.72 0 0 1 66 65.79a17.89 17.89 0 0 1-1.73-3.11 15 15 0 0 0-1.73-3A15.84 15.84 0 0 0 60 57.26a13.69 13.69 0 0 1-2.47-2.47A13.06 13.06 0 0 1 56 51.71a4.37 4.37 0 0 0-1.8-2.32 5.91 5.91 0 0 0-3.2-.19l-.37.06c-.4.07-.84.13-1.31.17a11.59 11.59 0 0 0 1 .88 15.84 15.84 0 0 1 2.53 2.44 15 15 0 0 1 1.73 3 17.89 17.89 0 0 0 1.73 3.11 21.72 21.72 0 0 0 2.55 2.81 4.17 4.17 0 0 1 1.42 1.91c0 .32-2 .32-4.43 0a39.57 39.57 0 0 0-5.69-.46 12.65 12.65 0 0 0-2.64.63c-.73.27-2 .66-2.74.86l-1.23.28.64.88c.65.91 1.35 2 1.82 2.74a12.18 12.18 0 0 0 1.16 1.57 11.32 11.32 0 0 0 .93.92z" fill="url(#d)"/><path d="M101.33 118.38a19 19 0 0 0-1.21-3.27 20.5 20.5 0 0 0-1.93-3 18.31 18.31 0 0 1-1.85-2.91 13.82 13.82 0 0 1-1-3 9.79 9.79 0 0 0-2.62-5.2 13.31 13.31 0 0 1-1.79-2.47 15.24 15.24 0 0 1-1.12-3 9.38 9.38 0 0 0-1.27-2.82 23.67 23.67 0 0 0-4.84-3.56c-1-.59-2-1.17-2.9-1.67l-1.42-.77a9.56 9.56 0 0 1 .72 1.89 15.24 15.24 0 0 0 1.12 3A13.31 13.31 0 0 0 83 94a9.79 9.79 0 0 1 2.65 5.23 13.82 13.82 0 0 0 1 3 18.31 18.31 0 0 0 1.85 2.91 20.5 20.5 0 0 1 1.93 3 19 19 0 0 1 1.21 3.27 20.18 20.18 0 0 1 .48 3.49 22.9 22.9 0 0 1-.25 3.66 5.28 5.28 0 0 1-1.44 2.81c-.62.51-5.61.47-11.08-.09l-3.17-.28c-5.47-.56-11.67-1-13.77-1A109.89 109.89 0 0 0 49 121.58c-5.26.92-10.42 1.65-11.48 1.63a19.41 19.41 0 0 1-3.84-.55 4.36 4.36 0 0 0-3 .17 3.83 3.83 0 0 0-1.21 2.56 8.1 8.1 0 0 0 .53 3.31 6.89 6.89 0 0 0 2 2.42c.78.54 2 1.46 2.68 2s1.76 1.57 2.37 2.19a7.11 7.11 0 0 0 2.47 1.56 5.71 5.71 0 0 0 1.15.19 7 7 0 0 1-.84-1.14 3.36 3.36 0 0 1-.16-.32 8.1 8.1 0 0 1-.46-3.31 3.83 3.83 0 0 1 1.21-2.56 4.36 4.36 0 0 1 3-.17 19.41 19.41 0 0 0 3.84.55c1.05 0 6.22-.71 11.48-1.63a109.89 109.89 0 0 1 13.38-1.65c1.89 0 7.09.39 12.1.87l1.67.17.66.13 2.5.26c5.47.56 10.46.6 11.08.09a5.28 5.28 0 0 0 1.44-2.81 22.9 22.9 0 0 0 .25-3.66 20.18 20.18 0 0 0-.49-3.5z" fill="url(#e)"/><path d="M86.93 137.59a13.79 13.79 0 0 1-4.68 5.81 16 16 0 0 1-3.16 1.6 11.93 11.93 0 0 0-3 1.75 12.86 12.86 0 0 0-2.3 2.77 7.65 7.65 0 0 1-2.4 2.43 7.76 7.76 0 0 1-3.35.74 10.9 10.9 0 0 0-3.6.6 11.69 11.69 0 0 0-3.13 2 14.73 14.73 0 0 1-3.09 2.17 12.84 12.84 0 0 1-3.46 1 21.86 21.86 0 0 1-3.65 0 52 52 0 0 1-6.78-1.66 36.88 36.88 0 0 0-6.5-1.49 13.65 13.65 0 0 0-3.14.47 8.69 8.69 0 0 1-3.07.25 8.18 8.18 0 0 1-2.84-1.03 13.1 13.1 0 0 0-3.13-1.39 22.16 22.16 0 0 0-4-.6 21.52 21.52 0 0 1-3.65-.56c.28.41.59.83.9 1.21s.63.77.9 1.05a20.84 20.84 0 0 0 3.34 2.7 20.2 20.2 0 0 0 3.93 1.8 20.9 20.9 0 0 0 4.31.74 22.16 22.16 0 0 1 4 .6 13.1 13.1 0 0 1 3.11 1.45 8.18 8.18 0 0 0 2.81 1.11 8.69 8.69 0 0 0 3.07-.25 13.65 13.65 0 0 1 3.14-.47 36.88 36.88 0 0 1 6.5 1.49 52 52 0 0 0 6.78 1.66 21.86 21.86 0 0 0 3.65 0 12.84 12.84 0 0 0 3.46-1 14.73 14.73 0 0 0 3.1-2.22 11.69 11.69 0 0 1 3.13-2 10.9 10.9 0 0 1 3.6-.6 7.76 7.76 0 0 0 3.35-.74 7.65 7.65 0 0 0 2.4-2.43 12.86 12.86 0 0 1 2.3-2.77 11.93 11.93 0 0 1 3-1.75 16 16 0 0 0 3.22-1.69 13.79 13.79 0 0 0 4.68-5.81 24.06 24.06 0 0 0 1.27-4.21 5.49 5.49 0 0 0-.37-3.49 3.92 3.92 0 0 0-2.89-1.16 21.7 21.7 0 0 0-4.07.46 20.62 20.62 0 0 0-2.31.73c-.44.16-.88.33-1.25.5z" fill="url(#f)"/></svg>