<svg xmlns="http://www.w3.org/2000/svg" xmlns:xlink="http://www.w3.org/1999/xlink" width="128.64" height="200" viewBox="0 0 128.64 200"><defs><linearGradient id="a" x1="40.4" y1="154.55" x2="76.02" y2="74.57" gradientUnits="userSpaceOnUse"><stop offset="0" stop-color="#fdba56"/><stop offset=".02" stop-color="#fbb055"/><stop offset=".06" stop-color="#f79d54"/><stop offset=".1" stop-color="#f59253"/><stop offset=".15" stop-color="#f48e53"/><stop offset=".3" stop-color="#ed5e4e"/><stop offset=".47" stop-color="#683a96" stop-opacity=".5"/><stop offset=".64" stop-color="#ed872b"/><stop offset=".79" stop-color="#7b76b6"/><stop offset=".9" stop-color="#f15f4f"/><stop offset="1" stop-color="#fdba56"/></linearGradient><linearGradient id="c" x1="53.89" y1="73.94" x2="67.94" y2="42.39" xlink:href="#a"/><linearGradient id="b" x1="67.09" y1="91.51" x2="88.76" y2="140.17" gradientUnits="userSpaceOnUse"><stop offset="0" stop-color="#b7151b"/><stop offset=".02" stop-color="#c52229"/><stop offset=".06" stop-color="#d7333c"/><stop offset=".11" stop-color="#e23d47"/><stop offset=".15" stop-color="#e6404b"/><stop offset=".3" stop-color="#e98a7b"/><stop offset=".47" stop-color="#7c78b8"/><stop offset=".64" stop-color="#00b0b0"/><stop offset=".79" stop-color="#7b76b6"/><stop offset="1" stop-color="#e7322f"/></linearGradient><linearGradient id="d" x1="67.99" y1="136.71" x2="80.99" y2="165.9" xlink:href="#b"/><linearGradient id="e" x1="76.96" y1="50.38" x2="87.97" y2="75.12" xlink:href="#b"/><linearGradient id="f" x1="49.23" y1="58.17" x2="55.37" y2="71.96" xlink:href="#b"/></defs><title>_</title><path d="M43.57 76.67c-.79.36-3.06 1.17-5.15 1.85s-5.42 1.91-7.53 2.82a37.89 37.89 0 0 0-5.47 2.82 27.48 27.48 0 0 0-3.08 2.69c-.79.83-2.63 3.11-4 5a40.7 40.7 0 0 0-3.27 5 34.09 34.09 0 0 0-1.44 6.15 38.58 38.58 0 0 0-.55 6 18.15 18.15 0 0 0 .61 2.91 12.41 12.41 0 0 1 .5 3.43 12.82 12.82 0 0 1-.67 3.44 13.14 13.14 0 0 0-.63 2.84 11.86 11.86 0 0 0 .2 2.79 13.17 13.17 0 0 0 1 2.66 14.28 14.28 0 0 0 1.66 2.4 23.24 23.24 0 0 1 2.13 2.92 31.24 31.24 0 0 1 1.75 3.54c.4 1 1.17 2.59 1.68 3.52s1.48 2.45 2.12 3.35a23.56 23.56 0 0 0 2.57 2.92 65.26 65.26 0 0 0 6.77 4.57l1.43.86c2.51 1.49 4.85 2.8 5.56 3.1a20.56 20.56 0 0 0 3 1c.87.19 3 .8 4.64 1.35a15.84 15.84 0 0 0 4.19.85 9.45 9.45 0 0 0 2.76-.74 18.41 18.41 0 0 1 3.48-1.15 39.69 39.69 0 0 1 7.37.13 38.47 38.47 0 0 0 6.83.14 11.15 11.15 0 0 0 2.94-1.19 16.82 16.82 0 0 1 7.21-2.45 19.28 19.28 0 0 0 3.29-.69 18 18 0 0 0 3-1.37 19.5 19.5 0 0 0 2.62-2 56.14 56.14 0 0 0 4.31-5.4c1.39-1.91 2.83-4 3.52-5.12.12-.2.23-.37.29-.48a15.68 15.68 0 0 0 1-2.39 1.54 1.54 0 0 0-.13-1.11 4.67 4.67 0 0 0-1.89-.89 28.73 28.73 0 0 0-3.42-.52 31.62 31.62 0 0 0-3.61 0c-1.09.07-5.43 0-9.67-.21a66 66 0 0 0-8.57 0 3.13 3.13 0 0 0-1.26.75 8.39 8.39 0 0 1-1.45 1.48 19 19 0 0 1-3.34 1.58 27.24 27.24 0 0 0-3 1.34c-.41.25-1.12.76-1.56 1.12a5.64 5.64 0 0 1-2.59 1 10 10 0 0 1-2.75-.24h-.1l-.37-.04a13.91 13.91 0 0 1-3.12-1.35 12.69 12.69 0 0 1-2.51-2.18 21.14 21.14 0 0 0-2.1-2.08 24.56 24.56 0 0 0-2.55-1.8 7.93 7.93 0 0 1-2.62-2.87 12.69 12.69 0 0 1-1-4.28c-.06-1.39.34-3.18 1.23-3.92s2.69-.74 4-.32a15.83 15.83 0 0 0 3.75.66 14.16 14.16 0 0 0 3.61-.5 28.3 28.3 0 0 1 4-.85 26.44 26.44 0 0 1 4-.1c1.08.08 3.71.46 5.85.86s7.17 1 11.36 1.29 11.07.54 15.32.49a34 34 0 0 0 7.75-.75 18 18 0 0 0-.76-5.38 46.76 46.76 0 0 1-1.44-7.33 18.24 18.24 0 0 1 .5-3.89 13.51 13.51 0 0 0 .36-3.26 9.51 9.51 0 0 0-.65-2.76c-.34-.76-1-2-1.39-2.74s-1.89-2.78-3.6-5a44.91 44.91 0 0 0-4-4.55 22.43 22.43 0 0 0-2.41-1.68 17.91 17.91 0 0 1-2.52-1.86l-.15-.13a19.4 19.4 0 0 1-2.24-2.58 11.28 11.28 0 0 0-2-2.06 10.71 10.71 0 0 0-2.44-1.29 23.3 23.3 0 0 0-3-.74 28.05 28.05 0 0 0-3.28-.29 33.1 33.1 0 0 1-3.61-.3 30.82 30.82 0 0 1-3.46-.77c-.92-.27-3.2-1.12-5.08-1.89-1.24-.51-2.76-1.05-3.85-1.39-.39-.12-.73-.21-1-.26a13.88 13.88 0 0 0-3-.21 10.84 10.84 0 0 0-2.76.63 12.79 12.79 0 0 0-2.33 1.35l-.14.1-.16.12c-.78.62-2.05 1.54-2.84 2a29.56 29.56 0 0 1-2.65 1.53z" fill="url(#a)"/><path d="M76.36 47.18a27.58 27.58 0 0 0-2.77-2.08 17.62 17.62 0 0 0-2.82-1.42 11.88 11.88 0 0 0-2.66-.58c-.83-.06-2.2-.24-3.07-.4s-2.29-.5-3.19-.76a9.72 9.72 0 0 0-2.8-.3 10.62 10.62 0 0 0-2.82.75A25.14 25.14 0 0 1 53 43.52a16.85 16.85 0 0 1-3 .48 6 6 0 0 0-2.13.6 9.51 9.51 0 0 0-2.06 1.72c-.64.73-3.48 3.49-6.46 6.29S33.6 58.13 33 58.85s-1.66 2-2.22 2.78a4.19 4.19 0 0 0-.78 1.58 1.53 1.53 0 0 0 .77.4c.73.15 2 .32 2.69.38s2 .08 2.7 0L37 64c.73 0 1.57 0 2.15.08s1.84.24 2.68.42l.28.06a7.47 7.47 0 0 0 2.39.08 8.45 8.45 0 0 0 2.34-.89c.7-.42 1.69-1.06 2.17-1.41a12.21 12.21 0 0 0 1.32-1.11A9.84 9.84 0 0 1 51.77 60a15.12 15.12 0 0 1 1.84-1 3.43 3.43 0 0 0 1.09-.83 3.48 3.48 0 0 0 .46-1.3 6.17 6.17 0 0 1 .63-2.1 3.47 3.47 0 0 1 1.52-1.34 2.71 2.71 0 0 1 1.81-.1 2.31 2.31 0 0 1 1.21 1.37 3 3 0 0 0 .5.79 7 7 0 0 0 1.14.91 11.65 11.65 0 0 1 1.65 1.3 10.6 10.6 0 0 1 1.28 1.6 4.25 4.25 0 0 0 .87 1 3.58 3.58 0 0 0 1.1.46h.12c.48.1 1.52.38 2.58.68l.43.16a26.15 26.15 0 0 0 3.46.79 17.33 17.33 0 0 0 2.57 0c.93-.07 4.41.06 7.23.24a30.83 30.83 0 0 0 4.35 0c-.73-1.25-2.37-3.75-4.69-7-1.48-2-3.06-4.16-4.34-5.79a30.82 30.82 0 0 0-2.22-2.66z" fill="url(#c)"/><path d="M90.66 83.81a23.34 23.34 0 0 1 2.54 1.78 44.79 44.79 0 0 1 4.1 4.71c1.6 2 3.26 4.34 3.69 5.1s1.07 2 1.43 2.82a10.43 10.43 0 0 1 .74 3.12 14.51 14.51 0 0 1-.39 3.56 17.39 17.39 0 0 0-.47 3.63 46.05 46.05 0 0 0 1.41 7.09c.77 2.94 1 5.78.61 6.31s-4.28 1-8.55 1.07-11.21-.17-15.41-.49-9.36-.91-11.46-1.3-4.68-.77-5.73-.84a24.92 24.92 0 0 0-3.83.1 27 27 0 0 0-3.85.81 15.12 15.12 0 0 1-3.92.54 16.79 16.79 0 0 1-4-.71 3.72 3.72 0 0 0-3 .14 4.47 4.47 0 0 0-.87 3.11 11.77 11.77 0 0 0 .88 3.88 6.9 6.9 0 0 0 2.23 2.46 25.43 25.43 0 0 1 2.68 1.89 22 22 0 0 1 2.22 2.2 11.79 11.79 0 0 0 2.28 2 12.92 12.92 0 0 0 2.77 1.21l.36.08-.69-.44a6.64 6.64 0 0 1-1.62-1.51 5.54 5.54 0 0 1-.61-.94 11.77 11.77 0 0 1-.88-3.88 4.47 4.47 0 0 1 .87-3.11 3.72 3.72 0 0 1 3-.14 16.79 16.79 0 0 0 4 .71 15.12 15.12 0 0 0 3.92-.54 27 27 0 0 1 3.89-.83 24.92 24.92 0 0 1 3.83-.1c1.05.07 3.63.45 5.73.84s7.26 1 11.46 1.3 11.14.54 15.41.49 8.12-.54 8.55-1.07.16-3.38-.61-6.31a46.05 46.05 0 0 1-1.41-7.09 17.39 17.39 0 0 1 .47-3.63 14.51 14.51 0 0 0 .39-3.56 10.43 10.43 0 0 0-.74-3.12c-.36-.8-1-2.07-1.43-2.82s-2.09-3.05-3.69-5.1a44.79 44.79 0 0 0-4.1-4.71 23.34 23.34 0 0 0-2.54-1.78 17.08 17.08 0 0 1-2.5-1.86 18.56 18.56 0 0 1-2.1-2.42 12.32 12.32 0 0 0-2.17-2.28 11.55 11.55 0 0 0-2.73-1.44h-.06a24.32 24.32 0 0 0-2.51-.65 17.18 17.18 0 0 0 2.41 1.72z" fill="url(#b)"/><path d="M99.73 138.16c-.68 1.08-2.12 3.18-3.56 5.17a57 57 0 0 1-4.44 5.55 20.41 20.41 0 0 1-2.78 2.12 18.93 18.93 0 0 1-3.19 1.46 20.2 20.2 0 0 1-3.5.74 15.83 15.83 0 0 0-6.79 2.31 12.17 12.17 0 0 1-3.27 1.32 38.25 38.25 0 0 1-7.12-.13 39 39 0 0 0-7.09-.14 17.46 17.46 0 0 0-3.25 1.08 10.37 10.37 0 0 1-3.12.83 16.49 16.49 0 0 1-4.56-.9c-1.66-.55-3.71-1.14-4.54-1.33a21.4 21.4 0 0 1-3.2-1.06c-.77-.33-3.16-1.67-5.67-3.16.47.53 1 1 1.35 1.4a34.86 34.86 0 0 0 3.31 2.38c1.12.74 2.38 1.54 3.62 2.3 3 1.82 6.19 3.63 7.11 4a21.4 21.4 0 0 0 3.2 1.06c.84.18 2.88.78 4.54 1.33a16.49 16.49 0 0 0 4.56.9 10.37 10.37 0 0 0 3.12-.83 17.46 17.46 0 0 1 3.25-1.08 39 39 0 0 1 7.09.14 38.25 38.25 0 0 0 7.12.13 12.17 12.17 0 0 0 3.27-1.32 15.83 15.83 0 0 1 6.81-2.31 20.2 20.2 0 0 0 3.5-.74 18.93 18.93 0 0 0 3.19-1.46 20.41 20.41 0 0 0 2.79-2.09 57 57 0 0 0 4.44-5.55c1.74-2.4 3.49-5 3.89-5.72a16.68 16.68 0 0 0 1.09-2.57 2.46 2.46 0 0 0-.32-2 5.34 5.34 0 0 0-2.43-1.22 29.65 29.65 0 0 0-3.57-.55 33.25 33.25 0 0 0-3.62 0h-.12z" fill="url(#d)"/><path d="M79.42 49.28c1.25 1.6 2.82 3.68 4.36 5.82 3 4.11 5.34 7.8 5.27 8.18s-2.69.55-5.8.36-6.31-.3-7.1-.24a18.25 18.25 0 0 1-2.76 0 26.62 26.62 0 0 1-3.61-.81l-.5-.14a4.13 4.13 0 0 0 .52.74 6.69 6.69 0 0 0 .75.65c.2.16.41.31.59.42a10.63 10.63 0 0 1 1.48 1.17 9.56 9.56 0 0 1 1.14 1.42 5.17 5.17 0 0 0 1.14 1.24 4.56 4.56 0 0 0 1.49.62c.46.09 1.85.46 3.1.83a26.62 26.62 0 0 0 3.61.81 18.25 18.25 0 0 0 2.76 0c.78-.06 4 0 7.1.24s5.73 0 5.8-.36-2.3-4.07-5.27-8.18a101 101 0 0 0-6.76-8.68 28.42 28.42 0 0 0-2.89-2.18 19 19 0 0 0-2.78-1.42l-.24-.1a12 12 0 0 0-1.4-.39z" fill="url(#e)"/><path d="M49 72.06a13.87 13.87 0 0 1 2.54-1.47 11.76 11.76 0 0 1 3.07-.7 15.1 15.1 0 0 1 3.23.23c.26.05.63.15 1.06.28l.44-.31.55-.43a10.91 10.91 0 0 0 .91-.8 8.82 8.82 0 0 1 1.27-1 14.18 14.18 0 0 1 1.7-.91 4.33 4.33 0 0 0 1.49-1.16 4.38 4.38 0 0 0 .61-1.79 5.8 5.8 0 0 1 .32-1.32 2.64 2.64 0 0 1 .17-.38 2.3 2.3 0 0 1 .43-.5h-.1a4.56 4.56 0 0 1-1.49-.62 5.17 5.17 0 0 1-1.14-1.24 9.56 9.56 0 0 0-1.14-1.42 10.63 10.63 0 0 0-1.48-1.17 8 8 0 0 1-1.34-1.08 3.94 3.94 0 0 1-.71-1.15 1.36 1.36 0 0 0-.63-.76 1.77 1.77 0 0 0-1.08.1 2.49 2.49 0 0 0-1 .91 5.17 5.17 0 0 0-.49 1.7 4.38 4.38 0 0 1-.65 1.78A4.33 4.33 0 0 1 54 60a14.18 14.18 0 0 0-1.7.91 8.82 8.82 0 0 0-1.27 1 13.14 13.14 0 0 1-1.46 1.23c-.51.37-1.52 1-2.25 1.46a9.4 9.4 0 0 1-2.69 1 8.55 8.55 0 0 1-2.78-.09l-.26-.05-.73.88c-.46.57-.92 1.17-1.25 1.62a4.15 4.15 0 0 0-.9 2.37 2 2 0 0 0 1.56 1.17 28.22 28.22 0 0 0 2.81.39 27.89 27.89 0 0 0 2.82 0h1.5c.5 0 1 0 1.33.07z" fill="url(#f)"/></svg>