<svg xmlns="http://www.w3.org/2000/svg" xmlns:xlink="http://www.w3.org/1999/xlink" width="117.11" height="200" viewBox="0 0 117.11 200"><defs><linearGradient id="a" x1="72.05" y1="66.32" x2="83.45" y2="40.71" gradientUnits="userSpaceOnUse"><stop offset="0" stop-color="#fdba56"/><stop offset=".02" stop-color="#fbb055"/><stop offset=".06" stop-color="#f79d54"/><stop offset=".1" stop-color="#f59253"/><stop offset=".15" stop-color="#f48e53"/><stop offset=".3" stop-color="#ed5e4e"/><stop offset=".47" stop-color="#683a96" stop-opacity=".5"/><stop offset=".64" stop-color="#ed872b"/><stop offset=".79" stop-color="#7b76b6"/><stop offset=".9" stop-color="#f15f4f"/><stop offset="1" stop-color="#fdba56"/></linearGradient><linearGradient id="c" x1="42.65" y1="156.04" x2="78.68" y2="75.11" xlink:href="#a"/><linearGradient id="d" x1="37.28" y1="64.9" x2="48.18" y2="40.43" xlink:href="#a"/><linearGradient id="b" x1="83.78" y1="53.43" x2="93.04" y2="74.23" gradientUnits="userSpaceOnUse"><stop offset="0" stop-color="#b7151b"/><stop offset=".02" stop-color="#c52229"/><stop offset=".06" stop-color="#d7333c"/><stop offset=".11" stop-color="#e23d47"/><stop offset=".15" stop-color="#e6404b"/><stop offset=".3" stop-color="#e98a7b"/><stop offset=".47" stop-color="#7c78b8"/><stop offset=".64" stop-color="#00b0b0"/><stop offset=".79" stop-color="#7b76b6"/><stop offset="1" stop-color="#e7322f"/></linearGradient><linearGradient id="e" x1="65.35" y1="88.05" x2="87.67" y2="138.19" xlink:href="#b"/><linearGradient id="f" x1="71.83" y1="139.05" x2="83.39" y2="165" xlink:href="#b"/><linearGradient id="g" x1="49.41" y1="52.79" x2="58.7" y2="73.66" xlink:href="#b"/></defs><title>_</title><path d="M90 50.68a11.07 11.07 0 0 1-.59-2.68 13 13 0 0 1 .23-3.23 2.11 2.11 0 0 0-.16-1.39 3.74 3.74 0 0 0-1.89-.38 18.36 18.36 0 0 0-3.36.38 17.86 17.86 0 0 0-3.15 1.13 15.24 15.24 0 0 1-3.53 1.16 29.83 29.83 0 0 1-7-.71 25.76 25.76 0 0 0-4.88-.59 1.7 1.7 0 0 0 0 .7 21.43 21.43 0 0 1 .57 2.85c.05.45.08 1.07.09 1.71v1.05a15.38 15.38 0 0 1-.49 2.73 17.84 17.84 0 0 1-1.08 2.69 9.93 9.93 0 0 0-.76 2.33 12.21 12.21 0 0 0 0 2.73 3.54 3.54 0 0 0 .84 1.84 5 5 0 0 0 1.8.77 4.91 4.91 0 0 0 .58.11 12.09 12.09 0 0 0 3.31-.16 11.58 11.58 0 0 0 2.13-.78 9.53 9.53 0 0 0 .95-.5 8.32 8.32 0 0 1 3.77-1.16 8.38 8.38 0 0 1 3.78 1.19 12.57 12.57 0 0 0 3.1 1.32 12.84 12.84 0 0 0 3.38.22 3.69 3.69 0 0 0 1.92-.7 2.48 2.48 0 0 0 0-1.63 11.28 11.28 0 0 1-.5-3.45 8.59 8.59 0 0 1 .94-3.11 6 6 0 0 0 .63-2.07 5.56 5.56 0 0 0-.42-2c-.07-.14-.12-.25-.21-.37z" fill="url(#a)"/><path d="M101.84 130.57a2.62 2.62 0 0 0-1.15-.71 3.71 3.71 0 0 0-1-.22 15.88 15.88 0 0 0-3.75.26 17.41 17.41 0 0 0-3.12 1.1l-.51.25A11.27 11.27 0 0 1 88 132.4a10.65 10.65 0 0 1-4.3-1.17 18.6 18.6 0 0 0-3.63-1.43l-.49-.1a16.49 16.49 0 0 0-3.16-.26 7.17 7.17 0 0 0-2.36.55l-.26.13a3 3 0 0 0-1 1.56 6.05 6.05 0 0 1-1.26 2.64 3.66 3.66 0 0 1-2.53 1 5 5 0 0 0-1.5.3 3.53 3.53 0 0 0-1 .93 3.35 3.35 0 0 1-4.25 1.32 18.13 18.13 0 0 0-2-.6c-.47-.11-2.58-.41-5.17-.69l-.61-.07c-2-.21-5.34-.8-6.4-1.52a8.22 8.22 0 0 1-2.33-2.76 19.52 19.52 0 0 1-1.21-3.28 17.4 17.4 0 0 1-.44-3.35 5.56 5.56 0 0 1 1.13-3.3 7.76 7.76 0 0 1 3.22-1.94 16.15 16.15 0 0 1 4-.6 17.19 17.19 0 0 1 4.1.61 27 27 0 0 0 3.68.76 61.26 61.26 0 0 0 7.46-.21 62.88 62.88 0 0 1 7.83-.21 25.86 25.86 0 0 1 4 .85 16.41 16.41 0 0 0 3.56.62 16.67 16.67 0 0 0 3.55-.38c1.08-.27 5.31-1 9.42-1.57a43.66 43.66 0 0 0 8-1.71 3.69 3.69 0 0 0 1-1.49 5.14 5.14 0 0 0 0-2.1 10.61 10.61 0 0 0-1.2-2.64 13.84 13.84 0 0 1-1.56-3.54 13.22 13.22 0 0 1-.26-3.81 11.72 11.72 0 0 0-.14-3A22.87 22.87 0 0 0 99.11 97a75.55 75.55 0 0 0-6.78-7.76 85.15 85.15 0 0 0-6.4-5.78 29.32 29.32 0 0 1-3.2-2.76l-.33-.37a21.88 21.88 0 0 1-2-3.05 7.6 7.6 0 0 0-1.92-2.21 7 7 0 0 0-2.68-.91 32.18 32.18 0 0 0-3.46-.09 31.9 31.9 0 0 0-3.43.36 17.32 17.32 0 0 1-3.75.17 16.79 16.79 0 0 1-3.63-.8 13.85 13.85 0 0 0-3-.66 11.12 11.12 0 0 0-2.79.21 17.7 17.7 0 0 1-3.29.4 20.71 20.71 0 0 1-3.45-.34 12.4 12.4 0 0 0-2.87-.18 46.36 46.36 0 0 0-6.6 2 37.23 37.23 0 0 0-6.73 3.12 80.48 80.48 0 0 0-7.21 9.27l-.59.88c-3.35 4.78-6 8.9-6.36 9.61a24.57 24.57 0 0 0-1.01 2.89c-.22.81-.66 2.13-1 2.94s-.88 2.11-1.27 2.9a10.28 10.28 0 0 0-.79 2.56 63.72 63.72 0 0 0 1 8.59 82.23 82.23 0 0 1 1.17 9.24 24.47 24.47 0 0 1-.51 3.55 5.32 5.32 0 0 0 .22 2.71 8.27 8.27 0 0 0 2.24 2.51 29.74 29.74 0 0 1 3.31 3 26.29 26.29 0 0 1 2.59 3.5 24.56 24.56 0 0 0 2.31 3.14 59.56 59.56 0 0 0 6.47 5.1c1.42 1 3 2 4.31 2.83a13.73 13.73 0 0 0 2.4 1.28 24.62 24.62 0 0 0 6.16.05c2.59-.23 5.27-.41 6.28-.41h.18c1 0 4.13.46 6.59.88a47.4 47.4 0 0 0 6.49.77 17.71 17.71 0 0 0 3.27-.47 31.82 31.82 0 0 1 3.67-.68 34.14 34.14 0 0 1 3.78-.15 8.74 8.74 0 0 0 3-.53 9.71 9.71 0 0 0 2.6-1.79c.87-.89 5.45-4.53 9.38-7.54l.67-.51c4.82-3.69 8.29-6.86 8.66-7.5l.16-.31a14.59 14.59 0 0 0 1.1-3.37 4.87 4.87 0 0 0-.23-2.72z" fill="url(#c)"/><path d="M56 45a2.3 2.3 0 0 0-.81-1.41 4.41 4.41 0 0 0-2.3.16 13.79 13.79 0 0 1-4 .64 11.92 11.92 0 0 1-3.78-.81 10.09 10.09 0 0 0-2.9-.68 10.27 10.27 0 0 0-2.88.46 15.26 15.26 0 0 1-3.63.64 17.76 17.76 0 0 1-3.85-.33 4 4 0 0 0-2.08.05 2 2 0 0 0-.53 1.29 10.93 10.93 0 0 0 .28 2.64 10.36 10.36 0 0 0 1.06 2.37 10.25 10.25 0 0 1 1.22 2.83c.24 1.08-.27 4-.67 5.65a13.64 13.64 0 0 0-.46 3.5 4.64 4.64 0 0 0 1.33-.17 31 31 0 0 1 3.53-.62c.68-.07 1.66-.11 2.5-.11h1c.42 0 1 .08 1.51.15.73.09 1.42.21 1.93.33a27.21 27.21 0 0 1 3.41 1.06 17.85 17.85 0 0 0 3.17.86 20.51 20.51 0 0 0 3.44.16 5.41 5.41 0 0 0 2.42-.75 3.69 3.69 0 0 0 1-1.83 7.4 7.4 0 0 0-.05-2.58 7.4 7.4 0 0 0-1.19-2.29 5.65 5.65 0 0 1-1.24-3.14 5.72 5.72 0 0 1 1.3-3.07 5.76 5.76 0 0 0 .44-.63 7.21 7.21 0 0 0 .83-1.73A7.89 7.89 0 0 0 56 45z" fill="url(#d)"/><path d="M91.09 50.6a6.49 6.49 0 0 1 .51 2.5 6.94 6.94 0 0 1-.75 2.5 7.54 7.54 0 0 0-.77 2.7 10.3 10.3 0 0 0 .45 3.08 3.21 3.21 0 0 1-.17 2.55A4.33 4.33 0 0 1 87.74 65a11 11 0 0 1-7.1-1.7 7.36 7.36 0 0 0-3.25-1 7.3 7.3 0 0 0-3.25 1 10.51 10.51 0 0 1-1 .56 10 10 0 0 0-.32 1.23v.13a13.24 13.24 0 0 0 0 3 4.47 4.47 0 0 0 1.22 2.49 6.33 6.33 0 0 0 2.92 1.12 13.05 13.05 0 0 0 3.64-.18 13.26 13.26 0 0 0 3.38-1.41 7.3 7.3 0 0 1 3.25-1 7.36 7.36 0 0 1 3.25 1 11 11 0 0 0 7.1 1.7 4.33 4.33 0 0 0 2.62-1.09 3.21 3.21 0 0 0 .17-2.55 10.3 10.3 0 0 1-.45-3.08 7.54 7.54 0 0 1 .77-2.7 6.94 6.94 0 0 0 .75-2.5 6.49 6.49 0 0 0-.51-2.5 9.69 9.69 0 0 1-.69-2.65 12 12 0 0 1 .21-2.93 2.85 2.85 0 0 0-.43-2.3 4.31 4.31 0 0 0-2.61-.76 19.41 19.41 0 0 0-3.58.41 16.83 16.83 0 0 0-1.82.57c-.32.12-.64.24-.93.36-.08.14-.08.28.01.38z" fill="url(#b)"/><path d="M115.82 121.65a11.43 11.43 0 0 0-1.33-3 12.88 12.88 0 0 1-1.42-3.24 12.24 12.24 0 0 1-.23-3.47 12.77 12.77 0 0 0-.16-3.34 22.88 22.88 0 0 0-3-5.3 76.78 76.78 0 0 0-6.88-7.89 84.86 84.86 0 0 0-6.51-5.87 25.11 25.11 0 0 1-3.36-3 21 21 0 0 1-1.94-2.89 8.54 8.54 0 0 0-2.24-2.56 8 8 0 0 0-3.15-1.07L85 80c-.47 0-1 0-1.51-.06a28.46 28.46 0 0 0 3.07 2.66A84.86 84.86 0 0 1 93 88.51a76.78 76.78 0 0 1 6.88 7.89 22.88 22.88 0 0 1 3 5.3 12.77 12.77 0 0 1 .16 3.34 12.24 12.24 0 0 0 .23 3.47 12.88 12.88 0 0 0 1.42 3.24 11.43 11.43 0 0 1 1.33 3 6.07 6.07 0 0 1 0 2.62 4.62 4.62 0 0 1-1.43 2c-.58.44-4.4 1.28-8.48 1.88s-8.27 1.3-9.32 1.55a16.92 16.92 0 0 1-3.82.4 17.39 17.39 0 0 1-3.82-.66 24.88 24.88 0 0 0-3.82-.82 62.81 62.81 0 0 0-7.64.21 61.93 61.93 0 0 1-7.65.21 27.78 27.78 0 0 1-3.85-.79 16.35 16.35 0 0 0-3.81-.57 15.28 15.28 0 0 0-3.73.56 6.88 6.88 0 0 0-2.75 1.63 4.59 4.59 0 0 0-.89 2.64 16.57 16.57 0 0 0 .41 3.12 18.75 18.75 0 0 0 1.14 3.08 7.19 7.19 0 0 0 2 2.37 19.76 19.76 0 0 0 6 1.35l.61.07c-.07-.3-.13-.66-.19-1a15.71 15.71 0 0 1-.2-2 4.59 4.59 0 0 1 .89-2.64 6.88 6.88 0 0 1 2.75-1.63 15.28 15.28 0 0 1 3.73-.56 16.35 16.35 0 0 1 3.81.57 27.78 27.78 0 0 0 3.85.79 20.32 20.32 0 0 0 2.16 0h1.68a8.14 8.14 0 0 1 2.74-.64 17.16 17.16 0 0 1 3.39.28c1.09-.06 2.12-.09 3-.11a21.93 21.93 0 0 1 2.32 0 24.88 24.88 0 0 1 3.82.82 15 15 0 0 0 1.65.39 17.37 17.37 0 0 0 1.84.25 18.37 18.37 0 0 1 3.34-1.19 16.79 16.79 0 0 1 4-.28 4.74 4.74 0 0 1 1.25.28l1.65-.26 3.2-.49c4.08-.6 7.89-1.44 8.48-1.88a4.62 4.62 0 0 0 1.43-2 6.07 6.07 0 0 0 .06-2.65z" fill="url(#e)"/><path d="M101.71 137.51c-.54.94-4.55 4.45-8.92 7.8l-.66.51c-4.37 3.35-8.54 6.7-9.28 7.45a10.63 10.63 0 0 1-2.93 2 10.06 10.06 0 0 1-3.44.6 31.57 31.57 0 0 0-3.64.15 30.17 30.17 0 0 0-3.53.65 18.71 18.71 0 0 1-3.5.5 52.27 52.27 0 0 1-6.69-.78c-2.71-.46-5.61-.85-6.44-.86s-3.68.16-6.32.4a25 25 0 0 1-6.54-.09 16.07 16.07 0 0 1-2.63-1.38c.84.7 2 1.58 3.17 2.49.7.53 1.44 1.06 2.17 1.58a42.4 42.4 0 0 0 7 4.25 25 25 0 0 0 6.54.09c2.64-.24 5.48-.42 6.32-.4s3.73.41 6.44.86a52.27 52.27 0 0 0 6.69.78 18.71 18.71 0 0 0 3.5-.5 30.17 30.17 0 0 1 3.53-.65 31.57 31.57 0 0 1 3.64-.15 10.06 10.06 0 0 0 3.44-.6 10.63 10.63 0 0 0 2.93-2c.74-.75 4.91-4.1 9.28-7.45l.66-.51c4.37-3.35 8.38-6.85 8.92-7.8a14.8 14.8 0 0 0 1.38-4 5.69 5.69 0 0 0-.43-3.51 4.27 4.27 0 0 0-2.88-1.37 16.79 16.79 0 0 0-4 .28 16.22 16.22 0 0 0-2.22.72c-.47.18-.94.38-1.33.57z" fill="url(#f)"/><path d="M61.34 71.64h.92a6.32 6.32 0 0 0 3-1 4.61 4.61 0 0 0 1.39-2.44 8.68 8.68 0 0 0 0-2.41 5.07 5.07 0 0 0-.1-.6c0-.14-.1-.3-.16-.46a5.85 5.85 0 0 1-2.22-1A4.47 4.47 0 0 1 63 61.28a13.24 13.24 0 0 1 0-3 10.83 10.83 0 0 1 .87-2.67 17 17 0 0 0 1-2.51 14.47 14.47 0 0 0 .45-2.52v-1a2.71 2.71 0 0 0-1-.18 6.39 6.39 0 0 0-2 .29 13.66 13.66 0 0 1-3.71.59A9.49 9.49 0 0 1 57 50.1a9.13 9.13 0 0 1-1-.25 6.74 6.74 0 0 1-.52.75 4.77 4.77 0 0 0-1 2.5 4.71 4.71 0 0 0 1 2.5 8.34 8.34 0 0 1 1.39 2.67 8.35 8.35 0 0 1 .07 3 4.61 4.61 0 0 1-1.39 2.44 6.32 6.32 0 0 1-3 1 21.13 21.13 0 0 1-3.64-.17 18.73 18.73 0 0 1-3.38-.92 26.19 26.19 0 0 0-3.26-1c-.5-.11-1.18-.22-1.84-.31 0 .31-.1.65-.16 1-.11.65-.24 1.32-.4 2-.52 2.17-.64 4.17-.27 4.44a3.72 3.72 0 0 0 2.39.06 29.51 29.51 0 0 1 3.4-.59 26.27 26.27 0 0 1 3.32-.08 23.7 23.7 0 0 1 3.27.45 26.19 26.19 0 0 1 3.26 1 17.24 17.24 0 0 0 1.91.6c.53.14 1.06.25 1.48.32a20.83 20.83 0 0 0 2.71.13z" fill="url(#g)"/></svg>