<svg xmlns="http://www.w3.org/2000/svg" xmlns:xlink="http://www.w3.org/1999/xlink" width="70.34" height="200" viewBox="0 0 70.34 200"><defs><linearGradient id="a" x1="14.54" y1="151.17" x2="48.17" y2="75.63" gradientUnits="userSpaceOnUse"><stop offset="0" stop-color="#fdba56"/><stop offset=".02" stop-color="#fbb055"/><stop offset=".06" stop-color="#f79d54"/><stop offset=".1" stop-color="#f59253"/><stop offset=".15" stop-color="#f48e53"/><stop offset=".3" stop-color="#ed5e4e"/><stop offset=".47" stop-color="#683a96" stop-opacity=".5"/><stop offset=".64" stop-color="#ed872b"/><stop offset=".79" stop-color="#7b76b6"/><stop offset=".9" stop-color="#f15f4f"/><stop offset="1" stop-color="#fdba56"/></linearGradient><linearGradient id="c" x1="9.79" y1="63.17" x2="19.19" y2="42.06" xlink:href="#a"/><linearGradient id="d" x1="25.29" y1="44.76" x2="25.29" y2="44.76" xlink:href="#a"/><linearGradient id="e" x1="43.98" y1="65.8" x2="54.65" y2="41.83" xlink:href="#a"/><linearGradient id="b" x1="28.34" y1="90.08" x2="59.53" y2="160.14" gradientUnits="userSpaceOnUse"><stop offset="0" stop-color="#b7151b"/><stop offset=".02" stop-color="#c52229"/><stop offset=".06" stop-color="#d7333c"/><stop offset=".11" stop-color="#e23d47"/><stop offset=".15" stop-color="#e6404b"/><stop offset=".3" stop-color="#e98a7b"/><stop offset=".47" stop-color="#7c78b8"/><stop offset=".64" stop-color="#00b0b0"/><stop offset=".79" stop-color="#7b76b6"/><stop offset="1" stop-color="#e7322f"/></linearGradient><linearGradient id="f" x1="20.86" y1="52.42" x2="30.18" y2="73.34" xlink:href="#b"/><linearGradient id="g" x1="55.46" y1="53.91" x2="63.68" y2="72.37" xlink:href="#b"/></defs><title>_</title><path d="M46.51 74.89a4.79 4.79 0 0 0-2.68.09 20.39 20.39 0 0 1-4.78.71 16 16 0 0 1-4.5-.8 13.42 13.42 0 0 0-3.67-.68 13.45 13.45 0 0 0-3.63.62 16.53 16.53 0 0 1-4.49.77 20.78 20.78 0 0 1-4.77-.68 4.69 4.69 0 0 0-2.11-.17 3.37 3.37 0 0 0 .24 1.67 13.41 13.41 0 0 1 .8 4.33 10.64 10.64 0 0 1-1.06 4 9.53 9.53 0 0 0-.92 3 8.5 8.5 0 0 0 .42 2.94 20.82 20.82 0 0 1 .91 3.56 19.12 19.12 0 0 1 .11 3.58c-.07.89-.12 2.38-.1 3.26s.13 2.38.24 3.26a15.64 15.64 0 0 1 0 3.64 17.57 17.57 0 0 1-1 3.6 13.25 13.25 0 0 0-.83 3.08 11.87 11.87 0 0 0 .14 3.05c.2 1 .52 3.26.71 5.14s.36 4.95.35 6.83.08 4 .19 4.92a27.82 27.82 0 0 0 .63 3.22 27.37 27.37 0 0 1 .67 3.52c.11 1 .13 3.74.05 6.28a13.43 13.43 0 0 0 .48 4.72 6.19 6.19 0 0 0 2 1.14 20.15 20.15 0 0 0 3.3.71 25.7 25.7 0 0 0 2.88.1h.8c1.08-.07 2.84-.28 3.92-.47s2.84-.59 3.91-.9a15.72 15.72 0 0 1 4.46-.48 19.18 19.18 0 0 1 4.64 1 4.74 4.74 0 0 0 2.4.32 2.52 2.52 0 0 0 .22-1.52c-.15-1.12-.28-2.87-.3-3.9a32.44 32.44 0 0 1 .18-3.64 30 30 0 0 0 .17-3.23 30.46 30.46 0 0 0-.25-3.23 28 28 0 0 1-.23-3.51c0-1.08.5-6 1-10.19.55-4.89.87-9.14.8-9.89a16.51 16.51 0 0 0-.66-3.13 21.94 21.94 0 0 1-.82-3.56 20.23 20.23 0 0 1-.07-3.57c.08-1 .43-3.27.78-5.14a17.79 17.79 0 0 0 .32-4.68 11.52 11.52 0 0 0-1.18-3 10 10 0 0 1-1.22-3.81 9.24 9.24 0 0 1 .8-3.85 19 19 0 0 0 .94-2.59c.08-.27.14-.52.19-.75a22.46 22.46 0 0 0 .41-3.74 2.74 2.74 0 0 0-.79-1.95z" fill="url(#a)"/><path d="M26.05 50a11.45 11.45 0 0 1-.52-1.74 10.31 10.31 0 0 1-.08-2.76 1.24 1.24 0 0 0-.15-.76 3.82 3.82 0 0 0-1.6-.1 14.11 14.11 0 0 1-3.5 0 16.23 16.23 0 0 1-3.49-1.05 12.39 12.39 0 0 0-3-.83 11 11 0 0 0-2.93.15c-.93.2-3.16.52-5 .72a12.07 12.07 0 0 0-3.57.83 2 2 0 0 0-.5 1.18 14 14 0 0 0 .15 2.3 15.56 15.56 0 0 0 .62 2.32A15.76 15.76 0 0 1 3.23 53a32.9 32.9 0 0 1 0 4.59 9.11 9.11 0 0 0 .21 2.82 4.87 4.87 0 0 0 1.41.34 18.65 18.65 0 0 1 3 .56 27 27 0 0 1 3.2 1.2 7.25 7.25 0 0 0 1.15.38 7.47 7.47 0 0 0 1.63.27 8.75 8.75 0 0 0 2.8-.61 11.45 11.45 0 0 1 3.8-.79 14.29 14.29 0 0 1 4.06.72 5.15 5.15 0 0 0 1.36.29 3.24 3.24 0 0 0-.27-.88 9.08 9.08 0 0 1-.81-3.58A6.88 6.88 0 0 1 26 55a5.44 5.44 0 0 0 .86-2 4.37 4.37 0 0 0-.38-2c-.15-.24-.29-.59-.43-1z" fill="url(#c)"/><path fill="url(#d)" d="M25.29 44.76v.01-.01z"/><path d="M61.93 49.58a39.09 39.09 0 0 1-.72-3.88 2.08 2.08 0 0 0-.59-1.18A4.44 4.44 0 0 0 58.7 44a23.41 23.41 0 0 0-3.1.15 26.06 26.06 0 0 0-3.11.63 25.87 25.87 0 0 1-3.41.67c-.94.1-3.63.18-6.16.17a22.77 22.77 0 0 0-4.52.38 1.07 1.07 0 0 0-.23.55 8.4 8.4 0 0 1-.44 2.26 16 16 0 0 1-1.17 2.44l-.08.17a4.88 4.88 0 0 0-.48 1.72 5.06 5.06 0 0 0 .56 2 8.13 8.13 0 0 1 .88 3.15 11.12 11.12 0 0 1-.57 3.47 2.61 2.61 0 0 0-.16.8 6.18 6.18 0 0 0 1.52-.46 11.84 11.84 0 0 1 4.09-.93 9.59 9.59 0 0 1 3.68.93l.21.1a9 9 0 0 0 2.85.9 7.82 7.82 0 0 0 2.81-.42 19.59 19.59 0 0 1 3.45-.9 17.53 17.53 0 0 1 3.44-.09 3.44 3.44 0 0 0 1.59-.19 1.5 1.5 0 0 0 .07-.76 8.76 8.76 0 0 1 0-2.83 10.93 10.93 0 0 1 1.08-2.79 7.63 7.63 0 0 0 .81-2.12 10 10 0 0 0-.17-2.3c-.06-.41-.14-.78-.21-1.12z" fill="url(#e)"/><path d="M46.52 84.29a8.26 8.26 0 0 0-.7 3.36A9 9 0 0 0 46.91 91a12.47 12.47 0 0 1 1.3 3.36 18.37 18.37 0 0 1-.32 5c-.34 1.85-.69 4.12-.77 5a19.5 19.5 0 0 0 .07 3.36 21.07 21.07 0 0 0 .77 3.36 17.45 17.45 0 0 1 .7 3.36c.08.92-.28 5.46-.8 10.09s-1 9.16-1 10.09a26.48 26.48 0 0 0 .22 3.36 25.69 25.69 0 0 1 .08 6.72 31.43 31.43 0 0 0-.17 3.5c0 1 .15 2.71.29 3.78a2.75 2.75 0 0 1-.73 2.53 4.92 4.92 0 0 1-3.23-.26 18.38 18.38 0 0 0-4.36-1 14.77 14.77 0 0 0-4.12.44c-1.1.31-2.91.73-4 .92s-2.92.41-4 .48h-.85v1a8.2 8.2 0 0 0 .68 3.62 6.87 6.87 0 0 0 2.49 1.46 21.21 21.21 0 0 0 3.5.75 26.58 26.58 0 0 0 3.86.08c1.11-.07 2.92-.29 4-.48s2.91-.61 4-.92a14.77 14.77 0 0 1 4.12-.44 18.38 18.38 0 0 1 4.36 1 4.92 4.92 0 0 0 3.23.26A2.75 2.75 0 0 0 57 159c-.14-1.08-.27-2.78-.29-3.78a31.43 31.43 0 0 1 .17-3.5 25.69 25.69 0 0 0-.08-6.72 26.48 26.48 0 0 1-.22-3.36c0-.92.45-5.46 1-10.09s.88-9.16.8-10.09a17.45 17.45 0 0 0-.7-3.36 21.07 21.07 0 0 1-.77-3.36 19.5 19.5 0 0 1-.07-3.36c.08-.92.42-3.19.77-5a18.37 18.37 0 0 0 .32-5A12.47 12.47 0 0 0 56.62 98a9 9 0 0 1-1.09-3.36 8.26 8.26 0 0 1 .7-3.36 19.91 19.91 0 0 0 1.21-3.56 23.4 23.4 0 0 0 .43-3.94A3.48 3.48 0 0 0 56.73 81a5.37 5.37 0 0 0-3.48 0 18.63 18.63 0 0 1-4.49.67h-.23c-.31 0-.65 0-1-.08a20 20 0 0 1-1.01 2.7z" fill="url(#b)"/><path d="M27.37 50.6a5.34 5.34 0 0 1 .48 2.5 6.39 6.39 0 0 1-1 2.5 5.91 5.91 0 0 0-1 2.71 8.08 8.08 0 0 0 .72 3.11c.43.91.51 1.88.2 2.15a3.56 3.56 0 0 1-2.52-.19 13.35 13.35 0 0 0-3.72-.67 10.47 10.47 0 0 0-3.41.71 9.6 9.6 0 0 1-3.23.69 8.39 8.39 0 0 1-1.88-.3v1.02c0 1.57.18 3 .53 3.22a5 5 0 0 0 2 .58 17.7 17.7 0 0 1 2.83.53 25.85 25.85 0 0 1 3.06 1.15 9.35 9.35 0 0 0 3.19.74 9.6 9.6 0 0 0 3.23-.69 10.47 10.47 0 0 1 3.41-.71 13.35 13.35 0 0 1 3.72.67 3.56 3.56 0 0 0 2.52.19c.32-.27.23-1.24-.2-2.15a8.08 8.08 0 0 1-.72-3.11 4 4 0 0 1 .14-.83 7.09 7.09 0 0 1 .28-.94h-.05c-.37-.22-.42-1.14-.1-2a10.16 10.16 0 0 0 .52-3.1 7.24 7.24 0 0 0-.75-2.7 6 6 0 0 1-.62-2.56 5.78 5.78 0 0 1 .62-2.22 2.35 2.35 0 0 0-1-.28 5.42 5.42 0 0 0-1.35 0 13.21 13.21 0 0 1-3.21 0 13.3 13.3 0 0 1-1.8-.46c-.45-.14-.9-.3-1.27-.46.12.3.25.64.38.9z" fill="url(#f)"/><path d="M63.3 53.1a8.62 8.62 0 0 1-.9 2.5 9.93 9.93 0 0 0-1 2.48 7.71 7.71 0 0 0 0 2.45 2 2 0 0 1-.4 1.75 4 4 0 0 1-2.28.39 16.43 16.43 0 0 0-3.21.09 18.62 18.62 0 0 0-3.24.85 8.89 8.89 0 0 1-3.25.48 9.91 9.91 0 0 1-3.25-1l-.21-.09a8 8 0 0 1 .41 1.3 5.6 5.6 0 0 1 .15 1 10.16 10.16 0 0 1-.52 3.1c-.32.91-.27 1.83.1 2a4.1 4.1 0 0 0 2.61-.46A10.82 10.82 0 0 1 52 69.1a8.6 8.6 0 0 1 3.41.9 9.91 9.91 0 0 0 3.25 1 8.89 8.89 0 0 0 3.25-.48 18.62 18.62 0 0 1 3.24-.85 16.43 16.43 0 0 1 3.21-.09 4 4 0 0 0 2.28-.39 2 2 0 0 0 .46-1.75 7.71 7.71 0 0 1 0-2.45 9.93 9.93 0 0 1 1-2.48A8.62 8.62 0 0 0 73 60a13.47 13.47 0 0 0-.39-3.75c-.32-1.38-.63-3.06-.7-3.75a3 3 0 0 0-1-1.89 5.24 5.24 0 0 0-2.47-.61 25.63 25.63 0 0 0-3.25.16c-.31 0-.69.1-1.08.18l-1 .2a10.67 10.67 0 0 1 .19 2.56z" fill="url(#g)"/></svg>