<svg xmlns="http://www.w3.org/2000/svg" xmlns:xlink="http://www.w3.org/1999/xlink" width="200" height="200" viewBox="0 0 200 200"><defs><linearGradient id="a" x1="78.06" y1="149.79" x2="111.69" y2="74.25" gradientUnits="userSpaceOnUse"><stop offset="0" stop-color="#fdba56"/><stop offset="0.02" stop-color="#fbb055"/><stop offset="0.06" stop-color="#f79d54"/><stop offset="0.1" stop-color="#f59253"/><stop offset="0.15" stop-color="#f48e53"/><stop offset="0.3" stop-color="#ed5e4e"/><stop offset="0.47" stop-color="#683a96" stop-opacity="0.5"/><stop offset="0.64" stop-color="#ed872b"/><stop offset="0.79" stop-color="#7b76b6"/><stop offset="0.9" stop-color="#f15f4f"/><stop offset="1" stop-color="#fdba56"/></linearGradient><linearGradient id="b" x1="73.31" y1="61.8" x2="82.71" y2="40.68" xlink:href="#a"/><linearGradient id="c" x1="88.8" y1="43.39" x2="88.81" y2="43.39" xlink:href="#a"/><linearGradient id="d" x1="107.5" y1="64.42" x2="118.17" y2="40.46" xlink:href="#a"/><linearGradient id="e" x1="91.86" y1="88.7" x2="123.05" y2="158.76" gradientUnits="userSpaceOnUse"><stop offset="0" stop-color="#b7151b"/><stop offset="0.02" stop-color="#c52229"/><stop offset="0.06" stop-color="#d7333c"/><stop offset="0.11" stop-color="#e23d47"/><stop offset="0.15" stop-color="#e6404b"/><stop offset="0.3" stop-color="#e98a7b"/><stop offset="0.47" stop-color="#7c78b8"/><stop offset="0.64" stop-color="#00b0b0"/><stop offset="0.79" stop-color="#7b76b6"/><stop offset="1" stop-color="#e7322f"/></linearGradient><linearGradient id="f" x1="84.38" y1="51.04" x2="93.7" y2="71.96" xlink:href="#e"/><linearGradient id="g" x1="118.98" y1="52.53" x2="127.2" y2="70.99" xlink:href="#e"/></defs><title>_</title><path d="M110,73.51a4.79,4.79,0,0,0-2.68.09,20.39,20.39,0,0,1-4.78.71,16,16,0,0,1-4.5-.8,13.42,13.42,0,0,0-3.67-.68h0a13.45,13.45,0,0,0-3.63.62,16.53,16.53,0,0,1-4.49.77,20.78,20.78,0,0,1-4.77-.68,4.69,4.69,0,0,0-2.11-.17,3.37,3.37,0,0,0,.24,1.67,13.41,13.41,0,0,1,.8,4.33,10.64,10.64,0,0,1-1.06,4,9.53,9.53,0,0,0-.92,3,8.5,8.5,0,0,0,.42,2.94,20.82,20.82,0,0,1,.91,3.56,19.12,19.12,0,0,1,.11,3.58c-0.07.89-.12,2.38-0.1,3.26s0.13,2.38.24,3.26a15.64,15.64,0,0,1,0,3.64,17.57,17.57,0,0,1-1,3.6,13.25,13.25,0,0,0-.83,3.08,11.87,11.87,0,0,0,.14,3.05c0.2,1,.52,3.26.71,5.14s0.36,4.95.35,6.83,0.08,4,.19,4.92a27.82,27.82,0,0,0,.63,3.22,27.37,27.37,0,0,1,.67,3.52c0.11,1,.13,3.74.05,6.28a13.43,13.43,0,0,0,.48,4.72,6.19,6.19,0,0,0,2,1.14,20.15,20.15,0,0,0,3.3.71,25.7,25.7,0,0,0,2.88.1l0.8,0c1.08-.07,2.84-0.28,3.92-0.47s2.84-.59,3.91-0.9a15.72,15.72,0,0,1,4.46-.48,19.18,19.18,0,0,1,4.64,1,4.74,4.74,0,0,0,2.4.32,2.52,2.52,0,0,0,.22-1.52c-0.15-1.12-.28-2.87-0.3-3.9a32.44,32.44,0,0,1,.18-3.64,30,30,0,0,0,.17-3.23,30.46,30.46,0,0,0-.25-3.23,28,28,0,0,1-.23-3.51c0-1.08.5-6,1-10.19,0.55-4.89.87-9.14,0.8-9.89a16.51,16.51,0,0,0-.66-3.13,21.94,21.94,0,0,1-.82-3.56,20.23,20.23,0,0,1-.07-3.57c0.08-1,.43-3.27.78-5.14a17.79,17.79,0,0,0,.32-4.68,11.52,11.52,0,0,0-1.18-3,10,10,0,0,1-1.22-3.81,9.24,9.24,0,0,1,.8-3.85,19,19,0,0,0,.94-2.59c0.08-.27.14-0.52,0.19-0.75a22.46,22.46,0,0,0,.41-3.74A2.74,2.74,0,0,0,110,73.51Z" fill="url(#a)"/><path d="M89.57,48.66a11.45,11.45,0,0,1-.52-1.74A10.31,10.31,0,0,1,89,44.17a1.24,1.24,0,0,0-.15-0.76,3.82,3.82,0,0,0-1.6-.1,14.11,14.11,0,0,1-3.5,0,16.23,16.23,0,0,1-3.49-1.05,12.39,12.39,0,0,0-3-.83,11,11,0,0,0-2.93.15c-0.93.2-3.16,0.52-5,.72a12.07,12.07,0,0,0-3.57.83,2,2,0,0,0-.5,1.18,14,14,0,0,0,.15,2.3,15.56,15.56,0,0,0,.62,2.32,15.76,15.76,0,0,1,.69,2.7,32.9,32.9,0,0,1,0,4.59A9.11,9.11,0,0,0,67,59a4.87,4.87,0,0,0,1.41.34,18.65,18.65,0,0,1,3,.56,27,27,0,0,1,3.2,1.2,7.25,7.25,0,0,0,1.15.38,7.47,7.47,0,0,0,1.63.27h0a8.75,8.75,0,0,0,2.8-.61,11.45,11.45,0,0,1,3.8-.79,14.29,14.29,0,0,1,4.06.72,5.15,5.15,0,0,0,1.36.29,3.24,3.24,0,0,0-.27-0.88,9.08,9.08,0,0,1-.81-3.58,6.88,6.88,0,0,1,1.15-3.25,5.44,5.44,0,0,0,.86-2A4.37,4.37,0,0,0,90,49.67C89.85,49.38,89.71,49,89.57,48.66Z" fill="url(#b)"/><polygon points="88.81 43.39 88.8 43.39 88.81 43.39 88.81 43.39" fill="url(#c)"/><path d="M125.45,48.2a39.09,39.09,0,0,1-.72-3.88,2.08,2.08,0,0,0-.59-1.18,4.44,4.44,0,0,0-1.93-.5,23.41,23.41,0,0,0-3.1.15,26.06,26.06,0,0,0-3.11.63,25.87,25.87,0,0,1-3.41.67c-0.94.1-3.63,0.18-6.16,0.17a22.77,22.77,0,0,0-4.53.32,1.07,1.07,0,0,0-.23.55,8.4,8.4,0,0,1-.44,2.26,16,16,0,0,1-1.17,2.44L100,50a4.88,4.88,0,0,0-.51,1.77,5.06,5.06,0,0,0,.56,2,8.13,8.13,0,0,1,.88,3.15,11.12,11.12,0,0,1-.57,3.47,2.61,2.61,0,0,0-.16.8,6.18,6.18,0,0,0,1.52-.46,11.84,11.84,0,0,1,4.09-.93h0a9.59,9.59,0,0,1,3.68.93l0.21,0.1a9,9,0,0,0,2.85.9,7.82,7.82,0,0,0,2.81-.42,19.59,19.59,0,0,1,3.45-.9,17.53,17.53,0,0,1,3.44-.09,3.44,3.44,0,0,0,1.59-.19,1.5,1.5,0,0,0,.07-0.76,8.76,8.76,0,0,1,0-2.83A10.93,10.93,0,0,1,125,53.73h0a7.63,7.63,0,0,0,.78-2.15,10,10,0,0,0-.17-2.3C125.6,48.91,125.53,48.55,125.45,48.2Z" fill="url(#d)"/><path d="M110,82.91a8.26,8.26,0,0,0-.7,3.36,9,9,0,0,0,1.09,3.36,12.47,12.47,0,0,1,1.3,3.36,18.37,18.37,0,0,1-.32,5c-0.34,1.85-.69,4.12-0.77,5a19.5,19.5,0,0,0,.07,3.36,21.07,21.07,0,0,0,.77,3.36,17.45,17.45,0,0,1,.7,3.36c0.08,0.92-.28,5.46-0.8,10.09s-1,9.16-1,10.09a26.48,26.48,0,0,0,.22,3.36,25.69,25.69,0,0,1,.08,6.72,31.43,31.43,0,0,0-.17,3.5c0,1,.15,2.71.29,3.78a2.75,2.75,0,0,1-.73,2.53,4.92,4.92,0,0,1-3.23-.26,18.38,18.38,0,0,0-4.36-1,14.77,14.77,0,0,0-4.12.44c-1.1.31-2.91,0.73-4,.92s-2.92.41-4,.48l-0.85,0c0,0.34,0,.67,0,1a8.2,8.2,0,0,0,.68,3.62A6.87,6.87,0,0,0,92.72,160a21.21,21.21,0,0,0,3.5.75,26.58,26.58,0,0,0,3.86.08c1.11-.07,2.92-0.29,4-0.48s2.91-.61,4-0.92a14.77,14.77,0,0,1,4.12-.44,18.38,18.38,0,0,1,4.36,1,4.92,4.92,0,0,0,3.23.26,2.75,2.75,0,0,0,.73-2.53c-0.14-1.08-.27-2.78-0.29-3.78a31.43,31.43,0,0,1,.17-3.5,25.69,25.69,0,0,0-.08-6.72,26.48,26.48,0,0,1-.22-3.36c0-.92.45-5.46,1-10.09s0.88-9.16.8-10.09a17.45,17.45,0,0,0-.7-3.36,21.07,21.07,0,0,1-.77-3.36,19.5,19.5,0,0,1-.07-3.36c0.08-.92.42-3.19,0.77-5a18.37,18.37,0,0,0,.32-5,12.47,12.47,0,0,0-1.3-3.36A9,9,0,0,1,119,93.22a8.26,8.26,0,0,1,.7-3.36A19.91,19.91,0,0,0,121,86.3a23.4,23.4,0,0,0,.43-3.94,3.48,3.48,0,0,0-1.13-2.76,5.37,5.37,0,0,0-3.48,0,18.63,18.63,0,0,1-4.49.67H112c-0.31,0-.65,0-1-0.08A20,20,0,0,1,110,82.91Z" fill="url(#e)"/><path d="M90.89,49.22a5.34,5.34,0,0,1,.48,2.5,6.39,6.39,0,0,1-1,2.5,5.91,5.91,0,0,0-1,2.71A8.08,8.08,0,0,0,90.09,60c0.43,0.91.51,1.88,0.2,2.15A3.56,3.56,0,0,1,87.76,62,13.35,13.35,0,0,0,84,61.34a10.47,10.47,0,0,0-3.41.71,9.6,9.6,0,0,1-3.23.69,8.39,8.39,0,0,1-1.88-.3c0,0.21,0,.42,0,0.62s0,0.26,0,.4c0,1.57.18,3,.53,3.22a5,5,0,0,0,2,.58,17.7,17.7,0,0,1,2.83.53,25.85,25.85,0,0,1,3.06,1.15,9.35,9.35,0,0,0,3.19.74A9.6,9.6,0,0,0,90.34,69a10.47,10.47,0,0,1,3.41-.71,13.35,13.35,0,0,1,3.72.67,3.56,3.56,0,0,0,2.52.19c0.32-.27.23-1.24-0.2-2.15a8.08,8.08,0,0,1-.72-3.11A4,4,0,0,1,99.23,63a7.09,7.09,0,0,1,.32-0.94l-0.05,0c-0.37-.22-0.42-1.14-0.1-2a10.16,10.16,0,0,0,.52-3.1,7.24,7.24,0,0,0-.75-2.7,6,6,0,0,1-.68-2.48,5.78,5.78,0,0,1,.62-2.22h0a2.35,2.35,0,0,0-1-.28,5.42,5.42,0,0,0-1.35,0,10.64,10.64,0,0,1-5-.48c-0.45-.14-0.9-0.3-1.27-0.46C90.63,48.65,90.76,49,90.89,49.22Z" fill="url(#f)"/><path d="M126.82,51.73a8.62,8.62,0,0,1-.9,2.5,9.93,9.93,0,0,0-1,2.48,7.71,7.71,0,0,0,0,2.45,2,2,0,0,1-.46,1.75,4,4,0,0,1-2.28.39,16.43,16.43,0,0,0-3.21.09,18.62,18.62,0,0,0-3.24.85,8.89,8.89,0,0,1-3.25.48,9.91,9.91,0,0,1-3.25-1l-0.17-.08a8,8,0,0,1,.41,1.3,5.6,5.6,0,0,1,.15,1,10.16,10.16,0,0,1-.52,3.1c-0.32.91-.27,1.83,0.1,2a4.1,4.1,0,0,0,2.61-.46,10.82,10.82,0,0,1,3.72-.85,8.6,8.6,0,0,1,3.41.9,9.91,9.91,0,0,0,3.25,1,8.89,8.89,0,0,0,3.25-.48,18.62,18.62,0,0,1,3.24-.85,16.43,16.43,0,0,1,3.21-.09,4,4,0,0,0,2.28-.39,2,2,0,0,0,.46-1.75,7.71,7.71,0,0,1,0-2.45,9.93,9.93,0,0,1,1-2.48,8.62,8.62,0,0,0,.9-2.5,13.47,13.47,0,0,0-.39-3.75c-0.32-1.38-.63-3.06-0.7-3.75a3,3,0,0,0-1-1.89,5.24,5.24,0,0,0-2.49-.69,25.63,25.63,0,0,0-3.25.16c-0.31,0-.69.1-1.08,0.18l-1,.2A10.67,10.67,0,0,1,126.82,51.73Z" fill="url(#g)"/></svg>