<svg xmlns="http://www.w3.org/2000/svg" xmlns:xlink="http://www.w3.org/1999/xlink" width="200" height="200" viewBox="0 0 200 200"><defs><linearGradient id="a" x1="74.5" y1="152.24" x2="122.41" y2="44.63" gradientUnits="userSpaceOnUse"><stop offset="0" stop-color="#fdba56"/><stop offset="0.02" stop-color="#fbb055"/><stop offset="0.06" stop-color="#f79d54"/><stop offset="0.1" stop-color="#f59253"/><stop offset="0.15" stop-color="#f48e53"/><stop offset="0.3" stop-color="#ed5e4e"/><stop offset="0.47" stop-color="#683a96" stop-opacity="0.5"/><stop offset="0.64" stop-color="#ed872b"/><stop offset="0.79" stop-color="#7b76b6"/><stop offset="0.9" stop-color="#f15f4f"/><stop offset="1" stop-color="#fdba56"/></linearGradient><linearGradient id="b" x1="80.51" y1="66.56" x2="82.94" y2="72.02" gradientUnits="userSpaceOnUse"><stop offset="0" stop-color="#b7151b"/><stop offset="0.02" stop-color="#c52229"/><stop offset="0.06" stop-color="#d7333c"/><stop offset="0.11" stop-color="#e23d47"/><stop offset="0.15" stop-color="#e6404b"/><stop offset="0.3" stop-color="#e98a7b"/><stop offset="0.47" stop-color="#7c78b8"/><stop offset="0.64" stop-color="#00b0b0"/><stop offset="0.79" stop-color="#7b76b6"/><stop offset="1" stop-color="#e7322f"/></linearGradient><linearGradient id="c" x1="98.76" y1="45.79" x2="99.59" y2="47.66" xlink:href="#b"/><linearGradient id="d" x1="81.74" y1="62" x2="125.12" y2="159.43" xlink:href="#b"/></defs><title>_</title><path d="M63.33,82.4C62.73,83,60,87.13,57.07,92c-2.71,4.45-5.62,9.59-6.36,11.22a14.56,14.56,0,0,0-1.27,4.27,9.7,9.7,0,0,0,.64,2.92,11.44,11.44,0,0,1,.79,3.68,10.55,10.55,0,0,1-.76,3.61,19.52,19.52,0,0,0-1,3,18,18,0,0,0-.32,3,7.16,7.16,0,0,0,.59,2.6,8.83,8.83,0,0,0,1.83,2.26,15.14,15.14,0,0,1,2.59,3,18.36,18.36,0,0,1,1.69,3.82,17.18,17.18,0,0,0,1.54,3.44,16.88,16.88,0,0,0,2.41,2.87,35.61,35.61,0,0,0,3.1,2.46,35.39,35.39,0,0,0,3.41,2c0.47,0.24,1.08.58,1.73,1s1.46,0.89,2,1.25a41.28,41.28,0,0,1,3.48,2.8,9.42,9.42,0,0,0,2.92,1.77,6,6,0,0,0,2.81,0,9.21,9.21,0,0,1,2.51-.33,6.47,6.47,0,0,1,1.23.1A9,9,0,0,1,86,154.32a9.45,9.45,0,0,0,2.52,1.43,31.61,31.61,0,0,0,7.17-.58c3.07-.5,6.84-1,7.84-1.05,0.8,0,2.85-.22,4.47-0.45a27.15,27.15,0,0,0,4.53-1,34.85,34.85,0,0,0,3.43-1.59,34.08,34.08,0,0,0,3.4-2.17,68.83,68.83,0,0,0,5.69-5.59c2.28-2.45,5.19-5.88,6.49-7.65a35.85,35.85,0,0,0,3-4.69,15.71,15.71,0,0,0,.91-3c0.15-.91.49-2.36,0.74-3.24s0.75-2.31,1.1-3.17,1-2.91,1.53-4.62a19.11,19.11,0,0,0,.83-4.5,12.83,12.83,0,0,0-.6-3,31.25,31.25,0,0,1-1-3.43c-0.19-.94-0.59-3.92-0.9-6.64a28,28,0,0,0-1.14-5.91,11.22,11.22,0,0,0-1.67-2.27,17.16,17.16,0,0,1-3.74-5.6,10.74,10.74,0,0,0-1.48-2.39,11.49,11.49,0,0,0-2.25-1.86A11.69,11.69,0,0,1,124.2,79a12.77,12.77,0,0,1-1.73-3.3,13.66,13.66,0,0,0-1.39-2.85,12.75,12.75,0,0,0-2.1-2.26,17.15,17.15,0,0,1-2.38-2.35,10.28,10.28,0,0,1-1.42-2.54,12.26,12.26,0,0,0-.91-1.94A12.08,12.08,0,0,0,113,62c-0.43-.45-1.19-1.17-1.67-1.57S110,59.41,109.41,59a41,41,0,0,1-3.53-3c-0.44-.41-2.66-2.53-2.71-3.76a1.74,1.74,0,0,1,.09-0.58,3,3,0,0,1,1.6-1.8,25.25,25.25,0,0,1,2.39-1,37.77,37.77,0,0,1,4.68-.86,27.2,27.2,0,0,0,4.08-.78,6.51,6.51,0,0,0,1.48-.93,9.44,9.44,0,0,0,1.09-1.16,2.86,2.86,0,0,0,.38-0.76,0.44,0.44,0,0,0,0-.11,0.75,0.75,0,0,0-.18-0.08,12.09,12.09,0,0,1-1.19-.37,10.36,10.36,0,0,1-1.08-.5,4.56,4.56,0,0,1-1.12-.92,7.14,7.14,0,0,1-.84-1.31,0.41,0.41,0,0,0-.17-0.13,3.83,3.83,0,0,0-1.11.41,11.94,11.94,0,0,0-1.71,1.21,12.26,12.26,0,0,0-1.43,1.57A7.19,7.19,0,0,1,108.19,46a6.61,6.61,0,0,1-2.47.71,11.5,11.5,0,0,0-2,.32,11,11,0,0,0-1.79.72,5,5,0,0,1-1,.37,3.56,3.56,0,0,1-3.58-.73l-0.36-.27a7.14,7.14,0,0,0-1-.6,7.51,7.51,0,0,0-1.59-.46,4.14,4.14,0,0,1-2.19-1.11,5.6,5.6,0,0,1-1.12-2.32,4.78,4.78,0,0,0-.67-1.54,3.33,3.33,0,0,0-1.13-.82,1.91,1.91,0,0,0-1.14,0,5.37,5.37,0,0,0-1.49,1.32,6.68,6.68,0,0,1-2.61,2,7,7,0,0,1-3.3.16,11.82,11.82,0,0,0-2.61-.2,8.42,8.42,0,0,0-2.21.53c-0.6.26-2.16,1.07-3.41,1.77a10,10,0,0,0-1.88,1.33,1.13,1.13,0,0,0,.28.3,7.53,7.53,0,0,1,1.67,1.76,7.06,7.06,0,0,1,.84,2.24A5.29,5.29,0,0,0,74,52.9a2.94,2.94,0,0,0,.76.79c0.34,0.21.91,0.52,1.25,0.68s0.9,0.39,1.24.5a1.75,1.75,0,0,1,1.29,1.77,3.83,3.83,0,0,1-1.18,1.82,7.75,7.75,0,0,1-2.08,1.29,8.51,8.51,0,0,1-2.46.48,5.93,5.93,0,0,0-1.75.38,5.82,5.82,0,0,0-1.46,1,12.2,12.2,0,0,1-1.89,1.54,9.93,9.93,0,0,1-1.14.6,2.94,2.94,0,0,1,.16,1.48,11.66,11.66,0,0,0-.11,1.25c0,0.12,0,.27,0,0.43a4.3,4.3,0,0,1,1.6-.56,7.77,7.77,0,0,1,2.24.17,5,5,0,0,0,1.66,0,17.55,17.55,0,0,0,3.33-1.94,14.52,14.52,0,0,1,4.23-2.21,8.08,8.08,0,0,1,2.71.23,11.86,11.86,0,0,0,1.87.35A2.22,2.22,0,0,0,85,62.94a2.42,2.42,0,0,1,1.56-.25,2.9,2.9,0,0,1,1,.46,3.4,3.4,0,0,1,.42.33,12.87,12.87,0,0,1,.94,1,12.2,12.2,0,0,1,.79,1.14,4.61,4.61,0,0,1,.64,2.94,2.83,2.83,0,0,1-1.49,1.88,13.12,13.12,0,0,1-2.92.95c-0.94.19-2.44,0.57-3.35,0.85s-3.94,1.49-6.66,2.66l-0.09,0a77.32,77.32,0,0,0-8.11,4.12A27.39,27.39,0,0,0,63.33,82.4Z" fill="url(#a)"/><path d="M75.35,74.09L75.52,74c2.79-1.21,5.84-2.42,6.77-2.7s2.48-.67,3.44-0.87a12.22,12.22,0,0,0,2.65-.85,1.9,1.9,0,0,0,1-1.11,3.61,3.61,0,0,0-.51-2.32,11.16,11.16,0,0,0-.71-1,11.48,11.48,0,0,0-.85-0.93A2.38,2.38,0,0,0,87,64a4.18,4.18,0,0,1-.6.68l-0.08.07a6.87,6.87,0,0,1-1.68,1,7.65,7.65,0,0,1-2.12.41,5.46,5.46,0,0,0-3.9,1.71,11.25,11.25,0,0,1-1.7,1.39,9.86,9.86,0,0,1-1.91.89,7,7,0,0,0-1.17.45c-0.09.07,0.14,0.1,0.51,0.07a1.26,1.26,0,0,1,1,.28A1.64,1.64,0,0,1,75.45,72c0,0.27-.08.63-0.1,1,0,0.16,0,.32,0,0.44S75.33,73.86,75.35,74.09Z" fill="url(#b)"/><path d="M99.68,47.31a3.32,3.32,0,0,0,1-.16,4.33,4.33,0,0,0-1.32-.88,2.89,2.89,0,0,0-1.77,0c0.16,0.11.31,0.22,0.43,0.33A3.35,3.35,0,0,0,99.68,47.31Z" fill="url(#c)"/><path d="M148.81,112.78c-0.19-.91-0.58-3.86-0.88-6.55a27.85,27.85,0,0,0-1.25-6.26,12.22,12.22,0,0,0-1.85-2.51,16.21,16.21,0,0,1-3.53-5.28,11.61,11.61,0,0,0-1.65-2.67,12.56,12.56,0,0,0-2.49-2.05,10.71,10.71,0,0,1-2.46-2.16,11.79,11.79,0,0,1-1.56-3,14.65,14.65,0,0,0-1.51-3.1,13.76,13.76,0,0,0-2.3-2.47,16.48,16.48,0,0,1-2.22-2.19,9.3,9.3,0,0,1-1.26-2.24,10.87,10.87,0,0,0-2.42-4c-0.45-.48-1.24-1.22-1.76-1.65s-1.4-1.09-2-1.48a40.42,40.42,0,0,1-3.4-2.88c-1.3-1.2-2.37-2.59-2.39-3.07A1.84,1.84,0,0,1,115,57.77a23.92,23.92,0,0,1,2.28-.92,37,37,0,0,1,4.49-.82,27.07,27.07,0,0,0,4.34-.85,7.5,7.5,0,0,0,1.76-1.1,10.27,10.27,0,0,0,1.24-1.32,3.65,3.65,0,0,0,.55-1.15,1.34,1.34,0,0,0-.13-0.87,1.55,1.55,0,0,0-.8-0.48,11.25,11.25,0,0,1-1.07-.33,9.46,9.46,0,0,1-1-.44,3.61,3.61,0,0,1-.84-0.7,6.18,6.18,0,0,1-.7-1.1,1.32,1.32,0,0,0-1-.69,4,4,0,0,0-1.69.53,13,13,0,0,0-1.88,1.33A13.42,13.42,0,0,0,119,50.59a6.24,6.24,0,0,1-1.63,1.47,5.68,5.68,0,0,1-2,.58,12.54,12.54,0,0,0-2.17.36,11.8,11.8,0,0,0-2,.8,4,4,0,0,1-1.81.45,3.35,3.35,0,0,1-1.61-.69,8.31,8.31,0,0,0-1.63-1,7.37,7.37,0,0,0-.94-0.33A7.63,7.63,0,0,0,104.3,52l-0.07,0a0.92,0.92,0,0,0-.05.27c0,0.49,1.1,1.87,2.39,3.07a40.42,40.42,0,0,0,3.4,2.88c0.57,0.38,1.47,1,2,1.48s1.3,1.17,1.76,1.65a10.87,10.87,0,0,1,2.42,4,9.3,9.3,0,0,0,1.26,2.24,16.48,16.48,0,0,0,2.22,2.19,13.76,13.76,0,0,1,2.3,2.47,14.65,14.65,0,0,1,1.51,3.1,11.79,11.79,0,0,0,1.56,3,10.71,10.71,0,0,0,2.46,2.16,12.56,12.56,0,0,1,2.49,2.05,11.61,11.61,0,0,1,1.65,2.67,16.21,16.21,0,0,0,3.53,5.28A12.22,12.22,0,0,1,137,93a27.85,27.85,0,0,1,1.25,6.26c0.3,2.69.7,5.64,0.88,6.55a30.26,30.26,0,0,0,.92,3.3,13.83,13.83,0,0,1,.65,3.27,19.7,19.7,0,0,1-.87,4.83c-0.52,1.76-1.22,3.88-1.57,4.72s-0.82,2.22-1.07,3.07-0.57,2.26-.72,3.13a16.53,16.53,0,0,1-1,3.21,36.66,36.66,0,0,1-3.11,4.88c-1.32,1.79-4.27,5.27-6.56,7.73a69.45,69.45,0,0,1-5.83,5.71,34.9,34.9,0,0,1-3.52,2.25,36.1,36.1,0,0,1-3.55,1.65,28.09,28.09,0,0,1-4.74,1.08c-1.68.24-3.75,0.45-4.59,0.46s-4.31.48-7.7,1-6.82.8-7.63,0.54a10.35,10.35,0,0,1-2.85-1.61,8,8,0,0,0-2.92-1.46,7.94,7.94,0,0,0-3.25.21,7,7,0,0,1-3.38,0,10.31,10.31,0,0,1-3.31-2,39.54,39.54,0,0,0-3.38-2.71c-0.51-.36-1.22-0.8-1.92-1.21a15.74,15.74,0,0,0,1.31,1.39A29.83,29.83,0,0,0,75.25,154c0.54,0.27,1.25.67,1.93,1.08s1.2,0.74,1.65,1.05a39.54,39.54,0,0,1,3.38,2.71,10.31,10.31,0,0,0,3.31,2,7,7,0,0,0,3.38,0A6.28,6.28,0,0,1,95.07,162a10.35,10.35,0,0,0,2.85,1.61c0.81,0.26,4.25,0,7.63-.54s6.85-1,7.7-1,2.91-.22,4.59-0.46a28.09,28.09,0,0,0,4.74-1.08,36.1,36.1,0,0,0,3.55-1.65,34.9,34.9,0,0,0,3.52-2.25,69.45,69.45,0,0,0,5.83-5.71c2.29-2.46,5.24-5.94,6.56-7.73a36.66,36.66,0,0,0,3.11-4.88,16.53,16.53,0,0,0,1-3.21c0.15-.87.47-2.28,0.72-3.13s0.73-2.23,1.07-3.07,1-3,1.57-4.72a19.7,19.7,0,0,0,.87-4.83,13.83,13.83,0,0,0-.65-3.27A30.26,30.26,0,0,1,148.81,112.78Z" fill="url(#d)"/></svg>