<svg xmlns="http://www.w3.org/2000/svg" xmlns:xlink="http://www.w3.org/1999/xlink" width="200" height="200" viewBox="0 0 200 200"><defs><linearGradient id="a" x1="72.89" y1="160.62" x2="113.15" y2="70.19" gradientUnits="userSpaceOnUse"><stop offset="0" stop-color="#fdba56"/><stop offset=".02" stop-color="#fbb055"/><stop offset=".06" stop-color="#f79d54"/><stop offset=".1" stop-color="#f59253"/><stop offset=".15" stop-color="#f48e53"/><stop offset=".3" stop-color="#ed5e4e"/><stop offset=".47" stop-color="#683a96" stop-opacity=".5"/><stop offset=".64" stop-color="#ed872b"/><stop offset=".79" stop-color="#7b76b6"/><stop offset=".9" stop-color="#f15f4f"/><stop offset="1" stop-color="#fdba56"/></linearGradient><linearGradient id="c" x1="87.39" y1="70.42" x2="104.13" y2="32.82" xlink:href="#a"/><linearGradient id="b" x1="113.53" y1="85.89" x2="146.92" y2="160.88" gradientUnits="userSpaceOnUse"><stop offset="0" stop-color="#b7151b"/><stop offset=".02" stop-color="#c52229"/><stop offset=".06" stop-color="#d7333c"/><stop offset=".11" stop-color="#e23d47"/><stop offset=".15" stop-color="#e6404b"/><stop offset=".3" stop-color="#e98a7b"/><stop offset=".47" stop-color="#7c78b8"/><stop offset=".64" stop-color="#00b0b0"/><stop offset=".79" stop-color="#7b76b6"/><stop offset="1" stop-color="#e7322f"/></linearGradient><linearGradient id="d" x1="71.12" y1="105.4" x2="94.79" y2="158.57" xlink:href="#b"/><linearGradient id="e" x1="80.71" y1="77.94" x2="83.53" y2="84.28" xlink:href="#b"/><linearGradient id="f" x1="99.96" y1="46.7" x2="111.91" y2="73.54" xlink:href="#b"/></defs><title>_</title><path d="M105.53 102.22a4.8 4.8 0 0 1 2.05 2.68 5.72 5.72 0 0 1-.73 3.41 12.45 12.45 0 0 0-1.11 3.3 86 86 0 0 0-.09 9.9c.14 4.39.39 9.13.57 10.58s.59 3.79.92 5.23a49.18 49.18 0 0 1 .89 5.41 44.13 44.13 0 0 1 .12 5.3 7.1 7.1 0 0 0 .57 3.27 2.86 2.86 0 0 0 1.91 1 34.11 34.11 0 0 0 3.64-.05c.62 0 1.55-.16 2.47-.3l1.33-.23a18.25 18.25 0 0 1 3.24-.28h1a19.16 19.16 0 0 1 4.27 1 24.52 24.52 0 0 0 3.89 1 25.25 25.25 0 0 0 4.06.22 4.39 4.39 0 0 0 2.27-.67 2.36 2.36 0 0 0 0-1.68 18.54 18.54 0 0 1-.73-3.59 37 37 0 0 1 .72-6.41 29 29 0 0 0 .61-5.72 12.54 12.54 0 0 0-.82-2.75 11.06 11.06 0 0 1-.84-3.38 28.33 28.33 0 0 1 1.46-6.46 39 39 0 0 0 1.41-5.8 16.12 16.12 0 0 0-.18-2.81 23.06 23.06 0 0 1-.28-3.19 23.46 23.46 0 0 1 .25-3.19c.13-.78.27-3.08.3-5a41.17 41.17 0 0 0-.22-5.35 33.31 33.31 0 0 0-.83-3.61 27.17 27.17 0 0 0-1.27-3.28c-.4-.82-1.93-3.26-3.34-5.34-1.56-2.29-3.1-4.36-3.56-4.86-.09-.1-.34-.35-1-.93-.93-.83-2.19-1.9-3.39-2.86a40 40 0 0 0-4.75-3.39 16.94 16.94 0 0 0-3-1c-.93-.21-3.31-.59-5.19-.84a43 43 0 0 0-5.33-.41c-1 0-2.83.17-4 .32a19.12 19.12 0 0 0-3.72.94 77.39 77.39 0 0 0-9.22 7l-.72.6-1.67 1.38c-2.92 2.4-6.58 5.29-7.46 5.48a1.8 1.8 0 0 1-1.48-.33 2.21 2.21 0 0 1-.84-1.62 12.54 12.54 0 0 1 .09-2.53 7.71 7.71 0 0 1 .73-2.14 11.7 11.7 0 0 0 .65-1.43 9.6 9.6 0 0 0 .28-1c0-.14.06-.28.08-.39a3 3 0 0 0 0-.77 21.54 21.54 0 0 0-2.94-2.12 23.49 23.49 0 0 0-4.61-2.32 85.9 85.9 0 0 0-11-.08c-5.21.18-9 .76-9.87 1.13-.33.92-.74 4.89-.71 10.37l.19 11.14c0 5.83.24 10.73.4 11.48a18.13 18.13 0 0 0 1.07 3.15 11.83 11.83 0 0 1 1 3.73 11.23 11.23 0 0 1-.58 3.76 11.17 11.17 0 0 0-.57 3 11 11 0 0 0 .5 3 17.87 17.87 0 0 1 .77 3.6 44.82 44.82 0 0 1-.64 7c-.43 2.81-1.16 6.62-1.63 8.5a25.26 25.26 0 0 0-.77 4.73 11.43 11.43 0 0 0 .54 2.9 3.64 3.64 0 0 0 1.31 1.69 5.24 5.24 0 0 0 2.55.26 33.51 33.51 0 0 1 4-.3H59c1.68.06 6.66.43 11.59.87l.83.07c5.39.48 9.33.24 10.16-.12a6.63 6.63 0 0 0 .52-3.26c-.12-1.5-.64-5-1.15-7.9a79.57 79.57 0 0 1-1.09-7.93 37.49 37.49 0 0 1 .23-5.31c.17-1.35.21-6.67.07-11.61-.12-4.57-.13-10 .07-11.06a19.06 19.06 0 0 1 1-3.35 5.75 5.75 0 0 1 5.3-3.75 10.31 10.31 0 0 0 5.32-1.78 10.66 10.66 0 0 1 3.06-1.36 10 10 0 0 1 3.3-.08 6.84 6.84 0 0 1 2.9 1.25 5.55 5.55 0 0 1 1.55 2.59 6.43 6.43 0 0 0 1 2 9 9 0 0 0 1.57 1.43z" fill="url(#a)"/><path d="M123.49 42a27.62 27.62 0 0 0-2.6 1 3.66 3.66 0 0 1-2.22.31 4.94 4.94 0 0 1-2-1.16 5.52 5.52 0 0 0-1.27-.88 3.31 3.31 0 0 0-1.19-.22.79.79 0 0 0-.4.16 3.31 3.31 0 0 0 0 .91 4.86 4.86 0 0 1-.22 2.32 3.51 3.51 0 0 1-1.59 1.63 11.81 11.81 0 0 1-1.75.64 11 11 0 0 1-1.81.29 8.45 8.45 0 0 0-1.55.3 16.6 16.6 0 0 0-1.94.78 5.19 5.19 0 0 1-2.84.42c-1.08-.2-3.53-2.09-4.67-3.06a27.06 27.06 0 0 0-4-2.92 8.59 8.59 0 0 0-2.06-.47c-.71-.05-1.9-.21-2.64-.34s-2-.42-2.72-.63a11.86 11.86 0 0 0-2.79-.29 24.85 24.85 0 0 0-3.72.51 16.75 16.75 0 0 0-3.68 1.37 14.94 14.94 0 0 0-3 2.31A19.92 19.92 0 0 0 70.59 48 50.44 50.44 0 0 0 68 55.24c-.83 2.85-1.36 5-1.5 5.89a6.59 6.59 0 0 1 .69 0 5 5 0 0 1 .68 0 7.15 7.15 0 0 1 1.79.55 6.78 6.78 0 0 0 1.28.43 5.7 5.7 0 0 0 1.25.07c.46 0 1.53-.05 2.45 0a5 5 0 0 0 1.5-.19h.1a3.12 3.12 0 0 0 .63-.99c.17-.42.57-1.63.89-2.79a8 8 0 0 1 1.56-3.13 6.83 6.83 0 0 1 2.37-1.29 10.56 10.56 0 0 1 3.1-.33 18.26 18.26 0 0 1 3.55.67c1 .31 2.46.82 3.2 1.13a23.13 23.13 0 0 1 3.9 2.58c1.37 1.09 2.75 2.1 3.13 2.33a11 11 0 0 0 1.64.76 3.59 3.59 0 0 0 1.42.11 5.33 5.33 0 0 0 1.59-.71 6.79 6.79 0 0 1 3.13-.93 18.16 18.16 0 0 1 4.12.52 10.26 10.26 0 0 0 3.66.16 8 8 0 0 0 2.95-1.49 28.74 28.74 0 0 0 2.69-2.74 28.67 28.67 0 0 0 2.2-3.14 22.61 22.61 0 0 0 1.61-3.62c.17-.52.37-1.29.55-2.11s.33-1.59.41-2.19a10.84 10.84 0 0 0 0-2.86 2 2 0 0 0-1.05.07z" fill="url(#c)"/><path d="M149.42 110a41.61 41.61 0 0 0-.23-5.53 34.06 34.06 0 0 0-.86-3.74 28.11 28.11 0 0 0-1.33-3.44c-.42-.87-2-3.32-3.42-5.46s-3.1-4.38-3.64-5-2.56-2.35-4.49-3.89c-1.27-1-2.66-2-3.69-2.74a12.17 12.17 0 0 0-1.25-.77 13.83 13.83 0 0 0-1.34-.54c.49.43.86.79 1.06 1 .54.59 2.18 2.83 3.64 5s3 4.6 3.42 5.46a28.11 28.11 0 0 1 1.32 3.43 34.06 34.06 0 0 1 .86 3.74 41.61 41.61 0 0 1 .23 5.53 51.17 51.17 0 0 1-.31 5.15 18.27 18.27 0 0 0 0 6 17.07 17.07 0 0 1 .19 3 39 39 0 0 1-1.46 6 28.06 28.06 0 0 0-1.31 6 10.07 10.07 0 0 0 .76 3 13.58 13.58 0 0 1 .9 3 29 29 0 0 1-.62 6 36.23 36.23 0 0 0-.71 6.16 17.72 17.72 0 0 0 .68 3.36 3.11 3.11 0 0 1-.25 2.65 5 5 0 0 1-3 1 26 26 0 0 1-4.26-.23 25.38 25.38 0 0 1-4.09-1.07 18.4 18.4 0 0 0-4-.92 17.15 17.15 0 0 0-4 .23c-.39.08-.88.16-1.38.24v2a7.89 7.89 0 0 0 .73 3.87 3.8 3.8 0 0 0 2.7 1.42 34.84 34.84 0 0 0 3.77-.06c1.06-.08 2.82-.33 3.92-.55a17.15 17.15 0 0 1 4-.23 18.4 18.4 0 0 1 4 .92 25.38 25.38 0 0 0 4.09 1.07 26 26 0 0 0 4.26.23 5 5 0 0 0 3-1 3.11 3.11 0 0 0 .25-2.65 17.72 17.72 0 0 1-.68-3.36 36.23 36.23 0 0 1 .71-6.16 29 29 0 0 0 .62-6 13.58 13.58 0 0 0-.9-3 10.07 10.07 0 0 1-.76-3 28.06 28.06 0 0 1 1.31-6 39 39 0 0 0 1.46-6 17.07 17.07 0 0 0-.19-3 18.27 18.27 0 0 1 0-6 51.17 51.17 0 0 0 .29-5.12z" fill="url(#b)"/><path d="M102.81 101.15a7.44 7.44 0 0 1-1.15-2.36 4.58 4.58 0 0 0-1.22-2.07 5.91 5.91 0 0 0-2.41-1 9 9 0 0 0-2.91.07A9.66 9.66 0 0 0 92.38 97a11.29 11.29 0 0 1-5.82 2 4.75 4.75 0 0 0-4.43 3.14 18.18 18.18 0 0 0-.92 3.15c-.16.92-.19 5.8 0 10.86s.1 10.35-.08 11.76a36.4 36.4 0 0 0-.22 5.14c.06 1.41.53 4.93 1.05 7.8s1 6.48 1.16 8a7 7 0 0 1-.79 4c-.56.71-5.49.89-11 .41l-.83-.07c-5-.44-9.89-.81-11.53-.86-.05.38-.08.71-.1 1s0 .3 0 .42a12.46 12.46 0 0 0 .6 3.21 4.57 4.57 0 0 0 1.8 2.23 6.17 6.17 0 0 0 3.16.36 32.47 32.47 0 0 1 3.88-.29c1.08 0 6.44.39 11.92.87l.77.03c5.48.48 10.42.3 11-.41a7 7 0 0 0 .79-4c-.12-1.52-.65-5.12-1.16-8s-1-6.39-1.05-7.8a36.4 36.4 0 0 1 .22-5.14c.18-1.41.22-6.71.08-11.76s-.12-9.94 0-10.86a18.18 18.18 0 0 1 .92-3.15 4.75 4.75 0 0 1 4.43-3.14 11.29 11.29 0 0 0 5.82-2 10.38 10.38 0 0 1 2.49-1.14 9.84 9.84 0 0 1-1.73-1.61z" fill="url(#d)"/><path d="M80.23 79.14a12.7 12.7 0 0 1-.72 1.58 6.8 6.8 0 0 0-.61 1.82 11.61 11.61 0 0 0-.08 2.29 1 1 0 0 0 1.12 1.05c.49-.1 3.49-2.37 7-5.27l-.94-.55a21.06 21.06 0 0 0-4-1.89 3.92 3.92 0 0 0-.52-.08l-1-.07a10.6 10.6 0 0 1-.25 1.12z" fill="url(#e)"/><path d="M125.12 47.2c-.18.82-.39 1.62-.58 2.2a23.44 23.44 0 0 1-1.7 3.81 29.63 29.63 0 0 1-2.3 3.27 29.74 29.74 0 0 1-2.8 2.86 8.93 8.93 0 0 1-3.4 1.71 11.11 11.11 0 0 1-4.1-.17 16.72 16.72 0 0 0-3.83-.49 5.87 5.87 0 0 0-2.61.76 6.23 6.23 0 0 1-2 .87 4.51 4.51 0 0 1-1.93-.14 11.92 11.92 0 0 1-1.8-.88c-.48-.28-1.94-1.37-3.25-2.41a22.23 22.23 0 0 0-3.67-2.44c-.71-.3-2.1-.8-3.1-1.1a17.42 17.42 0 0 0-3.32-.63 9.61 9.61 0 0 0-2.75.28 5.9 5.9 0 0 0-2 1.06 7.24 7.24 0 0 0-1.28 2.67c-.3 1.09-.72 2.4-.93 2.9a3.79 3.79 0 0 1-1 1.36 1.32 1.32 0 0 1-.34.16L76.17 64a27.51 27.51 0 0 0-1 4.41.7.7 0 0 0 .81.69 5 5 0 0 1 1.46 0 6.28 6.28 0 0 1 1.5.46 7.81 7.81 0 0 0 1.52.51 6.69 6.69 0 0 0 1.52.09h2.35a4.58 4.58 0 0 0 2.19-.41 3.79 3.79 0 0 0 1-1.36c.21-.51.63-1.81.93-2.9a7.24 7.24 0 0 1 1.28-2.67 5.9 5.9 0 0 1 2-1.06 9.61 9.61 0 0 1 2.75-.28 17.42 17.42 0 0 1 3.32.63h.08c.88.27 2 .68 2.78 1l.24.1a22.23 22.23 0 0 1 3.67 2.44c1.31 1 2.77 2.13 3.25 2.41a11.92 11.92 0 0 0 1.83.84 4.51 4.51 0 0 0 1.93.14 6.23 6.23 0 0 0 2-.87 5.87 5.87 0 0 1 2.61-.76 16.72 16.72 0 0 1 3.83.49 11.11 11.11 0 0 0 3.98.1 8.93 8.93 0 0 0 3.4-1.71 29.74 29.74 0 0 0 2.8-2.86 29.63 29.63 0 0 0 2.3-3.27 23.44 23.44 0 0 0 1.7-3.81 31.08 31.08 0 0 0 1-4.47 10.05 10.05 0 0 0 0-3.45c-.2-.58-1.25-.75-2.33-.39a27.78 27.78 0 0 0-2.74 1.05 2.71 2.71 0 0 1-1.55.23 4 4 0 0 1-1.54-.9 6.82 6.82 0 0 0-1-.77 4.4 4.4 0 0 0-.56-.31z" fill="url(#f)"/></svg>