<svg xmlns="http://www.w3.org/2000/svg" xmlns:xlink="http://www.w3.org/1999/xlink" width="93.87" height="200" viewBox="0 0 93.87 200"><defs><linearGradient id="a" x1="31.23" y1="60.7" x2="39.78" y2="41.51" gradientUnits="userSpaceOnUse"><stop offset="0" stop-color="#fdba56"/><stop offset=".02" stop-color="#fbb055"/><stop offset=".06" stop-color="#f79d54"/><stop offset=".1" stop-color="#f59253"/><stop offset=".15" stop-color="#f48e53"/><stop offset=".3" stop-color="#ed5e4e"/><stop offset=".47" stop-color="#683a96" stop-opacity=".5"/><stop offset=".64" stop-color="#ed872b"/><stop offset=".79" stop-color="#7b76b6"/><stop offset=".9" stop-color="#f15f4f"/><stop offset="1" stop-color="#fdba56"/></linearGradient><linearGradient id="c" x1="24.58" y1="152.81" x2="58.76" y2="76.02" xlink:href="#a"/><linearGradient id="b" x1="25.66" y1="49.58" x2="29.24" y2="57.63" gradientUnits="userSpaceOnUse"><stop offset="0" stop-color="#b7151b"/><stop offset=".02" stop-color="#c52229"/><stop offset=".06" stop-color="#d7333c"/><stop offset=".11" stop-color="#e23d47"/><stop offset=".15" stop-color="#e6404b"/><stop offset=".3" stop-color="#e98a7b"/><stop offset=".47" stop-color="#7c78b8"/><stop offset=".64" stop-color="#00b0b0"/><stop offset=".79" stop-color="#7b76b6"/><stop offset="1" stop-color="#e7322f"/></linearGradient><linearGradient id="d" x1="45.72" y1="49.64" x2="56.85" y2="74.63" xlink:href="#b"/><linearGradient id="e" x1="12.87" y1="145.73" x2="14.74" y2="149.93" xlink:href="#b"/><linearGradient id="f" x1="45.15" y1="101.02" x2="71.6" y2="160.43" xlink:href="#b"/></defs><title>_</title><path d="M44.78 48.3a13 13 0 0 1-1.49-3.8 3.36 3.36 0 0 0-1.12-1.92 4.46 4.46 0 0 0-2.56.06 26.15 26.15 0 0 1-4.33.88 23.78 23.78 0 0 1-4.28-.07c-1.15-.14-3.9-.66-6.14-1.16a42.55 42.55 0 0 0-5.68-.92H19a15.48 15.48 0 0 0-3.07.33 2.29 2.29 0 0 0-1.29.76 3.77 3.77 0 0 0 .68 1.8 12.19 12.19 0 0 0 2.52 2.56 16.73 16.73 0 0 0 3.64 1.79 26.86 26.86 0 0 1 2.52 1c.51.23 1.24.58 1.83.91a25.53 25.53 0 0 1 3.72 2.69 28.74 28.74 0 0 1 2.63 2.84l.48.61a35.16 35.16 0 0 1 2.58 4.2 7.1 7.1 0 0 0 2 2.5 2.47 2.47 0 0 0 1.92-.08c.41-.21.94-.45 1.46-.67s1.22-.49 1.65-.62a15.28 15.28 0 0 1 3-.55 13.33 13.33 0 0 1 2.89.2 15.45 15.45 0 0 1 2.86.94 10.26 10.26 0 0 0 2.16.7 4.66 4.66 0 0 0 1.58-.07.53.53 0 0 0 .18-.1A4.34 4.34 0 0 0 54.3 62a18.74 18.74 0 0 1-1.69-2.68 27 27 0 0 1-1.31-3.22 11.37 11.37 0 0 0-1.43-2.78 12 12 0 0 0-2.33-2.19 10.47 10.47 0 0 1-1.47-1.26 10.25 10.25 0 0 1-1.29-1.57z" fill="url(#a)"/><path d="M74.9 84.24a37.81 37.81 0 0 0-7-3.59 91.77 91.77 0 0 1-9-4.33 17.42 17.42 0 0 0-4.23-1.93 8.61 8.61 0 0 0-2.83.18 11.37 11.37 0 0 1-3.71.24 11.79 11.79 0 0 1-3.56-1.23 7.62 7.62 0 0 0-2.57-.84 6.73 6.73 0 0 0-2.62.54 12 12 0 0 1-3.48.95 12.3 12.3 0 0 1-3.6-.35 17.84 17.84 0 0 0-3.08-.5 16.37 16.37 0 0 0-3 .18 26 26 0 0 0-3.23.86c-.93.32-2.6 1-3.63 1.52A34.8 34.8 0 0 0 15.71 78c-.94.64-4 3.1-6.69 5.38A54.87 54.87 0 0 0 3 89.17 39.06 39.06 0 0 0 0 96c-1.1 3.2-2 6.13-2.15 6.86s-.38 2.23-.46 3.07a27.1 27.1 0 0 0-.07 3.07 27.61 27.61 0 0 0 .36 3.06 13.26 13.26 0 0 1 .1 3.52 15 15 0 0 1-1 3.5 13 13 0 0 0-.85 2.95 11.26 11.26 0 0 0 .07 2.92 22.75 22.75 0 0 0 .81 3 68.27 68.27 0 0 0 3.29 6.17 36 36 0 0 0 4.13 6 16 16 0 0 0 3.23 2.12 30.56 30.56 0 0 1 3.81 2.19c.37.26.82.6 1.27 1a26 26 0 0 1 2 1.79 19.93 19.93 0 0 0 1.76 1.54c.44.35.85.64 1.17.85a22.34 22.34 0 0 0 2.69 1.27c1.22.51 2.57 1 3.81 1.46a57.19 57.19 0 0 0 6.31 1.9 18.93 18.93 0 0 0 2.82.12 23.11 23.11 0 0 1 3.19.11 23.69 23.69 0 0 1 3.15.64 12.26 12.26 0 0 0 2.68.38 11.45 11.45 0 0 0 2.68-.43 11.94 11.94 0 0 1 3.1-.44h.28a13.63 13.63 0 0 1 3.48.72 7.6 7.6 0 0 0 2.67.4 69.92 69.92 0 0 0 9.67-5.16l6.62-3.94c5.19-3.09 9-5.87 9.4-6.5a12 12 0 0 0 1.43-3.49 22.72 22.72 0 0 1 1.33-4.12 16.62 16.62 0 0 1 2.13-3.33 6.24 6.24 0 0 0 1.21-2.42 6.91 6.91 0 0 0-.3-2.82 23.44 23.44 0 0 1-.91-3.63 18 18 0 0 1-.11-3.48 30.94 30.94 0 0 1 .61-3.65c.26-1.08.82-3 1.25-4.28a10 10 0 0 0 .41-3.86c-.14-.87-1.78-4-3.77-7a89 89 0 0 1-5.45-9.13c-.29-.6-.63-1.25-1-1.92a14.18 14.18 0 0 0-1.95-2.77z" fill="url(#c)"/><path d="M31.36 56.68A27.91 27.91 0 0 0 28.83 54a24.33 24.33 0 0 0-3.54-2.56c-.47-.27-1.09-.57-1.75-.87a5.54 5.54 0 0 0 .61 1.23l.2.2a13.52 13.52 0 0 0 2.58 2.55 16 16 0 0 0 2.44 1.34 15.3 15.3 0 0 0 1.47.59z" fill="url(#b)"/><path d="M48.11 50.3a13 13 0 0 1 2.56 2.42 12.4 12.4 0 0 1 1.58 3.08 25.77 25.77 0 0 0 1.25 3.11 17.78 17.78 0 0 0 1.58 2.51 3.81 3.81 0 0 1 .85 1.79 1.24 1.24 0 0 1-.92 1 5.55 5.55 0 0 1-2 .1 11.12 11.12 0 0 1-2.43-.77 14.43 14.43 0 0 0-2.64-.87 12.44 12.44 0 0 0-2.64-.18 14.35 14.35 0 0 0-2.74.51c-.42.13-1 .34-1.56.58.19.23.37.46.53.67l.11.15A34.48 34.48 0 0 1 44 68.26a7.94 7.94 0 0 0 2.45 2.93 3.44 3.44 0 0 0 2.85-.07 21.42 21.42 0 0 1 2.95-1.22 14.35 14.35 0 0 1 2.75-.52 12.44 12.44 0 0 1 2.64.18 14.43 14.43 0 0 1 2.64.87 11.12 11.12 0 0 0 2.43.77 5.55 5.55 0 0 0 2-.1 1.24 1.24 0 0 0 .92-1 3.81 3.81 0 0 0-.85-1.79 17.78 17.78 0 0 1-1.58-2.51 25.77 25.77 0 0 1-1.2-3.06 12.4 12.4 0 0 0-1.58-3.08 13 13 0 0 0-2.56-2.42 10.64 10.64 0 0 1-2.49-2.54A12 12 0 0 1 54 51.25a4.2 4.2 0 0 0-1.63-2.61 5.21 5.21 0 0 0-3.32 0c-.31.1-.67.19-1.06.28l-1.19.26a9.58 9.58 0 0 0 1.31 1.12z" fill="url(#d)"/><path d="M11.91 146.16a12.23 12.23 0 0 0 1.36 1.64 16.45 16.45 0 0 0 2.42 1.71 20.84 20.84 0 0 1-1.86-1.63 25.55 25.55 0 0 0-1.92-1.72z" fill="url(#e)"/><path d="M93.87 104.46a88.19 88.19 0 0 1-5.38-9 21.18 21.18 0 0 0-3.2-5 32.57 32.57 0 0 0-6.06-3.27L78 86.67l-.33-.14c.38.65.75 1.33 1.06 2a88.19 88.19 0 0 0 5.38 9c2 2.92 3.76 6.25 3.93 7.39a10.9 10.9 0 0 1-.45 4.34c-.42 1.25-1 3.13-1.22 4.19a29.83 29.83 0 0 0-.59 3.5 17.21 17.21 0 0 0 .11 3.25 22.23 22.23 0 0 0 .86 3.44 7.88 7.88 0 0 1 .34 3.32 7.22 7.22 0 0 1-1.44 2.9 15.8 15.8 0 0 0-2 3.1 21.93 21.93 0 0 0-1.26 3.9 13.05 13.05 0 0 1-1.58 3.84c-.62.93-5 4-9.72 6.8l-6.62 3.94c-4.73 2.81-9.26 5.18-10.09 5.25a8.52 8.52 0 0 1-3.11-.46 12.72 12.72 0 0 0-3.17-.66 10.74 10.74 0 0 0-3 .39 12.51 12.51 0 0 1-3 .47 12.42 12.42 0 0 1-3-.42 22.49 22.49 0 0 0-3-.61 22 22 0 0 0-3-.1 19.94 19.94 0 0 1-3-.12 56.55 56.55 0 0 1-6.51-1.95c-1.32-.46-2.69-1-3.87-1.48l.63.42a26.34 26.34 0 0 1 2.16 1.73c.37.32.71.64 1 .91a21.68 21.68 0 0 0 3.11 2.53 45.54 45.54 0 0 0 6.71 2.83 56.55 56.55 0 0 0 6.51 1.95 19.94 19.94 0 0 0 3 .12 22 22 0 0 1 3 .1 22.49 22.49 0 0 1 3 .61 12.42 12.42 0 0 0 3 .42 12.51 12.51 0 0 0 3-.47 10.74 10.74 0 0 1 3-.39 12.72 12.72 0 0 1 3.17.66 8.52 8.52 0 0 0 3.11.46c.82-.08 5.36-2.44 10.09-5.25l6.62-3.94c4.73-2.81 9.1-5.87 9.72-6.8a13.05 13.05 0 0 0 1.58-3.84 21.93 21.93 0 0 1 1.26-3.9 15.8 15.8 0 0 1 2-3.1 7.22 7.22 0 0 0 1.44-2.9 7.88 7.88 0 0 0-.34-3.32 22.23 22.23 0 0 1-.86-3.44 17.21 17.21 0 0 1-.11-3.25 29.83 29.83 0 0 1 .59-3.5c.25-1.06.8-2.94 1.22-4.19a10.9 10.9 0 0 0 .45-4.34c-.16-1.15-1.93-4.47-3.91-7.4z" fill="url(#f)"/></svg>