<svg xmlns="http://www.w3.org/2000/svg" xmlns:xlink="http://www.w3.org/1999/xlink" width="200" height="200" viewBox="0 0 200 200"><defs><linearGradient id="a" x1="83.47" y1="59.32" x2="92.02" y2="40.13" gradientUnits="userSpaceOnUse"><stop offset="0" stop-color="#fdba56"/><stop offset="0.02" stop-color="#fbb055"/><stop offset="0.06" stop-color="#f79d54"/><stop offset="0.1" stop-color="#f59253"/><stop offset="0.15" stop-color="#f48e53"/><stop offset="0.3" stop-color="#ed5e4e"/><stop offset="0.47" stop-color="#683a96" stop-opacity="0.5"/><stop offset="0.64" stop-color="#ed872b"/><stop offset="0.79" stop-color="#7b76b6"/><stop offset="0.9" stop-color="#f15f4f"/><stop offset="1" stop-color="#fdba56"/></linearGradient><linearGradient id="b" x1="76.82" y1="151.44" x2="111" y2="74.65" xlink:href="#a"/><linearGradient id="c" x1="77.9" y1="48.21" x2="81.48" y2="56.25" gradientUnits="userSpaceOnUse"><stop offset="0" stop-color="#b7151b"/><stop offset="0.02" stop-color="#c52229"/><stop offset="0.06" stop-color="#d7333c"/><stop offset="0.11" stop-color="#e23d47"/><stop offset="0.15" stop-color="#e6404b"/><stop offset="0.3" stop-color="#e98a7b"/><stop offset="0.47" stop-color="#7c78b8"/><stop offset="0.64" stop-color="#00b0b0"/><stop offset="0.79" stop-color="#7b76b6"/><stop offset="1" stop-color="#e7322f"/></linearGradient><linearGradient id="d" x1="97.96" y1="48.26" x2="109.09" y2="73.25" xlink:href="#c"/><linearGradient id="e" x1="65.11" y1="144.36" x2="66.98" y2="148.55" xlink:href="#c"/><linearGradient id="f" x1="97.39" y1="99.65" x2="123.84" y2="159.05" xlink:href="#c"/></defs><title>_</title><path d="M97,46.92a13,13,0,0,1-1.49-3.8,3.36,3.36,0,0,0-1.12-1.92,4.46,4.46,0,0,0-2.56.06,26.15,26.15,0,0,1-4.33.88,23.78,23.78,0,0,1-4.29-.06c-1.15-.14-3.9-0.66-6.14-1.16A42.55,42.55,0,0,0,71.42,40H71.19a15.48,15.48,0,0,0-3.07.33,2.29,2.29,0,0,0-1.29.76,3.77,3.77,0,0,0,.68,1.8A12.19,12.19,0,0,0,70,45.44a16.73,16.73,0,0,0,3.64,1.79,26.86,26.86,0,0,1,2.52,1c0.51,0.23,1.24.58,1.83,0.91a25.53,25.53,0,0,1,3.72,2.69,28.74,28.74,0,0,1,2.63,2.84l0.48,0.61a35.16,35.16,0,0,1,2.58,4.2,7.1,7.1,0,0,0,2,2.5,2.47,2.47,0,0,0,1.92-.08c0.41-.21.94-0.45,1.46-0.67s1.22-.49,1.65-0.62a15.28,15.28,0,0,1,3-.55,13.33,13.33,0,0,1,2.89.2,15.45,15.45,0,0,1,2.86.94,10.26,10.26,0,0,0,2.16.7,4.66,4.66,0,0,0,1.58-.07,0.53,0.53,0,0,0,.18-0.1,4.34,4.34,0,0,0-.62-1.07A18.74,18.74,0,0,1,104.85,58a27,27,0,0,1-1.31-3.26,11.37,11.37,0,0,0-1.43-2.78,12,12,0,0,0-2.33-2.19,10.47,10.47,0,0,1-1.47-1.26A10.25,10.25,0,0,1,97,46.92Z" fill="url(#a)"/><path d="M127.14,82.86a37.81,37.81,0,0,0-7-3.59,91.77,91.77,0,0,1-9-4.33A17.42,17.42,0,0,0,107,73a8.61,8.61,0,0,0-2.83.18,11.37,11.37,0,0,1-3.71.24,11.79,11.79,0,0,1-3.56-1.23,7.62,7.62,0,0,0-2.69-.84,6.73,6.73,0,0,0-2.62.54,12,12,0,0,1-3.48.95,12.3,12.3,0,0,1-3.6-.35,17.84,17.84,0,0,0-3.08-.5,16.37,16.37,0,0,0-3,.18,26,26,0,0,0-3.23.86c-0.93.32-2.6,1-3.63,1.52a34.8,34.8,0,0,0-3.61,2.09c-0.94.64-4,3.1-6.69,5.38a54.87,54.87,0,0,0-6.07,5.76,39.06,39.06,0,0,0-3,6.86c-1.1,3.2-2,6.13-2.15,6.86s-0.38,2.23-.46,3.07a27.1,27.1,0,0,0-.07,3.07,27.61,27.61,0,0,0,.36,3.06,13.26,13.26,0,0,1,.1,3.52,15,15,0,0,1-1,3.5,13,13,0,0,0-.85,2.95,11.26,11.26,0,0,0,.08,2.89,22.75,22.75,0,0,0,.81,3,68.27,68.27,0,0,0,3.29,6.22,36,36,0,0,0,4.13,6,16,16,0,0,0,3.23,2.12A30.56,30.56,0,0,1,63.51,143c0.37,0.26.82,0.6,1.27,1a26,26,0,0,1,2,1.79,19.93,19.93,0,0,0,1.76,1.54c0.44,0.35.85,0.64,1.17,0.85a22.34,22.34,0,0,0,2.69,1.27c1.22,0.51,2.57,1,3.81,1.46a57.19,57.19,0,0,0,6.31,1.9,18.93,18.93,0,0,0,2.82.12,23.11,23.11,0,0,1,3.19.11,23.69,23.69,0,0,1,3.15.64,12.26,12.26,0,0,0,2.68.38,11.45,11.45,0,0,0,2.68-.43,11.94,11.94,0,0,1,3.1-.44h0.28a13.63,13.63,0,0,1,3.48.72,7.6,7.6,0,0,0,2.67.4,69.92,69.92,0,0,0,9.67-5.12l6.62-3.94c5.19-3.09,9-5.87,9.4-6.5a12,12,0,0,0,1.43-3.49,22.72,22.72,0,0,1,1.33-4.12,16.62,16.62,0,0,1,2.13-3.33,6.24,6.24,0,0,0,1.21-2.42,6.91,6.91,0,0,0-.3-2.82,23.44,23.44,0,0,1-.91-3.63,18,18,0,0,1-.11-3.48,30.94,30.94,0,0,1,.61-3.65c0.26-1.08.82-3,1.25-4.28a10,10,0,0,0,.41-3.86c-0.14-.87-1.78-4-3.77-7a89,89,0,0,1-5.45-9.13c-0.29-.6-0.63-1.25-1-1.92A14.18,14.18,0,0,0,127.14,82.86Z" fill="url(#b)"/><path d="M83.6,55.31a27.91,27.91,0,0,0-2.53-2.73A24.33,24.33,0,0,0,77.53,50c-0.47-.27-1.09-0.57-1.75-0.87a5.54,5.54,0,0,0,.61,1.23l0.19,0.27a13.52,13.52,0,0,0,2.58,2.55,16,16,0,0,0,2.44,1.34,15.3,15.3,0,0,0,1.47.59Z" fill="url(#c)"/><path d="M100.35,48.92a13,13,0,0,1,2.56,2.42,12.4,12.4,0,0,1,1.58,3.08,25.77,25.77,0,0,0,1.25,3.11A17.78,17.78,0,0,0,107.32,60a3.81,3.81,0,0,1,.85,1.79,1.24,1.24,0,0,1-.92,1,5.55,5.55,0,0,1-2,.1,11.12,11.12,0,0,1-2.43-.77,14.43,14.43,0,0,0-2.64-.87,12.44,12.44,0,0,0-2.64-.18,14.35,14.35,0,0,0-2.74.51c-0.42.13-1,.34-1.56,0.58,0.19,0.23.37,0.46,0.53,0.67L93.88,63a34.48,34.48,0,0,1,2.39,3.9,7.94,7.94,0,0,0,2.45,2.93,3.44,3.44,0,0,0,2.85-.07,21.42,21.42,0,0,1,2.95-1.22,14.35,14.35,0,0,1,2.74-.51,12.44,12.44,0,0,1,2.64.18,14.43,14.43,0,0,1,2.64.87,11.12,11.12,0,0,0,2.43.77,5.55,5.55,0,0,0,2-.1,1.24,1.24,0,0,0,.92-1A3.81,3.81,0,0,0,117,67a17.78,17.78,0,0,1-1.58-2.51,25.77,25.77,0,0,1-1.25-3.11,12.4,12.4,0,0,0-1.58-3.08,13,13,0,0,0-2.56-2.42,10.64,10.64,0,0,1-2.49-2.54,12,12,0,0,1-1.35-3.45,4.2,4.2,0,0,0-1.63-2.61,5.21,5.21,0,0,0-3.32,0c-0.31.1-.67,0.19-1.06,0.28L99,47.78A9.58,9.58,0,0,0,100.35,48.92Z" fill="url(#d)"/><path d="M64.15,144.78a12.23,12.23,0,0,0,1.36,1.64,16.45,16.45,0,0,0,2.42,1.71,20.84,20.84,0,0,1-1.86-1.63A25.55,25.55,0,0,0,64.15,144.78Z" fill="url(#e)"/><path d="M146.11,103.09a88.19,88.19,0,0,1-5.38-9,21.18,21.18,0,0,0-3.2-5,32.57,32.57,0,0,0-6.06-3.27l-1.18-.51L130,85.15c0.38,0.65.75,1.33,1.06,2a88.19,88.19,0,0,0,5.38,9c2,2.92,3.76,6.25,3.93,7.39a10.9,10.9,0,0,1-.45,4.34c-0.42,1.25-1,3.13-1.22,4.19a29.83,29.83,0,0,0-.59,3.5,17.21,17.21,0,0,0,.11,3.25,22.23,22.23,0,0,0,.86,3.44,7.88,7.88,0,0,1,.34,3.32,7.22,7.22,0,0,1-1.44,2.9,15.8,15.8,0,0,0-2,3.1,21.93,21.93,0,0,0-1.26,3.9,13.05,13.05,0,0,1-1.58,3.84c-0.62.93-5,4-9.72,6.8l-6.62,3.94c-4.73,2.81-9.26,5.18-10.09,5.25a8.52,8.52,0,0,1-3.11-.46,12.72,12.72,0,0,0-3.17-.66,10.74,10.74,0,0,0-3,.39,10.12,10.12,0,0,1-5.94.06,22.49,22.49,0,0,0-3-.61,22,22,0,0,0-3-.1,19.94,19.94,0,0,1-3-.12,56.55,56.55,0,0,1-6.51-1.95c-1.32-.46-2.69-1-3.87-1.48l0.63,0.42a26.34,26.34,0,0,1,2.16,1.73c0.37,0.32.71,0.64,1,.91A21.68,21.68,0,0,0,78.89,156a45.54,45.54,0,0,0,6.71,2.83,56.55,56.55,0,0,0,6.51,1.95,19.94,19.94,0,0,0,3,.12,22,22,0,0,1,3,.1,22.49,22.49,0,0,1,3,.61,10.12,10.12,0,0,0,5.94-.06,10.74,10.74,0,0,1,3-.39,12.72,12.72,0,0,1,3.17.66,8.52,8.52,0,0,0,3.11.46c0.82-.08,5.36-2.44,10.09-5.25l6.62-3.94c4.73-2.81,9.1-5.87,9.72-6.8a13.05,13.05,0,0,0,1.58-3.84,21.93,21.93,0,0,1,1.26-3.9,15.8,15.8,0,0,1,2-3.1,7.22,7.22,0,0,0,1.44-2.9,7.88,7.88,0,0,0-.34-3.32,22.23,22.23,0,0,1-.86-3.44,17.21,17.21,0,0,1-.11-3.25,29.83,29.83,0,0,1,.59-3.5c0.25-1.06.8-2.94,1.22-4.19a10.9,10.9,0,0,0,.45-4.34C149.86,109.34,148.09,106,146.11,103.09Z" fill="url(#f)"/></svg>