<svg xmlns="http://www.w3.org/2000/svg" xmlns:xlink="http://www.w3.org/1999/xlink" width="95.15" height="200" viewBox="0 0 95.15 200"><defs><linearGradient id="a" x1="45.67" y1="68.45" x2="60.24" y2="35.73" gradientUnits="userSpaceOnUse"><stop offset="0" stop-color="#fdba56"/><stop offset=".02" stop-color="#fbb055"/><stop offset=".06" stop-color="#f79d54"/><stop offset=".1" stop-color="#f59253"/><stop offset=".15" stop-color="#f48e53"/><stop offset=".3" stop-color="#ed5e4e"/><stop offset=".47" stop-color="#683a96" stop-opacity=".5"/><stop offset=".64" stop-color="#ed872b"/><stop offset=".79" stop-color="#7b76b6"/><stop offset=".9" stop-color="#f15f4f"/><stop offset="1" stop-color="#fdba56"/></linearGradient><linearGradient id="c" x1="26.6" y1="153.74" x2="62.09" y2="74.05" xlink:href="#a"/><linearGradient id="b" x1="59.14" y1="52.28" x2="65.56" y2="66.69" gradientUnits="userSpaceOnUse"><stop offset="0" stop-color="#b7151b"/><stop offset=".02" stop-color="#c52229"/><stop offset=".06" stop-color="#d7333c"/><stop offset=".11" stop-color="#e23d47"/><stop offset=".15" stop-color="#e6404b"/><stop offset=".3" stop-color="#e98a7b"/><stop offset=".47" stop-color="#7c78b8"/><stop offset=".64" stop-color="#00b0b0"/><stop offset=".79" stop-color="#7b76b6"/><stop offset="1" stop-color="#e7322f"/></linearGradient><linearGradient id="d" x1="44.62" y1="97.67" x2="73.24" y2="161.96" xlink:href="#b"/></defs><title>_</title><path d="M74.48 42.07a35.42 35.42 0 0 0-5.56-.69c-3.61-.21-7.54-.33-8.6-.27a26.14 26.14 0 0 0-3.84.59 24.36 24.36 0 0 1-4.3.58 27.59 27.59 0 0 1-4.42-.35 6.37 6.37 0 0 0-3 .21 16.38 16.38 0 0 0-3.07 5.21A69.56 69.56 0 0 1 38.57 54a56.7 56.7 0 0 1-4.85 5.59c-.92 1-1.7 1.82-2.29 2.49a12.53 12.53 0 0 1 2.48-.33 10.54 10.54 0 0 1 3.08.54c.68.25 2.45.75 3.85 1.09a14.88 14.88 0 0 0 2.86.41 2.68 2.68 0 0 0 .56 0 95.65 95.65 0 0 0 9.1-5 121 121 0 0 0 15.11-10.9c.62-.54 1.21-1.07 1.77-1.59a53.6 53.6 0 0 0 4.24-4.23z" fill="url(#a)"/><path d="M77.37 83.5a51.5 51.5 0 0 0-6.27-5.38 20.09 20.09 0 0 0-3.75-1.55c-1.19-.33-3.69-1.2-5.57-1.95A28.66 28.66 0 0 0 57 73.14a13.18 13.18 0 0 0-3 0 19.16 19.16 0 0 1-3.58.14 18.73 18.73 0 0 1-3.49-.66 14.3 14.3 0 0 0-3-.52 13.56 13.56 0 0 0-2.91.28 31.18 31.18 0 0 1-3.31.54 29.87 29.87 0 0 1-3.35.11 15.62 15.62 0 0 0-2.92.25 65.88 65.88 0 0 0-6.56 2.41A43.13 43.13 0 0 0 18.34 79a16 16 0 0 0-2.69 2.79 21.77 21.77 0 0 1-3.07 3.32 23.28 23.28 0 0 1-3.83 2.51 12.78 12.78 0 0 0-3.08 2.28 32.25 32.25 0 0 0-3.33 6.4A54.56 54.56 0 0 0 0 102.88a51.9 51.9 0 0 0 .47 7.64 79.37 79.37 0 0 1 .62 8.05c-.06.88-.4 3-.76 4.88a19.71 19.71 0 0 0-.43 4.45 8.93 8.93 0 0 0 .86 2.58 22.86 22.86 0 0 0 1.83 2.68 34.77 34.77 0 0 0 2.58 2.75A19.38 19.38 0 0 1 8 139.36a22.42 22.42 0 0 1 1.87 4.2 9.09 9.09 0 0 0 1.83 3.13 8.7 8.7 0 0 0 3.13 1.72 42.73 42.73 0 0 1 4.16 1.41 38.34 38.34 0 0 1 4 2c.95.55 2.47 1.33 3.33 1.7a23.78 23.78 0 0 0 3 1c.78.19 2.8.54 4.41.77a53.21 53.21 0 0 0 5.94.41c1.71 0 3.81.07 4.68.16a32 32 0 0 1 3.21.51 21.55 21.55 0 0 0 2.93.4 20.72 20.72 0 0 0 2.92-.11c.82-.1 2.84-.47 4.51-.83a27.75 27.75 0 0 0 4.5-1.36 33.69 33.69 0 0 0 3.33-1.87c1-.63 2.46-1.72 3.33-2.42s4.83-4.5 8.67-8.29l.52-.52c4.24-4.18 7.23-7.69 7.51-8.36a8.83 8.83 0 0 0 .42-3 16.25 16.25 0 0 1 .19-3.65 15.19 15.19 0 0 1 1.16-3.4 25.55 25.55 0 0 0 2.15-6.06 10.23 10.23 0 0 0 0-3.13 17.52 17.52 0 0 0-1.23-3.7 31.85 31.85 0 0 1-1.63-4.4 29 29 0 0 1-.77-4.49c-.09-1.17-.33-3-.54-4.15s-.67-2.92-1-4a19.3 19.3 0 0 0-1.59-3.51 52.26 52.26 0 0 0-5.36-5.85z" fill="url(#c)"/><path d="M54.19 71.72a9.1 9.1 0 0 0 1.46-.65c1.76-.89 4.79-2.57 8-4.45a122.36 122.36 0 0 0 15.24-11c3.87-3.4 6.93-6.56 6.8-7s-3.26-1-7-1.24c-2.25-.13-4.59-.23-6.32-.27h-1.45c-.57.52-1.17 1.06-1.79 1.61a122.36 122.36 0 0 1-15.24 11 85.59 85.59 0 0 1-9.42 5.1 3.84 3.84 0 0 1-.78 0l-.89.94-.1.11C40.61 68 38.94 70 39 70.27s.8.22 1.65-.05a12 12 0 0 1 3-.5 9.48 9.48 0 0 1 2.75.48c.69.25 2.34.72 3.74 1.07l.21.05a12.15 12.15 0 0 0 3.84.4z" fill="url(#b)"/><path d="M78.07 82.79A53.07 53.07 0 0 1 83.75 89a20.26 20.26 0 0 1 1.69 3.73c.35 1.1.81 2.93 1 4.08s.47 3.06.56 4.26a27.9 27.9 0 0 0 .74 4.31 30.68 30.68 0 0 0 1.57 4.23 18.5 18.5 0 0 1 1.31 4 11.09 11.09 0 0 1 0 3.51 26.49 26.49 0 0 1-2.24 6.3 14.33 14.33 0 0 0-1.07 3.14 15.36 15.36 0 0 0-.17 3.39 9.74 9.74 0 0 1-.48 3.45c-.34.93-3.83 4.86-7.74 8.72l-.53.52c-3.92 3.86-7.85 7.62-8.74 8.35s-2.43 1.85-3.42 2.49a34.47 34.47 0 0 1-3.46 1.93 28.44 28.44 0 0 1-4.71 1.43c-1.68.36-3.74.74-4.59.85a21.82 21.82 0 0 1-3.09.11 22.46 22.46 0 0 1-3.1-.42 30.83 30.83 0 0 0-3.09-.49c-.85-.08-2.91-.15-4.59-.15a54.45 54.45 0 0 1-6.08-.42c-1.67-.23-3.7-.58-4.52-.79a24.6 24.6 0 0 1-3.13-1.08c-.9-.39-2.45-1.18-3.44-1.76a37.59 37.59 0 0 0-3.77-1.87h-.08v.06a8.61 8.61 0 0 0 .53 1.28 9.23 9.23 0 0 0 1.55 2.28 9.64 9.64 0 0 0 3.56 2 41.75 41.75 0 0 1 4.13 1.4 37.59 37.59 0 0 1 3.77 1.87c1 .58 2.54 1.37 3.44 1.76a24.6 24.6 0 0 0 3.13 1.08c.82.2 2.85.56 4.52.79a54.45 54.45 0 0 0 6.08.42c1.68 0 3.74.07 4.59.15a30.83 30.83 0 0 1 3.09.49 22.46 22.46 0 0 0 3.1.42 21.82 21.82 0 0 0 3.09-.11c.85-.1 2.92-.49 4.59-.85a28.44 28.44 0 0 0 4.71-1.43 34.47 34.47 0 0 0 3.46-1.93c1-.64 2.53-1.76 3.42-2.49s4.82-4.48 8.74-8.35l.52-.66c3.92-3.86 7.4-7.78 7.74-8.72a9.74 9.74 0 0 0 .48-3.45 15.36 15.36 0 0 1 .17-3.39 14.33 14.33 0 0 1 1.07-3.14 26.49 26.49 0 0 0 2.24-6.3 11.09 11.09 0 0 0 0-3.51 18.5 18.5 0 0 0-1.31-4 30.68 30.68 0 0 1-1.57-4.23 27.9 27.9 0 0 1-.74-4.31c-.09-1.2-.34-3.11-.56-4.26s-.68-3-1-4.08a20.26 20.26 0 0 0-1.69-3.73 53.07 53.07 0 0 0-5.68-6.21 52.27 52.27 0 0 0-6.45-5.47c-.24-.14-.53-.28-.84-.43a23.54 23.54 0 0 0-2.4-1z" fill="url(#d)"/></svg>