<svg xmlns="http://www.w3.org/2000/svg" xmlns:xlink="http://www.w3.org/1999/xlink" width="200" height="200" viewBox="0 0 200 200"><defs><linearGradient id="a" x1="95.91" y1="67.07" x2="110.47" y2="34.36" gradientUnits="userSpaceOnUse"><stop offset="0" stop-color="#fdba56"/><stop offset="0.02" stop-color="#fbb055"/><stop offset="0.06" stop-color="#f79d54"/><stop offset="0.1" stop-color="#f59253"/><stop offset="0.15" stop-color="#f48e53"/><stop offset="0.3" stop-color="#ed5e4e"/><stop offset="0.47" stop-color="#683a96" stop-opacity="0.5"/><stop offset="0.64" stop-color="#ed872b"/><stop offset="0.79" stop-color="#7b76b6"/><stop offset="0.9" stop-color="#f15f4f"/><stop offset="1" stop-color="#fdba56"/></linearGradient><linearGradient id="b" x1="76.84" y1="152.37" x2="112.32" y2="72.67" xlink:href="#a"/><linearGradient id="c" x1="109.38" y1="50.91" x2="115.8" y2="65.32" gradientUnits="userSpaceOnUse"><stop offset="0" stop-color="#b7151b"/><stop offset="0.02" stop-color="#c52229"/><stop offset="0.06" stop-color="#d7333c"/><stop offset="0.11" stop-color="#e23d47"/><stop offset="0.15" stop-color="#e6404b"/><stop offset="0.3" stop-color="#e98a7b"/><stop offset="0.47" stop-color="#7c78b8"/><stop offset="0.64" stop-color="#00b0b0"/><stop offset="0.79" stop-color="#7b76b6"/><stop offset="1" stop-color="#e7322f"/></linearGradient><linearGradient id="d" x1="94.86" y1="96.3" x2="123.48" y2="160.58" xlink:href="#c"/></defs><title>_</title><path d="M124.71,40.7a35.42,35.42,0,0,0-5.56-.69c-3.61-.21-7.54-0.33-8.6-0.27a26.14,26.14,0,0,0-3.84.59,24.36,24.36,0,0,1-4.3.58A27.59,27.59,0,0,1,98,40.56a6.37,6.37,0,0,0-3,.21A16.38,16.38,0,0,0,91.92,46a69.56,69.56,0,0,1-3.11,6.67A56.7,56.7,0,0,1,84,58.24c-0.92,1-1.7,1.82-2.29,2.49a12.53,12.53,0,0,1,2.48-.33h0a10.54,10.54,0,0,1,3.08.54c0.68,0.25,2.45.75,3.85,1.09a14.88,14.88,0,0,0,2.86.41,2.68,2.68,0,0,0,.56,0,95.65,95.65,0,0,0,9.1-5,121,121,0,0,0,15.09-10.92c0.62-.54,1.21-1.07,1.77-1.59A53.6,53.6,0,0,0,124.71,40.7Z" fill="url(#a)"/><path d="M127.61,82.13a51.5,51.5,0,0,0-6.27-5.38,20.09,20.09,0,0,0-3.75-1.55c-1.19-.33-3.69-1.2-5.57-1.95a28.66,28.66,0,0,0-4.74-1.48,13.18,13.18,0,0,0-3,0,19.16,19.16,0,0,1-3.58.14,18.73,18.73,0,0,1-3.49-.66,14.3,14.3,0,0,0-3-.52,13.56,13.56,0,0,0-2.91.28,31.18,31.18,0,0,1-3.31.54,29.87,29.87,0,0,1-3.35.11,15.62,15.62,0,0,0-2.92.25,65.88,65.88,0,0,0-6.56,2.41,43.13,43.13,0,0,0-6.6,3.25,16,16,0,0,0-2.69,2.79,21.77,21.77,0,0,1-3.07,3.32A23.28,23.28,0,0,1,59,86.2a12.78,12.78,0,0,0-3.08,2.28,32.25,32.25,0,0,0-3.33,6.44,54.56,54.56,0,0,0-2.34,6.57,51.9,51.9,0,0,0,.47,7.64,79.37,79.37,0,0,1,.62,8.05c-0.06.88-.4,3-0.76,4.88a19.71,19.71,0,0,0-.43,4.45,8.93,8.93,0,0,0,.86,2.58,22.86,22.86,0,0,0,1.83,2.68,34.77,34.77,0,0,0,2.58,2.75A19.38,19.38,0,0,1,58.19,138a22.42,22.42,0,0,1,1.87,4.2,9.09,9.09,0,0,0,1.83,3.13A8.7,8.7,0,0,0,65,147a42.73,42.73,0,0,1,4.16,1.41,38.34,38.34,0,0,1,4,2c0.95,0.55,2.47,1.33,3.33,1.7a23.78,23.78,0,0,0,3,1c0.78,0.19,2.8.54,4.41,0.77a53.21,53.21,0,0,0,5.94.41c1.71,0,3.81.07,4.68,0.16a32,32,0,0,1,3.21.51,21.55,21.55,0,0,0,2.93.4,20.72,20.72,0,0,0,2.92-.11c0.82-.1,2.84-0.47,4.51-0.83a27.75,27.75,0,0,0,4.5-1.36,33.69,33.69,0,0,0,3.33-1.87c1-.63,2.46-1.72,3.33-2.42s4.83-4.5,8.67-8.29l0.52-.52c4.24-4.18,7.23-7.69,7.51-8.36a8.83,8.83,0,0,0,.42-3,16.25,16.25,0,0,1,.19-3.65,15.19,15.19,0,0,1,1.16-3.4,25.55,25.55,0,0,0,2.15-6.06,10.23,10.23,0,0,0,0-3.13,17.52,17.52,0,0,0-1.23-3.7,31.85,31.85,0,0,1-1.63-4.4,29,29,0,0,1-.77-4.49c-0.09-1.17-.33-3-0.54-4.15s-0.67-2.92-1-4a19.3,19.3,0,0,0-1.59-3.51,52.26,52.26,0,0,0-5.36-5.85Z" fill="url(#b)"/><path d="M104.43,70.34a9.1,9.1,0,0,0,1.46-.65c1.76-.89,4.79-2.57,8-4.45a122.36,122.36,0,0,0,15.24-11c3.87-3.4,6.93-6.56,6.8-7s-3.26-1-7-1.24c-2.25-.13-4.59-0.23-6.32-0.27l-1.45,0c-0.57.52-1.17,1.06-1.79,1.61a122.36,122.36,0,0,1-15.24,11,85.59,85.59,0,0,1-9.42,5.1,3.84,3.84,0,0,1-.78,0L93,64.38l-0.1.11c-2.1,2.18-3.77,4.16-3.71,4.41s0.8,0.22,1.65-.05a12,12,0,0,1,3-.5,9.48,9.48,0,0,1,2.75.48c0.69,0.25,2.34.72,3.74,1.07l0.21,0.05A12.15,12.15,0,0,0,104.43,70.34Z" fill="url(#c)"/><path d="M128.31,81.41A53.07,53.07,0,0,1,134,87.62a20.26,20.26,0,0,1,1.69,3.73c0.35,1.1.81,2.93,1,4.08s0.47,3.06.56,4.26A27.9,27.9,0,0,0,138,104a30.68,30.68,0,0,0,1.57,4.23,18.5,18.5,0,0,1,1.31,4,11.09,11.09,0,0,1,0,3.51,26.49,26.49,0,0,1-2.24,6.3,14.33,14.33,0,0,0-1.07,3.14,15.36,15.36,0,0,0-.17,3.39,9.74,9.74,0,0,1-.48,3.45c-0.34.93-3.83,4.86-7.74,8.72l-0.53.52c-3.92,3.86-7.85,7.62-8.74,8.35s-2.43,1.85-3.42,2.49A34.47,34.47,0,0,1,113,154a28.44,28.44,0,0,1-4.71,1.43c-1.68.36-3.74,0.74-4.59,0.85a21.82,21.82,0,0,1-3.09.11,22.46,22.46,0,0,1-3.1-.42,30.83,30.83,0,0,0-3.09-.49c-0.85-.08-2.91-0.15-4.59-0.15a54.45,54.45,0,0,1-6.08-.42c-1.67-.23-3.7-0.58-4.52-0.79A24.6,24.6,0,0,1,76.1,153c-0.9-.39-2.45-1.18-3.44-1.76a37.59,37.59,0,0,0-3.77-1.87l-0.08,0,0,0.06a8.61,8.61,0,0,0,.53,1.28A9.23,9.23,0,0,0,70.91,153a9.64,9.64,0,0,0,3.56,2,41.75,41.75,0,0,1,4.13,1.4,37.59,37.59,0,0,1,3.77,1.87c1,0.58,2.54,1.37,3.44,1.76A24.6,24.6,0,0,0,88.94,161c0.82,0.2,2.85.56,4.52,0.79a54.45,54.45,0,0,0,6.08.42c1.68,0,3.74.07,4.59,0.15a30.83,30.83,0,0,1,3.09.49,22.46,22.46,0,0,0,3.1.42,21.82,21.82,0,0,0,3.09-.11c0.85-.1,2.92-0.49,4.59-0.85a28.44,28.44,0,0,0,4.71-1.43,34.47,34.47,0,0,0,3.46-1.93c1-.64,2.53-1.76,3.42-2.49s4.82-4.48,8.74-8.35l0.53-.52c3.92-3.86,7.4-7.78,7.74-8.72a9.74,9.74,0,0,0,.48-3.45,15.36,15.36,0,0,1,.17-3.39,14.33,14.33,0,0,1,1.07-3.14,26.49,26.49,0,0,0,2.24-6.3,11.09,11.09,0,0,0,0-3.51,18.5,18.5,0,0,0-1.31-4,30.68,30.68,0,0,1-1.57-4.23,27.9,27.9,0,0,1-.74-4.31c-0.09-1.2-.34-3.11-0.56-4.26s-0.68-3-1-4.08a20.26,20.26,0,0,0-1.69-3.73A53.07,53.07,0,0,0,138,88.35a52.27,52.27,0,0,0-6.47-5.53c-0.24-.14-0.53-0.28-0.84-0.43a23.54,23.54,0,0,0-2.4-1h0Z" fill="url(#d)"/></svg>