<svg xmlns="http://www.w3.org/2000/svg" xmlns:xlink="http://www.w3.org/1999/xlink" width="95.17" height="200" viewBox="0 0 95.17 200"><defs><linearGradient id="a" x1="26.59" y1="154.15" x2="62" y2="74.62" gradientUnits="userSpaceOnUse"><stop offset="0" stop-color="#fdba56"/><stop offset=".02" stop-color="#fbb055"/><stop offset=".06" stop-color="#f79d54"/><stop offset=".1" stop-color="#f59253"/><stop offset=".15" stop-color="#f48e53"/><stop offset=".3" stop-color="#ed5e4e"/><stop offset=".47" stop-color="#683a96" stop-opacity=".5"/><stop offset=".64" stop-color="#ed872b"/><stop offset=".79" stop-color="#7b76b6"/><stop offset=".9" stop-color="#f15f4f"/><stop offset="1" stop-color="#fdba56"/></linearGradient><linearGradient id="c" x1="38.92" y1="74.18" x2="53.53" y2="41.37" xlink:href="#a"/><linearGradient id="b" x1="42.96" y1="95.93" x2="72.66" y2="162.64" gradientUnits="userSpaceOnUse"><stop offset="0" stop-color="#b7151b"/><stop offset=".02" stop-color="#c52229"/><stop offset=".06" stop-color="#d7333c"/><stop offset=".11" stop-color="#e23d47"/><stop offset=".15" stop-color="#e6404b"/><stop offset=".3" stop-color="#e98a7b"/><stop offset=".47" stop-color="#7c78b8"/><stop offset=".64" stop-color="#00b0b0"/><stop offset=".79" stop-color="#7b76b6"/><stop offset="1" stop-color="#e7322f"/></linearGradient><linearGradient id="d" x1="32.42" y1="58.02" x2="38.79" y2="72.32" xlink:href="#b"/><linearGradient id="e" x1="61.72" y1="46.91" x2="74.25" y2="75.06" xlink:href="#b"/></defs><title>_</title><path d="M67.86 78a47.15 47.15 0 0 0-5.13-3.09 22.24 22.24 0 0 0-3.18-1.08 13.62 13.62 0 0 0-3-.3 16 16 0 0 0-3.14.5c-1 .27-2.54.62-3.47.76a30.12 30.12 0 0 1-3.36.3 18 18 0 0 1-3.39-.31 21.11 21.11 0 0 1-3.37-1.06 8.21 8.21 0 0 0-2.69-.53 7.23 7.23 0 0 0-2.56.74A11.07 11.07 0 0 1 31.1 75a12.41 12.41 0 0 1-3.72-.27 10.85 10.85 0 0 0-2.32-.23 8.2 8.2 0 0 0-1 0 15.74 15.74 0 0 0-3.61 1 41.77 41.77 0 0 0-3.77 1.95A41.83 41.83 0 0 0 13.2 80a27 27 0 0 0-3 2.84 26.1 26.1 0 0 0-2.4 3.34c-.58 1-1.43 2.69-1.87 3.71a39.46 39.46 0 0 0-1.38 3.81 28.75 28.75 0 0 1-1.44 3.83 20.5 20.5 0 0 1-2 3.16 7.19 7.19 0 0 0-1.11 2.4 7.51 7.51 0 0 0 .09 2.71 27.88 27.88 0 0 1 .58 3.4 56.23 56.23 0 0 1-.2 6.34C.29 118 .19 121.4.25 123a27.78 27.78 0 0 0 .46 4.31 20.08 20.08 0 0 0 .95 2.69c.36.79 1.23 3.11 1.94 5.17a50.37 50.37 0 0 0 2.18 5.39A28.38 28.38 0 0 0 8 144a17.34 17.34 0 0 0 2.78 2.72 47.45 47.45 0 0 0 5.87 3l1.45.64c3.46 1.49 6.65 2.73 7.45 3a16.5 16.5 0 0 0 3 .52c1 0 6.22.74 10.7 1.37a70.58 70.58 0 0 0 10.17 1 10.35 10.35 0 0 0 2.56-1.1 10.35 10.35 0 0 1 3.31-1.28 10.81 10.81 0 0 1 3.59.16 12.4 12.4 0 0 0 3.2.21 18.21 18.21 0 0 0 3.64-.83 22.59 22.59 0 0 0 3.63-1.74 22.86 22.86 0 0 0 3.17-2.51c.87-.85 3.11-2.8 5-4.34a32.38 32.38 0 0 0 4.48-4.35 37.91 37.91 0 0 0 2.91-6.89 55.33 55.33 0 0 0 1.93-6.87 18.76 18.76 0 0 0 0-3.1 26.58 26.58 0 0 1-.09-3.47c.05-.95.51-4.24 1-7.49a54.29 54.29 0 0 0 .82-7.77 30.93 30.93 0 0 0-.57-4.28 26.63 26.63 0 0 0-1.31-4 23.49 23.49 0 0 0-2-3.49c-.69-.91-1.86-2.32-2.61-3.11s-3.5-3.34-6-5.53c-.66-.57-1.39-1.19-2.15-1.81-2.31-1.88-4.68-3.66-6.07-4.66z" fill="url(#a)"/><path d="M60.36 47.74a37.37 37.37 0 0 1-2.36-3 10.41 10.41 0 0 0-2.13-2.2 8 8 0 0 0-2.54-1c-.84-.15-2.25-.32-3.09-.37s-2.24-.07-3.06 0a18.08 18.08 0 0 0-3 .44 21.24 21.24 0 0 0-3 1.06 24.23 24.23 0 0 1-3.19 1.16 15.93 15.93 0 0 1-3 .45 8.83 8.83 0 0 0-2.33.49 13.44 13.44 0 0 0-2.4 1.23 22.75 22.75 0 0 0-2.44 2.12 26 26 0 0 0-2.15 2.63 28.78 28.78 0 0 1-2.43 2.95 30.17 30.17 0 0 1-2.91 2.57c-.8.6-2.12 1.73-2.88 2.46s-2 2.07-2.8 3a5.82 5.82 0 0 0-.86 1.27 3.08 3.08 0 0 0 .85 0c1-.08 3.26-.12 5-.07s3.6 0 4.35 0a23.79 23.79 0 0 0 2.69-.39c.44-.1 1-.2 1.61-.28s.95-.13 1.3-.16a25.49 25.49 0 0 1 2.85-.06 8.16 8.16 0 0 0 2-.16 2.93 2.93 0 0 0 1-.55c.37-.38 1.33-1.21 2-1.79A6.84 6.84 0 0 0 39 57.93a4.9 4.9 0 0 0 .28-1.58A4.49 4.49 0 0 1 39.9 54a3.41 3.41 0 0 1 2.1-1.2 4.41 4.41 0 0 1 .67 0A3.46 3.46 0 0 1 44 53a2.69 2.69 0 0 1 1.3 1.59 3.21 3.21 0 0 0 .51.92 6 6 0 0 0 1.12.91 6.58 6.58 0 0 1 1.7 1.58 6.66 6.66 0 0 1 .92 2 4.67 4.67 0 0 0 .6 1.35 4.14 4.14 0 0 0 .53.56 4.52 4.52 0 0 0 .6.47 7 7 0 0 0 1.73.67 12.56 12.56 0 0 0 2.38.22h.74c.71 0 1.5-.13 2-.21a23.56 23.56 0 0 0 2.72-.66 15.5 15.5 0 0 1 3.09-.6 46.74 46.74 0 0 1 6.39.6 18.06 18.06 0 0 0 3.86.22 5.61 5.61 0 0 0-.64-1.34 38.89 38.89 0 0 0-2.33-3.18c-.66-.78-3.11-3.13-5.35-5.13s-4.66-4.28-5.43-5.13z" fill="url(#c)"/><path d="M98.65 107.33a27.34 27.34 0 0 0-1.37-4.18 24.35 24.35 0 0 0-2.11-3.67c-.68-.94-1.87-2.39-2.64-3.23s-3.53-3.36-6.12-5.61c-1.47-1.27-3.28-2.74-4.95-4-1.28-1-2.48-1.88-3.33-2.46-1.18-.8-2.52-1.64-3.6-2.27.76.59 1.47 1.21 2.17 1.79 2.6 2.25 5.35 4.77 6.12 5.61s2 2.29 2.64 3.23a24.35 24.35 0 0 1 2.11 3.67 27.34 27.34 0 0 1 1.37 4.18 31.58 31.58 0 0 1 .61 4.45 55.1 55.1 0 0 1-.83 8c-.52 3.16-1 6.49-1 7.39a25.37 25.37 0 0 0 .09 3.31 19.76 19.76 0 0 1 0 3.3 54.76 54.76 0 0 1-2 7.09 38 38 0 0 1-3.05 7.16 33.25 33.25 0 0 1-4.62 4.45c-1.86 1.52-4.08 3.44-4.94 4.28a23.61 23.61 0 0 1-3.34 2.64 23.45 23.45 0 0 1-3.86 1.81 19.23 19.23 0 0 1-3.89.88 13.33 13.33 0 0 1-3.52-.23 9.86 9.86 0 0 0-3.2-.15 9.35 9.35 0 0 0-2.93 1.13 11.27 11.27 0 0 1-2.87 1.23c-.81.19-5.55-.24-10.53-.94s-9.75-1.32-10.6-1.36a17.54 17.54 0 0 1-3.25-.56c-.94-.27-4.35-1.62-7.57-3l-1.47-.65c.24.35.47.67.68.94s.38.47.61.72a18.32 18.32 0 0 0 2.36 2.19 57.2 57.2 0 0 0 7.53 3.74c3.22 1.38 6.63 2.73 7.57 3a17.54 17.54 0 0 0 3.25.56c.85 0 5.62.65 10.6 1.36s9.72 1.13 10.53.94a11.27 11.27 0 0 0 2.87-1.23 9.35 9.35 0 0 1 2.93-1.13 9.86 9.86 0 0 1 3.2.15 13.33 13.33 0 0 0 3.52.23 19.23 19.23 0 0 0 3.89-.88 23.45 23.45 0 0 0 3.83-1.84 23.61 23.61 0 0 0 3.34-2.64c.85-.84 3.07-2.76 4.94-4.28a33.25 33.25 0 0 0 4.66-4.45 38 38 0 0 0 3.05-7.16 54.76 54.76 0 0 0 2-7.09 19.76 19.76 0 0 0 0-3.3 25.37 25.37 0 0 1-.09-3.31c0-.9.51-4.22 1-7.39a55.1 55.1 0 0 0 .83-8 31.58 31.58 0 0 0-.62-4.42z" fill="url(#b)"/><path d="M23.6 68a4 4 0 0 0-1.2 2.38c.12.41 1 .68 2 .6s3.19-.11 4.86-.07 3.67 0 4.45 0a24.64 24.64 0 0 0 2.83-.41 27.37 27.37 0 0 1 2.83-.5 24.29 24.29 0 0 1 2.71 0 9.14 9.14 0 0 0 2.28-.19 3.83 3.83 0 0 0 1.49-.81c.3-.31 1.18-1.08 2-1.71a7.43 7.43 0 0 0 1.78-2 5.47 5.47 0 0 0 .33-1.41 5 5 0 0 0 0-.57 3.69 3.69 0 0 1 .04-.65 5 5 0 0 1-.65-.66 5.63 5.63 0 0 1-.77-1.71 5.69 5.69 0 0 0-.75-1.7 5.61 5.61 0 0 0-1.37-1.25 6.87 6.87 0 0 1-1.35-1.11 4.14 4.14 0 0 1-.72-1.29 1.73 1.73 0 0 0-.77-1 3.11 3.11 0 0 0-1.51-.12 2.44 2.44 0 0 0-1.4.79 3.54 3.54 0 0 0-.46 1.77 5.87 5.87 0 0 1-.37 2 7.43 7.43 0 0 1-1.78 2c-.77.63-1.65 1.4-2 1.71a3.83 3.83 0 0 1-1.49.82 9.14 9.14 0 0 1-2.28.19 24.29 24.29 0 0 0-2.71.06c-.34 0-.79.09-1.25.16-.5.41-1 .87-1.48 1.28l-.43.4c-.8.74-2.09 2.1-2.86 3z" fill="url(#d)"/><path d="M66.54 52.2c2.3 2 4.76 4.41 5.45 5.24a39.44 39.44 0 0 1 2.41 3.28 4.06 4.06 0 0 1 .84 2.56c-.17.43-2.44.47-5.05.09a47.3 47.3 0 0 0-6.19-.6 14.46 14.46 0 0 0-2.85.56 24.26 24.26 0 0 1-2.86.7c-.56.09-1.39.18-2.1.22a5.87 5.87 0 0 1 1.08.91 3.46 3.46 0 0 1 .26.32 5.69 5.69 0 0 1 .75 1.7 5.63 5.63 0 0 0 .77 1.71 6 6 0 0 0 1.42 1.29 8 8 0 0 0 2 .8 13.78 13.78 0 0 0 2.61.24A23 23 0 0 0 68 71a24.26 24.26 0 0 0 2.86-.7 14.46 14.46 0 0 1 2.85-.56 47.3 47.3 0 0 1 6.18.59c2.61.38 4.89.34 5.05-.09a4.06 4.06 0 0 0-.84-2.56 39.44 39.44 0 0 0-2.41-3.28c-.7-.83-3.15-3.19-5.45-5.24s-4.73-4.37-5.41-5.16a36.32 36.32 0 0 1-2.29-2.94 11.27 11.27 0 0 0-2.39-2.46 8.91 8.91 0 0 0-2.93-1.2l-.43-.07c-.49-.07-1.06-.15-1.61-.21.74.88 3.11 3.08 5.36 5.08z" fill="url(#e)"/></svg>