<svg xmlns="http://www.w3.org/2000/svg" xmlns:xlink="http://www.w3.org/1999/xlink" width="93.58" height="200" viewBox="0 0 93.58 200"><defs><linearGradient id="a" x1="27.85" y1="152.93" x2="62.2" y2="75.79" gradientUnits="userSpaceOnUse"><stop offset="0" stop-color="#fdba56"/><stop offset=".02" stop-color="#fbb055"/><stop offset=".06" stop-color="#f79d54"/><stop offset=".1" stop-color="#f59253"/><stop offset=".15" stop-color="#f48e53"/><stop offset=".3" stop-color="#ed5e4e"/><stop offset=".47" stop-color="#683a96" stop-opacity=".5"/><stop offset=".64" stop-color="#ed872b"/><stop offset=".79" stop-color="#7b76b6"/><stop offset=".9" stop-color="#f15f4f"/><stop offset="1" stop-color="#fdba56"/></linearGradient><linearGradient id="c" x1="36.06" y1="70.77" x2="51.89" y2="35.21" xlink:href="#a"/><linearGradient id="b" x1="43.58" y1="100.96" x2="70.68" y2="161.81" gradientUnits="userSpaceOnUse"><stop offset="0" stop-color="#b7151b"/><stop offset=".02" stop-color="#c52229"/><stop offset=".06" stop-color="#d7333c"/><stop offset=".11" stop-color="#e23d47"/><stop offset=".15" stop-color="#e6404b"/><stop offset=".3" stop-color="#e98a7b"/><stop offset=".47" stop-color="#7c78b8"/><stop offset=".64" stop-color="#00b0b0"/><stop offset=".79" stop-color="#7b76b6"/><stop offset="1" stop-color="#e7322f"/></linearGradient><linearGradient id="d" x1="49.82" y1="49.66" x2="59.95" y2="72.41" xlink:href="#b"/></defs><title>_</title><path d="M77.05 83.77a16 16 0 0 0-2.93-2.48 22.86 22.86 0 0 0-3.61-1.76 23.15 23.15 0 0 0-3.92-.95 37.57 37.57 0 0 1-4.07-.79 24 24 0 0 1-3.4-1.23c-.76-.36-2.07-.91-2.86-1.19s-2.15-.71-3-.92-2.95-.58-4.65-.81a35.16 35.16 0 0 0-4.61-.35 25.56 25.56 0 0 0-3 .36 26.1 26.1 0 0 1-3.29.37 26.74 26.74 0 0 1-3.35-.13 16.34 16.34 0 0 0-1.71-.08h-1.27a44.66 44.66 0 0 0-6.51 2.07A34.94 34.94 0 0 0 18.35 79a17.65 17.65 0 0 0-2.66 2.87 33.11 33.11 0 0 1-2.81 3.37 30.79 30.79 0 0 1-3.25 2.8 13 13 0 0 0-2.54 2.56 13 13 0 0 0-1.51 3.28c-.31 1.13-1.09 3.45-1.75 5.17a44.09 44.09 0 0 1-2 4.64c-.45.8-1.28 2.11-1.84 2.93a17.75 17.75 0 0 0-1.51 2.77 16 16 0 0 0-.81 2.92 10.22 10.22 0 0 0 0 2.84A11.24 11.24 0 0 0-1.22 118c.49.85 1.48 2.86 2.2 4.47a15.4 15.4 0 0 1 1.39 4.91 15 15 0 0 1-.61 3.76 8.16 8.16 0 0 0-.21 3.17 10.26 10.26 0 0 0 1.4 3.2 22.94 22.94 0 0 0 2.64 3 59.79 59.79 0 0 0 6.77 4.51l1.26.72c3.25 1.8 8.37 4.3 12.16 5.93 4.05 1.75 8.8 3.92 9.74 4.55a6.16 6.16 0 0 0 2.43.88 6.17 6.17 0 0 0 2.58-.56 28.18 28.18 0 0 1 3.25-1.28 22.34 22.34 0 0 1 3.19-.69 15.78 15.78 0 0 1 3.29 0 19.2 19.2 0 0 1 3.39.81 6.66 6.66 0 0 0 2.61.3 6.27 6.27 0 0 0 2.33-1.06 29.82 29.82 0 0 1 3-2c1-.58 4.68-2.09 7.6-3.21a42.25 42.25 0 0 0 7.2-3.37 42.93 42.93 0 0 0 4.95-6.35 63.17 63.17 0 0 0 4.13-6.82 12.88 12.88 0 0 0 .72-3.09 17.56 17.56 0 0 1 .68-3.51 18.74 18.74 0 0 1 1.54-3.27 7.28 7.28 0 0 0 .87-2.66 7.74 7.74 0 0 0-.52-2.82 16.18 16.18 0 0 1-1-3.9 21.55 21.55 0 0 1 .11-4.37 18.36 18.36 0 0 0 0-4 18 18 0 0 0-1.06-3.86c-.46-1.09-1.27-2.78-1.8-3.76s-1.43-2.5-2-3.37-2-3.37-3-5.45c-.49-1-1.13-2.15-1.74-3.16a16 16 0 0 0-1.22-1.88z" fill="url(#a)"/><path d="M72.54 46.23a13 13 0 0 0 .37-1.63 3.5 3.5 0 0 1-1.53 0 5.05 5.05 0 0 1-2-1.15 9.06 9.06 0 0 0-1.34-1 5.39 5.39 0 0 0-1.24-.5 2.13 2.13 0 0 0-.93.08 4.06 4.06 0 0 0-1.09.81 4.59 4.59 0 0 0-.72 1.16 1.56 1.56 0 0 0 0 .7 1.65 1.65 0 0 1-1 2.05 5.62 5.62 0 0 1-2.36 0 10 10 0 0 0-1.92-.19 2.3 2.3 0 0 0-.85.22A26.09 26.09 0 0 1 55.52 48a10.14 10.14 0 0 1-3.31 1.08 10.26 10.26 0 0 1-2.77-.33c-.76-.21-3.33-1.11-5.86-2.05-2.23-.83-5-1.95-5.78-2.37s-1.8-1.03-2.51-1.52a3.67 3.67 0 0 0-2.1-.49 15.69 15.69 0 0 0-4.34 2.53c-1.79 1.37-5.14 4.25-7.46 6.41a32.13 32.13 0 0 0-4.78 5.25 7.65 7.65 0 0 0-.58 3 11.48 11.48 0 0 0 .34 2.41.67.67 0 0 0 .08.16 4.48 4.48 0 0 1 1.41.26 8.35 8.35 0 0 1 1.66.92 3.09 3.09 0 0 0 1.06.46 2.37 2.37 0 0 0 1-.17 6.59 6.59 0 0 1 1.85-.55 6.63 6.63 0 0 1 1.84.15.9.9 0 0 0 .37 0 2.89 2.89 0 0 0 .17-.82 4.45 4.45 0 0 1 .76-2.33 3.85 3.85 0 0 1 2.06-1.19 6 6 0 0 0 1.55-.62 9 9 0 0 0 1.53-1.28 4.25 4.25 0 0 1 2.81-1.2 8 8 0 0 1 3.29 1.14 25.57 25.57 0 0 0 2.73 1.44 19.86 19.86 0 0 0 3.93.79 17.37 17.37 0 0 1 4.16.89 9.55 9.55 0 0 1 2 1.43 5.44 5.44 0 0 0 1.4.95 4 4 0 0 0 1.45.21 9.61 9.61 0 0 0 2.04-.56c.63-.25 3.22-1.57 6.06-3.15a48 48 0 0 0 5.84-3.68 18 18 0 0 0 2.1-2.48c.12-.17.24-.37.38-.58a27.19 27.19 0 0 0 1.35-2.46 30.53 30.53 0 0 0 1.29-3.42z" fill="url(#c)"/><path d="M79.17 85.11c.6 1 1.25 2.16 1.78 3.24 1 2 2.31 4.43 2.91 5.33s1.54 2.45 2.07 3.46 1.36 2.73 1.84 3.84a19 19 0 0 1 1.14 4.12 19.3 19.3 0 0 1 0 4.3 20.82 20.82 0 0 0-.11 4.13 15.31 15.31 0 0 0 .9 3.62 8.7 8.7 0 0 1 .6 3.27 8.24 8.24 0 0 1-1 3.11 18 18 0 0 0-1.43 3.11 16.66 16.66 0 0 0-.63 3.27 13.9 13.9 0 0 1-.79 3.38 62.46 62.46 0 0 1-4.23 7 42.76 42.76 0 0 1-5.22 6.59 42.26 42.26 0 0 1-7.47 3.52c-3.23 1.24-6.59 2.66-7.47 3.15a28.41 28.41 0 0 0-2.92 1.92 7.25 7.25 0 0 1-2.79 1.25 7.63 7.63 0 0 1-3.09-.34 18.4 18.4 0 0 0-3.18-.76 14.91 14.91 0 0 0-3 0 21.67 21.67 0 0 0-3 .66A27.24 27.24 0 0 0 41 157.5a7.39 7.39 0 0 1-3.07.65 7.14 7.14 0 0 1-2.93-1.04c-.78-.52-5.09-2.53-9.58-4.46-3.91-1.68-9-4.19-12.25-6a20.87 20.87 0 0 0 1.48 1.57 16.17 16.17 0 0 0 1.43 1.1c1.4 1 3.48 2.33 5.51 3.54a145.43 145.43 0 0 0 13.54 6.71c4.48 1.93 8.79 3.94 9.58 4.46a7.14 7.14 0 0 0 2.92 1.05 7.39 7.39 0 0 0 3.07-.65 27.24 27.24 0 0 1 3.11-1.22 21.67 21.67 0 0 1 3-.66 14.91 14.91 0 0 1 3 0 18.4 18.4 0 0 1 3.18.76 7.63 7.63 0 0 0 3.09.34 7.25 7.25 0 0 0 2.79-1.25 28.41 28.41 0 0 1 2.92-1.92c.88-.49 4.24-1.91 7.47-3.15a42.26 42.26 0 0 0 7.47-3.52 42.76 42.76 0 0 0 5.16-6.58 62.46 62.46 0 0 0 4.23-7 13.9 13.9 0 0 0 .79-3.38 16.66 16.66 0 0 1 .63-3.27 18 18 0 0 1 1.46-3.11 8.24 8.24 0 0 0 1-3.11 8.7 8.7 0 0 0-.6-3.27 15.31 15.31 0 0 1-.9-3.62 20.82 20.82 0 0 1 .11-4.13 19.3 19.3 0 0 0 0-4.3 19 19 0 0 0-1.14-4.12c-.47-1.11-1.3-2.84-1.84-3.84s-1.47-2.56-2.07-3.46-1.91-3.3-2.91-5.33a31.48 31.48 0 0 0-3.15-5.23 17 17 0 0 0-3.16-2.68 23.85 23.85 0 0 0-3.78-1.85c-.39-.14-.88-.28-1.39-.42z" fill="url(#b)"/><path d="M72.71 51.22a2 2 0 0 0 .06.66.66.66 0 0 1-.36.82 2 2 0 0 1-.55.05 6.75 6.75 0 0 1-1.11-.1c-.14.23-.28.44-.4.62a18.87 18.87 0 0 1-2.25 2.64 47.5 47.5 0 0 1-6 3.82c-2.64 1.47-5.42 2.92-6.18 3.21a10.58 10.58 0 0 1-2.37.62 5 5 0 0 1-1.9-.28 6.38 6.38 0 0 1-1.73-1.16 8.56 8.56 0 0 0-1.71-1.25 16.61 16.61 0 0 0-3.82-.78 20.48 20.48 0 0 1-4.21-.87 26.39 26.39 0 0 1-2.87-1.5 7 7 0 0 0-2.79-1 3.1 3.1 0 0 0-2.05.88 9.92 9.92 0 0 1-1.74 1.46 6.93 6.93 0 0 1-1.87.74 2.88 2.88 0 0 0-1.48.83 3.5 3.5 0 0 0-.55 1.73 2.79 2.79 0 0 1-.47 1.52 1.4 1.4 0 0 1-1.23.22H25a10 10 0 0 0-.2 1 7.13 7.13 0 0 0-.1 1.37 12 12 0 0 0 .4 2.71 1.1 1.1 0 0 0 .9.82 3.24 3.24 0 0 1 1.22.19 7.45 7.45 0 0 1 1.42.79 4 4 0 0 0 1.52.64 3.29 3.29 0 0 0 1.52-.26 5.58 5.58 0 0 1 1.54-.43 5.49 5.49 0 0 1 1.58.14 1.4 1.4 0 0 0 1.2-.23 2.79 2.79 0 0 0 .47-1.52 3.5 3.5 0 0 1 .55-1.73 2.88 2.88 0 0 1 1.48-.83 6.93 6.93 0 0 0 1.91-.76 9.92 9.92 0 0 0 1.74-1.46 3.1 3.1 0 0 1 2.05-.88 7 7 0 0 1 2.79 1 26.39 26.39 0 0 0 2.87 1.5 20.48 20.48 0 0 0 4.21.87 16.61 16.61 0 0 1 3.82.78 8.56 8.56 0 0 1 1.71 1.25 6.38 6.38 0 0 0 1.73 1.16 5 5 0 0 0 1.9.28 10.58 10.58 0 0 0 2.37-.62c.76-.29 3.54-1.74 6.18-3.21a47.5 47.5 0 0 0 6-3.82 18.87 18.87 0 0 0 2.25-2.64A27.65 27.65 0 0 0 81.87 57a31.22 31.22 0 0 0 1.35-3.57 9.43 9.43 0 0 0 .47-2.64.54.54 0 0 0-.84-.4 2.62 2.62 0 0 1-1.5.18 4.12 4.12 0 0 1-1.52-.91 10 10 0 0 0-1.53-1.17 6.35 6.35 0 0 0-1.54-.61 3.06 3.06 0 0 0-1.51.13 5 5 0 0 0-1.45 1.05l-.27.32a5 5 0 0 0-.69 1.13 2.38 2.38 0 0 0-.13.71z" fill="url(#d)"/></svg>