<svg xmlns="http://www.w3.org/2000/svg" xmlns:xlink="http://www.w3.org/1999/xlink" width="93.8" height="200" viewBox="0 0 93.8 200"><defs><linearGradient id="b" x1="17.26" y1="167.09" x2="62.68" y2="65.09" gradientUnits="userSpaceOnUse"><stop offset="0" stop-color="#fdba56"/><stop offset=".02" stop-color="#fbb055"/><stop offset=".06" stop-color="#f79d54"/><stop offset=".1" stop-color="#f59253"/><stop offset=".15" stop-color="#f48e53"/><stop offset=".3" stop-color="#ed5e4e"/><stop offset=".47" stop-color="#683a96" stop-opacity=".5"/><stop offset=".64" stop-color="#ed872b"/><stop offset=".79" stop-color="#7b76b6"/><stop offset=".9" stop-color="#f15f4f"/><stop offset="1" stop-color="#fdba56"/></linearGradient><linearGradient id="a" x1="12.92" y1="149.19" x2="13.25" y2="149.93" gradientUnits="userSpaceOnUse"><stop offset="0" stop-color="#b7151b"/><stop offset=".02" stop-color="#c52229"/><stop offset=".06" stop-color="#d7333c"/><stop offset=".11" stop-color="#e23d47"/><stop offset=".15" stop-color="#e6404b"/><stop offset=".3" stop-color="#e98a7b"/><stop offset=".47" stop-color="#7c78b8"/><stop offset=".64" stop-color="#00b0b0"/><stop offset=".79" stop-color="#7b76b6"/><stop offset="1" stop-color="#e7322f"/></linearGradient><linearGradient id="c" x1="36.16" y1="92.58" x2="67.02" y2="161.89" xlink:href="#a"/></defs><title>_</title><path d="M70.53 81c-.64-1.09-1.23-2.08-1.41-2.35a2.74 2.74 0 0 1-.42-2c.2-.8 1.63-1.89 2.47-2.46A11.78 11.78 0 0 0 73 72.7a1.43 1.43 0 0 0 0-.51 4.35 4.35 0 0 0-.27-.81 1.12 1.12 0 0 0-.2-.25 3.62 3.62 0 0 1-.85-.83 8 8 0 0 1-.68-1.19 1.68 1.68 0 0 0-.4-.5 1.79 1.79 0 0 0-.65-.16 12.1 12.1 0 0 1-1.27-.07l-.32-.06a2.62 2.62 0 0 1-1.23 1.31 7.73 7.73 0 0 1-2.08.56 2.66 2.66 0 0 0-1.08.4 1.24 1.24 0 0 0-.17.65 4 4 0 0 1-.41 2.07 3.14 3.14 0 0 1-1.65 1.23 7.55 7.55 0 0 1-1.77.28 26.7 26.7 0 0 1-3.97-.75c-1.58-.4-4.67-1-6.87-1.28s-4.78-.75-5.65-1a7.24 7.24 0 0 0-2.55-.15 9.78 9.78 0 0 0-2.71 1A20.28 20.28 0 0 1 35 74.18a16.53 16.53 0 0 1-3.33.68c-.81.06-2.86.37-4.48.67a43.29 43.29 0 0 0-6.45 2 85.4 85.4 0 0 0-10.5 6c-4.28 2.79-7.49 5.38-7.9 6A10.27 10.27 0 0 0 1.06 93C.89 94.22.42 96.75 0 98.61a46.91 46.91 0 0 1-2 6.46 42.88 42.88 0 0 0-1.56 4.34 18.76 18.76 0 0 0-.44 2.93 16.91 16.91 0 0 0 .15 2.89 15.78 15.78 0 0 0 .75 2.71 12.23 12.23 0 0 1 .72 3.21 13 13 0 0 1-.33 3.32 11.54 11.54 0 0 0-.14 3.23 27 27 0 0 0 1 4.38 32.83 32.83 0 0 0 2 4.6 29.62 29.62 0 0 0 2.75 4A29.5 29.5 0 0 0 6.39 144a32.5 32.5 0 0 0 4.21 2.68 17.16 17.16 0 0 1 2.8 1.8 5.11 5.11 0 0 1 .71.67l.12.18a2.42 2.42 0 0 1 0 2.93c-.41.46-1.1 1.15-1.53 1.54a19.07 19.07 0 0 1-1.59 1.26 8 8 0 0 0-1.14 1 6.85 6.85 0 0 0-.8 1.18 13.68 13.68 0 0 0-.6 1.43 13.83 13.83 0 0 0-.39 1.5 8.77 8.77 0 0 0-.18 1.4 6.26 6.26 0 0 0 .15 1.19 1 1 0 0 0 .21.37.63.63 0 0 1 .19 0h.22a5.47 5.47 0 0 1 1-.09 4 4 0 0 1 .67 0 3.83 3.83 0 0 1 1.46.63 9.39 9.39 0 0 0 .84.55c.2.12.57.29.83.4a3.32 3.32 0 0 0 .24-.66c.12-.53.48-1.73.82-2.73a6.85 6.85 0 0 1 1.63-2.76 7.17 7.17 0 0 1 2.23-1.07 3.86 3.86 0 0 0 1.35-.71 2.53 2.53 0 0 0 .52-1.08 2.75 2.75 0 0 1 .15-.55 2.08 2.08 0 0 1 1.42-1.38 4 4 0 0 1 2.48.74 5.68 5.68 0 0 0 1.89.73 6.07 6.07 0 0 0 2.08-.2 9 9 0 0 1 2.92-.33 8.47 8.47 0 0 1 2.77.85 13.63 13.63 0 0 0 2.17.9 12.82 12.82 0 0 0 2.26.4 14.88 14.88 0 0 0 2.45-.1 21.34 21.34 0 0 0 2.73-.62 16.47 16.47 0 0 1 3.28-.6 17.16 17.16 0 0 1 3.36.2 10 10 0 0 0 2.73 0 79.64 79.64 0 0 0 9.71-5.25l6.57-3.93c5.21-3.12 9-5.89 9.47-6.51a33 33 0 0 0 2.6-6.79c.87-3 2.17-6.91 2.91-8.63a44.19 44.19 0 0 0 1.69-4.45 21.25 21.25 0 0 0 .51-3.07 15.5 15.5 0 0 0-.14-3.06 17.27 17.27 0 0 0-.89-3.06c-.38-.92-1.13-3.12-1.66-4.9a25.86 25.86 0 0 1-1-5 17.66 17.66 0 0 1 .3-3.37 5.07 5.07 0 0 0-.12-2.27 4.52 4.52 0 0 0-1.35-1.65 33.79 33.79 0 0 1-2.65-2.2c-.78-.71-2.07-2-2.89-2.91s-2-2.31-2.65-3.15-1.78-2.6-2.55-3.93z" fill="url(#b)"/><path d="M12.78 149.26l.61.61v-.07a4.26 4.26 0 0 0-.61-.54z" fill="url(#a)"/><path d="M96.11 117.46c-.37-.9-1.1-3.06-1.62-4.81a24.91 24.91 0 0 1-1-4.75 16.76 16.76 0 0 1 .28-3.15 6 6 0 0 0-.14-2.8 5.49 5.49 0 0 0-1.71-2.11 32.89 32.89 0 0 1-2.61-2.13c-.75-.68-2-2-2.83-2.85s-2-2.27-2.59-3.08-1.7-2.53-2.45-3.78-1.55-2.63-1.77-3a1.77 1.77 0 0 1-.28-1.18 6.9 6.9 0 0 1 2.06-1.87 9.12 9.12 0 0 0 2.16-1.85 2.25 2.25 0 0 0 .08-1.18 5.15 5.15 0 0 0-.37-1.07 1.86 1.86 0 0 0-.53-.61 2.72 2.72 0 0 1-.6-.59 7.3 7.3 0 0 1-.58-1 2.54 2.54 0 0 0-.77-.92 2.63 2.63 0 0 0-1.18-.31 11.33 11.33 0 0 1-1.14-.06 2.6 2.6 0 0 1-.68-.18.35.35 0 0 0-.4.07 1.91 1.91 0 0 0-.3.67 1.55 1.55 0 0 1-.75.8 6.8 6.8 0 0 1-1.75.46 3.39 3.39 0 0 0-1.66.67 2.09 2.09 0 0 0-.46 1.44 3 3 0 0 1-.27 1.48l-.06.08a2.19 2.19 0 0 1-.8.62l.34.53c.75 1.29 1.86 3 2.48 3.82S76 87 76.8 87.93s2.08 2.16 2.83 2.85a32.89 32.89 0 0 0 2.61 2.13A5.49 5.49 0 0 1 83.95 95a6 6 0 0 1 .14 2.8 16.76 16.76 0 0 0-.29 3.2 24.91 24.91 0 0 0 1 4.75c.52 1.75 1.25 3.91 1.62 4.81a18.21 18.21 0 0 1 1 3.28 16.5 16.5 0 0 1 .15 3.3 22.25 22.25 0 0 1-.54 3.25 44.71 44.71 0 0 1-1.79 4.61c-.72 1.68-2 5.51-2.87 8.51a33.11 33.11 0 0 1-2.75 7.1c-.65.91-5 4-9.77 6.79l-6.57 3.93c-4.72 2.83-9.25 5.25-10.06 5.38a10.91 10.91 0 0 1-3.07 0 16.2 16.2 0 0 0-3.13-.19 15.67 15.67 0 0 0-3 .55 22.17 22.17 0 0 1-2.89.65 16 16 0 0 1-2.65.11 13.94 13.94 0 0 1-2.48-.44 14.71 14.71 0 0 1-2.37-1 7.43 7.43 0 0 0-2.39-.73 8 8 0 0 0-2.54.29 7 7 0 0 1-2.51.24 6.62 6.62 0 0 1-2.3-.89 3.09 3.09 0 0 0-1.73-.6 1.15 1.15 0 0 0-.68.75c.32.21.61.42.86.62a5 5 0 0 1 .74.67 1.46 1.46 0 0 1 .11 1.81c-.39.44-1 1.1-1.45 1.46a18.32 18.32 0 0 1-1.49 1.18 8.9 8.9 0 0 0-1.32 1.16 7.9 7.9 0 0 0-.95 1.4 12.08 12.08 0 0 0-1.08 3.19 9.67 9.67 0 0 0-.15 1.59 7.16 7.16 0 0 0 .18 1.43 1.77 1.77 0 0 0 .62.95 1.93 1.93 0 0 0 1.16.13 4.34 4.34 0 0 1 1.3 0 2.86 2.86 0 0 1 1 .44 10.35 10.35 0 0 0 .95.62 10.73 10.73 0 0 0 1 .5.94.94 0 0 0 .91-.13 3.05 3.05 0 0 0 .59-1.27c.12-.5.47-1.69.79-2.64a6 6 0 0 1 1.31-2.3 6.27 6.27 0 0 1 1.87-.89 4.8 4.8 0 0 0 1.79-1 3.45 3.45 0 0 0 .8-1.63 1.35 1.35 0 0 1 .78-1.11 3.09 3.09 0 0 1 1.73.6 6.62 6.62 0 0 0 2.3.89 7 7 0 0 0 2.51-.24 8 8 0 0 1 2.54-.29 7.43 7.43 0 0 1 2.39.73 14.71 14.71 0 0 0 2.37 1 13.94 13.94 0 0 0 2.48.44 16 16 0 0 0 2.65-.11 22.17 22.17 0 0 0 2.89-.65 15.67 15.67 0 0 1 3-.55 16.2 16.2 0 0 1 3.13.19 10.91 10.91 0 0 0 3.07 0c.82-.14 5.34-2.56 10.06-5.38l6.57-3.93c4.72-2.83 9.11-5.88 9.77-6.79a33.11 33.11 0 0 0 2.75-7.1c.86-3 2.15-6.83 2.87-8.51a44.71 44.71 0 0 0 1.72-4.65 22.25 22.25 0 0 0 .54-3.25 16.5 16.5 0 0 0-.15-3.3 18.21 18.21 0 0 0-.88-3.27z" fill="url(#c)"/></svg>