<svg xmlns="http://www.w3.org/2000/svg" xmlns:xlink="http://www.w3.org/1999/xlink" width="200" height="200" viewBox="0 0 200 200"><defs><linearGradient id="a" x1="75.09" y1="156.77" x2="116.13" y2="64.6" gradientUnits="userSpaceOnUse"><stop offset="0" stop-color="#fdba56"/><stop offset=".02" stop-color="#fbb055"/><stop offset=".06" stop-color="#f79d54"/><stop offset=".1" stop-color="#f59253"/><stop offset=".15" stop-color="#f48e53"/><stop offset=".3" stop-color="#ed5e4e"/><stop offset=".47" stop-color="#683a96" stop-opacity=".5"/><stop offset=".64" stop-color="#ed872b"/><stop offset=".79" stop-color="#7b76b6"/><stop offset=".9" stop-color="#f15f4f"/><stop offset="1" stop-color="#fdba56"/></linearGradient><linearGradient id="c" x1="84.09" y1="60.31" x2="92.3" y2="41.87" xlink:href="#a"/><linearGradient id="b" x1="86.03" y1="145.79" x2="94.91" y2="165.74" gradientUnits="userSpaceOnUse"><stop offset="0" stop-color="#b7151b"/><stop offset=".02" stop-color="#c52229"/><stop offset=".06" stop-color="#d7333c"/><stop offset=".11" stop-color="#e23d47"/><stop offset=".15" stop-color="#e6404b"/><stop offset=".3" stop-color="#e98a7b"/><stop offset=".47" stop-color="#7c78b8"/><stop offset=".64" stop-color="#00b0b0"/><stop offset=".79" stop-color="#7b76b6"/><stop offset="1" stop-color="#e7322f"/></linearGradient><linearGradient id="d" x1="79.16" y1="82.22" x2="99.22" y2="127.28" xlink:href="#b"/><linearGradient id="e" x1="118.79" y1="89.22" x2="149.41" y2="158.01" xlink:href="#b"/><linearGradient id="f" x1="99.21" y1="48.26" x2="110.75" y2="74.17" xlink:href="#b"/><linearGradient id="g" x1="83.51" y1="55.64" x2="85.48" y2="60.05" xlink:href="#b"/></defs><title>_</title><path d="M118.48 152.58a30.32 30.32 0 0 1 5.05-.43 20.68 20.68 0 0 1 3.94.89 10.62 10.62 0 0 0 3.16.51 8 8 0 0 0 2.77-.79 15.12 15.12 0 0 0 2.45-1.71 11.49 11.49 0 0 0 1.72-2.07 6.83 6.83 0 0 0 .77-2.33 10 10 0 0 0-.28-2.86 31.79 31.79 0 0 1-.69-3.57c-.13-1.1-.15-6.88-.09-11.84l.08-6.9c.06-4.94.2-10.7.34-11.79a14.65 14.65 0 0 0 0-3.1 16.25 16.25 0 0 0-.84-3.13 15 15 0 0 1-.88-3.65 14 14 0 0 1 .28-3.67c.21-.89.48-2.38.6-3.26a65.65 65.65 0 0 0 .08-6.57c0-2-.07-4.1-.05-5.59v-1.35a38.2 38.2 0 0 1 .5-3.86 2.28 2.28 0 0 0-.15-1.49 5.58 5.58 0 0 0-2.22.36 14.43 14.43 0 0 1-4.69.78 13.47 13.47 0 0 1-4.5-1.12 10.87 10.87 0 0 0-3.59-.89 10.76 10.76 0 0 0-3.58.75 17.2 17.2 0 0 1-4.28 1.17 15.38 15.38 0 0 1-4.28-.25 3.51 3.51 0 0 0-2.4.34 6.09 6.09 0 0 0-1.45 2.84 22.73 22.73 0 0 0-.48 4.56 81.7 81.7 0 0 0 1.59 9.5 58.28 58.28 0 0 1 1.45 10A30 30 0 0 1 108 107c-.35 1.3-.78 3.35-1 4.57a40.5 40.5 0 0 0-.39 4.19 38.26 38.26 0 0 1-.35 4 26 26 0 0 1-.82 3.46c-.29.86-1.11 2.84-1.83 4.41s-1.92 3.35-3 3.82-4.45.18-6-.07c-.65-.1-1.3-.21-1.91-.33a21 21 0 0 1-3.58-.89 6 6 0 0 1-1.81-1.5 12.18 12.18 0 0 0-1.28-1.38 21.25 21.25 0 0 0-1.83-1.42 6.51 6.51 0 0 1-2-2.45 10.24 10.24 0 0 1-.64-3.45 27.21 27.21 0 0 0-.22-3.21 19.12 19.12 0 0 0-.65-2.76 27.17 27.17 0 0 1-.77-2.85 25.1 25.1 0 0 1-.37-2.86 19.13 19.13 0 0 1 .09-2.91 20.21 20.21 0 0 1 .61-2.89 12 12 0 0 0 .45-2.48 11.68 11.68 0 0 0-.23-2.47 11.37 11.37 0 0 1-.2-3 12.31 12.31 0 0 1 .77-3 17.89 17.89 0 0 0 .81-2.53c.13-.6.32-4.24.39-8.5a27.3 27.3 0 0 0-.57-7.12 28.55 28.55 0 0 0-6.58.82 74.93 74.93 0 0 1-8.55 1.43 22.31 22.31 0 0 1-4.23-.37 26.54 26.54 0 0 0-3.66-.44h-.32a19.64 19.64 0 0 0-3 .23 9 9 0 0 0-2.46.86 5.09 5.09 0 0 0-1.43 1.43 14.66 14.66 0 0 0-1 2.21 20.69 20.69 0 0 0-.65 2.69 7.63 7.63 0 0 0 .21 2.6 11 11 0 0 0 1.37 2.76 7.12 7.12 0 0 1 1.27 3.66 7.23 7.23 0 0 1-1.34 3.65 5.73 5.73 0 0 0-1 2.51 5.27 5.27 0 0 0 .8 2.48 8.64 8.64 0 0 1 1.29 3.56 7.72 7.72 0 0 1-.83 3.61 23.72 23.72 0 0 0-1.24 2.93 19.59 19.59 0 0 0-.68 2.89 9.68 9.68 0 0 0 .11 2.72 12 12 0 0 0 1.11 2.79 24.25 24.25 0 0 1 1.54 3.39 61.63 61.63 0 0 1 1.44 7.35c.48 3.24 1 6.18 1.24 6.9a18.63 18.63 0 0 0 1 2.66 20.49 20.49 0 0 1 1.17 2.94 26.07 26.07 0 0 1 .69 3.32 10.35 10.35 0 0 0 .79 2.68 7.88 7.88 0 0 0 1.54 2 18.08 18.08 0 0 0 2.21 1.57 49.65 49.65 0 0 0 5.06 2.07l.28.1c2.28.82 4.88 1.68 5.67 1.89s2.16.49 3 .62a11.75 11.75 0 0 0 3.09-.08 22.81 22.81 0 0 0 3.85-1.19 21.73 21.73 0 0 1 4.62-1.28 19.43 19.43 0 0 1 4.64 0 6.8 6.8 0 0 0 3.25-.38 6.88 6.88 0 0 0 2.33-2.3 19.2 19.2 0 0 1 2.71-3.5 18.65 18.65 0 0 1 4.19-2.75c2.76-1.31 3.05-1.45 3.55-.64l.47.76-.34.27a7 7 0 0 0 .5.73 4.43 4.43 0 0 1 .88 2 3.86 3.86 0 0 1-.5 2.09 7.12 7.12 0 0 0-.59 1.49 13.9 13.9 0 0 0-.3 2.1.85.85 0 0 0 .29.68 15.49 15.49 0 0 0 2.22-.14c1.22-.14 2.69-.36 4.11-.63 1.03-.23 2.05-.4 3.02-.54z" fill="url(#a)"/><path d="M100.28 47.71a8.07 8.07 0 0 0-1-2 13.89 13.89 0 0 0-3.8-2.43c-1.75-.8-4-1.81-4.91-2.23a16.3 16.3 0 0 0-3.38-1 18.39 18.39 0 0 0-3.71-.05c-1.15.11-5.94.23-10.69.27-3 0-5.3.16-6.7.31.22.15.48.31.77.46A20.49 20.49 0 0 1 71 44.15a18.17 18.17 0 0 1 2.86 4.08 11.92 11.92 0 0 0 2.44 3.22 12 12 0 0 0 3.58 1.91 14.48 14.48 0 0 1 3.54 1.75 9 9 0 0 1 .81.61A15.28 15.28 0 0 1 87 59.25c.1.17.19.33.27.49a10.23 10.23 0 0 0 2.19 2.9 3.6 3.6 0 0 0 2.17.6c.48-.07 1.18-.2 1.87-.35l1-.24a23.75 23.75 0 0 0 2.62-.93 10.09 10.09 0 0 1 3-.74 9.32 9.32 0 0 1 3 .41 18.85 18.85 0 0 0 2.74.61 30.54 30.54 0 0 0 3.33.21 3.13 3.13 0 0 0 .87-.12 31.3 31.3 0 0 0-3.31-4.1 47.42 47.42 0 0 1-4.93-6.05 18.26 18.26 0 0 1-1.32-3.54 6.89 6.89 0 0 0-.22-.69z" fill="url(#c)"/><path d="M111.49 154.71a9.28 9.28 0 0 1-2.7.08 1.76 1.76 0 0 1-.92-1.67 14.71 14.71 0 0 1 .33-2.29 8 8 0 0 1 .7-1.75 2.88 2.88 0 0 0 .37-1.48 3.44 3.44 0 0 0-.66-1.48 6.19 6.19 0 0 1-.77-1.2.61.61 0 0 1 .05-.64 19.49 19.49 0 0 0-2.26 1 17.85 17.85 0 0 0-3.92 2.56 18.4 18.4 0 0 0-2.55 3.28 7.84 7.84 0 0 1-2.76 2.7 7.8 7.8 0 0 1-3.83.47 18.64 18.64 0 0 0-4.36 0 21 21 0 0 0-4.37 1.21 23.62 23.62 0 0 1-4.06 1.25 12.45 12.45 0 0 1-3.43.09c-.86-.14-2.23-.42-3.07-.64s-3.43-1.08-5.77-1.92l-.27-.1a7.36 7.36 0 0 0 .35.85c.07.13.16.28.25.43a8.93 8.93 0 0 0 1.53 1.84 19 19 0 0 0 2.36 1.7 52 52 0 0 0 5.5 2.25c2.34.84 4.94 1.7 5.77 1.92s2.21.5 3.07.64a12.45 12.45 0 0 0 3.43-.09 23.62 23.62 0 0 0 4.06-1.25 21 21 0 0 1 4.37-1.21 18.64 18.64 0 0 1 4.36 0 7.8 7.8 0 0 0 3.83-.47 7.84 7.84 0 0 0 2.76-2.7 18.72 18.72 0 0 1 1.61-2.26 12.88 12.88 0 0 1 .93-1z" fill="url(#b)"/><path d="M83.25 80.47c-.07 4-.25 7.95-.42 8.7a18.87 18.87 0 0 1-.83 2.72 11.33 11.33 0 0 0-.7 2.72 10.38 10.38 0 0 0 .18 2.72 12.7 12.7 0 0 1 .26 2.72 13.07 13.07 0 0 1-.46 2.72 19.55 19.55 0 0 0-.58 2.72 18.32 18.32 0 0 0-.09 2.72 24.09 24.09 0 0 0 .35 2.72 26.09 26.09 0 0 0 .73 2.72 20.19 20.19 0 0 1 .7 2.94 28 28 0 0 1 .23 3.36 9.25 9.25 0 0 0 .55 3.05 5.57 5.57 0 0 0 1.65 2 22.09 22.09 0 0 1 1.94 1.51 13.3 13.3 0 0 1 1.41 1.52 5 5 0 0 0 1.46 1.21 20.17 20.17 0 0 0 3.31.8l-.09-.04a5.8 5.8 0 0 1-.3-1 10.08 10.08 0 0 1-.26-2.08 28 28 0 0 0-.23-3.36 20.19 20.19 0 0 0-.7-2.94 26.09 26.09 0 0 1-.73-2.72 24.09 24.09 0 0 1-.35-2.72 18.32 18.32 0 0 1 .09-2.72 19.55 19.55 0 0 1 .58-2.72 13.07 13.07 0 0 0 .46-2.72 12.7 12.7 0 0 0-.26-2.72 10.38 10.38 0 0 1-.18-2.72 11.33 11.33 0 0 1 .7-2.72 18.87 18.87 0 0 0 .86-2.72c.16-.75.35-4.66.42-8.7s-.35-7.63-.94-8-3.92 0-7.42.7l-.35.07-1 .21v.07z" fill="url(#d)"/><path d="M148.08 147c-.11-.94-.15-6.2-.08-11.7l.08-6.9c.07-5.5.22-10.76.33-11.68a15.6 15.6 0 0 0 0-3.36 17.3 17.3 0 0 0-.91-3.36 14 14 0 0 1-.81-3.36 13 13 0 0 1 .26-3.36c.22-.92.49-2.44.62-3.36a66.34 66.34 0 0 0 .09-6.73c-.07-2.77-.08-5.86 0-6.85a37.12 37.12 0 0 1 .48-3.74 2.64 2.64 0 0 0-.56-2.49 4.71 4.71 0 0 0-3.13.24 13.79 13.79 0 0 1-4.32.72 8.71 8.71 0 0 1-1.23-.15c-.33-.06-.66-.13-1-.22 0 1.42 0 3.56.05 5.55a66.34 66.34 0 0 1-.09 6.73c-.12.92-.4 2.44-.62 3.36a13 13 0 0 0-.26 3.36 14 14 0 0 0 .81 3.36 17.3 17.3 0 0 1 .91 3.36 15.6 15.6 0 0 1 0 3.36c-.11.92-.26 6.18-.33 11.68l-.08 6.9c-.07 5.5 0 10.77.08 11.7a30.34 30.34 0 0 0 .66 3.44 10.89 10.89 0 0 1 .31 3.22 7.8 7.8 0 0 1-.91 2.74 12.57 12.57 0 0 1-1.9 2.29 16.18 16.18 0 0 1-2.65 1.85 9 9 0 0 1-3.2.9 11.25 11.25 0 0 1-3.54-.56 20 20 0 0 0-3.72-.84 27.73 27.73 0 0 0-4.8.43 3 3 0 0 1 .34 1 2.88 2.88 0 0 1-.37 1.48 8 8 0 0 0-.7 1.75 14.71 14.71 0 0 0-.33 2.29 1.76 1.76 0 0 0 .92 1.67c.55.22 3.65-.11 6.89-.72a42.68 42.68 0 0 1 7.75-.92 20 20 0 0 1 3.72.84 11.25 11.25 0 0 0 3.54.56 9 9 0 0 0 3.2-.9 16.18 16.18 0 0 0 2.65-1.85 12.57 12.57 0 0 0 1.9-2.29 7.8 7.8 0 0 0 .91-2.74 10.89 10.89 0 0 0-.31-3.22 30.34 30.34 0 0 1-.65-3.48z" fill="url(#e)"/><path d="M101.47 48.16a17.46 17.46 0 0 0 1.24 3.32 47 47 0 0 0 4.78 5.84c2.19 2.37 3.89 4.66 3.78 5.1s-1 .79-2.07.79a31.19 31.19 0 0 1-3.47-.22 19.79 19.79 0 0 1-2.91-.66 8.57 8.57 0 0 0-2.64-.36 9.1 9.1 0 0 0-2.64.66 24.54 24.54 0 0 1-2.76 1c-.29.08-.66.17-1.05.25.25.25.5.54.75.85a14.36 14.36 0 0 1 1.62 2.41 11.09 11.09 0 0 0 2.48 3.25 4.56 4.56 0 0 0 2.91.79 28.06 28.06 0 0 0 3-.62 24.54 24.54 0 0 0 2.76-1 9.1 9.1 0 0 1 2.64-.66 8.57 8.57 0 0 1 2.64.36 19.79 19.79 0 0 0 2.91.66 31.19 31.19 0 0 0 3.47.22c1 0 2-.36 2.07-.79s-1.59-2.73-3.78-5.1a47 47 0 0 1-4.78-5.84 17.46 17.46 0 0 1-1.24-3.32 9.43 9.43 0 0 0-1.42-3 14.45 14.45 0 0 0-4.17-2.72l-3.15-1.44-1.22-.55a7.39 7.39 0 0 1 .25.78z" fill="url(#f)"/><path d="M83.55 56.48a8.09 8.09 0 0 0-.72-.54 13.06 13.06 0 0 0 2.51 3.21 8 8 0 0 0 .81.59 14.44 14.44 0 0 0-2.6-3.26z" fill="url(#g)"/></svg>