<svg xmlns="http://www.w3.org/2000/svg" xmlns:xlink="http://www.w3.org/1999/xlink" width="200" height="200" viewBox="0 0 200 200"><defs><linearGradient id="a" x1="95.25" y1="66.6" x2="109.07" y2="35.56" gradientUnits="userSpaceOnUse"><stop offset="0" stop-color="#fdba56"/><stop offset="0.02" stop-color="#fbb055"/><stop offset="0.06" stop-color="#f79d54"/><stop offset="0.1" stop-color="#f59253"/><stop offset="0.15" stop-color="#f48e53"/><stop offset="0.3" stop-color="#ed5e4e"/><stop offset="0.47" stop-color="#683a96" stop-opacity="0.5"/><stop offset="0.64" stop-color="#ed872b"/><stop offset="0.79" stop-color="#7b76b6"/><stop offset="0.9" stop-color="#f15f4f"/><stop offset="1" stop-color="#fdba56"/></linearGradient><linearGradient id="b" x1="74.77" y1="156.09" x2="115.86" y2="63.79" xlink:href="#a"/><linearGradient id="c" x1="108.65" y1="51.13" x2="115.15" y2="65.75" gradientUnits="userSpaceOnUse"><stop offset="0" stop-color="#b7151b"/><stop offset="0.02" stop-color="#c52229"/><stop offset="0.06" stop-color="#d7333c"/><stop offset="0.11" stop-color="#e23d47"/><stop offset="0.15" stop-color="#e6404b"/><stop offset="0.3" stop-color="#e98a7b"/><stop offset="0.47" stop-color="#7c78b8"/><stop offset="0.64" stop-color="#00b0b0"/><stop offset="0.79" stop-color="#7b76b6"/><stop offset="1" stop-color="#e7322f"/></linearGradient><linearGradient id="d" x1="78.49" y1="81.36" x2="99.84" y2="129.31" xlink:href="#c"/><linearGradient id="e" x1="86.63" y1="144.46" x2="95.31" y2="163.95" xlink:href="#c"/><linearGradient id="f" x1="120.08" y1="88.86" x2="150.78" y2="157.81" xlink:href="#c"/></defs><title>_</title><path d="M121.72,42.43a4.46,4.46,0,0,0,.62-1,2.14,2.14,0,0,0-.65-0.07c-0.91,0-3.3-.09-5.46-0.26h0c-2-.16-4.64-0.27-5.71-0.24a37,37,0,0,0-3.9.35,37.22,37.22,0,0,1-4.15.37,37.86,37.86,0,0,1-4.14-.2,8,8,0,0,0-3,.28c-0.58.31-3.16,3.22-6,7.23-2.65,3.77-5.57,8.24-6.37,9.74a19.54,19.54,0,0,0-.95,2,9.71,9.71,0,0,1,2.3-.31H84.4a12,12,0,0,1,2.8.49,19.69,19.69,0,0,0,2.48.57,16.76,16.76,0,0,0,2.47.15l1.11-.06c0.78-.06,1.76-0.15,2.6-0.25a13.84,13.84,0,0,0,3.61-.92,24.65,24.65,0,0,0,3-1.92c0.92-.69,2.36-1.89,3.21-2.67s2.21-2.14,3-3a33.51,33.51,0,0,1,3.31-3.1,33.86,33.86,0,0,1,3.8-2.53c0.43-.24,1-0.57,1.58-1s1.36-.92,1.78-1.26A21.31,21.31,0,0,0,121.72,42.43Z" fill="url(#a)"/><path d="M116.39,151.82c1,0.13,2,.26,2.94.36a35.55,35.55,0,0,0,4.07.31,31.17,31.17,0,0,0,3.58-.35,31.86,31.86,0,0,1,3.85-.37,30.62,30.62,0,0,1,3.84.21,4,4,0,0,0,2-.23A26.64,26.64,0,0,0,137.7,145c0.26-4,.39-7.47.34-8.26a33.5,33.5,0,0,1,0-3.49,34.48,34.48,0,0,1,.47-3.49,13,13,0,0,0,.16-3.08,14.23,14.23,0,0,0-.73-3.1,22.93,22.93,0,0,1-1-3.55,20.51,20.51,0,0,1-.24-3.57c0-.88,0-3.14-0.17-4.94a38.45,38.45,0,0,1,0-5.22,21.41,21.41,0,0,1,.77-3.56,15.14,15.14,0,0,0,.59-3.11,37,37,0,0,0-1.09-6.44,29.66,29.66,0,0,1-1-7.08,13.09,13.09,0,0,1,1.19-3.7,16.52,16.52,0,0,0,.91-2.25c0.13-.39.24-0.76,0.31-1.07a19.79,19.79,0,0,0,.4-3.71,2.59,2.59,0,0,0-.64-1.8,4.92,4.92,0,0,0-2.69.27,16,16,0,0,1-4.84.83,13.57,13.57,0,0,1-4.56-1.06,13.25,13.25,0,0,0-3.67-1,22.27,22.27,0,0,0-5.47.82c-2.13.56-4.61,1.12-5.54,1.24a3.63,3.63,0,0,0-1.91,1,7,7,0,0,0-1,2.75,32.29,32.29,0,0,0-.24,4.2,40.75,40.75,0,0,0,.42,4.55,24.69,24.69,0,0,1,.17,5.1,26.44,26.44,0,0,1-1.1,5.08,29.14,29.14,0,0,0-1.09,4.65,26.68,26.68,0,0,0-.09,4.64c0.12,1.36.19,4.43,0.16,6.83a30.61,30.61,0,0,1-.62,6.24,12.73,12.73,0,0,1-1.59,3.2c-0.48.65-1.18,1.73-1.54,2.37a20.86,20.86,0,0,0-1.08,2.28,7.78,7.78,0,0,1-1.64,2.46,10.6,10.6,0,0,1-2.67,1.72,20.64,20.64,0,0,1-2.7.91l-0.34.09a17.63,17.63,0,0,1-3.07.36,6.21,6.21,0,0,1-2.95-.78,5.62,5.62,0,0,1-1.83-2.4,22.25,22.25,0,0,0-1-2.27,17.33,17.33,0,0,0-1.25-1.91,16,16,0,0,1-1.48-2.44,29.55,29.55,0,0,1-1.23-3.19,14.32,14.32,0,0,1-.6-3.56,10.44,10.44,0,0,1,.58-3.27c0.28-.72.68-1.92,0.88-2.64s0.49-1.92.62-2.63a7.77,7.77,0,0,0,0-2.35,9.89,9.89,0,0,0-.95-2.42,19.14,19.14,0,0,1-1.33-2.9A15.51,15.51,0,0,1,80,97.44a13.34,13.34,0,0,1,.1-3,15.07,15.07,0,0,1,.89-3,6.81,6.81,0,0,0,.48-2.3,7,7,0,0,0-.58-2.32,6.76,6.76,0,0,1-.56-3.28,8,8,0,0,1,1.35-3.19,6.36,6.36,0,0,0,.8-1.56,2.46,2.46,0,0,0,.12-0.46A2.42,2.42,0,0,0,82.17,77a10.12,10.12,0,0,0-1.79-1.6,20.66,20.66,0,0,0-2.8-1.5,10.47,10.47,0,0,0-3.21-.69,11.94,11.94,0,0,0-3.53.6,18.55,18.55,0,0,1-4.28.83,17.46,17.46,0,0,1-4.29-.41c-1.06-.25-3.93-0.71-6.27-1a13,13,0,0,0-4.31,0,2.94,2.94,0,0,0,.18,1.61,17.79,17.79,0,0,1,1,3.82,12.54,12.54,0,0,1-.2,3.57c-0.19.8-.49,2.85-0.67,4.48a29.4,29.4,0,0,0-.17,4.4,23.29,23.29,0,0,0,.52,2.92,11.22,11.22,0,0,1,.25,3.43,12.45,12.45,0,0,1-1,3.39,13.72,13.72,0,0,0-.93,2.82,11.56,11.56,0,0,0-.1,2.78,27.54,27.54,0,0,1,.14,3.21c0,0.88-.3,3.68-0.63,6.24a43,43,0,0,0-.42,6.12,32.89,32.89,0,0,0,.57,3.53c0.25,1.08.57,2.87,0.71,4s0.29,2.93.33,4.06a15,15,0,0,0,.56,3.37A33.25,33.25,0,0,0,55,142.34c1.61,2.32,3.19,4.4,3.65,4.89a32.53,32.53,0,0,0,4.44,3.12c1.31,0.8,2.79,1.64,3.87,2.2,0.42,0.22.77,0.39,1,.47,0.7,0.28,2,.68,2.73.88a18.64,18.64,0,0,0,2.81.46c0.68,0.05,5.3-.39,10.89-1.09a110.81,110.81,0,0,0,11.14-1.79,16.74,16.74,0,0,0,3.16-1.62,30.35,30.35,0,0,0,3.07-2.53,43.64,43.64,0,0,0,3.06-3.37,14.07,14.07,0,0,1,2.65-2.65,1.57,1.57,0,0,1,1.55-.08,1.62,1.62,0,0,1,.83,1.37,16.93,16.93,0,0,0,.22,1.71,11.85,11.85,0,0,0,.4,1.45,4.77,4.77,0,0,1,.24,1.95,5.5,5.5,0,0,1-.68,1.88,4.13,4.13,0,0,0-.42.93,0.16,0.16,0,0,0,0,0,6.14,6.14,0,0,0,.7.27c0.24,0.07,1.58.33,4.29,0.73Z" fill="url(#b)"/><path d="M90.48,68.5a1.11,1.11,0,0,0,1.31.16,8.31,8.31,0,0,1,2.31-.33,11,11,0,0,1,2.53.44,20.61,20.61,0,0,0,2.64.61,19.2,19.2,0,0,0,2.64.16c0.73,0,2.44-.16,3.8-0.32a14.6,14.6,0,0,0,3.94-1,25.47,25.47,0,0,0,3.16-2c0.93-.7,2.41-1.93,3.29-2.73s2.25-2.19,3.07-3.09a32.18,32.18,0,0,1,3.19-3A32.81,32.81,0,0,1,126,54.94a31,31,0,0,0,3.5-2.31A22.23,22.23,0,0,0,132.2,50a3.24,3.24,0,0,0,.94-2,1.93,1.93,0,0,0-1.77-.63c-0.86,0-3.27-.09-5.36-0.26s-4.7-.27-5.81-0.24h-0.3c-0.58,0-1.28.08-2,.14-0.57.37-1.16,0.73-1.64,1a32.81,32.81,0,0,0-3.66,2.44,32.18,32.18,0,0,0-3.19,3c-0.81.9-2.19,2.29-3.07,3.09s-2.35,2-3.29,2.73a25.47,25.47,0,0,1-3.16,2,14.6,14.6,0,0,1-3.94,1c-0.85.1-1.84,0.19-2.64,0.25l-0.65,1c-0.4.65-.73,1.2-0.92,1.57A9.31,9.31,0,0,0,90.48,68.5Z" fill="url(#c)"/><path d="M83.43,79.17A7.31,7.31,0,0,1,82.49,81a7.12,7.12,0,0,0-1.16,2.72,5.82,5.82,0,0,0,.47,2.72,8,8,0,0,1,.67,2.72,7.78,7.78,0,0,1-.57,2.72,14.12,14.12,0,0,0-.82,2.72,12.43,12.43,0,0,0-.1,2.72,14.7,14.7,0,0,0,.6,2.72,18.28,18.28,0,0,0,1.25,2.72,10.73,10.73,0,0,1,1.06,2.72,8.69,8.69,0,0,1,0,2.72c-0.14.75-.42,2-0.64,2.72s-0.62,2-.91,2.72a9.48,9.48,0,0,0-.52,2.91,13.41,13.41,0,0,0,.56,3.27,28.51,28.51,0,0,0,1.18,3.05A15,15,0,0,0,85,125.18a18.53,18.53,0,0,1,1.34,2,23.26,23.26,0,0,1,1.1,2.39,4.65,4.65,0,0,0,1.45,1.92,5,5,0,0,0,2.38.62,16.68,16.68,0,0,0,2.86-.33l0.31-.08c-0.18-.26-0.37-0.57-0.56-0.89s-0.39-.69-0.53-1a28.51,28.51,0,0,1-1.18-3.05,13.41,13.41,0,0,1-.56-3.27,9.48,9.48,0,0,1,.52-2.91c0.29-.75.7-2,0.91-2.72s0.5-2,.64-2.72a8.69,8.69,0,0,0,0-2.72,10.73,10.73,0,0,0-1.06-2.72A18.28,18.28,0,0,1,91.3,107a14.7,14.7,0,0,1-.6-2.72,12.43,12.43,0,0,1,.1-2.72,14.12,14.12,0,0,1,.82-2.72,7.78,7.78,0,0,0,.57-2.72,8,8,0,0,0-.67-2.72A5.82,5.82,0,0,1,91,90.67a7.12,7.12,0,0,1,1.16-2.72,6.4,6.4,0,0,0,1.11-2.52,3.38,3.38,0,0,0-.65-2.11,11,11,0,0,0-2-1.8,21.4,21.4,0,0,0-3-1.59,11.59,11.59,0,0,0-3.22-.76l-0.37,0C83.9,79.14,83.67,79.15,83.43,79.17Z" fill="url(#d)"/><path d="M110,151.78a3.39,3.39,0,0,1-1.23-.6,1.16,1.16,0,0,1-.16-0.84,4.75,4.75,0,0,1,.55-1.27,4.48,4.48,0,0,0,.54-1.48,3.81,3.81,0,0,0-.18-1.48,12.87,12.87,0,0,1-.44-1.6,17.89,17.89,0,0,1-.24-1.84,0.55,0.55,0,0,0-.88-0.5,13.75,13.75,0,0,0-2.37,2.42,44.56,44.56,0,0,1-3.15,3.46,31,31,0,0,1-3.2,2.63,17.72,17.72,0,0,1-3.39,1.74,108.1,108.1,0,0,1-11.35,1.84c-5.27.66-10.25,1.16-11.08,1.1a19.73,19.73,0,0,1-3-.49c-0.82-.21-2.1-0.63-2.84-0.92-0.23-.09-0.61-0.28-1.07-0.52,0.51,0.67.92,1.18,1.14,1.42a4.57,4.57,0,0,0,.34.31,40.24,40.24,0,0,0,4.31,3,50.35,50.35,0,0,0,5,2.75c0.75,0.29,2,.71,2.84.92a19.73,19.73,0,0,0,3,.49c0.83,0.06,5.82-.44,11.08-1.1a108.1,108.1,0,0,0,11.35-1.84,17.72,17.72,0,0,0,3.39-1.74,31,31,0,0,0,3.2-2.63c0.42-.4,1-1,1.5-1.56l0.8-.89C112.22,152.22,110.39,151.91,110,151.78Z" fill="url(#e)"/><path d="M148.62,130.2a21.87,21.87,0,0,1-.93-3.36,19.68,19.68,0,0,1-.23-3.36c0-.92,0-3.19-0.17-5a38.1,38.1,0,0,1,0-5A20.62,20.62,0,0,1,148,110a16.08,16.08,0,0,0,.63-3.36,36.84,36.84,0,0,0-1.12-6.72,29.32,29.32,0,0,1-1-6.72,12.1,12.1,0,0,1,1.09-3.36,18.2,18.2,0,0,0,1.31-3.55,20.8,20.8,0,0,0,.43-3.94,3.3,3.3,0,0,0-1.17-2.68,5.42,5.42,0,0,0-3.49.21,15.15,15.15,0,0,1-4.49.78l-0.32,0c-0.31,0-.65-0.06-1-0.12a17.75,17.75,0,0,1-1,2.4,12.1,12.1,0,0,0-1.09,3.36,29.32,29.32,0,0,0,1,6.72,36.84,36.84,0,0,1,1.12,6.72,16.08,16.08,0,0,1-.63,3.36,20.62,20.62,0,0,0-.73,3.36,38.1,38.1,0,0,0,0,5c0.13,1.85.2,4.12,0.17,5a19.68,19.68,0,0,0,.23,3.36,21.87,21.87,0,0,0,.93,3.36,15.32,15.32,0,0,1,.8,3.36,14.19,14.19,0,0,1-.18,3.36,33.13,33.13,0,0,0-.45,3.36,32.3,32.3,0,0,0,0,3.36c0.05,0.92-.1,4.69-0.34,8.38s-0.86,7-1.38,7.41a4.5,4.5,0,0,1-2.78.47,29.9,29.9,0,0,0-3.69-.2,30.6,30.6,0,0,0-3.71.35,32.17,32.17,0,0,1-3.72.37c-0.68,0-2.32-.11-4.21-0.32a4.1,4.1,0,0,1,.16,1,2.38,2.38,0,0,1,0,.34,4.48,4.48,0,0,1-.54,1.48,4.75,4.75,0,0,0-.55,1.27,1.16,1.16,0,0,0,.16.84,3.39,3.39,0,0,0,1.23.6c0.53,0.16,3.36.62,6.29,1a66.41,66.41,0,0,0,7.17.68,32.17,32.17,0,0,0,3.72-.37,30.6,30.6,0,0,1,3.71-.35,29.9,29.9,0,0,1,3.69.2,4.5,4.5,0,0,0,2.78-.47c0.52-.39,1.14-3.73,1.38-7.41s0.4-7.45.34-8.38a32.3,32.3,0,0,1,0-3.36,33.13,33.13,0,0,1,.45-3.36,14.19,14.19,0,0,0,.18-3.36A15.32,15.32,0,0,0,148.62,130.2Z" fill="url(#f)"/></svg>