<svg xmlns="http://www.w3.org/2000/svg" xmlns:xlink="http://www.w3.org/1999/xlink" width="95.83" height="200" viewBox="0 0 95.83 200"><defs><linearGradient id="a" x1="44.6" y1="67.98" x2="58.42" y2="36.93" gradientUnits="userSpaceOnUse"><stop offset="0" stop-color="#fdba56"/><stop offset=".02" stop-color="#fbb055"/><stop offset=".06" stop-color="#f79d54"/><stop offset=".1" stop-color="#f59253"/><stop offset=".15" stop-color="#f48e53"/><stop offset=".3" stop-color="#ed5e4e"/><stop offset=".47" stop-color="#683a96" stop-opacity=".5"/><stop offset=".64" stop-color="#ed872b"/><stop offset=".79" stop-color="#7b76b6"/><stop offset=".9" stop-color="#f15f4f"/><stop offset="1" stop-color="#fdba56"/></linearGradient><linearGradient id="c" x1="24.12" y1="157.46" x2="65.22" y2="65.16" xlink:href="#a"/><linearGradient id="b" x1="58" y1="52.51" x2="64.51" y2="67.12" gradientUnits="userSpaceOnUse"><stop offset="0" stop-color="#b7151b"/><stop offset=".02" stop-color="#c52229"/><stop offset=".06" stop-color="#d7333c"/><stop offset=".11" stop-color="#e23d47"/><stop offset=".15" stop-color="#e6404b"/><stop offset=".3" stop-color="#e98a7b"/><stop offset=".47" stop-color="#7c78b8"/><stop offset=".64" stop-color="#00b0b0"/><stop offset=".79" stop-color="#7b76b6"/><stop offset="1" stop-color="#e7322f"/></linearGradient><linearGradient id="d" x1="27.84" y1="82.74" x2="49.19" y2="130.69" xlink:href="#b"/><linearGradient id="e" x1="35.98" y1="145.84" x2="44.66" y2="165.32" xlink:href="#b"/><linearGradient id="f" x1="69.44" y1="90.24" x2="100.13" y2="159.19" xlink:href="#b"/></defs><title>_</title><path d="M71.07 43.81a4.46 4.46 0 0 0 .62-1 2.14 2.14 0 0 0-.69-.03c-.91 0-3.3-.09-5.46-.26-2-.16-4.64-.27-5.71-.24a37 37 0 0 0-3.9.35 37.22 37.22 0 0 1-4.15.37 37.86 37.86 0 0 1-4.14-.2 8 8 0 0 0-3 .28c-.58.31-3.16 3.22-6 7.23-2.64 3.77-5.55 8.23-6.35 9.69a19.54 19.54 0 0 0-.95 2 9.71 9.71 0 0 1 2.3-.31h.11a12 12 0 0 1 2.8.49 19.69 19.69 0 0 0 2.48.57 16.76 16.76 0 0 0 2.47.15l1.11-.06c.78-.06 1.76-.15 2.6-.25a13.84 13.84 0 0 0 3.61-.92 24.65 24.65 0 0 0 3-1.92c.92-.69 2.36-1.89 3.21-2.67s2.21-2.14 3-3A33.51 33.51 0 0 1 61.36 51a33.86 33.86 0 0 1 3.8-2.53c.43-.24 1-.57 1.58-1s1.36-.92 1.78-1.26a21.31 21.31 0 0 0 2.55-2.4z" fill="url(#a)"/><path d="M65.74 153.2c1 .13 2 .26 2.94.36a35.55 35.55 0 0 0 4.07.31 31.17 31.17 0 0 0 3.58-.35 31.86 31.86 0 0 1 3.85-.37 30.62 30.62 0 0 1 3.84.21 4 4 0 0 0 2-.23 26.64 26.64 0 0 0 1.06-6.72c.26-4 .39-7.47.34-8.26a33.5 33.5 0 0 1 0-3.49 34.48 34.48 0 0 1 .47-3.49 13 13 0 0 0 .16-3.08 14.23 14.23 0 0 0-.73-3.1 22.93 22.93 0 0 1-1-3.55 20.51 20.51 0 0 1-.24-3.57c0-.88 0-3.14-.17-4.94a38.45 38.45 0 0 1 0-5.22 21.41 21.41 0 0 1 .77-3.56 15.14 15.14 0 0 0 .59-3.11 37 37 0 0 0-1.09-6.44 29.66 29.66 0 0 1-1-7.08 13.09 13.09 0 0 1 1.19-3.7 16.52 16.52 0 0 0 .91-2.25c.13-.39.24-.76.31-1.07a19.79 19.79 0 0 0 .4-3.71A2.59 2.59 0 0 0 87.3 75a4.92 4.92 0 0 0-2.69.27 16 16 0 0 1-4.84.83 13.57 13.57 0 0 1-4.56-1.1 13.25 13.25 0 0 0-3.67-1 22.27 22.27 0 0 0-5.47.82c-2.13.56-4.61 1.12-5.54 1.24a3.63 3.63 0 0 0-1.91 1 7 7 0 0 0-1 2.75 32.29 32.29 0 0 0-.24 4.2 40.75 40.75 0 0 0 .42 4.55 24.69 24.69 0 0 1 .2 5.14 26.44 26.44 0 0 1-1.1 5.08 29.14 29.14 0 0 0-1.09 4.65 26.68 26.68 0 0 0-.09 4.64c.12 1.36.19 4.43.16 6.83a30.61 30.61 0 0 1-.62 6.24 12.73 12.73 0 0 1-1.59 3.2c-.48.65-1.18 1.73-1.54 2.37A20.86 20.86 0 0 0 51 129a7.78 7.78 0 0 1-1.64 2.46 10.6 10.6 0 0 1-2.67 1.72 20.64 20.64 0 0 1-2.7.91l-.34.09a17.63 17.63 0 0 1-3.07.36 6.21 6.21 0 0 1-2.95-.78 5.62 5.62 0 0 1-1.83-2.4 22.25 22.25 0 0 0-1-2.27 17.33 17.33 0 0 0-1.25-1.91 16 16 0 0 1-1.48-2.44 29.55 29.55 0 0 1-1.23-3.19 14.32 14.32 0 0 1-.6-3.56 10.44 10.44 0 0 1 .58-3.27c.28-.72.68-1.92.88-2.64s.49-1.92.62-2.63a7.77 7.77 0 0 0 0-2.35 9.89 9.89 0 0 0-.95-2.42 19.14 19.14 0 0 1-1.33-2.9 15.51 15.51 0 0 1-.65-2.95 13.34 13.34 0 0 1 .1-3 15.07 15.07 0 0 1 .89-3 6.81 6.81 0 0 0 .48-2.3 7 7 0 0 0-.58-2.32 6.76 6.76 0 0 1-.59-3.21A8 8 0 0 1 31 81.78a6.36 6.36 0 0 0 .8-1.56 2.46 2.46 0 0 0 .2-.46 2.42 2.42 0 0 0-.43-1.39 10.12 10.12 0 0 0-1.79-1.6 20.66 20.66 0 0 0-2.8-1.5 10.47 10.47 0 0 0-3.21-.69 11.94 11.94 0 0 0-3.53.6 18.55 18.55 0 0 1-4.28.83 17.46 17.46 0 0 1-4.29-.41c-1.06-.25-3.93-.71-6.27-1a13 13 0 0 0-4.31 0 2.94 2.94 0 0 0 .18 1.61 17.79 17.79 0 0 1 1 3.82A12.54 12.54 0 0 1 2 83.64c-.19.8-.49 2.85-.67 4.48a29.4 29.4 0 0 0-.17 4.4 23.29 23.29 0 0 0 .52 2.92 11.22 11.22 0 0 1 .25 3.43 12.45 12.45 0 0 1-1 3.39 13.72 13.72 0 0 0-.93 2.83 11.56 11.56 0 0 0-.1 2.78 27.54 27.54 0 0 1 .1 3.2c0 .88-.3 3.68-.63 6.24a43 43 0 0 0-.37 6.13A32.89 32.89 0 0 0-.42 127c.25 1.08.57 2.87.71 4s.29 2.93.33 4.06a15 15 0 0 0 .56 3.37 33.25 33.25 0 0 0 3.15 5.33c1.61 2.32 3.19 4.4 3.65 4.89a32.53 32.53 0 0 0 4.44 3.12c1.31.8 2.79 1.64 3.87 2.2.42.22.77.39 1 .47.7.28 2 .68 2.73.88a18.64 18.64 0 0 0 2.81.46c.68.05 5.3-.39 10.89-1.09a110.81 110.81 0 0 0 11.14-1.79 16.74 16.74 0 0 0 3.14-1.66 30.35 30.35 0 0 0 3.07-2.53 43.64 43.64 0 0 0 3.06-3.37 14.07 14.07 0 0 1 2.65-2.65 1.57 1.57 0 0 1 1.55-.08 1.62 1.62 0 0 1 .83 1.37 16.93 16.93 0 0 0 .22 1.71 11.85 11.85 0 0 0 .4 1.45 4.77 4.77 0 0 1 .24 1.95 5.5 5.5 0 0 1-.68 1.88 4.13 4.13 0 0 0-.42.93 6.14 6.14 0 0 0 .7.27c.24.07 1.58.33 4.29.73z" fill="url(#c)"/><path d="M39.83 69.88a1.11 1.11 0 0 0 1.31.16 8.31 8.31 0 0 1 2.31-.33 11 11 0 0 1 2.53.44 20.61 20.61 0 0 0 2.64.61 19.2 19.2 0 0 0 2.64.16c.73 0 2.44-.16 3.8-.32a14.6 14.6 0 0 0 3.94-1 25.47 25.47 0 0 0 3.16-2c.93-.7 2.41-1.93 3.29-2.73s2.25-2.19 3.07-3.09a32.18 32.18 0 0 1 3.19-3 32.81 32.81 0 0 1 3.66-2.44A31 31 0 0 0 78.85 54a22.23 22.23 0 0 0 2.7-2.61 3.24 3.24 0 0 0 .94-2 1.93 1.93 0 0 0-1.77-.63c-.86 0-3.27-.09-5.36-.26s-4.7-.27-5.81-.24h-.3c-.58 0-1.28.08-2 .14-.57.37-1.16.73-1.64 1A32.81 32.81 0 0 0 62 51.81a32.18 32.18 0 0 0-3.19 3c-.81.9-2.19 2.29-3.07 3.09s-2.35 2-3.29 2.73a25.47 25.47 0 0 1-3.16 2 14.6 14.6 0 0 1-3.94 1c-.85.1-1.84.19-2.64.25l-.65 1c-.4.65-.73 1.2-.92 1.57a9.31 9.31 0 0 0-1.31 3.43z" fill="url(#b)"/><path d="M32.78 80.54a7.31 7.31 0 0 1-.94 1.83 7.12 7.12 0 0 0-1.16 2.72 5.82 5.82 0 0 0 .47 2.72 8 8 0 0 1 .67 2.72 7.78 7.78 0 0 1-.57 2.72 14.12 14.12 0 0 0-.81 2.75 12.43 12.43 0 0 0-.1 2.72 14.7 14.7 0 0 0 .6 2.72 18.28 18.28 0 0 0 1.25 2.72 10.73 10.73 0 0 1 1.06 2.72 8.69 8.69 0 0 1 0 2.72c-.14.75-.42 2-.64 2.72s-.62 2-.91 2.72a9.48 9.48 0 0 0-.52 2.91 13.41 13.41 0 0 0 .56 3.27 28.51 28.51 0 0 0 1.26 3.07 15 15 0 0 0 1.36 2.26 18.53 18.53 0 0 1 1.34 2 23.26 23.26 0 0 1 1.1 2.39 4.65 4.65 0 0 0 1.45 1.92 5 5 0 0 0 2.38.62 16.68 16.68 0 0 0 2.86-.33l.31-.08c-.18-.26-.37-.57-.56-.89s-.39-.69-.53-1a28.51 28.51 0 0 1-1.18-3.05 13.41 13.41 0 0 1-.56-3.27 9.48 9.48 0 0 1 .52-2.91c.29-.75.7-2 .91-2.72s.5-2 .64-2.72a8.69 8.69 0 0 0 0-2.72 10.73 10.73 0 0 0-1.06-2.72 18.28 18.28 0 0 1-1.25-2.72 14.7 14.7 0 0 1-.6-2.72 12.43 12.43 0 0 1 .1-2.72 14.12 14.12 0 0 1 .82-2.72 7.78 7.78 0 0 0 .57-2.72 8 8 0 0 0-.67-2.72 5.82 5.82 0 0 1-.56-2.75 7.12 7.12 0 0 1 1.16-2.72 6.4 6.4 0 0 0 1.11-2.52 3.38 3.38 0 0 0-.66-2.08 11 11 0 0 0-2-1.8 21.4 21.4 0 0 0-3-1.59 11.59 11.59 0 0 0-3.22-.76h-.37c-.15-.02-.41-.01-.63.01z" fill="url(#d)"/><path d="M59.32 153.16a3.39 3.39 0 0 1-1.23-.6 1.16 1.16 0 0 1-.16-.84 4.75 4.75 0 0 1 .55-1.27A4.48 4.48 0 0 0 59 149a3.81 3.81 0 0 0-.18-1.48 12.87 12.87 0 0 1-.44-1.6 17.89 17.89 0 0 1-.24-1.84.55.55 0 0 0-.88-.5 13.75 13.75 0 0 0-2.37 2.42 44.56 44.56 0 0 1-3.15 3.46 31 31 0 0 1-3.2 2.63 17.72 17.72 0 0 1-3.39 1.74 108.1 108.1 0 0 1-11.35 1.84c-5.27.66-10.25 1.16-11.08 1.1a19.73 19.73 0 0 1-3-.49c-.82-.21-2.1-.63-2.84-.92-.23-.09-.61-.28-1.07-.52.51.67.92 1.18 1.14 1.42a4.57 4.57 0 0 0 .34.31 40.24 40.24 0 0 0 4.31 3 50.35 50.35 0 0 0 5 2.75c.75.29 2 .71 2.84.92a19.73 19.73 0 0 0 3 .49c.83.06 5.82-.44 11.08-1.1a108.1 108.1 0 0 0 11.35-1.84 17.72 17.72 0 0 0 3.39-1.79 31 31 0 0 0 3.2-2.63c.42-.4 1-1 1.5-1.56l.8-.89c-2.19-.32-4.02-.63-4.44-.76z" fill="url(#e)"/><path d="M98 131.58a21.87 21.87 0 0 1-.93-3.36 19.68 19.68 0 0 1-.23-3.36c0-.92 0-3.19-.17-5a38.1 38.1 0 0 1 0-5 20.62 20.62 0 0 1 .73-3.36 16.08 16.08 0 0 0 .6-3.5 36.84 36.84 0 0 0-1.12-6.72 29.32 29.32 0 0 1-1-6.72 12.1 12.1 0 0 1 1.09-3.36 18.2 18.2 0 0 0 1.31-3.55 20.8 20.8 0 0 0 .43-3.94 3.3 3.3 0 0 0-1.17-2.68 5.42 5.42 0 0 0-3.49.21 15.15 15.15 0 0 1-4.49.78h-.32c-.31 0-.65-.06-1-.12a17.75 17.75 0 0 1-1 2.4 12.1 12.1 0 0 0-1.09 3.36 29.32 29.32 0 0 0 1 6.72 36.84 36.84 0 0 1 1.12 6.72 16.08 16.08 0 0 1-.63 3.36 20.62 20.62 0 0 0-.73 3.36 38.1 38.1 0 0 0 0 5c.13 1.85.2 4.12.17 5a19.68 19.68 0 0 0 .23 3.36 21.87 21.87 0 0 0 .93 3.36 15.32 15.32 0 0 1 .8 3.36 14.19 14.19 0 0 1-.18 3.36 33.13 33.13 0 0 0-.45 3.36 32.3 32.3 0 0 0 0 3.36c.05.92-.1 4.69-.34 8.38s-.86 7-1.38 7.41a4.5 4.5 0 0 1-2.78.47 29.9 29.9 0 0 0-3.69-.2 30.6 30.6 0 0 0-3.71.35 32.17 32.17 0 0 1-3.72.37c-.68 0-2.32-.11-4.21-.32a4.1 4.1 0 0 1 .16 1 2.38 2.38 0 0 1 0 .34 4.48 4.48 0 0 1-.54 1.48 4.75 4.75 0 0 0-.55 1.27 1.16 1.16 0 0 0 .16.84 3.39 3.39 0 0 0 1.23.6c.53.16 3.36.62 6.29 1a66.41 66.41 0 0 0 7.17.68 32.17 32.17 0 0 0 3.72-.37 30.6 30.6 0 0 1 3.71-.35 29.9 29.9 0 0 1 3.69.2 4.5 4.5 0 0 0 2.78-.47c.52-.39 1.14-3.73 1.38-7.41s.4-7.45.34-8.38a32.3 32.3 0 0 1 0-3.36 33.13 33.13 0 0 1 .45-3.36 14.19 14.19 0 0 0 .18-3.36 15.32 15.32 0 0 0-.75-3.21z" fill="url(#f)"/></svg>