<svg xmlns="http://www.w3.org/2000/svg" xmlns:xlink="http://www.w3.org/1999/xlink" width="97.16" height="200" viewBox="0 0 97.16 200"><defs><linearGradient id="a" x1="37.03" y1="73.7" x2="51.05" y2="42.2" gradientUnits="userSpaceOnUse"><stop offset="0" stop-color="#fdba56"/><stop offset=".02" stop-color="#fbb055"/><stop offset=".06" stop-color="#f79d54"/><stop offset=".1" stop-color="#f59253"/><stop offset=".15" stop-color="#f48e53"/><stop offset=".3" stop-color="#ed5e4e"/><stop offset=".47" stop-color="#683a96" stop-opacity=".5"/><stop offset=".64" stop-color="#ed872b"/><stop offset=".79" stop-color="#7b76b6"/><stop offset=".9" stop-color="#f15f4f"/><stop offset="1" stop-color="#fdba56"/></linearGradient><linearGradient id="c" x1="23.25" y1="157.97" x2="63.59" y2="67.36" xlink:href="#a"/><linearGradient id="b" x1="32.12" y1="56.88" x2="39.14" y2="72.64" gradientUnits="userSpaceOnUse"><stop offset="0" stop-color="#b7151b"/><stop offset=".02" stop-color="#c52229"/><stop offset=".06" stop-color="#d7333c"/><stop offset=".11" stop-color="#e23d47"/><stop offset=".15" stop-color="#e6404b"/><stop offset=".3" stop-color="#e98a7b"/><stop offset=".47" stop-color="#7c78b8"/><stop offset=".64" stop-color="#00b0b0"/><stop offset=".79" stop-color="#7b76b6"/><stop offset="1" stop-color="#e7322f"/></linearGradient><linearGradient id="d" x1="61.2" y1="50.41" x2="71.82" y2="74.25" xlink:href="#b"/><linearGradient id="e" x1="66.41" y1="90.28" x2="97.35" y2="159.78" xlink:href="#b"/><linearGradient id="f" x1="27.64" y1="84.18" x2="48.44" y2="130.88" xlink:href="#b"/><linearGradient id="g" x1="37.6" y1="148.48" x2="44.41" y2="163.77" xlink:href="#b"/></defs><title>_</title><path d="M62.08 49.78a8.88 8.88 0 0 0-1.42-2.84 12.54 12.54 0 0 0-4.07-2.21c-2-.69-4-1.29-4.59-1.42s-2-.31-2.74-.41-2.11-.15-3-.16-2.22.06-3 .14-2.22.3-3.05.47a17.89 17.89 0 0 1-3.36.32 17.7 17.7 0 0 1-3.33-.45 3.88 3.88 0 0 0-2.11.14 5.46 5.46 0 0 0-1.75 1.79 29.73 29.73 0 0 1-2.18 3.13 30.08 30.08 0 0 1-2.65 2.76 19.86 19.86 0 0 0-2.32 2.57 20.84 20.84 0 0 0-1.75 3.05 16.82 16.82 0 0 1-2.1 3.38 17 17 0 0 1-3 2.66 5.55 5.55 0 0 0-1.1 1 1.8 1.8 0 0 0 .45.2 11.77 11.77 0 0 0 2.55.38 32.1 32.1 0 0 0 5.36-1.15 29.55 29.55 0 0 1 6-1.21c.25 0 .56 0 .87.07a12.81 12.81 0 0 1 2.31.5 4 4 0 0 0 1.65.21 1 1 0 0 0 .38-.56 5.56 5.56 0 0 1 1-2.2 5.72 5.72 0 0 1 2-1.38 14.44 14.44 0 0 0 1.71-.82 11.27 11.27 0 0 0 1.41-1 4.61 4.61 0 0 0 .9-1.28 10.23 10.23 0 0 0 .58-2.16c.19-1.35.61-2.14 1.24-2.34s1.54.34 2.1 1.62a14.88 14.88 0 0 0 1 1.93 8.59 8.59 0 0 0 1.13 1.32 5.57 5.57 0 0 1 1.3 1.89 7.43 7.43 0 0 1 .5 2.38 5 5 0 0 0 .31 1.66 4.73 4.73 0 0 0 1 1.32 3.23 3.23 0 0 0 .77.44 3.34 3.34 0 0 0 .76.23 21.61 21.61 0 0 0 4.57-.88l.59-.18c2.21-.62 5.07-1.34 6-1.46a19.42 19.42 0 0 1 3-.1 27.31 27.31 0 0 1 2.72.32l.54.11c-.47-.59-1.05-1.3-1.72-2.09a39.24 39.24 0 0 1-4.15-5.74 26 26 0 0 1-1.37-3.86z" fill="url(#a)"/><path d="M66.29 153.25c.6 0 1.25 0 1.88.06h3.47c1-.09 2.63-.3 3.63-.47a24.66 24.66 0 0 1 3.89-.31 23.77 23.77 0 0 1 3.84.45 4.16 4.16 0 0 0 2.25-.12 3.18 3.18 0 0 0 1.08-1.62 9.48 9.48 0 0 0 .21-2.91 11.36 11.36 0 0 0-.94-3 11.57 11.57 0 0 1-1-3.75 10.75 10.75 0 0 1 .57-3.77 14.94 14.94 0 0 0 .72-3.11 36.25 36.25 0 0 0-.89-6.5 34 34 0 0 1-.84-7 14.7 14.7 0 0 1 1-3.66 17.59 17.59 0 0 0 1-3.14 15.18 15.18 0 0 0 .21-3.11A28.49 28.49 0 0 0 86 108a30.79 30.79 0 0 0-.89-3.23 31.74 31.74 0 0 1-1-3.5 29.13 29.13 0 0 1-.44-3.5 14.9 14.9 0 0 1 .33-3.63 18 18 0 0 1 1.42-3.6 10.43 10.43 0 0 0 1-3 16.85 16.85 0 0 0-.6-4.53c-.12-.46-.24-.95-.35-1.43a33.66 33.66 0 0 1-.64-3.32 3.14 3.14 0 0 0-.76-1.62 5.86 5.86 0 0 0-2.22-1 17 17 0 0 0-3.4-.33 23.33 23.33 0 0 0-3.69.42 15.87 15.87 0 0 1-4.32.21 17.57 17.57 0 0 1-4.29-1.19 13.14 13.14 0 0 0-3.61-.93 11.2 11.2 0 0 0-3.46.45 4 4 0 0 0-2 1.59 6.42 6.42 0 0 0-.19 3.14 23.06 23.06 0 0 1 .32 5 25.56 25.56 0 0 1-1 5 24.34 24.34 0 0 0-.9 4.62 80.63 80.63 0 0 0 .69 9.51 57.64 57.64 0 0 1 .53 9.77 23.85 23.85 0 0 1-1.22 4.47 22.54 22.54 0 0 0-1.1 3.72 16.25 16.25 0 0 0-.17 3.42 10.47 10.47 0 0 1-.38 3.61 8.45 8.45 0 0 1-1.85 2.9A12.91 12.91 0 0 1 49.1 133a14.27 14.27 0 0 1-3.28 1.05 21.69 21.69 0 0 1-2.87.26h-.42a15.59 15.59 0 0 1-3-.4 20.54 20.54 0 0 1-2.63-.91 16.55 16.55 0 0 1-2.27-1.24 6 6 0 0 1-1.79-2 7.28 7.28 0 0 1-.58-2.77 11.41 11.41 0 0 0-.38-2.54 19.24 19.24 0 0 0-1.21-2.93 27.8 27.8 0 0 1-1.43-3.27 17.84 17.84 0 0 1-.71-3.07 16.52 16.52 0 0 1 0-2.93 17.46 17.46 0 0 1 .58-2.92 12.42 12.42 0 0 0 .43-2.48 12 12 0 0 0-.2-2.47 11.86 11.86 0 0 1-.18-3 12.74 12.74 0 0 1 .74-3 13.09 13.09 0 0 0 .67-2.49 27.32 27.32 0 0 0-.57-5.17 26.58 26.58 0 0 1-.51-5.77 11.17 11.17 0 0 1 1-2.87l.08-.16a7.27 7.27 0 0 0 .71-2.32 6.28 6.28 0 0 0-.37-2.24 2.43 2.43 0 0 0-1.17-1.17 6.22 6.22 0 0 0-2.68.11 16.55 16.55 0 0 1-4.28.42 17.73 17.73 0 0 1-4.28-.89 16.7 16.7 0 0 0-3.75-.83 15.86 15.86 0 0 0-3.71.31 21.1 21.1 0 0 1-4.34.46 25 25 0 0 1-4.51-.58A4.83 4.83 0 0 0 0 75.15a2.29 2.29 0 0 0 0 1.34 20.4 20.4 0 0 1 .7 3.66 15.8 15.8 0 0 1-.12 3.45 13.7 13.7 0 0 0-.16 2.82A14.26 14.26 0 0 0 1 89.24a12.3 12.3 0 0 1 .53 3.4A34.91 34.91 0 0 1 0 99.06a34.5 34.5 0 0 0-1.42 5.86 36.68 36.68 0 0 0 1.15 5.88 35.87 35.87 0 0 1 1.2 6.41 14 14 0 0 1-.57 3.36 10.92 10.92 0 0 0-.41 2.9 14.79 14.79 0 0 0 .57 3.28 25.14 25.14 0 0 1 .81 4 25.85 25.85 0 0 1 0 4.07 27.71 27.71 0 0 0 0 3.57 19.71 19.71 0 0 0 .52 3.1 7.22 7.22 0 0 0 1.21 2.29 8.48 8.48 0 0 0 2.24 1.65 15.33 15.33 0 0 1 2.92 1.89 11.46 11.46 0 0 1 2.06 2.48 8.41 8.41 0 0 0 1.5 1.81 8.06 8.06 0 0 0 2 1.14 19.92 19.92 0 0 1 2.79 1.25 26.69 26.69 0 0 1 2.76 1.92l.15.08a10.06 10.06 0 0 0 2.33 1.29 9.56 9.56 0 0 0 2.7.38 49.74 49.74 0 0 0 5.59-.95 52.13 52.13 0 0 0 6-1.62 72.58 72.58 0 0 0 6.66-3.55 70.35 70.35 0 0 0 6.43-4.18c.92-.77 2.49-2.22 3.48-3.25a10.65 10.65 0 0 1 3.4-2.49 2.24 2.24 0 0 1 2.73 1.58 20.74 20.74 0 0 1 .56 2.37 9.54 9.54 0 0 1 .1 2 4.94 4.94 0 0 1-.68 1.93 9 9 0 0 1-1.53 1.71 3.66 3.66 0 0 0-.46.48 31.93 31.93 0 0 0 3.19.8c.36.07.8.15 1.28.23 1.57.27 3.6.45 5.03.52z" fill="url(#c)"/><path d="M24.82 68.84a4.15 4.15 0 0 0-1.68 1.81 1.56 1.56 0 0 0 1.31 1.14 12.77 12.77 0 0 0 2.82.42A31.62 31.62 0 0 0 32.92 71a30.56 30.56 0 0 1 5.68-1.17 11.63 11.63 0 0 1 2.88.52 4.53 4.53 0 0 0 2.28.21 1.87 1.87 0 0 0 1-1.31 4.6 4.6 0 0 1 .82-1.75 4.75 4.75 0 0 1 1.62-1.1 15.5 15.5 0 0 0 1.86-.89 13.292 13.292 0 0 0 1.55-1.1 4.09 4.09 0 0 1-1-.6 5.7 5.7 0 0 1-1.26-1.67 5.89 5.89 0 0 1-.4-2.08 6.48 6.48 0 0 0-.32-2 4.57 4.57 0 0 0-1-1.5A9.55 9.55 0 0 1 45.3 55a15.85 15.85 0 0 1-1.11-2 1.55 1.55 0 0 0-.87-1.07 2.56 2.56 0 0 0-.56 1.53 11.06 11.06 0 0 1-.65 2.43A5.53 5.53 0 0 1 41 57.48a12.36 12.36 0 0 1-1.56 1.11 15.5 15.5 0 0 1-1.86.89 4.75 4.75 0 0 0-1.62 1.1 4.6 4.6 0 0 0-.82 1.75 1.87 1.87 0 0 1-1 1.31 4.53 4.53 0 0 1-2.28-.21 11.86 11.86 0 0 0-2.2-.43l-.11.24c-.1.22-.22.46-.36.71a16 16 0 0 1-1.6 2.44 16.09 16.09 0 0 1-2.77 2.45z" fill="url(#b)"/><path d="M63.06 49.6a24.72 24.72 0 0 0 1.31 3.7 38.44 38.44 0 0 0 4 5.52A38.5 38.5 0 0 1 71.63 63c0 .2-.38.2-.89 0a15.18 15.18 0 0 0-2.11-.56c-.65-.12-1.82-.26-2.6-.3a18.78 18.78 0 0 0-2.85.09c-.78.1-3.43.74-5.87 1.43l-.68.18a5.1 5.1 0 0 1 .59.88 2.9 2.9 0 0 1 .14.29 6.48 6.48 0 0 1 .32 2 5.89 5.89 0 0 0 .4 2.08 5.7 5.7 0 0 0 1.26 1.67 4.68 4.68 0 0 0 2 .9A24.12 24.12 0 0 0 67 70.59c2.45-.69 5.09-1.33 5.87-1.43a18.78 18.78 0 0 1 2.85-.09c.78 0 2 .18 2.6.3a15.18 15.18 0 0 1 2.11.56c.51.19.91.19.89 0a38.5 38.5 0 0 0-3.24-4.16 38.44 38.44 0 0 1-4-5.52 24.72 24.72 0 0 1-1.31-3.7 9.71 9.71 0 0 0-1.64-3.31 13 13 0 0 0-4.5-2.5c-.81-.28-1.67-.56-2.44-.81l-1.13-.34z" fill="url(#d)"/><path d="M96.19 151.76a10.64 10.64 0 0 1-.95-3.37 9.79 9.79 0 0 1 .51-3.36 15.92 15.92 0 0 0 .78-3.36 36.25 36.25 0 0 0-.86-6.73 33.7 33.7 0 0 1-.82-6.73 13.78 13.78 0 0 1 .94-3.36 18.61 18.61 0 0 0 1.08-3.36 16.23 16.23 0 0 0 .22-3.36 29.26 29.26 0 0 0-.44-3.36 31.75 31.75 0 0 0-.93-3.36 30.74 30.74 0 0 1-.92-3.36 28.28 28.28 0 0 1-.42-3.36 13.93 13.93 0 0 1 .33-3.36A17.07 17.07 0 0 1 96 98a11.33 11.33 0 0 0 1.12-3.36 17.53 17.53 0 0 0-.63-4.89 42.67 42.67 0 0 1-1-4.59 4.12 4.12 0 0 0-1.08-2.26 6.77 6.77 0 0 0-2.69-1.26 19.66 19.66 0 0 0-3.63-.35h-.68l-1 .09c.11.47.23.95.34 1.4a17.53 17.53 0 0 1 .63 4.89A11.33 11.33 0 0 1 86.33 91 17.07 17.07 0 0 0 85 94.38a13.93 13.93 0 0 0-.33 3.36 28.28 28.28 0 0 0 .42 3.36 30.74 30.74 0 0 0 .92 3.36 31.75 31.75 0 0 1 .93 3.36 29.26 29.26 0 0 1 .44 3.36 16.23 16.23 0 0 1-.22 3.36 18.61 18.61 0 0 1-1.08 3.36 13.78 13.78 0 0 0-.94 3.36A33.7 33.7 0 0 0 86 128a36.25 36.25 0 0 1 .86 6.73 15.92 15.92 0 0 1-.78 3.36 9.79 9.79 0 0 0-.51 3.36 10.64 10.64 0 0 0 .95 3.37 12.44 12.44 0 0 1 1 3.34 10.36 10.36 0 0 1-.24 3.28 4.06 4.06 0 0 1-1.56 2.24 5 5 0 0 1-2.94.22 22.54 22.54 0 0 0-3.65-.43 23.14 23.14 0 0 0-3.69.29c-1 .18-2.69.4-3.72.49-.71.06-2.12.07-3.58 0v.13a3.44 3.44 0 0 1-.24.87 3.8 3.8 0 0 1-.3.61 8.09 8.09 0 0 1-1.34 1.48 3.11 3.11 0 0 0-1 1.27.91.91 0 0 0 .59.84 29.2 29.2 0 0 0 3.55.91 50.14 50.14 0 0 0 6.5.77c2 .09 4.47.1 5.49 0s2.69-.31 3.72-.49a23.14 23.14 0 0 1 3.69-.29 22.54 22.54 0 0 1 3.65.43 5 5 0 0 0 2.94-.22 4.06 4.06 0 0 0 1.61-2.17 10.36 10.36 0 0 0 .24-3.28 12.44 12.44 0 0 0-1.05-3.35z" fill="url(#e)"/><path d="M30.51 85.1a26.11 26.11 0 0 0 .49 5.45 27.24 27.24 0 0 1 .54 5.45 14.06 14.06 0 0 1-.73 2.72 11.83 11.83 0 0 0-.67 2.72 10.9 10.9 0 0 0 .16 2.72 13 13 0 0 1 .23 2.72 13.42 13.42 0 0 1-.48 2.72 16.73 16.73 0 0 0-.54 2.72 15.81 15.81 0 0 0 0 2.72 16.83 16.83 0 0 0 .66 2.86 26.45 26.45 0 0 0 1.36 3.13 20.18 20.18 0 0 1 1.28 3.12 12.25 12.25 0 0 1 .42 2.82 6.36 6.36 0 0 0 .48 2.33 5 5 0 0 0 1.48 1.7 15.75 15.75 0 0 0 2.11 1.16 19.83 19.83 0 0 0 2.46.84 14.59 14.59 0 0 0 2.79.37h.39c0-.31-.07-.66-.13-1a11.2 11.2 0 0 0-.26-1.22 20.18 20.18 0 0 0-1.29-3.15 26.45 26.45 0 0 1-1.36-3.13 16.83 16.83 0 0 1-.66-2.86 15.81 15.81 0 0 1 0-2.72 16.73 16.73 0 0 1 .54-2.72 13.42 13.42 0 0 0 .48-2.72 13 13 0 0 0-.23-2.72 10.9 10.9 0 0 1-.16-2.72 11.83 11.83 0 0 1 .67-2.72 14.06 14.06 0 0 0 .73-2.72 27.24 27.24 0 0 0-.53-5.45 26.11 26.11 0 0 1-.52-5.52 10.31 10.31 0 0 1 .93-2.72 8.19 8.19 0 0 0 .85-2.67 7.26 7.26 0 0 0-.44-2.68 3.38 3.38 0 0 0-1.79-1.75 7.12 7.12 0 0 0-3.24.09 15.91 15.91 0 0 1-4 .4h-.12c-.31 0-.66-.06-1-.13a10.3 10.3 0 0 0-.9 2.56z" fill="url(#f)"/><path d="M59.74 153.47a29.2 29.2 0 0 1-3.55-.91.91.91 0 0 1-.59-.84 3.11 3.11 0 0 1 1-1.27 8.09 8.09 0 0 0 1.3-1.45 4 4 0 0 0 .53-1.48 8.71 8.71 0 0 0-.09-1.73 20.1 20.1 0 0 0-.53-2.23 1.25 1.25 0 0 0-1.49-.91 10.07 10.07 0 0 0-3 2.23c-1 1-2.62 2.54-3.56 3.32a69.83 69.83 0 0 1-6.56 4.27 72.49 72.49 0 0 1-6.8 3.62 52.67 52.67 0 0 1-6.11 1.67 50.35 50.35 0 0 1-5.76 1 10 10 0 0 1-3.06-.43 11 11 0 0 1-2.61-1.44c.08.12.17.25.24.36a9.61 9.61 0 0 0 1.38 1.75c.12.12.23.23.34.32a9 9 0 0 0 2.32 1.32 19 19 0 0 1 2.63 1.23 25.74 25.74 0 0 1 2.64 1.83 11 11 0 0 0 2.78 1.57 10 10 0 0 0 3.06.43 50.35 50.35 0 0 0 5.76-1 52.67 52.67 0 0 0 6.13-1.7 72.49 72.49 0 0 0 6.8-3.62 69.83 69.83 0 0 0 6.56-4.27l.63-.54.95-.86c-.51-.08-.96-.16-1.34-.24z" fill="url(#g)"/></svg>