<svg xmlns="http://www.w3.org/2000/svg" xmlns:xlink="http://www.w3.org/1999/xlink" width="200" height="200" viewBox="0 0 200 200"><defs><linearGradient id="a" x1="75.44" y1="155.46" x2="116.2" y2="63.93" gradientUnits="userSpaceOnUse"><stop offset="0" stop-color="#fdba56"/><stop offset="0.02" stop-color="#fbb055"/><stop offset="0.06" stop-color="#f79d54"/><stop offset="0.1" stop-color="#f59253"/><stop offset="0.15" stop-color="#f48e53"/><stop offset="0.3" stop-color="#ed5e4e"/><stop offset="0.47" stop-color="#683a96" stop-opacity="0.5"/><stop offset="0.64" stop-color="#ed872b"/><stop offset="0.79" stop-color="#7b76b6"/><stop offset="0.9" stop-color="#f15f4f"/><stop offset="1" stop-color="#fdba56"/></linearGradient><linearGradient id="b" x1="72.79" y1="63.47" x2="83.33" y2="39.78" xlink:href="#a"/><linearGradient id="c" x1="107.47" y1="64.33" x2="117.78" y2="41.17" xlink:href="#a"/><linearGradient id="d" x1="118.85" y1="87.47" x2="150.52" y2="158.61" gradientUnits="userSpaceOnUse"><stop offset="0" stop-color="#b7151b"/><stop offset="0.02" stop-color="#c52229"/><stop offset="0.06" stop-color="#d7333c"/><stop offset="0.11" stop-color="#e23d47"/><stop offset="0.15" stop-color="#e6404b"/><stop offset="0.3" stop-color="#e98a7b"/><stop offset="0.47" stop-color="#7c78b8"/><stop offset="0.64" stop-color="#00b0b0"/><stop offset="0.79" stop-color="#7b76b6"/><stop offset="1" stop-color="#e7322f"/></linearGradient><linearGradient id="e" x1="79.79" y1="80.87" x2="101.57" y2="129.78" xlink:href="#d"/><linearGradient id="f" x1="83.55" y1="140.77" x2="93.74" y2="163.65" xlink:href="#d"/><linearGradient id="g" x1="83.29" y1="50.42" x2="92.96" y2="72.14" xlink:href="#d"/><linearGradient id="h" x1="117.97" y1="50.88" x2="127.17" y2="71.56" xlink:href="#d"/></defs><title>_</title><path d="M116.33,153.51c0.41,0.1,1,.21,1.51.31,0.73,0.13,1.45.23,2,.28,1,0.09,2.62.14,3.61,0.13s4.39-.3,7.44-0.62a20.4,20.4,0,0,0,6-1.3,3.46,3.46,0,0,0,.56-2,32.48,32.48,0,0,1,.12-3.61,31.71,31.71,0,0,1,.6-3.53c0.21-.88.59-3.14,0.82-4.94a33,33,0,0,0,.31-4.84,24.57,24.57,0,0,0-.5-3.2,25.48,25.48,0,0,1-.54-3.53,24.64,24.64,0,0,1,.07-3.54c0.08-.79.18-5,0.18-10,0-4.17.11-9.14,0.29-10.24a10.12,10.12,0,0,0-.09-3,12.7,12.7,0,0,0-1.24-3.06,10.72,10.72,0,0,1-1.28-3.78,9.62,9.62,0,0,1,.59-3.83,9.46,9.46,0,0,0,.59-3,9.67,9.67,0,0,0-.67-3,11,11,0,0,1-.75-3.92,14.47,14.47,0,0,1,1-4.32,3.67,3.67,0,0,0,.29-1.79,52.86,52.86,0,0,0-9.87.18l-1,.09a135.17,135.17,0,0,1-14.19.58,9.05,9.05,0,0,0-4.51.6,6.32,6.32,0,0,0-1.21,3c-0.17,1.3-.27,6.81-0.22,12s0.38,11.81.72,14.45a50.72,50.72,0,0,1,.5,7.26,20.08,20.08,0,0,1-.89,4.49,26.59,26.59,0,0,0-.95,3.71,19,19,0,0,0-.17,3.37,10.15,10.15,0,0,1-.44,3.48,7.76,7.76,0,0,1-1.85,2.73,23.45,23.45,0,0,1-2.53,1.91,29.94,29.94,0,0,1-3,1.61,11.33,11.33,0,0,1-1.7.59,9.54,9.54,0,0,1-1.64.31,9.12,9.12,0,0,1-3.22-.44,10.84,10.84,0,0,1-2.61-1.42,8.33,8.33,0,0,1-1.81-2.12c-0.34-.62-0.82-1.61-1.07-2.23a20.77,20.77,0,0,1-.74-2.25c-0.12-.49-0.7-2.18-1.36-3.91a22.81,22.81,0,0,1-1.3-4.72,10.07,10.07,0,0,1,.35-3.23A7.89,7.89,0,0,0,82.8,111a8.6,8.6,0,0,0-.63-2.38,9.5,9.5,0,0,1-.75-3.11,9.21,9.21,0,0,1,.57-3.12,16.33,16.33,0,0,0,.73-2.53c0.11-.61.3-5.36,0.39-11.2l0-2.24c0-2.65.06-5.33,0.06-7.54s0-3.7-.08-4.13a2.91,2.91,0,0,0-1-1.84,25.64,25.64,0,0,0-7.08,0c-3.59.34-10.17,0.6-14.7,0.58H60.06a39,39,0,0,0-8.37.59,2.63,2.63,0,0,0-.62,1.59,25.87,25.87,0,0,0,.16,3.1c0.1,0.84.67,3.63,1.24,6.1a26.3,26.3,0,0,1,.85,6.51,27.35,27.35,0,0,1-1.57,4.85c-0.68,1.63-1.43,3.68-1.64,4.48a6.53,6.53,0,0,0,0,2.58A9.4,9.4,0,0,0,51.37,106a7,7,0,0,1,1.31,3.67,7.13,7.13,0,0,1-1.38,3.66,3.67,3.67,0,0,0,0,4.94,8.8,8.8,0,0,1,1.52,3.78,10.19,10.19,0,0,1-.71,4.17,13.45,13.45,0,0,0-.85,3.53,29.65,29.65,0,0,0,1.38,6.63c0.83,2.72,1.8,5.67,2.13,6.44s1,2,1.37,2.8a5.94,5.94,0,0,0,1.7,1.81,6.88,6.88,0,0,0,2.58.71,12.61,12.61,0,0,1,3.34.67l0.12,0a8.76,8.76,0,0,1,2.65,1.8,13.26,13.26,0,0,0,2,1.64,39.88,39.88,0,0,0,5.38,2.2,21.12,21.12,0,0,0,5.86,1.3,74.56,74.56,0,0,0,9.38-2.93c4.6-1.67,8.51-3.24,9.29-3.67a32,32,0,0,0,3.18-2.09c0.87-.67,2.5-2.1,3.63-3.19,1.85-1.79,2.23-2.16,3-1.46a1,1,0,0,1,0,1.48,1.91,1.91,0,0,0-.37.78,2,2,0,0,0,.3.84,6.09,6.09,0,0,1,.8,1.83,4.86,4.86,0,0,1,0,1.93,2.52,2.52,0,0,0-.06.79,0.79,0.79,0,0,0,.17.24c0.18,0.12,1.44.75,3,1.49,0.56,0.26,1.19.53,1.81,0.78A24.59,24.59,0,0,0,116.33,153.51Z" fill="url(#a)"/><path d="M88.34,54.24c0-.82.26-3.92,0.53-6.46l0-.4a15.73,15.73,0,0,0-.08-4.94,5.7,5.7,0,0,0-1.9-1,12.71,12.71,0,0,0-3-.48,12.2,12.2,0,0,0-3,.44,20.6,20.6,0,0,1-3.45.69A19.43,19.43,0,0,1,74,42a13.24,13.24,0,0,0-2.85,0,11.2,11.2,0,0,0-2.55.77,13.72,13.72,0,0,0-2.12,1.27,7.86,7.86,0,0,0-1.35,1.41,9.55,9.55,0,0,0-.86,1.72,12.51,12.51,0,0,0-.49,2.11,19.35,19.35,0,0,0-.13,2.35c0,0.57.27,2.71,0.63,5a10.8,10.8,0,0,0,1,3.45,4.83,4.83,0,0,0,1.79-.32A14,14,0,0,1,70.74,59h0.42a13.1,13.1,0,0,1,1.45.09,11.69,11.69,0,0,1,1.75.32c0.76,0.21,4.31.82,8.39,1.38a36.35,36.35,0,0,0,6.77.46,2.67,2.67,0,0,0-.1-1.08,30.43,30.43,0,0,1-.79-3.1A20.14,20.14,0,0,1,88.34,54.24Z" fill="url(#b)"/><path d="M125.15,51.85a12.27,12.27,0,0,1,0-2.77,8.56,8.56,0,0,0,0-1.77c0-.14,0-0.2,0-0.24a5.7,5.7,0,0,0-.58-1.6,7,7,0,0,0-1.26-1.41,13.48,13.48,0,0,0-2.1-1.33,18.31,18.31,0,0,0-2.66-1,20.74,20.74,0,0,0-2.94-.54c-0.85-.08-2.28-0.14-3.14-0.13s-3.83.29-6.5,0.6a21.35,21.35,0,0,0-4.82,1,2.15,2.15,0,0,0,.19,1,9.71,9.71,0,0,1,.8,3,8.62,8.62,0,0,1-.42,3c-0.24.66-.57,1.77-0.72,2.42h0c-0.08.35-.25,1.32-0.43,2.58-0.13.87-.26,1.83-0.38,2.79A16.87,16.87,0,0,0,100.1,60a5.75,5.75,0,0,0,.12,1.06,4.78,4.78,0,0,0,1.74-.2A35.58,35.58,0,0,1,105.7,60a27.32,27.32,0,0,1,3.53-.32h0.2c1.19,0,4.66.25,8.09,0.54a33.62,33.62,0,0,0,7.17.07,3.26,3.26,0,0,0,1.1-1.34,7.7,7.7,0,0,0,.47-2.23,7.07,7.07,0,0,0-.4-2.15A13.41,13.41,0,0,1,125.15,51.85Z" fill="url(#c)"/><path d="M149.47,136.93a24.43,24.43,0,0,1-.51-3.36,23.61,23.61,0,0,1,.07-3.36c0.1-.92.18-5.46,0.19-10.09s0.13-9.16.28-10.09a11,11,0,0,0-.1-3.36,13.71,13.71,0,0,0-1.35-3.36,9.73,9.73,0,0,1-1.15-3.36,8.59,8.59,0,0,1,.53-3.36,10.39,10.39,0,0,0,.66-3.36,10.55,10.55,0,0,0-.75-3.36,9.91,9.91,0,0,1-.67-3.55,13.6,13.6,0,0,1,.9-3.92c0.46-1.13.51-2.45,0.1-2.94S143,78.95,138,79.33l-1,.08h0a9.93,9.93,0,0,0,.67,3.5,10.55,10.55,0,0,1,.75,3.36,10.39,10.39,0,0,1-.66,3.36,8.59,8.59,0,0,0-.53,3.36,9.73,9.73,0,0,0,1.15,3.36,13.71,13.71,0,0,1,1.35,3.36,11,11,0,0,1,.1,3.36c-0.15.92-.27,5.46-0.28,10.09s-0.09,9.16-.19,10.09a23.61,23.61,0,0,0-.07,3.36,24.43,24.43,0,0,0,.51,3.36,25.48,25.48,0,0,1,.53,3.36,33.43,33.43,0,0,1-.31,5c-0.24,1.85-.62,4.12-0.84,5a30.58,30.58,0,0,0-.58,3.4,31.39,31.39,0,0,0-.11,3.48,4.3,4.3,0,0,1-.87,2.73c-0.51.53-3.49,1.24-6.61,1.57s-6.51.61-7.53,0.63-2.69,0-3.72-.13c-0.57,0-1.32-.16-2-0.29a4.25,4.25,0,0,1,0,1c0,0.07,0,.14,0,0.2a3.25,3.25,0,0,0-.06,1.27,1.64,1.64,0,0,0,.56.83c0.24,0.17,1.67.88,3.18,1.58a33.62,33.62,0,0,0,4.52,1.73,27.17,27.17,0,0,0,3.63.62c1,0.09,2.69.15,3.72,0.13s4.41-.3,7.53-0.62,6.09-1,6.61-1.57a4.3,4.3,0,0,0,.87-2.73,31.39,31.39,0,0,1,.11-3.48,30.58,30.58,0,0,1,.58-3.4c0.22-.92.6-3.19,0.84-5a33.43,33.43,0,0,0,.31-5A25.48,25.48,0,0,0,149.47,136.93Z" fill="url(#d)"/><path d="M84.21,78.91c0,2.13,0,4.83-.06,7.56l0,2.24c-0.09,5.5-.27,10.61-0.41,11.36a17.25,17.25,0,0,1-.79,2.72,8.2,8.2,0,0,0-.5,2.72,8.49,8.49,0,0,0,.66,2.72,9.55,9.55,0,0,1,.72,2.72,8.84,8.84,0,0,1-.33,2.72,9.06,9.06,0,0,0-.31,2.85A21.92,21.92,0,0,0,84.39,121c0.62,1.62,1.25,3.43,1.39,4a20,20,0,0,0,.7,2.12,23.24,23.24,0,0,0,1,2.12,7.39,7.39,0,0,0,1.56,1.83,9.82,9.82,0,0,0,2.32,1.26,8.09,8.09,0,0,0,2.8.38,8.49,8.49,0,0,0,1.45-.28c-0.05-.18-0.1-0.34-0.14-0.48s-0.08-.28-0.14-0.48c-0.25-.81-0.75-2.23-1.25-3.54a21.92,21.92,0,0,1-1.24-4.44,9.06,9.06,0,0,1,.31-2.85,8.84,8.84,0,0,0,.33-2.72,9.55,9.55,0,0,0-.72-2.72,8.49,8.49,0,0,1-.66-2.72,8.2,8.2,0,0,1,.5-2.72,17.25,17.25,0,0,0,.79-2.72c0.14-.75.32-5.86,0.41-11.36l0-2.24c0.09-5.5.08-10.81,0-11.8A3.86,3.86,0,0,0,92.39,79c-0.65-.41-3.82-0.49-7.18-0.21l-0.52,0Z" fill="url(#e)"/><path d="M111.57,152.75c-1.51-.7-2.94-1.41-3.18-1.58a1.64,1.64,0,0,1-.56-0.83,3.25,3.25,0,0,1,.06-1.27,3.92,3.92,0,0,0,0-1.48,5.11,5.11,0,0,0-.66-1.48,2.86,2.86,0,0,1-.46-1.45,2.77,2.77,0,0,1,.6-1.38c0.31-.37-0.37.24-1.52,1.35s-2.82,2.58-3.72,3.27a32.33,32.33,0,0,1-3.3,2.17c-0.92.51-5.16,2.19-9.43,3.74a73.5,73.5,0,0,1-9.63,3,21.69,21.69,0,0,1-6.28-1.36,39.62,39.62,0,0,1-5.6-2.3,14.2,14.2,0,0,1-2.14-1.79,7.79,7.79,0,0,0-2.31-1.57l-0.09,0,0.16,0.41c0.13,0.3.3,0.68,0.49,1.06,0.31,0.65.66,1.34,0.93,1.83A6.83,6.83,0,0,0,67,155.24a7.85,7.85,0,0,0,3,.85,11.49,11.49,0,0,1,3.12.64,7.79,7.79,0,0,1,2.31,1.57,14.2,14.2,0,0,0,2.14,1.79,39.62,39.62,0,0,0,5.6,2.3,21.69,21.69,0,0,0,6.28,1.36,73.5,73.5,0,0,0,9.63-3c4.27-1.55,8.51-3.23,9.43-3.74a32.33,32.33,0,0,0,3.3-2.17l0.7-.56,0.85-.73C112.79,153.3,112.14,153,111.57,152.75Z" fill="url(#f)"/><path d="M99.11,60.09a17.77,17.77,0,0,1,.13-2.89c0.12-1,.25-1.94.38-2.81a21.57,21.57,0,0,0,0-4.75,1.94,1.94,0,0,0-.26-0.81,6,6,0,0,0-2.43-1.43,13.75,13.75,0,0,0-3.32-.53,13.26,13.26,0,0,0-2.69.34l-0.59.15-0.44.12c0,0.14,0,.27,0,0.41-0.3,2.8-.53,5.65-0.52,6.34a19.33,19.33,0,0,0,.27,2.66,29.34,29.34,0,0,0,.76,3,2.46,2.46,0,0,1-.19,2.22c-0.38.36-3.78,0.22-7.57-.3S75,60.63,74.1,60.37a10.78,10.78,0,0,0-1.6-.29c0,0.31.08,0.66,0.13,1,0.11,0.83.24,1.77,0.39,2.68,0.34,2.13,1,4,1.55,4.21a4.69,4.69,0,0,0,2.61-.31A13.17,13.17,0,0,1,80.51,67a12.08,12.08,0,0,1,3.3.36c0.9,0.25,4.74.89,8.52,1.41s7.19,0.66,7.57.3a2.46,2.46,0,0,0,.19-2.22,29.34,29.34,0,0,1-.76-3c-0.05-.28-0.1-0.63-0.14-1-0.07-.61-0.13-1.25-0.13-1.68C99.05,61,99.07,60.59,99.11,60.09Z" fill="url(#g)"/><path d="M109.26,68.87a4.26,4.26,0,0,0,2.7-.06,34.82,34.82,0,0,1,3.61-.85,26.53,26.53,0,0,1,3.37-.3c0.89,0,4.58.23,8.2,0.53s7.06,0.29,7.66,0a4.16,4.16,0,0,0,1.62-1.88A8.66,8.66,0,0,0,137,63.7a8,8,0,0,0-.47-2.53,12.45,12.45,0,0,1-.64-2.5,11.33,11.33,0,0,1,0-2.5,9.12,9.12,0,0,0,0-2.32,6.62,6.62,0,0,0-.71-2,8,8,0,0,0-1.48-1.67,14.48,14.48,0,0,0-2.29-1.45,19.35,19.35,0,0,0-2.83-1.08c-0.37-.1-0.85-0.21-1.35-0.3l-1-.17a9.47,9.47,0,0,1,0,2,11.33,11.33,0,0,0,0,2.5,12.45,12.45,0,0,0,.64,2.5,8,8,0,0,1,.47,2.53,8.66,8.66,0,0,1-.54,2.58,4.16,4.16,0,0,1-1.62,1.88c-0.6.31-4.05,0.32-7.66,0-3.41-.28-6.88-0.51-8-0.53,0,0.31-.1.65-0.15,1-0.11.77-.22,1.61-0.33,2.44C108.66,66.47,108.8,68.59,109.26,68.87Z" fill="url(#h)"/></svg>