<svg xmlns="http://www.w3.org/2000/svg" xmlns:xlink="http://www.w3.org/1999/xlink" width="95.69" height="200" viewBox="0 0 95.69 200"><defs><linearGradient id="a" x1="23.71" y1="156.83" x2="64.47" y2="65.3" gradientUnits="userSpaceOnUse"><stop offset="0" stop-color="#fdba56"/><stop offset=".02" stop-color="#fbb055"/><stop offset=".06" stop-color="#f79d54"/><stop offset=".1" stop-color="#f59253"/><stop offset=".15" stop-color="#f48e53"/><stop offset=".3" stop-color="#ed5e4e"/><stop offset=".47" stop-color="#683a96" stop-opacity=".5"/><stop offset=".64" stop-color="#ed872b"/><stop offset=".79" stop-color="#7b76b6"/><stop offset=".9" stop-color="#f15f4f"/><stop offset="1" stop-color="#fdba56"/></linearGradient><linearGradient id="c" x1="21.06" y1="64.85" x2="31.61" y2="41.16" xlink:href="#a"/><linearGradient id="d" x1="55.74" y1="65.7" x2="66.05" y2="42.55" xlink:href="#a"/><linearGradient id="b" x1="67.12" y1="88.84" x2="98.8" y2="159.99" gradientUnits="userSpaceOnUse"><stop offset="0" stop-color="#b7151b"/><stop offset=".02" stop-color="#c52229"/><stop offset=".06" stop-color="#d7333c"/><stop offset=".11" stop-color="#e23d47"/><stop offset=".15" stop-color="#e6404b"/><stop offset=".3" stop-color="#e98a7b"/><stop offset=".47" stop-color="#7c78b8"/><stop offset=".64" stop-color="#00b0b0"/><stop offset=".79" stop-color="#7b76b6"/><stop offset="1" stop-color="#e7322f"/></linearGradient><linearGradient id="e" x1="28.06" y1="82.25" x2="49.84" y2="131.15" xlink:href="#b"/><linearGradient id="f" x1="31.82" y1="142.15" x2="42.01" y2="165.02" xlink:href="#b"/><linearGradient id="g" x1="31.56" y1="51.8" x2="41.23" y2="73.51" xlink:href="#b"/><linearGradient id="h" x1="66.24" y1="52.26" x2="75.44" y2="72.94" xlink:href="#b"/></defs><title>_</title><path d="M64.6 154.89c.41.1 1 .21 1.51.31.73.13 1.45.23 2 .28 1 .09 2.62.14 3.61.13s4.39-.3 7.44-.62a20.4 20.4 0 0 0 6-1.3 3.46 3.46 0 0 0 .56-2 32.48 32.48 0 0 1 .12-3.61 31.71 31.71 0 0 1 .6-3.53c.21-.88.59-3.14.82-4.94a33 33 0 0 0 .31-4.84 24.57 24.57 0 0 0-.5-3.2 25.48 25.48 0 0 1-.54-3.53 24.64 24.64 0 0 1 .07-3.54c.08-.79.18-5 .18-10 0-4.17.11-9.14.29-10.24a10.12 10.12 0 0 0-.09-3 12.7 12.7 0 0 0-1.24-3.06 10.72 10.72 0 0 1-1.28-3.78 9.62 9.62 0 0 1 .59-3.83 9.46 9.46 0 0 0 .59-3 9.67 9.67 0 0 0-.67-3 11 11 0 0 1-.75-3.92 14.47 14.47 0 0 1 1-4.32 3.67 3.67 0 0 0 .29-1.79 52.86 52.86 0 0 0-9.87.18l-1 .09a135.17 135.17 0 0 1-14.19.58 9.05 9.05 0 0 0-4.51.6 6.32 6.32 0 0 0-1.21 3c-.17 1.3-.27 6.81-.22 12s.38 11.81.72 14.45a50.72 50.72 0 0 1 .5 7.26 20.08 20.08 0 0 1-.89 4.49 26.59 26.59 0 0 0-.95 3.71 19 19 0 0 0-.17 3.37 10.15 10.15 0 0 1-.44 3.48 7.76 7.76 0 0 1-1.85 2.73 23.45 23.45 0 0 1-2.53 1.91 29.94 29.94 0 0 1-3 1.61 11.33 11.33 0 0 1-1.7.59 9.54 9.54 0 0 1-1.64.31 9.12 9.12 0 0 1-3.22-.44 10.84 10.84 0 0 1-2.61-1.42 8.33 8.33 0 0 1-1.81-2.12c-.34-.62-.82-1.61-1.07-2.23a20.77 20.77 0 0 1-.74-2.25c-.12-.49-.7-2.18-1.36-3.91a22.81 22.81 0 0 1-1.3-4.72 10.07 10.07 0 0 1 .35-3.23 7.89 7.89 0 0 0 .29-2.36 8.6 8.6 0 0 0-.63-2.38 9.5 9.5 0 0 1-.75-3.11 9.21 9.21 0 0 1 .57-3.12 16.33 16.33 0 0 0 .73-2.53c.11-.61.3-5.36.39-11.2v-2.24c0-2.65.06-5.33.06-7.54s0-3.7-.08-4.13a2.91 2.91 0 0 0-1-1.84 25.64 25.64 0 0 0-7.08 0c-3.59.34-10.17.6-14.7.58h-.27a39 39 0 0 0-8.33.74 2.63 2.63 0 0 0-.62 1.59 25.87 25.87 0 0 0 .16 3.1c.1.84.67 3.63 1.24 6.1a26.3 26.3 0 0 1 .85 6.51A27.35 27.35 0 0 1 0 97.62c-.68 1.63-1.43 3.68-1.64 4.48a6.53 6.53 0 0 0 0 2.58 9.4 9.4 0 0 0 1.33 2.71A7 7 0 0 1 1 111.06a7.13 7.13 0 0 1-1.38 3.66 5.22 5.22 0 0 0-1 2.47 5.18 5.18 0 0 0 .95 2.47 8.8 8.8 0 0 1 1.52 3.78 10.19 10.19 0 0 1-.71 4.17 13.45 13.45 0 0 0-.85 3.53 29.65 29.65 0 0 0 1.38 6.63c.83 2.72 1.8 5.67 2.13 6.44s1 2 1.37 2.8a5.94 5.94 0 0 0 1.7 1.81 6.88 6.88 0 0 0 2.58.71 12.61 12.61 0 0 1 3.34.67h.12a8.76 8.76 0 0 1 2.65 1.8 13.26 13.26 0 0 0 2 1.64 39.88 39.88 0 0 0 5.38 2.2 21.12 21.12 0 0 0 5.86 1.3 74.56 74.56 0 0 0 9.38-2.93c4.6-1.67 8.51-3.24 9.29-3.67a32 32 0 0 0 3.18-2.09c.87-.67 2.5-2.1 3.63-3.19 1.85-1.79 2.23-2.16 3-1.46a1 1 0 0 1 0 1.48 1.91 1.91 0 0 0-.37.78 2 2 0 0 0 .3.84 6.09 6.09 0 0 1 .8 1.83 4.86 4.86 0 0 1 0 1.93 2.52 2.52 0 0 0-.06.79.79.79 0 0 0 .17.24c.18.12 1.44.75 3 1.49.56.26 1.19.53 1.81.78a24.59 24.59 0 0 0 2.43.93z" fill="url(#a)"/><path d="M36.62 55.62c0-.82.26-3.92.53-6.46v-.4a15.73 15.73 0 0 0-.08-4.94 5.7 5.7 0 0 0-1.9-1 12.71 12.71 0 0 0-3-.48 12.2 12.2 0 0 0-3 .44 20.6 20.6 0 0 1-3.45.69 19.43 19.43 0 0 1-3.46 0 13.24 13.24 0 0 0-2.85 0 11.2 11.2 0 0 0-2.55.77 13.72 13.72 0 0 0-2.12 1.27 7.86 7.86 0 0 0-1.35 1.41 9.55 9.55 0 0 0-.86 1.72 12.51 12.51 0 0 0-.49 2.11 19.35 19.35 0 0 0-.13 2.35c0 .57.27 2.71.63 5a10.8 10.8 0 0 0 1 3.45 4.83 4.83 0 0 0 1.79-.32 14 14 0 0 1 3.67-.84h.42a13.1 13.1 0 0 1 1.45.09 11.69 11.69 0 0 1 1.75.32c.76.21 4.31.82 8.39 1.38a36.35 36.35 0 0 0 6.77.46 2.67 2.67 0 0 0-.1-1.08 30.43 30.43 0 0 1-.79-3.1 20.14 20.14 0 0 1-.27-2.84z" fill="url(#c)"/><path d="M73.42 53.22a12.27 12.27 0 0 1 0-2.77 8.56 8.56 0 0 0 0-1.77v-.24a5.7 5.7 0 0 0-.58-1.6 7 7 0 0 0-1.26-1.41 13.48 13.48 0 0 0-2.1-1.33 18.31 18.31 0 0 0-2.66-1 20.74 20.74 0 0 0-2.94-.54c-.85-.08-2.28-.14-3.14-.13s-3.83.29-6.5.6a21.35 21.35 0 0 0-4.82 1 2.15 2.15 0 0 0 .19 1 9.71 9.71 0 0 1 .8 3 8.62 8.62 0 0 1-.42 3c-.24.66-.57 1.77-.72 2.42-.08.35-.25 1.32-.43 2.58-.13.87-.26 1.83-.38 2.79a16.87 16.87 0 0 0-.13 2.72 5.75 5.75 0 0 0 .12 1.06 4.78 4.78 0 0 0 1.74-.2 35.58 35.58 0 0 1 3.81-1 27.32 27.32 0 0 1 3.53-.32h.2c1.19 0 4.66.25 8.09.54a33.62 33.62 0 0 0 7.17.07 3.26 3.26 0 0 0 1.1-1.34 7.7 7.7 0 0 0 .47-2.23 7.07 7.07 0 0 0-.4-2.15 13.41 13.41 0 0 1-.74-2.75z" fill="url(#d)"/><path d="M97.74 138.31a24.43 24.43 0 0 1-.51-3.36 23.61 23.61 0 0 1 .07-3.36c.1-.92.18-5.46.19-10.09s.13-9.16.28-10.09a11 11 0 0 0-.1-3.36 13.71 13.71 0 0 0-1.35-3.36 9.73 9.73 0 0 1-1.15-3.36 8.59 8.59 0 0 1 .52-3.33 10.39 10.39 0 0 0 .66-3.36 10.55 10.55 0 0 0-.75-3.36 9.91 9.91 0 0 1-.67-3.55 13.6 13.6 0 0 1 .9-3.92c.46-1.13.51-2.45.1-2.94s-4.65-.51-9.71-.13l-1 .08a9.93 9.93 0 0 0 .67 3.5 10.55 10.55 0 0 1 .75 3.36A10.39 10.39 0 0 1 86 91a8.59 8.59 0 0 0-.53 3.36 9.73 9.73 0 0 0 1.15 3.36A13.71 13.71 0 0 1 88 101.1a11 11 0 0 1 .1 3.36c-.15.92-.27 5.46-.28 10.09s-.09 9.16-.19 10.09a23.61 23.61 0 0 0-.07 3.36 24.43 24.43 0 0 0 .51 3.36 25.48 25.48 0 0 1 .53 3.36 33.43 33.43 0 0 1-.31 5c-.24 1.85-.62 4.12-.84 5a30.58 30.58 0 0 0-.58 3.4 31.39 31.39 0 0 0-.11 3.48 4.3 4.3 0 0 1-.87 2.73c-.51.53-3.49 1.24-6.61 1.57s-6.51.61-7.53.63-2.69 0-3.72-.13c-.57 0-1.32-.16-2-.29a4.25 4.25 0 0 1 0 1v.2a3.25 3.25 0 0 0-.06 1.27 1.64 1.64 0 0 0 .56.83c.24.17 1.67.88 3.18 1.58a33.62 33.62 0 0 0 4.52 1.73 27.17 27.17 0 0 0 3.63.62c1 .09 2.69.15 3.72.13s4.41-.3 7.53-.62 6.09-1 6.61-1.57a4.3 4.3 0 0 0 .87-2.73 31.39 31.39 0 0 1 .11-3.48 30.58 30.58 0 0 1 .58-3.4c.22-.92.6-3.19.84-5a33.43 33.43 0 0 0 .31-5 25.48 25.48 0 0 0-.69-3.36z" fill="url(#b)"/><path d="M32.48 80.28c0 2.13 0 4.83-.06 7.56v2.24c-.09 5.5-.27 10.61-.41 11.36a17.25 17.25 0 0 1-.79 2.72 8.2 8.2 0 0 0-.5 2.72 8.49 8.49 0 0 0 .66 2.72 9.55 9.55 0 0 1 .72 2.72 8.84 8.84 0 0 1-.33 2.72 9.06 9.06 0 0 0-.31 2.85 21.92 21.92 0 0 0 1.24 4.44c.62 1.62 1.25 3.43 1.39 4a20 20 0 0 0 .7 2.12 23.24 23.24 0 0 0 1 2.12 7.39 7.39 0 0 0 1.56 1.83 9.82 9.82 0 0 0 2.32 1.26 8.09 8.09 0 0 0 2.8.38 8.49 8.49 0 0 0 1.45-.28c-.05-.18-.1-.34-.14-.48s-.08-.28-.14-.48c-.25-.81-.75-2.23-1.25-3.54a21.92 21.92 0 0 1-1.24-4.44 9.06 9.06 0 0 1 .31-2.85 8.84 8.84 0 0 0 .33-2.72 9.55 9.55 0 0 0-.72-2.72 8.49 8.49 0 0 1-.66-2.72 8.2 8.2 0 0 1 .5-2.72 17.25 17.25 0 0 0 .79-2.72c.14-.75.32-5.86.41-11.36v-2.24c.09-5.5.08-10.81 0-11.8a3.86 3.86 0 0 0-1.44-2.58c-.67-.39-3.82-.48-7.19-.2h-.52z" fill="url(#e)"/><path d="M59.84 154.13c-1.51-.7-2.94-1.41-3.18-1.58a1.64 1.64 0 0 1-.56-.83 3.25 3.25 0 0 1 .06-1.27 3.92 3.92 0 0 0 0-1.48 5.11 5.11 0 0 0-.66-1.48 2.86 2.86 0 0 1-.46-1.45 2.77 2.77 0 0 1 .6-1.38c.31-.37-.37.24-1.52 1.35s-2.82 2.58-3.72 3.27a32.33 32.33 0 0 1-3.3 2.17c-.92.51-5.16 2.19-9.43 3.74a73.5 73.5 0 0 1-9.63 3 21.69 21.69 0 0 1-6.28-1.36 39.62 39.62 0 0 1-5.6-2.3 14.2 14.2 0 0 1-2.14-1.79 7.79 7.79 0 0 0-2.31-1.57h-.09l.16.41c.13.3.3.68.49 1.06.31.65.66 1.34.93 1.83a6.83 6.83 0 0 0 2.07 2.18 7.85 7.85 0 0 0 3 .85 11.49 11.49 0 0 1 3.12.64 7.79 7.79 0 0 1 2.31 1.57 14.2 14.2 0 0 0 2.14 1.79 39.62 39.62 0 0 0 5.6 2.3 21.69 21.69 0 0 0 6.28 1.36 73.5 73.5 0 0 0 9.63-3c4.27-1.55 8.51-3.23 9.43-3.74a32.33 32.33 0 0 0 3.3-2.17l.7-.56.85-.73c-.57-.29-1.22-.56-1.79-.83z" fill="url(#f)"/><path d="M47.38 61.47a17.77 17.77 0 0 1 .13-2.89c.12-1 .25-1.94.38-2.81a21.57 21.57 0 0 0 0-4.75 1.94 1.94 0 0 0-.26-.81 6 6 0 0 0-2.43-1.43 13.75 13.75 0 0 0-3.32-.53 13.26 13.26 0 0 0-2.69.34l-.59.15-.44.12v.41c-.3 2.8-.53 5.65-.52 6.34a19.33 19.33 0 0 0 .27 2.66 29.34 29.34 0 0 0 .76 3 2.46 2.46 0 0 1-.19 2.22c-.38.36-3.78.22-7.57-.3s-7.64-1.19-8.54-1.44a10.78 10.78 0 0 0-1.6-.29c0 .31.08.66.13 1 .11.83.24 1.77.39 2.68.34 2.13 1 4 1.55 4.21a4.69 4.69 0 0 0 2.61-.31 13.17 13.17 0 0 1 3.33-.75 12.08 12.08 0 0 1 3.3.36c.9.25 4.74.89 8.52 1.41s7.19.66 7.57.3a2.46 2.46 0 0 0 .19-2.22 29.34 29.34 0 0 1-.76-3c-.05-.28-.1-.63-.14-1-.07-.61-.13-1.25-.13-1.68-.01-.11.01-.46.05-.99z" fill="url(#g)"/><path d="M57.53 70.24a4.26 4.26 0 0 0 2.7-.06 34.82 34.82 0 0 1 3.61-.85 26.53 26.53 0 0 1 3.37-.3c.89 0 4.58.23 8.2.53s7.06.29 7.66 0a4.16 4.16 0 0 0 1.62-1.88 8.66 8.66 0 0 0 .54-2.58 8 8 0 0 0-.47-2.53 12.45 12.45 0 0 1-.64-2.5 11.33 11.33 0 0 1 0-2.5 9.12 9.12 0 0 0 0-2.32 6.62 6.62 0 0 0-.71-2A8 8 0 0 0 82 51.6a14.48 14.48 0 0 0-2.29-1.45 19.35 19.35 0 0 0-2.83-1.08c-.37-.1-.85-.21-1.35-.3l-1-.17a9.47 9.47 0 0 1 0 2 11.33 11.33 0 0 0 0 2.5 12.45 12.45 0 0 0 .64 2.5 8 8 0 0 1 .47 2.53 8.66 8.66 0 0 1-.64 2.59 4.16 4.16 0 0 1-1.62 1.88c-.6.31-4.05.32-7.66 0-3.41-.28-6.88-.51-8-.53 0 .31-.1.65-.15 1-.11.77-.22 1.61-.33 2.44-.31 2.33-.17 4.49.29 4.73z" fill="url(#h)"/></svg>