<svg xmlns="http://www.w3.org/2000/svg" xmlns:xlink="http://www.w3.org/1999/xlink" width="200" height="200" viewBox="0 0 200 200"><defs><linearGradient id="a" x1="106.96" y1="62.65" x2="117.44" y2="39.12" gradientUnits="userSpaceOnUse"><stop offset="0" stop-color="#fdba56"/><stop offset="0.02" stop-color="#fbb055"/><stop offset="0.06" stop-color="#f79d54"/><stop offset="0.1" stop-color="#f59253"/><stop offset="0.15" stop-color="#f48e53"/><stop offset="0.3" stop-color="#ed5e4e"/><stop offset="0.47" stop-color="#683a96" stop-opacity="0.5"/><stop offset="0.64" stop-color="#ed872b"/><stop offset="0.79" stop-color="#7b76b6"/><stop offset="0.9" stop-color="#f15f4f"/><stop offset="1" stop-color="#fdba56"/></linearGradient><linearGradient id="b" x1="71.72" y1="63.46" x2="81.94" y2="40.52" xlink:href="#a"/><linearGradient id="c" x1="52.55" y1="177.47" x2="104.84" y2="60.02" xlink:href="#a"/><linearGradient id="d" x1="120.2" y1="51.25" x2="128.71" y2="70.36" gradientUnits="userSpaceOnUse"><stop offset="0" stop-color="#b7151b"/><stop offset="0.02" stop-color="#c52229"/><stop offset="0.06" stop-color="#d7333c"/><stop offset="0.11" stop-color="#e23d47"/><stop offset="0.15" stop-color="#e6404b"/><stop offset="0.3" stop-color="#e98a7b"/><stop offset="0.47" stop-color="#7c78b8"/><stop offset="0.64" stop-color="#00b0b0"/><stop offset="0.79" stop-color="#7b76b6"/><stop offset="1" stop-color="#e7322f"/></linearGradient><linearGradient id="e" x1="83.89" y1="52.04" x2="92" y2="70.27" xlink:href="#d"/><linearGradient id="f" x1="92.05" y1="100.29" x2="125.33" y2="175.05" xlink:href="#d"/><linearGradient id="g" x1="81.59" y1="77.98" x2="99.79" y2="118.86" xlink:href="#d"/></defs><title>_</title><path d="M125.11,42.54a4.68,4.68,0,0,0-2.3-.16,18.73,18.73,0,0,1-3.77.25,17,17,0,0,1-3.6-.66,16.42,16.42,0,0,0-3-.61h-0.28a49.89,49.89,0,0,0-5.92.61,26.19,26.19,0,0,0-5.51,1.31,4.88,4.88,0,0,0-1.35,1.51,4.45,4.45,0,0,0-.41,1.88,5.67,5.67,0,0,0,.72,2c0.1,0.16.2,0.34,0.29,0.52a11.76,11.76,0,0,1,.93,2.27,9.69,9.69,0,0,1,.25,2.27c0,0.21,0,.42,0,0.59C101,55,101,56,101,56.6s0,1.48.1,2a2.92,2.92,0,0,0,.63,1.26,7.76,7.76,0,0,0,1.89,1.3,5.65,5.65,0,0,0,2.42.45,8.21,8.21,0,0,0,2.73-1c0.19-.11.41-0.22,0.63-0.33a10.13,10.13,0,0,1,3-.93,9.19,9.19,0,0,1,3.72.57,15.94,15.94,0,0,0,3,.83,13.4,13.4,0,0,0,2.89,0,3.79,3.79,0,0,0,1.62-.58,1.43,1.43,0,0,0,.15-0.94,19.9,19.9,0,0,1-.34-2.52,21.52,21.52,0,0,1,0-2.6,12.28,12.28,0,0,1,.64-2.77,15.81,15.81,0,0,1,1.41-2.71,5.58,5.58,0,0,0,.41-0.78,6.23,6.23,0,0,0,.47-1.43,7.15,7.15,0,0,0-.21-2.45A2.92,2.92,0,0,0,125.11,42.54Z" fill="url(#a)"/><path d="M89.49,44.55a1.55,1.55,0,0,0-.53-0.9,4,4,0,0,0-1.81-.12c-0.89.13-2.35,0.27-3.26,0.3s-2.4,0-3.33,0a19.1,19.1,0,0,1-3.47-.62,22.62,22.62,0,0,1-3.43-1.39,11.27,11.27,0,0,0-3-1,7.82,7.82,0,0,0-1-.06,11.61,11.61,0,0,0-2.19.2,4.54,4.54,0,0,0-2,1,2.52,2.52,0,0,0-.28,1.63,13.68,13.68,0,0,1,.17,3.15,11.58,11.58,0,0,1-.73,2.92h0A9.81,9.81,0,0,0,64,51.83a25,25,0,0,0,.58,4.61,13.08,13.08,0,0,0,1.37,4.07,7.71,7.71,0,0,0,2.13,1.31,8,8,0,0,0,2.75.48,8.63,8.63,0,0,0,2-.45,7.41,7.41,0,0,0,.84-0.33,17.69,17.69,0,0,1,3.51-1.2,15.13,15.13,0,0,1,3.54-.22c0.88,0.07,2.25.12,3.05,0.1s2.09-.1,2.83-0.2a7,7,0,0,0,2.08-.64A4.7,4.7,0,0,0,90,58.15a2.54,2.54,0,0,0,.31-1.4,5.54,5.54,0,0,0-1-1.91,7.09,7.09,0,0,1-1.34-3,5.85,5.85,0,0,1,.41-2.61,4.63,4.63,0,0,1,.21-0.49,10.1,10.1,0,0,0,.81-2.18A7.2,7.2,0,0,0,89.49,44.55Z" fill="url(#b)"/><path d="M80.73,78.06a24.56,24.56,0,0,1-.22-2.75,3.66,3.66,0,0,0-.81-2.24A5.27,5.27,0,0,0,77,72.3c-1.26,0-4.17-.22-6.49-0.47a43.56,43.56,0,0,0-6-.28,22,22,0,0,0-3.81.75,26.74,26.74,0,0,1-4.35.88,30.13,30.13,0,0,1-4.6,0,4.71,4.71,0,0,0-2.59.48,3.12,3.12,0,0,0-.54,2.08,13.52,13.52,0,0,0,.8,3.36,10.75,10.75,0,0,0,1.73,2.64,14.23,14.23,0,0,1,2.11,3,12.94,12.94,0,0,1,1,3.44,20.75,20.75,0,0,0,.66,3,20.38,20.38,0,0,0,1.21,2.83,25.24,25.24,0,0,0,1.73,2.67,29.48,29.48,0,0,0,2.22,2.52,8.48,8.48,0,0,1,2,3.3,9.53,9.53,0,0,1,0,4,20.06,20.06,0,0,0-.46,3.42,15.07,15.07,0,0,0,.31,3.09c0.2,0.84.85,2.93,1.42,4.56a32.85,32.85,0,0,0,1.84,4.32c0.44,0.75,2.18,3.25,3.79,5.45s3.27,4.9,3.54,6.07a13.62,13.62,0,0,1,.22,3.71,10.59,10.59,0,0,0,.22,3,9.55,9.55,0,0,0,1.27,2.6C74.8,143.52,76,145.43,77,147c0.63,1.07,1.82,3.39,1.75,4.55a4.58,4.58,0,0,1-1.29,2.69,12.24,12.24,0,0,1-2,1.53,7.3,7.3,0,0,1-2.1.77,12.43,12.43,0,0,0-1.83.52c-0.59.22-1.71,0.72-2.46,1.09s-1.88.9-2.41,1.11a7.42,7.42,0,0,1-2.53.39,8.71,8.71,0,0,0-1.37,0,3.18,3.18,0,0,0-.57.25,2.51,2.51,0,0,1-.92.3l0,0.07a10.8,10.8,0,0,1,.92,3.14c0.12,1.18-1.23,6-2.16,8.89a41.39,41.39,0,0,0-1.84,7.38,2.26,2.26,0,0,0,1,.66,11.63,11.63,0,0,0,2.12.39A46.59,46.59,0,0,0,67,179.65l1.11-.25c3.23-.7,9.06-1.68,13.85-2.33l5.12-.69c5.79-.78,10.57-1.56,11.24-1.77a17.65,17.65,0,0,0,2.69-1.15,19.25,19.25,0,0,0,2.48-1.72,13.79,13.79,0,0,0,2-2.16,13.24,13.24,0,0,0,1.32-2.57,18.91,18.91,0,0,0,.73-3.21,32.58,32.58,0,0,0,.17-4,23.41,23.41,0,0,1,.41-4.58,27.82,27.82,0,0,1,2.49-5.86c1.08-2,2.44-4.21,3-5a11.62,11.62,0,0,0,1.4-2.7,11.89,11.89,0,0,0,.46-3A16.71,16.71,0,0,1,116,135a40.89,40.89,0,0,1,3-6.25,52.55,52.55,0,0,0,3-5.79,60.68,60.68,0,0,0,1.25-6.41c0.43-2.84,1-5.79,1.22-6.72s0.72-2.37,1-3.25,0.77-2.22,1-3.07,0.55-2.29.7-3.17a10.59,10.59,0,0,1,1.39-3.47,13.88,13.88,0,0,1,2.8-2.87,7.71,7.71,0,0,0,2-2.33,6.39,6.39,0,0,0,.4-2.8,17.88,17.88,0,0,1,0-3.75,15.49,15.49,0,0,1,1-3.47c0.14-.32.33-0.81,0.54-1.37,0.32-.87.69-1.91,1-2.8a6,6,0,0,0,.33-2.88,5,5,0,0,0-1.83-1.23h0a8.15,8.15,0,0,0-3-.43,11.53,11.53,0,0,0-3.36,1,13.32,13.32,0,0,1-4.22,1.25,12.27,12.27,0,0,1-4.26-.56,21.48,21.48,0,0,0-3.61-.86,18.93,18.93,0,0,0-3.53,0,5.43,5.43,0,0,0-2.35.85,3.41,3.41,0,0,0-.87,1.79c-0.11.88-.37,2.32-0.57,3.2s-0.63,2.3-.94,3.17a18.75,18.75,0,0,1-1.54,3.15,22.47,22.47,0,0,1-2.28,2.9,11.79,11.79,0,0,0-1.77,2.54,26.48,26.48,0,0,0-.87,6.07,40,40,0,0,1-.82,6.75,15.17,15.17,0,0,1-1.57,3.2,16.3,16.3,0,0,0-1.4,2.68,45.12,45.12,0,0,0-1.2,6.3c-0.77,5.68-1.68,5.84-2.17,5.93-1.21.22-2.5-1.39-2.74-1.72a16.39,16.39,0,0,1-1.84-3.23,14.2,14.2,0,0,1-.81-3.47,24.82,24.82,0,0,0-.48-3.06,24.48,24.48,0,0,0-.94-2.93c-0.35-.86-0.84-2.28-1.08-3.17S85.49,99,84.89,95c-0.72-4.77-1.44-8.74-1.67-9.45a26.08,26.08,0,0,0-1.14-2.88,17.81,17.81,0,0,1-1.16-3.43C80.86,78.89,80.79,78.49,80.73,78.06Z" fill="url(#c)"/><path d="M126.33,49.22a14.91,14.91,0,0,0-1.31,2.5,11.26,11.26,0,0,0-.58,2.5,20.77,20.77,0,0,0,0,2.46,19.17,19.17,0,0,0,.32,2.37,2.29,2.29,0,0,1-.41,1.85,4.42,4.42,0,0,1-2.22.88,14.18,14.18,0,0,1-3.15,0,16.86,16.86,0,0,1-3.22-.89,8.26,8.26,0,0,0-3.25-.5,9.19,9.19,0,0,0-2.68.83c0,0.33-.06.75-0.09,1.17s0,0.87,0,1.18a20.94,20.94,0,0,0,.11,2.1,3.86,3.86,0,0,0,.88,1.82A8.73,8.73,0,0,0,112.86,69a6.63,6.63,0,0,0,2.94.55A9.12,9.12,0,0,0,119,68.43a9.41,9.41,0,0,1,3.25-1.12,8.26,8.26,0,0,1,3.25.5,16.86,16.86,0,0,0,3.22.89,14.18,14.18,0,0,0,3.15,0,4.42,4.42,0,0,0,2.22-.88,2.29,2.29,0,0,0,.41-1.85,19.17,19.17,0,0,1-.32-2.37,20.77,20.77,0,0,1,0-2.46,11.26,11.26,0,0,1,.58-2.5,14.91,14.91,0,0,1,1.31-2.5,7.65,7.65,0,0,0,1-2.63,8.12,8.12,0,0,0-.24-2.87,3.83,3.83,0,0,0-1.56-2.08,5.51,5.51,0,0,0-2.94-.25,18.18,18.18,0,0,1-3.54.24c-0.28,0-.62-0.05-1-0.1l-1-.17A6.53,6.53,0,0,1,126.33,49.22Z" fill="url(#d)"/><path d="M89.35,49.61A4.91,4.91,0,0,0,89,51.73a6.17,6.17,0,0,0,1.14,2.5,6.34,6.34,0,0,1,1.15,2.37,3.5,3.5,0,0,1-.46,2.1,5.66,5.66,0,0,1-1.66,1.56,8,8,0,0,1-2.44.76c-0.78.1-2.1,0.19-2.94,0.2s-2.25,0-3.15-.11a14.18,14.18,0,0,0-3.26.2,16.8,16.8,0,0,0-3.27,1.12,8.41,8.41,0,0,1-1,.37c0,0.26.1,0.53,0.15,0.79l0,0.2a12.28,12.28,0,0,0,1.59,4.37,8.67,8.67,0,0,0,2.47,1.53,9,9,0,0,0,3.17.55,10.18,10.18,0,0,0,3.24-.87,16.8,16.8,0,0,1,3.27-1.12,14.18,14.18,0,0,1,3.26-.2c0.89,0.07,2.31.12,3.15,0.11s2.16-.1,2.94-0.2a8,8,0,0,0,2.44-.76,5.66,5.66,0,0,0,1.66-1.56,3.5,3.5,0,0,0,.46-2.1,6.34,6.34,0,0,0-1.15-2.37,6.17,6.17,0,0,1-1.14-2.5,4.81,4.81,0,0,1,.26-1.9,4,4,0,0,1,.25-0.61,11,11,0,0,0,.9-2.43,8.71,8.71,0,0,0-.22-2,10.89,10.89,0,0,0-.84-2.05,3.87,3.87,0,0,0-1.27-.24,5.54,5.54,0,0,0-1.08,0c-0.86.13-2.28,0.26-3.15,0.3s-2.29,0-3.18,0h0C90.06,49.71,89.71,49.66,89.35,49.61Z" fill="url(#e)"/><path d="M144.87,79.37a9,9,0,0,0-3.46-.49A12.38,12.38,0,0,0,137.68,80l-0.19.09a11.1,11.1,0,0,1-1.25.5c-0.22.58-.41,1.09-0.56,1.42a14.59,14.59,0,0,0-.89,3.2,17.05,17.05,0,0,0,0,3.5,7.37,7.37,0,0,1-.49,3.34A8.66,8.66,0,0,1,132,94.79a12.92,12.92,0,0,0-2.57,2.63,9.61,9.61,0,0,0-1.24,3.08c-0.16.91-.48,2.38-0.72,3.26s-0.7,2.3-1,3.16-0.78,2.28-1,3.16-0.78,3.86-1.2,6.61a61.43,61.43,0,0,1-1.29,6.57,53.06,53.06,0,0,1-3,6,40.11,40.11,0,0,0-2.93,6,15.79,15.79,0,0,0-.42,3.36,12.9,12.9,0,0,1-.51,3.33,12.7,12.7,0,0,1-1.54,3c-0.57.77-1.9,3-3,4.91a27.23,27.23,0,0,0-2.38,5.58,22.2,22.2,0,0,0-.39,4.34,33.38,33.38,0,0,1-.18,4.16,19.82,19.82,0,0,1-.78,3.42,14.27,14.27,0,0,1-1.44,2.81,14.8,14.8,0,0,1-2.16,2.35,20.09,20.09,0,0,1-2.64,1.83,18.57,18.57,0,0,1-2.88,1.23c-0.82.26-6,1.07-11.41,1.81l-5.12.69c-4.83.65-10.62,1.63-13.77,2.32-0.11.37-.22,0.74-0.32,1.1-0.81,2.85-1.28,5.15-1.1,5.55a2.94,2.94,0,0,0,1.69,1.29,12.53,12.53,0,0,0,2.34.42,41,41,0,0,0,6-1.17c2.72-.67,9.41-1.83,14.86-2.57l5.12-.69c5.45-.74,10.58-1.55,11.41-1.81a18.57,18.57,0,0,0,2.88-1.23,20.09,20.09,0,0,0,2.64-1.83,14.8,14.8,0,0,0,2.16-2.35,14.27,14.27,0,0,0,1.44-2.81,19.82,19.82,0,0,0,.78-3.42,33.38,33.38,0,0,0,.18-4.16,22.2,22.2,0,0,1,.39-4.34,27.23,27.23,0,0,1,2.38-5.58c1.07-1.93,2.4-4.14,3-4.91a12.7,12.7,0,0,0,1.54-3,12.9,12.9,0,0,0,.51-3.33,15.79,15.79,0,0,1,.42-3.36,40.11,40.11,0,0,1,2.93-6,53.06,53.06,0,0,0,3-6,61.43,61.43,0,0,0,1.29-6.57c0.42-2.75,1-5.72,1.2-6.61s0.7-2.3,1-3.16,0.78-2.27,1-3.16,0.57-2.35.72-3.26a9.61,9.61,0,0,1,1.24-3.08,12.92,12.92,0,0,1,2.57-2.63A8.66,8.66,0,0,0,144,99a7.37,7.37,0,0,0,.49-3.34,17.05,17.05,0,0,1,0-3.5,14.59,14.59,0,0,1,.89-3.2c0.36-.84,1.06-2.75,1.55-4.26s0.59-3.17.24-3.71A5.74,5.74,0,0,0,144.87,79.37Z" fill="url(#f)"/><path d="M81.9,79A17,17,0,0,0,83,82.21a26.8,26.8,0,0,1,1.2,3c0.27,0.85,1,5.17,1.7,9.6s1.41,8.76,1.65,9.61,0.71,2.23,1,3.06a25.25,25.25,0,0,1,1,3.08,25.7,25.7,0,0,1,.5,3.21,13.23,13.23,0,0,0,.74,3.18,15.48,15.48,0,0,0,1.71,3,2.93,2.93,0,0,0,1.77,1.33c0.37-.06,1-2.35,1.35-5.07a46.11,46.11,0,0,1,1.24-6.48l0,0c-0.09-.5-0.2-1.09-0.31-1.73-0.3-1.75-.66-4-1-6.21-0.67-4.43-1.44-8.75-1.7-9.6a26.8,26.8,0,0,0-1.2-3A17,17,0,0,1,91.61,86a22.69,22.69,0,0,1-.39-3.71,4.56,4.56,0,0,0-1.15-3,6.07,6.07,0,0,0-3.38-1c-0.82,0-2.35-.1-3.95-0.23l-1-.09C81.78,78.33,81.84,78.71,81.9,79Z" fill="url(#g)"/></svg>